<?xml version="1.0" encoding="UTF-8" standalone="no"?>
<!DOCTYPE svg PUBLIC "-//W3C//DTD SVG 1.1//EN"
 "http://www.w3.org/Graphics/SVG/1.1/DTD/svg11.dtd">
<!-- Generated by graphviz version 2.43.0 (0)
 -->
<!-- Title: alps_core/lib_internal/alps_common_lib/include/alps_cmn/util/algorithm.hpp Pages: 1 -->
<svg width="1344pt" height="406pt"
 viewBox="0.00 0.00 1344.00 406.00" xmlns="http://www.w3.org/2000/svg" xmlns:xlink="http://www.w3.org/1999/xlink">
<g id="graph0" class="graph" transform="scale(1 1) rotate(0) translate(4 402)">
<title>alps_core/lib_internal/alps_common_lib/include/alps_cmn/util/algorithm.hpp</title>
<polygon fill="white" stroke="transparent" points="-4,4 -4,-402 1340,-402 1340,4 -4,4"/>
<!-- Node1 -->
<g id="node1" class="node">
<title>Node1</title>
<g id="a_node1"><a xlink:title=" ">
<polygon fill="#bfbfbf" stroke="black" points="536.5,-356.5 536.5,-397.5 692.5,-397.5 692.5,-356.5 536.5,-356.5"/>
<text text-anchor="start" x="544.5" y="-385.5" font-family="Helvetica,sans-Serif" font-size="10.00">alps_core/lib_internal</text>
<text text-anchor="start" x="544.5" y="-374.5" font-family="Helvetica,sans-Serif" font-size="10.00">/alps_common_lib/include</text>
<text text-anchor="middle" x="614.5" y="-363.5" font-family="Helvetica,sans-Serif" font-size="10.00">/alps_cmn/util/algorithm.hpp</text>
</a>
</g>
</g>
<!-- Node2 -->
<g id="node2" class="node">
<title>Node2</title>
<g id="a_node2"><a xlink:href="alps__common__lib_2include_2alps__cmn_2actuator_2dc__motor_8hpp.html" target="_top" xlink:title=" ">
<polygon fill="white" stroke="black" points="0,-273 0,-314 179,-314 179,-273 0,-273"/>
<text text-anchor="start" x="8" y="-302" font-family="Helvetica,sans-Serif" font-size="10.00">alps_core/lib_internal</text>
<text text-anchor="start" x="8" y="-291" font-family="Helvetica,sans-Serif" font-size="10.00">/alps_common_lib/include</text>
<text text-anchor="middle" x="89.5" y="-280" font-family="Helvetica,sans-Serif" font-size="10.00">/alps_cmn/actuator/dc_motor.hpp</text>
</a>
</g>
</g>
<!-- Node1&#45;&gt;Node2 -->
<g id="edge1" class="edge">
<title>Node1&#45;&gt;Node2</title>
<path fill="none" stroke="midnightblue" d="M526.05,-367.64C439.33,-358.68 303.62,-342.63 187.5,-320 178.61,-318.27 169.34,-316.2 160.18,-314"/>
<polygon fill="midnightblue" stroke="midnightblue" points="525.81,-371.13 536.11,-368.67 526.52,-364.17 525.81,-371.13"/>
</g>
<!-- Node4 -->
<g id="node4" class="node">
<title>Node4</title>
<g id="a_node4"><a xlink:href="esc__bldc__motor_8hpp.html" target="_top" xlink:title="ESCで動かすブラシレスDCモーター">
<polygon fill="white" stroke="black" points="197,-267.5 197,-319.5 352,-319.5 352,-267.5 197,-267.5"/>
<text text-anchor="start" x="205" y="-307.5" font-family="Helvetica,sans-Serif" font-size="10.00">alps_core/lib_internal</text>
<text text-anchor="start" x="205" y="-296.5" font-family="Helvetica,sans-Serif" font-size="10.00">/alps_common_lib/include</text>
<text text-anchor="start" x="205" y="-285.5" font-family="Helvetica,sans-Serif" font-size="10.00">/alps_cmn/actuator/esc_bldc</text>
<text text-anchor="middle" x="274.5" y="-274.5" font-family="Helvetica,sans-Serif" font-size="10.00">_motor.hpp</text>
</a>
</g>
</g>
<!-- Node1&#45;&gt;Node4 -->
<g id="edge3" class="edge">
<title>Node1&#45;&gt;Node4</title>
<path fill="none" stroke="midnightblue" d="M526.4,-358.19C477.35,-347.87 415.31,-334.15 360.5,-320 357.79,-319.3 355.03,-318.57 352.25,-317.82"/>
<polygon fill="midnightblue" stroke="midnightblue" points="525.84,-361.65 536.34,-360.27 527.27,-354.8 525.84,-361.65"/>
</g>
<!-- Node5 -->
<g id="node5" class="node">
<title>Node5</title>
<g id="a_node5"><a xlink:href="robomas__motor_8hpp.html" target="_top" xlink:title="ロボマスモータのライブラリ">
<polygon fill="white" stroke="black" points="370,-267.5 370,-319.5 525,-319.5 525,-267.5 370,-267.5"/>
<text text-anchor="start" x="378" y="-307.5" font-family="Helvetica,sans-Serif" font-size="10.00">alps_core/lib_internal</text>
<text text-anchor="start" x="378" y="-296.5" font-family="Helvetica,sans-Serif" font-size="10.00">/alps_common_lib/include</text>
<text text-anchor="start" x="378" y="-285.5" font-family="Helvetica,sans-Serif" font-size="10.00">/alps_cmn/actuator/robomas</text>
<text text-anchor="middle" x="447.5" y="-274.5" font-family="Helvetica,sans-Serif" font-size="10.00">_motor.hpp</text>
</a>
</g>
</g>
<!-- Node1&#45;&gt;Node5 -->
<g id="edge4" class="edge">
<title>Node1&#45;&gt;Node5</title>
<path fill="none" stroke="midnightblue" d="M565.46,-352.07C544.52,-341.85 520.07,-329.92 498.88,-319.58"/>
<polygon fill="midnightblue" stroke="midnightblue" points="563.98,-355.24 574.5,-356.48 567.05,-348.95 563.98,-355.24"/>
</g>
<!-- Node6 -->
<g id="node6" class="node">
<title>Node6</title>
<g id="a_node6"><a xlink:href="alps__common__lib_2include_2alps__cmn_2actuator_2servo__motor_8hpp.html" target="_top" xlink:title=" ">
<polygon fill="white" stroke="black" points="543,-267.5 543,-319.5 686,-319.5 686,-267.5 543,-267.5"/>
<text text-anchor="start" x="551" y="-307.5" font-family="Helvetica,sans-Serif" font-size="10.00">alps_core/lib_internal</text>
<text text-anchor="start" x="551" y="-296.5" font-family="Helvetica,sans-Serif" font-size="10.00">/alps_common_lib/include</text>
<text text-anchor="start" x="551" y="-285.5" font-family="Helvetica,sans-Serif" font-size="10.00">/alps_cmn/actuator/servo</text>
<text text-anchor="middle" x="614.5" y="-274.5" font-family="Helvetica,sans-Serif" font-size="10.00">_motor.hpp</text>
</a>
</g>
</g>
<!-- Node1&#45;&gt;Node6 -->
<g id="edge5" class="edge">
<title>Node1&#45;&gt;Node6</title>
<path fill="none" stroke="midnightblue" d="M614.5,-346.12C614.5,-337.41 614.5,-327.99 614.5,-319.61"/>
<polygon fill="midnightblue" stroke="midnightblue" points="611,-346.27 614.5,-356.27 618,-346.27 611,-346.27"/>
</g>
<!-- Node8 -->
<g id="node8" class="node">
<title>Node8</title>
<g id="a_node8"><a xlink:href="integrator_8hpp.html" target="_top" xlink:title="積分器ライブラリ">
<polygon fill="white" stroke="black" points="704.5,-273 704.5,-314 878.5,-314 878.5,-273 704.5,-273"/>
<text text-anchor="start" x="712.5" y="-302" font-family="Helvetica,sans-Serif" font-size="10.00">alps_core/lib_internal</text>
<text text-anchor="start" x="712.5" y="-291" font-family="Helvetica,sans-Serif" font-size="10.00">/alps_common_lib/include</text>
<text text-anchor="middle" x="791.5" y="-280" font-family="Helvetica,sans-Serif" font-size="10.00">/alps_cmn/control/integrator.hpp</text>
</a>
</g>
</g>
<!-- Node1&#45;&gt;Node8 -->
<g id="edge7" class="edge">
<title>Node1&#45;&gt;Node8</title>
<path fill="none" stroke="midnightblue" d="M665.99,-352.29C692.4,-340.13 724.17,-325.5 749.14,-314"/>
<polygon fill="midnightblue" stroke="midnightblue" points="664.52,-349.12 656.9,-356.48 667.44,-355.48 664.52,-349.12"/>
</g>
<!-- Node16 -->
<g id="node16" class="node">
<title>Node16</title>
<g id="a_node16"><a xlink:href="moving__average_8hpp.html" target="_top" xlink:title=" ">
<polygon fill="white" stroke="black" points="897,-267.5 897,-319.5 1040,-319.5 1040,-267.5 897,-267.5"/>
<text text-anchor="start" x="905" y="-307.5" font-family="Helvetica,sans-Serif" font-size="10.00">alps_core/lib_internal</text>
<text text-anchor="start" x="905" y="-296.5" font-family="Helvetica,sans-Serif" font-size="10.00">/alps_common_lib/include</text>
<text text-anchor="start" x="905" y="-285.5" font-family="Helvetica,sans-Serif" font-size="10.00">/alps_cmn/control/moving</text>
<text text-anchor="middle" x="968.5" y="-274.5" font-family="Helvetica,sans-Serif" font-size="10.00">_average.hpp</text>
</a>
</g>
</g>
<!-- Node1&#45;&gt;Node16 -->
<g id="edge19" class="edge">
<title>Node1&#45;&gt;Node16</title>
<path fill="none" stroke="midnightblue" d="M702.5,-360.33C756.25,-350.16 826.21,-335.89 887.5,-320 890.5,-319.22 893.55,-318.4 896.62,-317.55"/>
<polygon fill="midnightblue" stroke="midnightblue" points="701.84,-356.89 692.65,-362.18 703.13,-363.77 701.84,-356.89"/>
</g>
<!-- Node17 -->
<g id="node17" class="node">
<title>Node17</title>
<g id="a_node17"><a xlink:href="numeric__range_8hpp.html" target="_top" xlink:title="数値の範囲を扱うクラス">
<polygon fill="white" stroke="black" points="1058.5,-273 1058.5,-314 1240.5,-314 1240.5,-273 1058.5,-273"/>
<text text-anchor="start" x="1066.5" y="-302" font-family="Helvetica,sans-Serif" font-size="10.00">alps_core/lib_internal</text>
<text text-anchor="start" x="1066.5" y="-291" font-family="Helvetica,sans-Serif" font-size="10.00">/alps_common_lib/include</text>
<text text-anchor="middle" x="1149.5" y="-280" font-family="Helvetica,sans-Serif" font-size="10.00">/alps_cmn/util/numeric_range.hpp</text>
</a>
</g>
</g>
<!-- Node1&#45;&gt;Node17 -->
<g id="edge20" class="edge">
<title>Node1&#45;&gt;Node17</title>
<path fill="none" stroke="midnightblue" d="M702.77,-367.72C790.81,-358.73 929.68,-342.58 1048.5,-320 1057.56,-318.28 1067.02,-316.23 1076.36,-314.05"/>
<polygon fill="midnightblue" stroke="midnightblue" points="702.15,-364.27 692.56,-368.75 702.86,-371.23 702.15,-364.27"/>
</g>
<!-- Node3 -->
<g id="node3" class="node">
<title>Node3</title>
<g id="a_node3"><a xlink:href="alps__mbed__lib_2include_2alps__mbed_2actuator_2dc__motor_8hpp.html" target="_top" xlink:title=" ">
<polygon fill="white" stroke="black" points="24,-178.5 24,-230.5 155,-230.5 155,-178.5 24,-178.5"/>
<text text-anchor="start" x="32" y="-218.5" font-family="Helvetica,sans-Serif" font-size="10.00">alps_core/lib_internal</text>
<text text-anchor="start" x="32" y="-207.5" font-family="Helvetica,sans-Serif" font-size="10.00">/alps_mbed_lib/include</text>
<text text-anchor="start" x="32" y="-196.5" font-family="Helvetica,sans-Serif" font-size="10.00">/alps_mbed/actuator/dc</text>
<text text-anchor="middle" x="89.5" y="-185.5" font-family="Helvetica,sans-Serif" font-size="10.00">_motor.hpp</text>
</a>
</g>
</g>
<!-- Node2&#45;&gt;Node3 -->
<g id="edge2" class="edge">
<title>Node2&#45;&gt;Node3</title>
<path fill="none" stroke="midnightblue" d="M89.5,-262.51C89.5,-252.17 89.5,-240.71 89.5,-230.79"/>
<polygon fill="midnightblue" stroke="midnightblue" points="86,-262.76 89.5,-272.76 93,-262.76 86,-262.76"/>
</g>
<!-- Node7 -->
<g id="node7" class="node">
<title>Node7</title>
<g id="a_node7"><a xlink:href="alps__mbed__lib_2include_2alps__mbed_2actuator_2servo__motor_8hpp.html" target="_top" xlink:title=" ">
<polygon fill="white" stroke="black" points="541.5,-178.5 541.5,-230.5 687.5,-230.5 687.5,-178.5 541.5,-178.5"/>
<text text-anchor="start" x="549.5" y="-218.5" font-family="Helvetica,sans-Serif" font-size="10.00">alps_core/lib_internal</text>
<text text-anchor="start" x="549.5" y="-207.5" font-family="Helvetica,sans-Serif" font-size="10.00">/alps_mbed_lib/include</text>
<text text-anchor="start" x="549.5" y="-196.5" font-family="Helvetica,sans-Serif" font-size="10.00">/alps_mbed/actuator/servo</text>
<text text-anchor="middle" x="614.5" y="-185.5" font-family="Helvetica,sans-Serif" font-size="10.00">_motor.hpp</text>
</a>
</g>
</g>
<!-- Node6&#45;&gt;Node7 -->
<g id="edge6" class="edge">
<title>Node6&#45;&gt;Node7</title>
<path fill="none" stroke="midnightblue" d="M614.5,-257.19C614.5,-248.28 614.5,-238.9 614.5,-230.61"/>
<polygon fill="midnightblue" stroke="midnightblue" points="611,-257.34 614.5,-267.34 618,-257.34 611,-257.34"/>
</g>
<!-- Node9 -->
<g id="node9" class="node">
<title>Node9</title>
<g id="a_node9"><a xlink:href="pid_8hpp.html" target="_top" xlink:title=" ">
<polygon fill="white" stroke="black" points="906,-184 906,-225 1049,-225 1049,-184 906,-184"/>
<text text-anchor="start" x="914" y="-213" font-family="Helvetica,sans-Serif" font-size="10.00">alps_core/lib_internal</text>
<text text-anchor="start" x="914" y="-202" font-family="Helvetica,sans-Serif" font-size="10.00">/alps_common_lib/include</text>
<text text-anchor="middle" x="977.5" y="-191" font-family="Helvetica,sans-Serif" font-size="10.00">/alps_cmn/control/pid.hpp</text>
</a>
</g>
</g>
<!-- Node8&#45;&gt;Node9 -->
<g id="edge8" class="edge">
<title>Node8&#45;&gt;Node9</title>
<path fill="none" stroke="midnightblue" d="M842.47,-268.66C871.72,-254.98 907.99,-238.01 935.58,-225.11"/>
<polygon fill="midnightblue" stroke="midnightblue" points="840.82,-265.57 833.24,-272.98 843.78,-271.91 840.82,-265.57"/>
</g>
<!-- Node15 -->
<g id="node15" class="node">
<title>Node15</title>
<g id="a_node15"><a xlink:href="odometory_8hpp.html" target="_top" xlink:title="オドメトリ計算クラス">
<polygon fill="white" stroke="black" points="706.5,-184 706.5,-225 876.5,-225 876.5,-184 706.5,-184"/>
<text text-anchor="start" x="714.5" y="-213" font-family="Helvetica,sans-Serif" font-size="10.00">alps_core/lib_internal</text>
<text text-anchor="start" x="714.5" y="-202" font-family="Helvetica,sans-Serif" font-size="10.00">/alps_common_lib/include</text>
<text text-anchor="middle" x="791.5" y="-191" font-family="Helvetica,sans-Serif" font-size="10.00">/alps_cmn/robot/odometory.hpp</text>
</a>
</g>
</g>
<!-- Node8&#45;&gt;Node15 -->
<g id="edge18" class="edge">
<title>Node8&#45;&gt;Node15</title>
<path fill="none" stroke="midnightblue" d="M791.5,-262.44C791.5,-250.1 791.5,-236.16 791.5,-225.16"/>
<polygon fill="midnightblue" stroke="midnightblue" points="788,-262.76 791.5,-272.76 795,-262.76 788,-262.76"/>
</g>
<!-- Node10 -->
<g id="node10" class="node">
<title>Node10</title>
<g id="a_node10"><a xlink:href="motor__angle__controller_8hpp.html" target="_top" xlink:title=" ">
<polygon fill="white" stroke="black" points="748,-89.5 748,-141.5 891,-141.5 891,-89.5 748,-89.5"/>
<text text-anchor="start" x="756" y="-129.5" font-family="Helvetica,sans-Serif" font-size="10.00">alps_core/lib_internal</text>
<text text-anchor="start" x="756" y="-118.5" font-family="Helvetica,sans-Serif" font-size="10.00">/alps_common_lib/include</text>
<text text-anchor="start" x="756" y="-107.5" font-family="Helvetica,sans-Serif" font-size="10.00">/alps_cmn/control/motor</text>
<text text-anchor="middle" x="819.5" y="-96.5" font-family="Helvetica,sans-Serif" font-size="10.00">_angle_controller.hpp</text>
</a>
</g>
</g>
<!-- Node9&#45;&gt;Node10 -->
<g id="edge9" class="edge">
<title>Node9&#45;&gt;Node10</title>
<path fill="none" stroke="midnightblue" d="M933.21,-179.11C911.94,-167.4 886.49,-153.38 865.06,-141.58"/>
<polygon fill="midnightblue" stroke="midnightblue" points="931.59,-182.22 942.04,-183.98 934.97,-176.09 931.59,-182.22"/>
</g>
<!-- Node11 -->
<g id="node11" class="node">
<title>Node11</title>
<g id="a_node11"><a xlink:href="motor__angle__velocity__controller_8hpp.html" target="_top" xlink:title=" ">
<polygon fill="white" stroke="black" points="637,-0.5 637,-52.5 802,-52.5 802,-0.5 637,-0.5"/>
<text text-anchor="start" x="645" y="-40.5" font-family="Helvetica,sans-Serif" font-size="10.00">alps_core/lib_internal</text>
<text text-anchor="start" x="645" y="-29.5" font-family="Helvetica,sans-Serif" font-size="10.00">/alps_common_lib/include</text>
<text text-anchor="start" x="645" y="-18.5" font-family="Helvetica,sans-Serif" font-size="10.00">/alps_cmn/control/motor</text>
<text text-anchor="middle" x="719.5" y="-7.5" font-family="Helvetica,sans-Serif" font-size="10.00">_angle_velocity_controller.hpp</text>
</a>
</g>
</g>
<!-- Node9&#45;&gt;Node11 -->
<g id="edge12" class="edge">
<title>Node9&#45;&gt;Node11</title>
<path fill="none" stroke="midnightblue" d="M897.91,-181.28C893.72,-180.16 889.56,-179.06 885.5,-178 820.42,-161.01 784.23,-191.33 738.5,-142 716.31,-118.06 714.59,-78.57 716.33,-52.79"/>
<polygon fill="midnightblue" stroke="midnightblue" points="897.17,-184.7 907.74,-183.93 898.99,-177.95 897.17,-184.7"/>
</g>
<!-- Node13 -->
<g id="node13" class="node">
<title>Node13</title>
<g id="a_node13"><a xlink:href="motor__velocity__controller_8hpp.html" target="_top" xlink:title=" ">
<polygon fill="white" stroke="black" points="909,-89.5 909,-141.5 1052,-141.5 1052,-89.5 909,-89.5"/>
<text text-anchor="start" x="917" y="-129.5" font-family="Helvetica,sans-Serif" font-size="10.00">alps_core/lib_internal</text>
<text text-anchor="start" x="917" y="-118.5" font-family="Helvetica,sans-Serif" font-size="10.00">/alps_common_lib/include</text>
<text text-anchor="start" x="917" y="-107.5" font-family="Helvetica,sans-Serif" font-size="10.00">/alps_cmn/control/motor</text>
<text text-anchor="middle" x="980.5" y="-96.5" font-family="Helvetica,sans-Serif" font-size="10.00">_velocity_controller.hpp</text>
</a>
</g>
</g>
<!-- Node9&#45;&gt;Node13 -->
<g id="edge13" class="edge">
<title>Node9&#45;&gt;Node13</title>
<path fill="none" stroke="midnightblue" d="M978.53,-173.51C978.89,-163.17 979.29,-151.71 979.63,-141.79"/>
<polygon fill="midnightblue" stroke="midnightblue" points="975.03,-173.64 978.18,-183.76 982.02,-173.88 975.03,-173.64"/>
</g>
<!-- Node14 -->
<g id="node14" class="node">
<title>Node14</title>
<g id="a_node14"><a xlink:href="custom__type__param__conversion__rule_8hpp.html" target="_top" xlink:title=" ">
<polygon fill="white" stroke="black" points="1014.5,-0.5 1014.5,-52.5 1198.5,-52.5 1198.5,-0.5 1014.5,-0.5"/>
<text text-anchor="start" x="1022.5" y="-40.5" font-family="Helvetica,sans-Serif" font-size="10.00">alps_core/lib_internal</text>
<text text-anchor="start" x="1022.5" y="-29.5" font-family="Helvetica,sans-Serif" font-size="10.00">/alps_ros2_lib/include</text>
<text text-anchor="start" x="1022.5" y="-18.5" font-family="Helvetica,sans-Serif" font-size="10.00">/alps_ros2/type/custom</text>
<text text-anchor="middle" x="1106.5" y="-7.5" font-family="Helvetica,sans-Serif" font-size="10.00">_type_param_conversion_rule.hpp</text>
</a>
</g>
</g>
<!-- Node9&#45;&gt;Node14 -->
<g id="edge17" class="edge">
<title>Node9&#45;&gt;Node14</title>
<path fill="none" stroke="midnightblue" d="M1021.17,-177.95C1035.16,-168.11 1049.79,-155.87 1060.5,-142 1081.32,-115.04 1094.02,-77.4 1100.66,-52.75"/>
<polygon fill="midnightblue" stroke="midnightblue" points="1018.9,-175.26 1012.58,-183.76 1022.82,-181.06 1018.9,-175.26"/>
</g>
<!-- Node10&#45;&gt;Node11 -->
<g id="edge10" class="edge">
<title>Node10&#45;&gt;Node11</title>
<path fill="none" stroke="midnightblue" d="M782.89,-82.65C771.51,-72.75 759.13,-61.98 748.36,-52.61"/>
<polygon fill="midnightblue" stroke="midnightblue" points="780.73,-85.41 790.58,-89.34 785.33,-80.13 780.73,-85.41"/>
</g>
<!-- Node12 -->
<g id="node12" class="node">
<title>Node12</title>
<g id="a_node12"><a xlink:href="custom__type__topic__conversion__rule_8hpp.html" target="_top" xlink:title=" ">
<polygon fill="white" stroke="black" points="820.5,-0.5 820.5,-52.5 996.5,-52.5 996.5,-0.5 820.5,-0.5"/>
<text text-anchor="start" x="828.5" y="-40.5" font-family="Helvetica,sans-Serif" font-size="10.00">alps_core/lib_internal</text>
<text text-anchor="start" x="828.5" y="-29.5" font-family="Helvetica,sans-Serif" font-size="10.00">/alps_ros2_lib/include</text>
<text text-anchor="start" x="828.5" y="-18.5" font-family="Helvetica,sans-Serif" font-size="10.00">/alps_ros2/type/custom</text>
<text text-anchor="middle" x="908.5" y="-7.5" font-family="Helvetica,sans-Serif" font-size="10.00">_type_topic_conversion_rule.hpp</text>
</a>
</g>
</g>
<!-- Node10&#45;&gt;Node12 -->
<g id="edge11" class="edge">
<title>Node10&#45;&gt;Node12</title>
<path fill="none" stroke="midnightblue" d="M852.67,-82.08C862.63,-72.34 873.41,-61.8 882.82,-52.61"/>
<polygon fill="midnightblue" stroke="midnightblue" points="849.95,-79.84 845.24,-89.34 854.84,-84.85 849.95,-79.84"/>
</g>
<!-- Node13&#45;&gt;Node11 -->
<g id="edge14" class="edge">
<title>Node13&#45;&gt;Node11</title>
<path fill="none" stroke="midnightblue" d="M899.11,-87.37C865.74,-76.25 827.35,-63.45 794.65,-52.55"/>
<polygon fill="midnightblue" stroke="midnightblue" points="898.24,-90.77 908.84,-90.61 900.46,-84.13 898.24,-90.77"/>
</g>
<!-- Node13&#45;&gt;Node12 -->
<g id="edge16" class="edge">
<title>Node13&#45;&gt;Node12</title>
<path fill="none" stroke="midnightblue" d="M953.19,-81.5C945.26,-71.92 936.74,-61.62 929.28,-52.61"/>
<polygon fill="midnightblue" stroke="midnightblue" points="950.6,-83.86 959.67,-89.34 956,-79.4 950.6,-83.86"/>
</g>
<!-- Node13&#45;&gt;Node14 -->
<g id="edge15" class="edge">
<title>Node13&#45;&gt;Node14</title>
<path fill="none" stroke="midnightblue" d="M1025.39,-83.5C1040.07,-73.37 1056.17,-62.25 1070.14,-52.61"/>
<polygon fill="midnightblue" stroke="midnightblue" points="1023.18,-80.77 1016.94,-89.34 1027.16,-86.53 1023.18,-80.77"/>
</g>
<!-- Node17&#45;&gt;Node9 -->
<g id="edge24" class="edge">
<title>Node17&#45;&gt;Node9</title>
<path fill="none" stroke="midnightblue" d="M1101.66,-268.3C1074.74,-254.68 1041.55,-237.9 1016.27,-225.11"/>
<polygon fill="midnightblue" stroke="midnightblue" points="1100.4,-271.59 1110.9,-272.98 1103.56,-265.34 1100.4,-271.59"/>
</g>
<!-- Node18 -->
<g id="node18" class="node">
<title>Node18</title>
<g id="a_node18"><a xlink:href="output__change__limit__motor__decorator_8hpp.html" target="_top" xlink:title="出力変化制限を掛けるモーターデコレータ">
<polygon fill="white" stroke="black" points="1145,-89.5 1145,-141.5 1336,-141.5 1336,-89.5 1145,-89.5"/>
<text text-anchor="start" x="1153" y="-129.5" font-family="Helvetica,sans-Serif" font-size="10.00">alps_core/lib_internal</text>
<text text-anchor="start" x="1153" y="-118.5" font-family="Helvetica,sans-Serif" font-size="10.00">/alps_common_lib/include</text>
<text text-anchor="start" x="1153" y="-107.5" font-family="Helvetica,sans-Serif" font-size="10.00">/alps_cmn/actuator/output</text>
<text text-anchor="middle" x="1240.5" y="-96.5" font-family="Helvetica,sans-Serif" font-size="10.00">_change_limit_motor_decorator.hpp</text>
</a>
</g>
</g>
<!-- Node17&#45;&gt;Node18 -->
<g id="edge21" class="edge">
<title>Node17&#45;&gt;Node18</title>
<path fill="none" stroke="midnightblue" d="M1148.23,-262.87C1148.47,-238.58 1151.82,-204.09 1166.5,-178 1174.53,-163.73 1187.25,-151.38 1199.9,-141.56"/>
<polygon fill="midnightblue" stroke="midnightblue" points="1144.73,-262.94 1148.31,-272.92 1151.73,-262.89 1144.73,-262.94"/>
</g>
<!-- Node19 -->
<g id="node19" class="node">
<title>Node19</title>
<g id="a_node19"><a xlink:href="change__rate__limiter_8hpp.html" target="_top" xlink:title="時間あたりの変化量に制限をかけるクラス">
<polygon fill="white" stroke="black" points="1175,-178.5 1175,-230.5 1318,-230.5 1318,-178.5 1175,-178.5"/>
<text text-anchor="start" x="1183" y="-218.5" font-family="Helvetica,sans-Serif" font-size="10.00">alps_core/lib_internal</text>
<text text-anchor="start" x="1183" y="-207.5" font-family="Helvetica,sans-Serif" font-size="10.00">/alps_common_lib/include</text>
<text text-anchor="start" x="1183" y="-196.5" font-family="Helvetica,sans-Serif" font-size="10.00">/alps_cmn/control/change</text>
<text text-anchor="middle" x="1246.5" y="-185.5" font-family="Helvetica,sans-Serif" font-size="10.00">_rate_limiter.hpp</text>
</a>
</g>
</g>
<!-- Node17&#45;&gt;Node19 -->
<g id="edge22" class="edge">
<title>Node17&#45;&gt;Node19</title>
<path fill="none" stroke="midnightblue" d="M1178.99,-266.05C1191.48,-254.85 1205.96,-241.86 1218.31,-230.79"/>
<polygon fill="midnightblue" stroke="midnightblue" points="1176.62,-263.48 1171.51,-272.76 1181.29,-268.69 1176.62,-263.48"/>
</g>
<!-- Node19&#45;&gt;Node18 -->
<g id="edge23" class="edge">
<title>Node19&#45;&gt;Node18</title>
<path fill="none" stroke="midnightblue" d="M1244.06,-168.19C1243.45,-159.28 1242.8,-149.9 1242.23,-141.61"/>
<polygon fill="midnightblue" stroke="midnightblue" points="1240.58,-168.6 1244.76,-178.34 1247.57,-168.12 1240.58,-168.6"/>
</g>
</g>
</svg>
