<?xml version="1.0" encoding="UTF-8" standalone="no"?>
<!DOCTYPE svg PUBLIC "-//W3C//DTD SVG 1.1//EN"
 "http://www.w3.org/Graphics/SVG/1.1/DTD/svg11.dtd">
<!-- Generated by graphviz version 2.43.0 (0)
 -->
<!-- Title: alps_common_lib/include/alps_cmn/util/algorithm.hpp Pages: 1 -->
<svg width="1202pt" height="351pt"
 viewBox="0.00 0.00 1201.50 351.00" xmlns="http://www.w3.org/2000/svg" xmlns:xlink="http://www.w3.org/1999/xlink">
<g id="graph0" class="graph" transform="scale(1 1) rotate(0) translate(4 347)">
<title>alps_common_lib/include/alps_cmn/util/algorithm.hpp</title>
<polygon fill="white" stroke="transparent" points="-4,4 -4,-347 1197.5,-347 1197.5,4 -4,4"/>
<!-- Node1 -->
<g id="node1" class="node">
<title>Node1</title>
<g id="a_node1"><a xlink:title=" ">
<polygon fill="#bfbfbf" stroke="black" points="399,-312.5 399,-342.5 555,-342.5 555,-312.5 399,-312.5"/>
<text text-anchor="start" x="407" y="-330.5" font-family="Helvetica,sans-Serif" font-size="10.00">alps_common_lib/include</text>
<text text-anchor="middle" x="477" y="-319.5" font-family="Helvetica,sans-Serif" font-size="10.00">/alps_cmn/util/algorithm.hpp</text>
</a>
</g>
</g>
<!-- Node2 -->
<g id="node2" class="node">
<title>Node2</title>
<g id="a_node2"><a xlink:href="alps__common__lib_2include_2alps__cmn_2actuator_2dc__motor_8hpp.html" target="_top" xlink:title=" ">
<polygon fill="white" stroke="black" points="0,-234.5 0,-275.5 140,-275.5 140,-234.5 0,-234.5"/>
<text text-anchor="start" x="8" y="-263.5" font-family="Helvetica,sans-Serif" font-size="10.00">alps_common_lib/include</text>
<text text-anchor="start" x="8" y="-252.5" font-family="Helvetica,sans-Serif" font-size="10.00">/alps_cmn/actuator/dc</text>
<text text-anchor="middle" x="70" y="-241.5" font-family="Helvetica,sans-Serif" font-size="10.00">_motor.hpp</text>
</a>
</g>
</g>
<!-- Node1&#45;&gt;Node2 -->
<g id="edge1" class="edge">
<title>Node1&#45;&gt;Node2</title>
<path fill="none" stroke="midnightblue" d="M388.77,-315.24C322.51,-306.22 229.69,-292.39 149,-276 146.09,-275.41 143.12,-274.78 140.13,-274.12"/>
<polygon fill="midnightblue" stroke="midnightblue" points="388.38,-318.72 398.76,-316.59 389.32,-311.78 388.38,-318.72"/>
</g>
<!-- Node4 -->
<g id="node4" class="node">
<title>Node4</title>
<g id="a_node4"><a xlink:href="esc__bldc__motor_8hpp.html" target="_top" xlink:title="ESCで動かすブラシレスDCモーター">
<polygon fill="white" stroke="black" points="158,-234.5 158,-275.5 298,-275.5 298,-234.5 158,-234.5"/>
<text text-anchor="start" x="166" y="-263.5" font-family="Helvetica,sans-Serif" font-size="10.00">alps_common_lib/include</text>
<text text-anchor="start" x="166" y="-252.5" font-family="Helvetica,sans-Serif" font-size="10.00">/alps_cmn/actuator/esc</text>
<text text-anchor="middle" x="228" y="-241.5" font-family="Helvetica,sans-Serif" font-size="10.00">_bldc_motor.hpp</text>
</a>
</g>
</g>
<!-- Node1&#45;&gt;Node4 -->
<g id="edge3" class="edge">
<title>Node1&#45;&gt;Node4</title>
<path fill="none" stroke="midnightblue" d="M417.59,-309.68C381.41,-299.44 335.03,-286.3 297.2,-275.59"/>
<polygon fill="midnightblue" stroke="midnightblue" points="416.93,-313.13 427.51,-312.49 418.84,-306.4 416.93,-313.13"/>
</g>
<!-- Node5 -->
<g id="node5" class="node">
<title>Node5</title>
<g id="a_node5"><a xlink:href="robomas__motor_8hpp.html" target="_top" xlink:title="ロボマスモータのライブラリ">
<polygon fill="white" stroke="black" points="316.5,-234.5 316.5,-275.5 471.5,-275.5 471.5,-234.5 316.5,-234.5"/>
<text text-anchor="start" x="324.5" y="-263.5" font-family="Helvetica,sans-Serif" font-size="10.00">alps_common_lib/include</text>
<text text-anchor="start" x="324.5" y="-252.5" font-family="Helvetica,sans-Serif" font-size="10.00">/alps_cmn/actuator/robomas</text>
<text text-anchor="middle" x="394" y="-241.5" font-family="Helvetica,sans-Serif" font-size="10.00">_motor.hpp</text>
</a>
</g>
</g>
<!-- Node1&#45;&gt;Node5 -->
<g id="edge4" class="edge">
<title>Node1&#45;&gt;Node5</title>
<path fill="none" stroke="midnightblue" d="M452.46,-305.66C441.26,-296.15 428.07,-284.94 417.06,-275.59"/>
<polygon fill="midnightblue" stroke="midnightblue" points="450.32,-308.43 460.2,-312.23 454.85,-303.09 450.32,-308.43"/>
</g>
<!-- Node6 -->
<g id="node6" class="node">
<title>Node6</title>
<g id="a_node6"><a xlink:href="alps__common__lib_2include_2alps__cmn_2actuator_2servo__motor_8hpp.html" target="_top" xlink:title=" ">
<polygon fill="white" stroke="black" points="490,-234.5 490,-275.5 630,-275.5 630,-234.5 490,-234.5"/>
<text text-anchor="start" x="498" y="-263.5" font-family="Helvetica,sans-Serif" font-size="10.00">alps_common_lib/include</text>
<text text-anchor="start" x="498" y="-252.5" font-family="Helvetica,sans-Serif" font-size="10.00">/alps_cmn/actuator/servo</text>
<text text-anchor="middle" x="560" y="-241.5" font-family="Helvetica,sans-Serif" font-size="10.00">_motor.hpp</text>
</a>
</g>
</g>
<!-- Node1&#45;&gt;Node6 -->
<g id="edge5" class="edge">
<title>Node1&#45;&gt;Node6</title>
<path fill="none" stroke="midnightblue" d="M501.54,-305.66C512.74,-296.15 525.93,-284.94 536.94,-275.59"/>
<polygon fill="midnightblue" stroke="midnightblue" points="499.15,-303.09 493.8,-312.23 503.68,-308.43 499.15,-303.09"/>
</g>
<!-- Node8 -->
<g id="node8" class="node">
<title>Node8</title>
<g id="a_node8"><a xlink:href="integrator_8hpp.html" target="_top" xlink:title="積分器ライブラリ">
<polygon fill="white" stroke="black" points="648,-240 648,-270 822,-270 822,-240 648,-240"/>
<text text-anchor="start" x="656" y="-258" font-family="Helvetica,sans-Serif" font-size="10.00">alps_common_lib/include</text>
<text text-anchor="middle" x="735" y="-247" font-family="Helvetica,sans-Serif" font-size="10.00">/alps_cmn/control/integrator.hpp</text>
</a>
</g>
</g>
<!-- Node1&#45;&gt;Node8 -->
<g id="edge7" class="edge">
<title>Node1&#45;&gt;Node8</title>
<path fill="none" stroke="midnightblue" d="M538.05,-309.82C582.3,-297.73 641.47,-281.56 683.37,-270.11"/>
<polygon fill="midnightblue" stroke="midnightblue" points="537,-306.47 528.28,-312.49 538.85,-313.23 537,-306.47"/>
</g>
<!-- Node14 -->
<g id="node14" class="node">
<title>Node14</title>
<g id="a_node14"><a xlink:href="numeric__range_8hpp.html" target="_top" xlink:title="数値の範囲を扱うクラス">
<polygon fill="white" stroke="black" points="843,-234.5 843,-275.5 983,-275.5 983,-234.5 843,-234.5"/>
<text text-anchor="start" x="851" y="-263.5" font-family="Helvetica,sans-Serif" font-size="10.00">alps_common_lib/include</text>
<text text-anchor="start" x="851" y="-252.5" font-family="Helvetica,sans-Serif" font-size="10.00">/alps_cmn/util/numeric</text>
<text text-anchor="middle" x="913" y="-241.5" font-family="Helvetica,sans-Serif" font-size="10.00">_range.hpp</text>
</a>
</g>
</g>
<!-- Node1&#45;&gt;Node14 -->
<g id="edge15" class="edge">
<title>Node1&#45;&gt;Node14</title>
<path fill="none" stroke="midnightblue" d="M565.42,-316.32C637.27,-307.46 741.09,-293.33 831,-276 834.88,-275.25 838.86,-274.44 842.87,-273.58"/>
<polygon fill="midnightblue" stroke="midnightblue" points="564.55,-312.9 555.05,-317.59 565.41,-319.84 564.55,-312.9"/>
</g>
<!-- Node3 -->
<g id="node3" class="node">
<title>Node3</title>
<g id="a_node3"><a xlink:href="alps__mbed__lib_2include_2alps__mbed_2actuator_2dc__motor_8hpp.html" target="_top" xlink:title=" ">
<polygon fill="white" stroke="black" points="4.5,-156.5 4.5,-197.5 135.5,-197.5 135.5,-156.5 4.5,-156.5"/>
<text text-anchor="start" x="12.5" y="-185.5" font-family="Helvetica,sans-Serif" font-size="10.00">alps_mbed_lib/include</text>
<text text-anchor="start" x="12.5" y="-174.5" font-family="Helvetica,sans-Serif" font-size="10.00">/alps_mbed/actuator/dc</text>
<text text-anchor="middle" x="70" y="-163.5" font-family="Helvetica,sans-Serif" font-size="10.00">_motor.hpp</text>
</a>
</g>
</g>
<!-- Node2&#45;&gt;Node3 -->
<g id="edge2" class="edge">
<title>Node2&#45;&gt;Node3</title>
<path fill="none" stroke="midnightblue" d="M70,-224.3C70,-215.3 70,-205.65 70,-197.51"/>
<polygon fill="midnightblue" stroke="midnightblue" points="66.5,-224.43 70,-234.43 73.5,-224.43 66.5,-224.43"/>
</g>
<!-- Node7 -->
<g id="node7" class="node">
<title>Node7</title>
<g id="a_node7"><a xlink:href="alps__mbed__lib_2include_2alps__mbed_2actuator_2servo__motor_8hpp.html" target="_top" xlink:title=" ">
<polygon fill="white" stroke="black" points="476,-156.5 476,-197.5 622,-197.5 622,-156.5 476,-156.5"/>
<text text-anchor="start" x="484" y="-185.5" font-family="Helvetica,sans-Serif" font-size="10.00">alps_mbed_lib/include</text>
<text text-anchor="start" x="484" y="-174.5" font-family="Helvetica,sans-Serif" font-size="10.00">/alps_mbed/actuator/servo</text>
<text text-anchor="middle" x="549" y="-163.5" font-family="Helvetica,sans-Serif" font-size="10.00">_motor.hpp</text>
</a>
</g>
</g>
<!-- Node6&#45;&gt;Node7 -->
<g id="edge6" class="edge">
<title>Node6&#45;&gt;Node7</title>
<path fill="none" stroke="midnightblue" d="M555.7,-224.3C554.4,-215.3 553,-205.65 551.82,-197.51"/>
<polygon fill="midnightblue" stroke="midnightblue" points="552.27,-225.03 557.17,-234.43 559.2,-224.03 552.27,-225.03"/>
</g>
<!-- Node9 -->
<g id="node9" class="node">
<title>Node9</title>
<g id="a_node9"><a xlink:href="pid_8hpp.html" target="_top" xlink:title=" ">
<polygon fill="white" stroke="black" points="842,-162 842,-192 984,-192 984,-162 842,-162"/>
<text text-anchor="start" x="850" y="-180" font-family="Helvetica,sans-Serif" font-size="10.00">alps_common_lib/include</text>
<text text-anchor="middle" x="913" y="-169" font-family="Helvetica,sans-Serif" font-size="10.00">/alps_cmn/control/pid.hpp</text>
</a>
</g>
</g>
<!-- Node8&#45;&gt;Node9 -->
<g id="edge8" class="edge">
<title>Node8&#45;&gt;Node9</title>
<path fill="none" stroke="midnightblue" d="M777.46,-235.87C808.92,-222.44 851.19,-204.39 880.11,-192.04"/>
<polygon fill="midnightblue" stroke="midnightblue" points="775.89,-232.74 768.06,-239.88 778.63,-239.18 775.89,-232.74"/>
</g>
<!-- Node13 -->
<g id="node13" class="node">
<title>Node13</title>
<g id="a_node13"><a xlink:href="odometory_8hpp.html" target="_top" xlink:title="オドメトリ計算クラス">
<polygon fill="white" stroke="black" points="640,-162 640,-192 824,-192 824,-162 640,-162"/>
<text text-anchor="start" x="648" y="-180" font-family="Helvetica,sans-Serif" font-size="10.00">alps_common_lib/include</text>
<text text-anchor="middle" x="732" y="-169" font-family="Helvetica,sans-Serif" font-size="10.00">/alps_cmn/robotics/odometory.hpp</text>
</a>
</g>
</g>
<!-- Node8&#45;&gt;Node13 -->
<g id="edge14" class="edge">
<title>Node8&#45;&gt;Node13</title>
<path fill="none" stroke="midnightblue" d="M734.04,-229.59C733.55,-217.26 732.98,-202.72 732.56,-192.23"/>
<polygon fill="midnightblue" stroke="midnightblue" points="730.54,-229.85 734.44,-239.7 737.54,-229.57 730.54,-229.85"/>
</g>
<!-- Node10 -->
<g id="node10" class="node">
<title>Node10</title>
<g id="a_node10"><a xlink:href="motor__angle__controller_8hpp.html" target="_top" xlink:title=" ">
<polygon fill="white" stroke="black" points="745,-78.5 745,-119.5 885,-119.5 885,-78.5 745,-78.5"/>
<text text-anchor="start" x="753" y="-107.5" font-family="Helvetica,sans-Serif" font-size="10.00">alps_common_lib/include</text>
<text text-anchor="start" x="753" y="-96.5" font-family="Helvetica,sans-Serif" font-size="10.00">/alps_cmn/control/motor</text>
<text text-anchor="middle" x="815" y="-85.5" font-family="Helvetica,sans-Serif" font-size="10.00">_angle_controller.hpp</text>
</a>
</g>
</g>
<!-- Node9&#45;&gt;Node10 -->
<g id="edge9" class="edge">
<title>Node9&#45;&gt;Node10</title>
<path fill="none" stroke="midnightblue" d="M886.55,-155.49C872.2,-144.36 854.56,-130.68 840.38,-119.68"/>
<polygon fill="midnightblue" stroke="midnightblue" points="884.52,-158.34 894.57,-161.7 888.81,-152.81 884.52,-158.34"/>
</g>
<!-- Node11 -->
<g id="node11" class="node">
<title>Node11</title>
<g id="a_node11"><a xlink:href="motor__angle__velocity__controller_8hpp.html" target="_top" xlink:title=" ">
<polygon fill="white" stroke="black" points="830.5,-0.5 830.5,-41.5 995.5,-41.5 995.5,-0.5 830.5,-0.5"/>
<text text-anchor="start" x="838.5" y="-29.5" font-family="Helvetica,sans-Serif" font-size="10.00">alps_common_lib/include</text>
<text text-anchor="start" x="838.5" y="-18.5" font-family="Helvetica,sans-Serif" font-size="10.00">/alps_cmn/control/motor</text>
<text text-anchor="middle" x="913" y="-7.5" font-family="Helvetica,sans-Serif" font-size="10.00">_angle_velocity_controller.hpp</text>
</a>
</g>
</g>
<!-- Node9&#45;&gt;Node11 -->
<g id="edge11" class="edge">
<title>Node9&#45;&gt;Node11</title>
<path fill="none" stroke="midnightblue" d="M913,-151.61C913,-121.17 913,-69.73 913,-41.68"/>
<polygon fill="midnightblue" stroke="midnightblue" points="909.5,-151.79 913,-161.79 916.5,-151.79 909.5,-151.79"/>
</g>
<!-- Node12 -->
<g id="node12" class="node">
<title>Node12</title>
<g id="a_node12"><a xlink:href="motor__velocity__controller_8hpp.html" target="_top" xlink:title=" ">
<polygon fill="white" stroke="black" points="941,-78.5 941,-119.5 1081,-119.5 1081,-78.5 941,-78.5"/>
<text text-anchor="start" x="949" y="-107.5" font-family="Helvetica,sans-Serif" font-size="10.00">alps_common_lib/include</text>
<text text-anchor="start" x="949" y="-96.5" font-family="Helvetica,sans-Serif" font-size="10.00">/alps_cmn/control/motor</text>
<text text-anchor="middle" x="1011" y="-85.5" font-family="Helvetica,sans-Serif" font-size="10.00">_velocity_controller.hpp</text>
</a>
</g>
</g>
<!-- Node9&#45;&gt;Node12 -->
<g id="edge12" class="edge">
<title>Node9&#45;&gt;Node12</title>
<path fill="none" stroke="midnightblue" d="M939.45,-155.49C953.8,-144.36 971.44,-130.68 985.62,-119.68"/>
<polygon fill="midnightblue" stroke="midnightblue" points="937.19,-152.81 931.43,-161.7 941.48,-158.34 937.19,-152.81"/>
</g>
<!-- Node10&#45;&gt;Node11 -->
<g id="edge10" class="edge">
<title>Node10&#45;&gt;Node11</title>
<path fill="none" stroke="midnightblue" d="M848.44,-72.06C861.35,-62.06 875.86,-50.8 887.85,-41.51"/>
<polygon fill="midnightblue" stroke="midnightblue" points="845.99,-69.53 840.24,-78.43 850.28,-75.07 845.99,-69.53"/>
</g>
<!-- Node12&#45;&gt;Node11 -->
<g id="edge13" class="edge">
<title>Node12&#45;&gt;Node11</title>
<path fill="none" stroke="midnightblue" d="M977.56,-72.06C964.65,-62.06 950.14,-50.8 938.15,-41.51"/>
<polygon fill="midnightblue" stroke="midnightblue" points="975.72,-75.07 985.76,-78.43 980.01,-69.53 975.72,-75.07"/>
</g>
<!-- Node14&#45;&gt;Node9 -->
<g id="edge17" class="edge">
<title>Node14&#45;&gt;Node9</title>
<path fill="none" stroke="midnightblue" d="M913,-224.28C913,-213.25 913,-201.25 913,-192.23"/>
<polygon fill="midnightblue" stroke="midnightblue" points="909.5,-224.43 913,-234.43 916.5,-224.43 909.5,-224.43"/>
</g>
<!-- Node15 -->
<g id="node15" class="node">
<title>Node15</title>
<g id="a_node15"><a xlink:href="output__change__limit__motor__decorator_8hpp.html" target="_top" xlink:title="出力変化制限を掛けるモーターデコレータ">
<polygon fill="white" stroke="black" points="1002.5,-156.5 1002.5,-197.5 1193.5,-197.5 1193.5,-156.5 1002.5,-156.5"/>
<text text-anchor="start" x="1010.5" y="-185.5" font-family="Helvetica,sans-Serif" font-size="10.00">alps_common_lib/include</text>
<text text-anchor="start" x="1010.5" y="-174.5" font-family="Helvetica,sans-Serif" font-size="10.00">/alps_cmn/actuator/output</text>
<text text-anchor="middle" x="1098" y="-163.5" font-family="Helvetica,sans-Serif" font-size="10.00">_change_limit_motor_decorator.hpp</text>
</a>
</g>
</g>
<!-- Node14&#45;&gt;Node15 -->
<g id="edge16" class="edge">
<title>Node14&#45;&gt;Node15</title>
<path fill="none" stroke="midnightblue" d="M969.94,-230.61C995.76,-220 1025.94,-207.6 1050.52,-197.51"/>
<polygon fill="midnightblue" stroke="midnightblue" points="968.56,-227.39 960.64,-234.43 971.22,-233.87 968.56,-227.39"/>
</g>
</g>
</svg>
