<?xml version="1.0" encoding="UTF-8" standalone="no"?>
<!DOCTYPE svg PUBLIC "-//W3C//DTD SVG 1.1//EN"
 "http://www.w3.org/Graphics/SVG/1.1/DTD/svg11.dtd">
<!-- Generated by graphviz version 2.43.0 (0)
 -->
<!-- Title: alps_common_lib/include/alps_cmn/actuator/dc_motor.hpp Pages: 1 -->
<svg width="292pt" height="170pt"
 viewBox="0.00 0.00 291.84 170.00" xmlns="http://www.w3.org/2000/svg" xmlns:xlink="http://www.w3.org/1999/xlink">
<g id="graph0" class="graph" transform="scale(1 1) rotate(0) translate(4 166)">
<title>alps_common_lib/include/alps_cmn/actuator/dc_motor.hpp</title>
<!-- Node1 -->
<g id="node1" class="node">
<title>Node1</title>
<g id="a_node1"><a xlink:title=" ">
<polygon fill="#999999" stroke="#666666" points="148.84,-162 8.84,-162 8.84,-121 148.84,-121 148.84,-162"/>
<text text-anchor="start" x="16.84" y="-150" font-family="Helvetica,sans-Serif" font-size="10.00">alps_common_lib/include</text>
<text text-anchor="start" x="16.84" y="-139" font-family="Helvetica,sans-Serif" font-size="10.00">/alps_cmn/actuator/dc</text>
<text text-anchor="middle" x="78.84" y="-128" font-family="Helvetica,sans-Serif" font-size="10.00">_motor.hpp</text>
</a>
</g>
</g>
<!-- Node2 -->
<g id="node2" class="node">
<title>Node2</title>
<g id="a_node2"><a xlink:title=" ">
<polygon fill="#e0e0e0" stroke="#999999" points="128.84,-19 78.84,-19 78.84,0 128.84,0 128.84,-19"/>
<text text-anchor="middle" x="103.84" y="-7" font-family="Helvetica,sans-Serif" font-size="10.00">chrono</text>
</a>
</g>
</g>
<!-- Node1&#45;&gt;Node2 -->
<g id="edge1" class="edge">
<title>Node1&#45;&gt;Node2</title>
<path fill="none" stroke="#63b8ff" d="M42.27,-120.88C16.44,-104.33 -11,-79.48 4.84,-55 18.86,-33.32 46.23,-22.1 68.65,-16.35"/>
<polygon fill="#63b8ff" stroke="#63b8ff" points="69.57,-19.73 78.53,-14.08 68,-12.91 69.57,-19.73"/>
</g>
<!-- Node3 -->
<g id="node3" class="node">
<title>Node3</title>
<g id="a_node3"><a xlink:href="i__digital__out_8hpp.html" target="_top" xlink:title=" ">
<polygon fill="white" stroke="#666666" points="143.34,-85 14.34,-85 14.34,-55 143.34,-55 143.34,-85"/>
<text text-anchor="start" x="22.34" y="-73" font-family="Helvetica,sans-Serif" font-size="10.00">alps_cmn/gpio/i_digital</text>
<text text-anchor="middle" x="78.84" y="-62" font-family="Helvetica,sans-Serif" font-size="10.00">_out.hpp</text>
</a>
</g>
</g>
<!-- Node1&#45;&gt;Node3 -->
<g id="edge2" class="edge">
<title>Node1&#45;&gt;Node3</title>
<path fill="none" stroke="#63b8ff" d="M78.84,-120.77C78.84,-112.85 78.84,-103.63 78.84,-95.3"/>
<polygon fill="#63b8ff" stroke="#63b8ff" points="82.34,-95.04 78.84,-85.04 75.34,-95.04 82.34,-95.04"/>
</g>
<!-- Node4 -->
<g id="node4" class="node">
<title>Node4</title>
<g id="a_node4"><a xlink:href="i__pwm__out_8hpp.html" target="_top" xlink:title="PWM出力を行うインタフェース">
<polygon fill="white" stroke="#666666" points="283.84,-85 161.84,-85 161.84,-55 283.84,-55 283.84,-85"/>
<text text-anchor="start" x="169.84" y="-73" font-family="Helvetica,sans-Serif" font-size="10.00">alps_cmn/gpio/i_pwm</text>
<text text-anchor="middle" x="222.84" y="-62" font-family="Helvetica,sans-Serif" font-size="10.00">_out.hpp</text>
</a>
</g>
</g>
<!-- Node1&#45;&gt;Node4 -->
<g id="edge3" class="edge">
<title>Node1&#45;&gt;Node4</title>
<path fill="none" stroke="#63b8ff" d="M119.33,-120.96C139.73,-111.11 164.32,-99.24 184.42,-89.54"/>
<polygon fill="#63b8ff" stroke="#63b8ff" points="186.11,-92.61 193.6,-85.11 183.07,-86.31 186.11,-92.61"/>
</g>
<!-- Node4&#45;&gt;Node2 -->
<g id="edge4" class="edge">
<title>Node4&#45;&gt;Node2</title>
<path fill="none" stroke="#63b8ff" d="M194.33,-54.99C174.92,-45.45 149.41,-32.9 130.42,-23.57"/>
<polygon fill="#63b8ff" stroke="#63b8ff" points="131.93,-20.41 121.41,-19.14 128.84,-26.69 131.93,-20.41"/>
</g>
</g>
</svg>
