<?xml version="1.0" encoding="UTF-8" standalone="no"?>
<!DOCTYPE svg PUBLIC "-//W3C//DTD SVG 1.1//EN"
 "http://www.w3.org/Graphics/SVG/1.1/DTD/svg11.dtd">
<!-- Generated by graphviz version 2.43.0 (0)
 -->
<!-- Title: alps_common_lib/include/alps_cmn/actuator/servo_motor.hpp Pages: 1 -->
<svg width="535pt" height="170pt"
 viewBox="0.00 0.00 534.72 170.00" xmlns="http://www.w3.org/2000/svg" xmlns:xlink="http://www.w3.org/1999/xlink">
<g id="graph0" class="graph" transform="scale(1 1) rotate(0) translate(4 166)">
<title>alps_common_lib/include/alps_cmn/actuator/servo_motor.hpp</title>
<!-- Node1 -->
<g id="node1" class="node">
<title>Node1</title>
<g id="a_node1"><a xlink:title=" ">
<polygon fill="#999999" stroke="#666666" points="213.22,-162 73.22,-162 73.22,-121 213.22,-121 213.22,-162"/>
<text text-anchor="start" x="81.22" y="-150" font-family="Helvetica,sans-Serif" font-size="10.00">alps_common_lib/include</text>
<text text-anchor="start" x="81.22" y="-139" font-family="Helvetica,sans-Serif" font-size="10.00">/alps_cmn/actuator/servo</text>
<text text-anchor="middle" x="143.22" y="-128" font-family="Helvetica,sans-Serif" font-size="10.00">_motor.hpp</text>
</a>
</g>
</g>
<!-- Node2 -->
<g id="node2" class="node">
<title>Node2</title>
<g id="a_node2"><a xlink:title=" ">
<polygon fill="#e0e0e0" stroke="#999999" points="89.22,-19 39.22,-19 39.22,0 89.22,0 89.22,-19"/>
<text text-anchor="middle" x="64.22" y="-7" font-family="Helvetica,sans-Serif" font-size="10.00">chrono</text>
</a>
</g>
</g>
<!-- Node1&#45;&gt;Node2 -->
<g id="edge1" class="edge">
<title>Node1&#45;&gt;Node2</title>
<path fill="none" stroke="#63b8ff" d="M73.11,-129.25C47.33,-121.35 20.69,-107.89 5.22,-85 -2.25,-73.95 -0.73,-66.93 5.22,-55 11.79,-41.82 24.32,-31.52 36.15,-24.16"/>
<polygon fill="#63b8ff" stroke="#63b8ff" points="38.02,-27.12 44.95,-19.1 34.54,-21.05 38.02,-27.12"/>
</g>
<!-- Node3 -->
<g id="node3" class="node">
<title>Node3</title>
<g id="a_node3"><a xlink:title=" ">
<polygon fill="#e0e0e0" stroke="#999999" points="64.22,-79.5 14.22,-79.5 14.22,-60.5 64.22,-60.5 64.22,-79.5"/>
<text text-anchor="middle" x="39.22" y="-67.5" font-family="Helvetica,sans-Serif" font-size="10.00">cstdint</text>
</a>
</g>
</g>
<!-- Node1&#45;&gt;Node3 -->
<g id="edge2" class="edge">
<title>Node1&#45;&gt;Node3</title>
<path fill="none" stroke="#63b8ff" d="M113.97,-120.96C96.9,-109.54 75.74,-95.41 60.3,-85.09"/>
<polygon fill="#63b8ff" stroke="#63b8ff" points="62.2,-82.15 51.94,-79.5 58.31,-87.97 62.2,-82.15"/>
</g>
<!-- Node4 -->
<g id="node4" class="node">
<title>Node4</title>
<g id="a_node4"><a xlink:href="i__pwm__out_8hpp.html" target="_top" xlink:title="PWM出力を行うインタフェース">
<polygon fill="white" stroke="#666666" points="204.22,-85 82.22,-85 82.22,-55 204.22,-55 204.22,-85"/>
<text text-anchor="start" x="90.22" y="-73" font-family="Helvetica,sans-Serif" font-size="10.00">alps_cmn/gpio/i_pwm</text>
<text text-anchor="middle" x="143.22" y="-62" font-family="Helvetica,sans-Serif" font-size="10.00">_out.hpp</text>
</a>
</g>
</g>
<!-- Node1&#45;&gt;Node4 -->
<g id="edge3" class="edge">
<title>Node1&#45;&gt;Node4</title>
<path fill="none" stroke="#63b8ff" d="M143.22,-120.77C143.22,-112.85 143.22,-103.63 143.22,-95.3"/>
<polygon fill="#63b8ff" stroke="#63b8ff" points="146.72,-95.04 143.22,-85.04 139.72,-95.04 146.72,-95.04"/>
</g>
<!-- Node5 -->
<g id="node5" class="node">
<title>Node5</title>
<g id="a_node5"><a xlink:href="angle_8hpp.html" target="_top" xlink:title=" ">
<polygon fill="white" stroke="#666666" points="355.72,-79.5 222.72,-79.5 222.72,-60.5 355.72,-60.5 355.72,-79.5"/>
<text text-anchor="middle" x="289.22" y="-67.5" font-family="Helvetica,sans-Serif" font-size="10.00">alps_cmn/util/angle.hpp</text>
</a>
</g>
</g>
<!-- Node1&#45;&gt;Node5 -->
<g id="edge5" class="edge">
<title>Node1&#45;&gt;Node5</title>
<path fill="none" stroke="#63b8ff" d="M184.28,-120.96C209.26,-109.06 240.45,-94.21 262.31,-83.81"/>
<polygon fill="#63b8ff" stroke="#63b8ff" points="263.83,-86.96 271.36,-79.5 260.82,-80.64 263.83,-86.96"/>
</g>
<!-- Node6 -->
<g id="node6" class="node">
<title>Node6</title>
<g id="a_node6"><a xlink:href="algorithm_8hpp.html" target="_top" xlink:title=" ">
<polygon fill="white" stroke="#666666" points="526.72,-79.5 373.72,-79.5 373.72,-60.5 526.72,-60.5 526.72,-79.5"/>
<text text-anchor="middle" x="450.22" y="-67.5" font-family="Helvetica,sans-Serif" font-size="10.00">alps_cmn/util/algorithm.hpp</text>
</a>
</g>
</g>
<!-- Node1&#45;&gt;Node6 -->
<g id="edge6" class="edge">
<title>Node1&#45;&gt;Node6</title>
<path fill="none" stroke="#63b8ff" d="M213.27,-124.64C271.21,-111.52 351.96,-93.25 402.64,-81.77"/>
<polygon fill="#63b8ff" stroke="#63b8ff" points="403.69,-85.12 412.67,-79.5 402.14,-78.3 403.69,-85.12"/>
</g>
<!-- Node4&#45;&gt;Node2 -->
<g id="edge4" class="edge">
<title>Node4&#45;&gt;Node2</title>
<path fill="none" stroke="#63b8ff" d="M124.1,-54.84C112.04,-45.91 96.5,-34.41 84.28,-25.35"/>
<polygon fill="#63b8ff" stroke="#63b8ff" points="86.18,-22.4 76.06,-19.27 82.01,-28.03 86.18,-22.4"/>
</g>
</g>
</svg>
