<?xml version="1.0" encoding="UTF-8" standalone="no"?>
<!DOCTYPE svg PUBLIC "-//W3C//DTD SVG 1.1//EN"
 "http://www.w3.org/Graphics/SVG/1.1/DTD/svg11.dtd">
<!-- Generated by graphviz version 2.43.0 (0)
 -->
<!-- Title: alps_mbed_lib/include/alps_mbed/sensor/incremental_encoder.hpp Pages: 1 -->
<svg width="910pt" height="240pt"
 viewBox="0.00 0.00 910.00 240.00" xmlns="http://www.w3.org/2000/svg" xmlns:xlink="http://www.w3.org/1999/xlink">
<g id="graph0" class="graph" transform="scale(1 1) rotate(0) translate(4 236)">
<title>alps_mbed_lib/include/alps_mbed/sensor/incremental_encoder.hpp</title>
<polygon fill="white" stroke="transparent" points="-4,4 -4,-236 906,-236 906,4 -4,4"/>
<!-- Node1 -->
<g id="node1" class="node">
<title>Node1</title>
<g id="a_node1"><a xlink:title=" ">
<polygon fill="#bfbfbf" stroke="black" points="143.5,-190.5 143.5,-231.5 313.5,-231.5 313.5,-190.5 143.5,-190.5"/>
<text text-anchor="start" x="151.5" y="-219.5" font-family="Helvetica,sans-Serif" font-size="10.00">alps_mbed_lib/include</text>
<text text-anchor="start" x="151.5" y="-208.5" font-family="Helvetica,sans-Serif" font-size="10.00">/alps_mbed/sensor/incremental</text>
<text text-anchor="middle" x="228.5" y="-197.5" font-family="Helvetica,sans-Serif" font-size="10.00">_encoder.hpp</text>
</a>
</g>
</g>
<!-- Node2 -->
<g id="node2" class="node">
<title>Node2</title>
<g id="a_node2"><a xlink:href="alps__common__lib_2include_2alps__cmn_2sensor_2incremental__encoder_8hpp.html" target="_top" xlink:title=" ">
<polygon fill="white" stroke="black" points="366.5,-123.5 366.5,-153.5 526.5,-153.5 526.5,-123.5 366.5,-123.5"/>
<text text-anchor="start" x="374.5" y="-141.5" font-family="Helvetica,sans-Serif" font-size="10.00">alps_cmn/sensor/incremental</text>
<text text-anchor="middle" x="446.5" y="-130.5" font-family="Helvetica,sans-Serif" font-size="10.00">_encoder.hpp</text>
</a>
</g>
</g>
<!-- Node1&#45;&gt;Node2 -->
<g id="edge1" class="edge">
<title>Node1&#45;&gt;Node2</title>
<path fill="none" stroke="midnightblue" d="M288.94,-190.46C321.57,-179.9 361.5,-166.99 393,-156.8"/>
<polygon fill="midnightblue" stroke="midnightblue" points="394.47,-160 402.91,-153.6 392.32,-153.34 394.47,-160"/>
</g>
<!-- Node10 -->
<g id="node10" class="node">
<title>Node10</title>
<g id="a_node10"><a xlink:href="digital__in_8hpp.html" target="_top" xlink:title="デジタル入力ピン">
<polygon fill="white" stroke="black" points="12.5,-123.5 12.5,-153.5 140.5,-153.5 140.5,-123.5 12.5,-123.5"/>
<text text-anchor="start" x="20.5" y="-141.5" font-family="Helvetica,sans-Serif" font-size="10.00">alps_mbed/gpio/digital</text>
<text text-anchor="middle" x="76.5" y="-130.5" font-family="Helvetica,sans-Serif" font-size="10.00">_in.hpp</text>
</a>
</g>
</g>
<!-- Node1&#45;&gt;Node10 -->
<g id="edge10" class="edge">
<title>Node1&#45;&gt;Node10</title>
<path fill="none" stroke="midnightblue" d="M186.16,-190.36C164.27,-180.21 137.72,-167.9 116.23,-157.93"/>
<polygon fill="midnightblue" stroke="midnightblue" points="117.6,-154.7 107.05,-153.67 114.65,-161.05 117.6,-154.7"/>
</g>
<!-- Node12 -->
<g id="node12" class="node">
<title>Node12</title>
<g id="a_node12"><a xlink:href="interrupt__in_8hpp.html" target="_top" xlink:title="割り込み入力ピン">
<polygon fill="white" stroke="black" points="159,-123.5 159,-153.5 298,-153.5 298,-123.5 159,-123.5"/>
<text text-anchor="start" x="167" y="-141.5" font-family="Helvetica,sans-Serif" font-size="10.00">alps_mbed/gpio/interrupt</text>
<text text-anchor="middle" x="228.5" y="-130.5" font-family="Helvetica,sans-Serif" font-size="10.00">_in.hpp</text>
</a>
</g>
</g>
<!-- Node1&#45;&gt;Node12 -->
<g id="edge13" class="edge">
<title>Node1&#45;&gt;Node12</title>
<path fill="none" stroke="midnightblue" d="M228.5,-190.36C228.5,-182.23 228.5,-172.7 228.5,-164.11"/>
<polygon fill="midnightblue" stroke="midnightblue" points="232,-163.89 228.5,-153.89 225,-163.89 232,-163.89"/>
</g>
<!-- Node3 -->
<g id="node3" class="node">
<title>Node3</title>
<g id="a_node3"><a xlink:title=" ">
<polygon fill="white" stroke="#bfbfbf" points="662.5,-0.5 662.5,-19.5 712.5,-19.5 712.5,-0.5 662.5,-0.5"/>
<text text-anchor="middle" x="687.5" y="-7.5" font-family="Helvetica,sans-Serif" font-size="10.00">chrono</text>
</a>
</g>
</g>
<!-- Node2&#45;&gt;Node3 -->
<g id="edge2" class="edge">
<title>Node2&#45;&gt;Node3</title>
<path fill="none" stroke="midnightblue" d="M526.56,-134.41C601.24,-129.64 704.89,-117.56 730.5,-87 746.37,-68.06 724.59,-42.42 706.67,-26.29"/>
<polygon fill="midnightblue" stroke="midnightblue" points="708.74,-23.45 698.86,-19.61 704.19,-28.77 708.74,-23.45"/>
</g>
<!-- Node4 -->
<g id="node4" class="node">
<title>Node4</title>
<g id="a_node4"><a xlink:href="differentiator_8hpp.html" target="_top" xlink:title="微分器ライブラリ">
<polygon fill="white" stroke="black" points="534,-62 534,-81 721,-81 721,-62 534,-62"/>
<text text-anchor="middle" x="627.5" y="-69" font-family="Helvetica,sans-Serif" font-size="10.00">alps_cmn/control/differentiator.hpp</text>
</a>
</g>
</g>
<!-- Node2&#45;&gt;Node4 -->
<g id="edge3" class="edge">
<title>Node2&#45;&gt;Node4</title>
<path fill="none" stroke="midnightblue" d="M485.77,-123.4C518.09,-111.79 563.41,-95.51 594.03,-84.52"/>
<polygon fill="midnightblue" stroke="midnightblue" points="595.58,-87.68 603.81,-81.01 593.22,-81.09 595.58,-87.68"/>
</g>
<!-- Node5 -->
<g id="node5" class="node">
<title>Node5</title>
<g id="a_node5"><a xlink:href="i__digital__in_8hpp.html" target="_top" xlink:title=" ">
<polygon fill="white" stroke="black" points="71,-56.5 71,-86.5 200,-86.5 200,-56.5 71,-56.5"/>
<text text-anchor="start" x="79" y="-74.5" font-family="Helvetica,sans-Serif" font-size="10.00">alps_cmn/gpio/i_digital</text>
<text text-anchor="middle" x="135.5" y="-63.5" font-family="Helvetica,sans-Serif" font-size="10.00">_in.hpp</text>
</a>
</g>
</g>
<!-- Node2&#45;&gt;Node5 -->
<g id="edge5" class="edge">
<title>Node2&#45;&gt;Node5</title>
<path fill="none" stroke="midnightblue" d="M379.4,-123.48C329.6,-113.07 261.68,-98.87 210.16,-88.1"/>
<polygon fill="midnightblue" stroke="midnightblue" points="210.59,-84.62 200.08,-86 209.16,-91.47 210.59,-84.62"/>
</g>
<!-- Node6 -->
<g id="node6" class="node">
<title>Node6</title>
<g id="a_node6"><a xlink:href="i__interrupt__in_8hpp.html" target="_top" xlink:title=" ">
<polygon fill="white" stroke="black" points="218.5,-56.5 218.5,-86.5 358.5,-86.5 358.5,-56.5 218.5,-56.5"/>
<text text-anchor="start" x="226.5" y="-74.5" font-family="Helvetica,sans-Serif" font-size="10.00">alps_cmn/gpio/i_interrupt</text>
<text text-anchor="middle" x="288.5" y="-63.5" font-family="Helvetica,sans-Serif" font-size="10.00">_in.hpp</text>
</a>
</g>
</g>
<!-- Node2&#45;&gt;Node6 -->
<g id="edge6" class="edge">
<title>Node2&#45;&gt;Node6</title>
<path fill="none" stroke="midnightblue" d="M412.22,-123.4C388.72,-113.73 357.35,-100.82 332.07,-90.43"/>
<polygon fill="midnightblue" stroke="midnightblue" points="333.3,-87.14 322.72,-86.58 330.63,-93.62 333.3,-87.14"/>
</g>
<!-- Node8 -->
<g id="node8" class="node">
<title>Node8</title>
<g id="a_node8"><a xlink:href="pi_8hpp.html" target="_top" xlink:title=" ">
<polygon fill="white" stroke="black" points="777,-62 777,-81 902,-81 902,-62 777,-62"/>
<text text-anchor="middle" x="839.5" y="-69" font-family="Helvetica,sans-Serif" font-size="10.00">alps_cmn/math/pi.hpp</text>
</a>
</g>
</g>
<!-- Node2&#45;&gt;Node8 -->
<g id="edge8" class="edge">
<title>Node2&#45;&gt;Node8</title>
<path fill="none" stroke="midnightblue" d="M526.8,-125.29C590.73,-115.43 682.45,-100.93 762.5,-87 769.86,-85.72 777.61,-84.32 785.24,-82.91"/>
<polygon fill="midnightblue" stroke="midnightblue" points="785.96,-86.34 795.16,-81.07 784.68,-79.46 785.96,-86.34"/>
</g>
<!-- Node9 -->
<g id="node9" class="node">
<title>Node9</title>
<g id="a_node9"><a xlink:href="i__rotary__sensor_8hpp.html" target="_top" xlink:title=" ">
<polygon fill="white" stroke="black" points="377,-56.5 377,-86.5 516,-86.5 516,-56.5 377,-56.5"/>
<text text-anchor="start" x="385" y="-74.5" font-family="Helvetica,sans-Serif" font-size="10.00">alps_cmn/sensor/i_rotary</text>
<text text-anchor="middle" x="446.5" y="-63.5" font-family="Helvetica,sans-Serif" font-size="10.00">_sensor.hpp</text>
</a>
</g>
</g>
<!-- Node2&#45;&gt;Node9 -->
<g id="edge9" class="edge">
<title>Node2&#45;&gt;Node9</title>
<path fill="none" stroke="midnightblue" d="M446.5,-123.4C446.5,-115.64 446.5,-105.81 446.5,-96.86"/>
<polygon fill="midnightblue" stroke="midnightblue" points="450,-96.58 446.5,-86.58 443,-96.58 450,-96.58"/>
</g>
<!-- Node4&#45;&gt;Node3 -->
<g id="edge4" class="edge">
<title>Node4&#45;&gt;Node3</title>
<path fill="none" stroke="midnightblue" d="M636.1,-61.98C645.36,-52.78 660.32,-37.96 671.71,-26.66"/>
<polygon fill="midnightblue" stroke="midnightblue" points="674.28,-29.04 678.92,-19.51 669.35,-24.07 674.28,-29.04"/>
</g>
<!-- Node7 -->
<g id="node7" class="node">
<title>Node7</title>
<g id="a_node7"><a xlink:title=" ">
<polygon fill="white" stroke="#bfbfbf" points="246.5,-0.5 246.5,-19.5 330.5,-19.5 330.5,-0.5 246.5,-0.5"/>
<text text-anchor="middle" x="288.5" y="-7.5" font-family="Helvetica,sans-Serif" font-size="10.00">etl/delegate.h</text>
</a>
</g>
</g>
<!-- Node6&#45;&gt;Node7 -->
<g id="edge7" class="edge">
<title>Node6&#45;&gt;Node7</title>
<path fill="none" stroke="midnightblue" d="M288.5,-56.4C288.5,-48.47 288.5,-38.46 288.5,-29.86"/>
<polygon fill="midnightblue" stroke="midnightblue" points="292,-29.66 288.5,-19.66 285,-29.66 292,-29.66"/>
</g>
<!-- Node10&#45;&gt;Node5 -->
<g id="edge12" class="edge">
<title>Node10&#45;&gt;Node5</title>
<path fill="none" stroke="midnightblue" d="M89.3,-123.4C97.03,-114.88 107.05,-103.85 115.77,-94.23"/>
<polygon fill="midnightblue" stroke="midnightblue" points="118.59,-96.33 122.72,-86.58 113.41,-91.63 118.59,-96.33"/>
</g>
<!-- Node11 -->
<g id="node11" class="node">
<title>Node11</title>
<g id="a_node11"><a xlink:title=" ">
<polygon fill="white" stroke="#bfbfbf" points="0,-62 0,-81 53,-81 53,-62 0,-62"/>
<text text-anchor="middle" x="26.5" y="-69" font-family="Helvetica,sans-Serif" font-size="10.00">mbed.h</text>
</a>
</g>
</g>
<!-- Node10&#45;&gt;Node11 -->
<g id="edge11" class="edge">
<title>Node10&#45;&gt;Node11</title>
<path fill="none" stroke="midnightblue" d="M65.65,-123.4C57.93,-113.36 47.53,-99.84 39.39,-89.25"/>
<polygon fill="midnightblue" stroke="midnightblue" points="42.06,-86.99 33.19,-81.19 36.51,-91.25 42.06,-86.99"/>
</g>
<!-- Node12&#45;&gt;Node5 -->
<g id="edge15" class="edge">
<title>Node12&#45;&gt;Node5</title>
<path fill="none" stroke="midnightblue" d="M208.32,-123.4C195.4,-114.37 178.44,-102.51 164.14,-92.52"/>
<polygon fill="midnightblue" stroke="midnightblue" points="165.84,-89.44 155.64,-86.58 161.83,-95.17 165.84,-89.44"/>
</g>
<!-- Node12&#45;&gt;Node6 -->
<g id="edge16" class="edge">
<title>Node12&#45;&gt;Node6</title>
<path fill="none" stroke="midnightblue" d="M241.52,-123.4C249.46,-114.79 259.77,-103.63 268.7,-93.94"/>
<polygon fill="midnightblue" stroke="midnightblue" points="271.3,-96.3 275.51,-86.58 266.15,-91.55 271.3,-96.3"/>
</g>
<!-- Node12&#45;&gt;Node11 -->
<g id="edge14" class="edge">
<title>Node12&#45;&gt;Node11</title>
<path fill="none" stroke="midnightblue" d="M178.37,-123.49C145.24,-113.93 100.99,-100.58 62.5,-87 60.59,-86.33 58.64,-85.61 56.68,-84.88"/>
<polygon fill="midnightblue" stroke="midnightblue" points="57.53,-81.45 46.94,-81.09 55,-87.98 57.53,-81.45"/>
</g>
</g>
</svg>
