<?xml version="1.0" encoding="UTF-8" standalone="no"?>
<!DOCTYPE svg PUBLIC "-//W3C//DTD SVG 1.1//EN"
 "http://www.w3.org/Graphics/SVG/1.1/DTD/svg11.dtd">
<!-- Generated by graphviz version 2.43.0 (0)
 -->
<!-- Title: alps_core/lib_internal/alps_linux_lib/include/alps_lin/communication/uart_io.hpp Pages: 1 -->
<svg width="827pt" height="181pt"
 viewBox="0.00 0.00 827.00 181.00" xmlns="http://www.w3.org/2000/svg" xmlns:xlink="http://www.w3.org/1999/xlink">
<g id="graph0" class="graph" transform="scale(1 1) rotate(0) translate(4 177)">
<title>alps_core/lib_internal/alps_linux_lib/include/alps_lin/communication/uart_io.hpp</title>
<!-- Node1 -->
<g id="Node000001" class="node">
<title>Node1</title>
<g id="a_Node000001"><a xlink:title="Ubuntuシリアル通信IOライブラリ">
<polygon fill="#999999" stroke="#666666" points="453,-173 317,-173 317,-121 453,-121 453,-173"/>
<text text-anchor="start" x="325" y="-161" font-family="Helvetica,sans-Serif" font-size="10.00">alps_core/lib_internal</text>
<text text-anchor="start" x="325" y="-150" font-family="Helvetica,sans-Serif" font-size="10.00">/alps_linux_lib/include</text>
<text text-anchor="start" x="325" y="-139" font-family="Helvetica,sans-Serif" font-size="10.00">/alps_lin/communication</text>
<text text-anchor="middle" x="385" y="-128" font-family="Helvetica,sans-Serif" font-size="10.00">/uart_io.hpp</text>
</a>
</g>
</g>
<!-- Node2 -->
<g id="Node000002" class="node">
<title>Node2</title>
<g id="a_Node000002"><a xlink:title=" ">
<polygon fill="#e0e0e0" stroke="#999999" points="54,-79.5 0,-79.5 0,-60.5 54,-60.5 54,-79.5"/>
<text text-anchor="middle" x="27" y="-67.5" font-family="Helvetica,sans-Serif" font-size="10.00">dirent.h</text>
</a>
</g>
</g>
<!-- Node1&#45;&gt;Node2 -->
<g id="edge1_Node000001_Node000002" class="edge">
<title>Node1&#45;&gt;Node2</title>
<g id="a_edge1_Node000001_Node000002"><a xlink:title=" ">
<path fill="none" stroke="#63b8ff" d="M316.88,-136.58C251.35,-126.69 149.86,-109.2 64,-85 61.85,-84.39 59.65,-83.72 57.45,-83"/>
<polygon fill="#63b8ff" stroke="#63b8ff" points="58.51,-79.66 47.92,-79.64 56.19,-86.26 58.51,-79.66"/>
</a>
</g>
</g>
<!-- Node3 -->
<g id="Node000003" class="node">
<title>Node3</title>
<g id="a_Node000003"><a xlink:title=" ">
<polygon fill="#e0e0e0" stroke="#999999" points="123.5,-79.5 72.5,-79.5 72.5,-60.5 123.5,-60.5 123.5,-79.5"/>
<text text-anchor="middle" x="98" y="-67.5" font-family="Helvetica,sans-Serif" font-size="10.00">errno.h</text>
</a>
</g>
</g>
<!-- Node1&#45;&gt;Node3 -->
<g id="edge2_Node000001_Node000003" class="edge">
<title>Node1&#45;&gt;Node3</title>
<g id="a_edge2_Node000001_Node000003"><a xlink:title=" ">
<path fill="none" stroke="#63b8ff" d="M316.89,-132.28C265.77,-121.31 194.32,-104.58 133,-85 131.33,-84.47 129.62,-83.89 127.91,-83.29"/>
<polygon fill="#63b8ff" stroke="#63b8ff" points="128.77,-79.87 118.18,-79.64 126.31,-86.43 128.77,-79.87"/>
</a>
</g>
</g>
<!-- Node4 -->
<g id="Node000004" class="node">
<title>Node4</title>
<g id="a_Node000004"><a xlink:title=" ">
<polygon fill="#e0e0e0" stroke="#999999" points="188.5,-79.5 141.5,-79.5 141.5,-60.5 188.5,-60.5 188.5,-79.5"/>
<text text-anchor="middle" x="165" y="-67.5" font-family="Helvetica,sans-Serif" font-size="10.00">fcntl.h</text>
</a>
</g>
</g>
<!-- Node1&#45;&gt;Node4 -->
<g id="edge3_Node000001_Node000004" class="edge">
<title>Node1&#45;&gt;Node4</title>
<g id="a_edge3_Node000001_Node000004"><a xlink:title=" ">
<path fill="none" stroke="#63b8ff" d="M316.56,-125.23C280.95,-114.03 236.86,-99.55 198,-85 196.62,-84.48 195.2,-83.94 193.78,-83.38"/>
<polygon fill="#63b8ff" stroke="#63b8ff" points="195.01,-80.1 184.43,-79.57 192.37,-86.59 195.01,-80.1"/>
</a>
</g>
</g>
<!-- Node5 -->
<g id="Node000005" class="node">
<title>Node5</title>
<g id="a_Node000005"><a xlink:title=" ">
<polygon fill="#e0e0e0" stroke="#999999" points="257,-79.5 207,-79.5 207,-60.5 257,-60.5 257,-79.5"/>
<text text-anchor="middle" x="232" y="-67.5" font-family="Helvetica,sans-Serif" font-size="10.00">stdio.h</text>
</a>
</g>
</g>
<!-- Node1&#45;&gt;Node5 -->
<g id="edge4_Node000001_Node000005" class="edge">
<title>Node1&#45;&gt;Node5</title>
<g id="a_edge4_Node000001_Node000005"><a xlink:title=" ">
<path fill="none" stroke="#63b8ff" d="M333.63,-120.82C308.45,-108.47 279.18,-94.13 258.54,-84.01"/>
<polygon fill="#63b8ff" stroke="#63b8ff" points="259.95,-80.8 249.43,-79.54 256.87,-87.09 259.95,-80.8"/>
</a>
</g>
</g>
<!-- Node6 -->
<g id="Node000006" class="node">
<title>Node6</title>
<g id="a_Node000006"><a xlink:title=" ">
<polygon fill="#e0e0e0" stroke="#999999" points="338.5,-79.5 275.5,-79.5 275.5,-60.5 338.5,-60.5 338.5,-79.5"/>
<text text-anchor="middle" x="307" y="-67.5" font-family="Helvetica,sans-Serif" font-size="10.00">termios.h</text>
</a>
</g>
</g>
<!-- Node1&#45;&gt;Node6 -->
<g id="edge5_Node000001_Node000006" class="edge">
<title>Node1&#45;&gt;Node6</title>
<g id="a_edge5_Node000001_Node000006"><a xlink:title=" ">
<path fill="none" stroke="#63b8ff" d="M358.59,-120.61C347.01,-109.48 333.78,-96.75 323.61,-86.97"/>
<polygon fill="#63b8ff" stroke="#63b8ff" points="325.84,-84.26 316.21,-79.85 320.99,-89.31 325.84,-84.26"/>
</a>
</g>
</g>
<!-- Node7 -->
<g id="Node000007" class="node">
<title>Node7</title>
<g id="a_Node000007"><a xlink:title=" ">
<polygon fill="#e0e0e0" stroke="#999999" points="413,-79.5 357,-79.5 357,-60.5 413,-60.5 413,-79.5"/>
<text text-anchor="middle" x="385" y="-67.5" font-family="Helvetica,sans-Serif" font-size="10.00">unistd.h</text>
</a>
</g>
</g>
<!-- Node1&#45;&gt;Node7 -->
<g id="edge6_Node000001_Node000007" class="edge">
<title>Node1&#45;&gt;Node7</title>
<g id="a_edge6_Node000001_Node000007"><a xlink:title=" ">
<path fill="none" stroke="#63b8ff" d="M385,-120.61C385,-110.58 385,-99.25 385,-89.96"/>
<polygon fill="#63b8ff" stroke="#63b8ff" points="388.5,-89.85 385,-79.85 381.5,-89.85 388.5,-89.85"/>
</a>
</g>
</g>
<!-- Node8 -->
<g id="Node000008" class="node">
<title>Node8</title>
<g id="a_Node000008"><a xlink:title=" ">
<polygon fill="#e0e0e0" stroke="#999999" points="481,-79.5 431,-79.5 431,-60.5 481,-60.5 481,-79.5"/>
<text text-anchor="middle" x="456" y="-67.5" font-family="Helvetica,sans-Serif" font-size="10.00">chrono</text>
</a>
</g>
</g>
<!-- Node1&#45;&gt;Node8 -->
<g id="edge7_Node000001_Node000008" class="edge">
<title>Node1&#45;&gt;Node8</title>
<g id="a_edge7_Node000001_Node000008"><a xlink:title=" ">
<path fill="none" stroke="#63b8ff" d="M409.04,-120.61C419.47,-109.59 431.39,-97 440.6,-87.26"/>
<polygon fill="#63b8ff" stroke="#63b8ff" points="443.29,-89.52 447.62,-79.85 438.2,-84.71 443.29,-89.52"/>
</a>
</g>
</g>
<!-- Node9 -->
<g id="Node000009" class="node">
<title>Node9</title>
<g id="a_Node000009"><a xlink:title=" ">
<polygon fill="#e0e0e0" stroke="#999999" points="531,-79.5 499,-79.5 499,-60.5 531,-60.5 531,-79.5"/>
<text text-anchor="middle" x="515" y="-67.5" font-family="Helvetica,sans-Serif" font-size="10.00">list</text>
</a>
</g>
</g>
<!-- Node1&#45;&gt;Node9 -->
<g id="edge8_Node000001_Node000009" class="edge">
<title>Node1&#45;&gt;Node9</title>
<g id="a_edge8_Node000001_Node000009"><a xlink:title=" ">
<path fill="none" stroke="#63b8ff" d="M428.65,-120.82C449.56,-108.75 473.79,-94.78 491.25,-84.7"/>
<polygon fill="#63b8ff" stroke="#63b8ff" points="493.28,-87.57 500.19,-79.54 489.78,-81.51 493.28,-87.57"/>
</a>
</g>
</g>
<!-- Node10 -->
<g id="Node000010" class="node">
<title>Node10</title>
<g id="a_Node000010"><a xlink:title=" ">
<polygon fill="#e0e0e0" stroke="#999999" points="593,-79.5 549,-79.5 549,-60.5 593,-60.5 593,-79.5"/>
<text text-anchor="middle" x="571" y="-67.5" font-family="Helvetica,sans-Serif" font-size="10.00">string</text>
</a>
</g>
</g>
<!-- Node1&#45;&gt;Node10 -->
<g id="edge9_Node000001_Node000010" class="edge">
<title>Node1&#45;&gt;Node10</title>
<g id="a_edge9_Node000001_Node000010"><a xlink:title=" ">
<path fill="none" stroke="#63b8ff" d="M450.9,-120.89C478.55,-110.14 510.96,-97.26 540,-85 541.01,-84.58 542.03,-84.14 543.06,-83.69"/>
<polygon fill="#63b8ff" stroke="#63b8ff" points="544.64,-86.82 552.38,-79.59 541.82,-80.42 544.64,-86.82"/>
</a>
</g>
</g>
<!-- Node11 -->
<g id="Node000011" class="node">
<title>Node11</title>
<g id="a_Node000011"><a xlink:title=" ">
<polygon fill="#e0e0e0" stroke="#999999" points="658.5,-79.5 611.5,-79.5 611.5,-60.5 658.5,-60.5 658.5,-79.5"/>
<text text-anchor="middle" x="635" y="-67.5" font-family="Helvetica,sans-Serif" font-size="10.00">vector</text>
</a>
</g>
</g>
<!-- Node1&#45;&gt;Node11 -->
<g id="edge10_Node000001_Node000011" class="edge">
<title>Node1&#45;&gt;Node11</title>
<g id="a_edge10_Node000001_Node000011"><a xlink:title=" ">
<path fill="none" stroke="#63b8ff" d="M453.14,-129.23C496.24,-118.03 552.89,-102.24 602,-85 603.43,-84.5 604.89,-83.96 606.36,-83.41"/>
<polygon fill="#63b8ff" stroke="#63b8ff" points="607.98,-86.53 615.97,-79.56 605.38,-80.03 607.98,-86.53"/>
</a>
</g>
</g>
<!-- Node12 -->
<g id="Node000012" class="node">
<title>Node12</title>
<g id="a_Node000012"><a xlink:href="i__uart__io_8hpp.html" target="_top" xlink:title=" ">
<polygon fill="white" stroke="#666666" points="819,-85 677,-85 677,-55 819,-55 819,-85"/>
<text text-anchor="start" x="685" y="-73" font-family="Helvetica,sans-Serif" font-size="10.00">alps_cmn/communication</text>
<text text-anchor="middle" x="748" y="-62" font-family="Helvetica,sans-Serif" font-size="10.00">/i_uart_io.hpp</text>
</a>
</g>
</g>
<!-- Node1&#45;&gt;Node12 -->
<g id="edge11_Node000001_Node000012" class="edge">
<title>Node1&#45;&gt;Node12</title>
<g id="a_edge11_Node000001_Node000012"><a xlink:title=" ">
<path fill="none" stroke="#63b8ff" d="M453.28,-131.89C514.88,-119.17 605.46,-100.45 669.92,-87.13"/>
<polygon fill="#63b8ff" stroke="#63b8ff" points="670.94,-90.49 680.03,-85.04 669.53,-83.64 670.94,-90.49"/>
</a>
</g>
</g>
<!-- Node13 -->
<g id="Node000013" class="node">
<title>Node13</title>
<g id="a_Node000013"><a xlink:title=" ">
<polygon fill="#e0e0e0" stroke="#999999" points="803,-19 693,-19 693,0 803,0 803,-19"/>
<text text-anchor="middle" x="748" y="-7" font-family="Helvetica,sans-Serif" font-size="10.00">etl/circular_buffer.h</text>
</a>
</g>
</g>
<!-- Node12&#45;&gt;Node13 -->
<g id="edge12_Node000012_Node000013" class="edge">
<title>Node12&#45;&gt;Node13</title>
<g id="a_edge12_Node000012_Node000013"><a xlink:title=" ">
<path fill="none" stroke="#63b8ff" d="M748,-54.84C748,-47.21 748,-37.7 748,-29.45"/>
<polygon fill="#63b8ff" stroke="#63b8ff" points="751.5,-29.27 748,-19.27 744.5,-29.27 751.5,-29.27"/>
</a>
</g>
</g>
</g>
</svg>
