<?xml version="1.0" encoding="UTF-8" standalone="no"?>
<!DOCTYPE svg PUBLIC "-//W3C//DTD SVG 1.1//EN"
 "http://www.w3.org/Graphics/SVG/1.1/DTD/svg11.dtd">
<!-- Generated by graphviz version 2.43.0 (0)
 -->
<!-- Title: alps_mbed_lib/include/alps_mbed/sensor/incremental_encoder.hpp Pages: 1 -->
<svg width="472pt" height="236pt"
 viewBox="0.00 0.00 472.00 236.00" xmlns="http://www.w3.org/2000/svg" xmlns:xlink="http://www.w3.org/1999/xlink">
<g id="graph0" class="graph" transform="scale(1 1) rotate(0) translate(4 232)">
<title>alps_mbed_lib/include/alps_mbed/sensor/incremental_encoder.hpp</title>
<!-- Node1 -->
<g id="node1" class="node">
<title>Node1</title>
<g id="a_node1"><a xlink:title=" ">
<polygon fill="#999999" stroke="#666666" points="301,-228 131,-228 131,-187 301,-187 301,-228"/>
<text text-anchor="start" x="139" y="-216" font-family="Helvetica,sans-Serif" font-size="10.00">alps_mbed_lib/include</text>
<text text-anchor="start" x="139" y="-205" font-family="Helvetica,sans-Serif" font-size="10.00">/alps_mbed/sensor/incremental</text>
<text text-anchor="middle" x="216" y="-194" font-family="Helvetica,sans-Serif" font-size="10.00">_encoder.hpp</text>
</a>
</g>
</g>
<!-- Node2 -->
<g id="node2" class="node">
<title>Node2</title>
<g id="a_node2"><a xlink:href="alps__common__lib_2include_2alps__cmn_2sensor_2incremental__encoder_8hpp.html" target="_top" xlink:title=" ">
<polygon fill="white" stroke="#666666" points="464,-151 304,-151 304,-121 464,-121 464,-151"/>
<text text-anchor="start" x="312" y="-139" font-family="Helvetica,sans-Serif" font-size="10.00">alps_cmn/sensor/incremental</text>
<text text-anchor="middle" x="384" y="-128" font-family="Helvetica,sans-Serif" font-size="10.00">_encoder.hpp</text>
</a>
</g>
</g>
<!-- Node1&#45;&gt;Node2 -->
<g id="edge1" class="edge">
<title>Node1&#45;&gt;Node2</title>
<path fill="none" stroke="#63b8ff" d="M263.24,-186.96C287.55,-176.9 316.98,-164.73 340.7,-154.91"/>
<polygon fill="#63b8ff" stroke="#63b8ff" points="342.25,-158.06 350.15,-151 339.57,-151.59 342.25,-158.06"/>
</g>
<!-- Node6 -->
<g id="node6" class="node">
<title>Node6</title>
<g id="a_node6"><a xlink:href="digital__in_8hpp.html" target="_top" xlink:title=" ">
<polygon fill="white" stroke="#666666" points="128,-151 0,-151 0,-121 128,-121 128,-151"/>
<text text-anchor="start" x="8" y="-139" font-family="Helvetica,sans-Serif" font-size="10.00">alps_mbed/gpio/digital</text>
<text text-anchor="middle" x="64" y="-128" font-family="Helvetica,sans-Serif" font-size="10.00">_in.hpp</text>
</a>
</g>
</g>
<!-- Node1&#45;&gt;Node6 -->
<g id="edge5" class="edge">
<title>Node1&#45;&gt;Node6</title>
<path fill="none" stroke="#63b8ff" d="M173.26,-186.96C151.53,-177.02 125.29,-165.03 103.98,-155.28"/>
<polygon fill="#63b8ff" stroke="#63b8ff" points="105.42,-152.09 94.87,-151.11 102.5,-158.45 105.42,-152.09"/>
</g>
<!-- Node8 -->
<g id="node8" class="node">
<title>Node8</title>
<g id="a_node8"><a xlink:href="interrupt__in_8hpp.html" target="_top" xlink:title=" ">
<polygon fill="white" stroke="#666666" points="285.5,-151 146.5,-151 146.5,-121 285.5,-121 285.5,-151"/>
<text text-anchor="start" x="154.5" y="-139" font-family="Helvetica,sans-Serif" font-size="10.00">alps_mbed/gpio/interrupt</text>
<text text-anchor="middle" x="216" y="-128" font-family="Helvetica,sans-Serif" font-size="10.00">_in.hpp</text>
</a>
</g>
</g>
<!-- Node1&#45;&gt;Node8 -->
<g id="edge8" class="edge">
<title>Node1&#45;&gt;Node8</title>
<path fill="none" stroke="#63b8ff" d="M216,-186.77C216,-178.85 216,-169.63 216,-161.3"/>
<polygon fill="#63b8ff" stroke="#63b8ff" points="219.5,-161.04 216,-151.04 212.5,-161.04 219.5,-161.04"/>
</g>
<!-- Node3 -->
<g id="node3" class="node">
<title>Node3</title>
<g id="a_node3"><a xlink:href="i__digital__in_8hpp.html" target="_top" xlink:title=" ">
<polygon fill="white" stroke="#666666" points="280.5,-85 151.5,-85 151.5,-55 280.5,-55 280.5,-85"/>
<text text-anchor="start" x="159.5" y="-73" font-family="Helvetica,sans-Serif" font-size="10.00">alps_cmn/gpio/i_digital</text>
<text text-anchor="middle" x="216" y="-62" font-family="Helvetica,sans-Serif" font-size="10.00">_in.hpp</text>
</a>
</g>
</g>
<!-- Node2&#45;&gt;Node3 -->
<g id="edge2" class="edge">
<title>Node2&#45;&gt;Node3</title>
<path fill="none" stroke="#63b8ff" d="M347.13,-120.95C322.18,-111.45 289.04,-98.82 262.31,-88.64"/>
<polygon fill="#63b8ff" stroke="#63b8ff" points="263.37,-85.3 252.78,-85.01 260.88,-91.84 263.37,-85.3"/>
</g>
<!-- Node4 -->
<g id="node4" class="node">
<title>Node4</title>
<g id="a_node4"><a xlink:href="i__interrupt__in_8hpp.html" target="_top" xlink:title=" ">
<polygon fill="white" stroke="#666666" points="446,-85 306,-85 306,-55 446,-55 446,-85"/>
<text text-anchor="start" x="314" y="-73" font-family="Helvetica,sans-Serif" font-size="10.00">alps_cmn/gpio/i_interrupt</text>
<text text-anchor="middle" x="376" y="-62" font-family="Helvetica,sans-Serif" font-size="10.00">_in.hpp</text>
</a>
</g>
</g>
<!-- Node2&#45;&gt;Node4 -->
<g id="edge3" class="edge">
<title>Node2&#45;&gt;Node4</title>
<path fill="none" stroke="#63b8ff" d="M382.22,-120.8C381.28,-113.26 380.1,-103.78 379.02,-95.13"/>
<polygon fill="#63b8ff" stroke="#63b8ff" points="382.48,-94.65 377.77,-85.16 375.54,-95.52 382.48,-94.65"/>
</g>
<!-- Node5 -->
<g id="node5" class="node">
<title>Node5</title>
<g id="a_node5"><a xlink:title=" ">
<polygon fill="#e0e0e0" stroke="#999999" points="418,-19 334,-19 334,0 418,0 418,-19"/>
<text text-anchor="middle" x="376" y="-7" font-family="Helvetica,sans-Serif" font-size="10.00">etl/delegate.h</text>
</a>
</g>
</g>
<!-- Node4&#45;&gt;Node5 -->
<g id="edge4" class="edge">
<title>Node4&#45;&gt;Node5</title>
<path fill="none" stroke="#63b8ff" d="M376,-54.84C376,-47.21 376,-37.7 376,-29.45"/>
<polygon fill="#63b8ff" stroke="#63b8ff" points="379.5,-29.27 376,-19.27 372.5,-29.27 379.5,-29.27"/>
</g>
<!-- Node6&#45;&gt;Node3 -->
<g id="edge7" class="edge">
<title>Node6&#45;&gt;Node3</title>
<path fill="none" stroke="#63b8ff" d="M97.36,-120.95C119.73,-111.53 149.39,-99.04 173.46,-88.91"/>
<polygon fill="#63b8ff" stroke="#63b8ff" points="174.86,-92.12 182.72,-85.01 172.15,-85.67 174.86,-92.12"/>
</g>
<!-- Node7 -->
<g id="node7" class="node">
<title>Node7</title>
<g id="a_node7"><a xlink:title=" ">
<polygon fill="#e0e0e0" stroke="#999999" points="112.5,-79.5 59.5,-79.5 59.5,-60.5 112.5,-60.5 112.5,-79.5"/>
<text text-anchor="middle" x="86" y="-67.5" font-family="Helvetica,sans-Serif" font-size="10.00">mbed.h</text>
</a>
</g>
</g>
<!-- Node6&#45;&gt;Node7 -->
<g id="edge6" class="edge">
<title>Node6&#45;&gt;Node7</title>
<path fill="none" stroke="#63b8ff" d="M68.88,-120.8C72.04,-111.6 76.19,-99.53 79.61,-89.58"/>
<polygon fill="#63b8ff" stroke="#63b8ff" points="83.02,-90.44 82.96,-79.84 76.4,-88.16 83.02,-90.44"/>
</g>
<!-- Node8&#45;&gt;Node3 -->
<g id="edge10" class="edge">
<title>Node8&#45;&gt;Node3</title>
<path fill="none" stroke="#63b8ff" d="M216,-120.8C216,-113.34 216,-103.99 216,-95.41"/>
<polygon fill="#63b8ff" stroke="#63b8ff" points="219.5,-95.16 216,-85.16 212.5,-95.16 219.5,-95.16"/>
</g>
<!-- Node8&#45;&gt;Node4 -->
<g id="edge11" class="edge">
<title>Node8&#45;&gt;Node4</title>
<path fill="none" stroke="#63b8ff" d="M251.11,-120.95C274.77,-111.49 306.16,-98.93 331.56,-88.78"/>
<polygon fill="#63b8ff" stroke="#63b8ff" points="332.98,-91.98 340.97,-85.01 330.38,-85.48 332.98,-91.98"/>
</g>
<!-- Node8&#45;&gt;Node7 -->
<g id="edge9" class="edge">
<title>Node8&#45;&gt;Node7</title>
<path fill="none" stroke="#63b8ff" d="M187.47,-120.95C165.07,-109.93 134.14,-94.7 112.33,-83.96"/>
<polygon fill="#63b8ff" stroke="#63b8ff" points="113.82,-80.79 103.3,-79.52 110.73,-87.07 113.82,-80.79"/>
</g>
</g>
</svg>
