<?xml version="1.0" encoding="UTF-8" standalone="no"?>
<!DOCTYPE svg PUBLIC "-//W3C//DTD SVG 1.1//EN"
 "http://www.w3.org/Graphics/SVG/1.1/DTD/svg11.dtd">
<!-- Generated by graphviz version 2.43.0 (0)
 -->
<!-- Title: alps_core/lib_internal/alps_mbed_lib/include/alps_mbed/communication/uart_io.hpp Pages: 1 -->
<svg width="222pt" height="184pt"
 viewBox="0.00 0.00 221.50 184.00" xmlns="http://www.w3.org/2000/svg" xmlns:xlink="http://www.w3.org/1999/xlink">
<g id="graph0" class="graph" transform="scale(1 1) rotate(0) translate(4 180)">
<title>alps_core/lib_internal/alps_mbed_lib/include/alps_mbed/communication/uart_io.hpp</title>
<polygon fill="white" stroke="transparent" points="-4,4 -4,-180 217.5,-180 217.5,4 -4,4"/>
<!-- Node1 -->
<g id="node1" class="node">
<title>Node1</title>
<g id="a_node1"><a xlink:title="mbedのUart通信IOライブラリ">
<polygon fill="#bfbfbf" stroke="black" points="53,-123.5 53,-175.5 205,-175.5 205,-123.5 53,-123.5"/>
<text text-anchor="start" x="61" y="-163.5" font-family="Helvetica,sans-Serif" font-size="10.00">alps_core/lib_internal</text>
<text text-anchor="start" x="61" y="-152.5" font-family="Helvetica,sans-Serif" font-size="10.00">/alps_mbed_lib/include</text>
<text text-anchor="start" x="61" y="-141.5" font-family="Helvetica,sans-Serif" font-size="10.00">/alps_mbed/communication</text>
<text text-anchor="middle" x="129" y="-130.5" font-family="Helvetica,sans-Serif" font-size="10.00">/uart_io.hpp</text>
</a>
</g>
</g>
<!-- Node2 -->
<g id="node2" class="node">
<title>Node2</title>
<g id="a_node2"><a xlink:href="i__uart__io_8hpp.html" target="_top" xlink:title=" ">
<polygon fill="white" stroke="black" points="0,-56.5 0,-86.5 142,-86.5 142,-56.5 0,-56.5"/>
<text text-anchor="start" x="8" y="-74.5" font-family="Helvetica,sans-Serif" font-size="10.00">alps_cmn/communication</text>
<text text-anchor="middle" x="71" y="-63.5" font-family="Helvetica,sans-Serif" font-size="10.00">/i_uart_io.hpp</text>
</a>
</g>
</g>
<!-- Node1&#45;&gt;Node2 -->
<g id="edge1" class="edge">
<title>Node1&#45;&gt;Node2</title>
<path fill="none" stroke="midnightblue" d="M109.69,-123.19C102.69,-114.03 94.85,-103.76 88.07,-94.86"/>
<polygon fill="midnightblue" stroke="midnightblue" points="90.8,-92.67 81.95,-86.85 85.23,-96.92 90.8,-92.67"/>
</g>
<!-- Node4 -->
<g id="node4" class="node">
<title>Node4</title>
<g id="a_node4"><a xlink:title=" ">
<polygon fill="white" stroke="#bfbfbf" points="160.5,-62 160.5,-81 213.5,-81 213.5,-62 160.5,-62"/>
<text text-anchor="middle" x="187" y="-69" font-family="Helvetica,sans-Serif" font-size="10.00">mbed.h</text>
</a>
</g>
</g>
<!-- Node1&#45;&gt;Node4 -->
<g id="edge3" class="edge">
<title>Node1&#45;&gt;Node4</title>
<path fill="none" stroke="midnightblue" d="M148.31,-123.19C156.79,-112.08 166.52,-99.34 174.09,-89.41"/>
<polygon fill="midnightblue" stroke="midnightblue" points="177.07,-91.28 180.35,-81.21 171.5,-87.04 177.07,-91.28"/>
</g>
<!-- Node3 -->
<g id="node3" class="node">
<title>Node3</title>
<g id="a_node3"><a xlink:title=" ">
<polygon fill="white" stroke="#bfbfbf" points="16,-0.5 16,-19.5 126,-19.5 126,-0.5 16,-0.5"/>
<text text-anchor="middle" x="71" y="-7.5" font-family="Helvetica,sans-Serif" font-size="10.00">etl/circular_buffer.h</text>
</a>
</g>
</g>
<!-- Node2&#45;&gt;Node3 -->
<g id="edge2" class="edge">
<title>Node2&#45;&gt;Node3</title>
<path fill="none" stroke="midnightblue" d="M71,-56.4C71,-48.47 71,-38.46 71,-29.86"/>
<polygon fill="midnightblue" stroke="midnightblue" points="74.5,-29.66 71,-19.66 67.5,-29.66 74.5,-29.66"/>
</g>
</g>
</svg>
