<?xml version="1.0" encoding="UTF-8" standalone="no"?>
<!DOCTYPE svg PUBLIC "-//W3C//DTD SVG 1.1//EN"
 "http://www.w3.org/Graphics/SVG/1.1/DTD/svg11.dtd">
<!-- Generated by graphviz version 2.43.0 (0)
 -->
<!-- Title: alps_common_lib/include/alps_cmn/actuator/dc_motor.hpp Pages: 1 -->
<svg width="597pt" height="170pt"
 viewBox="0.00 0.00 597.11 170.00" xmlns="http://www.w3.org/2000/svg" xmlns:xlink="http://www.w3.org/1999/xlink">
<g id="graph0" class="graph" transform="scale(1 1) rotate(0) translate(4 166)">
<title>alps_common_lib/include/alps_cmn/actuator/dc_motor.hpp</title>
<!-- Node1 -->
<g id="node1" class="node">
<title>Node1</title>
<g id="a_node1"><a xlink:title=" ">
<polygon fill="#999999" stroke="#666666" points="282.61,-162 142.61,-162 142.61,-121 282.61,-121 282.61,-162"/>
<text text-anchor="start" x="150.61" y="-150" font-family="Helvetica,sans-Serif" font-size="10.00">alps_common_lib/include</text>
<text text-anchor="start" x="150.61" y="-139" font-family="Helvetica,sans-Serif" font-size="10.00">/alps_cmn/actuator/dc</text>
<text text-anchor="middle" x="212.61" y="-128" font-family="Helvetica,sans-Serif" font-size="10.00">_motor.hpp</text>
</a>
</g>
</g>
<!-- Node2 -->
<g id="node2" class="node">
<title>Node2</title>
<g id="a_node2"><a xlink:title=" ">
<polygon fill="#e0e0e0" stroke="#999999" points="197.61,-19 147.61,-19 147.61,0 197.61,0 197.61,-19"/>
<text text-anchor="middle" x="172.61" y="-7" font-family="Helvetica,sans-Serif" font-size="10.00">chrono</text>
</a>
</g>
</g>
<!-- Node1&#45;&gt;Node2 -->
<g id="edge1" class="edge">
<title>Node1&#45;&gt;Node2</title>
<path fill="none" stroke="#63b8ff" d="M142.52,-130.73C89.89,-121.78 24.16,-106.63 7.61,-85 -28.52,-37.79 78.81,-19.67 137.33,-13.43"/>
<polygon fill="#63b8ff" stroke="#63b8ff" points="137.7,-16.91 147.3,-12.43 137.01,-9.95 137.7,-16.91"/>
</g>
<!-- Node3 -->
<g id="node3" class="node">
<title>Node3</title>
<g id="a_node3"><a xlink:href="i__motor_8hpp.html" target="_top" xlink:title=" ">
<polygon fill="white" stroke="#666666" points="130.11,-85 17.11,-85 17.11,-55 130.11,-55 130.11,-85"/>
<text text-anchor="start" x="25.11" y="-73" font-family="Helvetica,sans-Serif" font-size="10.00">alps_cmn/actuator/i</text>
<text text-anchor="middle" x="73.61" y="-62" font-family="Helvetica,sans-Serif" font-size="10.00">_motor.hpp</text>
</a>
</g>
</g>
<!-- Node1&#45;&gt;Node3 -->
<g id="edge2" class="edge">
<title>Node1&#45;&gt;Node3</title>
<path fill="none" stroke="#63b8ff" d="M173.52,-120.96C153.92,-111.16 130.3,-99.35 110.95,-89.67"/>
<polygon fill="#63b8ff" stroke="#63b8ff" points="112.34,-86.45 101.83,-85.11 109.21,-92.72 112.34,-86.45"/>
</g>
<!-- Node4 -->
<g id="node4" class="node">
<title>Node4</title>
<g id="a_node4"><a xlink:href="i__digital__out_8hpp.html" target="_top" xlink:title=" ">
<polygon fill="white" stroke="#666666" points="277.11,-85 148.11,-85 148.11,-55 277.11,-55 277.11,-85"/>
<text text-anchor="start" x="156.11" y="-73" font-family="Helvetica,sans-Serif" font-size="10.00">alps_cmn/gpio/i_digital</text>
<text text-anchor="middle" x="212.61" y="-62" font-family="Helvetica,sans-Serif" font-size="10.00">_out.hpp</text>
</a>
</g>
</g>
<!-- Node1&#45;&gt;Node4 -->
<g id="edge3" class="edge">
<title>Node1&#45;&gt;Node4</title>
<path fill="none" stroke="#63b8ff" d="M212.61,-120.77C212.61,-112.85 212.61,-103.63 212.61,-95.3"/>
<polygon fill="#63b8ff" stroke="#63b8ff" points="216.11,-95.04 212.61,-85.04 209.11,-95.04 216.11,-95.04"/>
</g>
<!-- Node5 -->
<g id="node5" class="node">
<title>Node5</title>
<g id="a_node5"><a xlink:href="i__pwm__out_8hpp.html" target="_top" xlink:title="PWM出力を行うインタフェース">
<polygon fill="white" stroke="#666666" points="417.61,-85 295.61,-85 295.61,-55 417.61,-55 417.61,-85"/>
<text text-anchor="start" x="303.61" y="-73" font-family="Helvetica,sans-Serif" font-size="10.00">alps_cmn/gpio/i_pwm</text>
<text text-anchor="middle" x="356.61" y="-62" font-family="Helvetica,sans-Serif" font-size="10.00">_out.hpp</text>
</a>
</g>
</g>
<!-- Node1&#45;&gt;Node5 -->
<g id="edge4" class="edge">
<title>Node1&#45;&gt;Node5</title>
<path fill="none" stroke="#63b8ff" d="M253.1,-120.96C273.5,-111.11 298.09,-99.24 318.19,-89.54"/>
<polygon fill="#63b8ff" stroke="#63b8ff" points="319.88,-92.61 327.37,-85.11 316.84,-86.31 319.88,-92.61"/>
</g>
<!-- Node6 -->
<g id="node6" class="node">
<title>Node6</title>
<g id="a_node6"><a xlink:href="algorithm_8hpp.html" target="_top" xlink:title=" ">
<polygon fill="white" stroke="#666666" points="589.11,-79.5 436.11,-79.5 436.11,-60.5 589.11,-60.5 589.11,-79.5"/>
<text text-anchor="middle" x="512.61" y="-67.5" font-family="Helvetica,sans-Serif" font-size="10.00">alps_cmn/util/algorithm.hpp</text>
</a>
</g>
</g>
<!-- Node1&#45;&gt;Node6 -->
<g id="edge6" class="edge">
<title>Node1&#45;&gt;Node6</title>
<path fill="none" stroke="#63b8ff" d="M282.94,-124.21C339.21,-111.17 416.54,-93.25 465.55,-81.9"/>
<polygon fill="#63b8ff" stroke="#63b8ff" points="466.61,-85.25 475.56,-79.58 465.03,-78.43 466.61,-85.25"/>
</g>
<!-- Node5&#45;&gt;Node2 -->
<g id="edge5" class="edge">
<title>Node5&#45;&gt;Node2</title>
<path fill="none" stroke="#63b8ff" d="M312.54,-54.99C280.25,-44.72 237.04,-30.98 207.22,-21.5"/>
<polygon fill="#63b8ff" stroke="#63b8ff" points="208.25,-18.16 197.65,-18.46 206.12,-24.83 208.25,-18.16"/>
</g>
</g>
</svg>
