<?xml version="1.0" encoding="UTF-8" standalone="no"?>
<!DOCTYPE svg PUBLIC "-//W3C//DTD SVG 1.1//EN"
 "http://www.w3.org/Graphics/SVG/1.1/DTD/svg11.dtd">
<!-- Generated by graphviz version 2.43.0 (0)
 -->
<!-- Title: alps_linux_lib/include/alps_lin/communication/uart_io.hpp Pages: 1 -->
<svg width="827pt" height="170pt"
 viewBox="0.00 0.00 827.00 170.00" xmlns="http://www.w3.org/2000/svg" xmlns:xlink="http://www.w3.org/1999/xlink">
<g id="graph0" class="graph" transform="scale(1 1) rotate(0) translate(4 166)">
<title>alps_linux_lib/include/alps_lin/communication/uart_io.hpp</title>
<!-- Node1 -->
<g id="node1" class="node">
<title>Node1</title>
<g id="a_node1"><a xlink:title="Ubuntuシリアル通信IOライブラリ">
<polygon fill="#999999" stroke="#666666" points="453,-162 317,-162 317,-121 453,-121 453,-162"/>
<text text-anchor="start" x="325" y="-150" font-family="Helvetica,sans-Serif" font-size="10.00">alps_linux_lib/include</text>
<text text-anchor="start" x="325" y="-139" font-family="Helvetica,sans-Serif" font-size="10.00">/alps_lin/communication</text>
<text text-anchor="middle" x="385" y="-128" font-family="Helvetica,sans-Serif" font-size="10.00">/uart_io.hpp</text>
</a>
</g>
</g>
<!-- Node2 -->
<g id="node2" class="node">
<title>Node2</title>
<g id="a_node2"><a xlink:title=" ">
<polygon fill="#e0e0e0" stroke="#999999" points="54,-79.5 0,-79.5 0,-60.5 54,-60.5 54,-79.5"/>
<text text-anchor="middle" x="27" y="-67.5" font-family="Helvetica,sans-Serif" font-size="10.00">dirent.h</text>
</a>
</g>
</g>
<!-- Node1&#45;&gt;Node2 -->
<g id="edge1" class="edge">
<title>Node1&#45;&gt;Node2</title>
<path fill="none" stroke="#63b8ff" d="M316.86,-132.55C251.31,-124.01 149.8,-108.42 64,-85 61.71,-84.37 59.36,-83.66 57.01,-82.9"/>
<polygon fill="#63b8ff" stroke="#63b8ff" points="58.11,-79.57 47.51,-79.56 55.78,-86.18 58.11,-79.57"/>
</g>
<!-- Node3 -->
<g id="node3" class="node">
<title>Node3</title>
<g id="a_node3"><a xlink:title=" ">
<polygon fill="#e0e0e0" stroke="#999999" points="123.5,-79.5 72.5,-79.5 72.5,-60.5 123.5,-60.5 123.5,-79.5"/>
<text text-anchor="middle" x="98" y="-67.5" font-family="Helvetica,sans-Serif" font-size="10.00">errno.h</text>
</a>
</g>
</g>
<!-- Node1&#45;&gt;Node3 -->
<g id="edge2" class="edge">
<title>Node1&#45;&gt;Node3</title>
<path fill="none" stroke="#63b8ff" d="M316.83,-128.62C265.68,-118.96 194.23,-103.85 133,-85 131.12,-84.42 129.21,-83.79 127.28,-83.12"/>
<polygon fill="#63b8ff" stroke="#63b8ff" points="128.38,-79.79 117.79,-79.57 125.93,-86.35 128.38,-79.79"/>
</g>
<!-- Node4 -->
<g id="node4" class="node">
<title>Node4</title>
<g id="a_node4"><a xlink:title=" ">
<polygon fill="#e0e0e0" stroke="#999999" points="188.5,-79.5 141.5,-79.5 141.5,-60.5 188.5,-60.5 188.5,-79.5"/>
<text text-anchor="middle" x="165" y="-67.5" font-family="Helvetica,sans-Serif" font-size="10.00">fcntl.h</text>
</a>
</g>
</g>
<!-- Node1&#45;&gt;Node4 -->
<g id="edge3" class="edge">
<title>Node1&#45;&gt;Node4</title>
<path fill="none" stroke="#63b8ff" d="M316.89,-122.28C281.18,-112.23 236.88,-98.97 198,-85 196.57,-84.49 195.12,-83.95 193.65,-83.38"/>
<polygon fill="#63b8ff" stroke="#63b8ff" points="194.63,-80.01 184.05,-79.51 192.02,-86.5 194.63,-80.01"/>
</g>
<!-- Node5 -->
<g id="node5" class="node">
<title>Node5</title>
<g id="a_node5"><a xlink:title=" ">
<polygon fill="#e0e0e0" stroke="#999999" points="257,-79.5 207,-79.5 207,-60.5 257,-60.5 257,-79.5"/>
<text text-anchor="middle" x="232" y="-67.5" font-family="Helvetica,sans-Serif" font-size="10.00">stdio.h</text>
</a>
</g>
</g>
<!-- Node1&#45;&gt;Node5 -->
<g id="edge4" class="edge">
<title>Node1&#45;&gt;Node5</title>
<path fill="none" stroke="#63b8ff" d="M341.97,-120.96C315.68,-109.01 282.81,-94.08 259.89,-83.67"/>
<polygon fill="#63b8ff" stroke="#63b8ff" points="261.27,-80.45 250.72,-79.5 258.38,-86.83 261.27,-80.45"/>
</g>
<!-- Node6 -->
<g id="node6" class="node">
<title>Node6</title>
<g id="a_node6"><a xlink:title=" ">
<polygon fill="#e0e0e0" stroke="#999999" points="338.5,-79.5 275.5,-79.5 275.5,-60.5 338.5,-60.5 338.5,-79.5"/>
<text text-anchor="middle" x="307" y="-67.5" font-family="Helvetica,sans-Serif" font-size="10.00">termios.h</text>
</a>
</g>
</g>
<!-- Node1&#45;&gt;Node6 -->
<g id="edge5" class="edge">
<title>Node1&#45;&gt;Node6</title>
<path fill="none" stroke="#63b8ff" d="M362.86,-120.77C350.68,-109.92 335.79,-96.65 324.44,-86.54"/>
<polygon fill="#63b8ff" stroke="#63b8ff" points="326.69,-83.86 316.9,-79.82 322.04,-89.09 326.69,-83.86"/>
</g>
<!-- Node7 -->
<g id="node7" class="node">
<title>Node7</title>
<g id="a_node7"><a xlink:title=" ">
<polygon fill="#e0e0e0" stroke="#999999" points="413,-79.5 357,-79.5 357,-60.5 413,-60.5 413,-79.5"/>
<text text-anchor="middle" x="385" y="-67.5" font-family="Helvetica,sans-Serif" font-size="10.00">unistd.h</text>
</a>
</g>
</g>
<!-- Node1&#45;&gt;Node7 -->
<g id="edge6" class="edge">
<title>Node1&#45;&gt;Node7</title>
<path fill="none" stroke="#63b8ff" d="M385,-120.77C385,-111.08 385,-99.46 385,-89.88"/>
<polygon fill="#63b8ff" stroke="#63b8ff" points="388.5,-89.82 385,-79.82 381.5,-89.82 388.5,-89.82"/>
</g>
<!-- Node8 -->
<g id="node8" class="node">
<title>Node8</title>
<g id="a_node8"><a xlink:title=" ">
<polygon fill="#e0e0e0" stroke="#999999" points="481,-79.5 431,-79.5 431,-60.5 481,-60.5 481,-79.5"/>
<text text-anchor="middle" x="456" y="-67.5" font-family="Helvetica,sans-Serif" font-size="10.00">chrono</text>
</a>
</g>
</g>
<!-- Node1&#45;&gt;Node8 -->
<g id="edge7" class="edge">
<title>Node1&#45;&gt;Node8</title>
<path fill="none" stroke="#63b8ff" d="M405.16,-120.77C416.13,-110.02 429.53,-96.91 439.82,-86.84"/>
<polygon fill="#63b8ff" stroke="#63b8ff" points="442.29,-89.32 446.99,-79.82 437.4,-84.31 442.29,-89.32"/>
</g>
<!-- Node9 -->
<g id="node9" class="node">
<title>Node9</title>
<g id="a_node9"><a xlink:title=" ">
<polygon fill="#e0e0e0" stroke="#999999" points="531,-79.5 499,-79.5 499,-60.5 531,-60.5 531,-79.5"/>
<text text-anchor="middle" x="515" y="-67.5" font-family="Helvetica,sans-Serif" font-size="10.00">list</text>
</a>
</g>
</g>
<!-- Node1&#45;&gt;Node9 -->
<g id="edge8" class="edge">
<title>Node1&#45;&gt;Node9</title>
<path fill="none" stroke="#63b8ff" d="M422.54,-120.94C442.61,-110.41 467.72,-97.12 490,-85 490.29,-84.84 490.59,-84.68 490.89,-84.51"/>
<polygon fill="#63b8ff" stroke="#63b8ff" points="492.64,-87.55 499.7,-79.65 489.25,-81.42 492.64,-87.55"/>
</g>
<!-- Node10 -->
<g id="node10" class="node">
<title>Node10</title>
<g id="a_node10"><a xlink:title=" ">
<polygon fill="#e0e0e0" stroke="#999999" points="593,-79.5 549,-79.5 549,-60.5 593,-60.5 593,-79.5"/>
<text text-anchor="middle" x="571" y="-67.5" font-family="Helvetica,sans-Serif" font-size="10.00">string</text>
</a>
</g>
</g>
<!-- Node1&#45;&gt;Node10 -->
<g id="edge9" class="edge">
<title>Node1&#45;&gt;Node10</title>
<path fill="none" stroke="#63b8ff" d="M443.2,-120.9C472.45,-110.74 508.33,-97.8 540,-85 541.17,-84.53 542.36,-84.04 543.56,-83.53"/>
<polygon fill="#63b8ff" stroke="#63b8ff" points="544.97,-86.74 552.75,-79.54 542.18,-80.32 544.97,-86.74"/>
</g>
<!-- Node11 -->
<g id="node11" class="node">
<title>Node11</title>
<g id="a_node11"><a xlink:title=" ">
<polygon fill="#e0e0e0" stroke="#999999" points="658.5,-79.5 611.5,-79.5 611.5,-60.5 658.5,-60.5 658.5,-79.5"/>
<text text-anchor="middle" x="635" y="-67.5" font-family="Helvetica,sans-Serif" font-size="10.00">vector</text>
</a>
</g>
</g>
<!-- Node1&#45;&gt;Node11 -->
<g id="edge10" class="edge">
<title>Node1&#45;&gt;Node11</title>
<path fill="none" stroke="#63b8ff" d="M453.21,-125.84C496.35,-115.89 553,-101.55 602,-85 603.44,-84.51 604.9,-83.99 606.37,-83.45"/>
<polygon fill="#63b8ff" stroke="#63b8ff" points="607.99,-86.58 615.99,-79.64 605.41,-80.07 607.99,-86.58"/>
</g>
<!-- Node12 -->
<g id="node12" class="node">
<title>Node12</title>
<g id="a_node12"><a xlink:href="i__uart__io_8hpp.html" target="_top" xlink:title=" ">
<polygon fill="white" stroke="#666666" points="819,-85 677,-85 677,-55 819,-55 819,-85"/>
<text text-anchor="start" x="685" y="-73" font-family="Helvetica,sans-Serif" font-size="10.00">alps_cmn/communication</text>
<text text-anchor="middle" x="748" y="-62" font-family="Helvetica,sans-Serif" font-size="10.00">/i_uart_io.hpp</text>
</a>
</g>
</g>
<!-- Node1&#45;&gt;Node12 -->
<g id="edge11" class="edge">
<title>Node1&#45;&gt;Node12</title>
<path fill="none" stroke="#63b8ff" d="M453.28,-127.43C513.91,-115.82 602.6,-98.84 666.84,-86.54"/>
<polygon fill="#63b8ff" stroke="#63b8ff" points="667.77,-89.93 676.93,-84.61 666.45,-83.05 667.77,-89.93"/>
</g>
<!-- Node13 -->
<g id="node13" class="node">
<title>Node13</title>
<g id="a_node13"><a xlink:title=" ">
<polygon fill="#e0e0e0" stroke="#999999" points="804,-19 692,-19 692,0 804,0 804,-19"/>
<text text-anchor="middle" x="748" y="-7" font-family="Helvetica,sans-Serif" font-size="10.00">etl/circular_buffer.h</text>
</a>
</g>
</g>
<!-- Node12&#45;&gt;Node13 -->
<g id="edge12" class="edge">
<title>Node12&#45;&gt;Node13</title>
<path fill="none" stroke="#63b8ff" d="M748,-54.84C748,-47.21 748,-37.7 748,-29.45"/>
<polygon fill="#63b8ff" stroke="#63b8ff" points="751.5,-29.27 748,-19.27 744.5,-29.27 751.5,-29.27"/>
</g>
</g>
</svg>
