<?xml version="1.0" encoding="UTF-8" standalone="no"?>
<!DOCTYPE svg PUBLIC "-//W3C//DTD SVG 1.1//EN"
 "http://www.w3.org/Graphics/SVG/1.1/DTD/svg11.dtd">
<!-- Generated by graphviz version 2.43.0 (0)
 -->
<!-- Title: alps_mbed_lib/include/alps_mbed/log/log_writer.hpp Pages: 1 -->
<svg width="227pt" height="148pt"
 viewBox="0.00 0.00 226.50 148.00" xmlns="http://www.w3.org/2000/svg" xmlns:xlink="http://www.w3.org/1999/xlink">
<g id="graph0" class="graph" transform="scale(1 1) rotate(0) translate(4 144)">
<title>alps_mbed_lib/include/alps_mbed/log/log_writer.hpp</title>
<!-- Node1 -->
<g id="node1" class="node">
<title>Node1</title>
<g id="a_node1"><a xlink:title=" ">
<polygon fill="#999999" stroke="#666666" points="164,-140 0,-140 0,-110 164,-110 164,-140"/>
<text text-anchor="start" x="8" y="-128" font-family="Helvetica,sans-Serif" font-size="10.00">alps_mbed_lib/include</text>
<text text-anchor="middle" x="82" y="-117" font-family="Helvetica,sans-Serif" font-size="10.00">/alps_mbed/log/log_writer.hpp</text>
</a>
</g>
</g>
<!-- Node2 -->
<g id="node2" class="node">
<title>Node2</title>
<g id="a_node2"><a xlink:title=" ">
<polygon fill="#e0e0e0" stroke="#999999" points="51,-74 5,-74 5,-55 51,-55 51,-74"/>
<text text-anchor="middle" x="28" y="-62" font-family="Helvetica,sans-Serif" font-size="10.00">cstdio</text>
</a>
</g>
</g>
<!-- Node1&#45;&gt;Node2 -->
<g id="edge1" class="edge">
<title>Node1&#45;&gt;Node2</title>
<path fill="none" stroke="#63b8ff" d="M68.93,-109.84C61.09,-101.35 51.09,-90.52 42.94,-81.69"/>
<polygon fill="#63b8ff" stroke="#63b8ff" points="45.45,-79.24 36.09,-74.27 40.3,-83.99 45.45,-79.24"/>
</g>
<!-- Node3 -->
<g id="node3" class="node">
<title>Node3</title>
<g id="a_node3"><a xlink:href="logger_8hpp.html" target="_top" xlink:title=" ">
<polygon fill="white" stroke="#666666" points="205,-74 69,-74 69,-55 205,-55 205,-74"/>
<text text-anchor="middle" x="137" y="-62" font-family="Helvetica,sans-Serif" font-size="10.00">alps_cmn/log/logger.hpp</text>
</a>
</g>
</g>
<!-- Node1&#45;&gt;Node3 -->
<g id="edge2" class="edge">
<title>Node1&#45;&gt;Node3</title>
<path fill="none" stroke="#63b8ff" d="M95.31,-109.84C103.3,-101.35 113.48,-90.52 121.78,-81.69"/>
<polygon fill="#63b8ff" stroke="#63b8ff" points="124.46,-83.95 128.76,-74.27 119.36,-79.15 124.46,-83.95"/>
</g>
<!-- Node4 -->
<g id="node4" class="node">
<title>Node4</title>
<g id="a_node4"><a xlink:title=" ">
<polygon fill="#e0e0e0" stroke="#999999" points="131,-19 47,-19 47,0 131,0 131,-19"/>
<text text-anchor="middle" x="89" y="-7" font-family="Helvetica,sans-Serif" font-size="10.00">etl/delegate.h</text>
</a>
</g>
</g>
<!-- Node3&#45;&gt;Node4 -->
<g id="edge3" class="edge">
<title>Node3&#45;&gt;Node4</title>
<path fill="none" stroke="#63b8ff" d="M129.07,-54.75C122.15,-47.11 111.93,-35.82 103.55,-26.56"/>
<polygon fill="#63b8ff" stroke="#63b8ff" points="106.09,-24.15 96.78,-19.09 100.9,-28.85 106.09,-24.15"/>
</g>
<!-- Node5 -->
<g id="node5" class="node">
<title>Node5</title>
<g id="a_node5"><a xlink:title=" ">
<polygon fill="#e0e0e0" stroke="#999999" points="218.5,-19 149.5,-19 149.5,0 218.5,0 218.5,-19"/>
<text text-anchor="middle" x="184" y="-7" font-family="Helvetica,sans-Serif" font-size="10.00">etl/string.h</text>
</a>
</g>
</g>
<!-- Node3&#45;&gt;Node5 -->
<g id="edge4" class="edge">
<title>Node3&#45;&gt;Node5</title>
<path fill="none" stroke="#63b8ff" d="M144.76,-54.75C151.47,-47.18 161.34,-36.05 169.51,-26.84"/>
<polygon fill="#63b8ff" stroke="#63b8ff" points="172.37,-28.89 176.38,-19.09 167.13,-24.25 172.37,-28.89"/>
</g>
</g>
</svg>
