<?xml version="1.0" encoding="UTF-8" standalone="no"?>
<!DOCTYPE svg PUBLIC "-//W3C//DTD SVG 1.1//EN"
 "http://www.w3.org/Graphics/SVG/1.1/DTD/svg11.dtd">
<!-- Generated by graphviz version 2.43.0 (0)
 -->
<!-- Title: alps_mbed_lib/include/alps_mbed/actuator/servo_motor.hpp Pages: 1 -->
<svg width="657pt" height="236pt"
 viewBox="0.00 0.00 657.00 236.00" xmlns="http://www.w3.org/2000/svg" xmlns:xlink="http://www.w3.org/1999/xlink">
<g id="graph0" class="graph" transform="scale(1 1) rotate(0) translate(4 232)">
<title>alps_mbed_lib/include/alps_mbed/actuator/servo_motor.hpp</title>
<!-- Node1 -->
<g id="node1" class="node">
<title>Node1</title>
<g id="a_node1"><a xlink:title=" ">
<polygon fill="#999999" stroke="#666666" points="188.5,-228 42.5,-228 42.5,-187 188.5,-187 188.5,-228"/>
<text text-anchor="start" x="50.5" y="-216" font-family="Helvetica,sans-Serif" font-size="10.00">alps_mbed_lib/include</text>
<text text-anchor="start" x="50.5" y="-205" font-family="Helvetica,sans-Serif" font-size="10.00">/alps_mbed/actuator/servo</text>
<text text-anchor="middle" x="115.5" y="-194" font-family="Helvetica,sans-Serif" font-size="10.00">_motor.hpp</text>
</a>
</g>
</g>
<!-- Node2 -->
<g id="node2" class="node">
<title>Node2</title>
<g id="a_node2"><a xlink:title=" ">
<polygon fill="#e0e0e0" stroke="#999999" points="53,-79.5 0,-79.5 0,-60.5 53,-60.5 53,-79.5"/>
<text text-anchor="middle" x="26.5" y="-67.5" font-family="Helvetica,sans-Serif" font-size="10.00">mbed.h</text>
</a>
</g>
</g>
<!-- Node1&#45;&gt;Node2 -->
<g id="edge1" class="edge">
<title>Node1&#45;&gt;Node2</title>
<path fill="none" stroke="#63b8ff" d="M82.1,-186.98C68.87,-177.66 54.66,-165.39 45.5,-151 33.67,-132.41 29.2,-107.15 27.51,-90.02"/>
<polygon fill="#63b8ff" stroke="#63b8ff" points="30.97,-89.36 26.73,-79.65 23.99,-89.88 30.97,-89.36"/>
</g>
<!-- Node3 -->
<g id="node3" class="node">
<title>Node3</title>
<g id="a_node3"><a xlink:href="alps__common__lib_2include_2alps__cmn_2actuator_2servo__motor_8hpp.html" target="_top" xlink:title=" ">
<polygon fill="white" stroke="#666666" points="356,-151 219,-151 219,-121 356,-121 356,-151"/>
<text text-anchor="start" x="227" y="-139" font-family="Helvetica,sans-Serif" font-size="10.00">alps_cmn/actuator/servo</text>
<text text-anchor="middle" x="287.5" y="-128" font-family="Helvetica,sans-Serif" font-size="10.00">_motor.hpp</text>
</a>
</g>
</g>
<!-- Node1&#45;&gt;Node3 -->
<g id="edge2" class="edge">
<title>Node1&#45;&gt;Node3</title>
<path fill="none" stroke="#63b8ff" d="M163.87,-186.96C188.87,-176.85 219.15,-164.62 243.49,-154.78"/>
<polygon fill="#63b8ff" stroke="#63b8ff" points="244.88,-158 252.84,-151 242.26,-151.51 244.88,-158"/>
</g>
<!-- Node10 -->
<g id="node10" class="node">
<title>Node10</title>
<g id="a_node10"><a xlink:href="pwm__out_8hpp.html" target="_top" xlink:title="PWM出力ピン">
<polygon fill="white" stroke="#666666" points="176,-151 55,-151 55,-121 176,-121 176,-151"/>
<text text-anchor="start" x="63" y="-139" font-family="Helvetica,sans-Serif" font-size="10.00">alps_mbed/gpio/pwm</text>
<text text-anchor="middle" x="115.5" y="-128" font-family="Helvetica,sans-Serif" font-size="10.00">_out.hpp</text>
</a>
</g>
</g>
<!-- Node1&#45;&gt;Node10 -->
<g id="edge10" class="edge">
<title>Node1&#45;&gt;Node10</title>
<path fill="none" stroke="#63b8ff" d="M115.5,-186.77C115.5,-178.85 115.5,-169.63 115.5,-161.3"/>
<polygon fill="#63b8ff" stroke="#63b8ff" points="119,-161.04 115.5,-151.04 112,-161.04 119,-161.04"/>
</g>
<!-- Node4 -->
<g id="node4" class="node">
<title>Node4</title>
<g id="a_node4"><a xlink:title=" ">
<polygon fill="#e0e0e0" stroke="#999999" points="195.5,-19 145.5,-19 145.5,0 195.5,0 195.5,-19"/>
<text text-anchor="middle" x="170.5" y="-7" font-family="Helvetica,sans-Serif" font-size="10.00">chrono</text>
</a>
</g>
</g>
<!-- Node3&#45;&gt;Node4 -->
<g id="edge3" class="edge">
<title>Node3&#45;&gt;Node4</title>
<path fill="none" stroke="#63b8ff" d="M281.72,-120.95C274.18,-103.85 259.63,-74.82 240.5,-55 228.31,-42.37 211.86,-31.68 197.97,-23.95"/>
<polygon fill="#63b8ff" stroke="#63b8ff" points="199.32,-20.7 188.85,-19.08 196.02,-26.87 199.32,-20.7"/>
</g>
<!-- Node5 -->
<g id="node5" class="node">
<title>Node5</title>
<g id="a_node5"><a xlink:title=" ">
<polygon fill="#e0e0e0" stroke="#999999" points="337.5,-79.5 287.5,-79.5 287.5,-60.5 337.5,-60.5 337.5,-79.5"/>
<text text-anchor="middle" x="312.5" y="-67.5" font-family="Helvetica,sans-Serif" font-size="10.00">cstdint</text>
</a>
</g>
</g>
<!-- Node3&#45;&gt;Node5 -->
<g id="edge4" class="edge">
<title>Node3&#45;&gt;Node5</title>
<path fill="none" stroke="#63b8ff" d="M293.05,-120.8C296.68,-111.5 301.46,-99.27 305.37,-89.26"/>
<polygon fill="#63b8ff" stroke="#63b8ff" points="308.67,-90.43 309.05,-79.84 302.15,-87.89 308.67,-90.43"/>
</g>
<!-- Node6 -->
<g id="node6" class="node">
<title>Node6</title>
<g id="a_node6"><a xlink:href="i__pwm__out_8hpp.html" target="_top" xlink:title="PWM出力を行うインタフェース">
<polygon fill="white" stroke="#666666" points="231.5,-85 109.5,-85 109.5,-55 231.5,-55 231.5,-85"/>
<text text-anchor="start" x="117.5" y="-73" font-family="Helvetica,sans-Serif" font-size="10.00">alps_cmn/gpio/i_pwm</text>
<text text-anchor="middle" x="170.5" y="-62" font-family="Helvetica,sans-Serif" font-size="10.00">_out.hpp</text>
</a>
</g>
</g>
<!-- Node3&#45;&gt;Node6 -->
<g id="edge5" class="edge">
<title>Node3&#45;&gt;Node6</title>
<path fill="none" stroke="#63b8ff" d="M261.82,-120.95C245.21,-111.87 223.38,-99.93 205.23,-90"/>
<polygon fill="#63b8ff" stroke="#63b8ff" points="206.57,-86.74 196.12,-85.01 203.21,-92.88 206.57,-86.74"/>
</g>
<!-- Node7 -->
<g id="node7" class="node">
<title>Node7</title>
<g id="a_node7"><a xlink:href="angle__conversion_8hpp.html" target="_top" xlink:title=" ">
<polygon fill="white" stroke="#666666" points="477.5,-85 355.5,-85 355.5,-55 477.5,-55 477.5,-85"/>
<text text-anchor="start" x="363.5" y="-73" font-family="Helvetica,sans-Serif" font-size="10.00">alps_cmn/math/angle</text>
<text text-anchor="middle" x="416.5" y="-62" font-family="Helvetica,sans-Serif" font-size="10.00">_conversion.hpp</text>
</a>
</g>
</g>
<!-- Node3&#45;&gt;Node7 -->
<g id="edge7" class="edge">
<title>Node3&#45;&gt;Node7</title>
<path fill="none" stroke="#63b8ff" d="M315.81,-120.95C334.38,-111.74 358.86,-99.6 379.04,-89.59"/>
<polygon fill="#63b8ff" stroke="#63b8ff" points="380.85,-92.59 388.26,-85.01 377.74,-86.32 380.85,-92.59"/>
</g>
<!-- Node9 -->
<g id="node9" class="node">
<title>Node9</title>
<g id="a_node9"><a xlink:href="algorithm_8hpp.html" target="_top" xlink:title=" ">
<polygon fill="white" stroke="#666666" points="649,-79.5 496,-79.5 496,-60.5 649,-60.5 649,-79.5"/>
<text text-anchor="middle" x="572.5" y="-67.5" font-family="Helvetica,sans-Serif" font-size="10.00">alps_cmn/util/algorithm.hpp</text>
</a>
</g>
</g>
<!-- Node3&#45;&gt;Node9 -->
<g id="edge9" class="edge">
<title>Node3&#45;&gt;Node9</title>
<path fill="none" stroke="#63b8ff" d="M350.04,-120.95C402.67,-109.14 476.8,-92.49 524.75,-81.72"/>
<polygon fill="#63b8ff" stroke="#63b8ff" points="525.58,-85.12 534.57,-79.52 524.05,-78.29 525.58,-85.12"/>
</g>
<!-- Node6&#45;&gt;Node4 -->
<g id="edge6" class="edge">
<title>Node6&#45;&gt;Node4</title>
<path fill="none" stroke="#63b8ff" d="M170.5,-54.84C170.5,-47.21 170.5,-37.7 170.5,-29.45"/>
<polygon fill="#63b8ff" stroke="#63b8ff" points="174,-29.27 170.5,-19.27 167,-29.27 174,-29.27"/>
</g>
<!-- Node8 -->
<g id="node8" class="node">
<title>Node8</title>
<g id="a_node8"><a xlink:href="pi_8hpp.html" target="_top" xlink:title=" ">
<polygon fill="white" stroke="#666666" points="479,-19 354,-19 354,0 479,0 479,-19"/>
<text text-anchor="middle" x="416.5" y="-7" font-family="Helvetica,sans-Serif" font-size="10.00">alps_cmn/math/pi.hpp</text>
</a>
</g>
</g>
<!-- Node7&#45;&gt;Node8 -->
<g id="edge8" class="edge">
<title>Node7&#45;&gt;Node8</title>
<path fill="none" stroke="#63b8ff" d="M416.5,-54.84C416.5,-47.21 416.5,-37.7 416.5,-29.45"/>
<polygon fill="#63b8ff" stroke="#63b8ff" points="420,-29.27 416.5,-19.27 413,-29.27 420,-29.27"/>
</g>
<!-- Node10&#45;&gt;Node2 -->
<g id="edge13" class="edge">
<title>Node10&#45;&gt;Node2</title>
<path fill="none" stroke="#63b8ff" d="M95.75,-120.8C81.24,-110.37 61.6,-96.24 46.94,-85.69"/>
<polygon fill="#63b8ff" stroke="#63b8ff" points="48.7,-82.66 38.54,-79.66 44.62,-88.34 48.7,-82.66"/>
</g>
<!-- Node10&#45;&gt;Node4 -->
<g id="edge11" class="edge">
<title>Node10&#45;&gt;Node4</title>
<path fill="none" stroke="#63b8ff" d="M107.5,-120.81C99.22,-104.09 89,-75.93 100.5,-55 108.27,-40.85 122.67,-30.56 136.39,-23.46"/>
<polygon fill="#63b8ff" stroke="#63b8ff" points="138.16,-26.49 145.69,-19.05 135.16,-20.17 138.16,-26.49"/>
</g>
<!-- Node10&#45;&gt;Node6 -->
<g id="edge12" class="edge">
<title>Node10&#45;&gt;Node6</title>
<path fill="none" stroke="#63b8ff" d="M127.71,-120.8C134.76,-112.59 143.77,-102.1 151.71,-92.87"/>
<polygon fill="#63b8ff" stroke="#63b8ff" points="154.46,-95.03 158.33,-85.16 149.16,-90.47 154.46,-95.03"/>
</g>
</g>
</svg>
