<?xml version="1.0" encoding="UTF-8" standalone="no"?>
<!DOCTYPE svg PUBLIC "-//W3C//DTD SVG 1.1//EN"
 "http://www.w3.org/Graphics/SVG/1.1/DTD/svg11.dtd">
<!-- Generated by graphviz version 2.43.0 (0)
 -->
<!-- Title: alps_mbed_lib/include/alps_mbed/communication/uart_io.hpp Pages: 1 -->
<svg width="222pt" height="170pt"
 viewBox="0.00 0.00 221.50 170.00" xmlns="http://www.w3.org/2000/svg" xmlns:xlink="http://www.w3.org/1999/xlink">
<g id="graph0" class="graph" transform="scale(1 1) rotate(0) translate(4 166)">
<title>alps_mbed_lib/include/alps_mbed/communication/uart_io.hpp</title>
<!-- Node1 -->
<g id="node1" class="node">
<title>Node1</title>
<g id="a_node1"><a xlink:title="mbedのUart通信IOライブラリ">
<polygon fill="#999999" stroke="#666666" points="160.5,-162 8.5,-162 8.5,-121 160.5,-121 160.5,-162"/>
<text text-anchor="start" x="16.5" y="-150" font-family="Helvetica,sans-Serif" font-size="10.00">alps_mbed_lib/include</text>
<text text-anchor="start" x="16.5" y="-139" font-family="Helvetica,sans-Serif" font-size="10.00">/alps_mbed/communication</text>
<text text-anchor="middle" x="84.5" y="-128" font-family="Helvetica,sans-Serif" font-size="10.00">/uart_io.hpp</text>
</a>
</g>
</g>
<!-- Node2 -->
<g id="node2" class="node">
<title>Node2</title>
<g id="a_node2"><a xlink:title=" ">
<polygon fill="#e0e0e0" stroke="#999999" points="53,-79.5 0,-79.5 0,-60.5 53,-60.5 53,-79.5"/>
<text text-anchor="middle" x="26.5" y="-67.5" font-family="Helvetica,sans-Serif" font-size="10.00">mbed.h</text>
</a>
</g>
</g>
<!-- Node1&#45;&gt;Node2 -->
<g id="edge1" class="edge">
<title>Node1&#45;&gt;Node2</title>
<path fill="none" stroke="#63b8ff" d="M68.03,-120.77C59.33,-110.34 48.76,-97.68 40.46,-87.73"/>
<polygon fill="#63b8ff" stroke="#63b8ff" points="42.95,-85.25 33.86,-79.82 37.58,-89.74 42.95,-85.25"/>
</g>
<!-- Node3 -->
<g id="node3" class="node">
<title>Node3</title>
<g id="a_node3"><a xlink:href="i__uart__io_8hpp.html" target="_top" xlink:title=" ">
<polygon fill="white" stroke="#666666" points="213.5,-85 71.5,-85 71.5,-55 213.5,-55 213.5,-85"/>
<text text-anchor="start" x="79.5" y="-73" font-family="Helvetica,sans-Serif" font-size="10.00">alps_cmn/communication</text>
<text text-anchor="middle" x="142.5" y="-62" font-family="Helvetica,sans-Serif" font-size="10.00">/i_uart_io.hpp</text>
</a>
</g>
</g>
<!-- Node1&#45;&gt;Node3 -->
<g id="edge2" class="edge">
<title>Node1&#45;&gt;Node3</title>
<path fill="none" stroke="#63b8ff" d="M100.97,-120.77C108.25,-112.04 116.84,-101.75 124.31,-92.8"/>
<polygon fill="#63b8ff" stroke="#63b8ff" points="127.06,-94.96 130.78,-85.04 121.69,-90.47 127.06,-94.96"/>
</g>
<!-- Node4 -->
<g id="node4" class="node">
<title>Node4</title>
<g id="a_node4"><a xlink:title=" ">
<polygon fill="#e0e0e0" stroke="#999999" points="198.5,-19 86.5,-19 86.5,0 198.5,0 198.5,-19"/>
<text text-anchor="middle" x="142.5" y="-7" font-family="Helvetica,sans-Serif" font-size="10.00">etl/circular_buffer.h</text>
</a>
</g>
</g>
<!-- Node3&#45;&gt;Node4 -->
<g id="edge3" class="edge">
<title>Node3&#45;&gt;Node4</title>
<path fill="none" stroke="#63b8ff" d="M142.5,-54.84C142.5,-47.21 142.5,-37.7 142.5,-29.45"/>
<polygon fill="#63b8ff" stroke="#63b8ff" points="146,-29.27 142.5,-19.27 139,-29.27 146,-29.27"/>
</g>
</g>
</svg>
