<?xml version="1.0" encoding="UTF-8" standalone="no"?>
<!DOCTYPE svg PUBLIC "-//W3C//DTD SVG 1.1//EN"
 "http://www.w3.org/Graphics/SVG/1.1/DTD/svg11.dtd">
<!-- Generated by graphviz version 2.43.0 (0)
 -->
<!-- Title: alps_mbed_lib/include/alps_mbed/sensor/incremental_encoder.hpp Pages: 1 -->
<svg width="746pt" height="236pt"
 viewBox="0.00 0.00 745.50 236.00" xmlns="http://www.w3.org/2000/svg" xmlns:xlink="http://www.w3.org/1999/xlink">
<g id="graph0" class="graph" transform="scale(1 1) rotate(0) translate(4 232)">
<title>alps_mbed_lib/include/alps_mbed/sensor/incremental_encoder.hpp</title>
<!-- Node1 -->
<g id="node1" class="node">
<title>Node1</title>
<g id="a_node1"><a xlink:title=" ">
<polygon fill="#999999" stroke="#666666" points="301,-228 131,-228 131,-187 301,-187 301,-228"/>
<text text-anchor="start" x="139" y="-216" font-family="Helvetica,sans-Serif" font-size="10.00">alps_mbed_lib/include</text>
<text text-anchor="start" x="139" y="-205" font-family="Helvetica,sans-Serif" font-size="10.00">/alps_mbed/sensor/incremental</text>
<text text-anchor="middle" x="216" y="-194" font-family="Helvetica,sans-Serif" font-size="10.00">_encoder.hpp</text>
</a>
</g>
</g>
<!-- Node2 -->
<g id="node2" class="node">
<title>Node2</title>
<g id="a_node2"><a xlink:href="alps__common__lib_2include_2alps__cmn_2sensor_2incremental__encoder_8hpp.html" target="_top" xlink:title=" ">
<polygon fill="white" stroke="#666666" points="478,-151 318,-151 318,-121 478,-121 478,-151"/>
<text text-anchor="start" x="326" y="-139" font-family="Helvetica,sans-Serif" font-size="10.00">alps_cmn/sensor/incremental</text>
<text text-anchor="middle" x="398" y="-128" font-family="Helvetica,sans-Serif" font-size="10.00">_encoder.hpp</text>
</a>
</g>
</g>
<!-- Node1&#45;&gt;Node2 -->
<g id="edge1" class="edge">
<title>Node1&#45;&gt;Node2</title>
<path fill="none" stroke="#63b8ff" d="M267.18,-186.96C293.75,-176.81 325.96,-164.51 351.77,-154.65"/>
<polygon fill="#63b8ff" stroke="#63b8ff" points="353.23,-157.84 361.33,-151 350.74,-151.3 353.23,-157.84"/>
</g>
<!-- Node9 -->
<g id="node9" class="node">
<title>Node9</title>
<g id="a_node9"><a xlink:href="digital__in_8hpp.html" target="_top" xlink:title="デジタル入力ピン">
<polygon fill="white" stroke="#666666" points="128,-151 0,-151 0,-121 128,-121 128,-151"/>
<text text-anchor="start" x="8" y="-139" font-family="Helvetica,sans-Serif" font-size="10.00">alps_mbed/gpio/digital</text>
<text text-anchor="middle" x="64" y="-128" font-family="Helvetica,sans-Serif" font-size="10.00">_in.hpp</text>
</a>
</g>
</g>
<!-- Node1&#45;&gt;Node9 -->
<g id="edge8" class="edge">
<title>Node1&#45;&gt;Node9</title>
<path fill="none" stroke="#63b8ff" d="M173.26,-186.96C151.53,-177.02 125.29,-165.03 103.98,-155.28"/>
<polygon fill="#63b8ff" stroke="#63b8ff" points="105.42,-152.09 94.87,-151.11 102.5,-158.45 105.42,-152.09"/>
</g>
<!-- Node11 -->
<g id="node11" class="node">
<title>Node11</title>
<g id="a_node11"><a xlink:href="interrupt__in_8hpp.html" target="_top" xlink:title="割り込み入力ピン">
<polygon fill="white" stroke="#666666" points="285.5,-151 146.5,-151 146.5,-121 285.5,-121 285.5,-151"/>
<text text-anchor="start" x="154.5" y="-139" font-family="Helvetica,sans-Serif" font-size="10.00">alps_mbed/gpio/interrupt</text>
<text text-anchor="middle" x="216" y="-128" font-family="Helvetica,sans-Serif" font-size="10.00">_in.hpp</text>
</a>
</g>
</g>
<!-- Node1&#45;&gt;Node11 -->
<g id="edge11" class="edge">
<title>Node1&#45;&gt;Node11</title>
<path fill="none" stroke="#63b8ff" d="M216,-186.77C216,-178.85 216,-169.63 216,-161.3"/>
<polygon fill="#63b8ff" stroke="#63b8ff" points="219.5,-161.04 216,-151.04 212.5,-161.04 219.5,-161.04"/>
</g>
<!-- Node3 -->
<g id="node3" class="node">
<title>Node3</title>
<g id="a_node3"><a xlink:title=" ">
<polygon fill="#e0e0e0" stroke="#999999" points="437,-79.5 387,-79.5 387,-60.5 437,-60.5 437,-79.5"/>
<text text-anchor="middle" x="412" y="-67.5" font-family="Helvetica,sans-Serif" font-size="10.00">chrono</text>
</a>
</g>
</g>
<!-- Node2&#45;&gt;Node3 -->
<g id="edge2" class="edge">
<title>Node2&#45;&gt;Node3</title>
<path fill="none" stroke="#63b8ff" d="M401.11,-120.8C403.1,-111.7 405.7,-99.79 407.87,-89.9"/>
<polygon fill="#63b8ff" stroke="#63b8ff" points="411.35,-90.36 410.07,-79.84 404.51,-88.87 411.35,-90.36"/>
</g>
<!-- Node4 -->
<g id="node4" class="node">
<title>Node4</title>
<g id="a_node4"><a xlink:href="i__digital__in_8hpp.html" target="_top" xlink:title=" ">
<polygon fill="white" stroke="#666666" points="210.5,-85 81.5,-85 81.5,-55 210.5,-55 210.5,-85"/>
<text text-anchor="start" x="89.5" y="-73" font-family="Helvetica,sans-Serif" font-size="10.00">alps_cmn/gpio/i_digital</text>
<text text-anchor="middle" x="146" y="-62" font-family="Helvetica,sans-Serif" font-size="10.00">_in.hpp</text>
</a>
</g>
</g>
<!-- Node2&#45;&gt;Node4 -->
<g id="edge3" class="edge">
<title>Node2&#45;&gt;Node4</title>
<path fill="none" stroke="#63b8ff" d="M342.7,-120.95C303.88,-111.1 251.83,-97.88 211.02,-87.51"/>
<polygon fill="#63b8ff" stroke="#63b8ff" points="211.73,-84.08 201.17,-85.01 210,-90.87 211.73,-84.08"/>
</g>
<!-- Node5 -->
<g id="node5" class="node">
<title>Node5</title>
<g id="a_node5"><a xlink:href="i__interrupt__in_8hpp.html" target="_top" xlink:title=" ">
<polygon fill="white" stroke="#666666" points="369,-85 229,-85 229,-55 369,-55 369,-85"/>
<text text-anchor="start" x="237" y="-73" font-family="Helvetica,sans-Serif" font-size="10.00">alps_cmn/gpio/i_interrupt</text>
<text text-anchor="middle" x="299" y="-62" font-family="Helvetica,sans-Serif" font-size="10.00">_in.hpp</text>
</a>
</g>
</g>
<!-- Node2&#45;&gt;Node5 -->
<g id="edge4" class="edge">
<title>Node2&#45;&gt;Node5</title>
<path fill="none" stroke="#63b8ff" d="M376.03,-120.8C362.31,-111.93 344.47,-100.39 329.4,-90.66"/>
<polygon fill="#63b8ff" stroke="#63b8ff" points="331.21,-87.65 320.91,-85.16 327.41,-93.53 331.21,-87.65"/>
</g>
<!-- Node7 -->
<g id="node7" class="node">
<title>Node7</title>
<g id="a_node7"><a xlink:href="pi_8hpp.html" target="_top" xlink:title=" ">
<polygon fill="white" stroke="#666666" points="580.5,-79.5 455.5,-79.5 455.5,-60.5 580.5,-60.5 580.5,-79.5"/>
<text text-anchor="middle" x="518" y="-67.5" font-family="Helvetica,sans-Serif" font-size="10.00">alps_cmn/math/pi.hpp</text>
</a>
</g>
</g>
<!-- Node2&#45;&gt;Node7 -->
<g id="edge6" class="edge">
<title>Node2&#45;&gt;Node7</title>
<path fill="none" stroke="#63b8ff" d="M424.33,-120.95C444.82,-110.03 473.06,-94.97 493.16,-84.25"/>
<polygon fill="#63b8ff" stroke="#63b8ff" points="494.85,-87.31 502.03,-79.52 491.56,-81.14 494.85,-87.31"/>
</g>
<!-- Node8 -->
<g id="node8" class="node">
<title>Node8</title>
<g id="a_node8"><a xlink:href="i__rotary__sensor_8hpp.html" target="_top" xlink:title=" ">
<polygon fill="white" stroke="#666666" points="737.5,-85 598.5,-85 598.5,-55 737.5,-55 737.5,-85"/>
<text text-anchor="start" x="606.5" y="-73" font-family="Helvetica,sans-Serif" font-size="10.00">alps_cmn/sensor/i_rotary</text>
<text text-anchor="middle" x="668" y="-62" font-family="Helvetica,sans-Serif" font-size="10.00">_sensor.hpp</text>
</a>
</g>
</g>
<!-- Node2&#45;&gt;Node8 -->
<g id="edge7" class="edge">
<title>Node2&#45;&gt;Node8</title>
<path fill="none" stroke="#63b8ff" d="M457.25,-120.95C499.02,-111.06 555.08,-97.77 598.89,-87.38"/>
<polygon fill="#63b8ff" stroke="#63b8ff" points="599.96,-90.72 608.89,-85.01 598.35,-83.91 599.96,-90.72"/>
</g>
<!-- Node6 -->
<g id="node6" class="node">
<title>Node6</title>
<g id="a_node6"><a xlink:title=" ">
<polygon fill="#e0e0e0" stroke="#999999" points="341,-19 257,-19 257,0 341,0 341,-19"/>
<text text-anchor="middle" x="299" y="-7" font-family="Helvetica,sans-Serif" font-size="10.00">etl/delegate.h</text>
</a>
</g>
</g>
<!-- Node5&#45;&gt;Node6 -->
<g id="edge5" class="edge">
<title>Node5&#45;&gt;Node6</title>
<path fill="none" stroke="#63b8ff" d="M299,-54.84C299,-47.21 299,-37.7 299,-29.45"/>
<polygon fill="#63b8ff" stroke="#63b8ff" points="302.5,-29.27 299,-19.27 295.5,-29.27 302.5,-29.27"/>
</g>
<!-- Node9&#45;&gt;Node4 -->
<g id="edge10" class="edge">
<title>Node9&#45;&gt;Node4</title>
<path fill="none" stroke="#63b8ff" d="M82.2,-120.8C93.24,-112.18 107.51,-101.04 119.76,-91.48"/>
<polygon fill="#63b8ff" stroke="#63b8ff" points="122.12,-94.08 127.85,-85.16 117.82,-88.56 122.12,-94.08"/>
</g>
<!-- Node10 -->
<g id="node10" class="node">
<title>Node10</title>
<g id="a_node10"><a xlink:title=" ">
<polygon fill="#e0e0e0" stroke="#999999" points="63.5,-79.5 10.5,-79.5 10.5,-60.5 63.5,-60.5 63.5,-79.5"/>
<text text-anchor="middle" x="37" y="-67.5" font-family="Helvetica,sans-Serif" font-size="10.00">mbed.h</text>
</a>
</g>
</g>
<!-- Node9&#45;&gt;Node10 -->
<g id="edge9" class="edge">
<title>Node9&#45;&gt;Node10</title>
<path fill="none" stroke="#63b8ff" d="M58.01,-120.8C54.09,-111.5 48.93,-99.27 44.7,-89.26"/>
<polygon fill="#63b8ff" stroke="#63b8ff" points="47.84,-87.7 40.73,-79.84 41.39,-90.42 47.84,-87.7"/>
</g>
<!-- Node11&#45;&gt;Node4 -->
<g id="edge13" class="edge">
<title>Node11&#45;&gt;Node4</title>
<path fill="none" stroke="#63b8ff" d="M200.46,-120.8C191.22,-112.34 179.32,-101.46 169,-92.03"/>
<polygon fill="#63b8ff" stroke="#63b8ff" points="171.23,-89.33 161.49,-85.16 166.51,-94.49 171.23,-89.33"/>
</g>
<!-- Node11&#45;&gt;Node5 -->
<g id="edge14" class="edge">
<title>Node11&#45;&gt;Node5</title>
<path fill="none" stroke="#63b8ff" d="M234.42,-120.8C245.6,-112.18 260.05,-101.04 272.44,-91.48"/>
<polygon fill="#63b8ff" stroke="#63b8ff" points="274.85,-94.04 280.63,-85.16 270.57,-88.5 274.85,-94.04"/>
</g>
<!-- Node11&#45;&gt;Node10 -->
<g id="edge12" class="edge">
<title>Node11&#45;&gt;Node10</title>
<path fill="none" stroke="#63b8ff" d="M174.56,-120.93C145.94,-111.12 107.05,-97.57 73,-85 71.4,-84.41 69.76,-83.8 68.11,-83.18"/>
<polygon fill="#63b8ff" stroke="#63b8ff" points="69.25,-79.86 58.66,-79.56 66.75,-86.4 69.25,-79.86"/>
</g>
</g>
</svg>
