<?xml version="1.0" encoding="UTF-8" standalone="no"?>
<!DOCTYPE svg PUBLIC "-//W3C//DTD SVG 1.1//EN"
 "http://www.w3.org/Graphics/SVG/1.1/DTD/svg11.dtd">
<!-- Generated by graphviz version 2.43.0 (0)
 -->
<!-- Title: alps_core/lib_internal/alps_mbed_lib/include/alps_mbed/sensor/incremental_encoder.hpp Pages: 1 -->
<svg width="918pt" height="302pt"
 viewBox="0.00 0.00 918.00 302.00" xmlns="http://www.w3.org/2000/svg" xmlns:xlink="http://www.w3.org/1999/xlink">
<g id="graph0" class="graph" transform="scale(1 1) rotate(0) translate(4 298)">
<title>alps_core/lib_internal/alps_mbed_lib/include/alps_mbed/sensor/incremental_encoder.hpp</title>
<!-- Node1 -->
<g id="Node000001" class="node">
<title>Node1</title>
<g id="a_Node000001"><a xlink:title=" ">
<polygon fill="#999999" stroke="#666666" points="313.5,-294 143.5,-294 143.5,-242 313.5,-242 313.5,-294"/>
<text text-anchor="start" x="151.5" y="-282" font-family="Helvetica,sans-Serif" font-size="10.00">alps_core/lib_internal</text>
<text text-anchor="start" x="151.5" y="-271" font-family="Helvetica,sans-Serif" font-size="10.00">/alps_mbed_lib/include</text>
<text text-anchor="start" x="151.5" y="-260" font-family="Helvetica,sans-Serif" font-size="10.00">/alps_mbed/sensor/incremental</text>
<text text-anchor="middle" x="228.5" y="-249" font-family="Helvetica,sans-Serif" font-size="10.00">_encoder.hpp</text>
</a>
</g>
</g>
<!-- Node2 -->
<g id="Node000002" class="node">
<title>Node2</title>
<g id="a_Node000002"><a xlink:href="alps__common__lib_2include_2alps__cmn_2sensor_2incremental__encoder_8hpp.html" target="_top" xlink:title=" ">
<polygon fill="white" stroke="#666666" points="526.5,-206 366.5,-206 366.5,-176 526.5,-176 526.5,-206"/>
<text text-anchor="start" x="374.5" y="-194" font-family="Helvetica,sans-Serif" font-size="10.00">alps_cmn/sensor/incremental</text>
<text text-anchor="middle" x="446.5" y="-183" font-family="Helvetica,sans-Serif" font-size="10.00">_encoder.hpp</text>
</a>
</g>
</g>
<!-- Node1&#45;&gt;Node2 -->
<g id="edge1_Node000001_Node000002" class="edge">
<title>Node1&#45;&gt;Node2</title>
<g id="a_edge1_Node000001_Node000002"><a xlink:title=" ">
<path fill="none" stroke="#63b8ff" d="M301.39,-241.92C332.51,-231.22 368.04,-218.99 396.16,-209.32"/>
<polygon fill="#63b8ff" stroke="#63b8ff" points="397.46,-212.57 405.78,-206.01 395.19,-205.95 397.46,-212.57"/>
</a>
</g>
</g>
<!-- Node11 -->
<g id="Node000011" class="node">
<title>Node11</title>
<g id="a_Node000011"><a xlink:href="digital__in_8hpp.html" target="_top" xlink:title="デジタル入力ピン">
<polygon fill="white" stroke="#666666" points="140.5,-206 12.5,-206 12.5,-176 140.5,-176 140.5,-206"/>
<text text-anchor="start" x="20.5" y="-194" font-family="Helvetica,sans-Serif" font-size="10.00">alps_mbed/gpio/digital</text>
<text text-anchor="middle" x="76.5" y="-183" font-family="Helvetica,sans-Serif" font-size="10.00">_in.hpp</text>
</a>
</g>
</g>
<!-- Node1&#45;&gt;Node11 -->
<g id="edge12_Node000001_Node000011" class="edge">
<title>Node1&#45;&gt;Node11</title>
<g id="a_edge12_Node000001_Node000011"><a xlink:title=" ">
<path fill="none" stroke="#63b8ff" d="M177.46,-241.82C156.71,-231.58 133.16,-219.96 114.03,-210.52"/>
<polygon fill="#63b8ff" stroke="#63b8ff" points="115.55,-207.36 105.03,-206.08 112.45,-213.64 115.55,-207.36"/>
</a>
</g>
</g>
<!-- Node13 -->
<g id="Node000013" class="node">
<title>Node13</title>
<g id="a_Node000013"><a xlink:href="interrupt__in_8hpp.html" target="_top" xlink:title="割り込み入力ピン">
<polygon fill="white" stroke="#666666" points="298,-206 159,-206 159,-176 298,-176 298,-206"/>
<text text-anchor="start" x="167" y="-194" font-family="Helvetica,sans-Serif" font-size="10.00">alps_mbed/gpio/interrupt</text>
<text text-anchor="middle" x="228.5" y="-183" font-family="Helvetica,sans-Serif" font-size="10.00">_in.hpp</text>
</a>
</g>
</g>
<!-- Node1&#45;&gt;Node13 -->
<g id="edge15_Node000001_Node000013" class="edge">
<title>Node1&#45;&gt;Node13</title>
<g id="a_edge15_Node000001_Node000013"><a xlink:title=" ">
<path fill="none" stroke="#63b8ff" d="M228.5,-241.61C228.5,-233.54 228.5,-224.64 228.5,-216.63"/>
<polygon fill="#63b8ff" stroke="#63b8ff" points="232,-216.43 228.5,-206.43 225,-216.43 232,-216.43"/>
</a>
</g>
</g>
<!-- Node3 -->
<g id="Node000003" class="node">
<title>Node3</title>
<g id="a_Node000003"><a xlink:title=" ">
<polygon fill="#e0e0e0" stroke="#999999" points="668.5,-19 618.5,-19 618.5,0 668.5,0 668.5,-19"/>
<text text-anchor="middle" x="643.5" y="-7" font-family="Helvetica,sans-Serif" font-size="10.00">chrono</text>
</a>
</g>
</g>
<!-- Node2&#45;&gt;Node3 -->
<g id="edge2_Node000002_Node000003" class="edge">
<title>Node2&#45;&gt;Node3</title>
<g id="a_edge2_Node000002_Node000003"><a xlink:title=" ">
<path fill="none" stroke="#63b8ff" d="M526.55,-187.06C601.23,-182.43 704.87,-170.53 730.5,-140 737.13,-132.1 740.08,-72.03 729.5,-55 718.22,-36.84 696.93,-25.74 678.36,-19.17"/>
<polygon fill="#63b8ff" stroke="#63b8ff" points="679.27,-15.79 668.68,-16.05 677.12,-22.45 679.27,-15.79"/>
</a>
</g>
</g>
<!-- Node4 -->
<g id="Node000004" class="node">
<title>Node4</title>
<g id="a_Node000004"><a xlink:href="differentiator_8hpp.html" target="_top" xlink:title="微分器ライブラリ">
<polygon fill="white" stroke="#666666" points="721,-134.5 534,-134.5 534,-115.5 721,-115.5 721,-134.5"/>
<text text-anchor="middle" x="627.5" y="-122.5" font-family="Helvetica,sans-Serif" font-size="10.00">alps_cmn/control/differentiator.hpp</text>
</a>
</g>
</g>
<!-- Node2&#45;&gt;Node4 -->
<g id="edge3_Node000002_Node000004" class="edge">
<title>Node2&#45;&gt;Node4</title>
<g id="a_edge3_Node000002_Node000004"><a xlink:title=" ">
<path fill="none" stroke="#63b8ff" d="M486.22,-175.95C518.38,-164.58 563.2,-148.74 593.67,-137.96"/>
<polygon fill="#63b8ff" stroke="#63b8ff" points="595.15,-141.15 603.41,-134.52 592.82,-134.55 595.15,-141.15"/>
</a>
</g>
</g>
<!-- Node6 -->
<g id="Node000006" class="node">
<title>Node6</title>
<g id="a_Node000006"><a xlink:href="i__digital__in_8hpp.html" target="_top" xlink:title=" ">
<polygon fill="white" stroke="#666666" points="200,-140 71,-140 71,-110 200,-110 200,-140"/>
<text text-anchor="start" x="79" y="-128" font-family="Helvetica,sans-Serif" font-size="10.00">alps_cmn/gpio/i_digital</text>
<text text-anchor="middle" x="135.5" y="-117" font-family="Helvetica,sans-Serif" font-size="10.00">_in.hpp</text>
</a>
</g>
</g>
<!-- Node2&#45;&gt;Node6 -->
<g id="edge7_Node000002_Node000006" class="edge">
<title>Node2&#45;&gt;Node6</title>
<g id="a_edge7_Node000002_Node000006"><a xlink:title=" ">
<path fill="none" stroke="#63b8ff" d="M378.25,-175.95C328.55,-165.73 261.26,-151.88 210.14,-141.36"/>
<polygon fill="#63b8ff" stroke="#63b8ff" points="210.64,-137.89 200.14,-139.3 209.23,-144.75 210.64,-137.89"/>
</a>
</g>
</g>
<!-- Node7 -->
<g id="Node000007" class="node">
<title>Node7</title>
<g id="a_Node000007"><a xlink:href="i__interrupt__in_8hpp.html" target="_top" xlink:title=" ">
<polygon fill="white" stroke="#666666" points="358.5,-140 218.5,-140 218.5,-110 358.5,-110 358.5,-140"/>
<text text-anchor="start" x="226.5" y="-128" font-family="Helvetica,sans-Serif" font-size="10.00">alps_cmn/gpio/i_interrupt</text>
<text text-anchor="middle" x="288.5" y="-117" font-family="Helvetica,sans-Serif" font-size="10.00">_in.hpp</text>
</a>
</g>
</g>
<!-- Node2&#45;&gt;Node7 -->
<g id="edge8_Node000002_Node000007" class="edge">
<title>Node2&#45;&gt;Node7</title>
<g id="a_edge8_Node000002_Node000007"><a xlink:title=" ">
<path fill="none" stroke="#63b8ff" d="M411.83,-175.95C388.47,-166.49 357.46,-153.93 332.39,-143.78"/>
<polygon fill="#63b8ff" stroke="#63b8ff" points="333.68,-140.52 323.09,-140.01 331.05,-147.01 333.68,-140.52"/>
</a>
</g>
</g>
<!-- Node9 -->
<g id="Node000009" class="node">
<title>Node9</title>
<g id="a_Node000009"><a xlink:href="angle_8hpp.html" target="_top" xlink:title=" ">
<polygon fill="white" stroke="#666666" points="910,-134.5 777,-134.5 777,-115.5 910,-115.5 910,-134.5"/>
<text text-anchor="middle" x="843.5" y="-122.5" font-family="Helvetica,sans-Serif" font-size="10.00">alps_cmn/util/angle.hpp</text>
</a>
</g>
</g>
<!-- Node2&#45;&gt;Node9 -->
<g id="edge10_Node000002_Node000009" class="edge">
<title>Node2&#45;&gt;Node9</title>
<g id="a_edge10_Node000002_Node000009"><a xlink:title=" ">
<path fill="none" stroke="#63b8ff" d="M526.75,-177.62C590.65,-167.69 682.36,-153.27 762.5,-140 769.66,-138.81 777.18,-137.55 784.62,-136.28"/>
<polygon fill="#63b8ff" stroke="#63b8ff" points="785.42,-139.69 794.69,-134.55 784.24,-132.79 785.42,-139.69"/>
</a>
</g>
</g>
<!-- Node10 -->
<g id="Node000010" class="node">
<title>Node10</title>
<g id="a_Node000010"><a xlink:href="i__rotary__sensor_8hpp.html" target="_top" xlink:title=" ">
<polygon fill="white" stroke="#666666" points="516,-140 377,-140 377,-110 516,-110 516,-140"/>
<text text-anchor="start" x="385" y="-128" font-family="Helvetica,sans-Serif" font-size="10.00">alps_cmn/sensor/i_rotary</text>
<text text-anchor="middle" x="446.5" y="-117" font-family="Helvetica,sans-Serif" font-size="10.00">_sensor.hpp</text>
</a>
</g>
</g>
<!-- Node2&#45;&gt;Node10 -->
<g id="edge11_Node000002_Node000010" class="edge">
<title>Node2&#45;&gt;Node10</title>
<g id="a_edge11_Node000002_Node000010"><a xlink:title=" ">
<path fill="none" stroke="#63b8ff" d="M446.5,-175.8C446.5,-168.34 446.5,-158.99 446.5,-150.41"/>
<polygon fill="#63b8ff" stroke="#63b8ff" points="450,-150.16 446.5,-140.16 443,-150.16 450,-150.16"/>
</a>
</g>
</g>
<!-- Node4&#45;&gt;Node3 -->
<g id="edge4_Node000004_Node000003" class="edge">
<title>Node4&#45;&gt;Node3</title>
<g id="a_edge4_Node000004_Node000003"><a xlink:title=" ">
<path fill="none" stroke="#63b8ff" d="M606.97,-115.47C581.46,-103.56 543.06,-80.51 558.5,-55 569.39,-37 590.23,-25.93 608.54,-19.33"/>
<polygon fill="#63b8ff" stroke="#63b8ff" points="609.69,-22.64 618.1,-16.2 607.51,-15.99 609.69,-22.64"/>
</a>
</g>
</g>
<!-- Node5 -->
<g id="Node000005" class="node">
<title>Node5</title>
<g id="a_Node000005"><a xlink:href="duration_8hpp.html" target="_top" xlink:title="時間間隔の型エイリアス">
<polygon fill="white" stroke="#666666" points="720,-74 567,-74 567,-55 720,-55 720,-74"/>
<text text-anchor="middle" x="643.5" y="-62" font-family="Helvetica,sans-Serif" font-size="10.00">alps_cmn/time/duration.hpp</text>
</a>
</g>
</g>
<!-- Node4&#45;&gt;Node5 -->
<g id="edge5_Node000004_Node000005" class="edge">
<title>Node4&#45;&gt;Node5</title>
<g id="a_edge5_Node000004_Node000005"><a xlink:title=" ">
<path fill="none" stroke="#63b8ff" d="M629.86,-115.37C632.11,-107.16 635.56,-94.54 638.43,-84.05"/>
<polygon fill="#63b8ff" stroke="#63b8ff" points="641.87,-84.74 641.13,-74.17 635.12,-82.89 641.87,-84.74"/>
</a>
</g>
</g>
<!-- Node5&#45;&gt;Node3 -->
<g id="edge6_Node000005_Node000003" class="edge">
<title>Node5&#45;&gt;Node3</title>
<g id="a_edge6_Node000005_Node000003"><a xlink:title=" ">
<path fill="none" stroke="#63b8ff" d="M643.5,-54.75C643.5,-47.8 643.5,-37.85 643.5,-29.13"/>
<polygon fill="#63b8ff" stroke="#63b8ff" points="647,-29.09 643.5,-19.09 640,-29.09 647,-29.09"/>
</a>
</g>
</g>
<!-- Node8 -->
<g id="Node000008" class="node">
<title>Node8</title>
<g id="a_Node000008"><a xlink:title=" ">
<polygon fill="#e0e0e0" stroke="#999999" points="330.5,-74 246.5,-74 246.5,-55 330.5,-55 330.5,-74"/>
<text text-anchor="middle" x="288.5" y="-62" font-family="Helvetica,sans-Serif" font-size="10.00">etl/delegate.h</text>
</a>
</g>
</g>
<!-- Node7&#45;&gt;Node8 -->
<g id="edge9_Node000007_Node000008" class="edge">
<title>Node7&#45;&gt;Node8</title>
<g id="a_edge9_Node000007_Node000008"><a xlink:title=" ">
<path fill="none" stroke="#63b8ff" d="M288.5,-109.84C288.5,-102.21 288.5,-92.7 288.5,-84.45"/>
<polygon fill="#63b8ff" stroke="#63b8ff" points="292,-84.27 288.5,-74.27 285,-84.27 292,-84.27"/>
</a>
</g>
</g>
<!-- Node11&#45;&gt;Node6 -->
<g id="edge14_Node000011_Node000006" class="edge">
<title>Node11&#45;&gt;Node6</title>
<g id="a_edge14_Node000011_Node000006"><a xlink:title=" ">
<path fill="none" stroke="#63b8ff" d="M89.59,-175.8C97.23,-167.51 107.02,-156.89 115.6,-147.59"/>
<polygon fill="#63b8ff" stroke="#63b8ff" points="118.24,-149.89 122.44,-140.16 113.09,-145.14 118.24,-149.89"/>
</a>
</g>
</g>
<!-- Node12 -->
<g id="Node000012" class="node">
<title>Node12</title>
<g id="a_Node000012"><a xlink:title=" ">
<polygon fill="#e0e0e0" stroke="#999999" points="53,-134.5 0,-134.5 0,-115.5 53,-115.5 53,-134.5"/>
<text text-anchor="middle" x="26.5" y="-122.5" font-family="Helvetica,sans-Serif" font-size="10.00">mbed.h</text>
</a>
</g>
</g>
<!-- Node11&#45;&gt;Node12 -->
<g id="edge13_Node000011_Node000012" class="edge">
<title>Node11&#45;&gt;Node12</title>
<g id="a_edge13_Node000011_Node000012"><a xlink:title=" ">
<path fill="none" stroke="#63b8ff" d="M65.4,-175.8C57.84,-166.11 47.78,-153.24 39.79,-143.01"/>
<polygon fill="#63b8ff" stroke="#63b8ff" points="42.32,-140.57 33.41,-134.84 36.81,-144.88 42.32,-140.57"/>
</a>
</g>
</g>
<!-- Node13&#45;&gt;Node6 -->
<g id="edge17_Node000013_Node000006" class="edge">
<title>Node13&#45;&gt;Node6</title>
<g id="a_edge17_Node000013_Node000006"><a xlink:title=" ">
<path fill="none" stroke="#63b8ff" d="M207.86,-175.8C195.1,-167.01 178.52,-155.61 164.46,-145.93"/>
<polygon fill="#63b8ff" stroke="#63b8ff" points="166.3,-142.95 156.08,-140.16 162.34,-148.72 166.3,-142.95"/>
</a>
</g>
</g>
<!-- Node13&#45;&gt;Node7 -->
<g id="edge18_Node000013_Node000007" class="edge">
<title>Node13&#45;&gt;Node7</title>
<g id="a_edge18_Node000013_Node000007"><a xlink:title=" ">
<path fill="none" stroke="#63b8ff" d="M241.82,-175.8C249.58,-167.51 259.54,-156.89 268.26,-147.59"/>
<polygon fill="#63b8ff" stroke="#63b8ff" points="270.94,-149.85 275.22,-140.16 265.83,-145.07 270.94,-149.85"/>
</a>
</g>
</g>
<!-- Node13&#45;&gt;Node12 -->
<g id="edge16_Node000013_Node000012" class="edge">
<title>Node13&#45;&gt;Node12</title>
<g id="a_edge16_Node000013_Node000012"><a xlink:title=" ">
<path fill="none" stroke="#63b8ff" d="M178.05,-175.92C144.98,-166.41 100.92,-153.23 62.5,-140 60.84,-139.43 59.15,-138.83 57.44,-138.21"/>
<polygon fill="#63b8ff" stroke="#63b8ff" points="58.31,-134.8 47.72,-134.57 55.86,-141.35 58.31,-134.8"/>
</a>
</g>
</g>
</g>
</svg>
