<?xml version="1.0" encoding="UTF-8" standalone="no"?>
<!DOCTYPE svg PUBLIC "-//W3C//DTD SVG 1.1//EN"
 "http://www.w3.org/Graphics/SVG/1.1/DTD/svg11.dtd">
<!-- Generated by graphviz version 2.43.0 (0)
 -->
<!-- Title: alps_common_lib/include/alps_cmn/actuator/servo_motor.hpp Pages: 1 -->
<svg width="524pt" height="173pt"
 viewBox="0.00 0.00 523.89 173.00" xmlns="http://www.w3.org/2000/svg" xmlns:xlink="http://www.w3.org/1999/xlink">
<g id="graph0" class="graph" transform="scale(1 1) rotate(0) translate(4 169)">
<title>alps_common_lib/include/alps_cmn/actuator/servo_motor.hpp</title>
<polygon fill="white" stroke="transparent" points="-4,4 -4,-169 519.89,-169 519.89,4 -4,4"/>
<!-- Node1 -->
<g id="node1" class="node">
<title>Node1</title>
<g id="a_node1"><a xlink:title=" ">
<polygon fill="#bfbfbf" stroke="black" points="73.39,-123.5 73.39,-164.5 213.39,-164.5 213.39,-123.5 73.39,-123.5"/>
<text text-anchor="start" x="81.39" y="-152.5" font-family="Helvetica,sans-Serif" font-size="10.00">alps_common_lib/include</text>
<text text-anchor="start" x="81.39" y="-141.5" font-family="Helvetica,sans-Serif" font-size="10.00">/alps_cmn/actuator/servo</text>
<text text-anchor="middle" x="143.39" y="-130.5" font-family="Helvetica,sans-Serif" font-size="10.00">_motor.hpp</text>
</a>
</g>
</g>
<!-- Node2 -->
<g id="node2" class="node">
<title>Node2</title>
<g id="a_node2"><a xlink:title=" ">
<polygon fill="white" stroke="#bfbfbf" points="40.39,-0.5 40.39,-19.5 90.39,-19.5 90.39,-0.5 40.39,-0.5"/>
<text text-anchor="middle" x="65.39" y="-7.5" font-family="Helvetica,sans-Serif" font-size="10.00">chrono</text>
</a>
</g>
</g>
<!-- Node1&#45;&gt;Node2 -->
<g id="edge1" class="edge">
<title>Node1&#45;&gt;Node2</title>
<path fill="none" stroke="midnightblue" d="M73.26,-131.49C47.48,-123.5 20.84,-109.95 5.39,-87 -2.31,-75.57 -0.77,-68.32 5.39,-56 12.12,-42.54 24.99,-32.07 37.1,-24.62"/>
<polygon fill="midnightblue" stroke="midnightblue" points="39.12,-27.5 46.09,-19.52 35.67,-21.41 39.12,-27.5"/>
</g>
<!-- Node3 -->
<g id="node3" class="node">
<title>Node3</title>
<g id="a_node3"><a xlink:title=" ">
<polygon fill="white" stroke="#bfbfbf" points="14.39,-62 14.39,-81 64.39,-81 64.39,-62 14.39,-62"/>
<text text-anchor="middle" x="39.39" y="-69" font-family="Helvetica,sans-Serif" font-size="10.00">cstdint</text>
</a>
</g>
</g>
<!-- Node1&#45;&gt;Node3 -->
<g id="edge2" class="edge">
<title>Node1&#45;&gt;Node3</title>
<path fill="none" stroke="midnightblue" d="M114.42,-123.36C97.34,-111.78 76.1,-97.39 60.58,-86.87"/>
<polygon fill="midnightblue" stroke="midnightblue" points="62.42,-83.89 52.18,-81.17 58.5,-89.68 62.42,-83.89"/>
</g>
<!-- Node4 -->
<g id="node4" class="node">
<title>Node4</title>
<g id="a_node4"><a xlink:href="i__pwm__out_8hpp.html" target="_top" xlink:title="PWM出力を行うインタフェース">
<polygon fill="white" stroke="black" points="82.39,-56.5 82.39,-86.5 204.39,-86.5 204.39,-56.5 82.39,-56.5"/>
<text text-anchor="start" x="90.39" y="-74.5" font-family="Helvetica,sans-Serif" font-size="10.00">alps_cmn/gpio/i_pwm</text>
<text text-anchor="middle" x="143.39" y="-63.5" font-family="Helvetica,sans-Serif" font-size="10.00">_out.hpp</text>
</a>
</g>
</g>
<!-- Node1&#45;&gt;Node4 -->
<g id="edge3" class="edge">
<title>Node1&#45;&gt;Node4</title>
<path fill="none" stroke="midnightblue" d="M143.39,-123.36C143.39,-115.23 143.39,-105.7 143.39,-97.11"/>
<polygon fill="midnightblue" stroke="midnightblue" points="146.89,-96.89 143.39,-86.89 139.89,-96.89 146.89,-96.89"/>
</g>
<!-- Node5 -->
<g id="node5" class="node">
<title>Node5</title>
<g id="a_node5"><a xlink:href="angle__conversion_8hpp.html" target="_top" xlink:title=" ">
<polygon fill="white" stroke="black" points="222.39,-56.5 222.39,-86.5 344.39,-86.5 344.39,-56.5 222.39,-56.5"/>
<text text-anchor="start" x="230.39" y="-74.5" font-family="Helvetica,sans-Serif" font-size="10.00">alps_cmn/math/angle</text>
<text text-anchor="middle" x="283.39" y="-63.5" font-family="Helvetica,sans-Serif" font-size="10.00">_conversion.hpp</text>
</a>
</g>
</g>
<!-- Node1&#45;&gt;Node5 -->
<g id="edge5" class="edge">
<title>Node1&#45;&gt;Node5</title>
<path fill="none" stroke="midnightblue" d="M182.39,-123.36C202.36,-113.3 226.56,-101.12 246.26,-91.2"/>
<polygon fill="midnightblue" stroke="midnightblue" points="247.89,-94.29 255.25,-86.67 244.74,-88.04 247.89,-94.29"/>
</g>
<!-- Node7 -->
<g id="node7" class="node">
<title>Node7</title>
<g id="a_node7"><a xlink:href="algorithm_8hpp.html" target="_top" xlink:title=" ">
<polygon fill="white" stroke="black" points="362.89,-62 362.89,-81 515.89,-81 515.89,-62 362.89,-62"/>
<text text-anchor="middle" x="439.39" y="-69" font-family="Helvetica,sans-Serif" font-size="10.00">alps_cmn/util/algorithm.hpp</text>
</a>
</g>
</g>
<!-- Node1&#45;&gt;Node7 -->
<g id="edge7" class="edge">
<title>Node1&#45;&gt;Node7</title>
<path fill="none" stroke="midnightblue" d="M213.54,-126.29C269.24,-113.03 345.51,-94.86 393.61,-83.4"/>
<polygon fill="midnightblue" stroke="midnightblue" points="394.52,-86.79 403.43,-81.06 392.89,-79.98 394.52,-86.79"/>
</g>
<!-- Node4&#45;&gt;Node2 -->
<g id="edge4" class="edge">
<title>Node4&#45;&gt;Node2</title>
<path fill="none" stroke="midnightblue" d="M124.9,-56.4C112.87,-47.22 97.19,-35.26 84.94,-25.92"/>
<polygon fill="midnightblue" stroke="midnightblue" points="86.81,-22.94 76.74,-19.66 82.57,-28.51 86.81,-22.94"/>
</g>
<!-- Node6 -->
<g id="node6" class="node">
<title>Node6</title>
<g id="a_node6"><a xlink:href="pi_8hpp.html" target="_top" xlink:title=" ">
<polygon fill="white" stroke="black" points="220.89,-0.5 220.89,-19.5 345.89,-19.5 345.89,-0.5 220.89,-0.5"/>
<text text-anchor="middle" x="283.39" y="-7.5" font-family="Helvetica,sans-Serif" font-size="10.00">alps_cmn/math/pi.hpp</text>
</a>
</g>
</g>
<!-- Node5&#45;&gt;Node6 -->
<g id="edge6" class="edge">
<title>Node5&#45;&gt;Node6</title>
<path fill="none" stroke="midnightblue" d="M283.39,-56.4C283.39,-48.47 283.39,-38.46 283.39,-29.86"/>
<polygon fill="midnightblue" stroke="midnightblue" points="286.89,-29.66 283.39,-19.66 279.89,-29.66 286.89,-29.66"/>
</g>
</g>
</svg>
