<?xml version="1.0" encoding="UTF-8" standalone="no"?>
<!DOCTYPE svg PUBLIC "-//W3C//DTD SVG 1.1//EN"
 "http://www.w3.org/Graphics/SVG/1.1/DTD/svg11.dtd">
<!-- Generated by graphviz version 2.43.0 (0)
 -->
<!-- Title: alps_core/lib_internal/alps_common_lib/include/alps_cmn/actuator/dc_motor.hpp Pages: 1 -->
<svg width="664pt" height="173pt"
 viewBox="0.00 0.00 664.08 173.00" xmlns="http://www.w3.org/2000/svg" xmlns:xlink="http://www.w3.org/1999/xlink">
<g id="graph0" class="graph" transform="scale(1 1) rotate(0) translate(4 169)">
<title>alps_core/lib_internal/alps_common_lib/include/alps_cmn/actuator/dc_motor.hpp</title>
<polygon fill="white" stroke="transparent" points="-4,4 -4,-169 660.08,-169 660.08,4 -4,4"/>
<!-- Node1 -->
<g id="node1" class="node">
<title>Node1</title>
<g id="a_node1"><a xlink:title=" ">
<polygon fill="#bfbfbf" stroke="black" points="120.08,-123.5 120.08,-164.5 299.08,-164.5 299.08,-123.5 120.08,-123.5"/>
<text text-anchor="start" x="128.08" y="-152.5" font-family="Helvetica,sans-Serif" font-size="10.00">alps_core/lib_internal</text>
<text text-anchor="start" x="128.08" y="-141.5" font-family="Helvetica,sans-Serif" font-size="10.00">/alps_common_lib/include</text>
<text text-anchor="middle" x="209.58" y="-130.5" font-family="Helvetica,sans-Serif" font-size="10.00">/alps_cmn/actuator/dc_motor.hpp</text>
</a>
</g>
</g>
<!-- Node2 -->
<g id="node2" class="node">
<title>Node2</title>
<g id="a_node2"><a xlink:title=" ">
<polygon fill="white" stroke="#bfbfbf" points="181.58,-0.5 181.58,-19.5 231.58,-19.5 231.58,-0.5 181.58,-0.5"/>
<text text-anchor="middle" x="206.58" y="-7.5" font-family="Helvetica,sans-Serif" font-size="10.00">chrono</text>
</a>
</g>
</g>
<!-- Node1&#45;&gt;Node2 -->
<g id="edge1" class="edge">
<title>Node1&#45;&gt;Node2</title>
<path fill="none" stroke="midnightblue" d="M119.95,-133.92C51.19,-123.31 -26.36,-101.08 9.58,-56 29.43,-31.11 120.15,-18.89 171.28,-13.89"/>
<polygon fill="midnightblue" stroke="midnightblue" points="171.62,-17.37 181.25,-12.96 170.96,-10.41 171.62,-17.37"/>
</g>
<!-- Node3 -->
<g id="node3" class="node">
<title>Node3</title>
<g id="a_node3"><a xlink:title=" ">
<polygon fill="white" stroke="#bfbfbf" points="19.08,-62 19.08,-81 66.08,-81 66.08,-62 19.08,-62"/>
<text text-anchor="middle" x="42.58" y="-69" font-family="Helvetica,sans-Serif" font-size="10.00">cmath</text>
</a>
</g>
</g>
<!-- Node1&#45;&gt;Node3 -->
<g id="edge2" class="edge">
<title>Node1&#45;&gt;Node3</title>
<path fill="none" stroke="midnightblue" d="M161.31,-123.42C135.5,-112.83 103.21,-99.42 74.58,-87 73.22,-86.41 71.82,-85.8 70.42,-85.18"/>
<polygon fill="midnightblue" stroke="midnightblue" points="71.71,-81.92 61.15,-81.04 68.85,-88.31 71.71,-81.92"/>
</g>
<!-- Node4 -->
<g id="node4" class="node">
<title>Node4</title>
<g id="a_node4"><a xlink:href="i__motor_8hpp.html" target="_top" xlink:title=" ">
<polygon fill="white" stroke="black" points="84.08,-56.5 84.08,-86.5 197.08,-86.5 197.08,-56.5 84.08,-56.5"/>
<text text-anchor="start" x="92.08" y="-74.5" font-family="Helvetica,sans-Serif" font-size="10.00">alps_cmn/actuator/i</text>
<text text-anchor="middle" x="140.58" y="-63.5" font-family="Helvetica,sans-Serif" font-size="10.00">_motor.hpp</text>
</a>
</g>
</g>
<!-- Node1&#45;&gt;Node4 -->
<g id="edge3" class="edge">
<title>Node1&#45;&gt;Node4</title>
<path fill="none" stroke="midnightblue" d="M190.36,-123.36C181.51,-114.32 170.99,-103.57 161.9,-94.28"/>
<polygon fill="midnightblue" stroke="midnightblue" points="164.16,-91.59 154.67,-86.89 159.16,-96.49 164.16,-91.59"/>
</g>
<!-- Node5 -->
<g id="node5" class="node">
<title>Node5</title>
<g id="a_node5"><a xlink:href="i__digital__out_8hpp.html" target="_top" xlink:title=" ">
<polygon fill="white" stroke="black" points="215.08,-56.5 215.08,-86.5 344.08,-86.5 344.08,-56.5 215.08,-56.5"/>
<text text-anchor="start" x="223.08" y="-74.5" font-family="Helvetica,sans-Serif" font-size="10.00">alps_cmn/gpio/i_digital</text>
<text text-anchor="middle" x="279.58" y="-63.5" font-family="Helvetica,sans-Serif" font-size="10.00">_out.hpp</text>
</a>
</g>
</g>
<!-- Node1&#45;&gt;Node5 -->
<g id="edge4" class="edge">
<title>Node1&#45;&gt;Node5</title>
<path fill="none" stroke="midnightblue" d="M229.08,-123.36C238.15,-114.23 248.95,-103.35 258.23,-94"/>
<polygon fill="midnightblue" stroke="midnightblue" points="260.73,-96.45 265.29,-86.89 255.76,-91.52 260.73,-96.45"/>
</g>
<!-- Node6 -->
<g id="node6" class="node">
<title>Node6</title>
<g id="a_node6"><a xlink:href="i__pwm__out_8hpp.html" target="_top" xlink:title="PWM出力を行うインタフェース">
<polygon fill="white" stroke="black" points="362.58,-56.5 362.58,-86.5 484.58,-86.5 484.58,-56.5 362.58,-56.5"/>
<text text-anchor="start" x="370.58" y="-74.5" font-family="Helvetica,sans-Serif" font-size="10.00">alps_cmn/gpio/i_pwm</text>
<text text-anchor="middle" x="423.58" y="-63.5" font-family="Helvetica,sans-Serif" font-size="10.00">_out.hpp</text>
</a>
</g>
</g>
<!-- Node1&#45;&gt;Node6 -->
<g id="edge5" class="edge">
<title>Node1&#45;&gt;Node6</title>
<path fill="none" stroke="midnightblue" d="M268.91,-123.46C300.94,-112.9 340.14,-99.99 371.06,-89.8"/>
<polygon fill="midnightblue" stroke="midnightblue" points="372.39,-93.05 380.79,-86.6 370.2,-86.4 372.39,-93.05"/>
</g>
<!-- Node7 -->
<g id="node7" class="node">
<title>Node7</title>
<g id="a_node7"><a xlink:href="algorithm_8hpp.html" target="_top" xlink:title=" ">
<polygon fill="white" stroke="black" points="503.08,-62 503.08,-81 656.08,-81 656.08,-62 503.08,-62"/>
<text text-anchor="middle" x="579.58" y="-69" font-family="Helvetica,sans-Serif" font-size="10.00">alps_cmn/util/algorithm.hpp</text>
</a>
</g>
</g>
<!-- Node1&#45;&gt;Node7 -->
<g id="edge7" class="edge">
<title>Node1&#45;&gt;Node7</title>
<path fill="none" stroke="midnightblue" d="M299.15,-125.93C369.51,-112.53 465.22,-94.29 524.66,-82.96"/>
<polygon fill="midnightblue" stroke="midnightblue" points="525.44,-86.38 534.61,-81.07 524.13,-79.5 525.44,-86.38"/>
</g>
<!-- Node6&#45;&gt;Node2 -->
<g id="edge6" class="edge">
<title>Node6&#45;&gt;Node2</title>
<path fill="none" stroke="midnightblue" d="M372.43,-56.47C332.17,-45.44 277.13,-30.34 241.72,-20.63"/>
<polygon fill="midnightblue" stroke="midnightblue" points="242.4,-17.19 231.83,-17.92 240.55,-23.94 242.4,-17.19"/>
</g>
</g>
</svg>
