<?xml version="1.0" encoding="UTF-8" standalone="no"?>
<!DOCTYPE svg PUBLIC "-//W3C//DTD SVG 1.1//EN"
 "http://www.w3.org/Graphics/SVG/1.1/DTD/svg11.dtd">
<!-- Generated by graphviz version 2.43.0 (0)
 -->
<!-- Title: alps_mbed_lib/include/alps_mbed/sensor/incremental_encoder.hpp Pages: 1 -->
<svg width="920pt" height="291pt"
 viewBox="0.00 0.00 920.00 291.00" xmlns="http://www.w3.org/2000/svg" xmlns:xlink="http://www.w3.org/1999/xlink">
<g id="graph0" class="graph" transform="scale(1 1) rotate(0) translate(4 287)">
<title>alps_mbed_lib/include/alps_mbed/sensor/incremental_encoder.hpp</title>
<!-- Node1 -->
<g id="node1" class="node">
<title>Node1</title>
<g id="a_node1"><a xlink:title=" ">
<polygon fill="#999999" stroke="#666666" points="313.5,-283 143.5,-283 143.5,-242 313.5,-242 313.5,-283"/>
<text text-anchor="start" x="151.5" y="-271" font-family="Helvetica,sans-Serif" font-size="10.00">alps_mbed_lib/include</text>
<text text-anchor="start" x="151.5" y="-260" font-family="Helvetica,sans-Serif" font-size="10.00">/alps_mbed/sensor/incremental</text>
<text text-anchor="middle" x="228.5" y="-249" font-family="Helvetica,sans-Serif" font-size="10.00">_encoder.hpp</text>
</a>
</g>
</g>
<!-- Node2 -->
<g id="node2" class="node">
<title>Node2</title>
<g id="a_node2"><a xlink:href="alps__common__lib_2include_2alps__cmn_2sensor_2incremental__encoder_8hpp.html" target="_top" xlink:title=" ">
<polygon fill="white" stroke="#666666" points="526.5,-206 366.5,-206 366.5,-176 526.5,-176 526.5,-206"/>
<text text-anchor="start" x="374.5" y="-194" font-family="Helvetica,sans-Serif" font-size="10.00">alps_cmn/sensor/incremental</text>
<text text-anchor="middle" x="446.5" y="-183" font-family="Helvetica,sans-Serif" font-size="10.00">_encoder.hpp</text>
</a>
</g>
</g>
<!-- Node1&#45;&gt;Node2 -->
<g id="edge1" class="edge">
<title>Node1&#45;&gt;Node2</title>
<path fill="none" stroke="#63b8ff" d="M289.81,-241.96C322.19,-231.63 361.58,-219.07 392.76,-209.13"/>
<polygon fill="#63b8ff" stroke="#63b8ff" points="394.11,-212.38 402.57,-206 391.98,-205.71 394.11,-212.38"/>
</g>
<!-- Node11 -->
<g id="node11" class="node">
<title>Node11</title>
<g id="a_node11"><a xlink:href="digital__in_8hpp.html" target="_top" xlink:title="デジタル入力ピン">
<polygon fill="white" stroke="#666666" points="140.5,-206 12.5,-206 12.5,-176 140.5,-176 140.5,-206"/>
<text text-anchor="start" x="20.5" y="-194" font-family="Helvetica,sans-Serif" font-size="10.00">alps_mbed/gpio/digital</text>
<text text-anchor="middle" x="76.5" y="-183" font-family="Helvetica,sans-Serif" font-size="10.00">_in.hpp</text>
</a>
</g>
</g>
<!-- Node1&#45;&gt;Node11 -->
<g id="edge12" class="edge">
<title>Node1&#45;&gt;Node11</title>
<path fill="none" stroke="#63b8ff" d="M185.76,-241.96C164.03,-232.02 137.79,-220.03 116.48,-210.28"/>
<polygon fill="#63b8ff" stroke="#63b8ff" points="117.92,-207.09 107.37,-206.11 115,-213.45 117.92,-207.09"/>
</g>
<!-- Node13 -->
<g id="node13" class="node">
<title>Node13</title>
<g id="a_node13"><a xlink:href="interrupt__in_8hpp.html" target="_top" xlink:title="割り込み入力ピン">
<polygon fill="white" stroke="#666666" points="298,-206 159,-206 159,-176 298,-176 298,-206"/>
<text text-anchor="start" x="167" y="-194" font-family="Helvetica,sans-Serif" font-size="10.00">alps_mbed/gpio/interrupt</text>
<text text-anchor="middle" x="228.5" y="-183" font-family="Helvetica,sans-Serif" font-size="10.00">_in.hpp</text>
</a>
</g>
</g>
<!-- Node1&#45;&gt;Node13 -->
<g id="edge15" class="edge">
<title>Node1&#45;&gt;Node13</title>
<path fill="none" stroke="#63b8ff" d="M228.5,-241.77C228.5,-233.85 228.5,-224.63 228.5,-216.3"/>
<polygon fill="#63b8ff" stroke="#63b8ff" points="232,-216.04 228.5,-206.04 225,-216.04 232,-216.04"/>
</g>
<!-- Node3 -->
<g id="node3" class="node">
<title>Node3</title>
<g id="a_node3"><a xlink:title=" ">
<polygon fill="#e0e0e0" stroke="#999999" points="670.5,-19 620.5,-19 620.5,0 670.5,0 670.5,-19"/>
<text text-anchor="middle" x="645.5" y="-7" font-family="Helvetica,sans-Serif" font-size="10.00">chrono</text>
</a>
</g>
</g>
<!-- Node2&#45;&gt;Node3 -->
<g id="edge2" class="edge">
<title>Node2&#45;&gt;Node3</title>
<path fill="none" stroke="#63b8ff" d="M526.83,-187.1C601.77,-182.5 705.78,-170.63 731.5,-140 755.8,-111.07 751.14,-87.27 731.5,-55 720.39,-36.74 699.1,-25.64 680.48,-19.09"/>
<polygon fill="#63b8ff" stroke="#63b8ff" points="681.37,-15.7 670.78,-15.99 679.24,-22.37 681.37,-15.7"/>
</g>
<!-- Node4 -->
<g id="node4" class="node">
<title>Node4</title>
<g id="a_node4"><a xlink:href="differentiator_8hpp.html" target="_top" xlink:title="微分器ライブラリ">
<polygon fill="white" stroke="#666666" points="722.5,-134.5 534.5,-134.5 534.5,-115.5 722.5,-115.5 722.5,-134.5"/>
<text text-anchor="middle" x="628.5" y="-122.5" font-family="Helvetica,sans-Serif" font-size="10.00">alps_cmn/control/differentiator.hpp</text>
</a>
</g>
</g>
<!-- Node2&#45;&gt;Node4 -->
<g id="edge3" class="edge">
<title>Node2&#45;&gt;Node4</title>
<path fill="none" stroke="#63b8ff" d="M486.44,-175.95C518.78,-164.58 563.84,-148.74 594.48,-137.96"/>
<polygon fill="#63b8ff" stroke="#63b8ff" points="596.01,-141.14 604.28,-134.52 593.68,-134.53 596.01,-141.14"/>
</g>
<!-- Node6 -->
<g id="node6" class="node">
<title>Node6</title>
<g id="a_node6"><a xlink:href="i__digital__in_8hpp.html" target="_top" xlink:title=" ">
<polygon fill="white" stroke="#666666" points="200,-140 71,-140 71,-110 200,-110 200,-140"/>
<text text-anchor="start" x="79" y="-128" font-family="Helvetica,sans-Serif" font-size="10.00">alps_cmn/gpio/i_digital</text>
<text text-anchor="middle" x="135.5" y="-117" font-family="Helvetica,sans-Serif" font-size="10.00">_in.hpp</text>
</a>
</g>
</g>
<!-- Node2&#45;&gt;Node6 -->
<g id="edge7" class="edge">
<title>Node2&#45;&gt;Node6</title>
<path fill="none" stroke="#63b8ff" d="M378.25,-175.95C328.55,-165.73 261.26,-151.88 210.14,-141.36"/>
<polygon fill="#63b8ff" stroke="#63b8ff" points="210.64,-137.89 200.14,-139.3 209.23,-144.75 210.64,-137.89"/>
</g>
<!-- Node7 -->
<g id="node7" class="node">
<title>Node7</title>
<g id="a_node7"><a xlink:href="i__interrupt__in_8hpp.html" target="_top" xlink:title=" ">
<polygon fill="white" stroke="#666666" points="358.5,-140 218.5,-140 218.5,-110 358.5,-110 358.5,-140"/>
<text text-anchor="start" x="226.5" y="-128" font-family="Helvetica,sans-Serif" font-size="10.00">alps_cmn/gpio/i_interrupt</text>
<text text-anchor="middle" x="288.5" y="-117" font-family="Helvetica,sans-Serif" font-size="10.00">_in.hpp</text>
</a>
</g>
</g>
<!-- Node2&#45;&gt;Node7 -->
<g id="edge8" class="edge">
<title>Node2&#45;&gt;Node7</title>
<path fill="none" stroke="#63b8ff" d="M411.83,-175.95C388.47,-166.49 357.46,-153.93 332.39,-143.78"/>
<polygon fill="#63b8ff" stroke="#63b8ff" points="333.68,-140.52 323.09,-140.01 331.05,-147.01 333.68,-140.52"/>
</g>
<!-- Node9 -->
<g id="node9" class="node">
<title>Node9</title>
<g id="a_node9"><a xlink:href="angle_8hpp.html" target="_top" xlink:title=" ">
<polygon fill="white" stroke="#666666" points="912,-134.5 779,-134.5 779,-115.5 912,-115.5 912,-134.5"/>
<text text-anchor="middle" x="845.5" y="-122.5" font-family="Helvetica,sans-Serif" font-size="10.00">alps_cmn/util/angle.hpp</text>
</a>
</g>
</g>
<!-- Node2&#45;&gt;Node9 -->
<g id="edge10" class="edge">
<title>Node2&#45;&gt;Node9</title>
<path fill="none" stroke="#63b8ff" d="M526.6,-177.75C590.94,-167.83 683.58,-153.35 764.5,-140 771.66,-138.82 779.18,-137.55 786.62,-136.28"/>
<polygon fill="#63b8ff" stroke="#63b8ff" points="787.43,-139.7 796.69,-134.56 786.24,-132.8 787.43,-139.7"/>
</g>
<!-- Node10 -->
<g id="node10" class="node">
<title>Node10</title>
<g id="a_node10"><a xlink:href="i__rotary__sensor_8hpp.html" target="_top" xlink:title=" ">
<polygon fill="white" stroke="#666666" points="516,-140 377,-140 377,-110 516,-110 516,-140"/>
<text text-anchor="start" x="385" y="-128" font-family="Helvetica,sans-Serif" font-size="10.00">alps_cmn/sensor/i_rotary</text>
<text text-anchor="middle" x="446.5" y="-117" font-family="Helvetica,sans-Serif" font-size="10.00">_sensor.hpp</text>
</a>
</g>
</g>
<!-- Node2&#45;&gt;Node10 -->
<g id="edge11" class="edge">
<title>Node2&#45;&gt;Node10</title>
<path fill="none" stroke="#63b8ff" d="M446.5,-175.8C446.5,-168.34 446.5,-158.99 446.5,-150.41"/>
<polygon fill="#63b8ff" stroke="#63b8ff" points="450,-150.16 446.5,-140.16 443,-150.16 450,-150.16"/>
</g>
<!-- Node4&#45;&gt;Node3 -->
<g id="edge4" class="edge">
<title>Node4&#45;&gt;Node3</title>
<path fill="none" stroke="#63b8ff" d="M608.24,-115.42C583.06,-103.44 545.17,-80.32 560.5,-55 571.39,-37 592.23,-25.93 610.54,-19.33"/>
<polygon fill="#63b8ff" stroke="#63b8ff" points="611.69,-22.64 620.1,-16.2 609.51,-15.99 611.69,-22.64"/>
</g>
<!-- Node5 -->
<g id="node5" class="node">
<title>Node5</title>
<g id="a_node5"><a xlink:href="duration_8hpp.html" target="_top" xlink:title="時間間隔の型エイリアス">
<polygon fill="white" stroke="#666666" points="722,-74 569,-74 569,-55 722,-55 722,-74"/>
<text text-anchor="middle" x="645.5" y="-62" font-family="Helvetica,sans-Serif" font-size="10.00">alps_cmn/time/duration.hpp</text>
</a>
</g>
</g>
<!-- Node4&#45;&gt;Node5 -->
<g id="edge5" class="edge">
<title>Node4&#45;&gt;Node5</title>
<path fill="none" stroke="#63b8ff" d="M631.01,-115.37C633.39,-107.16 637.06,-94.54 640.11,-84.05"/>
<polygon fill="#63b8ff" stroke="#63b8ff" points="643.55,-84.75 642.98,-74.17 636.83,-82.79 643.55,-84.75"/>
</g>
<!-- Node5&#45;&gt;Node3 -->
<g id="edge6" class="edge">
<title>Node5&#45;&gt;Node3</title>
<path fill="none" stroke="#63b8ff" d="M645.5,-54.75C645.5,-47.8 645.5,-37.85 645.5,-29.13"/>
<polygon fill="#63b8ff" stroke="#63b8ff" points="649,-29.09 645.5,-19.09 642,-29.09 649,-29.09"/>
</g>
<!-- Node8 -->
<g id="node8" class="node">
<title>Node8</title>
<g id="a_node8"><a xlink:title=" ">
<polygon fill="#e0e0e0" stroke="#999999" points="330.5,-74 246.5,-74 246.5,-55 330.5,-55 330.5,-74"/>
<text text-anchor="middle" x="288.5" y="-62" font-family="Helvetica,sans-Serif" font-size="10.00">etl/delegate.h</text>
</a>
</g>
</g>
<!-- Node7&#45;&gt;Node8 -->
<g id="edge9" class="edge">
<title>Node7&#45;&gt;Node8</title>
<path fill="none" stroke="#63b8ff" d="M288.5,-109.84C288.5,-102.21 288.5,-92.7 288.5,-84.45"/>
<polygon fill="#63b8ff" stroke="#63b8ff" points="292,-84.27 288.5,-74.27 285,-84.27 292,-84.27"/>
</g>
<!-- Node11&#45;&gt;Node6 -->
<g id="edge14" class="edge">
<title>Node11&#45;&gt;Node6</title>
<path fill="none" stroke="#63b8ff" d="M89.59,-175.8C97.23,-167.51 107.02,-156.89 115.6,-147.59"/>
<polygon fill="#63b8ff" stroke="#63b8ff" points="118.24,-149.89 122.44,-140.16 113.09,-145.14 118.24,-149.89"/>
</g>
<!-- Node12 -->
<g id="node12" class="node">
<title>Node12</title>
<g id="a_node12"><a xlink:title=" ">
<polygon fill="#e0e0e0" stroke="#999999" points="53,-134.5 0,-134.5 0,-115.5 53,-115.5 53,-134.5"/>
<text text-anchor="middle" x="26.5" y="-122.5" font-family="Helvetica,sans-Serif" font-size="10.00">mbed.h</text>
</a>
</g>
</g>
<!-- Node11&#45;&gt;Node12 -->
<g id="edge13" class="edge">
<title>Node11&#45;&gt;Node12</title>
<path fill="none" stroke="#63b8ff" d="M65.4,-175.8C57.84,-166.11 47.78,-153.24 39.79,-143.01"/>
<polygon fill="#63b8ff" stroke="#63b8ff" points="42.32,-140.57 33.41,-134.84 36.81,-144.88 42.32,-140.57"/>
</g>
<!-- Node13&#45;&gt;Node6 -->
<g id="edge17" class="edge">
<title>Node13&#45;&gt;Node6</title>
<path fill="none" stroke="#63b8ff" d="M207.86,-175.8C195.1,-167.01 178.52,-155.61 164.46,-145.93"/>
<polygon fill="#63b8ff" stroke="#63b8ff" points="166.3,-142.95 156.08,-140.16 162.34,-148.72 166.3,-142.95"/>
</g>
<!-- Node13&#45;&gt;Node7 -->
<g id="edge18" class="edge">
<title>Node13&#45;&gt;Node7</title>
<path fill="none" stroke="#63b8ff" d="M241.82,-175.8C249.58,-167.51 259.54,-156.89 268.26,-147.59"/>
<polygon fill="#63b8ff" stroke="#63b8ff" points="270.94,-149.85 275.22,-140.16 265.83,-145.07 270.94,-149.85"/>
</g>
<!-- Node13&#45;&gt;Node12 -->
<g id="edge16" class="edge">
<title>Node13&#45;&gt;Node12</title>
<path fill="none" stroke="#63b8ff" d="M178.05,-175.92C144.98,-166.41 100.92,-153.23 62.5,-140 60.84,-139.43 59.15,-138.83 57.44,-138.21"/>
<polygon fill="#63b8ff" stroke="#63b8ff" points="58.31,-134.8 47.72,-134.57 55.86,-141.35 58.31,-134.8"/>
</g>
</g>
</svg>
