<?xml version="1.0" encoding="UTF-8" standalone="no"?>
<!DOCTYPE svg PUBLIC "-//W3C//DTD SVG 1.1//EN"
 "http://www.w3.org/Graphics/SVG/1.1/DTD/svg11.dtd">
<!-- Generated by graphviz version 2.43.0 (0)
 -->
<!-- Title: alps_common_lib/include/alps_cmn/actuator/dc_motor.hpp Pages: 1 -->
<svg width="664pt" height="173pt"
 viewBox="0.00 0.00 664.17 173.00" xmlns="http://www.w3.org/2000/svg" xmlns:xlink="http://www.w3.org/1999/xlink">
<g id="graph0" class="graph" transform="scale(1 1) rotate(0) translate(4 169)">
<title>alps_common_lib/include/alps_cmn/actuator/dc_motor.hpp</title>
<polygon fill="white" stroke="transparent" points="-4,4 -4,-169 660.17,-169 660.17,4 -4,4"/>
<!-- Node1 -->
<g id="node1" class="node">
<title>Node1</title>
<g id="a_node1"><a xlink:title=" ">
<polygon fill="#bfbfbf" stroke="black" points="139.67,-123.5 139.67,-164.5 279.67,-164.5 279.67,-123.5 139.67,-123.5"/>
<text text-anchor="start" x="147.67" y="-152.5" font-family="Helvetica,sans-Serif" font-size="10.00">alps_common_lib/include</text>
<text text-anchor="start" x="147.67" y="-141.5" font-family="Helvetica,sans-Serif" font-size="10.00">/alps_cmn/actuator/dc</text>
<text text-anchor="middle" x="209.67" y="-130.5" font-family="Helvetica,sans-Serif" font-size="10.00">_motor.hpp</text>
</a>
</g>
</g>
<!-- Node2 -->
<g id="node2" class="node">
<title>Node2</title>
<g id="a_node2"><a xlink:title=" ">
<polygon fill="white" stroke="#bfbfbf" points="181.67,-0.5 181.67,-19.5 231.67,-19.5 231.67,-0.5 181.67,-0.5"/>
<text text-anchor="middle" x="206.67" y="-7.5" font-family="Helvetica,sans-Serif" font-size="10.00">chrono</text>
</a>
</g>
</g>
<!-- Node1&#45;&gt;Node2 -->
<g id="edge1" class="edge">
<title>Node1&#45;&gt;Node2</title>
<path fill="none" stroke="midnightblue" d="M139.67,-136.69C67.37,-127.4 -29.75,-105.44 9.67,-56 29.52,-31.11 120.25,-18.89 171.37,-13.89"/>
<polygon fill="midnightblue" stroke="midnightblue" points="171.71,-17.37 181.34,-12.96 171.06,-10.41 171.71,-17.37"/>
</g>
<!-- Node3 -->
<g id="node3" class="node">
<title>Node3</title>
<g id="a_node3"><a xlink:title=" ">
<polygon fill="white" stroke="#bfbfbf" points="19.17,-62 19.17,-81 66.17,-81 66.17,-62 19.17,-62"/>
<text text-anchor="middle" x="42.67" y="-69" font-family="Helvetica,sans-Serif" font-size="10.00">cmath</text>
</a>
</g>
</g>
<!-- Node1&#45;&gt;Node3 -->
<g id="edge2" class="edge">
<title>Node1&#45;&gt;Node3</title>
<path fill="none" stroke="midnightblue" d="M161.4,-123.42C135.59,-112.83 103.31,-99.42 74.67,-87 73.31,-86.41 71.92,-85.8 70.51,-85.18"/>
<polygon fill="midnightblue" stroke="midnightblue" points="71.8,-81.92 61.24,-81.04 68.94,-88.31 71.8,-81.92"/>
</g>
<!-- Node4 -->
<g id="node4" class="node">
<title>Node4</title>
<g id="a_node4"><a xlink:href="i__motor_8hpp.html" target="_top" xlink:title=" ">
<polygon fill="white" stroke="black" points="84.17,-56.5 84.17,-86.5 197.17,-86.5 197.17,-56.5 84.17,-56.5"/>
<text text-anchor="start" x="92.17" y="-74.5" font-family="Helvetica,sans-Serif" font-size="10.00">alps_cmn/actuator/i</text>
<text text-anchor="middle" x="140.67" y="-63.5" font-family="Helvetica,sans-Serif" font-size="10.00">_motor.hpp</text>
</a>
</g>
</g>
<!-- Node1&#45;&gt;Node4 -->
<g id="edge3" class="edge">
<title>Node1&#45;&gt;Node4</title>
<path fill="none" stroke="midnightblue" d="M190.45,-123.36C181.61,-114.32 171.08,-103.57 161.99,-94.28"/>
<polygon fill="midnightblue" stroke="midnightblue" points="164.26,-91.59 154.76,-86.89 159.25,-96.49 164.26,-91.59"/>
</g>
<!-- Node5 -->
<g id="node5" class="node">
<title>Node5</title>
<g id="a_node5"><a xlink:href="i__digital__out_8hpp.html" target="_top" xlink:title=" ">
<polygon fill="white" stroke="black" points="215.17,-56.5 215.17,-86.5 344.17,-86.5 344.17,-56.5 215.17,-56.5"/>
<text text-anchor="start" x="223.17" y="-74.5" font-family="Helvetica,sans-Serif" font-size="10.00">alps_cmn/gpio/i_digital</text>
<text text-anchor="middle" x="279.67" y="-63.5" font-family="Helvetica,sans-Serif" font-size="10.00">_out.hpp</text>
</a>
</g>
</g>
<!-- Node1&#45;&gt;Node5 -->
<g id="edge4" class="edge">
<title>Node1&#45;&gt;Node5</title>
<path fill="none" stroke="midnightblue" d="M229.17,-123.36C238.24,-114.23 249.04,-103.35 258.33,-94"/>
<polygon fill="midnightblue" stroke="midnightblue" points="260.82,-96.45 265.38,-86.89 255.85,-91.52 260.82,-96.45"/>
</g>
<!-- Node6 -->
<g id="node6" class="node">
<title>Node6</title>
<g id="a_node6"><a xlink:href="i__pwm__out_8hpp.html" target="_top" xlink:title="PWM出力を行うインタフェース">
<polygon fill="white" stroke="black" points="362.67,-56.5 362.67,-86.5 484.67,-86.5 484.67,-56.5 362.67,-56.5"/>
<text text-anchor="start" x="370.67" y="-74.5" font-family="Helvetica,sans-Serif" font-size="10.00">alps_cmn/gpio/i_pwm</text>
<text text-anchor="middle" x="423.67" y="-63.5" font-family="Helvetica,sans-Serif" font-size="10.00">_out.hpp</text>
</a>
</g>
</g>
<!-- Node1&#45;&gt;Node6 -->
<g id="edge5" class="edge">
<title>Node1&#45;&gt;Node6</title>
<path fill="none" stroke="midnightblue" d="M269,-123.46C301.03,-112.9 340.23,-99.99 371.15,-89.8"/>
<polygon fill="midnightblue" stroke="midnightblue" points="372.48,-93.05 380.88,-86.6 370.29,-86.4 372.48,-93.05"/>
</g>
<!-- Node7 -->
<g id="node7" class="node">
<title>Node7</title>
<g id="a_node7"><a xlink:href="algorithm_8hpp.html" target="_top" xlink:title=" ">
<polygon fill="white" stroke="black" points="503.17,-62 503.17,-81 656.17,-81 656.17,-62 503.17,-62"/>
<text text-anchor="middle" x="579.67" y="-69" font-family="Helvetica,sans-Serif" font-size="10.00">alps_cmn/util/algorithm.hpp</text>
</a>
</g>
</g>
<!-- Node1&#45;&gt;Node7 -->
<g id="edge7" class="edge">
<title>Node1&#45;&gt;Node7</title>
<path fill="none" stroke="midnightblue" d="M279.7,-129.66C350.9,-116.09 459.73,-95.35 524.87,-82.94"/>
<polygon fill="midnightblue" stroke="midnightblue" points="525.77,-86.33 534.94,-81.02 524.46,-79.46 525.77,-86.33"/>
</g>
<!-- Node6&#45;&gt;Node2 -->
<g id="edge6" class="edge">
<title>Node6&#45;&gt;Node2</title>
<path fill="none" stroke="midnightblue" d="M372.52,-56.47C332.26,-45.44 277.23,-30.34 241.81,-20.63"/>
<polygon fill="midnightblue" stroke="midnightblue" points="242.5,-17.19 231.93,-17.92 240.64,-23.94 242.5,-17.19"/>
</g>
</g>
</svg>
