<?xml version="1.0" encoding="UTF-8" standalone="no"?>
<!DOCTYPE svg PUBLIC "-//W3C//DTD SVG 1.1//EN"
 "http://www.w3.org/Graphics/SVG/1.1/DTD/svg11.dtd">
<!-- Generated by graphviz version 2.43.0 (0)
 -->
<!-- Title: alps_mbed_lib/include/alps_mbed/actuator/servo_motor.hpp Pages: 1 -->
<svg width="669pt" height="236pt"
 viewBox="0.00 0.00 668.50 236.00" xmlns="http://www.w3.org/2000/svg" xmlns:xlink="http://www.w3.org/1999/xlink">
<g id="graph0" class="graph" transform="scale(1 1) rotate(0) translate(4 232)">
<title>alps_mbed_lib/include/alps_mbed/actuator/servo_motor.hpp</title>
<!-- Node1 -->
<g id="node1" class="node">
<title>Node1</title>
<g id="a_node1"><a xlink:title=" ">
<polygon fill="#999999" stroke="#666666" points="618,-228 472,-228 472,-187 618,-187 618,-228"/>
<text text-anchor="start" x="480" y="-216" font-family="Helvetica,sans-Serif" font-size="10.00">alps_mbed_lib/include</text>
<text text-anchor="start" x="480" y="-205" font-family="Helvetica,sans-Serif" font-size="10.00">/alps_mbed/actuator/servo</text>
<text text-anchor="middle" x="545" y="-194" font-family="Helvetica,sans-Serif" font-size="10.00">_motor.hpp</text>
</a>
</g>
</g>
<!-- Node2 -->
<g id="node2" class="node">
<title>Node2</title>
<g id="a_node2"><a xlink:title=" ">
<polygon fill="#e0e0e0" stroke="#999999" points="660.5,-79.5 607.5,-79.5 607.5,-60.5 660.5,-60.5 660.5,-79.5"/>
<text text-anchor="middle" x="634" y="-67.5" font-family="Helvetica,sans-Serif" font-size="10.00">mbed.h</text>
</a>
</g>
</g>
<!-- Node1&#45;&gt;Node2 -->
<g id="edge1" class="edge">
<title>Node1&#45;&gt;Node2</title>
<path fill="none" stroke="#63b8ff" d="M578.4,-186.98C591.63,-177.66 605.84,-165.39 615,-151 626.83,-132.41 631.3,-107.15 632.99,-90.02"/>
<polygon fill="#63b8ff" stroke="#63b8ff" points="636.51,-89.88 633.77,-79.65 629.53,-89.36 636.51,-89.88"/>
</g>
<!-- Node3 -->
<g id="node3" class="node">
<title>Node3</title>
<g id="a_node3"><a xlink:href="alps__common__lib_2include_2alps__cmn_2actuator_2servo__motor_8hpp.html" target="_top" xlink:title=" ">
<polygon fill="white" stroke="#666666" points="415.5,-151 278.5,-151 278.5,-121 415.5,-121 415.5,-151"/>
<text text-anchor="start" x="286.5" y="-139" font-family="Helvetica,sans-Serif" font-size="10.00">alps_cmn/actuator/servo</text>
<text text-anchor="middle" x="347" y="-128" font-family="Helvetica,sans-Serif" font-size="10.00">_motor.hpp</text>
</a>
</g>
</g>
<!-- Node1&#45;&gt;Node3 -->
<g id="edge2" class="edge">
<title>Node1&#45;&gt;Node3</title>
<path fill="none" stroke="#63b8ff" d="M489.32,-186.96C460.16,-176.72 424.75,-164.29 396.55,-154.39"/>
<polygon fill="#63b8ff" stroke="#63b8ff" points="397.49,-151.01 386.9,-151 395.17,-157.62 397.49,-151.01"/>
</g>
<!-- Node9 -->
<g id="node9" class="node">
<title>Node9</title>
<g id="a_node9"><a xlink:href="pwm__out_8hpp.html" target="_top" xlink:title="PWM出力ピン">
<polygon fill="white" stroke="#666666" points="605.5,-151 484.5,-151 484.5,-121 605.5,-121 605.5,-151"/>
<text text-anchor="start" x="492.5" y="-139" font-family="Helvetica,sans-Serif" font-size="10.00">alps_mbed/gpio/pwm</text>
<text text-anchor="middle" x="545" y="-128" font-family="Helvetica,sans-Serif" font-size="10.00">_out.hpp</text>
</a>
</g>
</g>
<!-- Node1&#45;&gt;Node9 -->
<g id="edge9" class="edge">
<title>Node1&#45;&gt;Node9</title>
<path fill="none" stroke="#63b8ff" d="M545,-186.77C545,-178.85 545,-169.63 545,-161.3"/>
<polygon fill="#63b8ff" stroke="#63b8ff" points="548.5,-161.04 545,-151.04 541.5,-161.04 548.5,-161.04"/>
</g>
<!-- Node4 -->
<g id="node4" class="node">
<title>Node4</title>
<g id="a_node4"><a xlink:title=" ">
<polygon fill="#e0e0e0" stroke="#999999" points="515,-19 465,-19 465,0 515,0 515,-19"/>
<text text-anchor="middle" x="490" y="-7" font-family="Helvetica,sans-Serif" font-size="10.00">chrono</text>
</a>
</g>
</g>
<!-- Node3&#45;&gt;Node4 -->
<g id="edge3" class="edge">
<title>Node3&#45;&gt;Node4</title>
<path fill="none" stroke="#63b8ff" d="M357.89,-120.94C371.37,-104.09 395.53,-75.56 420,-55 433.89,-43.33 451.05,-32.38 464.91,-24.25"/>
<polygon fill="#63b8ff" stroke="#63b8ff" points="466.95,-27.12 473.89,-19.11 463.47,-21.04 466.95,-27.12"/>
</g>
<!-- Node5 -->
<g id="node5" class="node">
<title>Node5</title>
<g id="a_node5"><a xlink:title=" ">
<polygon fill="#e0e0e0" stroke="#999999" points="50,-79.5 0,-79.5 0,-60.5 50,-60.5 50,-79.5"/>
<text text-anchor="middle" x="25" y="-67.5" font-family="Helvetica,sans-Serif" font-size="10.00">cstdint</text>
</a>
</g>
</g>
<!-- Node3&#45;&gt;Node5 -->
<g id="edge4" class="edge">
<title>Node3&#45;&gt;Node5</title>
<path fill="none" stroke="#63b8ff" d="M278.26,-127.36C219.3,-119.8 132.5,-106.23 59,-85 57.11,-84.46 55.19,-83.84 53.27,-83.18"/>
<polygon fill="#63b8ff" stroke="#63b8ff" points="54.39,-79.86 43.8,-79.6 51.92,-86.41 54.39,-79.86"/>
</g>
<!-- Node6 -->
<g id="node6" class="node">
<title>Node6</title>
<g id="a_node6"><a xlink:href="i__pwm__out_8hpp.html" target="_top" xlink:title="PWM出力を行うインタフェース">
<polygon fill="white" stroke="#666666" points="551,-85 429,-85 429,-55 551,-55 551,-85"/>
<text text-anchor="start" x="437" y="-73" font-family="Helvetica,sans-Serif" font-size="10.00">alps_cmn/gpio/i_pwm</text>
<text text-anchor="middle" x="490" y="-62" font-family="Helvetica,sans-Serif" font-size="10.00">_out.hpp</text>
</a>
</g>
</g>
<!-- Node3&#45;&gt;Node6 -->
<g id="edge5" class="edge">
<title>Node3&#45;&gt;Node6</title>
<path fill="none" stroke="#63b8ff" d="M378.38,-120.95C399.24,-111.62 426.84,-99.27 449.38,-89.18"/>
<polygon fill="#63b8ff" stroke="#63b8ff" points="450.99,-92.29 458.69,-85.01 448.13,-85.9 450.99,-92.29"/>
</g>
<!-- Node7 -->
<g id="node7" class="node">
<title>Node7</title>
<g id="a_node7"><a xlink:href="angle_8hpp.html" target="_top" xlink:title=" ">
<polygon fill="white" stroke="#666666" points="201.5,-79.5 68.5,-79.5 68.5,-60.5 201.5,-60.5 201.5,-79.5"/>
<text text-anchor="middle" x="135" y="-67.5" font-family="Helvetica,sans-Serif" font-size="10.00">alps_cmn/util/angle.hpp</text>
</a>
</g>
</g>
<!-- Node3&#45;&gt;Node7 -->
<g id="edge7" class="edge">
<title>Node3&#45;&gt;Node7</title>
<path fill="none" stroke="#63b8ff" d="M300.48,-120.95C262.31,-109.43 208.95,-93.32 173.24,-82.54"/>
<polygon fill="#63b8ff" stroke="#63b8ff" points="173.8,-79.06 163.21,-79.52 171.78,-85.76 173.8,-79.06"/>
</g>
<!-- Node8 -->
<g id="node8" class="node">
<title>Node8</title>
<g id="a_node8"><a xlink:href="algorithm_8hpp.html" target="_top" xlink:title=" ">
<polygon fill="white" stroke="#666666" points="372.5,-79.5 219.5,-79.5 219.5,-60.5 372.5,-60.5 372.5,-79.5"/>
<text text-anchor="middle" x="296" y="-67.5" font-family="Helvetica,sans-Serif" font-size="10.00">alps_cmn/util/algorithm.hpp</text>
</a>
</g>
</g>
<!-- Node3&#45;&gt;Node8 -->
<g id="edge8" class="edge">
<title>Node3&#45;&gt;Node8</title>
<path fill="none" stroke="#63b8ff" d="M335.68,-120.8C327.89,-111.01 317.5,-97.98 309.31,-87.7"/>
<polygon fill="#63b8ff" stroke="#63b8ff" points="312.02,-85.48 303.05,-79.84 306.54,-89.85 312.02,-85.48"/>
</g>
<!-- Node6&#45;&gt;Node4 -->
<g id="edge6" class="edge">
<title>Node6&#45;&gt;Node4</title>
<path fill="none" stroke="#63b8ff" d="M490,-54.84C490,-47.21 490,-37.7 490,-29.45"/>
<polygon fill="#63b8ff" stroke="#63b8ff" points="493.5,-29.27 490,-19.27 486.5,-29.27 493.5,-29.27"/>
</g>
<!-- Node9&#45;&gt;Node2 -->
<g id="edge12" class="edge">
<title>Node9&#45;&gt;Node2</title>
<path fill="none" stroke="#63b8ff" d="M564.75,-120.8C579.26,-110.37 598.9,-96.24 613.56,-85.69"/>
<polygon fill="#63b8ff" stroke="#63b8ff" points="615.88,-88.34 621.96,-79.66 611.8,-82.66 615.88,-88.34"/>
</g>
<!-- Node9&#45;&gt;Node4 -->
<g id="edge10" class="edge">
<title>Node9&#45;&gt;Node4</title>
<path fill="none" stroke="#63b8ff" d="M553,-120.81C561.28,-104.09 571.5,-75.93 560,-55 552.23,-40.85 537.83,-30.56 524.11,-23.46"/>
<polygon fill="#63b8ff" stroke="#63b8ff" points="525.34,-20.17 514.81,-19.05 522.34,-26.49 525.34,-20.17"/>
</g>
<!-- Node9&#45;&gt;Node6 -->
<g id="edge11" class="edge">
<title>Node9&#45;&gt;Node6</title>
<path fill="none" stroke="#63b8ff" d="M532.79,-120.8C525.74,-112.59 516.73,-102.1 508.79,-92.87"/>
<polygon fill="#63b8ff" stroke="#63b8ff" points="511.34,-90.47 502.17,-85.16 506.04,-95.03 511.34,-90.47"/>
</g>
</g>
</svg>
