<?xml version="1.0" encoding="UTF-8" standalone="no"?>
<!DOCTYPE svg PUBLIC "-//W3C//DTD SVG 1.1//EN"
 "http://www.w3.org/Graphics/SVG/1.1/DTD/svg11.dtd">
<!-- Generated by graphviz version 2.43.0 (0)
 -->
<!-- Title: alps_linux_lib/include/alps_lin/communication/uart_io.hpp Pages: 1 -->
<svg width="827pt" height="173pt"
 viewBox="0.00 0.00 827.00 173.00" xmlns="http://www.w3.org/2000/svg" xmlns:xlink="http://www.w3.org/1999/xlink">
<g id="graph0" class="graph" transform="scale(1 1) rotate(0) translate(4 169)">
<title>alps_linux_lib/include/alps_lin/communication/uart_io.hpp</title>
<polygon fill="white" stroke="transparent" points="-4,4 -4,-169 823,-169 823,4 -4,4"/>
<!-- Node1 -->
<g id="node1" class="node">
<title>Node1</title>
<g id="a_node1"><a xlink:title="Ubuntuシリアル通信IOライブラリ">
<polygon fill="#bfbfbf" stroke="black" points="317,-123.5 317,-164.5 453,-164.5 453,-123.5 317,-123.5"/>
<text text-anchor="start" x="325" y="-152.5" font-family="Helvetica,sans-Serif" font-size="10.00">alps_linux_lib/include</text>
<text text-anchor="start" x="325" y="-141.5" font-family="Helvetica,sans-Serif" font-size="10.00">/alps_lin/communication</text>
<text text-anchor="middle" x="385" y="-130.5" font-family="Helvetica,sans-Serif" font-size="10.00">/uart_io.hpp</text>
</a>
</g>
</g>
<!-- Node2 -->
<g id="node2" class="node">
<title>Node2</title>
<g id="a_node2"><a xlink:title=" ">
<polygon fill="white" stroke="#bfbfbf" points="0,-62 0,-81 54,-81 54,-62 0,-62"/>
<text text-anchor="middle" x="27" y="-69" font-family="Helvetica,sans-Serif" font-size="10.00">dirent.h</text>
</a>
</g>
</g>
<!-- Node1&#45;&gt;Node2 -->
<g id="edge1" class="edge">
<title>Node1&#45;&gt;Node2</title>
<path fill="none" stroke="midnightblue" d="M316.8,-135.14C251.2,-126.64 149.66,-110.99 64,-87 61.41,-86.27 58.75,-85.43 56.11,-84.53"/>
<polygon fill="midnightblue" stroke="midnightblue" points="57.31,-81.25 46.72,-81.07 54.89,-87.81 57.31,-81.25"/>
</g>
<!-- Node3 -->
<g id="node3" class="node">
<title>Node3</title>
<g id="a_node3"><a xlink:title=" ">
<polygon fill="white" stroke="#bfbfbf" points="72.5,-62 72.5,-81 123.5,-81 123.5,-62 72.5,-62"/>
<text text-anchor="middle" x="98" y="-69" font-family="Helvetica,sans-Serif" font-size="10.00">errno.h</text>
</a>
</g>
</g>
<!-- Node1&#45;&gt;Node3 -->
<g id="edge2" class="edge">
<title>Node1&#45;&gt;Node3</title>
<path fill="none" stroke="midnightblue" d="M316.77,-131.17C265.59,-121.5 194.12,-106.29 133,-87 130.86,-86.32 128.67,-85.57 126.48,-84.77"/>
<polygon fill="midnightblue" stroke="midnightblue" points="127.62,-81.46 117.03,-81.09 125.08,-87.98 127.62,-81.46"/>
</g>
<!-- Node4 -->
<g id="node4" class="node">
<title>Node4</title>
<g id="a_node4"><a xlink:title=" ">
<polygon fill="white" stroke="#bfbfbf" points="141.5,-62 141.5,-81 188.5,-81 188.5,-62 141.5,-62"/>
<text text-anchor="middle" x="165" y="-69" font-family="Helvetica,sans-Serif" font-size="10.00">fcntl.h</text>
</a>
</g>
</g>
<!-- Node1&#45;&gt;Node4 -->
<g id="edge3" class="edge">
<title>Node1&#45;&gt;Node4</title>
<path fill="none" stroke="midnightblue" d="M316.83,-124.77C281.09,-114.66 236.8,-101.27 198,-87 196.34,-86.39 194.65,-85.74 192.95,-85.06"/>
<polygon fill="midnightblue" stroke="midnightblue" points="193.91,-81.67 183.34,-81.03 191.21,-88.13 193.91,-81.67"/>
</g>
<!-- Node5 -->
<g id="node5" class="node">
<title>Node5</title>
<g id="a_node5"><a xlink:title=" ">
<polygon fill="white" stroke="#bfbfbf" points="207,-62 207,-81 257,-81 257,-62 207,-62"/>
<text text-anchor="middle" x="232" y="-69" font-family="Helvetica,sans-Serif" font-size="10.00">stdio.h</text>
</a>
</g>
</g>
<!-- Node1&#45;&gt;Node5 -->
<g id="edge4" class="edge">
<title>Node1&#45;&gt;Node5</title>
<path fill="none" stroke="midnightblue" d="M342.38,-123.36C316.08,-111.24 283.07,-96.03 260.04,-85.42"/>
<polygon fill="midnightblue" stroke="midnightblue" points="261.37,-82.18 250.82,-81.17 258.44,-88.54 261.37,-82.18"/>
</g>
<!-- Node6 -->
<g id="node6" class="node">
<title>Node6</title>
<g id="a_node6"><a xlink:title=" ">
<polygon fill="white" stroke="#bfbfbf" points="275.5,-62 275.5,-81 338.5,-81 338.5,-62 275.5,-62"/>
<text text-anchor="middle" x="307" y="-69" font-family="Helvetica,sans-Serif" font-size="10.00">termios.h</text>
</a>
</g>
</g>
<!-- Node1&#45;&gt;Node6 -->
<g id="edge5" class="edge">
<title>Node1&#45;&gt;Node6</title>
<path fill="none" stroke="midnightblue" d="M363.27,-123.36C350.94,-112.21 335.72,-98.46 324.22,-88.06"/>
<polygon fill="midnightblue" stroke="midnightblue" points="326.36,-85.28 316.6,-81.17 321.67,-90.48 326.36,-85.28"/>
</g>
<!-- Node7 -->
<g id="node7" class="node">
<title>Node7</title>
<g id="a_node7"><a xlink:title=" ">
<polygon fill="white" stroke="#bfbfbf" points="357,-62 357,-81 413,-81 413,-62 357,-62"/>
<text text-anchor="middle" x="385" y="-69" font-family="Helvetica,sans-Serif" font-size="10.00">unistd.h</text>
</a>
</g>
</g>
<!-- Node1&#45;&gt;Node7 -->
<g id="edge6" class="edge">
<title>Node1&#45;&gt;Node7</title>
<path fill="none" stroke="midnightblue" d="M385,-123.36C385,-113.3 385,-101.1 385,-91.18"/>
<polygon fill="midnightblue" stroke="midnightblue" points="388.5,-91.17 385,-81.17 381.5,-91.17 388.5,-91.17"/>
</g>
<!-- Node8 -->
<g id="node8" class="node">
<title>Node8</title>
<g id="a_node8"><a xlink:title=" ">
<polygon fill="white" stroke="#bfbfbf" points="431,-62 431,-81 481,-81 481,-62 431,-62"/>
<text text-anchor="middle" x="456" y="-69" font-family="Helvetica,sans-Serif" font-size="10.00">chrono</text>
</a>
</g>
</g>
<!-- Node1&#45;&gt;Node8 -->
<g id="edge7" class="edge">
<title>Node1&#45;&gt;Node8</title>
<path fill="none" stroke="midnightblue" d="M404.78,-123.36C415.89,-112.32 429.59,-98.72 440.02,-88.37"/>
<polygon fill="midnightblue" stroke="midnightblue" points="442.64,-90.7 447.27,-81.17 437.7,-85.74 442.64,-90.7"/>
</g>
<!-- Node9 -->
<g id="node9" class="node">
<title>Node9</title>
<g id="a_node9"><a xlink:title=" ">
<polygon fill="white" stroke="#bfbfbf" points="499,-62 499,-81 531,-81 531,-62 499,-62"/>
<text text-anchor="middle" x="515" y="-69" font-family="Helvetica,sans-Serif" font-size="10.00">list</text>
</a>
</g>
</g>
<!-- Node1&#45;&gt;Node9 -->
<g id="edge8" class="edge">
<title>Node1&#45;&gt;Node9</title>
<path fill="none" stroke="midnightblue" d="M422.59,-123.37C442.69,-112.77 467.79,-99.36 490,-87 490.53,-86.7 491.07,-86.4 491.62,-86.1"/>
<polygon fill="midnightblue" stroke="midnightblue" points="493.56,-89.02 500.51,-81.02 490.09,-82.94 493.56,-89.02"/>
</g>
<!-- Node10 -->
<g id="node10" class="node">
<title>Node10</title>
<g id="a_node10"><a xlink:title=" ">
<polygon fill="white" stroke="#bfbfbf" points="549,-62 549,-81 593,-81 593,-62 549,-62"/>
<text text-anchor="middle" x="571" y="-69" font-family="Helvetica,sans-Serif" font-size="10.00">string</text>
</a>
</g>
</g>
<!-- Node1&#45;&gt;Node10 -->
<g id="edge9" class="edge">
<title>Node1&#45;&gt;Node10</title>
<path fill="none" stroke="midnightblue" d="M442.89,-123.49C472.23,-113.25 508.27,-100.12 540,-87 541.37,-86.43 542.77,-85.84 544.18,-85.23"/>
<polygon fill="midnightblue" stroke="midnightblue" points="545.74,-88.36 553.42,-81.06 542.86,-81.98 545.74,-88.36"/>
</g>
<!-- Node11 -->
<g id="node11" class="node">
<title>Node11</title>
<g id="a_node11"><a xlink:title=" ">
<polygon fill="white" stroke="#bfbfbf" points="611.5,-62 611.5,-81 658.5,-81 658.5,-62 611.5,-62"/>
<text text-anchor="middle" x="635" y="-69" font-family="Helvetica,sans-Serif" font-size="10.00">vector</text>
</a>
</g>
</g>
<!-- Node1&#45;&gt;Node11 -->
<g id="edge10" class="edge">
<title>Node1&#45;&gt;Node11</title>
<path fill="none" stroke="midnightblue" d="M453.28,-128.36C496.44,-118.38 553.1,-103.93 602,-87 603.86,-86.36 605.77,-85.65 607.67,-84.91"/>
<polygon fill="midnightblue" stroke="midnightblue" points="609.16,-88.08 617.05,-81.01 606.48,-81.61 609.16,-88.08"/>
</g>
<!-- Node12 -->
<g id="node12" class="node">
<title>Node12</title>
<g id="a_node12"><a xlink:href="i__uart__io_8hpp.html" target="_top" xlink:title=" ">
<polygon fill="white" stroke="black" points="677,-56.5 677,-86.5 819,-86.5 819,-56.5 677,-56.5"/>
<text text-anchor="start" x="685" y="-74.5" font-family="Helvetica,sans-Serif" font-size="10.00">alps_cmn/communication</text>
<text text-anchor="middle" x="748" y="-63.5" font-family="Helvetica,sans-Serif" font-size="10.00">/i_uart_io.hpp</text>
</a>
</g>
</g>
<!-- Node1&#45;&gt;Node12 -->
<g id="edge11" class="edge">
<title>Node1&#45;&gt;Node12</title>
<path fill="none" stroke="midnightblue" d="M453.28,-129.74C513.91,-117.96 602.6,-100.74 666.84,-88.26"/>
<polygon fill="midnightblue" stroke="midnightblue" points="667.78,-91.65 676.93,-86.3 666.44,-84.77 667.78,-91.65"/>
</g>
<!-- Node13 -->
<g id="node13" class="node">
<title>Node13</title>
<g id="a_node13"><a xlink:title=" ">
<polygon fill="white" stroke="#bfbfbf" points="693,-0.5 693,-19.5 803,-19.5 803,-0.5 693,-0.5"/>
<text text-anchor="middle" x="748" y="-7.5" font-family="Helvetica,sans-Serif" font-size="10.00">etl/circular_buffer.h</text>
</a>
</g>
</g>
<!-- Node12&#45;&gt;Node13 -->
<g id="edge12" class="edge">
<title>Node12&#45;&gt;Node13</title>
<path fill="none" stroke="midnightblue" d="M748,-56.4C748,-48.47 748,-38.46 748,-29.86"/>
<polygon fill="midnightblue" stroke="midnightblue" points="751.5,-29.66 748,-19.66 744.5,-29.66 751.5,-29.66"/>
</g>
</g>
</svg>
