<?xml version="1.0" encoding="UTF-8" standalone="no"?>
<!DOCTYPE svg PUBLIC "-//W3C//DTD SVG 1.1//EN"
 "http://www.w3.org/Graphics/SVG/1.1/DTD/svg11.dtd">
<!-- Generated by graphviz version 2.43.0 (0)
 -->
<!-- Title: alps_core/lib_internal/alps_common_lib/include/alps_cmn/display/ssd1306.hpp Pages: 1 -->
<svg width="999pt" height="170pt"
 viewBox="0.00 0.00 998.50 170.00" xmlns="http://www.w3.org/2000/svg" xmlns:xlink="http://www.w3.org/1999/xlink">
<g id="graph0" class="graph" transform="scale(1 1) rotate(0) translate(4 166)">
<title>alps_core/lib_internal/alps_common_lib/include/alps_cmn/display/ssd1306.hpp</title>
<!-- Node1 -->
<g id="Node000001" class="node">
<title>Node1</title>
<g id="a_Node000001"><a xlink:title="SSD1306 OLEDディスプレイ">
<polygon fill="#999999" stroke="#666666" points="521.5,-162 352.5,-162 352.5,-121 521.5,-121 521.5,-162"/>
<text text-anchor="start" x="360.5" y="-150" font-family="Helvetica,sans-Serif" font-size="10.00">alps_core/lib_internal</text>
<text text-anchor="start" x="360.5" y="-139" font-family="Helvetica,sans-Serif" font-size="10.00">/alps_common_lib/include</text>
<text text-anchor="middle" x="437" y="-128" font-family="Helvetica,sans-Serif" font-size="10.00">/alps_cmn/display/ssd1306.hpp</text>
</a>
</g>
</g>
<!-- Node2 -->
<g id="Node000002" class="node">
<title>Node2</title>
<g id="a_Node000002"><a xlink:title=" ">
<polygon fill="#e0e0e0" stroke="#999999" points="64,-79.5 0,-79.5 0,-60.5 64,-60.5 64,-79.5"/>
<text text-anchor="middle" x="32" y="-67.5" font-family="Helvetica,sans-Serif" font-size="10.00">algorithm</text>
</a>
</g>
</g>
<!-- Node1&#45;&gt;Node2 -->
<g id="edge1_Node000001_Node000002" class="edge">
<title>Node1&#45;&gt;Node2</title>
<g id="a_edge1_Node000001_Node000002"><a xlink:title=" ">
<path fill="none" stroke="#63b8ff" d="M352.22,-130.84C279.06,-121.69 170.84,-106.19 78,-85 74.64,-84.23 71.17,-83.35 67.71,-82.41"/>
<polygon fill="#63b8ff" stroke="#63b8ff" points="68.68,-79.04 58.1,-79.65 66.74,-85.77 68.68,-79.04"/>
</a>
</g>
</g>
<!-- Node3 -->
<g id="Node000003" class="node">
<title>Node3</title>
<g id="a_Node000003"><a xlink:title=" ">
<polygon fill="#e0e0e0" stroke="#999999" points="201,-19 151,-19 151,0 201,0 201,-19"/>
<text text-anchor="middle" x="176" y="-7" font-family="Helvetica,sans-Serif" font-size="10.00">chrono</text>
</a>
</g>
</g>
<!-- Node1&#45;&gt;Node3 -->
<g id="edge2_Node000001_Node000003" class="edge">
<title>Node1&#45;&gt;Node3</title>
<g id="a_edge2_Node000001_Node000003"><a xlink:title=" ">
<path fill="none" stroke="#63b8ff" d="M352.32,-138.07C266.24,-133.59 141.32,-120.92 111,-85 102.4,-74.81 104.78,-66.79 111,-55 118.24,-41.27 131.83,-30.97 144.72,-23.76"/>
<polygon fill="#63b8ff" stroke="#63b8ff" points="146.59,-26.73 153.88,-19.05 143.39,-20.51 146.59,-26.73"/>
</a>
</g>
</g>
<!-- Node4 -->
<g id="Node000004" class="node">
<title>Node4</title>
<g id="a_Node000004"><a xlink:title=" ">
<polygon fill="#e0e0e0" stroke="#999999" points="167.5,-79.5 120.5,-79.5 120.5,-60.5 167.5,-60.5 167.5,-79.5"/>
<text text-anchor="middle" x="144" y="-67.5" font-family="Helvetica,sans-Serif" font-size="10.00">cmath</text>
</a>
</g>
</g>
<!-- Node1&#45;&gt;Node4 -->
<g id="edge3_Node000001_Node000004" class="edge">
<title>Node1&#45;&gt;Node4</title>
<g id="a_edge3_Node000001_Node000004"><a xlink:title=" ">
<path fill="none" stroke="#63b8ff" d="M352.41,-127.01C300.77,-117.67 233.78,-103.57 176,-85 174.37,-84.48 172.72,-83.9 171.06,-83.29"/>
<polygon fill="#63b8ff" stroke="#63b8ff" points="172.28,-80 161.69,-79.5 169.65,-86.49 172.28,-80"/>
</a>
</g>
</g>
<!-- Node5 -->
<g id="Node000005" class="node">
<title>Node5</title>
<g id="a_Node000005"><a xlink:title=" ">
<polygon fill="#e0e0e0" stroke="#999999" points="238.5,-79.5 185.5,-79.5 185.5,-60.5 238.5,-60.5 238.5,-79.5"/>
<text text-anchor="middle" x="212" y="-67.5" font-family="Helvetica,sans-Serif" font-size="10.00">cstddef</text>
</a>
</g>
</g>
<!-- Node1&#45;&gt;Node5 -->
<g id="edge4_Node000001_Node000005" class="edge">
<title>Node1&#45;&gt;Node5</title>
<g id="a_edge4_Node000001_Node000005"><a xlink:title=" ">
<path fill="none" stroke="#63b8ff" d="M363.85,-120.91C328.33,-110.95 285.17,-98.17 247,-85 245.38,-84.44 243.73,-83.85 242.07,-83.24"/>
<polygon fill="#63b8ff" stroke="#63b8ff" points="243.19,-79.93 232.6,-79.62 240.7,-86.46 243.19,-79.93"/>
</a>
</g>
</g>
<!-- Node6 -->
<g id="Node000006" class="node">
<title>Node6</title>
<g id="a_Node000006"><a xlink:title=" ">
<polygon fill="#e0e0e0" stroke="#999999" points="656,-19 606,-19 606,0 656,0 656,-19"/>
<text text-anchor="middle" x="631" y="-7" font-family="Helvetica,sans-Serif" font-size="10.00">cstdint</text>
</a>
</g>
</g>
<!-- Node1&#45;&gt;Node6 -->
<g id="edge5_Node000001_Node000006" class="edge">
<title>Node1&#45;&gt;Node6</title>
<g id="a_edge5_Node000001_Node000006"><a xlink:title=" ">
<path fill="none" stroke="#63b8ff" d="M521.6,-131.29C553.85,-123.69 588.48,-109.91 612,-85 626.15,-70.02 630.14,-46.01 631.08,-29.32"/>
<polygon fill="#63b8ff" stroke="#63b8ff" points="634.59,-29.21 631.33,-19.13 627.59,-29.04 634.59,-29.21"/>
</a>
</g>
</g>
<!-- Node7 -->
<g id="Node000007" class="node">
<title>Node7</title>
<g id="a_Node000007"><a xlink:title=" ">
<polygon fill="#e0e0e0" stroke="#999999" points="460.5,-79.5 413.5,-79.5 413.5,-60.5 460.5,-60.5 460.5,-79.5"/>
<text text-anchor="middle" x="437" y="-67.5" font-family="Helvetica,sans-Serif" font-size="10.00">vector</text>
</a>
</g>
</g>
<!-- Node1&#45;&gt;Node7 -->
<g id="edge6_Node000001_Node000007" class="edge">
<title>Node1&#45;&gt;Node7</title>
<g id="a_edge6_Node000001_Node000007"><a xlink:title=" ">
<path fill="none" stroke="#63b8ff" d="M437,-120.77C437,-111.08 437,-99.46 437,-89.88"/>
<polygon fill="#63b8ff" stroke="#63b8ff" points="440.5,-89.82 437,-79.82 433.5,-89.82 440.5,-89.82"/>
</a>
</g>
</g>
<!-- Node8 -->
<g id="Node000008" class="node">
<title>Node8</title>
<g id="a_Node000008"><a xlink:href="i__i2c__io_8hpp.html" target="_top" xlink:title="I2C通信インタフェース">
<polygon fill="white" stroke="#666666" points="801,-85 659,-85 659,-55 801,-55 801,-85"/>
<text text-anchor="start" x="667" y="-73" font-family="Helvetica,sans-Serif" font-size="10.00">alps_cmn/communication</text>
<text text-anchor="middle" x="730" y="-62" font-family="Helvetica,sans-Serif" font-size="10.00">/i_i2c_io.hpp</text>
</a>
</g>
</g>
<!-- Node1&#45;&gt;Node8 -->
<g id="edge7_Node000001_Node000008" class="edge">
<title>Node1&#45;&gt;Node8</title>
<g id="a_edge7_Node000001_Node000008"><a xlink:title=" ">
<path fill="none" stroke="#63b8ff" d="M519.4,-120.96C564.06,-110.36 618.62,-97.42 661.01,-87.36"/>
<polygon fill="#63b8ff" stroke="#63b8ff" points="662.04,-90.72 670.96,-85 660.42,-83.91 662.04,-90.72"/>
</a>
</g>
</g>
<!-- Node9 -->
<g id="Node000009" class="node">
<title>Node9</title>
<g id="a_Node000009"><a xlink:title=" ">
<polygon fill="#e0e0e0" stroke="#999999" points="811.5,-19 746.5,-19 746.5,0 811.5,0 811.5,-19"/>
<text text-anchor="middle" x="779" y="-7" font-family="Helvetica,sans-Serif" font-size="10.00">etl/span.h</text>
</a>
</g>
</g>
<!-- Node1&#45;&gt;Node9 -->
<g id="edge16_Node000001_Node000009" class="edge">
<title>Node1&#45;&gt;Node9</title>
<g id="a_edge16_Node000001_Node000009"><a xlink:title=" ">
<path fill="none" stroke="#63b8ff" d="M521.83,-140.21C620.2,-137.85 773.55,-127.27 810,-85 824.65,-68.01 808.85,-43.14 794.96,-26.88"/>
<polygon fill="#63b8ff" stroke="#63b8ff" points="797.35,-24.31 788.04,-19.25 792.17,-29.01 797.35,-24.31"/>
</a>
</g>
</g>
<!-- Node10 -->
<g id="Node000010" class="node">
<title>Node10</title>
<g id="a_Node000010"><a xlink:href="font__info_8hpp.html" target="_top" xlink:title="フォント情報構造体">
<polygon fill="white" stroke="#666666" points="603,-85 479,-85 479,-55 603,-55 603,-85"/>
<text text-anchor="start" x="487" y="-73" font-family="Helvetica,sans-Serif" font-size="10.00">alps_cmn/display/font</text>
<text text-anchor="middle" x="541" y="-62" font-family="Helvetica,sans-Serif" font-size="10.00">_info.hpp</text>
</a>
</g>
</g>
<!-- Node1&#45;&gt;Node10 -->
<g id="edge10_Node000001_Node000010" class="edge">
<title>Node1&#45;&gt;Node10</title>
<g id="a_edge10_Node000001_Node000010"><a xlink:title=" ">
<path fill="none" stroke="#63b8ff" d="M466.25,-120.96C480.38,-111.51 497.3,-100.2 511.47,-90.74"/>
<polygon fill="#63b8ff" stroke="#63b8ff" points="513.51,-93.58 519.88,-85.11 509.62,-87.76 513.51,-93.58"/>
</a>
</g>
</g>
<!-- Node11 -->
<g id="Node000011" class="node">
<title>Node11</title>
<g id="a_Node000011"><a xlink:href="sleep_8hpp.html" target="_top" xlink:title="スリープ関数の定義">
<polygon fill="white" stroke="#666666" points="395.5,-79.5 256.5,-79.5 256.5,-60.5 395.5,-60.5 395.5,-79.5"/>
<text text-anchor="middle" x="326" y="-67.5" font-family="Helvetica,sans-Serif" font-size="10.00">alps_cmn/time/sleep.hpp</text>
</a>
</g>
</g>
<!-- Node1&#45;&gt;Node11 -->
<g id="edge12_Node000001_Node000011" class="edge">
<title>Node1&#45;&gt;Node11</title>
<g id="a_edge12_Node000001_Node000011"><a xlink:title=" ">
<path fill="none" stroke="#63b8ff" d="M405.78,-120.96C387.56,-109.54 364.98,-95.41 348.5,-85.09"/>
<polygon fill="#63b8ff" stroke="#63b8ff" points="349.91,-81.84 339.58,-79.5 346.2,-87.78 349.91,-81.84"/>
</a>
</g>
</g>
<!-- Node13 -->
<g id="Node000013" class="node">
<title>Node13</title>
<g id="a_Node000013"><a xlink:href="angle_8hpp.html" target="_top" xlink:title=" ">
<polygon fill="white" stroke="#666666" points="990.5,-79.5 857.5,-79.5 857.5,-60.5 990.5,-60.5 990.5,-79.5"/>
<text text-anchor="middle" x="924" y="-67.5" font-family="Helvetica,sans-Serif" font-size="10.00">alps_cmn/util/angle.hpp</text>
</a>
</g>
</g>
<!-- Node1&#45;&gt;Node13 -->
<g id="edge15_Node000001_Node000013" class="edge">
<title>Node1&#45;&gt;Node13</title>
<g id="a_edge15_Node000001_Node000013"><a xlink:title=" ">
<path fill="none" stroke="#63b8ff" d="M521.89,-129.78C604.11,-119.19 732.27,-102.13 843,-85 850.45,-83.85 858.28,-82.57 866.01,-81.28"/>
<polygon fill="#63b8ff" stroke="#63b8ff" points="866.8,-84.69 876.08,-79.57 865.63,-77.79 866.8,-84.69"/>
</a>
</g>
</g>
<!-- Node8&#45;&gt;Node6 -->
<g id="edge8_Node000008_Node000006" class="edge">
<title>Node8&#45;&gt;Node6</title>
<g id="a_edge8_Node000008_Node000006"><a xlink:title=" ">
<path fill="none" stroke="#63b8ff" d="M706.29,-54.99C690.65,-45.75 670.26,-33.7 654.64,-24.47"/>
<polygon fill="#63b8ff" stroke="#63b8ff" points="656.01,-21.21 645.62,-19.14 652.45,-27.24 656.01,-21.21"/>
</a>
</g>
</g>
<!-- Node8&#45;&gt;Node9 -->
<g id="edge9_Node000008_Node000009" class="edge">
<title>Node8&#45;&gt;Node9</title>
<g id="a_edge9_Node000008_Node000009"><a xlink:title=" ">
<path fill="none" stroke="#63b8ff" d="M741.86,-54.84C748.9,-46.43 757.86,-35.74 765.21,-26.96"/>
<polygon fill="#63b8ff" stroke="#63b8ff" points="767.92,-29.18 771.66,-19.27 762.55,-24.68 767.92,-29.18"/>
</a>
</g>
</g>
<!-- Node10&#45;&gt;Node6 -->
<g id="edge11_Node000010_Node000006" class="edge">
<title>Node10&#45;&gt;Node6</title>
<g id="a_edge11_Node000010_Node000006"><a xlink:title=" ">
<path fill="none" stroke="#63b8ff" d="M562.79,-54.84C576.87,-45.68 595.13,-33.82 609.21,-24.66"/>
<polygon fill="#63b8ff" stroke="#63b8ff" points="611.3,-27.48 617.78,-19.09 607.49,-21.61 611.3,-27.48"/>
</a>
</g>
</g>
<!-- Node11&#45;&gt;Node3 -->
<g id="edge13_Node000011_Node000003" class="edge">
<title>Node11&#45;&gt;Node3</title>
<g id="a_edge13_Node000011_Node000003"><a xlink:title=" ">
<path fill="none" stroke="#63b8ff" d="M304.19,-60.49C278.75,-50.57 236.49,-34.09 207.49,-22.78"/>
<polygon fill="#63b8ff" stroke="#63b8ff" points="208.43,-19.39 197.84,-19.02 205.88,-25.91 208.43,-19.39"/>
</a>
</g>
</g>
<!-- Node12 -->
<g id="Node000012" class="node">
<title>Node12</title>
<g id="a_Node000012"><a xlink:title=" ">
<polygon fill="#e0e0e0" stroke="#999999" points="350,-19 302,-19 302,0 350,0 350,-19"/>
<text text-anchor="middle" x="326" y="-7" font-family="Helvetica,sans-Serif" font-size="10.00">thread</text>
</a>
</g>
</g>
<!-- Node11&#45;&gt;Node12 -->
<g id="edge14_Node000011_Node000012" class="edge">
<title>Node11&#45;&gt;Node12</title>
<g id="a_edge14_Node000011_Node000012"><a xlink:title=" ">
<path fill="none" stroke="#63b8ff" d="M326,-60.37C326,-52.25 326,-39.81 326,-29.39"/>
<polygon fill="#63b8ff" stroke="#63b8ff" points="329.5,-29.17 326,-19.17 322.5,-29.17 329.5,-29.17"/>
</a>
</g>
</g>
</g>
</svg>
