<?xml version="1.0" encoding="UTF-8" standalone="no"?>
<!DOCTYPE svg PUBLIC "-//W3C//DTD SVG 1.1//EN"
 "http://www.w3.org/Graphics/SVG/1.1/DTD/svg11.dtd">
<!-- Generated by graphviz version 2.43.0 (0)
 -->
<!-- Title: alps_core/lib_internal/alps_common_lib/include/alps_cmn/util/angle.hpp Pages: 1 -->
<svg width="1046pt" height="225pt"
 viewBox="0.00 0.00 1045.50 225.00" xmlns="http://www.w3.org/2000/svg" xmlns:xlink="http://www.w3.org/1999/xlink">
<g id="graph0" class="graph" transform="scale(1 1) rotate(0) translate(4 221)">
<title>alps_core/lib_internal/alps_common_lib/include/alps_cmn/util/angle.hpp</title>
<!-- Node1 -->
<g id="Node000001" class="node">
<title>Node1</title>
<g id="a_Node000001"><a xlink:title=" ">
<polygon fill="#999999" stroke="#666666" points="579,-217 436,-217 436,-176 579,-176 579,-217"/>
<text text-anchor="start" x="444" y="-205" font-family="Helvetica,sans-Serif" font-size="10.00">alps_core/lib_internal</text>
<text text-anchor="start" x="444" y="-194" font-family="Helvetica,sans-Serif" font-size="10.00">/alps_common_lib/include</text>
<text text-anchor="middle" x="507.5" y="-183" font-family="Helvetica,sans-Serif" font-size="10.00">/alps_cmn/util/angle.hpp</text>
</a>
</g>
</g>
<!-- Node2 -->
<g id="Node000002" class="node">
<title>Node2</title>
<g id="a_Node000002"><a xlink:href="robomas__motor_8hpp.html" target="_top" xlink:title="ロボマスモータのライブラリ">
<polygon fill="white" stroke="#666666" points="155,-140 0,-140 0,-88 155,-88 155,-140"/>
<text text-anchor="start" x="8" y="-128" font-family="Helvetica,sans-Serif" font-size="10.00">alps_core/lib_internal</text>
<text text-anchor="start" x="8" y="-117" font-family="Helvetica,sans-Serif" font-size="10.00">/alps_common_lib/include</text>
<text text-anchor="start" x="8" y="-106" font-family="Helvetica,sans-Serif" font-size="10.00">/alps_cmn/actuator/robomas</text>
<text text-anchor="middle" x="77.5" y="-95" font-family="Helvetica,sans-Serif" font-size="10.00">_motor.hpp</text>
</a>
</g>
</g>
<!-- Node1&#45;&gt;Node2 -->
<g id="edge1_Node000001_Node000002" class="edge">
<title>Node1&#45;&gt;Node2</title>
<g id="a_edge1_Node000001_Node000002"><a xlink:title=" ">
<path fill="none" stroke="#63b8ff" d="M425.77,-185.2C355.73,-175.68 252.38,-160.01 163.5,-140 160.77,-139.39 158,-138.73 155.2,-138.05"/>
<polygon fill="#63b8ff" stroke="#63b8ff" points="425.48,-188.69 435.86,-186.56 426.41,-181.75 425.48,-188.69"/>
</a>
</g>
</g>
<!-- Node3 -->
<g id="Node000003" class="node">
<title>Node3</title>
<g id="a_Node000003"><a xlink:href="alps__common__lib_2include_2alps__cmn_2actuator_2servo__motor_8hpp.html" target="_top" xlink:title=" ">
<polygon fill="white" stroke="#666666" points="316,-140 173,-140 173,-88 316,-88 316,-140"/>
<text text-anchor="start" x="181" y="-128" font-family="Helvetica,sans-Serif" font-size="10.00">alps_core/lib_internal</text>
<text text-anchor="start" x="181" y="-117" font-family="Helvetica,sans-Serif" font-size="10.00">/alps_common_lib/include</text>
<text text-anchor="start" x="181" y="-106" font-family="Helvetica,sans-Serif" font-size="10.00">/alps_cmn/actuator/servo</text>
<text text-anchor="middle" x="244.5" y="-95" font-family="Helvetica,sans-Serif" font-size="10.00">_motor.hpp</text>
</a>
</g>
</g>
<!-- Node1&#45;&gt;Node3 -->
<g id="edge2_Node000001_Node000003" class="edge">
<title>Node1&#45;&gt;Node3</title>
<g id="a_edge2_Node000001_Node000003"><a xlink:title=" ">
<path fill="none" stroke="#63b8ff" d="M433.02,-173.07C399.79,-163.02 360.17,-150.98 324.5,-140 321.72,-139.14 318.88,-138.27 316.02,-137.38"/>
<polygon fill="#63b8ff" stroke="#63b8ff" points="432.08,-176.44 442.67,-175.98 434.11,-169.74 432.08,-176.44"/>
</a>
</g>
</g>
<!-- Node5 -->
<g id="Node000005" class="node">
<title>Node5</title>
<g id="a_Node000005"><a xlink:href="alps__common__lib_2include_2alps__cmn_2display_2ssd1306_8hpp.html" target="_top" xlink:title="SSD1306 OLEDディスプレイ">
<polygon fill="white" stroke="#666666" points="503,-134.5 334,-134.5 334,-93.5 503,-93.5 503,-134.5"/>
<text text-anchor="start" x="342" y="-122.5" font-family="Helvetica,sans-Serif" font-size="10.00">alps_core/lib_internal</text>
<text text-anchor="start" x="342" y="-111.5" font-family="Helvetica,sans-Serif" font-size="10.00">/alps_common_lib/include</text>
<text text-anchor="middle" x="418.5" y="-100.5" font-family="Helvetica,sans-Serif" font-size="10.00">/alps_cmn/display/ssd1306.hpp</text>
</a>
</g>
</g>
<!-- Node1&#45;&gt;Node5 -->
<g id="edge4_Node000001_Node000005" class="edge">
<title>Node1&#45;&gt;Node5</title>
<g id="a_edge4_Node000001_Node000005"><a xlink:title=" ">
<path fill="none" stroke="#63b8ff" d="M478.08,-168.89C465.73,-157.72 451.63,-144.97 440.25,-134.67"/>
<polygon fill="#63b8ff" stroke="#63b8ff" points="475.74,-171.49 485.5,-175.6 480.43,-166.3 475.74,-171.49"/>
</a>
</g>
</g>
<!-- Node7 -->
<g id="Node000007" class="node">
<title>Node7</title>
<g id="a_Node000007"><a xlink:href="four__wheel__omni_8hpp.html" target="_top" xlink:title="4輪オムニホイールロボットの運動学モデルクラス">
<polygon fill="white" stroke="#666666" points="673.5,-140 521.5,-140 521.5,-88 673.5,-88 673.5,-140"/>
<text text-anchor="start" x="529.5" y="-128" font-family="Helvetica,sans-Serif" font-size="10.00">alps_core/lib_internal</text>
<text text-anchor="start" x="529.5" y="-117" font-family="Helvetica,sans-Serif" font-size="10.00">/alps_common_lib/include</text>
<text text-anchor="start" x="529.5" y="-106" font-family="Helvetica,sans-Serif" font-size="10.00">/alps_cmn/robot/four_wheel</text>
<text text-anchor="middle" x="597.5" y="-95" font-family="Helvetica,sans-Serif" font-size="10.00">_omni.hpp</text>
</a>
</g>
</g>
<!-- Node1&#45;&gt;Node7 -->
<g id="edge6_Node000001_Node000007" class="edge">
<title>Node1&#45;&gt;Node7</title>
<g id="a_edge6_Node000001_Node000007"><a xlink:title=" ">
<path fill="none" stroke="#63b8ff" d="M537.36,-168.79C547.68,-159.56 559.2,-149.26 569.38,-140.16"/>
<polygon fill="#63b8ff" stroke="#63b8ff" points="534.87,-166.33 529.75,-175.6 539.53,-171.54 534.87,-166.33"/>
</a>
</g>
</g>
<!-- Node8 -->
<g id="Node000008" class="node">
<title>Node8</title>
<g id="a_Node000008"><a xlink:href="bno055_8hpp.html" target="_top" xlink:title="BNO055 9軸センサ">
<polygon fill="white" stroke="#666666" points="853,-134.5 692,-134.5 692,-93.5 853,-93.5 853,-134.5"/>
<text text-anchor="start" x="700" y="-122.5" font-family="Helvetica,sans-Serif" font-size="10.00">alps_core/lib_internal</text>
<text text-anchor="start" x="700" y="-111.5" font-family="Helvetica,sans-Serif" font-size="10.00">/alps_common_lib/include</text>
<text text-anchor="middle" x="772.5" y="-100.5" font-family="Helvetica,sans-Serif" font-size="10.00">/alps_cmn/sensor/bno055.hpp</text>
</a>
</g>
</g>
<!-- Node1&#45;&gt;Node8 -->
<g id="edge7_Node000001_Node000008" class="edge">
<title>Node1&#45;&gt;Node8</title>
<g id="a_edge7_Node000001_Node000008"><a xlink:title=" ">
<path fill="none" stroke="#63b8ff" d="M581.64,-172.98C621.43,-160.89 670,-146.14 708.18,-134.54"/>
<polygon fill="#63b8ff" stroke="#63b8ff" points="580.54,-169.65 571.99,-175.91 582.57,-176.35 580.54,-169.65"/>
</a>
</g>
</g>
<!-- Node9 -->
<g id="Node000009" class="node">
<title>Node9</title>
<g id="a_Node000009"><a xlink:href="alps__common__lib_2include_2alps__cmn_2sensor_2incremental__encoder_8hpp.html" target="_top" xlink:title=" ">
<polygon fill="white" stroke="#666666" points="1034,-140 871,-140 871,-88 1034,-88 1034,-140"/>
<text text-anchor="start" x="879" y="-128" font-family="Helvetica,sans-Serif" font-size="10.00">alps_core/lib_internal</text>
<text text-anchor="start" x="879" y="-117" font-family="Helvetica,sans-Serif" font-size="10.00">/alps_common_lib/include</text>
<text text-anchor="start" x="879" y="-106" font-family="Helvetica,sans-Serif" font-size="10.00">/alps_cmn/sensor/incremental</text>
<text text-anchor="middle" x="952.5" y="-95" font-family="Helvetica,sans-Serif" font-size="10.00">_encoder.hpp</text>
</a>
</g>
</g>
<!-- Node1&#45;&gt;Node9 -->
<g id="edge8_Node000001_Node000009" class="edge">
<title>Node1&#45;&gt;Node9</title>
<g id="a_edge8_Node000001_Node000009"><a xlink:title=" ">
<path fill="none" stroke="#63b8ff" d="M588.96,-185.5C661.24,-175.97 769.47,-160.12 862.5,-140 865.19,-139.42 867.93,-138.8 870.68,-138.16"/>
<polygon fill="#63b8ff" stroke="#63b8ff" points="588.47,-182.03 579.01,-186.8 589.38,-188.97 588.47,-182.03"/>
</a>
</g>
</g>
<!-- Node4 -->
<g id="Node000004" class="node">
<title>Node4</title>
<g id="a_Node000004"><a xlink:href="alps__mbed__lib_2include_2alps__mbed_2actuator_2servo__motor_8hpp.html" target="_top" xlink:title=" ">
<polygon fill="white" stroke="#666666" points="315.5,-52 169.5,-52 169.5,0 315.5,0 315.5,-52"/>
<text text-anchor="start" x="177.5" y="-40" font-family="Helvetica,sans-Serif" font-size="10.00">alps_core/lib_internal</text>
<text text-anchor="start" x="177.5" y="-29" font-family="Helvetica,sans-Serif" font-size="10.00">/alps_mbed_lib/include</text>
<text text-anchor="start" x="177.5" y="-18" font-family="Helvetica,sans-Serif" font-size="10.00">/alps_mbed/actuator/servo</text>
<text text-anchor="middle" x="242.5" y="-7" font-family="Helvetica,sans-Serif" font-size="10.00">_motor.hpp</text>
</a>
</g>
</g>
<!-- Node3&#45;&gt;Node4 -->
<g id="edge3_Node000003_Node000004" class="edge">
<title>Node3&#45;&gt;Node4</title>
<g id="a_edge3_Node000003_Node000004"><a xlink:title=" ">
<path fill="none" stroke="#63b8ff" d="M243.68,-77.56C243.48,-69.04 243.27,-60.1 243.09,-52.16"/>
<polygon fill="#63b8ff" stroke="#63b8ff" points="240.18,-77.75 243.91,-87.66 247.18,-77.58 240.18,-77.75"/>
</a>
</g>
</g>
<!-- Node6 -->
<g id="Node000006" class="node">
<title>Node6</title>
<g id="a_Node000006"><a xlink:href="alps__mbed__lib_2include_2alps__mbed_2display_2ssd1306_8hpp.html" target="_top" xlink:title="SSD1306 OLEDディスプレイ（mbed）">
<polygon fill="white" stroke="#666666" points="509.5,-46.5 333.5,-46.5 333.5,-5.5 509.5,-5.5 509.5,-46.5"/>
<text text-anchor="start" x="341.5" y="-34.5" font-family="Helvetica,sans-Serif" font-size="10.00">alps_core/lib_internal</text>
<text text-anchor="start" x="341.5" y="-23.5" font-family="Helvetica,sans-Serif" font-size="10.00">/alps_mbed_lib/include</text>
<text text-anchor="middle" x="421.5" y="-12.5" font-family="Helvetica,sans-Serif" font-size="10.00">/alps_mbed/display/ssd1306.hpp</text>
</a>
</g>
</g>
<!-- Node5&#45;&gt;Node6 -->
<g id="edge5_Node000005_Node000006" class="edge">
<title>Node5&#45;&gt;Node6</title>
<g id="a_edge5_Node000005_Node000006"><a xlink:title=" ">
<path fill="none" stroke="#63b8ff" d="M419.53,-83.36C419.96,-71.26 420.43,-57.58 420.81,-46.74"/>
<polygon fill="#63b8ff" stroke="#63b8ff" points="416.03,-83.37 419.18,-93.49 423.03,-83.61 416.03,-83.37"/>
</a>
</g>
</g>
<!-- Node10 -->
<g id="Node000010" class="node">
<title>Node10</title>
<g id="a_Node000010"><a xlink:href="alps__mbed__lib_2include_2alps__mbed_2sensor_2incremental__encoder_8hpp.html" target="_top" xlink:title=" ">
<polygon fill="white" stroke="#666666" points="1037.5,-52 867.5,-52 867.5,0 1037.5,0 1037.5,-52"/>
<text text-anchor="start" x="875.5" y="-40" font-family="Helvetica,sans-Serif" font-size="10.00">alps_core/lib_internal</text>
<text text-anchor="start" x="875.5" y="-29" font-family="Helvetica,sans-Serif" font-size="10.00">/alps_mbed_lib/include</text>
<text text-anchor="start" x="875.5" y="-18" font-family="Helvetica,sans-Serif" font-size="10.00">/alps_mbed/sensor/incremental</text>
<text text-anchor="middle" x="952.5" y="-7" font-family="Helvetica,sans-Serif" font-size="10.00">_encoder.hpp</text>
</a>
</g>
</g>
<!-- Node9&#45;&gt;Node10 -->
<g id="edge9_Node000009_Node000010" class="edge">
<title>Node9&#45;&gt;Node10</title>
<g id="a_edge9_Node000009_Node000010"><a xlink:title=" ">
<path fill="none" stroke="#63b8ff" d="M952.5,-77.56C952.5,-69.04 952.5,-60.1 952.5,-52.16"/>
<polygon fill="#63b8ff" stroke="#63b8ff" points="949,-77.66 952.5,-87.66 956,-77.66 949,-77.66"/>
</a>
</g>
</g>
</g>
</svg>
