<?xml version="1.0" encoding="UTF-8" standalone="no"?>
<!DOCTYPE svg PUBLIC "-//W3C//DTD SVG 1.1//EN"
 "http://www.w3.org/Graphics/SVG/1.1/DTD/svg11.dtd">
<!-- Generated by graphviz version 2.43.0 (0)
 -->
<!-- Title: alps_common_lib/include/alps_cmn/util/angle.hpp Pages: 1 -->
<svg width="856pt" height="195pt"
 viewBox="0.00 0.00 855.50 195.00" xmlns="http://www.w3.org/2000/svg" xmlns:xlink="http://www.w3.org/1999/xlink">
<g id="graph0" class="graph" transform="scale(1 1) rotate(0) translate(4 191)">
<title>alps_common_lib/include/alps_cmn/util/angle.hpp</title>
<polygon fill="white" stroke="transparent" points="-4,4 -4,-191 851.5,-191 851.5,4 -4,4"/>
<!-- Node1 -->
<g id="node1" class="node">
<title>Node1</title>
<g id="a_node1"><a xlink:title=" ">
<polygon fill="#bfbfbf" stroke="black" points="337.5,-156.5 337.5,-186.5 477.5,-186.5 477.5,-156.5 337.5,-156.5"/>
<text text-anchor="start" x="345.5" y="-174.5" font-family="Helvetica,sans-Serif" font-size="10.00">alps_common_lib/include</text>
<text text-anchor="middle" x="407.5" y="-163.5" font-family="Helvetica,sans-Serif" font-size="10.00">/alps_cmn/util/angle.hpp</text>
</a>
</g>
</g>
<!-- Node2 -->
<g id="node2" class="node">
<title>Node2</title>
<g id="a_node2"><a xlink:href="robomas__motor_8hpp.html" target="_top" xlink:title="ロボマスモータのライブラリ">
<polygon fill="white" stroke="black" points="0,-78.5 0,-119.5 155,-119.5 155,-78.5 0,-78.5"/>
<text text-anchor="start" x="8" y="-107.5" font-family="Helvetica,sans-Serif" font-size="10.00">alps_common_lib/include</text>
<text text-anchor="start" x="8" y="-96.5" font-family="Helvetica,sans-Serif" font-size="10.00">/alps_cmn/actuator/robomas</text>
<text text-anchor="middle" x="77.5" y="-85.5" font-family="Helvetica,sans-Serif" font-size="10.00">_motor.hpp</text>
</a>
</g>
</g>
<!-- Node1&#45;&gt;Node2 -->
<g id="edge1" class="edge">
<title>Node1&#45;&gt;Node2</title>
<path fill="none" stroke="midnightblue" d="M328.11,-154.44C280.59,-144.72 219.03,-131.93 164.5,-120 161.47,-119.34 158.39,-118.66 155.27,-117.96"/>
<polygon fill="midnightblue" stroke="midnightblue" points="327.53,-157.89 338.02,-156.47 328.93,-151.04 327.53,-157.89"/>
</g>
<!-- Node3 -->
<g id="node3" class="node">
<title>Node3</title>
<g id="a_node3"><a xlink:href="alps__common__lib_2include_2alps__cmn_2actuator_2servo__motor_8hpp.html" target="_top" xlink:title=" ">
<polygon fill="white" stroke="black" points="173.5,-78.5 173.5,-119.5 313.5,-119.5 313.5,-78.5 173.5,-78.5"/>
<text text-anchor="start" x="181.5" y="-107.5" font-family="Helvetica,sans-Serif" font-size="10.00">alps_common_lib/include</text>
<text text-anchor="start" x="181.5" y="-96.5" font-family="Helvetica,sans-Serif" font-size="10.00">/alps_cmn/actuator/servo</text>
<text text-anchor="middle" x="243.5" y="-85.5" font-family="Helvetica,sans-Serif" font-size="10.00">_motor.hpp</text>
</a>
</g>
</g>
<!-- Node1&#45;&gt;Node3 -->
<g id="edge2" class="edge">
<title>Node1&#45;&gt;Node3</title>
<path fill="none" stroke="midnightblue" d="M365.39,-152.4C342,-142.34 312.88,-129.83 288.97,-119.55"/>
<polygon fill="midnightblue" stroke="midnightblue" points="364.14,-155.67 374.71,-156.4 366.9,-149.24 364.14,-155.67"/>
</g>
<!-- Node5 -->
<g id="node5" class="node">
<title>Node5</title>
<g id="a_node5"><a xlink:href="four__wheel__omni_8hpp.html" target="_top" xlink:title="4輪オムニホイールロボットの運動学モデルクラス">
<polygon fill="white" stroke="black" points="331.5,-78.5 331.5,-119.5 483.5,-119.5 483.5,-78.5 331.5,-78.5"/>
<text text-anchor="start" x="339.5" y="-107.5" font-family="Helvetica,sans-Serif" font-size="10.00">alps_common_lib/include</text>
<text text-anchor="start" x="339.5" y="-96.5" font-family="Helvetica,sans-Serif" font-size="10.00">/alps_cmn/robot/four_wheel</text>
<text text-anchor="middle" x="407.5" y="-85.5" font-family="Helvetica,sans-Serif" font-size="10.00">_omni.hpp</text>
</a>
</g>
</g>
<!-- Node1&#45;&gt;Node5 -->
<g id="edge4" class="edge">
<title>Node1&#45;&gt;Node5</title>
<path fill="none" stroke="midnightblue" d="M407.5,-145.98C407.5,-137.35 407.5,-127.76 407.5,-119.59"/>
<polygon fill="midnightblue" stroke="midnightblue" points="404,-146.23 407.5,-156.23 411,-146.23 404,-146.23"/>
</g>
<!-- Node6 -->
<g id="node6" class="node">
<title>Node6</title>
<g id="a_node6"><a xlink:href="bno055_8hpp.html" target="_top" xlink:title="BNO055 9軸センサ">
<polygon fill="white" stroke="black" points="502,-84 502,-114 663,-114 663,-84 502,-84"/>
<text text-anchor="start" x="510" y="-102" font-family="Helvetica,sans-Serif" font-size="10.00">alps_common_lib/include</text>
<text text-anchor="middle" x="582.5" y="-91" font-family="Helvetica,sans-Serif" font-size="10.00">/alps_cmn/sensor/bno055.hpp</text>
</a>
</g>
</g>
<!-- Node1&#45;&gt;Node6 -->
<g id="edge5" class="edge">
<title>Node1&#45;&gt;Node6</title>
<path fill="none" stroke="midnightblue" d="M451.8,-152.65C481.49,-140.69 520.04,-125.16 547.57,-114.07"/>
<polygon fill="midnightblue" stroke="midnightblue" points="450.46,-149.42 442.49,-156.4 453.08,-155.91 450.46,-149.42"/>
</g>
<!-- Node7 -->
<g id="node7" class="node">
<title>Node7</title>
<g id="a_node7"><a xlink:href="alps__common__lib_2include_2alps__cmn_2sensor_2incremental__encoder_8hpp.html" target="_top" xlink:title=" ">
<polygon fill="white" stroke="black" points="681,-78.5 681,-119.5 844,-119.5 844,-78.5 681,-78.5"/>
<text text-anchor="start" x="689" y="-107.5" font-family="Helvetica,sans-Serif" font-size="10.00">alps_common_lib/include</text>
<text text-anchor="start" x="689" y="-96.5" font-family="Helvetica,sans-Serif" font-size="10.00">/alps_cmn/sensor/incremental</text>
<text text-anchor="middle" x="762.5" y="-85.5" font-family="Helvetica,sans-Serif" font-size="10.00">_encoder.hpp</text>
</a>
</g>
</g>
<!-- Node1&#45;&gt;Node7 -->
<g id="edge6" class="edge">
<title>Node1&#45;&gt;Node7</title>
<path fill="none" stroke="midnightblue" d="M487.59,-155.89C540.22,-146.13 610.56,-132.78 672.5,-120 675.16,-119.45 677.87,-118.89 680.61,-118.31"/>
<polygon fill="midnightblue" stroke="midnightblue" points="486.83,-152.47 477.64,-157.73 488.11,-159.36 486.83,-152.47"/>
</g>
<!-- Node4 -->
<g id="node4" class="node">
<title>Node4</title>
<g id="a_node4"><a xlink:href="alps__mbed__lib_2include_2alps__mbed_2actuator_2servo__motor_8hpp.html" target="_top" xlink:title=" ">
<polygon fill="white" stroke="black" points="170.5,-0.5 170.5,-41.5 316.5,-41.5 316.5,-0.5 170.5,-0.5"/>
<text text-anchor="start" x="178.5" y="-29.5" font-family="Helvetica,sans-Serif" font-size="10.00">alps_mbed_lib/include</text>
<text text-anchor="start" x="178.5" y="-18.5" font-family="Helvetica,sans-Serif" font-size="10.00">/alps_mbed/actuator/servo</text>
<text text-anchor="middle" x="243.5" y="-7.5" font-family="Helvetica,sans-Serif" font-size="10.00">_motor.hpp</text>
</a>
</g>
</g>
<!-- Node3&#45;&gt;Node4 -->
<g id="edge3" class="edge">
<title>Node3&#45;&gt;Node4</title>
<path fill="none" stroke="midnightblue" d="M243.5,-68.3C243.5,-59.3 243.5,-49.65 243.5,-41.51"/>
<polygon fill="midnightblue" stroke="midnightblue" points="240,-68.43 243.5,-78.43 247,-68.43 240,-68.43"/>
</g>
<!-- Node8 -->
<g id="node8" class="node">
<title>Node8</title>
<g id="a_node8"><a xlink:href="alps__mbed__lib_2include_2alps__mbed_2sensor_2incremental__encoder_8hpp.html" target="_top" xlink:title=" ">
<polygon fill="white" stroke="black" points="677.5,-0.5 677.5,-41.5 847.5,-41.5 847.5,-0.5 677.5,-0.5"/>
<text text-anchor="start" x="685.5" y="-29.5" font-family="Helvetica,sans-Serif" font-size="10.00">alps_mbed_lib/include</text>
<text text-anchor="start" x="685.5" y="-18.5" font-family="Helvetica,sans-Serif" font-size="10.00">/alps_mbed/sensor/incremental</text>
<text text-anchor="middle" x="762.5" y="-7.5" font-family="Helvetica,sans-Serif" font-size="10.00">_encoder.hpp</text>
</a>
</g>
</g>
<!-- Node7&#45;&gt;Node8 -->
<g id="edge7" class="edge">
<title>Node7&#45;&gt;Node8</title>
<path fill="none" stroke="midnightblue" d="M762.5,-68.3C762.5,-59.3 762.5,-49.65 762.5,-41.51"/>
<polygon fill="midnightblue" stroke="midnightblue" points="759,-68.43 762.5,-78.43 766,-68.43 759,-68.43"/>
</g>
</g>
</svg>
