<?xml version="1.0" encoding="UTF-8" standalone="no"?>
<!DOCTYPE svg PUBLIC "-//W3C//DTD SVG 1.1//EN"
 "http://www.w3.org/Graphics/SVG/1.1/DTD/svg11.dtd">
<!-- Generated by graphviz version 2.43.0 (0)
 -->
<!-- Title: alps_common_lib/include/alps_cmn/util/angle.hpp Pages: 1 -->
<svg width="844pt" height="195pt"
 viewBox="0.00 0.00 843.50 195.00" xmlns="http://www.w3.org/2000/svg" xmlns:xlink="http://www.w3.org/1999/xlink">
<g id="graph0" class="graph" transform="scale(1 1) rotate(0) translate(4 191)">
<title>alps_common_lib/include/alps_cmn/util/angle.hpp</title>
<polygon fill="white" stroke="transparent" points="-4,4 -4,-191 839.5,-191 839.5,4 -4,4"/>
<!-- Node1 -->
<g id="node1" class="node">
<title>Node1</title>
<g id="a_node1"><a xlink:title=" ">
<polygon fill="#bfbfbf" stroke="black" points="331.5,-156.5 331.5,-186.5 471.5,-186.5 471.5,-156.5 331.5,-156.5"/>
<text text-anchor="start" x="339.5" y="-174.5" font-family="Helvetica,sans-Serif" font-size="10.00">alps_common_lib/include</text>
<text text-anchor="middle" x="401.5" y="-163.5" font-family="Helvetica,sans-Serif" font-size="10.00">/alps_cmn/util/angle.hpp</text>
</a>
</g>
</g>
<!-- Node2 -->
<g id="node2" class="node">
<title>Node2</title>
<g id="a_node2"><a xlink:href="robomas__motor_8hpp.html" target="_top" xlink:title="ロボマスモータのライブラリ">
<polygon fill="white" stroke="black" points="0,-78.5 0,-119.5 155,-119.5 155,-78.5 0,-78.5"/>
<text text-anchor="start" x="8" y="-107.5" font-family="Helvetica,sans-Serif" font-size="10.00">alps_common_lib/include</text>
<text text-anchor="start" x="8" y="-96.5" font-family="Helvetica,sans-Serif" font-size="10.00">/alps_cmn/actuator/robomas</text>
<text text-anchor="middle" x="77.5" y="-85.5" font-family="Helvetica,sans-Serif" font-size="10.00">_motor.hpp</text>
</a>
</g>
</g>
<!-- Node1&#45;&gt;Node2 -->
<g id="edge1" class="edge">
<title>Node1&#45;&gt;Node2</title>
<path fill="none" stroke="midnightblue" d="M324.29,-154.38C277.93,-144.61 217.79,-131.8 164.5,-120 161.47,-119.33 158.39,-118.64 155.27,-117.94"/>
<polygon fill="midnightblue" stroke="midnightblue" points="323.76,-157.84 334.27,-156.47 325.21,-150.99 323.76,-157.84"/>
</g>
<!-- Node3 -->
<g id="node3" class="node">
<title>Node3</title>
<g id="a_node3"><a xlink:href="alps__common__lib_2include_2alps__cmn_2actuator_2servo__motor_8hpp.html" target="_top" xlink:title=" ">
<polygon fill="white" stroke="black" points="173.5,-78.5 173.5,-119.5 313.5,-119.5 313.5,-78.5 173.5,-78.5"/>
<text text-anchor="start" x="181.5" y="-107.5" font-family="Helvetica,sans-Serif" font-size="10.00">alps_common_lib/include</text>
<text text-anchor="start" x="181.5" y="-96.5" font-family="Helvetica,sans-Serif" font-size="10.00">/alps_cmn/actuator/servo</text>
<text text-anchor="middle" x="243.5" y="-85.5" font-family="Helvetica,sans-Serif" font-size="10.00">_motor.hpp</text>
</a>
</g>
</g>
<!-- Node1&#45;&gt;Node3 -->
<g id="edge2" class="edge">
<title>Node1&#45;&gt;Node3</title>
<path fill="none" stroke="midnightblue" d="M360.63,-152.26C338.15,-142.23 310.24,-129.78 287.31,-119.55"/>
<polygon fill="midnightblue" stroke="midnightblue" points="359.35,-155.52 369.91,-156.4 362.2,-149.13 359.35,-155.52"/>
</g>
<!-- Node5 -->
<g id="node5" class="node">
<title>Node5</title>
<g id="a_node5"><a xlink:href="four__wheel__omni_8hpp.html" target="_top" xlink:title="4輪オムニホイールロボットの運動学モデルクラス">
<polygon fill="white" stroke="black" points="331.5,-78.5 331.5,-119.5 471.5,-119.5 471.5,-78.5 331.5,-78.5"/>
<text text-anchor="start" x="339.5" y="-107.5" font-family="Helvetica,sans-Serif" font-size="10.00">alps_common_lib/include</text>
<text text-anchor="start" x="339.5" y="-96.5" font-family="Helvetica,sans-Serif" font-size="10.00">/alps_cmn/robotics/four</text>
<text text-anchor="middle" x="401.5" y="-85.5" font-family="Helvetica,sans-Serif" font-size="10.00">_wheel_omni.hpp</text>
</a>
</g>
</g>
<!-- Node1&#45;&gt;Node5 -->
<g id="edge4" class="edge">
<title>Node1&#45;&gt;Node5</title>
<path fill="none" stroke="midnightblue" d="M401.5,-145.98C401.5,-137.35 401.5,-127.76 401.5,-119.59"/>
<polygon fill="midnightblue" stroke="midnightblue" points="398,-146.23 401.5,-156.23 405,-146.23 398,-146.23"/>
</g>
<!-- Node6 -->
<g id="node6" class="node">
<title>Node6</title>
<g id="a_node6"><a xlink:href="bno055_8hpp.html" target="_top" xlink:title="BNO055 9軸センサ">
<polygon fill="white" stroke="black" points="490,-84 490,-114 651,-114 651,-84 490,-84"/>
<text text-anchor="start" x="498" y="-102" font-family="Helvetica,sans-Serif" font-size="10.00">alps_common_lib/include</text>
<text text-anchor="middle" x="570.5" y="-91" font-family="Helvetica,sans-Serif" font-size="10.00">/alps_cmn/sensor/bno055.hpp</text>
</a>
</g>
</g>
<!-- Node1&#45;&gt;Node6 -->
<g id="edge5" class="edge">
<title>Node1&#45;&gt;Node6</title>
<path fill="none" stroke="midnightblue" d="M444.65,-152.5C473.27,-140.56 510.3,-125.11 536.77,-114.07"/>
<polygon fill="midnightblue" stroke="midnightblue" points="443.18,-149.32 435.29,-156.4 445.87,-155.78 443.18,-149.32"/>
</g>
<!-- Node7 -->
<g id="node7" class="node">
<title>Node7</title>
<g id="a_node7"><a xlink:href="alps__common__lib_2include_2alps__cmn_2sensor_2incremental__encoder_8hpp.html" target="_top" xlink:title=" ">
<polygon fill="white" stroke="black" points="669,-78.5 669,-119.5 832,-119.5 832,-78.5 669,-78.5"/>
<text text-anchor="start" x="677" y="-107.5" font-family="Helvetica,sans-Serif" font-size="10.00">alps_common_lib/include</text>
<text text-anchor="start" x="677" y="-96.5" font-family="Helvetica,sans-Serif" font-size="10.00">/alps_cmn/sensor/incremental</text>
<text text-anchor="middle" x="750.5" y="-85.5" font-family="Helvetica,sans-Serif" font-size="10.00">_encoder.hpp</text>
</a>
</g>
</g>
<!-- Node1&#45;&gt;Node7 -->
<g id="edge6" class="edge">
<title>Node1&#45;&gt;Node7</title>
<path fill="none" stroke="midnightblue" d="M481.69,-155.42C532.91,-145.66 600.69,-132.47 660.5,-120 663.16,-119.44 665.87,-118.87 668.6,-118.29"/>
<polygon fill="midnightblue" stroke="midnightblue" points="480.85,-152.02 471.68,-157.33 482.16,-158.9 480.85,-152.02"/>
</g>
<!-- Node4 -->
<g id="node4" class="node">
<title>Node4</title>
<g id="a_node4"><a xlink:href="alps__mbed__lib_2include_2alps__mbed_2actuator_2servo__motor_8hpp.html" target="_top" xlink:title=" ">
<polygon fill="white" stroke="black" points="170.5,-0.5 170.5,-41.5 316.5,-41.5 316.5,-0.5 170.5,-0.5"/>
<text text-anchor="start" x="178.5" y="-29.5" font-family="Helvetica,sans-Serif" font-size="10.00">alps_mbed_lib/include</text>
<text text-anchor="start" x="178.5" y="-18.5" font-family="Helvetica,sans-Serif" font-size="10.00">/alps_mbed/actuator/servo</text>
<text text-anchor="middle" x="243.5" y="-7.5" font-family="Helvetica,sans-Serif" font-size="10.00">_motor.hpp</text>
</a>
</g>
</g>
<!-- Node3&#45;&gt;Node4 -->
<g id="edge3" class="edge">
<title>Node3&#45;&gt;Node4</title>
<path fill="none" stroke="midnightblue" d="M243.5,-68.3C243.5,-59.3 243.5,-49.65 243.5,-41.51"/>
<polygon fill="midnightblue" stroke="midnightblue" points="240,-68.43 243.5,-78.43 247,-68.43 240,-68.43"/>
</g>
<!-- Node8 -->
<g id="node8" class="node">
<title>Node8</title>
<g id="a_node8"><a xlink:href="alps__mbed__lib_2include_2alps__mbed_2sensor_2incremental__encoder_8hpp.html" target="_top" xlink:title=" ">
<polygon fill="white" stroke="black" points="665.5,-0.5 665.5,-41.5 835.5,-41.5 835.5,-0.5 665.5,-0.5"/>
<text text-anchor="start" x="673.5" y="-29.5" font-family="Helvetica,sans-Serif" font-size="10.00">alps_mbed_lib/include</text>
<text text-anchor="start" x="673.5" y="-18.5" font-family="Helvetica,sans-Serif" font-size="10.00">/alps_mbed/sensor/incremental</text>
<text text-anchor="middle" x="750.5" y="-7.5" font-family="Helvetica,sans-Serif" font-size="10.00">_encoder.hpp</text>
</a>
</g>
</g>
<!-- Node7&#45;&gt;Node8 -->
<g id="edge7" class="edge">
<title>Node7&#45;&gt;Node8</title>
<path fill="none" stroke="midnightblue" d="M750.5,-68.3C750.5,-59.3 750.5,-49.65 750.5,-41.51"/>
<polygon fill="midnightblue" stroke="midnightblue" points="747,-68.43 750.5,-78.43 754,-68.43 747,-68.43"/>
</g>
</g>
</svg>
