<?xml version="1.0" encoding="UTF-8" standalone="no"?>
<!DOCTYPE svg PUBLIC "-//W3C//DTD SVG 1.1//EN"
 "http://www.w3.org/Graphics/SVG/1.1/DTD/svg11.dtd">
<!-- Generated by graphviz version 2.43.0 (0)
 -->
<!-- Title: alps_common_lib/include/alps_cmn/util/angle.hpp Pages: 1 -->
<svg width="844pt" height="192pt"
 viewBox="0.00 0.00 843.50 192.00" xmlns="http://www.w3.org/2000/svg" xmlns:xlink="http://www.w3.org/1999/xlink">
<g id="graph0" class="graph" transform="scale(1 1) rotate(0) translate(4 188)">
<title>alps_common_lib/include/alps_cmn/util/angle.hpp</title>
<!-- Node1 -->
<g id="node1" class="node">
<title>Node1</title>
<g id="a_node1"><a xlink:title=" ">
<polygon fill="#999999" stroke="#666666" points="471.5,-184 331.5,-184 331.5,-154 471.5,-154 471.5,-184"/>
<text text-anchor="start" x="339.5" y="-172" font-family="Helvetica,sans-Serif" font-size="10.00">alps_common_lib/include</text>
<text text-anchor="middle" x="401.5" y="-161" font-family="Helvetica,sans-Serif" font-size="10.00">/alps_cmn/util/angle.hpp</text>
</a>
</g>
</g>
<!-- Node2 -->
<g id="node2" class="node">
<title>Node2</title>
<g id="a_node2"><a xlink:href="robomas__motor_8hpp.html" target="_top" xlink:title="ロボマスモータのライブラリ">
<polygon fill="white" stroke="#666666" points="155,-118 0,-118 0,-77 155,-77 155,-118"/>
<text text-anchor="start" x="8" y="-106" font-family="Helvetica,sans-Serif" font-size="10.00">alps_common_lib/include</text>
<text text-anchor="start" x="8" y="-95" font-family="Helvetica,sans-Serif" font-size="10.00">/alps_cmn/actuator/robomas</text>
<text text-anchor="middle" x="77.5" y="-84" font-family="Helvetica,sans-Serif" font-size="10.00">_motor.hpp</text>
</a>
</g>
</g>
<!-- Node1&#45;&gt;Node2 -->
<g id="edge1" class="edge">
<title>Node1&#45;&gt;Node2</title>
<path fill="none" stroke="#63b8ff" d="M323.81,-151.87C277.52,-142.19 217.62,-129.56 164.5,-118 161.47,-117.34 158.39,-116.67 155.28,-115.98"/>
<polygon fill="#63b8ff" stroke="#63b8ff" points="323.27,-155.33 333.77,-153.95 324.7,-148.48 323.27,-155.33"/>
</g>
<!-- Node3 -->
<g id="node3" class="node">
<title>Node3</title>
<g id="a_node3"><a xlink:href="alps__common__lib_2include_2alps__cmn_2actuator_2servo__motor_8hpp.html" target="_top" xlink:title=" ">
<polygon fill="white" stroke="#666666" points="313.5,-118 173.5,-118 173.5,-77 313.5,-77 313.5,-118"/>
<text text-anchor="start" x="181.5" y="-106" font-family="Helvetica,sans-Serif" font-size="10.00">alps_common_lib/include</text>
<text text-anchor="start" x="181.5" y="-95" font-family="Helvetica,sans-Serif" font-size="10.00">/alps_cmn/actuator/servo</text>
<text text-anchor="middle" x="243.5" y="-84" font-family="Helvetica,sans-Serif" font-size="10.00">_motor.hpp</text>
</a>
</g>
</g>
<!-- Node1&#45;&gt;Node3 -->
<g id="edge2" class="edge">
<title>Node1&#45;&gt;Node3</title>
<path fill="none" stroke="#63b8ff" d="M360.36,-149.9C338.15,-140.13 310.71,-128.06 288,-118.07"/>
<polygon fill="#63b8ff" stroke="#63b8ff" points="358.96,-153.11 369.53,-153.94 361.78,-146.71 358.96,-153.11"/>
</g>
<!-- Node5 -->
<g id="node5" class="node">
<title>Node5</title>
<g id="a_node5"><a xlink:href="four__wheel__omni_8hpp.html" target="_top" xlink:title="4輪オムニホイールロボットの運動学モデルクラス">
<polygon fill="white" stroke="#666666" points="471.5,-118 331.5,-118 331.5,-77 471.5,-77 471.5,-118"/>
<text text-anchor="start" x="339.5" y="-106" font-family="Helvetica,sans-Serif" font-size="10.00">alps_common_lib/include</text>
<text text-anchor="start" x="339.5" y="-95" font-family="Helvetica,sans-Serif" font-size="10.00">/alps_cmn/robotics/four</text>
<text text-anchor="middle" x="401.5" y="-84" font-family="Helvetica,sans-Serif" font-size="10.00">_wheel_omni.hpp</text>
</a>
</g>
</g>
<!-- Node1&#45;&gt;Node5 -->
<g id="edge4" class="edge">
<title>Node1&#45;&gt;Node5</title>
<path fill="none" stroke="#63b8ff" d="M401.5,-143.91C401.5,-135.47 401.5,-126.1 401.5,-118.07"/>
<polygon fill="#63b8ff" stroke="#63b8ff" points="398,-143.94 401.5,-153.94 405,-143.94 398,-143.94"/>
</g>
<!-- Node6 -->
<g id="node6" class="node">
<title>Node6</title>
<g id="a_node6"><a xlink:href="bno055_8hpp.html" target="_top" xlink:title="BNO055 9軸センサ">
<polygon fill="white" stroke="#666666" points="651,-112.5 490,-112.5 490,-82.5 651,-82.5 651,-112.5"/>
<text text-anchor="start" x="498" y="-100.5" font-family="Helvetica,sans-Serif" font-size="10.00">alps_common_lib/include</text>
<text text-anchor="middle" x="570.5" y="-89.5" font-family="Helvetica,sans-Serif" font-size="10.00">/alps_cmn/sensor/bno055.hpp</text>
</a>
</g>
</g>
<!-- Node1&#45;&gt;Node6 -->
<g id="edge5" class="edge">
<title>Node1&#45;&gt;Node6</title>
<path fill="none" stroke="#63b8ff" d="M445,-150.11C473.43,-138.42 510.02,-123.37 536.35,-112.54"/>
<polygon fill="#63b8ff" stroke="#63b8ff" points="443.62,-146.9 435.7,-153.94 446.28,-153.37 443.62,-146.9"/>
</g>
<!-- Node7 -->
<g id="node7" class="node">
<title>Node7</title>
<g id="a_node7"><a xlink:href="alps__common__lib_2include_2alps__cmn_2sensor_2incremental__encoder_8hpp.html" target="_top" xlink:title=" ">
<polygon fill="white" stroke="#666666" points="832,-118 669,-118 669,-77 832,-77 832,-118"/>
<text text-anchor="start" x="677" y="-106" font-family="Helvetica,sans-Serif" font-size="10.00">alps_common_lib/include</text>
<text text-anchor="start" x="677" y="-95" font-family="Helvetica,sans-Serif" font-size="10.00">/alps_cmn/sensor/incremental</text>
<text text-anchor="middle" x="750.5" y="-84" font-family="Helvetica,sans-Serif" font-size="10.00">_encoder.hpp</text>
</a>
</g>
</g>
<!-- Node1&#45;&gt;Node7 -->
<g id="edge6" class="edge">
<title>Node1&#45;&gt;Node7</title>
<path fill="none" stroke="#63b8ff" d="M481.68,-153.01C532.89,-143.31 600.67,-130.26 660.5,-118 663.16,-117.45 665.87,-116.9 668.6,-116.33"/>
<polygon fill="#63b8ff" stroke="#63b8ff" points="480.84,-149.6 471.66,-154.9 482.14,-156.48 480.84,-149.6"/>
</g>
<!-- Node4 -->
<g id="node4" class="node">
<title>Node4</title>
<g id="a_node4"><a xlink:href="alps__mbed__lib_2include_2alps__mbed_2actuator_2servo__motor_8hpp.html" target="_top" xlink:title=" ">
<polygon fill="white" stroke="#666666" points="316.5,-41 170.5,-41 170.5,0 316.5,0 316.5,-41"/>
<text text-anchor="start" x="178.5" y="-29" font-family="Helvetica,sans-Serif" font-size="10.00">alps_mbed_lib/include</text>
<text text-anchor="start" x="178.5" y="-18" font-family="Helvetica,sans-Serif" font-size="10.00">/alps_mbed/actuator/servo</text>
<text text-anchor="middle" x="243.5" y="-7" font-family="Helvetica,sans-Serif" font-size="10.00">_motor.hpp</text>
</a>
</g>
</g>
<!-- Node3&#45;&gt;Node4 -->
<g id="edge3" class="edge">
<title>Node3&#45;&gt;Node4</title>
<path fill="none" stroke="#63b8ff" d="M243.5,-66.69C243.5,-58.08 243.5,-48.9 243.5,-41.07"/>
<polygon fill="#63b8ff" stroke="#63b8ff" points="240,-66.79 243.5,-76.79 247,-66.79 240,-66.79"/>
</g>
<!-- Node8 -->
<g id="node8" class="node">
<title>Node8</title>
<g id="a_node8"><a xlink:href="alps__mbed__lib_2include_2alps__mbed_2sensor_2incremental__encoder_8hpp.html" target="_top" xlink:title=" ">
<polygon fill="white" stroke="#666666" points="835.5,-41 665.5,-41 665.5,0 835.5,0 835.5,-41"/>
<text text-anchor="start" x="673.5" y="-29" font-family="Helvetica,sans-Serif" font-size="10.00">alps_mbed_lib/include</text>
<text text-anchor="start" x="673.5" y="-18" font-family="Helvetica,sans-Serif" font-size="10.00">/alps_mbed/sensor/incremental</text>
<text text-anchor="middle" x="750.5" y="-7" font-family="Helvetica,sans-Serif" font-size="10.00">_encoder.hpp</text>
</a>
</g>
</g>
<!-- Node7&#45;&gt;Node8 -->
<g id="edge7" class="edge">
<title>Node7&#45;&gt;Node8</title>
<path fill="none" stroke="#63b8ff" d="M750.5,-66.69C750.5,-58.08 750.5,-48.9 750.5,-41.07"/>
<polygon fill="#63b8ff" stroke="#63b8ff" points="747,-66.79 750.5,-76.79 754,-66.79 747,-66.79"/>
</g>
</g>
</svg>
