<?xml version="1.0" encoding="UTF-8" standalone="no"?>
<!DOCTYPE svg PUBLIC "-//W3C//DTD SVG 1.1//EN"
 "http://www.w3.org/Graphics/SVG/1.1/DTD/svg11.dtd">
<!-- Generated by graphviz version 2.43.0 (0)
 -->
<!-- Title: alps_core/lib_internal/alps_common_lib/include/alps_cmn/type/array_traits.hpp Pages: 1 -->
<svg width="221pt" height="162pt"
 viewBox="0.00 0.00 221.00 162.00" xmlns="http://www.w3.org/2000/svg" xmlns:xlink="http://www.w3.org/1999/xlink">
<g id="graph0" class="graph" transform="scale(1 1) rotate(0) translate(4 158)">
<title>alps_core/lib_internal/alps_common_lib/include/alps_cmn/type/array_traits.hpp</title>
<polygon fill="white" stroke="transparent" points="-4,4 -4,-158 217,-158 217,4 -4,4"/>
<!-- Node1 -->
<g id="node1" class="node">
<title>Node1</title>
<g id="a_node1"><a xlink:title="array関係の型特性">
<polygon fill="#bfbfbf" stroke="black" points="0,-112.5 0,-153.5 171,-153.5 171,-112.5 0,-112.5"/>
<text text-anchor="start" x="8" y="-141.5" font-family="Helvetica,sans-Serif" font-size="10.00">alps_core/lib_internal</text>
<text text-anchor="start" x="8" y="-130.5" font-family="Helvetica,sans-Serif" font-size="10.00">/alps_common_lib/include</text>
<text text-anchor="middle" x="85.5" y="-119.5" font-family="Helvetica,sans-Serif" font-size="10.00">/alps_cmn/type/array_traits.hpp</text>
</a>
</g>
</g>
<!-- Node2 -->
<g id="node2" class="node">
<title>Node2</title>
<g id="a_node2"><a xlink:title=" ">
<polygon fill="white" stroke="#bfbfbf" points="14,-0.5 14,-19.5 83,-19.5 83,-0.5 14,-0.5"/>
<text text-anchor="middle" x="48.5" y="-7.5" font-family="Helvetica,sans-Serif" font-size="10.00">type_traits</text>
</a>
</g>
</g>
<!-- Node1&#45;&gt;Node2 -->
<g id="edge1" class="edge">
<title>Node1&#45;&gt;Node2</title>
<path fill="none" stroke="midnightblue" d="M76.43,-112.36C71.79,-101.76 66.33,-88.35 62.5,-76 57.74,-60.65 54.01,-42.77 51.61,-29.66"/>
<polygon fill="midnightblue" stroke="midnightblue" points="55.01,-28.79 49.84,-19.54 48.11,-29.99 55.01,-28.79"/>
</g>
<!-- Node3 -->
<g id="node3" class="node">
<title>Node3</title>
<g id="a_node3"><a xlink:href="container__traits_8hpp.html" target="_top" xlink:title="container関係の型特性">
<polygon fill="white" stroke="black" points="71.5,-56.5 71.5,-75.5 185.5,-75.5 185.5,-56.5 71.5,-56.5"/>
<text text-anchor="middle" x="128.5" y="-63.5" font-family="Helvetica,sans-Serif" font-size="10.00">container_traits.hpp</text>
</a>
</g>
</g>
<!-- Node1&#45;&gt;Node3 -->
<g id="edge2" class="edge">
<title>Node1&#45;&gt;Node3</title>
<path fill="none" stroke="midnightblue" d="M98.4,-112.5C104.36,-103.49 111.37,-92.89 117.13,-84.19"/>
<polygon fill="midnightblue" stroke="midnightblue" points="120.18,-85.92 122.78,-75.65 114.34,-82.06 120.18,-85.92"/>
</g>
<!-- Node3&#45;&gt;Node2 -->
<g id="edge4" class="edge">
<title>Node3&#45;&gt;Node2</title>
<path fill="none" stroke="midnightblue" d="M115.65,-56.32C103.28,-47.98 84.37,-35.21 69.76,-25.35"/>
<polygon fill="midnightblue" stroke="midnightblue" points="71.57,-22.35 61.32,-19.65 67.65,-28.15 71.57,-22.35"/>
</g>
<!-- Node4 -->
<g id="node4" class="node">
<title>Node4</title>
<g id="a_node4"><a xlink:title=" ">
<polygon fill="white" stroke="#bfbfbf" points="103.5,-0.5 103.5,-19.5 147.5,-19.5 147.5,-0.5 103.5,-0.5"/>
<text text-anchor="middle" x="125.5" y="-7.5" font-family="Helvetica,sans-Serif" font-size="10.00">string</text>
</a>
</g>
</g>
<!-- Node3&#45;&gt;Node4 -->
<g id="edge3" class="edge">
<title>Node3&#45;&gt;Node4</title>
<path fill="none" stroke="midnightblue" d="M128,-56.08C127.61,-49.01 127.05,-38.86 126.55,-29.99"/>
<polygon fill="midnightblue" stroke="midnightblue" points="130.04,-29.54 125.99,-19.75 123.05,-29.93 130.04,-29.54"/>
</g>
<!-- Node5 -->
<g id="node5" class="node">
<title>Node5</title>
<g id="a_node5"><a xlink:title=" ">
<polygon fill="white" stroke="#bfbfbf" points="166,-0.5 166,-19.5 213,-19.5 213,-0.5 166,-0.5"/>
<text text-anchor="middle" x="189.5" y="-7.5" font-family="Helvetica,sans-Serif" font-size="10.00">vector</text>
</a>
</g>
</g>
<!-- Node3&#45;&gt;Node5 -->
<g id="edge5" class="edge">
<title>Node3&#45;&gt;Node5</title>
<path fill="none" stroke="midnightblue" d="M138.3,-56.32C147.32,-48.34 160.91,-36.31 171.82,-26.65"/>
<polygon fill="midnightblue" stroke="midnightblue" points="174.35,-29.08 179.52,-19.83 169.71,-23.84 174.35,-29.08"/>
</g>
</g>
</svg>
