<?xml version="1.0" encoding="UTF-8" standalone="no"?>
<!DOCTYPE svg PUBLIC "-//W3C//DTD SVG 1.1//EN"
 "http://www.w3.org/Graphics/SVG/1.1/DTD/svg11.dtd">
<!-- Generated by graphviz version 2.43.0 (0)
 -->
<!-- Title: alps_core/lib_internal/alps_common_lib/include/alps_cmn/log/assert.hpp Pages: 1 -->
<svg width="180pt" height="162pt"
 viewBox="0.00 0.00 179.50 162.00" xmlns="http://www.w3.org/2000/svg" xmlns:xlink="http://www.w3.org/1999/xlink">
<g id="graph0" class="graph" transform="scale(1 1) rotate(0) translate(4 158)">
<title>alps_core/lib_internal/alps_common_lib/include/alps_cmn/log/assert.hpp</title>
<polygon fill="white" stroke="transparent" points="-4,4 -4,-158 175.5,-158 175.5,4 -4,4"/>
<!-- Node1 -->
<g id="node1" class="node">
<title>Node1</title>
<g id="a_node1"><a xlink:title="プリプロセッサ定数で有効無効を設定できる実行時アサーションのマクロ">
<polygon fill="#bfbfbf" stroke="black" points="17.5,-112.5 17.5,-153.5 160.5,-153.5 160.5,-112.5 17.5,-112.5"/>
<text text-anchor="start" x="25.5" y="-141.5" font-family="Helvetica,sans-Serif" font-size="10.00">alps_core/lib_internal</text>
<text text-anchor="start" x="25.5" y="-130.5" font-family="Helvetica,sans-Serif" font-size="10.00">/alps_common_lib/include</text>
<text text-anchor="middle" x="89" y="-119.5" font-family="Helvetica,sans-Serif" font-size="10.00">/alps_cmn/log/assert.hpp</text>
</a>
</g>
</g>
<!-- Node2 -->
<g id="node2" class="node">
<title>Node2</title>
<g id="a_node2"><a xlink:href="logger_8hpp.html" target="_top" xlink:title=" ">
<polygon fill="white" stroke="black" points="21.5,-56.5 21.5,-75.5 156.5,-75.5 156.5,-56.5 21.5,-56.5"/>
<text text-anchor="middle" x="89" y="-63.5" font-family="Helvetica,sans-Serif" font-size="10.00">alps_cmn/log/logger.hpp</text>
</a>
</g>
</g>
<!-- Node1&#45;&gt;Node2 -->
<g id="edge1" class="edge">
<title>Node1&#45;&gt;Node2</title>
<path fill="none" stroke="midnightblue" d="M89,-112.5C89,-104.07 89,-94.24 89,-85.87"/>
<polygon fill="midnightblue" stroke="midnightblue" points="92.5,-85.65 89,-75.65 85.5,-85.65 92.5,-85.65"/>
</g>
<!-- Node3 -->
<g id="node3" class="node">
<title>Node3</title>
<g id="a_node3"><a xlink:title=" ">
<polygon fill="white" stroke="#bfbfbf" points="0,-0.5 0,-19.5 84,-19.5 84,-0.5 0,-0.5"/>
<text text-anchor="middle" x="42" y="-7.5" font-family="Helvetica,sans-Serif" font-size="10.00">etl/delegate.h</text>
</a>
</g>
</g>
<!-- Node2&#45;&gt;Node3 -->
<g id="edge2" class="edge">
<title>Node2&#45;&gt;Node3</title>
<path fill="none" stroke="midnightblue" d="M81.24,-56.08C74.46,-48.3 64.46,-36.8 56.24,-27.37"/>
<polygon fill="midnightblue" stroke="midnightblue" points="58.82,-25 49.62,-19.75 53.54,-29.59 58.82,-25"/>
</g>
<!-- Node4 -->
<g id="node4" class="node">
<title>Node4</title>
<g id="a_node4"><a xlink:title=" ">
<polygon fill="white" stroke="#bfbfbf" points="102.5,-0.5 102.5,-19.5 171.5,-19.5 171.5,-0.5 102.5,-0.5"/>
<text text-anchor="middle" x="137" y="-7.5" font-family="Helvetica,sans-Serif" font-size="10.00">etl/string.h</text>
</a>
</g>
</g>
<!-- Node2&#45;&gt;Node4 -->
<g id="edge3" class="edge">
<title>Node2&#45;&gt;Node4</title>
<path fill="none" stroke="midnightblue" d="M96.93,-56.08C103.85,-48.3 114.07,-36.8 122.45,-27.37"/>
<polygon fill="midnightblue" stroke="midnightblue" points="125.19,-29.55 129.22,-19.75 119.96,-24.9 125.19,-29.55"/>
</g>
</g>
</svg>
