<?xml version="1.0" encoding="UTF-8" standalone="no"?>
<!DOCTYPE svg PUBLIC "-//W3C//DTD SVG 1.1//EN"
 "http://www.w3.org/Graphics/SVG/1.1/DTD/svg11.dtd">
<!-- Generated by graphviz version 2.43.0 (0)
 -->
<!-- Title: alps_common_lib/include/alps_cmn/sensor/bno055.hpp Pages: 1 -->
<svg width="513pt" height="159pt"
 viewBox="0.00 0.00 512.50 159.00" xmlns="http://www.w3.org/2000/svg" xmlns:xlink="http://www.w3.org/1999/xlink">
<g id="graph0" class="graph" transform="scale(1 1) rotate(0) translate(4 155)">
<title>alps_common_lib/include/alps_cmn/sensor/bno055.hpp</title>
<!-- Node1 -->
<g id="node1" class="node">
<title>Node1</title>
<g id="a_node1"><a xlink:title="BNO055 9軸センサ">
<polygon fill="#999999" stroke="#666666" points="315.5,-151 154.5,-151 154.5,-121 315.5,-121 315.5,-151"/>
<text text-anchor="start" x="162.5" y="-139" font-family="Helvetica,sans-Serif" font-size="10.00">alps_common_lib/include</text>
<text text-anchor="middle" x="235" y="-128" font-family="Helvetica,sans-Serif" font-size="10.00">/alps_cmn/sensor/bno055.hpp</text>
</a>
</g>
</g>
<!-- Node2 -->
<g id="node2" class="node">
<title>Node2</title>
<g id="a_node2"><a xlink:title=" ">
<polygon fill="#e0e0e0" stroke="#999999" points="229,-19 179,-19 179,0 229,0 229,-19"/>
<text text-anchor="middle" x="204" y="-7" font-family="Helvetica,sans-Serif" font-size="10.00">chrono</text>
</a>
</g>
</g>
<!-- Node1&#45;&gt;Node2 -->
<g id="edge1" class="edge">
<title>Node1&#45;&gt;Node2</title>
<path fill="none" stroke="#63b8ff" d="M223.58,-120.65C216.75,-111.14 208.71,-98.05 205,-85 199.81,-66.76 200.24,-44.97 201.55,-29.69"/>
<polygon fill="#63b8ff" stroke="#63b8ff" points="205.07,-29.75 202.65,-19.43 198.11,-29 205.07,-29.75"/>
</g>
<!-- Node3 -->
<g id="node3" class="node">
<title>Node3</title>
<g id="a_node3"><a xlink:href="i__i2c__io_8hpp.html" target="_top" xlink:title="I2C通信インタフェース">
<polygon fill="white" stroke="#666666" points="158,-85 16,-85 16,-55 158,-55 158,-85"/>
<text text-anchor="start" x="24" y="-73" font-family="Helvetica,sans-Serif" font-size="10.00">alps_cmn/communication</text>
<text text-anchor="middle" x="87" y="-62" font-family="Helvetica,sans-Serif" font-size="10.00">/i_i2c_io.hpp</text>
</a>
</g>
</g>
<!-- Node1&#45;&gt;Node3 -->
<g id="edge2" class="edge">
<title>Node1&#45;&gt;Node3</title>
<path fill="none" stroke="#63b8ff" d="M202.52,-120.95C180.83,-111.58 152.11,-99.16 128.73,-89.05"/>
<polygon fill="#63b8ff" stroke="#63b8ff" points="129.97,-85.77 119.4,-85.01 127.19,-92.19 129.97,-85.77"/>
</g>
<!-- Node6 -->
<g id="node6" class="node">
<title>Node6</title>
<g id="a_node6"><a xlink:href="sleep_8hpp.html" target="_top" xlink:title="スリープ関数の定義">
<polygon fill="white" stroke="#666666" points="353.5,-79.5 214.5,-79.5 214.5,-60.5 353.5,-60.5 353.5,-79.5"/>
<text text-anchor="middle" x="284" y="-67.5" font-family="Helvetica,sans-Serif" font-size="10.00">alps_cmn/time/sleep.hpp</text>
</a>
</g>
</g>
<!-- Node1&#45;&gt;Node6 -->
<g id="edge5" class="edge">
<title>Node1&#45;&gt;Node6</title>
<path fill="none" stroke="#63b8ff" d="M245.87,-120.8C253.29,-111.11 263.14,-98.24 270.98,-88.01"/>
<polygon fill="#63b8ff" stroke="#63b8ff" points="273.93,-89.91 277.23,-79.84 268.37,-85.66 273.93,-89.91"/>
</g>
<!-- Node8 -->
<g id="node8" class="node">
<title>Node8</title>
<g id="a_node8"><a xlink:href="angle_8hpp.html" target="_top" xlink:title=" ">
<polygon fill="white" stroke="#666666" points="504.5,-79.5 371.5,-79.5 371.5,-60.5 504.5,-60.5 504.5,-79.5"/>
<text text-anchor="middle" x="438" y="-67.5" font-family="Helvetica,sans-Serif" font-size="10.00">alps_cmn/util/angle.hpp</text>
</a>
</g>
</g>
<!-- Node1&#45;&gt;Node8 -->
<g id="edge8" class="edge">
<title>Node1&#45;&gt;Node8</title>
<path fill="none" stroke="#63b8ff" d="M279.55,-120.95C316.09,-109.43 367.19,-93.32 401.38,-82.54"/>
<polygon fill="#63b8ff" stroke="#63b8ff" points="402.5,-85.86 410.98,-79.52 400.39,-79.19 402.5,-85.86"/>
</g>
<!-- Node4 -->
<g id="node4" class="node">
<title>Node4</title>
<g id="a_node4"><a xlink:title=" ">
<polygon fill="#e0e0e0" stroke="#999999" points="50,-19 0,-19 0,0 50,0 50,-19"/>
<text text-anchor="middle" x="25" y="-7" font-family="Helvetica,sans-Serif" font-size="10.00">cstdint</text>
</a>
</g>
</g>
<!-- Node3&#45;&gt;Node4 -->
<g id="edge3" class="edge">
<title>Node3&#45;&gt;Node4</title>
<path fill="none" stroke="#63b8ff" d="M71.99,-54.84C62.81,-46.17 51.05,-35.08 41.59,-26.15"/>
<polygon fill="#63b8ff" stroke="#63b8ff" points="43.97,-23.58 34.29,-19.27 39.16,-28.67 43.97,-23.58"/>
</g>
<!-- Node5 -->
<g id="node5" class="node">
<title>Node5</title>
<g id="a_node5"><a xlink:title=" ">
<polygon fill="#e0e0e0" stroke="#999999" points="133.5,-19 68.5,-19 68.5,0 133.5,0 133.5,-19"/>
<text text-anchor="middle" x="101" y="-7" font-family="Helvetica,sans-Serif" font-size="10.00">etl/span.h</text>
</a>
</g>
</g>
<!-- Node3&#45;&gt;Node5 -->
<g id="edge4" class="edge">
<title>Node3&#45;&gt;Node5</title>
<path fill="none" stroke="#63b8ff" d="M90.39,-54.84C92.23,-47.13 94.54,-37.49 96.53,-29.17"/>
<polygon fill="#63b8ff" stroke="#63b8ff" points="99.98,-29.81 98.9,-19.27 93.17,-28.18 99.98,-29.81"/>
</g>
<!-- Node6&#45;&gt;Node2 -->
<g id="edge6" class="edge">
<title>Node6&#45;&gt;Node2</title>
<path fill="none" stroke="#63b8ff" d="M272.2,-60.37C259.55,-51.12 239.26,-36.28 224.09,-25.19"/>
<polygon fill="#63b8ff" stroke="#63b8ff" points="225.99,-22.24 215.85,-19.17 221.86,-27.9 225.99,-22.24"/>
</g>
<!-- Node7 -->
<g id="node7" class="node">
<title>Node7</title>
<g id="a_node7"><a xlink:title=" ">
<polygon fill="#e0e0e0" stroke="#999999" points="308,-19 260,-19 260,0 308,0 308,-19"/>
<text text-anchor="middle" x="284" y="-7" font-family="Helvetica,sans-Serif" font-size="10.00">thread</text>
</a>
</g>
</g>
<!-- Node6&#45;&gt;Node7 -->
<g id="edge7" class="edge">
<title>Node6&#45;&gt;Node7</title>
<path fill="none" stroke="#63b8ff" d="M284,-60.37C284,-52.25 284,-39.81 284,-29.39"/>
<polygon fill="#63b8ff" stroke="#63b8ff" points="287.5,-29.17 284,-19.17 280.5,-29.17 287.5,-29.17"/>
</g>
</g>
</svg>
