<?xml version="1.0" encoding="UTF-8" standalone="no"?>
<!DOCTYPE svg PUBLIC "-//W3C//DTD SVG 1.1//EN"
 "http://www.w3.org/Graphics/SVG/1.1/DTD/svg11.dtd">
<!-- Generated by graphviz version 2.43.0 (0)
 -->
<!-- Title: alps_core/lib_internal/alps_common_lib/include/alps_cmn/sensor/bno055.hpp Pages: 1 -->
<svg width="513pt" height="173pt"
 viewBox="0.00 0.00 512.50 173.00" xmlns="http://www.w3.org/2000/svg" xmlns:xlink="http://www.w3.org/1999/xlink">
<g id="graph0" class="graph" transform="scale(1 1) rotate(0) translate(4 169)">
<title>alps_core/lib_internal/alps_common_lib/include/alps_cmn/sensor/bno055.hpp</title>
<polygon fill="white" stroke="transparent" points="-4,4 -4,-169 508.5,-169 508.5,4 -4,4"/>
<!-- Node1 -->
<g id="node1" class="node">
<title>Node1</title>
<g id="a_node1"><a xlink:title="BNO055 9軸センサ">
<polygon fill="#bfbfbf" stroke="black" points="154.5,-123.5 154.5,-164.5 315.5,-164.5 315.5,-123.5 154.5,-123.5"/>
<text text-anchor="start" x="162.5" y="-152.5" font-family="Helvetica,sans-Serif" font-size="10.00">alps_core/lib_internal</text>
<text text-anchor="start" x="162.5" y="-141.5" font-family="Helvetica,sans-Serif" font-size="10.00">/alps_common_lib/include</text>
<text text-anchor="middle" x="235" y="-130.5" font-family="Helvetica,sans-Serif" font-size="10.00">/alps_cmn/sensor/bno055.hpp</text>
</a>
</g>
</g>
<!-- Node2 -->
<g id="node2" class="node">
<title>Node2</title>
<g id="a_node2"><a xlink:title=" ">
<polygon fill="white" stroke="#bfbfbf" points="179,-0.5 179,-19.5 229,-19.5 229,-0.5 179,-0.5"/>
<text text-anchor="middle" x="204" y="-7.5" font-family="Helvetica,sans-Serif" font-size="10.00">chrono</text>
</a>
</g>
</g>
<!-- Node1&#45;&gt;Node2 -->
<g id="edge1" class="edge">
<title>Node1&#45;&gt;Node2</title>
<path fill="none" stroke="midnightblue" d="M221.55,-123.49C215.22,-113.14 208.33,-99.92 205,-87 200.11,-68.06 200.55,-45.58 201.78,-30"/>
<polygon fill="midnightblue" stroke="midnightblue" points="205.31,-29.9 202.81,-19.61 198.34,-29.22 205.31,-29.9"/>
</g>
<!-- Node3 -->
<g id="node3" class="node">
<title>Node3</title>
<g id="a_node3"><a xlink:href="i__i2c__io_8hpp.html" target="_top" xlink:title="I2C通信インタフェース">
<polygon fill="white" stroke="black" points="16,-56.5 16,-86.5 158,-86.5 158,-56.5 16,-56.5"/>
<text text-anchor="start" x="24" y="-74.5" font-family="Helvetica,sans-Serif" font-size="10.00">alps_cmn/communication</text>
<text text-anchor="middle" x="87" y="-63.5" font-family="Helvetica,sans-Serif" font-size="10.00">/i_i2c_io.hpp</text>
</a>
</g>
</g>
<!-- Node1&#45;&gt;Node3 -->
<g id="edge2" class="edge">
<title>Node1&#45;&gt;Node3</title>
<path fill="none" stroke="midnightblue" d="M193.77,-123.36C172.56,-113.26 146.84,-101.01 125.97,-91.06"/>
<polygon fill="midnightblue" stroke="midnightblue" points="127.28,-87.81 116.75,-86.67 124.27,-94.13 127.28,-87.81"/>
</g>
<!-- Node6 -->
<g id="node6" class="node">
<title>Node6</title>
<g id="a_node6"><a xlink:href="sleep_8hpp.html" target="_top" xlink:title="スリープ関数の定義">
<polygon fill="white" stroke="black" points="214.5,-62 214.5,-81 353.5,-81 353.5,-62 214.5,-62"/>
<text text-anchor="middle" x="284" y="-69" font-family="Helvetica,sans-Serif" font-size="10.00">alps_cmn/time/sleep.hpp</text>
</a>
</g>
</g>
<!-- Node1&#45;&gt;Node6 -->
<g id="edge5" class="edge">
<title>Node1&#45;&gt;Node6</title>
<path fill="none" stroke="midnightblue" d="M248.65,-123.36C256.02,-112.76 265.03,-99.79 272.12,-89.6"/>
<polygon fill="midnightblue" stroke="midnightblue" points="275.14,-91.38 277.97,-81.17 269.39,-87.39 275.14,-91.38"/>
</g>
<!-- Node8 -->
<g id="node8" class="node">
<title>Node8</title>
<g id="a_node8"><a xlink:href="angle_8hpp.html" target="_top" xlink:title=" ">
<polygon fill="white" stroke="black" points="371.5,-62 371.5,-81 504.5,-81 504.5,-62 371.5,-62"/>
<text text-anchor="middle" x="438" y="-69" font-family="Helvetica,sans-Serif" font-size="10.00">alps_cmn/util/angle.hpp</text>
</a>
</g>
</g>
<!-- Node1&#45;&gt;Node8 -->
<g id="edge8" class="edge">
<title>Node1&#45;&gt;Node8</title>
<path fill="none" stroke="midnightblue" d="M291.28,-123.46C327.33,-110.93 372.95,-95.09 403.68,-84.42"/>
<polygon fill="midnightblue" stroke="midnightblue" points="405.19,-87.6 413.49,-81.01 402.89,-80.99 405.19,-87.6"/>
</g>
<!-- Node4 -->
<g id="node4" class="node">
<title>Node4</title>
<g id="a_node4"><a xlink:title=" ">
<polygon fill="white" stroke="#bfbfbf" points="0,-0.5 0,-19.5 50,-19.5 50,-0.5 0,-0.5"/>
<text text-anchor="middle" x="25" y="-7.5" font-family="Helvetica,sans-Serif" font-size="10.00">cstdint</text>
</a>
</g>
</g>
<!-- Node3&#45;&gt;Node4 -->
<g id="edge3" class="edge">
<title>Node3&#45;&gt;Node4</title>
<path fill="none" stroke="midnightblue" d="M72.31,-56.4C63.02,-47.49 51,-35.95 41.4,-26.74"/>
<polygon fill="midnightblue" stroke="midnightblue" points="43.66,-24.06 34.02,-19.66 38.81,-29.11 43.66,-24.06"/>
</g>
<!-- Node5 -->
<g id="node5" class="node">
<title>Node5</title>
<g id="a_node5"><a xlink:title=" ">
<polygon fill="white" stroke="#bfbfbf" points="68.5,-0.5 68.5,-19.5 133.5,-19.5 133.5,-0.5 68.5,-0.5"/>
<text text-anchor="middle" x="101" y="-7.5" font-family="Helvetica,sans-Serif" font-size="10.00">etl/span.h</text>
</a>
</g>
</g>
<!-- Node3&#45;&gt;Node5 -->
<g id="edge4" class="edge">
<title>Node3&#45;&gt;Node5</title>
<path fill="none" stroke="midnightblue" d="M90.32,-56.4C92.21,-48.38 94.59,-38.23 96.63,-29.57"/>
<polygon fill="midnightblue" stroke="midnightblue" points="100.08,-30.19 98.96,-19.66 93.27,-28.59 100.08,-30.19"/>
</g>
<!-- Node6&#45;&gt;Node2 -->
<g id="edge6" class="edge">
<title>Node6&#45;&gt;Node2</title>
<path fill="none" stroke="midnightblue" d="M272.54,-61.98C259.83,-52.52 239.09,-37.1 223.75,-25.69"/>
<polygon fill="midnightblue" stroke="midnightblue" points="225.55,-22.67 215.44,-19.51 221.38,-28.29 225.55,-22.67"/>
</g>
<!-- Node7 -->
<g id="node7" class="node">
<title>Node7</title>
<g id="a_node7"><a xlink:title=" ">
<polygon fill="white" stroke="#bfbfbf" points="260,-0.5 260,-19.5 308,-19.5 308,-0.5 260,-0.5"/>
<text text-anchor="middle" x="284" y="-7.5" font-family="Helvetica,sans-Serif" font-size="10.00">thread</text>
</a>
</g>
</g>
<!-- Node6&#45;&gt;Node7 -->
<g id="edge7" class="edge">
<title>Node6&#45;&gt;Node7</title>
<path fill="none" stroke="midnightblue" d="M284,-61.98C284,-53.58 284,-40.48 284,-29.66"/>
<polygon fill="midnightblue" stroke="midnightblue" points="287.5,-29.51 284,-19.51 280.5,-29.51 287.5,-29.51"/>
</g>
</g>
</svg>
