<?xml version="1.0" encoding="UTF-8" standalone="no"?>
<!DOCTYPE svg PUBLIC "-//W3C//DTD SVG 1.1//EN"
 "http://www.w3.org/Graphics/SVG/1.1/DTD/svg11.dtd">
<!-- Generated by graphviz version 2.43.0 (0)
 -->
<!-- Title: alps_common_lib/include/alps_cmn/sensor/bno055.hpp Pages: 1 -->
<svg width="513pt" height="162pt"
 viewBox="0.00 0.00 512.50 162.00" xmlns="http://www.w3.org/2000/svg" xmlns:xlink="http://www.w3.org/1999/xlink">
<g id="graph0" class="graph" transform="scale(1 1) rotate(0) translate(4 158)">
<title>alps_common_lib/include/alps_cmn/sensor/bno055.hpp</title>
<polygon fill="white" stroke="transparent" points="-4,4 -4,-158 508.5,-158 508.5,4 -4,4"/>
<!-- Node1 -->
<g id="node1" class="node">
<title>Node1</title>
<g id="a_node1"><a xlink:title="BNO055 9軸センサ">
<polygon fill="#bfbfbf" stroke="black" points="154.5,-123.5 154.5,-153.5 315.5,-153.5 315.5,-123.5 154.5,-123.5"/>
<text text-anchor="start" x="162.5" y="-141.5" font-family="Helvetica,sans-Serif" font-size="10.00">alps_common_lib/include</text>
<text text-anchor="middle" x="235" y="-130.5" font-family="Helvetica,sans-Serif" font-size="10.00">/alps_cmn/sensor/bno055.hpp</text>
</a>
</g>
</g>
<!-- Node2 -->
<g id="node2" class="node">
<title>Node2</title>
<g id="a_node2"><a xlink:title=" ">
<polygon fill="white" stroke="#bfbfbf" points="179,-0.5 179,-19.5 229,-19.5 229,-0.5 179,-0.5"/>
<text text-anchor="middle" x="204" y="-7.5" font-family="Helvetica,sans-Serif" font-size="10.00">chrono</text>
</a>
</g>
</g>
<!-- Node1&#45;&gt;Node2 -->
<g id="edge1" class="edge">
<title>Node1&#45;&gt;Node2</title>
<path fill="none" stroke="midnightblue" d="M223.88,-123.41C216.99,-113.77 208.76,-100.35 205,-87 199.64,-67.99 200.21,-45.23 201.6,-29.6"/>
<polygon fill="midnightblue" stroke="midnightblue" points="205.08,-29.96 202.69,-19.64 198.13,-29.2 205.08,-29.96"/>
</g>
<!-- Node3 -->
<g id="node3" class="node">
<title>Node3</title>
<g id="a_node3"><a xlink:href="i__i2c__io_8hpp.html" target="_top" xlink:title="I2C通信インタフェース">
<polygon fill="white" stroke="black" points="16,-56.5 16,-86.5 158,-86.5 158,-56.5 16,-56.5"/>
<text text-anchor="start" x="24" y="-74.5" font-family="Helvetica,sans-Serif" font-size="10.00">alps_cmn/communication</text>
<text text-anchor="middle" x="87" y="-63.5" font-family="Helvetica,sans-Serif" font-size="10.00">/i_i2c_io.hpp</text>
</a>
</g>
</g>
<!-- Node1&#45;&gt;Node3 -->
<g id="edge2" class="edge">
<title>Node1&#45;&gt;Node3</title>
<path fill="none" stroke="midnightblue" d="M202.89,-123.4C181.07,-113.81 152.01,-101.05 128.44,-90.7"/>
<polygon fill="midnightblue" stroke="midnightblue" points="129.61,-87.39 119.05,-86.58 126.8,-93.8 129.61,-87.39"/>
</g>
<!-- Node6 -->
<g id="node6" class="node">
<title>Node6</title>
<g id="a_node6"><a xlink:href="sleep_8hpp.html" target="_top" xlink:title="スリープ関数の定義">
<polygon fill="white" stroke="black" points="214.5,-62 214.5,-81 353.5,-81 353.5,-62 214.5,-62"/>
<text text-anchor="middle" x="284" y="-69" font-family="Helvetica,sans-Serif" font-size="10.00">alps_cmn/time/sleep.hpp</text>
</a>
</g>
</g>
<!-- Node1&#45;&gt;Node6 -->
<g id="edge5" class="edge">
<title>Node1&#45;&gt;Node6</title>
<path fill="none" stroke="midnightblue" d="M245.63,-123.4C253.2,-113.36 263.39,-99.84 271.37,-89.25"/>
<polygon fill="midnightblue" stroke="midnightblue" points="274.22,-91.29 277.45,-81.19 268.63,-87.07 274.22,-91.29"/>
</g>
<!-- Node8 -->
<g id="node8" class="node">
<title>Node8</title>
<g id="a_node8"><a xlink:href="angle_8hpp.html" target="_top" xlink:title=" ">
<polygon fill="white" stroke="black" points="371.5,-62 371.5,-81 504.5,-81 504.5,-62 371.5,-62"/>
<text text-anchor="middle" x="438" y="-69" font-family="Helvetica,sans-Serif" font-size="10.00">alps_cmn/util/angle.hpp</text>
</a>
</g>
</g>
<!-- Node1&#45;&gt;Node8 -->
<g id="edge8" class="edge">
<title>Node1&#45;&gt;Node8</title>
<path fill="none" stroke="midnightblue" d="M279.05,-123.4C315.77,-111.64 367.45,-95.09 401.8,-84.09"/>
<polygon fill="midnightblue" stroke="midnightblue" points="402.98,-87.39 411.43,-81.01 400.84,-80.72 402.98,-87.39"/>
</g>
<!-- Node4 -->
<g id="node4" class="node">
<title>Node4</title>
<g id="a_node4"><a xlink:title=" ">
<polygon fill="white" stroke="#bfbfbf" points="0,-0.5 0,-19.5 50,-19.5 50,-0.5 0,-0.5"/>
<text text-anchor="middle" x="25" y="-7.5" font-family="Helvetica,sans-Serif" font-size="10.00">cstdint</text>
</a>
</g>
</g>
<!-- Node3&#45;&gt;Node4 -->
<g id="edge3" class="edge">
<title>Node3&#45;&gt;Node4</title>
<path fill="none" stroke="midnightblue" d="M72.31,-56.4C63.02,-47.49 51,-35.95 41.4,-26.74"/>
<polygon fill="midnightblue" stroke="midnightblue" points="43.66,-24.06 34.02,-19.66 38.81,-29.11 43.66,-24.06"/>
</g>
<!-- Node5 -->
<g id="node5" class="node">
<title>Node5</title>
<g id="a_node5"><a xlink:title=" ">
<polygon fill="white" stroke="#bfbfbf" points="68.5,-0.5 68.5,-19.5 133.5,-19.5 133.5,-0.5 68.5,-0.5"/>
<text text-anchor="middle" x="101" y="-7.5" font-family="Helvetica,sans-Serif" font-size="10.00">etl/span.h</text>
</a>
</g>
</g>
<!-- Node3&#45;&gt;Node5 -->
<g id="edge4" class="edge">
<title>Node3&#45;&gt;Node5</title>
<path fill="none" stroke="midnightblue" d="M90.32,-56.4C92.21,-48.38 94.59,-38.23 96.63,-29.57"/>
<polygon fill="midnightblue" stroke="midnightblue" points="100.08,-30.19 98.96,-19.66 93.27,-28.59 100.08,-30.19"/>
</g>
<!-- Node6&#45;&gt;Node2 -->
<g id="edge6" class="edge">
<title>Node6&#45;&gt;Node2</title>
<path fill="none" stroke="midnightblue" d="M272.54,-61.98C259.83,-52.52 239.09,-37.1 223.75,-25.69"/>
<polygon fill="midnightblue" stroke="midnightblue" points="225.55,-22.67 215.44,-19.51 221.38,-28.29 225.55,-22.67"/>
</g>
<!-- Node7 -->
<g id="node7" class="node">
<title>Node7</title>
<g id="a_node7"><a xlink:title=" ">
<polygon fill="white" stroke="#bfbfbf" points="260,-0.5 260,-19.5 308,-19.5 308,-0.5 260,-0.5"/>
<text text-anchor="middle" x="284" y="-7.5" font-family="Helvetica,sans-Serif" font-size="10.00">thread</text>
</a>
</g>
</g>
<!-- Node6&#45;&gt;Node7 -->
<g id="edge7" class="edge">
<title>Node6&#45;&gt;Node7</title>
<path fill="none" stroke="midnightblue" d="M284,-61.98C284,-53.58 284,-40.48 284,-29.66"/>
<polygon fill="midnightblue" stroke="midnightblue" points="287.5,-29.51 284,-19.51 280.5,-29.51 287.5,-29.51"/>
</g>
</g>
</svg>
