<?xml version="1.0" encoding="UTF-8" standalone="no"?>
<!DOCTYPE svg PUBLIC "-//W3C//DTD SVG 1.1//EN"
 "http://www.w3.org/Graphics/SVG/1.1/DTD/svg11.dtd">
<!-- Generated by graphviz version 2.43.0 (0)
 -->
<!-- Title: alps_mbed_lib/include/alps_mbed/communication/buffered_can_io.hpp Pages: 1 -->
<svg width="352pt" height="236pt"
 viewBox="0.00 0.00 351.50 236.00" xmlns="http://www.w3.org/2000/svg" xmlns:xlink="http://www.w3.org/1999/xlink">
<g id="graph0" class="graph" transform="scale(1 1) rotate(0) translate(4 232)">
<title>alps_mbed_lib/include/alps_mbed/communication/buffered_can_io.hpp</title>
<!-- Node1 -->
<g id="node1" class="node">
<title>Node1</title>
<g id="a_node1"><a xlink:title="MbedのCAN通信IOクラス">
<polygon fill="#999999" stroke="#666666" points="277,-228 125,-228 125,-187 277,-187 277,-228"/>
<text text-anchor="start" x="133" y="-216" font-family="Helvetica,sans-Serif" font-size="10.00">alps_mbed_lib/include</text>
<text text-anchor="start" x="133" y="-205" font-family="Helvetica,sans-Serif" font-size="10.00">/alps_mbed/communication</text>
<text text-anchor="middle" x="201" y="-194" font-family="Helvetica,sans-Serif" font-size="10.00">/buffered_can_io.hpp</text>
</a>
</g>
</g>
<!-- Node2 -->
<g id="node2" class="node">
<title>Node2</title>
<g id="a_node2"><a xlink:title=" ">
<polygon fill="#e0e0e0" stroke="#999999" points="112,-145.5 0,-145.5 0,-126.5 112,-126.5 112,-145.5"/>
<text text-anchor="middle" x="56" y="-133.5" font-family="Helvetica,sans-Serif" font-size="10.00">etl/circular_buffer.h</text>
</a>
</g>
</g>
<!-- Node1&#45;&gt;Node2 -->
<g id="edge1" class="edge">
<title>Node1&#45;&gt;Node2</title>
<path fill="none" stroke="#63b8ff" d="M160.22,-186.96C135.53,-175.12 104.71,-160.35 83.01,-149.95"/>
<polygon fill="#63b8ff" stroke="#63b8ff" points="84.27,-146.67 73.74,-145.5 81.25,-152.98 84.27,-146.67"/>
</g>
<!-- Node3 -->
<g id="node3" class="node">
<title>Node3</title>
<g id="a_node3"><a xlink:href="i__can__io_8hpp.html" target="_top" xlink:title=" ">
<polygon fill="white" stroke="#666666" points="272,-151 130,-151 130,-121 272,-121 272,-151"/>
<text text-anchor="start" x="138" y="-139" font-family="Helvetica,sans-Serif" font-size="10.00">alps_cmn/communication</text>
<text text-anchor="middle" x="201" y="-128" font-family="Helvetica,sans-Serif" font-size="10.00">/i_can_io.hpp</text>
</a>
</g>
</g>
<!-- Node1&#45;&gt;Node3 -->
<g id="edge2" class="edge">
<title>Node1&#45;&gt;Node3</title>
<path fill="none" stroke="#63b8ff" d="M201,-186.77C201,-178.85 201,-169.63 201,-161.3"/>
<polygon fill="#63b8ff" stroke="#63b8ff" points="204.5,-161.04 201,-151.04 197.5,-161.04 204.5,-161.04"/>
</g>
<!-- Node7 -->
<g id="node7" class="node">
<title>Node7</title>
<g id="a_node7"><a xlink:title=" ">
<polygon fill="#e0e0e0" stroke="#999999" points="343.5,-145.5 290.5,-145.5 290.5,-126.5 343.5,-126.5 343.5,-145.5"/>
<text text-anchor="middle" x="317" y="-133.5" font-family="Helvetica,sans-Serif" font-size="10.00">mbed.h</text>
</a>
</g>
</g>
<!-- Node1&#45;&gt;Node7 -->
<g id="edge6" class="edge">
<title>Node1&#45;&gt;Node7</title>
<path fill="none" stroke="#63b8ff" d="M233.62,-186.96C252.85,-175.44 276.7,-161.14 293.97,-150.8"/>
<polygon fill="#63b8ff" stroke="#63b8ff" points="296.03,-153.65 302.81,-145.5 292.43,-147.64 296.03,-153.65"/>
</g>
<!-- Node4 -->
<g id="node4" class="node">
<title>Node4</title>
<g id="a_node4"><a xlink:href="can__data__frame_8hpp.html" target="_top" xlink:title="CANフレームを表す構造体">
<polygon fill="white" stroke="#666666" points="272,-85 130,-85 130,-55 272,-55 272,-85"/>
<text text-anchor="start" x="138" y="-73" font-family="Helvetica,sans-Serif" font-size="10.00">alps_cmn/communication</text>
<text text-anchor="middle" x="201" y="-62" font-family="Helvetica,sans-Serif" font-size="10.00">/can_data_frame.hpp</text>
</a>
</g>
</g>
<!-- Node3&#45;&gt;Node4 -->
<g id="edge3" class="edge">
<title>Node3&#45;&gt;Node4</title>
<path fill="none" stroke="#63b8ff" d="M201,-120.8C201,-113.34 201,-103.99 201,-95.41"/>
<polygon fill="#63b8ff" stroke="#63b8ff" points="204.5,-95.16 201,-85.16 197.5,-95.16 204.5,-95.16"/>
</g>
<!-- Node5 -->
<g id="node5" class="node">
<title>Node5</title>
<g id="a_node5"><a xlink:title=" ">
<polygon fill="#e0e0e0" stroke="#999999" points="187.5,-19 134.5,-19 134.5,0 187.5,0 187.5,-19"/>
<text text-anchor="middle" x="161" y="-7" font-family="Helvetica,sans-Serif" font-size="10.00">stdint.h</text>
</a>
</g>
</g>
<!-- Node4&#45;&gt;Node5 -->
<g id="edge4" class="edge">
<title>Node4&#45;&gt;Node5</title>
<path fill="none" stroke="#63b8ff" d="M191.32,-54.84C185.75,-46.69 178.71,-36.4 172.82,-27.78"/>
<polygon fill="#63b8ff" stroke="#63b8ff" points="175.53,-25.55 166.99,-19.27 169.75,-29.5 175.53,-25.55"/>
</g>
<!-- Node6 -->
<g id="node6" class="node">
<title>Node6</title>
<g id="a_node6"><a xlink:title=" ">
<polygon fill="#e0e0e0" stroke="#999999" points="278,-19 206,-19 206,0 278,0 278,-19"/>
<text text-anchor="middle" x="242" y="-7" font-family="Helvetica,sans-Serif" font-size="10.00">etl/vector.h</text>
</a>
</g>
</g>
<!-- Node4&#45;&gt;Node6 -->
<g id="edge5" class="edge">
<title>Node4&#45;&gt;Node6</title>
<path fill="none" stroke="#63b8ff" d="M210.92,-54.84C216.69,-46.61 224,-36.18 230.08,-27.51"/>
<polygon fill="#63b8ff" stroke="#63b8ff" points="232.98,-29.46 235.86,-19.27 227.25,-25.45 232.98,-29.46"/>
</g>
</g>
</svg>
