<?xml version="1.0" encoding="UTF-8" standalone="no"?>
<!DOCTYPE svg PUBLIC "-//W3C//DTD SVG 1.1//EN"
 "http://www.w3.org/Graphics/SVG/1.1/DTD/svg11.dtd">
<!-- Generated by graphviz version 2.43.0 (0)
 -->
<!-- Title: alps_core/lib_internal/alps_mbed_lib/include/alps_mbed/communication/buffered_can_io.hpp Pages: 1 -->
<svg width="517pt" height="251pt"
 viewBox="0.00 0.00 516.50 251.00" xmlns="http://www.w3.org/2000/svg" xmlns:xlink="http://www.w3.org/1999/xlink">
<g id="graph0" class="graph" transform="scale(1 1) rotate(0) translate(4 247)">
<title>alps_core/lib_internal/alps_mbed_lib/include/alps_mbed/communication/buffered_can_io.hpp</title>
<polygon fill="white" stroke="transparent" points="-4,4 -4,-247 512.5,-247 512.5,4 -4,4"/>
<!-- Node1 -->
<g id="node1" class="node">
<title>Node1</title>
<g id="a_node1"><a xlink:title="MbedのCAN通信IOクラス">
<polygon fill="#bfbfbf" stroke="black" points="205,-190.5 205,-242.5 357,-242.5 357,-190.5 205,-190.5"/>
<text text-anchor="start" x="213" y="-230.5" font-family="Helvetica,sans-Serif" font-size="10.00">alps_core/lib_internal</text>
<text text-anchor="start" x="213" y="-219.5" font-family="Helvetica,sans-Serif" font-size="10.00">/alps_mbed_lib/include</text>
<text text-anchor="start" x="213" y="-208.5" font-family="Helvetica,sans-Serif" font-size="10.00">/alps_mbed/communication</text>
<text text-anchor="middle" x="281" y="-197.5" font-family="Helvetica,sans-Serif" font-size="10.00">/buffered_can_io.hpp</text>
</a>
</g>
</g>
<!-- Node2 -->
<g id="node2" class="node">
<title>Node2</title>
<g id="a_node2"><a xlink:title=" ">
<polygon fill="white" stroke="#bfbfbf" points="0,-129 0,-148 110,-148 110,-129 0,-129"/>
<text text-anchor="middle" x="55" y="-136" font-family="Helvetica,sans-Serif" font-size="10.00">etl/circular_buffer.h</text>
</a>
</g>
</g>
<!-- Node1&#45;&gt;Node2 -->
<g id="edge1" class="edge">
<title>Node1&#45;&gt;Node2</title>
<path fill="none" stroke="midnightblue" d="M206.37,-190.4C167.16,-177.22 120.95,-161.68 89.99,-151.27"/>
<polygon fill="midnightblue" stroke="midnightblue" points="91.1,-147.95 80.51,-148.08 88.87,-154.58 91.1,-147.95"/>
</g>
<!-- Node3 -->
<g id="node3" class="node">
<title>Node3</title>
<g id="a_node3"><a xlink:href="i__can__io_8hpp.html" target="_top" xlink:title=" ">
<polygon fill="white" stroke="black" points="128,-123.5 128,-153.5 270,-153.5 270,-123.5 128,-123.5"/>
<text text-anchor="start" x="136" y="-141.5" font-family="Helvetica,sans-Serif" font-size="10.00">alps_cmn/communication</text>
<text text-anchor="middle" x="199" y="-130.5" font-family="Helvetica,sans-Serif" font-size="10.00">/i_can_io.hpp</text>
</a>
</g>
</g>
<!-- Node1&#45;&gt;Node3 -->
<g id="edge2" class="edge">
<title>Node1&#45;&gt;Node3</title>
<path fill="none" stroke="midnightblue" d="M253.7,-190.19C243.4,-180.65 231.81,-169.91 221.95,-160.77"/>
<polygon fill="midnightblue" stroke="midnightblue" points="224.19,-158.08 214.48,-153.85 219.43,-163.21 224.19,-158.08"/>
</g>
<!-- Node7 -->
<g id="node7" class="node">
<title>Node7</title>
<g id="a_node7"><a xlink:href="stm__ordered__can_8hpp.html" target="_top" xlink:title="STMマイコンのCAN送信順を保証するクラス">
<polygon fill="white" stroke="black" points="288.5,-123.5 288.5,-153.5 437.5,-153.5 437.5,-123.5 288.5,-123.5"/>
<text text-anchor="start" x="296.5" y="-141.5" font-family="Helvetica,sans-Serif" font-size="10.00">alps_mbed/communication</text>
<text text-anchor="middle" x="363" y="-130.5" font-family="Helvetica,sans-Serif" font-size="10.00">/stm_ordered_can.hpp</text>
</a>
</g>
</g>
<!-- Node1&#45;&gt;Node7 -->
<g id="edge6" class="edge">
<title>Node1&#45;&gt;Node7</title>
<path fill="none" stroke="midnightblue" d="M308.3,-190.19C318.6,-180.65 330.19,-169.91 340.05,-160.77"/>
<polygon fill="midnightblue" stroke="midnightblue" points="342.57,-163.21 347.52,-153.85 337.81,-158.08 342.57,-163.21"/>
</g>
<!-- Node10 -->
<g id="node10" class="node">
<title>Node10</title>
<g id="a_node10"><a xlink:title=" ">
<polygon fill="white" stroke="#bfbfbf" points="455.5,-129 455.5,-148 508.5,-148 508.5,-129 455.5,-129"/>
<text text-anchor="middle" x="482" y="-136" font-family="Helvetica,sans-Serif" font-size="10.00">mbed.h</text>
</a>
</g>
</g>
<!-- Node1&#45;&gt;Node10 -->
<g id="edge9" class="edge">
<title>Node1&#45;&gt;Node10</title>
<path fill="none" stroke="midnightblue" d="M350.68,-190.35C380.45,-179.44 415.53,-166.34 447,-154 448.64,-153.36 450.32,-152.69 452.02,-152.01"/>
<polygon fill="midnightblue" stroke="midnightblue" points="453.75,-155.08 461.69,-148.07 451.11,-148.6 453.75,-155.08"/>
</g>
<!-- Node4 -->
<g id="node4" class="node">
<title>Node4</title>
<g id="a_node4"><a xlink:href="can__data__frame_8hpp.html" target="_top" xlink:title="CANフレームを表す構造体">
<polygon fill="white" stroke="black" points="128,-56.5 128,-86.5 270,-86.5 270,-56.5 128,-56.5"/>
<text text-anchor="start" x="136" y="-74.5" font-family="Helvetica,sans-Serif" font-size="10.00">alps_cmn/communication</text>
<text text-anchor="middle" x="199" y="-63.5" font-family="Helvetica,sans-Serif" font-size="10.00">/can_data_frame.hpp</text>
</a>
</g>
</g>
<!-- Node3&#45;&gt;Node4 -->
<g id="edge3" class="edge">
<title>Node3&#45;&gt;Node4</title>
<path fill="none" stroke="midnightblue" d="M199,-123.4C199,-115.64 199,-105.81 199,-96.86"/>
<polygon fill="midnightblue" stroke="midnightblue" points="202.5,-96.58 199,-86.58 195.5,-96.58 202.5,-96.58"/>
</g>
<!-- Node5 -->
<g id="node5" class="node">
<title>Node5</title>
<g id="a_node5"><a xlink:title=" ">
<polygon fill="white" stroke="#bfbfbf" points="132.5,-0.5 132.5,-19.5 185.5,-19.5 185.5,-0.5 132.5,-0.5"/>
<text text-anchor="middle" x="159" y="-7.5" font-family="Helvetica,sans-Serif" font-size="10.00">stdint.h</text>
</a>
</g>
</g>
<!-- Node4&#45;&gt;Node5 -->
<g id="edge4" class="edge">
<title>Node4&#45;&gt;Node5</title>
<path fill="none" stroke="midnightblue" d="M189.52,-56.4C183.83,-47.93 176.55,-37.1 170.52,-28.14"/>
<polygon fill="midnightblue" stroke="midnightblue" points="173.3,-26 164.82,-19.66 167.49,-29.91 173.3,-26"/>
</g>
<!-- Node6 -->
<g id="node6" class="node">
<title>Node6</title>
<g id="a_node6"><a xlink:title=" ">
<polygon fill="white" stroke="#bfbfbf" points="203.5,-0.5 203.5,-19.5 274.5,-19.5 274.5,-0.5 203.5,-0.5"/>
<text text-anchor="middle" x="239" y="-7.5" font-family="Helvetica,sans-Serif" font-size="10.00">etl/vector.h</text>
</a>
</g>
</g>
<!-- Node4&#45;&gt;Node6 -->
<g id="edge5" class="edge">
<title>Node4&#45;&gt;Node6</title>
<path fill="none" stroke="midnightblue" d="M208.48,-56.4C214.17,-47.93 221.45,-37.1 227.48,-28.14"/>
<polygon fill="midnightblue" stroke="midnightblue" points="230.51,-29.91 233.18,-19.66 224.7,-26 230.51,-29.91"/>
</g>
<!-- Node8 -->
<g id="node8" class="node">
<title>Node8</title>
<g id="a_node8"><a xlink:title=" ">
<polygon fill="white" stroke="#bfbfbf" points="304.5,-62 304.5,-81 387.5,-81 387.5,-62 304.5,-62"/>
<text text-anchor="middle" x="346" y="-69" font-family="Helvetica,sans-Serif" font-size="10.00">drivers/CAN.h</text>
</a>
</g>
</g>
<!-- Node7&#45;&gt;Node8 -->
<g id="edge7" class="edge">
<title>Node7&#45;&gt;Node8</title>
<path fill="none" stroke="midnightblue" d="M359.31,-123.4C356.84,-113.96 353.57,-101.45 350.89,-91.19"/>
<polygon fill="midnightblue" stroke="midnightblue" points="354.19,-89.98 348.27,-81.19 347.42,-91.75 354.19,-89.98"/>
</g>
<!-- Node9 -->
<g id="node9" class="node">
<title>Node9</title>
<g id="a_node9"><a xlink:title=" ">
<polygon fill="white" stroke="#bfbfbf" points="405.5,-62 405.5,-81 486.5,-81 486.5,-62 405.5,-62"/>
<text text-anchor="middle" x="446" y="-69" font-family="Helvetica,sans-Serif" font-size="10.00">hal/can_api.h</text>
</a>
</g>
</g>
<!-- Node7&#45;&gt;Node9 -->
<g id="edge8" class="edge">
<title>Node7&#45;&gt;Node9</title>
<path fill="none" stroke="midnightblue" d="M381.01,-123.4C394.59,-112.76 413.18,-98.2 427,-87.38"/>
<polygon fill="midnightblue" stroke="midnightblue" points="429.18,-90.12 434.9,-81.19 424.87,-84.6 429.18,-90.12"/>
</g>
</g>
</svg>
