<?xml version="1.0" encoding="UTF-8" standalone="no"?>
<!DOCTYPE svg PUBLIC "-//W3C//DTD SVG 1.1//EN"
 "http://www.w3.org/Graphics/SVG/1.1/DTD/svg11.dtd">
<!-- Generated by graphviz version 2.43.0 (0)
 -->
<!-- Title: roblab_common_lib/include/roblab_common/serial/byte_ring_buffer.hpp Pages: 1 -->
<svg width="558pt" height="280pt"
 viewBox="0.00 0.00 557.57 280.00" xmlns="http://www.w3.org/2000/svg" xmlns:xlink="http://www.w3.org/1999/xlink">
<g id="graph0" class="graph" transform="scale(1 1) rotate(0) translate(4 276)">
<title>roblab_common_lib/include/roblab_common/serial/byte_ring_buffer.hpp</title>
<!-- Node1 -->
<g id="node1" class="node">
<title>Node1</title>
<g id="a_node1"><a xlink:title="シリアル通信用リングバッファー">
<polygon fill="#999999" stroke="#666666" points="363.45,-272 210.45,-272 210.45,-231 363.45,-231 363.45,-272"/>
<text text-anchor="start" x="218.45" y="-260" font-family="Helvetica,sans-Serif" font-size="10.00">roblab_common_lib/include</text>
<text text-anchor="start" x="218.45" y="-249" font-family="Helvetica,sans-Serif" font-size="10.00">/roblab_common/serial/byte</text>
<text text-anchor="middle" x="286.95" y="-238" font-family="Helvetica,sans-Serif" font-size="10.00">_ring_buffer.hpp</text>
</a>
</g>
</g>
<!-- Node2 -->
<g id="node2" class="node">
<title>Node2</title>
<g id="a_node2"><a xlink:href="cobs_8hpp.html" target="_top" xlink:title="COBS変換ライブラリ">
<polygon fill="white" stroke="#666666" points="192.45,-189.5 17.45,-189.5 17.45,-159.5 192.45,-159.5 192.45,-189.5"/>
<text text-anchor="start" x="25.45" y="-177.5" font-family="Helvetica,sans-Serif" font-size="10.00">roblab_common_lib/include</text>
<text text-anchor="middle" x="104.95" y="-166.5" font-family="Helvetica,sans-Serif" font-size="10.00">/roblab_common/serial/cobs.hpp</text>
</a>
</g>
</g>
<!-- Node1&#45;&gt;Node2 -->
<g id="edge1" class="edge">
<title>Node1&#45;&gt;Node2</title>
<path fill="none" stroke="#63b8ff" d="M230.14,-227.09C200.29,-214.79 164.71,-200.13 139.12,-189.58"/>
<polygon fill="#63b8ff" stroke="#63b8ff" points="229.02,-230.42 239.6,-230.99 231.69,-223.94 229.02,-230.42"/>
</g>
<!-- Node7 -->
<g id="node7" class="node">
<title>Node7</title>
<g id="a_node7"><a xlink:href="data__serializer_8hpp.html" target="_top" xlink:title="データとバイト列の変換ライブラリ">
<polygon fill="white" stroke="#666666" points="363.45,-195 210.45,-195 210.45,-154 363.45,-154 363.45,-195"/>
<text text-anchor="start" x="218.45" y="-183" font-family="Helvetica,sans-Serif" font-size="10.00">roblab_common_lib/include</text>
<text text-anchor="start" x="218.45" y="-172" font-family="Helvetica,sans-Serif" font-size="10.00">/roblab_common/serial/data</text>
<text text-anchor="middle" x="286.95" y="-161" font-family="Helvetica,sans-Serif" font-size="10.00">_serializer.hpp</text>
</a>
</g>
</g>
<!-- Node1&#45;&gt;Node7 -->
<g id="edge7" class="edge">
<title>Node1&#45;&gt;Node7</title>
<path fill="none" stroke="#63b8ff" d="M286.95,-220.69C286.95,-212.08 286.95,-202.9 286.95,-195.07"/>
<polygon fill="#63b8ff" stroke="#63b8ff" points="283.45,-220.79 286.95,-230.79 290.45,-220.79 283.45,-220.79"/>
</g>
<!-- Node8 -->
<g id="node8" class="node">
<title>Node8</title>
<g id="a_node8"><a xlink:href="i__uart__io_8hpp.html" target="_top" xlink:title=" ">
<polygon fill="white" stroke="#666666" points="532.45,-195 381.45,-195 381.45,-154 532.45,-154 532.45,-195"/>
<text text-anchor="start" x="389.45" y="-183" font-family="Helvetica,sans-Serif" font-size="10.00">roblab_common_lib/include</text>
<text text-anchor="start" x="389.45" y="-172" font-family="Helvetica,sans-Serif" font-size="10.00">/roblab_common/serial/i</text>
<text text-anchor="middle" x="456.95" y="-161" font-family="Helvetica,sans-Serif" font-size="10.00">_uart_io.hpp</text>
</a>
</g>
</g>
<!-- Node1&#45;&gt;Node8 -->
<g id="edge9" class="edge">
<title>Node1&#45;&gt;Node8</title>
<path fill="none" stroke="#63b8ff" d="M340.53,-226.86C363.74,-216.62 390.59,-204.77 412.65,-195.04"/>
<polygon fill="#63b8ff" stroke="#63b8ff" points="338.9,-223.75 331.17,-230.99 341.73,-230.16 338.9,-223.75"/>
</g>
<!-- Node9 -->
<g id="node9" class="node">
<title>Node9</title>
<g id="a_node9"><a xlink:href="uart__io_8hpp.html" target="_top" xlink:title="mbedのUart通信IOライブラリ">
<polygon fill="white" stroke="#666666" points="175.95,-118 39.95,-118 39.95,-77 175.95,-77 175.95,-118"/>
<text text-anchor="start" x="47.95" y="-106" font-family="Helvetica,sans-Serif" font-size="10.00">roblab_mbed_lib/include</text>
<text text-anchor="start" x="47.95" y="-95" font-family="Helvetica,sans-Serif" font-size="10.00">/roblab_mbed/serial/uart</text>
<text text-anchor="middle" x="107.95" y="-84" font-family="Helvetica,sans-Serif" font-size="10.00">_io.hpp</text>
</a>
</g>
</g>
<!-- Node1&#45;&gt;Node9 -->
<g id="edge15" class="edge">
<title>Node1&#45;&gt;Node9</title>
<path fill="none" stroke="#63b8ff" d="M200.19,-245.03C127.55,-238.42 32,-224.31 7.95,-195 -3.61,-180.91 -1.3,-169.7 7.95,-154 17.26,-138.17 32.9,-126.54 49.08,-118.13"/>
<polygon fill="#63b8ff" stroke="#63b8ff" points="200.01,-248.53 210.27,-245.91 200.62,-241.55 200.01,-248.53"/>
</g>
<!-- Node10 -->
<g id="node10" class="node">
<title>Node10</title>
<g id="a_node10"><a xlink:href="ubuntu__uart__io_8hpp.html" target="_top" xlink:title="Ubuntuシリアル通信IOライブラリ">
<polygon fill="white" stroke="#666666" points="531.45,-118 394.45,-118 394.45,-77 531.45,-77 531.45,-118"/>
<text text-anchor="start" x="402.45" y="-106" font-family="Helvetica,sans-Serif" font-size="10.00">roblab_ros_lib/include</text>
<text text-anchor="start" x="402.45" y="-95" font-family="Helvetica,sans-Serif" font-size="10.00">/roblab_ros/serial/ubuntu</text>
<text text-anchor="middle" x="462.95" y="-84" font-family="Helvetica,sans-Serif" font-size="10.00">_uart_io.hpp</text>
</a>
</g>
</g>
<!-- Node1&#45;&gt;Node10 -->
<g id="edge16" class="edge">
<title>Node1&#45;&gt;Node10</title>
<path fill="none" stroke="#63b8ff" d="M373.79,-243.12C439.15,-235.55 520.93,-221.08 541.95,-195 553.38,-180.81 550.35,-170.17 541.95,-154 534.06,-138.83 519.92,-126.94 505.76,-118.12"/>
<polygon fill="#63b8ff" stroke="#63b8ff" points="373,-239.68 363.45,-244.27 373.78,-246.64 373,-239.68"/>
</g>
<!-- Node3 -->
<g id="node3" class="node">
<title>Node3</title>
<g id="a_node3"><a xlink:href="id__packet__manager_8hpp.html" target="_top" xlink:title="ID付きパケットデータを管理">
<polygon fill="white" stroke="#666666" points="362.45,-118 211.45,-118 211.45,-77 362.45,-77 362.45,-118"/>
<text text-anchor="start" x="219.45" y="-106" font-family="Helvetica,sans-Serif" font-size="10.00">roblab_common_lib/include</text>
<text text-anchor="start" x="219.45" y="-95" font-family="Helvetica,sans-Serif" font-size="10.00">/roblab_common/serial/id</text>
<text text-anchor="middle" x="286.95" y="-84" font-family="Helvetica,sans-Serif" font-size="10.00">_packet_manager.hpp</text>
</a>
</g>
</g>
<!-- Node2&#45;&gt;Node3 -->
<g id="edge2" class="edge">
<title>Node2&#45;&gt;Node3</title>
<path fill="none" stroke="#63b8ff" d="M148.52,-155.54C175.94,-144.24 211.34,-129.66 239.48,-118.06"/>
<polygon fill="#63b8ff" stroke="#63b8ff" points="147.09,-152.35 139.18,-159.39 149.76,-158.82 147.09,-152.35"/>
</g>
<!-- Node4 -->
<g id="node4" class="node">
<title>Node4</title>
<g id="a_node4"><a xlink:href="sender_8hpp.html" target="_top" xlink:title="シリアル通信で送るデータを登録">
<polygon fill="white" stroke="#666666" points="379.45,-35.5 194.45,-35.5 194.45,-5.5 379.45,-5.5 379.45,-35.5"/>
<text text-anchor="start" x="202.45" y="-23.5" font-family="Helvetica,sans-Serif" font-size="10.00">roblab_common_lib/include</text>
<text text-anchor="middle" x="286.95" y="-12.5" font-family="Helvetica,sans-Serif" font-size="10.00">/roblab_common/serial/sender.hpp</text>
</a>
</g>
</g>
<!-- Node3&#45;&gt;Node4 -->
<g id="edge3" class="edge">
<title>Node3&#45;&gt;Node4</title>
<path fill="none" stroke="#63b8ff" d="M280.32,-66.61C279.97,-56.01 280.36,-44.57 281.5,-35.86"/>
<polygon fill="#63b8ff" stroke="#63b8ff" points="276.84,-67.02 280.92,-76.79 283.83,-66.61 276.84,-67.02"/>
</g>
<!-- Node5 -->
<g id="node5" class="node">
<title>Node5</title>
<g id="a_node5"><a xlink:href="pc__uart__connection_8hpp.html" target="_top" xlink:title="パソコンと接続してパケット通信を行うライブラリ">
<polygon fill="white" stroke="#666666" points="175.95,-41 39.95,-41 39.95,0 175.95,0 175.95,-41"/>
<text text-anchor="start" x="47.95" y="-29" font-family="Helvetica,sans-Serif" font-size="10.00">roblab_mbed_lib/include</text>
<text text-anchor="start" x="47.95" y="-18" font-family="Helvetica,sans-Serif" font-size="10.00">/roblab_mbed/serial/pc</text>
<text text-anchor="middle" x="107.95" y="-7" font-family="Helvetica,sans-Serif" font-size="10.00">_uart_connection.hpp</text>
</a>
</g>
</g>
<!-- Node3&#45;&gt;Node5 -->
<g id="edge5" class="edge">
<title>Node3&#45;&gt;Node5</title>
<path fill="none" stroke="#63b8ff" d="M230.85,-73C206.33,-62.72 177.92,-50.82 154.59,-41.04"/>
<polygon fill="#63b8ff" stroke="#63b8ff" points="229.81,-76.35 240.38,-76.99 232.51,-69.9 229.81,-76.35"/>
</g>
<!-- Node6 -->
<g id="node6" class="node">
<title>Node6</title>
<g id="a_node6"><a xlink:href="mbed__uart__connection_8hpp.html" target="_top" xlink:title="接続された複数のMbedとシリアル通信を行う">
<polygon fill="white" stroke="#666666" points="528.45,-41 397.45,-41 397.45,0 528.45,0 528.45,-41"/>
<text text-anchor="start" x="405.45" y="-29" font-family="Helvetica,sans-Serif" font-size="10.00">roblab_ros_lib/include</text>
<text text-anchor="start" x="405.45" y="-18" font-family="Helvetica,sans-Serif" font-size="10.00">/roblab_ros/serial/mbed</text>
<text text-anchor="middle" x="462.95" y="-7" font-family="Helvetica,sans-Serif" font-size="10.00">_uart_connection.hpp</text>
</a>
</g>
</g>
<!-- Node3&#45;&gt;Node6 -->
<g id="edge6" class="edge">
<title>Node3&#45;&gt;Node6</title>
<path fill="none" stroke="#63b8ff" d="M342.1,-73C366.21,-62.72 394.15,-50.82 417.09,-41.04"/>
<polygon fill="#63b8ff" stroke="#63b8ff" points="340.56,-69.85 332.73,-76.99 343.3,-76.29 340.56,-69.85"/>
</g>
<!-- Node4&#45;&gt;Node3 -->
<g id="edge4" class="edge">
<title>Node4&#45;&gt;Node3</title>
<path fill="none" stroke="#63b8ff" d="M293.32,-45.99C293.92,-55.97 293.8,-67.36 292.97,-76.79"/>
<polygon fill="#63b8ff" stroke="#63b8ff" points="296.79,-45.5 292.39,-35.86 289.82,-46.14 296.79,-45.5"/>
</g>
<!-- Node7&#45;&gt;Node3 -->
<g id="edge8" class="edge">
<title>Node7&#45;&gt;Node3</title>
<path fill="none" stroke="#63b8ff" d="M286.95,-143.69C286.95,-135.08 286.95,-125.9 286.95,-118.07"/>
<polygon fill="#63b8ff" stroke="#63b8ff" points="283.45,-143.79 286.95,-153.79 290.45,-143.79 283.45,-143.79"/>
</g>
<!-- Node8&#45;&gt;Node3 -->
<g id="edge10" class="edge">
<title>Node8&#45;&gt;Node3</title>
<path fill="none" stroke="#63b8ff" d="M403.36,-149.86C380.15,-139.62 353.3,-127.77 331.24,-118.04"/>
<polygon fill="#63b8ff" stroke="#63b8ff" points="402.16,-153.16 412.72,-153.99 404.99,-146.75 402.16,-153.16"/>
</g>
<!-- Node8&#45;&gt;Node9 -->
<g id="edge11" class="edge">
<title>Node8&#45;&gt;Node9</title>
<path fill="none" stroke="#63b8ff" d="M371.63,-153.96C323,-143.37 237.04,-125.38 176.04,-112.67"/>
<polygon fill="#63b8ff" stroke="#63b8ff" points="370.9,-157.38 381.42,-156.1 372.4,-150.54 370.9,-157.38"/>
</g>
<!-- Node8&#45;&gt;Node10 -->
<g id="edge13" class="edge">
<title>Node8&#45;&gt;Node10</title>
<path fill="none" stroke="#63b8ff" d="M459.33,-143.69C460.02,-135.08 460.75,-125.9 461.38,-118.07"/>
<polygon fill="#63b8ff" stroke="#63b8ff" points="455.83,-143.55 458.52,-153.79 462.81,-144.11 455.83,-143.55"/>
</g>
<!-- Node9&#45;&gt;Node5 -->
<g id="edge12" class="edge">
<title>Node9&#45;&gt;Node5</title>
<path fill="none" stroke="#63b8ff" d="M107.95,-66.69C107.95,-58.08 107.95,-48.9 107.95,-41.07"/>
<polygon fill="#63b8ff" stroke="#63b8ff" points="104.45,-66.79 107.95,-76.79 111.45,-66.79 104.45,-66.79"/>
</g>
<!-- Node10&#45;&gt;Node6 -->
<g id="edge14" class="edge">
<title>Node10&#45;&gt;Node6</title>
<path fill="none" stroke="#63b8ff" d="M462.95,-66.69C462.95,-58.08 462.95,-48.9 462.95,-41.07"/>
<polygon fill="#63b8ff" stroke="#63b8ff" points="459.45,-66.79 462.95,-76.79 466.45,-66.79 459.45,-66.79"/>
</g>
</g>
</svg>
