<?xml version="1.0" encoding="UTF-8" standalone="no"?>
<!DOCTYPE svg PUBLIC "-//W3C//DTD SVG 1.1//EN"
 "http://www.w3.org/Graphics/SVG/1.1/DTD/svg11.dtd">
<!-- Generated by graphviz version 2.43.0 (0)
 -->
<!-- Title: alps_common_lib/include/alps_cmn/communication/byte_ring_buffer.hpp Pages: 1 -->
<svg width="256pt" height="104pt"
 viewBox="0.00 0.00 255.50 104.00" xmlns="http://www.w3.org/2000/svg" xmlns:xlink="http://www.w3.org/1999/xlink">
<g id="graph0" class="graph" transform="scale(1 1) rotate(0) translate(4 100)">
<title>alps_common_lib/include/alps_cmn/communication/byte_ring_buffer.hpp</title>
<!-- Node1 -->
<g id="node1" class="node">
<title>Node1</title>
<g id="a_node1"><a xlink:title="シリアル通信用リングバッファー">
<polygon fill="#999999" stroke="#666666" points="196.5,-96 51.5,-96 51.5,-55 196.5,-55 196.5,-96"/>
<text text-anchor="start" x="59.5" y="-84" font-family="Helvetica,sans-Serif" font-size="10.00">alps_common_lib/include</text>
<text text-anchor="start" x="59.5" y="-73" font-family="Helvetica,sans-Serif" font-size="10.00">/alps_cmn/communication</text>
<text text-anchor="middle" x="124" y="-62" font-family="Helvetica,sans-Serif" font-size="10.00">/byte_ring_buffer.hpp</text>
</a>
</g>
</g>
<!-- Node2 -->
<g id="node2" class="node">
<title>Node2</title>
<g id="a_node2"><a xlink:title=" ">
<polygon fill="#e0e0e0" stroke="#999999" points="50,-19 0,-19 0,0 50,0 50,-19"/>
<text text-anchor="middle" x="25" y="-7" font-family="Helvetica,sans-Serif" font-size="10.00">cstdint</text>
</a>
</g>
</g>
<!-- Node1&#45;&gt;Node2 -->
<g id="edge1" class="edge">
<title>Node1&#45;&gt;Node2</title>
<path fill="none" stroke="#63b8ff" d="M93.76,-54.95C78.7,-45.21 60.82,-33.65 47.07,-24.76"/>
<polygon fill="#63b8ff" stroke="#63b8ff" points="48.59,-21.58 38.29,-19.09 44.79,-27.46 48.59,-21.58"/>
</g>
<!-- Node3 -->
<g id="node3" class="node">
<title>Node3</title>
<g id="a_node3"><a xlink:title=" ">
<polygon fill="#e0e0e0" stroke="#999999" points="115.5,-19 68.5,-19 68.5,0 115.5,0 115.5,-19"/>
<text text-anchor="middle" x="92" y="-7" font-family="Helvetica,sans-Serif" font-size="10.00">vector</text>
</a>
</g>
</g>
<!-- Node1&#45;&gt;Node3 -->
<g id="edge2" class="edge">
<title>Node1&#45;&gt;Node3</title>
<path fill="none" stroke="#63b8ff" d="M114.23,-54.95C109.99,-46.48 105.07,-36.64 100.93,-28.37"/>
<polygon fill="#63b8ff" stroke="#63b8ff" points="103.98,-26.64 96.38,-19.26 97.72,-29.77 103.98,-26.64"/>
</g>
<!-- Node4 -->
<g id="node4" class="node">
<title>Node4</title>
<g id="a_node4"><a xlink:title=" ">
<polygon fill="#e0e0e0" stroke="#999999" points="180,-19 134,-19 134,0 180,0 180,-19"/>
<text text-anchor="middle" x="157" y="-7" font-family="Helvetica,sans-Serif" font-size="10.00">cstdio</text>
</a>
</g>
</g>
<!-- Node1&#45;&gt;Node4 -->
<g id="edge3" class="edge">
<title>Node1&#45;&gt;Node4</title>
<path fill="none" stroke="#63b8ff" d="M134.08,-54.95C138.45,-46.48 143.52,-36.64 147.79,-28.37"/>
<polygon fill="#63b8ff" stroke="#63b8ff" points="151.01,-29.75 152.48,-19.26 144.79,-26.54 151.01,-29.75"/>
</g>
<!-- Node5 -->
<g id="node5" class="node">
<title>Node5</title>
<g id="a_node5"><a xlink:title=" ">
<polygon fill="#e0e0e0" stroke="#999999" points="247.5,-19 198.5,-19 198.5,0 247.5,0 247.5,-19"/>
<text text-anchor="middle" x="223" y="-7" font-family="Helvetica,sans-Serif" font-size="10.00">cstdlib</text>
</a>
</g>
</g>
<!-- Node1&#45;&gt;Node5 -->
<g id="edge4" class="edge">
<title>Node1&#45;&gt;Node5</title>
<path fill="none" stroke="#63b8ff" d="M154.24,-54.95C169.3,-45.21 187.18,-33.65 200.93,-24.76"/>
<polygon fill="#63b8ff" stroke="#63b8ff" points="203.21,-27.46 209.71,-19.09 199.41,-21.58 203.21,-27.46"/>
</g>
</g>
</svg>
