<?xml version="1.0" encoding="UTF-8" standalone="no"?>
<!DOCTYPE svg PUBLIC "-//W3C//DTD SVG 1.1//EN"
 "http://www.w3.org/Graphics/SVG/1.1/DTD/svg11.dtd">
<!-- Generated by graphviz version 2.43.0 (0)
 -->
<!-- Title: roblab_common_lib/include/serial/byte_ring_buffer.hpp Pages: 1 -->
<svg width="544pt" height="247pt"
 viewBox="0.00 0.00 544.22 247.00" xmlns="http://www.w3.org/2000/svg" xmlns:xlink="http://www.w3.org/1999/xlink">
<g id="graph0" class="graph" transform="scale(1 1) rotate(0) translate(4 243)">
<title>roblab_common_lib/include/serial/byte_ring_buffer.hpp</title>
<!-- Node1 -->
<g id="node1" class="node">
<title>Node1</title>
<g id="a_node1"><a xlink:title="シリアル通信用リングバッファー">
<polygon fill="#999999" stroke="#666666" points="335.72,-239 184.72,-239 184.72,-209 335.72,-209 335.72,-239"/>
<text text-anchor="start" x="192.72" y="-227" font-family="Helvetica,sans-Serif" font-size="10.00">roblab_common_lib/include</text>
<text text-anchor="middle" x="260.22" y="-216" font-family="Helvetica,sans-Serif" font-size="10.00">/serial/byte_ring_buffer.hpp</text>
</a>
</g>
</g>
<!-- Node2 -->
<g id="node2" class="node">
<title>Node2</title>
<g id="a_node2"><a xlink:href="cobs_8hpp.html" target="_top" xlink:title="COBS変換ライブラリ">
<polygon fill="white" stroke="#666666" points="166.72,-173 15.72,-173 15.72,-143 166.72,-143 166.72,-173"/>
<text text-anchor="start" x="23.72" y="-161" font-family="Helvetica,sans-Serif" font-size="10.00">roblab_common_lib/include</text>
<text text-anchor="middle" x="91.22" y="-150" font-family="Helvetica,sans-Serif" font-size="10.00">/serial/cobs.hpp</text>
</a>
</g>
</g>
<!-- Node1&#45;&gt;Node2 -->
<g id="edge1" class="edge">
<title>Node1&#45;&gt;Node2</title>
<path fill="none" stroke="#63b8ff" d="M213.54,-205.32C186.64,-195.14 153.3,-182.51 128.22,-173.01"/>
<polygon fill="#63b8ff" stroke="#63b8ff" points="212.54,-208.69 223.13,-208.95 215.02,-202.14 212.54,-208.69"/>
</g>
<!-- Node7 -->
<g id="node7" class="node">
<title>Node7</title>
<g id="a_node7"><a xlink:href="data__serializer_8hpp.html" target="_top" xlink:title="データとバイト列の変換ライブラリ">
<polygon fill="white" stroke="#666666" points="335.72,-173 184.72,-173 184.72,-143 335.72,-143 335.72,-173"/>
<text text-anchor="start" x="192.72" y="-161" font-family="Helvetica,sans-Serif" font-size="10.00">roblab_common_lib/include</text>
<text text-anchor="middle" x="260.22" y="-150" font-family="Helvetica,sans-Serif" font-size="10.00">/serial/data_serializer.hpp</text>
</a>
</g>
</g>
<!-- Node1&#45;&gt;Node7 -->
<g id="edge7" class="edge">
<title>Node1&#45;&gt;Node7</title>
<path fill="none" stroke="#63b8ff" d="M260.22,-198.54C260.22,-189.96 260.22,-180.61 260.22,-173.16"/>
<polygon fill="#63b8ff" stroke="#63b8ff" points="256.72,-198.8 260.22,-208.8 263.72,-198.8 256.72,-198.8"/>
</g>
<!-- Node8 -->
<g id="node8" class="node">
<title>Node8</title>
<g id="a_node8"><a xlink:href="i__serial__io_8hpp.html" target="_top" xlink:title="シリアル通信IO抽象クラス">
<polygon fill="white" stroke="#666666" points="504.72,-173 353.72,-173 353.72,-143 504.72,-143 504.72,-173"/>
<text text-anchor="start" x="361.72" y="-161" font-family="Helvetica,sans-Serif" font-size="10.00">roblab_common_lib/include</text>
<text text-anchor="middle" x="429.22" y="-150" font-family="Helvetica,sans-Serif" font-size="10.00">/serial/i_serial_io.hpp</text>
</a>
</g>
</g>
<!-- Node1&#45;&gt;Node8 -->
<g id="edge9" class="edge">
<title>Node1&#45;&gt;Node8</title>
<path fill="none" stroke="#63b8ff" d="M306.9,-205.32C333.8,-195.14 367.14,-182.51 392.22,-173.01"/>
<polygon fill="#63b8ff" stroke="#63b8ff" points="305.42,-202.14 297.31,-208.95 307.9,-208.69 305.42,-202.14"/>
</g>
<!-- Node9 -->
<g id="node9" class="node">
<title>Node9</title>
<g id="a_node9"><a xlink:href="mbed__uart__serial__io_8hpp.html" target="_top" xlink:title="mbedのUart通信IOライブラリ">
<polygon fill="white" stroke="#666666" points="152.22,-107 16.22,-107 16.22,-66 152.22,-66 152.22,-107"/>
<text text-anchor="start" x="24.22" y="-95" font-family="Helvetica,sans-Serif" font-size="10.00">roblab_mbed_lib/include</text>
<text text-anchor="start" x="24.22" y="-84" font-family="Helvetica,sans-Serif" font-size="10.00">/serial/mbed_uart_serial</text>
<text text-anchor="middle" x="84.22" y="-73" font-family="Helvetica,sans-Serif" font-size="10.00">_io.hpp</text>
</a>
</g>
</g>
<!-- Node1&#45;&gt;Node9 -->
<g id="edge15" class="edge">
<title>Node1&#45;&gt;Node9</title>
<path fill="none" stroke="#63b8ff" d="M174.12,-217.54C109.02,-211.4 27.35,-198.7 6.22,-173 -13.05,-149.57 17.55,-124.03 45.89,-107.02"/>
<polygon fill="#63b8ff" stroke="#63b8ff" points="174.14,-221.05 184.42,-218.47 174.77,-214.08 174.14,-221.05"/>
</g>
<!-- Node10 -->
<g id="node10" class="node">
<title>Node10</title>
<g id="a_node10"><a xlink:href="ubuntu__uart__io_8hpp.html" target="_top" xlink:title="Ubuntuシリアル通信IOライブラリ">
<polygon fill="white" stroke="#666666" points="516.72,-101.5 373.72,-101.5 373.72,-71.5 516.72,-71.5 516.72,-101.5"/>
<text text-anchor="start" x="381.72" y="-89.5" font-family="Helvetica,sans-Serif" font-size="10.00">roblab_ros_lib/include</text>
<text text-anchor="middle" x="445.22" y="-78.5" font-family="Helvetica,sans-Serif" font-size="10.00">/serial/ubuntu_uart_io.hpp</text>
</a>
</g>
</g>
<!-- Node1&#45;&gt;Node10 -->
<g id="edge16" class="edge">
<title>Node1&#45;&gt;Node10</title>
<path fill="none" stroke="#63b8ff" d="M346.31,-217.54C411.41,-211.4 493.08,-198.7 514.22,-173 534.69,-148.1 498.06,-118.82 470.8,-101.79"/>
<polygon fill="#63b8ff" stroke="#63b8ff" points="345.66,-214.08 336.02,-218.47 346.29,-221.05 345.66,-214.08"/>
</g>
<!-- Node3 -->
<g id="node3" class="node">
<title>Node3</title>
<g id="a_node3"><a xlink:href="id__packet__manager_8hpp.html" target="_top" xlink:title="ID付きパケットデータを管理">
<polygon fill="white" stroke="#666666" points="343.22,-101.5 177.22,-101.5 177.22,-71.5 343.22,-71.5 343.22,-101.5"/>
<text text-anchor="start" x="185.22" y="-89.5" font-family="Helvetica,sans-Serif" font-size="10.00">roblab_common_lib/include</text>
<text text-anchor="middle" x="260.22" y="-78.5" font-family="Helvetica,sans-Serif" font-size="10.00">/serial/id_packet_manager.hpp</text>
</a>
</g>
</g>
<!-- Node2&#45;&gt;Node3 -->
<g id="edge2" class="edge">
<title>Node2&#45;&gt;Node3</title>
<path fill="none" stroke="#63b8ff" d="M134.72,-139.11C163.14,-127.42 199.74,-112.37 226.07,-101.54"/>
<polygon fill="#63b8ff" stroke="#63b8ff" points="133.33,-135.9 125.42,-142.94 136,-142.37 133.33,-135.9"/>
</g>
<!-- Node4 -->
<g id="node4" class="node">
<title>Node4</title>
<g id="a_node4"><a xlink:href="sender_8hpp.html" target="_top" xlink:title="シリアル通信で送るデータを登録">
<polygon fill="white" stroke="#666666" points="335.72,-30 184.72,-30 184.72,0 335.72,0 335.72,-30"/>
<text text-anchor="start" x="192.72" y="-18" font-family="Helvetica,sans-Serif" font-size="10.00">roblab_common_lib/include</text>
<text text-anchor="middle" x="260.22" y="-7" font-family="Helvetica,sans-Serif" font-size="10.00">/serial/sender.hpp</text>
</a>
</g>
</g>
<!-- Node3&#45;&gt;Node4 -->
<g id="edge3" class="edge">
<title>Node3&#45;&gt;Node4</title>
<path fill="none" stroke="#63b8ff" d="M253.75,-61.25C253.17,-50.81 253.48,-38.99 254.67,-30.04"/>
<polygon fill="#63b8ff" stroke="#63b8ff" points="250.28,-61.79 254.67,-71.44 257.26,-61.16 250.28,-61.79"/>
</g>
<!-- Node5 -->
<g id="node5" class="node">
<title>Node5</title>
<g id="a_node5"><a xlink:href="pc__uart__connection_8hpp.html" target="_top" xlink:title="パソコンと接続してパケット通信を行うライブラリ">
<polygon fill="white" stroke="#666666" points="166.72,-30 1.72,-30 1.72,0 166.72,0 166.72,-30"/>
<text text-anchor="start" x="9.72" y="-18" font-family="Helvetica,sans-Serif" font-size="10.00">roblab_mbed_lib/include</text>
<text text-anchor="middle" x="84.22" y="-7" font-family="Helvetica,sans-Serif" font-size="10.00">/serial/pc_uart_connection.hpp</text>
</a>
</g>
</g>
<!-- Node3&#45;&gt;Node5 -->
<g id="edge5" class="edge">
<title>Node3&#45;&gt;Node5</title>
<path fill="none" stroke="#63b8ff" d="M214.92,-67.61C185.31,-55.92 147.2,-40.87 119.78,-30.04"/>
<polygon fill="#63b8ff" stroke="#63b8ff" points="214.01,-71.02 224.6,-71.44 216.59,-64.51 214.01,-71.02"/>
</g>
<!-- Node6 -->
<g id="node6" class="node">
<title>Node6</title>
<g id="a_node6"><a xlink:href="mbed__uart__connection_8hpp.html" target="_top" xlink:title="接続された複数のMbedとシリアル通信を行う">
<polygon fill="white" stroke="#666666" points="536.22,-30 354.22,-30 354.22,0 536.22,0 536.22,-30"/>
<text text-anchor="start" x="362.22" y="-18" font-family="Helvetica,sans-Serif" font-size="10.00">roblab_ros_lib/include</text>
<text text-anchor="middle" x="445.22" y="-7" font-family="Helvetica,sans-Serif" font-size="10.00">/serial/mbed_uart_connection.hpp</text>
</a>
</g>
</g>
<!-- Node3&#45;&gt;Node6 -->
<g id="edge6" class="edge">
<title>Node3&#45;&gt;Node6</title>
<path fill="none" stroke="#63b8ff" d="M307.03,-67.92C338.26,-56.18 378.76,-40.97 407.84,-30.04"/>
<polygon fill="#63b8ff" stroke="#63b8ff" points="305.79,-64.64 297.66,-71.44 308.25,-71.2 305.79,-64.64"/>
</g>
<!-- Node4&#45;&gt;Node3 -->
<g id="edge4" class="edge">
<title>Node4&#45;&gt;Node3</title>
<path fill="none" stroke="#63b8ff" d="M266.68,-40.23C267.26,-50.66 266.96,-62.49 265.77,-71.44"/>
<polygon fill="#63b8ff" stroke="#63b8ff" points="270.15,-39.69 265.76,-30.04 263.18,-40.32 270.15,-39.69"/>
</g>
<!-- Node7&#45;&gt;Node3 -->
<g id="edge8" class="edge">
<title>Node7&#45;&gt;Node3</title>
<path fill="none" stroke="#63b8ff" d="M260.22,-132.75C260.22,-122.31 260.22,-110.49 260.22,-101.54"/>
<polygon fill="#63b8ff" stroke="#63b8ff" points="256.72,-132.94 260.22,-142.94 263.72,-132.94 256.72,-132.94"/>
</g>
<!-- Node8&#45;&gt;Node3 -->
<g id="edge10" class="edge">
<title>Node8&#45;&gt;Node3</title>
<path fill="none" stroke="#63b8ff" d="M385.72,-139.11C357.29,-127.42 320.7,-112.37 294.37,-101.54"/>
<polygon fill="#63b8ff" stroke="#63b8ff" points="384.44,-142.37 395.02,-142.94 387.1,-135.9 384.44,-142.37"/>
</g>
<!-- Node8&#45;&gt;Node9 -->
<g id="edge11" class="edge">
<title>Node8&#45;&gt;Node9</title>
<path fill="none" stroke="#63b8ff" d="M343.68,-141.48C292.64,-132 226.61,-119.37 168.22,-107 163.09,-105.91 157.8,-104.76 152.48,-103.58"/>
<polygon fill="#63b8ff" stroke="#63b8ff" points="343.21,-144.95 353.68,-143.33 344.49,-138.07 343.21,-144.95"/>
</g>
<!-- Node8&#45;&gt;Node10 -->
<g id="edge13" class="edge">
<title>Node8&#45;&gt;Node10</title>
<path fill="none" stroke="#63b8ff" d="M434.73,-133.08C437.15,-122.56 439.9,-110.58 441.98,-101.54"/>
<polygon fill="#63b8ff" stroke="#63b8ff" points="431.29,-132.41 432.46,-142.94 438.11,-133.98 431.29,-132.41"/>
</g>
<!-- Node9&#45;&gt;Node5 -->
<g id="edge12" class="edge">
<title>Node9&#45;&gt;Node5</title>
<path fill="none" stroke="#63b8ff" d="M84.22,-55.66C84.22,-46.76 84.22,-37.42 84.22,-30.04"/>
<polygon fill="#63b8ff" stroke="#63b8ff" points="80.72,-55.77 84.22,-65.77 87.72,-55.77 80.72,-55.77"/>
</g>
<!-- Node10&#45;&gt;Node6 -->
<g id="edge14" class="edge">
<title>Node10&#45;&gt;Node6</title>
<path fill="none" stroke="#63b8ff" d="M445.22,-61.25C445.22,-50.81 445.22,-38.99 445.22,-30.04"/>
<polygon fill="#63b8ff" stroke="#63b8ff" points="441.72,-61.44 445.22,-71.44 448.72,-61.44 441.72,-61.44"/>
</g>
</g>
</svg>
