<?xml version="1.0" encoding="UTF-8" standalone="no"?>
<!DOCTYPE svg PUBLIC "-//W3C//DTD SVG 1.1//EN"
 "http://www.w3.org/Graphics/SVG/1.1/DTD/svg11.dtd">
<!-- Generated by graphviz version 2.43.0 (0)
 -->
<!-- Title: alps_common_lib/include/alps_cmn/type/byte_ring_buffer.hpp Pages: 1 -->
<svg width="550pt" height="280pt"
 viewBox="0.00 0.00 549.63 280.00" xmlns="http://www.w3.org/2000/svg" xmlns:xlink="http://www.w3.org/1999/xlink">
<g id="graph0" class="graph" transform="scale(1 1) rotate(0) translate(4 276)">
<title>alps_common_lib/include/alps_cmn/type/byte_ring_buffer.hpp</title>
<!-- Node1 -->
<g id="node1" class="node">
<title>Node1</title>
<g id="a_node1"><a xlink:title="シリアル通信用リングバッファー">
<polygon fill="#999999" stroke="#666666" points="340.94,-272 200.94,-272 200.94,-231 340.94,-231 340.94,-272"/>
<text text-anchor="start" x="208.94" y="-260" font-family="Helvetica,sans-Serif" font-size="10.00">alps_common_lib/include</text>
<text text-anchor="start" x="208.94" y="-249" font-family="Helvetica,sans-Serif" font-size="10.00">/alps_cmn/type/byte_ring</text>
<text text-anchor="middle" x="270.94" y="-238" font-family="Helvetica,sans-Serif" font-size="10.00">_buffer.hpp</text>
</a>
</g>
</g>
<!-- Node2 -->
<g id="node2" class="node">
<title>Node2</title>
<g id="a_node2"><a xlink:href="cobs_8hpp.html" target="_top" xlink:title="COBS変換ライブラリ">
<polygon fill="white" stroke="#666666" points="162.44,-195 17.44,-195 17.44,-154 162.44,-154 162.44,-195"/>
<text text-anchor="start" x="25.44" y="-183" font-family="Helvetica,sans-Serif" font-size="10.00">alps_common_lib/include</text>
<text text-anchor="start" x="25.44" y="-172" font-family="Helvetica,sans-Serif" font-size="10.00">/alps_cmn/communication</text>
<text text-anchor="middle" x="89.94" y="-161" font-family="Helvetica,sans-Serif" font-size="10.00">/cobs.hpp</text>
</a>
</g>
</g>
<!-- Node1&#45;&gt;Node2 -->
<g id="edge1" class="edge">
<title>Node1&#45;&gt;Node2</title>
<path fill="none" stroke="#63b8ff" d="M214.55,-227.13C189.68,-216.83 160.8,-204.86 137.1,-195.04"/>
<polygon fill="#63b8ff" stroke="#63b8ff" points="213.28,-230.4 223.86,-230.99 215.96,-223.93 213.28,-230.4"/>
</g>
<!-- Node7 -->
<g id="node7" class="node">
<title>Node7</title>
<g id="a_node7"><a xlink:href="i__uart__io_8hpp.html" target="_top" xlink:title=" ">
<polygon fill="white" stroke="#666666" points="524.44,-195 379.44,-195 379.44,-154 524.44,-154 524.44,-195"/>
<text text-anchor="start" x="387.44" y="-183" font-family="Helvetica,sans-Serif" font-size="10.00">alps_common_lib/include</text>
<text text-anchor="start" x="387.44" y="-172" font-family="Helvetica,sans-Serif" font-size="10.00">/alps_cmn/communication</text>
<text text-anchor="middle" x="451.94" y="-161" font-family="Helvetica,sans-Serif" font-size="10.00">/i_uart_io.hpp</text>
</a>
</g>
</g>
<!-- Node1&#45;&gt;Node7 -->
<g id="edge7" class="edge">
<title>Node1&#45;&gt;Node7</title>
<path fill="none" stroke="#63b8ff" d="M327.34,-227.13C352.2,-216.83 381.08,-204.86 404.78,-195.04"/>
<polygon fill="#63b8ff" stroke="#63b8ff" points="325.92,-223.93 318.02,-230.99 328.6,-230.4 325.92,-223.93"/>
</g>
<!-- Node8 -->
<g id="node8" class="node">
<title>Node8</title>
<g id="a_node8"><a xlink:href="ubuntu__uart__io_8hpp.html" target="_top" xlink:title="Ubuntuシリアル通信IOライブラリ">
<polygon fill="white" stroke="#666666" points="178.94,-118 42.94,-118 42.94,-77 178.94,-77 178.94,-118"/>
<text text-anchor="start" x="50.94" y="-106" font-family="Helvetica,sans-Serif" font-size="10.00">alps_linux_lib/include</text>
<text text-anchor="start" x="50.94" y="-95" font-family="Helvetica,sans-Serif" font-size="10.00">/alps_lin/communication</text>
<text text-anchor="middle" x="110.94" y="-84" font-family="Helvetica,sans-Serif" font-size="10.00">/ubuntu_uart_io.hpp</text>
</a>
</g>
</g>
<!-- Node1&#45;&gt;Node8 -->
<g id="edge15" class="edge">
<title>Node1&#45;&gt;Node8</title>
<path fill="none" stroke="#63b8ff" d="M190.91,-244.5C122.19,-237.49 30.7,-223.07 7.94,-195 -3.54,-180.85 -1.4,-169.65 7.94,-154 17.47,-138.04 33.34,-126.4 49.81,-118.03"/>
<polygon fill="#63b8ff" stroke="#63b8ff" points="190.58,-247.99 200.88,-245.48 191.27,-241.02 190.58,-247.99"/>
</g>
<!-- Node9 -->
<g id="node9" class="node">
<title>Node9</title>
<g id="a_node9"><a xlink:href="uart__io_8hpp.html" target="_top" xlink:title="mbedのUart通信IOライブラリ">
<polygon fill="white" stroke="#666666" points="527.94,-118 375.94,-118 375.94,-77 527.94,-77 527.94,-118"/>
<text text-anchor="start" x="383.94" y="-106" font-family="Helvetica,sans-Serif" font-size="10.00">alps_mbed_lib/include</text>
<text text-anchor="start" x="383.94" y="-95" font-family="Helvetica,sans-Serif" font-size="10.00">/alps_mbed/communication</text>
<text text-anchor="middle" x="451.94" y="-84" font-family="Helvetica,sans-Serif" font-size="10.00">/uart_io.hpp</text>
</a>
</g>
</g>
<!-- Node1&#45;&gt;Node9 -->
<g id="edge16" class="edge">
<title>Node1&#45;&gt;Node9</title>
<path fill="none" stroke="#63b8ff" d="M350.97,-244.5C419.69,-237.49 511.18,-223.07 533.94,-195 545.42,-180.85 542.48,-170.1 533.94,-154 525.8,-138.66 511.32,-126.79 496.77,-118.03"/>
<polygon fill="#63b8ff" stroke="#63b8ff" points="350.61,-241.02 341.01,-245.48 351.3,-247.99 350.61,-241.02"/>
</g>
<!-- Node10 -->
<g id="node10" class="node">
<title>Node10</title>
<g id="a_node10"><a xlink:href="data__serializer_8hpp.html" target="_top" xlink:title="データとバイト列の変換ライブラリ">
<polygon fill="white" stroke="#666666" points="361.44,-189.5 180.44,-189.5 180.44,-159.5 361.44,-159.5 361.44,-189.5"/>
<text text-anchor="start" x="188.44" y="-177.5" font-family="Helvetica,sans-Serif" font-size="10.00">alps_common_lib/include</text>
<text text-anchor="middle" x="270.94" y="-166.5" font-family="Helvetica,sans-Serif" font-size="10.00">/alps_cmn/util/data_serializer.hpp</text>
</a>
</g>
</g>
<!-- Node1&#45;&gt;Node10 -->
<g id="edge13" class="edge">
<title>Node1&#45;&gt;Node10</title>
<path fill="none" stroke="#63b8ff" d="M270.94,-220.61C270.94,-210.01 270.94,-198.57 270.94,-189.86"/>
<polygon fill="#63b8ff" stroke="#63b8ff" points="267.44,-220.79 270.94,-230.79 274.44,-220.79 267.44,-220.79"/>
</g>
<!-- Node3 -->
<g id="node3" class="node">
<title>Node3</title>
<g id="a_node3"><a xlink:href="id__packet__manager_8hpp.html" target="_top" xlink:title="ID付きパケットデータを管理">
<polygon fill="white" stroke="#666666" points="350.44,-118 205.44,-118 205.44,-77 350.44,-77 350.44,-118"/>
<text text-anchor="start" x="213.44" y="-106" font-family="Helvetica,sans-Serif" font-size="10.00">alps_common_lib/include</text>
<text text-anchor="start" x="213.44" y="-95" font-family="Helvetica,sans-Serif" font-size="10.00">/alps_cmn/communication</text>
<text text-anchor="middle" x="277.94" y="-84" font-family="Helvetica,sans-Serif" font-size="10.00">/id_packet_manager.hpp</text>
</a>
</g>
</g>
<!-- Node2&#45;&gt;Node3 -->
<g id="edge2" class="edge">
<title>Node2&#45;&gt;Node3</title>
<path fill="none" stroke="#63b8ff" d="M148.18,-150.27C174.08,-139.94 204.24,-127.9 228.96,-118.04"/>
<polygon fill="#63b8ff" stroke="#63b8ff" points="146.84,-147.03 138.84,-153.99 149.43,-153.54 146.84,-147.03"/>
</g>
<!-- Node4 -->
<g id="node4" class="node">
<title>Node4</title>
<g id="a_node4"><a xlink:href="sender_8hpp.html" target="_top" xlink:title="シリアル通信で送るデータを登録">
<polygon fill="white" stroke="#666666" points="350.44,-41 205.44,-41 205.44,0 350.44,0 350.44,-41"/>
<text text-anchor="start" x="213.44" y="-29" font-family="Helvetica,sans-Serif" font-size="10.00">alps_common_lib/include</text>
<text text-anchor="start" x="213.44" y="-18" font-family="Helvetica,sans-Serif" font-size="10.00">/alps_cmn/communication</text>
<text text-anchor="middle" x="277.94" y="-7" font-family="Helvetica,sans-Serif" font-size="10.00">/sender.hpp</text>
</a>
</g>
</g>
<!-- Node3&#45;&gt;Node4 -->
<g id="edge3" class="edge">
<title>Node3&#45;&gt;Node4</title>
<path fill="none" stroke="#63b8ff" d="M271.32,-66.69C271.03,-58.08 271.23,-48.9 271.93,-41.07"/>
<polygon fill="#63b8ff" stroke="#63b8ff" points="267.83,-67.02 271.92,-76.79 274.82,-66.6 267.83,-67.02"/>
</g>
<!-- Node5 -->
<g id="node5" class="node">
<title>Node5</title>
<g id="a_node5"><a xlink:href="mbed__uart__connection_8hpp.html" target="_top" xlink:title="接続された複数のMbedとシリアル通信を行う">
<polygon fill="white" stroke="#666666" points="186.94,-41 34.94,-41 34.94,0 186.94,0 186.94,-41"/>
<text text-anchor="start" x="42.94" y="-29" font-family="Helvetica,sans-Serif" font-size="10.00">alps_linux_lib/include</text>
<text text-anchor="start" x="42.94" y="-18" font-family="Helvetica,sans-Serif" font-size="10.00">/alps_lin/communication</text>
<text text-anchor="middle" x="110.94" y="-7" font-family="Helvetica,sans-Serif" font-size="10.00">/mbed_uart_connection.hpp</text>
</a>
</g>
</g>
<!-- Node3&#45;&gt;Node5 -->
<g id="edge5" class="edge">
<title>Node3&#45;&gt;Node5</title>
<path fill="none" stroke="#63b8ff" d="M225.3,-72.86C202.5,-62.62 176.12,-50.77 154.45,-41.04"/>
<polygon fill="#63b8ff" stroke="#63b8ff" points="223.94,-76.09 234.5,-76.99 226.81,-69.7 223.94,-76.09"/>
</g>
<!-- Node6 -->
<g id="node6" class="node">
<title>Node6</title>
<g id="a_node6"><a xlink:href="pc__uart__connection_8hpp.html" target="_top" xlink:title="パソコンと接続してパケット通信を行うライブラリ">
<polygon fill="white" stroke="#666666" points="524.94,-41 372.94,-41 372.94,0 524.94,0 524.94,-41"/>
<text text-anchor="start" x="380.94" y="-29" font-family="Helvetica,sans-Serif" font-size="10.00">alps_mbed_lib/include</text>
<text text-anchor="start" x="380.94" y="-18" font-family="Helvetica,sans-Serif" font-size="10.00">/alps_mbed/communication</text>
<text text-anchor="middle" x="448.94" y="-7" font-family="Helvetica,sans-Serif" font-size="10.00">/pc_uart_connection.hpp</text>
</a>
</g>
</g>
<!-- Node3&#45;&gt;Node6 -->
<g id="edge6" class="edge">
<title>Node3&#45;&gt;Node6</title>
<path fill="none" stroke="#63b8ff" d="M331.84,-72.86C355.19,-62.62 382.2,-50.77 404.39,-41.04"/>
<polygon fill="#63b8ff" stroke="#63b8ff" points="330.17,-69.77 322.42,-76.99 332.99,-76.18 330.17,-69.77"/>
</g>
<!-- Node4&#45;&gt;Node3 -->
<g id="edge4" class="edge">
<title>Node4&#45;&gt;Node3</title>
<path fill="none" stroke="#63b8ff" d="M284.56,-51.16C284.85,-59.77 284.66,-68.96 283.96,-76.79"/>
<polygon fill="#63b8ff" stroke="#63b8ff" points="288.05,-50.85 283.95,-41.07 281.06,-51.27 288.05,-50.85"/>
</g>
<!-- Node7&#45;&gt;Node3 -->
<g id="edge8" class="edge">
<title>Node7&#45;&gt;Node3</title>
<path fill="none" stroke="#63b8ff" d="M397.41,-150C373.58,-139.72 345.96,-127.82 323.28,-118.04"/>
<polygon fill="#63b8ff" stroke="#63b8ff" points="396.11,-153.25 406.68,-153.99 398.88,-146.82 396.11,-153.25"/>
</g>
<!-- Node7&#45;&gt;Node8 -->
<g id="edge9" class="edge">
<title>Node7&#45;&gt;Node8</title>
<path fill="none" stroke="#63b8ff" d="M369.28,-153.89C291.22,-136.68 270.08,-134.17 195.94,-118 190.47,-116.81 184.8,-115.55 179.11,-114.27"/>
<polygon fill="#63b8ff" stroke="#63b8ff" points="368.57,-157.31 379.09,-156.06 370.08,-150.48 368.57,-157.31"/>
</g>
<!-- Node7&#45;&gt;Node9 -->
<g id="edge11" class="edge">
<title>Node7&#45;&gt;Node9</title>
<path fill="none" stroke="#63b8ff" d="M451.94,-143.69C451.94,-135.08 451.94,-125.9 451.94,-118.07"/>
<polygon fill="#63b8ff" stroke="#63b8ff" points="448.44,-143.79 451.94,-153.79 455.44,-143.79 448.44,-143.79"/>
</g>
<!-- Node8&#45;&gt;Node5 -->
<g id="edge10" class="edge">
<title>Node8&#45;&gt;Node5</title>
<path fill="none" stroke="#63b8ff" d="M110.94,-66.69C110.94,-58.08 110.94,-48.9 110.94,-41.07"/>
<polygon fill="#63b8ff" stroke="#63b8ff" points="107.44,-66.79 110.94,-76.79 114.44,-66.79 107.44,-66.79"/>
</g>
<!-- Node9&#45;&gt;Node6 -->
<g id="edge12" class="edge">
<title>Node9&#45;&gt;Node6</title>
<path fill="none" stroke="#63b8ff" d="M450.75,-66.69C450.4,-58.08 450.04,-48.9 449.72,-41.07"/>
<polygon fill="#63b8ff" stroke="#63b8ff" points="447.26,-66.94 451.15,-76.79 454.25,-66.66 447.26,-66.94"/>
</g>
<!-- Node10&#45;&gt;Node3 -->
<g id="edge14" class="edge">
<title>Node10&#45;&gt;Node3</title>
<path fill="none" stroke="#63b8ff" d="M273.21,-149.23C274.14,-139.2 275.21,-127.71 276.1,-118.2"/>
<polygon fill="#63b8ff" stroke="#63b8ff" points="269.7,-149.11 272.26,-159.39 276.67,-149.76 269.7,-149.11"/>
</g>
</g>
</svg>
