<?xml version="1.0" encoding="UTF-8" standalone="no"?>
<!DOCTYPE svg PUBLIC "-//W3C//DTD SVG 1.1//EN"
 "http://www.w3.org/Graphics/SVG/1.1/DTD/svg11.dtd">
<!-- Generated by graphviz version 2.43.0 (0)
 -->
<!-- Title: alps_common_lib/include/alps_cmn/communication/byte_ring_buffer.hpp Pages: 1 -->
<svg width="513pt" height="280pt"
 viewBox="0.00 0.00 513.17 280.00" xmlns="http://www.w3.org/2000/svg" xmlns:xlink="http://www.w3.org/1999/xlink">
<g id="graph0" class="graph" transform="scale(1 1) rotate(0) translate(4 276)">
<title>alps_common_lib/include/alps_cmn/communication/byte_ring_buffer.hpp</title>
<!-- Node1 -->
<g id="node1" class="node">
<title>Node1</title>
<g id="a_node1"><a xlink:title="シリアル通信用リングバッファー">
<polygon fill="#999999" stroke="#666666" points="325.09,-272 180.09,-272 180.09,-231 325.09,-231 325.09,-272"/>
<text text-anchor="start" x="188.09" y="-260" font-family="Helvetica,sans-Serif" font-size="10.00">alps_common_lib/include</text>
<text text-anchor="start" x="188.09" y="-249" font-family="Helvetica,sans-Serif" font-size="10.00">/alps_cmn/communication</text>
<text text-anchor="middle" x="252.59" y="-238" font-family="Helvetica,sans-Serif" font-size="10.00">/byte_ring_buffer.hpp</text>
</a>
</g>
</g>
<!-- Node2 -->
<g id="node2" class="node">
<title>Node2</title>
<g id="a_node2"><a xlink:href="cobs_8hpp.html" target="_top" xlink:title="COBS変換ライブラリ">
<polygon fill="white" stroke="#666666" points="162.09,-195 17.09,-195 17.09,-154 162.09,-154 162.09,-195"/>
<text text-anchor="start" x="25.09" y="-183" font-family="Helvetica,sans-Serif" font-size="10.00">alps_common_lib/include</text>
<text text-anchor="start" x="25.09" y="-172" font-family="Helvetica,sans-Serif" font-size="10.00">/alps_cmn/communication</text>
<text text-anchor="middle" x="89.59" y="-161" font-family="Helvetica,sans-Serif" font-size="10.00">/cobs.hpp</text>
</a>
</g>
</g>
<!-- Node1&#45;&gt;Node2 -->
<g id="edge1" class="edge">
<title>Node1&#45;&gt;Node2</title>
<path fill="none" stroke="#63b8ff" d="M200.91,-226.72C178.72,-216.51 153.11,-204.73 132.06,-195.04"/>
<polygon fill="#63b8ff" stroke="#63b8ff" points="199.64,-229.99 210.19,-230.99 202.56,-223.63 199.64,-229.99"/>
</g>
<!-- Node7 -->
<g id="node7" class="node">
<title>Node7</title>
<g id="a_node7"><a xlink:href="data__serializer_8hpp.html" target="_top" xlink:title="データとバイト列の変換ライブラリ">
<polygon fill="white" stroke="#666666" points="325.09,-195 180.09,-195 180.09,-154 325.09,-154 325.09,-195"/>
<text text-anchor="start" x="188.09" y="-183" font-family="Helvetica,sans-Serif" font-size="10.00">alps_common_lib/include</text>
<text text-anchor="start" x="188.09" y="-172" font-family="Helvetica,sans-Serif" font-size="10.00">/alps_cmn/communication</text>
<text text-anchor="middle" x="252.59" y="-161" font-family="Helvetica,sans-Serif" font-size="10.00">/data_serializer.hpp</text>
</a>
</g>
</g>
<!-- Node1&#45;&gt;Node7 -->
<g id="edge7" class="edge">
<title>Node1&#45;&gt;Node7</title>
<path fill="none" stroke="#63b8ff" d="M252.59,-220.69C252.59,-212.08 252.59,-202.9 252.59,-195.07"/>
<polygon fill="#63b8ff" stroke="#63b8ff" points="249.09,-220.79 252.59,-230.79 256.09,-220.79 249.09,-220.79"/>
</g>
<!-- Node8 -->
<g id="node8" class="node">
<title>Node8</title>
<g id="a_node8"><a xlink:href="i__uart__io_8hpp.html" target="_top" xlink:title=" ">
<polygon fill="white" stroke="#666666" points="488.09,-195 343.09,-195 343.09,-154 488.09,-154 488.09,-195"/>
<text text-anchor="start" x="351.09" y="-183" font-family="Helvetica,sans-Serif" font-size="10.00">alps_common_lib/include</text>
<text text-anchor="start" x="351.09" y="-172" font-family="Helvetica,sans-Serif" font-size="10.00">/alps_cmn/communication</text>
<text text-anchor="middle" x="415.59" y="-161" font-family="Helvetica,sans-Serif" font-size="10.00">/i_uart_io.hpp</text>
</a>
</g>
</g>
<!-- Node1&#45;&gt;Node8 -->
<g id="edge9" class="edge">
<title>Node1&#45;&gt;Node8</title>
<path fill="none" stroke="#63b8ff" d="M304.26,-226.72C326.45,-216.51 352.06,-204.73 373.11,-195.04"/>
<polygon fill="#63b8ff" stroke="#63b8ff" points="302.61,-223.63 294.99,-230.99 305.53,-229.99 302.61,-223.63"/>
</g>
<!-- Node9 -->
<g id="node9" class="node">
<title>Node9</title>
<g id="a_node9"><a xlink:href="uart__io_8hpp.html" target="_top" xlink:title="mbedのUart通信IOライブラリ">
<polygon fill="white" stroke="#666666" points="161.59,-118 9.59,-118 9.59,-77 161.59,-77 161.59,-118"/>
<text text-anchor="start" x="17.59" y="-106" font-family="Helvetica,sans-Serif" font-size="10.00">alps_mbed_lib/include</text>
<text text-anchor="start" x="17.59" y="-95" font-family="Helvetica,sans-Serif" font-size="10.00">/alps_mbed/communication</text>
<text text-anchor="middle" x="85.59" y="-84" font-family="Helvetica,sans-Serif" font-size="10.00">/uart_io.hpp</text>
</a>
</g>
</g>
<!-- Node1&#45;&gt;Node9 -->
<g id="edge15" class="edge">
<title>Node1&#45;&gt;Node9</title>
<path fill="none" stroke="#63b8ff" d="M170.02,-242.75C107.06,-234.93 27.8,-220.31 7.59,-195 -3.79,-180.76 -0.77,-170.2 7.59,-154 15.36,-138.93 29.32,-127.06 43.3,-118.23"/>
<polygon fill="#63b8ff" stroke="#63b8ff" points="169.63,-246.23 179.98,-243.95 170.47,-239.28 169.63,-246.23"/>
</g>
<!-- Node10 -->
<g id="node10" class="node">
<title>Node10</title>
<g id="a_node10"><a xlink:href="ubuntu__uart__io_8hpp.html" target="_top" xlink:title="Ubuntuシリアル通信IOライブラリ">
<polygon fill="white" stroke="#666666" points="489.09,-118 350.09,-118 350.09,-77 489.09,-77 489.09,-118"/>
<text text-anchor="start" x="358.09" y="-106" font-family="Helvetica,sans-Serif" font-size="10.00">alps_ros_lib/include</text>
<text text-anchor="start" x="358.09" y="-95" font-family="Helvetica,sans-Serif" font-size="10.00">/alps_ros/communication</text>
<text text-anchor="middle" x="419.59" y="-84" font-family="Helvetica,sans-Serif" font-size="10.00">/ubuntu_uart_io.hpp</text>
</a>
</g>
</g>
<!-- Node1&#45;&gt;Node10 -->
<g id="edge16" class="edge">
<title>Node1&#45;&gt;Node10</title>
<path fill="none" stroke="#63b8ff" d="M335.15,-242.75C398.12,-234.93 477.37,-220.31 497.59,-195 508.96,-180.76 505.94,-170.2 497.59,-154 489.82,-138.93 475.85,-127.06 461.87,-118.23"/>
<polygon fill="#63b8ff" stroke="#63b8ff" points="334.71,-239.28 325.2,-243.95 335.54,-246.23 334.71,-239.28"/>
</g>
<!-- Node3 -->
<g id="node3" class="node">
<title>Node3</title>
<g id="a_node3"><a xlink:href="id__packet__manager_8hpp.html" target="_top" xlink:title="ID付きパケットデータを管理">
<polygon fill="white" stroke="#666666" points="325.09,-118 180.09,-118 180.09,-77 325.09,-77 325.09,-118"/>
<text text-anchor="start" x="188.09" y="-106" font-family="Helvetica,sans-Serif" font-size="10.00">alps_common_lib/include</text>
<text text-anchor="start" x="188.09" y="-95" font-family="Helvetica,sans-Serif" font-size="10.00">/alps_cmn/communication</text>
<text text-anchor="middle" x="252.59" y="-84" font-family="Helvetica,sans-Serif" font-size="10.00">/id_packet_manager.hpp</text>
</a>
</g>
</g>
<!-- Node2&#45;&gt;Node3 -->
<g id="edge2" class="edge">
<title>Node2&#45;&gt;Node3</title>
<path fill="none" stroke="#63b8ff" d="M141.26,-149.72C163.45,-139.51 189.06,-127.73 210.11,-118.04"/>
<polygon fill="#63b8ff" stroke="#63b8ff" points="139.61,-146.63 131.99,-153.99 142.53,-152.99 139.61,-146.63"/>
</g>
<!-- Node4 -->
<g id="node4" class="node">
<title>Node4</title>
<g id="a_node4"><a xlink:href="sender_8hpp.html" target="_top" xlink:title="シリアル通信で送るデータを登録">
<polygon fill="white" stroke="#666666" points="325.09,-41 180.09,-41 180.09,0 325.09,0 325.09,-41"/>
<text text-anchor="start" x="188.09" y="-29" font-family="Helvetica,sans-Serif" font-size="10.00">alps_common_lib/include</text>
<text text-anchor="start" x="188.09" y="-18" font-family="Helvetica,sans-Serif" font-size="10.00">/alps_cmn/communication</text>
<text text-anchor="middle" x="252.59" y="-7" font-family="Helvetica,sans-Serif" font-size="10.00">/sender.hpp</text>
</a>
</g>
</g>
<!-- Node3&#45;&gt;Node4 -->
<g id="edge3" class="edge">
<title>Node3&#45;&gt;Node4</title>
<path fill="none" stroke="#63b8ff" d="M245.96,-66.69C245.67,-58.08 245.88,-48.9 246.57,-41.07"/>
<polygon fill="#63b8ff" stroke="#63b8ff" points="242.48,-67.02 246.56,-76.79 249.46,-66.6 242.48,-67.02"/>
</g>
<!-- Node5 -->
<g id="node5" class="node">
<title>Node5</title>
<g id="a_node5"><a xlink:href="pc__uart__connection_8hpp.html" target="_top" xlink:title="パソコンと接続してパケット通信を行うライブラリ">
<polygon fill="white" stroke="#666666" points="161.59,-41 9.59,-41 9.59,0 161.59,0 161.59,-41"/>
<text text-anchor="start" x="17.59" y="-29" font-family="Helvetica,sans-Serif" font-size="10.00">alps_mbed_lib/include</text>
<text text-anchor="start" x="17.59" y="-18" font-family="Helvetica,sans-Serif" font-size="10.00">/alps_mbed/communication</text>
<text text-anchor="middle" x="85.59" y="-7" font-family="Helvetica,sans-Serif" font-size="10.00">/pc_uart_connection.hpp</text>
</a>
</g>
</g>
<!-- Node3&#45;&gt;Node5 -->
<g id="edge5" class="edge">
<title>Node3&#45;&gt;Node5</title>
<path fill="none" stroke="#63b8ff" d="M199.95,-72.86C177.14,-62.62 150.77,-50.77 129.1,-41.04"/>
<polygon fill="#63b8ff" stroke="#63b8ff" points="198.59,-76.09 209.14,-76.99 201.46,-69.7 198.59,-76.09"/>
</g>
<!-- Node6 -->
<g id="node6" class="node">
<title>Node6</title>
<g id="a_node6"><a xlink:href="mbed__uart__connection_8hpp.html" target="_top" xlink:title="接続された複数のMbedとシリアル通信を行う">
<polygon fill="white" stroke="#666666" points="495.59,-41 343.59,-41 343.59,0 495.59,0 495.59,-41"/>
<text text-anchor="start" x="351.59" y="-29" font-family="Helvetica,sans-Serif" font-size="10.00">alps_ros_lib/include</text>
<text text-anchor="start" x="351.59" y="-18" font-family="Helvetica,sans-Serif" font-size="10.00">/alps_ros/communication</text>
<text text-anchor="middle" x="419.59" y="-7" font-family="Helvetica,sans-Serif" font-size="10.00">/mbed_uart_connection.hpp</text>
</a>
</g>
</g>
<!-- Node3&#45;&gt;Node6 -->
<g id="edge6" class="edge">
<title>Node3&#45;&gt;Node6</title>
<path fill="none" stroke="#63b8ff" d="M305.23,-72.86C328.03,-62.62 354.4,-50.77 376.07,-41.04"/>
<polygon fill="#63b8ff" stroke="#63b8ff" points="303.72,-69.7 296.03,-76.99 306.58,-76.09 303.72,-69.7"/>
</g>
<!-- Node4&#45;&gt;Node3 -->
<g id="edge4" class="edge">
<title>Node4&#45;&gt;Node3</title>
<path fill="none" stroke="#63b8ff" d="M259.2,-51.16C259.5,-59.77 259.3,-68.96 258.61,-76.79"/>
<polygon fill="#63b8ff" stroke="#63b8ff" points="262.69,-50.85 258.6,-41.07 255.7,-51.27 262.69,-50.85"/>
</g>
<!-- Node7&#45;&gt;Node3 -->
<g id="edge8" class="edge">
<title>Node7&#45;&gt;Node3</title>
<path fill="none" stroke="#63b8ff" d="M252.59,-143.69C252.59,-135.08 252.59,-125.9 252.59,-118.07"/>
<polygon fill="#63b8ff" stroke="#63b8ff" points="249.09,-143.79 252.59,-153.79 256.09,-143.79 249.09,-143.79"/>
</g>
<!-- Node8&#45;&gt;Node3 -->
<g id="edge10" class="edge">
<title>Node8&#45;&gt;Node3</title>
<path fill="none" stroke="#63b8ff" d="M363.91,-149.72C341.72,-139.51 316.11,-127.73 295.06,-118.04"/>
<polygon fill="#63b8ff" stroke="#63b8ff" points="362.64,-152.99 373.19,-153.99 365.56,-146.63 362.64,-152.99"/>
</g>
<!-- Node8&#45;&gt;Node9 -->
<g id="edge11" class="edge">
<title>Node8&#45;&gt;Node9</title>
<path fill="none" stroke="#63b8ff" d="M332.56,-153.78C259.6,-137.12 239.85,-133.59 170.59,-118 167.78,-117.37 164.92,-116.72 162.03,-116.07"/>
<polygon fill="#63b8ff" stroke="#63b8ff" points="332.19,-157.29 342.72,-156.11 333.76,-150.47 332.19,-157.29"/>
</g>
<!-- Node8&#45;&gt;Node10 -->
<g id="edge13" class="edge">
<title>Node8&#45;&gt;Node10</title>
<path fill="none" stroke="#63b8ff" d="M417.18,-143.69C417.64,-135.08 418.12,-125.9 418.54,-118.07"/>
<polygon fill="#63b8ff" stroke="#63b8ff" points="413.67,-143.62 416.64,-153.79 420.66,-144 413.67,-143.62"/>
</g>
<!-- Node9&#45;&gt;Node5 -->
<g id="edge12" class="edge">
<title>Node9&#45;&gt;Node5</title>
<path fill="none" stroke="#63b8ff" d="M85.59,-66.69C85.59,-58.08 85.59,-48.9 85.59,-41.07"/>
<polygon fill="#63b8ff" stroke="#63b8ff" points="82.09,-66.79 85.59,-76.79 89.09,-66.79 82.09,-66.79"/>
</g>
<!-- Node10&#45;&gt;Node6 -->
<g id="edge14" class="edge">
<title>Node10&#45;&gt;Node6</title>
<path fill="none" stroke="#63b8ff" d="M419.59,-66.69C419.59,-58.08 419.59,-48.9 419.59,-41.07"/>
<polygon fill="#63b8ff" stroke="#63b8ff" points="416.09,-66.79 419.59,-76.79 423.09,-66.79 416.09,-66.79"/>
</g>
</g>
</svg>
