<?xml version="1.0" encoding="UTF-8" standalone="no"?>
<!DOCTYPE svg PUBLIC "-//W3C//DTD SVG 1.1//EN"
 "http://www.w3.org/Graphics/SVG/1.1/DTD/svg11.dtd">
<!-- Generated by graphviz version 2.43.0 (0)
 -->
<!-- Title: alps_common_lib/include/alps_cmn/communication/can_typed_data_transceiver.hpp Pages: 1 -->
<svg width="1309pt" height="307pt"
 viewBox="0.00 0.00 1309.00 307.00" xmlns="http://www.w3.org/2000/svg" xmlns:xlink="http://www.w3.org/1999/xlink">
<g id="graph0" class="graph" transform="scale(1 1) rotate(0) translate(4 303)">
<title>alps_common_lib/include/alps_cmn/communication/can_typed_data_transceiver.hpp</title>
<polygon fill="white" stroke="transparent" points="-4,4 -4,-303 1305,-303 1305,4 -4,4"/>
<!-- Node1 -->
<g id="node1" class="node">
<title>Node1</title>
<g id="a_node1"><a xlink:title="CAN通信で型付けされたデータの送受信を行うライブラリ">
<polygon fill="#bfbfbf" stroke="black" points="630.5,-257.5 630.5,-298.5 807.5,-298.5 807.5,-257.5 630.5,-257.5"/>
<text text-anchor="start" x="638.5" y="-286.5" font-family="Helvetica,sans-Serif" font-size="10.00">alps_common_lib/include</text>
<text text-anchor="start" x="638.5" y="-275.5" font-family="Helvetica,sans-Serif" font-size="10.00">/alps_cmn/communication</text>
<text text-anchor="middle" x="719" y="-264.5" font-family="Helvetica,sans-Serif" font-size="10.00">/can_typed_data_transceiver.hpp</text>
</a>
</g>
</g>
<!-- Node2 -->
<g id="node2" class="node">
<title>Node2</title>
<g id="a_node2"><a xlink:href="can__callback__handler_8hpp.html" target="_top" xlink:title="CANデータフレームをコールバックで処理するためのライブラリ">
<polygon fill="white" stroke="black" points="971.5,-190.5 971.5,-220.5 1116.5,-220.5 1116.5,-190.5 971.5,-190.5"/>
<text text-anchor="start" x="979.5" y="-208.5" font-family="Helvetica,sans-Serif" font-size="10.00">alps_cmn/communication</text>
<text text-anchor="middle" x="1044" y="-197.5" font-family="Helvetica,sans-Serif" font-size="10.00">/can_callback_handler.hpp</text>
</a>
</g>
</g>
<!-- Node1&#45;&gt;Node2 -->
<g id="edge1" class="edge">
<title>Node1&#45;&gt;Node2</title>
<path fill="none" stroke="midnightblue" d="M807.81,-257.74C858.43,-246.75 921.15,-233.15 969.24,-222.72"/>
<polygon fill="midnightblue" stroke="midnightblue" points="970.24,-226.08 979.27,-220.54 968.75,-219.24 970.24,-226.08"/>
</g>
<!-- Node9 -->
<g id="node9" class="node">
<title>Node9</title>
<g id="a_node9"><a xlink:href="cobs_8hpp.html" target="_top" xlink:title="COBS変換ライブラリ">
<polygon fill="white" stroke="black" points="122,-190.5 122,-220.5 264,-220.5 264,-190.5 122,-190.5"/>
<text text-anchor="start" x="130" y="-208.5" font-family="Helvetica,sans-Serif" font-size="10.00">alps_cmn/communication</text>
<text text-anchor="middle" x="193" y="-197.5" font-family="Helvetica,sans-Serif" font-size="10.00">/cobs.hpp</text>
</a>
</g>
</g>
<!-- Node1&#45;&gt;Node9 -->
<g id="edge8" class="edge">
<title>Node1&#45;&gt;Node9</title>
<path fill="none" stroke="midnightblue" d="M630.37,-265.12C530.83,-251.78 370.64,-230.31 274.24,-217.39"/>
<polygon fill="midnightblue" stroke="midnightblue" points="274.62,-213.91 264.25,-216.05 273.69,-220.85 274.62,-213.91"/>
</g>
<!-- Node15 -->
<g id="node15" class="node">
<title>Node15</title>
<g id="a_node15"><a xlink:href="serializer_8hpp.html" target="_top" xlink:title="データとバイト列の変換ライブラリ">
<polygon fill="white" stroke="black" points="493,-190.5 493,-220.5 635,-220.5 635,-190.5 493,-190.5"/>
<text text-anchor="start" x="501" y="-208.5" font-family="Helvetica,sans-Serif" font-size="10.00">alps_cmn/communication</text>
<text text-anchor="middle" x="564" y="-197.5" font-family="Helvetica,sans-Serif" font-size="10.00">/serializer.hpp</text>
</a>
</g>
</g>
<!-- Node1&#45;&gt;Node15 -->
<g id="edge14" class="edge">
<title>Node1&#45;&gt;Node15</title>
<path fill="none" stroke="midnightblue" d="M675.82,-257.36C653.51,-247.21 626.43,-234.9 604.51,-224.93"/>
<polygon fill="midnightblue" stroke="midnightblue" points="605.71,-221.62 595.15,-220.67 602.81,-228 605.71,-221.62"/>
</g>
<!-- Node22 -->
<g id="node22" class="node">
<title>Node22</title>
<g id="a_node22"><a xlink:href="logging__macros_8hpp.html" target="_top" xlink:title=" ">
<polygon fill="white" stroke="black" points="756,-190.5 756,-220.5 876,-220.5 876,-190.5 756,-190.5"/>
<text text-anchor="start" x="764" y="-208.5" font-family="Helvetica,sans-Serif" font-size="10.00">alps_cmn/log/logging</text>
<text text-anchor="middle" x="816" y="-197.5" font-family="Helvetica,sans-Serif" font-size="10.00">_macros.hpp</text>
</a>
</g>
</g>
<!-- Node1&#45;&gt;Node22 -->
<g id="edge24" class="edge">
<title>Node1&#45;&gt;Node22</title>
<path fill="none" stroke="midnightblue" d="M746.02,-257.36C759.17,-247.8 774.96,-236.33 788.22,-226.69"/>
<polygon fill="midnightblue" stroke="midnightblue" points="790.47,-229.38 796.5,-220.67 786.36,-223.72 790.47,-229.38"/>
</g>
<!-- Node3 -->
<g id="node3" class="node">
<title>Node3</title>
<g id="a_node3"><a xlink:href="i__can__io_8hpp.html" target="_top" xlink:title=" ">
<polygon fill="white" stroke="black" points="1023,-123.5 1023,-153.5 1165,-153.5 1165,-123.5 1023,-123.5"/>
<text text-anchor="start" x="1031" y="-141.5" font-family="Helvetica,sans-Serif" font-size="10.00">alps_cmn/communication</text>
<text text-anchor="middle" x="1094" y="-130.5" font-family="Helvetica,sans-Serif" font-size="10.00">/i_can_io.hpp</text>
</a>
</g>
</g>
<!-- Node2&#45;&gt;Node3 -->
<g id="edge2" class="edge">
<title>Node2&#45;&gt;Node3</title>
<path fill="none" stroke="midnightblue" d="M1054.85,-190.4C1061.34,-181.96 1069.72,-171.07 1077.06,-161.52"/>
<polygon fill="midnightblue" stroke="midnightblue" points="1079.85,-163.64 1083.17,-153.58 1074.3,-159.37 1079.85,-163.64"/>
</g>
<!-- Node7 -->
<g id="node7" class="node">
<title>Node7</title>
<g id="a_node7"><a xlink:title=" ">
<polygon fill="white" stroke="#bfbfbf" points="873,-62 873,-81 957,-81 957,-62 873,-62"/>
<text text-anchor="middle" x="915" y="-69" font-family="Helvetica,sans-Serif" font-size="10.00">etl/delegate.h</text>
</a>
</g>
</g>
<!-- Node2&#45;&gt;Node7 -->
<g id="edge6" class="edge">
<title>Node2&#45;&gt;Node7</title>
<path fill="none" stroke="midnightblue" d="M1033.2,-190.32C1020.15,-173.55 997.19,-145.12 975,-123 962.28,-110.31 946.73,-97.29 934.65,-87.64"/>
<polygon fill="midnightblue" stroke="midnightblue" points="936.57,-84.71 926.55,-81.27 932.24,-90.21 936.57,-84.71"/>
</g>
<!-- Node8 -->
<g id="node8" class="node">
<title>Node8</title>
<g id="a_node8"><a xlink:title=" ">
<polygon fill="white" stroke="#bfbfbf" points="1183,-129 1183,-148 1301,-148 1301,-129 1183,-129"/>
<text text-anchor="middle" x="1242" y="-136" font-family="Helvetica,sans-Serif" font-size="10.00">etl/unordered_map.h</text>
</a>
</g>
</g>
<!-- Node2&#45;&gt;Node8 -->
<g id="edge7" class="edge">
<title>Node2&#45;&gt;Node8</title>
<path fill="none" stroke="midnightblue" d="M1086.96,-190.4C1122.63,-178.69 1172.76,-162.23 1206.26,-151.23"/>
<polygon fill="midnightblue" stroke="midnightblue" points="1207.68,-154.45 1216.09,-148.01 1205.49,-147.8 1207.68,-154.45"/>
</g>
<!-- Node4 -->
<g id="node4" class="node">
<title>Node4</title>
<g id="a_node4"><a xlink:href="can__data__frame_8hpp.html" target="_top" xlink:title="CANフレームを表す構造体">
<polygon fill="white" stroke="black" points="1007,-56.5 1007,-86.5 1149,-86.5 1149,-56.5 1007,-56.5"/>
<text text-anchor="start" x="1015" y="-74.5" font-family="Helvetica,sans-Serif" font-size="10.00">alps_cmn/communication</text>
<text text-anchor="middle" x="1078" y="-63.5" font-family="Helvetica,sans-Serif" font-size="10.00">/can_data_frame.hpp</text>
</a>
</g>
</g>
<!-- Node3&#45;&gt;Node4 -->
<g id="edge3" class="edge">
<title>Node3&#45;&gt;Node4</title>
<path fill="none" stroke="midnightblue" d="M1090.53,-123.4C1088.6,-115.56 1086.15,-105.6 1083.92,-96.57"/>
<polygon fill="midnightblue" stroke="midnightblue" points="1087.25,-95.45 1081.46,-86.58 1080.46,-97.12 1087.25,-95.45"/>
</g>
<!-- Node5 -->
<g id="node5" class="node">
<title>Node5</title>
<g id="a_node5"><a xlink:title=" ">
<polygon fill="white" stroke="#bfbfbf" points="1051.5,-0.5 1051.5,-19.5 1104.5,-19.5 1104.5,-0.5 1051.5,-0.5"/>
<text text-anchor="middle" x="1078" y="-7.5" font-family="Helvetica,sans-Serif" font-size="10.00">stdint.h</text>
</a>
</g>
</g>
<!-- Node4&#45;&gt;Node5 -->
<g id="edge4" class="edge">
<title>Node4&#45;&gt;Node5</title>
<path fill="none" stroke="midnightblue" d="M1078,-56.4C1078,-48.47 1078,-38.46 1078,-29.86"/>
<polygon fill="midnightblue" stroke="midnightblue" points="1081.5,-29.66 1078,-19.66 1074.5,-29.66 1081.5,-29.66"/>
</g>
<!-- Node6 -->
<g id="node6" class="node">
<title>Node6</title>
<g id="a_node6"><a xlink:title=" ">
<polygon fill="white" stroke="#bfbfbf" points="735.5,-0.5 735.5,-19.5 806.5,-19.5 806.5,-0.5 735.5,-0.5"/>
<text text-anchor="middle" x="771" y="-7.5" font-family="Helvetica,sans-Serif" font-size="10.00">etl/vector.h</text>
</a>
</g>
</g>
<!-- Node4&#45;&gt;Node6 -->
<g id="edge5" class="edge">
<title>Node4&#45;&gt;Node6</title>
<path fill="none" stroke="midnightblue" d="M1006.8,-56.7C948.13,-45.33 866.7,-29.55 816.5,-19.82"/>
<polygon fill="midnightblue" stroke="midnightblue" points="817.08,-16.36 806.59,-17.9 815.74,-23.24 817.08,-16.36"/>
</g>
<!-- Node10 -->
<g id="node10" class="node">
<title>Node10</title>
<g id="a_node10"><a xlink:title=" ">
<polygon fill="white" stroke="#bfbfbf" points="0,-129 0,-148 52,-148 52,-129 0,-129"/>
<text text-anchor="middle" x="26" y="-136" font-family="Helvetica,sans-Serif" font-size="10.00">cassert</text>
</a>
</g>
</g>
<!-- Node9&#45;&gt;Node10 -->
<g id="edge9" class="edge">
<title>Node9&#45;&gt;Node10</title>
<path fill="none" stroke="midnightblue" d="M155.34,-190.41C128.88,-180.42 92.68,-166.62 61,-154 59.36,-153.35 57.68,-152.67 55.99,-151.99"/>
<polygon fill="midnightblue" stroke="midnightblue" points="56.9,-148.58 46.32,-148.03 54.25,-155.06 56.9,-148.58"/>
</g>
<!-- Node11 -->
<g id="node11" class="node">
<title>Node11</title>
<g id="a_node11"><a xlink:title=" ">
<polygon fill="white" stroke="#bfbfbf" points="202,-129 202,-148 252,-148 252,-129 202,-129"/>
<text text-anchor="middle" x="227" y="-136" font-family="Helvetica,sans-Serif" font-size="10.00">cstdint</text>
</a>
</g>
</g>
<!-- Node9&#45;&gt;Node11 -->
<g id="edge10" class="edge">
<title>Node9&#45;&gt;Node11</title>
<path fill="none" stroke="midnightblue" d="M200.38,-190.4C205.47,-180.66 212.28,-167.65 217.73,-157.21"/>
<polygon fill="midnightblue" stroke="midnightblue" points="220.92,-158.68 222.45,-148.19 214.72,-155.43 220.92,-158.68"/>
</g>
<!-- Node12 -->
<g id="node12" class="node">
<title>Node12</title>
<g id="a_node12"><a xlink:title=" ">
<polygon fill="white" stroke="#bfbfbf" points="70,-129 70,-148 116,-148 116,-129 70,-129"/>
<text text-anchor="middle" x="93" y="-136" font-family="Helvetica,sans-Serif" font-size="10.00">cstdio</text>
</a>
</g>
</g>
<!-- Node9&#45;&gt;Node12 -->
<g id="edge11" class="edge">
<title>Node9&#45;&gt;Node12</title>
<path fill="none" stroke="midnightblue" d="M171.3,-190.4C154.53,-179.5 131.43,-164.48 114.67,-153.58"/>
<polygon fill="midnightblue" stroke="midnightblue" points="116.38,-150.52 106.09,-148.01 112.56,-156.39 116.38,-150.52"/>
</g>
<!-- Node13 -->
<g id="node13" class="node">
<title>Node13</title>
<g id="a_node13"><a xlink:title=" ">
<polygon fill="white" stroke="#bfbfbf" points="134.5,-129 134.5,-148 183.5,-148 183.5,-129 134.5,-129"/>
<text text-anchor="middle" x="159" y="-136" font-family="Helvetica,sans-Serif" font-size="10.00">cstdlib</text>
</a>
</g>
</g>
<!-- Node9&#45;&gt;Node13 -->
<g id="edge12" class="edge">
<title>Node9&#45;&gt;Node13</title>
<path fill="none" stroke="midnightblue" d="M185.62,-190.4C180.53,-180.66 173.72,-167.65 168.27,-157.21"/>
<polygon fill="midnightblue" stroke="midnightblue" points="171.28,-155.43 163.55,-148.19 165.08,-158.68 171.28,-155.43"/>
</g>
<!-- Node14 -->
<g id="node14" class="node">
<title>Node14</title>
<g id="a_node14"><a xlink:title=" ">
<polygon fill="white" stroke="#bfbfbf" points="270,-129 270,-148 380,-148 380,-129 270,-129"/>
<text text-anchor="middle" x="325" y="-136" font-family="Helvetica,sans-Serif" font-size="10.00">etl/circular_buffer.h</text>
</a>
</g>
</g>
<!-- Node9&#45;&gt;Node14 -->
<g id="edge13" class="edge">
<title>Node9&#45;&gt;Node14</title>
<path fill="none" stroke="midnightblue" d="M221.64,-190.4C244.5,-179.14 276.26,-163.5 298.52,-152.54"/>
<polygon fill="midnightblue" stroke="midnightblue" points="300.3,-155.56 307.72,-148.01 297.21,-149.28 300.3,-155.56"/>
</g>
<!-- Node15&#45;&gt;Node6 -->
<g id="edge23" class="edge">
<title>Node15&#45;&gt;Node6</title>
<path fill="none" stroke="midnightblue" d="M554.06,-190.42C543.44,-173.5 529.71,-144.67 542,-123 579.51,-56.86 669.81,-29.05 725.16,-17.91"/>
<polygon fill="midnightblue" stroke="midnightblue" points="725.9,-21.33 735.06,-16.02 724.58,-14.46 725.9,-21.33"/>
</g>
<!-- Node15&#45;&gt;Node11 -->
<g id="edge17" class="edge">
<title>Node15&#45;&gt;Node11</title>
<path fill="none" stroke="midnightblue" d="M492.83,-197.48C430.74,-190.22 338.68,-176.69 261,-154 258.85,-153.37 256.65,-152.64 254.46,-151.86"/>
<polygon fill="midnightblue" stroke="midnightblue" points="255.65,-148.56 245.06,-148.14 253.07,-155.07 255.65,-148.56"/>
</g>
<!-- Node15&#45;&gt;Node14 -->
<g id="edge21" class="edge">
<title>Node15&#45;&gt;Node14</title>
<path fill="none" stroke="midnightblue" d="M512.43,-190.48C468.66,-178.57 406.68,-161.72 366.17,-150.7"/>
<polygon fill="midnightblue" stroke="midnightblue" points="366.93,-147.28 356.36,-148.03 365.09,-154.03 366.93,-147.28"/>
</g>
<!-- Node16 -->
<g id="node16" class="node">
<title>Node16</title>
<g id="a_node16"><a xlink:title=" ">
<polygon fill="white" stroke="#bfbfbf" points="562,-129 562,-148 626,-148 626,-129 562,-129"/>
<text text-anchor="middle" x="594" y="-136" font-family="Helvetica,sans-Serif" font-size="10.00">algorithm</text>
</a>
</g>
</g>
<!-- Node15&#45;&gt;Node16 -->
<g id="edge15" class="edge">
<title>Node15&#45;&gt;Node16</title>
<path fill="none" stroke="midnightblue" d="M570.51,-190.4C574.96,-180.76 580.89,-167.91 585.68,-157.54"/>
<polygon fill="midnightblue" stroke="midnightblue" points="588.97,-158.74 589.99,-148.19 582.62,-155.81 588.97,-158.74"/>
</g>
<!-- Node17 -->
<g id="node17" class="node">
<title>Node17</title>
<g id="a_node17"><a xlink:title=" ">
<polygon fill="white" stroke="#bfbfbf" points="644,-129 644,-148 686,-148 686,-129 644,-129"/>
<text text-anchor="middle" x="665" y="-136" font-family="Helvetica,sans-Serif" font-size="10.00">array</text>
</a>
</g>
</g>
<!-- Node15&#45;&gt;Node17 -->
<g id="edge16" class="edge">
<title>Node15&#45;&gt;Node17</title>
<path fill="none" stroke="midnightblue" d="M585.92,-190.4C602.85,-179.5 626.19,-164.48 643.12,-153.58"/>
<polygon fill="midnightblue" stroke="midnightblue" points="645.27,-156.36 651.78,-148.01 641.48,-150.48 645.27,-156.36"/>
</g>
<!-- Node18 -->
<g id="node18" class="node">
<title>Node18</title>
<g id="a_node18"><a xlink:title=" ">
<polygon fill="white" stroke="#bfbfbf" points="704,-129 704,-148 754,-148 754,-129 704,-129"/>
<text text-anchor="middle" x="729" y="-136" font-family="Helvetica,sans-Serif" font-size="10.00">cstring</text>
</a>
</g>
</g>
<!-- Node15&#45;&gt;Node18 -->
<g id="edge18" class="edge">
<title>Node15&#45;&gt;Node18</title>
<path fill="none" stroke="midnightblue" d="M601.41,-190.48C627.68,-180.53 663.61,-166.74 695,-154 696.59,-153.35 698.23,-152.68 699.87,-152"/>
<polygon fill="midnightblue" stroke="midnightblue" points="701.41,-155.15 709.27,-148.05 698.7,-148.7 701.41,-155.15"/>
</g>
<!-- Node19 -->
<g id="node19" class="node">
<title>Node19</title>
<g id="a_node19"><a xlink:title=" ">
<polygon fill="white" stroke="#bfbfbf" points="772.5,-129 772.5,-148 813.5,-148 813.5,-129 772.5,-129"/>
<text text-anchor="middle" x="793" y="-136" font-family="Helvetica,sans-Serif" font-size="10.00">tuple</text>
</a>
</g>
</g>
<!-- Node15&#45;&gt;Node19 -->
<g id="edge19" class="edge">
<title>Node15&#45;&gt;Node19</title>
<path fill="none" stroke="midnightblue" d="M633.65,-190.45C672.32,-181.75 720.97,-169.31 763,-154 764.43,-153.48 765.88,-152.91 767.33,-152.32"/>
<polygon fill="midnightblue" stroke="midnightblue" points="769.06,-155.38 776.75,-148.09 766.2,-148.99 769.06,-155.38"/>
</g>
<!-- Node20 -->
<g id="node20" class="node">
<title>Node20</title>
<g id="a_node20"><a xlink:title=" ">
<polygon fill="white" stroke="#bfbfbf" points="398.5,-129 398.5,-148 467.5,-148 467.5,-129 398.5,-129"/>
<text text-anchor="middle" x="433" y="-136" font-family="Helvetica,sans-Serif" font-size="10.00">type_traits</text>
</a>
</g>
</g>
<!-- Node15&#45;&gt;Node20 -->
<g id="edge20" class="edge">
<title>Node15&#45;&gt;Node20</title>
<path fill="none" stroke="midnightblue" d="M535.57,-190.4C512.89,-179.14 481.37,-163.5 459.28,-152.54"/>
<polygon fill="midnightblue" stroke="midnightblue" points="460.66,-149.32 450.14,-148.01 457.55,-155.59 460.66,-149.32"/>
</g>
<!-- Node21 -->
<g id="node21" class="node">
<title>Node21</title>
<g id="a_node21"><a xlink:title=" ">
<polygon fill="white" stroke="#bfbfbf" points="663.5,-62 663.5,-81 732.5,-81 732.5,-62 663.5,-62"/>
<text text-anchor="middle" x="698" y="-69" font-family="Helvetica,sans-Serif" font-size="10.00">etl/string.h</text>
</a>
</g>
</g>
<!-- Node15&#45;&gt;Node21 -->
<g id="edge22" class="edge">
<title>Node15&#45;&gt;Node21</title>
<path fill="none" stroke="midnightblue" d="M556.63,-190.4C548.63,-172.93 538.77,-143.02 553,-123 575.53,-91.3 619.48,-79.33 653.11,-74.9"/>
<polygon fill="midnightblue" stroke="midnightblue" points="653.65,-78.36 663.19,-73.75 652.85,-71.4 653.65,-78.36"/>
</g>
<!-- Node23 -->
<g id="node23" class="node">
<title>Node23</title>
<g id="a_node23"><a xlink:href="logger_8hpp.html" target="_top" xlink:title=" ">
<polygon fill="white" stroke="black" points="831.5,-129 831.5,-148 966.5,-148 966.5,-129 831.5,-129"/>
<text text-anchor="middle" x="899" y="-136" font-family="Helvetica,sans-Serif" font-size="10.00">alps_cmn/log/logger.hpp</text>
</a>
</g>
</g>
<!-- Node22&#45;&gt;Node23 -->
<g id="edge25" class="edge">
<title>Node22&#45;&gt;Node23</title>
<path fill="none" stroke="midnightblue" d="M834.01,-190.4C847.59,-179.76 866.18,-165.2 880,-154.38"/>
<polygon fill="midnightblue" stroke="midnightblue" points="882.18,-157.12 887.9,-148.19 877.87,-151.6 882.18,-157.12"/>
</g>
<!-- Node23&#45;&gt;Node7 -->
<g id="edge26" class="edge">
<title>Node23&#45;&gt;Node7</title>
<path fill="none" stroke="midnightblue" d="M901.16,-128.73C903.53,-119.09 907.42,-103.3 910.47,-90.91"/>
<polygon fill="midnightblue" stroke="midnightblue" points="913.88,-91.67 912.88,-81.13 907.09,-90 913.88,-91.67"/>
</g>
<!-- Node23&#45;&gt;Node21 -->
<g id="edge27" class="edge">
<title>Node23&#45;&gt;Node21</title>
<path fill="none" stroke="midnightblue" d="M872.31,-128.87C836.77,-117.38 773.79,-97.01 734.05,-84.16"/>
<polygon fill="midnightblue" stroke="midnightblue" points="735.07,-80.81 724.48,-81.06 732.92,-87.47 735.07,-80.81"/>
</g>
</g>
</svg>
