<?xml version="1.0" encoding="UTF-8" standalone="no"?>
<!DOCTYPE svg PUBLIC "-//W3C//DTD SVG 1.1//EN"
 "http://www.w3.org/Graphics/SVG/1.1/DTD/svg11.dtd">
<!-- Generated by graphviz version 2.43.0 (0)
 -->
<!-- Title: alps_common_lib/include/alps_cmn/communication/can_typed_data_transceiver.hpp Pages: 1 -->
<svg width="607pt" height="217pt"
 viewBox="0.00 0.00 607.00 217.00" xmlns="http://www.w3.org/2000/svg" xmlns:xlink="http://www.w3.org/1999/xlink">
<g id="graph0" class="graph" transform="scale(1 1) rotate(0) translate(4 213)">
<title>alps_common_lib/include/alps_cmn/communication/can_typed_data_transceiver.hpp</title>
<polygon fill="white" stroke="transparent" points="-4,4 -4,-213 603,-213 603,4 -4,4"/>
<!-- Node1 -->
<g id="node1" class="node">
<title>Node1</title>
<g id="a_node1"><a xlink:title="CAN通信で型付けされたデータの送受信を行うライブラリ">
<polygon fill="#bfbfbf" stroke="black" points="207,-167.5 207,-208.5 384,-208.5 384,-167.5 207,-167.5"/>
<text text-anchor="start" x="215" y="-196.5" font-family="Helvetica,sans-Serif" font-size="10.00">alps_common_lib/include</text>
<text text-anchor="start" x="215" y="-185.5" font-family="Helvetica,sans-Serif" font-size="10.00">/alps_cmn/communication</text>
<text text-anchor="middle" x="295.5" y="-174.5" font-family="Helvetica,sans-Serif" font-size="10.00">/can_typed_data_transceiver.hpp</text>
</a>
</g>
</g>
<!-- Node2 -->
<g id="node2" class="node">
<title>Node2</title>
<g id="a_node2"><a xlink:href="robomas__motor_8hpp.html" target="_top" xlink:title="ロボマスモータのライブラリ">
<polygon fill="white" stroke="black" points="0,-89.5 0,-130.5 155,-130.5 155,-89.5 0,-89.5"/>
<text text-anchor="start" x="8" y="-118.5" font-family="Helvetica,sans-Serif" font-size="10.00">alps_common_lib/include</text>
<text text-anchor="start" x="8" y="-107.5" font-family="Helvetica,sans-Serif" font-size="10.00">/alps_cmn/actuator/robomas</text>
<text text-anchor="middle" x="77.5" y="-96.5" font-family="Helvetica,sans-Serif" font-size="10.00">_motor.hpp</text>
</a>
</g>
</g>
<!-- Node1&#45;&gt;Node2 -->
<g id="edge1" class="edge">
<title>Node1&#45;&gt;Node2</title>
<path fill="none" stroke="midnightblue" d="M229.6,-164.03C198.91,-153.33 162.79,-140.73 133.45,-130.51"/>
<polygon fill="midnightblue" stroke="midnightblue" points="228.76,-167.44 239.36,-167.43 231.07,-160.83 228.76,-167.44"/>
</g>
<!-- Node3 -->
<g id="node3" class="node">
<title>Node3</title>
<g id="a_node3"><a xlink:href="can__param_8hpp.html" target="_top" xlink:title=" ">
<polygon fill="white" stroke="black" points="173,-89.5 173,-130.5 318,-130.5 318,-89.5 173,-89.5"/>
<text text-anchor="start" x="181" y="-118.5" font-family="Helvetica,sans-Serif" font-size="10.00">alps_common_lib/include</text>
<text text-anchor="start" x="181" y="-107.5" font-family="Helvetica,sans-Serif" font-size="10.00">/alps_cmn/communication</text>
<text text-anchor="middle" x="245.5" y="-96.5" font-family="Helvetica,sans-Serif" font-size="10.00">/can_param.hpp</text>
</a>
</g>
</g>
<!-- Node1&#45;&gt;Node3 -->
<g id="edge2" class="edge">
<title>Node1&#45;&gt;Node3</title>
<path fill="none" stroke="midnightblue" d="M277.11,-159.05C270.87,-149.57 264.04,-139.18 258.33,-130.51"/>
<polygon fill="midnightblue" stroke="midnightblue" points="274.2,-161 282.62,-167.43 280.05,-157.15 274.2,-161"/>
</g>
<!-- Node5 -->
<g id="node5" class="node">
<title>Node5</title>
<g id="a_node5"><a xlink:href="can__topic__bridge_8hpp.html" target="_top" xlink:title=" ">
<polygon fill="white" stroke="black" points="305,-6 305,-47 450,-47 450,-6 305,-6"/>
<text text-anchor="start" x="313" y="-35" font-family="Helvetica,sans-Serif" font-size="10.00">alps_ros2_lib/include</text>
<text text-anchor="start" x="313" y="-24" font-family="Helvetica,sans-Serif" font-size="10.00">/alps_ros2/communication</text>
<text text-anchor="middle" x="377.5" y="-13" font-family="Helvetica,sans-Serif" font-size="10.00">/can_topic_bridge.hpp</text>
</a>
</g>
</g>
<!-- Node1&#45;&gt;Node5 -->
<g id="edge4" class="edge">
<title>Node1&#45;&gt;Node5</title>
<path fill="none" stroke="midnightblue" d="M312.16,-158.73C317.21,-149.92 322.7,-140.12 327.5,-131 342.65,-102.22 358.78,-68.13 368.5,-47.16"/>
<polygon fill="midnightblue" stroke="midnightblue" points="309.07,-157.08 307.09,-167.49 315.13,-160.59 309.07,-157.08"/>
</g>
<!-- Node6 -->
<g id="node6" class="node">
<title>Node6</title>
<g id="a_node6"><a xlink:href="topic__converter_8hpp.html" target="_top" xlink:title=" ">
<polygon fill="white" stroke="black" points="375,-89.5 375,-130.5 494,-130.5 494,-89.5 375,-89.5"/>
<text text-anchor="start" x="383" y="-118.5" font-family="Helvetica,sans-Serif" font-size="10.00">alps_ros2_lib/include</text>
<text text-anchor="start" x="383" y="-107.5" font-family="Helvetica,sans-Serif" font-size="10.00">/alps_ros2/type/topic</text>
<text text-anchor="middle" x="434.5" y="-96.5" font-family="Helvetica,sans-Serif" font-size="10.00">_converter.hpp</text>
</a>
</g>
</g>
<!-- Node1&#45;&gt;Node6 -->
<g id="edge5" class="edge">
<title>Node1&#45;&gt;Node6</title>
<path fill="none" stroke="midnightblue" d="M340.08,-162.63C359.07,-152.24 380.93,-140.29 398.83,-130.51"/>
<polygon fill="midnightblue" stroke="midnightblue" points="338.39,-159.56 331.3,-167.43 341.75,-165.7 338.39,-159.56"/>
</g>
<!-- Node4 -->
<g id="node4" class="node">
<title>Node4</title>
<g id="a_node4"><a xlink:href="can__param__bridge_8hpp.html" target="_top" xlink:title=" ">
<polygon fill="white" stroke="black" points="142,-6 142,-47 287,-47 287,-6 142,-6"/>
<text text-anchor="start" x="150" y="-35" font-family="Helvetica,sans-Serif" font-size="10.00">alps_ros2_lib/include</text>
<text text-anchor="start" x="150" y="-24" font-family="Helvetica,sans-Serif" font-size="10.00">/alps_ros2/communication</text>
<text text-anchor="middle" x="214.5" y="-13" font-family="Helvetica,sans-Serif" font-size="10.00">/can_param_bridge.hpp</text>
</a>
</g>
</g>
<!-- Node3&#45;&gt;Node4 -->
<g id="edge3" class="edge">
<title>Node3&#45;&gt;Node4</title>
<path fill="none" stroke="midnightblue" d="M234.37,-79.73C230.24,-68.87 225.66,-56.83 221.94,-47.05"/>
<polygon fill="midnightblue" stroke="midnightblue" points="231.17,-81.17 238,-89.27 237.71,-78.68 231.17,-81.17"/>
</g>
<!-- Node6&#45;&gt;Node5 -->
<g id="edge6" class="edge">
<title>Node6&#45;&gt;Node5</title>
<path fill="none" stroke="midnightblue" d="M414.96,-81.05C407.13,-69.86 398.29,-57.23 391.17,-47.05"/>
<polygon fill="midnightblue" stroke="midnightblue" points="412.1,-83.08 420.7,-89.27 417.84,-79.07 412.1,-83.08"/>
</g>
<!-- Node7 -->
<g id="node7" class="node">
<title>Node7</title>
<g id="a_node7"><a xlink:href="custom__type__topic__conversion__rule_8hpp.html" target="_top" xlink:title=" ">
<polygon fill="white" stroke="black" points="468,-0.5 468,-52.5 599,-52.5 599,-0.5 468,-0.5"/>
<text text-anchor="start" x="476" y="-40.5" font-family="Helvetica,sans-Serif" font-size="10.00">alps_ros2_lib/include</text>
<text text-anchor="start" x="476" y="-29.5" font-family="Helvetica,sans-Serif" font-size="10.00">/alps_ros2/type/custom</text>
<text text-anchor="start" x="476" y="-18.5" font-family="Helvetica,sans-Serif" font-size="10.00">_type_topic_conversion</text>
<text text-anchor="middle" x="533.5" y="-7.5" font-family="Helvetica,sans-Serif" font-size="10.00">_rule.hpp</text>
</a>
</g>
</g>
<!-- Node6&#45;&gt;Node7 -->
<g id="edge7" class="edge">
<title>Node6&#45;&gt;Node7</title>
<path fill="none" stroke="midnightblue" d="M466.07,-83.01C477.84,-73.32 491.17,-62.35 502.85,-52.73"/>
<polygon fill="midnightblue" stroke="midnightblue" points="463.71,-80.42 458.21,-89.48 468.16,-85.83 463.71,-80.42"/>
</g>
</g>
</svg>
