<?xml version="1.0" encoding="UTF-8" standalone="no"?>
<!DOCTYPE svg PUBLIC "-//W3C//DTD SVG 1.1//EN"
 "http://www.w3.org/Graphics/SVG/1.1/DTD/svg11.dtd">
<!-- Generated by graphviz version 2.43.0 (0)
 -->
<!-- Title: alps_common_lib/include/alps_cmn/communication/can_typed_data_transceiver.hpp Pages: 1 -->
<svg width="1312pt" height="302pt"
 viewBox="0.00 0.00 1312.00 302.00" xmlns="http://www.w3.org/2000/svg" xmlns:xlink="http://www.w3.org/1999/xlink">
<g id="graph0" class="graph" transform="scale(1 1) rotate(0) translate(4 298)">
<title>alps_common_lib/include/alps_cmn/communication/can_typed_data_transceiver.hpp</title>
<!-- Node1 -->
<g id="node1" class="node">
<title>Node1</title>
<g id="a_node1"><a xlink:title="CAN通信で型付けされたデータの送受信を行うライブラリ">
<polygon fill="#999999" stroke="#666666" points="810,-294 632,-294 632,-253 810,-253 810,-294"/>
<text text-anchor="start" x="640" y="-282" font-family="Helvetica,sans-Serif" font-size="10.00">alps_common_lib/include</text>
<text text-anchor="start" x="640" y="-271" font-family="Helvetica,sans-Serif" font-size="10.00">/alps_cmn/communication</text>
<text text-anchor="middle" x="721" y="-260" font-family="Helvetica,sans-Serif" font-size="10.00">/can_typed_data_transceiver.hpp</text>
</a>
</g>
</g>
<!-- Node2 -->
<g id="node2" class="node">
<title>Node2</title>
<g id="a_node2"><a xlink:href="can__callback__handler_8hpp.html" target="_top" xlink:title="CANデータフレームをコールバックで処理するためのライブラリ">
<polygon fill="white" stroke="#666666" points="1120,-217 974,-217 974,-187 1120,-187 1120,-217"/>
<text text-anchor="start" x="982" y="-205" font-family="Helvetica,sans-Serif" font-size="10.00">alps_cmn/communication</text>
<text text-anchor="middle" x="1047" y="-194" font-family="Helvetica,sans-Serif" font-size="10.00">/can_callback_handler.hpp</text>
</a>
</g>
</g>
<!-- Node1&#45;&gt;Node2 -->
<g id="edge1" class="edge">
<title>Node1&#45;&gt;Node2</title>
<path fill="none" stroke="#63b8ff" d="M810.08,-253.51C860.59,-242.74 923.12,-229.41 971.26,-219.15"/>
<polygon fill="#63b8ff" stroke="#63b8ff" points="972.25,-222.52 981.3,-217.01 970.79,-215.67 972.25,-222.52"/>
</g>
<!-- Node9 -->
<g id="node9" class="node">
<title>Node9</title>
<g id="a_node9"><a xlink:href="cobs_8hpp.html" target="_top" xlink:title="COBS変換ライブラリ">
<polygon fill="white" stroke="#666666" points="264,-217 122,-217 122,-187 264,-187 264,-217"/>
<text text-anchor="start" x="130" y="-205" font-family="Helvetica,sans-Serif" font-size="10.00">alps_cmn/communication</text>
<text text-anchor="middle" x="193" y="-194" font-family="Helvetica,sans-Serif" font-size="10.00">/cobs.hpp</text>
</a>
</g>
</g>
<!-- Node1&#45;&gt;Node9 -->
<g id="edge8" class="edge">
<title>Node1&#45;&gt;Node9</title>
<path fill="none" stroke="#63b8ff" d="M631.73,-260.75C531.62,-247.57 370.66,-226.38 274.04,-213.67"/>
<polygon fill="#63b8ff" stroke="#63b8ff" points="274.4,-210.18 264.03,-212.35 273.48,-217.12 274.4,-210.18"/>
</g>
<!-- Node15 -->
<g id="node15" class="node">
<title>Node15</title>
<g id="a_node15"><a xlink:href="serializer_8hpp.html" target="_top" xlink:title="データとバイト列の変換ライブラリ">
<polygon fill="white" stroke="#666666" points="637,-217 495,-217 495,-187 637,-187 637,-217"/>
<text text-anchor="start" x="503" y="-205" font-family="Helvetica,sans-Serif" font-size="10.00">alps_cmn/communication</text>
<text text-anchor="middle" x="566" y="-194" font-family="Helvetica,sans-Serif" font-size="10.00">/serializer.hpp</text>
</a>
</g>
</g>
<!-- Node1&#45;&gt;Node15 -->
<g id="edge14" class="edge">
<title>Node1&#45;&gt;Node15</title>
<path fill="none" stroke="#63b8ff" d="M677.41,-252.96C655.26,-243.02 628.5,-231.03 606.76,-221.28"/>
<polygon fill="#63b8ff" stroke="#63b8ff" points="608.03,-218.01 597.47,-217.11 605.17,-224.4 608.03,-218.01"/>
</g>
<!-- Node22 -->
<g id="node22" class="node">
<title>Node22</title>
<g id="a_node22"><a xlink:href="logging__macros_8hpp.html" target="_top" xlink:title=" ">
<polygon fill="white" stroke="#666666" points="878,-217 758,-217 758,-187 878,-187 878,-217"/>
<text text-anchor="start" x="766" y="-205" font-family="Helvetica,sans-Serif" font-size="10.00">alps_cmn/log/logging</text>
<text text-anchor="middle" x="818" y="-194" font-family="Helvetica,sans-Serif" font-size="10.00">_macros.hpp</text>
</a>
</g>
</g>
<!-- Node1&#45;&gt;Node22 -->
<g id="edge24" class="edge">
<title>Node1&#45;&gt;Node22</title>
<path fill="none" stroke="#63b8ff" d="M748.28,-252.96C761.33,-243.6 776.94,-232.42 790.08,-223.01"/>
<polygon fill="#63b8ff" stroke="#63b8ff" points="792.21,-225.78 798.3,-217.11 788.14,-220.09 792.21,-225.78"/>
</g>
<!-- Node3 -->
<g id="node3" class="node">
<title>Node3</title>
<g id="a_node3"><a xlink:href="i__can__io_8hpp.html" target="_top" xlink:title=" ">
<polygon fill="white" stroke="#666666" points="1168,-151 1026,-151 1026,-121 1168,-121 1168,-151"/>
<text text-anchor="start" x="1034" y="-139" font-family="Helvetica,sans-Serif" font-size="10.00">alps_cmn/communication</text>
<text text-anchor="middle" x="1097" y="-128" font-family="Helvetica,sans-Serif" font-size="10.00">/i_can_io.hpp</text>
</a>
</g>
</g>
<!-- Node2&#45;&gt;Node3 -->
<g id="edge2" class="edge">
<title>Node2&#45;&gt;Node3</title>
<path fill="none" stroke="#63b8ff" d="M1058.1,-186.8C1064.44,-178.68 1072.54,-168.31 1079.7,-159.15"/>
<polygon fill="#63b8ff" stroke="#63b8ff" points="1082.54,-161.2 1085.93,-151.16 1077.02,-156.89 1082.54,-161.2"/>
</g>
<!-- Node7 -->
<g id="node7" class="node">
<title>Node7</title>
<g id="a_node7"><a xlink:title=" ">
<polygon fill="#e0e0e0" stroke="#999999" points="960,-79.5 876,-79.5 876,-60.5 960,-60.5 960,-79.5"/>
<text text-anchor="middle" x="918" y="-67.5" font-family="Helvetica,sans-Serif" font-size="10.00">etl/delegate.h</text>
</a>
</g>
</g>
<!-- Node2&#45;&gt;Node7 -->
<g id="edge6" class="edge">
<title>Node2&#45;&gt;Node7</title>
<path fill="none" stroke="#63b8ff" d="M1036.16,-186.75C1023.3,-170.21 1000.85,-142.46 979,-121 966.11,-108.34 950.3,-95.44 938,-85.92"/>
<polygon fill="#63b8ff" stroke="#63b8ff" points="939.84,-82.92 929.76,-79.63 935.59,-88.48 939.84,-82.92"/>
</g>
<!-- Node8 -->
<g id="node8" class="node">
<title>Node8</title>
<g id="a_node8"><a xlink:title=" ">
<polygon fill="#e0e0e0" stroke="#999999" points="1304,-145.5 1186,-145.5 1186,-126.5 1304,-126.5 1304,-145.5"/>
<text text-anchor="middle" x="1245" y="-133.5" font-family="Helvetica,sans-Serif" font-size="10.00">etl/unordered_map.h</text>
</a>
</g>
</g>
<!-- Node2&#45;&gt;Node8 -->
<g id="edge7" class="edge">
<title>Node2&#45;&gt;Node8</title>
<path fill="none" stroke="#63b8ff" d="M1090.45,-186.95C1125.94,-175.48 1175.51,-159.46 1208.86,-148.68"/>
<polygon fill="#63b8ff" stroke="#63b8ff" points="1210.21,-151.92 1218.65,-145.52 1208.06,-145.26 1210.21,-151.92"/>
</g>
<!-- Node4 -->
<g id="node4" class="node">
<title>Node4</title>
<g id="a_node4"><a xlink:href="can__data__frame_8hpp.html" target="_top" xlink:title="CANフレームを表す構造体">
<polygon fill="white" stroke="#666666" points="1152,-85 1010,-85 1010,-55 1152,-55 1152,-85"/>
<text text-anchor="start" x="1018" y="-73" font-family="Helvetica,sans-Serif" font-size="10.00">alps_cmn/communication</text>
<text text-anchor="middle" x="1081" y="-62" font-family="Helvetica,sans-Serif" font-size="10.00">/can_data_frame.hpp</text>
</a>
</g>
</g>
<!-- Node3&#45;&gt;Node4 -->
<g id="edge3" class="edge">
<title>Node3&#45;&gt;Node4</title>
<path fill="none" stroke="#63b8ff" d="M1093.45,-120.8C1091.56,-113.26 1089.2,-103.78 1087.03,-95.13"/>
<polygon fill="#63b8ff" stroke="#63b8ff" points="1090.36,-94.02 1084.54,-85.16 1083.57,-95.71 1090.36,-94.02"/>
</g>
<!-- Node5 -->
<g id="node5" class="node">
<title>Node5</title>
<g id="a_node5"><a xlink:title=" ">
<polygon fill="#e0e0e0" stroke="#999999" points="1107.5,-19 1054.5,-19 1054.5,0 1107.5,0 1107.5,-19"/>
<text text-anchor="middle" x="1081" y="-7" font-family="Helvetica,sans-Serif" font-size="10.00">stdint.h</text>
</a>
</g>
</g>
<!-- Node4&#45;&gt;Node5 -->
<g id="edge4" class="edge">
<title>Node4&#45;&gt;Node5</title>
<path fill="none" stroke="#63b8ff" d="M1081,-54.84C1081,-47.21 1081,-37.7 1081,-29.45"/>
<polygon fill="#63b8ff" stroke="#63b8ff" points="1084.5,-29.27 1081,-19.27 1077.5,-29.27 1084.5,-29.27"/>
</g>
<!-- Node6 -->
<g id="node6" class="node">
<title>Node6</title>
<g id="a_node6"><a xlink:title=" ">
<polygon fill="#e0e0e0" stroke="#999999" points="809,-19 737,-19 737,0 809,0 809,-19"/>
<text text-anchor="middle" x="773" y="-7" font-family="Helvetica,sans-Serif" font-size="10.00">etl/vector.h</text>
</a>
</g>
</g>
<!-- Node4&#45;&gt;Node6 -->
<g id="edge5" class="edge">
<title>Node4&#45;&gt;Node6</title>
<path fill="none" stroke="#63b8ff" d="M1009.95,-55.51C951.28,-44.36 869.71,-28.87 819.2,-19.27"/>
<polygon fill="#63b8ff" stroke="#63b8ff" points="819.7,-15.81 809.22,-17.38 818.39,-22.68 819.7,-15.81"/>
</g>
<!-- Node10 -->
<g id="node10" class="node">
<title>Node10</title>
<g id="a_node10"><a xlink:title=" ">
<polygon fill="#e0e0e0" stroke="#999999" points="52,-145.5 0,-145.5 0,-126.5 52,-126.5 52,-145.5"/>
<text text-anchor="middle" x="26" y="-133.5" font-family="Helvetica,sans-Serif" font-size="10.00">cassert</text>
</a>
</g>
</g>
<!-- Node9&#45;&gt;Node10 -->
<g id="edge9" class="edge">
<title>Node9&#45;&gt;Node10</title>
<path fill="none" stroke="#63b8ff" d="M155.38,-186.96C128.93,-177.04 92.74,-163.36 61,-151 59.59,-150.45 58.15,-149.89 56.69,-149.31"/>
<polygon fill="#63b8ff" stroke="#63b8ff" points="57.66,-145.93 47.07,-145.5 55.08,-152.44 57.66,-145.93"/>
</g>
<!-- Node11 -->
<g id="node11" class="node">
<title>Node11</title>
<g id="a_node11"><a xlink:title=" ">
<polygon fill="#e0e0e0" stroke="#999999" points="252,-145.5 202,-145.5 202,-126.5 252,-126.5 252,-145.5"/>
<text text-anchor="middle" x="227" y="-133.5" font-family="Helvetica,sans-Serif" font-size="10.00">cstdint</text>
</a>
</g>
</g>
<!-- Node9&#45;&gt;Node11 -->
<g id="edge10" class="edge">
<title>Node9&#45;&gt;Node11</title>
<path fill="none" stroke="#63b8ff" d="M200.55,-186.8C205.53,-177.41 212.12,-165.02 217.47,-154.95"/>
<polygon fill="#63b8ff" stroke="#63b8ff" points="220.7,-156.32 222.3,-145.84 214.52,-153.03 220.7,-156.32"/>
</g>
<!-- Node12 -->
<g id="node12" class="node">
<title>Node12</title>
<g id="a_node12"><a xlink:title=" ">
<polygon fill="#e0e0e0" stroke="#999999" points="116,-145.5 70,-145.5 70,-126.5 116,-126.5 116,-145.5"/>
<text text-anchor="middle" x="93" y="-133.5" font-family="Helvetica,sans-Serif" font-size="10.00">cstdio</text>
</a>
</g>
</g>
<!-- Node9&#45;&gt;Node12 -->
<g id="edge11" class="edge">
<title>Node9&#45;&gt;Node12</title>
<path fill="none" stroke="#63b8ff" d="M170.81,-186.8C154.2,-176.17 131.6,-161.7 115.03,-151.1"/>
<polygon fill="#63b8ff" stroke="#63b8ff" points="116.84,-148.1 106.53,-145.66 113.06,-154 116.84,-148.1"/>
</g>
<!-- Node13 -->
<g id="node13" class="node">
<title>Node13</title>
<g id="a_node13"><a xlink:title=" ">
<polygon fill="#e0e0e0" stroke="#999999" points="183.5,-145.5 134.5,-145.5 134.5,-126.5 183.5,-126.5 183.5,-145.5"/>
<text text-anchor="middle" x="159" y="-133.5" font-family="Helvetica,sans-Serif" font-size="10.00">cstdlib</text>
</a>
</g>
</g>
<!-- Node9&#45;&gt;Node13 -->
<g id="edge12" class="edge">
<title>Node9&#45;&gt;Node13</title>
<path fill="none" stroke="#63b8ff" d="M185.45,-186.8C180.47,-177.41 173.88,-165.02 168.53,-154.95"/>
<polygon fill="#63b8ff" stroke="#63b8ff" points="171.48,-153.03 163.7,-145.84 165.3,-156.32 171.48,-153.03"/>
</g>
<!-- Node14 -->
<g id="node14" class="node">
<title>Node14</title>
<g id="a_node14"><a xlink:title=" ">
<polygon fill="#e0e0e0" stroke="#999999" points="382,-145.5 270,-145.5 270,-126.5 382,-126.5 382,-145.5"/>
<text text-anchor="middle" x="326" y="-133.5" font-family="Helvetica,sans-Serif" font-size="10.00">etl/circular_buffer.h</text>
</a>
</g>
</g>
<!-- Node9&#45;&gt;Node14 -->
<g id="edge13" class="edge">
<title>Node9&#45;&gt;Node14</title>
<path fill="none" stroke="#63b8ff" d="M222.19,-186.95C245.1,-175.93 276.75,-160.7 299.07,-149.96"/>
<polygon fill="#63b8ff" stroke="#63b8ff" points="300.81,-153.01 308.3,-145.52 297.77,-146.7 300.81,-153.01"/>
</g>
<!-- Node15&#45;&gt;Node6 -->
<g id="edge23" class="edge">
<title>Node15&#45;&gt;Node6</title>
<path fill="none" stroke="#63b8ff" d="M555.92,-186.88C545.38,-170.23 531.92,-142.14 544,-121 581.52,-55.33 671.4,-28.07 726.74,-17.22"/>
<polygon fill="#63b8ff" stroke="#63b8ff" points="727.46,-20.64 736.65,-15.38 726.18,-13.76 727.46,-20.64"/>
</g>
<!-- Node15&#45;&gt;Node11 -->
<g id="edge17" class="edge">
<title>Node15&#45;&gt;Node11</title>
<path fill="none" stroke="#63b8ff" d="M494.74,-193.97C432.27,-186.72 339.46,-173.27 261,-151 259.11,-150.46 257.19,-149.85 255.26,-149.2"/>
<polygon fill="#63b8ff" stroke="#63b8ff" points="256.38,-145.88 245.79,-145.63 253.91,-152.43 256.38,-145.88"/>
</g>
<!-- Node15&#45;&gt;Node14 -->
<g id="edge21" class="edge">
<title>Node15&#45;&gt;Node14</title>
<path fill="none" stroke="#63b8ff" d="M513.33,-186.95C469.57,-175.29 408.15,-158.91 367.74,-148.13"/>
<polygon fill="#63b8ff" stroke="#63b8ff" points="368.5,-144.71 357.94,-145.52 366.7,-151.48 368.5,-144.71"/>
</g>
<!-- Node16 -->
<g id="node16" class="node">
<title>Node16</title>
<g id="a_node16"><a xlink:title=" ">
<polygon fill="#e0e0e0" stroke="#999999" points="628,-145.5 564,-145.5 564,-126.5 628,-126.5 628,-145.5"/>
<text text-anchor="middle" x="596" y="-133.5" font-family="Helvetica,sans-Serif" font-size="10.00">algorithm</text>
</a>
</g>
</g>
<!-- Node15&#45;&gt;Node16 -->
<g id="edge15" class="edge">
<title>Node15&#45;&gt;Node16</title>
<path fill="none" stroke="#63b8ff" d="M572.66,-186.8C577.06,-177.41 582.87,-165.02 587.59,-154.95"/>
<polygon fill="#63b8ff" stroke="#63b8ff" points="590.78,-156.38 591.85,-145.84 584.44,-153.41 590.78,-156.38"/>
</g>
<!-- Node17 -->
<g id="node17" class="node">
<title>Node17</title>
<g id="a_node17"><a xlink:title=" ">
<polygon fill="#e0e0e0" stroke="#999999" points="688,-145.5 646,-145.5 646,-126.5 688,-126.5 688,-145.5"/>
<text text-anchor="middle" x="667" y="-133.5" font-family="Helvetica,sans-Serif" font-size="10.00">array</text>
</a>
</g>
</g>
<!-- Node15&#45;&gt;Node17 -->
<g id="edge16" class="edge">
<title>Node15&#45;&gt;Node17</title>
<path fill="none" stroke="#63b8ff" d="M588.42,-186.8C605.19,-176.17 628.01,-161.7 644.75,-151.1"/>
<polygon fill="#63b8ff" stroke="#63b8ff" points="646.76,-153.97 653.34,-145.66 643.02,-148.05 646.76,-153.97"/>
</g>
<!-- Node18 -->
<g id="node18" class="node">
<title>Node18</title>
<g id="a_node18"><a xlink:title=" ">
<polygon fill="#e0e0e0" stroke="#999999" points="756,-145.5 706,-145.5 706,-126.5 756,-126.5 756,-145.5"/>
<text text-anchor="middle" x="731" y="-133.5" font-family="Helvetica,sans-Serif" font-size="10.00">cstring</text>
</a>
</g>
</g>
<!-- Node15&#45;&gt;Node18 -->
<g id="edge18" class="edge">
<title>Node15&#45;&gt;Node18</title>
<path fill="none" stroke="#63b8ff" d="M603.65,-186.93C629.89,-177.05 665.66,-163.43 697,-151 698.37,-150.46 699.77,-149.9 701.19,-149.33"/>
<polygon fill="#63b8ff" stroke="#63b8ff" points="702.59,-152.53 710.54,-145.53 699.96,-146.05 702.59,-152.53"/>
</g>
<!-- Node19 -->
<g id="node19" class="node">
<title>Node19</title>
<g id="a_node19"><a xlink:title=" ">
<polygon fill="#e0e0e0" stroke="#999999" points="815.5,-145.5 774.5,-145.5 774.5,-126.5 815.5,-126.5 815.5,-145.5"/>
<text text-anchor="middle" x="795" y="-133.5" font-family="Helvetica,sans-Serif" font-size="10.00">tuple</text>
</a>
</g>
</g>
<!-- Node15&#45;&gt;Node19 -->
<g id="edge19" class="edge">
<title>Node15&#45;&gt;Node19</title>
<path fill="none" stroke="#63b8ff" d="M635.57,-186.94C674.23,-178.28 722.87,-165.97 765,-151 766.22,-150.57 767.45,-150.1 768.7,-149.61"/>
<polygon fill="#63b8ff" stroke="#63b8ff" points="770.3,-152.74 778.1,-145.57 767.53,-146.3 770.3,-152.74"/>
</g>
<!-- Node20 -->
<g id="node20" class="node">
<title>Node20</title>
<g id="a_node20"><a xlink:title=" ">
<polygon fill="#e0e0e0" stroke="#999999" points="469.5,-145.5 400.5,-145.5 400.5,-126.5 469.5,-126.5 469.5,-145.5"/>
<text text-anchor="middle" x="435" y="-133.5" font-family="Helvetica,sans-Serif" font-size="10.00">type_traits</text>
</a>
</g>
</g>
<!-- Node15&#45;&gt;Node20 -->
<g id="edge20" class="edge">
<title>Node15&#45;&gt;Node20</title>
<path fill="none" stroke="#63b8ff" d="M537.25,-186.95C514.68,-175.93 483.51,-160.7 461.53,-149.96"/>
<polygon fill="#63b8ff" stroke="#63b8ff" points="462.96,-146.76 452.43,-145.52 459.88,-153.05 462.96,-146.76"/>
</g>
<!-- Node21 -->
<g id="node21" class="node">
<title>Node21</title>
<g id="a_node21"><a xlink:title=" ">
<polygon fill="#e0e0e0" stroke="#999999" points="734.5,-79.5 665.5,-79.5 665.5,-60.5 734.5,-60.5 734.5,-79.5"/>
<text text-anchor="middle" x="700" y="-67.5" font-family="Helvetica,sans-Serif" font-size="10.00">etl/string.h</text>
</a>
</g>
</g>
<!-- Node15&#45;&gt;Node21 -->
<g id="edge22" class="edge">
<title>Node15&#45;&gt;Node21</title>
<path fill="none" stroke="#63b8ff" d="M558.56,-186.85C550.67,-169.66 541.08,-140.52 555,-121 577.55,-89.36 621.5,-77.55 655.13,-73.24"/>
<polygon fill="#63b8ff" stroke="#63b8ff" points="655.64,-76.7 665.2,-72.12 654.87,-69.74 655.64,-76.7"/>
</g>
<!-- Node23 -->
<g id="node23" class="node">
<title>Node23</title>
<g id="a_node23"><a xlink:href="logger_8hpp.html" target="_top" xlink:title=" ">
<polygon fill="white" stroke="#666666" points="970,-145.5 834,-145.5 834,-126.5 970,-126.5 970,-145.5"/>
<text text-anchor="middle" x="902" y="-133.5" font-family="Helvetica,sans-Serif" font-size="10.00">alps_cmn/log/logger.hpp</text>
</a>
</g>
</g>
<!-- Node22&#45;&gt;Node23 -->
<g id="edge25" class="edge">
<title>Node22&#45;&gt;Node23</title>
<path fill="none" stroke="#63b8ff" d="M836.64,-186.8C850.12,-176.53 868.31,-162.67 882.08,-152.18"/>
<polygon fill="#63b8ff" stroke="#63b8ff" points="884.56,-154.69 890.39,-145.84 880.32,-149.12 884.56,-154.69"/>
</g>
<!-- Node23&#45;&gt;Node7 -->
<g id="edge26" class="edge">
<title>Node23&#45;&gt;Node7</title>
<path fill="none" stroke="#63b8ff" d="M904.16,-126.37C906.48,-117.07 910.26,-101.98 913.28,-89.9"/>
<polygon fill="#63b8ff" stroke="#63b8ff" points="916.74,-90.46 915.77,-79.91 909.95,-88.76 916.74,-90.46"/>
</g>
<!-- Node23&#45;&gt;Node21 -->
<g id="edge27" class="edge">
<title>Node23&#45;&gt;Node21</title>
<path fill="none" stroke="#63b8ff" d="M874.76,-126.37C839.12,-115.08 776.53,-95.25 736.73,-82.64"/>
<polygon fill="#63b8ff" stroke="#63b8ff" points="737.72,-79.28 727.13,-79.6 735.61,-85.95 737.72,-79.28"/>
</g>
</g>
</svg>
