<?xml version="1.0" encoding="UTF-8" standalone="no"?>
<!DOCTYPE svg PUBLIC "-//W3C//DTD SVG 1.1//EN"
 "http://www.w3.org/Graphics/SVG/1.1/DTD/svg11.dtd">
<!-- Generated by graphviz version 2.43.0 (0)
 -->
<!-- Title: alps_ros2_lib/include/alps_ros2/communication/can_topic_bridge.hpp Pages: 1 -->
<svg width="4345pt" height="374pt"
 viewBox="0.00 0.00 4345.36 374.00" xmlns="http://www.w3.org/2000/svg" xmlns:xlink="http://www.w3.org/1999/xlink">
<g id="graph0" class="graph" transform="scale(1 1) rotate(0) translate(4 370)">
<title>alps_ros2_lib/include/alps_ros2/communication/can_topic_bridge.hpp</title>
<polygon fill="white" stroke="transparent" points="-4,4 -4,-370 4341.36,-370 4341.36,4 -4,4"/>
<!-- Node1 -->
<g id="node1" class="node">
<title>Node1</title>
<g id="a_node1"><a xlink:title=" ">
<polygon fill="#bfbfbf" stroke="black" points="2962.69,-324.5 2962.69,-365.5 3107.69,-365.5 3107.69,-324.5 2962.69,-324.5"/>
<text text-anchor="start" x="2970.69" y="-353.5" font-family="Helvetica,sans-Serif" font-size="10.00">alps_ros2_lib/include</text>
<text text-anchor="start" x="2970.69" y="-342.5" font-family="Helvetica,sans-Serif" font-size="10.00">/alps_ros2/communication</text>
<text text-anchor="middle" x="3035.19" y="-331.5" font-family="Helvetica,sans-Serif" font-size="10.00">/can_topic_bridge.hpp</text>
</a>
</g>
</g>
<!-- Node2 -->
<g id="node2" class="node">
<title>Node2</title>
<g id="a_node2"><a xlink:href="can__typed__data__transceiver_8hpp.html" target="_top" xlink:title="CAN通信で型付けされたデータの送受信を行うライブラリ">
<polygon fill="white" stroke="black" points="3868.69,-190.5 3868.69,-220.5 4045.69,-220.5 4045.69,-190.5 3868.69,-190.5"/>
<text text-anchor="start" x="3876.69" y="-208.5" font-family="Helvetica,sans-Serif" font-size="10.00">alps_cmn/communication</text>
<text text-anchor="middle" x="3957.19" y="-197.5" font-family="Helvetica,sans-Serif" font-size="10.00">/can_typed_data_transceiver.hpp</text>
</a>
</g>
</g>
<!-- Node1&#45;&gt;Node2 -->
<g id="edge1" class="edge">
<title>Node1&#45;&gt;Node2</title>
<path fill="none" stroke="midnightblue" d="M3033.27,-324.33C3032.49,-304.07 3034.92,-273.24 3054.19,-257 3086.99,-229.36 3754.86,-225.57 3858.32,-220.68"/>
<polygon fill="midnightblue" stroke="midnightblue" points="3858.81,-224.15 3868.57,-220.03 3858.37,-217.17 3858.81,-224.15"/>
</g>
<!-- Node27 -->
<g id="node23" class="node">
<title>Node27</title>
<g id="a_node23"><a xlink:href="topic__converter_8hpp.html" target="_top" xlink:title=" ">
<polygon fill="white" stroke="black" points="1969.69,-257.5 1969.69,-287.5 2084.69,-287.5 2084.69,-257.5 1969.69,-257.5"/>
<text text-anchor="start" x="1977.69" y="-275.5" font-family="Helvetica,sans-Serif" font-size="10.00">alps_ros2/type/topic</text>
<text text-anchor="middle" x="2027.19" y="-264.5" font-family="Helvetica,sans-Serif" font-size="10.00">_converter.hpp</text>
</a>
</g>
</g>
<!-- Node1&#45;&gt;Node27 -->
<g id="edge28" class="edge">
<title>Node1&#45;&gt;Node27</title>
<path fill="none" stroke="midnightblue" d="M2962.3,-338.9C2774.65,-325.78 2276.97,-290.97 2095.03,-278.24"/>
<polygon fill="midnightblue" stroke="midnightblue" points="2095.02,-274.74 2084.8,-277.53 2094.53,-281.72 2095.02,-274.74"/>
</g>
<!-- Node54 -->
<g id="node50" class="node">
<title>Node54</title>
<g id="a_node50"><a xlink:title=" ">
<polygon fill="white" stroke="#bfbfbf" points="3063.69,-263 3063.69,-282 3162.69,-282 3162.69,-263 3063.69,-263"/>
<text text-anchor="middle" x="3113.19" y="-270" font-family="Helvetica,sans-Serif" font-size="10.00">rclcpp/rclcpp.hpp</text>
</a>
</g>
</g>
<!-- Node1&#45;&gt;Node54 -->
<g id="edge57" class="edge">
<title>Node1&#45;&gt;Node54</title>
<path fill="none" stroke="midnightblue" d="M3056.92,-324.36C3069.25,-313.21 3084.48,-299.46 3095.98,-289.06"/>
<polygon fill="midnightblue" stroke="midnightblue" points="3098.53,-291.48 3103.6,-282.17 3093.83,-286.28 3098.53,-291.48"/>
</g>
<!-- Node3 -->
<g id="node3" class="node">
<title>Node3</title>
<g id="a_node3"><a xlink:href="can__callback__handler_8hpp.html" target="_top" xlink:title="CANデータフレームをコールバックで処理するためのライブラリ">
<polygon fill="white" stroke="black" points="4115.69,-123.5 4115.69,-153.5 4260.69,-153.5 4260.69,-123.5 4115.69,-123.5"/>
<text text-anchor="start" x="4123.69" y="-141.5" font-family="Helvetica,sans-Serif" font-size="10.00">alps_cmn/communication</text>
<text text-anchor="middle" x="4188.19" y="-130.5" font-family="Helvetica,sans-Serif" font-size="10.00">/can_callback_handler.hpp</text>
</a>
</g>
</g>
<!-- Node2&#45;&gt;Node3 -->
<g id="edge2" class="edge">
<title>Node2&#45;&gt;Node3</title>
<path fill="none" stroke="midnightblue" d="M4007.03,-190.48C4042.59,-180.47 4090.57,-166.97 4128.22,-156.38"/>
<polygon fill="midnightblue" stroke="midnightblue" points="4129.37,-159.69 4138.05,-153.61 4127.47,-152.95 4129.37,-159.69"/>
</g>
<!-- Node10 -->
<g id="node7" class="node">
<title>Node10</title>
<g id="a_node7"><a xlink:href="cobs_8hpp.html" target="_top" xlink:title="COBS変換ライブラリ">
<polygon fill="white" stroke="black" points="3672.19,-123.5 3672.19,-153.5 3814.19,-153.5 3814.19,-123.5 3672.19,-123.5"/>
<text text-anchor="start" x="3680.19" y="-141.5" font-family="Helvetica,sans-Serif" font-size="10.00">alps_cmn/communication</text>
<text text-anchor="middle" x="3743.19" y="-130.5" font-family="Helvetica,sans-Serif" font-size="10.00">/cobs.hpp</text>
</a>
</g>
</g>
<!-- Node2&#45;&gt;Node10 -->
<g id="edge6" class="edge">
<title>Node2&#45;&gt;Node10</title>
<path fill="none" stroke="midnightblue" d="M3911.02,-190.48C3878.37,-180.56 3834.39,-167.2 3799.65,-156.65"/>
<polygon fill="midnightblue" stroke="midnightblue" points="3800.24,-153.17 3789.65,-153.61 3798.2,-159.87 3800.24,-153.17"/>
</g>
<!-- Node16 -->
<g id="node13" class="node">
<title>Node16</title>
<g id="a_node13"><a xlink:href="logging__macros_8hpp.html" target="_top" xlink:title=" ">
<polygon fill="white" stroke="black" points="3897.19,-123.5 3897.19,-153.5 4017.19,-153.5 4017.19,-123.5 3897.19,-123.5"/>
<text text-anchor="start" x="3905.19" y="-141.5" font-family="Helvetica,sans-Serif" font-size="10.00">alps_cmn/log/logging</text>
<text text-anchor="middle" x="3957.19" y="-130.5" font-family="Helvetica,sans-Serif" font-size="10.00">_macros.hpp</text>
</a>
</g>
</g>
<!-- Node2&#45;&gt;Node16 -->
<g id="edge12" class="edge">
<title>Node2&#45;&gt;Node16</title>
<path fill="none" stroke="midnightblue" d="M3957.19,-190.4C3957.19,-182.64 3957.19,-172.81 3957.19,-163.86"/>
<polygon fill="midnightblue" stroke="midnightblue" points="3960.69,-163.58 3957.19,-153.58 3953.69,-163.58 3960.69,-163.58"/>
</g>
<!-- Node19 -->
<g id="node16" class="node">
<title>Node19</title>
<g id="a_node16"><a xlink:href="serializer_8hpp.html" target="_top" xlink:title="データとバイト列の変換ライブラリ">
<polygon fill="white" stroke="red" points="3320.19,-129 3320.19,-148 3476.19,-148 3476.19,-129 3320.19,-129"/>
<text text-anchor="middle" x="3398.19" y="-136" font-family="Helvetica,sans-Serif" font-size="10.00">alps_cmn/type/serializer.hpp</text>
</a>
</g>
</g>
<!-- Node2&#45;&gt;Node19 -->
<g id="edge16" class="edge">
<title>Node2&#45;&gt;Node19</title>
<path fill="none" stroke="midnightblue" d="M3868.54,-191.23C3865.39,-190.81 3862.27,-190.4 3859.19,-190 3729.69,-173.33 3579.27,-157.52 3486.4,-148.16"/>
<polygon fill="midnightblue" stroke="midnightblue" points="3486.5,-144.65 3476.2,-147.14 3485.8,-151.62 3486.5,-144.65"/>
</g>
<!-- Node4 -->
<g id="node4" class="node">
<title>Node4</title>
<g id="a_node4"><a xlink:href="i__can__io_8hpp.html" target="_top" xlink:title=" ">
<polygon fill="white" stroke="red" points="4043.19,-56.5 4043.19,-86.5 4185.19,-86.5 4185.19,-56.5 4043.19,-56.5"/>
<text text-anchor="start" x="4051.19" y="-74.5" font-family="Helvetica,sans-Serif" font-size="10.00">alps_cmn/communication</text>
<text text-anchor="middle" x="4114.19" y="-63.5" font-family="Helvetica,sans-Serif" font-size="10.00">/i_can_io.hpp</text>
</a>
</g>
</g>
<!-- Node3&#45;&gt;Node4 -->
<g id="edge3" class="edge">
<title>Node3&#45;&gt;Node4</title>
<path fill="none" stroke="midnightblue" d="M4172.14,-123.4C4162.15,-114.62 4149.13,-103.18 4137.96,-93.37"/>
<polygon fill="midnightblue" stroke="midnightblue" points="4140.04,-90.55 4130.22,-86.58 4135.42,-95.81 4140.04,-90.55"/>
</g>
<!-- Node8 -->
<g id="node5" class="node">
<title>Node8</title>
<g id="a_node5"><a xlink:title=" ">
<polygon fill="white" stroke="#bfbfbf" points="4111.19,-0.5 4111.19,-19.5 4195.19,-19.5 4195.19,-0.5 4111.19,-0.5"/>
<text text-anchor="middle" x="4153.19" y="-7.5" font-family="Helvetica,sans-Serif" font-size="10.00">etl/delegate.h</text>
</a>
</g>
</g>
<!-- Node3&#45;&gt;Node8 -->
<g id="edge4" class="edge">
<title>Node3&#45;&gt;Node8</title>
<path fill="none" stroke="midnightblue" d="M4258.43,-123.44C4305.9,-110.66 4355.67,-88.76 4330.19,-56 4314.92,-36.35 4251.82,-23.88 4205.29,-17.17"/>
<polygon fill="midnightblue" stroke="midnightblue" points="4205.73,-13.7 4195.35,-15.79 4204.77,-20.63 4205.73,-13.7"/>
</g>
<!-- Node9 -->
<g id="node6" class="node">
<title>Node9</title>
<g id="a_node6"><a xlink:title=" ">
<polygon fill="white" stroke="#bfbfbf" points="4203.19,-62 4203.19,-81 4321.19,-81 4321.19,-62 4203.19,-62"/>
<text text-anchor="middle" x="4262.19" y="-69" font-family="Helvetica,sans-Serif" font-size="10.00">etl/unordered_map.h</text>
</a>
</g>
</g>
<!-- Node3&#45;&gt;Node9 -->
<g id="edge5" class="edge">
<title>Node3&#45;&gt;Node9</title>
<path fill="none" stroke="midnightblue" d="M4204.25,-123.4C4216.13,-112.96 4232.31,-98.75 4244.55,-88"/>
<polygon fill="midnightblue" stroke="midnightblue" points="4247.09,-90.42 4252.3,-81.19 4242.47,-85.16 4247.09,-90.42"/>
</g>
<!-- Node11 -->
<g id="node8" class="node">
<title>Node11</title>
<g id="a_node8"><a xlink:title=" ">
<polygon fill="white" stroke="#bfbfbf" points="3819.19,-62 3819.19,-81 3871.19,-81 3871.19,-62 3819.19,-62"/>
<text text-anchor="middle" x="3845.19" y="-69" font-family="Helvetica,sans-Serif" font-size="10.00">cassert</text>
</a>
</g>
</g>
<!-- Node10&#45;&gt;Node11 -->
<g id="edge7" class="edge">
<title>Node10&#45;&gt;Node11</title>
<path fill="none" stroke="midnightblue" d="M3765.33,-123.4C3782.43,-112.5 3806,-97.48 3823.09,-86.58"/>
<polygon fill="midnightblue" stroke="midnightblue" points="3825.29,-89.33 3831.85,-81.01 3821.53,-83.43 3825.29,-89.33"/>
</g>
<!-- Node12 -->
<g id="node9" class="node">
<title>Node12</title>
<g id="a_node9"><a xlink:title=" ">
<polygon fill="white" stroke="#bfbfbf" points="3619.19,-62 3619.19,-81 3669.19,-81 3669.19,-62 3619.19,-62"/>
<text text-anchor="middle" x="3644.19" y="-69" font-family="Helvetica,sans-Serif" font-size="10.00">cstdint</text>
</a>
</g>
</g>
<!-- Node10&#45;&gt;Node12 -->
<g id="edge8" class="edge">
<title>Node10&#45;&gt;Node12</title>
<path fill="none" stroke="midnightblue" d="M3721.71,-123.4C3705.11,-112.5 3682.24,-97.48 3665.64,-86.58"/>
<polygon fill="midnightblue" stroke="midnightblue" points="3667.43,-83.57 3657.15,-81.01 3663.59,-89.42 3667.43,-83.57"/>
</g>
<!-- Node13 -->
<g id="node10" class="node">
<title>Node13</title>
<g id="a_node10"><a xlink:title=" ">
<polygon fill="white" stroke="#bfbfbf" points="3687.19,-62 3687.19,-81 3733.19,-81 3733.19,-62 3687.19,-62"/>
<text text-anchor="middle" x="3710.19" y="-69" font-family="Helvetica,sans-Serif" font-size="10.00">cstdio</text>
</a>
</g>
</g>
<!-- Node10&#45;&gt;Node13 -->
<g id="edge9" class="edge">
<title>Node10&#45;&gt;Node13</title>
<path fill="none" stroke="midnightblue" d="M3736.03,-123.4C3731.09,-113.66 3724.48,-100.65 3719.19,-90.21"/>
<polygon fill="midnightblue" stroke="midnightblue" points="3722.26,-88.53 3714.61,-81.19 3716.01,-91.7 3722.26,-88.53"/>
</g>
<!-- Node14 -->
<g id="node11" class="node">
<title>Node14</title>
<g id="a_node11"><a xlink:title=" ">
<polygon fill="white" stroke="#bfbfbf" points="3751.69,-62 3751.69,-81 3800.69,-81 3800.69,-62 3751.69,-62"/>
<text text-anchor="middle" x="3776.19" y="-69" font-family="Helvetica,sans-Serif" font-size="10.00">cstdlib</text>
</a>
</g>
</g>
<!-- Node10&#45;&gt;Node14 -->
<g id="edge10" class="edge">
<title>Node10&#45;&gt;Node14</title>
<path fill="none" stroke="midnightblue" d="M3750.36,-123.4C3755.3,-113.66 3761.9,-100.65 3767.2,-90.21"/>
<polygon fill="midnightblue" stroke="midnightblue" points="3770.37,-91.7 3771.78,-81.19 3764.13,-88.53 3770.37,-91.7"/>
</g>
<!-- Node15 -->
<g id="node12" class="node">
<title>Node15</title>
<g id="a_node12"><a xlink:title=" ">
<polygon fill="white" stroke="#bfbfbf" points="3491.19,-62 3491.19,-81 3601.19,-81 3601.19,-62 3491.19,-62"/>
<text text-anchor="middle" x="3546.19" y="-69" font-family="Helvetica,sans-Serif" font-size="10.00">etl/circular_buffer.h</text>
</a>
</g>
</g>
<!-- Node10&#45;&gt;Node15 -->
<g id="edge11" class="edge">
<title>Node10&#45;&gt;Node15</title>
<path fill="none" stroke="midnightblue" d="M3700.45,-123.4C3664.97,-111.69 3615.09,-95.23 3581.76,-84.23"/>
<polygon fill="midnightblue" stroke="midnightblue" points="3582.57,-80.82 3571.98,-81.01 3580.38,-87.46 3582.57,-80.82"/>
</g>
<!-- Node17 -->
<g id="node14" class="node">
<title>Node17</title>
<g id="a_node14"><a xlink:href="logger_8hpp.html" target="_top" xlink:title=" ">
<polygon fill="white" stroke="black" points="3889.69,-62 3889.69,-81 4024.69,-81 4024.69,-62 3889.69,-62"/>
<text text-anchor="middle" x="3957.19" y="-69" font-family="Helvetica,sans-Serif" font-size="10.00">alps_cmn/log/logger.hpp</text>
</a>
</g>
</g>
<!-- Node16&#45;&gt;Node17 -->
<g id="edge13" class="edge">
<title>Node16&#45;&gt;Node17</title>
<path fill="none" stroke="midnightblue" d="M3957.19,-123.4C3957.19,-114.06 3957.19,-101.71 3957.19,-91.52"/>
<polygon fill="midnightblue" stroke="midnightblue" points="3960.69,-91.19 3957.19,-81.19 3953.69,-91.19 3960.69,-91.19"/>
</g>
<!-- Node17&#45;&gt;Node8 -->
<g id="edge14" class="edge">
<title>Node17&#45;&gt;Node8</title>
<path fill="none" stroke="midnightblue" d="M3985.28,-61.98C4019.48,-51.59 4077.39,-34.01 4115.46,-22.45"/>
<polygon fill="midnightblue" stroke="midnightblue" points="4116.61,-25.76 4125.16,-19.51 4114.58,-19.06 4116.61,-25.76"/>
</g>
<!-- Node18 -->
<g id="node15" class="node">
<title>Node18</title>
<g id="a_node15"><a xlink:title=" ">
<polygon fill="white" stroke="#bfbfbf" points="3491.69,-0.5 3491.69,-19.5 3560.69,-19.5 3560.69,-0.5 3491.69,-0.5"/>
<text text-anchor="middle" x="3526.19" y="-7.5" font-family="Helvetica,sans-Serif" font-size="10.00">etl/string.h</text>
</a>
</g>
</g>
<!-- Node17&#45;&gt;Node18 -->
<g id="edge15" class="edge">
<title>Node17&#45;&gt;Node18</title>
<path fill="none" stroke="midnightblue" d="M3914.51,-61.99C3903.36,-59.9 3891.35,-57.76 3880.19,-56 3769.53,-38.56 3638.58,-23.31 3571.22,-15.85"/>
<polygon fill="midnightblue" stroke="midnightblue" points="3571.29,-12.34 3560.96,-14.72 3570.52,-19.3 3571.29,-12.34"/>
</g>
<!-- Node19&#45;&gt;Node12 -->
<g id="edge19" class="edge">
<title>Node19&#45;&gt;Node12</title>
<path fill="none" stroke="midnightblue" d="M3443.89,-128.95C3487.25,-120.29 3553.96,-105.54 3610.19,-87 3612.11,-86.37 3614.08,-85.67 3616.04,-84.94"/>
<polygon fill="midnightblue" stroke="midnightblue" points="3617.73,-88.03 3625.71,-81.06 3615.12,-81.53 3617.73,-88.03"/>
</g>
<!-- Node19&#45;&gt;Node15 -->
<g id="edge26" class="edge">
<title>Node19&#45;&gt;Node15</title>
<path fill="none" stroke="midnightblue" d="M3417.85,-128.87C3443.28,-117.7 3487.8,-98.15 3517.14,-85.26"/>
<polygon fill="midnightblue" stroke="midnightblue" points="3518.71,-88.39 3526.46,-81.17 3515.9,-81.98 3518.71,-88.39"/>
</g>
<!-- Node19&#45;&gt;Node18 -->
<g id="edge27" class="edge">
<title>Node19&#45;&gt;Node18</title>
<path fill="none" stroke="midnightblue" d="M3406.99,-128.81C3428.28,-107.77 3482.79,-53.89 3510.1,-26.9"/>
<polygon fill="midnightblue" stroke="midnightblue" points="3512.68,-29.27 3517.34,-19.76 3507.76,-24.3 3512.68,-29.27"/>
</g>
<!-- Node20 -->
<g id="node17" class="node">
<title>Node20</title>
<g id="a_node17"><a xlink:title=" ">
<polygon fill="white" stroke="#bfbfbf" points="3205.19,-62 3205.19,-81 3269.19,-81 3269.19,-62 3205.19,-62"/>
<text text-anchor="middle" x="3237.19" y="-69" font-family="Helvetica,sans-Serif" font-size="10.00">algorithm</text>
</a>
</g>
</g>
<!-- Node19&#45;&gt;Node20 -->
<g id="edge17" class="edge">
<title>Node19&#45;&gt;Node20</title>
<path fill="none" stroke="midnightblue" d="M3376.82,-128.87C3348.83,-117.57 3299.6,-97.7 3267.71,-84.82"/>
<polygon fill="midnightblue" stroke="midnightblue" points="3268.99,-81.56 3258.41,-81.06 3266.37,-88.05 3268.99,-81.56"/>
</g>
<!-- Node21 -->
<g id="node18" class="node">
<title>Node21</title>
<g id="a_node18"><a xlink:title=" ">
<polygon fill="white" stroke="#bfbfbf" points="3287.19,-62 3287.19,-81 3329.19,-81 3329.19,-62 3287.19,-62"/>
<text text-anchor="middle" x="3308.19" y="-69" font-family="Helvetica,sans-Serif" font-size="10.00">array</text>
</a>
</g>
</g>
<!-- Node19&#45;&gt;Node21 -->
<g id="edge18" class="edge">
<title>Node19&#45;&gt;Node21</title>
<path fill="none" stroke="midnightblue" d="M3386.06,-128.73C3371.35,-118.11 3346.34,-100.05 3328.64,-87.26"/>
<polygon fill="midnightblue" stroke="midnightblue" points="3330.3,-84.14 3320.14,-81.13 3326.2,-89.82 3330.3,-84.14"/>
</g>
<!-- Node22 -->
<g id="node19" class="node">
<title>Node22</title>
<g id="a_node19"><a xlink:title=" ">
<polygon fill="white" stroke="#bfbfbf" points="3347.19,-62 3347.19,-81 3397.19,-81 3397.19,-62 3347.19,-62"/>
<text text-anchor="middle" x="3372.19" y="-69" font-family="Helvetica,sans-Serif" font-size="10.00">cstring</text>
</a>
</g>
</g>
<!-- Node19&#45;&gt;Node22 -->
<g id="edge20" class="edge">
<title>Node19&#45;&gt;Node22</title>
<path fill="none" stroke="midnightblue" d="M3394.69,-128.73C3390.79,-118.99 3384.39,-102.98 3379.41,-90.53"/>
<polygon fill="midnightblue" stroke="midnightblue" points="3382.61,-89.11 3375.65,-81.13 3376.11,-91.71 3382.61,-89.11"/>
</g>
<!-- Node23 -->
<g id="node20" class="node">
<title>Node23</title>
<g id="a_node20"><a xlink:title=" ">
<polygon fill="white" stroke="#bfbfbf" points="3341.69,-0.5 3341.69,-19.5 3382.69,-19.5 3382.69,-0.5 3341.69,-0.5"/>
<text text-anchor="middle" x="3362.19" y="-7.5" font-family="Helvetica,sans-Serif" font-size="10.00">tuple</text>
</a>
</g>
</g>
<!-- Node19&#45;&gt;Node23 -->
<g id="edge21" class="edge">
<title>Node19&#45;&gt;Node23</title>
<path fill="none" stroke="midnightblue" d="M3401.72,-128.54C3407.24,-113.1 3416.28,-80.75 3406.19,-56 3401.39,-44.23 3391.87,-33.86 3382.9,-26.05"/>
<polygon fill="midnightblue" stroke="midnightblue" points="3384.95,-23.2 3374.98,-19.63 3380.54,-28.64 3384.95,-23.2"/>
</g>
<!-- Node24 -->
<g id="node21" class="node">
<title>Node24</title>
<g id="a_node21"><a xlink:title=" ">
<polygon fill="white" stroke="#bfbfbf" points="3099.69,-0.5 3099.69,-19.5 3168.69,-19.5 3168.69,-0.5 3099.69,-0.5"/>
<text text-anchor="middle" x="3134.19" y="-7.5" font-family="Helvetica,sans-Serif" font-size="10.00">type_traits</text>
</a>
</g>
</g>
<!-- Node19&#45;&gt;Node24 -->
<g id="edge22" class="edge">
<title>Node19&#45;&gt;Node24</title>
<path fill="none" stroke="midnightblue" d="M3319.72,-129.74C3280.27,-123.01 3233.12,-110.45 3196.19,-87 3173.12,-72.35 3154.61,-46.2 3144.01,-28.72"/>
<polygon fill="midnightblue" stroke="midnightblue" points="3146.75,-26.48 3138.71,-19.59 3140.7,-29.99 3146.75,-26.48"/>
</g>
<!-- Node25 -->
<g id="node22" class="node">
<title>Node25</title>
<g id="a_node22"><a xlink:href="tuple__traits_8hpp.html" target="_top" xlink:title="タプル関係の型特性">
<polygon fill="white" stroke="red" points="3033.19,-56.5 3033.19,-86.5 3149.19,-86.5 3149.19,-56.5 3033.19,-56.5"/>
<text text-anchor="start" x="3041.19" y="-74.5" font-family="Helvetica,sans-Serif" font-size="10.00">alps_cmn/type/tuple</text>
<text text-anchor="middle" x="3091.19" y="-63.5" font-family="Helvetica,sans-Serif" font-size="10.00">_traits.hpp</text>
</a>
</g>
</g>
<!-- Node19&#45;&gt;Node25 -->
<g id="edge23" class="edge">
<title>Node19&#45;&gt;Node25</title>
<path fill="none" stroke="midnightblue" d="M3357.74,-128.94C3307.23,-118.24 3220.07,-99.79 3159.22,-86.9"/>
<polygon fill="midnightblue" stroke="midnightblue" points="3159.82,-83.45 3149.31,-84.81 3158.37,-90.3 3159.82,-83.45"/>
</g>
<!-- Node25&#45;&gt;Node23 -->
<g id="edge24" class="edge">
<title>Node25&#45;&gt;Node23</title>
<path fill="none" stroke="midnightblue" d="M3149.33,-57.74C3205.2,-45.47 3287.45,-27.41 3331.56,-17.73"/>
<polygon fill="midnightblue" stroke="midnightblue" points="3332.39,-21.13 3341.4,-15.56 3330.89,-14.29 3332.39,-21.13"/>
</g>
<!-- Node25&#45;&gt;Node24 -->
<g id="edge25" class="edge">
<title>Node25&#45;&gt;Node24</title>
<path fill="none" stroke="midnightblue" d="M3101.39,-56.4C3107.57,-47.84 3115.5,-36.87 3122.01,-27.86"/>
<polygon fill="midnightblue" stroke="midnightblue" points="3124.92,-29.81 3127.94,-19.66 3119.24,-25.71 3124.92,-29.81"/>
</g>
<!-- Node27&#45;&gt;Node2 -->
<g id="edge30" class="edge">
<title>Node27&#45;&gt;Node2</title>
<path fill="none" stroke="midnightblue" d="M2085.14,-270.83C2353.93,-267.61 3481.78,-252.48 3858.46,-220.96"/>
<polygon fill="midnightblue" stroke="midnightblue" points="3858.91,-224.44 3868.58,-220.1 3858.31,-217.46 3858.91,-224.44"/>
</g>
<!-- Node27&#45;&gt;Node25 -->
<g id="edge31" class="edge">
<title>Node27&#45;&gt;Node25</title>
<path fill="none" stroke="midnightblue" d="M1969.48,-271.16C1643.13,-269.08 42.39,-257.08 7.19,-221 -2.43,-211.14 -2.36,-199.93 7.19,-190 115.35,-77.64 2578.29,-72.47 3022.77,-72.45"/>
<polygon fill="midnightblue" stroke="midnightblue" points="3022.9,-75.95 3032.9,-72.45 3022.9,-68.95 3022.9,-75.95"/>
</g>
<!-- Node28 -->
<g id="node24" class="node">
<title>Node28</title>
<g id="a_node24"><a xlink:title=" ">
<polygon fill="white" stroke="#bfbfbf" points="3794.19,-196 3794.19,-215 3850.19,-215 3850.19,-196 3794.19,-196"/>
<text text-anchor="middle" x="3822.19" y="-203" font-family="Helvetica,sans-Serif" font-size="10.00">optional</text>
</a>
</g>
</g>
<!-- Node27&#45;&gt;Node28 -->
<g id="edge29" class="edge">
<title>Node27&#45;&gt;Node28</title>
<path fill="none" stroke="midnightblue" d="M2085.03,-270.4C2379.34,-264.71 3700.16,-238.34 3785.19,-221 3788.27,-220.37 3791.43,-219.51 3794.53,-218.51"/>
<polygon fill="midnightblue" stroke="midnightblue" points="3795.94,-221.73 3804.13,-215.01 3793.54,-215.15 3795.94,-221.73"/>
</g>
<!-- Node29 -->
<g id="node25" class="node">
<title>Node29</title>
<g id="a_node25"><a xlink:title=" ">
<polygon fill="white" stroke="#bfbfbf" points="16.19,-196 16.19,-215 148.19,-215 148.19,-196 16.19,-196"/>
<text text-anchor="middle" x="82.19" y="-203" font-family="Helvetica,sans-Serif" font-size="10.00">std_msgs/msg/bool.hpp</text>
</a>
</g>
</g>
<!-- Node27&#45;&gt;Node29 -->
<g id="edge32" class="edge">
<title>Node27&#45;&gt;Node29</title>
<path fill="none" stroke="midnightblue" d="M1969.39,-271.22C1694.89,-269.67 521.2,-260.83 157.19,-221 148.29,-220.03 138.86,-218.55 129.8,-216.92"/>
<polygon fill="midnightblue" stroke="midnightblue" points="130.26,-213.44 119.78,-215.02 128.95,-220.32 130.26,-213.44"/>
</g>
<!-- Node30 -->
<g id="node26" class="node">
<title>Node30</title>
<g id="a_node26"><a xlink:title=" ">
<polygon fill="white" stroke="#bfbfbf" points="166.69,-196 166.69,-215 299.69,-215 299.69,-196 166.69,-196"/>
<text text-anchor="middle" x="233.19" y="-203" font-family="Helvetica,sans-Serif" font-size="10.00">std_msgs/msg/byte.hpp</text>
</a>
</g>
</g>
<!-- Node27&#45;&gt;Node30 -->
<g id="edge33" class="edge">
<title>Node27&#45;&gt;Node30</title>
<path fill="none" stroke="midnightblue" d="M1969.35,-271.06C1708.59,-268.87 640.75,-257.79 308.19,-221 299.29,-220.01 289.86,-218.54 280.8,-216.9"/>
<polygon fill="midnightblue" stroke="midnightblue" points="281.26,-213.43 270.78,-215 279.95,-220.3 281.26,-213.43"/>
</g>
<!-- Node31 -->
<g id="node27" class="node">
<title>Node31</title>
<g id="a_node27"><a xlink:title=" ">
<polygon fill="white" stroke="#bfbfbf" points="317.69,-190.5 317.69,-220.5 460.69,-220.5 460.69,-190.5 317.69,-190.5"/>
<text text-anchor="start" x="325.69" y="-208.5" font-family="Helvetica,sans-Serif" font-size="10.00">std_msgs/msg/byte_multi</text>
<text text-anchor="middle" x="389.19" y="-197.5" font-family="Helvetica,sans-Serif" font-size="10.00">_array.hpp</text>
</a>
</g>
</g>
<!-- Node27&#45;&gt;Node31 -->
<g id="edge34" class="edge">
<title>Node27&#45;&gt;Node31</title>
<path fill="none" stroke="midnightblue" d="M1969.52,-270.77C1727.1,-267.51 789.04,-253.12 471.21,-221.09"/>
<polygon fill="midnightblue" stroke="midnightblue" points="471.39,-217.59 461.08,-220.04 470.67,-224.56 471.39,-217.59"/>
</g>
<!-- Node32 -->
<g id="node28" class="node">
<title>Node32</title>
<g id="a_node28"><a xlink:title=" ">
<polygon fill="white" stroke="#bfbfbf" points="478.69,-196 478.69,-215 609.69,-215 609.69,-196 478.69,-196"/>
<text text-anchor="middle" x="544.19" y="-203" font-family="Helvetica,sans-Serif" font-size="10.00">std_msgs/msg/char.hpp</text>
</a>
</g>
</g>
<!-- Node27&#45;&gt;Node32 -->
<g id="edge35" class="edge">
<title>Node27&#45;&gt;Node32</title>
<path fill="none" stroke="midnightblue" d="M1969.67,-270.65C1739.8,-267.06 886.59,-251.91 618.19,-221 609.59,-220.01 600.5,-218.56 591.74,-216.96"/>
<polygon fill="midnightblue" stroke="midnightblue" points="592.14,-213.48 581.66,-215.03 590.82,-220.35 592.14,-213.48"/>
</g>
<!-- Node33 -->
<g id="node29" class="node">
<title>Node33</title>
<g id="a_node29"><a xlink:title=" ">
<polygon fill="white" stroke="#bfbfbf" points="627.69,-196 627.69,-215 772.69,-215 772.69,-196 627.69,-196"/>
<text text-anchor="middle" x="700.19" y="-203" font-family="Helvetica,sans-Serif" font-size="10.00">std_msgs/msg/float32.hpp</text>
</a>
</g>
</g>
<!-- Node27&#45;&gt;Node33 -->
<g id="edge36" class="edge">
<title>Node27&#45;&gt;Node33</title>
<path fill="none" stroke="midnightblue" d="M1969.6,-271.91C1792.08,-272.59 1237.87,-270.3 782.19,-221 772.49,-219.95 762.19,-218.44 752.3,-216.8"/>
<polygon fill="midnightblue" stroke="midnightblue" points="752.63,-213.3 742.18,-215.04 751.43,-220.2 752.63,-213.3"/>
</g>
<!-- Node34 -->
<g id="node30" class="node">
<title>Node34</title>
<g id="a_node30"><a xlink:title=" ">
<polygon fill="white" stroke="#bfbfbf" points="791.19,-190.5 791.19,-220.5 915.19,-220.5 915.19,-190.5 791.19,-190.5"/>
<text text-anchor="start" x="799.19" y="-208.5" font-family="Helvetica,sans-Serif" font-size="10.00">std_msgs/msg/float32</text>
<text text-anchor="middle" x="853.19" y="-197.5" font-family="Helvetica,sans-Serif" font-size="10.00">_multi_array.hpp</text>
</a>
</g>
</g>
<!-- Node27&#45;&gt;Node34 -->
<g id="edge37" class="edge">
<title>Node27&#45;&gt;Node34</title>
<path fill="none" stroke="midnightblue" d="M1969.51,-272.01C1806.72,-272.79 1329.78,-270.43 925.58,-221.03"/>
<polygon fill="midnightblue" stroke="midnightblue" points="925.8,-217.53 915.44,-219.78 924.94,-224.48 925.8,-217.53"/>
</g>
<!-- Node35 -->
<g id="node31" class="node">
<title>Node35</title>
<g id="a_node31"><a xlink:title=" ">
<polygon fill="white" stroke="#bfbfbf" points="933.69,-196 933.69,-215 1078.69,-215 1078.69,-196 933.69,-196"/>
<text text-anchor="middle" x="1006.19" y="-203" font-family="Helvetica,sans-Serif" font-size="10.00">std_msgs/msg/float64.hpp</text>
</a>
</g>
</g>
<!-- Node27&#45;&gt;Node35 -->
<g id="edge38" class="edge">
<title>Node27&#45;&gt;Node35</title>
<path fill="none" stroke="midnightblue" d="M1969.56,-270.83C1822.31,-268.59 1420.48,-259.17 1088.19,-221 1078.6,-219.9 1068.43,-218.38 1058.64,-216.75"/>
<polygon fill="midnightblue" stroke="midnightblue" points="1059.06,-213.27 1048.61,-215.01 1057.87,-220.17 1059.06,-213.27"/>
</g>
<!-- Node36 -->
<g id="node32" class="node">
<title>Node36</title>
<g id="a_node32"><a xlink:title=" ">
<polygon fill="white" stroke="#bfbfbf" points="1097.19,-190.5 1097.19,-220.5 1221.19,-220.5 1221.19,-190.5 1097.19,-190.5"/>
<text text-anchor="start" x="1105.19" y="-208.5" font-family="Helvetica,sans-Serif" font-size="10.00">std_msgs/msg/float64</text>
<text text-anchor="middle" x="1159.19" y="-197.5" font-family="Helvetica,sans-Serif" font-size="10.00">_multi_array.hpp</text>
</a>
</g>
</g>
<!-- Node27&#45;&gt;Node36 -->
<g id="edge39" class="edge">
<title>Node27&#45;&gt;Node36</title>
<path fill="none" stroke="midnightblue" d="M1969.42,-270.57C1839.27,-267.89 1513.16,-257.88 1231.45,-221.04"/>
<polygon fill="midnightblue" stroke="midnightblue" points="1231.82,-217.56 1221.45,-219.72 1230.91,-224.5 1231.82,-217.56"/>
</g>
<!-- Node37 -->
<g id="node33" class="node">
<title>Node37</title>
<g id="a_node33"><a xlink:title=" ">
<polygon fill="white" stroke="#bfbfbf" points="1239.19,-196 1239.19,-215 1375.19,-215 1375.19,-196 1239.19,-196"/>
<text text-anchor="middle" x="1307.19" y="-203" font-family="Helvetica,sans-Serif" font-size="10.00">std_msgs/msg/int16.hpp</text>
</a>
</g>
</g>
<!-- Node27&#45;&gt;Node37 -->
<g id="edge40" class="edge">
<title>Node27&#45;&gt;Node37</title>
<path fill="none" stroke="midnightblue" d="M1969.34,-269.05C1856.43,-263.8 1598.98,-249.57 1384.19,-221 1375.76,-219.88 1366.86,-218.44 1358.21,-216.91"/>
<polygon fill="midnightblue" stroke="midnightblue" points="1358.69,-213.44 1348.22,-215.07 1357.43,-220.32 1358.69,-213.44"/>
</g>
<!-- Node38 -->
<g id="node34" class="node">
<title>Node38</title>
<g id="a_node34"><a xlink:title=" ">
<polygon fill="white" stroke="#bfbfbf" points="1393.69,-190.5 1393.69,-220.5 1508.69,-220.5 1508.69,-190.5 1393.69,-190.5"/>
<text text-anchor="start" x="1401.69" y="-208.5" font-family="Helvetica,sans-Serif" font-size="10.00">std_msgs/msg/int16</text>
<text text-anchor="middle" x="1451.19" y="-197.5" font-family="Helvetica,sans-Serif" font-size="10.00">_multi_array.hpp</text>
</a>
</g>
</g>
<!-- Node27&#45;&gt;Node38 -->
<g id="edge41" class="edge">
<title>Node27&#45;&gt;Node38</title>
<path fill="none" stroke="midnightblue" d="M1969.67,-267.94C1876.92,-261.74 1688.47,-247.18 1518.97,-221"/>
<polygon fill="midnightblue" stroke="midnightblue" points="1519.28,-217.5 1508.86,-219.42 1518.2,-224.42 1519.28,-217.5"/>
</g>
<!-- Node39 -->
<g id="node35" class="node">
<title>Node39</title>
<g id="a_node35"><a xlink:title=" ">
<polygon fill="white" stroke="#bfbfbf" points="1527.19,-196 1527.19,-215 1663.19,-215 1663.19,-196 1527.19,-196"/>
<text text-anchor="middle" x="1595.19" y="-203" font-family="Helvetica,sans-Serif" font-size="10.00">std_msgs/msg/int32.hpp</text>
</a>
</g>
</g>
<!-- Node27&#45;&gt;Node39 -->
<g id="edge42" class="edge">
<title>Node27&#45;&gt;Node39</title>
<path fill="none" stroke="midnightblue" d="M1969.58,-264.11C1899.26,-254.91 1776.76,-238.27 1672.19,-221 1664.55,-219.74 1656.5,-218.32 1648.59,-216.88"/>
<polygon fill="midnightblue" stroke="midnightblue" points="1649.18,-213.42 1638.71,-215.05 1647.9,-220.31 1649.18,-213.42"/>
</g>
<!-- Node40 -->
<g id="node36" class="node">
<title>Node40</title>
<g id="a_node36"><a xlink:title=" ">
<polygon fill="white" stroke="#bfbfbf" points="1681.69,-190.5 1681.69,-220.5 1796.69,-220.5 1796.69,-190.5 1681.69,-190.5"/>
<text text-anchor="start" x="1689.69" y="-208.5" font-family="Helvetica,sans-Serif" font-size="10.00">std_msgs/msg/int32</text>
<text text-anchor="middle" x="1739.19" y="-197.5" font-family="Helvetica,sans-Serif" font-size="10.00">_multi_array.hpp</text>
</a>
</g>
</g>
<!-- Node27&#45;&gt;Node40 -->
<g id="edge43" class="edge">
<title>Node27&#45;&gt;Node40</title>
<path fill="none" stroke="midnightblue" d="M1969.61,-258.5C1922.77,-247.93 1856.57,-232.99 1807.14,-221.84"/>
<polygon fill="midnightblue" stroke="midnightblue" points="1807.7,-218.37 1797.18,-219.59 1806.16,-225.2 1807.7,-218.37"/>
</g>
<!-- Node41 -->
<g id="node37" class="node">
<title>Node41</title>
<g id="a_node37"><a xlink:title=" ">
<polygon fill="white" stroke="#bfbfbf" points="1815.19,-196 1815.19,-215 1951.19,-215 1951.19,-196 1815.19,-196"/>
<text text-anchor="middle" x="1883.19" y="-203" font-family="Helvetica,sans-Serif" font-size="10.00">std_msgs/msg/int64.hpp</text>
</a>
</g>
</g>
<!-- Node27&#45;&gt;Node41 -->
<g id="edge44" class="edge">
<title>Node27&#45;&gt;Node41</title>
<path fill="none" stroke="midnightblue" d="M1995.95,-257.4C1970.79,-246.04 1935.74,-230.22 1911.43,-219.24"/>
<polygon fill="midnightblue" stroke="midnightblue" points="1912.6,-215.93 1902.04,-215.01 1909.72,-222.31 1912.6,-215.93"/>
</g>
<!-- Node42 -->
<g id="node38" class="node">
<title>Node42</title>
<g id="a_node38"><a xlink:title=" ">
<polygon fill="white" stroke="#bfbfbf" points="1969.69,-190.5 1969.69,-220.5 2084.69,-220.5 2084.69,-190.5 1969.69,-190.5"/>
<text text-anchor="start" x="1977.69" y="-208.5" font-family="Helvetica,sans-Serif" font-size="10.00">std_msgs/msg/int64</text>
<text text-anchor="middle" x="2027.19" y="-197.5" font-family="Helvetica,sans-Serif" font-size="10.00">_multi_array.hpp</text>
</a>
</g>
</g>
<!-- Node27&#45;&gt;Node42 -->
<g id="edge45" class="edge">
<title>Node27&#45;&gt;Node42</title>
<path fill="none" stroke="midnightblue" d="M2027.19,-257.4C2027.19,-249.64 2027.19,-239.81 2027.19,-230.86"/>
<polygon fill="midnightblue" stroke="midnightblue" points="2030.69,-230.58 2027.19,-220.58 2023.69,-230.58 2030.69,-230.58"/>
</g>
<!-- Node43 -->
<g id="node39" class="node">
<title>Node43</title>
<g id="a_node39"><a xlink:title=" ">
<polygon fill="white" stroke="#bfbfbf" points="2103.19,-196 2103.19,-215 2233.19,-215 2233.19,-196 2103.19,-196"/>
<text text-anchor="middle" x="2168.19" y="-203" font-family="Helvetica,sans-Serif" font-size="10.00">std_msgs/msg/int8.hpp</text>
</a>
</g>
</g>
<!-- Node27&#45;&gt;Node43 -->
<g id="edge46" class="edge">
<title>Node27&#45;&gt;Node43</title>
<path fill="none" stroke="midnightblue" d="M2057.79,-257.4C2082.42,-246.04 2116.74,-230.22 2140.55,-219.24"/>
<polygon fill="midnightblue" stroke="midnightblue" points="2142.12,-222.37 2149.74,-215.01 2139.19,-216.02 2142.12,-222.37"/>
</g>
<!-- Node44 -->
<g id="node40" class="node">
<title>Node44</title>
<g id="a_node40"><a xlink:title=" ">
<polygon fill="white" stroke="#bfbfbf" points="2251.19,-190.5 2251.19,-220.5 2391.19,-220.5 2391.19,-190.5 2251.19,-190.5"/>
<text text-anchor="start" x="2259.19" y="-208.5" font-family="Helvetica,sans-Serif" font-size="10.00">std_msgs/msg/int8_multi</text>
<text text-anchor="middle" x="2321.19" y="-197.5" font-family="Helvetica,sans-Serif" font-size="10.00">_array.hpp</text>
</a>
</g>
</g>
<!-- Node27&#45;&gt;Node44 -->
<g id="edge47" class="edge">
<title>Node27&#45;&gt;Node44</title>
<path fill="none" stroke="midnightblue" d="M2084.93,-258.74C2131.57,-248.42 2197.51,-233.85 2247.88,-222.71"/>
<polygon fill="midnightblue" stroke="midnightblue" points="2248.72,-226.11 2257.73,-220.53 2247.21,-219.27 2248.72,-226.11"/>
</g>
<!-- Node45 -->
<g id="node41" class="node">
<title>Node45</title>
<g id="a_node41"><a xlink:title=" ">
<polygon fill="white" stroke="#bfbfbf" points="2409.69,-196 2409.69,-215 2548.69,-215 2548.69,-196 2409.69,-196"/>
<text text-anchor="middle" x="2479.19" y="-203" font-family="Helvetica,sans-Serif" font-size="10.00">std_msgs/msg/string.hpp</text>
</a>
</g>
</g>
<!-- Node27&#45;&gt;Node45 -->
<g id="edge48" class="edge">
<title>Node27&#45;&gt;Node45</title>
<path fill="none" stroke="midnightblue" d="M2084.83,-264.55C2158.22,-255.5 2288.87,-238.74 2400.19,-221 2408.12,-219.74 2416.48,-218.31 2424.68,-216.85"/>
<polygon fill="midnightblue" stroke="midnightblue" points="2425.33,-220.29 2434.55,-215.07 2424.09,-213.4 2425.33,-220.29"/>
</g>
<!-- Node46 -->
<g id="node42" class="node">
<title>Node46</title>
<g id="a_node42"><a xlink:title=" ">
<polygon fill="white" stroke="#bfbfbf" points="2566.69,-196 2566.69,-215 2713.69,-215 2713.69,-196 2566.69,-196"/>
<text text-anchor="middle" x="2640.19" y="-203" font-family="Helvetica,sans-Serif" font-size="10.00">std_msgs/msg/u_int16.hpp</text>
</a>
</g>
</g>
<!-- Node27&#45;&gt;Node46 -->
<g id="edge49" class="edge">
<title>Node27&#45;&gt;Node46</title>
<path fill="none" stroke="midnightblue" d="M2085.01,-267.47C2182.6,-260.35 2386.13,-244.06 2557.19,-221 2566.24,-219.78 2575.81,-218.29 2585.12,-216.74"/>
<polygon fill="midnightblue" stroke="midnightblue" points="2585.8,-220.18 2595.06,-215.04 2584.62,-213.28 2585.8,-220.18"/>
</g>
<!-- Node47 -->
<g id="node43" class="node">
<title>Node47</title>
<g id="a_node43"><a xlink:title=" ">
<polygon fill="white" stroke="#bfbfbf" points="2732.19,-190.5 2732.19,-220.5 2858.19,-220.5 2858.19,-190.5 2732.19,-190.5"/>
<text text-anchor="start" x="2740.19" y="-208.5" font-family="Helvetica,sans-Serif" font-size="10.00">std_msgs/msg/u_int16</text>
<text text-anchor="middle" x="2795.19" y="-197.5" font-family="Helvetica,sans-Serif" font-size="10.00">_multi_array.hpp</text>
</a>
</g>
</g>
<!-- Node27&#45;&gt;Node47 -->
<g id="edge50" class="edge">
<title>Node27&#45;&gt;Node47</title>
<path fill="none" stroke="midnightblue" d="M2085.11,-269.71C2203.02,-265.54 2479.52,-253.1 2721.91,-220.91"/>
<polygon fill="midnightblue" stroke="midnightblue" points="2722.52,-224.35 2731.97,-219.56 2721.59,-217.42 2722.52,-224.35"/>
</g>
<!-- Node48 -->
<g id="node44" class="node">
<title>Node48</title>
<g id="a_node44"><a xlink:title=" ">
<polygon fill="white" stroke="#bfbfbf" points="2876.69,-196 2876.69,-215 3023.69,-215 3023.69,-196 2876.69,-196"/>
<text text-anchor="middle" x="2950.19" y="-203" font-family="Helvetica,sans-Serif" font-size="10.00">std_msgs/msg/u_int32.hpp</text>
</a>
</g>
</g>
<!-- Node27&#45;&gt;Node48 -->
<g id="edge51" class="edge">
<title>Node27&#45;&gt;Node48</title>
<path fill="none" stroke="midnightblue" d="M2084.93,-270.27C2221.41,-266.89 2574.44,-255.26 2867.19,-221 2876.79,-219.88 2886.96,-218.37 2896.77,-216.75"/>
<polygon fill="midnightblue" stroke="midnightblue" points="2897.56,-220.16 2906.82,-215.03 2896.38,-213.26 2897.56,-220.16"/>
</g>
<!-- Node49 -->
<g id="node45" class="node">
<title>Node49</title>
<g id="a_node45"><a xlink:title=" ">
<polygon fill="white" stroke="#bfbfbf" points="3042.19,-190.5 3042.19,-220.5 3168.19,-220.5 3168.19,-190.5 3042.19,-190.5"/>
<text text-anchor="start" x="3050.19" y="-208.5" font-family="Helvetica,sans-Serif" font-size="10.00">std_msgs/msg/u_int32</text>
<text text-anchor="middle" x="3105.19" y="-197.5" font-family="Helvetica,sans-Serif" font-size="10.00">_multi_array.hpp</text>
</a>
</g>
</g>
<!-- Node27&#45;&gt;Node49 -->
<g id="edge52" class="edge">
<title>Node27&#45;&gt;Node49</title>
<path fill="none" stroke="midnightblue" d="M2084.95,-271.54C2237.9,-271.01 2666.13,-265.44 3031.99,-220.87"/>
<polygon fill="midnightblue" stroke="midnightblue" points="3032.48,-224.34 3041.98,-219.64 3031.63,-217.39 3032.48,-224.34"/>
</g>
<!-- Node50 -->
<g id="node46" class="node">
<title>Node50</title>
<g id="a_node46"><a xlink:title=" ">
<polygon fill="white" stroke="#bfbfbf" points="3186.69,-196 3186.69,-215 3333.69,-215 3333.69,-196 3186.69,-196"/>
<text text-anchor="middle" x="3260.19" y="-203" font-family="Helvetica,sans-Serif" font-size="10.00">std_msgs/msg/u_int64.hpp</text>
</a>
</g>
</g>
<!-- Node27&#45;&gt;Node50 -->
<g id="edge53" class="edge">
<title>Node27&#45;&gt;Node50</title>
<path fill="none" stroke="midnightblue" d="M2084.83,-271.59C2253.41,-271.3 2759.98,-266.41 3177.19,-221 3187.12,-219.92 3197.65,-218.38 3207.76,-216.71"/>
<polygon fill="midnightblue" stroke="midnightblue" points="3208.43,-220.15 3217.69,-215.01 3207.25,-213.25 3208.43,-220.15"/>
</g>
<!-- Node51 -->
<g id="node47" class="node">
<title>Node51</title>
<g id="a_node47"><a xlink:title=" ">
<polygon fill="white" stroke="#bfbfbf" points="3352.19,-190.5 3352.19,-220.5 3478.19,-220.5 3478.19,-190.5 3352.19,-190.5"/>
<text text-anchor="start" x="3360.19" y="-208.5" font-family="Helvetica,sans-Serif" font-size="10.00">std_msgs/msg/u_int64</text>
<text text-anchor="middle" x="3415.19" y="-197.5" font-family="Helvetica,sans-Serif" font-size="10.00">_multi_array.hpp</text>
</a>
</g>
</g>
<!-- Node27&#45;&gt;Node51 -->
<g id="edge54" class="edge">
<title>Node27&#45;&gt;Node51</title>
<path fill="none" stroke="midnightblue" d="M2084.96,-270.49C2302.53,-266.52 3073.4,-250.72 3341.88,-220.85"/>
<polygon fill="midnightblue" stroke="midnightblue" points="3342.45,-224.31 3351.98,-219.69 3341.65,-217.35 3342.45,-224.31"/>
</g>
<!-- Node52 -->
<g id="node48" class="node">
<title>Node52</title>
<g id="a_node48"><a xlink:title=" ">
<polygon fill="white" stroke="#bfbfbf" points="3496.69,-196 3496.69,-215 3637.69,-215 3637.69,-196 3496.69,-196"/>
<text text-anchor="middle" x="3567.19" y="-203" font-family="Helvetica,sans-Serif" font-size="10.00">std_msgs/msg/u_int8.hpp</text>
</a>
</g>
</g>
<!-- Node27&#45;&gt;Node52 -->
<g id="edge55" class="edge">
<title>Node27&#45;&gt;Node52</title>
<path fill="none" stroke="midnightblue" d="M2084.78,-270.62C2319.92,-266.87 3208.07,-250.96 3487.19,-221 3496.78,-219.97 3506.94,-218.46 3516.69,-216.8"/>
<polygon fill="midnightblue" stroke="midnightblue" points="3517.43,-220.22 3526.66,-215.02 3516.2,-213.33 3517.43,-220.22"/>
</g>
<!-- Node53 -->
<g id="node49" class="node">
<title>Node53</title>
<g id="a_node49"><a xlink:title=" ">
<polygon fill="white" stroke="#bfbfbf" points="3656.19,-190.5 3656.19,-220.5 3776.19,-220.5 3776.19,-190.5 3656.19,-190.5"/>
<text text-anchor="start" x="3664.19" y="-208.5" font-family="Helvetica,sans-Serif" font-size="10.00">std_msgs/msg/u_int8</text>
<text text-anchor="middle" x="3716.19" y="-197.5" font-family="Helvetica,sans-Serif" font-size="10.00">_multi_array.hpp</text>
</a>
</g>
</g>
<!-- Node27&#45;&gt;Node53 -->
<g id="edge56" class="edge">
<title>Node27&#45;&gt;Node53</title>
<path fill="none" stroke="midnightblue" d="M2085.06,-271.06C2333.92,-268.97 3315.09,-258.53 3646.01,-220.96"/>
<polygon fill="midnightblue" stroke="midnightblue" points="3646.56,-224.42 3656.09,-219.78 3645.75,-217.46 3646.56,-224.42"/>
</g>
</g>
</svg>
