<?xml version="1.0" encoding="UTF-8" standalone="no"?>
<!DOCTYPE svg PUBLIC "-//W3C//DTD SVG 1.1//EN"
 "http://www.w3.org/Graphics/SVG/1.1/DTD/svg11.dtd">
<!-- Generated by graphviz version 2.43.0 (0)
 -->
<!-- Title: alps_core/lib_internal/alps_common_lib/include/alps_cmn/communication/can_param.hpp Pages: 1 -->
<svg width="1440pt" height="385pt"
 viewBox="0.00 0.00 1440.00 385.00" xmlns="http://www.w3.org/2000/svg" xmlns:xlink="http://www.w3.org/1999/xlink">
<g id="graph0" class="graph" transform="scale(1 1) rotate(0) translate(4 381)">
<title>alps_core/lib_internal/alps_common_lib/include/alps_cmn/communication/can_param.hpp</title>
<polygon fill="white" stroke="transparent" points="-4,4 -4,-381 1436,-381 1436,4 -4,4"/>
<!-- Node1 -->
<g id="node1" class="node">
<title>Node1</title>
<g id="a_node1"><a xlink:title=" ">
<polygon fill="#bfbfbf" stroke="black" points="832.5,-324.5 832.5,-376.5 977.5,-376.5 977.5,-324.5 832.5,-324.5"/>
<text text-anchor="start" x="840.5" y="-364.5" font-family="Helvetica,sans-Serif" font-size="10.00">alps_core/lib_internal</text>
<text text-anchor="start" x="840.5" y="-353.5" font-family="Helvetica,sans-Serif" font-size="10.00">/alps_common_lib/include</text>
<text text-anchor="start" x="840.5" y="-342.5" font-family="Helvetica,sans-Serif" font-size="10.00">/alps_cmn/communication</text>
<text text-anchor="middle" x="905" y="-331.5" font-family="Helvetica,sans-Serif" font-size="10.00">/can_param.hpp</text>
</a>
</g>
</g>
<!-- Node2 -->
<g id="node2" class="node">
<title>Node2</title>
<g id="a_node2"><a xlink:href="can__typed__data__transceiver_8hpp.html" target="_top" xlink:title="CAN通信で型付けされたデータの送受信を行うライブラリ">
<polygon fill="white" stroke="black" points="591.5,-257.5 591.5,-287.5 768.5,-287.5 768.5,-257.5 591.5,-257.5"/>
<text text-anchor="start" x="599.5" y="-275.5" font-family="Helvetica,sans-Serif" font-size="10.00">alps_cmn/communication</text>
<text text-anchor="middle" x="680" y="-264.5" font-family="Helvetica,sans-Serif" font-size="10.00">/can_typed_data_transceiver.hpp</text>
</a>
</g>
</g>
<!-- Node1&#45;&gt;Node2 -->
<g id="edge1" class="edge">
<title>Node1&#45;&gt;Node2</title>
<path fill="none" stroke="midnightblue" d="M832.26,-324.93C799.38,-313.83 761.31,-300.96 731.46,-290.88"/>
<polygon fill="midnightblue" stroke="midnightblue" points="732.26,-287.46 721.67,-287.58 730.02,-294.09 732.26,-287.46"/>
</g>
<!-- Node28 -->
<g id="node28" class="node">
<title>Node28</title>
<g id="a_node28"><a xlink:title=" ">
<polygon fill="white" stroke="#bfbfbf" points="787,-263 787,-282 905,-282 905,-263 787,-263"/>
<text text-anchor="middle" x="846" y="-270" font-family="Helvetica,sans-Serif" font-size="10.00">etl/circular_iterator.h</text>
</a>
</g>
</g>
<!-- Node1&#45;&gt;Node28 -->
<g id="edge34" class="edge">
<title>Node1&#45;&gt;Node28</title>
<path fill="none" stroke="midnightblue" d="M885.35,-324.19C876.73,-313.08 866.84,-300.34 859.13,-290.41"/>
<polygon fill="midnightblue" stroke="midnightblue" points="861.66,-287.96 852.76,-282.21 856.13,-292.25 861.66,-287.96"/>
</g>
<!-- Node29 -->
<g id="node29" class="node">
<title>Node29</title>
<g id="a_node29"><a xlink:title=" ">
<polygon fill="white" stroke="#bfbfbf" points="923.5,-263 923.5,-282 1004.5,-282 1004.5,-263 923.5,-263"/>
<text text-anchor="middle" x="964" y="-270" font-family="Helvetica,sans-Serif" font-size="10.00">etl/optional.h</text>
</a>
</g>
</g>
<!-- Node1&#45;&gt;Node29 -->
<g id="edge35" class="edge">
<title>Node1&#45;&gt;Node29</title>
<path fill="none" stroke="midnightblue" d="M924.65,-324.19C933.27,-313.08 943.16,-300.34 950.87,-290.41"/>
<polygon fill="midnightblue" stroke="midnightblue" points="953.87,-292.25 957.24,-282.21 948.34,-287.96 953.87,-292.25"/>
</g>
<!-- Node30 -->
<g id="node30" class="node">
<title>Node30</title>
<g id="a_node30"><a xlink:title=" ">
<polygon fill="white" stroke="#bfbfbf" points="1023,-263 1023,-282 1079,-282 1079,-263 1023,-263"/>
<text text-anchor="middle" x="1051" y="-270" font-family="Helvetica,sans-Serif" font-size="10.00">etl/set.h</text>
</a>
</g>
</g>
<!-- Node1&#45;&gt;Node30 -->
<g id="edge36" class="edge">
<title>Node1&#45;&gt;Node30</title>
<path fill="none" stroke="midnightblue" d="M953.21,-324.4C977.34,-311.85 1005.56,-297.15 1025.47,-286.79"/>
<polygon fill="midnightblue" stroke="midnightblue" points="1027.27,-289.8 1034.52,-282.08 1024.04,-283.59 1027.27,-289.8"/>
</g>
<!-- Node3 -->
<g id="node3" class="node">
<title>Node3</title>
<g id="a_node3"><a xlink:href="can__callback__handler_8hpp.html" target="_top" xlink:title="CANデータフレームをコールバックで処理するためのライブラリ">
<polygon fill="white" stroke="black" points="141.5,-190.5 141.5,-220.5 286.5,-220.5 286.5,-190.5 141.5,-190.5"/>
<text text-anchor="start" x="149.5" y="-208.5" font-family="Helvetica,sans-Serif" font-size="10.00">alps_cmn/communication</text>
<text text-anchor="middle" x="214" y="-197.5" font-family="Helvetica,sans-Serif" font-size="10.00">/can_callback_handler.hpp</text>
</a>
</g>
</g>
<!-- Node2&#45;&gt;Node3 -->
<g id="edge2" class="edge">
<title>Node2&#45;&gt;Node3</title>
<path fill="none" stroke="midnightblue" d="M591.25,-259.12C506.46,-247.29 379.64,-229.6 296.86,-218.06"/>
<polygon fill="midnightblue" stroke="midnightblue" points="297.12,-214.56 286.74,-216.65 296.16,-221.49 297.12,-214.56"/>
</g>
<!-- Node10 -->
<g id="node10" class="node">
<title>Node10</title>
<g id="a_node10"><a xlink:href="cobs_8hpp.html" target="_top" xlink:title="COBS変換ライブラリ">
<polygon fill="white" stroke="black" points="456,-190.5 456,-220.5 598,-220.5 598,-190.5 456,-190.5"/>
<text text-anchor="start" x="464" y="-208.5" font-family="Helvetica,sans-Serif" font-size="10.00">alps_cmn/communication</text>
<text text-anchor="middle" x="527" y="-197.5" font-family="Helvetica,sans-Serif" font-size="10.00">/cobs.hpp</text>
</a>
</g>
</g>
<!-- Node2&#45;&gt;Node10 -->
<g id="edge9" class="edge">
<title>Node2&#45;&gt;Node10</title>
<path fill="none" stroke="midnightblue" d="M646.8,-257.4C624.15,-247.77 593.93,-234.94 569.52,-224.56"/>
<polygon fill="midnightblue" stroke="midnightblue" points="570.71,-221.27 560.13,-220.58 567.97,-227.71 570.71,-221.27"/>
</g>
<!-- Node16 -->
<g id="node16" class="node">
<title>Node16</title>
<g id="a_node16"><a xlink:href="logging__macros_8hpp.html" target="_top" xlink:title=" ">
<polygon fill="white" stroke="black" points="663,-190.5 663,-220.5 783,-220.5 783,-190.5 663,-190.5"/>
<text text-anchor="start" x="671" y="-208.5" font-family="Helvetica,sans-Serif" font-size="10.00">alps_cmn/log/logging</text>
<text text-anchor="middle" x="723" y="-197.5" font-family="Helvetica,sans-Serif" font-size="10.00">_macros.hpp</text>
</a>
</g>
</g>
<!-- Node2&#45;&gt;Node16 -->
<g id="edge15" class="edge">
<title>Node2&#45;&gt;Node16</title>
<path fill="none" stroke="midnightblue" d="M689.33,-257.4C694.8,-249.13 701.83,-238.51 708.05,-229.1"/>
<polygon fill="midnightblue" stroke="midnightblue" points="711.09,-230.85 713.69,-220.58 705.25,-226.99 711.09,-230.85"/>
</g>
<!-- Node19 -->
<g id="node19" class="node">
<title>Node19</title>
<g id="a_node19"><a xlink:href="serializer_8hpp.html" target="_top" xlink:title="データとバイト列の変換ライブラリ">
<polygon fill="white" stroke="black" points="951,-196 951,-215 1107,-215 1107,-196 951,-196"/>
<text text-anchor="middle" x="1029" y="-203" font-family="Helvetica,sans-Serif" font-size="10.00">alps_cmn/type/serializer.hpp</text>
</a>
</g>
</g>
<!-- Node2&#45;&gt;Node19 -->
<g id="edge19" class="edge">
<title>Node2&#45;&gt;Node19</title>
<path fill="none" stroke="midnightblue" d="M755.3,-257.48C820.84,-245.27 914.34,-227.86 973.33,-216.87"/>
<polygon fill="midnightblue" stroke="midnightblue" points="974.02,-220.3 983.21,-215.03 972.74,-213.42 974.02,-220.3"/>
</g>
<!-- Node4 -->
<g id="node4" class="node">
<title>Node4</title>
<g id="a_node4"><a xlink:href="i__can__io_8hpp.html" target="_top" xlink:title=" ">
<polygon fill="white" stroke="black" points="0,-123.5 0,-153.5 142,-153.5 142,-123.5 0,-123.5"/>
<text text-anchor="start" x="8" y="-141.5" font-family="Helvetica,sans-Serif" font-size="10.00">alps_cmn/communication</text>
<text text-anchor="middle" x="71" y="-130.5" font-family="Helvetica,sans-Serif" font-size="10.00">/i_can_io.hpp</text>
</a>
</g>
</g>
<!-- Node3&#45;&gt;Node4 -->
<g id="edge3" class="edge">
<title>Node3&#45;&gt;Node4</title>
<path fill="none" stroke="midnightblue" d="M182.97,-190.4C161.98,-180.86 134.06,-168.16 111.35,-157.84"/>
<polygon fill="midnightblue" stroke="midnightblue" points="112.52,-154.53 101.97,-153.58 109.62,-160.9 112.52,-154.53"/>
</g>
<!-- Node8 -->
<g id="node8" class="node">
<title>Node8</title>
<g id="a_node8"><a xlink:title=" ">
<polygon fill="white" stroke="#bfbfbf" points="572,-62 572,-81 656,-81 656,-62 572,-62"/>
<text text-anchor="middle" x="614" y="-69" font-family="Helvetica,sans-Serif" font-size="10.00">etl/delegate.h</text>
</a>
</g>
</g>
<!-- Node3&#45;&gt;Node8 -->
<g id="edge7" class="edge">
<title>Node3&#45;&gt;Node8</title>
<path fill="none" stroke="midnightblue" d="M202.46,-190.39C189.39,-172.63 172,-142.14 189,-123 213.38,-95.55 453.39,-80.39 561.59,-74.9"/>
<polygon fill="midnightblue" stroke="midnightblue" points="561.82,-78.39 571.63,-74.4 561.47,-71.4 561.82,-78.39"/>
</g>
<!-- Node9 -->
<g id="node9" class="node">
<title>Node9</title>
<g id="a_node9"><a xlink:title=" ">
<polygon fill="white" stroke="#bfbfbf" points="198,-129 198,-148 316,-148 316,-129 198,-129"/>
<text text-anchor="middle" x="257" y="-136" font-family="Helvetica,sans-Serif" font-size="10.00">etl/unordered_map.h</text>
</a>
</g>
</g>
<!-- Node3&#45;&gt;Node9 -->
<g id="edge8" class="edge">
<title>Node3&#45;&gt;Node9</title>
<path fill="none" stroke="midnightblue" d="M223.33,-190.4C229.9,-180.46 238.74,-167.11 245.71,-156.57"/>
<polygon fill="midnightblue" stroke="midnightblue" points="248.65,-158.47 251.25,-148.19 242.81,-154.6 248.65,-158.47"/>
</g>
<!-- Node5 -->
<g id="node5" class="node">
<title>Node5</title>
<g id="a_node5"><a xlink:href="can__data__frame_8hpp.html" target="_top" xlink:title="CANフレームを表す構造体">
<polygon fill="white" stroke="black" points="161,-56.5 161,-86.5 303,-86.5 303,-56.5 161,-56.5"/>
<text text-anchor="start" x="169" y="-74.5" font-family="Helvetica,sans-Serif" font-size="10.00">alps_cmn/communication</text>
<text text-anchor="middle" x="232" y="-63.5" font-family="Helvetica,sans-Serif" font-size="10.00">/can_data_frame.hpp</text>
</a>
</g>
</g>
<!-- Node4&#45;&gt;Node5 -->
<g id="edge4" class="edge">
<title>Node4&#45;&gt;Node5</title>
<path fill="none" stroke="midnightblue" d="M105.93,-123.4C129.88,-113.73 161.85,-100.82 187.6,-90.43"/>
<polygon fill="midnightblue" stroke="midnightblue" points="189.17,-93.57 197.13,-86.58 186.55,-87.07 189.17,-93.57"/>
</g>
<!-- Node6 -->
<g id="node6" class="node">
<title>Node6</title>
<g id="a_node6"><a xlink:title=" ">
<polygon fill="white" stroke="#bfbfbf" points="205.5,-0.5 205.5,-19.5 258.5,-19.5 258.5,-0.5 205.5,-0.5"/>
<text text-anchor="middle" x="232" y="-7.5" font-family="Helvetica,sans-Serif" font-size="10.00">stdint.h</text>
</a>
</g>
</g>
<!-- Node5&#45;&gt;Node6 -->
<g id="edge5" class="edge">
<title>Node5&#45;&gt;Node6</title>
<path fill="none" stroke="midnightblue" d="M232,-56.4C232,-48.47 232,-38.46 232,-29.86"/>
<polygon fill="midnightblue" stroke="midnightblue" points="235.5,-29.66 232,-19.66 228.5,-29.66 235.5,-29.66"/>
</g>
<!-- Node7 -->
<g id="node7" class="node">
<title>Node7</title>
<g id="a_node7"><a xlink:title=" ">
<polygon fill="white" stroke="#bfbfbf" points="416.5,-0.5 416.5,-19.5 487.5,-19.5 487.5,-0.5 416.5,-0.5"/>
<text text-anchor="middle" x="452" y="-7.5" font-family="Helvetica,sans-Serif" font-size="10.00">etl/vector.h</text>
</a>
</g>
</g>
<!-- Node5&#45;&gt;Node7 -->
<g id="edge6" class="edge">
<title>Node5&#45;&gt;Node7</title>
<path fill="none" stroke="midnightblue" d="M283.86,-56.47C322.64,-45.99 374.96,-31.84 410.88,-22.12"/>
<polygon fill="midnightblue" stroke="midnightblue" points="411.81,-25.5 420.55,-19.51 409.98,-18.74 411.81,-25.5"/>
</g>
<!-- Node11 -->
<g id="node11" class="node">
<title>Node11</title>
<g id="a_node11"><a xlink:title=" ">
<polygon fill="white" stroke="#bfbfbf" points="334,-129 334,-148 386,-148 386,-129 334,-129"/>
<text text-anchor="middle" x="360" y="-136" font-family="Helvetica,sans-Serif" font-size="10.00">cassert</text>
</a>
</g>
</g>
<!-- Node10&#45;&gt;Node11 -->
<g id="edge10" class="edge">
<title>Node10&#45;&gt;Node11</title>
<path fill="none" stroke="midnightblue" d="M489.34,-190.41C462.88,-180.42 426.68,-166.62 395,-154 393.36,-153.35 391.68,-152.67 389.99,-151.99"/>
<polygon fill="midnightblue" stroke="midnightblue" points="390.9,-148.58 380.32,-148.03 388.25,-155.06 390.9,-148.58"/>
</g>
<!-- Node12 -->
<g id="node12" class="node">
<title>Node12</title>
<g id="a_node12"><a xlink:title=" ">
<polygon fill="white" stroke="#bfbfbf" points="536,-129 536,-148 586,-148 586,-129 536,-129"/>
<text text-anchor="middle" x="561" y="-136" font-family="Helvetica,sans-Serif" font-size="10.00">cstdint</text>
</a>
</g>
</g>
<!-- Node10&#45;&gt;Node12 -->
<g id="edge11" class="edge">
<title>Node10&#45;&gt;Node12</title>
<path fill="none" stroke="midnightblue" d="M534.38,-190.4C539.47,-180.66 546.28,-167.65 551.73,-157.21"/>
<polygon fill="midnightblue" stroke="midnightblue" points="554.92,-158.68 556.45,-148.19 548.72,-155.43 554.92,-158.68"/>
</g>
<!-- Node13 -->
<g id="node13" class="node">
<title>Node13</title>
<g id="a_node13"><a xlink:title=" ">
<polygon fill="white" stroke="#bfbfbf" points="404,-129 404,-148 450,-148 450,-129 404,-129"/>
<text text-anchor="middle" x="427" y="-136" font-family="Helvetica,sans-Serif" font-size="10.00">cstdio</text>
</a>
</g>
</g>
<!-- Node10&#45;&gt;Node13 -->
<g id="edge12" class="edge">
<title>Node10&#45;&gt;Node13</title>
<path fill="none" stroke="midnightblue" d="M505.3,-190.4C488.53,-179.5 465.43,-164.48 448.67,-153.58"/>
<polygon fill="midnightblue" stroke="midnightblue" points="450.38,-150.52 440.09,-148.01 446.56,-156.39 450.38,-150.52"/>
</g>
<!-- Node14 -->
<g id="node14" class="node">
<title>Node14</title>
<g id="a_node14"><a xlink:title=" ">
<polygon fill="white" stroke="#bfbfbf" points="468.5,-129 468.5,-148 517.5,-148 517.5,-129 468.5,-129"/>
<text text-anchor="middle" x="493" y="-136" font-family="Helvetica,sans-Serif" font-size="10.00">cstdlib</text>
</a>
</g>
</g>
<!-- Node10&#45;&gt;Node14 -->
<g id="edge13" class="edge">
<title>Node10&#45;&gt;Node14</title>
<path fill="none" stroke="midnightblue" d="M519.62,-190.4C514.53,-180.66 507.72,-167.65 502.27,-157.21"/>
<polygon fill="midnightblue" stroke="midnightblue" points="505.28,-155.43 497.55,-148.19 499.08,-158.68 505.28,-155.43"/>
</g>
<!-- Node15 -->
<g id="node15" class="node">
<title>Node15</title>
<g id="a_node15"><a xlink:title=" ">
<polygon fill="white" stroke="#bfbfbf" points="604,-129 604,-148 714,-148 714,-129 604,-129"/>
<text text-anchor="middle" x="659" y="-136" font-family="Helvetica,sans-Serif" font-size="10.00">etl/circular_buffer.h</text>
</a>
</g>
</g>
<!-- Node10&#45;&gt;Node15 -->
<g id="edge14" class="edge">
<title>Node10&#45;&gt;Node15</title>
<path fill="none" stroke="midnightblue" d="M555.64,-190.4C578.5,-179.14 610.26,-163.5 632.52,-152.54"/>
<polygon fill="midnightblue" stroke="midnightblue" points="634.3,-155.56 641.72,-148.01 631.21,-149.28 634.3,-155.56"/>
</g>
<!-- Node17 -->
<g id="node17" class="node">
<title>Node17</title>
<g id="a_node17"><a xlink:href="logger_8hpp.html" target="_top" xlink:title=" ">
<polygon fill="white" stroke="black" points="732.5,-129 732.5,-148 867.5,-148 867.5,-129 732.5,-129"/>
<text text-anchor="middle" x="800" y="-136" font-family="Helvetica,sans-Serif" font-size="10.00">alps_cmn/log/logger.hpp</text>
</a>
</g>
</g>
<!-- Node16&#45;&gt;Node17 -->
<g id="edge16" class="edge">
<title>Node16&#45;&gt;Node17</title>
<path fill="none" stroke="midnightblue" d="M739.71,-190.4C752.19,-179.86 769.23,-165.48 782.01,-154.69"/>
<polygon fill="midnightblue" stroke="midnightblue" points="784.32,-157.32 789.7,-148.19 779.8,-151.97 784.32,-157.32"/>
</g>
<!-- Node17&#45;&gt;Node8 -->
<g id="edge17" class="edge">
<title>Node17&#45;&gt;Node8</title>
<path fill="none" stroke="midnightblue" d="M775.3,-128.87C742.69,-117.47 685.12,-97.35 648.3,-84.49"/>
<polygon fill="midnightblue" stroke="midnightblue" points="649.1,-81.06 638.51,-81.06 646.79,-87.67 649.1,-81.06"/>
</g>
<!-- Node18 -->
<g id="node18" class="node">
<title>Node18</title>
<g id="a_node18"><a xlink:title=" ">
<polygon fill="white" stroke="#bfbfbf" points="800.5,-62 800.5,-81 869.5,-81 869.5,-62 800.5,-62"/>
<text text-anchor="middle" x="835" y="-69" font-family="Helvetica,sans-Serif" font-size="10.00">etl/string.h</text>
</a>
</g>
</g>
<!-- Node17&#45;&gt;Node18 -->
<g id="edge18" class="edge">
<title>Node17&#45;&gt;Node18</title>
<path fill="none" stroke="midnightblue" d="M804.72,-128.73C810.02,-118.89 818.76,-102.66 825.49,-90.16"/>
<polygon fill="midnightblue" stroke="midnightblue" points="828.7,-91.59 830.35,-81.13 822.53,-88.27 828.7,-91.59"/>
</g>
<!-- Node19&#45;&gt;Node7 -->
<g id="edge33" class="edge">
<title>Node19&#45;&gt;Node7</title>
<path fill="none" stroke="midnightblue" d="M1013.06,-196C996.88,-186.91 971.63,-171.42 953,-154 912.94,-116.53 925.83,-82.84 878,-56 813.78,-19.96 594,-12.75 497.76,-11.33"/>
<polygon fill="midnightblue" stroke="midnightblue" points="497.79,-7.83 487.74,-11.2 497.69,-14.83 497.79,-7.83"/>
</g>
<!-- Node19&#45;&gt;Node12 -->
<g id="edge22" class="edge">
<title>Node19&#45;&gt;Node12</title>
<path fill="none" stroke="midnightblue" d="M950.92,-202.14C863.06,-197.95 716.71,-186.31 595,-154 592.65,-153.37 590.24,-152.62 587.85,-151.78"/>
<polygon fill="midnightblue" stroke="midnightblue" points="588.89,-148.43 578.31,-148.01 586.33,-154.94 588.89,-148.43"/>
</g>
<!-- Node19&#45;&gt;Node15 -->
<g id="edge31" class="edge">
<title>Node19&#45;&gt;Node15</title>
<path fill="none" stroke="midnightblue" d="M971.01,-195.98C909.33,-186.67 809,-170.82 723,-154 717.13,-152.85 710.97,-151.56 704.89,-150.24"/>
<polygon fill="midnightblue" stroke="midnightblue" points="705.32,-146.75 694.8,-148 703.81,-153.59 705.32,-146.75"/>
</g>
<!-- Node19&#45;&gt;Node18 -->
<g id="edge32" class="edge">
<title>Node19&#45;&gt;Node18</title>
<path fill="none" stroke="midnightblue" d="M1004.84,-195.97C981.91,-187.28 947.04,-172.46 920,-154 892.14,-134.98 864.88,-106.62 849.03,-88.86"/>
<polygon fill="midnightblue" stroke="midnightblue" points="851.43,-86.29 842.2,-81.08 846.17,-90.91 851.43,-86.29"/>
</g>
<!-- Node20 -->
<g id="node20" class="node">
<title>Node20</title>
<g id="a_node20"><a xlink:title=" ">
<polygon fill="white" stroke="#bfbfbf" points="962,-129 962,-148 1026,-148 1026,-129 962,-129"/>
<text text-anchor="middle" x="994" y="-136" font-family="Helvetica,sans-Serif" font-size="10.00">algorithm</text>
</a>
</g>
</g>
<!-- Node19&#45;&gt;Node20 -->
<g id="edge20" class="edge">
<title>Node19&#45;&gt;Node20</title>
<path fill="none" stroke="midnightblue" d="M1024.28,-195.73C1018.98,-185.89 1010.24,-169.66 1003.51,-157.16"/>
<polygon fill="midnightblue" stroke="midnightblue" points="1006.47,-155.27 998.65,-148.13 1000.3,-158.59 1006.47,-155.27"/>
</g>
<!-- Node21 -->
<g id="node21" class="node">
<title>Node21</title>
<g id="a_node21"><a xlink:title=" ">
<polygon fill="white" stroke="#bfbfbf" points="1044,-129 1044,-148 1086,-148 1086,-129 1044,-129"/>
<text text-anchor="middle" x="1065" y="-136" font-family="Helvetica,sans-Serif" font-size="10.00">array</text>
</a>
</g>
</g>
<!-- Node19&#45;&gt;Node21 -->
<g id="edge21" class="edge">
<title>Node19&#45;&gt;Node21</title>
<path fill="none" stroke="midnightblue" d="M1033.86,-195.73C1039.31,-185.89 1048.3,-169.66 1055.22,-157.16"/>
<polygon fill="midnightblue" stroke="midnightblue" points="1058.44,-158.57 1060.22,-148.13 1052.31,-155.18 1058.44,-158.57"/>
</g>
<!-- Node22 -->
<g id="node22" class="node">
<title>Node22</title>
<g id="a_node22"><a xlink:title=" ">
<polygon fill="white" stroke="#bfbfbf" points="1104,-129 1104,-148 1154,-148 1154,-129 1104,-129"/>
<text text-anchor="middle" x="1129" y="-136" font-family="Helvetica,sans-Serif" font-size="10.00">cstring</text>
</a>
</g>
</g>
<!-- Node19&#45;&gt;Node22 -->
<g id="edge23" class="edge">
<title>Node19&#45;&gt;Node22</title>
<path fill="none" stroke="midnightblue" d="M1042.49,-195.73C1059.05,-184.96 1087.38,-166.55 1107.09,-153.74"/>
<polygon fill="midnightblue" stroke="midnightblue" points="1109.25,-156.51 1115.73,-148.13 1105.44,-150.64 1109.25,-156.51"/>
</g>
<!-- Node23 -->
<g id="node23" class="node">
<title>Node23</title>
<g id="a_node23"><a xlink:title=" ">
<polygon fill="white" stroke="#bfbfbf" points="1172.5,-62 1172.5,-81 1213.5,-81 1213.5,-62 1172.5,-62"/>
<text text-anchor="middle" x="1193" y="-69" font-family="Helvetica,sans-Serif" font-size="10.00">tuple</text>
</a>
</g>
</g>
<!-- Node19&#45;&gt;Node23 -->
<g id="edge24" class="edge">
<title>Node19&#45;&gt;Node23</title>
<path fill="none" stroke="midnightblue" d="M1080.17,-195.94C1107.87,-188.92 1140.85,-176.32 1163,-154 1179.89,-136.98 1187.37,-109.67 1190.62,-91.41"/>
<polygon fill="midnightblue" stroke="midnightblue" points="1194.1,-91.79 1192.14,-81.38 1187.18,-90.74 1194.1,-91.79"/>
</g>
<!-- Node24 -->
<g id="node24" class="node">
<title>Node24</title>
<g id="a_node24"><a xlink:title=" ">
<polygon fill="white" stroke="#bfbfbf" points="1242.5,-62 1242.5,-81 1311.5,-81 1311.5,-62 1242.5,-62"/>
<text text-anchor="middle" x="1277" y="-69" font-family="Helvetica,sans-Serif" font-size="10.00">type_traits</text>
</a>
</g>
</g>
<!-- Node19&#45;&gt;Node24 -->
<g id="edge25" class="edge">
<title>Node19&#45;&gt;Node24</title>
<path fill="none" stroke="midnightblue" d="M1072.29,-195.93C1105.25,-188.18 1150.94,-174.77 1187,-154 1217.57,-136.39 1246.64,-106.97 1263.1,-88.71"/>
<polygon fill="midnightblue" stroke="midnightblue" points="1265.74,-91 1269.74,-81.19 1260.5,-86.37 1265.74,-91"/>
</g>
<!-- Node25 -->
<g id="node25" class="node">
<title>Node25</title>
<g id="a_node25"><a xlink:title=" ">
<polygon fill="white" stroke="#bfbfbf" points="1248,-129 1248,-148 1298,-148 1298,-129 1248,-129"/>
<text text-anchor="middle" x="1273" y="-136" font-family="Helvetica,sans-Serif" font-size="10.00">chrono</text>
</a>
</g>
</g>
<!-- Node19&#45;&gt;Node25 -->
<g id="edge26" class="edge">
<title>Node19&#45;&gt;Node25</title>
<path fill="none" stroke="midnightblue" d="M1069.44,-195.97C1111.06,-186.86 1177.6,-171.37 1234,-154 1236.57,-153.21 1239.21,-152.34 1241.85,-151.44"/>
<polygon fill="midnightblue" stroke="midnightblue" points="1243.04,-154.73 1251.29,-148.07 1240.69,-148.14 1243.04,-154.73"/>
</g>
<!-- Node26 -->
<g id="node26" class="node">
<title>Node26</title>
<g id="a_node26"><a xlink:href="tuple__traits_8hpp.html" target="_top" xlink:title="タプル関係の型特性">
<polygon fill="white" stroke="black" points="1316,-123.5 1316,-153.5 1432,-153.5 1432,-123.5 1316,-123.5"/>
<text text-anchor="start" x="1324" y="-141.5" font-family="Helvetica,sans-Serif" font-size="10.00">alps_cmn/type/tuple</text>
<text text-anchor="middle" x="1374" y="-130.5" font-family="Helvetica,sans-Serif" font-size="10.00">_traits.hpp</text>
</a>
</g>
</g>
<!-- Node19&#45;&gt;Node26 -->
<g id="edge27" class="edge">
<title>Node19&#45;&gt;Node26</title>
<path fill="none" stroke="midnightblue" d="M1078.81,-195.97C1132.45,-186.67 1220.54,-171.06 1306.05,-154.15"/>
<polygon fill="midnightblue" stroke="midnightblue" points="1306.79,-157.57 1315.92,-152.19 1305.43,-150.71 1306.79,-157.57"/>
</g>
<!-- Node26&#45;&gt;Node23 -->
<g id="edge29" class="edge">
<title>Node26&#45;&gt;Node23</title>
<path fill="none" stroke="midnightblue" d="M1334.78,-123.5C1306.48,-113.39 1267.37,-99.38 1233,-87 1229.87,-85.87 1226.61,-84.69 1223.35,-83.52"/>
<polygon fill="midnightblue" stroke="midnightblue" points="1224.35,-80.16 1213.76,-80.04 1221.97,-86.74 1224.35,-80.16"/>
</g>
<!-- Node26&#45;&gt;Node24 -->
<g id="edge30" class="edge">
<title>Node26&#45;&gt;Node24</title>
<path fill="none" stroke="midnightblue" d="M1352.95,-123.4C1336.69,-112.5 1314.28,-97.48 1298.02,-86.58"/>
<polygon fill="midnightblue" stroke="midnightblue" points="1299.95,-83.67 1289.7,-81.01 1296.05,-89.48 1299.95,-83.67"/>
</g>
<!-- Node27 -->
<g id="node27" class="node">
<title>Node27</title>
<g id="a_node27"><a xlink:title=" ">
<polygon fill="white" stroke="#bfbfbf" points="1352,-62 1352,-81 1396,-81 1396,-62 1352,-62"/>
<text text-anchor="middle" x="1374" y="-69" font-family="Helvetica,sans-Serif" font-size="10.00">string</text>
</a>
</g>
</g>
<!-- Node26&#45;&gt;Node27 -->
<g id="edge28" class="edge">
<title>Node26&#45;&gt;Node27</title>
<path fill="none" stroke="midnightblue" d="M1374,-123.4C1374,-114.06 1374,-101.71 1374,-91.52"/>
<polygon fill="midnightblue" stroke="midnightblue" points="1377.5,-91.19 1374,-81.19 1370.5,-91.19 1377.5,-91.19"/>
</g>
</g>
</svg>
