<?xml version="1.0" encoding="UTF-8" standalone="no"?>
<!DOCTYPE svg PUBLIC "-//W3C//DTD SVG 1.1//EN"
 "http://www.w3.org/Graphics/SVG/1.1/DTD/svg11.dtd">
<!-- Generated by graphviz version 2.43.0 (0)
 -->
<!-- Title: alps_core/lib_internal/alps_ros2_lib/include/alps_ros2/communication/can_topic_bridge.hpp Pages: 1 -->
<svg width="1842pt" height="452pt"
 viewBox="0.00 0.00 1841.50 452.00" xmlns="http://www.w3.org/2000/svg" xmlns:xlink="http://www.w3.org/1999/xlink">
<g id="graph0" class="graph" transform="scale(1 1) rotate(0) translate(4 448)">
<title>alps_core/lib_internal/alps_ros2_lib/include/alps_ros2/communication/can_topic_bridge.hpp</title>
<polygon fill="white" stroke="transparent" points="-4,4 -4,-448 1837.5,-448 1837.5,4 -4,4"/>
<!-- Node1 -->
<g id="node1" class="node">
<title>Node1</title>
<g id="a_node1"><a xlink:title=" ">
<polygon fill="#bfbfbf" stroke="black" points="1454.5,-391.5 1454.5,-443.5 1599.5,-443.5 1599.5,-391.5 1454.5,-391.5"/>
<text text-anchor="start" x="1462.5" y="-431.5" font-family="Helvetica,sans-Serif" font-size="10.00">alps_core/lib_internal</text>
<text text-anchor="start" x="1462.5" y="-420.5" font-family="Helvetica,sans-Serif" font-size="10.00">/alps_ros2_lib/include</text>
<text text-anchor="start" x="1462.5" y="-409.5" font-family="Helvetica,sans-Serif" font-size="10.00">/alps_ros2/communication</text>
<text text-anchor="middle" x="1527" y="-398.5" font-family="Helvetica,sans-Serif" font-size="10.00">/can_topic_bridge.hpp</text>
</a>
</g>
</g>
<!-- Node2 -->
<g id="node2" class="node">
<title>Node2</title>
<g id="a_node2"><a xlink:href="can__typed__data__transceiver_8hpp.html" target="_top" xlink:title="CAN通信で型付けされたデータの送受信を行うライブラリ">
<polygon fill="white" stroke="black" points="863.5,-257.5 863.5,-287.5 1040.5,-287.5 1040.5,-257.5 863.5,-257.5"/>
<text text-anchor="start" x="871.5" y="-275.5" font-family="Helvetica,sans-Serif" font-size="10.00">alps_cmn/communication</text>
<text text-anchor="middle" x="952" y="-264.5" font-family="Helvetica,sans-Serif" font-size="10.00">/can_typed_data_transceiver.hpp</text>
</a>
</g>
</g>
<!-- Node1&#45;&gt;Node2 -->
<g id="edge1" class="edge">
<title>Node1&#45;&gt;Node2</title>
<path fill="none" stroke="midnightblue" d="M1454.47,-398.46C1341.9,-370.47 1126.81,-316.97 1018.22,-289.97"/>
<polygon fill="midnightblue" stroke="midnightblue" points="1018.91,-286.53 1008.36,-287.52 1017.22,-293.33 1018.91,-286.53"/>
</g>
<!-- Node28 -->
<g id="node28" class="node">
<title>Node28</title>
<g id="a_node28"><a xlink:href="topic__converter_8hpp.html" target="_top" xlink:title=" ">
<polygon fill="white" stroke="black" points="1469.5,-324.5 1469.5,-354.5 1584.5,-354.5 1584.5,-324.5 1469.5,-324.5"/>
<text text-anchor="start" x="1477.5" y="-342.5" font-family="Helvetica,sans-Serif" font-size="10.00">alps_ros2/type/topic</text>
<text text-anchor="middle" x="1527" y="-331.5" font-family="Helvetica,sans-Serif" font-size="10.00">_converter.hpp</text>
</a>
</g>
</g>
<!-- Node1&#45;&gt;Node28 -->
<g id="edge34" class="edge">
<title>Node1&#45;&gt;Node28</title>
<path fill="none" stroke="midnightblue" d="M1527,-391.19C1527,-382.79 1527,-373.44 1527,-365.09"/>
<polygon fill="midnightblue" stroke="midnightblue" points="1530.5,-364.85 1527,-354.85 1523.5,-364.85 1530.5,-364.85"/>
</g>
<!-- Node36 -->
<g id="node36" class="node">
<title>Node36</title>
<g id="a_node36"><a xlink:title=" ">
<polygon fill="white" stroke="#bfbfbf" points="1602.5,-330 1602.5,-349 1701.5,-349 1701.5,-330 1602.5,-330"/>
<text text-anchor="middle" x="1652" y="-337" font-family="Helvetica,sans-Serif" font-size="10.00">rclcpp/rclcpp.hpp</text>
</a>
</g>
</g>
<!-- Node1&#45;&gt;Node36 -->
<g id="edge52" class="edge">
<title>Node1&#45;&gt;Node36</title>
<path fill="none" stroke="midnightblue" d="M1568.28,-391.4C1588.56,-379.07 1612.22,-364.69 1629.21,-354.36"/>
<polygon fill="midnightblue" stroke="midnightblue" points="1631.17,-357.26 1637.89,-349.08 1627.53,-351.28 1631.17,-357.26"/>
</g>
<!-- Node3 -->
<g id="node3" class="node">
<title>Node3</title>
<g id="a_node3"><a xlink:href="can__callback__handler_8hpp.html" target="_top" xlink:title="CANデータフレームをコールバックで処理するためのライブラリ">
<polygon fill="white" stroke="black" points="141.5,-190.5 141.5,-220.5 286.5,-220.5 286.5,-190.5 141.5,-190.5"/>
<text text-anchor="start" x="149.5" y="-208.5" font-family="Helvetica,sans-Serif" font-size="10.00">alps_cmn/communication</text>
<text text-anchor="middle" x="214" y="-197.5" font-family="Helvetica,sans-Serif" font-size="10.00">/can_callback_handler.hpp</text>
</a>
</g>
</g>
<!-- Node2&#45;&gt;Node3 -->
<g id="edge2" class="edge">
<title>Node2&#45;&gt;Node3</title>
<path fill="none" stroke="midnightblue" d="M863.35,-263.69C719.4,-251.01 436.88,-226.13 296.8,-213.79"/>
<polygon fill="midnightblue" stroke="midnightblue" points="296.82,-210.28 286.56,-212.89 296.21,-217.25 296.82,-210.28"/>
</g>
<!-- Node10 -->
<g id="node10" class="node">
<title>Node10</title>
<g id="a_node10"><a xlink:href="cobs_8hpp.html" target="_top" xlink:title="COBS変換ライブラリ">
<polygon fill="white" stroke="black" points="471,-190.5 471,-220.5 613,-220.5 613,-190.5 471,-190.5"/>
<text text-anchor="start" x="479" y="-208.5" font-family="Helvetica,sans-Serif" font-size="10.00">alps_cmn/communication</text>
<text text-anchor="middle" x="542" y="-197.5" font-family="Helvetica,sans-Serif" font-size="10.00">/cobs.hpp</text>
</a>
</g>
</g>
<!-- Node2&#45;&gt;Node10 -->
<g id="edge9" class="edge">
<title>Node2&#45;&gt;Node10</title>
<path fill="none" stroke="midnightblue" d="M863.54,-257.48C792.19,-246.16 692.64,-230.38 623.27,-219.38"/>
<polygon fill="midnightblue" stroke="midnightblue" points="623.69,-215.91 613.26,-217.8 622.59,-222.82 623.69,-215.91"/>
</g>
<!-- Node16 -->
<g id="node16" class="node">
<title>Node16</title>
<g id="a_node16"><a xlink:href="logging__macros_8hpp.html" target="_top" xlink:title=" ">
<polygon fill="white" stroke="black" points="778,-190.5 778,-220.5 898,-220.5 898,-190.5 778,-190.5"/>
<text text-anchor="start" x="786" y="-208.5" font-family="Helvetica,sans-Serif" font-size="10.00">alps_cmn/log/logging</text>
<text text-anchor="middle" x="838" y="-197.5" font-family="Helvetica,sans-Serif" font-size="10.00">_macros.hpp</text>
</a>
</g>
</g>
<!-- Node2&#45;&gt;Node16 -->
<g id="edge15" class="edge">
<title>Node2&#45;&gt;Node16</title>
<path fill="none" stroke="midnightblue" d="M927.26,-257.4C910.98,-248.11 889.46,-235.84 871.63,-225.67"/>
<polygon fill="midnightblue" stroke="midnightblue" points="873.11,-222.49 862.69,-220.58 869.64,-228.57 873.11,-222.49"/>
</g>
<!-- Node19 -->
<g id="node19" class="node">
<title>Node19</title>
<g id="a_node19"><a xlink:href="serializer_8hpp.html" target="_top" xlink:title="データとバイト列の変換ライブラリ">
<polygon fill="white" stroke="black" points="987,-196 987,-215 1143,-215 1143,-196 987,-196"/>
<text text-anchor="middle" x="1065" y="-203" font-family="Helvetica,sans-Serif" font-size="10.00">alps_cmn/type/serializer.hpp</text>
</a>
</g>
</g>
<!-- Node2&#45;&gt;Node19 -->
<g id="edge19" class="edge">
<title>Node2&#45;&gt;Node19</title>
<path fill="none" stroke="midnightblue" d="M976.52,-257.4C995.73,-246.34 1022.3,-231.06 1041.3,-220.13"/>
<polygon fill="midnightblue" stroke="midnightblue" points="1043.29,-223.03 1050.21,-215.01 1039.8,-216.96 1043.29,-223.03"/>
</g>
<!-- Node4 -->
<g id="node4" class="node">
<title>Node4</title>
<g id="a_node4"><a xlink:href="i__can__io_8hpp.html" target="_top" xlink:title=" ">
<polygon fill="white" stroke="black" points="0,-123.5 0,-153.5 142,-153.5 142,-123.5 0,-123.5"/>
<text text-anchor="start" x="8" y="-141.5" font-family="Helvetica,sans-Serif" font-size="10.00">alps_cmn/communication</text>
<text text-anchor="middle" x="71" y="-130.5" font-family="Helvetica,sans-Serif" font-size="10.00">/i_can_io.hpp</text>
</a>
</g>
</g>
<!-- Node3&#45;&gt;Node4 -->
<g id="edge3" class="edge">
<title>Node3&#45;&gt;Node4</title>
<path fill="none" stroke="midnightblue" d="M182.97,-190.4C161.98,-180.86 134.06,-168.16 111.35,-157.84"/>
<polygon fill="midnightblue" stroke="midnightblue" points="112.52,-154.53 101.97,-153.58 109.62,-160.9 112.52,-154.53"/>
</g>
<!-- Node8 -->
<g id="node8" class="node">
<title>Node8</title>
<g id="a_node8"><a xlink:title=" ">
<polygon fill="white" stroke="#bfbfbf" points="558,-62 558,-81 642,-81 642,-62 558,-62"/>
<text text-anchor="middle" x="600" y="-69" font-family="Helvetica,sans-Serif" font-size="10.00">etl/delegate.h</text>
</a>
</g>
</g>
<!-- Node3&#45;&gt;Node8 -->
<g id="edge7" class="edge">
<title>Node3&#45;&gt;Node8</title>
<path fill="none" stroke="midnightblue" d="M202.47,-190.4C189.42,-172.65 172.04,-142.18 189,-123 212.42,-96.52 442.5,-80.92 547.83,-75.11"/>
<polygon fill="midnightblue" stroke="midnightblue" points="548.13,-78.6 557.92,-74.56 547.75,-71.61 548.13,-78.6"/>
</g>
<!-- Node9 -->
<g id="node9" class="node">
<title>Node9</title>
<g id="a_node9"><a xlink:title=" ">
<polygon fill="white" stroke="#bfbfbf" points="198,-129 198,-148 316,-148 316,-129 198,-129"/>
<text text-anchor="middle" x="257" y="-136" font-family="Helvetica,sans-Serif" font-size="10.00">etl/unordered_map.h</text>
</a>
</g>
</g>
<!-- Node3&#45;&gt;Node9 -->
<g id="edge8" class="edge">
<title>Node3&#45;&gt;Node9</title>
<path fill="none" stroke="midnightblue" d="M223.33,-190.4C229.9,-180.46 238.74,-167.11 245.71,-156.57"/>
<polygon fill="midnightblue" stroke="midnightblue" points="248.65,-158.47 251.25,-148.19 242.81,-154.6 248.65,-158.47"/>
</g>
<!-- Node5 -->
<g id="node5" class="node">
<title>Node5</title>
<g id="a_node5"><a xlink:href="can__data__frame_8hpp.html" target="_top" xlink:title="CANフレームを表す構造体">
<polygon fill="white" stroke="black" points="133,-56.5 133,-86.5 275,-86.5 275,-56.5 133,-56.5"/>
<text text-anchor="start" x="141" y="-74.5" font-family="Helvetica,sans-Serif" font-size="10.00">alps_cmn/communication</text>
<text text-anchor="middle" x="204" y="-63.5" font-family="Helvetica,sans-Serif" font-size="10.00">/can_data_frame.hpp</text>
</a>
</g>
</g>
<!-- Node4&#45;&gt;Node5 -->
<g id="edge4" class="edge">
<title>Node4&#45;&gt;Node5</title>
<path fill="none" stroke="midnightblue" d="M99.86,-123.4C119.29,-113.9 145.12,-101.28 166.19,-90.98"/>
<polygon fill="midnightblue" stroke="midnightblue" points="167.75,-94.11 175.2,-86.58 164.68,-87.82 167.75,-94.11"/>
</g>
<!-- Node6 -->
<g id="node6" class="node">
<title>Node6</title>
<g id="a_node6"><a xlink:title=" ">
<polygon fill="white" stroke="#bfbfbf" points="177.5,-0.5 177.5,-19.5 230.5,-19.5 230.5,-0.5 177.5,-0.5"/>
<text text-anchor="middle" x="204" y="-7.5" font-family="Helvetica,sans-Serif" font-size="10.00">stdint.h</text>
</a>
</g>
</g>
<!-- Node5&#45;&gt;Node6 -->
<g id="edge5" class="edge">
<title>Node5&#45;&gt;Node6</title>
<path fill="none" stroke="midnightblue" d="M204,-56.4C204,-48.47 204,-38.46 204,-29.86"/>
<polygon fill="midnightblue" stroke="midnightblue" points="207.5,-29.66 204,-19.66 200.5,-29.66 207.5,-29.66"/>
</g>
<!-- Node7 -->
<g id="node7" class="node">
<title>Node7</title>
<g id="a_node7"><a xlink:title=" ">
<polygon fill="white" stroke="#bfbfbf" points="1214.5,-0.5 1214.5,-19.5 1285.5,-19.5 1285.5,-0.5 1214.5,-0.5"/>
<text text-anchor="middle" x="1250" y="-7.5" font-family="Helvetica,sans-Serif" font-size="10.00">etl/vector.h</text>
</a>
</g>
</g>
<!-- Node5&#45;&gt;Node7 -->
<g id="edge6" class="edge">
<title>Node5&#45;&gt;Node7</title>
<path fill="none" stroke="midnightblue" d="M275.07,-66.46C475.07,-55.08 1038.84,-23.01 1204,-13.62"/>
<polygon fill="midnightblue" stroke="midnightblue" points="1204.51,-17.09 1214.29,-13.03 1204.11,-10.1 1204.51,-17.09"/>
</g>
<!-- Node11 -->
<g id="node11" class="node">
<title>Node11</title>
<g id="a_node11"><a xlink:title=" ">
<polygon fill="white" stroke="#bfbfbf" points="334,-129 334,-148 386,-148 386,-129 334,-129"/>
<text text-anchor="middle" x="360" y="-136" font-family="Helvetica,sans-Serif" font-size="10.00">cassert</text>
</a>
</g>
</g>
<!-- Node10&#45;&gt;Node11 -->
<g id="edge10" class="edge">
<title>Node10&#45;&gt;Node11</title>
<path fill="none" stroke="midnightblue" d="M498.97,-190.5C469.53,-180.73 429.7,-167.13 395,-154 393.35,-153.38 391.66,-152.72 389.96,-152.06"/>
<polygon fill="midnightblue" stroke="midnightblue" points="390.86,-148.64 380.27,-148.15 388.24,-155.13 390.86,-148.64"/>
</g>
<!-- Node12 -->
<g id="node12" class="node">
<title>Node12</title>
<g id="a_node12"><a xlink:title=" ">
<polygon fill="white" stroke="#bfbfbf" points="818,-129 818,-148 868,-148 868,-129 818,-129"/>
<text text-anchor="middle" x="843" y="-136" font-family="Helvetica,sans-Serif" font-size="10.00">cstdint</text>
</a>
</g>
</g>
<!-- Node10&#45;&gt;Node12 -->
<g id="edge11" class="edge">
<title>Node10&#45;&gt;Node12</title>
<path fill="none" stroke="midnightblue" d="M613.23,-195.04C667.35,-186.88 743.25,-173.33 808,-154 810.29,-153.32 812.63,-152.54 814.96,-151.7"/>
<polygon fill="midnightblue" stroke="midnightblue" points="816.31,-154.93 824.37,-148.05 813.78,-148.41 816.31,-154.93"/>
</g>
<!-- Node13 -->
<g id="node13" class="node">
<title>Node13</title>
<g id="a_node13"><a xlink:title=" ">
<polygon fill="white" stroke="#bfbfbf" points="404,-129 404,-148 450,-148 450,-129 404,-129"/>
<text text-anchor="middle" x="427" y="-136" font-family="Helvetica,sans-Serif" font-size="10.00">cstdio</text>
</a>
</g>
</g>
<!-- Node10&#45;&gt;Node13 -->
<g id="edge12" class="edge">
<title>Node10&#45;&gt;Node13</title>
<path fill="none" stroke="midnightblue" d="M517.05,-190.4C497.4,-179.29 470.21,-163.92 450.85,-152.98"/>
<polygon fill="midnightblue" stroke="midnightblue" points="452.48,-149.88 442.05,-148.01 449.03,-155.97 452.48,-149.88"/>
</g>
<!-- Node14 -->
<g id="node14" class="node">
<title>Node14</title>
<g id="a_node14"><a xlink:title=" ">
<polygon fill="white" stroke="#bfbfbf" points="468.5,-129 468.5,-148 517.5,-148 517.5,-129 468.5,-129"/>
<text text-anchor="middle" x="493" y="-136" font-family="Helvetica,sans-Serif" font-size="10.00">cstdlib</text>
</a>
</g>
</g>
<!-- Node10&#45;&gt;Node14 -->
<g id="edge13" class="edge">
<title>Node10&#45;&gt;Node14</title>
<path fill="none" stroke="midnightblue" d="M531.37,-190.4C523.8,-180.36 513.61,-166.84 505.63,-156.25"/>
<polygon fill="midnightblue" stroke="midnightblue" points="508.37,-154.07 499.55,-148.19 502.78,-158.29 508.37,-154.07"/>
</g>
<!-- Node15 -->
<g id="node15" class="node">
<title>Node15</title>
<g id="a_node15"><a xlink:title=" ">
<polygon fill="white" stroke="#bfbfbf" points="536,-129 536,-148 646,-148 646,-129 536,-129"/>
<text text-anchor="middle" x="591" y="-136" font-family="Helvetica,sans-Serif" font-size="10.00">etl/circular_buffer.h</text>
</a>
</g>
</g>
<!-- Node10&#45;&gt;Node15 -->
<g id="edge14" class="edge">
<title>Node10&#45;&gt;Node15</title>
<path fill="none" stroke="midnightblue" d="M552.63,-190.4C560.2,-180.36 570.39,-166.84 578.37,-156.25"/>
<polygon fill="midnightblue" stroke="midnightblue" points="581.22,-158.29 584.45,-148.19 575.63,-154.07 581.22,-158.29"/>
</g>
<!-- Node17 -->
<g id="node17" class="node">
<title>Node17</title>
<g id="a_node17"><a xlink:href="logger_8hpp.html" target="_top" xlink:title=" ">
<polygon fill="white" stroke="black" points="664.5,-129 664.5,-148 799.5,-148 799.5,-129 664.5,-129"/>
<text text-anchor="middle" x="732" y="-136" font-family="Helvetica,sans-Serif" font-size="10.00">alps_cmn/log/logger.hpp</text>
</a>
</g>
</g>
<!-- Node16&#45;&gt;Node17 -->
<g id="edge16" class="edge">
<title>Node16&#45;&gt;Node17</title>
<path fill="none" stroke="midnightblue" d="M815,-190.4C797.06,-179.39 772.28,-164.2 754.48,-153.28"/>
<polygon fill="midnightblue" stroke="midnightblue" points="756.23,-150.25 745.87,-148.01 752.57,-156.22 756.23,-150.25"/>
</g>
<!-- Node17&#45;&gt;Node8 -->
<g id="edge17" class="edge">
<title>Node17&#45;&gt;Node8</title>
<path fill="none" stroke="midnightblue" d="M714.47,-128.87C691.99,-117.8 652.77,-98.49 626.6,-85.6"/>
<polygon fill="midnightblue" stroke="midnightblue" points="628.12,-82.44 617.6,-81.17 625.03,-88.72 628.12,-82.44"/>
</g>
<!-- Node18 -->
<g id="node18" class="node">
<title>Node18</title>
<g id="a_node18"><a xlink:title=" ">
<polygon fill="white" stroke="#bfbfbf" points="1057.5,-62 1057.5,-81 1126.5,-81 1126.5,-62 1057.5,-62"/>
<text text-anchor="middle" x="1092" y="-69" font-family="Helvetica,sans-Serif" font-size="10.00">etl/string.h</text>
</a>
</g>
</g>
<!-- Node17&#45;&gt;Node18 -->
<g id="edge18" class="edge">
<title>Node17&#45;&gt;Node18</title>
<path fill="none" stroke="midnightblue" d="M776.77,-128.99C787.34,-127.01 798.56,-124.91 809,-123 893.11,-107.58 991.4,-90.18 1047.21,-80.36"/>
<polygon fill="midnightblue" stroke="midnightblue" points="1047.88,-83.79 1057.13,-78.61 1046.67,-76.9 1047.88,-83.79"/>
</g>
<!-- Node19&#45;&gt;Node7 -->
<g id="edge33" class="edge">
<title>Node19&#45;&gt;Node7</title>
<path fill="none" stroke="midnightblue" d="M1110.89,-195.94C1137.83,-188.8 1170.83,-176.09 1193,-154 1228.08,-119.04 1242.24,-59.75 1247.39,-29.69"/>
<polygon fill="midnightblue" stroke="midnightblue" points="1250.86,-30.12 1248.94,-19.7 1243.95,-29.05 1250.86,-30.12"/>
</g>
<!-- Node19&#45;&gt;Node12 -->
<g id="edge22" class="edge">
<title>Node19&#45;&gt;Node12</title>
<path fill="none" stroke="midnightblue" d="M1027.08,-195.97C988.77,-186.97 928.11,-171.66 877,-154 875.13,-153.36 873.23,-152.66 871.31,-151.93"/>
<polygon fill="midnightblue" stroke="midnightblue" points="872.46,-148.61 861.88,-148.11 869.83,-155.1 872.46,-148.61"/>
</g>
<!-- Node19&#45;&gt;Node15 -->
<g id="edge31" class="edge">
<title>Node19&#45;&gt;Node15</title>
<path fill="none" stroke="midnightblue" d="M986.82,-197.22C904.06,-188.98 769.81,-174.02 655,-154 648.74,-152.91 642.17,-151.6 635.72,-150.23"/>
<polygon fill="midnightblue" stroke="midnightblue" points="636.27,-146.77 625.75,-148.04 634.76,-153.6 636.27,-146.77"/>
</g>
<!-- Node19&#45;&gt;Node18 -->
<g id="edge32" class="edge">
<title>Node19&#45;&gt;Node18</title>
<path fill="none" stroke="midnightblue" d="M1066.77,-195.84C1071.1,-174.67 1082.29,-119.95 1088.21,-91.03"/>
<polygon fill="midnightblue" stroke="midnightblue" points="1091.68,-91.52 1090.26,-81.02 1084.82,-90.12 1091.68,-91.52"/>
</g>
<!-- Node20 -->
<g id="node20" class="node">
<title>Node20</title>
<g id="a_node20"><a xlink:title=" ">
<polygon fill="white" stroke="#bfbfbf" points="1120,-129 1120,-148 1184,-148 1184,-129 1120,-129"/>
<text text-anchor="middle" x="1152" y="-136" font-family="Helvetica,sans-Serif" font-size="10.00">algorithm</text>
</a>
</g>
</g>
<!-- Node19&#45;&gt;Node20 -->
<g id="edge20" class="edge">
<title>Node19&#45;&gt;Node20</title>
<path fill="none" stroke="midnightblue" d="M1076.73,-195.73C1090.95,-185.11 1115.13,-167.05 1132.24,-154.26"/>
<polygon fill="midnightblue" stroke="midnightblue" points="1134.54,-156.92 1140.45,-148.13 1130.35,-151.31 1134.54,-156.92"/>
</g>
<!-- Node21 -->
<g id="node21" class="node">
<title>Node21</title>
<g id="a_node21"><a xlink:title=" ">
<polygon fill="white" stroke="#bfbfbf" points="886,-129 886,-148 928,-148 928,-129 886,-129"/>
<text text-anchor="middle" x="907" y="-136" font-family="Helvetica,sans-Serif" font-size="10.00">array</text>
</a>
</g>
</g>
<!-- Node19&#45;&gt;Node21 -->
<g id="edge21" class="edge">
<title>Node19&#45;&gt;Node21</title>
<path fill="none" stroke="midnightblue" d="M1041.66,-195.89C1015.84,-186.23 973.1,-169.82 937,-154 935.81,-153.48 934.59,-152.94 933.37,-152.38"/>
<polygon fill="midnightblue" stroke="midnightblue" points="934.57,-149.08 924.03,-148 931.6,-155.42 934.57,-149.08"/>
</g>
<!-- Node22 -->
<g id="node22" class="node">
<title>Node22</title>
<g id="a_node22"><a xlink:title=" ">
<polygon fill="white" stroke="#bfbfbf" points="946,-129 946,-148 996,-148 996,-129 946,-129"/>
<text text-anchor="middle" x="971" y="-136" font-family="Helvetica,sans-Serif" font-size="10.00">cstring</text>
</a>
</g>
</g>
<!-- Node19&#45;&gt;Node22 -->
<g id="edge23" class="edge">
<title>Node19&#45;&gt;Node22</title>
<path fill="none" stroke="midnightblue" d="M1052.32,-195.73C1036.82,-185.01 1010.36,-166.72 991.84,-153.91"/>
<polygon fill="midnightblue" stroke="midnightblue" points="993.69,-150.94 983.48,-148.13 989.71,-156.69 993.69,-150.94"/>
</g>
<!-- Node23 -->
<g id="node23" class="node">
<title>Node23</title>
<g id="a_node23"><a xlink:title=" ">
<polygon fill="white" stroke="#bfbfbf" points="1319.5,-62 1319.5,-81 1360.5,-81 1360.5,-62 1319.5,-62"/>
<text text-anchor="middle" x="1340" y="-69" font-family="Helvetica,sans-Serif" font-size="10.00">tuple</text>
</a>
</g>
</g>
<!-- Node19&#45;&gt;Node23 -->
<g id="edge24" class="edge">
<title>Node19&#45;&gt;Node23</title>
<path fill="none" stroke="midnightblue" d="M1139.3,-195.94C1178.47,-188.96 1226.12,-176.42 1264,-154 1291.63,-137.65 1315.38,-108.24 1328.66,-89.58"/>
<polygon fill="midnightblue" stroke="midnightblue" points="1331.68,-91.38 1334.47,-81.16 1325.91,-87.41 1331.68,-91.38"/>
</g>
<!-- Node24 -->
<g id="node24" class="node">
<title>Node24</title>
<g id="a_node24"><a xlink:title=" ">
<polygon fill="white" stroke="#bfbfbf" points="1482.5,-62 1482.5,-81 1551.5,-81 1551.5,-62 1482.5,-62"/>
<text text-anchor="middle" x="1517" y="-69" font-family="Helvetica,sans-Serif" font-size="10.00">type_traits</text>
</a>
</g>
</g>
<!-- Node19&#45;&gt;Node24 -->
<g id="edge25" class="edge">
<title>Node19&#45;&gt;Node24</title>
<path fill="none" stroke="midnightblue" d="M1143.21,-200.18C1237.8,-193.9 1390.6,-180.04 1441,-154 1469.8,-139.12 1493.46,-108.8 1506.37,-89.63"/>
<polygon fill="midnightblue" stroke="midnightblue" points="1509.31,-91.52 1511.82,-81.23 1503.44,-87.71 1509.31,-91.52"/>
</g>
<!-- Node25 -->
<g id="node25" class="node">
<title>Node25</title>
<g id="a_node25"><a xlink:title=" ">
<polygon fill="white" stroke="#bfbfbf" points="1014,-129 1014,-148 1064,-148 1064,-129 1014,-129"/>
<text text-anchor="middle" x="1039" y="-136" font-family="Helvetica,sans-Serif" font-size="10.00">chrono</text>
</a>
</g>
</g>
<!-- Node19&#45;&gt;Node25 -->
<g id="edge26" class="edge">
<title>Node19&#45;&gt;Node25</title>
<path fill="none" stroke="midnightblue" d="M1061.49,-195.73C1057.6,-185.99 1051.19,-169.98 1046.21,-157.53"/>
<polygon fill="midnightblue" stroke="midnightblue" points="1049.41,-156.11 1042.45,-148.13 1042.92,-158.71 1049.41,-156.11"/>
</g>
<!-- Node26 -->
<g id="node26" class="node">
<title>Node26</title>
<g id="a_node26"><a xlink:href="tuple__traits_8hpp.html" target="_top" xlink:title="タプル関係の型特性">
<polygon fill="white" stroke="black" points="1316,-123.5 1316,-153.5 1432,-153.5 1432,-123.5 1316,-123.5"/>
<text text-anchor="start" x="1324" y="-141.5" font-family="Helvetica,sans-Serif" font-size="10.00">alps_cmn/type/tuple</text>
<text text-anchor="middle" x="1374" y="-130.5" font-family="Helvetica,sans-Serif" font-size="10.00">_traits.hpp</text>
</a>
</g>
</g>
<!-- Node19&#45;&gt;Node26 -->
<g id="edge27" class="edge">
<title>Node19&#45;&gt;Node26</title>
<path fill="none" stroke="midnightblue" d="M1105.71,-195.94C1156.63,-185.22 1244.55,-166.73 1305.81,-153.84"/>
<polygon fill="midnightblue" stroke="midnightblue" points="1306.72,-157.23 1315.78,-151.75 1305.28,-150.38 1306.72,-157.23"/>
</g>
<!-- Node26&#45;&gt;Node23 -->
<g id="edge29" class="edge">
<title>Node26&#45;&gt;Node23</title>
<path fill="none" stroke="midnightblue" d="M1366.62,-123.4C1361.53,-113.66 1354.72,-100.65 1349.27,-90.21"/>
<polygon fill="midnightblue" stroke="midnightblue" points="1352.28,-88.43 1344.55,-81.19 1346.08,-91.68 1352.28,-88.43"/>
</g>
<!-- Node26&#45;&gt;Node24 -->
<g id="edge30" class="edge">
<title>Node26&#45;&gt;Node24</title>
<path fill="none" stroke="midnightblue" d="M1405.03,-123.4C1430.01,-112.04 1464.82,-96.22 1488.96,-85.24"/>
<polygon fill="midnightblue" stroke="midnightblue" points="1490.63,-88.33 1498.28,-81.01 1487.73,-81.96 1490.63,-88.33"/>
</g>
<!-- Node27 -->
<g id="node27" class="node">
<title>Node27</title>
<g id="a_node27"><a xlink:title=" ">
<polygon fill="white" stroke="#bfbfbf" points="1386,-62 1386,-81 1430,-81 1430,-62 1386,-62"/>
<text text-anchor="middle" x="1408" y="-69" font-family="Helvetica,sans-Serif" font-size="10.00">string</text>
</a>
</g>
</g>
<!-- Node26&#45;&gt;Node27 -->
<g id="edge28" class="edge">
<title>Node26&#45;&gt;Node27</title>
<path fill="none" stroke="midnightblue" d="M1381.38,-123.4C1386.47,-113.66 1393.28,-100.65 1398.73,-90.21"/>
<polygon fill="midnightblue" stroke="midnightblue" points="1401.92,-91.68 1403.45,-81.19 1395.72,-88.43 1401.92,-91.68"/>
</g>
<!-- Node28&#45;&gt;Node2 -->
<g id="edge36" class="edge">
<title>Node28&#45;&gt;Node2</title>
<path fill="none" stroke="midnightblue" d="M1469.5,-332C1371.57,-320.93 1171.31,-298.29 1050.65,-284.65"/>
<polygon fill="midnightblue" stroke="midnightblue" points="1050.99,-281.17 1040.66,-283.52 1050.21,-288.12 1050.99,-281.17"/>
</g>
<!-- Node28&#45;&gt;Node26 -->
<g id="edge44" class="edge">
<title>Node28&#45;&gt;Node26</title>
<path fill="none" stroke="midnightblue" d="M1480.61,-324.43C1461.15,-316.47 1439.67,-304.7 1425,-288 1393.45,-252.1 1381.2,-195.72 1376.6,-163.75"/>
<polygon fill="midnightblue" stroke="midnightblue" points="1380.04,-163 1375.28,-153.53 1373.09,-163.9 1380.04,-163"/>
</g>
<!-- Node29 -->
<g id="node29" class="node">
<title>Node29</title>
<g id="a_node29"><a xlink:title=" ">
<polygon fill="white" stroke="#bfbfbf" points="1634,-263 1634,-282 1690,-282 1690,-263 1634,-263"/>
<text text-anchor="middle" x="1662" y="-270" font-family="Helvetica,sans-Serif" font-size="10.00">optional</text>
</a>
</g>
</g>
<!-- Node28&#45;&gt;Node29 -->
<g id="edge35" class="edge">
<title>Node28&#45;&gt;Node29</title>
<path fill="none" stroke="midnightblue" d="M1556.29,-324.4C1579.77,-313.09 1612.44,-297.36 1635.23,-286.39"/>
<polygon fill="midnightblue" stroke="midnightblue" points="1636.84,-289.5 1644.33,-282.01 1633.8,-283.19 1636.84,-289.5"/>
</g>
<!-- Node30 -->
<g id="node30" class="node">
<title>Node30</title>
<g id="a_node30"><a xlink:href="always__false_8hpp.html" target="_top" xlink:title=" ">
<polygon fill="white" stroke="black" points="1708.5,-257.5 1708.5,-287.5 1833.5,-287.5 1833.5,-257.5 1708.5,-257.5"/>
<text text-anchor="start" x="1716.5" y="-275.5" font-family="Helvetica,sans-Serif" font-size="10.00">alps_cmn/type/always</text>
<text text-anchor="middle" x="1771" y="-264.5" font-family="Helvetica,sans-Serif" font-size="10.00">_false.hpp</text>
</a>
</g>
</g>
<!-- Node28&#45;&gt;Node30 -->
<g id="edge37" class="edge">
<title>Node28&#45;&gt;Node30</title>
<path fill="none" stroke="midnightblue" d="M1579.64,-324.48C1617.36,-314.43 1668.31,-300.86 1708.15,-290.24"/>
<polygon fill="midnightblue" stroke="midnightblue" points="1709.27,-293.57 1718.03,-287.61 1707.47,-286.8 1709.27,-293.57"/>
</g>
<!-- Node31 -->
<g id="node31" class="node">
<title>Node31</title>
<g id="a_node31"><a xlink:href="array__traits_8hpp.html" target="_top" xlink:title="array関係の型特性">
<polygon fill="white" stroke="black" points="1666,-190.5 1666,-220.5 1782,-220.5 1782,-190.5 1666,-190.5"/>
<text text-anchor="start" x="1674" y="-208.5" font-family="Helvetica,sans-Serif" font-size="10.00">alps_cmn/type/array</text>
<text text-anchor="middle" x="1724" y="-197.5" font-family="Helvetica,sans-Serif" font-size="10.00">_traits.hpp</text>
</a>
</g>
</g>
<!-- Node28&#45;&gt;Node31 -->
<g id="edge38" class="edge">
<title>Node28&#45;&gt;Node31</title>
<path fill="none" stroke="midnightblue" d="M1541.79,-324.4C1560.29,-307.19 1593.4,-277.82 1625,-257 1643.11,-245.07 1664.4,-233.87 1682.59,-225.08"/>
<polygon fill="midnightblue" stroke="midnightblue" points="1684.26,-228.16 1691.79,-220.7 1681.25,-221.84 1684.26,-228.16"/>
</g>
<!-- Node34 -->
<g id="node34" class="node">
<title>Node34</title>
<g id="a_node34"><a xlink:href="vector__traits_8hpp.html" target="_top" xlink:title="vector関係の型特性">
<polygon fill="white" stroke="black" points="1526,-190.5 1526,-220.5 1648,-220.5 1648,-190.5 1526,-190.5"/>
<text text-anchor="start" x="1534" y="-208.5" font-family="Helvetica,sans-Serif" font-size="10.00">alps_cmn/type/vector</text>
<text text-anchor="middle" x="1587" y="-197.5" font-family="Helvetica,sans-Serif" font-size="10.00">_traits.hpp</text>
</a>
</g>
</g>
<!-- Node28&#45;&gt;Node34 -->
<g id="edge45" class="edge">
<title>Node28&#45;&gt;Node34</title>
<path fill="none" stroke="midnightblue" d="M1533.42,-324.37C1543.71,-301.75 1563.98,-257.14 1576.43,-229.76"/>
<polygon fill="midnightblue" stroke="midnightblue" points="1579.67,-231.08 1580.63,-220.52 1573.3,-228.18 1579.67,-231.08"/>
</g>
<!-- Node35 -->
<g id="node35" class="node">
<title>Node35</title>
<g id="a_node35"><a xlink:href="std__msgs__traits_8hpp.html" target="_top" xlink:title=" ">
<polygon fill="white" stroke="black" points="1434,-257.5 1434,-287.5 1540,-287.5 1540,-257.5 1434,-257.5"/>
<text text-anchor="start" x="1442" y="-275.5" font-family="Helvetica,sans-Serif" font-size="10.00">alps_ros2/type/std</text>
<text text-anchor="middle" x="1487" y="-264.5" font-family="Helvetica,sans-Serif" font-size="10.00">_msgs_traits.hpp</text>
</a>
</g>
</g>
<!-- Node28&#45;&gt;Node35 -->
<g id="edge50" class="edge">
<title>Node28&#45;&gt;Node35</title>
<path fill="none" stroke="midnightblue" d="M1518.32,-324.4C1513.24,-316.13 1506.7,-305.51 1500.91,-296.1"/>
<polygon fill="midnightblue" stroke="midnightblue" points="1503.88,-294.26 1495.66,-287.58 1497.92,-297.93 1503.88,-294.26"/>
</g>
<!-- Node31&#45;&gt;Node24 -->
<g id="edge39" class="edge">
<title>Node31&#45;&gt;Node24</title>
<path fill="none" stroke="midnightblue" d="M1721.32,-190.24C1717.15,-172.03 1707.39,-140.76 1687,-123 1668.21,-106.63 1605.2,-90.77 1561.41,-81.32"/>
<polygon fill="midnightblue" stroke="midnightblue" points="1562.07,-77.88 1551.56,-79.23 1560.62,-84.73 1562.07,-77.88"/>
</g>
<!-- Node32 -->
<g id="node32" class="node">
<title>Node32</title>
<g id="a_node32"><a xlink:href="container__traits_8hpp.html" target="_top" xlink:title="container関係の型特性">
<polygon fill="white" stroke="black" points="1564,-129 1564,-148 1678,-148 1678,-129 1564,-129"/>
<text text-anchor="middle" x="1621" y="-136" font-family="Helvetica,sans-Serif" font-size="10.00">container_traits.hpp</text>
</a>
</g>
</g>
<!-- Node31&#45;&gt;Node32 -->
<g id="edge40" class="edge">
<title>Node31&#45;&gt;Node32</title>
<path fill="none" stroke="midnightblue" d="M1701.65,-190.4C1684.38,-179.5 1660.58,-164.48 1643.32,-153.58"/>
<polygon fill="midnightblue" stroke="midnightblue" points="1644.81,-150.38 1634.48,-148.01 1641.07,-156.3 1644.81,-150.38"/>
</g>
<!-- Node32&#45;&gt;Node24 -->
<g id="edge42" class="edge">
<title>Node32&#45;&gt;Node24</title>
<path fill="none" stroke="midnightblue" d="M1606.97,-128.73C1589.67,-117.92 1560.01,-99.38 1539.51,-86.57"/>
<polygon fill="midnightblue" stroke="midnightblue" points="1541.14,-83.46 1530.8,-81.13 1537.43,-89.4 1541.14,-83.46"/>
</g>
<!-- Node32&#45;&gt;Node27 -->
<g id="edge41" class="edge">
<title>Node32&#45;&gt;Node27</title>
<path fill="none" stroke="midnightblue" d="M1592.72,-128.87C1553.09,-116.78 1481.28,-94.86 1439.83,-82.21"/>
<polygon fill="midnightblue" stroke="midnightblue" points="1440.82,-78.86 1430.23,-79.29 1438.78,-85.55 1440.82,-78.86"/>
</g>
<!-- Node33 -->
<g id="node33" class="node">
<title>Node33</title>
<g id="a_node33"><a xlink:title=" ">
<polygon fill="white" stroke="#bfbfbf" points="1597.5,-62 1597.5,-81 1644.5,-81 1644.5,-62 1597.5,-62"/>
<text text-anchor="middle" x="1621" y="-69" font-family="Helvetica,sans-Serif" font-size="10.00">vector</text>
</a>
</g>
</g>
<!-- Node32&#45;&gt;Node33 -->
<g id="edge43" class="edge">
<title>Node32&#45;&gt;Node33</title>
<path fill="none" stroke="midnightblue" d="M1621,-128.73C1621,-119.18 1621,-103.62 1621,-91.28"/>
<polygon fill="midnightblue" stroke="midnightblue" points="1624.5,-91.13 1621,-81.13 1617.5,-91.13 1624.5,-91.13"/>
</g>
<!-- Node34&#45;&gt;Node7 -->
<g id="edge48" class="edge">
<title>Node34&#45;&gt;Node7</title>
<path fill="none" stroke="midnightblue" d="M1639.69,-190.45C1657.91,-182.79 1676.4,-171.23 1687,-154 1711.08,-114.86 1691.62,-82.4 1654,-56 1597.2,-16.13 1389.23,-10.96 1295.89,-10.71"/>
<polygon fill="midnightblue" stroke="midnightblue" points="1295.62,-7.21 1285.62,-10.7 1295.62,-14.21 1295.62,-7.21"/>
</g>
<!-- Node34&#45;&gt;Node18 -->
<g id="edge49" class="edge">
<title>Node34&#45;&gt;Node18</title>
<path fill="none" stroke="midnightblue" d="M1525.92,-196.79C1468.71,-188.79 1381.14,-174.55 1307,-154 1238.23,-134.94 1160.67,-102.76 1120.13,-85.08"/>
<polygon fill="midnightblue" stroke="midnightblue" points="1121.44,-81.83 1110.88,-81.01 1118.63,-88.24 1121.44,-81.83"/>
</g>
<!-- Node34&#45;&gt;Node24 -->
<g id="edge46" class="edge">
<title>Node34&#45;&gt;Node24</title>
<path fill="none" stroke="midnightblue" d="M1577.25,-190.21C1570.64,-180.26 1561.87,-166.57 1555,-154 1543.45,-132.88 1532.02,-107.63 1524.76,-90.89"/>
<polygon fill="midnightblue" stroke="midnightblue" points="1527.79,-89.06 1520.64,-81.25 1521.35,-91.82 1527.79,-89.06"/>
</g>
<!-- Node34&#45;&gt;Node32 -->
<g id="edge47" class="edge">
<title>Node34&#45;&gt;Node32</title>
<path fill="none" stroke="midnightblue" d="M1594.38,-190.4C1599.47,-180.66 1606.28,-167.65 1611.73,-157.21"/>
<polygon fill="midnightblue" stroke="midnightblue" points="1614.92,-158.68 1616.45,-148.19 1608.72,-155.43 1614.92,-158.68"/>
</g>
<!-- Node35&#45;&gt;Node24 -->
<g id="edge51" class="edge">
<title>Node35&#45;&gt;Node24</title>
<path fill="none" stroke="midnightblue" d="M1489.16,-257.19C1494.48,-221.91 1508.21,-130.78 1514.17,-91.25"/>
<polygon fill="midnightblue" stroke="midnightblue" points="1517.63,-91.77 1515.66,-81.36 1510.71,-90.73 1517.63,-91.77"/>
</g>
</g>
</svg>
