<?xml version="1.0" encoding="UTF-8" standalone="no"?>
<!DOCTYPE svg PUBLIC "-//W3C//DTD SVG 1.1//EN"
 "http://www.w3.org/Graphics/SVG/1.1/DTD/svg11.dtd">
<!-- Generated by graphviz version 2.43.0 (0)
 -->
<!-- Title: alps_ros2_lib/include/alps_ros2/communication/can_topic_converter.hpp Pages: 1 -->
<svg width="4711pt" height="374pt"
 viewBox="0.00 0.00 4711.00 374.00" xmlns="http://www.w3.org/2000/svg" xmlns:xlink="http://www.w3.org/1999/xlink">
<g id="graph0" class="graph" transform="scale(1 1) rotate(0) translate(4 370)">
<title>alps_ros2_lib/include/alps_ros2/communication/can_topic_converter.hpp</title>
<polygon fill="white" stroke="transparent" points="-4,4 -4,-370 4707,-370 4707,4 -4,4"/>
<!-- Node1 -->
<g id="node1" class="node">
<title>Node1</title>
<g id="a_node1"><a xlink:title=" ">
<polygon fill="#bfbfbf" stroke="black" points="2593.5,-324.5 2593.5,-365.5 2738.5,-365.5 2738.5,-324.5 2593.5,-324.5"/>
<text text-anchor="start" x="2601.5" y="-353.5" font-family="Helvetica,sans-Serif" font-size="10.00">alps_ros2_lib/include</text>
<text text-anchor="start" x="2601.5" y="-342.5" font-family="Helvetica,sans-Serif" font-size="10.00">/alps_ros2/communication</text>
<text text-anchor="middle" x="2666" y="-331.5" font-family="Helvetica,sans-Serif" font-size="10.00">/can_topic_converter.hpp</text>
</a>
</g>
</g>
<!-- Node2 -->
<g id="node2" class="node">
<title>Node2</title>
<g id="a_node2"><a xlink:href="can__typed__data__transceiver_8hpp.html" target="_top" xlink:title="CAN通信で型付けされたデータの送受信を行うライブラリ">
<polygon fill="white" stroke="black" points="630.5,-257.5 630.5,-287.5 807.5,-287.5 807.5,-257.5 630.5,-257.5"/>
<text text-anchor="start" x="638.5" y="-275.5" font-family="Helvetica,sans-Serif" font-size="10.00">alps_cmn/communication</text>
<text text-anchor="middle" x="719" y="-264.5" font-family="Helvetica,sans-Serif" font-size="10.00">/can_typed_data_transceiver.hpp</text>
</a>
</g>
</g>
<!-- Node1&#45;&gt;Node2 -->
<g id="edge1" class="edge">
<title>Node1&#45;&gt;Node2</title>
<path fill="none" stroke="midnightblue" d="M2593.32,-342.95C2298.55,-338.51 1190.62,-320.07 817.77,-288.07"/>
<polygon fill="midnightblue" stroke="midnightblue" points="818.02,-284.58 807.76,-287.2 817.41,-291.56 818.02,-284.58"/>
</g>
<!-- Node25 -->
<g id="node25" class="node">
<title>Node25</title>
<g id="a_node25"><a xlink:title=" ">
<polygon fill="white" stroke="#bfbfbf" points="825.5,-263 825.5,-282 924.5,-282 924.5,-263 825.5,-263"/>
<text text-anchor="middle" x="875" y="-270" font-family="Helvetica,sans-Serif" font-size="10.00">rclcpp/rclcpp.hpp</text>
</a>
</g>
</g>
<!-- Node1&#45;&gt;Node25 -->
<g id="edge29" class="edge">
<title>Node1&#45;&gt;Node25</title>
<path fill="none" stroke="midnightblue" d="M2593.31,-343.67C2307.71,-342.06 1262.22,-333.13 934,-288 927.62,-287.12 920.93,-285.84 914.44,-284.39"/>
<polygon fill="midnightblue" stroke="midnightblue" points="915.02,-280.93 904.48,-282.02 913.4,-287.74 915.02,-280.93"/>
</g>
<!-- Node26 -->
<g id="node26" class="node">
<title>Node26</title>
<g id="a_node26"><a xlink:title=" ">
<polygon fill="white" stroke="#bfbfbf" points="943,-263 943,-282 1075,-282 1075,-263 943,-263"/>
<text text-anchor="middle" x="1009" y="-270" font-family="Helvetica,sans-Serif" font-size="10.00">std_msgs/msg/bool.hpp</text>
</a>
</g>
</g>
<!-- Node1&#45;&gt;Node26 -->
<g id="edge30" class="edge">
<title>Node1&#45;&gt;Node26</title>
<path fill="none" stroke="midnightblue" d="M2593.31,-342.93C2323.87,-338.73 1382.33,-321.91 1084,-288 1075.19,-287 1065.87,-285.53 1056.9,-283.91"/>
<polygon fill="midnightblue" stroke="midnightblue" points="1057.45,-280.45 1046.98,-282.03 1056.15,-287.33 1057.45,-280.45"/>
</g>
<!-- Node27 -->
<g id="node27" class="node">
<title>Node27</title>
<g id="a_node27"><a xlink:title=" ">
<polygon fill="white" stroke="#bfbfbf" points="1093.5,-263 1093.5,-282 1226.5,-282 1226.5,-263 1093.5,-263"/>
<text text-anchor="middle" x="1160" y="-270" font-family="Helvetica,sans-Serif" font-size="10.00">std_msgs/msg/byte.hpp</text>
</a>
</g>
</g>
<!-- Node1&#45;&gt;Node27 -->
<g id="edge31" class="edge">
<title>Node1&#45;&gt;Node27</title>
<path fill="none" stroke="midnightblue" d="M2593.46,-342.59C2341.22,-337.48 1503.21,-318.55 1236,-288 1227.18,-286.99 1217.84,-285.54 1208.85,-283.93"/>
<polygon fill="midnightblue" stroke="midnightblue" points="1209.35,-280.47 1198.88,-282.08 1208.07,-287.35 1209.35,-280.47"/>
</g>
<!-- Node28 -->
<g id="node28" class="node">
<title>Node28</title>
<g id="a_node28"><a xlink:title=" ">
<polygon fill="white" stroke="#bfbfbf" points="1244.5,-257.5 1244.5,-287.5 1387.5,-287.5 1387.5,-257.5 1244.5,-257.5"/>
<text text-anchor="start" x="1252.5" y="-275.5" font-family="Helvetica,sans-Serif" font-size="10.00">std_msgs/msg/byte_multi</text>
<text text-anchor="middle" x="1316" y="-264.5" font-family="Helvetica,sans-Serif" font-size="10.00">_array.hpp</text>
</a>
</g>
</g>
<!-- Node1&#45;&gt;Node28 -->
<g id="edge32" class="edge">
<title>Node1&#45;&gt;Node28</title>
<path fill="none" stroke="midnightblue" d="M2593.49,-344.17C2400.48,-343.89 1858.17,-338.41 1398.09,-288.01"/>
<polygon fill="midnightblue" stroke="midnightblue" points="1398.24,-284.5 1387.92,-286.89 1397.47,-291.46 1398.24,-284.5"/>
</g>
<!-- Node29 -->
<g id="node29" class="node">
<title>Node29</title>
<g id="a_node29"><a xlink:title=" ">
<polygon fill="white" stroke="#bfbfbf" points="1405.5,-263 1405.5,-282 1536.5,-282 1536.5,-263 1405.5,-263"/>
<text text-anchor="middle" x="1471" y="-270" font-family="Helvetica,sans-Serif" font-size="10.00">std_msgs/msg/char.hpp</text>
</a>
</g>
</g>
<!-- Node1&#45;&gt;Node29 -->
<g id="edge33" class="edge">
<title>Node1&#45;&gt;Node29</title>
<path fill="none" stroke="midnightblue" d="M2593.3,-343.91C2414.47,-342.91 1939.08,-335.58 1546,-288 1537.48,-286.97 1528.48,-285.53 1519.78,-283.96"/>
<polygon fill="midnightblue" stroke="midnightblue" points="1520.24,-280.49 1509.76,-282.07 1518.94,-287.37 1520.24,-280.49"/>
</g>
<!-- Node30 -->
<g id="node30" class="node">
<title>Node30</title>
<g id="a_node30"><a xlink:title=" ">
<polygon fill="white" stroke="#bfbfbf" points="1554.5,-263 1554.5,-282 1699.5,-282 1699.5,-263 1554.5,-263"/>
<text text-anchor="middle" x="1627" y="-270" font-family="Helvetica,sans-Serif" font-size="10.00">std_msgs/msg/float32.hpp</text>
</a>
</g>
</g>
<!-- Node1&#45;&gt;Node30 -->
<g id="edge34" class="edge">
<title>Node1&#45;&gt;Node30</title>
<path fill="none" stroke="midnightblue" d="M2593.42,-342.64C2433.26,-339 2037.74,-326.55 1709,-288 1699.52,-286.89 1689.47,-285.38 1679.77,-283.77"/>
<polygon fill="midnightblue" stroke="midnightblue" points="1680.29,-280.3 1669.84,-282.05 1679.1,-287.2 1680.29,-280.3"/>
</g>
<!-- Node31 -->
<g id="node31" class="node">
<title>Node31</title>
<g id="a_node31"><a xlink:title=" ">
<polygon fill="white" stroke="#bfbfbf" points="1718,-257.5 1718,-287.5 1842,-287.5 1842,-257.5 1718,-257.5"/>
<text text-anchor="start" x="1726" y="-275.5" font-family="Helvetica,sans-Serif" font-size="10.00">std_msgs/msg/float32</text>
<text text-anchor="middle" x="1780" y="-264.5" font-family="Helvetica,sans-Serif" font-size="10.00">_multi_array.hpp</text>
</a>
</g>
</g>
<!-- Node1&#45;&gt;Node31 -->
<g id="edge35" class="edge">
<title>Node1&#45;&gt;Node31</title>
<path fill="none" stroke="midnightblue" d="M2593.26,-342.17C2452.22,-337.92 2131.63,-324.9 1852.28,-287.9"/>
<polygon fill="midnightblue" stroke="midnightblue" points="1852.73,-284.43 1842.36,-286.57 1851.81,-291.37 1852.73,-284.43"/>
</g>
<!-- Node32 -->
<g id="node32" class="node">
<title>Node32</title>
<g id="a_node32"><a xlink:title=" ">
<polygon fill="white" stroke="#bfbfbf" points="1860.5,-263 1860.5,-282 2005.5,-282 2005.5,-263 1860.5,-263"/>
<text text-anchor="middle" x="1933" y="-270" font-family="Helvetica,sans-Serif" font-size="10.00">std_msgs/msg/float64.hpp</text>
</a>
</g>
</g>
<!-- Node1&#45;&gt;Node32 -->
<g id="edge36" class="edge">
<title>Node1&#45;&gt;Node32</title>
<path fill="none" stroke="midnightblue" d="M2593.04,-339.85C2472.4,-332.52 2223.92,-315.4 2015,-288 2005.95,-286.81 1996.37,-285.33 1987.08,-283.77"/>
<polygon fill="midnightblue" stroke="midnightblue" points="1987.6,-280.3 1977.15,-282.05 1986.41,-287.2 1987.6,-280.3"/>
</g>
<!-- Node33 -->
<g id="node33" class="node">
<title>Node33</title>
<g id="a_node33"><a xlink:title=" ">
<polygon fill="white" stroke="#bfbfbf" points="2024,-257.5 2024,-287.5 2148,-287.5 2148,-257.5 2024,-257.5"/>
<text text-anchor="start" x="2032" y="-275.5" font-family="Helvetica,sans-Serif" font-size="10.00">std_msgs/msg/float64</text>
<text text-anchor="middle" x="2086" y="-264.5" font-family="Helvetica,sans-Serif" font-size="10.00">_multi_array.hpp</text>
</a>
</g>
</g>
<!-- Node1&#45;&gt;Node33 -->
<g id="edge37" class="edge">
<title>Node1&#45;&gt;Node33</title>
<path fill="none" stroke="midnightblue" d="M2593.23,-338.11C2496.22,-329.79 2319.03,-312.94 2158.35,-288.13"/>
<polygon fill="midnightblue" stroke="midnightblue" points="2158.7,-284.64 2148.28,-286.56 2157.62,-291.55 2158.7,-284.64"/>
</g>
<!-- Node34 -->
<g id="node34" class="node">
<title>Node34</title>
<g id="a_node34"><a xlink:title=" ">
<polygon fill="white" stroke="#bfbfbf" points="2166,-263 2166,-282 2302,-282 2302,-263 2166,-263"/>
<text text-anchor="middle" x="2234" y="-270" font-family="Helvetica,sans-Serif" font-size="10.00">std_msgs/msg/int16.hpp</text>
</a>
</g>
</g>
<!-- Node1&#45;&gt;Node34 -->
<g id="edge38" class="edge">
<title>Node1&#45;&gt;Node34</title>
<path fill="none" stroke="midnightblue" d="M2593.36,-333.09C2521.74,-322.2 2409.2,-304.72 2312,-288 2304.54,-286.72 2296.7,-285.32 2288.97,-283.91"/>
<polygon fill="midnightblue" stroke="midnightblue" points="2289.39,-280.43 2278.92,-282.06 2288.12,-287.31 2289.39,-280.43"/>
</g>
<!-- Node35 -->
<g id="node35" class="node">
<title>Node35</title>
<g id="a_node35"><a xlink:title=" ">
<polygon fill="white" stroke="#bfbfbf" points="2320.5,-257.5 2320.5,-287.5 2435.5,-287.5 2435.5,-257.5 2320.5,-257.5"/>
<text text-anchor="start" x="2328.5" y="-275.5" font-family="Helvetica,sans-Serif" font-size="10.00">std_msgs/msg/int16</text>
<text text-anchor="middle" x="2378" y="-264.5" font-family="Helvetica,sans-Serif" font-size="10.00">_multi_array.hpp</text>
</a>
</g>
</g>
<!-- Node1&#45;&gt;Node35 -->
<g id="edge39" class="edge">
<title>Node1&#45;&gt;Node35</title>
<path fill="none" stroke="midnightblue" d="M2593.33,-326.21C2547.78,-315.06 2489.5,-300.79 2445.06,-289.91"/>
<polygon fill="midnightblue" stroke="midnightblue" points="2445.77,-286.49 2435.22,-287.51 2444.1,-293.28 2445.77,-286.49"/>
</g>
<!-- Node36 -->
<g id="node36" class="node">
<title>Node36</title>
<g id="a_node36"><a xlink:title=" ">
<polygon fill="white" stroke="#bfbfbf" points="2454,-263 2454,-282 2590,-282 2590,-263 2454,-263"/>
<text text-anchor="middle" x="2522" y="-270" font-family="Helvetica,sans-Serif" font-size="10.00">std_msgs/msg/int32.hpp</text>
</a>
</g>
</g>
<!-- Node1&#45;&gt;Node36 -->
<g id="edge40" class="edge">
<title>Node1&#45;&gt;Node36</title>
<path fill="none" stroke="midnightblue" d="M2625.89,-324.36C2601.35,-312.35 2570.62,-297.3 2548.97,-286.7"/>
<polygon fill="midnightblue" stroke="midnightblue" points="2550.24,-283.43 2539.72,-282.17 2547.16,-289.71 2550.24,-283.43"/>
</g>
<!-- Node37 -->
<g id="node37" class="node">
<title>Node37</title>
<g id="a_node37"><a xlink:title=" ">
<polygon fill="white" stroke="#bfbfbf" points="2608.5,-257.5 2608.5,-287.5 2723.5,-287.5 2723.5,-257.5 2608.5,-257.5"/>
<text text-anchor="start" x="2616.5" y="-275.5" font-family="Helvetica,sans-Serif" font-size="10.00">std_msgs/msg/int32</text>
<text text-anchor="middle" x="2666" y="-264.5" font-family="Helvetica,sans-Serif" font-size="10.00">_multi_array.hpp</text>
</a>
</g>
</g>
<!-- Node1&#45;&gt;Node37 -->
<g id="edge41" class="edge">
<title>Node1&#45;&gt;Node37</title>
<path fill="none" stroke="midnightblue" d="M2666,-324.36C2666,-316.23 2666,-306.7 2666,-298.11"/>
<polygon fill="midnightblue" stroke="midnightblue" points="2669.5,-297.89 2666,-287.89 2662.5,-297.89 2669.5,-297.89"/>
</g>
<!-- Node38 -->
<g id="node38" class="node">
<title>Node38</title>
<g id="a_node38"><a xlink:title=" ">
<polygon fill="white" stroke="#bfbfbf" points="2742,-263 2742,-282 2878,-282 2878,-263 2742,-263"/>
<text text-anchor="middle" x="2810" y="-270" font-family="Helvetica,sans-Serif" font-size="10.00">std_msgs/msg/int64.hpp</text>
</a>
</g>
</g>
<!-- Node1&#45;&gt;Node38 -->
<g id="edge42" class="edge">
<title>Node1&#45;&gt;Node38</title>
<path fill="none" stroke="midnightblue" d="M2706.11,-324.36C2730.65,-312.35 2761.38,-297.3 2783.03,-286.7"/>
<polygon fill="midnightblue" stroke="midnightblue" points="2784.84,-289.71 2792.28,-282.17 2781.76,-283.43 2784.84,-289.71"/>
</g>
<!-- Node39 -->
<g id="node39" class="node">
<title>Node39</title>
<g id="a_node39"><a xlink:title=" ">
<polygon fill="white" stroke="#bfbfbf" points="2896.5,-257.5 2896.5,-287.5 3011.5,-287.5 3011.5,-257.5 2896.5,-257.5"/>
<text text-anchor="start" x="2904.5" y="-275.5" font-family="Helvetica,sans-Serif" font-size="10.00">std_msgs/msg/int64</text>
<text text-anchor="middle" x="2954" y="-264.5" font-family="Helvetica,sans-Serif" font-size="10.00">_multi_array.hpp</text>
</a>
</g>
</g>
<!-- Node1&#45;&gt;Node39 -->
<g id="edge43" class="edge">
<title>Node1&#45;&gt;Node39</title>
<path fill="none" stroke="midnightblue" d="M2738.67,-326.21C2784.22,-315.06 2842.5,-300.79 2886.94,-289.91"/>
<polygon fill="midnightblue" stroke="midnightblue" points="2887.9,-293.28 2896.78,-287.51 2886.23,-286.49 2887.9,-293.28"/>
</g>
<!-- Node40 -->
<g id="node40" class="node">
<title>Node40</title>
<g id="a_node40"><a xlink:title=" ">
<polygon fill="white" stroke="#bfbfbf" points="3030,-263 3030,-282 3160,-282 3160,-263 3030,-263"/>
<text text-anchor="middle" x="3095" y="-270" font-family="Helvetica,sans-Serif" font-size="10.00">std_msgs/msg/int8.hpp</text>
</a>
</g>
</g>
<!-- Node1&#45;&gt;Node40 -->
<g id="edge44" class="edge">
<title>Node1&#45;&gt;Node40</title>
<path fill="none" stroke="midnightblue" d="M2738.54,-333.36C2810.38,-322.64 2923.46,-305.24 3021,-288 3028.09,-286.75 3035.55,-285.36 3042.89,-283.96"/>
<polygon fill="midnightblue" stroke="midnightblue" points="3043.63,-287.38 3052.79,-282.05 3042.3,-280.51 3043.63,-287.38"/>
</g>
<!-- Node41 -->
<g id="node41" class="node">
<title>Node41</title>
<g id="a_node41"><a xlink:title=" ">
<polygon fill="white" stroke="#bfbfbf" points="3178,-257.5 3178,-287.5 3318,-287.5 3318,-257.5 3178,-257.5"/>
<text text-anchor="start" x="3186" y="-275.5" font-family="Helvetica,sans-Serif" font-size="10.00">std_msgs/msg/int8_multi</text>
<text text-anchor="middle" x="3248" y="-264.5" font-family="Helvetica,sans-Serif" font-size="10.00">_array.hpp</text>
</a>
</g>
</g>
<!-- Node1&#45;&gt;Node41 -->
<g id="edge45" class="edge">
<title>Node1&#45;&gt;Node41</title>
<path fill="none" stroke="midnightblue" d="M2738.68,-337.53C2834.65,-328.63 3009.1,-311.2 3167.88,-288.1"/>
<polygon fill="midnightblue" stroke="midnightblue" points="3168.44,-291.56 3177.83,-286.64 3167.43,-284.63 3168.44,-291.56"/>
</g>
<!-- Node42 -->
<g id="node42" class="node">
<title>Node42</title>
<g id="a_node42"><a xlink:title=" ">
<polygon fill="white" stroke="#bfbfbf" points="3336.5,-263 3336.5,-282 3475.5,-282 3475.5,-263 3336.5,-263"/>
<text text-anchor="middle" x="3406" y="-270" font-family="Helvetica,sans-Serif" font-size="10.00">std_msgs/msg/string.hpp</text>
</a>
</g>
</g>
<!-- Node1&#45;&gt;Node42 -->
<g id="edge46" class="edge">
<title>Node1&#45;&gt;Node42</title>
<path fill="none" stroke="midnightblue" d="M2738.63,-340.16C2860.59,-333.19 3114.11,-316.49 3327,-288 3335.74,-286.83 3344.98,-285.36 3353.94,-283.8"/>
<polygon fill="midnightblue" stroke="midnightblue" points="3354.67,-287.22 3363.89,-282.01 3353.43,-280.33 3354.67,-287.22"/>
</g>
<!-- Node43 -->
<g id="node43" class="node">
<title>Node43</title>
<g id="a_node43"><a xlink:title=" ">
<polygon fill="white" stroke="#bfbfbf" points="3493.5,-263 3493.5,-282 3640.5,-282 3640.5,-263 3493.5,-263"/>
<text text-anchor="middle" x="3567" y="-270" font-family="Helvetica,sans-Serif" font-size="10.00">std_msgs/msg/u_int16.hpp</text>
</a>
</g>
</g>
<!-- Node1&#45;&gt;Node43 -->
<g id="edge47" class="edge">
<title>Node1&#45;&gt;Node43</title>
<path fill="none" stroke="midnightblue" d="M2738.55,-341.64C2881.73,-336.41 3210.56,-321.55 3485,-288 3494.27,-286.87 3504.09,-285.38 3513.59,-283.79"/>
<polygon fill="midnightblue" stroke="midnightblue" points="3514.46,-287.19 3523.72,-282.04 3513.27,-280.3 3514.46,-287.19"/>
</g>
<!-- Node44 -->
<g id="node44" class="node">
<title>Node44</title>
<g id="a_node44"><a xlink:title=" ">
<polygon fill="white" stroke="#bfbfbf" points="3659,-257.5 3659,-287.5 3785,-287.5 3785,-257.5 3659,-257.5"/>
<text text-anchor="start" x="3667" y="-275.5" font-family="Helvetica,sans-Serif" font-size="10.00">std_msgs/msg/u_int16</text>
<text text-anchor="middle" x="3722" y="-264.5" font-family="Helvetica,sans-Serif" font-size="10.00">_multi_array.hpp</text>
</a>
</g>
</g>
<!-- Node1&#45;&gt;Node44 -->
<g id="edge48" class="edge">
<title>Node1&#45;&gt;Node44</title>
<path fill="none" stroke="midnightblue" d="M2738.54,-343.39C2900.38,-341.26 3303.23,-331.74 3648.91,-288.01"/>
<polygon fill="midnightblue" stroke="midnightblue" points="3649.39,-291.48 3658.87,-286.74 3648.51,-284.54 3649.39,-291.48"/>
</g>
<!-- Node45 -->
<g id="node45" class="node">
<title>Node45</title>
<g id="a_node45"><a xlink:title=" ">
<polygon fill="white" stroke="#bfbfbf" points="3803.5,-263 3803.5,-282 3950.5,-282 3950.5,-263 3803.5,-263"/>
<text text-anchor="middle" x="3877" y="-270" font-family="Helvetica,sans-Serif" font-size="10.00">std_msgs/msg/u_int32.hpp</text>
</a>
</g>
</g>
<!-- Node1&#45;&gt;Node45 -->
<g id="edge49" class="edge">
<title>Node1&#45;&gt;Node45</title>
<path fill="none" stroke="midnightblue" d="M2738.83,-343.49C2918.57,-341.56 3397.46,-332.31 3794,-288 3803.71,-286.91 3814,-285.41 3823.92,-283.78"/>
<polygon fill="midnightblue" stroke="midnightblue" points="3824.8,-287.18 3834.07,-282.04 3823.62,-280.28 3824.8,-287.18"/>
</g>
<!-- Node46 -->
<g id="node46" class="node">
<title>Node46</title>
<g id="a_node46"><a xlink:title=" ">
<polygon fill="white" stroke="#bfbfbf" points="3969,-257.5 3969,-287.5 4095,-287.5 4095,-257.5 3969,-257.5"/>
<text text-anchor="start" x="3977" y="-275.5" font-family="Helvetica,sans-Serif" font-size="10.00">std_msgs/msg/u_int32</text>
<text text-anchor="middle" x="4032" y="-264.5" font-family="Helvetica,sans-Serif" font-size="10.00">_multi_array.hpp</text>
</a>
</g>
</g>
<!-- Node1&#45;&gt;Node46 -->
<g id="edge50" class="edge">
<title>Node1&#45;&gt;Node46</title>
<path fill="none" stroke="midnightblue" d="M2738.53,-342.35C2971.67,-336.8 3701.16,-317.61 3958.8,-287.98"/>
<polygon fill="midnightblue" stroke="midnightblue" points="3959.36,-291.44 3968.87,-286.79 3958.53,-284.49 3959.36,-291.44"/>
</g>
<!-- Node47 -->
<g id="node47" class="node">
<title>Node47</title>
<g id="a_node47"><a xlink:title=" ">
<polygon fill="white" stroke="#bfbfbf" points="4113.5,-263 4113.5,-282 4260.5,-282 4260.5,-263 4113.5,-263"/>
<text text-anchor="middle" x="4187" y="-270" font-family="Helvetica,sans-Serif" font-size="10.00">std_msgs/msg/u_int64.hpp</text>
</a>
</g>
</g>
<!-- Node1&#45;&gt;Node47 -->
<g id="edge51" class="edge">
<title>Node1&#45;&gt;Node47</title>
<path fill="none" stroke="midnightblue" d="M2738.82,-344.6C2950.36,-345.62 3582.89,-343.41 4104,-288 4113.93,-286.94 4124.46,-285.42 4134.57,-283.75"/>
<polygon fill="midnightblue" stroke="midnightblue" points="4135.24,-287.19 4144.5,-282.05 4134.06,-280.29 4135.24,-287.19"/>
</g>
<!-- Node48 -->
<g id="node48" class="node">
<title>Node48</title>
<g id="a_node48"><a xlink:title=" ">
<polygon fill="white" stroke="#bfbfbf" points="4279,-257.5 4279,-287.5 4405,-287.5 4405,-257.5 4279,-257.5"/>
<text text-anchor="start" x="4287" y="-275.5" font-family="Helvetica,sans-Serif" font-size="10.00">std_msgs/msg/u_int64</text>
<text text-anchor="middle" x="4342" y="-264.5" font-family="Helvetica,sans-Serif" font-size="10.00">_multi_array.hpp</text>
</a>
</g>
</g>
<!-- Node1&#45;&gt;Node48 -->
<g id="edge52" class="edge">
<title>Node1&#45;&gt;Node48</title>
<path fill="none" stroke="midnightblue" d="M2738.77,-343.04C3007.82,-339.27 3946.84,-323.86 4268.62,-288"/>
<polygon fill="midnightblue" stroke="midnightblue" points="4269.34,-291.44 4278.88,-286.82 4268.54,-284.48 4269.34,-291.44"/>
</g>
<!-- Node49 -->
<g id="node49" class="node">
<title>Node49</title>
<g id="a_node49"><a xlink:title=" ">
<polygon fill="white" stroke="#bfbfbf" points="4423.5,-263 4423.5,-282 4564.5,-282 4564.5,-263 4423.5,-263"/>
<text text-anchor="middle" x="4494" y="-270" font-family="Helvetica,sans-Serif" font-size="10.00">std_msgs/msg/u_int8.hpp</text>
</a>
</g>
</g>
<!-- Node1&#45;&gt;Node49 -->
<g id="edge53" class="edge">
<title>Node1&#45;&gt;Node49</title>
<path fill="none" stroke="midnightblue" d="M2738.8,-343.1C3026.06,-339.32 4081.31,-323.29 4414,-288 4423.58,-286.98 4433.75,-285.48 4443.5,-283.82"/>
<polygon fill="midnightblue" stroke="midnightblue" points="4444.24,-287.24 4453.47,-282.04 4443.01,-280.35 4444.24,-287.24"/>
</g>
<!-- Node50 -->
<g id="node50" class="node">
<title>Node50</title>
<g id="a_node50"><a xlink:title=" ">
<polygon fill="white" stroke="#bfbfbf" points="4583,-257.5 4583,-287.5 4703,-287.5 4703,-257.5 4583,-257.5"/>
<text text-anchor="start" x="4591" y="-275.5" font-family="Helvetica,sans-Serif" font-size="10.00">std_msgs/msg/u_int8</text>
<text text-anchor="middle" x="4643" y="-264.5" font-family="Helvetica,sans-Serif" font-size="10.00">_multi_array.hpp</text>
</a>
</g>
</g>
<!-- Node1&#45;&gt;Node50 -->
<g id="edge54" class="edge">
<title>Node1&#45;&gt;Node50</title>
<path fill="none" stroke="midnightblue" d="M2738.7,-343.6C3039.46,-341.66 4188.28,-331.57 4572.85,-287.96"/>
<polygon fill="midnightblue" stroke="midnightblue" points="4573.36,-291.42 4582.89,-286.79 4572.56,-284.47 4573.36,-291.42"/>
</g>
<!-- Node3 -->
<g id="node3" class="node">
<title>Node3</title>
<g id="a_node3"><a xlink:href="can__callback__handler_8hpp.html" target="_top" xlink:title="CANデータフレームをコールバックで処理するためのライブラリ">
<polygon fill="white" stroke="black" points="971.5,-190.5 971.5,-220.5 1116.5,-220.5 1116.5,-190.5 971.5,-190.5"/>
<text text-anchor="start" x="979.5" y="-208.5" font-family="Helvetica,sans-Serif" font-size="10.00">alps_cmn/communication</text>
<text text-anchor="middle" x="1044" y="-197.5" font-family="Helvetica,sans-Serif" font-size="10.00">/can_callback_handler.hpp</text>
</a>
</g>
</g>
<!-- Node2&#45;&gt;Node3 -->
<g id="edge2" class="edge">
<title>Node2&#45;&gt;Node3</title>
<path fill="none" stroke="midnightblue" d="M789.12,-257.48C840.5,-247.2 910.34,-233.23 963.92,-222.52"/>
<polygon fill="midnightblue" stroke="midnightblue" points="964.61,-225.95 973.73,-220.55 963.23,-219.08 964.61,-225.95"/>
</g>
<!-- Node10 -->
<g id="node10" class="node">
<title>Node10</title>
<g id="a_node10"><a xlink:href="cobs_8hpp.html" target="_top" xlink:title="COBS変換ライブラリ">
<polygon fill="white" stroke="black" points="122,-190.5 122,-220.5 264,-220.5 264,-190.5 122,-190.5"/>
<text text-anchor="start" x="130" y="-208.5" font-family="Helvetica,sans-Serif" font-size="10.00">alps_cmn/communication</text>
<text text-anchor="middle" x="193" y="-197.5" font-family="Helvetica,sans-Serif" font-size="10.00">/cobs.hpp</text>
</a>
</g>
</g>
<!-- Node2&#45;&gt;Node10 -->
<g id="edge9" class="edge">
<title>Node2&#45;&gt;Node10</title>
<path fill="none" stroke="midnightblue" d="M630.37,-260.55C530.83,-248.25 370.64,-228.45 274.24,-216.54"/>
<polygon fill="midnightblue" stroke="midnightblue" points="274.6,-213.06 264.25,-215.3 273.74,-220 274.6,-213.06"/>
</g>
<!-- Node16 -->
<g id="node16" class="node">
<title>Node16</title>
<g id="a_node16"><a xlink:href="serializer_8hpp.html" target="_top" xlink:title="データとバイト列の変換ライブラリ">
<polygon fill="white" stroke="black" points="493,-190.5 493,-220.5 635,-220.5 635,-190.5 493,-190.5"/>
<text text-anchor="start" x="501" y="-208.5" font-family="Helvetica,sans-Serif" font-size="10.00">alps_cmn/communication</text>
<text text-anchor="middle" x="564" y="-197.5" font-family="Helvetica,sans-Serif" font-size="10.00">/serializer.hpp</text>
</a>
</g>
</g>
<!-- Node2&#45;&gt;Node16 -->
<g id="edge15" class="edge">
<title>Node2&#45;&gt;Node16</title>
<path fill="none" stroke="midnightblue" d="M685.37,-257.4C662.42,-247.77 631.81,-234.94 607.08,-224.56"/>
<polygon fill="midnightblue" stroke="midnightblue" points="608.14,-221.22 597.57,-220.58 605.44,-227.67 608.14,-221.22"/>
</g>
<!-- Node23 -->
<g id="node23" class="node">
<title>Node23</title>
<g id="a_node23"><a xlink:href="logging__macros_8hpp.html" target="_top" xlink:title=" ">
<polygon fill="white" stroke="black" points="756,-190.5 756,-220.5 876,-220.5 876,-190.5 756,-190.5"/>
<text text-anchor="start" x="764" y="-208.5" font-family="Helvetica,sans-Serif" font-size="10.00">alps_cmn/log/logging</text>
<text text-anchor="middle" x="816" y="-197.5" font-family="Helvetica,sans-Serif" font-size="10.00">_macros.hpp</text>
</a>
</g>
</g>
<!-- Node2&#45;&gt;Node23 -->
<g id="edge25" class="edge">
<title>Node2&#45;&gt;Node23</title>
<path fill="none" stroke="midnightblue" d="M740.05,-257.4C753.65,-248.28 771.54,-236.29 786.55,-226.24"/>
<polygon fill="midnightblue" stroke="midnightblue" points="788.63,-229.05 794.99,-220.58 784.74,-223.24 788.63,-229.05"/>
</g>
<!-- Node4 -->
<g id="node4" class="node">
<title>Node4</title>
<g id="a_node4"><a xlink:href="i__can__io_8hpp.html" target="_top" xlink:title=" ">
<polygon fill="white" stroke="black" points="1023,-123.5 1023,-153.5 1165,-153.5 1165,-123.5 1023,-123.5"/>
<text text-anchor="start" x="1031" y="-141.5" font-family="Helvetica,sans-Serif" font-size="10.00">alps_cmn/communication</text>
<text text-anchor="middle" x="1094" y="-130.5" font-family="Helvetica,sans-Serif" font-size="10.00">/i_can_io.hpp</text>
</a>
</g>
</g>
<!-- Node3&#45;&gt;Node4 -->
<g id="edge3" class="edge">
<title>Node3&#45;&gt;Node4</title>
<path fill="none" stroke="midnightblue" d="M1054.85,-190.4C1061.34,-181.96 1069.72,-171.07 1077.06,-161.52"/>
<polygon fill="midnightblue" stroke="midnightblue" points="1079.85,-163.64 1083.17,-153.58 1074.3,-159.37 1079.85,-163.64"/>
</g>
<!-- Node8 -->
<g id="node8" class="node">
<title>Node8</title>
<g id="a_node8"><a xlink:title=" ">
<polygon fill="white" stroke="#bfbfbf" points="873,-62 873,-81 957,-81 957,-62 873,-62"/>
<text text-anchor="middle" x="915" y="-69" font-family="Helvetica,sans-Serif" font-size="10.00">etl/delegate.h</text>
</a>
</g>
</g>
<!-- Node3&#45;&gt;Node8 -->
<g id="edge7" class="edge">
<title>Node3&#45;&gt;Node8</title>
<path fill="none" stroke="midnightblue" d="M1033.2,-190.32C1020.15,-173.55 997.19,-145.12 975,-123 962.28,-110.31 946.73,-97.29 934.65,-87.64"/>
<polygon fill="midnightblue" stroke="midnightblue" points="936.57,-84.71 926.55,-81.27 932.24,-90.21 936.57,-84.71"/>
</g>
<!-- Node9 -->
<g id="node9" class="node">
<title>Node9</title>
<g id="a_node9"><a xlink:title=" ">
<polygon fill="white" stroke="#bfbfbf" points="1183,-129 1183,-148 1301,-148 1301,-129 1183,-129"/>
<text text-anchor="middle" x="1242" y="-136" font-family="Helvetica,sans-Serif" font-size="10.00">etl/unordered_map.h</text>
</a>
</g>
</g>
<!-- Node3&#45;&gt;Node9 -->
<g id="edge8" class="edge">
<title>Node3&#45;&gt;Node9</title>
<path fill="none" stroke="midnightblue" d="M1086.96,-190.4C1122.63,-178.69 1172.76,-162.23 1206.26,-151.23"/>
<polygon fill="midnightblue" stroke="midnightblue" points="1207.68,-154.45 1216.09,-148.01 1205.49,-147.8 1207.68,-154.45"/>
</g>
<!-- Node5 -->
<g id="node5" class="node">
<title>Node5</title>
<g id="a_node5"><a xlink:href="can__data__frame_8hpp.html" target="_top" xlink:title="CANフレームを表す構造体">
<polygon fill="white" stroke="black" points="1007,-56.5 1007,-86.5 1149,-86.5 1149,-56.5 1007,-56.5"/>
<text text-anchor="start" x="1015" y="-74.5" font-family="Helvetica,sans-Serif" font-size="10.00">alps_cmn/communication</text>
<text text-anchor="middle" x="1078" y="-63.5" font-family="Helvetica,sans-Serif" font-size="10.00">/can_data_frame.hpp</text>
</a>
</g>
</g>
<!-- Node4&#45;&gt;Node5 -->
<g id="edge4" class="edge">
<title>Node4&#45;&gt;Node5</title>
<path fill="none" stroke="midnightblue" d="M1090.53,-123.4C1088.6,-115.56 1086.15,-105.6 1083.92,-96.57"/>
<polygon fill="midnightblue" stroke="midnightblue" points="1087.25,-95.45 1081.46,-86.58 1080.46,-97.12 1087.25,-95.45"/>
</g>
<!-- Node6 -->
<g id="node6" class="node">
<title>Node6</title>
<g id="a_node6"><a xlink:title=" ">
<polygon fill="white" stroke="#bfbfbf" points="1051.5,-0.5 1051.5,-19.5 1104.5,-19.5 1104.5,-0.5 1051.5,-0.5"/>
<text text-anchor="middle" x="1078" y="-7.5" font-family="Helvetica,sans-Serif" font-size="10.00">stdint.h</text>
</a>
</g>
</g>
<!-- Node5&#45;&gt;Node6 -->
<g id="edge5" class="edge">
<title>Node5&#45;&gt;Node6</title>
<path fill="none" stroke="midnightblue" d="M1078,-56.4C1078,-48.47 1078,-38.46 1078,-29.86"/>
<polygon fill="midnightblue" stroke="midnightblue" points="1081.5,-29.66 1078,-19.66 1074.5,-29.66 1081.5,-29.66"/>
</g>
<!-- Node7 -->
<g id="node7" class="node">
<title>Node7</title>
<g id="a_node7"><a xlink:title=" ">
<polygon fill="white" stroke="#bfbfbf" points="735.5,-0.5 735.5,-19.5 806.5,-19.5 806.5,-0.5 735.5,-0.5"/>
<text text-anchor="middle" x="771" y="-7.5" font-family="Helvetica,sans-Serif" font-size="10.00">etl/vector.h</text>
</a>
</g>
</g>
<!-- Node5&#45;&gt;Node7 -->
<g id="edge6" class="edge">
<title>Node5&#45;&gt;Node7</title>
<path fill="none" stroke="midnightblue" d="M1006.8,-56.7C948.13,-45.33 866.7,-29.55 816.5,-19.82"/>
<polygon fill="midnightblue" stroke="midnightblue" points="817.08,-16.36 806.59,-17.9 815.74,-23.24 817.08,-16.36"/>
</g>
<!-- Node11 -->
<g id="node11" class="node">
<title>Node11</title>
<g id="a_node11"><a xlink:title=" ">
<polygon fill="white" stroke="#bfbfbf" points="0,-129 0,-148 52,-148 52,-129 0,-129"/>
<text text-anchor="middle" x="26" y="-136" font-family="Helvetica,sans-Serif" font-size="10.00">cassert</text>
</a>
</g>
</g>
<!-- Node10&#45;&gt;Node11 -->
<g id="edge10" class="edge">
<title>Node10&#45;&gt;Node11</title>
<path fill="none" stroke="midnightblue" d="M155.34,-190.41C128.88,-180.42 92.68,-166.62 61,-154 59.36,-153.35 57.68,-152.67 55.99,-151.99"/>
<polygon fill="midnightblue" stroke="midnightblue" points="56.9,-148.58 46.32,-148.03 54.25,-155.06 56.9,-148.58"/>
</g>
<!-- Node12 -->
<g id="node12" class="node">
<title>Node12</title>
<g id="a_node12"><a xlink:title=" ">
<polygon fill="white" stroke="#bfbfbf" points="202,-129 202,-148 252,-148 252,-129 202,-129"/>
<text text-anchor="middle" x="227" y="-136" font-family="Helvetica,sans-Serif" font-size="10.00">cstdint</text>
</a>
</g>
</g>
<!-- Node10&#45;&gt;Node12 -->
<g id="edge11" class="edge">
<title>Node10&#45;&gt;Node12</title>
<path fill="none" stroke="midnightblue" d="M200.38,-190.4C205.47,-180.66 212.28,-167.65 217.73,-157.21"/>
<polygon fill="midnightblue" stroke="midnightblue" points="220.92,-158.68 222.45,-148.19 214.72,-155.43 220.92,-158.68"/>
</g>
<!-- Node13 -->
<g id="node13" class="node">
<title>Node13</title>
<g id="a_node13"><a xlink:title=" ">
<polygon fill="white" stroke="#bfbfbf" points="70,-129 70,-148 116,-148 116,-129 70,-129"/>
<text text-anchor="middle" x="93" y="-136" font-family="Helvetica,sans-Serif" font-size="10.00">cstdio</text>
</a>
</g>
</g>
<!-- Node10&#45;&gt;Node13 -->
<g id="edge12" class="edge">
<title>Node10&#45;&gt;Node13</title>
<path fill="none" stroke="midnightblue" d="M171.3,-190.4C154.53,-179.5 131.43,-164.48 114.67,-153.58"/>
<polygon fill="midnightblue" stroke="midnightblue" points="116.38,-150.52 106.09,-148.01 112.56,-156.39 116.38,-150.52"/>
</g>
<!-- Node14 -->
<g id="node14" class="node">
<title>Node14</title>
<g id="a_node14"><a xlink:title=" ">
<polygon fill="white" stroke="#bfbfbf" points="134.5,-129 134.5,-148 183.5,-148 183.5,-129 134.5,-129"/>
<text text-anchor="middle" x="159" y="-136" font-family="Helvetica,sans-Serif" font-size="10.00">cstdlib</text>
</a>
</g>
</g>
<!-- Node10&#45;&gt;Node14 -->
<g id="edge13" class="edge">
<title>Node10&#45;&gt;Node14</title>
<path fill="none" stroke="midnightblue" d="M185.62,-190.4C180.53,-180.66 173.72,-167.65 168.27,-157.21"/>
<polygon fill="midnightblue" stroke="midnightblue" points="171.28,-155.43 163.55,-148.19 165.08,-158.68 171.28,-155.43"/>
</g>
<!-- Node15 -->
<g id="node15" class="node">
<title>Node15</title>
<g id="a_node15"><a xlink:title=" ">
<polygon fill="white" stroke="#bfbfbf" points="270,-129 270,-148 380,-148 380,-129 270,-129"/>
<text text-anchor="middle" x="325" y="-136" font-family="Helvetica,sans-Serif" font-size="10.00">etl/circular_buffer.h</text>
</a>
</g>
</g>
<!-- Node10&#45;&gt;Node15 -->
<g id="edge14" class="edge">
<title>Node10&#45;&gt;Node15</title>
<path fill="none" stroke="midnightblue" d="M221.64,-190.4C244.5,-179.14 276.26,-163.5 298.52,-152.54"/>
<polygon fill="midnightblue" stroke="midnightblue" points="300.3,-155.56 307.72,-148.01 297.21,-149.28 300.3,-155.56"/>
</g>
<!-- Node16&#45;&gt;Node7 -->
<g id="edge24" class="edge">
<title>Node16&#45;&gt;Node7</title>
<path fill="none" stroke="midnightblue" d="M554.06,-190.42C543.44,-173.5 529.71,-144.67 542,-123 579.51,-56.86 669.81,-29.05 725.16,-17.91"/>
<polygon fill="midnightblue" stroke="midnightblue" points="725.9,-21.33 735.06,-16.02 724.58,-14.46 725.9,-21.33"/>
</g>
<!-- Node16&#45;&gt;Node12 -->
<g id="edge18" class="edge">
<title>Node16&#45;&gt;Node12</title>
<path fill="none" stroke="midnightblue" d="M492.83,-197.48C430.74,-190.22 338.68,-176.69 261,-154 258.85,-153.37 256.65,-152.64 254.46,-151.86"/>
<polygon fill="midnightblue" stroke="midnightblue" points="255.65,-148.56 245.06,-148.14 253.07,-155.07 255.65,-148.56"/>
</g>
<!-- Node16&#45;&gt;Node15 -->
<g id="edge22" class="edge">
<title>Node16&#45;&gt;Node15</title>
<path fill="none" stroke="midnightblue" d="M512.43,-190.48C468.66,-178.57 406.68,-161.72 366.17,-150.7"/>
<polygon fill="midnightblue" stroke="midnightblue" points="366.93,-147.28 356.36,-148.03 365.09,-154.03 366.93,-147.28"/>
</g>
<!-- Node17 -->
<g id="node17" class="node">
<title>Node17</title>
<g id="a_node17"><a xlink:title=" ">
<polygon fill="white" stroke="#bfbfbf" points="562,-129 562,-148 626,-148 626,-129 562,-129"/>
<text text-anchor="middle" x="594" y="-136" font-family="Helvetica,sans-Serif" font-size="10.00">algorithm</text>
</a>
</g>
</g>
<!-- Node16&#45;&gt;Node17 -->
<g id="edge16" class="edge">
<title>Node16&#45;&gt;Node17</title>
<path fill="none" stroke="midnightblue" d="M570.51,-190.4C574.96,-180.76 580.89,-167.91 585.68,-157.54"/>
<polygon fill="midnightblue" stroke="midnightblue" points="588.97,-158.74 589.99,-148.19 582.62,-155.81 588.97,-158.74"/>
</g>
<!-- Node18 -->
<g id="node18" class="node">
<title>Node18</title>
<g id="a_node18"><a xlink:title=" ">
<polygon fill="white" stroke="#bfbfbf" points="644,-129 644,-148 686,-148 686,-129 644,-129"/>
<text text-anchor="middle" x="665" y="-136" font-family="Helvetica,sans-Serif" font-size="10.00">array</text>
</a>
</g>
</g>
<!-- Node16&#45;&gt;Node18 -->
<g id="edge17" class="edge">
<title>Node16&#45;&gt;Node18</title>
<path fill="none" stroke="midnightblue" d="M585.92,-190.4C602.85,-179.5 626.19,-164.48 643.12,-153.58"/>
<polygon fill="midnightblue" stroke="midnightblue" points="645.27,-156.36 651.78,-148.01 641.48,-150.48 645.27,-156.36"/>
</g>
<!-- Node19 -->
<g id="node19" class="node">
<title>Node19</title>
<g id="a_node19"><a xlink:title=" ">
<polygon fill="white" stroke="#bfbfbf" points="704,-129 704,-148 754,-148 754,-129 704,-129"/>
<text text-anchor="middle" x="729" y="-136" font-family="Helvetica,sans-Serif" font-size="10.00">cstring</text>
</a>
</g>
</g>
<!-- Node16&#45;&gt;Node19 -->
<g id="edge19" class="edge">
<title>Node16&#45;&gt;Node19</title>
<path fill="none" stroke="midnightblue" d="M601.41,-190.48C627.68,-180.53 663.61,-166.74 695,-154 696.59,-153.35 698.23,-152.68 699.87,-152"/>
<polygon fill="midnightblue" stroke="midnightblue" points="701.41,-155.15 709.27,-148.05 698.7,-148.7 701.41,-155.15"/>
</g>
<!-- Node20 -->
<g id="node20" class="node">
<title>Node20</title>
<g id="a_node20"><a xlink:title=" ">
<polygon fill="white" stroke="#bfbfbf" points="772.5,-129 772.5,-148 813.5,-148 813.5,-129 772.5,-129"/>
<text text-anchor="middle" x="793" y="-136" font-family="Helvetica,sans-Serif" font-size="10.00">tuple</text>
</a>
</g>
</g>
<!-- Node16&#45;&gt;Node20 -->
<g id="edge20" class="edge">
<title>Node16&#45;&gt;Node20</title>
<path fill="none" stroke="midnightblue" d="M633.65,-190.45C672.32,-181.75 720.97,-169.31 763,-154 764.43,-153.48 765.88,-152.91 767.33,-152.32"/>
<polygon fill="midnightblue" stroke="midnightblue" points="769.06,-155.38 776.75,-148.09 766.2,-148.99 769.06,-155.38"/>
</g>
<!-- Node21 -->
<g id="node21" class="node">
<title>Node21</title>
<g id="a_node21"><a xlink:title=" ">
<polygon fill="white" stroke="#bfbfbf" points="398.5,-129 398.5,-148 467.5,-148 467.5,-129 398.5,-129"/>
<text text-anchor="middle" x="433" y="-136" font-family="Helvetica,sans-Serif" font-size="10.00">type_traits</text>
</a>
</g>
</g>
<!-- Node16&#45;&gt;Node21 -->
<g id="edge21" class="edge">
<title>Node16&#45;&gt;Node21</title>
<path fill="none" stroke="midnightblue" d="M535.57,-190.4C512.89,-179.14 481.37,-163.5 459.28,-152.54"/>
<polygon fill="midnightblue" stroke="midnightblue" points="460.66,-149.32 450.14,-148.01 457.55,-155.59 460.66,-149.32"/>
</g>
<!-- Node22 -->
<g id="node22" class="node">
<title>Node22</title>
<g id="a_node22"><a xlink:title=" ">
<polygon fill="white" stroke="#bfbfbf" points="663.5,-62 663.5,-81 732.5,-81 732.5,-62 663.5,-62"/>
<text text-anchor="middle" x="698" y="-69" font-family="Helvetica,sans-Serif" font-size="10.00">etl/string.h</text>
</a>
</g>
</g>
<!-- Node16&#45;&gt;Node22 -->
<g id="edge23" class="edge">
<title>Node16&#45;&gt;Node22</title>
<path fill="none" stroke="midnightblue" d="M556.63,-190.4C548.63,-172.93 538.77,-143.02 553,-123 575.53,-91.3 619.48,-79.33 653.11,-74.9"/>
<polygon fill="midnightblue" stroke="midnightblue" points="653.65,-78.36 663.19,-73.75 652.85,-71.4 653.65,-78.36"/>
</g>
<!-- Node24 -->
<g id="node24" class="node">
<title>Node24</title>
<g id="a_node24"><a xlink:href="logger_8hpp.html" target="_top" xlink:title=" ">
<polygon fill="white" stroke="black" points="831.5,-129 831.5,-148 966.5,-148 966.5,-129 831.5,-129"/>
<text text-anchor="middle" x="899" y="-136" font-family="Helvetica,sans-Serif" font-size="10.00">alps_cmn/log/logger.hpp</text>
</a>
</g>
</g>
<!-- Node23&#45;&gt;Node24 -->
<g id="edge26" class="edge">
<title>Node23&#45;&gt;Node24</title>
<path fill="none" stroke="midnightblue" d="M834.01,-190.4C847.59,-179.76 866.18,-165.2 880,-154.38"/>
<polygon fill="midnightblue" stroke="midnightblue" points="882.18,-157.12 887.9,-148.19 877.87,-151.6 882.18,-157.12"/>
</g>
<!-- Node24&#45;&gt;Node8 -->
<g id="edge27" class="edge">
<title>Node24&#45;&gt;Node8</title>
<path fill="none" stroke="midnightblue" d="M901.16,-128.73C903.53,-119.09 907.42,-103.3 910.47,-90.91"/>
<polygon fill="midnightblue" stroke="midnightblue" points="913.88,-91.67 912.88,-81.13 907.09,-90 913.88,-91.67"/>
</g>
<!-- Node24&#45;&gt;Node22 -->
<g id="edge28" class="edge">
<title>Node24&#45;&gt;Node22</title>
<path fill="none" stroke="midnightblue" d="M872.31,-128.87C836.77,-117.38 773.79,-97.01 734.05,-84.16"/>
<polygon fill="midnightblue" stroke="midnightblue" points="735.07,-80.81 724.48,-81.06 732.92,-87.47 735.07,-80.81"/>
</g>
</g>
</svg>
