<?xml version="1.0" encoding="UTF-8" standalone="no"?>
<!DOCTYPE svg PUBLIC "-//W3C//DTD SVG 1.1//EN"
 "http://www.w3.org/Graphics/SVG/1.1/DTD/svg11.dtd">
<!-- Generated by graphviz version 2.43.0 (0)
 -->
<!-- Title: alps_ros2_lib/include/alps_ros2/communication/can_topic_converter.hpp Pages: 1 -->
<svg width="201pt" height="139pt"
 viewBox="0.00 0.00 201.00 139.00" xmlns="http://www.w3.org/2000/svg" xmlns:xlink="http://www.w3.org/1999/xlink">
<g id="graph0" class="graph" transform="scale(1 1) rotate(0) translate(4 135)">
<title>alps_ros2_lib/include/alps_ros2/communication/can_topic_converter.hpp</title>
<polygon fill="white" stroke="transparent" points="-4,4 -4,-135 197,-135 197,4 -4,4"/>
<!-- Node1 -->
<g id="node1" class="node">
<title>Node1</title>
<g id="a_node1"><a xlink:title=" ">
<polygon fill="#bfbfbf" stroke="black" points="24,-89.5 24,-130.5 169,-130.5 169,-89.5 24,-89.5"/>
<text text-anchor="start" x="32" y="-118.5" font-family="Helvetica,sans-Serif" font-size="10.00">alps_ros2_lib/include</text>
<text text-anchor="start" x="32" y="-107.5" font-family="Helvetica,sans-Serif" font-size="10.00">/alps_ros2/communication</text>
<text text-anchor="middle" x="96.5" y="-96.5" font-family="Helvetica,sans-Serif" font-size="10.00">/can_topic_converter.hpp</text>
</a>
</g>
</g>
<!-- Node2 -->
<g id="node2" class="node">
<title>Node2</title>
<g id="a_node2"><a xlink:href="custom__type__can__topic__conversion__rule_8hpp.html" target="_top" xlink:title=" ">
<polygon fill="white" stroke="black" points="0,-0.5 0,-52.5 193,-52.5 193,-0.5 0,-0.5"/>
<text text-anchor="start" x="8" y="-40.5" font-family="Helvetica,sans-Serif" font-size="10.00">alps_ros2_lib/include</text>
<text text-anchor="start" x="8" y="-29.5" font-family="Helvetica,sans-Serif" font-size="10.00">/alps_ros2/communication</text>
<text text-anchor="start" x="8" y="-18.5" font-family="Helvetica,sans-Serif" font-size="10.00">/custom_type_can_topic_conversion</text>
<text text-anchor="middle" x="96.5" y="-7.5" font-family="Helvetica,sans-Serif" font-size="10.00">_rule.hpp</text>
</a>
</g>
</g>
<!-- Node1&#45;&gt;Node2 -->
<g id="edge1" class="edge">
<title>Node1&#45;&gt;Node2</title>
<path fill="none" stroke="midnightblue" d="M96.5,-79.12C96.5,-70.41 96.5,-60.99 96.5,-52.61"/>
<polygon fill="midnightblue" stroke="midnightblue" points="93,-79.27 96.5,-89.27 100,-79.27 93,-79.27"/>
</g>
</g>
</svg>
