<?xml version="1.0" encoding="UTF-8" standalone="no"?>
<!DOCTYPE svg PUBLIC "-//W3C//DTD SVG 1.1//EN"
 "http://www.w3.org/Graphics/SVG/1.1/DTD/svg11.dtd">
<!-- Generated by graphviz version 2.43.0 (0)
 -->
<!-- Title: alps_common_lib/include/alps_cmn/communication/can_data_frame.hpp Pages: 1 -->
<svg width="646pt" height="362pt"
 viewBox="0.00 0.00 645.50 362.00" xmlns="http://www.w3.org/2000/svg" xmlns:xlink="http://www.w3.org/1999/xlink">
<g id="graph0" class="graph" transform="scale(1 1) rotate(0) translate(4 358)">
<title>alps_common_lib/include/alps_cmn/communication/can_data_frame.hpp</title>
<polygon fill="white" stroke="transparent" points="-4,4 -4,-358 641.5,-358 641.5,4 -4,4"/>
<!-- Node1 -->
<g id="node1" class="node">
<title>Node1</title>
<g id="a_node1"><a xlink:title="CANフレームを表す構造体">
<polygon fill="#bfbfbf" stroke="black" points="96,-312.5 96,-353.5 241,-353.5 241,-312.5 96,-312.5"/>
<text text-anchor="start" x="104" y="-341.5" font-family="Helvetica,sans-Serif" font-size="10.00">alps_common_lib/include</text>
<text text-anchor="start" x="104" y="-330.5" font-family="Helvetica,sans-Serif" font-size="10.00">/alps_cmn/communication</text>
<text text-anchor="middle" x="168.5" y="-319.5" font-family="Helvetica,sans-Serif" font-size="10.00">/can_data_frame.hpp</text>
</a>
</g>
</g>
<!-- Node2 -->
<g id="node2" class="node">
<title>Node2</title>
<g id="a_node2"><a xlink:href="robomas__motor_8hpp.html" target="_top" xlink:title="ロボマスモータのライブラリ">
<polygon fill="white" stroke="black" points="0,-78.5 0,-119.5 155,-119.5 155,-78.5 0,-78.5"/>
<text text-anchor="start" x="8" y="-107.5" font-family="Helvetica,sans-Serif" font-size="10.00">alps_common_lib/include</text>
<text text-anchor="start" x="8" y="-96.5" font-family="Helvetica,sans-Serif" font-size="10.00">/alps_cmn/actuator/robomas</text>
<text text-anchor="middle" x="77.5" y="-85.5" font-family="Helvetica,sans-Serif" font-size="10.00">_motor.hpp</text>
</a>
</g>
</g>
<!-- Node1&#45;&gt;Node2 -->
<g id="edge1" class="edge">
<title>Node1&#45;&gt;Node2</title>
<path fill="none" stroke="midnightblue" d="M157.01,-302.72C138.19,-254.73 101.27,-160.61 85.24,-119.73"/>
<polygon fill="midnightblue" stroke="midnightblue" points="153.83,-304.19 160.74,-312.22 160.35,-301.63 153.83,-304.19"/>
</g>
<!-- Node4 -->
<g id="node4" class="node">
<title>Node4</title>
<g id="a_node4"><a xlink:href="i__can__io_8hpp.html" target="_top" xlink:title=" ">
<polygon fill="white" stroke="black" points="247,-234.5 247,-275.5 392,-275.5 392,-234.5 247,-234.5"/>
<text text-anchor="start" x="255" y="-263.5" font-family="Helvetica,sans-Serif" font-size="10.00">alps_common_lib/include</text>
<text text-anchor="start" x="255" y="-252.5" font-family="Helvetica,sans-Serif" font-size="10.00">/alps_cmn/communication</text>
<text text-anchor="middle" x="319.5" y="-241.5" font-family="Helvetica,sans-Serif" font-size="10.00">/i_can_io.hpp</text>
</a>
</g>
</g>
<!-- Node1&#45;&gt;Node4 -->
<g id="edge3" class="edge">
<title>Node1&#45;&gt;Node4</title>
<path fill="none" stroke="midnightblue" d="M216.37,-307.91C237.13,-297.46 261.13,-285.38 280.75,-275.51"/>
<polygon fill="midnightblue" stroke="midnightblue" points="214.75,-304.81 207.39,-312.43 217.89,-311.06 214.75,-304.81"/>
</g>
<!-- Node3 -->
<g id="node3" class="node">
<title>Node3</title>
<g id="a_node3"><a xlink:href="robomas__motors__can__controller_8hpp.html" target="_top" xlink:title=" ">
<polygon fill="white" stroke="black" points="92,-0.5 92,-41.5 247,-41.5 247,-0.5 92,-0.5"/>
<text text-anchor="start" x="100" y="-29.5" font-family="Helvetica,sans-Serif" font-size="10.00">alps_common_lib/include</text>
<text text-anchor="start" x="100" y="-18.5" font-family="Helvetica,sans-Serif" font-size="10.00">/alps_cmn/actuator/robomas</text>
<text text-anchor="middle" x="169.5" y="-7.5" font-family="Helvetica,sans-Serif" font-size="10.00">_motors_can_controller.hpp</text>
</a>
</g>
</g>
<!-- Node2&#45;&gt;Node3 -->
<g id="edge2" class="edge">
<title>Node2&#45;&gt;Node3</title>
<path fill="none" stroke="midnightblue" d="M109.24,-71.78C121.27,-61.84 134.74,-50.72 145.89,-41.51"/>
<polygon fill="midnightblue" stroke="midnightblue" points="106.67,-69.36 101.19,-78.43 111.13,-74.76 106.67,-69.36"/>
</g>
<!-- Node5 -->
<g id="node5" class="node">
<title>Node5</title>
<g id="a_node5"><a xlink:href="can__callback__handler_8hpp.html" target="_top" xlink:title="CANデータフレームをコールバックで処理するためのライブラリ">
<polygon fill="white" stroke="black" points="168,-156.5 168,-197.5 313,-197.5 313,-156.5 168,-156.5"/>
<text text-anchor="start" x="176" y="-185.5" font-family="Helvetica,sans-Serif" font-size="10.00">alps_common_lib/include</text>
<text text-anchor="start" x="176" y="-174.5" font-family="Helvetica,sans-Serif" font-size="10.00">/alps_cmn/communication</text>
<text text-anchor="middle" x="240.5" y="-163.5" font-family="Helvetica,sans-Serif" font-size="10.00">/can_callback_handler.hpp</text>
</a>
</g>
</g>
<!-- Node4&#45;&gt;Node5 -->
<g id="edge4" class="edge">
<title>Node4&#45;&gt;Node5</title>
<path fill="none" stroke="midnightblue" d="M291.95,-227.49C281.69,-217.63 270.26,-206.63 260.78,-197.51"/>
<polygon fill="midnightblue" stroke="midnightblue" points="289.52,-230.02 299.16,-234.43 294.38,-224.97 289.52,-230.02"/>
</g>
<!-- Node7 -->
<g id="node7" class="node">
<title>Node7</title>
<g id="a_node7"><a xlink:href="socket__can__io_8hpp.html" target="_top" xlink:title=" ">
<polygon fill="white" stroke="black" points="331.5,-156.5 331.5,-197.5 467.5,-197.5 467.5,-156.5 331.5,-156.5"/>
<text text-anchor="start" x="339.5" y="-185.5" font-family="Helvetica,sans-Serif" font-size="10.00">alps_linux_lib/include</text>
<text text-anchor="start" x="339.5" y="-174.5" font-family="Helvetica,sans-Serif" font-size="10.00">/alps_lin/communication</text>
<text text-anchor="middle" x="399.5" y="-163.5" font-family="Helvetica,sans-Serif" font-size="10.00">/socket_can_io.hpp</text>
</a>
</g>
</g>
<!-- Node4&#45;&gt;Node7 -->
<g id="edge7" class="edge">
<title>Node4&#45;&gt;Node7</title>
<path fill="none" stroke="midnightblue" d="M347.4,-227.49C357.78,-217.63 369.37,-206.63 378.97,-197.51"/>
<polygon fill="midnightblue" stroke="midnightblue" points="344.94,-225 340.1,-234.43 349.76,-230.08 344.94,-225"/>
</g>
<!-- Node8 -->
<g id="node8" class="node">
<title>Node8</title>
<g id="a_node8"><a xlink:href="buffered__can__io_8hpp.html" target="_top" xlink:title="MbedのCAN通信IOクラス">
<polygon fill="white" stroke="black" points="485.5,-156.5 485.5,-197.5 637.5,-197.5 637.5,-156.5 485.5,-156.5"/>
<text text-anchor="start" x="493.5" y="-185.5" font-family="Helvetica,sans-Serif" font-size="10.00">alps_mbed_lib/include</text>
<text text-anchor="start" x="493.5" y="-174.5" font-family="Helvetica,sans-Serif" font-size="10.00">/alps_mbed/communication</text>
<text text-anchor="middle" x="561.5" y="-163.5" font-family="Helvetica,sans-Serif" font-size="10.00">/buffered_can_io.hpp</text>
</a>
</g>
</g>
<!-- Node4&#45;&gt;Node8 -->
<g id="edge8" class="edge">
<title>Node4&#45;&gt;Node8</title>
<path fill="none" stroke="midnightblue" d="M391.77,-231.3C426.03,-220.55 466.54,-207.82 499.39,-197.51"/>
<polygon fill="midnightblue" stroke="midnightblue" points="390.31,-228.09 381.82,-234.43 392.41,-234.77 390.31,-228.09"/>
</g>
<!-- Node6 -->
<g id="node6" class="node">
<title>Node6</title>
<g id="a_node6"><a xlink:href="can__typed__data__transceiver_8hpp.html" target="_top" xlink:title="CAN通信で型付けされたデータの送受信を行うライブラリ">
<polygon fill="white" stroke="black" points="173,-78.5 173,-119.5 350,-119.5 350,-78.5 173,-78.5"/>
<text text-anchor="start" x="181" y="-107.5" font-family="Helvetica,sans-Serif" font-size="10.00">alps_common_lib/include</text>
<text text-anchor="start" x="181" y="-96.5" font-family="Helvetica,sans-Serif" font-size="10.00">/alps_cmn/communication</text>
<text text-anchor="middle" x="261.5" y="-85.5" font-family="Helvetica,sans-Serif" font-size="10.00">/can_typed_data_transceiver.hpp</text>
</a>
</g>
</g>
<!-- Node5&#45;&gt;Node6 -->
<g id="edge5" class="edge">
<title>Node5&#45;&gt;Node6</title>
<path fill="none" stroke="midnightblue" d="M248.63,-146.59C251.14,-137.51 253.83,-127.74 256.11,-119.51"/>
<polygon fill="midnightblue" stroke="midnightblue" points="245.2,-145.86 245.91,-156.43 251.95,-147.72 245.2,-145.86"/>
</g>
<!-- Node6&#45;&gt;Node3 -->
<g id="edge6" class="edge">
<title>Node6&#45;&gt;Node3</title>
<path fill="none" stroke="midnightblue" d="M229.76,-71.78C217.73,-61.84 204.26,-50.72 193.11,-41.51"/>
<polygon fill="midnightblue" stroke="midnightblue" points="227.87,-74.76 237.81,-78.43 232.33,-69.36 227.87,-74.76"/>
</g>
</g>
</svg>
