<?xml version="1.0" encoding="UTF-8" standalone="no"?>
<!DOCTYPE svg PUBLIC "-//W3C//DTD SVG 1.1//EN"
 "http://www.w3.org/Graphics/SVG/1.1/DTD/svg11.dtd">
<!-- Generated by graphviz version 2.43.0 (0)
 -->
<!-- Title: alps_ros2_lib/include/alps_ros2/communication/can_topic_converter.hpp Pages: 1 -->
<svg width="4720pt" height="368pt"
 viewBox="0.00 0.00 4720.00 368.00" xmlns="http://www.w3.org/2000/svg" xmlns:xlink="http://www.w3.org/1999/xlink">
<g id="graph0" class="graph" transform="scale(1 1) rotate(0) translate(4 364)">
<title>alps_ros2_lib/include/alps_ros2/communication/can_topic_converter.hpp</title>
<!-- Node1 -->
<g id="node1" class="node">
<title>Node1</title>
<g id="a_node1"><a xlink:title=" ">
<polygon fill="#999999" stroke="#666666" points="2747.5,-360 2602.5,-360 2602.5,-319 2747.5,-319 2747.5,-360"/>
<text text-anchor="start" x="2610.5" y="-348" font-family="Helvetica,sans-Serif" font-size="10.00">alps_ros2_lib/include</text>
<text text-anchor="start" x="2610.5" y="-337" font-family="Helvetica,sans-Serif" font-size="10.00">/alps_ros2/communication</text>
<text text-anchor="middle" x="2675" y="-326" font-family="Helvetica,sans-Serif" font-size="10.00">/can_topic_converter.hpp</text>
</a>
</g>
</g>
<!-- Node2 -->
<g id="node2" class="node">
<title>Node2</title>
<g id="a_node2"><a xlink:href="can__typed__data__transceiver_8hpp.html" target="_top" xlink:title="CAN通信で型付けされたデータの送受信を行うライブラリ">
<polygon fill="white" stroke="#666666" points="810,-283 632,-283 632,-253 810,-253 810,-283"/>
<text text-anchor="start" x="640" y="-271" font-family="Helvetica,sans-Serif" font-size="10.00">alps_cmn/communication</text>
<text text-anchor="middle" x="721" y="-260" font-family="Helvetica,sans-Serif" font-size="10.00">/can_typed_data_transceiver.hpp</text>
</a>
</g>
</g>
<!-- Node1&#45;&gt;Node2 -->
<g id="edge1" class="edge">
<title>Node1&#45;&gt;Node2</title>
<path fill="none" stroke="#63b8ff" d="M2602.34,-337.42C2307.02,-332.85 1195.04,-313.97 820.21,-283.02"/>
<polygon fill="#63b8ff" stroke="#63b8ff" points="820.41,-279.52 810.15,-282.17 819.82,-286.5 820.41,-279.52"/>
</g>
<!-- Node25 -->
<g id="node25" class="node">
<title>Node25</title>
<g id="a_node25"><a xlink:title=" ">
<polygon fill="#e0e0e0" stroke="#999999" points="927.5,-277.5 828.5,-277.5 828.5,-258.5 927.5,-258.5 927.5,-277.5"/>
<text text-anchor="middle" x="878" y="-265.5" font-family="Helvetica,sans-Serif" font-size="10.00">rclcpp/rclcpp.hpp</text>
</a>
</g>
</g>
<!-- Node1&#45;&gt;Node25 -->
<g id="edge29" class="edge">
<title>Node1&#45;&gt;Node25</title>
<path fill="none" stroke="#63b8ff" d="M2602.06,-338.12C2315.52,-336.34 1266.54,-326.91 937,-283 931.05,-282.21 924.82,-281.07 918.74,-279.79"/>
<polygon fill="#63b8ff" stroke="#63b8ff" points="919.23,-276.31 908.71,-277.52 917.69,-283.14 919.23,-276.31"/>
</g>
<!-- Node26 -->
<g id="node26" class="node">
<title>Node26</title>
<g id="a_node26"><a xlink:title=" ">
<polygon fill="#e0e0e0" stroke="#999999" points="1078,-277.5 946,-277.5 946,-258.5 1078,-258.5 1078,-277.5"/>
<text text-anchor="middle" x="1012" y="-265.5" font-family="Helvetica,sans-Serif" font-size="10.00">std_msgs/msg/bool.hpp</text>
</a>
</g>
</g>
<!-- Node1&#45;&gt;Node26 -->
<g id="edge30" class="edge">
<title>Node1&#45;&gt;Node26</title>
<path fill="none" stroke="#63b8ff" d="M2602.04,-337.4C2331.6,-333.1 1386.57,-316.01 1087,-283 1078.76,-282.09 1070.07,-280.79 1061.64,-279.35"/>
<polygon fill="#63b8ff" stroke="#63b8ff" points="1062,-275.85 1051.54,-277.53 1060.76,-282.74 1062,-275.85"/>
</g>
<!-- Node27 -->
<g id="node27" class="node">
<title>Node27</title>
<g id="a_node27"><a xlink:title=" ">
<polygon fill="#e0e0e0" stroke="#999999" points="1229.5,-277.5 1096.5,-277.5 1096.5,-258.5 1229.5,-258.5 1229.5,-277.5"/>
<text text-anchor="middle" x="1163" y="-265.5" font-family="Helvetica,sans-Serif" font-size="10.00">std_msgs/msg/byte.hpp</text>
</a>
</g>
</g>
<!-- Node1&#45;&gt;Node27 -->
<g id="edge31" class="edge">
<title>Node1&#45;&gt;Node27</title>
<path fill="none" stroke="#63b8ff" d="M2602.16,-337.07C2348.88,-331.88 1507.43,-312.76 1239,-283 1230.66,-282.08 1221.86,-280.77 1213.32,-279.32"/>
<polygon fill="#63b8ff" stroke="#63b8ff" points="1213.92,-275.87 1203.47,-277.57 1212.7,-282.76 1213.92,-275.87"/>
</g>
<!-- Node28 -->
<g id="node28" class="node">
<title>Node28</title>
<g id="a_node28"><a xlink:title=" ">
<polygon fill="#e0e0e0" stroke="#999999" points="1390.5,-283 1247.5,-283 1247.5,-253 1390.5,-253 1390.5,-283"/>
<text text-anchor="start" x="1255.5" y="-271" font-family="Helvetica,sans-Serif" font-size="10.00">std_msgs/msg/byte_multi</text>
<text text-anchor="middle" x="1319" y="-260" font-family="Helvetica,sans-Serif" font-size="10.00">_array.hpp</text>
</a>
</g>
</g>
<!-- Node1&#45;&gt;Node28 -->
<g id="edge32" class="edge">
<title>Node1&#45;&gt;Node28</title>
<path fill="none" stroke="#63b8ff" d="M2602.16,-338.58C2408.28,-338.08 1863.51,-332.16 1401.14,-283.02"/>
<polygon fill="#63b8ff" stroke="#63b8ff" points="1401.24,-279.51 1390.92,-281.92 1400.49,-286.47 1401.24,-279.51"/>
</g>
<!-- Node29 -->
<g id="node29" class="node">
<title>Node29</title>
<g id="a_node29"><a xlink:title=" ">
<polygon fill="#e0e0e0" stroke="#999999" points="1541,-277.5 1409,-277.5 1409,-258.5 1541,-258.5 1541,-277.5"/>
<text text-anchor="middle" x="1475" y="-265.5" font-family="Helvetica,sans-Serif" font-size="10.00">std_msgs/msg/char.hpp</text>
</a>
</g>
</g>
<!-- Node1&#45;&gt;Node29 -->
<g id="edge33" class="edge">
<title>Node1&#45;&gt;Node29</title>
<path fill="none" stroke="#63b8ff" d="M2602.33,-338.31C2422.99,-337.11 1945.23,-329.42 1550,-283 1541.96,-282.06 1533.48,-280.76 1525.23,-279.34"/>
<polygon fill="#63b8ff" stroke="#63b8ff" points="1525.79,-275.89 1515.33,-277.56 1524.55,-282.78 1525.79,-275.89"/>
</g>
<!-- Node30 -->
<g id="node30" class="node">
<title>Node30</title>
<g id="a_node30"><a xlink:title=" ">
<polygon fill="#e0e0e0" stroke="#999999" points="1705,-277.5 1559,-277.5 1559,-258.5 1705,-258.5 1705,-277.5"/>
<text text-anchor="middle" x="1632" y="-265.5" font-family="Helvetica,sans-Serif" font-size="10.00">std_msgs/msg/float32.hpp</text>
</a>
</g>
</g>
<!-- Node1&#45;&gt;Node30 -->
<g id="edge34" class="edge">
<title>Node1&#45;&gt;Node30</title>
<path fill="none" stroke="#63b8ff" d="M2602.21,-337.01C2441.6,-333.12 2044.92,-320.25 1715,-283 1705.94,-281.98 1696.36,-280.62 1687.05,-279.15"/>
<polygon fill="#63b8ff" stroke="#63b8ff" points="1687.54,-275.69 1677.1,-277.53 1686.41,-282.59 1687.54,-275.69"/>
</g>
<!-- Node31 -->
<g id="node31" class="node">
<title>Node31</title>
<g id="a_node31"><a xlink:title=" ">
<polygon fill="#e0e0e0" stroke="#999999" points="1848.5,-283 1723.5,-283 1723.5,-253 1848.5,-253 1848.5,-283"/>
<text text-anchor="start" x="1731.5" y="-271" font-family="Helvetica,sans-Serif" font-size="10.00">std_msgs/msg/float32</text>
<text text-anchor="middle" x="1786" y="-260" font-family="Helvetica,sans-Serif" font-size="10.00">_multi_array.hpp</text>
</a>
</g>
</g>
<!-- Node1&#45;&gt;Node31 -->
<g id="edge35" class="edge">
<title>Node1&#45;&gt;Node31</title>
<path fill="none" stroke="#63b8ff" d="M2602.29,-336.59C2460.91,-332.22 2138.96,-319.03 1858.71,-282.97"/>
<polygon fill="#63b8ff" stroke="#63b8ff" points="1859.12,-279.5 1848.75,-281.68 1858.22,-286.44 1859.12,-279.5"/>
</g>
<!-- Node32 -->
<g id="node32" class="node">
<title>Node32</title>
<g id="a_node32"><a xlink:title=" ">
<polygon fill="#e0e0e0" stroke="#999999" points="2013,-277.5 1867,-277.5 1867,-258.5 2013,-258.5 2013,-277.5"/>
<text text-anchor="middle" x="1940" y="-265.5" font-family="Helvetica,sans-Serif" font-size="10.00">std_msgs/msg/float64.hpp</text>
</a>
</g>
</g>
<!-- Node1&#45;&gt;Node32 -->
<g id="edge36" class="edge">
<title>Node1&#45;&gt;Node32</title>
<path fill="none" stroke="#63b8ff" d="M2602.43,-334.28C2481.83,-326.82 2232.63,-309.56 2023,-283 2014.36,-281.91 2005.25,-280.56 1996.35,-279.15"/>
<polygon fill="#63b8ff" stroke="#63b8ff" points="1996.87,-275.68 1986.43,-277.52 1995.74,-282.59 1996.87,-275.68"/>
</g>
<!-- Node33 -->
<g id="node33" class="node">
<title>Node33</title>
<g id="a_node33"><a xlink:title=" ">
<polygon fill="#e0e0e0" stroke="#999999" points="2156.5,-283 2031.5,-283 2031.5,-253 2156.5,-253 2156.5,-283"/>
<text text-anchor="start" x="2039.5" y="-271" font-family="Helvetica,sans-Serif" font-size="10.00">std_msgs/msg/float64</text>
<text text-anchor="middle" x="2094" y="-260" font-family="Helvetica,sans-Serif" font-size="10.00">_multi_array.hpp</text>
</a>
</g>
</g>
<!-- Node1&#45;&gt;Node33 -->
<g id="edge37" class="edge">
<title>Node1&#45;&gt;Node33</title>
<path fill="none" stroke="#63b8ff" d="M2602.26,-332.49C2505.29,-324.05 2328.14,-307.14 2166.88,-283.05"/>
<polygon fill="#63b8ff" stroke="#63b8ff" points="2167.18,-279.56 2156.78,-281.53 2166.14,-286.48 2167.18,-279.56"/>
</g>
<!-- Node34 -->
<g id="node34" class="node">
<title>Node34</title>
<g id="a_node34"><a xlink:title=" ">
<polygon fill="#e0e0e0" stroke="#999999" points="2311,-277.5 2175,-277.5 2175,-258.5 2311,-258.5 2311,-277.5"/>
<text text-anchor="middle" x="2243" y="-265.5" font-family="Helvetica,sans-Serif" font-size="10.00">std_msgs/msg/int16.hpp</text>
</a>
</g>
</g>
<!-- Node1&#45;&gt;Node34 -->
<g id="edge38" class="edge">
<title>Node1&#45;&gt;Node34</title>
<path fill="none" stroke="#63b8ff" d="M2602.38,-327.59C2530.77,-316.73 2418.24,-299.35 2321,-283 2314.16,-281.85 2307,-280.61 2299.89,-279.36"/>
<polygon fill="#63b8ff" stroke="#63b8ff" points="2300.04,-275.83 2289.58,-277.53 2298.81,-282.73 2300.04,-275.83"/>
</g>
<!-- Node35 -->
<g id="node35" class="node">
<title>Node35</title>
<g id="a_node35"><a xlink:title=" ">
<polygon fill="#e0e0e0" stroke="#999999" points="2444.5,-283 2329.5,-283 2329.5,-253 2444.5,-253 2444.5,-283"/>
<text text-anchor="start" x="2337.5" y="-271" font-family="Helvetica,sans-Serif" font-size="10.00">std_msgs/msg/int16</text>
<text text-anchor="middle" x="2387" y="-260" font-family="Helvetica,sans-Serif" font-size="10.00">_multi_array.hpp</text>
</a>
</g>
</g>
<!-- Node1&#45;&gt;Node35 -->
<g id="edge39" class="edge">
<title>Node1&#45;&gt;Node35</title>
<path fill="none" stroke="#63b8ff" d="M2602.33,-320.96C2556.93,-310.01 2498.89,-296 2454.51,-285.29"/>
<polygon fill="#63b8ff" stroke="#63b8ff" points="2455.23,-281.86 2444.69,-282.92 2453.59,-288.67 2455.23,-281.86"/>
</g>
<!-- Node36 -->
<g id="node36" class="node">
<title>Node36</title>
<g id="a_node36"><a xlink:title=" ">
<polygon fill="#e0e0e0" stroke="#999999" points="2599,-277.5 2463,-277.5 2463,-258.5 2599,-258.5 2599,-277.5"/>
<text text-anchor="middle" x="2531" y="-265.5" font-family="Helvetica,sans-Serif" font-size="10.00">std_msgs/msg/int32.hpp</text>
</a>
</g>
</g>
<!-- Node1&#45;&gt;Node36 -->
<g id="edge40" class="edge">
<title>Node1&#45;&gt;Node36</title>
<path fill="none" stroke="#63b8ff" d="M2634.5,-318.96C2609.98,-307.12 2579.37,-292.35 2557.83,-281.95"/>
<polygon fill="#63b8ff" stroke="#63b8ff" points="2559.15,-278.7 2548.62,-277.5 2556.1,-285 2559.15,-278.7"/>
</g>
<!-- Node37 -->
<g id="node37" class="node">
<title>Node37</title>
<g id="a_node37"><a xlink:title=" ">
<polygon fill="#e0e0e0" stroke="#999999" points="2732.5,-283 2617.5,-283 2617.5,-253 2732.5,-253 2732.5,-283"/>
<text text-anchor="start" x="2625.5" y="-271" font-family="Helvetica,sans-Serif" font-size="10.00">std_msgs/msg/int32</text>
<text text-anchor="middle" x="2675" y="-260" font-family="Helvetica,sans-Serif" font-size="10.00">_multi_array.hpp</text>
</a>
</g>
</g>
<!-- Node1&#45;&gt;Node37 -->
<g id="edge41" class="edge">
<title>Node1&#45;&gt;Node37</title>
<path fill="none" stroke="#63b8ff" d="M2675,-318.77C2675,-310.85 2675,-301.63 2675,-293.3"/>
<polygon fill="#63b8ff" stroke="#63b8ff" points="2678.5,-293.04 2675,-283.04 2671.5,-293.04 2678.5,-293.04"/>
</g>
<!-- Node38 -->
<g id="node38" class="node">
<title>Node38</title>
<g id="a_node38"><a xlink:title=" ">
<polygon fill="#e0e0e0" stroke="#999999" points="2887,-277.5 2751,-277.5 2751,-258.5 2887,-258.5 2887,-277.5"/>
<text text-anchor="middle" x="2819" y="-265.5" font-family="Helvetica,sans-Serif" font-size="10.00">std_msgs/msg/int64.hpp</text>
</a>
</g>
</g>
<!-- Node1&#45;&gt;Node38 -->
<g id="edge42" class="edge">
<title>Node1&#45;&gt;Node38</title>
<path fill="none" stroke="#63b8ff" d="M2715.5,-318.96C2740.02,-307.12 2770.63,-292.35 2792.17,-281.95"/>
<polygon fill="#63b8ff" stroke="#63b8ff" points="2793.9,-285 2801.38,-277.5 2790.85,-278.7 2793.9,-285"/>
</g>
<!-- Node39 -->
<g id="node39" class="node">
<title>Node39</title>
<g id="a_node39"><a xlink:title=" ">
<polygon fill="#e0e0e0" stroke="#999999" points="3020.5,-283 2905.5,-283 2905.5,-253 3020.5,-253 3020.5,-283"/>
<text text-anchor="start" x="2913.5" y="-271" font-family="Helvetica,sans-Serif" font-size="10.00">std_msgs/msg/int64</text>
<text text-anchor="middle" x="2963" y="-260" font-family="Helvetica,sans-Serif" font-size="10.00">_multi_array.hpp</text>
</a>
</g>
</g>
<!-- Node1&#45;&gt;Node39 -->
<g id="edge43" class="edge">
<title>Node1&#45;&gt;Node39</title>
<path fill="none" stroke="#63b8ff" d="M2747.67,-320.96C2793.07,-310.01 2851.11,-296 2895.49,-285.29"/>
<polygon fill="#63b8ff" stroke="#63b8ff" points="2896.41,-288.67 2905.31,-282.92 2894.77,-281.86 2896.41,-288.67"/>
</g>
<!-- Node40 -->
<g id="node40" class="node">
<title>Node40</title>
<g id="a_node40"><a xlink:title=" ">
<polygon fill="#e0e0e0" stroke="#999999" points="3169,-277.5 3039,-277.5 3039,-258.5 3169,-258.5 3169,-277.5"/>
<text text-anchor="middle" x="3104" y="-265.5" font-family="Helvetica,sans-Serif" font-size="10.00">std_msgs/msg/int8.hpp</text>
</a>
</g>
</g>
<!-- Node1&#45;&gt;Node40 -->
<g id="edge44" class="edge">
<title>Node1&#45;&gt;Node40</title>
<path fill="none" stroke="#63b8ff" d="M2747.52,-327.85C2819.35,-317.15 2932.42,-299.85 3030,-283 3036.58,-281.86 3043.48,-280.62 3050.31,-279.37"/>
<polygon fill="#63b8ff" stroke="#63b8ff" points="3051.03,-282.79 3060.22,-277.52 3049.75,-275.91 3051.03,-282.79"/>
</g>
<!-- Node41 -->
<g id="node41" class="node">
<title>Node41</title>
<g id="a_node41"><a xlink:title=" ">
<polygon fill="#e0e0e0" stroke="#999999" points="3327,-283 3187,-283 3187,-253 3327,-253 3327,-283"/>
<text text-anchor="start" x="3195" y="-271" font-family="Helvetica,sans-Serif" font-size="10.00">std_msgs/msg/int8_multi</text>
<text text-anchor="middle" x="3257" y="-260" font-family="Helvetica,sans-Serif" font-size="10.00">_array.hpp</text>
</a>
</g>
</g>
<!-- Node1&#45;&gt;Node41 -->
<g id="edge45" class="edge">
<title>Node1&#45;&gt;Node41</title>
<path fill="none" stroke="#63b8ff" d="M2747.66,-331.99C2843.61,-323.06 3018.04,-305.65 3176.87,-283.1"/>
<polygon fill="#63b8ff" stroke="#63b8ff" points="3177.42,-286.56 3186.83,-281.68 3176.43,-279.63 3177.42,-286.56"/>
</g>
<!-- Node42 -->
<g id="node42" class="node">
<title>Node42</title>
<g id="a_node42"><a xlink:title=" ">
<polygon fill="#e0e0e0" stroke="#999999" points="3484.5,-277.5 3345.5,-277.5 3345.5,-258.5 3484.5,-258.5 3484.5,-277.5"/>
<text text-anchor="middle" x="3415" y="-265.5" font-family="Helvetica,sans-Serif" font-size="10.00">std_msgs/msg/string.hpp</text>
</a>
</g>
</g>
<!-- Node1&#45;&gt;Node42 -->
<g id="edge46" class="edge">
<title>Node1&#45;&gt;Node42</title>
<path fill="none" stroke="#63b8ff" d="M2747.61,-334.59C2869.55,-327.52 3123.03,-310.75 3336,-283 3344.05,-281.95 3352.53,-280.65 3360.83,-279.28"/>
<polygon fill="#63b8ff" stroke="#63b8ff" points="3361.55,-282.7 3370.82,-277.57 3360.37,-275.8 3361.55,-282.7"/>
</g>
<!-- Node43 -->
<g id="node43" class="node">
<title>Node43</title>
<g id="a_node43"><a xlink:title=" ">
<polygon fill="#e0e0e0" stroke="#999999" points="3649.5,-277.5 3502.5,-277.5 3502.5,-258.5 3649.5,-258.5 3649.5,-277.5"/>
<text text-anchor="middle" x="3576" y="-265.5" font-family="Helvetica,sans-Serif" font-size="10.00">std_msgs/msg/u_int16.hpp</text>
</a>
</g>
</g>
<!-- Node1&#45;&gt;Node43 -->
<g id="edge47" class="edge">
<title>Node1&#45;&gt;Node43</title>
<path fill="none" stroke="#63b8ff" d="M2747.54,-336.06C2890.68,-330.69 3219.46,-315.65 3494,-283 3502.75,-281.96 3511.99,-280.62 3520.99,-279.18"/>
<polygon fill="#63b8ff" stroke="#63b8ff" points="3521.71,-282.61 3531.01,-277.53 3520.57,-275.7 3521.71,-282.61"/>
</g>
<!-- Node44 -->
<g id="node44" class="node">
<title>Node44</title>
<g id="a_node44"><a xlink:title=" ">
<polygon fill="#e0e0e0" stroke="#999999" points="3794,-283 3668,-283 3668,-253 3794,-253 3794,-283"/>
<text text-anchor="start" x="3676" y="-271" font-family="Helvetica,sans-Serif" font-size="10.00">std_msgs/msg/u_int16</text>
<text text-anchor="middle" x="3731" y="-260" font-family="Helvetica,sans-Serif" font-size="10.00">_multi_array.hpp</text>
</a>
</g>
</g>
<!-- Node1&#45;&gt;Node44 -->
<g id="edge48" class="edge">
<title>Node1&#45;&gt;Node44</title>
<path fill="none" stroke="#63b8ff" d="M2747.52,-337.77C2909.32,-335.42 3312.08,-325.53 3657.9,-283.01"/>
<polygon fill="#63b8ff" stroke="#63b8ff" points="3658.37,-286.48 3667.86,-281.78 3657.51,-279.54 3658.37,-286.48"/>
</g>
<!-- Node45 -->
<g id="node45" class="node">
<title>Node45</title>
<g id="a_node45"><a xlink:title=" ">
<polygon fill="#e0e0e0" stroke="#999999" points="3959.5,-277.5 3812.5,-277.5 3812.5,-258.5 3959.5,-258.5 3959.5,-277.5"/>
<text text-anchor="middle" x="3886" y="-265.5" font-family="Helvetica,sans-Serif" font-size="10.00">std_msgs/msg/u_int32.hpp</text>
</a>
</g>
</g>
<!-- Node1&#45;&gt;Node45 -->
<g id="edge49" class="edge">
<title>Node1&#45;&gt;Node45</title>
<path fill="none" stroke="#63b8ff" d="M2747.81,-337.89C2927.52,-335.73 3406.33,-326.06 3803,-283 3812.18,-282 3821.88,-280.65 3831.28,-279.17"/>
<polygon fill="#63b8ff" stroke="#63b8ff" points="3832.03,-282.59 3841.34,-277.53 3830.9,-275.68 3832.03,-282.59"/>
</g>
<!-- Node46 -->
<g id="node46" class="node">
<title>Node46</title>
<g id="a_node46"><a xlink:title=" ">
<polygon fill="#e0e0e0" stroke="#999999" points="4104,-283 3978,-283 3978,-253 4104,-253 4104,-283"/>
<text text-anchor="start" x="3986" y="-271" font-family="Helvetica,sans-Serif" font-size="10.00">std_msgs/msg/u_int32</text>
<text text-anchor="middle" x="4041" y="-260" font-family="Helvetica,sans-Serif" font-size="10.00">_multi_array.hpp</text>
</a>
</g>
</g>
<!-- Node1&#45;&gt;Node46 -->
<g id="edge50" class="edge">
<title>Node1&#45;&gt;Node46</title>
<path fill="none" stroke="#63b8ff" d="M2747.55,-339.17C2943.25,-340.17 3498.26,-337.65 3967.84,-283.01"/>
<polygon fill="#63b8ff" stroke="#63b8ff" points="3968.34,-286.47 3977.87,-281.83 3967.53,-279.52 3968.34,-286.47"/>
</g>
<!-- Node47 -->
<g id="node47" class="node">
<title>Node47</title>
<g id="a_node47"><a xlink:title=" ">
<polygon fill="#e0e0e0" stroke="#999999" points="4269.5,-277.5 4122.5,-277.5 4122.5,-258.5 4269.5,-258.5 4269.5,-277.5"/>
<text text-anchor="middle" x="4196" y="-265.5" font-family="Helvetica,sans-Serif" font-size="10.00">std_msgs/msg/u_int64.hpp</text>
</a>
</g>
</g>
<!-- Node1&#45;&gt;Node47 -->
<g id="edge51" class="edge">
<title>Node1&#45;&gt;Node47</title>
<path fill="none" stroke="#63b8ff" d="M2747.81,-338.99C2959.31,-339.7 3591.73,-336.8 4113,-283 4122.29,-282.04 4132.11,-280.69 4141.62,-279.2"/>
<polygon fill="#63b8ff" stroke="#63b8ff" points="4142.47,-282.61 4151.78,-277.54 4141.34,-275.7 4142.47,-282.61"/>
</g>
<!-- Node48 -->
<g id="node48" class="node">
<title>Node48</title>
<g id="a_node48"><a xlink:title=" ">
<polygon fill="#e0e0e0" stroke="#999999" points="4414,-283 4288,-283 4288,-253 4414,-253 4414,-283"/>
<text text-anchor="start" x="4296" y="-271" font-family="Helvetica,sans-Serif" font-size="10.00">std_msgs/msg/u_int64</text>
<text text-anchor="middle" x="4351" y="-260" font-family="Helvetica,sans-Serif" font-size="10.00">_multi_array.hpp</text>
</a>
</g>
</g>
<!-- Node1&#45;&gt;Node48 -->
<g id="edge52" class="edge">
<title>Node1&#45;&gt;Node48</title>
<path fill="none" stroke="#63b8ff" d="M2747.77,-337.51C3016.79,-333.59 3955.72,-317.81 4277.61,-283"/>
<polygon fill="#63b8ff" stroke="#63b8ff" points="4278.32,-286.44 4287.87,-281.86 4277.55,-279.48 4278.32,-286.44"/>
</g>
<!-- Node49 -->
<g id="node49" class="node">
<title>Node49</title>
<g id="a_node49"><a xlink:title=" ">
<polygon fill="#e0e0e0" stroke="#999999" points="4573.5,-277.5 4432.5,-277.5 4432.5,-258.5 4573.5,-258.5 4573.5,-277.5"/>
<text text-anchor="middle" x="4503" y="-265.5" font-family="Helvetica,sans-Serif" font-size="10.00">std_msgs/msg/u_int8.hpp</text>
</a>
</g>
</g>
<!-- Node1&#45;&gt;Node49 -->
<g id="edge53" class="edge">
<title>Node1&#45;&gt;Node49</title>
<path fill="none" stroke="#63b8ff" d="M2747.8,-337.56C3035.03,-333.65 4090.2,-317.23 4423,-283 4432.06,-282.07 4441.65,-280.71 4450.92,-279.21"/>
<polygon fill="#63b8ff" stroke="#63b8ff" points="4451.53,-282.66 4460.81,-277.53 4450.36,-275.75 4451.53,-282.66"/>
</g>
<!-- Node50 -->
<g id="node50" class="node">
<title>Node50</title>
<g id="a_node50"><a xlink:title=" ">
<polygon fill="#e0e0e0" stroke="#999999" points="4712,-283 4592,-283 4592,-253 4712,-253 4712,-283"/>
<text text-anchor="start" x="4600" y="-271" font-family="Helvetica,sans-Serif" font-size="10.00">std_msgs/msg/u_int8</text>
<text text-anchor="middle" x="4652" y="-260" font-family="Helvetica,sans-Serif" font-size="10.00">_multi_array.hpp</text>
</a>
</g>
</g>
<!-- Node1&#45;&gt;Node50 -->
<g id="edge54" class="edge">
<title>Node1&#45;&gt;Node50</title>
<path fill="none" stroke="#63b8ff" d="M2747.69,-338.05C3048.42,-335.93 4197.13,-325.26 4581.83,-282.96"/>
<polygon fill="#63b8ff" stroke="#63b8ff" points="4582.34,-286.43 4591.89,-281.83 4581.56,-279.47 4582.34,-286.43"/>
</g>
<!-- Node3 -->
<g id="node3" class="node">
<title>Node3</title>
<g id="a_node3"><a xlink:href="can__callback__handler_8hpp.html" target="_top" xlink:title="CANデータフレームをコールバックで処理するためのライブラリ">
<polygon fill="white" stroke="#666666" points="1120,-217 974,-217 974,-187 1120,-187 1120,-217"/>
<text text-anchor="start" x="982" y="-205" font-family="Helvetica,sans-Serif" font-size="10.00">alps_cmn/communication</text>
<text text-anchor="middle" x="1047" y="-194" font-family="Helvetica,sans-Serif" font-size="10.00">/can_callback_handler.hpp</text>
</a>
</g>
</g>
<!-- Node2&#45;&gt;Node3 -->
<g id="edge2" class="edge">
<title>Node2&#45;&gt;Node3</title>
<path fill="none" stroke="#63b8ff" d="M792.54,-252.95C843.61,-242.93 912.37,-229.43 965.55,-218.99"/>
<polygon fill="#63b8ff" stroke="#63b8ff" points="966.49,-222.37 975.62,-217.01 965.14,-215.5 966.49,-222.37"/>
</g>
<!-- Node10 -->
<g id="node10" class="node">
<title>Node10</title>
<g id="a_node10"><a xlink:href="cobs_8hpp.html" target="_top" xlink:title="COBS変換ライブラリ">
<polygon fill="white" stroke="#666666" points="264,-217 122,-217 122,-187 264,-187 264,-217"/>
<text text-anchor="start" x="130" y="-205" font-family="Helvetica,sans-Serif" font-size="10.00">alps_cmn/communication</text>
<text text-anchor="middle" x="193" y="-194" font-family="Helvetica,sans-Serif" font-size="10.00">/cobs.hpp</text>
</a>
</g>
</g>
<!-- Node2&#45;&gt;Node10 -->
<g id="edge9" class="edge">
<title>Node2&#45;&gt;Node10</title>
<path fill="none" stroke="#63b8ff" d="M631.73,-256.18C531.62,-244.04 370.66,-224.53 274.04,-212.82"/>
<polygon fill="#63b8ff" stroke="#63b8ff" points="274.37,-209.34 264.03,-211.61 273.53,-216.29 274.37,-209.34"/>
</g>
<!-- Node16 -->
<g id="node16" class="node">
<title>Node16</title>
<g id="a_node16"><a xlink:href="serializer_8hpp.html" target="_top" xlink:title="データとバイト列の変換ライブラリ">
<polygon fill="white" stroke="#666666" points="637,-217 495,-217 495,-187 637,-187 637,-217"/>
<text text-anchor="start" x="503" y="-205" font-family="Helvetica,sans-Serif" font-size="10.00">alps_cmn/communication</text>
<text text-anchor="middle" x="566" y="-194" font-family="Helvetica,sans-Serif" font-size="10.00">/serializer.hpp</text>
</a>
</g>
</g>
<!-- Node2&#45;&gt;Node16 -->
<g id="edge15" class="edge">
<title>Node2&#45;&gt;Node16</title>
<path fill="none" stroke="#63b8ff" d="M686.98,-252.95C664.17,-243.53 633.92,-231.04 609.38,-220.91"/>
<polygon fill="#63b8ff" stroke="#63b8ff" points="610.51,-217.59 599.94,-217.01 607.84,-224.06 610.51,-217.59"/>
</g>
<!-- Node23 -->
<g id="node23" class="node">
<title>Node23</title>
<g id="a_node23"><a xlink:href="logging__macros_8hpp.html" target="_top" xlink:title=" ">
<polygon fill="white" stroke="#666666" points="878,-217 758,-217 758,-187 878,-187 878,-217"/>
<text text-anchor="start" x="766" y="-205" font-family="Helvetica,sans-Serif" font-size="10.00">alps_cmn/log/logging</text>
<text text-anchor="middle" x="818" y="-194" font-family="Helvetica,sans-Serif" font-size="10.00">_macros.hpp</text>
</a>
</g>
</g>
<!-- Node2&#45;&gt;Node23 -->
<g id="edge25" class="edge">
<title>Node2&#45;&gt;Node23</title>
<path fill="none" stroke="#63b8ff" d="M742.53,-252.8C755.84,-244.01 773.13,-232.61 787.8,-222.93"/>
<polygon fill="#63b8ff" stroke="#63b8ff" points="790.11,-225.59 796.53,-217.16 786.26,-219.75 790.11,-225.59"/>
</g>
<!-- Node4 -->
<g id="node4" class="node">
<title>Node4</title>
<g id="a_node4"><a xlink:href="i__can__io_8hpp.html" target="_top" xlink:title=" ">
<polygon fill="white" stroke="#666666" points="1168,-151 1026,-151 1026,-121 1168,-121 1168,-151"/>
<text text-anchor="start" x="1034" y="-139" font-family="Helvetica,sans-Serif" font-size="10.00">alps_cmn/communication</text>
<text text-anchor="middle" x="1097" y="-128" font-family="Helvetica,sans-Serif" font-size="10.00">/i_can_io.hpp</text>
</a>
</g>
</g>
<!-- Node3&#45;&gt;Node4 -->
<g id="edge3" class="edge">
<title>Node3&#45;&gt;Node4</title>
<path fill="none" stroke="#63b8ff" d="M1058.1,-186.8C1064.44,-178.68 1072.54,-168.31 1079.7,-159.15"/>
<polygon fill="#63b8ff" stroke="#63b8ff" points="1082.54,-161.2 1085.93,-151.16 1077.02,-156.89 1082.54,-161.2"/>
</g>
<!-- Node8 -->
<g id="node8" class="node">
<title>Node8</title>
<g id="a_node8"><a xlink:title=" ">
<polygon fill="#e0e0e0" stroke="#999999" points="960,-79.5 876,-79.5 876,-60.5 960,-60.5 960,-79.5"/>
<text text-anchor="middle" x="918" y="-67.5" font-family="Helvetica,sans-Serif" font-size="10.00">etl/delegate.h</text>
</a>
</g>
</g>
<!-- Node3&#45;&gt;Node8 -->
<g id="edge7" class="edge">
<title>Node3&#45;&gt;Node8</title>
<path fill="none" stroke="#63b8ff" d="M1036.16,-186.75C1023.3,-170.21 1000.85,-142.46 979,-121 966.11,-108.34 950.3,-95.44 938,-85.92"/>
<polygon fill="#63b8ff" stroke="#63b8ff" points="939.84,-82.92 929.76,-79.63 935.59,-88.48 939.84,-82.92"/>
</g>
<!-- Node9 -->
<g id="node9" class="node">
<title>Node9</title>
<g id="a_node9"><a xlink:title=" ">
<polygon fill="#e0e0e0" stroke="#999999" points="1304,-145.5 1186,-145.5 1186,-126.5 1304,-126.5 1304,-145.5"/>
<text text-anchor="middle" x="1245" y="-133.5" font-family="Helvetica,sans-Serif" font-size="10.00">etl/unordered_map.h</text>
</a>
</g>
</g>
<!-- Node3&#45;&gt;Node9 -->
<g id="edge8" class="edge">
<title>Node3&#45;&gt;Node9</title>
<path fill="none" stroke="#63b8ff" d="M1090.45,-186.95C1125.94,-175.48 1175.51,-159.46 1208.86,-148.68"/>
<polygon fill="#63b8ff" stroke="#63b8ff" points="1210.21,-151.92 1218.65,-145.52 1208.06,-145.26 1210.21,-151.92"/>
</g>
<!-- Node5 -->
<g id="node5" class="node">
<title>Node5</title>
<g id="a_node5"><a xlink:href="can__data__frame_8hpp.html" target="_top" xlink:title="CANフレームを表す構造体">
<polygon fill="white" stroke="#666666" points="1152,-85 1010,-85 1010,-55 1152,-55 1152,-85"/>
<text text-anchor="start" x="1018" y="-73" font-family="Helvetica,sans-Serif" font-size="10.00">alps_cmn/communication</text>
<text text-anchor="middle" x="1081" y="-62" font-family="Helvetica,sans-Serif" font-size="10.00">/can_data_frame.hpp</text>
</a>
</g>
</g>
<!-- Node4&#45;&gt;Node5 -->
<g id="edge4" class="edge">
<title>Node4&#45;&gt;Node5</title>
<path fill="none" stroke="#63b8ff" d="M1093.45,-120.8C1091.56,-113.26 1089.2,-103.78 1087.03,-95.13"/>
<polygon fill="#63b8ff" stroke="#63b8ff" points="1090.36,-94.02 1084.54,-85.16 1083.57,-95.71 1090.36,-94.02"/>
</g>
<!-- Node6 -->
<g id="node6" class="node">
<title>Node6</title>
<g id="a_node6"><a xlink:title=" ">
<polygon fill="#e0e0e0" stroke="#999999" points="1107.5,-19 1054.5,-19 1054.5,0 1107.5,0 1107.5,-19"/>
<text text-anchor="middle" x="1081" y="-7" font-family="Helvetica,sans-Serif" font-size="10.00">stdint.h</text>
</a>
</g>
</g>
<!-- Node5&#45;&gt;Node6 -->
<g id="edge5" class="edge">
<title>Node5&#45;&gt;Node6</title>
<path fill="none" stroke="#63b8ff" d="M1081,-54.84C1081,-47.21 1081,-37.7 1081,-29.45"/>
<polygon fill="#63b8ff" stroke="#63b8ff" points="1084.5,-29.27 1081,-19.27 1077.5,-29.27 1084.5,-29.27"/>
</g>
<!-- Node7 -->
<g id="node7" class="node">
<title>Node7</title>
<g id="a_node7"><a xlink:title=" ">
<polygon fill="#e0e0e0" stroke="#999999" points="809,-19 737,-19 737,0 809,0 809,-19"/>
<text text-anchor="middle" x="773" y="-7" font-family="Helvetica,sans-Serif" font-size="10.00">etl/vector.h</text>
</a>
</g>
</g>
<!-- Node5&#45;&gt;Node7 -->
<g id="edge6" class="edge">
<title>Node5&#45;&gt;Node7</title>
<path fill="none" stroke="#63b8ff" d="M1009.95,-55.51C951.28,-44.36 869.71,-28.87 819.2,-19.27"/>
<polygon fill="#63b8ff" stroke="#63b8ff" points="819.7,-15.81 809.22,-17.38 818.39,-22.68 819.7,-15.81"/>
</g>
<!-- Node11 -->
<g id="node11" class="node">
<title>Node11</title>
<g id="a_node11"><a xlink:title=" ">
<polygon fill="#e0e0e0" stroke="#999999" points="52,-145.5 0,-145.5 0,-126.5 52,-126.5 52,-145.5"/>
<text text-anchor="middle" x="26" y="-133.5" font-family="Helvetica,sans-Serif" font-size="10.00">cassert</text>
</a>
</g>
</g>
<!-- Node10&#45;&gt;Node11 -->
<g id="edge10" class="edge">
<title>Node10&#45;&gt;Node11</title>
<path fill="none" stroke="#63b8ff" d="M155.38,-186.96C128.93,-177.04 92.74,-163.36 61,-151 59.59,-150.45 58.15,-149.89 56.69,-149.31"/>
<polygon fill="#63b8ff" stroke="#63b8ff" points="57.66,-145.93 47.07,-145.5 55.08,-152.44 57.66,-145.93"/>
</g>
<!-- Node12 -->
<g id="node12" class="node">
<title>Node12</title>
<g id="a_node12"><a xlink:title=" ">
<polygon fill="#e0e0e0" stroke="#999999" points="252,-145.5 202,-145.5 202,-126.5 252,-126.5 252,-145.5"/>
<text text-anchor="middle" x="227" y="-133.5" font-family="Helvetica,sans-Serif" font-size="10.00">cstdint</text>
</a>
</g>
</g>
<!-- Node10&#45;&gt;Node12 -->
<g id="edge11" class="edge">
<title>Node10&#45;&gt;Node12</title>
<path fill="none" stroke="#63b8ff" d="M200.55,-186.8C205.53,-177.41 212.12,-165.02 217.47,-154.95"/>
<polygon fill="#63b8ff" stroke="#63b8ff" points="220.7,-156.32 222.3,-145.84 214.52,-153.03 220.7,-156.32"/>
</g>
<!-- Node13 -->
<g id="node13" class="node">
<title>Node13</title>
<g id="a_node13"><a xlink:title=" ">
<polygon fill="#e0e0e0" stroke="#999999" points="116,-145.5 70,-145.5 70,-126.5 116,-126.5 116,-145.5"/>
<text text-anchor="middle" x="93" y="-133.5" font-family="Helvetica,sans-Serif" font-size="10.00">cstdio</text>
</a>
</g>
</g>
<!-- Node10&#45;&gt;Node13 -->
<g id="edge12" class="edge">
<title>Node10&#45;&gt;Node13</title>
<path fill="none" stroke="#63b8ff" d="M170.81,-186.8C154.2,-176.17 131.6,-161.7 115.03,-151.1"/>
<polygon fill="#63b8ff" stroke="#63b8ff" points="116.84,-148.1 106.53,-145.66 113.06,-154 116.84,-148.1"/>
</g>
<!-- Node14 -->
<g id="node14" class="node">
<title>Node14</title>
<g id="a_node14"><a xlink:title=" ">
<polygon fill="#e0e0e0" stroke="#999999" points="183.5,-145.5 134.5,-145.5 134.5,-126.5 183.5,-126.5 183.5,-145.5"/>
<text text-anchor="middle" x="159" y="-133.5" font-family="Helvetica,sans-Serif" font-size="10.00">cstdlib</text>
</a>
</g>
</g>
<!-- Node10&#45;&gt;Node14 -->
<g id="edge13" class="edge">
<title>Node10&#45;&gt;Node14</title>
<path fill="none" stroke="#63b8ff" d="M185.45,-186.8C180.47,-177.41 173.88,-165.02 168.53,-154.95"/>
<polygon fill="#63b8ff" stroke="#63b8ff" points="171.48,-153.03 163.7,-145.84 165.3,-156.32 171.48,-153.03"/>
</g>
<!-- Node15 -->
<g id="node15" class="node">
<title>Node15</title>
<g id="a_node15"><a xlink:title=" ">
<polygon fill="#e0e0e0" stroke="#999999" points="382,-145.5 270,-145.5 270,-126.5 382,-126.5 382,-145.5"/>
<text text-anchor="middle" x="326" y="-133.5" font-family="Helvetica,sans-Serif" font-size="10.00">etl/circular_buffer.h</text>
</a>
</g>
</g>
<!-- Node10&#45;&gt;Node15 -->
<g id="edge14" class="edge">
<title>Node10&#45;&gt;Node15</title>
<path fill="none" stroke="#63b8ff" d="M222.19,-186.95C245.1,-175.93 276.75,-160.7 299.07,-149.96"/>
<polygon fill="#63b8ff" stroke="#63b8ff" points="300.81,-153.01 308.3,-145.52 297.77,-146.7 300.81,-153.01"/>
</g>
<!-- Node16&#45;&gt;Node7 -->
<g id="edge24" class="edge">
<title>Node16&#45;&gt;Node7</title>
<path fill="none" stroke="#63b8ff" d="M555.92,-186.88C545.38,-170.23 531.92,-142.14 544,-121 581.52,-55.33 671.4,-28.07 726.74,-17.22"/>
<polygon fill="#63b8ff" stroke="#63b8ff" points="727.46,-20.64 736.65,-15.38 726.18,-13.76 727.46,-20.64"/>
</g>
<!-- Node16&#45;&gt;Node12 -->
<g id="edge18" class="edge">
<title>Node16&#45;&gt;Node12</title>
<path fill="none" stroke="#63b8ff" d="M494.74,-193.97C432.27,-186.72 339.46,-173.27 261,-151 259.11,-150.46 257.19,-149.85 255.26,-149.2"/>
<polygon fill="#63b8ff" stroke="#63b8ff" points="256.38,-145.88 245.79,-145.63 253.91,-152.43 256.38,-145.88"/>
</g>
<!-- Node16&#45;&gt;Node15 -->
<g id="edge22" class="edge">
<title>Node16&#45;&gt;Node15</title>
<path fill="none" stroke="#63b8ff" d="M513.33,-186.95C469.57,-175.29 408.15,-158.91 367.74,-148.13"/>
<polygon fill="#63b8ff" stroke="#63b8ff" points="368.5,-144.71 357.94,-145.52 366.7,-151.48 368.5,-144.71"/>
</g>
<!-- Node17 -->
<g id="node17" class="node">
<title>Node17</title>
<g id="a_node17"><a xlink:title=" ">
<polygon fill="#e0e0e0" stroke="#999999" points="628,-145.5 564,-145.5 564,-126.5 628,-126.5 628,-145.5"/>
<text text-anchor="middle" x="596" y="-133.5" font-family="Helvetica,sans-Serif" font-size="10.00">algorithm</text>
</a>
</g>
</g>
<!-- Node16&#45;&gt;Node17 -->
<g id="edge16" class="edge">
<title>Node16&#45;&gt;Node17</title>
<path fill="none" stroke="#63b8ff" d="M572.66,-186.8C577.06,-177.41 582.87,-165.02 587.59,-154.95"/>
<polygon fill="#63b8ff" stroke="#63b8ff" points="590.78,-156.38 591.85,-145.84 584.44,-153.41 590.78,-156.38"/>
</g>
<!-- Node18 -->
<g id="node18" class="node">
<title>Node18</title>
<g id="a_node18"><a xlink:title=" ">
<polygon fill="#e0e0e0" stroke="#999999" points="688,-145.5 646,-145.5 646,-126.5 688,-126.5 688,-145.5"/>
<text text-anchor="middle" x="667" y="-133.5" font-family="Helvetica,sans-Serif" font-size="10.00">array</text>
</a>
</g>
</g>
<!-- Node16&#45;&gt;Node18 -->
<g id="edge17" class="edge">
<title>Node16&#45;&gt;Node18</title>
<path fill="none" stroke="#63b8ff" d="M588.42,-186.8C605.19,-176.17 628.01,-161.7 644.75,-151.1"/>
<polygon fill="#63b8ff" stroke="#63b8ff" points="646.76,-153.97 653.34,-145.66 643.02,-148.05 646.76,-153.97"/>
</g>
<!-- Node19 -->
<g id="node19" class="node">
<title>Node19</title>
<g id="a_node19"><a xlink:title=" ">
<polygon fill="#e0e0e0" stroke="#999999" points="756,-145.5 706,-145.5 706,-126.5 756,-126.5 756,-145.5"/>
<text text-anchor="middle" x="731" y="-133.5" font-family="Helvetica,sans-Serif" font-size="10.00">cstring</text>
</a>
</g>
</g>
<!-- Node16&#45;&gt;Node19 -->
<g id="edge19" class="edge">
<title>Node16&#45;&gt;Node19</title>
<path fill="none" stroke="#63b8ff" d="M603.65,-186.93C629.89,-177.05 665.66,-163.43 697,-151 698.37,-150.46 699.77,-149.9 701.19,-149.33"/>
<polygon fill="#63b8ff" stroke="#63b8ff" points="702.59,-152.53 710.54,-145.53 699.96,-146.05 702.59,-152.53"/>
</g>
<!-- Node20 -->
<g id="node20" class="node">
<title>Node20</title>
<g id="a_node20"><a xlink:title=" ">
<polygon fill="#e0e0e0" stroke="#999999" points="815.5,-145.5 774.5,-145.5 774.5,-126.5 815.5,-126.5 815.5,-145.5"/>
<text text-anchor="middle" x="795" y="-133.5" font-family="Helvetica,sans-Serif" font-size="10.00">tuple</text>
</a>
</g>
</g>
<!-- Node16&#45;&gt;Node20 -->
<g id="edge20" class="edge">
<title>Node16&#45;&gt;Node20</title>
<path fill="none" stroke="#63b8ff" d="M635.57,-186.94C674.23,-178.28 722.87,-165.97 765,-151 766.22,-150.57 767.45,-150.1 768.7,-149.61"/>
<polygon fill="#63b8ff" stroke="#63b8ff" points="770.3,-152.74 778.1,-145.57 767.53,-146.3 770.3,-152.74"/>
</g>
<!-- Node21 -->
<g id="node21" class="node">
<title>Node21</title>
<g id="a_node21"><a xlink:title=" ">
<polygon fill="#e0e0e0" stroke="#999999" points="469.5,-145.5 400.5,-145.5 400.5,-126.5 469.5,-126.5 469.5,-145.5"/>
<text text-anchor="middle" x="435" y="-133.5" font-family="Helvetica,sans-Serif" font-size="10.00">type_traits</text>
</a>
</g>
</g>
<!-- Node16&#45;&gt;Node21 -->
<g id="edge21" class="edge">
<title>Node16&#45;&gt;Node21</title>
<path fill="none" stroke="#63b8ff" d="M537.25,-186.95C514.68,-175.93 483.51,-160.7 461.53,-149.96"/>
<polygon fill="#63b8ff" stroke="#63b8ff" points="462.96,-146.76 452.43,-145.52 459.88,-153.05 462.96,-146.76"/>
</g>
<!-- Node22 -->
<g id="node22" class="node">
<title>Node22</title>
<g id="a_node22"><a xlink:title=" ">
<polygon fill="#e0e0e0" stroke="#999999" points="734.5,-79.5 665.5,-79.5 665.5,-60.5 734.5,-60.5 734.5,-79.5"/>
<text text-anchor="middle" x="700" y="-67.5" font-family="Helvetica,sans-Serif" font-size="10.00">etl/string.h</text>
</a>
</g>
</g>
<!-- Node16&#45;&gt;Node22 -->
<g id="edge23" class="edge">
<title>Node16&#45;&gt;Node22</title>
<path fill="none" stroke="#63b8ff" d="M558.56,-186.85C550.67,-169.66 541.08,-140.52 555,-121 577.55,-89.36 621.5,-77.55 655.13,-73.24"/>
<polygon fill="#63b8ff" stroke="#63b8ff" points="655.64,-76.7 665.2,-72.12 654.87,-69.74 655.64,-76.7"/>
</g>
<!-- Node24 -->
<g id="node24" class="node">
<title>Node24</title>
<g id="a_node24"><a xlink:href="logger_8hpp.html" target="_top" xlink:title=" ">
<polygon fill="white" stroke="#666666" points="970,-145.5 834,-145.5 834,-126.5 970,-126.5 970,-145.5"/>
<text text-anchor="middle" x="902" y="-133.5" font-family="Helvetica,sans-Serif" font-size="10.00">alps_cmn/log/logger.hpp</text>
</a>
</g>
</g>
<!-- Node23&#45;&gt;Node24 -->
<g id="edge26" class="edge">
<title>Node23&#45;&gt;Node24</title>
<path fill="none" stroke="#63b8ff" d="M836.64,-186.8C850.12,-176.53 868.31,-162.67 882.08,-152.18"/>
<polygon fill="#63b8ff" stroke="#63b8ff" points="884.56,-154.69 890.39,-145.84 880.32,-149.12 884.56,-154.69"/>
</g>
<!-- Node24&#45;&gt;Node8 -->
<g id="edge27" class="edge">
<title>Node24&#45;&gt;Node8</title>
<path fill="none" stroke="#63b8ff" d="M904.16,-126.37C906.48,-117.07 910.26,-101.98 913.28,-89.9"/>
<polygon fill="#63b8ff" stroke="#63b8ff" points="916.74,-90.46 915.77,-79.91 909.95,-88.76 916.74,-90.46"/>
</g>
<!-- Node24&#45;&gt;Node22 -->
<g id="edge28" class="edge">
<title>Node24&#45;&gt;Node22</title>
<path fill="none" stroke="#63b8ff" d="M874.76,-126.37C839.12,-115.08 776.53,-95.25 736.73,-82.64"/>
<polygon fill="#63b8ff" stroke="#63b8ff" points="737.72,-79.28 727.13,-79.6 735.61,-85.95 737.72,-79.28"/>
</g>
</g>
</svg>
