<?xml version="1.0" encoding="UTF-8" standalone="no"?>
<!DOCTYPE svg PUBLIC "-//W3C//DTD SVG 1.1//EN"
 "http://www.w3.org/Graphics/SVG/1.1/DTD/svg11.dtd">
<!-- Generated by graphviz version 2.43.0 (0)
 -->
<!-- Title: alps_ros2_lib/include/alps_ros2/communication/can_param_bridge.hpp Pages: 1 -->
<svg width="1751pt" height="441pt"
 viewBox="0.00 0.00 1751.00 441.00" xmlns="http://www.w3.org/2000/svg" xmlns:xlink="http://www.w3.org/1999/xlink">
<g id="graph0" class="graph" transform="scale(1 1) rotate(0) translate(4 437)">
<title>alps_ros2_lib/include/alps_ros2/communication/can_param_bridge.hpp</title>
<polygon fill="white" stroke="transparent" points="-4,4 -4,-437 1747,-437 1747,4 -4,4"/>
<!-- Node1 -->
<g id="node1" class="node">
<title>Node1</title>
<g id="a_node1"><a xlink:title=" ">
<polygon fill="#bfbfbf" stroke="black" points="433.5,-391.5 433.5,-432.5 578.5,-432.5 578.5,-391.5 433.5,-391.5"/>
<text text-anchor="start" x="441.5" y="-420.5" font-family="Helvetica,sans-Serif" font-size="10.00">alps_ros2_lib/include</text>
<text text-anchor="start" x="441.5" y="-409.5" font-family="Helvetica,sans-Serif" font-size="10.00">/alps_ros2/communication</text>
<text text-anchor="middle" x="506" y="-398.5" font-family="Helvetica,sans-Serif" font-size="10.00">/can_param_bridge.hpp</text>
</a>
</g>
</g>
<!-- Node2 -->
<g id="node2" class="node">
<title>Node2</title>
<g id="a_node2"><a xlink:href="can__param_8hpp.html" target="_top" xlink:title=" ">
<polygon fill="white" stroke="black" points="577,-324.5 577,-354.5 719,-354.5 719,-324.5 577,-324.5"/>
<text text-anchor="start" x="585" y="-342.5" font-family="Helvetica,sans-Serif" font-size="10.00">alps_cmn/communication</text>
<text text-anchor="middle" x="648" y="-331.5" font-family="Helvetica,sans-Serif" font-size="10.00">/can_param.hpp</text>
</a>
</g>
</g>
<!-- Node1&#45;&gt;Node2 -->
<g id="edge1" class="edge">
<title>Node1&#45;&gt;Node2</title>
<path fill="none" stroke="midnightblue" d="M545.55,-391.36C565.82,-381.3 590.36,-369.12 610.34,-359.2"/>
<polygon fill="midnightblue" stroke="midnightblue" points="612.06,-362.25 619.46,-354.67 608.95,-355.98 612.06,-362.25"/>
</g>
<!-- Node31 -->
<g id="node31" class="node">
<title>Node31</title>
<g id="a_node31"><a xlink:href="typed__param_8hpp.html" target="_top" xlink:title="ROS2 Parameterを色んな型で扱うためのライブラリ">
<polygon fill="white" stroke="black" points="327.5,-190.5 327.5,-220.5 440.5,-220.5 440.5,-190.5 327.5,-190.5"/>
<text text-anchor="start" x="335.5" y="-208.5" font-family="Helvetica,sans-Serif" font-size="10.00">alps_ros2/util/typed</text>
<text text-anchor="middle" x="384" y="-197.5" font-family="Helvetica,sans-Serif" font-size="10.00">_param.hpp</text>
</a>
</g>
</g>
<!-- Node1&#45;&gt;Node31 -->
<g id="edge37" class="edge">
<title>Node1&#45;&gt;Node31</title>
<path fill="none" stroke="midnightblue" d="M494.3,-391.39C471.62,-353.37 421.76,-269.79 397.62,-229.34"/>
<polygon fill="midnightblue" stroke="midnightblue" points="400.61,-227.5 392.48,-220.71 394.6,-231.09 400.61,-227.5"/>
</g>
<!-- Node3 -->
<g id="node3" class="node">
<title>Node3</title>
<g id="a_node3"><a xlink:href="can__typed__data__transceiver_8hpp.html" target="_top" xlink:title="CAN通信で型付けされたデータの送受信を行うライブラリ">
<polygon fill="white" stroke="black" points="801.5,-257.5 801.5,-287.5 978.5,-287.5 978.5,-257.5 801.5,-257.5"/>
<text text-anchor="start" x="809.5" y="-275.5" font-family="Helvetica,sans-Serif" font-size="10.00">alps_cmn/communication</text>
<text text-anchor="middle" x="890" y="-264.5" font-family="Helvetica,sans-Serif" font-size="10.00">/can_typed_data_transceiver.hpp</text>
</a>
</g>
</g>
<!-- Node2&#45;&gt;Node3 -->
<g id="edge2" class="edge">
<title>Node2&#45;&gt;Node3</title>
<path fill="none" stroke="midnightblue" d="M700.21,-324.48C737.62,-314.43 788.15,-300.86 827.67,-290.24"/>
<polygon fill="midnightblue" stroke="midnightblue" points="828.71,-293.59 837.46,-287.61 826.9,-286.82 828.71,-293.59"/>
</g>
<!-- Node28 -->
<g id="node28" class="node">
<title>Node28</title>
<g id="a_node28"><a xlink:title=" ">
<polygon fill="white" stroke="#bfbfbf" points="471,-263 471,-282 589,-282 589,-263 471,-263"/>
<text text-anchor="middle" x="530" y="-270" font-family="Helvetica,sans-Serif" font-size="10.00">etl/circular_iterator.h</text>
</a>
</g>
</g>
<!-- Node2&#45;&gt;Node28 -->
<g id="edge34" class="edge">
<title>Node2&#45;&gt;Node28</title>
<path fill="none" stroke="midnightblue" d="M622.4,-324.4C602.15,-313.24 574.08,-297.78 554.21,-286.83"/>
<polygon fill="midnightblue" stroke="midnightblue" points="555.89,-283.77 545.44,-282.01 552.51,-289.9 555.89,-283.77"/>
</g>
<!-- Node29 -->
<g id="node29" class="node">
<title>Node29</title>
<g id="a_node29"><a xlink:title=" ">
<polygon fill="white" stroke="#bfbfbf" points="607.5,-263 607.5,-282 688.5,-282 688.5,-263 607.5,-263"/>
<text text-anchor="middle" x="648" y="-270" font-family="Helvetica,sans-Serif" font-size="10.00">etl/optional.h</text>
</a>
</g>
</g>
<!-- Node2&#45;&gt;Node29 -->
<g id="edge35" class="edge">
<title>Node2&#45;&gt;Node29</title>
<path fill="none" stroke="midnightblue" d="M648,-324.4C648,-315.06 648,-302.71 648,-292.52"/>
<polygon fill="midnightblue" stroke="midnightblue" points="651.5,-292.19 648,-282.19 644.5,-292.19 651.5,-292.19"/>
</g>
<!-- Node30 -->
<g id="node30" class="node">
<title>Node30</title>
<g id="a_node30"><a xlink:title=" ">
<polygon fill="white" stroke="#bfbfbf" points="707,-263 707,-282 763,-282 763,-263 707,-263"/>
<text text-anchor="middle" x="735" y="-270" font-family="Helvetica,sans-Serif" font-size="10.00">etl/set.h</text>
</a>
</g>
</g>
<!-- Node2&#45;&gt;Node30 -->
<g id="edge36" class="edge">
<title>Node2&#45;&gt;Node30</title>
<path fill="none" stroke="midnightblue" d="M666.88,-324.4C681.11,-313.76 700.6,-299.2 715.08,-288.38"/>
<polygon fill="midnightblue" stroke="midnightblue" points="717.45,-290.98 723.36,-282.19 713.26,-285.38 717.45,-290.98"/>
</g>
<!-- Node4 -->
<g id="node4" class="node">
<title>Node4</title>
<g id="a_node4"><a xlink:href="can__callback__handler_8hpp.html" target="_top" xlink:title="CANデータフレームをコールバックで処理するためのライブラリ">
<polygon fill="white" stroke="black" points="650.5,-190.5 650.5,-220.5 795.5,-220.5 795.5,-190.5 650.5,-190.5"/>
<text text-anchor="start" x="658.5" y="-208.5" font-family="Helvetica,sans-Serif" font-size="10.00">alps_cmn/communication</text>
<text text-anchor="middle" x="723" y="-197.5" font-family="Helvetica,sans-Serif" font-size="10.00">/can_callback_handler.hpp</text>
</a>
</g>
</g>
<!-- Node3&#45;&gt;Node4 -->
<g id="edge3" class="edge">
<title>Node3&#45;&gt;Node4</title>
<path fill="none" stroke="midnightblue" d="M853.76,-257.4C828.82,-247.69 795.47,-234.71 768.7,-224.29"/>
<polygon fill="midnightblue" stroke="midnightblue" points="769.75,-220.94 759.17,-220.58 767.22,-227.47 769.75,-220.94"/>
</g>
<!-- Node11 -->
<g id="node11" class="node">
<title>Node11</title>
<g id="a_node11"><a xlink:href="cobs_8hpp.html" target="_top" xlink:title="COBS変換ライブラリ">
<polygon fill="white" stroke="black" points="1463,-123.5 1463,-153.5 1605,-153.5 1605,-123.5 1463,-123.5"/>
<text text-anchor="start" x="1471" y="-141.5" font-family="Helvetica,sans-Serif" font-size="10.00">alps_cmn/communication</text>
<text text-anchor="middle" x="1534" y="-130.5" font-family="Helvetica,sans-Serif" font-size="10.00">/cobs.hpp</text>
</a>
</g>
</g>
<!-- Node3&#45;&gt;Node11 -->
<g id="edge10" class="edge">
<title>Node3&#45;&gt;Node11</title>
<path fill="none" stroke="midnightblue" d="M958.31,-257.5C1078.71,-232.82 1327.97,-181.73 1455.35,-155.62"/>
<polygon fill="midnightblue" stroke="midnightblue" points="1456.33,-158.99 1465.42,-153.56 1454.92,-152.14 1456.33,-158.99"/>
</g>
<!-- Node17 -->
<g id="node17" class="node">
<title>Node17</title>
<g id="a_node17"><a xlink:href="logging__macros_8hpp.html" target="_top" xlink:title=" ">
<polygon fill="white" stroke="black" points="830,-190.5 830,-220.5 950,-220.5 950,-190.5 830,-190.5"/>
<text text-anchor="start" x="838" y="-208.5" font-family="Helvetica,sans-Serif" font-size="10.00">alps_cmn/log/logging</text>
<text text-anchor="middle" x="890" y="-197.5" font-family="Helvetica,sans-Serif" font-size="10.00">_macros.hpp</text>
</a>
</g>
</g>
<!-- Node3&#45;&gt;Node17 -->
<g id="edge16" class="edge">
<title>Node3&#45;&gt;Node17</title>
<path fill="none" stroke="midnightblue" d="M890,-257.4C890,-249.64 890,-239.81 890,-230.86"/>
<polygon fill="midnightblue" stroke="midnightblue" points="893.5,-230.58 890,-220.58 886.5,-230.58 893.5,-230.58"/>
</g>
<!-- Node20 -->
<g id="node20" class="node">
<title>Node20</title>
<g id="a_node20"><a xlink:href="serializer_8hpp.html" target="_top" xlink:title="データとバイト列の変換ライブラリ">
<polygon fill="white" stroke="black" points="1069,-129 1069,-148 1225,-148 1225,-129 1069,-129"/>
<text text-anchor="middle" x="1147" y="-136" font-family="Helvetica,sans-Serif" font-size="10.00">alps_cmn/type/serializer.hpp</text>
</a>
</g>
</g>
<!-- Node3&#45;&gt;Node20 -->
<g id="edge20" class="edge">
<title>Node3&#45;&gt;Node20</title>
<path fill="none" stroke="midnightblue" d="M917.5,-257.37C967.52,-231.68 1072.68,-177.67 1121.32,-152.69"/>
<polygon fill="midnightblue" stroke="midnightblue" points="1122.97,-155.78 1130.26,-148.1 1119.77,-149.55 1122.97,-155.78"/>
</g>
<!-- Node5 -->
<g id="node5" class="node">
<title>Node5</title>
<g id="a_node5"><a xlink:href="i__can__io_8hpp.html" target="_top" xlink:title=" ">
<polygon fill="white" stroke="black" points="348,-123.5 348,-153.5 490,-153.5 490,-123.5 348,-123.5"/>
<text text-anchor="start" x="356" y="-141.5" font-family="Helvetica,sans-Serif" font-size="10.00">alps_cmn/communication</text>
<text text-anchor="middle" x="419" y="-130.5" font-family="Helvetica,sans-Serif" font-size="10.00">/i_can_io.hpp</text>
</a>
</g>
</g>
<!-- Node4&#45;&gt;Node5 -->
<g id="edge4" class="edge">
<title>Node4&#45;&gt;Node5</title>
<path fill="none" stroke="midnightblue" d="M657.41,-190.48C609.55,-180.24 544.57,-166.35 494.53,-155.65"/>
<polygon fill="midnightblue" stroke="midnightblue" points="495.24,-152.22 484.73,-153.55 493.78,-159.07 495.24,-152.22"/>
</g>
<!-- Node9 -->
<g id="node9" class="node">
<title>Node9</title>
<g id="a_node9"><a xlink:title=" ">
<polygon fill="white" stroke="#bfbfbf" points="715,-62 715,-81 799,-81 799,-62 715,-62"/>
<text text-anchor="middle" x="757" y="-69" font-family="Helvetica,sans-Serif" font-size="10.00">etl/delegate.h</text>
</a>
</g>
</g>
<!-- Node4&#45;&gt;Node9 -->
<g id="edge8" class="edge">
<title>Node4&#45;&gt;Node9</title>
<path fill="none" stroke="midnightblue" d="M744.3,-190.38C755.73,-181.46 768.73,-168.84 775,-154 783.79,-133.22 775.23,-107.57 767.17,-90.66"/>
<polygon fill="midnightblue" stroke="midnightblue" points="770.08,-88.66 762.38,-81.39 763.86,-91.88 770.08,-88.66"/>
</g>
<!-- Node10 -->
<g id="node10" class="node">
<title>Node10</title>
<g id="a_node10"><a xlink:title=" ">
<polygon fill="white" stroke="#bfbfbf" points="648,-129 648,-148 766,-148 766,-129 648,-129"/>
<text text-anchor="middle" x="707" y="-136" font-family="Helvetica,sans-Serif" font-size="10.00">etl/unordered_map.h</text>
</a>
</g>
</g>
<!-- Node4&#45;&gt;Node10 -->
<g id="edge9" class="edge">
<title>Node4&#45;&gt;Node10</title>
<path fill="none" stroke="midnightblue" d="M719.53,-190.4C717.21,-180.96 714.13,-168.45 711.6,-158.19"/>
<polygon fill="midnightblue" stroke="midnightblue" points="714.93,-157.07 709.14,-148.19 708.13,-158.74 714.93,-157.07"/>
</g>
<!-- Node6 -->
<g id="node6" class="node">
<title>Node6</title>
<g id="a_node6"><a xlink:href="can__data__frame_8hpp.html" target="_top" xlink:title="CANフレームを表す構造体">
<polygon fill="white" stroke="black" points="208,-56.5 208,-86.5 350,-86.5 350,-56.5 208,-56.5"/>
<text text-anchor="start" x="216" y="-74.5" font-family="Helvetica,sans-Serif" font-size="10.00">alps_cmn/communication</text>
<text text-anchor="middle" x="279" y="-63.5" font-family="Helvetica,sans-Serif" font-size="10.00">/can_data_frame.hpp</text>
</a>
</g>
</g>
<!-- Node5&#45;&gt;Node6 -->
<g id="edge5" class="edge">
<title>Node5&#45;&gt;Node6</title>
<path fill="none" stroke="midnightblue" d="M388.62,-123.4C368.07,-113.86 340.74,-101.16 318.5,-90.84"/>
<polygon fill="midnightblue" stroke="midnightblue" points="319.86,-87.61 309.32,-86.58 316.91,-93.96 319.86,-87.61"/>
</g>
<!-- Node7 -->
<g id="node7" class="node">
<title>Node7</title>
<g id="a_node7"><a xlink:title=" ">
<polygon fill="white" stroke="#bfbfbf" points="268.5,-0.5 268.5,-19.5 321.5,-19.5 321.5,-0.5 268.5,-0.5"/>
<text text-anchor="middle" x="295" y="-7.5" font-family="Helvetica,sans-Serif" font-size="10.00">stdint.h</text>
</a>
</g>
</g>
<!-- Node6&#45;&gt;Node7 -->
<g id="edge6" class="edge">
<title>Node6&#45;&gt;Node7</title>
<path fill="none" stroke="midnightblue" d="M282.79,-56.4C284.95,-48.38 287.68,-38.23 290.01,-29.57"/>
<polygon fill="midnightblue" stroke="midnightblue" points="293.45,-30.22 292.67,-19.66 286.7,-28.41 293.45,-30.22"/>
</g>
<!-- Node8 -->
<g id="node8" class="node">
<title>Node8</title>
<g id="a_node8"><a xlink:title=" ">
<polygon fill="white" stroke="#bfbfbf" points="651.5,-0.5 651.5,-19.5 722.5,-19.5 722.5,-0.5 651.5,-0.5"/>
<text text-anchor="middle" x="687" y="-7.5" font-family="Helvetica,sans-Serif" font-size="10.00">etl/vector.h</text>
</a>
</g>
</g>
<!-- Node6&#45;&gt;Node8 -->
<g id="edge7" class="edge">
<title>Node6&#45;&gt;Node8</title>
<path fill="none" stroke="midnightblue" d="M350.07,-57.45C353.09,-56.95 356.07,-56.47 359,-56 459.55,-40 577.99,-24.6 641.42,-16.62"/>
<polygon fill="midnightblue" stroke="midnightblue" points="642.01,-20.08 651.49,-15.36 641.14,-13.13 642.01,-20.08"/>
</g>
<!-- Node12 -->
<g id="node12" class="node">
<title>Node12</title>
<g id="a_node12"><a xlink:title=" ">
<polygon fill="white" stroke="#bfbfbf" points="1691,-62 1691,-81 1743,-81 1743,-62 1691,-62"/>
<text text-anchor="middle" x="1717" y="-69" font-family="Helvetica,sans-Serif" font-size="10.00">cassert</text>
</a>
</g>
</g>
<!-- Node11&#45;&gt;Node12 -->
<g id="edge11" class="edge">
<title>Node11&#45;&gt;Node12</title>
<path fill="none" stroke="midnightblue" d="M1577.65,-123.42C1607.26,-113.67 1647.2,-100.13 1682,-87 1683.85,-86.3 1685.74,-85.57 1687.65,-84.82"/>
<polygon fill="midnightblue" stroke="midnightblue" points="1689.14,-87.99 1697.1,-81 1686.52,-81.5 1689.14,-87.99"/>
</g>
<!-- Node13 -->
<g id="node13" class="node">
<title>Node13</title>
<g id="a_node13"><a xlink:title=" ">
<polygon fill="white" stroke="#bfbfbf" points="1363,-62 1363,-81 1413,-81 1413,-62 1363,-62"/>
<text text-anchor="middle" x="1388" y="-69" font-family="Helvetica,sans-Serif" font-size="10.00">cstdint</text>
</a>
</g>
</g>
<!-- Node11&#45;&gt;Node13 -->
<g id="edge12" class="edge">
<title>Node11&#45;&gt;Node13</title>
<path fill="none" stroke="midnightblue" d="M1502.32,-123.4C1476.7,-111.99 1440.96,-96.08 1416.3,-85.1"/>
<polygon fill="midnightblue" stroke="midnightblue" points="1417.67,-81.88 1407.11,-81.01 1414.82,-88.27 1417.67,-81.88"/>
</g>
<!-- Node14 -->
<g id="node14" class="node">
<title>Node14</title>
<g id="a_node14"><a xlink:title=" ">
<polygon fill="white" stroke="#bfbfbf" points="1559,-62 1559,-81 1605,-81 1605,-62 1559,-62"/>
<text text-anchor="middle" x="1582" y="-69" font-family="Helvetica,sans-Serif" font-size="10.00">cstdio</text>
</a>
</g>
</g>
<!-- Node11&#45;&gt;Node14 -->
<g id="edge13" class="edge">
<title>Node11&#45;&gt;Node14</title>
<path fill="none" stroke="midnightblue" d="M1544.42,-123.4C1551.83,-113.36 1561.81,-99.84 1569.63,-89.25"/>
<polygon fill="midnightblue" stroke="midnightblue" points="1572.45,-91.32 1575.58,-81.19 1566.82,-87.16 1572.45,-91.32"/>
</g>
<!-- Node15 -->
<g id="node15" class="node">
<title>Node15</title>
<g id="a_node15"><a xlink:title=" ">
<polygon fill="white" stroke="#bfbfbf" points="1623.5,-62 1623.5,-81 1672.5,-81 1672.5,-62 1623.5,-62"/>
<text text-anchor="middle" x="1648" y="-69" font-family="Helvetica,sans-Serif" font-size="10.00">cstdlib</text>
</a>
</g>
</g>
<!-- Node11&#45;&gt;Node15 -->
<g id="edge14" class="edge">
<title>Node11&#45;&gt;Node15</title>
<path fill="none" stroke="midnightblue" d="M1558.74,-123.4C1578.21,-112.29 1605.17,-96.92 1624.35,-85.98"/>
<polygon fill="midnightblue" stroke="midnightblue" points="1626.13,-89 1633.08,-81.01 1622.66,-82.92 1626.13,-89"/>
</g>
<!-- Node16 -->
<g id="node16" class="node">
<title>Node16</title>
<g id="a_node16"><a xlink:title=" ">
<polygon fill="white" stroke="#bfbfbf" points="1431,-62 1431,-81 1541,-81 1541,-62 1431,-62"/>
<text text-anchor="middle" x="1486" y="-69" font-family="Helvetica,sans-Serif" font-size="10.00">etl/circular_buffer.h</text>
</a>
</g>
</g>
<!-- Node11&#45;&gt;Node16 -->
<g id="edge15" class="edge">
<title>Node11&#45;&gt;Node16</title>
<path fill="none" stroke="midnightblue" d="M1523.58,-123.4C1516.17,-113.36 1506.19,-99.84 1498.37,-89.25"/>
<polygon fill="midnightblue" stroke="midnightblue" points="1501.18,-87.16 1492.42,-81.19 1495.55,-91.32 1501.18,-87.16"/>
</g>
<!-- Node18 -->
<g id="node18" class="node">
<title>Node18</title>
<g id="a_node18"><a xlink:href="logger_8hpp.html" target="_top" xlink:title=" ">
<polygon fill="white" stroke="black" points="822.5,-129 822.5,-148 957.5,-148 957.5,-129 822.5,-129"/>
<text text-anchor="middle" x="890" y="-136" font-family="Helvetica,sans-Serif" font-size="10.00">alps_cmn/log/logger.hpp</text>
</a>
</g>
</g>
<!-- Node17&#45;&gt;Node18 -->
<g id="edge17" class="edge">
<title>Node17&#45;&gt;Node18</title>
<path fill="none" stroke="midnightblue" d="M890,-190.4C890,-181.06 890,-168.71 890,-158.52"/>
<polygon fill="midnightblue" stroke="midnightblue" points="893.5,-158.19 890,-148.19 886.5,-158.19 893.5,-158.19"/>
</g>
<!-- Node18&#45;&gt;Node9 -->
<g id="edge18" class="edge">
<title>Node18&#45;&gt;Node9</title>
<path fill="none" stroke="midnightblue" d="M872.34,-128.87C849.68,-117.8 810.17,-98.49 783.8,-85.6"/>
<polygon fill="midnightblue" stroke="midnightblue" points="785.26,-82.41 774.73,-81.17 782.18,-88.7 785.26,-82.41"/>
</g>
<!-- Node19 -->
<g id="node19" class="node">
<title>Node19</title>
<g id="a_node19"><a xlink:title=" ">
<polygon fill="white" stroke="#bfbfbf" points="817.5,-62 817.5,-81 886.5,-81 886.5,-62 817.5,-62"/>
<text text-anchor="middle" x="852" y="-69" font-family="Helvetica,sans-Serif" font-size="10.00">etl/string.h</text>
</a>
</g>
</g>
<!-- Node18&#45;&gt;Node19 -->
<g id="edge19" class="edge">
<title>Node18&#45;&gt;Node19</title>
<path fill="none" stroke="midnightblue" d="M884.88,-128.73C879.06,-118.79 869.44,-102.34 862.11,-89.79"/>
<polygon fill="midnightblue" stroke="midnightblue" points="865.11,-87.99 857.04,-81.13 859.07,-91.53 865.11,-87.99"/>
</g>
<!-- Node20&#45;&gt;Node8 -->
<g id="edge33" class="edge">
<title>Node20&#45;&gt;Node8</title>
<path fill="none" stroke="midnightblue" d="M1102.37,-128.94C1062.64,-120.59 1003.34,-106.33 954,-87 926.79,-76.34 923.44,-66.06 896,-56 841.48,-36.01 775.54,-23.64 732.5,-17.05"/>
<polygon fill="midnightblue" stroke="midnightblue" points="733.01,-13.59 722.6,-15.58 731.98,-20.51 733.01,-13.59"/>
</g>
<!-- Node20&#45;&gt;Node13 -->
<g id="edge23" class="edge">
<title>Node20&#45;&gt;Node13</title>
<path fill="none" stroke="midnightblue" d="M1186.46,-129C1227.44,-119.85 1293.24,-104.28 1349,-87 1351.56,-86.21 1354.2,-85.34 1356.85,-84.43"/>
<polygon fill="midnightblue" stroke="midnightblue" points="1358.04,-87.72 1366.28,-81.06 1355.69,-81.13 1358.04,-87.72"/>
</g>
<!-- Node20&#45;&gt;Node16 -->
<g id="edge31" class="edge">
<title>Node20&#45;&gt;Node16</title>
<path fill="none" stroke="midnightblue" d="M1196.8,-128.99C1251.98,-119.41 1343.54,-103.09 1422,-87 1427.72,-85.83 1433.71,-84.54 1439.64,-83.24"/>
<polygon fill="midnightblue" stroke="midnightblue" points="1440.5,-86.63 1449.5,-81.04 1438.98,-79.8 1440.5,-86.63"/>
</g>
<!-- Node20&#45;&gt;Node19 -->
<g id="edge32" class="edge">
<title>Node20&#45;&gt;Node19</title>
<path fill="none" stroke="midnightblue" d="M1099.11,-128.92C1049.33,-119.71 969.31,-104.09 901,-87 897.14,-86.03 893.13,-84.96 889.14,-83.85"/>
<polygon fill="midnightblue" stroke="midnightblue" points="889.94,-80.44 879.36,-81.04 888,-87.17 889.94,-80.44"/>
</g>
<!-- Node21 -->
<g id="node21" class="node">
<title>Node21</title>
<g id="a_node21"><a xlink:title=" ">
<polygon fill="white" stroke="#bfbfbf" points="1115,-62 1115,-81 1179,-81 1179,-62 1115,-62"/>
<text text-anchor="middle" x="1147" y="-69" font-family="Helvetica,sans-Serif" font-size="10.00">algorithm</text>
</a>
</g>
</g>
<!-- Node20&#45;&gt;Node21 -->
<g id="edge21" class="edge">
<title>Node20&#45;&gt;Node21</title>
<path fill="none" stroke="midnightblue" d="M1147,-128.73C1147,-119.18 1147,-103.62 1147,-91.28"/>
<polygon fill="midnightblue" stroke="midnightblue" points="1150.5,-91.13 1147,-81.13 1143.5,-91.13 1150.5,-91.13"/>
</g>
<!-- Node22 -->
<g id="node22" class="node">
<title>Node22</title>
<g id="a_node22"><a xlink:title=" ">
<polygon fill="white" stroke="#bfbfbf" points="1197,-62 1197,-81 1239,-81 1239,-62 1197,-62"/>
<text text-anchor="middle" x="1218" y="-69" font-family="Helvetica,sans-Serif" font-size="10.00">array</text>
</a>
</g>
</g>
<!-- Node20&#45;&gt;Node22 -->
<g id="edge22" class="edge">
<title>Node20&#45;&gt;Node22</title>
<path fill="none" stroke="midnightblue" d="M1156.58,-128.73C1167.97,-118.31 1187.19,-100.71 1201.1,-87.97"/>
<polygon fill="midnightblue" stroke="midnightblue" points="1203.56,-90.46 1208.58,-81.13 1198.84,-85.3 1203.56,-90.46"/>
</g>
<!-- Node23 -->
<g id="node23" class="node">
<title>Node23</title>
<g id="a_node23"><a xlink:title=" ">
<polygon fill="white" stroke="#bfbfbf" points="1257,-62 1257,-81 1307,-81 1307,-62 1257,-62"/>
<text text-anchor="middle" x="1282" y="-69" font-family="Helvetica,sans-Serif" font-size="10.00">cstring</text>
</a>
</g>
</g>
<!-- Node20&#45;&gt;Node23 -->
<g id="edge24" class="edge">
<title>Node20&#45;&gt;Node23</title>
<path fill="none" stroke="midnightblue" d="M1164.93,-128.87C1187.92,-117.8 1228.03,-98.49 1254.8,-85.6"/>
<polygon fill="midnightblue" stroke="midnightblue" points="1256.51,-88.66 1264,-81.17 1253.47,-82.35 1256.51,-88.66"/>
</g>
<!-- Node24 -->
<g id="node24" class="node">
<title>Node24</title>
<g id="a_node24"><a xlink:title=" ">
<polygon fill="white" stroke="#bfbfbf" points="1196.5,-0.5 1196.5,-19.5 1237.5,-19.5 1237.5,-0.5 1196.5,-0.5"/>
<text text-anchor="middle" x="1217" y="-7.5" font-family="Helvetica,sans-Serif" font-size="10.00">tuple</text>
</a>
</g>
</g>
<!-- Node20&#45;&gt;Node24 -->
<g id="edge25" class="edge">
<title>Node20&#45;&gt;Node24</title>
<path fill="none" stroke="midnightblue" d="M1225.18,-134.12C1258.72,-128.3 1294.96,-115.24 1316,-87 1324.23,-75.95 1323.46,-67.58 1316,-56 1301.02,-32.74 1270.75,-21.36 1247.6,-15.89"/>
<polygon fill="midnightblue" stroke="midnightblue" points="1248.05,-12.4 1237.55,-13.76 1246.61,-19.25 1248.05,-12.4"/>
</g>
<!-- Node25 -->
<g id="node25" class="node">
<title>Node25</title>
<g id="a_node25"><a xlink:title=" ">
<polygon fill="white" stroke="#bfbfbf" points="923.5,-0.5 923.5,-19.5 992.5,-19.5 992.5,-0.5 923.5,-0.5"/>
<text text-anchor="middle" x="958" y="-7.5" font-family="Helvetica,sans-Serif" font-size="10.00">type_traits</text>
</a>
</g>
</g>
<!-- Node20&#45;&gt;Node25 -->
<g id="edge26" class="edge">
<title>Node20&#45;&gt;Node25</title>
<path fill="none" stroke="midnightblue" d="M1068.88,-133.02C1034.54,-126.99 996.52,-114.07 972,-87 958.1,-71.65 955.87,-47.18 956.29,-30.16"/>
<polygon fill="midnightblue" stroke="midnightblue" points="959.81,-29.97 956.9,-19.78 952.82,-29.56 959.81,-29.97"/>
</g>
<!-- Node26 -->
<g id="node26" class="node">
<title>Node26</title>
<g id="a_node26"><a xlink:href="tuple__traits_8hpp.html" target="_top" xlink:title="タプル関係の型特性">
<polygon fill="white" stroke="black" points="981,-56.5 981,-86.5 1097,-86.5 1097,-56.5 981,-56.5"/>
<text text-anchor="start" x="989" y="-74.5" font-family="Helvetica,sans-Serif" font-size="10.00">alps_cmn/type/tuple</text>
<text text-anchor="middle" x="1039" y="-63.5" font-family="Helvetica,sans-Serif" font-size="10.00">_traits.hpp</text>
</a>
</g>
</g>
<!-- Node20&#45;&gt;Node26 -->
<g id="edge27" class="edge">
<title>Node20&#45;&gt;Node26</title>
<path fill="none" stroke="midnightblue" d="M1132.43,-128.73C1116.79,-119.32 1091.42,-104.05 1071.07,-91.8"/>
<polygon fill="midnightblue" stroke="midnightblue" points="1072.78,-88.75 1062.41,-86.59 1069.17,-94.74 1072.78,-88.75"/>
</g>
<!-- Node26&#45;&gt;Node24 -->
<g id="edge29" class="edge">
<title>Node26&#45;&gt;Node24</title>
<path fill="none" stroke="midnightblue" d="M1081.18,-56.4C1113.55,-45.58 1157.48,-30.9 1186.5,-21.2"/>
<polygon fill="midnightblue" stroke="midnightblue" points="1187.73,-24.48 1196.1,-17.99 1185.51,-17.84 1187.73,-24.48"/>
</g>
<!-- Node26&#45;&gt;Node25 -->
<g id="edge30" class="edge">
<title>Node26&#45;&gt;Node25</title>
<path fill="none" stroke="midnightblue" d="M1019.8,-56.4C1007.18,-47.13 990.71,-35.03 977.94,-25.65"/>
<polygon fill="midnightblue" stroke="midnightblue" points="979.92,-22.76 969.79,-19.66 975.77,-28.4 979.92,-22.76"/>
</g>
<!-- Node27 -->
<g id="node27" class="node">
<title>Node27</title>
<g id="a_node27"><a xlink:title=" ">
<polygon fill="white" stroke="#bfbfbf" points="1017,-0.5 1017,-19.5 1061,-19.5 1061,-0.5 1017,-0.5"/>
<text text-anchor="middle" x="1039" y="-7.5" font-family="Helvetica,sans-Serif" font-size="10.00">string</text>
</a>
</g>
</g>
<!-- Node26&#45;&gt;Node27 -->
<g id="edge28" class="edge">
<title>Node26&#45;&gt;Node27</title>
<path fill="none" stroke="midnightblue" d="M1039,-56.4C1039,-48.47 1039,-38.46 1039,-29.86"/>
<polygon fill="midnightblue" stroke="midnightblue" points="1042.5,-29.66 1039,-19.66 1035.5,-29.66 1042.5,-29.66"/>
</g>
<!-- Node32 -->
<g id="node32" class="node">
<title>Node32</title>
<g id="a_node32"><a xlink:title=" ">
<polygon fill="white" stroke="#bfbfbf" points="164.5,-129 164.5,-148 263.5,-148 263.5,-129 164.5,-129"/>
<text text-anchor="middle" x="214" y="-136" font-family="Helvetica,sans-Serif" font-size="10.00">rclcpp/rclcpp.hpp</text>
</a>
</g>
</g>
<!-- Node31&#45;&gt;Node32 -->
<g id="edge38" class="edge">
<title>Node31&#45;&gt;Node32</title>
<path fill="none" stroke="midnightblue" d="M347.11,-190.4C316.89,-178.84 274.56,-162.66 245.81,-151.66"/>
<polygon fill="midnightblue" stroke="midnightblue" points="246.84,-148.31 236.25,-148.01 244.34,-154.85 246.84,-148.31"/>
</g>
<!-- Node33 -->
<g id="node33" class="node">
<title>Node33</title>
<g id="a_node33"><a xlink:title=" ">
<polygon fill="white" stroke="#bfbfbf" points="282,-129 282,-148 330,-148 330,-129 282,-129"/>
<text text-anchor="middle" x="306" y="-136" font-family="Helvetica,sans-Serif" font-size="10.00">thread</text>
</a>
</g>
</g>
<!-- Node31&#45;&gt;Node33 -->
<g id="edge39" class="edge">
<title>Node31&#45;&gt;Node33</title>
<path fill="none" stroke="midnightblue" d="M367.08,-190.4C354.43,-179.86 337.17,-165.48 324.23,-154.69"/>
<polygon fill="midnightblue" stroke="midnightblue" points="326.36,-151.91 316.43,-148.19 321.88,-157.29 326.36,-151.91"/>
</g>
<!-- Node34 -->
<g id="node34" class="node">
<title>Node34</title>
<g id="a_node34"><a xlink:href="param__converter_8hpp.html" target="_top" xlink:title="ROS2パラメータと値の変換ライブラリ">
<polygon fill="white" stroke="black" points="508,-123.5 508,-153.5 630,-153.5 630,-123.5 508,-123.5"/>
<text text-anchor="start" x="516" y="-141.5" font-family="Helvetica,sans-Serif" font-size="10.00">alps_ros2/type/param</text>
<text text-anchor="middle" x="569" y="-130.5" font-family="Helvetica,sans-Serif" font-size="10.00">_converter.hpp</text>
</a>
</g>
</g>
<!-- Node31&#45;&gt;Node34 -->
<g id="edge40" class="edge">
<title>Node31&#45;&gt;Node34</title>
<path fill="none" stroke="midnightblue" d="M424.14,-190.4C452.02,-180.6 489.36,-167.48 519.15,-157.02"/>
<polygon fill="midnightblue" stroke="midnightblue" points="520.66,-160.19 528.94,-153.58 518.34,-153.59 520.66,-160.19"/>
</g>
<!-- Node34&#45;&gt;Node8 -->
<g id="edge47" class="edge">
<title>Node34&#45;&gt;Node8</title>
<path fill="none" stroke="midnightblue" d="M615.22,-123.49C634.1,-115.59 654.61,-103.84 668,-87 681.07,-70.57 685.29,-46.32 686.57,-29.65"/>
<polygon fill="midnightblue" stroke="midnightblue" points="690.08,-29.68 687.07,-19.52 683.09,-29.33 690.08,-29.68"/>
</g>
<!-- Node34&#45;&gt;Node19 -->
<g id="edge46" class="edge">
<title>Node34&#45;&gt;Node19</title>
<path fill="none" stroke="midnightblue" d="M630.05,-124.77C697.96,-110.59 799.35,-89.33 808,-87 811.18,-86.14 814.48,-85.19 817.76,-84.19"/>
<polygon fill="midnightblue" stroke="midnightblue" points="819,-87.47 827.48,-81.11 816.89,-80.79 819,-87.47"/>
</g>
<!-- Node34&#45;&gt;Node26 -->
<g id="edge41" class="edge">
<title>Node34&#45;&gt;Node26</title>
<path fill="none" stroke="midnightblue" d="M630.03,-124.56C633.06,-124.01 636.06,-123.49 639,-123 754.8,-103.73 890.56,-88.03 970.42,-79.5"/>
<polygon fill="midnightblue" stroke="midnightblue" points="971.26,-82.93 980.83,-78.39 970.52,-75.97 971.26,-82.93"/>
</g>
<!-- Node35 -->
<g id="node35" class="node">
<title>Node35</title>
<g id="a_node35"><a xlink:href="param__map_8hpp.html" target="_top" xlink:title=" ">
<polygon fill="white" stroke="black" points="58,-56.5 58,-86.5 174,-86.5 174,-56.5 58,-56.5"/>
<text text-anchor="start" x="66" y="-74.5" font-family="Helvetica,sans-Serif" font-size="10.00">alps_ros2/util/param</text>
<text text-anchor="middle" x="116" y="-63.5" font-family="Helvetica,sans-Serif" font-size="10.00">_map.hpp</text>
</a>
</g>
</g>
<!-- Node34&#45;&gt;Node35 -->
<g id="edge42" class="edge">
<title>Node34&#45;&gt;Node35</title>
<path fill="none" stroke="midnightblue" d="M507.97,-124.54C504.94,-124 501.94,-123.48 499,-123 366.46,-101.36 331.86,-106.56 199,-87 194.27,-86.3 189.4,-85.55 184.5,-84.76"/>
<polygon fill="midnightblue" stroke="midnightblue" points="184.87,-81.28 174.43,-83.11 183.73,-88.18 184.87,-81.28"/>
</g>
<!-- Node39 -->
<g id="node39" class="node">
<title>Node39</title>
<g id="a_node39"><a xlink:title=" ">
<polygon fill="white" stroke="#bfbfbf" points="368.5,-62 368.5,-81 535.5,-81 535.5,-62 368.5,-62"/>
<text text-anchor="middle" x="452" y="-69" font-family="Helvetica,sans-Serif" font-size="10.00">magic_enum/magic_enum.hpp</text>
</a>
</g>
</g>
<!-- Node34&#45;&gt;Node39 -->
<g id="edge48" class="edge">
<title>Node34&#45;&gt;Node39</title>
<path fill="none" stroke="midnightblue" d="M543.61,-123.4C523.63,-112.29 495.96,-96.92 476.27,-85.98"/>
<polygon fill="midnightblue" stroke="midnightblue" points="477.75,-82.8 467.31,-81.01 474.35,-88.92 477.75,-82.8"/>
</g>
<!-- Node40 -->
<g id="node40" class="node">
<title>Node40</title>
<g id="a_node40"><a xlink:title=" ">
<polygon fill="white" stroke="#bfbfbf" points="553,-62 553,-81 659,-81 659,-62 553,-62"/>
<text text-anchor="middle" x="606" y="-69" font-family="Helvetica,sans-Serif" font-size="10.00">rclcpp/logging.hpp</text>
</a>
</g>
</g>
<!-- Node34&#45;&gt;Node40 -->
<g id="edge49" class="edge">
<title>Node34&#45;&gt;Node40</title>
<path fill="none" stroke="midnightblue" d="M577.03,-123.4C582.63,-113.56 590.13,-100.38 596.1,-89.89"/>
<polygon fill="midnightblue" stroke="midnightblue" points="599.15,-91.62 601.05,-81.19 593.06,-88.15 599.15,-91.62"/>
</g>
<!-- Node36 -->
<g id="node36" class="node">
<title>Node36</title>
<g id="a_node36"><a xlink:title=" ">
<polygon fill="white" stroke="#bfbfbf" points="0,-0.5 0,-19.5 38,-19.5 38,-0.5 0,-0.5"/>
<text text-anchor="middle" x="19" y="-7.5" font-family="Helvetica,sans-Serif" font-size="10.00">map</text>
</a>
</g>
</g>
<!-- Node35&#45;&gt;Node36 -->
<g id="edge43" class="edge">
<title>Node35&#45;&gt;Node36</title>
<path fill="none" stroke="midnightblue" d="M93.01,-56.4C77.61,-46.95 57.41,-34.56 42,-25.11"/>
<polygon fill="midnightblue" stroke="midnightblue" points="43.47,-21.9 33.11,-19.66 39.81,-27.87 43.47,-21.9"/>
</g>
<!-- Node37 -->
<g id="node37" class="node">
<title>Node37</title>
<g id="a_node37"><a xlink:title=" ">
<polygon fill="white" stroke="#bfbfbf" points="56,-0.5 56,-19.5 112,-19.5 112,-0.5 56,-0.5"/>
<text text-anchor="middle" x="84" y="-7.5" font-family="Helvetica,sans-Serif" font-size="10.00">optional</text>
</a>
</g>
</g>
<!-- Node35&#45;&gt;Node37 -->
<g id="edge44" class="edge">
<title>Node35&#45;&gt;Node37</title>
<path fill="none" stroke="midnightblue" d="M108.42,-56.4C103.96,-48.11 98.28,-37.55 93.52,-28.71"/>
<polygon fill="midnightblue" stroke="midnightblue" points="96.48,-26.81 88.66,-19.66 90.31,-30.12 96.48,-26.81"/>
</g>
<!-- Node38 -->
<g id="node38" class="node">
<title>Node38</title>
<g id="a_node38"><a xlink:title=" ">
<polygon fill="white" stroke="#bfbfbf" points="130,-0.5 130,-19.5 250,-19.5 250,-0.5 130,-0.5"/>
<text text-anchor="middle" x="190" y="-7.5" font-family="Helvetica,sans-Serif" font-size="10.00">rclcpp/parameter.hpp</text>
</a>
</g>
</g>
<!-- Node35&#45;&gt;Node38 -->
<g id="edge45" class="edge">
<title>Node35&#45;&gt;Node38</title>
<path fill="none" stroke="midnightblue" d="M133.54,-56.4C144.84,-47.31 159.54,-35.49 171.11,-26.19"/>
<polygon fill="midnightblue" stroke="midnightblue" points="173.63,-28.65 179.23,-19.66 169.25,-23.2 173.63,-28.65"/>
</g>
</g>
</svg>
