<?xml version="1.0" encoding="UTF-8" standalone="no"?>
<!DOCTYPE svg PUBLIC "-//W3C//DTD SVG 1.1//EN"
 "http://www.w3.org/Graphics/SVG/1.1/DTD/svg11.dtd">
<!-- Generated by graphviz version 2.43.0 (0)
 -->
<!-- Title: alps_common_lib/include/alps_cmn/communication/can_typed_data_transceiver.hpp Pages: 1 -->
<svg width="1219pt" height="302pt"
 viewBox="0.00 0.00 1218.89 302.00" xmlns="http://www.w3.org/2000/svg" xmlns:xlink="http://www.w3.org/1999/xlink">
<g id="graph0" class="graph" transform="scale(1 1) rotate(0) translate(4 298)">
<title>alps_common_lib/include/alps_cmn/communication/can_typed_data_transceiver.hpp</title>
<!-- Node1 -->
<g id="node1" class="node">
<title>Node1</title>
<g id="a_node1"><a xlink:title="CAN通信で型付けされたデータの送受信を行うライブラリ">
<polygon fill="#999999" stroke="#666666" points="648,-294 470,-294 470,-253 648,-253 648,-294"/>
<text text-anchor="start" x="478" y="-282" font-family="Helvetica,sans-Serif" font-size="10.00">alps_common_lib/include</text>
<text text-anchor="start" x="478" y="-271" font-family="Helvetica,sans-Serif" font-size="10.00">/alps_cmn/communication</text>
<text text-anchor="middle" x="559" y="-260" font-family="Helvetica,sans-Serif" font-size="10.00">/can_typed_data_transceiver.hpp</text>
</a>
</g>
</g>
<!-- Node2 -->
<g id="node2" class="node">
<title>Node2</title>
<g id="a_node2"><a xlink:href="can__callback__handler_8hpp.html" target="_top" xlink:title="CANデータフレームをコールバックで処理するためのライブラリ">
<polygon fill="white" stroke="#666666" points="317,-217 171,-217 171,-187 317,-187 317,-217"/>
<text text-anchor="start" x="179" y="-205" font-family="Helvetica,sans-Serif" font-size="10.00">alps_cmn/communication</text>
<text text-anchor="middle" x="244" y="-194" font-family="Helvetica,sans-Serif" font-size="10.00">/can_callback_handler.hpp</text>
</a>
</g>
</g>
<!-- Node1&#45;&gt;Node2 -->
<g id="edge1" class="edge">
<title>Node1&#45;&gt;Node2</title>
<path fill="none" stroke="#63b8ff" d="M470.42,-252.96C422.1,-242.3 363.01,-229.26 317.3,-219.17"/>
<polygon fill="#63b8ff" stroke="#63b8ff" points="317.99,-215.74 307.47,-217 316.48,-222.58 317.99,-215.74"/>
</g>
<!-- Node9 -->
<g id="node9" class="node">
<title>Node9</title>
<g id="a_node9"><a xlink:href="cobs_8hpp.html" target="_top" xlink:title="COBS変換ライブラリ">
<polygon fill="white" stroke="#666666" points="630,-217 488,-217 488,-187 630,-187 630,-217"/>
<text text-anchor="start" x="496" y="-205" font-family="Helvetica,sans-Serif" font-size="10.00">alps_cmn/communication</text>
<text text-anchor="middle" x="559" y="-194" font-family="Helvetica,sans-Serif" font-size="10.00">/cobs.hpp</text>
</a>
</g>
</g>
<!-- Node1&#45;&gt;Node9 -->
<g id="edge8" class="edge">
<title>Node1&#45;&gt;Node9</title>
<path fill="none" stroke="#63b8ff" d="M559,-252.77C559,-244.85 559,-235.63 559,-227.3"/>
<polygon fill="#63b8ff" stroke="#63b8ff" points="562.5,-227.04 559,-217.04 555.5,-227.04 562.5,-227.04"/>
</g>
<!-- Node15 -->
<g id="node15" class="node">
<title>Node15</title>
<g id="a_node15"><a xlink:href="data__serializer_8hpp.html" target="_top" xlink:title="データとバイト列の変換ライブラリ">
<polygon fill="white" stroke="#666666" points="932,-217 790,-217 790,-187 932,-187 932,-217"/>
<text text-anchor="start" x="798" y="-205" font-family="Helvetica,sans-Serif" font-size="10.00">alps_cmn/communication</text>
<text text-anchor="middle" x="861" y="-194" font-family="Helvetica,sans-Serif" font-size="10.00">/data_serializer.hpp</text>
</a>
</g>
</g>
<!-- Node1&#45;&gt;Node15 -->
<g id="edge14" class="edge">
<title>Node1&#45;&gt;Node15</title>
<path fill="none" stroke="#63b8ff" d="M643.93,-252.96C690.06,-242.34 746.43,-229.37 790.17,-219.3"/>
<polygon fill="#63b8ff" stroke="#63b8ff" points="791.19,-222.66 800.15,-217 789.62,-215.84 791.19,-222.66"/>
</g>
<!-- Node3 -->
<g id="node3" class="node">
<title>Node3</title>
<g id="a_node3"><a xlink:href="i__can__io_8hpp.html" target="_top" xlink:title=" ">
<polygon fill="white" stroke="#666666" points="380,-151 238,-151 238,-121 380,-121 380,-151"/>
<text text-anchor="start" x="246" y="-139" font-family="Helvetica,sans-Serif" font-size="10.00">alps_cmn/communication</text>
<text text-anchor="middle" x="309" y="-128" font-family="Helvetica,sans-Serif" font-size="10.00">/i_can_io.hpp</text>
</a>
</g>
</g>
<!-- Node2&#45;&gt;Node3 -->
<g id="edge2" class="edge">
<title>Node2&#45;&gt;Node3</title>
<path fill="none" stroke="#63b8ff" d="M258.43,-186.8C266.93,-178.43 277.84,-167.68 287.36,-158.31"/>
<polygon fill="#63b8ff" stroke="#63b8ff" points="289.94,-160.67 294.61,-151.16 285.03,-155.69 289.94,-160.67"/>
</g>
<!-- Node7 -->
<g id="node7" class="node">
<title>Node7</title>
<g id="a_node7"><a xlink:title=" ">
<polygon fill="#e0e0e0" stroke="#999999" points="220,-145.5 136,-145.5 136,-126.5 220,-126.5 220,-145.5"/>
<text text-anchor="middle" x="178" y="-133.5" font-family="Helvetica,sans-Serif" font-size="10.00">etl/delegate.h</text>
</a>
</g>
</g>
<!-- Node2&#45;&gt;Node7 -->
<g id="edge6" class="edge">
<title>Node2&#45;&gt;Node7</title>
<path fill="none" stroke="#63b8ff" d="M229.35,-186.8C219.06,-176.82 205.28,-163.46 194.59,-153.09"/>
<polygon fill="#63b8ff" stroke="#63b8ff" points="196.74,-150.29 187.12,-145.84 191.86,-155.32 196.74,-150.29"/>
</g>
<!-- Node8 -->
<g id="node8" class="node">
<title>Node8</title>
<g id="a_node8"><a xlink:title=" ">
<polygon fill="#e0e0e0" stroke="#999999" points="118,-145.5 0,-145.5 0,-126.5 118,-126.5 118,-145.5"/>
<text text-anchor="middle" x="59" y="-133.5" font-family="Helvetica,sans-Serif" font-size="10.00">etl/unordered_map.h</text>
</a>
</g>
</g>
<!-- Node2&#45;&gt;Node8 -->
<g id="edge7" class="edge">
<title>Node2&#45;&gt;Node8</title>
<path fill="none" stroke="#63b8ff" d="M203.4,-186.95C170.39,-175.53 124.33,-159.6 93.18,-148.82"/>
<polygon fill="#63b8ff" stroke="#63b8ff" points="94.22,-145.48 83.62,-145.52 91.93,-152.09 94.22,-145.48"/>
</g>
<!-- Node4 -->
<g id="node4" class="node">
<title>Node4</title>
<g id="a_node4"><a xlink:href="can__data__frame_8hpp.html" target="_top" xlink:title="CANフレームを表す構造体">
<polygon fill="white" stroke="#666666" points="803,-85 661,-85 661,-55 803,-55 803,-85"/>
<text text-anchor="start" x="669" y="-73" font-family="Helvetica,sans-Serif" font-size="10.00">alps_cmn/communication</text>
<text text-anchor="middle" x="732" y="-62" font-family="Helvetica,sans-Serif" font-size="10.00">/can_data_frame.hpp</text>
</a>
</g>
</g>
<!-- Node3&#45;&gt;Node4 -->
<g id="edge3" class="edge">
<title>Node3&#45;&gt;Node4</title>
<path fill="none" stroke="#63b8ff" d="M380.08,-122.45C383.09,-121.95 386.08,-121.47 389,-121 478.48,-106.65 581.38,-91.88 650.95,-82.15"/>
<polygon fill="#63b8ff" stroke="#63b8ff" points="651.54,-85.6 660.96,-80.75 650.57,-78.67 651.54,-85.6"/>
</g>
<!-- Node5 -->
<g id="node5" class="node">
<title>Node5</title>
<g id="a_node5"><a xlink:title=" ">
<polygon fill="#e0e0e0" stroke="#999999" points="851.5,-19 798.5,-19 798.5,0 851.5,0 851.5,-19"/>
<text text-anchor="middle" x="825" y="-7" font-family="Helvetica,sans-Serif" font-size="10.00">stdint.h</text>
</a>
</g>
</g>
<!-- Node4&#45;&gt;Node5 -->
<g id="edge4" class="edge">
<title>Node4&#45;&gt;Node5</title>
<path fill="none" stroke="#63b8ff" d="M754.51,-54.84C769.06,-45.68 787.93,-33.82 802.49,-24.66"/>
<polygon fill="#63b8ff" stroke="#63b8ff" points="804.74,-27.38 811.34,-19.09 801.01,-21.46 804.74,-27.38"/>
</g>
<!-- Node6 -->
<g id="node6" class="node">
<title>Node6</title>
<g id="a_node6"><a xlink:title=" ">
<polygon fill="#e0e0e0" stroke="#999999" points="1041,-19 969,-19 969,0 1041,0 1041,-19"/>
<text text-anchor="middle" x="1005" y="-7" font-family="Helvetica,sans-Serif" font-size="10.00">etl/vector.h</text>
</a>
</g>
</g>
<!-- Node4&#45;&gt;Node6 -->
<g id="edge5" class="edge">
<title>Node4&#45;&gt;Node6</title>
<path fill="none" stroke="#63b8ff" d="M797.39,-54.99C847.29,-44.29 914.79,-29.83 959.09,-20.34"/>
<polygon fill="#63b8ff" stroke="#63b8ff" points="959.95,-23.73 969,-18.22 958.48,-16.89 959.95,-23.73"/>
</g>
<!-- Node10 -->
<g id="node10" class="node">
<title>Node10</title>
<g id="a_node10"><a xlink:title=" ">
<polygon fill="#e0e0e0" stroke="#999999" points="518,-145.5 466,-145.5 466,-126.5 518,-126.5 518,-145.5"/>
<text text-anchor="middle" x="492" y="-133.5" font-family="Helvetica,sans-Serif" font-size="10.00">cassert</text>
</a>
</g>
</g>
<!-- Node9&#45;&gt;Node10 -->
<g id="edge9" class="edge">
<title>Node9&#45;&gt;Node10</title>
<path fill="none" stroke="#63b8ff" d="M544.13,-186.8C533.58,-176.72 519.42,-163.19 508.52,-152.78"/>
<polygon fill="#63b8ff" stroke="#63b8ff" points="510.91,-150.22 501.26,-145.84 506.07,-155.28 510.91,-150.22"/>
</g>
<!-- Node11 -->
<g id="node11" class="node">
<title>Node11</title>
<g id="a_node11"><a xlink:title=" ">
<polygon fill="#e0e0e0" stroke="#999999" points="780,-145.5 730,-145.5 730,-126.5 780,-126.5 780,-145.5"/>
<text text-anchor="middle" x="755" y="-133.5" font-family="Helvetica,sans-Serif" font-size="10.00">cstdint</text>
</a>
</g>
</g>
<!-- Node9&#45;&gt;Node11 -->
<g id="edge10" class="edge">
<title>Node9&#45;&gt;Node11</title>
<path fill="none" stroke="#63b8ff" d="M608.66,-186.95C640.92,-177.51 683.74,-164.39 721,-151 722.43,-150.49 723.88,-149.95 725.35,-149.39"/>
<polygon fill="#63b8ff" stroke="#63b8ff" points="726.96,-152.52 734.98,-145.6 724.4,-146.01 726.96,-152.52"/>
</g>
<!-- Node12 -->
<g id="node12" class="node">
<title>Node12</title>
<g id="a_node12"><a xlink:title=" ">
<polygon fill="#e0e0e0" stroke="#999999" points="582,-145.5 536,-145.5 536,-126.5 582,-126.5 582,-145.5"/>
<text text-anchor="middle" x="559" y="-133.5" font-family="Helvetica,sans-Serif" font-size="10.00">cstdio</text>
</a>
</g>
</g>
<!-- Node9&#45;&gt;Node12 -->
<g id="edge11" class="edge">
<title>Node9&#45;&gt;Node12</title>
<path fill="none" stroke="#63b8ff" d="M559,-186.8C559,-177.7 559,-165.79 559,-155.9"/>
<polygon fill="#63b8ff" stroke="#63b8ff" points="562.5,-155.84 559,-145.84 555.5,-155.84 562.5,-155.84"/>
</g>
<!-- Node13 -->
<g id="node13" class="node">
<title>Node13</title>
<g id="a_node13"><a xlink:title=" ">
<polygon fill="#e0e0e0" stroke="#999999" points="447.5,-145.5 398.5,-145.5 398.5,-126.5 447.5,-126.5 447.5,-145.5"/>
<text text-anchor="middle" x="423" y="-133.5" font-family="Helvetica,sans-Serif" font-size="10.00">cstdlib</text>
</a>
</g>
</g>
<!-- Node9&#45;&gt;Node13 -->
<g id="edge12" class="edge">
<title>Node9&#45;&gt;Node13</title>
<path fill="none" stroke="#63b8ff" d="M529.15,-186.95C505.62,-175.88 473.07,-160.56 450.23,-149.82"/>
<polygon fill="#63b8ff" stroke="#63b8ff" points="451.64,-146.61 441.1,-145.52 448.66,-152.94 451.64,-146.61"/>
</g>
<!-- Node14 -->
<g id="node14" class="node">
<title>Node14</title>
<g id="a_node14"><a xlink:title=" ">
<polygon fill="#e0e0e0" stroke="#999999" points="712,-145.5 600,-145.5 600,-126.5 712,-126.5 712,-145.5"/>
<text text-anchor="middle" x="656" y="-133.5" font-family="Helvetica,sans-Serif" font-size="10.00">etl/circular_buffer.h</text>
</a>
</g>
</g>
<!-- Node9&#45;&gt;Node14 -->
<g id="edge13" class="edge">
<title>Node9&#45;&gt;Node14</title>
<path fill="none" stroke="#63b8ff" d="M580.53,-186.8C596.48,-176.27 618.15,-161.97 634.18,-151.4"/>
<polygon fill="#63b8ff" stroke="#63b8ff" points="636.46,-154.09 642.88,-145.66 632.6,-148.24 636.46,-154.09"/>
</g>
<!-- Node15&#45;&gt;Node11 -->
<g id="edge17" class="edge">
<title>Node15&#45;&gt;Node11</title>
<path fill="none" stroke="#63b8ff" d="M837.74,-186.95C819.89,-176.18 795.38,-161.38 777.67,-150.69"/>
<polygon fill="#63b8ff" stroke="#63b8ff" points="779.48,-147.69 769.11,-145.52 775.86,-153.68 779.48,-147.69"/>
</g>
<!-- Node15&#45;&gt;Node14 -->
<g id="edge28" class="edge">
<title>Node15&#45;&gt;Node14</title>
<path fill="none" stroke="#63b8ff" d="M816.01,-186.95C779.11,-175.43 727.5,-159.32 692.98,-148.54"/>
<polygon fill="#63b8ff" stroke="#63b8ff" points="693.87,-145.16 683.28,-145.52 691.78,-151.84 693.87,-145.16"/>
</g>
<!-- Node16 -->
<g id="node16" class="node">
<title>Node16</title>
<g id="a_node16"><a xlink:title=" ">
<polygon fill="#e0e0e0" stroke="#999999" points="1194,-145.5 1130,-145.5 1130,-126.5 1194,-126.5 1194,-145.5"/>
<text text-anchor="middle" x="1162" y="-133.5" font-family="Helvetica,sans-Serif" font-size="10.00">algorithm</text>
</a>
</g>
</g>
<!-- Node15&#45;&gt;Node16 -->
<g id="edge15" class="edge">
<title>Node15&#45;&gt;Node16</title>
<path fill="none" stroke="#63b8ff" d="M932.23,-190.05C984.82,-181.3 1057.91,-167.75 1121,-151 1123.64,-150.3 1126.35,-149.52 1129.06,-148.69"/>
<polygon fill="#63b8ff" stroke="#63b8ff" points="1130.31,-151.96 1138.76,-145.56 1128.16,-145.3 1130.31,-151.96"/>
</g>
<!-- Node17 -->
<g id="node17" class="node">
<title>Node17</title>
<g id="a_node17"><a xlink:title=" ">
<polygon fill="#e0e0e0" stroke="#999999" points="1208,-79.5 1166,-79.5 1166,-60.5 1208,-60.5 1208,-79.5"/>
<text text-anchor="middle" x="1187" y="-67.5" font-family="Helvetica,sans-Serif" font-size="10.00">array</text>
</a>
</g>
</g>
<!-- Node15&#45;&gt;Node17 -->
<g id="edge16" class="edge">
<title>Node15&#45;&gt;Node17</title>
<path fill="none" stroke="#63b8ff" d="M932.12,-201.07C1021.87,-199.48 1168.71,-190.66 1203,-151 1218.01,-133.64 1207.61,-106.22 1197.96,-88.42"/>
<polygon fill="#63b8ff" stroke="#63b8ff" points="1200.9,-86.51 1192.83,-79.64 1194.85,-90.04 1200.9,-86.51"/>
</g>
<!-- Node18 -->
<g id="node18" class="node">
<title>Node18</title>
<g id="a_node18"><a xlink:title=" ">
<polygon fill="#e0e0e0" stroke="#999999" points="886,-145.5 836,-145.5 836,-126.5 886,-126.5 886,-145.5"/>
<text text-anchor="middle" x="861" y="-133.5" font-family="Helvetica,sans-Serif" font-size="10.00">cstring</text>
</a>
</g>
</g>
<!-- Node15&#45;&gt;Node18 -->
<g id="edge18" class="edge">
<title>Node15&#45;&gt;Node18</title>
<path fill="none" stroke="#63b8ff" d="M861,-186.8C861,-177.7 861,-165.79 861,-155.9"/>
<polygon fill="#63b8ff" stroke="#63b8ff" points="864.5,-155.84 861,-145.84 857.5,-155.84 864.5,-155.84"/>
</g>
<!-- Node19 -->
<g id="node19" class="node">
<title>Node19</title>
<g id="a_node19"><a xlink:title=" ">
<polygon fill="#e0e0e0" stroke="#999999" points="952,-145.5 904,-145.5 904,-126.5 952,-126.5 952,-145.5"/>
<text text-anchor="middle" x="928" y="-133.5" font-family="Helvetica,sans-Serif" font-size="10.00">mutex</text>
</a>
</g>
</g>
<!-- Node15&#45;&gt;Node19 -->
<g id="edge19" class="edge">
<title>Node15&#45;&gt;Node19</title>
<path fill="none" stroke="#63b8ff" d="M875.87,-186.8C886.42,-176.72 900.58,-163.19 911.48,-152.78"/>
<polygon fill="#63b8ff" stroke="#63b8ff" points="913.93,-155.28 918.74,-145.84 909.09,-150.22 913.93,-155.28"/>
</g>
<!-- Node20 -->
<g id="node20" class="node">
<title>Node20</title>
<g id="a_node20"><a xlink:title=" ">
<polygon fill="#e0e0e0" stroke="#999999" points="890.5,-79.5 821.5,-79.5 821.5,-60.5 890.5,-60.5 890.5,-79.5"/>
<text text-anchor="middle" x="856" y="-67.5" font-family="Helvetica,sans-Serif" font-size="10.00">type_traits</text>
</a>
</g>
</g>
<!-- Node15&#45;&gt;Node20 -->
<g id="edge20" class="edge">
<title>Node15&#45;&gt;Node20</title>
<path fill="none" stroke="#63b8ff" d="M848.01,-186.92C840.26,-177.51 831.14,-164.44 827,-151 823.08,-138.26 823.54,-133.88 827,-121 830.21,-109.08 837.03,-97.07 843.25,-87.81"/>
<polygon fill="#63b8ff" stroke="#63b8ff" points="846.16,-89.75 849.11,-79.57 840.46,-85.69 846.16,-89.75"/>
</g>
<!-- Node21 -->
<g id="node21" class="node">
<title>Node21</title>
<g id="a_node21"><a xlink:href="serialize__type__info_8hpp.html" target="_top" xlink:title="DataSeializerで変換する型に関する情報">
<polygon fill="white" stroke="#666666" points="1112,-151 970,-151 970,-121 1112,-121 1112,-151"/>
<text text-anchor="start" x="978" y="-139" font-family="Helvetica,sans-Serif" font-size="10.00">alps_cmn/communication</text>
<text text-anchor="middle" x="1041" y="-128" font-family="Helvetica,sans-Serif" font-size="10.00">/serialize_type_info.hpp</text>
</a>
</g>
</g>
<!-- Node15&#45;&gt;Node21 -->
<g id="edge21" class="edge">
<title>Node15&#45;&gt;Node21</title>
<path fill="none" stroke="#63b8ff" d="M900.5,-186.95C927.47,-177.37 963.37,-164.6 992.13,-154.37"/>
<polygon fill="#63b8ff" stroke="#63b8ff" points="993.34,-157.66 1001.59,-151.01 991,-151.06 993.34,-157.66"/>
</g>
<!-- Node21&#45;&gt;Node5 -->
<g id="edge22" class="edge">
<title>Node21&#45;&gt;Node5</title>
<path fill="none" stroke="#63b8ff" d="M1007.96,-120.84C987.54,-111.6 961.11,-98.73 939,-85 920.42,-73.46 918.1,-67.27 900,-55 883.65,-43.92 864.49,-32.58 849.63,-24.12"/>
<polygon fill="#63b8ff" stroke="#63b8ff" points="850.99,-20.87 840.56,-19.01 847.55,-26.97 850.99,-20.87"/>
</g>
<!-- Node21&#45;&gt;Node6 -->
<g id="edge27" class="edge">
<title>Node21&#45;&gt;Node6</title>
<path fill="none" stroke="#63b8ff" d="M1058.12,-120.99C1075.61,-104.91 1098.42,-77.82 1085,-55 1076.26,-40.14 1060.56,-29.88 1045.37,-22.99"/>
<polygon fill="#63b8ff" stroke="#63b8ff" points="1046.62,-19.72 1036.05,-19.13 1043.94,-26.19 1046.62,-19.72"/>
</g>
<!-- Node21&#45;&gt;Node17 -->
<g id="edge23" class="edge">
<title>Node21&#45;&gt;Node17</title>
<path fill="none" stroke="#63b8ff" d="M1073.04,-120.95C1098.42,-109.83 1133.56,-94.42 1158.09,-83.67"/>
<polygon fill="#63b8ff" stroke="#63b8ff" points="1159.82,-86.74 1167.57,-79.52 1157.01,-80.33 1159.82,-86.74"/>
</g>
<!-- Node21&#45;&gt;Node20 -->
<g id="edge25" class="edge">
<title>Node21&#45;&gt;Node20</title>
<path fill="none" stroke="#63b8ff" d="M1000.4,-120.95C967.39,-109.53 921.33,-93.6 890.18,-82.82"/>
<polygon fill="#63b8ff" stroke="#63b8ff" points="891.22,-79.48 880.62,-79.52 888.93,-86.09 891.22,-79.48"/>
</g>
<!-- Node22 -->
<g id="node22" class="node">
<title>Node22</title>
<g id="a_node22"><a xlink:title=" ">
<polygon fill="#e0e0e0" stroke="#999999" points="988.5,-79.5 947.5,-79.5 947.5,-60.5 988.5,-60.5 988.5,-79.5"/>
<text text-anchor="middle" x="968" y="-67.5" font-family="Helvetica,sans-Serif" font-size="10.00">tuple</text>
</a>
</g>
</g>
<!-- Node21&#45;&gt;Node22 -->
<g id="edge24" class="edge">
<title>Node21&#45;&gt;Node22</title>
<path fill="none" stroke="#63b8ff" d="M1024.8,-120.8C1013.2,-110.62 997.58,-96.93 985.66,-86.48"/>
<polygon fill="#63b8ff" stroke="#63b8ff" points="987.91,-83.8 978.09,-79.84 983.3,-89.07 987.91,-83.8"/>
</g>
<!-- Node23 -->
<g id="node23" class="node">
<title>Node23</title>
<g id="a_node23"><a xlink:title=" ">
<polygon fill="#e0e0e0" stroke="#999999" points="1075.5,-79.5 1006.5,-79.5 1006.5,-60.5 1075.5,-60.5 1075.5,-79.5"/>
<text text-anchor="middle" x="1041" y="-67.5" font-family="Helvetica,sans-Serif" font-size="10.00">etl/string.h</text>
</a>
</g>
</g>
<!-- Node21&#45;&gt;Node23 -->
<g id="edge26" class="edge">
<title>Node21&#45;&gt;Node23</title>
<path fill="none" stroke="#63b8ff" d="M1041,-120.8C1041,-111.7 1041,-99.79 1041,-89.9"/>
<polygon fill="#63b8ff" stroke="#63b8ff" points="1044.5,-89.84 1041,-79.84 1037.5,-89.84 1044.5,-89.84"/>
</g>
</g>
</svg>
