<?xml version="1.0" encoding="UTF-8" standalone="no"?>
<!DOCTYPE svg PUBLIC "-//W3C//DTD SVG 1.1//EN"
 "http://www.w3.org/Graphics/SVG/1.1/DTD/svg11.dtd">
<!-- Generated by graphviz version 2.43.0 (0)
 -->
<!-- Title: alps_common_lib/include/alps_cmn/communication/can_typed_data_transceiver.hpp Pages: 1 -->
<svg width="1217pt" height="307pt"
 viewBox="0.00 0.00 1217.05 307.00" xmlns="http://www.w3.org/2000/svg" xmlns:xlink="http://www.w3.org/1999/xlink">
<g id="graph0" class="graph" transform="scale(1 1) rotate(0) translate(4 303)">
<title>alps_common_lib/include/alps_cmn/communication/can_typed_data_transceiver.hpp</title>
<polygon fill="white" stroke="transparent" points="-4,4 -4,-303 1213.05,-303 1213.05,4 -4,4"/>
<!-- Node1 -->
<g id="node1" class="node">
<title>Node1</title>
<g id="a_node1"><a xlink:title="CAN通信で型付けされたデータの送受信を行うライブラリ">
<polygon fill="#bfbfbf" stroke="black" points="470.5,-257.5 470.5,-298.5 647.5,-298.5 647.5,-257.5 470.5,-257.5"/>
<text text-anchor="start" x="478.5" y="-286.5" font-family="Helvetica,sans-Serif" font-size="10.00">alps_common_lib/include</text>
<text text-anchor="start" x="478.5" y="-275.5" font-family="Helvetica,sans-Serif" font-size="10.00">/alps_cmn/communication</text>
<text text-anchor="middle" x="559" y="-264.5" font-family="Helvetica,sans-Serif" font-size="10.00">/can_typed_data_transceiver.hpp</text>
</a>
</g>
</g>
<!-- Node2 -->
<g id="node2" class="node">
<title>Node2</title>
<g id="a_node2"><a xlink:href="can__callback__handler_8hpp.html" target="_top" xlink:title="CANデータフレームをコールバックで処理するためのライブラリ">
<polygon fill="white" stroke="black" points="171.5,-190.5 171.5,-220.5 316.5,-220.5 316.5,-190.5 171.5,-190.5"/>
<text text-anchor="start" x="179.5" y="-208.5" font-family="Helvetica,sans-Serif" font-size="10.00">alps_cmn/communication</text>
<text text-anchor="middle" x="244" y="-197.5" font-family="Helvetica,sans-Serif" font-size="10.00">/can_callback_handler.hpp</text>
</a>
</g>
</g>
<!-- Node1&#45;&gt;Node2 -->
<g id="edge1" class="edge">
<title>Node1&#45;&gt;Node2</title>
<path fill="none" stroke="midnightblue" d="M471.67,-257.46C422.99,-246.56 363.06,-233.15 316.91,-222.82"/>
<polygon fill="midnightblue" stroke="midnightblue" points="317.51,-219.37 306.99,-220.6 315.98,-226.2 317.51,-219.37"/>
</g>
<!-- Node9 -->
<g id="node9" class="node">
<title>Node9</title>
<g id="a_node9"><a xlink:href="cobs_8hpp.html" target="_top" xlink:title="COBS変換ライブラリ">
<polygon fill="white" stroke="black" points="488,-190.5 488,-220.5 630,-220.5 630,-190.5 488,-190.5"/>
<text text-anchor="start" x="496" y="-208.5" font-family="Helvetica,sans-Serif" font-size="10.00">alps_cmn/communication</text>
<text text-anchor="middle" x="559" y="-197.5" font-family="Helvetica,sans-Serif" font-size="10.00">/cobs.hpp</text>
</a>
</g>
</g>
<!-- Node1&#45;&gt;Node9 -->
<g id="edge8" class="edge">
<title>Node1&#45;&gt;Node9</title>
<path fill="none" stroke="midnightblue" d="M559,-257.36C559,-249.23 559,-239.7 559,-231.11"/>
<polygon fill="midnightblue" stroke="midnightblue" points="562.5,-230.89 559,-220.89 555.5,-230.89 562.5,-230.89"/>
</g>
<!-- Node15 -->
<g id="node15" class="node">
<title>Node15</title>
<g id="a_node15"><a xlink:href="data__serializer_8hpp.html" target="_top" xlink:title="データとバイト列の変換ライブラリ">
<polygon fill="white" stroke="black" points="788,-190.5 788,-220.5 930,-220.5 930,-190.5 788,-190.5"/>
<text text-anchor="start" x="796" y="-208.5" font-family="Helvetica,sans-Serif" font-size="10.00">alps_cmn/communication</text>
<text text-anchor="middle" x="859" y="-197.5" font-family="Helvetica,sans-Serif" font-size="10.00">/data_serializer.hpp</text>
</a>
</g>
</g>
<!-- Node1&#45;&gt;Node15 -->
<g id="edge14" class="edge">
<title>Node1&#45;&gt;Node15</title>
<path fill="none" stroke="midnightblue" d="M642.17,-257.46C688.34,-246.61 745.13,-233.26 789.01,-222.95"/>
<polygon fill="midnightblue" stroke="midnightblue" points="790.08,-226.29 799.01,-220.6 788.48,-219.48 790.08,-226.29"/>
</g>
<!-- Node3 -->
<g id="node3" class="node">
<title>Node3</title>
<g id="a_node3"><a xlink:href="i__can__io_8hpp.html" target="_top" xlink:title=" ">
<polygon fill="white" stroke="black" points="238,-123.5 238,-153.5 380,-153.5 380,-123.5 238,-123.5"/>
<text text-anchor="start" x="246" y="-141.5" font-family="Helvetica,sans-Serif" font-size="10.00">alps_cmn/communication</text>
<text text-anchor="middle" x="309" y="-130.5" font-family="Helvetica,sans-Serif" font-size="10.00">/i_can_io.hpp</text>
</a>
</g>
</g>
<!-- Node2&#45;&gt;Node3 -->
<g id="edge2" class="edge">
<title>Node2&#45;&gt;Node3</title>
<path fill="none" stroke="midnightblue" d="M258.1,-190.4C266.79,-181.71 278.1,-170.4 287.84,-160.66"/>
<polygon fill="midnightblue" stroke="midnightblue" points="290.33,-163.12 294.92,-153.58 285.38,-158.17 290.33,-163.12"/>
</g>
<!-- Node7 -->
<g id="node7" class="node">
<title>Node7</title>
<g id="a_node7"><a xlink:title=" ">
<polygon fill="white" stroke="#bfbfbf" points="136,-129 136,-148 220,-148 220,-129 136,-129"/>
<text text-anchor="middle" x="178" y="-136" font-family="Helvetica,sans-Serif" font-size="10.00">etl/delegate.h</text>
</a>
</g>
</g>
<!-- Node2&#45;&gt;Node7 -->
<g id="edge6" class="edge">
<title>Node2&#45;&gt;Node7</title>
<path fill="none" stroke="midnightblue" d="M229.68,-190.4C219.18,-180.06 204.93,-166.02 194.05,-155.31"/>
<polygon fill="midnightblue" stroke="midnightblue" points="196.41,-152.72 186.83,-148.19 191.5,-157.71 196.41,-152.72"/>
</g>
<!-- Node8 -->
<g id="node8" class="node">
<title>Node8</title>
<g id="a_node8"><a xlink:title=" ">
<polygon fill="white" stroke="#bfbfbf" points="0,-129 0,-148 118,-148 118,-129 0,-129"/>
<text text-anchor="middle" x="59" y="-136" font-family="Helvetica,sans-Serif" font-size="10.00">etl/unordered_map.h</text>
</a>
</g>
</g>
<!-- Node2&#45;&gt;Node8 -->
<g id="edge7" class="edge">
<title>Node2&#45;&gt;Node8</title>
<path fill="none" stroke="midnightblue" d="M203.86,-190.4C170.68,-178.74 124.1,-162.37 92.8,-151.38"/>
<polygon fill="midnightblue" stroke="midnightblue" points="93.81,-148.02 83.21,-148.01 91.49,-154.62 93.81,-148.02"/>
</g>
<!-- Node4 -->
<g id="node4" class="node">
<title>Node4</title>
<g id="a_node4"><a xlink:href="can__data__frame_8hpp.html" target="_top" xlink:title="CANフレームを表す構造体">
<polygon fill="white" stroke="black" points="659,-56.5 659,-86.5 801,-86.5 801,-56.5 659,-56.5"/>
<text text-anchor="start" x="667" y="-74.5" font-family="Helvetica,sans-Serif" font-size="10.00">alps_cmn/communication</text>
<text text-anchor="middle" x="730" y="-63.5" font-family="Helvetica,sans-Serif" font-size="10.00">/can_data_frame.hpp</text>
</a>
</g>
</g>
<!-- Node3&#45;&gt;Node4 -->
<g id="edge3" class="edge">
<title>Node3&#45;&gt;Node4</title>
<path fill="none" stroke="midnightblue" d="M380.08,-124.49C383.09,-123.98 386.08,-123.48 389,-123 477.65,-108.41 579.59,-93.56 648.75,-83.78"/>
<polygon fill="midnightblue" stroke="midnightblue" points="649.29,-87.24 658.71,-82.38 648.32,-80.31 649.29,-87.24"/>
</g>
<!-- Node5 -->
<g id="node5" class="node">
<title>Node5</title>
<g id="a_node5"><a xlink:title=" ">
<polygon fill="white" stroke="#bfbfbf" points="796.5,-0.5 796.5,-19.5 849.5,-19.5 849.5,-0.5 796.5,-0.5"/>
<text text-anchor="middle" x="823" y="-7.5" font-family="Helvetica,sans-Serif" font-size="10.00">stdint.h</text>
</a>
</g>
</g>
<!-- Node4&#45;&gt;Node5 -->
<g id="edge4" class="edge">
<title>Node4&#45;&gt;Node5</title>
<path fill="none" stroke="midnightblue" d="M752.04,-56.4C766.81,-46.95 786.18,-34.56 800.95,-25.11"/>
<polygon fill="midnightblue" stroke="midnightblue" points="802.93,-28 809.47,-19.66 799.16,-22.1 802.93,-28"/>
</g>
<!-- Node6 -->
<g id="node6" class="node">
<title>Node6</title>
<g id="a_node6"><a xlink:title=" ">
<polygon fill="white" stroke="#bfbfbf" points="966.5,-0.5 966.5,-19.5 1037.5,-19.5 1037.5,-0.5 966.5,-0.5"/>
<text text-anchor="middle" x="1002" y="-7.5" font-family="Helvetica,sans-Serif" font-size="10.00">etl/vector.h</text>
</a>
</g>
</g>
<!-- Node4&#45;&gt;Node6 -->
<g id="edge5" class="edge">
<title>Node4&#45;&gt;Node6</title>
<path fill="none" stroke="midnightblue" d="M794.12,-56.47C843.95,-45.57 911.85,-30.72 956.29,-21"/>
<polygon fill="midnightblue" stroke="midnightblue" points="957.21,-24.38 966.23,-18.82 955.71,-17.54 957.21,-24.38"/>
</g>
<!-- Node10 -->
<g id="node10" class="node">
<title>Node10</title>
<g id="a_node10"><a xlink:title=" ">
<polygon fill="white" stroke="#bfbfbf" points="466,-129 466,-148 518,-148 518,-129 466,-129"/>
<text text-anchor="middle" x="492" y="-136" font-family="Helvetica,sans-Serif" font-size="10.00">cassert</text>
</a>
</g>
</g>
<!-- Node9&#45;&gt;Node10 -->
<g id="edge9" class="edge">
<title>Node9&#45;&gt;Node10</title>
<path fill="none" stroke="midnightblue" d="M544.46,-190.4C533.81,-180.06 519.34,-166.02 508.3,-155.31"/>
<polygon fill="midnightblue" stroke="midnightblue" points="510.58,-152.65 500.96,-148.19 505.7,-157.67 510.58,-152.65"/>
</g>
<!-- Node11 -->
<g id="node11" class="node">
<title>Node11</title>
<g id="a_node11"><a xlink:title=" ">
<polygon fill="white" stroke="#bfbfbf" points="728,-129 728,-148 778,-148 778,-129 728,-129"/>
<text text-anchor="middle" x="753" y="-136" font-family="Helvetica,sans-Serif" font-size="10.00">cstdint</text>
</a>
</g>
</g>
<!-- Node9&#45;&gt;Node11 -->
<g id="edge10" class="edge">
<title>Node9&#45;&gt;Node11</title>
<path fill="none" stroke="midnightblue" d="M607.73,-190.47C639.64,-180.94 682.12,-167.65 719,-154 720.66,-153.39 722.35,-152.74 724.05,-152.07"/>
<polygon fill="midnightblue" stroke="midnightblue" points="725.79,-155.14 733.71,-148.11 723.13,-148.66 725.79,-155.14"/>
</g>
<!-- Node12 -->
<g id="node12" class="node">
<title>Node12</title>
<g id="a_node12"><a xlink:title=" ">
<polygon fill="white" stroke="#bfbfbf" points="536,-129 536,-148 582,-148 582,-129 536,-129"/>
<text text-anchor="middle" x="559" y="-136" font-family="Helvetica,sans-Serif" font-size="10.00">cstdio</text>
</a>
</g>
</g>
<!-- Node9&#45;&gt;Node12 -->
<g id="edge11" class="edge">
<title>Node9&#45;&gt;Node12</title>
<path fill="none" stroke="midnightblue" d="M559,-190.4C559,-181.06 559,-168.71 559,-158.52"/>
<polygon fill="midnightblue" stroke="midnightblue" points="562.5,-158.19 559,-148.19 555.5,-158.19 562.5,-158.19"/>
</g>
<!-- Node13 -->
<g id="node13" class="node">
<title>Node13</title>
<g id="a_node13"><a xlink:title=" ">
<polygon fill="white" stroke="#bfbfbf" points="398.5,-129 398.5,-148 447.5,-148 447.5,-129 398.5,-129"/>
<text text-anchor="middle" x="423" y="-136" font-family="Helvetica,sans-Serif" font-size="10.00">cstdlib</text>
</a>
</g>
</g>
<!-- Node9&#45;&gt;Node13 -->
<g id="edge12" class="edge">
<title>Node9&#45;&gt;Node13</title>
<path fill="none" stroke="midnightblue" d="M529.49,-190.4C505.84,-179.09 472.92,-163.36 449.97,-152.39"/>
<polygon fill="midnightblue" stroke="midnightblue" points="451.33,-149.16 440.8,-148.01 448.31,-155.48 451.33,-149.16"/>
</g>
<!-- Node14 -->
<g id="node14" class="node">
<title>Node14</title>
<g id="a_node14"><a xlink:title=" ">
<polygon fill="white" stroke="#bfbfbf" points="600,-129 600,-148 710,-148 710,-129 600,-129"/>
<text text-anchor="middle" x="655" y="-136" font-family="Helvetica,sans-Serif" font-size="10.00">etl/circular_buffer.h</text>
</a>
</g>
</g>
<!-- Node9&#45;&gt;Node14 -->
<g id="edge13" class="edge">
<title>Node9&#45;&gt;Node14</title>
<path fill="none" stroke="midnightblue" d="M579.83,-190.4C595.78,-179.6 617.7,-164.76 633.75,-153.89"/>
<polygon fill="midnightblue" stroke="midnightblue" points="636.12,-156.51 642.44,-148.01 632.19,-150.72 636.12,-156.51"/>
</g>
<!-- Node15&#45;&gt;Node11 -->
<g id="edge17" class="edge">
<title>Node15&#45;&gt;Node11</title>
<path fill="none" stroke="midnightblue" d="M836,-190.4C818.06,-179.39 793.28,-164.2 775.48,-153.28"/>
<polygon fill="midnightblue" stroke="midnightblue" points="777.23,-150.25 766.87,-148.01 773.57,-156.22 777.23,-150.25"/>
</g>
<!-- Node15&#45;&gt;Node14 -->
<g id="edge28" class="edge">
<title>Node15&#45;&gt;Node14</title>
<path fill="none" stroke="midnightblue" d="M814.99,-190.48C778.1,-178.72 726.07,-162.14 691.47,-151.12"/>
<polygon fill="midnightblue" stroke="midnightblue" points="692.36,-147.73 681.77,-148.03 690.23,-154.4 692.36,-147.73"/>
</g>
<!-- Node16 -->
<g id="node16" class="node">
<title>Node16</title>
<g id="a_node16"><a xlink:title=" ">
<polygon fill="white" stroke="#bfbfbf" points="1128,-129 1128,-148 1192,-148 1192,-129 1128,-129"/>
<text text-anchor="middle" x="1160" y="-136" font-family="Helvetica,sans-Serif" font-size="10.00">algorithm</text>
</a>
</g>
</g>
<!-- Node15&#45;&gt;Node16 -->
<g id="edge15" class="edge">
<title>Node15&#45;&gt;Node16</title>
<path fill="none" stroke="midnightblue" d="M930.28,-193.58C982.89,-184.82 1056,-171.16 1119,-154 1121.96,-153.19 1125.02,-152.28 1128.07,-151.3"/>
<polygon fill="midnightblue" stroke="midnightblue" points="1129.27,-154.59 1137.63,-148.08 1127.04,-147.96 1129.27,-154.59"/>
</g>
<!-- Node17 -->
<g id="node17" class="node">
<title>Node17</title>
<g id="a_node17"><a xlink:title=" ">
<polygon fill="white" stroke="#bfbfbf" points="1164,-62 1164,-81 1206,-81 1206,-62 1164,-62"/>
<text text-anchor="middle" x="1185" y="-69" font-family="Helvetica,sans-Serif" font-size="10.00">array</text>
</a>
</g>
</g>
<!-- Node15&#45;&gt;Node17 -->
<g id="edge16" class="edge">
<title>Node15&#45;&gt;Node17</title>
<path fill="none" stroke="midnightblue" d="M930.13,-204.46C1019.89,-202.73 1166.73,-193.7 1201,-154 1216.26,-136.32 1205.8,-108.38 1196.06,-90.24"/>
<polygon fill="midnightblue" stroke="midnightblue" points="1198.93,-88.21 1190.89,-81.3 1192.87,-91.71 1198.93,-88.21"/>
</g>
<!-- Node18 -->
<g id="node18" class="node">
<title>Node18</title>
<g id="a_node18"><a xlink:title=" ">
<polygon fill="white" stroke="#bfbfbf" points="834,-129 834,-148 884,-148 884,-129 834,-129"/>
<text text-anchor="middle" x="859" y="-136" font-family="Helvetica,sans-Serif" font-size="10.00">cstring</text>
</a>
</g>
</g>
<!-- Node15&#45;&gt;Node18 -->
<g id="edge18" class="edge">
<title>Node15&#45;&gt;Node18</title>
<path fill="none" stroke="midnightblue" d="M859,-190.4C859,-181.06 859,-168.71 859,-158.52"/>
<polygon fill="midnightblue" stroke="midnightblue" points="862.5,-158.19 859,-148.19 855.5,-158.19 862.5,-158.19"/>
</g>
<!-- Node19 -->
<g id="node19" class="node">
<title>Node19</title>
<g id="a_node19"><a xlink:title=" ">
<polygon fill="white" stroke="#bfbfbf" points="902,-129 902,-148 950,-148 950,-129 902,-129"/>
<text text-anchor="middle" x="926" y="-136" font-family="Helvetica,sans-Serif" font-size="10.00">mutex</text>
</a>
</g>
</g>
<!-- Node15&#45;&gt;Node19 -->
<g id="edge19" class="edge">
<title>Node15&#45;&gt;Node19</title>
<path fill="none" stroke="midnightblue" d="M873.54,-190.4C884.19,-180.06 898.66,-166.02 909.7,-155.31"/>
<polygon fill="midnightblue" stroke="midnightblue" points="912.3,-157.67 917.04,-148.19 907.42,-152.65 912.3,-157.67"/>
</g>
<!-- Node20 -->
<g id="node20" class="node">
<title>Node20</title>
<g id="a_node20"><a xlink:title=" ">
<polygon fill="white" stroke="#bfbfbf" points="819.5,-62 819.5,-81 888.5,-81 888.5,-62 819.5,-62"/>
<text text-anchor="middle" x="854" y="-69" font-family="Helvetica,sans-Serif" font-size="10.00">type_traits</text>
</a>
</g>
</g>
<!-- Node15&#45;&gt;Node20 -->
<g id="edge20" class="edge">
<title>Node15&#45;&gt;Node20</title>
<path fill="none" stroke="midnightblue" d="M846.01,-190.25C838.26,-180.75 829.14,-167.55 825,-154 820.98,-140.82 821.45,-136.31 825,-123 828.2,-110.98 835.02,-98.86 841.25,-89.5"/>
<polygon fill="midnightblue" stroke="midnightblue" points="844.21,-91.36 847.11,-81.17 838.49,-87.33 844.21,-91.36"/>
</g>
<!-- Node21 -->
<g id="node21" class="node">
<title>Node21</title>
<g id="a_node21"><a xlink:href="serialize__type__info_8hpp.html" target="_top" xlink:title="DataSeializerで変換する型に関する情報">
<polygon fill="white" stroke="black" points="968,-123.5 968,-153.5 1110,-153.5 1110,-123.5 968,-123.5"/>
<text text-anchor="start" x="976" y="-141.5" font-family="Helvetica,sans-Serif" font-size="10.00">alps_cmn/communication</text>
<text text-anchor="middle" x="1039" y="-130.5" font-family="Helvetica,sans-Serif" font-size="10.00">/serialize_type_info.hpp</text>
</a>
</g>
</g>
<!-- Node15&#45;&gt;Node21 -->
<g id="edge21" class="edge">
<title>Node15&#45;&gt;Node21</title>
<path fill="none" stroke="midnightblue" d="M898.06,-190.4C925.18,-180.6 961.51,-167.48 990.5,-157.02"/>
<polygon fill="midnightblue" stroke="midnightblue" points="991.8,-160.26 1000.02,-153.58 989.42,-153.68 991.8,-160.26"/>
</g>
<!-- Node21&#45;&gt;Node5 -->
<g id="edge22" class="edge">
<title>Node21&#45;&gt;Node5</title>
<path fill="none" stroke="midnightblue" d="M1006.35,-123.48C985.85,-114.17 959.19,-101.09 937,-87 918.31,-75.13 916.2,-68.61 898,-56 881.72,-44.72 862.56,-33.25 847.68,-24.72"/>
<polygon fill="midnightblue" stroke="midnightblue" points="849.02,-21.45 838.6,-19.56 845.57,-27.54 849.02,-21.45"/>
</g>
<!-- Node21&#45;&gt;Node6 -->
<g id="edge27" class="edge">
<title>Node21&#45;&gt;Node6</title>
<path fill="none" stroke="midnightblue" d="M1055.88,-123.48C1073.47,-107.11 1096.7,-79.28 1083,-56 1074.08,-40.84 1058.01,-30.43 1042.52,-23.46"/>
<polygon fill="midnightblue" stroke="midnightblue" points="1043.6,-20.12 1033.02,-19.56 1040.94,-26.6 1043.6,-20.12"/>
</g>
<!-- Node21&#45;&gt;Node17 -->
<g id="edge23" class="edge">
<title>Node21&#45;&gt;Node17</title>
<path fill="none" stroke="midnightblue" d="M1070.68,-123.4C1096.3,-111.99 1132.04,-96.08 1156.7,-85.1"/>
<polygon fill="midnightblue" stroke="midnightblue" points="1158.18,-88.27 1165.89,-81.01 1155.33,-81.88 1158.18,-88.27"/>
</g>
<!-- Node21&#45;&gt;Node20 -->
<g id="edge25" class="edge">
<title>Node21&#45;&gt;Node20</title>
<path fill="none" stroke="midnightblue" d="M998.86,-123.4C965.68,-111.74 919.1,-95.37 887.8,-84.38"/>
<polygon fill="midnightblue" stroke="midnightblue" points="888.81,-81.02 878.21,-81.01 886.49,-87.62 888.81,-81.02"/>
</g>
<!-- Node22 -->
<g id="node22" class="node">
<title>Node22</title>
<g id="a_node22"><a xlink:title=" ">
<polygon fill="white" stroke="#bfbfbf" points="945.5,-62 945.5,-81 986.5,-81 986.5,-62 945.5,-62"/>
<text text-anchor="middle" x="966" y="-69" font-family="Helvetica,sans-Serif" font-size="10.00">tuple</text>
</a>
</g>
</g>
<!-- Node21&#45;&gt;Node22 -->
<g id="edge24" class="edge">
<title>Node21&#45;&gt;Node22</title>
<path fill="none" stroke="midnightblue" d="M1023.16,-123.4C1011.44,-112.96 995.48,-98.75 983.41,-88"/>
<polygon fill="midnightblue" stroke="midnightblue" points="985.56,-85.23 975.76,-81.19 980.91,-90.46 985.56,-85.23"/>
</g>
<!-- Node23 -->
<g id="node23" class="node">
<title>Node23</title>
<g id="a_node23"><a xlink:title=" ">
<polygon fill="white" stroke="#bfbfbf" points="1004.5,-62 1004.5,-81 1073.5,-81 1073.5,-62 1004.5,-62"/>
<text text-anchor="middle" x="1039" y="-69" font-family="Helvetica,sans-Serif" font-size="10.00">etl/string.h</text>
</a>
</g>
</g>
<!-- Node21&#45;&gt;Node23 -->
<g id="edge26" class="edge">
<title>Node21&#45;&gt;Node23</title>
<path fill="none" stroke="midnightblue" d="M1039,-123.4C1039,-114.06 1039,-101.71 1039,-91.52"/>
<polygon fill="midnightblue" stroke="midnightblue" points="1042.5,-91.19 1039,-81.19 1035.5,-91.19 1042.5,-91.19"/>
</g>
</g>
</svg>
