<?xml version="1.0" encoding="UTF-8" standalone="no"?>
<!DOCTYPE svg PUBLIC "-//W3C//DTD SVG 1.1//EN"
 "http://www.w3.org/Graphics/SVG/1.1/DTD/svg11.dtd">
<!-- Generated by graphviz version 2.43.0 (0)
 -->
<!-- Title: roblab_common_lib/include/roblab_common/serial/can_data_frame.hpp Pages: 1 -->
<svg width="332pt" height="203pt"
 viewBox="0.00 0.00 331.50 203.00" xmlns="http://www.w3.org/2000/svg" xmlns:xlink="http://www.w3.org/1999/xlink">
<g id="graph0" class="graph" transform="scale(1 1) rotate(0) translate(4 199)">
<title>roblab_common_lib/include/roblab_common/serial/can_data_frame.hpp</title>
<!-- Node1 -->
<g id="node1" class="node">
<title>Node1</title>
<g id="a_node1"><a xlink:title="CANフレームを表す構造体">
<polygon fill="#999999" stroke="#666666" points="235,-195 84,-195 84,-154 235,-154 235,-195"/>
<text text-anchor="start" x="92" y="-183" font-family="Helvetica,sans-Serif" font-size="10.00">roblab_common_lib/include</text>
<text text-anchor="start" x="92" y="-172" font-family="Helvetica,sans-Serif" font-size="10.00">/roblab_common/serial/can</text>
<text text-anchor="middle" x="159.5" y="-161" font-family="Helvetica,sans-Serif" font-size="10.00">_data_frame.hpp</text>
</a>
</g>
</g>
<!-- Node2 -->
<g id="node2" class="node">
<title>Node2</title>
<g id="a_node2"><a xlink:href="robomas__motor_8hpp.html" target="_top" xlink:title="ロボマスモータのライブラリ">
<polygon fill="white" stroke="#666666" points="151,-118 0,-118 0,-77 151,-77 151,-118"/>
<text text-anchor="start" x="8" y="-106" font-family="Helvetica,sans-Serif" font-size="10.00">roblab_common_lib/include</text>
<text text-anchor="start" x="8" y="-95" font-family="Helvetica,sans-Serif" font-size="10.00">/roblab_common/actuator</text>
<text text-anchor="middle" x="75.5" y="-84" font-family="Helvetica,sans-Serif" font-size="10.00">/robomas_motor.hpp</text>
</a>
</g>
</g>
<!-- Node1&#45;&gt;Node2 -->
<g id="edge1" class="edge">
<title>Node1&#45;&gt;Node2</title>
<path fill="none" stroke="#63b8ff" d="M129.9,-147.07C119.21,-137.52 107.34,-126.93 97.42,-118.07"/>
<polygon fill="#63b8ff" stroke="#63b8ff" points="127.64,-149.75 137.43,-153.79 132.3,-144.52 127.64,-149.75"/>
</g>
<!-- Node3 -->
<g id="node3" class="node">
<title>Node3</title>
<g id="a_node3"><a xlink:href="i__can__io_8hpp.html" target="_top" xlink:title=" ">
<polygon fill="white" stroke="#666666" points="320,-118 169,-118 169,-77 320,-77 320,-118"/>
<text text-anchor="start" x="177" y="-106" font-family="Helvetica,sans-Serif" font-size="10.00">roblab_common_lib/include</text>
<text text-anchor="start" x="177" y="-95" font-family="Helvetica,sans-Serif" font-size="10.00">/roblab_common/serial/i</text>
<text text-anchor="middle" x="244.5" y="-84" font-family="Helvetica,sans-Serif" font-size="10.00">_can_io.hpp</text>
</a>
</g>
</g>
<!-- Node1&#45;&gt;Node3 -->
<g id="edge2" class="edge">
<title>Node1&#45;&gt;Node3</title>
<path fill="none" stroke="#63b8ff" d="M189.45,-147.07C200.27,-137.52 212.28,-126.93 222.32,-118.07"/>
<polygon fill="#63b8ff" stroke="#63b8ff" points="187.02,-144.55 181.83,-153.79 191.65,-149.8 187.02,-144.55"/>
</g>
<!-- Node4 -->
<g id="node4" class="node">
<title>Node4</title>
<g id="a_node4"><a xlink:href="buffered__can__io_8hpp.html" target="_top" xlink:title="MbedのCAN通信IOクラス">
<polygon fill="white" stroke="#666666" points="323.5,-41 165.5,-41 165.5,0 323.5,0 323.5,-41"/>
<text text-anchor="start" x="173.5" y="-29" font-family="Helvetica,sans-Serif" font-size="10.00">roblab_mbed_lib/include</text>
<text text-anchor="start" x="173.5" y="-18" font-family="Helvetica,sans-Serif" font-size="10.00">/roblab_mbed/serial/buffered</text>
<text text-anchor="middle" x="244.5" y="-7" font-family="Helvetica,sans-Serif" font-size="10.00">_can_io.hpp</text>
</a>
</g>
</g>
<!-- Node3&#45;&gt;Node4 -->
<g id="edge3" class="edge">
<title>Node3&#45;&gt;Node4</title>
<path fill="none" stroke="#63b8ff" d="M244.5,-66.69C244.5,-58.08 244.5,-48.9 244.5,-41.07"/>
<polygon fill="#63b8ff" stroke="#63b8ff" points="241,-66.79 244.5,-76.79 248,-66.79 241,-66.79"/>
</g>
</g>
</svg>
