<?xml version="1.0" encoding="UTF-8" standalone="no"?>
<!DOCTYPE svg PUBLIC "-//W3C//DTD SVG 1.1//EN"
 "http://www.w3.org/Graphics/SVG/1.1/DTD/svg11.dtd">
<!-- Generated by graphviz version 2.43.0 (0)
 -->
<!-- Title: alps_core/lib_internal/alps_common_lib/include/alps_cmn/communication/can_param.hpp Pages: 1 -->
<svg width="1372pt" height="385pt"
 viewBox="0.00 0.00 1372.00 385.00" xmlns="http://www.w3.org/2000/svg" xmlns:xlink="http://www.w3.org/1999/xlink">
<g id="graph0" class="graph" transform="scale(1 1) rotate(0) translate(4 381)">
<title>alps_core/lib_internal/alps_common_lib/include/alps_cmn/communication/can_param.hpp</title>
<polygon fill="white" stroke="transparent" points="-4,4 -4,-381 1368,-381 1368,4 -4,4"/>
<!-- Node1 -->
<g id="node1" class="node">
<title>Node1</title>
<g id="a_node1"><a xlink:title=" ">
<polygon fill="#bfbfbf" stroke="black" points="786.5,-324.5 786.5,-376.5 931.5,-376.5 931.5,-324.5 786.5,-324.5"/>
<text text-anchor="start" x="794.5" y="-364.5" font-family="Helvetica,sans-Serif" font-size="10.00">alps_core/lib_internal</text>
<text text-anchor="start" x="794.5" y="-353.5" font-family="Helvetica,sans-Serif" font-size="10.00">/alps_common_lib/include</text>
<text text-anchor="start" x="794.5" y="-342.5" font-family="Helvetica,sans-Serif" font-size="10.00">/alps_cmn/communication</text>
<text text-anchor="middle" x="859" y="-331.5" font-family="Helvetica,sans-Serif" font-size="10.00">/can_param.hpp</text>
</a>
</g>
</g>
<!-- Node2 -->
<g id="node2" class="node">
<title>Node2</title>
<g id="a_node2"><a xlink:href="can__typed__data__transceiver_8hpp.html" target="_top" xlink:title="CAN通信で型付けされたデータの送受信を行うライブラリ">
<polygon fill="white" stroke="black" points="545.5,-257.5 545.5,-287.5 722.5,-287.5 722.5,-257.5 545.5,-257.5"/>
<text text-anchor="start" x="553.5" y="-275.5" font-family="Helvetica,sans-Serif" font-size="10.00">alps_cmn/communication</text>
<text text-anchor="middle" x="634" y="-264.5" font-family="Helvetica,sans-Serif" font-size="10.00">/can_typed_data_transceiver.hpp</text>
</a>
</g>
</g>
<!-- Node1&#45;&gt;Node2 -->
<g id="edge1" class="edge">
<title>Node1&#45;&gt;Node2</title>
<path fill="none" stroke="midnightblue" d="M786.26,-324.93C753.38,-313.83 715.31,-300.96 685.46,-290.88"/>
<polygon fill="midnightblue" stroke="midnightblue" points="686.26,-287.46 675.67,-287.58 684.02,-294.09 686.26,-287.46"/>
</g>
<!-- Node27 -->
<g id="node27" class="node">
<title>Node27</title>
<g id="a_node27"><a xlink:title=" ">
<polygon fill="white" stroke="#bfbfbf" points="741,-263 741,-282 859,-282 859,-263 741,-263"/>
<text text-anchor="middle" x="800" y="-270" font-family="Helvetica,sans-Serif" font-size="10.00">etl/circular_iterator.h</text>
</a>
</g>
</g>
<!-- Node1&#45;&gt;Node27 -->
<g id="edge33" class="edge">
<title>Node1&#45;&gt;Node27</title>
<path fill="none" stroke="midnightblue" d="M839.35,-324.19C830.73,-313.08 820.84,-300.34 813.13,-290.41"/>
<polygon fill="midnightblue" stroke="midnightblue" points="815.66,-287.96 806.76,-282.21 810.13,-292.25 815.66,-287.96"/>
</g>
<!-- Node28 -->
<g id="node28" class="node">
<title>Node28</title>
<g id="a_node28"><a xlink:title=" ">
<polygon fill="white" stroke="#bfbfbf" points="877.5,-263 877.5,-282 958.5,-282 958.5,-263 877.5,-263"/>
<text text-anchor="middle" x="918" y="-270" font-family="Helvetica,sans-Serif" font-size="10.00">etl/optional.h</text>
</a>
</g>
</g>
<!-- Node1&#45;&gt;Node28 -->
<g id="edge34" class="edge">
<title>Node1&#45;&gt;Node28</title>
<path fill="none" stroke="midnightblue" d="M878.65,-324.19C887.27,-313.08 897.16,-300.34 904.87,-290.41"/>
<polygon fill="midnightblue" stroke="midnightblue" points="907.87,-292.25 911.24,-282.21 902.34,-287.96 907.87,-292.25"/>
</g>
<!-- Node29 -->
<g id="node29" class="node">
<title>Node29</title>
<g id="a_node29"><a xlink:title=" ">
<polygon fill="white" stroke="#bfbfbf" points="977,-263 977,-282 1033,-282 1033,-263 977,-263"/>
<text text-anchor="middle" x="1005" y="-270" font-family="Helvetica,sans-Serif" font-size="10.00">etl/set.h</text>
</a>
</g>
</g>
<!-- Node1&#45;&gt;Node29 -->
<g id="edge35" class="edge">
<title>Node1&#45;&gt;Node29</title>
<path fill="none" stroke="midnightblue" d="M907.21,-324.4C931.34,-311.85 959.56,-297.15 979.47,-286.79"/>
<polygon fill="midnightblue" stroke="midnightblue" points="981.27,-289.8 988.52,-282.08 978.04,-283.59 981.27,-289.8"/>
</g>
<!-- Node3 -->
<g id="node3" class="node">
<title>Node3</title>
<g id="a_node3"><a xlink:href="can__callback__handler_8hpp.html" target="_top" xlink:title="CANデータフレームをコールバックで処理するためのライブラリ">
<polygon fill="white" stroke="black" points="141.5,-190.5 141.5,-220.5 286.5,-220.5 286.5,-190.5 141.5,-190.5"/>
<text text-anchor="start" x="149.5" y="-208.5" font-family="Helvetica,sans-Serif" font-size="10.00">alps_cmn/communication</text>
<text text-anchor="middle" x="214" y="-197.5" font-family="Helvetica,sans-Serif" font-size="10.00">/can_callback_handler.hpp</text>
</a>
</g>
</g>
<!-- Node2&#45;&gt;Node3 -->
<g id="edge2" class="edge">
<title>Node2&#45;&gt;Node3</title>
<path fill="none" stroke="midnightblue" d="M545.44,-257.79C472,-246.43 368.37,-230.39 296.62,-219.29"/>
<polygon fill="midnightblue" stroke="midnightblue" points="297.13,-215.82 286.72,-217.75 296.06,-222.74 297.13,-215.82"/>
</g>
<!-- Node10 -->
<g id="node10" class="node">
<title>Node10</title>
<g id="a_node10"><a xlink:href="cobs_8hpp.html" target="_top" xlink:title="COBS変換ライブラリ">
<polygon fill="white" stroke="black" points="444,-190.5 444,-220.5 586,-220.5 586,-190.5 444,-190.5"/>
<text text-anchor="start" x="452" y="-208.5" font-family="Helvetica,sans-Serif" font-size="10.00">alps_cmn/communication</text>
<text text-anchor="middle" x="515" y="-197.5" font-family="Helvetica,sans-Serif" font-size="10.00">/cobs.hpp</text>
</a>
</g>
</g>
<!-- Node2&#45;&gt;Node10 -->
<g id="edge9" class="edge">
<title>Node2&#45;&gt;Node10</title>
<path fill="none" stroke="midnightblue" d="M608.18,-257.4C591.03,-248.03 568.3,-235.62 549.59,-225.39"/>
<polygon fill="midnightblue" stroke="midnightblue" points="551.22,-222.3 540.77,-220.58 547.87,-228.44 551.22,-222.3"/>
</g>
<!-- Node16 -->
<g id="node16" class="node">
<title>Node16</title>
<g id="a_node16"><a xlink:href="logging__macros_8hpp.html" target="_top" xlink:title=" ">
<polygon fill="white" stroke="black" points="627,-190.5 627,-220.5 747,-220.5 747,-190.5 627,-190.5"/>
<text text-anchor="start" x="635" y="-208.5" font-family="Helvetica,sans-Serif" font-size="10.00">alps_cmn/log/logging</text>
<text text-anchor="middle" x="687" y="-197.5" font-family="Helvetica,sans-Serif" font-size="10.00">_macros.hpp</text>
</a>
</g>
</g>
<!-- Node2&#45;&gt;Node16 -->
<g id="edge15" class="edge">
<title>Node2&#45;&gt;Node16</title>
<path fill="none" stroke="midnightblue" d="M645.5,-257.4C652.38,-248.96 661.26,-238.07 669.04,-228.52"/>
<polygon fill="midnightblue" stroke="midnightblue" points="671.92,-230.54 675.52,-220.58 666.49,-226.11 671.92,-230.54"/>
</g>
<!-- Node19 -->
<g id="node19" class="node">
<title>Node19</title>
<g id="a_node19"><a xlink:href="serializer_8hpp.html" target="_top" xlink:title="データとバイト列の変換ライブラリ">
<polygon fill="white" stroke="black" points="946,-196 946,-215 1102,-215 1102,-196 946,-196"/>
<text text-anchor="middle" x="1024" y="-203" font-family="Helvetica,sans-Serif" font-size="10.00">alps_cmn/type/serializer.hpp</text>
</a>
</g>
</g>
<!-- Node2&#45;&gt;Node19 -->
<g id="edge19" class="edge">
<title>Node2&#45;&gt;Node19</title>
<path fill="none" stroke="midnightblue" d="M718.14,-257.48C791.69,-245.22 896.73,-227.71 962.6,-216.73"/>
<polygon fill="midnightblue" stroke="midnightblue" points="963.54,-220.13 972.83,-215.03 962.39,-213.22 963.54,-220.13"/>
</g>
<!-- Node4 -->
<g id="node4" class="node">
<title>Node4</title>
<g id="a_node4"><a xlink:href="i__can__io_8hpp.html" target="_top" xlink:title=" ">
<polygon fill="white" stroke="black" points="0,-123.5 0,-153.5 142,-153.5 142,-123.5 0,-123.5"/>
<text text-anchor="start" x="8" y="-141.5" font-family="Helvetica,sans-Serif" font-size="10.00">alps_cmn/communication</text>
<text text-anchor="middle" x="71" y="-130.5" font-family="Helvetica,sans-Serif" font-size="10.00">/i_can_io.hpp</text>
</a>
</g>
</g>
<!-- Node3&#45;&gt;Node4 -->
<g id="edge3" class="edge">
<title>Node3&#45;&gt;Node4</title>
<path fill="none" stroke="midnightblue" d="M182.97,-190.4C161.98,-180.86 134.06,-168.16 111.35,-157.84"/>
<polygon fill="midnightblue" stroke="midnightblue" points="112.52,-154.53 101.97,-153.58 109.62,-160.9 112.52,-154.53"/>
</g>
<!-- Node8 -->
<g id="node8" class="node">
<title>Node8</title>
<g id="a_node8"><a xlink:title=" ">
<polygon fill="white" stroke="#bfbfbf" points="588,-62 588,-81 672,-81 672,-62 588,-62"/>
<text text-anchor="middle" x="630" y="-69" font-family="Helvetica,sans-Serif" font-size="10.00">etl/delegate.h</text>
</a>
</g>
</g>
<!-- Node3&#45;&gt;Node8 -->
<g id="edge7" class="edge">
<title>Node3&#45;&gt;Node8</title>
<path fill="none" stroke="midnightblue" d="M202.45,-190.38C189.37,-172.61 171.96,-142.11 189,-123 214.5,-94.41 466.43,-79.77 577.67,-74.65"/>
<polygon fill="midnightblue" stroke="midnightblue" points="578.15,-78.14 587.98,-74.19 577.83,-71.14 578.15,-78.14"/>
</g>
<!-- Node9 -->
<g id="node9" class="node">
<title>Node9</title>
<g id="a_node9"><a xlink:title=" ">
<polygon fill="white" stroke="#bfbfbf" points="198,-129 198,-148 316,-148 316,-129 198,-129"/>
<text text-anchor="middle" x="257" y="-136" font-family="Helvetica,sans-Serif" font-size="10.00">etl/unordered_map.h</text>
</a>
</g>
</g>
<!-- Node3&#45;&gt;Node9 -->
<g id="edge8" class="edge">
<title>Node3&#45;&gt;Node9</title>
<path fill="none" stroke="midnightblue" d="M223.33,-190.4C229.9,-180.46 238.74,-167.11 245.71,-156.57"/>
<polygon fill="midnightblue" stroke="midnightblue" points="248.65,-158.47 251.25,-148.19 242.81,-154.6 248.65,-158.47"/>
</g>
<!-- Node5 -->
<g id="node5" class="node">
<title>Node5</title>
<g id="a_node5"><a xlink:href="can__data__frame_8hpp.html" target="_top" xlink:title="CANフレームを表す構造体">
<polygon fill="white" stroke="black" points="211,-56.5 211,-86.5 353,-86.5 353,-56.5 211,-56.5"/>
<text text-anchor="start" x="219" y="-74.5" font-family="Helvetica,sans-Serif" font-size="10.00">alps_cmn/communication</text>
<text text-anchor="middle" x="282" y="-63.5" font-family="Helvetica,sans-Serif" font-size="10.00">/can_data_frame.hpp</text>
</a>
</g>
</g>
<!-- Node4&#45;&gt;Node5 -->
<g id="edge4" class="edge">
<title>Node4&#45;&gt;Node5</title>
<path fill="none" stroke="midnightblue" d="M116.52,-123.48C148.72,-113.56 192.08,-100.2 226.33,-89.65"/>
<polygon fill="midnightblue" stroke="midnightblue" points="227.67,-92.9 236.19,-86.61 225.61,-86.21 227.67,-92.9"/>
</g>
<!-- Node6 -->
<g id="node6" class="node">
<title>Node6</title>
<g id="a_node6"><a xlink:title=" ">
<polygon fill="white" stroke="#bfbfbf" points="255.5,-0.5 255.5,-19.5 308.5,-19.5 308.5,-0.5 255.5,-0.5"/>
<text text-anchor="middle" x="282" y="-7.5" font-family="Helvetica,sans-Serif" font-size="10.00">stdint.h</text>
</a>
</g>
</g>
<!-- Node5&#45;&gt;Node6 -->
<g id="edge5" class="edge">
<title>Node5&#45;&gt;Node6</title>
<path fill="none" stroke="midnightblue" d="M282,-56.4C282,-48.47 282,-38.46 282,-29.86"/>
<polygon fill="midnightblue" stroke="midnightblue" points="285.5,-29.66 282,-19.66 278.5,-29.66 285.5,-29.66"/>
</g>
<!-- Node7 -->
<g id="node7" class="node">
<title>Node7</title>
<g id="a_node7"><a xlink:title=" ">
<polygon fill="white" stroke="#bfbfbf" points="564.5,-0.5 564.5,-19.5 635.5,-19.5 635.5,-0.5 564.5,-0.5"/>
<text text-anchor="middle" x="600" y="-7.5" font-family="Helvetica,sans-Serif" font-size="10.00">etl/vector.h</text>
</a>
</g>
</g>
<!-- Node5&#45;&gt;Node7 -->
<g id="edge6" class="edge">
<title>Node5&#45;&gt;Node7</title>
<path fill="none" stroke="midnightblue" d="M353.37,-57.15C414.82,-45.65 501.69,-29.39 554.24,-19.56"/>
<polygon fill="midnightblue" stroke="midnightblue" points="555.09,-22.96 564.28,-17.68 553.8,-16.08 555.09,-22.96"/>
</g>
<!-- Node11 -->
<g id="node11" class="node">
<title>Node11</title>
<g id="a_node11"><a xlink:title=" ">
<polygon fill="white" stroke="#bfbfbf" points="334,-129 334,-148 386,-148 386,-129 334,-129"/>
<text text-anchor="middle" x="360" y="-136" font-family="Helvetica,sans-Serif" font-size="10.00">cassert</text>
</a>
</g>
</g>
<!-- Node10&#45;&gt;Node11 -->
<g id="edge10" class="edge">
<title>Node10&#45;&gt;Node11</title>
<path fill="none" stroke="midnightblue" d="M481.37,-190.4C454.05,-178.94 415.89,-162.94 389.69,-151.95"/>
<polygon fill="midnightblue" stroke="midnightblue" points="390.86,-148.65 380.29,-148.01 388.15,-155.1 390.86,-148.65"/>
</g>
<!-- Node12 -->
<g id="node12" class="node">
<title>Node12</title>
<g id="a_node12"><a xlink:title=" ">
<polygon fill="white" stroke="#bfbfbf" points="818,-129 818,-148 868,-148 868,-129 818,-129"/>
<text text-anchor="middle" x="843" y="-136" font-family="Helvetica,sans-Serif" font-size="10.00">cstdint</text>
</a>
</g>
</g>
<!-- Node10&#45;&gt;Node12 -->
<g id="edge11" class="edge">
<title>Node10&#45;&gt;Node12</title>
<path fill="none" stroke="midnightblue" d="M586.24,-194.08C659.19,-183.08 767.47,-165.73 808,-154 810.29,-153.34 812.64,-152.57 814.98,-151.74"/>
<polygon fill="midnightblue" stroke="midnightblue" points="816.32,-154.98 824.38,-148.11 813.79,-148.45 816.32,-154.98"/>
</g>
<!-- Node13 -->
<g id="node13" class="node">
<title>Node13</title>
<g id="a_node13"><a xlink:title=" ">
<polygon fill="white" stroke="#bfbfbf" points="404,-129 404,-148 450,-148 450,-129 404,-129"/>
<text text-anchor="middle" x="427" y="-136" font-family="Helvetica,sans-Serif" font-size="10.00">cstdio</text>
</a>
</g>
</g>
<!-- Node10&#45;&gt;Node13 -->
<g id="edge12" class="edge">
<title>Node10&#45;&gt;Node13</title>
<path fill="none" stroke="midnightblue" d="M495.91,-190.4C481.42,-179.7 461.57,-165.03 446.89,-154.19"/>
<polygon fill="midnightblue" stroke="midnightblue" points="448.64,-151.13 438.52,-148.01 444.48,-156.76 448.64,-151.13"/>
</g>
<!-- Node14 -->
<g id="node14" class="node">
<title>Node14</title>
<g id="a_node14"><a xlink:title=" ">
<polygon fill="white" stroke="#bfbfbf" points="468.5,-129 468.5,-148 517.5,-148 517.5,-129 468.5,-129"/>
<text text-anchor="middle" x="493" y="-136" font-family="Helvetica,sans-Serif" font-size="10.00">cstdlib</text>
</a>
</g>
</g>
<!-- Node10&#45;&gt;Node14 -->
<g id="edge13" class="edge">
<title>Node10&#45;&gt;Node14</title>
<path fill="none" stroke="midnightblue" d="M510.23,-190.4C507,-180.86 502.71,-168.18 499.21,-157.86"/>
<polygon fill="midnightblue" stroke="midnightblue" points="502.46,-156.54 495.94,-148.19 495.83,-158.79 502.46,-156.54"/>
</g>
<!-- Node15 -->
<g id="node15" class="node">
<title>Node15</title>
<g id="a_node15"><a xlink:title=" ">
<polygon fill="white" stroke="#bfbfbf" points="536,-129 536,-148 646,-148 646,-129 536,-129"/>
<text text-anchor="middle" x="591" y="-136" font-family="Helvetica,sans-Serif" font-size="10.00">etl/circular_buffer.h</text>
</a>
</g>
</g>
<!-- Node10&#45;&gt;Node15 -->
<g id="edge14" class="edge">
<title>Node10&#45;&gt;Node15</title>
<path fill="none" stroke="midnightblue" d="M531.49,-190.4C543.69,-179.96 560.31,-165.75 572.88,-155"/>
<polygon fill="midnightblue" stroke="midnightblue" points="575.51,-157.35 580.83,-148.19 570.96,-152.03 575.51,-157.35"/>
</g>
<!-- Node17 -->
<g id="node17" class="node">
<title>Node17</title>
<g id="a_node17"><a xlink:href="logger_8hpp.html" target="_top" xlink:title=" ">
<polygon fill="white" stroke="black" points="664.5,-129 664.5,-148 799.5,-148 799.5,-129 664.5,-129"/>
<text text-anchor="middle" x="732" y="-136" font-family="Helvetica,sans-Serif" font-size="10.00">alps_cmn/log/logger.hpp</text>
</a>
</g>
</g>
<!-- Node16&#45;&gt;Node17 -->
<g id="edge16" class="edge">
<title>Node16&#45;&gt;Node17</title>
<path fill="none" stroke="midnightblue" d="M696.76,-190.4C703.64,-180.46 712.89,-167.11 720.18,-156.57"/>
<polygon fill="midnightblue" stroke="midnightblue" points="723.17,-158.41 725.98,-148.19 717.41,-154.42 723.17,-158.41"/>
</g>
<!-- Node17&#45;&gt;Node8 -->
<g id="edge17" class="edge">
<title>Node17&#45;&gt;Node8</title>
<path fill="none" stroke="midnightblue" d="M718.24,-128.73C701.27,-117.92 672.19,-99.38 652.07,-86.57"/>
<polygon fill="midnightblue" stroke="midnightblue" points="653.85,-83.55 643.54,-81.13 650.09,-89.45 653.85,-83.55"/>
</g>
<!-- Node18 -->
<g id="node18" class="node">
<title>Node18</title>
<g id="a_node18"><a xlink:title=" ">
<polygon fill="white" stroke="#bfbfbf" points="799.5,-62 799.5,-81 868.5,-81 868.5,-62 799.5,-62"/>
<text text-anchor="middle" x="834" y="-69" font-family="Helvetica,sans-Serif" font-size="10.00">etl/string.h</text>
</a>
</g>
</g>
<!-- Node17&#45;&gt;Node18 -->
<g id="edge18" class="edge">
<title>Node17&#45;&gt;Node18</title>
<path fill="none" stroke="midnightblue" d="M745.76,-128.73C762.73,-117.92 791.81,-99.38 811.93,-86.57"/>
<polygon fill="midnightblue" stroke="midnightblue" points="813.91,-89.45 820.46,-81.13 810.15,-83.55 813.91,-89.45"/>
</g>
<!-- Node19&#45;&gt;Node7 -->
<g id="edge32" class="edge">
<title>Node19&#45;&gt;Node7</title>
<path fill="none" stroke="midnightblue" d="M1027.33,-195.79C1032.8,-179.89 1041.72,-145.69 1027,-123 987.27,-61.74 946.95,-76.92 877,-56 797.63,-32.27 701.49,-20.21 645.87,-14.79"/>
<polygon fill="midnightblue" stroke="midnightblue" points="645.92,-11.28 635.64,-13.82 645.27,-18.24 645.92,-11.28"/>
</g>
<!-- Node19&#45;&gt;Node12 -->
<g id="edge22" class="edge">
<title>Node19&#45;&gt;Node12</title>
<path fill="none" stroke="midnightblue" d="M997.24,-195.95C967.61,-186.34 918.56,-169.98 877,-154 875.35,-153.37 873.67,-152.7 871.97,-152.02"/>
<polygon fill="midnightblue" stroke="midnightblue" points="872.9,-148.62 862.32,-148.02 870.22,-155.08 872.9,-148.62"/>
</g>
<!-- Node19&#45;&gt;Node15 -->
<g id="edge30" class="edge">
<title>Node19&#45;&gt;Node15</title>
<path fill="none" stroke="midnightblue" d="M947.37,-195.98C872.52,-187.19 755.52,-172.23 655,-154 648.82,-152.88 642.33,-151.57 635.96,-150.2"/>
<polygon fill="midnightblue" stroke="midnightblue" points="636.62,-146.76 626.1,-148.03 635.11,-153.6 636.62,-146.76"/>
</g>
<!-- Node19&#45;&gt;Node18 -->
<g id="edge31" class="edge">
<title>Node19&#45;&gt;Node18</title>
<path fill="none" stroke="midnightblue" d="M1024.62,-195.57C1025.26,-178.99 1024.14,-143.29 1005,-123 972.43,-88.48 917.55,-77.2 878.76,-73.7"/>
<polygon fill="midnightblue" stroke="midnightblue" points="879.01,-70.21 868.77,-72.93 878.47,-77.19 879.01,-70.21"/>
</g>
<!-- Node20 -->
<g id="node20" class="node">
<title>Node20</title>
<g id="a_node20"><a xlink:title=" ">
<polygon fill="white" stroke="#bfbfbf" points="1300,-129 1300,-148 1364,-148 1364,-129 1300,-129"/>
<text text-anchor="middle" x="1332" y="-136" font-family="Helvetica,sans-Serif" font-size="10.00">algorithm</text>
</a>
</g>
</g>
<!-- Node19&#45;&gt;Node20 -->
<g id="edge20" class="edge">
<title>Node19&#45;&gt;Node20</title>
<path fill="none" stroke="midnightblue" d="M1077.84,-195.99C1131.09,-187.13 1214.71,-172.04 1286,-154 1289.62,-153.08 1293.38,-152.05 1297.11,-150.96"/>
<polygon fill="midnightblue" stroke="midnightblue" points="1298.29,-154.26 1306.84,-148 1296.26,-147.56 1298.29,-154.26"/>
</g>
<!-- Node21 -->
<g id="node21" class="node">
<title>Node21</title>
<g id="a_node21"><a xlink:title=" ">
<polygon fill="white" stroke="#bfbfbf" points="886,-129 886,-148 928,-148 928,-129 886,-129"/>
<text text-anchor="middle" x="907" y="-136" font-family="Helvetica,sans-Serif" font-size="10.00">array</text>
</a>
</g>
</g>
<!-- Node19&#45;&gt;Node21 -->
<g id="edge21" class="edge">
<title>Node19&#45;&gt;Node21</title>
<path fill="none" stroke="midnightblue" d="M1008.22,-195.73C988.49,-184.77 954.49,-165.88 931.39,-153.05"/>
<polygon fill="midnightblue" stroke="midnightblue" points="932.97,-149.92 922.53,-148.13 929.57,-156.04 932.97,-149.92"/>
</g>
<!-- Node22 -->
<g id="node22" class="node">
<title>Node22</title>
<g id="a_node22"><a xlink:title=" ">
<polygon fill="white" stroke="#bfbfbf" points="946,-129 946,-148 996,-148 996,-129 946,-129"/>
<text text-anchor="middle" x="971" y="-136" font-family="Helvetica,sans-Serif" font-size="10.00">cstring</text>
</a>
</g>
</g>
<!-- Node19&#45;&gt;Node22 -->
<g id="edge23" class="edge">
<title>Node19&#45;&gt;Node22</title>
<path fill="none" stroke="midnightblue" d="M1016.85,-195.73C1008.59,-185.6 994.8,-168.69 984.5,-156.06"/>
<polygon fill="midnightblue" stroke="midnightblue" points="987.07,-153.67 978.03,-148.13 981.64,-158.09 987.07,-153.67"/>
</g>
<!-- Node23 -->
<g id="node23" class="node">
<title>Node23</title>
<g id="a_node23"><a xlink:title=" ">
<polygon fill="white" stroke="#bfbfbf" points="1097.5,-62 1097.5,-81 1138.5,-81 1138.5,-62 1097.5,-62"/>
<text text-anchor="middle" x="1118" y="-69" font-family="Helvetica,sans-Serif" font-size="10.00">tuple</text>
</a>
</g>
</g>
<!-- Node19&#45;&gt;Node23 -->
<g id="edge24" class="edge">
<title>Node19&#45;&gt;Node23</title>
<path fill="none" stroke="midnightblue" d="M1034.97,-195.7C1046.26,-186.25 1063.86,-170.38 1076,-154 1090.92,-133.88 1103.36,-107.71 1110.74,-90.52"/>
<polygon fill="midnightblue" stroke="midnightblue" points="1114.04,-91.69 1114.66,-81.11 1107.58,-89 1114.04,-91.69"/>
</g>
<!-- Node24 -->
<g id="node24" class="node">
<title>Node24</title>
<g id="a_node24"><a xlink:title=" ">
<polygon fill="white" stroke="#bfbfbf" points="1231.5,-62 1231.5,-81 1300.5,-81 1300.5,-62 1231.5,-62"/>
<text text-anchor="middle" x="1266" y="-69" font-family="Helvetica,sans-Serif" font-size="10.00">type_traits</text>
</a>
</g>
</g>
<!-- Node19&#45;&gt;Node24 -->
<g id="edge25" class="edge">
<title>Node19&#45;&gt;Node24</title>
<path fill="none" stroke="midnightblue" d="M1102.03,-196.67C1160.01,-189.19 1232.47,-175.77 1253,-154 1268.71,-137.34 1269.87,-109.71 1268.53,-91.31"/>
<polygon fill="midnightblue" stroke="midnightblue" points="1271.99,-90.8 1267.47,-81.22 1265.03,-91.53 1271.99,-90.8"/>
</g>
<!-- Node25 -->
<g id="node25" class="node">
<title>Node25</title>
<g id="a_node25"><a xlink:href="tuple__traits_8hpp.html" target="_top" xlink:title="タプル関係の型特性">
<polygon fill="white" stroke="black" points="1128,-123.5 1128,-153.5 1244,-153.5 1244,-123.5 1128,-123.5"/>
<text text-anchor="start" x="1136" y="-141.5" font-family="Helvetica,sans-Serif" font-size="10.00">alps_cmn/type/tuple</text>
<text text-anchor="middle" x="1186" y="-130.5" font-family="Helvetica,sans-Serif" font-size="10.00">_traits.hpp</text>
</a>
</g>
</g>
<!-- Node19&#45;&gt;Node25 -->
<g id="edge26" class="edge">
<title>Node19&#45;&gt;Node25</title>
<path fill="none" stroke="midnightblue" d="M1045.51,-195.87C1069.93,-186.07 1110.41,-169.83 1141.66,-157.29"/>
<polygon fill="midnightblue" stroke="midnightblue" points="1143.06,-160.5 1151.04,-153.53 1140.45,-154 1143.06,-160.5"/>
</g>
<!-- Node25&#45;&gt;Node23 -->
<g id="edge28" class="edge">
<title>Node25&#45;&gt;Node23</title>
<path fill="none" stroke="midnightblue" d="M1171.25,-123.4C1160.43,-113.06 1145.75,-99.02 1134.54,-88.31"/>
<polygon fill="midnightblue" stroke="midnightblue" points="1136.74,-85.57 1127.1,-81.19 1131.91,-90.63 1136.74,-85.57"/>
</g>
<!-- Node25&#45;&gt;Node24 -->
<g id="edge29" class="edge">
<title>Node25&#45;&gt;Node24</title>
<path fill="none" stroke="midnightblue" d="M1203.36,-123.4C1216.33,-112.86 1234.03,-98.48 1247.31,-87.69"/>
<polygon fill="midnightblue" stroke="midnightblue" points="1249.74,-90.22 1255.3,-81.19 1245.33,-84.78 1249.74,-90.22"/>
</g>
<!-- Node26 -->
<g id="node26" class="node">
<title>Node26</title>
<g id="a_node26"><a xlink:title=" ">
<polygon fill="white" stroke="#bfbfbf" points="1164,-62 1164,-81 1208,-81 1208,-62 1164,-62"/>
<text text-anchor="middle" x="1186" y="-69" font-family="Helvetica,sans-Serif" font-size="10.00">string</text>
</a>
</g>
</g>
<!-- Node25&#45;&gt;Node26 -->
<g id="edge27" class="edge">
<title>Node25&#45;&gt;Node26</title>
<path fill="none" stroke="midnightblue" d="M1186,-123.4C1186,-114.06 1186,-101.71 1186,-91.52"/>
<polygon fill="midnightblue" stroke="midnightblue" points="1189.5,-91.19 1186,-81.19 1182.5,-91.19 1189.5,-91.19"/>
</g>
</g>
</svg>
