<?xml version="1.0" encoding="UTF-8" standalone="no"?>
<!DOCTYPE svg PUBLIC "-//W3C//DTD SVG 1.1//EN"
 "http://www.w3.org/Graphics/SVG/1.1/DTD/svg11.dtd">
<!-- Generated by graphviz version 2.43.0 (0)
 -->
<!-- Title: alps_core/lib_internal/alps_common_lib/include/alps_cmn/communication/can_param.hpp Pages: 1 -->
<svg width="1440pt" height="379pt"
 viewBox="0.00 0.00 1440.00 379.00" xmlns="http://www.w3.org/2000/svg" xmlns:xlink="http://www.w3.org/1999/xlink">
<g id="graph0" class="graph" transform="scale(1 1) rotate(0) translate(4 375)">
<title>alps_core/lib_internal/alps_common_lib/include/alps_cmn/communication/can_param.hpp</title>
<!-- Node1 -->
<g id="Node000001" class="node">
<title>Node1</title>
<g id="a_Node000001"><a xlink:title=" ">
<polygon fill="#999999" stroke="#666666" points="977.5,-371 832.5,-371 832.5,-319 977.5,-319 977.5,-371"/>
<text text-anchor="start" x="840.5" y="-359" font-family="Helvetica,sans-Serif" font-size="10.00">alps_core/lib_internal</text>
<text text-anchor="start" x="840.5" y="-348" font-family="Helvetica,sans-Serif" font-size="10.00">/alps_common_lib/include</text>
<text text-anchor="start" x="840.5" y="-337" font-family="Helvetica,sans-Serif" font-size="10.00">/alps_cmn/communication</text>
<text text-anchor="middle" x="905" y="-326" font-family="Helvetica,sans-Serif" font-size="10.00">/can_param.hpp</text>
</a>
</g>
</g>
<!-- Node2 -->
<g id="Node000002" class="node">
<title>Node2</title>
<g id="a_Node000002"><a xlink:href="can__typed__data__transceiver_8hpp.html" target="_top" xlink:title="CAN通信で型付けされたデータの送受信を行うライブラリ">
<polygon fill="white" stroke="#666666" points="768.5,-283 591.5,-283 591.5,-253 768.5,-253 768.5,-283"/>
<text text-anchor="start" x="599.5" y="-271" font-family="Helvetica,sans-Serif" font-size="10.00">alps_cmn/communication</text>
<text text-anchor="middle" x="680" y="-260" font-family="Helvetica,sans-Serif" font-size="10.00">/can_typed_data_transceiver.hpp</text>
</a>
</g>
</g>
<!-- Node1&#45;&gt;Node2 -->
<g id="edge1_Node000001_Node000002" class="edge">
<title>Node1&#45;&gt;Node2</title>
<g id="a_edge1_Node000001_Node000002"><a xlink:title=" ">
<path fill="none" stroke="#63b8ff" d="M832.26,-319.75C799.61,-308.87 761.84,-296.28 732.09,-286.36"/>
<polygon fill="#63b8ff" stroke="#63b8ff" points="732.92,-282.95 722.32,-283.11 730.7,-289.59 732.92,-282.95"/>
</a>
</g>
</g>
<!-- Node28 -->
<g id="Node000028" class="node">
<title>Node28</title>
<g id="a_Node000028"><a xlink:title=" ">
<polygon fill="#e0e0e0" stroke="#999999" points="905,-277.5 787,-277.5 787,-258.5 905,-258.5 905,-277.5"/>
<text text-anchor="middle" x="846" y="-265.5" font-family="Helvetica,sans-Serif" font-size="10.00">etl/circular_iterator.h</text>
</a>
</g>
</g>
<!-- Node1&#45;&gt;Node28 -->
<g id="edge34_Node000001_Node000028" class="edge">
<title>Node1&#45;&gt;Node28</title>
<g id="a_edge34_Node000001_Node000028"><a xlink:title=" ">
<path fill="none" stroke="#63b8ff" d="M885.03,-318.61C876.53,-307.81 866.85,-295.5 859.26,-285.85"/>
<polygon fill="#63b8ff" stroke="#63b8ff" points="861.9,-283.55 852.96,-277.85 856.4,-287.88 861.9,-283.55"/>
</a>
</g>
</g>
<!-- Node29 -->
<g id="Node000029" class="node">
<title>Node29</title>
<g id="a_Node000029"><a xlink:title=" ">
<polygon fill="#e0e0e0" stroke="#999999" points="1004.5,-277.5 923.5,-277.5 923.5,-258.5 1004.5,-258.5 1004.5,-277.5"/>
<text text-anchor="middle" x="964" y="-265.5" font-family="Helvetica,sans-Serif" font-size="10.00">etl/optional.h</text>
</a>
</g>
</g>
<!-- Node1&#45;&gt;Node29 -->
<g id="edge35_Node000001_Node000029" class="edge">
<title>Node1&#45;&gt;Node29</title>
<g id="a_edge35_Node000001_Node000029"><a xlink:title=" ">
<path fill="none" stroke="#63b8ff" d="M924.97,-318.61C933.47,-307.81 943.15,-295.5 950.74,-285.85"/>
<polygon fill="#63b8ff" stroke="#63b8ff" points="953.6,-287.88 957.04,-277.85 948.1,-283.55 953.6,-287.88"/>
</a>
</g>
</g>
<!-- Node30 -->
<g id="Node000030" class="node">
<title>Node30</title>
<g id="a_Node000030"><a xlink:title=" ">
<polygon fill="#e0e0e0" stroke="#999999" points="1079,-277.5 1023,-277.5 1023,-258.5 1079,-258.5 1079,-277.5"/>
<text text-anchor="middle" x="1051" y="-265.5" font-family="Helvetica,sans-Serif" font-size="10.00">etl/set.h</text>
</a>
</g>
</g>
<!-- Node1&#45;&gt;Node30 -->
<g id="edge36_Node000001_Node000030" class="edge">
<title>Node1&#45;&gt;Node30</title>
<g id="a_edge36_Node000001_Node000030"><a xlink:title=" ">
<path fill="none" stroke="#63b8ff" d="M954.02,-318.82C977.94,-306.53 1005.73,-292.26 1025.41,-282.15"/>
<polygon fill="#63b8ff" stroke="#63b8ff" points="1027.07,-285.23 1034.37,-277.54 1023.87,-279 1027.07,-285.23"/>
</a>
</g>
</g>
<!-- Node3 -->
<g id="Node000003" class="node">
<title>Node3</title>
<g id="a_Node000003"><a xlink:href="can__callback__handler_8hpp.html" target="_top" xlink:title="CANデータフレームをコールバックで処理するためのライブラリ">
<polygon fill="white" stroke="#666666" points="286.5,-217 141.5,-217 141.5,-187 286.5,-187 286.5,-217"/>
<text text-anchor="start" x="149.5" y="-205" font-family="Helvetica,sans-Serif" font-size="10.00">alps_cmn/communication</text>
<text text-anchor="middle" x="214" y="-194" font-family="Helvetica,sans-Serif" font-size="10.00">/can_callback_handler.hpp</text>
</a>
</g>
</g>
<!-- Node2&#45;&gt;Node3 -->
<g id="edge2_Node000002_Node000003" class="edge">
<title>Node2&#45;&gt;Node3</title>
<g id="a_edge2_Node000002_Node000003"><a xlink:title=" ">
<path fill="none" stroke="#63b8ff" d="M591.25,-254.81C506.46,-243.17 379.64,-225.75 296.86,-214.38"/>
<polygon fill="#63b8ff" stroke="#63b8ff" points="297.12,-210.88 286.74,-212.99 296.17,-217.82 297.12,-210.88"/>
</a>
</g>
</g>
<!-- Node10 -->
<g id="Node000010" class="node">
<title>Node10</title>
<g id="a_Node000010"><a xlink:href="cobs_8hpp.html" target="_top" xlink:title="COBS変換ライブラリ">
<polygon fill="white" stroke="#666666" points="598,-217 456,-217 456,-187 598,-187 598,-217"/>
<text text-anchor="start" x="464" y="-205" font-family="Helvetica,sans-Serif" font-size="10.00">alps_cmn/communication</text>
<text text-anchor="middle" x="527" y="-194" font-family="Helvetica,sans-Serif" font-size="10.00">/cobs.hpp</text>
</a>
</g>
</g>
<!-- Node2&#45;&gt;Node10 -->
<g id="edge9_Node000002_Node000010" class="edge">
<title>Node2&#45;&gt;Node10</title>
<g id="a_edge9_Node000002_Node000010"><a xlink:title=" ">
<path fill="none" stroke="#63b8ff" d="M646.42,-252.95C623.9,-243.53 594.04,-231.04 569.82,-220.91"/>
<polygon fill="#63b8ff" stroke="#63b8ff" points="571.07,-217.64 560.5,-217.01 568.37,-224.1 571.07,-217.64"/>
</a>
</g>
</g>
<!-- Node16 -->
<g id="Node000016" class="node">
<title>Node16</title>
<g id="a_Node000016"><a xlink:href="logging__macros_8hpp.html" target="_top" xlink:title=" ">
<polygon fill="white" stroke="#666666" points="783,-217 663,-217 663,-187 783,-187 783,-217"/>
<text text-anchor="start" x="671" y="-205" font-family="Helvetica,sans-Serif" font-size="10.00">alps_cmn/log/logging</text>
<text text-anchor="middle" x="723" y="-194" font-family="Helvetica,sans-Serif" font-size="10.00">_macros.hpp</text>
</a>
</g>
</g>
<!-- Node2&#45;&gt;Node16 -->
<g id="edge15_Node000002_Node000016" class="edge">
<title>Node2&#45;&gt;Node16</title>
<g id="a_edge15_Node000002_Node000016"><a xlink:title=" ">
<path fill="none" stroke="#63b8ff" d="M689.54,-252.8C694.89,-244.84 701.68,-234.74 707.74,-225.71"/>
<polygon fill="#63b8ff" stroke="#63b8ff" points="710.81,-227.42 713.48,-217.16 705,-223.51 710.81,-227.42"/>
</a>
</g>
</g>
<!-- Node19 -->
<g id="Node000019" class="node">
<title>Node19</title>
<g id="a_Node000019"><a xlink:href="serializer_8hpp.html" target="_top" xlink:title="データとバイト列の変換ライブラリ">
<polygon fill="white" stroke="#666666" points="1107,-211.5 951,-211.5 951,-192.5 1107,-192.5 1107,-211.5"/>
<text text-anchor="middle" x="1029" y="-199.5" font-family="Helvetica,sans-Serif" font-size="10.00">alps_cmn/type/serializer.hpp</text>
</a>
</g>
</g>
<!-- Node2&#45;&gt;Node19 -->
<g id="edge19_Node000002_Node000019" class="edge">
<title>Node2&#45;&gt;Node19</title>
<g id="a_edge19_Node000002_Node000019"><a xlink:title=" ">
<path fill="none" stroke="#63b8ff" d="M756.59,-252.95C821.7,-241.01 913.71,-224.14 972.36,-213.39"/>
<polygon fill="#63b8ff" stroke="#63b8ff" points="973.35,-216.76 982.55,-211.52 972.09,-209.88 973.35,-216.76"/>
</a>
</g>
</g>
<!-- Node4 -->
<g id="Node000004" class="node">
<title>Node4</title>
<g id="a_Node000004"><a xlink:href="i__can__io_8hpp.html" target="_top" xlink:title=" ">
<polygon fill="white" stroke="#666666" points="142,-151 0,-151 0,-121 142,-121 142,-151"/>
<text text-anchor="start" x="8" y="-139" font-family="Helvetica,sans-Serif" font-size="10.00">alps_cmn/communication</text>
<text text-anchor="middle" x="71" y="-128" font-family="Helvetica,sans-Serif" font-size="10.00">/i_can_io.hpp</text>
</a>
</g>
</g>
<!-- Node3&#45;&gt;Node4 -->
<g id="edge3_Node000003_Node000004" class="edge">
<title>Node3&#45;&gt;Node4</title>
<g id="a_edge3_Node000003_Node000004"><a xlink:title=" ">
<path fill="none" stroke="#63b8ff" d="M182.62,-186.95C161.76,-177.62 134.16,-165.27 111.62,-155.18"/>
<polygon fill="#63b8ff" stroke="#63b8ff" points="112.87,-151.9 102.31,-151.01 110.01,-158.29 112.87,-151.9"/>
</a>
</g>
</g>
<!-- Node8 -->
<g id="Node000008" class="node">
<title>Node8</title>
<g id="a_Node000008"><a xlink:title=" ">
<polygon fill="#e0e0e0" stroke="#999999" points="656,-79.5 572,-79.5 572,-60.5 656,-60.5 656,-79.5"/>
<text text-anchor="middle" x="614" y="-67.5" font-family="Helvetica,sans-Serif" font-size="10.00">etl/delegate.h</text>
</a>
</g>
</g>
<!-- Node3&#45;&gt;Node8 -->
<g id="edge7_Node000003_Node000008" class="edge">
<title>Node3&#45;&gt;Node8</title>
<g id="a_edge7_Node000003_Node000008"><a xlink:title=" ">
<path fill="none" stroke="#63b8ff" d="M202.32,-186.85C189.37,-169.39 172.37,-139.7 189,-121 213.39,-93.57 453.4,-78.69 561.59,-73.34"/>
<polygon fill="#63b8ff" stroke="#63b8ff" points="561.82,-76.83 571.63,-72.85 561.48,-69.84 561.82,-76.83"/>
</a>
</g>
</g>
<!-- Node9 -->
<g id="Node000009" class="node">
<title>Node9</title>
<g id="a_Node000009"><a xlink:title=" ">
<polygon fill="#e0e0e0" stroke="#999999" points="316,-145.5 198,-145.5 198,-126.5 316,-126.5 316,-145.5"/>
<text text-anchor="middle" x="257" y="-133.5" font-family="Helvetica,sans-Serif" font-size="10.00">etl/unordered_map.h</text>
</a>
</g>
</g>
<!-- Node3&#45;&gt;Node9 -->
<g id="edge8_Node000003_Node000009" class="edge">
<title>Node3&#45;&gt;Node9</title>
<g id="a_edge8_Node000003_Node000009"><a xlink:title=" ">
<path fill="none" stroke="#63b8ff" d="M223.54,-186.8C229.98,-177.21 238.52,-164.5 245.36,-154.32"/>
<polygon fill="#63b8ff" stroke="#63b8ff" points="248.39,-156.1 251.06,-145.84 242.58,-152.19 248.39,-156.1"/>
</a>
</g>
</g>
<!-- Node5 -->
<g id="Node000005" class="node">
<title>Node5</title>
<g id="a_Node000005"><a xlink:href="can__data__frame_8hpp.html" target="_top" xlink:title="CANフレームを表す構造体">
<polygon fill="white" stroke="#666666" points="303,-85 161,-85 161,-55 303,-55 303,-85"/>
<text text-anchor="start" x="169" y="-73" font-family="Helvetica,sans-Serif" font-size="10.00">alps_cmn/communication</text>
<text text-anchor="middle" x="232" y="-62" font-family="Helvetica,sans-Serif" font-size="10.00">/can_data_frame.hpp</text>
</a>
</g>
</g>
<!-- Node4&#45;&gt;Node5 -->
<g id="edge4_Node000004_Node000005" class="edge">
<title>Node4&#45;&gt;Node5</title>
<g id="a_edge4_Node000004_Node000005"><a xlink:title=" ">
<path fill="none" stroke="#63b8ff" d="M106.33,-120.95C130.13,-111.49 161.73,-98.93 187.28,-88.78"/>
<polygon fill="#63b8ff" stroke="#63b8ff" points="188.75,-91.96 196.75,-85.01 186.16,-85.45 188.75,-91.96"/>
</a>
</g>
</g>
<!-- Node6 -->
<g id="Node000006" class="node">
<title>Node6</title>
<g id="a_Node000006"><a xlink:title=" ">
<polygon fill="#e0e0e0" stroke="#999999" points="258.5,-19 205.5,-19 205.5,0 258.5,0 258.5,-19"/>
<text text-anchor="middle" x="232" y="-7" font-family="Helvetica,sans-Serif" font-size="10.00">stdint.h</text>
</a>
</g>
</g>
<!-- Node5&#45;&gt;Node6 -->
<g id="edge5_Node000005_Node000006" class="edge">
<title>Node5&#45;&gt;Node6</title>
<g id="a_edge5_Node000005_Node000006"><a xlink:title=" ">
<path fill="none" stroke="#63b8ff" d="M232,-54.84C232,-47.21 232,-37.7 232,-29.45"/>
<polygon fill="#63b8ff" stroke="#63b8ff" points="235.5,-29.27 232,-19.27 228.5,-29.27 235.5,-29.27"/>
</a>
</g>
</g>
<!-- Node7 -->
<g id="Node000007" class="node">
<title>Node7</title>
<g id="a_Node000007"><a xlink:title=" ">
<polygon fill="#e0e0e0" stroke="#999999" points="487.5,-19 416.5,-19 416.5,0 487.5,0 487.5,-19"/>
<text text-anchor="middle" x="452" y="-7" font-family="Helvetica,sans-Serif" font-size="10.00">etl/vector.h</text>
</a>
</g>
</g>
<!-- Node5&#45;&gt;Node7 -->
<g id="edge6_Node000005_Node000007" class="edge">
<title>Node5&#45;&gt;Node7</title>
<g id="a_edge6_Node000005_Node000007"><a xlink:title=" ">
<path fill="none" stroke="#63b8ff" d="M284.7,-54.99C322.99,-44.8 374.14,-31.2 409.77,-21.73"/>
<polygon fill="#63b8ff" stroke="#63b8ff" points="411.07,-25.01 419.83,-19.05 409.27,-18.24 411.07,-25.01"/>
</a>
</g>
</g>
<!-- Node11 -->
<g id="Node000011" class="node">
<title>Node11</title>
<g id="a_Node000011"><a xlink:title=" ">
<polygon fill="#e0e0e0" stroke="#999999" points="386,-145.5 334,-145.5 334,-126.5 386,-126.5 386,-145.5"/>
<text text-anchor="middle" x="360" y="-133.5" font-family="Helvetica,sans-Serif" font-size="10.00">cassert</text>
</a>
</g>
</g>
<!-- Node10&#45;&gt;Node11 -->
<g id="edge10_Node000010_Node000011" class="edge">
<title>Node10&#45;&gt;Node11</title>
<g id="a_edge10_Node000010_Node000011"><a xlink:title=" ">
<path fill="none" stroke="#63b8ff" d="M489.38,-186.96C462.93,-177.04 426.74,-163.36 395,-151 393.59,-150.45 392.15,-149.89 390.69,-149.31"/>
<polygon fill="#63b8ff" stroke="#63b8ff" points="391.66,-145.93 381.07,-145.5 389.08,-152.44 391.66,-145.93"/>
</a>
</g>
</g>
<!-- Node12 -->
<g id="Node000012" class="node">
<title>Node12</title>
<g id="a_Node000012"><a xlink:title=" ">
<polygon fill="#e0e0e0" stroke="#999999" points="586,-145.5 536,-145.5 536,-126.5 586,-126.5 586,-145.5"/>
<text text-anchor="middle" x="561" y="-133.5" font-family="Helvetica,sans-Serif" font-size="10.00">cstdint</text>
</a>
</g>
</g>
<!-- Node10&#45;&gt;Node12 -->
<g id="edge11_Node000010_Node000012" class="edge">
<title>Node10&#45;&gt;Node12</title>
<g id="a_edge11_Node000010_Node000012"><a xlink:title=" ">
<path fill="none" stroke="#63b8ff" d="M534.55,-186.8C539.53,-177.41 546.12,-165.02 551.47,-154.95"/>
<polygon fill="#63b8ff" stroke="#63b8ff" points="554.7,-156.32 556.3,-145.84 548.52,-153.03 554.7,-156.32"/>
</a>
</g>
</g>
<!-- Node13 -->
<g id="Node000013" class="node">
<title>Node13</title>
<g id="a_Node000013"><a xlink:title=" ">
<polygon fill="#e0e0e0" stroke="#999999" points="450,-145.5 404,-145.5 404,-126.5 450,-126.5 450,-145.5"/>
<text text-anchor="middle" x="427" y="-133.5" font-family="Helvetica,sans-Serif" font-size="10.00">cstdio</text>
</a>
</g>
</g>
<!-- Node10&#45;&gt;Node13 -->
<g id="edge12_Node000010_Node000013" class="edge">
<title>Node10&#45;&gt;Node13</title>
<g id="a_edge12_Node000010_Node000013"><a xlink:title=" ">
<path fill="none" stroke="#63b8ff" d="M504.81,-186.8C488.2,-176.17 465.6,-161.7 449.03,-151.1"/>
<polygon fill="#63b8ff" stroke="#63b8ff" points="450.84,-148.1 440.53,-145.66 447.06,-154 450.84,-148.1"/>
</a>
</g>
</g>
<!-- Node14 -->
<g id="Node000014" class="node">
<title>Node14</title>
<g id="a_Node000014"><a xlink:title=" ">
<polygon fill="#e0e0e0" stroke="#999999" points="517.5,-145.5 468.5,-145.5 468.5,-126.5 517.5,-126.5 517.5,-145.5"/>
<text text-anchor="middle" x="493" y="-133.5" font-family="Helvetica,sans-Serif" font-size="10.00">cstdlib</text>
</a>
</g>
</g>
<!-- Node10&#45;&gt;Node14 -->
<g id="edge13_Node000010_Node000014" class="edge">
<title>Node10&#45;&gt;Node14</title>
<g id="a_edge13_Node000010_Node000014"><a xlink:title=" ">
<path fill="none" stroke="#63b8ff" d="M519.45,-186.8C514.47,-177.41 507.88,-165.02 502.53,-154.95"/>
<polygon fill="#63b8ff" stroke="#63b8ff" points="505.48,-153.03 497.7,-145.84 499.3,-156.32 505.48,-153.03"/>
</a>
</g>
</g>
<!-- Node15 -->
<g id="Node000015" class="node">
<title>Node15</title>
<g id="a_Node000015"><a xlink:title=" ">
<polygon fill="#e0e0e0" stroke="#999999" points="714,-145.5 604,-145.5 604,-126.5 714,-126.5 714,-145.5"/>
<text text-anchor="middle" x="659" y="-133.5" font-family="Helvetica,sans-Serif" font-size="10.00">etl/circular_buffer.h</text>
</a>
</g>
</g>
<!-- Node10&#45;&gt;Node15 -->
<g id="edge14_Node000010_Node000015" class="edge">
<title>Node10&#45;&gt;Node15</title>
<g id="a_edge14_Node000010_Node000015"><a xlink:title=" ">
<path fill="none" stroke="#63b8ff" d="M555.97,-186.95C578.71,-175.93 610.12,-160.7 632.27,-149.96"/>
<polygon fill="#63b8ff" stroke="#63b8ff" points="633.96,-153.03 641.43,-145.52 630.91,-146.73 633.96,-153.03"/>
</a>
</g>
</g>
<!-- Node17 -->
<g id="Node000017" class="node">
<title>Node17</title>
<g id="a_Node000017"><a xlink:href="logger_8hpp.html" target="_top" xlink:title=" ">
<polygon fill="white" stroke="#666666" points="867.5,-145.5 732.5,-145.5 732.5,-126.5 867.5,-126.5 867.5,-145.5"/>
<text text-anchor="middle" x="800" y="-133.5" font-family="Helvetica,sans-Serif" font-size="10.00">alps_cmn/log/logger.hpp</text>
</a>
</g>
</g>
<!-- Node16&#45;&gt;Node17 -->
<g id="edge16_Node000016_Node000017" class="edge">
<title>Node16&#45;&gt;Node17</title>
<g id="a_edge16_Node000016_Node000017"><a xlink:title=" ">
<path fill="none" stroke="#63b8ff" d="M740.09,-186.8C752.33,-176.62 768.8,-162.93 781.38,-152.48"/>
<polygon fill="#63b8ff" stroke="#63b8ff" points="783.91,-154.93 789.36,-145.84 779.43,-149.54 783.91,-154.93"/>
</a>
</g>
</g>
<!-- Node17&#45;&gt;Node8 -->
<g id="edge17_Node000017_Node000008" class="edge">
<title>Node17&#45;&gt;Node8</title>
<g id="a_edge17_Node000017_Node000008"><a xlink:title=" ">
<path fill="none" stroke="#63b8ff" d="M774.92,-126.37C742.38,-115.17 685.45,-95.58 648.76,-82.96"/>
<polygon fill="#63b8ff" stroke="#63b8ff" points="649.58,-79.54 638.98,-79.6 647.3,-86.16 649.58,-79.54"/>
</a>
</g>
</g>
<!-- Node18 -->
<g id="Node000018" class="node">
<title>Node18</title>
<g id="a_Node000018"><a xlink:title=" ">
<polygon fill="#e0e0e0" stroke="#999999" points="869.5,-79.5 800.5,-79.5 800.5,-60.5 869.5,-60.5 869.5,-79.5"/>
<text text-anchor="middle" x="835" y="-67.5" font-family="Helvetica,sans-Serif" font-size="10.00">etl/string.h</text>
</a>
</g>
</g>
<!-- Node17&#45;&gt;Node18 -->
<g id="edge18_Node000017_Node000018" class="edge">
<title>Node17&#45;&gt;Node18</title>
<g id="a_edge18_Node000017_Node000018"><a xlink:title=" ">
<path fill="none" stroke="#63b8ff" d="M804.72,-126.37C809.96,-116.78 818.57,-101.05 825.27,-88.8"/>
<polygon fill="#63b8ff" stroke="#63b8ff" points="828.4,-90.36 830.13,-79.91 822.26,-87 828.4,-90.36"/>
</a>
</g>
</g>
<!-- Node19&#45;&gt;Node7 -->
<g id="edge33_Node000019_Node000007" class="edge">
<title>Node19&#45;&gt;Node7</title>
<g id="a_edge33_Node000019_Node000007"><a xlink:title=" ">
<path fill="none" stroke="#63b8ff" d="M1012.79,-192.41C996.62,-183.38 971.58,-168.13 953,-151 913.19,-114.3 925.36,-81.23 878,-55 813.59,-19.32 593.91,-12.21 497.73,-10.82"/>
<polygon fill="#63b8ff" stroke="#63b8ff" points="497.76,-7.32 487.72,-10.69 497.67,-14.32 497.76,-7.32"/>
</a>
</g>
</g>
<!-- Node19&#45;&gt;Node12 -->
<g id="edge22_Node000019_Node000012" class="edge">
<title>Node19&#45;&gt;Node12</title>
<g id="a_edge22_Node000019_Node000012"><a xlink:title=" ">
<path fill="none" stroke="#63b8ff" d="M951,-198.48C863.2,-194.15 716.91,-182.47 595,-151 592.84,-150.44 590.64,-149.78 588.44,-149.04"/>
<polygon fill="#63b8ff" stroke="#63b8ff" points="589.63,-145.75 579.03,-145.51 587.16,-152.3 589.63,-145.75"/>
</a>
</g>
</g>
<!-- Node19&#45;&gt;Node15 -->
<g id="edge31_Node000019_Node000015" class="edge">
<title>Node19&#45;&gt;Node15</title>
<g id="a_edge31_Node000019_Node000015"><a xlink:title=" ">
<path fill="none" stroke="#63b8ff" d="M971.03,-192.47C909.37,-183.18 809.05,-167.43 723,-151 717.62,-149.97 712.01,-148.84 706.43,-147.67"/>
<polygon fill="#63b8ff" stroke="#63b8ff" points="707.01,-144.22 696.5,-145.55 705.55,-151.06 707.01,-144.22"/>
</a>
</g>
</g>
<!-- Node19&#45;&gt;Node18 -->
<g id="edge32_Node000019_Node000018" class="edge">
<title>Node19&#45;&gt;Node18</title>
<g id="a_edge32_Node000019_Node000018"><a xlink:title=" ">
<path fill="none" stroke="#63b8ff" d="M1004.43,-192.38C981.52,-183.74 946.94,-169.14 920,-151 892.41,-132.42 865.25,-104.78 849.32,-87.33"/>
<polygon fill="#63b8ff" stroke="#63b8ff" points="851.73,-84.78 842.45,-79.67 846.52,-89.45 851.73,-84.78"/>
</a>
</g>
</g>
<!-- Node20 -->
<g id="Node000020" class="node">
<title>Node20</title>
<g id="a_Node000020"><a xlink:title=" ">
<polygon fill="#e0e0e0" stroke="#999999" points="1026,-145.5 962,-145.5 962,-126.5 1026,-126.5 1026,-145.5"/>
<text text-anchor="middle" x="994" y="-133.5" font-family="Helvetica,sans-Serif" font-size="10.00">algorithm</text>
</a>
</g>
</g>
<!-- Node19&#45;&gt;Node20 -->
<g id="edge20_Node000019_Node000020" class="edge">
<title>Node19&#45;&gt;Node20</title>
<g id="a_edge20_Node000019_Node000020"><a xlink:title=" ">
<path fill="none" stroke="#63b8ff" d="M1024.28,-192.37C1019.04,-182.78 1010.43,-167.05 1003.73,-154.8"/>
<polygon fill="#63b8ff" stroke="#63b8ff" points="1006.74,-153 998.87,-145.91 1000.6,-156.36 1006.74,-153"/>
</a>
</g>
</g>
<!-- Node21 -->
<g id="Node000021" class="node">
<title>Node21</title>
<g id="a_Node000021"><a xlink:title=" ">
<polygon fill="#e0e0e0" stroke="#999999" points="1086,-145.5 1044,-145.5 1044,-126.5 1086,-126.5 1086,-145.5"/>
<text text-anchor="middle" x="1065" y="-133.5" font-family="Helvetica,sans-Serif" font-size="10.00">array</text>
</a>
</g>
</g>
<!-- Node19&#45;&gt;Node21 -->
<g id="edge21_Node000019_Node000021" class="edge">
<title>Node19&#45;&gt;Node21</title>
<g id="a_edge21_Node000019_Node000021"><a xlink:title=" ">
<path fill="none" stroke="#63b8ff" d="M1033.86,-192.37C1039.25,-182.78 1048.1,-167.05 1054.99,-154.8"/>
<polygon fill="#63b8ff" stroke="#63b8ff" points="1058.14,-156.34 1059.99,-145.91 1052.04,-152.91 1058.14,-156.34"/>
</a>
</g>
</g>
<!-- Node22 -->
<g id="Node000022" class="node">
<title>Node22</title>
<g id="a_Node000022"><a xlink:title=" ">
<polygon fill="#e0e0e0" stroke="#999999" points="1154,-145.5 1104,-145.5 1104,-126.5 1154,-126.5 1154,-145.5"/>
<text text-anchor="middle" x="1129" y="-133.5" font-family="Helvetica,sans-Serif" font-size="10.00">cstring</text>
</a>
</g>
</g>
<!-- Node19&#45;&gt;Node22 -->
<g id="edge23_Node000019_Node000022" class="edge">
<title>Node19&#45;&gt;Node22</title>
<g id="a_edge23_Node000019_Node000022"><a xlink:title=" ">
<path fill="none" stroke="#63b8ff" d="M1042.49,-192.37C1058.96,-181.82 1087.07,-163.84 1106.76,-151.23"/>
<polygon fill="#63b8ff" stroke="#63b8ff" points="1108.87,-154.04 1115.41,-145.7 1105.1,-148.14 1108.87,-154.04"/>
</a>
</g>
</g>
<!-- Node23 -->
<g id="Node000023" class="node">
<title>Node23</title>
<g id="a_Node000023"><a xlink:title=" ">
<polygon fill="#e0e0e0" stroke="#999999" points="1213.5,-79.5 1172.5,-79.5 1172.5,-60.5 1213.5,-60.5 1213.5,-79.5"/>
<text text-anchor="middle" x="1193" y="-67.5" font-family="Helvetica,sans-Serif" font-size="10.00">tuple</text>
</a>
</g>
</g>
<!-- Node19&#45;&gt;Node23 -->
<g id="edge24_Node000019_Node000023" class="edge">
<title>Node19&#45;&gt;Node23</title>
<g id="a_edge24_Node000019_Node000023"><a xlink:title=" ">
<path fill="none" stroke="#63b8ff" d="M1080.77,-192.43C1108.31,-185.46 1140.95,-173.02 1163,-151 1179.61,-134.42 1187.15,-107.76 1190.48,-89.83"/>
<polygon fill="#63b8ff" stroke="#63b8ff" points="1193.98,-90.15 1192.09,-79.73 1187.06,-89.05 1193.98,-90.15"/>
</a>
</g>
</g>
<!-- Node24 -->
<g id="Node000024" class="node">
<title>Node24</title>
<g id="a_Node000024"><a xlink:title=" ">
<polygon fill="#e0e0e0" stroke="#999999" points="1311.5,-79.5 1242.5,-79.5 1242.5,-60.5 1311.5,-60.5 1311.5,-79.5"/>
<text text-anchor="middle" x="1277" y="-67.5" font-family="Helvetica,sans-Serif" font-size="10.00">type_traits</text>
</a>
</g>
</g>
<!-- Node19&#45;&gt;Node24 -->
<g id="edge25_Node000019_Node000024" class="edge">
<title>Node19&#45;&gt;Node24</title>
<g id="a_edge25_Node000019_Node000024"><a xlink:title=" ">
<path fill="none" stroke="#63b8ff" d="M1072.24,-192.49C1105.17,-184.82 1150.85,-171.53 1187,-151 1216.99,-133.96 1245.71,-105.65 1262.34,-87.68"/>
<polygon fill="#63b8ff" stroke="#63b8ff" points="1265.37,-89.55 1269.48,-79.78 1260.18,-84.85 1265.37,-89.55"/>
</a>
</g>
</g>
<!-- Node25 -->
<g id="Node000025" class="node">
<title>Node25</title>
<g id="a_Node000025"><a xlink:title=" ">
<polygon fill="#e0e0e0" stroke="#999999" points="1298,-145.5 1248,-145.5 1248,-126.5 1298,-126.5 1298,-145.5"/>
<text text-anchor="middle" x="1273" y="-133.5" font-family="Helvetica,sans-Serif" font-size="10.00">chrono</text>
</a>
</g>
</g>
<!-- Node19&#45;&gt;Node25 -->
<g id="edge26_Node000019_Node000025" class="edge">
<title>Node19&#45;&gt;Node25</title>
<g id="a_edge26_Node000019_Node000025"><a xlink:title=" ">
<path fill="none" stroke="#63b8ff" d="M1069.4,-192.47C1111,-183.37 1177.52,-167.98 1234,-151 1236.27,-150.32 1238.6,-149.58 1240.93,-148.81"/>
<polygon fill="#63b8ff" stroke="#63b8ff" points="1242.12,-152.1 1250.45,-145.55 1239.85,-145.48 1242.12,-152.1"/>
</a>
</g>
</g>
<!-- Node26 -->
<g id="Node000026" class="node">
<title>Node26</title>
<g id="a_Node000026"><a xlink:href="tuple__traits_8hpp.html" target="_top" xlink:title="タプル関係の型特性">
<polygon fill="white" stroke="#666666" points="1432,-151 1316,-151 1316,-121 1432,-121 1432,-151"/>
<text text-anchor="start" x="1324" y="-139" font-family="Helvetica,sans-Serif" font-size="10.00">alps_cmn/type/tuple</text>
<text text-anchor="middle" x="1374" y="-128" font-family="Helvetica,sans-Serif" font-size="10.00">_traits.hpp</text>
</a>
</g>
</g>
<!-- Node19&#45;&gt;Node26 -->
<g id="edge27_Node000019_Node000026" class="edge">
<title>Node19&#45;&gt;Node26</title>
<g id="a_edge27_Node000019_Node000026"><a xlink:title=" ">
<path fill="none" stroke="#63b8ff" d="M1078.79,-192.48C1132.42,-183.2 1220.49,-167.69 1306.04,-151.16"/>
<polygon fill="#63b8ff" stroke="#63b8ff" points="1306.76,-154.58 1315.92,-149.24 1305.43,-147.71 1306.76,-154.58"/>
</a>
</g>
</g>
<!-- Node26&#45;&gt;Node23 -->
<g id="edge29_Node000026_Node000023" class="edge">
<title>Node26&#45;&gt;Node23</title>
<g id="a_edge29_Node000026_Node000023"><a xlink:title=" ">
<path fill="none" stroke="#63b8ff" d="M1334.28,-120.95C1300.81,-109.12 1253.64,-92.44 1223.19,-81.67"/>
<polygon fill="#63b8ff" stroke="#63b8ff" points="1224.14,-78.3 1213.54,-78.26 1221.81,-84.9 1224.14,-78.3"/>
</a>
</g>
</g>
<!-- Node26&#45;&gt;Node24 -->
<g id="edge30_Node000026_Node000024" class="edge">
<title>Node26&#45;&gt;Node24</title>
<g id="a_edge30_Node000026_Node000024"><a xlink:title=" ">
<path fill="none" stroke="#63b8ff" d="M1352.47,-120.8C1336.52,-110.27 1314.85,-95.97 1298.82,-85.4"/>
<polygon fill="#63b8ff" stroke="#63b8ff" points="1300.4,-82.24 1290.12,-79.66 1296.54,-88.09 1300.4,-82.24"/>
</a>
</g>
</g>
<!-- Node27 -->
<g id="Node000027" class="node">
<title>Node27</title>
<g id="a_Node000027"><a xlink:title=" ">
<polygon fill="#e0e0e0" stroke="#999999" points="1396,-79.5 1352,-79.5 1352,-60.5 1396,-60.5 1396,-79.5"/>
<text text-anchor="middle" x="1374" y="-67.5" font-family="Helvetica,sans-Serif" font-size="10.00">string</text>
</a>
</g>
</g>
<!-- Node26&#45;&gt;Node27 -->
<g id="edge28_Node000026_Node000027" class="edge">
<title>Node26&#45;&gt;Node27</title>
<g id="a_edge28_Node000026_Node000027"><a xlink:title=" ">
<path fill="none" stroke="#63b8ff" d="M1374,-120.8C1374,-111.7 1374,-99.79 1374,-89.9"/>
<polygon fill="#63b8ff" stroke="#63b8ff" points="1377.5,-89.84 1374,-79.84 1370.5,-89.84 1377.5,-89.84"/>
</a>
</g>
</g>
</g>
</svg>
