<?xml version="1.0" encoding="UTF-8" standalone="no"?>
<!DOCTYPE svg PUBLIC "-//W3C//DTD SVG 1.1//EN"
 "http://www.w3.org/Graphics/SVG/1.1/DTD/svg11.dtd">
<!-- Generated by graphviz version 2.43.0 (0)
 -->
<!-- Title: alps_core/lib_internal/alps_common_lib/include/alps_cmn/communication/can_data_frame.hpp Pages: 1 -->
<svg width="701pt" height="506pt"
 viewBox="0.00 0.00 700.50 506.00" xmlns="http://www.w3.org/2000/svg" xmlns:xlink="http://www.w3.org/1999/xlink">
<g id="graph0" class="graph" transform="scale(1 1) rotate(0) translate(4 502)">
<title>alps_core/lib_internal/alps_common_lib/include/alps_cmn/communication/can_data_frame.hpp</title>
<polygon fill="white" stroke="transparent" points="-4,4 -4,-502 696.5,-502 696.5,4 -4,4"/>
<!-- Node1 -->
<g id="node1" class="node">
<title>Node1</title>
<g id="a_node1"><a xlink:title="CANフレームを表す構造体">
<polygon fill="#bfbfbf" stroke="black" points="382,-445.5 382,-497.5 527,-497.5 527,-445.5 382,-445.5"/>
<text text-anchor="start" x="390" y="-485.5" font-family="Helvetica,sans-Serif" font-size="10.00">alps_core/lib_internal</text>
<text text-anchor="start" x="390" y="-474.5" font-family="Helvetica,sans-Serif" font-size="10.00">/alps_common_lib/include</text>
<text text-anchor="start" x="390" y="-463.5" font-family="Helvetica,sans-Serif" font-size="10.00">/alps_cmn/communication</text>
<text text-anchor="middle" x="454.5" y="-452.5" font-family="Helvetica,sans-Serif" font-size="10.00">/can_data_frame.hpp</text>
</a>
</g>
</g>
<!-- Node2 -->
<g id="node2" class="node">
<title>Node2</title>
<g id="a_node2"><a xlink:href="i__can__io_8hpp.html" target="_top" xlink:title=" ">
<polygon fill="white" stroke="black" points="382,-356.5 382,-408.5 527,-408.5 527,-356.5 382,-356.5"/>
<text text-anchor="start" x="390" y="-396.5" font-family="Helvetica,sans-Serif" font-size="10.00">alps_core/lib_internal</text>
<text text-anchor="start" x="390" y="-385.5" font-family="Helvetica,sans-Serif" font-size="10.00">/alps_common_lib/include</text>
<text text-anchor="start" x="390" y="-374.5" font-family="Helvetica,sans-Serif" font-size="10.00">/alps_cmn/communication</text>
<text text-anchor="middle" x="454.5" y="-363.5" font-family="Helvetica,sans-Serif" font-size="10.00">/i_can_io.hpp</text>
</a>
</g>
</g>
<!-- Node1&#45;&gt;Node2 -->
<g id="edge1" class="edge">
<title>Node1&#45;&gt;Node2</title>
<path fill="none" stroke="midnightblue" d="M454.5,-435.19C454.5,-426.28 454.5,-416.9 454.5,-408.61"/>
<polygon fill="midnightblue" stroke="midnightblue" points="451,-435.34 454.5,-445.34 458,-435.34 451,-435.34"/>
</g>
<!-- Node3 -->
<g id="node3" class="node">
<title>Node3</title>
<g id="a_node3"><a xlink:href="can__callback__handler_8hpp.html" target="_top" xlink:title="CANデータフレームをコールバックで処理するためのライブラリ">
<polygon fill="white" stroke="black" points="223,-267.5 223,-319.5 368,-319.5 368,-267.5 223,-267.5"/>
<text text-anchor="start" x="231" y="-307.5" font-family="Helvetica,sans-Serif" font-size="10.00">alps_core/lib_internal</text>
<text text-anchor="start" x="231" y="-296.5" font-family="Helvetica,sans-Serif" font-size="10.00">/alps_common_lib/include</text>
<text text-anchor="start" x="231" y="-285.5" font-family="Helvetica,sans-Serif" font-size="10.00">/alps_cmn/communication</text>
<text text-anchor="middle" x="295.5" y="-274.5" font-family="Helvetica,sans-Serif" font-size="10.00">/can_callback_handler.hpp</text>
</a>
</g>
</g>
<!-- Node2&#45;&gt;Node3 -->
<g id="edge2" class="edge">
<title>Node2&#45;&gt;Node3</title>
<path fill="none" stroke="midnightblue" d="M399.66,-351.49C380.67,-341.1 359.59,-329.57 341.39,-319.61"/>
<polygon fill="midnightblue" stroke="midnightblue" points="398.06,-354.61 408.51,-356.34 401.42,-348.47 398.06,-354.61"/>
</g>
<!-- Node11 -->
<g id="node11" class="node">
<title>Node11</title>
<g id="a_node11"><a xlink:href="socket__can__io_8hpp.html" target="_top" xlink:title=" ">
<polygon fill="white" stroke="black" points="386.5,-267.5 386.5,-319.5 522.5,-319.5 522.5,-267.5 386.5,-267.5"/>
<text text-anchor="start" x="394.5" y="-307.5" font-family="Helvetica,sans-Serif" font-size="10.00">alps_core/lib_internal</text>
<text text-anchor="start" x="394.5" y="-296.5" font-family="Helvetica,sans-Serif" font-size="10.00">/alps_linux_lib/include</text>
<text text-anchor="start" x="394.5" y="-285.5" font-family="Helvetica,sans-Serif" font-size="10.00">/alps_lin/communication</text>
<text text-anchor="middle" x="454.5" y="-274.5" font-family="Helvetica,sans-Serif" font-size="10.00">/socket_can_io.hpp</text>
</a>
</g>
</g>
<!-- Node2&#45;&gt;Node11 -->
<g id="edge11" class="edge">
<title>Node2&#45;&gt;Node11</title>
<path fill="none" stroke="midnightblue" d="M454.5,-346.19C454.5,-337.28 454.5,-327.9 454.5,-319.61"/>
<polygon fill="midnightblue" stroke="midnightblue" points="451,-346.34 454.5,-356.34 458,-346.34 451,-346.34"/>
</g>
<!-- Node12 -->
<g id="node12" class="node">
<title>Node12</title>
<g id="a_node12"><a xlink:href="buffered__can__io_8hpp.html" target="_top" xlink:title="MbedのCAN通信IOクラス">
<polygon fill="white" stroke="black" points="540.5,-267.5 540.5,-319.5 692.5,-319.5 692.5,-267.5 540.5,-267.5"/>
<text text-anchor="start" x="548.5" y="-307.5" font-family="Helvetica,sans-Serif" font-size="10.00">alps_core/lib_internal</text>
<text text-anchor="start" x="548.5" y="-296.5" font-family="Helvetica,sans-Serif" font-size="10.00">/alps_mbed_lib/include</text>
<text text-anchor="start" x="548.5" y="-285.5" font-family="Helvetica,sans-Serif" font-size="10.00">/alps_mbed/communication</text>
<text text-anchor="middle" x="616.5" y="-274.5" font-family="Helvetica,sans-Serif" font-size="10.00">/buffered_can_io.hpp</text>
</a>
</g>
</g>
<!-- Node2&#45;&gt;Node12 -->
<g id="edge12" class="edge">
<title>Node2&#45;&gt;Node12</title>
<path fill="none" stroke="midnightblue" d="M510.37,-351.49C529.73,-341.1 551.2,-329.57 569.75,-319.61"/>
<polygon fill="midnightblue" stroke="midnightblue" points="508.51,-348.52 501.36,-356.34 511.82,-354.69 508.51,-348.52"/>
</g>
<!-- Node4 -->
<g id="node4" class="node">
<title>Node4</title>
<g id="a_node4"><a xlink:href="can__typed__data__transceiver_8hpp.html" target="_top" xlink:title="CAN通信で型付けされたデータの送受信を行うライブラリ">
<polygon fill="white" stroke="black" points="207,-178.5 207,-230.5 384,-230.5 384,-178.5 207,-178.5"/>
<text text-anchor="start" x="215" y="-218.5" font-family="Helvetica,sans-Serif" font-size="10.00">alps_core/lib_internal</text>
<text text-anchor="start" x="215" y="-207.5" font-family="Helvetica,sans-Serif" font-size="10.00">/alps_common_lib/include</text>
<text text-anchor="start" x="215" y="-196.5" font-family="Helvetica,sans-Serif" font-size="10.00">/alps_cmn/communication</text>
<text text-anchor="middle" x="295.5" y="-185.5" font-family="Helvetica,sans-Serif" font-size="10.00">/can_typed_data_transceiver.hpp</text>
</a>
</g>
</g>
<!-- Node3&#45;&gt;Node4 -->
<g id="edge3" class="edge">
<title>Node3&#45;&gt;Node4</title>
<path fill="none" stroke="midnightblue" d="M295.5,-257.19C295.5,-248.28 295.5,-238.9 295.5,-230.61"/>
<polygon fill="midnightblue" stroke="midnightblue" points="292,-257.34 295.5,-267.34 299,-257.34 292,-257.34"/>
</g>
<!-- Node5 -->
<g id="node5" class="node">
<title>Node5</title>
<g id="a_node5"><a xlink:href="robomas__motor_8hpp.html" target="_top" xlink:title="ロボマスモータのライブラリ">
<polygon fill="white" stroke="black" points="0,-89.5 0,-141.5 155,-141.5 155,-89.5 0,-89.5"/>
<text text-anchor="start" x="8" y="-129.5" font-family="Helvetica,sans-Serif" font-size="10.00">alps_core/lib_internal</text>
<text text-anchor="start" x="8" y="-118.5" font-family="Helvetica,sans-Serif" font-size="10.00">/alps_common_lib/include</text>
<text text-anchor="start" x="8" y="-107.5" font-family="Helvetica,sans-Serif" font-size="10.00">/alps_cmn/actuator/robomas</text>
<text text-anchor="middle" x="77.5" y="-96.5" font-family="Helvetica,sans-Serif" font-size="10.00">_motor.hpp</text>
</a>
</g>
</g>
<!-- Node4&#45;&gt;Node5 -->
<g id="edge4" class="edge">
<title>Node4&#45;&gt;Node5</title>
<path fill="none" stroke="midnightblue" d="M223.38,-174.72C196.48,-163.98 166.18,-151.89 140.2,-141.52"/>
<polygon fill="midnightblue" stroke="midnightblue" points="222.15,-178 232.74,-178.45 224.75,-171.5 222.15,-178"/>
</g>
<!-- Node6 -->
<g id="node6" class="node">
<title>Node6</title>
<g id="a_node6"><a xlink:href="can__param_8hpp.html" target="_top" xlink:title=" ">
<polygon fill="white" stroke="black" points="173,-89.5 173,-141.5 318,-141.5 318,-89.5 173,-89.5"/>
<text text-anchor="start" x="181" y="-129.5" font-family="Helvetica,sans-Serif" font-size="10.00">alps_core/lib_internal</text>
<text text-anchor="start" x="181" y="-118.5" font-family="Helvetica,sans-Serif" font-size="10.00">/alps_common_lib/include</text>
<text text-anchor="start" x="181" y="-107.5" font-family="Helvetica,sans-Serif" font-size="10.00">/alps_cmn/communication</text>
<text text-anchor="middle" x="245.5" y="-96.5" font-family="Helvetica,sans-Serif" font-size="10.00">/can_param.hpp</text>
</a>
</g>
</g>
<!-- Node4&#45;&gt;Node6 -->
<g id="edge5" class="edge">
<title>Node4&#45;&gt;Node6</title>
<path fill="none" stroke="midnightblue" d="M276.04,-169.64C270.68,-160.31 264.95,-150.35 259.93,-141.61"/>
<polygon fill="midnightblue" stroke="midnightblue" points="273.02,-171.41 281.04,-178.34 279.09,-167.92 273.02,-171.41"/>
</g>
<!-- Node8 -->
<g id="node8" class="node">
<title>Node8</title>
<g id="a_node8"><a xlink:href="can__topic__bridge_8hpp.html" target="_top" xlink:title=" ">
<polygon fill="white" stroke="black" points="305,-0.5 305,-52.5 450,-52.5 450,-0.5 305,-0.5"/>
<text text-anchor="start" x="313" y="-40.5" font-family="Helvetica,sans-Serif" font-size="10.00">alps_core/lib_internal</text>
<text text-anchor="start" x="313" y="-29.5" font-family="Helvetica,sans-Serif" font-size="10.00">/alps_ros2_lib/include</text>
<text text-anchor="start" x="313" y="-18.5" font-family="Helvetica,sans-Serif" font-size="10.00">/alps_ros2/communication</text>
<text text-anchor="middle" x="377.5" y="-7.5" font-family="Helvetica,sans-Serif" font-size="10.00">/can_topic_bridge.hpp</text>
</a>
</g>
</g>
<!-- Node4&#45;&gt;Node8 -->
<g id="edge7" class="edge">
<title>Node4&#45;&gt;Node8</title>
<path fill="none" stroke="midnightblue" d="M313.79,-169.35C318.39,-160.5 323.23,-150.95 327.5,-142 342,-111.66 357.27,-76.09 367.06,-52.74"/>
<polygon fill="midnightblue" stroke="midnightblue" points="310.67,-167.78 309.13,-178.26 316.87,-171.03 310.67,-167.78"/>
</g>
<!-- Node9 -->
<g id="node9" class="node">
<title>Node9</title>
<g id="a_node9"><a xlink:href="topic__converter_8hpp.html" target="_top" xlink:title=" ">
<polygon fill="white" stroke="black" points="374.5,-95 374.5,-136 564.5,-136 564.5,-95 374.5,-95"/>
<text text-anchor="start" x="382.5" y="-124" font-family="Helvetica,sans-Serif" font-size="10.00">alps_core/lib_internal</text>
<text text-anchor="start" x="382.5" y="-113" font-family="Helvetica,sans-Serif" font-size="10.00">/alps_ros2_lib/include</text>
<text text-anchor="middle" x="469.5" y="-102" font-family="Helvetica,sans-Serif" font-size="10.00">/alps_ros2/type/topic_converter.hpp</text>
</a>
</g>
</g>
<!-- Node4&#45;&gt;Node9 -->
<g id="edge8" class="edge">
<title>Node4&#45;&gt;Node9</title>
<path fill="none" stroke="midnightblue" d="M354.84,-173.83C379.77,-161.36 408.08,-147.21 430.34,-136.08"/>
<polygon fill="midnightblue" stroke="midnightblue" points="353.21,-170.73 345.83,-178.34 356.34,-176.99 353.21,-170.73"/>
</g>
<!-- Node7 -->
<g id="node7" class="node">
<title>Node7</title>
<g id="a_node7"><a xlink:href="can__param__bridge_8hpp.html" target="_top" xlink:title=" ">
<polygon fill="white" stroke="black" points="142,-0.5 142,-52.5 287,-52.5 287,-0.5 142,-0.5"/>
<text text-anchor="start" x="150" y="-40.5" font-family="Helvetica,sans-Serif" font-size="10.00">alps_core/lib_internal</text>
<text text-anchor="start" x="150" y="-29.5" font-family="Helvetica,sans-Serif" font-size="10.00">/alps_ros2_lib/include</text>
<text text-anchor="start" x="150" y="-18.5" font-family="Helvetica,sans-Serif" font-size="10.00">/alps_ros2/communication</text>
<text text-anchor="middle" x="214.5" y="-7.5" font-family="Helvetica,sans-Serif" font-size="10.00">/can_param_bridge.hpp</text>
</a>
</g>
</g>
<!-- Node6&#45;&gt;Node7 -->
<g id="edge6" class="edge">
<title>Node6&#45;&gt;Node7</title>
<path fill="none" stroke="midnightblue" d="M233.13,-79.77C229.89,-70.69 226.46,-61.08 223.45,-52.61"/>
<polygon fill="midnightblue" stroke="midnightblue" points="229.88,-81.09 236.53,-89.34 236.47,-78.74 229.88,-81.09"/>
</g>
<!-- Node9&#45;&gt;Node8 -->
<g id="edge9" class="edge">
<title>Node9&#45;&gt;Node8</title>
<path fill="none" stroke="midnightblue" d="M441.19,-87.73C429.43,-76.6 415.84,-63.75 404.24,-52.79"/>
<polygon fill="midnightblue" stroke="midnightblue" points="438.95,-90.43 448.62,-94.76 443.76,-85.34 438.95,-90.43"/>
</g>
<!-- Node10 -->
<g id="node10" class="node">
<title>Node10</title>
<g id="a_node10"><a xlink:href="custom__type__topic__conversion__rule_8hpp.html" target="_top" xlink:title=" ">
<polygon fill="white" stroke="black" points="468.5,-0.5 468.5,-52.5 644.5,-52.5 644.5,-0.5 468.5,-0.5"/>
<text text-anchor="start" x="476.5" y="-40.5" font-family="Helvetica,sans-Serif" font-size="10.00">alps_core/lib_internal</text>
<text text-anchor="start" x="476.5" y="-29.5" font-family="Helvetica,sans-Serif" font-size="10.00">/alps_ros2_lib/include</text>
<text text-anchor="start" x="476.5" y="-18.5" font-family="Helvetica,sans-Serif" font-size="10.00">/alps_ros2/type/custom</text>
<text text-anchor="middle" x="556.5" y="-7.5" font-family="Helvetica,sans-Serif" font-size="10.00">_type_topic_conversion_rule.hpp</text>
</a>
</g>
</g>
<!-- Node9&#45;&gt;Node10 -->
<g id="edge10" class="edge">
<title>Node9&#45;&gt;Node10</title>
<path fill="none" stroke="midnightblue" d="M496.59,-87.41C507.64,-76.36 520.35,-63.65 531.21,-52.79"/>
<polygon fill="midnightblue" stroke="midnightblue" points="493.84,-85.21 489.24,-94.76 498.79,-90.16 493.84,-85.21"/>
</g>
</g>
</svg>
