<?xml version="1.0" encoding="UTF-8" standalone="no"?>
<!DOCTYPE svg PUBLIC "-//W3C//DTD SVG 1.1//EN"
 "http://www.w3.org/Graphics/SVG/1.1/DTD/svg11.dtd">
<!-- Generated by graphviz version 2.43.0 (0)
 -->
<!-- Title: alps_common_lib/include/alps_cmn/control/change_rate_limiter.hpp Pages: 1 -->
<svg width="364pt" height="173pt"
 viewBox="0.00 0.00 364.23 173.00" xmlns="http://www.w3.org/2000/svg" xmlns:xlink="http://www.w3.org/1999/xlink">
<g id="graph0" class="graph" transform="scale(1 1) rotate(0) translate(4 169)">
<title>alps_common_lib/include/alps_cmn/control/change_rate_limiter.hpp</title>
<polygon fill="white" stroke="transparent" points="-4,4 -4,-169 360.23,-169 360.23,4 -4,4"/>
<!-- Node1 -->
<g id="node1" class="node">
<title>Node1</title>
<g id="a_node1"><a xlink:title="時間あたりの変化量に制限をかけるクラス">
<polygon fill="#bfbfbf" stroke="black" points="20.23,-123.5 20.23,-164.5 161.23,-164.5 161.23,-123.5 20.23,-123.5"/>
<text text-anchor="start" x="28.23" y="-152.5" font-family="Helvetica,sans-Serif" font-size="10.00">alps_common_lib/include</text>
<text text-anchor="start" x="28.23" y="-141.5" font-family="Helvetica,sans-Serif" font-size="10.00">/alps_cmn/control/change</text>
<text text-anchor="middle" x="90.73" y="-130.5" font-family="Helvetica,sans-Serif" font-size="10.00">_rate_limiter.hpp</text>
</a>
</g>
</g>
<!-- Node2 -->
<g id="node2" class="node">
<title>Node2</title>
<g id="a_node2"><a xlink:title=" ">
<polygon fill="white" stroke="#bfbfbf" points="32.73,-0.5 32.73,-19.5 82.73,-19.5 82.73,-0.5 32.73,-0.5"/>
<text text-anchor="middle" x="57.73" y="-7.5" font-family="Helvetica,sans-Serif" font-size="10.00">chrono</text>
</a>
</g>
</g>
<!-- Node1&#45;&gt;Node2 -->
<g id="edge1" class="edge">
<title>Node1&#45;&gt;Node2</title>
<path fill="none" stroke="midnightblue" d="M43.31,-123.41C28.2,-114.63 13.22,-102.66 4.73,-87 -1.84,-74.89 -1.06,-68.5 4.73,-56 10.65,-43.21 22.2,-32.72 33.01,-25.1"/>
<polygon fill="midnightblue" stroke="midnightblue" points="34.94,-28.02 41.4,-19.61 31.11,-22.16 34.94,-28.02"/>
</g>
<!-- Node3 -->
<g id="node3" class="node">
<title>Node3</title>
<g id="a_node3"><a xlink:href="duration_8hpp.html" target="_top" xlink:title="時間間隔の型エイリアス">
<polygon fill="white" stroke="black" points="14.23,-62 14.23,-81 167.23,-81 167.23,-62 14.23,-62"/>
<text text-anchor="middle" x="90.73" y="-69" font-family="Helvetica,sans-Serif" font-size="10.00">alps_cmn/time/duration.hpp</text>
</a>
</g>
</g>
<!-- Node1&#45;&gt;Node3 -->
<g id="edge2" class="edge">
<title>Node1&#45;&gt;Node3</title>
<path fill="none" stroke="midnightblue" d="M90.73,-123.36C90.73,-113.3 90.73,-101.1 90.73,-91.18"/>
<polygon fill="midnightblue" stroke="midnightblue" points="94.23,-91.17 90.73,-81.17 87.23,-91.17 94.23,-91.17"/>
</g>
<!-- Node4 -->
<g id="node4" class="node">
<title>Node4</title>
<g id="a_node4"><a xlink:href="numeric__range_8hpp.html" target="_top" xlink:title="数値の範囲を扱うクラス">
<polygon fill="white" stroke="black" points="185.23,-56.5 185.23,-86.5 310.23,-86.5 310.23,-56.5 185.23,-56.5"/>
<text text-anchor="start" x="193.23" y="-74.5" font-family="Helvetica,sans-Serif" font-size="10.00">alps_cmn/util/numeric</text>
<text text-anchor="middle" x="247.73" y="-63.5" font-family="Helvetica,sans-Serif" font-size="10.00">_range.hpp</text>
</a>
</g>
</g>
<!-- Node1&#45;&gt;Node4 -->
<g id="edge4" class="edge">
<title>Node1&#45;&gt;Node4</title>
<path fill="none" stroke="midnightblue" d="M134.46,-123.36C157.17,-113.17 184.74,-100.79 206.99,-90.79"/>
<polygon fill="midnightblue" stroke="midnightblue" points="208.49,-93.96 216.17,-86.67 205.62,-87.57 208.49,-93.96"/>
</g>
<!-- Node3&#45;&gt;Node2 -->
<g id="edge3" class="edge">
<title>Node3&#45;&gt;Node2</title>
<path fill="none" stroke="midnightblue" d="M86,-61.98C81.15,-53.23 73.46,-39.37 67.33,-28.31"/>
<polygon fill="midnightblue" stroke="midnightblue" points="70.36,-26.56 62.45,-19.51 64.24,-29.95 70.36,-26.56"/>
</g>
<!-- Node5 -->
<g id="node5" class="node">
<title>Node5</title>
<g id="a_node5"><a xlink:title=" ">
<polygon fill="white" stroke="#bfbfbf" points="140.73,-0.5 140.73,-19.5 184.73,-19.5 184.73,-0.5 140.73,-0.5"/>
<text text-anchor="middle" x="162.73" y="-7.5" font-family="Helvetica,sans-Serif" font-size="10.00">limits</text>
</a>
</g>
</g>
<!-- Node4&#45;&gt;Node5 -->
<g id="edge5" class="edge">
<title>Node4&#45;&gt;Node5</title>
<path fill="none" stroke="midnightblue" d="M227.59,-56.4C214.34,-47.13 197.05,-35.03 183.65,-25.65"/>
<polygon fill="midnightblue" stroke="midnightblue" points="185.3,-22.53 175.1,-19.66 181.28,-28.26 185.3,-22.53"/>
</g>
<!-- Node6 -->
<g id="node6" class="node">
<title>Node6</title>
<g id="a_node6"><a xlink:href="algorithm_8hpp.html" target="_top" xlink:title=" ">
<polygon fill="white" stroke="black" points="203.23,-0.5 203.23,-19.5 356.23,-19.5 356.23,-0.5 203.23,-0.5"/>
<text text-anchor="middle" x="279.73" y="-7.5" font-family="Helvetica,sans-Serif" font-size="10.00">alps_cmn/util/algorithm.hpp</text>
</a>
</g>
</g>
<!-- Node4&#45;&gt;Node6 -->
<g id="edge6" class="edge">
<title>Node4&#45;&gt;Node6</title>
<path fill="none" stroke="midnightblue" d="M255.31,-56.4C259.77,-48.11 265.45,-37.55 270.21,-28.71"/>
<polygon fill="midnightblue" stroke="midnightblue" points="273.42,-30.12 275.07,-19.66 267.25,-26.81 273.42,-30.12"/>
</g>
</g>
</svg>
