<?xml version="1.0" encoding="UTF-8" standalone="no"?>
<!DOCTYPE svg PUBLIC "-//W3C//DTD SVG 1.1//EN"
 "http://www.w3.org/Graphics/SVG/1.1/DTD/svg11.dtd">
<!-- Generated by graphviz version 2.43.0 (0)
 -->
<!-- Title: roblab::common_lib::Dob Pages: 1 -->
<svg width="294pt" height="148pt"
 viewBox="0.00 0.00 294.00 148.00" xmlns="http://www.w3.org/2000/svg" xmlns:xlink="http://www.w3.org/1999/xlink">
<g id="graph0" class="graph" transform="scale(1 1) rotate(0) translate(4 144)">
<title>roblab::common_lib::Dob</title>
<!-- Node1 -->
<g id="node1" class="node">
<title>Node1</title>
<g id="a_node1"><a xlink:title="外乱オブザーバー">
<polygon fill="#999999" stroke="#666666" points="212.5,-85 73.5,-85 73.5,-66 212.5,-66 212.5,-85"/>
<text text-anchor="middle" x="143" y="-73" font-family="Helvetica,sans-Serif" font-size="10.00">roblab::common_lib::Dob</text>
</a>
</g>
</g>
<!-- Node4 -->
<g id="node4" class="node">
<title>Node4</title>
<g id="a_node4"><a xlink:href="classroblab_1_1common__lib_1_1_trapezoid_control.html" target="_top" xlink:title="台形制御クラス">
<polygon fill="white" stroke="#666666" points="199.5,-30 86.5,-30 86.5,0 199.5,0 199.5,-30"/>
<text text-anchor="start" x="94.5" y="-18" font-family="Helvetica,sans-Serif" font-size="10.00">roblab::common_lib</text>
<text text-anchor="middle" x="143" y="-7" font-family="Helvetica,sans-Serif" font-size="10.00">::TrapezoidControl</text>
</a>
</g>
</g>
<!-- Node1&#45;&gt;Node4 -->
<g id="edge3" class="edge">
<title>Node1&#45;&gt;Node4</title>
<path fill="none" stroke="#63b8ff" d="M143,-55.65C143,-47.36 143,-37.78 143,-30.11"/>
<polygon fill="#63b8ff" stroke="#63b8ff" points="139.5,-55.87 143,-65.87 146.5,-55.87 139.5,-55.87"/>
</g>
<!-- Node2 -->
<g id="node2" class="node">
<title>Node2</title>
<g id="a_node2"><a xlink:href="classroblab_1_1common__lib_1_1_pid.html" target="_top" xlink:title="PID制御を行うクラス">
<polygon fill="white" stroke="#666666" points="134,-140 0,-140 0,-121 134,-121 134,-140"/>
<text text-anchor="middle" x="67" y="-128" font-family="Helvetica,sans-Serif" font-size="10.00">roblab::common_lib::Pid</text>
</a>
</g>
</g>
<!-- Node2&#45;&gt;Node1 -->
<g id="edge1" class="edge">
<title>Node2&#45;&gt;Node1</title>
<path fill="none" stroke="#63b8ff" d="M87.58,-115.15C101.31,-105.57 118.93,-93.29 130.57,-85.17"/>
<polygon fill="#63b8ff" stroke="#63b8ff" points="85.41,-112.39 79.21,-120.98 89.42,-118.14 85.41,-112.39"/>
</g>
<!-- Node3 -->
<g id="node3" class="node">
<title>Node3</title>
<g id="a_node3"><a xlink:href="classroblab_1_1common__lib_1_1_lpf.html" target="_top" xlink:title="ローパスフィルタのクラス">
<polygon fill="white" stroke="#666666" points="286,-140 152,-140 152,-121 286,-121 286,-140"/>
<text text-anchor="middle" x="219" y="-128" font-family="Helvetica,sans-Serif" font-size="10.00">roblab::common_lib::Lpf</text>
</a>
</g>
</g>
<!-- Node3&#45;&gt;Node1 -->
<g id="edge2" class="edge">
<title>Node3&#45;&gt;Node1</title>
<path fill="none" stroke="#63b8ff" d="M198.42,-115.15C184.69,-105.57 167.07,-93.29 155.43,-85.17"/>
<polygon fill="#63b8ff" stroke="#63b8ff" points="196.58,-118.14 206.79,-120.98 200.59,-112.39 196.58,-118.14"/>
</g>
</g>
</svg>
