<?xml version="1.0" encoding="UTF-8" standalone="no"?>
<!DOCTYPE svg PUBLIC "-//W3C//DTD SVG 1.1//EN"
 "http://www.w3.org/Graphics/SVG/1.1/DTD/svg11.dtd">
<!-- Generated by graphviz version 2.43.0 (0)
 -->
<!-- Title: IdPacketManager&lt; ISerialIoImpl &gt; Pages: 1 -->
<svg width="159pt" height="128pt"
 viewBox="0.00 0.00 159.00 128.00" xmlns="http://www.w3.org/2000/svg" xmlns:xlink="http://www.w3.org/1999/xlink">
<g id="graph0" class="graph" transform="scale(1 1) rotate(0) translate(4 124)">
<title>IdPacketManager&lt; ISerialIoImpl &gt;</title>
<!-- Node1 -->
<g id="node1" class="node">
<title>Node1</title>
<g id="a_node1"><a xlink:title="ID付きパケットデータを管理するクラス">
<polygon fill="#999999" stroke="transparent" points="151,-120 0,-120 0,0 151,0 151,-120"/>
<text text-anchor="start" x="12.5" y="-108" font-family="Helvetica,sans-Serif" font-size="10.00">IdPacketManager&lt; ISerial</text>
<text text-anchor="start" x="54.5" y="-97" font-family="Helvetica,sans-Serif" font-size="10.00">IoImpl &gt;</text>
<text text-anchor="start" x="72.5" y="-82" font-family="Helvetica,sans-Serif" font-size="10.00"> </text>
<text text-anchor="start" x="4.5" y="-67" font-family="Helvetica,sans-Serif" font-size="10.00">+</text>
<text text-anchor="start" x="17.5" y="-67" font-family="Helvetica,sans-Serif" font-size="10.00">IdPacketManager()</text>
<text text-anchor="start" x="4.5" y="-52" font-family="Helvetica,sans-Serif" font-size="10.00">+</text>
<text text-anchor="start" x="17.5" y="-52" font-family="Helvetica,sans-Serif" font-size="10.00">RegisterSender()</text>
<text text-anchor="start" x="4.5" y="-37" font-family="Helvetica,sans-Serif" font-size="10.00">+</text>
<text text-anchor="start" x="17.5" y="-37" font-family="Helvetica,sans-Serif" font-size="10.00">RegisterReceiveCallback()</text>
<text text-anchor="start" x="4.5" y="-22" font-family="Helvetica,sans-Serif" font-size="10.00">+</text>
<text text-anchor="start" x="17.5" y="-22" font-family="Helvetica,sans-Serif" font-size="10.00">WritePacket()</text>
<text text-anchor="start" x="4.5" y="-7" font-family="Helvetica,sans-Serif" font-size="10.00">+</text>
<text text-anchor="start" x="17.5" y="-7" font-family="Helvetica,sans-Serif" font-size="10.00">ReadPacket()</text>
<polygon fill="#666666" stroke="#666666" points="0.5,-92 0.5,-92 151.5,-92 151.5,-92 0.5,-92"/>
<polygon fill="#666666" stroke="#666666" points="0.5,-77 0.5,-77 151.5,-77 151.5,-77 0.5,-77"/>
<polygon fill="none" stroke="#666666" points="0,0 0,-120 151,-120 151,0 0,0"/>
</a>
</g>
</g>
</g>
</svg>
