<?xml version="1.0" encoding="UTF-8" standalone="no"?>
<!DOCTYPE svg PUBLIC "-//W3C//DTD SVG 1.1//EN"
 "http://www.w3.org/Graphics/SVG/1.1/DTD/svg11.dtd">
<!-- Generated by graphviz version 2.43.0 (0)
 -->
<!-- Title: roblab::common::serial::ISerialIO Pages: 1 -->
<svg width="300pt" height="104pt"
 viewBox="0.00 0.00 299.50 104.00" xmlns="http://www.w3.org/2000/svg" xmlns:xlink="http://www.w3.org/1999/xlink">
<g id="graph0" class="graph" transform="scale(1 1) rotate(0) translate(4 100)">
<title>roblab::common::serial::ISerialIO</title>
<!-- Node1 -->
<g id="node1" class="node">
<title>Node1</title>
<g id="a_node1"><a xlink:title="シリアル通信を行うIO抽象インターフェース">
<polygon fill="#999999" stroke="#666666" points="227.5,-96 98.5,-96 98.5,-66 227.5,-66 227.5,-96"/>
<text text-anchor="start" x="106.5" y="-84" font-family="Helvetica,sans-Serif" font-size="10.00">roblab::common::serial</text>
<text text-anchor="middle" x="163" y="-73" font-family="Helvetica,sans-Serif" font-size="10.00">::ISerialIO</text>
</a>
</g>
</g>
<!-- Node2 -->
<g id="node2" class="node">
<title>Node2</title>
<g id="a_node2"><a xlink:href="classroblab_1_1mbed_1_1_mbed_uart_serial_io.html" target="_top" xlink:title="mbedのUartシリアル通信IOクラス">
<polygon fill="white" stroke="#666666" points="172,-24.5 0,-24.5 0,-5.5 172,-5.5 172,-24.5"/>
<text text-anchor="middle" x="86" y="-12.5" font-family="Helvetica,sans-Serif" font-size="10.00">roblab::mbed::MbedUartSerialIo</text>
</a>
</g>
</g>
<!-- Node1&#45;&gt;Node2 -->
<g id="edge1" class="edge">
<title>Node1&#45;&gt;Node2</title>
<path fill="none" stroke="#63b8ff" d="M138.05,-59.26C124.04,-47.61 107.28,-33.69 96.64,-24.84"/>
<polygon fill="#63b8ff" stroke="#63b8ff" points="135.98,-62.1 145.91,-65.8 140.46,-56.71 135.98,-62.1"/>
</g>
<!-- Node3 -->
<g id="node3" class="node">
<title>Node3</title>
<g id="a_node3"><a xlink:href="classroblab_1_1ros_1_1serial_1_1_posix_serial_i_o.html" target="_top" xlink:title="POSIX APIを提供する環境でのUartシリアル通信IOクラス">
<polygon fill="white" stroke="#666666" points="291.5,-30 190.5,-30 190.5,0 291.5,0 291.5,-30"/>
<text text-anchor="start" x="198.5" y="-18" font-family="Helvetica,sans-Serif" font-size="10.00">roblab::ros::serial</text>
<text text-anchor="middle" x="241" y="-7" font-family="Helvetica,sans-Serif" font-size="10.00">::PosixSerialIO</text>
</a>
</g>
</g>
<!-- Node1&#45;&gt;Node3 -->
<g id="edge2" class="edge">
<title>Node1&#45;&gt;Node3</title>
<path fill="none" stroke="#63b8ff" d="M188.35,-59.2C199.93,-49.7 213.35,-38.69 223.74,-30.16"/>
<polygon fill="#63b8ff" stroke="#63b8ff" points="185.82,-56.75 180.31,-65.8 190.26,-62.16 185.82,-56.75"/>
</g>
</g>
</svg>
