<?xml version="1.0" encoding="UTF-8" standalone="no"?>
<!DOCTYPE svg PUBLIC "-//W3C//DTD SVG 1.1//EN"
 "http://www.w3.org/Graphics/SVG/1.1/DTD/svg11.dtd">
<!-- Generated by graphviz version 2.43.0 (0)
 -->
<!-- Title: roblab::common::serial::DataSerializer&lt; std::tuple&lt; Args... &gt; &gt; Pages: 1 -->
<svg width="131pt" height="154pt"
 viewBox="0.00 0.00 131.00 154.00" xmlns="http://www.w3.org/2000/svg" xmlns:xlink="http://www.w3.org/1999/xlink">
<g id="graph0" class="graph" transform="scale(1 1) rotate(0) translate(4 150)">
<title>roblab::common::serial::DataSerializer&lt; std::tuple&lt; Args... &gt; &gt;</title>
<!-- Node1 -->
<g id="node1" class="node">
<title>Node1</title>
<g id="a_node1"><a xlink:title="std::tuple型に特殊化したデータとバイト列の変換器">
<polygon fill="#999999" stroke="transparent" points="123,-146 0,-146 0,0 123,0 123,-146"/>
<text text-anchor="start" x="5.5" y="-134" font-family="Helvetica,sans-Serif" font-size="10.00">roblab::common::serial</text>
<text text-anchor="start" x="5.5" y="-123" font-family="Helvetica,sans-Serif" font-size="10.00">::DataSerializer&lt; std</text>
<text text-anchor="start" x="14" y="-112" font-family="Helvetica,sans-Serif" font-size="10.00">::tuple&lt; Args... &gt; &gt;</text>
<text text-anchor="start" x="58.5" y="-97" font-family="Helvetica,sans-Serif" font-size="10.00"> </text>
<text text-anchor="start" x="8" y="-82" font-family="Helvetica,sans-Serif" font-size="10.00">+</text>
<text text-anchor="start" x="24.5" y="-82" font-family="Helvetica,sans-Serif" font-size="10.00">Serialize()</text>
<text text-anchor="start" x="8" y="-67" font-family="Helvetica,sans-Serif" font-size="10.00">+</text>
<text text-anchor="start" x="24.5" y="-67" font-family="Helvetica,sans-Serif" font-size="10.00">SerializeTuple()</text>
<text text-anchor="start" x="8" y="-52" font-family="Helvetica,sans-Serif" font-size="10.00">+</text>
<text text-anchor="start" x="24.5" y="-52" font-family="Helvetica,sans-Serif" font-size="10.00">SerializeTuple()</text>
<text text-anchor="start" x="8" y="-37" font-family="Helvetica,sans-Serif" font-size="10.00">+</text>
<text text-anchor="start" x="24.5" y="-37" font-family="Helvetica,sans-Serif" font-size="10.00">Deserialize()</text>
<text text-anchor="start" x="8" y="-22" font-family="Helvetica,sans-Serif" font-size="10.00">+</text>
<text text-anchor="start" x="24.5" y="-22" font-family="Helvetica,sans-Serif" font-size="10.00">DeserializeTuple()</text>
<text text-anchor="start" x="8" y="-7" font-family="Helvetica,sans-Serif" font-size="10.00">+</text>
<text text-anchor="start" x="24.5" y="-7" font-family="Helvetica,sans-Serif" font-size="10.00">DeserializeTuple()</text>
<polygon fill="#666666" stroke="#666666" points="0.5,-107 0.5,-107 123.5,-107 123.5,-107 0.5,-107"/>
<polygon fill="#666666" stroke="#666666" points="0.5,-92 0.5,-92 123.5,-92 123.5,-92 0.5,-92"/>
<polygon fill="none" stroke="#666666" points="0,0 0,-146 123,-146 123,0 0,0"/>
</a>
</g>
</g>
</g>
</svg>
