<?xml version="1.0" encoding="UTF-8" standalone="no"?>
<!DOCTYPE svg PUBLIC "-//W3C//DTD SVG 1.1//EN"
 "http://www.w3.org/Graphics/SVG/1.1/DTD/svg11.dtd">
<!-- Generated by graphviz version 2.43.0 (0)
 -->
<!-- Title: alps::lin::communication::UartIo Pages: 1 -->
<svg width="306pt" height="305pt"
 viewBox="0.00 0.00 306.00 305.00" xmlns="http://www.w3.org/2000/svg" xmlns:xlink="http://www.w3.org/1999/xlink">
<g id="graph0" class="graph" transform="scale(1 1) rotate(0) translate(4 301)">
<title>alps::lin::communication::UartIo</title>
<!-- Node1 -->
<g id="node1" class="node">
<title>Node1</title>
<g id="a_node1"><a xlink:title="Linux環境でのUart通信IOクラス">
<polygon fill="#999999" stroke="transparent" points="214.5,-105 83.5,-105 83.5,0 214.5,0 214.5,-105"/>
<text text-anchor="start" x="89" y="-92.5" font-family="Helvetica,sans-Serif" font-size="10.00">alps::lin::communication</text>
<text text-anchor="start" x="131" y="-81.5" font-family="Helvetica,sans-Serif" font-size="10.00">::UartIo</text>
<text text-anchor="start" x="146" y="-66.5" font-family="Helvetica,sans-Serif" font-size="10.00"> </text>
<text text-anchor="start" x="104" y="-51.5" font-family="Helvetica,sans-Serif" font-size="10.00">+</text>
<text text-anchor="start" x="133" y="-51.5" font-family="Helvetica,sans-Serif" font-size="10.00">UartIo()</text>
<text text-anchor="start" x="104" y="-36.5" font-family="Helvetica,sans-Serif" font-size="10.00">+</text>
<text text-anchor="start" x="133" y="-36.5" font-family="Helvetica,sans-Serif" font-size="10.00">~UartIo()</text>
<text text-anchor="start" x="104" y="-21.5" font-family="Helvetica,sans-Serif" font-size="10.00">+</text>
<text text-anchor="start" x="133" y="-21.5" font-family="Helvetica,sans-Serif" font-size="10.00">Write()</text>
<text text-anchor="start" x="104" y="-6.5" font-family="Helvetica,sans-Serif" font-size="10.00">+</text>
<text text-anchor="start" x="133" y="-6.5" font-family="Helvetica,sans-Serif" font-size="10.00">Read()</text>
<polygon fill="#666666" stroke="#666666" points="84,-76.5 84,-76.5 215,-76.5 215,-76.5 84,-76.5"/>
<polygon fill="#666666" stroke="#666666" points="84,-61.5 84,-61.5 215,-61.5 215,-61.5 84,-61.5"/>
<polygon fill="none" stroke="#666666" points="83.5,0 83.5,-105 214.5,-105 214.5,0 83.5,0"/>
</a>
</g>
</g>
<!-- Node2 -->
<g id="node2" class="node">
<title>Node2</title>
<g id="a_node2"><a xlink:href="classalps_1_1cmn_1_1communication_1_1_i_uart_io.html" target="_top" xlink:title=" ">
<polygon fill="white" stroke="transparent" points="219,-201 79,-201 79,-141 219,-141 219,-201"/>
<text text-anchor="start" x="84" y="-189" font-family="Helvetica,sans-Serif" font-size="10.00">alps::cmn::communication</text>
<text text-anchor="start" x="103" y="-178" font-family="Helvetica,sans-Serif" font-size="10.00">::IUartIo&lt; UartIo &gt;</text>
<text text-anchor="start" x="145.5" y="-163" font-family="Helvetica,sans-Serif" font-size="10.00"> </text>
<text text-anchor="start" x="145.5" y="-148" font-family="Helvetica,sans-Serif" font-size="10.00"> </text>
<polygon fill="#666666" stroke="#666666" points="79,-173 79,-173 219,-173 219,-173 79,-173"/>
<polygon fill="#666666" stroke="#666666" points="79,-158 79,-158 219,-158 219,-158 79,-158"/>
<polygon fill="none" stroke="#666666" points="79,-141 79,-201 219,-201 219,-141 79,-141"/>
</a>
</g>
</g>
<!-- Node2&#45;&gt;Node1 -->
<g id="edge1" class="edge">
<title>Node2&#45;&gt;Node1</title>
<path fill="none" stroke="#63b8ff" d="M149,-130.88C149,-122.68 149,-113.92 149,-105.34"/>
<polygon fill="none" stroke="#63b8ff" points="145.5,-130.9 149,-140.9 152.5,-130.9 145.5,-130.9"/>
</g>
<!-- Node3 -->
<g id="node3" class="node">
<title>Node3</title>
<g id="a_node3"><a xlink:href="classalps_1_1cmn_1_1communication_1_1_i_uart_write.html" target="_top" xlink:title="Uart書き込みのインターフェース">
<polygon fill="white" stroke="transparent" points="140,-297 0,-297 0,-237 140,-237 140,-297"/>
<text text-anchor="start" x="5" y="-285" font-family="Helvetica,sans-Serif" font-size="10.00">alps::cmn::communication</text>
<text text-anchor="start" x="11" y="-274" font-family="Helvetica,sans-Serif" font-size="10.00">::IUartWrite&lt; Derived &gt;</text>
<text text-anchor="start" x="66.5" y="-259" font-family="Helvetica,sans-Serif" font-size="10.00"> </text>
<text text-anchor="start" x="20.5" y="-244" font-family="Helvetica,sans-Serif" font-size="10.00">+</text>
<text text-anchor="start" x="50" y="-244" font-family="Helvetica,sans-Serif" font-size="10.00">CallWrite()</text>
<polygon fill="#666666" stroke="#666666" points="0,-269 0,-269 140,-269 140,-269 0,-269"/>
<polygon fill="#666666" stroke="#666666" points="0,-254 0,-254 140,-254 140,-254 0,-254"/>
<polygon fill="none" stroke="#666666" points="0,-237 0,-297 140,-297 140,-237 0,-237"/>
</a>
</g>
</g>
<!-- Node3&#45;&gt;Node2 -->
<g id="edge2" class="edge">
<title>Node3&#45;&gt;Node2</title>
<path fill="none" stroke="#63b8ff" d="M101.21,-228.87C108.93,-219.68 117.1,-209.96 124.45,-201.21"/>
<polygon fill="none" stroke="#63b8ff" points="98.32,-226.87 94.56,-236.77 103.68,-231.37 98.32,-226.87"/>
</g>
<!-- Node4 -->
<g id="node4" class="node">
<title>Node4</title>
<g id="a_node4"><a xlink:href="classalps_1_1cmn_1_1communication_1_1_i_uart_read.html" target="_top" xlink:title="Uart読み込みのインターフェース">
<polygon fill="white" stroke="transparent" points="298,-297 158,-297 158,-237 298,-237 298,-297"/>
<text text-anchor="start" x="163" y="-285" font-family="Helvetica,sans-Serif" font-size="10.00">alps::cmn::communication</text>
<text text-anchor="start" x="170" y="-274" font-family="Helvetica,sans-Serif" font-size="10.00">::IUartRead&lt; Derived &gt;</text>
<text text-anchor="start" x="224.5" y="-259" font-family="Helvetica,sans-Serif" font-size="10.00"> </text>
<text text-anchor="start" x="178.5" y="-244" font-family="Helvetica,sans-Serif" font-size="10.00">+</text>
<text text-anchor="start" x="208" y="-244" font-family="Helvetica,sans-Serif" font-size="10.00">CallRead()</text>
<polygon fill="#666666" stroke="#666666" points="158,-269 158,-269 298,-269 298,-269 158,-269"/>
<polygon fill="#666666" stroke="#666666" points="158,-254 158,-254 298,-254 298,-254 158,-254"/>
<polygon fill="none" stroke="#666666" points="158,-237 158,-297 298,-297 298,-237 158,-237"/>
</a>
</g>
</g>
<!-- Node4&#45;&gt;Node2 -->
<g id="edge3" class="edge">
<title>Node4&#45;&gt;Node2</title>
<path fill="none" stroke="#63b8ff" d="M196.79,-228.87C189.07,-219.68 180.9,-209.96 173.55,-201.21"/>
<polygon fill="none" stroke="#63b8ff" points="194.32,-231.37 203.44,-236.77 199.68,-226.87 194.32,-231.37"/>
</g>
</g>
</svg>
