<?xml version="1.0" encoding="UTF-8" standalone="no"?>
<!DOCTYPE svg PUBLIC "-//W3C//DTD SVG 1.1//EN"
 "http://www.w3.org/Graphics/SVG/1.1/DTD/svg11.dtd">
<!-- Generated by graphviz version 2.43.0 (0)
 -->
<!-- Title: roblab::common::serial::DataSerializer&lt; std::vector&lt; U &gt; &gt; Pages: 1 -->
<svg width="131pt" height="94pt"
 viewBox="0.00 0.00 131.00 94.00" xmlns="http://www.w3.org/2000/svg" xmlns:xlink="http://www.w3.org/1999/xlink">
<g id="graph0" class="graph" transform="scale(1 1) rotate(0) translate(4 90)">
<title>roblab::common::serial::DataSerializer&lt; std::vector&lt; U &gt; &gt;</title>
<!-- Node1 -->
<g id="node1" class="node">
<title>Node1</title>
<g id="a_node1"><a xlink:title="std::vector型に特殊化したデータとバイト列の変換器">
<polygon fill="#999999" stroke="transparent" points="123,-86 0,-86 0,0 123,0 123,-86"/>
<text text-anchor="start" x="5.5" y="-74" font-family="Helvetica,sans-Serif" font-size="10.00">roblab::common::serial</text>
<text text-anchor="start" x="5.5" y="-63" font-family="Helvetica,sans-Serif" font-size="10.00">::DataSerializer&lt; std</text>
<text text-anchor="start" x="22.5" y="-52" font-family="Helvetica,sans-Serif" font-size="10.00">::vector&lt; U &gt; &gt;</text>
<text text-anchor="start" x="58.5" y="-37" font-family="Helvetica,sans-Serif" font-size="10.00"> </text>
<text text-anchor="start" x="14" y="-22" font-family="Helvetica,sans-Serif" font-size="10.00">+</text>
<text text-anchor="start" x="36.5" y="-22" font-family="Helvetica,sans-Serif" font-size="10.00">Serialize()</text>
<text text-anchor="start" x="14" y="-7" font-family="Helvetica,sans-Serif" font-size="10.00">+</text>
<text text-anchor="start" x="36.5" y="-7" font-family="Helvetica,sans-Serif" font-size="10.00">Deserialize()</text>
<polygon fill="#666666" stroke="#666666" points="0.5,-47 0.5,-47 123.5,-47 123.5,-47 0.5,-47"/>
<polygon fill="#666666" stroke="#666666" points="0.5,-32 0.5,-32 123.5,-32 123.5,-32 0.5,-32"/>
<polygon fill="none" stroke="#666666" points="0,0 0,-86 123,-86 123,0 0,0"/>
</a>
</g>
</g>
</g>
</svg>
