<?xml version="1.0" encoding="UTF-8" standalone="no"?>
<!DOCTYPE svg PUBLIC "-//W3C//DTD SVG 1.1//EN"
 "http://www.w3.org/Graphics/SVG/1.1/DTD/svg11.dtd">
<!-- Generated by graphviz version 2.43.0 (0)
 -->
<!-- Title: alps::cmn::communication::ICanIo&lt; Derived &gt; Pages: 1 -->
<svg width="306pt" height="164pt"
 viewBox="0.00 0.00 306.00 164.00" xmlns="http://www.w3.org/2000/svg" xmlns:xlink="http://www.w3.org/1999/xlink">
<g id="graph0" class="graph" transform="scale(1 1) rotate(0) translate(4 160)">
<title>alps::cmn::communication::ICanIo&lt; Derived &gt;</title>
<!-- Node1 -->
<g id="node1" class="node">
<title>Node1</title>
<g id="a_node1"><a xlink:title="CAN通信IOのインターフェース">
<polygon fill="#999999" stroke="transparent" points="219,-60 79,-60 79,0 219,0 219,-60"/>
<text text-anchor="start" x="84" y="-48" font-family="Helvetica,sans-Serif" font-size="10.00">alps::cmn::communication</text>
<text text-anchor="start" x="100" y="-37" font-family="Helvetica,sans-Serif" font-size="10.00">::ICanIo&lt; Derived &gt;</text>
<text text-anchor="start" x="145.5" y="-22" font-family="Helvetica,sans-Serif" font-size="10.00"> </text>
<text text-anchor="start" x="145.5" y="-7" font-family="Helvetica,sans-Serif" font-size="10.00"> </text>
<polygon fill="#666666" stroke="#666666" points="79,-32 79,-32 219,-32 219,-32 79,-32"/>
<polygon fill="#666666" stroke="#666666" points="79,-17 79,-17 219,-17 219,-17 79,-17"/>
<polygon fill="none" stroke="#666666" points="79,0 79,-60 219,-60 219,0 79,0"/>
</a>
</g>
</g>
<!-- Node2 -->
<g id="node2" class="node">
<title>Node2</title>
<g id="a_node2"><a xlink:href="classalps_1_1cmn_1_1communication_1_1_i_can_write.html" target="_top" xlink:title="CAN通信でデータを書き込むインターフェース">
<polygon fill="white" stroke="transparent" points="140,-156 0,-156 0,-96 140,-96 140,-156"/>
<text text-anchor="start" x="5" y="-144" font-family="Helvetica,sans-Serif" font-size="10.00">alps::cmn::communication</text>
<text text-anchor="start" x="12.5" y="-133" font-family="Helvetica,sans-Serif" font-size="10.00">::ICanWrite&lt; Derived &gt;</text>
<text text-anchor="start" x="66.5" y="-118" font-family="Helvetica,sans-Serif" font-size="10.00"> </text>
<text text-anchor="start" x="16.5" y="-103" font-family="Helvetica,sans-Serif" font-size="10.00">+</text>
<text text-anchor="start" x="42" y="-103" font-family="Helvetica,sans-Serif" font-size="10.00">CallTryWrite()</text>
<polygon fill="#666666" stroke="#666666" points="0,-128 0,-128 140,-128 140,-128 0,-128"/>
<polygon fill="#666666" stroke="#666666" points="0,-113 0,-113 140,-113 140,-113 0,-113"/>
<polygon fill="none" stroke="#666666" points="0,-96 0,-156 140,-156 140,-96 0,-96"/>
</a>
</g>
</g>
<!-- Node2&#45;&gt;Node1 -->
<g id="edge1" class="edge">
<title>Node2&#45;&gt;Node1</title>
<path fill="none" stroke="#63b8ff" d="M101.21,-87.87C108.93,-78.68 117.1,-68.96 124.45,-60.21"/>
<polygon fill="none" stroke="#63b8ff" points="98.32,-85.87 94.56,-95.77 103.68,-90.37 98.32,-85.87"/>
</g>
<!-- Node3 -->
<g id="node3" class="node">
<title>Node3</title>
<g id="a_node3"><a xlink:href="classalps_1_1cmn_1_1communication_1_1_i_can_read.html" target="_top" xlink:title="CAN通信でデータを読み込むインターフェース">
<polygon fill="white" stroke="transparent" points="298,-156 158,-156 158,-96 298,-96 298,-156"/>
<text text-anchor="start" x="163" y="-144" font-family="Helvetica,sans-Serif" font-size="10.00">alps::cmn::communication</text>
<text text-anchor="start" x="171" y="-133" font-family="Helvetica,sans-Serif" font-size="10.00">::ICanRead&lt; Derived &gt;</text>
<text text-anchor="start" x="224.5" y="-118" font-family="Helvetica,sans-Serif" font-size="10.00"> </text>
<text text-anchor="start" x="175" y="-103" font-family="Helvetica,sans-Serif" font-size="10.00">+</text>
<text text-anchor="start" x="201" y="-103" font-family="Helvetica,sans-Serif" font-size="10.00">CallTryRead()</text>
<polygon fill="#666666" stroke="#666666" points="158,-128 158,-128 298,-128 298,-128 158,-128"/>
<polygon fill="#666666" stroke="#666666" points="158,-113 158,-113 298,-113 298,-113 158,-113"/>
<polygon fill="none" stroke="#666666" points="158,-96 158,-156 298,-156 298,-96 158,-96"/>
</a>
</g>
</g>
<!-- Node3&#45;&gt;Node1 -->
<g id="edge2" class="edge">
<title>Node3&#45;&gt;Node1</title>
<path fill="none" stroke="#63b8ff" d="M196.79,-87.87C189.07,-78.68 180.9,-68.96 173.55,-60.21"/>
<polygon fill="none" stroke="#63b8ff" points="194.32,-90.37 203.44,-95.77 199.68,-85.87 194.32,-90.37"/>
</g>
</g>
</svg>
