<?xml version="1.0" encoding="UTF-8" standalone="no"?>
<!DOCTYPE svg PUBLIC "-//W3C//DTD SVG 1.1//EN"
 "http://www.w3.org/Graphics/SVG/1.1/DTD/svg11.dtd">
<!-- Generated by graphviz version 2.43.0 (0)
 -->
<!-- Title: alps::mbed::actuator::ServoMotor Pages: 1 -->
<svg width="219pt" height="451pt"
 viewBox="0.00 0.00 219.00 451.00" xmlns="http://www.w3.org/2000/svg" xmlns:xlink="http://www.w3.org/1999/xlink">
<g id="graph0" class="graph" transform="scale(1 1) rotate(0) translate(4 447)">
<title>alps::mbed::actuator::ServoMotor</title>
<!-- Node1 -->
<g id="node1" class="node">
<title>Node1</title>
<g id="a_node1"><a xlink:title="PWMパルス幅で指定した角度に動くサーボモータのmbed用実装">
<polygon fill="#999999" stroke="transparent" points="146.5,-75 35.5,-75 35.5,0 146.5,0 146.5,-75"/>
<text text-anchor="start" x="41" y="-62.5" font-family="Helvetica,sans-Serif" font-size="10.00">alps::mbed::actuator</text>
<text text-anchor="start" x="60" y="-51.5" font-family="Helvetica,sans-Serif" font-size="10.00">::ServoMotor</text>
<text text-anchor="start" x="88" y="-36.5" font-family="Helvetica,sans-Serif" font-size="10.00"> </text>
<text text-anchor="start" x="46.5" y="-21.5" font-family="Helvetica,sans-Serif" font-size="10.00">+</text>
<text text-anchor="start" x="66" y="-21.5" font-family="Helvetica,sans-Serif" font-size="10.00">ServoMotor()</text>
<text text-anchor="start" x="46.5" y="-6.5" font-family="Helvetica,sans-Serif" font-size="10.00">+</text>
<text text-anchor="start" x="66" y="-6.5" font-family="Helvetica,sans-Serif" font-size="10.00">ServoMotor()</text>
<polygon fill="#666666" stroke="#666666" points="36,-46.5 36,-46.5 147,-46.5 147,-46.5 36,-46.5"/>
<polygon fill="#666666" stroke="#666666" points="36,-31.5 36,-31.5 147,-31.5 147,-31.5 36,-31.5"/>
<polygon fill="none" stroke="#666666" points="35.5,0 35.5,-75 146.5,-75 146.5,0 35.5,0"/>
</a>
</g>
</g>
<!-- Node2 -->
<g id="node2" class="node">
<title>Node2</title>
<g id="a_node2"><a xlink:href="classalps_1_1cmn_1_1actuator_1_1_servo_motor_base.html" target="_top" xlink:title=" ">
<polygon fill="white" stroke="transparent" points="159,-254 23,-254 23,-112 159,-112 159,-254"/>
<text text-anchor="start" x="28" y="-242" font-family="Helvetica,sans-Serif" font-size="10.00">alps::cmn::actuator</text>
<text text-anchor="start" x="28" y="-231" font-family="Helvetica,sans-Serif" font-size="10.00">::ServoMotorBase&lt; mbed</text>
<text text-anchor="start" x="28" y="-220" font-family="Helvetica,sans-Serif" font-size="10.00">::gpio::PwmOut, mbed::</text>
<text text-anchor="start" x="51" y="-209" font-family="Helvetica,sans-Serif" font-size="10.00">gpio::PwmOut &gt;</text>
<text text-anchor="start" x="87.5" y="-194" font-family="Helvetica,sans-Serif" font-size="10.00"> </text>
<text text-anchor="start" x="31.5" y="-179" font-family="Helvetica,sans-Serif" font-size="10.00">+</text>
<text text-anchor="start" x="49" y="-179" font-family="Helvetica,sans-Serif" font-size="10.00">ServoMotorBase()</text>
<text text-anchor="start" x="31.5" y="-164" font-family="Helvetica,sans-Serif" font-size="10.00">+</text>
<text text-anchor="start" x="49" y="-164" font-family="Helvetica,sans-Serif" font-size="10.00">ServoMotorBase()</text>
<text text-anchor="start" x="31.5" y="-149" font-family="Helvetica,sans-Serif" font-size="10.00">+</text>
<text text-anchor="start" x="49" y="-149" font-family="Helvetica,sans-Serif" font-size="10.00">~ServoMotorBase()</text>
<text text-anchor="start" x="31.5" y="-134" font-family="Helvetica,sans-Serif" font-size="10.00">+</text>
<text text-anchor="start" x="49" y="-134" font-family="Helvetica,sans-Serif" font-size="10.00">SetAngle()</text>
<text text-anchor="start" x="31.5" y="-119" font-family="Helvetica,sans-Serif" font-size="10.00">#</text>
<text text-anchor="start" x="49" y="-119" font-family="Helvetica,sans-Serif" font-size="10.00">SetInterface()</text>
<polygon fill="#666666" stroke="#666666" points="23,-204 23,-204 159,-204 159,-204 23,-204"/>
<polygon fill="#666666" stroke="#666666" points="23,-189 23,-189 159,-189 159,-189 23,-189"/>
<polygon fill="none" stroke="#666666" points="23,-112 23,-254 159,-254 159,-112 23,-112"/>
</a>
</g>
</g>
<!-- Node2&#45;&gt;Node1 -->
<g id="edge1" class="edge">
<title>Node2&#45;&gt;Node1</title>
<path fill="none" stroke="#63b8ff" d="M91,-101.85C91,-92.61 91,-83.55 91,-75.31"/>
<polygon fill="none" stroke="#63b8ff" points="87.5,-101.93 91,-111.93 94.5,-101.93 87.5,-101.93"/>
</g>
<!-- Node3 -->
<g id="node3" class="node">
<title>Node3</title>
<g id="a_node3"><a xlink:href="classalps_1_1cmn_1_1actuator_1_1_servo_motor_base.html" target="_top" xlink:title="PWMパルス幅で指定した角度に動くサーボモータの共通実装">
<polygon fill="white" stroke="transparent" points="182,-443 0,-443 0,-312 182,-312 182,-443"/>
<text text-anchor="start" x="5" y="-430.5" font-family="Helvetica,sans-Serif" font-size="10.00">alps::cmn::actuator</text>
<text text-anchor="start" x="5" y="-419.5" font-family="Helvetica,sans-Serif" font-size="10.00">::ServoMotorBase&lt; PwmSetPeriod,</text>
<text text-anchor="start" x="36.5" y="-408.5" font-family="Helvetica,sans-Serif" font-size="10.00"> PwmSetPulseWidth &gt;</text>
<text text-anchor="start" x="87.5" y="-393.5" font-family="Helvetica,sans-Serif" font-size="10.00"> </text>
<text text-anchor="start" x="20" y="-378.5" font-family="Helvetica,sans-Serif" font-size="10.00">+</text>
<text text-anchor="start" x="49" y="-378.5" font-family="Helvetica,sans-Serif" font-size="10.00">ServoMotorBase()</text>
<text text-anchor="start" x="20" y="-363.5" font-family="Helvetica,sans-Serif" font-size="10.00">+</text>
<text text-anchor="start" x="49" y="-363.5" font-family="Helvetica,sans-Serif" font-size="10.00">ServoMotorBase()</text>
<text text-anchor="start" x="20" y="-348.5" font-family="Helvetica,sans-Serif" font-size="10.00">+</text>
<text text-anchor="start" x="49" y="-348.5" font-family="Helvetica,sans-Serif" font-size="10.00">~ServoMotorBase()</text>
<text text-anchor="start" x="20" y="-333.5" font-family="Helvetica,sans-Serif" font-size="10.00">+</text>
<text text-anchor="start" x="49" y="-333.5" font-family="Helvetica,sans-Serif" font-size="10.00">SetAngle()</text>
<text text-anchor="start" x="20" y="-318.5" font-family="Helvetica,sans-Serif" font-size="10.00">#</text>
<text text-anchor="start" x="49" y="-318.5" font-family="Helvetica,sans-Serif" font-size="10.00">SetInterface()</text>
<polygon fill="#666666" stroke="#666666" points="0,-403.5 0,-403.5 182,-403.5 182,-403.5 0,-403.5"/>
<polygon fill="#666666" stroke="#666666" points="0,-388.5 0,-388.5 182,-388.5 182,-388.5 0,-388.5"/>
<polygon fill="none" stroke="#666666" points="0,-312 0,-443 182,-443 182,-312 0,-312"/>
</a>
</g>
</g>
<!-- Node3&#45;&gt;Node2 -->
<g id="edge2" class="edge">
<title>Node3&#45;&gt;Node2</title>
<path fill="none" stroke="orange" d="M91,-301.7C91,-286.04 91,-269.57 91,-254.08"/>
<polygon fill="orange" stroke="orange" points="87.5,-301.86 91,-311.86 94.5,-301.86 87.5,-301.86"/>
<text text-anchor="start" x="91" y="-286" font-family="Helvetica,sans-Serif" font-size="10.00" fill="grey"> &lt; mbed::gpio::PwmOut,</text>
<text text-anchor="middle" x="151" y="-275" font-family="Helvetica,sans-Serif" font-size="10.00" fill="grey"> mbed::gpio::PwmOut &gt;</text>
</g>
</g>
</svg>
