<?xml version="1.0" encoding="UTF-8" standalone="no"?>
<!DOCTYPE svg PUBLIC "-//W3C//DTD SVG 1.1//EN"
 "http://www.w3.org/Graphics/SVG/1.1/DTD/svg11.dtd">
<!-- Generated by graphviz version 2.43.0 (0)
 -->
<!-- Title: roblab::common::serial::ISerialIO Pages: 1 -->
<svg width="242pt" height="104pt"
 viewBox="0.00 0.00 241.50 104.00" xmlns="http://www.w3.org/2000/svg" xmlns:xlink="http://www.w3.org/1999/xlink">
<g id="graph0" class="graph" transform="scale(1 1) rotate(0) translate(4 100)">
<title>roblab::common::serial::ISerialIO</title>
<!-- Node1 -->
<g id="node1" class="node">
<title>Node1</title>
<g id="a_node1"><a xlink:title="シリアル通信を行うIO抽象インターフェース">
<polygon fill="#999999" stroke="#666666" points="184.5,-96 55.5,-96 55.5,-66 184.5,-66 184.5,-96"/>
<text text-anchor="start" x="63.5" y="-84" font-family="Helvetica,sans-Serif" font-size="10.00">roblab::common::serial</text>
<text text-anchor="middle" x="120" y="-73" font-family="Helvetica,sans-Serif" font-size="10.00">::ISerialIO</text>
</a>
</g>
</g>
<!-- Node2 -->
<g id="node2" class="node">
<title>Node2</title>
<g id="a_node2"><a xlink:href="classroblab_1_1mbed_1_1serial_1_1_mbed_uart_serial_io.html" target="_top" xlink:title="mbedのUartシリアル通信IOクラス">
<polygon fill="white" stroke="#666666" points="114,-30 0,-30 0,0 114,0 114,-30"/>
<text text-anchor="start" x="8" y="-18" font-family="Helvetica,sans-Serif" font-size="10.00">roblab::mbed::serial</text>
<text text-anchor="middle" x="57" y="-7" font-family="Helvetica,sans-Serif" font-size="10.00">::MbedUartSerialIo</text>
</a>
</g>
</g>
<!-- Node1&#45;&gt;Node2 -->
<g id="edge1" class="edge">
<title>Node1&#45;&gt;Node2</title>
<path fill="none" stroke="#63b8ff" d="M98.98,-58.65C89.75,-49.27 79.17,-38.53 70.94,-30.16"/>
<polygon fill="#63b8ff" stroke="#63b8ff" points="96.51,-61.13 106.02,-65.8 101.5,-56.21 96.51,-61.13"/>
</g>
<!-- Node3 -->
<g id="node3" class="node">
<title>Node3</title>
<g id="a_node3"><a xlink:href="classroblab_1_1ros_1_1serial_1_1_ubuntu_uart_i_o.html" target="_top" xlink:title="Ubuntu環境でのUartシリアル通信IOクラス">
<polygon fill="white" stroke="#666666" points="233.5,-30 132.5,-30 132.5,0 233.5,0 233.5,-30"/>
<text text-anchor="start" x="140.5" y="-18" font-family="Helvetica,sans-Serif" font-size="10.00">roblab::ros::serial</text>
<text text-anchor="middle" x="183" y="-7" font-family="Helvetica,sans-Serif" font-size="10.00">::UbuntuUartIO</text>
</a>
</g>
</g>
<!-- Node1&#45;&gt;Node3 -->
<g id="edge2" class="edge">
<title>Node1&#45;&gt;Node3</title>
<path fill="none" stroke="#63b8ff" d="M141.02,-58.65C150.25,-49.27 160.83,-38.53 169.06,-30.16"/>
<polygon fill="#63b8ff" stroke="#63b8ff" points="138.5,-56.21 133.98,-65.8 143.49,-61.13 138.5,-56.21"/>
</g>
</g>
</svg>
