<?xml version="1.0" encoding="UTF-8" standalone="no"?>
<!DOCTYPE svg PUBLIC "-//W3C//DTD SVG 1.1//EN"
 "http://www.w3.org/Graphics/SVG/1.1/DTD/svg11.dtd">
<!-- Generated by graphviz version 2.43.0 (0)
 -->
<!-- Title: roblab::mbed::serial::BufferedCanIo Pages: 1 -->
<svg width="177pt" height="347pt"
 viewBox="0.00 0.00 176.50 347.00" xmlns="http://www.w3.org/2000/svg" xmlns:xlink="http://www.w3.org/1999/xlink">
<g id="graph0" class="graph" transform="scale(1 1) rotate(0) translate(4 343)">
<title>roblab::mbed::serial::BufferedCanIo</title>
<!-- Node1 -->
<g id="node1" class="node">
<title>Node1</title>
<g id="a_node1"><a xlink:title="MbedのCAN通信IO. 受信割り込みによってデータをバッファリングする．">
<polygon fill="#999999" stroke="transparent" points="145,-105 0,-105 0,0 145,0 145,-105"/>
<text text-anchor="start" x="24" y="-92.5" font-family="Helvetica,sans-Serif" font-size="10.00">roblab::mbed::serial</text>
<text text-anchor="start" x="35" y="-81.5" font-family="Helvetica,sans-Serif" font-size="10.00">::BufferedCanIo</text>
<text text-anchor="start" x="69.5" y="-66.5" font-family="Helvetica,sans-Serif" font-size="10.00"> </text>
<text text-anchor="start" x="4.5" y="-51.5" font-family="Helvetica,sans-Serif" font-size="10.00">+</text>
<text text-anchor="start" x="17.5" y="-51.5" font-family="Helvetica,sans-Serif" font-size="10.00">BufferedCanIo()</text>
<text text-anchor="start" x="4.5" y="-36.5" font-family="Helvetica,sans-Serif" font-size="10.00">+</text>
<text text-anchor="start" x="17.5" y="-36.5" font-family="Helvetica,sans-Serif" font-size="10.00">TryReadImpl()</text>
<text text-anchor="start" x="4.5" y="-21.5" font-family="Helvetica,sans-Serif" font-size="10.00">+</text>
<text text-anchor="start" x="17.5" y="-21.5" font-family="Helvetica,sans-Serif" font-size="10.00">WriteImpl()</text>
<text text-anchor="start" x="4.5" y="-6.5" font-family="Helvetica,sans-Serif" font-size="10.00">+</text>
<text text-anchor="start" x="17.5" y="-6.5" font-family="Helvetica,sans-Serif" font-size="10.00">GetReceivedFrameNum()</text>
<polygon fill="#666666" stroke="#666666" points="0.5,-76.5 0.5,-76.5 145.5,-76.5 145.5,-76.5 0.5,-76.5"/>
<polygon fill="#666666" stroke="#666666" points="0.5,-61.5 0.5,-61.5 145.5,-61.5 145.5,-61.5 0.5,-61.5"/>
<polygon fill="none" stroke="#666666" points="0,0 0,-105 145,-105 145,0 0,0"/>
</a>
</g>
</g>
<!-- Node2 -->
<g id="node2" class="node">
<title>Node2</title>
<g id="a_node2"><a xlink:href="classroblab_1_1common_1_1serial_1_1_i_can_io.html" target="_top" xlink:title=" ">
<polygon fill="white" stroke="transparent" points="142.5,-217 2.5,-217 2.5,-142 142.5,-142 142.5,-217"/>
<text text-anchor="start" x="7.5" y="-204.5" font-family="Helvetica,sans-Serif" font-size="10.00">roblab::common::serial</text>
<text text-anchor="start" x="7.5" y="-193.5" font-family="Helvetica,sans-Serif" font-size="10.00">::ICanIo&lt; BufferedCanIo &gt;</text>
<text text-anchor="start" x="69" y="-178.5" font-family="Helvetica,sans-Serif" font-size="10.00"> </text>
<text text-anchor="start" x="24" y="-163.5" font-family="Helvetica,sans-Serif" font-size="10.00">+</text>
<text text-anchor="start" x="54.5" y="-163.5" font-family="Helvetica,sans-Serif" font-size="10.00">TryRead()</text>
<text text-anchor="start" x="24" y="-148.5" font-family="Helvetica,sans-Serif" font-size="10.00">+</text>
<text text-anchor="start" x="54.5" y="-148.5" font-family="Helvetica,sans-Serif" font-size="10.00">Write()</text>
<polygon fill="#666666" stroke="#666666" points="2.5,-188.5 2.5,-188.5 142.5,-188.5 142.5,-188.5 2.5,-188.5"/>
<polygon fill="#666666" stroke="#666666" points="2.5,-173.5 2.5,-173.5 142.5,-173.5 142.5,-173.5 2.5,-173.5"/>
<polygon fill="none" stroke="#666666" points="2.5,-142 2.5,-217 142.5,-217 142.5,-142 2.5,-142"/>
</a>
</g>
</g>
<!-- Node2&#45;&gt;Node1 -->
<g id="edge1" class="edge">
<title>Node2&#45;&gt;Node1</title>
<path fill="none" stroke="#63b8ff" d="M72.5,-131.51C72.5,-122.97 72.5,-114.02 72.5,-105.35"/>
<polygon fill="none" stroke="#63b8ff" points="69,-131.67 72.5,-141.67 76,-131.67 69,-131.67"/>
</g>
<!-- Node3 -->
<g id="node3" class="node">
<title>Node3</title>
<g id="a_node3"><a xlink:href="classroblab_1_1common_1_1serial_1_1_i_can_io.html" target="_top" xlink:title="CAN通信IOのインターフェース">
<polygon fill="white" stroke="transparent" points="134,-339 11,-339 11,-264 134,-264 134,-339"/>
<text text-anchor="start" x="16.5" y="-326.5" font-family="Helvetica,sans-Serif" font-size="10.00">roblab::common::serial</text>
<text text-anchor="start" x="24" y="-315.5" font-family="Helvetica,sans-Serif" font-size="10.00">::ICanIo&lt; Derived &gt;</text>
<text text-anchor="start" x="69.5" y="-300.5" font-family="Helvetica,sans-Serif" font-size="10.00"> </text>
<text text-anchor="start" x="29" y="-285.5" font-family="Helvetica,sans-Serif" font-size="10.00">+</text>
<text text-anchor="start" x="55.5" y="-285.5" font-family="Helvetica,sans-Serif" font-size="10.00">TryRead()</text>
<text text-anchor="start" x="29" y="-270.5" font-family="Helvetica,sans-Serif" font-size="10.00">+</text>
<text text-anchor="start" x="55.5" y="-270.5" font-family="Helvetica,sans-Serif" font-size="10.00">Write()</text>
<polygon fill="#666666" stroke="#666666" points="11.5,-310.5 11.5,-310.5 134.5,-310.5 134.5,-310.5 11.5,-310.5"/>
<polygon fill="#666666" stroke="#666666" points="11.5,-295.5 11.5,-295.5 134.5,-295.5 134.5,-295.5 11.5,-295.5"/>
<polygon fill="none" stroke="#666666" points="11,-264 11,-339 134,-339 134,-264 11,-264"/>
</a>
</g>
</g>
<!-- Node3&#45;&gt;Node2 -->
<g id="edge2" class="edge">
<title>Node3&#45;&gt;Node2</title>
<path fill="none" stroke="orange" d="M72.5,-253.53C72.5,-241.51 72.5,-228.77 72.5,-217.35"/>
<polygon fill="orange" stroke="orange" points="69,-253.84 72.5,-263.84 76,-253.84 69,-253.84"/>
<text text-anchor="middle" x="120.5" y="-238" font-family="Helvetica,sans-Serif" font-size="10.00" fill="grey"> &lt; BufferedCanIo &gt;</text>
</g>
</g>
</svg>
