<?xml version="1.0" encoding="UTF-8" standalone="no"?>
<!DOCTYPE svg PUBLIC "-//W3C//DTD SVG 1.1//EN"
 "http://www.w3.org/Graphics/SVG/1.1/DTD/svg11.dtd">
<!-- Generated by graphviz version 2.43.0 (0)
 -->
<!-- Title: alps::ros2::util::detail::TypedParamBase&lt; T &gt; Pages: 1 -->
<svg width="328pt" height="292pt"
 viewBox="0.00 0.00 328.00 292.00" xmlns="http://www.w3.org/2000/svg" xmlns:xlink="http://www.w3.org/1999/xlink">
<g id="graph0" class="graph" transform="scale(1 1) rotate(0) translate(4 288)">
<title>alps::ros2::util::detail::TypedParamBase&lt; T &gt;</title>
<polygon fill="white" stroke="transparent" points="-4,4 -4,-288 324,-288 324,4 -4,4"/>
<!-- Node1 -->
<g id="node1" class="node">
<title>Node1</title>
<g id="a_node1"><a xlink:title="型付きパラメーターの基底クラス">
<polygon fill="#bfbfbf" stroke="black" points="80.5,-116.5 80.5,-283.5 238.5,-283.5 238.5,-116.5 80.5,-116.5"/>
<text text-anchor="start" x="88.5" y="-271.5" font-family="Helvetica,sans-Serif" font-size="10.00">alps::ros2::util::detail</text>
<text text-anchor="middle" x="159.5" y="-260.5" font-family="Helvetica,sans-Serif" font-size="10.00">::TypedParamBase&lt; T &gt;</text>
<polyline fill="none" stroke="black" points="80.5,-253.5 238.5,-253.5 "/>
<text text-anchor="start" x="88.5" y="-241.5" font-family="Helvetica,sans-Serif" font-size="10.00"># param_map_</text>
<text text-anchor="start" x="88.5" y="-230.5" font-family="Helvetica,sans-Serif" font-size="10.00"># parameters_client_</text>
<text text-anchor="start" x="88.5" y="-219.5" font-family="Helvetica,sans-Serif" font-size="10.00"># current_value_</text>
<text text-anchor="start" x="88.5" y="-208.5" font-family="Helvetica,sans-Serif" font-size="10.00"># logger_</text>
<polyline fill="none" stroke="black" points="80.5,-201.5 238.5,-201.5 "/>
<text text-anchor="start" x="88.5" y="-189.5" font-family="Helvetica,sans-Serif" font-size="10.00">+ GetParam()</text>
<text text-anchor="start" x="88.5" y="-178.5" font-family="Helvetica,sans-Serif" font-size="10.00">+ SetOnChangeCallback()</text>
<text text-anchor="start" x="88.5" y="-167.5" font-family="Helvetica,sans-Serif" font-size="10.00">+ IsServerReady()</text>
<text text-anchor="start" x="88.5" y="-156.5" font-family="Helvetica,sans-Serif" font-size="10.00">+ GetServerNodeName()</text>
<text text-anchor="start" x="88.5" y="-145.5" font-family="Helvetica,sans-Serif" font-size="10.00">+ GetParamName()</text>
<text text-anchor="start" x="88.5" y="-134.5" font-family="Helvetica,sans-Serif" font-size="10.00">+ GetParamElementNames()</text>
<text text-anchor="start" x="88.5" y="-123.5" font-family="Helvetica,sans-Serif" font-size="10.00"># TypedParamBase()</text>
</a>
</g>
</g>
<!-- Node2 -->
<g id="node2" class="node">
<title>Node2</title>
<g id="a_node2"><a xlink:href="classalps_1_1ros2_1_1util_1_1_typed_param_client.html" target="_top" xlink:title="型付きパラメーターのクライアント">
<polygon fill="white" stroke="black" points="0,-0.5 0,-79.5 151,-79.5 151,-0.5 0,-0.5"/>
<text text-anchor="start" x="8" y="-67.5" font-family="Helvetica,sans-Serif" font-size="10.00">alps::ros2::util::TypedParam</text>
<text text-anchor="middle" x="75.5" y="-56.5" font-family="Helvetica,sans-Serif" font-size="10.00">Client&lt; T &gt;</text>
<polyline fill="none" stroke="black" points="0,-49.5 151,-49.5 "/>
<text text-anchor="middle" x="75.5" y="-37.5" font-family="Helvetica,sans-Serif" font-size="10.00"> </text>
<polyline fill="none" stroke="black" points="0,-30.5 151,-30.5 "/>
<text text-anchor="start" x="8" y="-18.5" font-family="Helvetica,sans-Serif" font-size="10.00">+ TypedParamClient()</text>
<text text-anchor="start" x="8" y="-7.5" font-family="Helvetica,sans-Serif" font-size="10.00">+ SetParam()</text>
</a>
</g>
</g>
<!-- Node1&#45;&gt;Node2 -->
<g id="edge1" class="edge">
<title>Node1&#45;&gt;Node2</title>
<path fill="none" stroke="midnightblue" d="M110.75,-107.31C105.58,-97.58 100.55,-88.11 95.98,-79.52"/>
<polygon fill="none" stroke="midnightblue" points="107.75,-109.11 115.53,-116.3 113.93,-105.83 107.75,-109.11"/>
</g>
<!-- Node3 -->
<g id="node3" class="node">
<title>Node3</title>
<g id="a_node3"><a xlink:href="classalps_1_1ros2_1_1util_1_1_typed_param_server.html" target="_top" xlink:title="型付きパラメーターのサーバー">
<polygon fill="white" stroke="black" points="169,-0.5 169,-79.5 320,-79.5 320,-0.5 169,-0.5"/>
<text text-anchor="start" x="177" y="-67.5" font-family="Helvetica,sans-Serif" font-size="10.00">alps::ros2::util::TypedParam</text>
<text text-anchor="middle" x="244.5" y="-56.5" font-family="Helvetica,sans-Serif" font-size="10.00">Server&lt; T &gt;</text>
<polyline fill="none" stroke="black" points="169,-49.5 320,-49.5 "/>
<text text-anchor="middle" x="244.5" y="-37.5" font-family="Helvetica,sans-Serif" font-size="10.00"> </text>
<polyline fill="none" stroke="black" points="169,-30.5 320,-30.5 "/>
<text text-anchor="start" x="177" y="-18.5" font-family="Helvetica,sans-Serif" font-size="10.00">+ TypedParamServer()</text>
<text text-anchor="start" x="177" y="-7.5" font-family="Helvetica,sans-Serif" font-size="10.00">+ SetParam()</text>
</a>
</g>
</g>
<!-- Node1&#45;&gt;Node3 -->
<g id="edge2" class="edge">
<title>Node1&#45;&gt;Node3</title>
<path fill="none" stroke="midnightblue" d="M208.83,-107.31C214.06,-97.58 219.15,-88.11 223.77,-79.52"/>
<polygon fill="none" stroke="midnightblue" points="205.65,-105.83 203.99,-116.3 211.81,-109.15 205.65,-105.83"/>
</g>
</g>
</svg>
