<?xml version="1.0" encoding="UTF-8" standalone="no"?>
<!DOCTYPE svg PUBLIC "-//W3C//DTD SVG 1.1//EN"
 "http://www.w3.org/Graphics/SVG/1.1/DTD/svg11.dtd">
<!-- Generated by graphviz version 2.43.0 (0)
 -->
<!-- Title: alps::mbed::gpio::InterruptIn Pages: 1 -->
<svg width="278pt" height="198pt"
 viewBox="0.00 0.00 278.00 198.00" xmlns="http://www.w3.org/2000/svg" xmlns:xlink="http://www.w3.org/1999/xlink">
<g id="graph0" class="graph" transform="scale(1 1) rotate(0) translate(4 194)">
<title>alps::mbed::gpio::InterruptIn</title>
<!-- Node1 -->
<g id="node1" class="node">
<title>Node1</title>
<g id="a_node1"><a xlink:title="割り込み入力ピン">
<polygon fill="#999999" stroke="transparent" points="209.5,-94 60.5,-94 60.5,0 209.5,0 209.5,-94"/>
<text text-anchor="start" x="66" y="-82" font-family="Helvetica,sans-Serif" font-size="10.00">alps::mbed::gpio::InterruptIn</text>
<text text-anchor="start" x="132" y="-67" font-family="Helvetica,sans-Serif" font-size="10.00"> </text>
<text text-anchor="start" x="76.5" y="-52" font-family="Helvetica,sans-Serif" font-size="10.00">+</text>
<text text-anchor="start" x="101" y="-52" font-family="Helvetica,sans-Serif" font-size="10.00">InterruptIn()</text>
<text text-anchor="start" x="76.5" y="-37" font-family="Helvetica,sans-Serif" font-size="10.00">+</text>
<text text-anchor="start" x="101" y="-37" font-family="Helvetica,sans-Serif" font-size="10.00">AttachInterrupt()</text>
<text text-anchor="start" x="76.5" y="-22" font-family="Helvetica,sans-Serif" font-size="10.00">+</text>
<text text-anchor="start" x="101" y="-22" font-family="Helvetica,sans-Serif" font-size="10.00">Read()</text>
<text text-anchor="start" x="76.5" y="-7" font-family="Helvetica,sans-Serif" font-size="10.00">+</text>
<text text-anchor="start" x="101" y="-7" font-family="Helvetica,sans-Serif" font-size="10.00">~InterruptIn()</text>
<polygon fill="#666666" stroke="#666666" points="61,-77 61,-77 210,-77 210,-77 61,-77"/>
<polygon fill="#666666" stroke="#666666" points="61,-62 61,-62 210,-62 210,-62 61,-62"/>
<polygon fill="none" stroke="#666666" points="60.5,0 60.5,-94 209.5,-94 209.5,0 60.5,0"/>
</a>
</g>
</g>
<!-- Node2 -->
<g id="node2" class="node">
<title>Node2</title>
<g id="a_node2"><a xlink:href="classalps_1_1cmn_1_1gpio_1_1_i_attach_interrupt.html" target="_top" xlink:title=" ">
<polygon fill="white" stroke="transparent" points="126,-190 0,-190 0,-130 126,-130 126,-190"/>
<text text-anchor="start" x="5" y="-178" font-family="Helvetica,sans-Serif" font-size="10.00">alps::cmn::gpio::IAttach</text>
<text text-anchor="start" x="5" y="-167" font-family="Helvetica,sans-Serif" font-size="10.00">Interrupt&lt; InterruptIn &gt;</text>
<text text-anchor="start" x="59.5" y="-152" font-family="Helvetica,sans-Serif" font-size="10.00"> </text>
<text text-anchor="start" x="5" y="-137" font-family="Helvetica,sans-Serif" font-size="10.00">+</text>
<text text-anchor="start" x="19" y="-137" font-family="Helvetica,sans-Serif" font-size="10.00">CallAttachInterrupt()</text>
<polygon fill="#666666" stroke="#666666" points="0,-162 0,-162 126,-162 126,-162 0,-162"/>
<polygon fill="#666666" stroke="#666666" points="0,-147 0,-147 126,-147 126,-147 0,-147"/>
<polygon fill="none" stroke="#666666" points="0,-130 0,-190 126,-190 126,-130 0,-130"/>
</a>
</g>
</g>
<!-- Node2&#45;&gt;Node1 -->
<g id="edge1" class="edge">
<title>Node2&#45;&gt;Node1</title>
<path fill="none" stroke="#63b8ff" d="M87.42,-121.35C93.09,-112.61 99.19,-103.21 105.07,-94.14"/>
<polygon fill="none" stroke="#63b8ff" points="84.42,-119.54 81.92,-129.84 90.3,-123.35 84.42,-119.54"/>
</g>
<!-- Node3 -->
<g id="node3" class="node">
<title>Node3</title>
<g id="a_node3"><a xlink:href="classalps_1_1cmn_1_1gpio_1_1_i_digital_read.html" target="_top" xlink:title=" ">
<polygon fill="white" stroke="transparent" points="270,-190 144,-190 144,-130 270,-130 270,-190"/>
<text text-anchor="start" x="149" y="-178" font-family="Helvetica,sans-Serif" font-size="10.00">alps::cmn::gpio::IDigital</text>
<text text-anchor="start" x="157.5" y="-167" font-family="Helvetica,sans-Serif" font-size="10.00">Read&lt; InterruptIn &gt;</text>
<text text-anchor="start" x="203.5" y="-152" font-family="Helvetica,sans-Serif" font-size="10.00"> </text>
<text text-anchor="start" x="161" y="-137" font-family="Helvetica,sans-Serif" font-size="10.00">+</text>
<text text-anchor="start" x="187" y="-137" font-family="Helvetica,sans-Serif" font-size="10.00">CallRead()</text>
<polygon fill="#666666" stroke="#666666" points="144,-162 144,-162 270,-162 270,-162 144,-162"/>
<polygon fill="#666666" stroke="#666666" points="144,-147 144,-147 270,-147 270,-147 144,-147"/>
<polygon fill="none" stroke="#666666" points="144,-130 144,-190 270,-190 270,-130 144,-130"/>
</a>
</g>
</g>
<!-- Node3&#45;&gt;Node1 -->
<g id="edge2" class="edge">
<title>Node3&#45;&gt;Node1</title>
<path fill="none" stroke="#63b8ff" d="M182.58,-121.35C176.91,-112.61 170.81,-103.21 164.93,-94.14"/>
<polygon fill="none" stroke="#63b8ff" points="179.7,-123.35 188.08,-129.84 185.58,-119.54 179.7,-123.35"/>
</g>
</g>
</svg>
