<?xml version="1.0" encoding="UTF-8" standalone="no"?>
<!DOCTYPE svg PUBLIC "-//W3C//DTD SVG 1.1//EN"
 "http://www.w3.org/Graphics/SVG/1.1/DTD/svg11.dtd">
<!-- Generated by graphviz version 2.43.0 (0)
 -->
<!-- Title: alps::cmn::actuator::DcMotorBase&lt; PwmSetPeriod, PwmSetPulseWidth, DigitalWrite &gt; Pages: 1 -->
<svg width="225pt" height="398pt"
 viewBox="0.00 0.00 225.00 398.00" xmlns="http://www.w3.org/2000/svg" xmlns:xlink="http://www.w3.org/1999/xlink">
<g id="graph0" class="graph" transform="scale(1 1) rotate(0) translate(4 394)">
<title>alps::cmn::actuator::DcMotorBase&lt; PwmSetPeriod, PwmSetPulseWidth, DigitalWrite &gt;</title>
<!-- Node1 -->
<g id="node1" class="node">
<title>Node1</title>
<g id="a_node1"><a xlink:title="PWMピンと方向指定ピンで動かすDCモーターの共通実装">
<polygon fill="#999999" stroke="transparent" points="184,-390 0,-390 0,-289 184,-289 184,-390"/>
<text text-anchor="start" x="5" y="-377.5" font-family="Helvetica,sans-Serif" font-size="10.00">alps::cmn::actuator</text>
<text text-anchor="start" x="5" y="-366.5" font-family="Helvetica,sans-Serif" font-size="10.00">::DcMotorBase&lt; PwmSetPeriod,</text>
<text text-anchor="start" x="5" y="-355.5" font-family="Helvetica,sans-Serif" font-size="10.00"> PwmSetPulseWidth, DigitalWrite &gt;</text>
<text text-anchor="start" x="88.5" y="-340.5" font-family="Helvetica,sans-Serif" font-size="10.00"> </text>
<text text-anchor="start" x="26.5" y="-325.5" font-family="Helvetica,sans-Serif" font-size="10.00">+</text>
<text text-anchor="start" x="62" y="-325.5" font-family="Helvetica,sans-Serif" font-size="10.00">DcMotorBase()</text>
<text text-anchor="start" x="26.5" y="-310.5" font-family="Helvetica,sans-Serif" font-size="10.00">+</text>
<text text-anchor="start" x="62" y="-310.5" font-family="Helvetica,sans-Serif" font-size="10.00">Drive()</text>
<text text-anchor="start" x="26.5" y="-295.5" font-family="Helvetica,sans-Serif" font-size="10.00">#</text>
<text text-anchor="start" x="62" y="-295.5" font-family="Helvetica,sans-Serif" font-size="10.00">SetInterface()</text>
<polygon fill="#666666" stroke="#666666" points="0,-350.5 0,-350.5 184,-350.5 184,-350.5 0,-350.5"/>
<polygon fill="#666666" stroke="#666666" points="0,-335.5 0,-335.5 184,-335.5 184,-335.5 0,-335.5"/>
<polygon fill="none" stroke="#666666" points="0,-289 0,-390 184,-390 184,-289 0,-289"/>
</a>
</g>
</g>
<!-- Node2 -->
<g id="node2" class="node">
<title>Node2</title>
<g id="a_node2"><a xlink:href="classalps_1_1cmn_1_1actuator_1_1_dc_motor_base.html" target="_top" xlink:title=" ">
<polygon fill="white" stroke="transparent" points="154.5,-220 29.5,-220 29.5,-97 154.5,-97 154.5,-220"/>
<text text-anchor="start" x="35" y="-207.5" font-family="Helvetica,sans-Serif" font-size="10.00">alps::cmn::actuator</text>
<text text-anchor="start" x="35" y="-196.5" font-family="Helvetica,sans-Serif" font-size="10.00">::DcMotorBase&lt; mbed</text>
<text text-anchor="start" x="35" y="-185.5" font-family="Helvetica,sans-Serif" font-size="10.00">::gpio::PwmOut, mbed</text>
<text text-anchor="start" x="35" y="-174.5" font-family="Helvetica,sans-Serif" font-size="10.00">::gpio::PwmOut, mbed::</text>
<text text-anchor="start" x="48.5" y="-163.5" font-family="Helvetica,sans-Serif" font-size="10.00">gpio::DigitalOut &gt;</text>
<text text-anchor="start" x="89" y="-148.5" font-family="Helvetica,sans-Serif" font-size="10.00"> </text>
<text text-anchor="start" x="41.5" y="-133.5" font-family="Helvetica,sans-Serif" font-size="10.00">+</text>
<text text-anchor="start" x="62" y="-133.5" font-family="Helvetica,sans-Serif" font-size="10.00">DcMotorBase()</text>
<text text-anchor="start" x="41.5" y="-118.5" font-family="Helvetica,sans-Serif" font-size="10.00">+</text>
<text text-anchor="start" x="62" y="-118.5" font-family="Helvetica,sans-Serif" font-size="10.00">Drive()</text>
<text text-anchor="start" x="41.5" y="-103.5" font-family="Helvetica,sans-Serif" font-size="10.00">#</text>
<text text-anchor="start" x="62" y="-103.5" font-family="Helvetica,sans-Serif" font-size="10.00">SetInterface()</text>
<polygon fill="#666666" stroke="#666666" points="30,-158.5 30,-158.5 155,-158.5 155,-158.5 30,-158.5"/>
<polygon fill="#666666" stroke="#666666" points="30,-143.5 30,-143.5 155,-143.5 155,-143.5 30,-143.5"/>
<polygon fill="none" stroke="#666666" points="29.5,-97 29.5,-220 154.5,-220 154.5,-97 29.5,-97"/>
</a>
</g>
</g>
<!-- Node1&#45;&gt;Node2 -->
<g id="edge1" class="edge">
<title>Node1&#45;&gt;Node2</title>
<path fill="none" stroke="orange" d="M92,-278.45C92,-259.71 92,-239.03 92,-220.24"/>
<polygon fill="orange" stroke="orange" points="88.5,-278.64 92,-288.64 95.5,-278.64 88.5,-278.64"/>
<text text-anchor="start" x="92" y="-263" font-family="Helvetica,sans-Serif" font-size="10.00" fill="grey"> &lt; mbed::gpio::PwmOut,</text>
<text text-anchor="start" x="92" y="-252" font-family="Helvetica,sans-Serif" font-size="10.00" fill="grey"> mbed::gpio::PwmOut,</text>
<text text-anchor="middle" x="154.5" y="-241" font-family="Helvetica,sans-Serif" font-size="10.00" fill="grey"> mbed::gpio::DigitalOut &gt;</text>
</g>
<!-- Node3 -->
<g id="node3" class="node">
<title>Node3</title>
<g id="a_node3"><a xlink:href="classalps_1_1mbed_1_1actuator_1_1_dc_motor.html" target="_top" xlink:title="PWMピンと方向指定ピンで動かすDCモーターのmbed用実装">
<polygon fill="white" stroke="transparent" points="147.5,-60 36.5,-60 36.5,0 147.5,0 147.5,-60"/>
<text text-anchor="start" x="42" y="-48" font-family="Helvetica,sans-Serif" font-size="10.00">alps::mbed::actuator</text>
<text text-anchor="start" x="68.5" y="-37" font-family="Helvetica,sans-Serif" font-size="10.00">::DcMotor</text>
<text text-anchor="start" x="89" y="-22" font-family="Helvetica,sans-Serif" font-size="10.00"> </text>
<text text-anchor="start" x="51" y="-7" font-family="Helvetica,sans-Serif" font-size="10.00">+</text>
<text text-anchor="start" x="74" y="-7" font-family="Helvetica,sans-Serif" font-size="10.00">DcMotor()</text>
<polygon fill="#666666" stroke="#666666" points="37,-32 37,-32 148,-32 148,-32 37,-32"/>
<polygon fill="#666666" stroke="#666666" points="37,-17 37,-17 148,-17 148,-17 37,-17"/>
<polygon fill="none" stroke="#666666" points="36.5,0 36.5,-60 147.5,-60 147.5,0 36.5,0"/>
</a>
</g>
</g>
<!-- Node2&#45;&gt;Node3 -->
<g id="edge2" class="edge">
<title>Node2&#45;&gt;Node3</title>
<path fill="none" stroke="#63b8ff" d="M92,-86.65C92,-77.29 92,-68.17 92,-60.1"/>
<polygon fill="none" stroke="#63b8ff" points="88.5,-86.84 92,-96.84 95.5,-86.84 88.5,-86.84"/>
</g>
</g>
</svg>
