<?xml version="1.0" encoding="UTF-8" standalone="no"?>
<!DOCTYPE svg PUBLIC "-//W3C//DTD SVG 1.1//EN"
 "http://www.w3.org/Graphics/SVG/1.1/DTD/svg11.dtd">
<!-- Generated by graphviz version 2.43.0 (0)
 -->
<!-- Title: alps::cmn::communication::CanCallbackHandler&lt; kMaxCallbackNum &gt; Pages: 1 -->
<svg width="238pt" height="227pt"
 viewBox="0.00 0.00 238.00 227.00" xmlns="http://www.w3.org/2000/svg" xmlns:xlink="http://www.w3.org/1999/xlink">
<g id="graph0" class="graph" transform="scale(1 1) rotate(0) translate(4 223)">
<title>alps::cmn::communication::CanCallbackHandler&lt; kMaxCallbackNum &gt;</title>
<!-- Node1 -->
<g id="node1" class="node">
<title>Node1</title>
<g id="a_node1"><a xlink:title="CANの受信をコールバックで処理するためのクラス">
<polygon fill="#999999" stroke="transparent" points="230,-219 0,-219 0,-133 230,-133 230,-219"/>
<text text-anchor="start" x="5" y="-207" font-family="Helvetica,sans-Serif" font-size="10.00">alps::cmn::communication</text>
<text text-anchor="start" x="5" y="-196" font-family="Helvetica,sans-Serif" font-size="10.00">::CanCallbackHandler&lt; kMaxCallbackNum &gt;</text>
<text text-anchor="start" x="111.5" y="-181" font-family="Helvetica,sans-Serif" font-size="10.00"> </text>
<text text-anchor="start" x="21" y="-166" font-family="Helvetica,sans-Serif" font-size="10.00">+</text>
<text text-anchor="start" x="51" y="-166" font-family="Helvetica,sans-Serif" font-size="10.00">RegisterReceiveCallback()</text>
<text text-anchor="start" x="21" y="-151" font-family="Helvetica,sans-Serif" font-size="10.00">+</text>
<text text-anchor="start" x="51" y="-151" font-family="Helvetica,sans-Serif" font-size="10.00">InvokeCallbacksForReceived</text>
<text text-anchor="start" x="51" y="-140" font-family="Helvetica,sans-Serif" font-size="10.00">Frames()</text>
<polygon fill="#666666" stroke="#666666" points="0,-191 0,-191 230,-191 230,-191 0,-191"/>
<polygon fill="#666666" stroke="#666666" points="0,-176 0,-176 230,-176 230,-176 0,-176"/>
<polygon fill="none" stroke="#666666" points="0,-133 0,-219 230,-219 230,-133 0,-133"/>
</a>
</g>
</g>
<!-- Node2 -->
<g id="node2" class="node">
<title>Node2</title>
<g id="a_node2"><a xlink:href="classalps_1_1cmn_1_1communication_1_1_can_callback_handler.html" target="_top" xlink:title=" ">
<polygon fill="white" stroke="transparent" points="195.5,-86 34.5,-86 34.5,0 195.5,0 195.5,-86"/>
<text text-anchor="start" x="45.5" y="-74" font-family="Helvetica,sans-Serif" font-size="10.00">alps::cmn::communication</text>
<text text-anchor="start" x="45.5" y="-63" font-family="Helvetica,sans-Serif" font-size="10.00">::CanCallbackHandler&lt; 20 &gt;</text>
<text text-anchor="start" x="112" y="-48" font-family="Helvetica,sans-Serif" font-size="10.00"> </text>
<text text-anchor="start" x="39" y="-33" font-family="Helvetica,sans-Serif" font-size="10.00">+</text>
<text text-anchor="start" x="52" y="-33" font-family="Helvetica,sans-Serif" font-size="10.00">RegisterReceiveCallback()</text>
<text text-anchor="start" x="39" y="-18" font-family="Helvetica,sans-Serif" font-size="10.00">+</text>
<text text-anchor="start" x="52" y="-18" font-family="Helvetica,sans-Serif" font-size="10.00">InvokeCallbacksForReceived</text>
<text text-anchor="start" x="52" y="-7" font-family="Helvetica,sans-Serif" font-size="10.00">Frames()</text>
<polygon fill="#666666" stroke="#666666" points="35,-58 35,-58 196,-58 196,-58 35,-58"/>
<polygon fill="#666666" stroke="#666666" points="35,-43 35,-43 196,-43 196,-43 35,-43"/>
<polygon fill="none" stroke="#666666" points="34.5,0 34.5,-86 195.5,-86 195.5,0 34.5,0"/>
</a>
</g>
</g>
<!-- Node1&#45;&gt;Node2 -->
<g id="edge1" class="edge">
<title>Node1&#45;&gt;Node2</title>
<path fill="none" stroke="orange" d="M115,-122.78C115,-110.6 115,-97.77 115,-86.09"/>
<polygon fill="orange" stroke="orange" points="111.5,-122.83 115,-132.83 118.5,-122.83 111.5,-122.83"/>
<text text-anchor="middle" x="134" y="-107" font-family="Helvetica,sans-Serif" font-size="10.00" fill="grey"> &lt; 20 &gt;</text>
</g>
</g>
</svg>
