<?xml version="1.0" encoding="UTF-8" standalone="no"?>
<!DOCTYPE svg PUBLIC "-//W3C//DTD SVG 1.1//EN"
 "http://www.w3.org/Graphics/SVG/1.1/DTD/svg11.dtd">
<!-- Generated by graphviz version 2.43.0 (0)
 -->
<!-- Title: alps::cmn::communication::ICanIo&lt; Derived &gt; Pages: 1 -->
<svg width="464pt" height="414pt"
 viewBox="0.00 0.00 464.00 414.00" xmlns="http://www.w3.org/2000/svg" xmlns:xlink="http://www.w3.org/1999/xlink">
<g id="graph0" class="graph" transform="scale(1 1) rotate(0) translate(4 410)">
<title>alps::cmn::communication::ICanIo&lt; Derived &gt;</title>
<!-- Node1 -->
<g id="node1" class="node">
<title>Node1</title>
<g id="a_node1"><a xlink:title="CAN通信IOのインターフェース">
<polygon fill="#999999" stroke="transparent" points="298,-309 158,-309 158,-249 298,-249 298,-309"/>
<text text-anchor="start" x="163" y="-297" font-family="Helvetica,sans-Serif" font-size="10.00">alps::cmn::communication</text>
<text text-anchor="start" x="179" y="-286" font-family="Helvetica,sans-Serif" font-size="10.00">::ICanIo&lt; Derived &gt;</text>
<text text-anchor="start" x="224.5" y="-271" font-family="Helvetica,sans-Serif" font-size="10.00"> </text>
<text text-anchor="start" x="224.5" y="-256" font-family="Helvetica,sans-Serif" font-size="10.00"> </text>
<polygon fill="#666666" stroke="#666666" points="158,-281 158,-281 298,-281 298,-281 158,-281"/>
<polygon fill="#666666" stroke="#666666" points="158,-266 158,-266 298,-266 298,-266 158,-266"/>
<polygon fill="none" stroke="#666666" points="158,-249 158,-309 298,-309 298,-249 158,-249"/>
</a>
</g>
</g>
<!-- Node4 -->
<g id="node4" class="node">
<title>Node4</title>
<g id="a_node4"><a xlink:href="classalps_1_1cmn_1_1communication_1_1_i_can_io.html" target="_top" xlink:title=" ">
<polygon fill="white" stroke="transparent" points="140,-202 0,-202 0,-142 140,-142 140,-202"/>
<text text-anchor="start" x="5" y="-190" font-family="Helvetica,sans-Serif" font-size="10.00">alps::cmn::communication</text>
<text text-anchor="start" x="10" y="-179" font-family="Helvetica,sans-Serif" font-size="10.00">::ICanIo&lt; SocketCanIo &gt;</text>
<text text-anchor="start" x="66.5" y="-164" font-family="Helvetica,sans-Serif" font-size="10.00"> </text>
<text text-anchor="start" x="66.5" y="-149" font-family="Helvetica,sans-Serif" font-size="10.00"> </text>
<polygon fill="#666666" stroke="#666666" points="0,-174 0,-174 140,-174 140,-174 0,-174"/>
<polygon fill="#666666" stroke="#666666" points="0,-159 0,-159 140,-159 140,-159 0,-159"/>
<polygon fill="none" stroke="#666666" points="0,-142 0,-202 140,-202 140,-142 0,-142"/>
</a>
</g>
</g>
<!-- Node1&#45;&gt;Node4 -->
<g id="edge3" class="edge">
<title>Node1&#45;&gt;Node4</title>
<path fill="none" stroke="orange" d="M158.76,-243.89C151.62,-239.77 144.57,-235.44 138,-231 125.4,-222.49 112.48,-212 101.33,-202.29"/>
<polygon fill="orange" stroke="orange" points="157.41,-247.14 167.84,-248.99 160.84,-241.04 157.41,-247.14"/>
<text text-anchor="middle" x="181" y="-223" font-family="Helvetica,sans-Serif" font-size="10.00" fill="grey"> &lt; SocketCanIo &gt;</text>
</g>
<!-- Node6 -->
<g id="node6" class="node">
<title>Node6</title>
<g id="a_node6"><a xlink:href="classalps_1_1cmn_1_1communication_1_1_i_can_io.html" target="_top" xlink:title=" ">
<polygon fill="white" stroke="transparent" points="298,-202 158,-202 158,-142 298,-142 298,-202"/>
<text text-anchor="start" x="163" y="-190" font-family="Helvetica,sans-Serif" font-size="10.00">alps::cmn::communication</text>
<text text-anchor="start" x="163" y="-179" font-family="Helvetica,sans-Serif" font-size="10.00">::ICanIo&lt; BufferedCanIo &gt;</text>
<text text-anchor="start" x="224.5" y="-164" font-family="Helvetica,sans-Serif" font-size="10.00"> </text>
<text text-anchor="start" x="224.5" y="-149" font-family="Helvetica,sans-Serif" font-size="10.00"> </text>
<polygon fill="#666666" stroke="#666666" points="158,-174 158,-174 298,-174 298,-174 158,-174"/>
<polygon fill="#666666" stroke="#666666" points="158,-159 158,-159 298,-159 298,-159 158,-159"/>
<polygon fill="none" stroke="#666666" points="158,-142 158,-202 298,-202 298,-142 158,-142"/>
</a>
</g>
</g>
<!-- Node1&#45;&gt;Node6 -->
<g id="edge5" class="edge">
<title>Node1&#45;&gt;Node6</title>
<path fill="none" stroke="orange" d="M228,-238.46C228,-226.39 228,-213.34 228,-202.09"/>
<polygon fill="orange" stroke="orange" points="224.5,-238.75 228,-248.75 231.5,-238.75 224.5,-238.75"/>
<text text-anchor="middle" x="276" y="-223" font-family="Helvetica,sans-Serif" font-size="10.00" fill="grey"> &lt; BufferedCanIo &gt;</text>
</g>
<!-- Node8 -->
<g id="node8" class="node">
<title>Node8</title>
<g id="a_node8"><a xlink:href="classalps_1_1cmn_1_1communication_1_1_i_can_io.html" target="_top" xlink:title=" ">
<polygon fill="white" stroke="transparent" points="456,-202 316,-202 316,-142 456,-142 456,-202"/>
<text text-anchor="start" x="321" y="-190" font-family="Helvetica,sans-Serif" font-size="10.00">alps::cmn::communication</text>
<text text-anchor="start" x="342" y="-179" font-family="Helvetica,sans-Serif" font-size="10.00">::ICanIo&lt; CanIo &gt;</text>
<text text-anchor="start" x="382.5" y="-164" font-family="Helvetica,sans-Serif" font-size="10.00"> </text>
<text text-anchor="start" x="382.5" y="-149" font-family="Helvetica,sans-Serif" font-size="10.00"> </text>
<polygon fill="#666666" stroke="#666666" points="316,-174 316,-174 456,-174 456,-174 316,-174"/>
<polygon fill="#666666" stroke="#666666" points="316,-159 316,-159 456,-159 456,-159 316,-159"/>
<polygon fill="none" stroke="#666666" points="316,-142 316,-202 456,-202 456,-142 316,-142"/>
</a>
</g>
</g>
<!-- Node1&#45;&gt;Node8 -->
<g id="edge7" class="edge">
<title>Node1&#45;&gt;Node8</title>
<path fill="none" stroke="orange" d="M307.26,-243.94C314.46,-239.9 321.49,-235.57 328,-231 339.65,-222.81 351.05,-212.17 360.62,-202.24"/>
<polygon fill="orange" stroke="orange" points="305.2,-241.07 298.06,-248.9 308.52,-247.23 305.2,-241.07"/>
<text text-anchor="middle" x="367" y="-223" font-family="Helvetica,sans-Serif" font-size="10.00" fill="grey"> &lt; CanIo &gt;</text>
</g>
<!-- Node2 -->
<g id="node2" class="node">
<title>Node2</title>
<g id="a_node2"><a xlink:href="classalps_1_1cmn_1_1communication_1_1_i_can_write.html" target="_top" xlink:title="CAN通信でデータを書き込むインターフェース">
<polygon fill="white" stroke="transparent" points="219,-406 79,-406 79,-346 219,-346 219,-406"/>
<text text-anchor="start" x="84" y="-394" font-family="Helvetica,sans-Serif" font-size="10.00">alps::cmn::communication</text>
<text text-anchor="start" x="91.5" y="-383" font-family="Helvetica,sans-Serif" font-size="10.00">::ICanWrite&lt; Derived &gt;</text>
<text text-anchor="start" x="145.5" y="-368" font-family="Helvetica,sans-Serif" font-size="10.00"> </text>
<text text-anchor="start" x="95.5" y="-353" font-family="Helvetica,sans-Serif" font-size="10.00">+</text>
<text text-anchor="start" x="121" y="-353" font-family="Helvetica,sans-Serif" font-size="10.00">CallTryWrite()</text>
<polygon fill="#666666" stroke="#666666" points="79,-378 79,-378 219,-378 219,-378 79,-378"/>
<polygon fill="#666666" stroke="#666666" points="79,-363 79,-363 219,-363 219,-363 79,-363"/>
<polygon fill="none" stroke="#666666" points="79,-346 79,-406 219,-406 219,-346 79,-346"/>
</a>
</g>
</g>
<!-- Node2&#45;&gt;Node1 -->
<g id="edge1" class="edge">
<title>Node2&#45;&gt;Node1</title>
<path fill="none" stroke="#63b8ff" d="M179.68,-338.1C187.66,-328.51 196.15,-318.3 203.74,-309.17"/>
<polygon fill="none" stroke="#63b8ff" points="176.83,-336.05 173.13,-345.98 182.22,-340.53 176.83,-336.05"/>
</g>
<!-- Node3 -->
<g id="node3" class="node">
<title>Node3</title>
<g id="a_node3"><a xlink:href="classalps_1_1cmn_1_1communication_1_1_i_can_read.html" target="_top" xlink:title="CAN通信でデータを読み込むインターフェース">
<polygon fill="white" stroke="transparent" points="377,-406 237,-406 237,-346 377,-346 377,-406"/>
<text text-anchor="start" x="242" y="-394" font-family="Helvetica,sans-Serif" font-size="10.00">alps::cmn::communication</text>
<text text-anchor="start" x="250" y="-383" font-family="Helvetica,sans-Serif" font-size="10.00">::ICanRead&lt; Derived &gt;</text>
<text text-anchor="start" x="303.5" y="-368" font-family="Helvetica,sans-Serif" font-size="10.00"> </text>
<text text-anchor="start" x="254" y="-353" font-family="Helvetica,sans-Serif" font-size="10.00">+</text>
<text text-anchor="start" x="280" y="-353" font-family="Helvetica,sans-Serif" font-size="10.00">CallTryRead()</text>
<polygon fill="#666666" stroke="#666666" points="237,-378 237,-378 377,-378 377,-378 237,-378"/>
<polygon fill="#666666" stroke="#666666" points="237,-363 237,-363 377,-363 377,-363 237,-363"/>
<polygon fill="none" stroke="#666666" points="237,-346 237,-406 377,-406 377,-346 237,-346"/>
</a>
</g>
</g>
<!-- Node3&#45;&gt;Node1 -->
<g id="edge2" class="edge">
<title>Node3&#45;&gt;Node1</title>
<path fill="none" stroke="#63b8ff" d="M276.32,-338.1C268.34,-328.51 259.85,-318.3 252.26,-309.17"/>
<polygon fill="none" stroke="#63b8ff" points="273.78,-340.53 282.87,-345.98 279.17,-336.05 273.78,-340.53"/>
</g>
<!-- Node5 -->
<g id="node5" class="node">
<title>Node5</title>
<g id="a_node5"><a xlink:href="classalps_1_1lin_1_1communication_1_1_socket_can_io.html" target="_top" xlink:title="SocketCANを用いてCAN通信を行うクラス．">
<polygon fill="white" stroke="transparent" points="135.5,-105 4.5,-105 4.5,0 135.5,0 135.5,-105"/>
<text text-anchor="start" x="10" y="-92.5" font-family="Helvetica,sans-Serif" font-size="10.00">alps::lin::communication</text>
<text text-anchor="start" x="37" y="-81.5" font-family="Helvetica,sans-Serif" font-size="10.00">::SocketCanIo</text>
<text text-anchor="start" x="67" y="-66.5" font-family="Helvetica,sans-Serif" font-size="10.00"> </text>
<text text-anchor="start" x="17.5" y="-51.5" font-family="Helvetica,sans-Serif" font-size="10.00">+</text>
<text text-anchor="start" x="39" y="-51.5" font-family="Helvetica,sans-Serif" font-size="10.00">SocketCanIo()</text>
<text text-anchor="start" x="17.5" y="-36.5" font-family="Helvetica,sans-Serif" font-size="10.00">+</text>
<text text-anchor="start" x="39" y="-36.5" font-family="Helvetica,sans-Serif" font-size="10.00">~SocketCanIo()</text>
<text text-anchor="start" x="17.5" y="-21.5" font-family="Helvetica,sans-Serif" font-size="10.00">+</text>
<text text-anchor="start" x="39" y="-21.5" font-family="Helvetica,sans-Serif" font-size="10.00">TryWrite()</text>
<text text-anchor="start" x="17.5" y="-6.5" font-family="Helvetica,sans-Serif" font-size="10.00">+</text>
<text text-anchor="start" x="39" y="-6.5" font-family="Helvetica,sans-Serif" font-size="10.00">TryRead()</text>
<polygon fill="#666666" stroke="#666666" points="5,-76.5 5,-76.5 136,-76.5 136,-76.5 5,-76.5"/>
<polygon fill="#666666" stroke="#666666" points="5,-61.5 5,-61.5 136,-61.5 136,-61.5 5,-61.5"/>
<polygon fill="none" stroke="#666666" points="4.5,0 4.5,-105 135.5,-105 135.5,0 4.5,0"/>
</a>
</g>
</g>
<!-- Node4&#45;&gt;Node5 -->
<g id="edge4" class="edge">
<title>Node4&#45;&gt;Node5</title>
<path fill="none" stroke="#63b8ff" d="M70,-131.86C70,-123.28 70,-114.08 70,-105.1"/>
<polygon fill="none" stroke="#63b8ff" points="66.5,-131.96 70,-141.96 73.5,-131.96 66.5,-131.96"/>
</g>
<!-- Node7 -->
<g id="node7" class="node">
<title>Node7</title>
<g id="a_node7"><a xlink:href="classalps_1_1mbed_1_1communication_1_1_buffered_can_io.html" target="_top" xlink:title="MbedのCAN通信IO. 受信割り込みによってデータをバッファリングする．">
<polygon fill="white" stroke="transparent" points="301,-105 155,-105 155,0 301,0 301,-105"/>
<text text-anchor="start" x="160" y="-92.5" font-family="Helvetica,sans-Serif" font-size="10.00">alps::mbed::communication</text>
<text text-anchor="start" x="190" y="-81.5" font-family="Helvetica,sans-Serif" font-size="10.00">::BufferedCanIo</text>
<text text-anchor="start" x="224.5" y="-66.5" font-family="Helvetica,sans-Serif" font-size="10.00"> </text>
<text text-anchor="start" x="159" y="-51.5" font-family="Helvetica,sans-Serif" font-size="10.00">+</text>
<text text-anchor="start" x="172" y="-51.5" font-family="Helvetica,sans-Serif" font-size="10.00">BufferedCanIo()</text>
<text text-anchor="start" x="159" y="-36.5" font-family="Helvetica,sans-Serif" font-size="10.00">+</text>
<text text-anchor="start" x="172" y="-36.5" font-family="Helvetica,sans-Serif" font-size="10.00">TryRead()</text>
<text text-anchor="start" x="159" y="-21.5" font-family="Helvetica,sans-Serif" font-size="10.00">+</text>
<text text-anchor="start" x="172" y="-21.5" font-family="Helvetica,sans-Serif" font-size="10.00">TryWrite()</text>
<text text-anchor="start" x="159" y="-6.5" font-family="Helvetica,sans-Serif" font-size="10.00">+</text>
<text text-anchor="start" x="172" y="-6.5" font-family="Helvetica,sans-Serif" font-size="10.00">GetReceivedFrameNum()</text>
<polygon fill="#666666" stroke="#666666" points="155,-76.5 155,-76.5 301,-76.5 301,-76.5 155,-76.5"/>
<polygon fill="#666666" stroke="#666666" points="155,-61.5 155,-61.5 301,-61.5 301,-61.5 155,-61.5"/>
<polygon fill="none" stroke="#666666" points="155,0 155,-105 301,-105 301,0 155,0"/>
</a>
</g>
</g>
<!-- Node6&#45;&gt;Node7 -->
<g id="edge6" class="edge">
<title>Node6&#45;&gt;Node7</title>
<path fill="none" stroke="#63b8ff" d="M228,-131.86C228,-123.28 228,-114.08 228,-105.1"/>
<polygon fill="none" stroke="#63b8ff" points="224.5,-131.96 228,-141.96 231.5,-131.96 224.5,-131.96"/>
</g>
</g>
</svg>
