<?xml version="1.0" encoding="UTF-8" standalone="no"?>
<!DOCTYPE svg PUBLIC "-//W3C//DTD SVG 1.1//EN"
 "http://www.w3.org/Graphics/SVG/1.1/DTD/svg11.dtd">
<!-- Generated by graphviz version 2.43.0 (0)
 -->
<!-- Title: alps::cmn::communication::ICanIo&lt; Derived &gt; Pages: 1 -->
<svg width="178pt" height="250pt"
 viewBox="0.00 0.00 178.00 250.00" xmlns="http://www.w3.org/2000/svg" xmlns:xlink="http://www.w3.org/1999/xlink">
<g id="graph0" class="graph" transform="scale(1 1) rotate(0) translate(4 246)">
<title>alps::cmn::communication::ICanIo&lt; Derived &gt;</title>
<!-- Node1 -->
<g id="node1" class="node">
<title>Node1</title>
<g id="a_node1"><a xlink:title="CAN通信IOのインターフェース">
<polygon fill="#999999" stroke="transparent" points="155,-242 15,-242 15,-167 155,-167 155,-242"/>
<text text-anchor="start" x="20" y="-229.5" font-family="Helvetica,sans-Serif" font-size="10.00">alps::cmn::communication</text>
<text text-anchor="start" x="36" y="-218.5" font-family="Helvetica,sans-Serif" font-size="10.00">::ICanIo&lt; Derived &gt;</text>
<text text-anchor="start" x="81.5" y="-203.5" font-family="Helvetica,sans-Serif" font-size="10.00"> </text>
<text text-anchor="start" x="31.5" y="-188.5" font-family="Helvetica,sans-Serif" font-size="10.00">+</text>
<text text-anchor="start" x="57" y="-188.5" font-family="Helvetica,sans-Serif" font-size="10.00">CallTryRead()</text>
<text text-anchor="start" x="31.5" y="-173.5" font-family="Helvetica,sans-Serif" font-size="10.00">+</text>
<text text-anchor="start" x="57" y="-173.5" font-family="Helvetica,sans-Serif" font-size="10.00">CallTryWrite()</text>
<polygon fill="#666666" stroke="#666666" points="15,-213.5 15,-213.5 155,-213.5 155,-213.5 15,-213.5"/>
<polygon fill="#666666" stroke="#666666" points="15,-198.5 15,-198.5 155,-198.5 155,-198.5 15,-198.5"/>
<polygon fill="none" stroke="#666666" points="15,-167 15,-242 155,-242 155,-167 15,-167"/>
</a>
</g>
</g>
<!-- Node2 -->
<g id="node2" class="node">
<title>Node2</title>
<g id="a_node2"><a xlink:href="classalps_1_1mbed_1_1communication_1_1_buffered_can_io.html" target="_top" xlink:title="MbedのCAN通信IO. 割り込みによってデータをバッファリングして扱う．">
<polygon fill="white" stroke="transparent" points="170,-131 0,-131 0,0 170,0 170,-131"/>
<text text-anchor="start" x="5" y="-118.5" font-family="Helvetica,sans-Serif" font-size="10.00">alps::mbed::communication</text>
<text text-anchor="start" x="5" y="-107.5" font-family="Helvetica,sans-Serif" font-size="10.00">::BufferedCanIo&lt; kWriteBufSize,</text>
<text text-anchor="start" x="44" y="-96.5" font-family="Helvetica,sans-Serif" font-size="10.00"> kReadBufSize &gt;</text>
<text text-anchor="start" x="81.5" y="-81.5" font-family="Helvetica,sans-Serif" font-size="10.00"> </text>
<text text-anchor="start" x="13.5" y="-66.5" font-family="Helvetica,sans-Serif" font-size="10.00">+</text>
<text text-anchor="start" x="36" y="-66.5" font-family="Helvetica,sans-Serif" font-size="10.00">BufferedCanIo()</text>
<text text-anchor="start" x="13.5" y="-51.5" font-family="Helvetica,sans-Serif" font-size="10.00">+</text>
<text text-anchor="start" x="36" y="-51.5" font-family="Helvetica,sans-Serif" font-size="10.00">TryRead()</text>
<text text-anchor="start" x="13.5" y="-36.5" font-family="Helvetica,sans-Serif" font-size="10.00">+</text>
<text text-anchor="start" x="36" y="-36.5" font-family="Helvetica,sans-Serif" font-size="10.00">TryWrite()</text>
<text text-anchor="start" x="13.5" y="-21.5" font-family="Helvetica,sans-Serif" font-size="10.00">+</text>
<text text-anchor="start" x="36" y="-21.5" font-family="Helvetica,sans-Serif" font-size="10.00">GetReadBufferCount()</text>
<text text-anchor="start" x="13.5" y="-6.5" font-family="Helvetica,sans-Serif" font-size="10.00">+</text>
<text text-anchor="start" x="36" y="-6.5" font-family="Helvetica,sans-Serif" font-size="10.00">GetWriteBufferCount()</text>
<polygon fill="#666666" stroke="#666666" points="0,-91.5 0,-91.5 170,-91.5 170,-91.5 0,-91.5"/>
<polygon fill="#666666" stroke="#666666" points="0,-76.5 0,-76.5 170,-76.5 170,-76.5 0,-76.5"/>
<polygon fill="none" stroke="#666666" points="0,0 0,-131 170,-131 170,0 0,0"/>
</a>
</g>
</g>
<!-- Node1&#45;&gt;Node2 -->
<g id="edge1" class="edge">
<title>Node1&#45;&gt;Node2</title>
<path fill="none" stroke="#63b8ff" d="M85,-156.64C85,-148.41 85,-139.7 85,-131.08"/>
<polygon fill="none" stroke="#63b8ff" points="81.5,-156.79 85,-166.79 88.5,-156.79 81.5,-156.79"/>
</g>
</g>
</svg>
