<?xml version="1.0" encoding="UTF-8" standalone="no"?>
<!DOCTYPE svg PUBLIC "-//W3C//DTD SVG 1.1//EN"
 "http://www.w3.org/Graphics/SVG/1.1/DTD/svg11.dtd">
<!-- Generated by graphviz version 2.43.0 (0)
 -->
<!-- Title: alps::cmn::communication::ICanRead&lt; Derived &gt; Pages: 1 -->
<svg width="622pt" height="305pt"
 viewBox="0.00 0.00 622.00 305.00" xmlns="http://www.w3.org/2000/svg" xmlns:xlink="http://www.w3.org/1999/xlink">
<g id="graph0" class="graph" transform="scale(1 1) rotate(0) translate(4 301)">
<title>alps::cmn::communication::ICanRead&lt; Derived &gt;</title>
<!-- Node1 -->
<g id="node1" class="node">
<title>Node1</title>
<g id="a_node1"><a xlink:title="CAN通信でデータを読み込むインターフェース">
<polygon fill="#999999" stroke="transparent" points="377,-297 237,-297 237,-237 377,-237 377,-297"/>
<text text-anchor="start" x="242" y="-285" font-family="Helvetica,sans-Serif" font-size="10.00">alps::cmn::communication</text>
<text text-anchor="start" x="250" y="-274" font-family="Helvetica,sans-Serif" font-size="10.00">::ICanRead&lt; Derived &gt;</text>
<text text-anchor="start" x="303.5" y="-259" font-family="Helvetica,sans-Serif" font-size="10.00"> </text>
<text text-anchor="start" x="254" y="-244" font-family="Helvetica,sans-Serif" font-size="10.00">+</text>
<text text-anchor="start" x="280" y="-244" font-family="Helvetica,sans-Serif" font-size="10.00">CallTryRead()</text>
<polygon fill="#666666" stroke="#666666" points="237,-269 237,-269 377,-269 377,-269 237,-269"/>
<polygon fill="#666666" stroke="#666666" points="237,-254 237,-254 377,-254 377,-254 237,-254"/>
<polygon fill="none" stroke="#666666" points="237,-237 237,-297 377,-297 377,-237 237,-237"/>
</a>
</g>
</g>
<!-- Node2 -->
<g id="node2" class="node">
<title>Node2</title>
<g id="a_node2"><a xlink:href="classalps_1_1cmn_1_1communication_1_1_i_can_io.html" target="_top" xlink:title=" ">
<polygon fill="white" stroke="transparent" points="140,-201 0,-201 0,-141 140,-141 140,-201"/>
<text text-anchor="start" x="5" y="-189" font-family="Helvetica,sans-Serif" font-size="10.00">alps::cmn::communication</text>
<text text-anchor="start" x="10" y="-178" font-family="Helvetica,sans-Serif" font-size="10.00">::ICanIo&lt; SocketCanIo &gt;</text>
<text text-anchor="start" x="66.5" y="-163" font-family="Helvetica,sans-Serif" font-size="10.00"> </text>
<text text-anchor="start" x="66.5" y="-148" font-family="Helvetica,sans-Serif" font-size="10.00"> </text>
<polygon fill="#666666" stroke="#666666" points="0,-173 0,-173 140,-173 140,-173 0,-173"/>
<polygon fill="#666666" stroke="#666666" points="0,-158 0,-158 140,-158 140,-158 0,-158"/>
<polygon fill="none" stroke="#666666" points="0,-141 0,-201 140,-201 140,-141 0,-141"/>
</a>
</g>
</g>
<!-- Node1&#45;&gt;Node2 -->
<g id="edge1" class="edge">
<title>Node1&#45;&gt;Node2</title>
<path fill="none" stroke="#63b8ff" d="M227.43,-234.44C199.24,-223.26 167.75,-210.77 140.38,-199.91"/>
<polygon fill="none" stroke="#63b8ff" points="226.27,-237.74 236.85,-238.18 228.85,-231.24 226.27,-237.74"/>
</g>
<!-- Node4 -->
<g id="node4" class="node">
<title>Node4</title>
<g id="a_node4"><a xlink:href="classalps_1_1cmn_1_1communication_1_1_i_can_io.html" target="_top" xlink:title=" ">
<polygon fill="white" stroke="transparent" points="298,-201 158,-201 158,-141 298,-141 298,-201"/>
<text text-anchor="start" x="163" y="-189" font-family="Helvetica,sans-Serif" font-size="10.00">alps::cmn::communication</text>
<text text-anchor="start" x="163" y="-178" font-family="Helvetica,sans-Serif" font-size="10.00">::ICanIo&lt; BufferedCanIo &gt;</text>
<text text-anchor="start" x="224.5" y="-163" font-family="Helvetica,sans-Serif" font-size="10.00"> </text>
<text text-anchor="start" x="224.5" y="-148" font-family="Helvetica,sans-Serif" font-size="10.00"> </text>
<polygon fill="#666666" stroke="#666666" points="158,-173 158,-173 298,-173 298,-173 158,-173"/>
<polygon fill="#666666" stroke="#666666" points="158,-158 158,-158 298,-158 298,-158 158,-158"/>
<polygon fill="none" stroke="#666666" points="158,-141 158,-201 298,-201 298,-141 158,-141"/>
</a>
</g>
</g>
<!-- Node1&#45;&gt;Node4 -->
<g id="edge3" class="edge">
<title>Node1&#45;&gt;Node4</title>
<path fill="none" stroke="#63b8ff" d="M275.79,-228.87C268.07,-219.68 259.9,-209.96 252.55,-201.21"/>
<polygon fill="none" stroke="#63b8ff" points="273.32,-231.37 282.44,-236.77 278.68,-226.87 273.32,-231.37"/>
</g>
<!-- Node6 -->
<g id="node6" class="node">
<title>Node6</title>
<g id="a_node6"><a xlink:href="classalps_1_1cmn_1_1communication_1_1_i_can_io.html" target="_top" xlink:title=" ">
<polygon fill="white" stroke="transparent" points="456,-201 316,-201 316,-141 456,-141 456,-201"/>
<text text-anchor="start" x="321" y="-189" font-family="Helvetica,sans-Serif" font-size="10.00">alps::cmn::communication</text>
<text text-anchor="start" x="342" y="-178" font-family="Helvetica,sans-Serif" font-size="10.00">::ICanIo&lt; CanIo &gt;</text>
<text text-anchor="start" x="382.5" y="-163" font-family="Helvetica,sans-Serif" font-size="10.00"> </text>
<text text-anchor="start" x="382.5" y="-148" font-family="Helvetica,sans-Serif" font-size="10.00"> </text>
<polygon fill="#666666" stroke="#666666" points="316,-173 316,-173 456,-173 456,-173 316,-173"/>
<polygon fill="#666666" stroke="#666666" points="316,-158 316,-158 456,-158 456,-158 316,-158"/>
<polygon fill="none" stroke="#666666" points="316,-141 316,-201 456,-201 456,-141 316,-141"/>
</a>
</g>
</g>
<!-- Node1&#45;&gt;Node6 -->
<g id="edge5" class="edge">
<title>Node1&#45;&gt;Node6</title>
<path fill="none" stroke="#63b8ff" d="M338.21,-228.87C345.93,-219.68 354.1,-209.96 361.45,-201.21"/>
<polygon fill="none" stroke="#63b8ff" points="335.32,-226.87 331.56,-236.77 340.68,-231.37 335.32,-226.87"/>
</g>
<!-- Node7 -->
<g id="node7" class="node">
<title>Node7</title>
<g id="a_node7"><a xlink:href="classalps_1_1cmn_1_1communication_1_1_i_can_io.html" target="_top" xlink:title="CAN通信IOのインターフェース">
<polygon fill="white" stroke="transparent" points="614,-201 474,-201 474,-141 614,-141 614,-201"/>
<text text-anchor="start" x="479" y="-189" font-family="Helvetica,sans-Serif" font-size="10.00">alps::cmn::communication</text>
<text text-anchor="start" x="495" y="-178" font-family="Helvetica,sans-Serif" font-size="10.00">::ICanIo&lt; Derived &gt;</text>
<text text-anchor="start" x="540.5" y="-163" font-family="Helvetica,sans-Serif" font-size="10.00"> </text>
<text text-anchor="start" x="540.5" y="-148" font-family="Helvetica,sans-Serif" font-size="10.00"> </text>
<polygon fill="#666666" stroke="#666666" points="474,-173 474,-173 614,-173 614,-173 474,-173"/>
<polygon fill="#666666" stroke="#666666" points="474,-158 474,-158 614,-158 614,-158 474,-158"/>
<polygon fill="none" stroke="#666666" points="474,-141 474,-201 614,-201 614,-141 474,-141"/>
</a>
</g>
</g>
<!-- Node1&#45;&gt;Node7 -->
<g id="edge6" class="edge">
<title>Node1&#45;&gt;Node7</title>
<path fill="none" stroke="#63b8ff" d="M386.57,-234.44C414.76,-223.26 446.25,-210.77 473.62,-199.91"/>
<polygon fill="none" stroke="#63b8ff" points="385.15,-231.24 377.15,-238.18 387.73,-237.74 385.15,-231.24"/>
</g>
<!-- Node3 -->
<g id="node3" class="node">
<title>Node3</title>
<g id="a_node3"><a xlink:href="classalps_1_1lin_1_1communication_1_1_socket_can_io.html" target="_top" xlink:title="SocketCANを用いてCAN通信を行うクラス．">
<polygon fill="white" stroke="transparent" points="135.5,-105 4.5,-105 4.5,0 135.5,0 135.5,-105"/>
<text text-anchor="start" x="10" y="-92.5" font-family="Helvetica,sans-Serif" font-size="10.00">alps::lin::communication</text>
<text text-anchor="start" x="37" y="-81.5" font-family="Helvetica,sans-Serif" font-size="10.00">::SocketCanIo</text>
<text text-anchor="start" x="67" y="-66.5" font-family="Helvetica,sans-Serif" font-size="10.00"> </text>
<text text-anchor="start" x="17.5" y="-51.5" font-family="Helvetica,sans-Serif" font-size="10.00">+</text>
<text text-anchor="start" x="39" y="-51.5" font-family="Helvetica,sans-Serif" font-size="10.00">SocketCanIo()</text>
<text text-anchor="start" x="17.5" y="-36.5" font-family="Helvetica,sans-Serif" font-size="10.00">+</text>
<text text-anchor="start" x="39" y="-36.5" font-family="Helvetica,sans-Serif" font-size="10.00">~SocketCanIo()</text>
<text text-anchor="start" x="17.5" y="-21.5" font-family="Helvetica,sans-Serif" font-size="10.00">+</text>
<text text-anchor="start" x="39" y="-21.5" font-family="Helvetica,sans-Serif" font-size="10.00">TryWrite()</text>
<text text-anchor="start" x="17.5" y="-6.5" font-family="Helvetica,sans-Serif" font-size="10.00">+</text>
<text text-anchor="start" x="39" y="-6.5" font-family="Helvetica,sans-Serif" font-size="10.00">TryRead()</text>
<polygon fill="#666666" stroke="#666666" points="5,-76.5 5,-76.5 136,-76.5 136,-76.5 5,-76.5"/>
<polygon fill="#666666" stroke="#666666" points="5,-61.5 5,-61.5 136,-61.5 136,-61.5 5,-61.5"/>
<polygon fill="none" stroke="#666666" points="4.5,0 4.5,-105 135.5,-105 135.5,0 4.5,0"/>
</a>
</g>
</g>
<!-- Node2&#45;&gt;Node3 -->
<g id="edge2" class="edge">
<title>Node2&#45;&gt;Node3</title>
<path fill="none" stroke="#63b8ff" d="M70,-130.88C70,-122.68 70,-113.92 70,-105.34"/>
<polygon fill="none" stroke="#63b8ff" points="66.5,-130.9 70,-140.9 73.5,-130.9 66.5,-130.9"/>
</g>
<!-- Node5 -->
<g id="node5" class="node">
<title>Node5</title>
<g id="a_node5"><a xlink:href="classalps_1_1mbed_1_1communication_1_1_buffered_can_io.html" target="_top" xlink:title="MbedのCAN通信IO. 受信割り込みによってデータをバッファリングする．">
<polygon fill="white" stroke="transparent" points="301,-105 155,-105 155,0 301,0 301,-105"/>
<text text-anchor="start" x="160" y="-92.5" font-family="Helvetica,sans-Serif" font-size="10.00">alps::mbed::communication</text>
<text text-anchor="start" x="190" y="-81.5" font-family="Helvetica,sans-Serif" font-size="10.00">::BufferedCanIo</text>
<text text-anchor="start" x="224.5" y="-66.5" font-family="Helvetica,sans-Serif" font-size="10.00"> </text>
<text text-anchor="start" x="159" y="-51.5" font-family="Helvetica,sans-Serif" font-size="10.00">+</text>
<text text-anchor="start" x="172" y="-51.5" font-family="Helvetica,sans-Serif" font-size="10.00">BufferedCanIo()</text>
<text text-anchor="start" x="159" y="-36.5" font-family="Helvetica,sans-Serif" font-size="10.00">+</text>
<text text-anchor="start" x="172" y="-36.5" font-family="Helvetica,sans-Serif" font-size="10.00">TryRead()</text>
<text text-anchor="start" x="159" y="-21.5" font-family="Helvetica,sans-Serif" font-size="10.00">+</text>
<text text-anchor="start" x="172" y="-21.5" font-family="Helvetica,sans-Serif" font-size="10.00">TryWrite()</text>
<text text-anchor="start" x="159" y="-6.5" font-family="Helvetica,sans-Serif" font-size="10.00">+</text>
<text text-anchor="start" x="172" y="-6.5" font-family="Helvetica,sans-Serif" font-size="10.00">GetReceivedFrameNum()</text>
<polygon fill="#666666" stroke="#666666" points="155,-76.5 155,-76.5 301,-76.5 301,-76.5 155,-76.5"/>
<polygon fill="#666666" stroke="#666666" points="155,-61.5 155,-61.5 301,-61.5 301,-61.5 155,-61.5"/>
<polygon fill="none" stroke="#666666" points="155,0 155,-105 301,-105 301,0 155,0"/>
</a>
</g>
</g>
<!-- Node4&#45;&gt;Node5 -->
<g id="edge4" class="edge">
<title>Node4&#45;&gt;Node5</title>
<path fill="none" stroke="#63b8ff" d="M228,-130.88C228,-122.68 228,-113.92 228,-105.34"/>
<polygon fill="none" stroke="#63b8ff" points="224.5,-130.9 228,-140.9 231.5,-130.9 224.5,-130.9"/>
</g>
</g>
</svg>
