<?xml version="1.0" encoding="UTF-8" standalone="no"?>
<!DOCTYPE svg PUBLIC "-//W3C//DTD SVG 1.1//EN"
 "http://www.w3.org/Graphics/SVG/1.1/DTD/svg11.dtd">
<!-- Generated by graphviz version 2.43.0 (0)
 -->
<!-- Title: alps::cmn::actuator::robomas_motor::M2006&lt; Clock &gt; Pages: 1 -->
<svg width="544pt" height="408pt"
 viewBox="0.00 0.00 543.50 408.00" xmlns="http://www.w3.org/2000/svg" xmlns:xlink="http://www.w3.org/1999/xlink">
<g id="graph0" class="graph" transform="scale(1 1) rotate(0) translate(4 404)">
<title>alps::cmn::actuator::robomas_motor::M2006&lt; Clock &gt;</title>
<polygon fill="white" stroke="transparent" points="-4,4 -4,-404 539.5,-404 539.5,4 -4,4"/>
<!-- Node1 -->
<g id="node1" class="node">
<title>Node1</title>
<g id="a_node1"><a xlink:title="M2006のクラス">
<polygon fill="#bfbfbf" stroke="black" points="239.5,-0.5 239.5,-79.5 378.5,-79.5 378.5,-0.5 239.5,-0.5"/>
<text text-anchor="start" x="247.5" y="-67.5" font-family="Helvetica,sans-Serif" font-size="10.00">alps::cmn::actuator</text>
<text text-anchor="start" x="247.5" y="-56.5" font-family="Helvetica,sans-Serif" font-size="10.00">::robomas_motor::M2006</text>
<text text-anchor="middle" x="309" y="-45.5" font-family="Helvetica,sans-Serif" font-size="10.00">&lt; Clock &gt;</text>
<polyline fill="none" stroke="black" points="239.5,-38.5 378.5,-38.5 "/>
<text text-anchor="middle" x="309" y="-26.5" font-family="Helvetica,sans-Serif" font-size="10.00"> </text>
<polyline fill="none" stroke="black" points="239.5,-19.5 378.5,-19.5 "/>
<text text-anchor="start" x="247.5" y="-7.5" font-family="Helvetica,sans-Serif" font-size="10.00">+ M2006()</text>
</a>
</g>
</g>
<!-- Node2 -->
<g id="node2" class="node">
<title>Node2</title>
<g id="a_node2"><a xlink:href="classalps_1_1cmn_1_1actuator_1_1robomas__motor_1_1detail_1_1_motor_base.html" target="_top" xlink:title="ロボマスモータの基底クラス．">
<polygon fill="white" stroke="black" points="59,-116.5 59,-283.5 211,-283.5 211,-116.5 59,-116.5"/>
<text text-anchor="start" x="67" y="-271.5" font-family="Helvetica,sans-Serif" font-size="10.00">alps::cmn::actuator</text>
<text text-anchor="start" x="67" y="-260.5" font-family="Helvetica,sans-Serif" font-size="10.00">::robomas_motor::detail</text>
<text text-anchor="middle" x="135" y="-249.5" font-family="Helvetica,sans-Serif" font-size="10.00">::MotorBase&lt; Clock &gt;</text>
<polyline fill="none" stroke="black" points="59,-242.5 211,-242.5 "/>
<text text-anchor="middle" x="135" y="-230.5" font-family="Helvetica,sans-Serif" font-size="10.00"> </text>
<polyline fill="none" stroke="black" points="59,-223.5 211,-223.5 "/>
<text text-anchor="start" x="67" y="-211.5" font-family="Helvetica,sans-Serif" font-size="10.00">+ MotorBase()</text>
<text text-anchor="start" x="67" y="-200.5" font-family="Helvetica,sans-Serif" font-size="10.00">+ Drive()</text>
<text text-anchor="start" x="67" y="-189.5" font-family="Helvetica,sans-Serif" font-size="10.00">+ GetTargetCurrent()</text>
<text text-anchor="start" x="67" y="-178.5" font-family="Helvetica,sans-Serif" font-size="10.00">+ OnReceiveSensorFrame()</text>
<text text-anchor="start" x="67" y="-167.5" font-family="Helvetica,sans-Serif" font-size="10.00">+ GetAngle()</text>
<text text-anchor="start" x="67" y="-156.5" font-family="Helvetica,sans-Serif" font-size="10.00">+ GetVelocity()</text>
<text text-anchor="start" x="67" y="-145.5" font-family="Helvetica,sans-Serif" font-size="10.00">+ GetRealCurrent()</text>
<text text-anchor="start" x="67" y="-134.5" font-family="Helvetica,sans-Serif" font-size="10.00">+ ResetAngle()</text>
<text text-anchor="start" x="67" y="-123.5" font-family="Helvetica,sans-Serif" font-size="10.00">+ IsTimeout()</text>
</a>
</g>
</g>
<!-- Node2&#45;&gt;Node1 -->
<g id="edge1" class="edge">
<title>Node2&#45;&gt;Node1</title>
<path fill="none" stroke="midnightblue" d="M218.57,-118.21C219.38,-117.47 220.19,-116.73 221,-116 234.23,-104 248.9,-91.27 262.41,-79.78"/>
<polygon fill="none" stroke="midnightblue" points="216.19,-115.64 211.2,-124.99 220.93,-120.79 216.19,-115.64"/>
</g>
<!-- Node3 -->
<g id="node3" class="node">
<title>Node3</title>
<g id="a_node3"><a xlink:href="classalps_1_1cmn_1_1actuator_1_1_i_motor.html" target="_top" xlink:title=" ">
<polygon fill="white" stroke="black" points="0,-320.5 0,-399.5 118,-399.5 118,-320.5 0,-320.5"/>
<text text-anchor="start" x="8" y="-387.5" font-family="Helvetica,sans-Serif" font-size="10.00">alps::cmn::actuator</text>
<text text-anchor="start" x="8" y="-376.5" font-family="Helvetica,sans-Serif" font-size="10.00">::IMotor&lt; MotorBase</text>
<text text-anchor="middle" x="59" y="-365.5" font-family="Helvetica,sans-Serif" font-size="10.00">&lt; Clock &gt; &gt;</text>
<polyline fill="none" stroke="black" points="0,-358.5 118,-358.5 "/>
<text text-anchor="middle" x="59" y="-346.5" font-family="Helvetica,sans-Serif" font-size="10.00"> </text>
<polyline fill="none" stroke="black" points="0,-339.5 118,-339.5 "/>
<text text-anchor="start" x="8" y="-327.5" font-family="Helvetica,sans-Serif" font-size="10.00">+ CallDrive()</text>
</a>
</g>
</g>
<!-- Node3&#45;&gt;Node2 -->
<g id="edge2" class="edge">
<title>Node3&#45;&gt;Node2</title>
<path fill="none" stroke="midnightblue" d="M82.04,-311.1C86.25,-302.34 90.76,-292.97 95.3,-283.53"/>
<polygon fill="none" stroke="midnightblue" points="78.77,-309.82 77.59,-320.35 85.08,-312.85 78.77,-309.82"/>
</g>
<!-- Node4 -->
<g id="node4" class="node">
<title>Node4</title>
<g id="a_node4"><a xlink:href="classalps_1_1cmn_1_1sensor_1_1_i_rotary_sensor.html" target="_top" xlink:title=" ">
<polygon fill="white" stroke="black" points="136.5,-320.5 136.5,-399.5 285.5,-399.5 285.5,-320.5 136.5,-320.5"/>
<text text-anchor="start" x="144.5" y="-387.5" font-family="Helvetica,sans-Serif" font-size="10.00">alps::cmn::sensor::</text>
<text text-anchor="start" x="144.5" y="-376.5" font-family="Helvetica,sans-Serif" font-size="10.00">IRotarySensor&lt; MotorBase</text>
<text text-anchor="middle" x="211" y="-365.5" font-family="Helvetica,sans-Serif" font-size="10.00">&lt; Clock &gt; &gt;</text>
<polyline fill="none" stroke="black" points="136.5,-358.5 285.5,-358.5 "/>
<text text-anchor="middle" x="211" y="-346.5" font-family="Helvetica,sans-Serif" font-size="10.00"> </text>
<polyline fill="none" stroke="black" points="136.5,-339.5 285.5,-339.5 "/>
<text text-anchor="start" x="144.5" y="-327.5" font-family="Helvetica,sans-Serif" font-size="10.00">+ CallGetAngle()</text>
</a>
</g>
</g>
<!-- Node4&#45;&gt;Node2 -->
<g id="edge3" class="edge">
<title>Node4&#45;&gt;Node2</title>
<path fill="none" stroke="midnightblue" d="M187.96,-311.1C183.75,-302.34 179.24,-292.97 174.7,-283.53"/>
<polygon fill="none" stroke="midnightblue" points="184.92,-312.85 192.41,-320.35 191.23,-309.82 184.92,-312.85"/>
</g>
<!-- Node5 -->
<g id="node5" class="node">
<title>Node5</title>
<g id="a_node5"><a xlink:href="classalps_1_1cmn_1_1actuator_1_1_i_motor.html" target="_top" xlink:title=" ">
<polygon fill="white" stroke="black" points="229.5,-166 229.5,-234 388.5,-234 388.5,-166 229.5,-166"/>
<text text-anchor="start" x="237.5" y="-222" font-family="Helvetica,sans-Serif" font-size="10.00">alps::cmn::actuator</text>
<text text-anchor="middle" x="309" y="-211" font-family="Helvetica,sans-Serif" font-size="10.00">::IMotor&lt; M2006&lt; Clock &gt; &gt;</text>
<polyline fill="none" stroke="black" points="229.5,-204 388.5,-204 "/>
<text text-anchor="middle" x="309" y="-192" font-family="Helvetica,sans-Serif" font-size="10.00"> </text>
<polyline fill="none" stroke="black" points="229.5,-185 388.5,-185 "/>
<text text-anchor="start" x="237.5" y="-173" font-family="Helvetica,sans-Serif" font-size="10.00">+ CallDrive()</text>
</a>
</g>
</g>
<!-- Node5&#45;&gt;Node1 -->
<g id="edge4" class="edge">
<title>Node5&#45;&gt;Node1</title>
<path fill="none" stroke="midnightblue" d="M309,-155.71C309,-131.92 309,-102.66 309,-79.65"/>
<polygon fill="none" stroke="midnightblue" points="305.5,-155.88 309,-165.88 312.5,-155.88 305.5,-155.88"/>
</g>
<!-- Node6 -->
<g id="node6" class="node">
<title>Node6</title>
<g id="a_node6"><a xlink:href="classalps_1_1cmn_1_1sensor_1_1_i_rotary_sensor.html" target="_top" xlink:title=" ">
<polygon fill="white" stroke="black" points="406.5,-160.5 406.5,-239.5 535.5,-239.5 535.5,-160.5 406.5,-160.5"/>
<text text-anchor="start" x="414.5" y="-227.5" font-family="Helvetica,sans-Serif" font-size="10.00">alps::cmn::sensor::</text>
<text text-anchor="start" x="414.5" y="-216.5" font-family="Helvetica,sans-Serif" font-size="10.00">IRotarySensor&lt; M2006</text>
<text text-anchor="middle" x="471" y="-205.5" font-family="Helvetica,sans-Serif" font-size="10.00">&lt; Clock &gt; &gt;</text>
<polyline fill="none" stroke="black" points="406.5,-198.5 535.5,-198.5 "/>
<text text-anchor="middle" x="471" y="-186.5" font-family="Helvetica,sans-Serif" font-size="10.00"> </text>
<polyline fill="none" stroke="black" points="406.5,-179.5 535.5,-179.5 "/>
<text text-anchor="start" x="414.5" y="-167.5" font-family="Helvetica,sans-Serif" font-size="10.00">+ CallGetAngle()</text>
</a>
</g>
</g>
<!-- Node6&#45;&gt;Node1 -->
<g id="edge5" class="edge">
<title>Node6&#45;&gt;Node1</title>
<path fill="none" stroke="midnightblue" d="M431.88,-152.86C420.92,-140.57 408.77,-127.51 397,-116 384.37,-103.65 370.03,-90.93 356.64,-79.55"/>
<polygon fill="none" stroke="midnightblue" points="429.29,-155.22 438.53,-160.39 434.53,-150.58 429.29,-155.22"/>
</g>
</g>
</svg>
