<?xml version="1.0" encoding="UTF-8" standalone="no"?>
<!DOCTYPE svg PUBLIC "-//W3C//DTD SVG 1.1//EN"
 "http://www.w3.org/Graphics/SVG/1.1/DTD/svg11.dtd">
<!-- Generated by graphviz version 2.43.0 (0)
 -->
<!-- Title: alps::mbed::communication::odrive::ODriveCanIo Pages: 1 -->
<svg width="154pt" height="250pt"
 viewBox="0.00 0.00 154.00 250.00" xmlns="http://www.w3.org/2000/svg" xmlns:xlink="http://www.w3.org/1999/xlink">
<g id="graph0" class="graph" transform="scale(1 1) rotate(0) translate(4 246)">
<title>alps::mbed::communication::odrive::ODriveCanIo</title>
<!-- Node1 -->
<g id="Node000001" class="node">
<title>Node1</title>
<g id="a_Node000001"><a xlink:title="mbed環境でODriveのCAN通信IO。その他必要なmbedの機能を関数として登録する">
<polygon fill="#999999" stroke="transparent" points="146,-120 0,-120 0,0 146,0 146,-120"/>
<text text-anchor="start" x="5" y="-108" font-family="Helvetica,sans-Serif" font-size="10.00">alps::mbed::communication</text>
<text text-anchor="start" x="20.5" y="-97" font-family="Helvetica,sans-Serif" font-size="10.00">::odrive::ODriveCanIo</text>
<text text-anchor="start" x="71" y="-82" font-family="Helvetica,sans-Serif" font-size="10.00"> </text>
<text text-anchor="start" x="14.5" y="-67" font-family="Helvetica,sans-Serif" font-size="10.00">+</text>
<text text-anchor="start" x="38" y="-67" font-family="Helvetica,sans-Serif" font-size="10.00">ODriveCanIo()</text>
<text text-anchor="start" x="14.5" y="-52" font-family="Helvetica,sans-Serif" font-size="10.00">+</text>
<text text-anchor="start" x="38" y="-52" font-family="Helvetica,sans-Serif" font-size="10.00">onCanMessage()</text>
<text text-anchor="start" x="14.5" y="-37" font-family="Helvetica,sans-Serif" font-size="10.00">+</text>
<text text-anchor="start" x="38" y="-37" font-family="Helvetica,sans-Serif" font-size="10.00">sendMessage()</text>
<text text-anchor="start" x="14.5" y="-22" font-family="Helvetica,sans-Serif" font-size="10.00">+</text>
<text text-anchor="start" x="38" y="-22" font-family="Helvetica,sans-Serif" font-size="10.00">onReceive()</text>
<text text-anchor="start" x="14.5" y="-7" font-family="Helvetica,sans-Serif" font-size="10.00">+</text>
<text text-anchor="start" x="38" y="-7" font-family="Helvetica,sans-Serif" font-size="10.00">pumpEvents()</text>
<polygon fill="#666666" stroke="#666666" points="0,-92 0,-92 146,-92 146,-92 0,-92"/>
<polygon fill="#666666" stroke="#666666" points="0,-77 0,-77 146,-77 146,-77 0,-77"/>
<polygon fill="none" stroke="#666666" points="0,0 0,-120 146,-120 146,0 0,0"/>
</a>
</g>
</g>
<!-- Node2 -->
<g id="Node000002" class="node">
<title>Node2</title>
<g id="a_Node000002"><a xlink:href="structalps_1_1cmn_1_1communication_1_1odrive_1_1_o_drive_can_intf.html" target="_top" xlink:title=" ">
<polygon fill="white" stroke="transparent" points="143,-242 3,-242 3,-156 143,-156 143,-242"/>
<text text-anchor="start" x="8" y="-230" font-family="Helvetica,sans-Serif" font-size="10.00">alps::cmn::communication</text>
<text text-anchor="start" x="8" y="-219" font-family="Helvetica,sans-Serif" font-size="10.00">::odrive::ODriveCanIntf</text>
<text text-anchor="start" x="30.5" y="-208" font-family="Helvetica,sans-Serif" font-size="10.00">&lt; ODriveCanIo &gt;</text>
<text text-anchor="start" x="71" y="-193" font-family="Helvetica,sans-Serif" font-size="10.00"> </text>
<text text-anchor="start" x="18" y="-178" font-family="Helvetica,sans-Serif" font-size="10.00">+</text>
<text text-anchor="start" x="42" y="-178" font-family="Helvetica,sans-Serif" font-size="10.00">sendMsg()</text>
<text text-anchor="start" x="18" y="-163" font-family="Helvetica,sans-Serif" font-size="10.00">+</text>
<text text-anchor="start" x="42" y="-163" font-family="Helvetica,sans-Serif" font-size="10.00">pump_events()</text>
<polygon fill="#666666" stroke="#666666" points="3,-203 3,-203 143,-203 143,-203 3,-203"/>
<polygon fill="#666666" stroke="#666666" points="3,-188 3,-188 143,-188 143,-188 3,-188"/>
<polygon fill="none" stroke="#666666" points="3,-156 3,-242 143,-242 143,-156 3,-156"/>
</a>
</g>
</g>
<!-- Node2&#45;&gt;Node1 -->
<g id="edge1_Node000001_Node000002" class="edge">
<title>Node2&#45;&gt;Node1</title>
<g id="a_edge1_Node000001_Node000002"><a xlink:title=" ">
<path fill="none" stroke="#63b8ff" d="M73,-145.51C73,-137.23 73,-128.63 73,-120.21"/>
<polygon fill="none" stroke="#63b8ff" points="69.5,-145.78 73,-155.78 76.5,-145.78 69.5,-145.78"/>
</a>
</g>
</g>
</g>
</svg>
