<?xml version="1.0" encoding="UTF-8" standalone="no"?>
<!DOCTYPE svg PUBLIC "-//W3C//DTD SVG 1.1//EN"
 "http://www.w3.org/Graphics/SVG/1.1/DTD/svg11.dtd">
<!-- Generated by graphviz version 2.43.0 (0)
 -->
<!-- Title: alps::cmn::gpio::IPwmSetPeriod&lt; Derived &gt; Pages: 1 -->
<svg width="478pt" height="306pt"
 viewBox="0.00 0.00 478.00 306.00" xmlns="http://www.w3.org/2000/svg" xmlns:xlink="http://www.w3.org/1999/xlink">
<g id="graph0" class="graph" transform="scale(1 1) rotate(0) translate(4 302)">
<title>alps::cmn::gpio::IPwmSetPeriod&lt; Derived &gt;</title>
<!-- Node1 -->
<g id="node1" class="node">
<title>Node1</title>
<g id="a_node1"><a xlink:title="PWMの周期を設定するインタフェース">
<polygon fill="#999999" stroke="transparent" points="318,-298 184,-298 184,-238 318,-238 318,-298"/>
<text text-anchor="start" x="189" y="-286" font-family="Helvetica,sans-Serif" font-size="10.00">alps::cmn::gpio::IPwmSet</text>
<text text-anchor="start" x="205" y="-275" font-family="Helvetica,sans-Serif" font-size="10.00">Period&lt; Derived &gt;</text>
<text text-anchor="start" x="247.5" y="-260" font-family="Helvetica,sans-Serif" font-size="10.00"> </text>
<text text-anchor="start" x="198" y="-245" font-family="Helvetica,sans-Serif" font-size="10.00">+</text>
<text text-anchor="start" x="221" y="-245" font-family="Helvetica,sans-Serif" font-size="10.00">CallSetPeriod()</text>
<polygon fill="#666666" stroke="#666666" points="184,-270 184,-270 318,-270 318,-270 184,-270"/>
<polygon fill="#666666" stroke="#666666" points="184,-255 184,-255 318,-255 318,-255 184,-255"/>
<polygon fill="none" stroke="#666666" points="184,-238 184,-298 318,-298 318,-238 184,-238"/>
</a>
</g>
</g>
<!-- Node2 -->
<g id="node2" class="node">
<title>Node2</title>
<g id="a_node2"><a xlink:href="classalps_1_1cmn_1_1gpio_1_1_i_pwm_set_period.html" target="_top" xlink:title=" ">
<polygon fill="white" stroke="transparent" points="166,-191 0,-191 0,-131 166,-131 166,-191"/>
<text text-anchor="start" x="5" y="-179" font-family="Helvetica,sans-Serif" font-size="10.00">alps::cmn::gpio::IPwmSet</text>
<text text-anchor="start" x="5" y="-168" font-family="Helvetica,sans-Serif" font-size="10.00">Period&lt; mbed::gpio::PwmOut &gt;</text>
<text text-anchor="start" x="79.5" y="-153" font-family="Helvetica,sans-Serif" font-size="10.00"> </text>
<text text-anchor="start" x="22" y="-138" font-family="Helvetica,sans-Serif" font-size="10.00">+</text>
<text text-anchor="start" x="53" y="-138" font-family="Helvetica,sans-Serif" font-size="10.00">CallSetPeriod()</text>
<polygon fill="#666666" stroke="#666666" points="0,-163 0,-163 166,-163 166,-163 0,-163"/>
<polygon fill="#666666" stroke="#666666" points="0,-148 0,-148 166,-148 166,-148 0,-148"/>
<polygon fill="none" stroke="#666666" points="0,-131 0,-191 166,-191 166,-131 0,-131"/>
</a>
</g>
</g>
<!-- Node1&#45;&gt;Node2 -->
<g id="edge1" class="edge">
<title>Node1&#45;&gt;Node2</title>
<path fill="none" stroke="orange" d="M174.3,-249.39C154.89,-242.44 135.03,-232.93 119,-220 109.5,-212.34 101.81,-201.45 96.02,-191.18"/>
<polygon fill="orange" stroke="orange" points="173.17,-252.71 183.77,-252.6 175.42,-246.08 173.17,-252.71"/>
<text text-anchor="middle" x="183" y="-212" font-family="Helvetica,sans-Serif" font-size="10.00" fill="grey"> &lt; mbed::gpio::PwmOut &gt;</text>
</g>
<!-- Node3 -->
<g id="node3" class="node">
<title>Node3</title>
<g id="a_node3"><a xlink:href="classalps_1_1cmn_1_1gpio_1_1_i_pwm_set_period.html" target="_top" xlink:title=" ">
<polygon fill="white" stroke="transparent" points="318,-191 184,-191 184,-131 318,-131 318,-191"/>
<text text-anchor="start" x="189" y="-179" font-family="Helvetica,sans-Serif" font-size="10.00">alps::cmn::gpio::IPwmSet</text>
<text text-anchor="start" x="203.5" y="-168" font-family="Helvetica,sans-Serif" font-size="10.00">Period&lt; PwmOut &gt;</text>
<text text-anchor="start" x="247.5" y="-153" font-family="Helvetica,sans-Serif" font-size="10.00"> </text>
<text text-anchor="start" x="198" y="-138" font-family="Helvetica,sans-Serif" font-size="10.00">+</text>
<text text-anchor="start" x="221" y="-138" font-family="Helvetica,sans-Serif" font-size="10.00">CallSetPeriod()</text>
<polygon fill="#666666" stroke="#666666" points="184,-163 184,-163 318,-163 318,-163 184,-163"/>
<polygon fill="#666666" stroke="#666666" points="184,-148 184,-148 318,-148 318,-148 184,-148"/>
<polygon fill="none" stroke="#666666" points="184,-131 184,-191 318,-191 318,-131 184,-131"/>
</a>
</g>
</g>
<!-- Node1&#45;&gt;Node3 -->
<g id="edge2" class="edge">
<title>Node1&#45;&gt;Node3</title>
<path fill="none" stroke="orange" d="M251,-227.46C251,-215.39 251,-202.34 251,-191.09"/>
<polygon fill="orange" stroke="orange" points="247.5,-227.75 251,-237.75 254.5,-227.75 247.5,-227.75"/>
<text text-anchor="middle" x="284.5" y="-212" font-family="Helvetica,sans-Serif" font-size="10.00" fill="grey"> &lt; PwmOut &gt;</text>
</g>
<!-- Node5 -->
<g id="node5" class="node">
<title>Node5</title>
<g id="a_node5"><a xlink:href="classalps_1_1cmn_1_1gpio_1_1_i_pwm_set_period.html" target="_top" xlink:title=" ">
<polygon fill="white" stroke="transparent" points="470,-191 336,-191 336,-131 470,-131 470,-191"/>
<text text-anchor="start" x="341" y="-179" font-family="Helvetica,sans-Serif" font-size="10.00">alps::cmn::gpio::IPwmSet</text>
<text text-anchor="start" x="341" y="-168" font-family="Helvetica,sans-Serif" font-size="10.00">Period&lt; PwmSetPeriod &gt;</text>
<text text-anchor="start" x="399.5" y="-153" font-family="Helvetica,sans-Serif" font-size="10.00"> </text>
<text text-anchor="start" x="350" y="-138" font-family="Helvetica,sans-Serif" font-size="10.00">+</text>
<text text-anchor="start" x="373" y="-138" font-family="Helvetica,sans-Serif" font-size="10.00">CallSetPeriod()</text>
<polygon fill="#666666" stroke="#666666" points="336,-163 336,-163 470,-163 470,-163 336,-163"/>
<polygon fill="#666666" stroke="#666666" points="336,-148 336,-148 470,-148 470,-148 336,-148"/>
<polygon fill="none" stroke="#666666" points="336,-131 336,-191 470,-191 470,-131 336,-131"/>
</a>
</g>
</g>
<!-- Node1&#45;&gt;Node5 -->
<g id="edge4" class="edge">
<title>Node1&#45;&gt;Node5</title>
<path fill="none" stroke="orange" d="M303.83,-232.34C309.98,-228.21 316.14,-224.03 322,-220 335.39,-210.78 349.87,-200.51 362.83,-191.2"/>
<polygon fill="orange" stroke="orange" points="301.85,-229.45 295.48,-237.92 305.74,-235.27 301.85,-229.45"/>
<text text-anchor="middle" x="385.5" y="-212" font-family="Helvetica,sans-Serif" font-size="10.00" fill="grey"> &lt; PwmSetPeriod &gt;</text>
</g>
<!-- Node4 -->
<g id="node4" class="node">
<title>Node4</title>
<g id="a_node4"><a xlink:href="classalps_1_1mbed_1_1gpio_1_1_pwm_out.html" target="_top" xlink:title="PWM出力ピン">
<polygon fill="white" stroke="transparent" points="320.5,-94 181.5,-94 181.5,0 320.5,0 320.5,-94"/>
<text text-anchor="start" x="187" y="-82" font-family="Helvetica,sans-Serif" font-size="10.00">alps::mbed::gpio::PwmOut</text>
<text text-anchor="start" x="248" y="-67" font-family="Helvetica,sans-Serif" font-size="10.00"> </text>
<text text-anchor="start" x="195.5" y="-52" font-family="Helvetica,sans-Serif" font-size="10.00">+</text>
<text text-anchor="start" x="218" y="-52" font-family="Helvetica,sans-Serif" font-size="10.00">PwmOut()</text>
<text text-anchor="start" x="195.5" y="-37" font-family="Helvetica,sans-Serif" font-size="10.00">+</text>
<text text-anchor="start" x="218" y="-37" font-family="Helvetica,sans-Serif" font-size="10.00">Write()</text>
<text text-anchor="start" x="195.5" y="-22" font-family="Helvetica,sans-Serif" font-size="10.00">+</text>
<text text-anchor="start" x="218" y="-22" font-family="Helvetica,sans-Serif" font-size="10.00">SetPeriod()</text>
<text text-anchor="start" x="195.5" y="-7" font-family="Helvetica,sans-Serif" font-size="10.00">+</text>
<text text-anchor="start" x="218" y="-7" font-family="Helvetica,sans-Serif" font-size="10.00">SetPulseWidth()</text>
<polygon fill="#666666" stroke="#666666" points="182,-77 182,-77 321,-77 321,-77 182,-77"/>
<polygon fill="#666666" stroke="#666666" points="182,-62 182,-62 321,-62 321,-62 182,-62"/>
<polygon fill="none" stroke="#666666" points="181.5,0 181.5,-94 320.5,-94 320.5,0 181.5,0"/>
</a>
</g>
</g>
<!-- Node3&#45;&gt;Node4 -->
<g id="edge3" class="edge">
<title>Node3&#45;&gt;Node4</title>
<path fill="none" stroke="#63b8ff" d="M251,-120.79C251,-112.25 251,-103.13 251,-94.35"/>
<polygon fill="none" stroke="#63b8ff" points="247.5,-120.87 251,-130.87 254.5,-120.87 247.5,-120.87"/>
</g>
</g>
</svg>
