<?xml version="1.0" encoding="UTF-8" standalone="no"?>
<!DOCTYPE svg PUBLIC "-//W3C//DTD SVG 1.1//EN"
 "http://www.w3.org/Graphics/SVG/1.1/DTD/svg11.dtd">
<!-- Generated by graphviz version 2.43.0 (0)
 -->
<!-- Title: alps::cmn::actuator::RobomasMotor Pages: 1 -->
<svg width="360pt" height="303pt"
 viewBox="0.00 0.00 359.50 303.00" xmlns="http://www.w3.org/2000/svg" xmlns:xlink="http://www.w3.org/1999/xlink">
<g id="graph0" class="graph" transform="scale(1 1) rotate(0) translate(4 299)">
<title>alps::cmn::actuator::RobomasMotor</title>
<polygon fill="white" stroke="transparent" points="-4,4 -4,-299 355.5,-299 355.5,4 -4,4"/>
<!-- Node1 -->
<g id="node1" class="node">
<title>Node1</title>
<g id="a_node1"><a xlink:title="ロボマスモータのクラス．RobomasMotorsCanPortに登録して使用する．">
<polygon fill="#bfbfbf" stroke="black" points="91.5,-0.5 91.5,-189.5 243.5,-189.5 243.5,-0.5 91.5,-0.5"/>
<text text-anchor="start" x="99.5" y="-177.5" font-family="Helvetica,sans-Serif" font-size="10.00">alps::cmn::actuator</text>
<text text-anchor="middle" x="167.5" y="-166.5" font-family="Helvetica,sans-Serif" font-size="10.00">::RobomasMotor</text>
<polyline fill="none" stroke="black" points="91.5,-159.5 243.5,-159.5 "/>
<text text-anchor="start" x="99.5" y="-147.5" font-family="Helvetica,sans-Serif" font-size="10.00">+ kOutputCanIds</text>
<text text-anchor="start" x="99.5" y="-136.5" font-family="Helvetica,sans-Serif" font-size="10.00">+ kMaxAbsPowerM2006</text>
<text text-anchor="start" x="99.5" y="-125.5" font-family="Helvetica,sans-Serif" font-size="10.00">+ kMaxAbsPowerM3508</text>
<text text-anchor="start" x="99.5" y="-114.5" font-family="Helvetica,sans-Serif" font-size="10.00">+ kGearRatioM2006</text>
<text text-anchor="start" x="99.5" y="-103.5" font-family="Helvetica,sans-Serif" font-size="10.00">+ kGearRatioM3508</text>
<polyline fill="none" stroke="black" points="91.5,-96.5 243.5,-96.5 "/>
<text text-anchor="start" x="99.5" y="-84.5" font-family="Helvetica,sans-Serif" font-size="10.00">+ RobomasMotor()</text>
<text text-anchor="start" x="99.5" y="-73.5" font-family="Helvetica,sans-Serif" font-size="10.00">+ Drive()</text>
<text text-anchor="start" x="99.5" y="-62.5" font-family="Helvetica,sans-Serif" font-size="10.00">+ GetTargetCurrent()</text>
<text text-anchor="start" x="99.5" y="-51.5" font-family="Helvetica,sans-Serif" font-size="10.00">+ OnReceiveSensorFrame()</text>
<text text-anchor="start" x="99.5" y="-40.5" font-family="Helvetica,sans-Serif" font-size="10.00">+ GetAngle()</text>
<text text-anchor="start" x="99.5" y="-29.5" font-family="Helvetica,sans-Serif" font-size="10.00">+ GetVelocity()</text>
<text text-anchor="start" x="99.5" y="-18.5" font-family="Helvetica,sans-Serif" font-size="10.00">+ GetRealCurrent()</text>
<text text-anchor="start" x="99.5" y="-7.5" font-family="Helvetica,sans-Serif" font-size="10.00">+ ResetAngle()</text>
</a>
</g>
</g>
<!-- Node2 -->
<g id="node2" class="node">
<title>Node2</title>
<g id="a_node2"><a xlink:href="classalps_1_1cmn_1_1actuator_1_1_i_motor.html" target="_top" xlink:title=" ">
<polygon fill="white" stroke="black" points="0,-226.5 0,-294.5 151,-294.5 151,-226.5 0,-226.5"/>
<text text-anchor="start" x="8" y="-282.5" font-family="Helvetica,sans-Serif" font-size="10.00">alps::cmn::actuator</text>
<text text-anchor="middle" x="75.5" y="-271.5" font-family="Helvetica,sans-Serif" font-size="10.00">::IMotor&lt; RobomasMotor &gt;</text>
<polyline fill="none" stroke="black" points="0,-264.5 151,-264.5 "/>
<text text-anchor="middle" x="75.5" y="-252.5" font-family="Helvetica,sans-Serif" font-size="10.00"> </text>
<polyline fill="none" stroke="black" points="0,-245.5 151,-245.5 "/>
<text text-anchor="start" x="8" y="-233.5" font-family="Helvetica,sans-Serif" font-size="10.00">+ CallDrive()</text>
</a>
</g>
</g>
<!-- Node2&#45;&gt;Node1 -->
<g id="edge1" class="edge">
<title>Node2&#45;&gt;Node1</title>
<path fill="none" stroke="midnightblue" d="M99.06,-217.63C103.97,-208.9 109.34,-199.37 114.83,-189.6"/>
<polygon fill="none" stroke="midnightblue" points="95.97,-215.98 94.12,-226.41 102.07,-219.41 95.97,-215.98"/>
</g>
<!-- Node3 -->
<g id="node3" class="node">
<title>Node3</title>
<g id="a_node3"><a xlink:href="classalps_1_1cmn_1_1sensor_1_1_i_rotary_sensor.html" target="_top" xlink:title=" ">
<polygon fill="white" stroke="black" points="169.5,-226.5 169.5,-294.5 351.5,-294.5 351.5,-226.5 169.5,-226.5"/>
<text text-anchor="start" x="177.5" y="-282.5" font-family="Helvetica,sans-Serif" font-size="10.00">alps::cmn::sensor::</text>
<text text-anchor="middle" x="260.5" y="-271.5" font-family="Helvetica,sans-Serif" font-size="10.00">IRotarySensor&lt; RobomasMotor &gt;</text>
<polyline fill="none" stroke="black" points="169.5,-264.5 351.5,-264.5 "/>
<text text-anchor="middle" x="260.5" y="-252.5" font-family="Helvetica,sans-Serif" font-size="10.00"> </text>
<polyline fill="none" stroke="black" points="169.5,-245.5 351.5,-245.5 "/>
<text text-anchor="start" x="177.5" y="-233.5" font-family="Helvetica,sans-Serif" font-size="10.00">+ CallGetAngle()</text>
</a>
</g>
</g>
<!-- Node3&#45;&gt;Node1 -->
<g id="edge2" class="edge">
<title>Node3&#45;&gt;Node1</title>
<path fill="none" stroke="midnightblue" d="M236.68,-217.63C231.72,-208.9 226.3,-199.37 220.74,-189.6"/>
<polygon fill="none" stroke="midnightblue" points="233.69,-219.45 241.68,-226.41 239.78,-215.99 233.69,-219.45"/>
</g>
</g>
</svg>
