<?xml version="1.0" encoding="UTF-8" standalone="no"?>
<!DOCTYPE svg PUBLIC "-//W3C//DTD SVG 1.1//EN"
 "http://www.w3.org/Graphics/SVG/1.1/DTD/svg11.dtd">
<!-- Generated by graphviz version 2.43.0 (0)
 -->
<!-- Title: alps::mbed::gpio::InterruptIn Pages: 1 -->
<svg width="288pt" height="198pt"
 viewBox="0.00 0.00 288.00 198.00" xmlns="http://www.w3.org/2000/svg" xmlns:xlink="http://www.w3.org/1999/xlink">
<g id="graph0" class="graph" transform="scale(1 1) rotate(0) translate(4 194)">
<title>alps::mbed::gpio::InterruptIn</title>
<!-- Node1 -->
<g id="node1" class="node">
<title>Node1</title>
<g id="a_node1"><a xlink:title="割り込み入力ピン">
<polygon fill="#999999" stroke="transparent" points="216.5,-94 67.5,-94 67.5,0 216.5,0 216.5,-94"/>
<text text-anchor="start" x="73" y="-82" font-family="Helvetica,sans-Serif" font-size="10.00">alps::mbed::gpio::InterruptIn</text>
<text text-anchor="start" x="139" y="-67" font-family="Helvetica,sans-Serif" font-size="10.00"> </text>
<text text-anchor="start" x="83.5" y="-52" font-family="Helvetica,sans-Serif" font-size="10.00">+</text>
<text text-anchor="start" x="108" y="-52" font-family="Helvetica,sans-Serif" font-size="10.00">InterruptIn()</text>
<text text-anchor="start" x="83.5" y="-37" font-family="Helvetica,sans-Serif" font-size="10.00">+</text>
<text text-anchor="start" x="108" y="-37" font-family="Helvetica,sans-Serif" font-size="10.00">AttachInterrupt()</text>
<text text-anchor="start" x="83.5" y="-22" font-family="Helvetica,sans-Serif" font-size="10.00">+</text>
<text text-anchor="start" x="108" y="-22" font-family="Helvetica,sans-Serif" font-size="10.00">Read()</text>
<text text-anchor="start" x="83.5" y="-7" font-family="Helvetica,sans-Serif" font-size="10.00">+</text>
<text text-anchor="start" x="108" y="-7" font-family="Helvetica,sans-Serif" font-size="10.00">~InterruptIn()</text>
<polygon fill="#666666" stroke="#666666" points="68,-77 68,-77 217,-77 217,-77 68,-77"/>
<polygon fill="#666666" stroke="#666666" points="68,-62 68,-62 217,-62 217,-62 68,-62"/>
<polygon fill="none" stroke="#666666" points="67.5,0 67.5,-94 216.5,-94 216.5,0 67.5,0"/>
</a>
</g>
</g>
<!-- Node2 -->
<g id="node2" class="node">
<title>Node2</title>
<g id="a_node2"><a xlink:href="classalps_1_1cmn_1_1gpio_1_1_i_interrupt_in.html" target="_top" xlink:title=" ">
<polygon fill="white" stroke="transparent" points="136,-190 0,-190 0,-130 136,-130 136,-190"/>
<text text-anchor="start" x="5" y="-178" font-family="Helvetica,sans-Serif" font-size="10.00">alps::cmn::gpio::IInterrupt</text>
<text text-anchor="start" x="26.5" y="-167" font-family="Helvetica,sans-Serif" font-size="10.00">In&lt; InterruptIn &gt;</text>
<text text-anchor="start" x="64.5" y="-152" font-family="Helvetica,sans-Serif" font-size="10.00"> </text>
<text text-anchor="start" x="7.5" y="-137" font-family="Helvetica,sans-Serif" font-size="10.00">+</text>
<text text-anchor="start" x="24" y="-137" font-family="Helvetica,sans-Serif" font-size="10.00">CallAttachInterrupt()</text>
<polygon fill="#666666" stroke="#666666" points="0,-162 0,-162 136,-162 136,-162 0,-162"/>
<polygon fill="#666666" stroke="#666666" points="0,-147 0,-147 136,-147 136,-147 0,-147"/>
<polygon fill="none" stroke="#666666" points="0,-130 0,-190 136,-190 136,-130 0,-130"/>
</a>
</g>
</g>
<!-- Node2&#45;&gt;Node1 -->
<g id="edge1" class="edge">
<title>Node2&#45;&gt;Node1</title>
<path fill="none" stroke="#63b8ff" d="M93.1,-121.35C98.93,-112.61 105.2,-103.21 111.24,-94.14"/>
<polygon fill="none" stroke="#63b8ff" points="90.08,-119.57 87.44,-129.84 95.9,-123.46 90.08,-119.57"/>
</g>
<!-- Node3 -->
<g id="node3" class="node">
<title>Node3</title>
<g id="a_node3"><a xlink:href="classalps_1_1cmn_1_1gpio_1_1_i_digital_in.html" target="_top" xlink:title=" ">
<polygon fill="white" stroke="transparent" points="280,-190 154,-190 154,-130 280,-130 280,-190"/>
<text text-anchor="start" x="159" y="-178" font-family="Helvetica,sans-Serif" font-size="10.00">alps::cmn::gpio::IDigital</text>
<text text-anchor="start" x="175.5" y="-167" font-family="Helvetica,sans-Serif" font-size="10.00">In&lt; InterruptIn &gt;</text>
<text text-anchor="start" x="213.5" y="-152" font-family="Helvetica,sans-Serif" font-size="10.00"> </text>
<text text-anchor="start" x="171" y="-137" font-family="Helvetica,sans-Serif" font-size="10.00">+</text>
<text text-anchor="start" x="197" y="-137" font-family="Helvetica,sans-Serif" font-size="10.00">CallRead()</text>
<polygon fill="#666666" stroke="#666666" points="154,-162 154,-162 280,-162 280,-162 154,-162"/>
<polygon fill="#666666" stroke="#666666" points="154,-147 154,-147 280,-147 280,-147 154,-147"/>
<polygon fill="none" stroke="#666666" points="154,-130 154,-190 280,-190 280,-130 154,-130"/>
</a>
</g>
</g>
<!-- Node3&#45;&gt;Node1 -->
<g id="edge2" class="edge">
<title>Node3&#45;&gt;Node1</title>
<path fill="none" stroke="#63b8ff" d="M191.56,-121.35C185.65,-112.61 179.3,-103.21 173.18,-94.14"/>
<polygon fill="none" stroke="#63b8ff" points="188.8,-123.51 197.29,-129.84 194.6,-119.59 188.8,-123.51"/>
</g>
</g>
</svg>
