<?xml version="1.0" encoding="UTF-8" standalone="no"?>
<!DOCTYPE svg PUBLIC "-//W3C//DTD SVG 1.1//EN"
 "http://www.w3.org/Graphics/SVG/1.1/DTD/svg11.dtd">
<!-- Generated by graphviz version 2.43.0 (0)
 -->
<!-- Title: alps::cmn::control::Dob Pages: 1 -->
<svg width="264pt" height="457pt"
 viewBox="0.00 0.00 264.00 457.00" xmlns="http://www.w3.org/2000/svg" xmlns:xlink="http://www.w3.org/1999/xlink">
<g id="graph0" class="graph" transform="scale(1 1) rotate(0) translate(4 453)">
<title>alps::cmn::control::Dob</title>
<!-- Node1 -->
<g id="node1" class="node">
<title>Node1</title>
<g id="a_node1"><a xlink:title="外乱オブザーバー">
<polygon fill="#999999" stroke="transparent" points="206.5,-214 48.5,-214 48.5,0 206.5,0 206.5,-214"/>
<text text-anchor="start" x="71" y="-202" font-family="Helvetica,sans-Serif" font-size="10.00">alps::cmn::control::Dob</text>
<text text-anchor="start" x="124" y="-187" font-family="Helvetica,sans-Serif" font-size="10.00"> </text>
<text text-anchor="start" x="52.5" y="-172" font-family="Helvetica,sans-Serif" font-size="10.00">+</text>
<text text-anchor="start" x="65.5" y="-172" font-family="Helvetica,sans-Serif" font-size="10.00">Dob()</text>
<text text-anchor="start" x="52.5" y="-157" font-family="Helvetica,sans-Serif" font-size="10.00">+</text>
<text text-anchor="start" x="65.5" y="-157" font-family="Helvetica,sans-Serif" font-size="10.00">getCoeff_a_()</text>
<text text-anchor="start" x="52.5" y="-142" font-family="Helvetica,sans-Serif" font-size="10.00">+</text>
<text text-anchor="start" x="65.5" y="-142" font-family="Helvetica,sans-Serif" font-size="10.00">getCoeff_b_()</text>
<text text-anchor="start" x="52.5" y="-127" font-family="Helvetica,sans-Serif" font-size="10.00">+</text>
<text text-anchor="start" x="65.5" y="-127" font-family="Helvetica,sans-Serif" font-size="10.00">getCoeff_c_()</text>
<text text-anchor="start" x="52.5" y="-112" font-family="Helvetica,sans-Serif" font-size="10.00">+</text>
<text text-anchor="start" x="65.5" y="-112" font-family="Helvetica,sans-Serif" font-size="10.00">getPidOutput_()</text>
<text text-anchor="start" x="52.5" y="-97" font-family="Helvetica,sans-Serif" font-size="10.00">+</text>
<text text-anchor="start" x="65.5" y="-97" font-family="Helvetica,sans-Serif" font-size="10.00">getLpfOutput_()</text>
<text text-anchor="start" x="52.5" y="-82" font-family="Helvetica,sans-Serif" font-size="10.00">+</text>
<text text-anchor="start" x="65.5" y="-82" font-family="Helvetica,sans-Serif" font-size="10.00">getDobOutput_()</text>
<text text-anchor="start" x="52.5" y="-67" font-family="Helvetica,sans-Serif" font-size="10.00">+</text>
<text text-anchor="start" x="65.5" y="-67" font-family="Helvetica,sans-Serif" font-size="10.00">getEstimatedDisturbance_()</text>
<text text-anchor="start" x="52.5" y="-52" font-family="Helvetica,sans-Serif" font-size="10.00">+</text>
<text text-anchor="start" x="65.5" y="-52" font-family="Helvetica,sans-Serif" font-size="10.00">setLimitOutput()</text>
<text text-anchor="start" x="52.5" y="-37" font-family="Helvetica,sans-Serif" font-size="10.00">+</text>
<text text-anchor="start" x="65.5" y="-37" font-family="Helvetica,sans-Serif" font-size="10.00">Reset()</text>
<text text-anchor="start" x="52.5" y="-22" font-family="Helvetica,sans-Serif" font-size="10.00">+</text>
<text text-anchor="start" x="65.5" y="-22" font-family="Helvetica,sans-Serif" font-size="10.00">Filter()</text>
<text text-anchor="start" x="52.5" y="-7" font-family="Helvetica,sans-Serif" font-size="10.00">+</text>
<text text-anchor="start" x="65.5" y="-7" font-family="Helvetica,sans-Serif" font-size="10.00">Control()</text>
<polygon fill="#666666" stroke="#666666" points="48.5,-197 48.5,-197 206.5,-197 206.5,-197 48.5,-197"/>
<polygon fill="#666666" stroke="#666666" points="48.5,-182 48.5,-182 206.5,-182 206.5,-182 48.5,-182"/>
<polygon fill="none" stroke="#666666" points="48.5,0 48.5,-214 206.5,-214 206.5,0 48.5,0"/>
</a>
</g>
</g>
<!-- Node2 -->
<g id="node2" class="node">
<title>Node2</title>
<g id="a_node2"><a xlink:href="classalps_1_1cmn_1_1control_1_1_pid.html" target="_top" xlink:title="PID制御を行うクラス">
<polygon fill="white" stroke="transparent" points="119,-449 0,-449 0,-250 119,-250 119,-449"/>
<text text-anchor="start" x="5.5" y="-436.5" font-family="Helvetica,sans-Serif" font-size="10.00">alps::cmn::control::Pid</text>
<text text-anchor="start" x="56.5" y="-421.5" font-family="Helvetica,sans-Serif" font-size="10.00"> </text>
<text text-anchor="start" x="5.5" y="-406.5" font-family="Helvetica,sans-Serif" font-size="10.00">+</text>
<text text-anchor="start" x="19.5" y="-406.5" font-family="Helvetica,sans-Serif" font-size="10.00">Pid()</text>
<text text-anchor="start" x="5.5" y="-391.5" font-family="Helvetica,sans-Serif" font-size="10.00">+</text>
<text text-anchor="start" x="19.5" y="-391.5" font-family="Helvetica,sans-Serif" font-size="10.00">Init()</text>
<text text-anchor="start" x="5.5" y="-376.5" font-family="Helvetica,sans-Serif" font-size="10.00">+</text>
<text text-anchor="start" x="19.5" y="-376.5" font-family="Helvetica,sans-Serif" font-size="10.00">SetTarget()</text>
<text text-anchor="start" x="5.5" y="-361.5" font-family="Helvetica,sans-Serif" font-size="10.00">+</text>
<text text-anchor="start" x="19.5" y="-361.5" font-family="Helvetica,sans-Serif" font-size="10.00">SetGain()</text>
<text text-anchor="start" x="5.5" y="-346.5" font-family="Helvetica,sans-Serif" font-size="10.00">+</text>
<text text-anchor="start" x="19.5" y="-346.5" font-family="Helvetica,sans-Serif" font-size="10.00">SetEndCondition()</text>
<text text-anchor="start" x="5.5" y="-331.5" font-family="Helvetica,sans-Serif" font-size="10.00">+</text>
<text text-anchor="start" x="19.5" y="-331.5" font-family="Helvetica,sans-Serif" font-size="10.00">SetPreviousValue()</text>
<text text-anchor="start" x="5.5" y="-316.5" font-family="Helvetica,sans-Serif" font-size="10.00">+</text>
<text text-anchor="start" x="19.5" y="-316.5" font-family="Helvetica,sans-Serif" font-size="10.00">SetDiffTimeConst()</text>
<text text-anchor="start" x="5.5" y="-301.5" font-family="Helvetica,sans-Serif" font-size="10.00">+</text>
<text text-anchor="start" x="19.5" y="-301.5" font-family="Helvetica,sans-Serif" font-size="10.00">SetMaxOutput()</text>
<text text-anchor="start" x="5.5" y="-286.5" font-family="Helvetica,sans-Serif" font-size="10.00">+</text>
<text text-anchor="start" x="19.5" y="-286.5" font-family="Helvetica,sans-Serif" font-size="10.00">SetIntegralMax()</text>
<text text-anchor="start" x="5.5" y="-271.5" font-family="Helvetica,sans-Serif" font-size="10.00">+</text>
<text text-anchor="start" x="19.5" y="-271.5" font-family="Helvetica,sans-Serif" font-size="10.00">GetOutputP()</text>
<text text-anchor="start" x="19.5" y="-256.5" font-family="Helvetica,sans-Serif" font-size="10.00">ほか 6 件…</text>
<polygon fill="#666666" stroke="#666666" points="0.5,-431.5 0.5,-431.5 119.5,-431.5 119.5,-431.5 0.5,-431.5"/>
<polygon fill="#666666" stroke="#666666" points="0.5,-416.5 0.5,-416.5 119.5,-416.5 119.5,-416.5 0.5,-416.5"/>
<polygon fill="none" stroke="#666666" points="0,-250 0,-449 119,-449 119,-250 0,-250"/>
</a>
</g>
</g>
<!-- Node2&#45;&gt;Node1 -->
<g id="edge1" class="edge">
<title>Node2&#45;&gt;Node1</title>
<path fill="none" stroke="#63b8ff" d="M90.11,-240.25C92.56,-231.58 95.03,-222.83 97.48,-214.18"/>
<polygon fill="none" stroke="#63b8ff" points="86.71,-239.41 87.35,-249.99 93.44,-241.32 86.71,-239.41"/>
</g>
<!-- Node3 -->
<g id="node3" class="node">
<title>Node3</title>
<g id="a_node3"><a xlink:href="classalps_1_1cmn_1_1control_1_1_lpf.html" target="_top" xlink:title="ローパスフィルタのクラス">
<polygon fill="white" stroke="transparent" points="256,-404 137,-404 137,-295 256,-295 256,-404"/>
<text text-anchor="start" x="142.5" y="-391.5" font-family="Helvetica,sans-Serif" font-size="10.00">alps::cmn::control::Lpf</text>
<text text-anchor="start" x="193.5" y="-376.5" font-family="Helvetica,sans-Serif" font-size="10.00"> </text>
<text text-anchor="start" x="147" y="-361.5" font-family="Helvetica,sans-Serif" font-size="10.00">+</text>
<text text-anchor="start" x="165.5" y="-361.5" font-family="Helvetica,sans-Serif" font-size="10.00">Lpf()</text>
<text text-anchor="start" x="147" y="-346.5" font-family="Helvetica,sans-Serif" font-size="10.00">+</text>
<text text-anchor="start" x="165.5" y="-346.5" font-family="Helvetica,sans-Serif" font-size="10.00">SetTimeConst()</text>
<text text-anchor="start" x="147" y="-331.5" font-family="Helvetica,sans-Serif" font-size="10.00">+</text>
<text text-anchor="start" x="165.5" y="-331.5" font-family="Helvetica,sans-Serif" font-size="10.00">SetInputPrev()</text>
<text text-anchor="start" x="147" y="-316.5" font-family="Helvetica,sans-Serif" font-size="10.00">+</text>
<text text-anchor="start" x="165.5" y="-316.5" font-family="Helvetica,sans-Serif" font-size="10.00">Reset()</text>
<text text-anchor="start" x="147" y="-301.5" font-family="Helvetica,sans-Serif" font-size="10.00">+</text>
<text text-anchor="start" x="165.5" y="-301.5" font-family="Helvetica,sans-Serif" font-size="10.00">Filter()</text>
<polygon fill="#666666" stroke="#666666" points="137.5,-386.5 137.5,-386.5 256.5,-386.5 256.5,-386.5 137.5,-386.5"/>
<polygon fill="#666666" stroke="#666666" points="137.5,-371.5 137.5,-371.5 256.5,-371.5 256.5,-371.5 137.5,-371.5"/>
<polygon fill="none" stroke="#666666" points="137,-295 137,-404 256,-404 256,-295 137,-295"/>
</a>
</g>
</g>
<!-- Node3&#45;&gt;Node1 -->
<g id="edge2" class="edge">
<title>Node3&#45;&gt;Node1</title>
<path fill="none" stroke="#63b8ff" d="M178.31,-285.08C172.07,-263.36 164.92,-238.41 157.98,-214.24"/>
<polygon fill="none" stroke="#63b8ff" points="174.98,-286.18 181.1,-294.83 181.71,-284.25 174.98,-286.18"/>
</g>
</g>
</svg>
