<?xml version="1.0" encoding="UTF-8" standalone="no"?>
<!DOCTYPE svg PUBLIC "-//W3C//DTD SVG 1.1//EN"
 "http://www.w3.org/Graphics/SVG/1.1/DTD/svg11.dtd">
<!-- Generated by graphviz version 2.43.0 (0)
 -->
<!-- Title: alps::lin::communication::SocketCanIo Pages: 1 -->
<svg width="154pt" height="226pt"
 viewBox="0.00 0.00 154.00 226.00" xmlns="http://www.w3.org/2000/svg" xmlns:xlink="http://www.w3.org/1999/xlink">
<g id="graph0" class="graph" transform="scale(1 1) rotate(0) translate(4 222)">
<title>alps::lin::communication::SocketCanIo</title>
<polygon fill="white" stroke="transparent" points="-4,4 -4,-222 150,-222 150,4 -4,4"/>
<!-- Node1 -->
<g id="node1" class="node">
<title>Node1</title>
<g id="a_node1"><a xlink:title="SocketCANを用いてCAN通信を行うクラス．">
<polygon fill="#bfbfbf" stroke="black" points="4.5,-0.5 4.5,-101.5 141.5,-101.5 141.5,-0.5 4.5,-0.5"/>
<text text-anchor="start" x="12.5" y="-89.5" font-family="Helvetica,sans-Serif" font-size="10.00">alps::lin::communication</text>
<text text-anchor="middle" x="73" y="-78.5" font-family="Helvetica,sans-Serif" font-size="10.00">::SocketCanIo</text>
<polyline fill="none" stroke="black" points="4.5,-71.5 141.5,-71.5 "/>
<text text-anchor="middle" x="73" y="-59.5" font-family="Helvetica,sans-Serif" font-size="10.00"> </text>
<polyline fill="none" stroke="black" points="4.5,-52.5 141.5,-52.5 "/>
<text text-anchor="start" x="12.5" y="-40.5" font-family="Helvetica,sans-Serif" font-size="10.00">+ SocketCanIo()</text>
<text text-anchor="start" x="12.5" y="-29.5" font-family="Helvetica,sans-Serif" font-size="10.00">+ ~SocketCanIo()</text>
<text text-anchor="start" x="12.5" y="-18.5" font-family="Helvetica,sans-Serif" font-size="10.00">+ TryWrite()</text>
<text text-anchor="start" x="12.5" y="-7.5" font-family="Helvetica,sans-Serif" font-size="10.00">+ TryRead()</text>
</a>
</g>
</g>
<!-- Node2 -->
<g id="node2" class="node">
<title>Node2</title>
<g id="a_node2"><a xlink:href="classalps_1_1cmn_1_1communication_1_1_i_can_io.html" target="_top" xlink:title=" ">
<polygon fill="white" stroke="black" points="0,-138.5 0,-217.5 146,-217.5 146,-138.5 0,-138.5"/>
<text text-anchor="start" x="8" y="-205.5" font-family="Helvetica,sans-Serif" font-size="10.00">alps::cmn::communication</text>
<text text-anchor="middle" x="73" y="-194.5" font-family="Helvetica,sans-Serif" font-size="10.00">::ICanIo&lt; SocketCanIo &gt;</text>
<polyline fill="none" stroke="black" points="0,-187.5 146,-187.5 "/>
<text text-anchor="middle" x="73" y="-175.5" font-family="Helvetica,sans-Serif" font-size="10.00"> </text>
<polyline fill="none" stroke="black" points="0,-168.5 146,-168.5 "/>
<text text-anchor="start" x="8" y="-156.5" font-family="Helvetica,sans-Serif" font-size="10.00">+ CallTryRead()</text>
<text text-anchor="start" x="8" y="-145.5" font-family="Helvetica,sans-Serif" font-size="10.00">+ CallTryWrite()</text>
</a>
</g>
</g>
<!-- Node2&#45;&gt;Node1 -->
<g id="edge1" class="edge">
<title>Node2&#45;&gt;Node1</title>
<path fill="none" stroke="midnightblue" d="M73,-128.41C73,-119.64 73,-110.49 73,-101.69"/>
<polygon fill="none" stroke="midnightblue" points="69.5,-128.48 73,-138.48 76.5,-128.48 69.5,-128.48"/>
</g>
</g>
</svg>
