<?xml version="1.0" encoding="UTF-8" standalone="no"?>
<!DOCTYPE svg PUBLIC "-//W3C//DTD SVG 1.1//EN"
 "http://www.w3.org/Graphics/SVG/1.1/DTD/svg11.dtd">
<!-- Generated by graphviz version 2.43.0 (0)
 -->
<!-- Title: roblab::common_lib::ISerialIO Pages: 1 -->
<svg width="334pt" height="104pt"
 viewBox="0.00 0.00 334.00 104.00" xmlns="http://www.w3.org/2000/svg" xmlns:xlink="http://www.w3.org/1999/xlink">
<g id="graph0" class="graph" transform="scale(1 1) rotate(0) translate(4 100)">
<title>roblab::common_lib::ISerialIO</title>
<!-- Node1 -->
<g id="node1" class="node">
<title>Node1</title>
<g id="a_node1"><a xlink:title="シリアル通信を行うIO抽象インターフェース">
<polygon fill="#999999" stroke="#666666" points="218.5,-96 105.5,-96 105.5,-66 218.5,-66 218.5,-96"/>
<text text-anchor="start" x="113.5" y="-84" font-family="Helvetica,sans-Serif" font-size="10.00">roblab::common_lib</text>
<text text-anchor="middle" x="162" y="-73" font-family="Helvetica,sans-Serif" font-size="10.00">::ISerialIO</text>
</a>
</g>
</g>
<!-- Node2 -->
<g id="node2" class="node">
<title>Node2</title>
<g id="a_node2"><a xlink:href="classroblab_1_1mbed__lib_1_1_mbed_uart_serial_io.html" target="_top" xlink:title="mbedのUartシリアル通信IOクラス">
<polygon fill="white" stroke="#666666" points="152,-30 0,-30 0,0 152,0 152,-30"/>
<text text-anchor="start" x="8" y="-18" font-family="Helvetica,sans-Serif" font-size="10.00">roblab::mbed_lib::MbedUart</text>
<text text-anchor="middle" x="76" y="-7" font-family="Helvetica,sans-Serif" font-size="10.00">SerialIo</text>
</a>
</g>
</g>
<!-- Node1&#45;&gt;Node2 -->
<g id="edge1" class="edge">
<title>Node1&#45;&gt;Node2</title>
<path fill="none" stroke="#63b8ff" d="M134.79,-59.75C121.86,-50.13 106.71,-38.86 95.03,-30.16"/>
<polygon fill="#63b8ff" stroke="#63b8ff" points="132.8,-62.63 142.91,-65.8 136.98,-57.02 132.8,-62.63"/>
</g>
<!-- Node3 -->
<g id="node3" class="node">
<title>Node3</title>
<g id="a_node3"><a xlink:href="classroblab_1_1ros__lib_1_1_posix_serial_i_o.html" target="_top" xlink:title="POSIX APIを提供する環境でのUartシリアル通信IOクラス">
<polygon fill="white" stroke="#666666" points="326,-24.5 170,-24.5 170,-5.5 326,-5.5 326,-24.5"/>
<text text-anchor="middle" x="248" y="-12.5" font-family="Helvetica,sans-Serif" font-size="10.00">roblab::ros_lib::PosixSerialIO</text>
</a>
</g>
</g>
<!-- Node1&#45;&gt;Node3 -->
<g id="edge2" class="edge">
<title>Node1&#45;&gt;Node3</title>
<path fill="none" stroke="#63b8ff" d="M189.43,-59.58C205.17,-47.87 224.12,-33.77 236.12,-24.84"/>
<polygon fill="#63b8ff" stroke="#63b8ff" points="187.02,-57.02 181.09,-65.8 191.2,-62.63 187.02,-57.02"/>
</g>
</g>
</svg>
