<?xml version="1.0" encoding="UTF-8" standalone="no"?>
<!DOCTYPE svg PUBLIC "-//W3C//DTD SVG 1.1//EN"
 "http://www.w3.org/Graphics/SVG/1.1/DTD/svg11.dtd">
<!-- Generated by graphviz version 2.43.0 (0)
 -->
<!-- Title: roblab::mbed::gpio::PwmOut Pages: 1 -->
<svg width="312pt" height="146pt"
 viewBox="0.00 0.00 312.00 145.50" xmlns="http://www.w3.org/2000/svg" xmlns:xlink="http://www.w3.org/1999/xlink">
<g id="graph0" class="graph" transform="scale(1 1) rotate(0) translate(4 141.5)">
<title>roblab::mbed::gpio::PwmOut</title>
<!-- Node1 -->
<g id="node1" class="node">
<title>Node1</title>
<g id="a_node1"><a xlink:title="PWM出力ピン">
<polygon fill="#999999" stroke="#666666" points="304,-89.5 196,-89.5 196,-59.5 304,-59.5 304,-89.5"/>
<text text-anchor="start" x="204" y="-77.5" font-family="Helvetica,sans-Serif" font-size="10.00">roblab::mbed::gpio</text>
<text text-anchor="middle" x="250" y="-66.5" font-family="Helvetica,sans-Serif" font-size="10.00">::PwmOut</text>
</a>
</g>
</g>
<!-- Node2 -->
<g id="node2" class="node">
<title>Node2</title>
<g id="a_node2"><a xlink:href="classroblab_1_1common_1_1gpio_1_1_i_pwm_write.html" target="_top" xlink:title=" ">
<polygon fill="white" stroke="#666666" points="150,-137.5 10,-137.5 10,-107.5 150,-107.5 150,-137.5"/>
<text text-anchor="start" x="18" y="-125.5" font-family="Helvetica,sans-Serif" font-size="10.00">roblab::common::gpio</text>
<text text-anchor="middle" x="80" y="-114.5" font-family="Helvetica,sans-Serif" font-size="10.00">::IPwmWrite&lt; PwmOut &gt;</text>
</a>
</g>
</g>
<!-- Node2&#45;&gt;Node1 -->
<g id="edge1" class="edge">
<title>Node2&#45;&gt;Node1</title>
<path fill="none" stroke="#63b8ff" d="M143.75,-104.57C161.11,-99.61 179.77,-94.28 196.49,-89.5"/>
<polygon fill="#63b8ff" stroke="#63b8ff" points="142.35,-101.33 133.7,-107.44 144.27,-108.06 142.35,-101.33"/>
</g>
<!-- Node3 -->
<g id="node3" class="node">
<title>Node3</title>
<g id="a_node3"><a xlink:href="classroblab_1_1common_1_1gpio_1_1_i_pwm_set_period.html" target="_top" xlink:title=" ">
<polygon fill="white" stroke="#666666" points="160,-89.5 0,-89.5 0,-59.5 160,-59.5 160,-89.5"/>
<text text-anchor="start" x="8" y="-77.5" font-family="Helvetica,sans-Serif" font-size="10.00">roblab::common::gpio</text>
<text text-anchor="middle" x="80" y="-66.5" font-family="Helvetica,sans-Serif" font-size="10.00">::IPwmSetPeriod&lt; PwmOut &gt;</text>
</a>
</g>
</g>
<!-- Node3&#45;&gt;Node1 -->
<g id="edge2" class="edge">
<title>Node3&#45;&gt;Node1</title>
<path fill="none" stroke="#63b8ff" d="M170.29,-74.5C178.97,-74.5 187.58,-74.5 195.74,-74.5"/>
<polygon fill="#63b8ff" stroke="#63b8ff" points="170.08,-71 160.08,-74.5 170.08,-78 170.08,-71"/>
</g>
<!-- Node4 -->
<g id="node4" class="node">
<title>Node4</title>
<g id="a_node4"><a xlink:href="classroblab_1_1common_1_1gpio_1_1_i_pwm_set_pulse_width.html" target="_top" xlink:title=" ">
<polygon fill="white" stroke="#666666" points="144,-41 16,-41 16,0 144,0 144,-41"/>
<text text-anchor="start" x="24" y="-29" font-family="Helvetica,sans-Serif" font-size="10.00">roblab::common::gpio</text>
<text text-anchor="start" x="24" y="-18" font-family="Helvetica,sans-Serif" font-size="10.00">::IPwmSetPulseWidth&lt;</text>
<text text-anchor="middle" x="80" y="-7" font-family="Helvetica,sans-Serif" font-size="10.00"> PwmOut &gt;</text>
</a>
</g>
</g>
<!-- Node4&#45;&gt;Node1 -->
<g id="edge3" class="edge">
<title>Node4&#45;&gt;Node1</title>
<path fill="none" stroke="#63b8ff" d="M153.63,-43.84C170.07,-49.13 187.11,-54.61 202.15,-59.44"/>
<polygon fill="#63b8ff" stroke="#63b8ff" points="154.63,-40.49 144.03,-40.76 152.48,-47.15 154.63,-40.49"/>
</g>
</g>
</svg>
