<?xml version="1.0" encoding="UTF-8" standalone="no"?>
<!DOCTYPE svg PUBLIC "-//W3C//DTD SVG 1.1//EN"
 "http://www.w3.org/Graphics/SVG/1.1/DTD/svg11.dtd">
<!-- Generated by graphviz version 2.43.0 (0)
 -->
<!-- Title: alps::ros2::util::TypedParamServer&lt; T &gt; Pages: 1 -->
<svg width="163pt" height="281pt"
 viewBox="0.00 0.00 163.00 281.00" xmlns="http://www.w3.org/2000/svg" xmlns:xlink="http://www.w3.org/1999/xlink">
<g id="graph0" class="graph" transform="scale(1 1) rotate(0) translate(4 277)">
<title>alps::ros2::util::TypedParamServer&lt; T &gt;</title>
<polygon fill="white" stroke="transparent" points="-4,4 -4,-277 159,-277 159,4 -4,4"/>
<!-- Node1 -->
<g id="node1" class="node">
<title>Node1</title>
<g id="a_node1"><a xlink:title="型付きパラメーターのサーバー">
<polygon fill="#bfbfbf" stroke="black" points="2,-0.5 2,-68.5 153,-68.5 153,-0.5 2,-0.5"/>
<text text-anchor="start" x="10" y="-56.5" font-family="Helvetica,sans-Serif" font-size="10.00">alps::ros2::util::TypedParam</text>
<text text-anchor="middle" x="77.5" y="-45.5" font-family="Helvetica,sans-Serif" font-size="10.00">Server&lt; T &gt;</text>
<polyline fill="none" stroke="black" points="2,-38.5 153,-38.5 "/>
<text text-anchor="middle" x="77.5" y="-26.5" font-family="Helvetica,sans-Serif" font-size="10.00"> </text>
<polyline fill="none" stroke="black" points="2,-19.5 153,-19.5 "/>
<text text-anchor="start" x="10" y="-7.5" font-family="Helvetica,sans-Serif" font-size="10.00">+ TypedParamServer()</text>
</a>
</g>
</g>
<!-- Node2 -->
<g id="node2" class="node">
<title>Node2</title>
<g id="a_node2"><a xlink:href="classalps_1_1ros2_1_1util_1_1detail_1_1_typed_param_base.html" target="_top" xlink:title="型付きパラメーターの基底クラス">
<polygon fill="white" stroke="black" points="0,-105.5 0,-272.5 155,-272.5 155,-105.5 0,-105.5"/>
<text text-anchor="start" x="8" y="-260.5" font-family="Helvetica,sans-Serif" font-size="10.00">alps::ros2::util::detail</text>
<text text-anchor="middle" x="77.5" y="-249.5" font-family="Helvetica,sans-Serif" font-size="10.00">::TypedParamBase&lt; T &gt;</text>
<polyline fill="none" stroke="black" points="0,-242.5 155,-242.5 "/>
<text text-anchor="start" x="8" y="-230.5" font-family="Helvetica,sans-Serif" font-size="10.00"># server_node_name_</text>
<text text-anchor="start" x="8" y="-219.5" font-family="Helvetica,sans-Serif" font-size="10.00"># param_map_</text>
<text text-anchor="start" x="8" y="-208.5" font-family="Helvetica,sans-Serif" font-size="10.00"># parameters_client_</text>
<text text-anchor="start" x="8" y="-197.5" font-family="Helvetica,sans-Serif" font-size="10.00"># element_name_to_is_set_</text>
<polyline fill="none" stroke="black" points="0,-190.5 155,-190.5 "/>
<text text-anchor="start" x="8" y="-178.5" font-family="Helvetica,sans-Serif" font-size="10.00">+ SetParam()</text>
<text text-anchor="start" x="8" y="-167.5" font-family="Helvetica,sans-Serif" font-size="10.00">+ GetParam()</text>
<text text-anchor="start" x="8" y="-156.5" font-family="Helvetica,sans-Serif" font-size="10.00">+ SetOnChangeCallback()</text>
<text text-anchor="start" x="8" y="-145.5" font-family="Helvetica,sans-Serif" font-size="10.00">+ IsServerReady()</text>
<text text-anchor="start" x="8" y="-134.5" font-family="Helvetica,sans-Serif" font-size="10.00">+ GetServerNodeName()</text>
<text text-anchor="start" x="8" y="-123.5" font-family="Helvetica,sans-Serif" font-size="10.00">+ GetParamName()</text>
<text text-anchor="start" x="8" y="-112.5" font-family="Helvetica,sans-Serif" font-size="10.00"># TypedParamBase()</text>
</a>
</g>
</g>
<!-- Node2&#45;&gt;Node1 -->
<g id="edge1" class="edge">
<title>Node2&#45;&gt;Node1</title>
<path fill="none" stroke="midnightblue" d="M77.5,-94.89C77.5,-85.63 77.5,-76.72 77.5,-68.74"/>
<polygon fill="none" stroke="midnightblue" points="74,-95.06 77.5,-105.06 81,-95.06 74,-95.06"/>
</g>
</g>
</svg>
