<?xml version="1.0" encoding="UTF-8" standalone="no"?>
<!DOCTYPE svg PUBLIC "-//W3C//DTD SVG 1.1//EN"
 "http://www.w3.org/Graphics/SVG/1.1/DTD/svg11.dtd">
<!-- Generated by graphviz version 2.43.0 (0)
 -->
<!-- Title: alps::cmn::sensor::Potentiometer&lt; AnalogIn &gt; Pages: 1 -->
<svg width="174pt" height="226pt"
 viewBox="0.00 0.00 174.00 226.00" xmlns="http://www.w3.org/2000/svg" xmlns:xlink="http://www.w3.org/1999/xlink">
<g id="graph0" class="graph" transform="scale(1 1) rotate(0) translate(4 222)">
<title>alps::cmn::sensor::Potentiometer&lt; AnalogIn &gt;</title>
<polygon fill="white" stroke="transparent" points="-4,4 -4,-222 170,-222 170,4 -4,4"/>
<!-- Node1 -->
<g id="node1" class="node">
<title>Node1</title>
<g id="a_node1"><a xlink:title="ポテンショメータのクラス．">
<polygon fill="#bfbfbf" stroke="black" points="7,-0.5 7,-101.5 159,-101.5 159,-0.5 7,-0.5"/>
<text text-anchor="start" x="15" y="-89.5" font-family="Helvetica,sans-Serif" font-size="10.00">alps::cmn::sensor::</text>
<text text-anchor="middle" x="83" y="-78.5" font-family="Helvetica,sans-Serif" font-size="10.00">Potentiometer&lt; AnalogIn &gt;</text>
<polyline fill="none" stroke="black" points="7,-71.5 159,-71.5 "/>
<text text-anchor="middle" x="83" y="-59.5" font-family="Helvetica,sans-Serif" font-size="10.00"> </text>
<polyline fill="none" stroke="black" points="7,-52.5 159,-52.5 "/>
<text text-anchor="start" x="15" y="-40.5" font-family="Helvetica,sans-Serif" font-size="10.00">+ Potentiometer()</text>
<text text-anchor="start" x="15" y="-29.5" font-family="Helvetica,sans-Serif" font-size="10.00">+ GetRawValue()</text>
<text text-anchor="start" x="15" y="-18.5" font-family="Helvetica,sans-Serif" font-size="10.00">+ GetNormalizedValue()</text>
<text text-anchor="start" x="15" y="-7.5" font-family="Helvetica,sans-Serif" font-size="10.00">+ GetAngle()</text>
</a>
</g>
</g>
<!-- Node2 -->
<g id="node2" class="node">
<title>Node2</title>
<g id="a_node2"><a xlink:href="classalps_1_1cmn_1_1sensor_1_1_i_rotary_sensor.html" target="_top" xlink:title=" ">
<polygon fill="white" stroke="black" points="0,-138.5 0,-217.5 166,-217.5 166,-138.5 0,-138.5"/>
<text text-anchor="start" x="8" y="-205.5" font-family="Helvetica,sans-Serif" font-size="10.00">alps::cmn::sensor::</text>
<text text-anchor="start" x="8" y="-194.5" font-family="Helvetica,sans-Serif" font-size="10.00">IRotarySensor&lt; Potentiometer</text>
<text text-anchor="middle" x="83" y="-183.5" font-family="Helvetica,sans-Serif" font-size="10.00">&lt; AnalogIn &gt; &gt;</text>
<polyline fill="none" stroke="black" points="0,-176.5 166,-176.5 "/>
<text text-anchor="middle" x="83" y="-164.5" font-family="Helvetica,sans-Serif" font-size="10.00"> </text>
<polyline fill="none" stroke="black" points="0,-157.5 166,-157.5 "/>
<text text-anchor="start" x="8" y="-145.5" font-family="Helvetica,sans-Serif" font-size="10.00">+ CallGetAngle()</text>
</a>
</g>
</g>
<!-- Node2&#45;&gt;Node1 -->
<g id="edge1" class="edge">
<title>Node2&#45;&gt;Node1</title>
<path fill="none" stroke="midnightblue" d="M83,-128.41C83,-119.64 83,-110.49 83,-101.69"/>
<polygon fill="none" stroke="midnightblue" points="79.5,-128.48 83,-138.48 86.5,-128.48 79.5,-128.48"/>
</g>
</g>
</svg>
