<?xml version="1.0" encoding="UTF-8" standalone="no"?>
<!DOCTYPE svg PUBLIC "-//W3C//DTD SVG 1.1//EN"
 "http://www.w3.org/Graphics/SVG/1.1/DTD/svg11.dtd">
<!-- Generated by graphviz version 2.43.0 (0)
 -->
<!-- Title: alps::cmn::actuator::robomas_motor::detail::MotorBase&lt; Clock &gt; Pages: 1 -->
<svg width="294pt" height="413pt"
 viewBox="0.00 0.00 294.00 413.00" xmlns="http://www.w3.org/2000/svg" xmlns:xlink="http://www.w3.org/1999/xlink">
<g id="graph0" class="graph" transform="scale(1 1) rotate(0) translate(4 409)">
<title>alps::cmn::actuator::robomas_motor::detail::MotorBase&lt; Clock &gt;</title>
<!-- Node1 -->
<g id="node1" class="node">
<title>Node1</title>
<g id="a_node1"><a xlink:title="ロボマスモータの基底クラス．">
<polygon fill="#999999" stroke="transparent" points="214,-298 69,-298 69,-107 214,-107 214,-298"/>
<text text-anchor="start" x="83" y="-285.5" font-family="Helvetica,sans-Serif" font-size="10.00">alps::cmn::actuator</text>
<text text-anchor="start" x="83" y="-274.5" font-family="Helvetica,sans-Serif" font-size="10.00">::robomas_motor::detail</text>
<text text-anchor="start" x="87.5" y="-263.5" font-family="Helvetica,sans-Serif" font-size="10.00">::MotorBase&lt; Clock &gt;</text>
<text text-anchor="start" x="138.5" y="-248.5" font-family="Helvetica,sans-Serif" font-size="10.00"> </text>
<text text-anchor="start" x="73.5" y="-233.5" font-family="Helvetica,sans-Serif" font-size="10.00">+</text>
<text text-anchor="start" x="86.5" y="-233.5" font-family="Helvetica,sans-Serif" font-size="10.00">MotorBase()</text>
<text text-anchor="start" x="73.5" y="-218.5" font-family="Helvetica,sans-Serif" font-size="10.00">+</text>
<text text-anchor="start" x="86.5" y="-218.5" font-family="Helvetica,sans-Serif" font-size="10.00">Drive()</text>
<text text-anchor="start" x="73.5" y="-203.5" font-family="Helvetica,sans-Serif" font-size="10.00">+</text>
<text text-anchor="start" x="86.5" y="-203.5" font-family="Helvetica,sans-Serif" font-size="10.00">GetTargetCurrent()</text>
<text text-anchor="start" x="73.5" y="-188.5" font-family="Helvetica,sans-Serif" font-size="10.00">+</text>
<text text-anchor="start" x="86.5" y="-188.5" font-family="Helvetica,sans-Serif" font-size="10.00">OnReceiveSensorFrame()</text>
<text text-anchor="start" x="73.5" y="-173.5" font-family="Helvetica,sans-Serif" font-size="10.00">+</text>
<text text-anchor="start" x="86.5" y="-173.5" font-family="Helvetica,sans-Serif" font-size="10.00">GetAngle()</text>
<text text-anchor="start" x="73.5" y="-158.5" font-family="Helvetica,sans-Serif" font-size="10.00">+</text>
<text text-anchor="start" x="86.5" y="-158.5" font-family="Helvetica,sans-Serif" font-size="10.00">GetVelocity()</text>
<text text-anchor="start" x="73.5" y="-143.5" font-family="Helvetica,sans-Serif" font-size="10.00">+</text>
<text text-anchor="start" x="86.5" y="-143.5" font-family="Helvetica,sans-Serif" font-size="10.00">GetRealCurrent()</text>
<text text-anchor="start" x="73.5" y="-128.5" font-family="Helvetica,sans-Serif" font-size="10.00">+</text>
<text text-anchor="start" x="86.5" y="-128.5" font-family="Helvetica,sans-Serif" font-size="10.00">ResetAngle()</text>
<text text-anchor="start" x="73.5" y="-113.5" font-family="Helvetica,sans-Serif" font-size="10.00">+</text>
<text text-anchor="start" x="86.5" y="-113.5" font-family="Helvetica,sans-Serif" font-size="10.00">IsTimeout()</text>
<polygon fill="#666666" stroke="#666666" points="69.5,-258.5 69.5,-258.5 214.5,-258.5 214.5,-258.5 69.5,-258.5"/>
<polygon fill="#666666" stroke="#666666" points="69.5,-243.5 69.5,-243.5 214.5,-243.5 214.5,-243.5 69.5,-243.5"/>
<polygon fill="none" stroke="#666666" points="69,-107 69,-298 214,-298 214,-107 69,-107"/>
</a>
</g>
</g>
<!-- Node4 -->
<g id="node4" class="node">
<title>Node4</title>
<g id="a_node4"><a xlink:href="classalps_1_1cmn_1_1actuator_1_1robomas__motor_1_1_m2006.html" target="_top" xlink:title="M2006のクラス">
<polygon fill="white" stroke="transparent" points="133,-71 0,-71 0,0 133,0 133,-71"/>
<text text-anchor="start" x="5.5" y="-58.5" font-family="Helvetica,sans-Serif" font-size="10.00">alps::cmn::actuator</text>
<text text-anchor="start" x="5.5" y="-47.5" font-family="Helvetica,sans-Serif" font-size="10.00">::robomas_motor::M2006</text>
<text text-anchor="start" x="42" y="-36.5" font-family="Helvetica,sans-Serif" font-size="10.00">&lt; Clock &gt;</text>
<text text-anchor="start" x="63.5" y="-21.5" font-family="Helvetica,sans-Serif" font-size="10.00"> </text>
<text text-anchor="start" x="22" y="-6.5" font-family="Helvetica,sans-Serif" font-size="10.00">+</text>
<text text-anchor="start" x="52.5" y="-6.5" font-family="Helvetica,sans-Serif" font-size="10.00">M2006()</text>
<polygon fill="#666666" stroke="#666666" points="0.5,-31.5 0.5,-31.5 133.5,-31.5 133.5,-31.5 0.5,-31.5"/>
<polygon fill="#666666" stroke="#666666" points="0.5,-16.5 0.5,-16.5 133.5,-16.5 133.5,-16.5 0.5,-16.5"/>
<polygon fill="none" stroke="#666666" points="0,0 0,-71 133,-71 133,0 0,0"/>
</a>
</g>
</g>
<!-- Node1&#45;&gt;Node4 -->
<g id="edge3" class="edge">
<title>Node1&#45;&gt;Node4</title>
<path fill="none" stroke="#63b8ff" d="M94.38,-97.83C90.1,-88.42 86.01,-79.41 82.33,-71.33"/>
<polygon fill="none" stroke="#63b8ff" points="91.2,-99.3 98.52,-106.95 97.57,-96.4 91.2,-99.3"/>
</g>
<!-- Node5 -->
<g id="node5" class="node">
<title>Node5</title>
<g id="a_node5"><a xlink:href="classalps_1_1cmn_1_1actuator_1_1robomas__motor_1_1_m3508.html" target="_top" xlink:title="M3508のクラス">
<polygon fill="white" stroke="transparent" points="284,-71 151,-71 151,0 284,0 284,-71"/>
<text text-anchor="start" x="156.5" y="-58.5" font-family="Helvetica,sans-Serif" font-size="10.00">alps::cmn::actuator</text>
<text text-anchor="start" x="156.5" y="-47.5" font-family="Helvetica,sans-Serif" font-size="10.00">::robomas_motor::M3508</text>
<text text-anchor="start" x="193" y="-36.5" font-family="Helvetica,sans-Serif" font-size="10.00">&lt; Clock &gt;</text>
<text text-anchor="start" x="214.5" y="-21.5" font-family="Helvetica,sans-Serif" font-size="10.00"> </text>
<text text-anchor="start" x="173" y="-6.5" font-family="Helvetica,sans-Serif" font-size="10.00">+</text>
<text text-anchor="start" x="203.5" y="-6.5" font-family="Helvetica,sans-Serif" font-size="10.00">M3508()</text>
<polygon fill="#666666" stroke="#666666" points="151.5,-31.5 151.5,-31.5 284.5,-31.5 284.5,-31.5 151.5,-31.5"/>
<polygon fill="#666666" stroke="#666666" points="151.5,-16.5 151.5,-16.5 284.5,-16.5 284.5,-16.5 151.5,-16.5"/>
<polygon fill="none" stroke="#666666" points="151,0 151,-71 284,-71 284,0 151,0"/>
</a>
</g>
</g>
<!-- Node1&#45;&gt;Node5 -->
<g id="edge4" class="edge">
<title>Node1&#45;&gt;Node5</title>
<path fill="none" stroke="#63b8ff" d="M189.25,-97.83C193.58,-88.42 197.73,-79.41 201.46,-71.33"/>
<polygon fill="none" stroke="#63b8ff" points="186.05,-96.41 185.05,-106.95 192.41,-99.33 186.05,-96.41"/>
</g>
<!-- Node2 -->
<g id="node2" class="node">
<title>Node2</title>
<g id="a_node2"><a xlink:href="classalps_1_1cmn_1_1actuator_1_1_i_motor.html" target="_top" xlink:title=" ">
<polygon fill="white" stroke="transparent" points="124.5,-405 12.5,-405 12.5,-334 124.5,-334 124.5,-405"/>
<text text-anchor="start" x="17.5" y="-392.5" font-family="Helvetica,sans-Serif" font-size="10.00">alps::cmn::actuator</text>
<text text-anchor="start" x="17.5" y="-381.5" font-family="Helvetica,sans-Serif" font-size="10.00">::IMotor&lt; MotorBase</text>
<text text-anchor="start" x="38" y="-370.5" font-family="Helvetica,sans-Serif" font-size="10.00">&lt; Clock &gt; &gt;</text>
<text text-anchor="start" x="65" y="-355.5" font-family="Helvetica,sans-Serif" font-size="10.00"> </text>
<text text-anchor="start" x="26" y="-340.5" font-family="Helvetica,sans-Serif" font-size="10.00">+</text>
<text text-anchor="start" x="48.5" y="-340.5" font-family="Helvetica,sans-Serif" font-size="10.00">CallDrive()</text>
<polygon fill="#666666" stroke="#666666" points="12.5,-365.5 12.5,-365.5 124.5,-365.5 124.5,-365.5 12.5,-365.5"/>
<polygon fill="#666666" stroke="#666666" points="12.5,-350.5 12.5,-350.5 124.5,-350.5 124.5,-350.5 12.5,-350.5"/>
<polygon fill="none" stroke="#666666" points="12.5,-334 12.5,-405 124.5,-405 124.5,-334 12.5,-334"/>
</a>
</g>
</g>
<!-- Node2&#45;&gt;Node1 -->
<g id="edge1" class="edge">
<title>Node2&#45;&gt;Node1</title>
<path fill="none" stroke="#63b8ff" d="M87.95,-324.54C91.61,-316.27 95.56,-307.34 99.6,-298.2"/>
<polygon fill="none" stroke="#63b8ff" points="84.65,-323.35 83.8,-333.91 91.05,-326.18 84.65,-323.35"/>
</g>
<!-- Node3 -->
<g id="node3" class="node">
<title>Node3</title>
<g id="a_node3"><a xlink:href="classalps_1_1cmn_1_1sensor_1_1_i_rotary_sensor.html" target="_top" xlink:title=" ">
<polygon fill="white" stroke="transparent" points="286,-405 143,-405 143,-334 286,-334 286,-405"/>
<text text-anchor="start" x="148.5" y="-392.5" font-family="Helvetica,sans-Serif" font-size="10.00">alps::cmn::sensor::</text>
<text text-anchor="start" x="148.5" y="-381.5" font-family="Helvetica,sans-Serif" font-size="10.00">IRotarySensor&lt; MotorBase</text>
<text text-anchor="start" x="184.5" y="-370.5" font-family="Helvetica,sans-Serif" font-size="10.00">&lt; Clock &gt; &gt;</text>
<text text-anchor="start" x="211.5" y="-355.5" font-family="Helvetica,sans-Serif" font-size="10.00"> </text>
<text text-anchor="start" x="160" y="-340.5" font-family="Helvetica,sans-Serif" font-size="10.00">+</text>
<text text-anchor="start" x="185.5" y="-340.5" font-family="Helvetica,sans-Serif" font-size="10.00">CallGetAngle()</text>
<polygon fill="#666666" stroke="#666666" points="143.5,-365.5 143.5,-365.5 286.5,-365.5 286.5,-365.5 143.5,-365.5"/>
<polygon fill="#666666" stroke="#666666" points="143.5,-350.5 143.5,-350.5 286.5,-350.5 286.5,-350.5 143.5,-350.5"/>
<polygon fill="none" stroke="#666666" points="143,-334 143,-405 286,-405 286,-334 143,-334"/>
</a>
</g>
</g>
<!-- Node3&#45;&gt;Node1 -->
<g id="edge2" class="edge">
<title>Node3&#45;&gt;Node1</title>
<path fill="none" stroke="#63b8ff" d="M195.05,-324.54C191.39,-316.27 187.44,-307.34 183.4,-298.2"/>
<polygon fill="none" stroke="#63b8ff" points="191.95,-326.18 199.2,-333.91 198.35,-323.35 191.95,-326.18"/>
</g>
</g>
</svg>
