<?xml version="1.0" encoding="UTF-8" standalone="no"?>
<!DOCTYPE svg PUBLIC "-//W3C//DTD SVG 1.1//EN"
 "http://www.w3.org/Graphics/SVG/1.1/DTD/svg11.dtd">
<!-- Generated by graphviz version 2.43.0 (0)
 -->
<!-- Title: alps::cmn::actuator::DcMotor&lt; PwmOut, DigitalOut &gt; Pages: 1 -->
<svg width="164pt" height="201pt"
 viewBox="0.00 0.00 164.00 201.00" xmlns="http://www.w3.org/2000/svg" xmlns:xlink="http://www.w3.org/1999/xlink">
<g id="graph0" class="graph" transform="scale(1 1) rotate(0) translate(4 197)">
<title>alps::cmn::actuator::DcMotor&lt; PwmOut, DigitalOut &gt;</title>
<!-- Node1 -->
<g id="Node000001" class="node">
<title>Node1</title>
<g id="a_Node000001"><a xlink:title="PWMピンと方向指定ピンで動かすDCモーター">
<polygon fill="#999999" stroke="transparent" points="152.5,-86 3.5,-86 3.5,0 152.5,0 152.5,-86"/>
<text text-anchor="start" x="9" y="-74" font-family="Helvetica,sans-Serif" font-size="10.00">alps::cmn::actuator</text>
<text text-anchor="start" x="9" y="-63" font-family="Helvetica,sans-Serif" font-size="10.00">::DcMotor&lt; PwmOut, Digital</text>
<text text-anchor="start" x="64" y="-52" font-family="Helvetica,sans-Serif" font-size="10.00">Out &gt;</text>
<text text-anchor="start" x="76.5" y="-37" font-family="Helvetica,sans-Serif" font-size="10.00"> </text>
<text text-anchor="start" x="27.5" y="-22" font-family="Helvetica,sans-Serif" font-size="10.00">+</text>
<text text-anchor="start" x="60" y="-22" font-family="Helvetica,sans-Serif" font-size="10.00">DcMotor()</text>
<text text-anchor="start" x="27.5" y="-7" font-family="Helvetica,sans-Serif" font-size="10.00">+</text>
<text text-anchor="start" x="60" y="-7" font-family="Helvetica,sans-Serif" font-size="10.00">Drive()</text>
<polygon fill="#666666" stroke="#666666" points="4,-47 4,-47 153,-47 153,-47 4,-47"/>
<polygon fill="#666666" stroke="#666666" points="4,-32 4,-32 153,-32 153,-32 4,-32"/>
<polygon fill="none" stroke="#666666" points="3.5,0 3.5,-86 152.5,-86 152.5,0 3.5,0"/>
</a>
</g>
</g>
<!-- Node2 -->
<g id="Node000002" class="node">
<title>Node2</title>
<g id="a_Node000002"><a xlink:href="classalps_1_1cmn_1_1actuator_1_1_i_motor.html" target="_top" xlink:title=" ">
<polygon fill="white" stroke="transparent" points="156,-193 0,-193 0,-122 156,-122 156,-193"/>
<text text-anchor="start" x="5" y="-180.5" font-family="Helvetica,sans-Serif" font-size="10.00">alps::cmn::actuator</text>
<text text-anchor="start" x="5" y="-169.5" font-family="Helvetica,sans-Serif" font-size="10.00">::IMotor&lt; DcMotor&lt; PwmOut,</text>
<text text-anchor="start" x="40" y="-158.5" font-family="Helvetica,sans-Serif" font-size="10.00"> DigitalOut &gt; &gt;</text>
<text text-anchor="start" x="76" y="-143.5" font-family="Helvetica,sans-Serif" font-size="10.00"> </text>
<text text-anchor="start" x="24.5" y="-128.5" font-family="Helvetica,sans-Serif" font-size="10.00">+</text>
<text text-anchor="start" x="58" y="-128.5" font-family="Helvetica,sans-Serif" font-size="10.00">CallDrive()</text>
<polygon fill="#666666" stroke="#666666" points="0,-153.5 0,-153.5 156,-153.5 156,-153.5 0,-153.5"/>
<polygon fill="#666666" stroke="#666666" points="0,-138.5 0,-138.5 156,-138.5 156,-138.5 0,-138.5"/>
<polygon fill="none" stroke="#666666" points="0,-122 0,-193 156,-193 156,-122 0,-122"/>
</a>
</g>
</g>
<!-- Node2&#45;&gt;Node1 -->
<g id="edge1_Node000001_Node000002" class="edge">
<title>Node2&#45;&gt;Node1</title>
<g id="a_edge1_Node000001_Node000002"><a xlink:title=" ">
<path fill="none" stroke="#63b8ff" d="M78,-111.8C78,-103.39 78,-94.62 78,-86.28"/>
<polygon fill="none" stroke="#63b8ff" points="74.5,-111.83 78,-121.83 81.5,-111.83 74.5,-111.83"/>
</a>
</g>
</g>
</g>
</svg>
