<?xml version="1.0" encoding="UTF-8" standalone="no"?>
<!DOCTYPE svg PUBLIC "-//W3C//DTD SVG 1.1//EN"
 "http://www.w3.org/Graphics/SVG/1.1/DTD/svg11.dtd">
<!-- Generated by graphviz version 2.43.0 (0)
 -->
<!-- Title: roblab::common::gpio::IPwmWrite&lt; Derived &gt; Pages: 1 -->
<svg width="142pt" height="317pt"
 viewBox="0.00 0.00 142.00 317.00" xmlns="http://www.w3.org/2000/svg" xmlns:xlink="http://www.w3.org/1999/xlink">
<g id="graph0" class="graph" transform="scale(1 1) rotate(0) translate(4 313)">
<title>roblab::common::gpio::IPwmWrite&lt; Derived &gt;</title>
<!-- Node1 -->
<g id="node1" class="node">
<title>Node1</title>
<g id="a_node1"><a xlink:title="PWM出力を行うインタフェース">
<polygon fill="#999999" stroke="transparent" points="132.5,-309 1.5,-309 1.5,-249 132.5,-249 132.5,-309"/>
<text text-anchor="start" x="7" y="-297" font-family="Helvetica,sans-Serif" font-size="10.00">roblab::common::gpio</text>
<text text-anchor="start" x="7" y="-286" font-family="Helvetica,sans-Serif" font-size="10.00">::IPwmWrite&lt; Derived &gt;</text>
<text text-anchor="start" x="64" y="-271" font-family="Helvetica,sans-Serif" font-size="10.00"> </text>
<text text-anchor="start" x="25" y="-256" font-family="Helvetica,sans-Serif" font-size="10.00">+</text>
<text text-anchor="start" x="57" y="-256" font-family="Helvetica,sans-Serif" font-size="10.00">Write()</text>
<polygon fill="#666666" stroke="#666666" points="2,-281 2,-281 133,-281 133,-281 2,-281"/>
<polygon fill="#666666" stroke="#666666" points="2,-266 2,-266 133,-266 133,-266 2,-266"/>
<polygon fill="none" stroke="#666666" points="1.5,-249 1.5,-309 132.5,-309 132.5,-249 1.5,-249"/>
</a>
</g>
</g>
<!-- Node2 -->
<g id="node2" class="node">
<title>Node2</title>
<g id="a_node2"><a xlink:href="classroblab_1_1common_1_1gpio_1_1_i_pwm_write.html" target="_top" xlink:title=" ">
<polygon fill="white" stroke="transparent" points="134,-202 0,-202 0,-142 134,-142 134,-202"/>
<text text-anchor="start" x="5" y="-190" font-family="Helvetica,sans-Serif" font-size="10.00">roblab::common::gpio</text>
<text text-anchor="start" x="5" y="-179" font-family="Helvetica,sans-Serif" font-size="10.00">::IPwmWrite&lt; PwmOut &gt;</text>
<text text-anchor="start" x="63.5" y="-164" font-family="Helvetica,sans-Serif" font-size="10.00"> </text>
<text text-anchor="start" x="23.5" y="-149" font-family="Helvetica,sans-Serif" font-size="10.00">+</text>
<text text-anchor="start" x="56" y="-149" font-family="Helvetica,sans-Serif" font-size="10.00">Write()</text>
<polygon fill="#666666" stroke="#666666" points="0,-174 0,-174 134,-174 134,-174 0,-174"/>
<polygon fill="#666666" stroke="#666666" points="0,-159 0,-159 134,-159 134,-159 0,-159"/>
<polygon fill="none" stroke="#666666" points="0,-142 0,-202 134,-202 134,-142 0,-142"/>
</a>
</g>
</g>
<!-- Node1&#45;&gt;Node2 -->
<g id="edge1" class="edge">
<title>Node1&#45;&gt;Node2</title>
<path fill="none" stroke="orange" d="M67,-238.46C67,-226.39 67,-213.34 67,-202.09"/>
<polygon fill="orange" stroke="orange" points="63.5,-238.75 67,-248.75 70.5,-238.75 63.5,-238.75"/>
<text text-anchor="middle" x="100.5" y="-223" font-family="Helvetica,sans-Serif" font-size="10.00" fill="grey"> &lt; PwmOut &gt;</text>
</g>
<!-- Node3 -->
<g id="node3" class="node">
<title>Node3</title>
<g id="a_node3"><a xlink:href="classroblab_1_1mbed_1_1gpio_1_1_pwm_out.html" target="_top" xlink:title="PWM出力ピン">
<polygon fill="white" stroke="transparent" points="127.5,-105 6.5,-105 6.5,0 127.5,0 127.5,-105"/>
<text text-anchor="start" x="21.5" y="-92.5" font-family="Helvetica,sans-Serif" font-size="10.00">roblab::mbed::gpio</text>
<text text-anchor="start" x="43.5" y="-81.5" font-family="Helvetica,sans-Serif" font-size="10.00">::PwmOut</text>
<text text-anchor="start" x="64" y="-66.5" font-family="Helvetica,sans-Serif" font-size="10.00"> </text>
<text text-anchor="start" x="11" y="-51.5" font-family="Helvetica,sans-Serif" font-size="10.00">+</text>
<text text-anchor="start" x="24" y="-51.5" font-family="Helvetica,sans-Serif" font-size="10.00">PwmOut()</text>
<text text-anchor="start" x="11" y="-36.5" font-family="Helvetica,sans-Serif" font-size="10.00">+</text>
<text text-anchor="start" x="24" y="-36.5" font-family="Helvetica,sans-Serif" font-size="10.00">WriteImpl()</text>
<text text-anchor="start" x="11" y="-21.5" font-family="Helvetica,sans-Serif" font-size="10.00">+</text>
<text text-anchor="start" x="24" y="-21.5" font-family="Helvetica,sans-Serif" font-size="10.00">SetPeriodImpl()</text>
<text text-anchor="start" x="11" y="-6.5" font-family="Helvetica,sans-Serif" font-size="10.00">+</text>
<text text-anchor="start" x="24" y="-6.5" font-family="Helvetica,sans-Serif" font-size="10.00">SetPulseWidthImpl()</text>
<polygon fill="#666666" stroke="#666666" points="7,-76.5 7,-76.5 128,-76.5 128,-76.5 7,-76.5"/>
<polygon fill="#666666" stroke="#666666" points="7,-61.5 7,-61.5 128,-61.5 128,-61.5 7,-61.5"/>
<polygon fill="none" stroke="#666666" points="6.5,0 6.5,-105 127.5,-105 127.5,0 6.5,0"/>
</a>
</g>
</g>
<!-- Node2&#45;&gt;Node3 -->
<g id="edge2" class="edge">
<title>Node2&#45;&gt;Node3</title>
<path fill="none" stroke="#63b8ff" d="M67,-131.86C67,-123.28 67,-114.08 67,-105.1"/>
<polygon fill="none" stroke="#63b8ff" points="63.5,-131.96 67,-141.96 70.5,-131.96 63.5,-131.96"/>
</g>
</g>
</svg>
