<?xml version="1.0" encoding="UTF-8" standalone="no"?>
<!DOCTYPE svg PUBLIC "-//W3C//DTD SVG 1.1//EN"
 "http://www.w3.org/Graphics/SVG/1.1/DTD/svg11.dtd">
<!-- Generated by graphviz version 2.43.0 (0)
 -->
<!-- Title: roblab::common::serial::IdPacketManager&lt; ISerialIoImpl &gt; Pages: 1 -->
<svg width="196pt" height="328pt"
 viewBox="0.00 0.00 196.00 328.00" xmlns="http://www.w3.org/2000/svg" xmlns:xlink="http://www.w3.org/1999/xlink">
<g id="graph0" class="graph" transform="scale(1 1) rotate(0) translate(4 324)">
<title>roblab::common::serial::IdPacketManager&lt; ISerialIoImpl &gt;</title>
<!-- Node1 -->
<g id="node1" class="node">
<title>Node1</title>
<g id="a_node1"><a xlink:title="ID付きパケットデータを管理するクラス">
<polygon fill="#999999" stroke="transparent" points="152,-320 0,-320 0,-189 152,-189 152,-320"/>
<text text-anchor="start" x="5" y="-307.5" font-family="Helvetica,sans-Serif" font-size="10.00">roblab::common::serial</text>
<text text-anchor="start" x="5" y="-296.5" font-family="Helvetica,sans-Serif" font-size="10.00">::IdPacketManager&lt; ISerialIo</text>
<text text-anchor="start" x="59" y="-285.5" font-family="Helvetica,sans-Serif" font-size="10.00">Impl &gt;</text>
<text text-anchor="start" x="72.5" y="-270.5" font-family="Helvetica,sans-Serif" font-size="10.00"> </text>
<text text-anchor="start" x="4" y="-255.5" font-family="Helvetica,sans-Serif" font-size="10.00">+</text>
<text text-anchor="start" x="17" y="-255.5" font-family="Helvetica,sans-Serif" font-size="10.00">IdPacketManager()</text>
<text text-anchor="start" x="4" y="-240.5" font-family="Helvetica,sans-Serif" font-size="10.00">+</text>
<text text-anchor="start" x="17" y="-240.5" font-family="Helvetica,sans-Serif" font-size="10.00">RegisterSender()</text>
<text text-anchor="start" x="4" y="-225.5" font-family="Helvetica,sans-Serif" font-size="10.00">+</text>
<text text-anchor="start" x="17" y="-225.5" font-family="Helvetica,sans-Serif" font-size="10.00">RegisterReceiveCallback()</text>
<text text-anchor="start" x="4" y="-210.5" font-family="Helvetica,sans-Serif" font-size="10.00">+</text>
<text text-anchor="start" x="17" y="-210.5" font-family="Helvetica,sans-Serif" font-size="10.00">WritePacket()</text>
<text text-anchor="start" x="4" y="-195.5" font-family="Helvetica,sans-Serif" font-size="10.00">+</text>
<text text-anchor="start" x="17" y="-195.5" font-family="Helvetica,sans-Serif" font-size="10.00">ReadPacket()</text>
<polygon fill="#666666" stroke="#666666" points="0,-280.5 0,-280.5 152,-280.5 152,-280.5 0,-280.5"/>
<polygon fill="#666666" stroke="#666666" points="0,-265.5 0,-265.5 152,-265.5 152,-265.5 0,-265.5"/>
<polygon fill="none" stroke="#666666" points="0,-189 0,-320 152,-320 152,-189 0,-189"/>
</a>
</g>
</g>
<!-- Node2 -->
<g id="node2" class="node">
<title>Node2</title>
<g id="a_node2"><a xlink:href="classroblab_1_1common_1_1serial_1_1_id_packet_manager.html" target="_top" xlink:title=" ">
<polygon fill="white" stroke="transparent" points="151.5,-131 0.5,-131 0.5,0 151.5,0 151.5,-131"/>
<text text-anchor="start" x="10" y="-118.5" font-family="Helvetica,sans-Serif" font-size="10.00">roblab::common::serial</text>
<text text-anchor="start" x="10" y="-107.5" font-family="Helvetica,sans-Serif" font-size="10.00">::IdPacketManager&lt; roblab</text>
<text text-anchor="start" x="19" y="-96.5" font-family="Helvetica,sans-Serif" font-size="10.00">::mbed::serial::UartIo &gt;</text>
<text text-anchor="start" x="73" y="-81.5" font-family="Helvetica,sans-Serif" font-size="10.00"> </text>
<text text-anchor="start" x="5" y="-66.5" font-family="Helvetica,sans-Serif" font-size="10.00">+</text>
<text text-anchor="start" x="18" y="-66.5" font-family="Helvetica,sans-Serif" font-size="10.00">IdPacketManager()</text>
<text text-anchor="start" x="5" y="-51.5" font-family="Helvetica,sans-Serif" font-size="10.00">+</text>
<text text-anchor="start" x="18" y="-51.5" font-family="Helvetica,sans-Serif" font-size="10.00">RegisterSender()</text>
<text text-anchor="start" x="5" y="-36.5" font-family="Helvetica,sans-Serif" font-size="10.00">+</text>
<text text-anchor="start" x="18" y="-36.5" font-family="Helvetica,sans-Serif" font-size="10.00">RegisterReceiveCallback()</text>
<text text-anchor="start" x="5" y="-21.5" font-family="Helvetica,sans-Serif" font-size="10.00">+</text>
<text text-anchor="start" x="18" y="-21.5" font-family="Helvetica,sans-Serif" font-size="10.00">WritePacket()</text>
<text text-anchor="start" x="5" y="-6.5" font-family="Helvetica,sans-Serif" font-size="10.00">+</text>
<text text-anchor="start" x="18" y="-6.5" font-family="Helvetica,sans-Serif" font-size="10.00">ReadPacket()</text>
<polygon fill="#666666" stroke="#666666" points="1,-91.5 1,-91.5 152,-91.5 152,-91.5 1,-91.5"/>
<polygon fill="#666666" stroke="#666666" points="1,-76.5 1,-76.5 152,-76.5 152,-76.5 1,-76.5"/>
<polygon fill="none" stroke="#666666" points="0.5,0 0.5,-131 151.5,-131 151.5,0 0.5,0"/>
</a>
</g>
</g>
<!-- Node1&#45;&gt;Node2 -->
<g id="edge1" class="edge">
<title>Node1&#45;&gt;Node2</title>
<path fill="none" stroke="orange" d="M76,-178.67C76,-162.92 76,-146.45 76,-131.12"/>
<polygon fill="orange" stroke="orange" points="72.5,-178.88 76,-188.88 79.5,-178.88 72.5,-178.88"/>
<text text-anchor="start" x="76" y="-163" font-family="Helvetica,sans-Serif" font-size="10.00" fill="grey"> &lt; roblab::mbed::serial</text>
<text text-anchor="middle" x="132" y="-152" font-family="Helvetica,sans-Serif" font-size="10.00" fill="grey">::UartIo &gt;</text>
</g>
</g>
</svg>
