<?xml version="1.0" encoding="UTF-8" standalone="no"?>
<!DOCTYPE svg PUBLIC "-//W3C//DTD SVG 1.1//EN"
 "http://www.w3.org/Graphics/SVG/1.1/DTD/svg11.dtd">
<!-- Generated by graphviz version 2.43.0 (0)
 -->
<!-- Title: roblab::common::sensor::IncrementalEncoderBase&lt; IAttachInterruptImpl, IDigitalReadImpl &gt; Pages: 1 -->
<svg width="214pt" height="567pt"
 viewBox="0.00 0.00 213.50 567.00" xmlns="http://www.w3.org/2000/svg" xmlns:xlink="http://www.w3.org/1999/xlink">
<g id="graph0" class="graph" transform="scale(1 1) rotate(0) translate(4 563)">
<title>roblab::common::sensor::IncrementalEncoderBase&lt; IAttachInterruptImpl, IDigitalReadImpl &gt;</title>
<!-- Node1 -->
<g id="node1" class="node">
<title>Node1</title>
<g id="a_node1"><a xlink:title="A相B相からなるインクリメンタルエンコーダの共通実装">
<polygon fill="#999999" stroke="transparent" points="151,-559 0,-559 0,-357 151,-357 151,-559"/>
<text text-anchor="start" x="12" y="-547" font-family="Helvetica,sans-Serif" font-size="10.00">roblab::common::sensor</text>
<text text-anchor="start" x="12" y="-536" font-family="Helvetica,sans-Serif" font-size="10.00">::IncrementalEncoderBase</text>
<text text-anchor="start" x="12" y="-525" font-family="Helvetica,sans-Serif" font-size="10.00">&lt; IAttachInterruptImpl,</text>
<text text-anchor="start" x="27.5" y="-514" font-family="Helvetica,sans-Serif" font-size="10.00"> IDigitalReadImpl &gt;</text>
<text text-anchor="start" x="72.5" y="-499" font-family="Helvetica,sans-Serif" font-size="10.00"> </text>
<text text-anchor="start" x="4.5" y="-484" font-family="Helvetica,sans-Serif" font-size="10.00">+</text>
<text text-anchor="start" x="17.5" y="-484" font-family="Helvetica,sans-Serif" font-size="10.00">IncrementalEncoderBase()</text>
<text text-anchor="start" x="4.5" y="-469" font-family="Helvetica,sans-Serif" font-size="10.00">+</text>
<text text-anchor="start" x="17.5" y="-469" font-family="Helvetica,sans-Serif" font-size="10.00">Reset()</text>
<text text-anchor="start" x="4.5" y="-454" font-family="Helvetica,sans-Serif" font-size="10.00">+</text>
<text text-anchor="start" x="17.5" y="-454" font-family="Helvetica,sans-Serif" font-size="10.00">SetCurrentRad()</text>
<text text-anchor="start" x="4.5" y="-439" font-family="Helvetica,sans-Serif" font-size="10.00">+</text>
<text text-anchor="start" x="17.5" y="-439" font-family="Helvetica,sans-Serif" font-size="10.00">GetCurrentState()</text>
<text text-anchor="start" x="4.5" y="-424" font-family="Helvetica,sans-Serif" font-size="10.00">+</text>
<text text-anchor="start" x="17.5" y="-424" font-family="Helvetica,sans-Serif" font-size="10.00">GetPulses()</text>
<text text-anchor="start" x="4.5" y="-409" font-family="Helvetica,sans-Serif" font-size="10.00">+</text>
<text text-anchor="start" x="17.5" y="-409" font-family="Helvetica,sans-Serif" font-size="10.00">GetDeg()</text>
<text text-anchor="start" x="4.5" y="-394" font-family="Helvetica,sans-Serif" font-size="10.00">+</text>
<text text-anchor="start" x="17.5" y="-394" font-family="Helvetica,sans-Serif" font-size="10.00">GetRad()</text>
<text text-anchor="start" x="4.5" y="-379" font-family="Helvetica,sans-Serif" font-size="10.00">+</text>
<text text-anchor="start" x="17.5" y="-379" font-family="Helvetica,sans-Serif" font-size="10.00">GetVel()</text>
<text text-anchor="start" x="4.5" y="-364" font-family="Helvetica,sans-Serif" font-size="10.00">#</text>
<text text-anchor="start" x="17.5" y="-364" font-family="Helvetica,sans-Serif" font-size="10.00">SetInterface()</text>
<polygon fill="#666666" stroke="#666666" points="0.5,-509 0.5,-509 151.5,-509 151.5,-509 0.5,-509"/>
<polygon fill="#666666" stroke="#666666" points="0.5,-494 0.5,-494 151.5,-494 151.5,-494 0.5,-494"/>
<polygon fill="none" stroke="#666666" points="0,-357 0,-559 151,-559 151,-357 0,-357"/>
</a>
</g>
</g>
<!-- Node2 -->
<g id="node2" class="node">
<title>Node2</title>
<g id="a_node2"><a xlink:href="classroblab_1_1common_1_1sensor_1_1_incremental_encoder_base.html" target="_top" xlink:title=" ">
<polygon fill="white" stroke="transparent" points="151,-299 0,-299 0,-97 151,-97 151,-299"/>
<text text-anchor="start" x="12" y="-287" font-family="Helvetica,sans-Serif" font-size="10.00">roblab::common::sensor</text>
<text text-anchor="start" x="12" y="-276" font-family="Helvetica,sans-Serif" font-size="10.00">::IncrementalEncoderBase</text>
<text text-anchor="start" x="12" y="-265" font-family="Helvetica,sans-Serif" font-size="10.00">&lt; mbed::gpio::InterruptIn,</text>
<text text-anchor="start" x="17.5" y="-254" font-family="Helvetica,sans-Serif" font-size="10.00"> mbed::gpio::DigitalIn &gt;</text>
<text text-anchor="start" x="72.5" y="-239" font-family="Helvetica,sans-Serif" font-size="10.00"> </text>
<text text-anchor="start" x="4.5" y="-224" font-family="Helvetica,sans-Serif" font-size="10.00">+</text>
<text text-anchor="start" x="17.5" y="-224" font-family="Helvetica,sans-Serif" font-size="10.00">IncrementalEncoderBase()</text>
<text text-anchor="start" x="4.5" y="-209" font-family="Helvetica,sans-Serif" font-size="10.00">+</text>
<text text-anchor="start" x="17.5" y="-209" font-family="Helvetica,sans-Serif" font-size="10.00">Reset()</text>
<text text-anchor="start" x="4.5" y="-194" font-family="Helvetica,sans-Serif" font-size="10.00">+</text>
<text text-anchor="start" x="17.5" y="-194" font-family="Helvetica,sans-Serif" font-size="10.00">SetCurrentRad()</text>
<text text-anchor="start" x="4.5" y="-179" font-family="Helvetica,sans-Serif" font-size="10.00">+</text>
<text text-anchor="start" x="17.5" y="-179" font-family="Helvetica,sans-Serif" font-size="10.00">GetCurrentState()</text>
<text text-anchor="start" x="4.5" y="-164" font-family="Helvetica,sans-Serif" font-size="10.00">+</text>
<text text-anchor="start" x="17.5" y="-164" font-family="Helvetica,sans-Serif" font-size="10.00">GetPulses()</text>
<text text-anchor="start" x="4.5" y="-149" font-family="Helvetica,sans-Serif" font-size="10.00">+</text>
<text text-anchor="start" x="17.5" y="-149" font-family="Helvetica,sans-Serif" font-size="10.00">GetDeg()</text>
<text text-anchor="start" x="4.5" y="-134" font-family="Helvetica,sans-Serif" font-size="10.00">+</text>
<text text-anchor="start" x="17.5" y="-134" font-family="Helvetica,sans-Serif" font-size="10.00">GetRad()</text>
<text text-anchor="start" x="4.5" y="-119" font-family="Helvetica,sans-Serif" font-size="10.00">+</text>
<text text-anchor="start" x="17.5" y="-119" font-family="Helvetica,sans-Serif" font-size="10.00">GetVel()</text>
<text text-anchor="start" x="4.5" y="-104" font-family="Helvetica,sans-Serif" font-size="10.00">#</text>
<text text-anchor="start" x="17.5" y="-104" font-family="Helvetica,sans-Serif" font-size="10.00">SetInterface()</text>
<polygon fill="#666666" stroke="#666666" points="0.5,-249 0.5,-249 151.5,-249 151.5,-249 0.5,-249"/>
<polygon fill="#666666" stroke="#666666" points="0.5,-234 0.5,-234 151.5,-234 151.5,-234 0.5,-234"/>
<polygon fill="none" stroke="#666666" points="0,-97 0,-299 151,-299 151,-97 0,-97"/>
</a>
</g>
</g>
<!-- Node1&#45;&gt;Node2 -->
<g id="edge1" class="edge">
<title>Node1&#45;&gt;Node2</title>
<path fill="none" stroke="orange" d="M75.5,-346.57C75.5,-330.79 75.5,-314.63 75.5,-299.06"/>
<polygon fill="orange" stroke="orange" points="72,-346.88 75.5,-356.88 79,-346.88 72,-346.88"/>
<text text-anchor="start" x="75.5" y="-331" font-family="Helvetica,sans-Serif" font-size="10.00" fill="grey"> &lt; mbed::gpio::InterruptIn,</text>
<text text-anchor="middle" x="140.5" y="-320" font-family="Helvetica,sans-Serif" font-size="10.00" fill="grey"> mbed::gpio::DigitalIn &gt;</text>
</g>
<!-- Node3 -->
<g id="node3" class="node">
<title>Node3</title>
<g id="a_node3"><a xlink:href="classroblab_1_1mbed_1_1sensor_1_1_incremental_encoder.html" target="_top" xlink:title="A相B相からなるインクリメンタルエンコーダのmbed実装">
<polygon fill="white" stroke="transparent" points="139,-60 12,-60 12,0 139,0 139,-60"/>
<text text-anchor="start" x="24" y="-48" font-family="Helvetica,sans-Serif" font-size="10.00">roblab::mbed::sensor</text>
<text text-anchor="start" x="24" y="-37" font-family="Helvetica,sans-Serif" font-size="10.00">::IncrementalEncoder</text>
<text text-anchor="start" x="72.5" y="-22" font-family="Helvetica,sans-Serif" font-size="10.00"> </text>
<text text-anchor="start" x="16.5" y="-7" font-family="Helvetica,sans-Serif" font-size="10.00">+</text>
<text text-anchor="start" x="29.5" y="-7" font-family="Helvetica,sans-Serif" font-size="10.00">IncrementalEncoder()</text>
<polygon fill="#666666" stroke="#666666" points="12.5,-32 12.5,-32 139.5,-32 139.5,-32 12.5,-32"/>
<polygon fill="#666666" stroke="#666666" points="12.5,-17 12.5,-17 139.5,-17 139.5,-17 12.5,-17"/>
<polygon fill="none" stroke="#666666" points="12,0 12,-60 139,-60 139,0 12,0"/>
</a>
</g>
</g>
<!-- Node2&#45;&gt;Node3 -->
<g id="edge2" class="edge">
<title>Node2&#45;&gt;Node3</title>
<path fill="none" stroke="#63b8ff" d="M75.5,-86.51C75.5,-76.99 75.5,-68.01 75.5,-60.16"/>
<polygon fill="none" stroke="#63b8ff" points="72,-86.61 75.5,-96.61 79,-86.61 72,-86.61"/>
</g>
</g>
</svg>
