<?xml version="1.0" encoding="UTF-8" standalone="no"?>
<!DOCTYPE svg PUBLIC "-//W3C//DTD SVG 1.1//EN"
 "http://www.w3.org/Graphics/SVG/1.1/DTD/svg11.dtd">
<!-- Generated by graphviz version 2.43.0 (0)
 -->
<!-- Title: roblab::common_lib::Lpf Pages: 1 -->
<svg width="147pt" height="148pt"
 viewBox="0.00 0.00 147.00 148.00" xmlns="http://www.w3.org/2000/svg" xmlns:xlink="http://www.w3.org/1999/xlink">
<g id="graph0" class="graph" transform="scale(1 1) rotate(0) translate(4 144)">
<title>roblab::common_lib::Lpf</title>
<!-- Node1 -->
<g id="node1" class="node">
<title>Node1</title>
<g id="a_node1"><a xlink:title="ローパスフィルタのクラス">
<polygon fill="#999999" stroke="#666666" points="136.5,-140 2.5,-140 2.5,-121 136.5,-121 136.5,-140"/>
<text text-anchor="middle" x="69.5" y="-128" font-family="Helvetica,sans-Serif" font-size="10.00">roblab::common_lib::Lpf</text>
</a>
</g>
</g>
<!-- Node2 -->
<g id="node2" class="node">
<title>Node2</title>
<g id="a_node2"><a xlink:href="classroblab_1_1common__lib_1_1_dob.html" target="_top" xlink:title="外乱オブザーバー">
<polygon fill="white" stroke="#666666" points="139,-85 0,-85 0,-66 139,-66 139,-85"/>
<text text-anchor="middle" x="69.5" y="-73" font-family="Helvetica,sans-Serif" font-size="10.00">roblab::common_lib::Dob</text>
</a>
</g>
</g>
<!-- Node1&#45;&gt;Node2 -->
<g id="edge1" class="edge">
<title>Node1&#45;&gt;Node2</title>
<path fill="none" stroke="#63b8ff" d="M69.5,-110.66C69.5,-101.93 69.5,-91.99 69.5,-85.09"/>
<polygon fill="#63b8ff" stroke="#63b8ff" points="66,-110.75 69.5,-120.75 73,-110.75 66,-110.75"/>
</g>
<!-- Node3 -->
<g id="node3" class="node">
<title>Node3</title>
<g id="a_node3"><a xlink:href="classroblab_1_1common__lib_1_1_trapezoid_control.html" target="_top" xlink:title="台形制御クラス">
<polygon fill="white" stroke="#666666" points="126,-30 13,-30 13,0 126,0 126,-30"/>
<text text-anchor="start" x="21" y="-18" font-family="Helvetica,sans-Serif" font-size="10.00">roblab::common_lib</text>
<text text-anchor="middle" x="69.5" y="-7" font-family="Helvetica,sans-Serif" font-size="10.00">::TrapezoidControl</text>
</a>
</g>
</g>
<!-- Node2&#45;&gt;Node3 -->
<g id="edge2" class="edge">
<title>Node2&#45;&gt;Node3</title>
<path fill="none" stroke="#63b8ff" d="M69.5,-55.65C69.5,-47.36 69.5,-37.78 69.5,-30.11"/>
<polygon fill="#63b8ff" stroke="#63b8ff" points="66,-55.87 69.5,-65.87 73,-55.87 66,-55.87"/>
</g>
</g>
</svg>
