<?xml version="1.0" encoding="UTF-8" standalone="no"?>
<!DOCTYPE svg PUBLIC "-//W3C//DTD SVG 1.1//EN"
 "http://www.w3.org/Graphics/SVG/1.1/DTD/svg11.dtd">
<!-- Generated by graphviz version 2.43.0 (0)
 -->
<!-- Title: alps::cmn::actuator::RobomasMotor Pages: 1 -->
<svg width="360pt" height="336pt"
 viewBox="0.00 0.00 359.50 336.00" xmlns="http://www.w3.org/2000/svg" xmlns:xlink="http://www.w3.org/1999/xlink">
<g id="graph0" class="graph" transform="scale(1 1) rotate(0) translate(4 332)">
<title>alps::cmn::actuator::RobomasMotor</title>
<polygon fill="white" stroke="transparent" points="-4,4 -4,-332 355.5,-332 355.5,4 -4,4"/>
<!-- Node1 -->
<g id="node1" class="node">
<title>Node1</title>
<g id="a_node1"><a xlink:title="ロボマスモータのクラス">
<polygon fill="#bfbfbf" stroke="black" points="91.5,-0.5 91.5,-211.5 243.5,-211.5 243.5,-0.5 91.5,-0.5"/>
<text text-anchor="start" x="99.5" y="-199.5" font-family="Helvetica,sans-Serif" font-size="10.00">alps::cmn::actuator</text>
<text text-anchor="middle" x="167.5" y="-188.5" font-family="Helvetica,sans-Serif" font-size="10.00">::RobomasMotor</text>
<polyline fill="none" stroke="black" points="91.5,-181.5 243.5,-181.5 "/>
<text text-anchor="start" x="99.5" y="-169.5" font-family="Helvetica,sans-Serif" font-size="10.00">+ motor_id_</text>
<text text-anchor="start" x="99.5" y="-158.5" font-family="Helvetica,sans-Serif" font-size="10.00">+ kOutputCanIds</text>
<text text-anchor="start" x="99.5" y="-147.5" font-family="Helvetica,sans-Serif" font-size="10.00">+ kMaxAbsPowerM2006</text>
<text text-anchor="start" x="99.5" y="-136.5" font-family="Helvetica,sans-Serif" font-size="10.00">+ kMaxAbsPowerM3508</text>
<text text-anchor="start" x="99.5" y="-125.5" font-family="Helvetica,sans-Serif" font-size="10.00">+ kGearRatioM2006</text>
<text text-anchor="start" x="99.5" y="-114.5" font-family="Helvetica,sans-Serif" font-size="10.00">+ kGearRatioM3508</text>
<polyline fill="none" stroke="black" points="91.5,-107.5 243.5,-107.5 "/>
<text text-anchor="start" x="99.5" y="-95.5" font-family="Helvetica,sans-Serif" font-size="10.00">+ RobomasMotor()</text>
<text text-anchor="start" x="99.5" y="-84.5" font-family="Helvetica,sans-Serif" font-size="10.00">+ Drive()</text>
<text text-anchor="start" x="99.5" y="-73.5" font-family="Helvetica,sans-Serif" font-size="10.00">+ GetOutput()</text>
<text text-anchor="start" x="99.5" y="-62.5" font-family="Helvetica,sans-Serif" font-size="10.00">+ OnReceiveSensorFrame()</text>
<text text-anchor="start" x="99.5" y="-51.5" font-family="Helvetica,sans-Serif" font-size="10.00">+ GetAngle()</text>
<text text-anchor="start" x="99.5" y="-40.5" font-family="Helvetica,sans-Serif" font-size="10.00">+ GetVelocity()</text>
<text text-anchor="start" x="99.5" y="-29.5" font-family="Helvetica,sans-Serif" font-size="10.00">+ GetRealCurrent()</text>
<text text-anchor="start" x="99.5" y="-18.5" font-family="Helvetica,sans-Serif" font-size="10.00">+ ResetAngle()</text>
<text text-anchor="start" x="99.5" y="-7.5" font-family="Helvetica,sans-Serif" font-size="10.00">+ GetSensorDataCanId()</text>
</a>
</g>
</g>
<!-- Node2 -->
<g id="node2" class="node">
<title>Node2</title>
<g id="a_node2"><a xlink:href="classalps_1_1cmn_1_1actuator_1_1_i_motor.html" target="_top" xlink:title=" ">
<polygon fill="white" stroke="black" points="0,-254 0,-322 151,-322 151,-254 0,-254"/>
<text text-anchor="start" x="8" y="-310" font-family="Helvetica,sans-Serif" font-size="10.00">alps::cmn::actuator</text>
<text text-anchor="middle" x="75.5" y="-299" font-family="Helvetica,sans-Serif" font-size="10.00">::IMotor&lt; RobomasMotor &gt;</text>
<polyline fill="none" stroke="black" points="0,-292 151,-292 "/>
<text text-anchor="middle" x="75.5" y="-280" font-family="Helvetica,sans-Serif" font-size="10.00"> </text>
<polyline fill="none" stroke="black" points="0,-273 151,-273 "/>
<text text-anchor="start" x="8" y="-261" font-family="Helvetica,sans-Serif" font-size="10.00">+ CallDrive()</text>
</a>
</g>
</g>
<!-- Node2&#45;&gt;Node1 -->
<g id="edge1" class="edge">
<title>Node2&#45;&gt;Node1</title>
<path fill="none" stroke="midnightblue" d="M96.98,-244.98C102.19,-234.79 107.99,-223.44 113.96,-211.75"/>
<polygon fill="none" stroke="midnightblue" points="93.81,-243.49 92.37,-253.99 100.04,-246.67 93.81,-243.49"/>
</g>
<!-- Node3 -->
<g id="node3" class="node">
<title>Node3</title>
<g id="a_node3"><a xlink:href="classalps_1_1cmn_1_1sensor_1_1_i_rotary_sensor.html" target="_top" xlink:title=" ">
<polygon fill="white" stroke="black" points="169.5,-248.5 169.5,-327.5 351.5,-327.5 351.5,-248.5 169.5,-248.5"/>
<text text-anchor="start" x="177.5" y="-315.5" font-family="Helvetica,sans-Serif" font-size="10.00">alps::cmn::sensor::</text>
<text text-anchor="middle" x="260.5" y="-304.5" font-family="Helvetica,sans-Serif" font-size="10.00">IRotarySensor&lt; RobomasMotor &gt;</text>
<polyline fill="none" stroke="black" points="169.5,-297.5 351.5,-297.5 "/>
<text text-anchor="middle" x="260.5" y="-285.5" font-family="Helvetica,sans-Serif" font-size="10.00"> </text>
<polyline fill="none" stroke="black" points="169.5,-278.5 351.5,-278.5 "/>
<text text-anchor="start" x="177.5" y="-266.5" font-family="Helvetica,sans-Serif" font-size="10.00">+ CallGetAngle()</text>
<text text-anchor="start" x="177.5" y="-255.5" font-family="Helvetica,sans-Serif" font-size="10.00">+ CallGetVelocity()</text>
</a>
</g>
</g>
<!-- Node3&#45;&gt;Node1 -->
<g id="edge2" class="edge">
<title>Node3&#45;&gt;Node1</title>
<path fill="none" stroke="midnightblue" d="M235.84,-239.27C231.36,-230.6 226.54,-221.26 221.59,-211.69"/>
<polygon fill="none" stroke="midnightblue" points="232.85,-241.11 240.55,-248.39 239.07,-237.89 232.85,-241.11"/>
</g>
</g>
</svg>
