<?xml version="1.0" encoding="UTF-8" standalone="no"?>
<!DOCTYPE svg PUBLIC "-//W3C//DTD SVG 1.1//EN"
 "http://www.w3.org/Graphics/SVG/1.1/DTD/svg11.dtd">
<!-- Generated by graphviz version 2.43.0 (0)
 -->
<!-- Title: roblab::common::gpio::IDigitalRead&lt; Derived &gt; Pages: 1 -->
<svg width="618pt" height="328pt"
 viewBox="0.00 0.00 618.00 328.00" xmlns="http://www.w3.org/2000/svg" xmlns:xlink="http://www.w3.org/1999/xlink">
<g id="graph0" class="graph" transform="scale(1 1) rotate(0) translate(4 324)">
<title>roblab::common::gpio::IDigitalRead&lt; Derived &gt;</title>
<!-- Node1 -->
<g id="node1" class="node">
<title>Node1</title>
<g id="a_node1"><a xlink:title="デジタル入力を行うインタフェース">
<polygon fill="#999999" stroke="transparent" points="403.5,-320 266.5,-320 266.5,-260 403.5,-260 403.5,-320"/>
<text text-anchor="start" x="272" y="-308" font-family="Helvetica,sans-Serif" font-size="10.00">roblab::common::gpio</text>
<text text-anchor="start" x="272" y="-297" font-family="Helvetica,sans-Serif" font-size="10.00">::IDigitalRead&lt; Derived &gt;</text>
<text text-anchor="start" x="332" y="-282" font-family="Helvetica,sans-Serif" font-size="10.00"> </text>
<text text-anchor="start" x="291.5" y="-267" font-family="Helvetica,sans-Serif" font-size="10.00">+</text>
<text text-anchor="start" x="325" y="-267" font-family="Helvetica,sans-Serif" font-size="10.00">Read()</text>
<polygon fill="#666666" stroke="#666666" points="267,-292 267,-292 404,-292 404,-292 267,-292"/>
<polygon fill="#666666" stroke="#666666" points="267,-277 267,-277 404,-277 404,-277 267,-277"/>
<polygon fill="none" stroke="#666666" points="266.5,-260 266.5,-320 403.5,-320 403.5,-260 266.5,-260"/>
</a>
</g>
</g>
<!-- Node2 -->
<g id="node2" class="node">
<title>Node2</title>
<g id="a_node2"><a xlink:href="classroblab_1_1common_1_1gpio_1_1_i_digital_read.html" target="_top" xlink:title=" ">
<polygon fill="white" stroke="transparent" points="140,-207.5 0,-207.5 0,-147.5 140,-147.5 140,-207.5"/>
<text text-anchor="start" x="5" y="-195.5" font-family="Helvetica,sans-Serif" font-size="10.00">roblab::common::gpio</text>
<text text-anchor="start" x="5" y="-184.5" font-family="Helvetica,sans-Serif" font-size="10.00">::IDigitalRead&lt; DigitalIn &gt;</text>
<text text-anchor="start" x="66.5" y="-169.5" font-family="Helvetica,sans-Serif" font-size="10.00"> </text>
<text text-anchor="start" x="25.5" y="-154.5" font-family="Helvetica,sans-Serif" font-size="10.00">+</text>
<text text-anchor="start" x="60" y="-154.5" font-family="Helvetica,sans-Serif" font-size="10.00">Read()</text>
<polygon fill="#666666" stroke="#666666" points="0,-179.5 0,-179.5 140,-179.5 140,-179.5 0,-179.5"/>
<polygon fill="#666666" stroke="#666666" points="0,-164.5 0,-164.5 140,-164.5 140,-164.5 0,-164.5"/>
<polygon fill="none" stroke="#666666" points="0,-147.5 0,-207.5 140,-207.5 140,-147.5 0,-147.5"/>
</a>
</g>
</g>
<!-- Node1&#45;&gt;Node2 -->
<g id="edge1" class="edge">
<title>Node1&#45;&gt;Node2</title>
<path fill="none" stroke="orange" d="M256.7,-264.1C237.33,-257.4 216.76,-249.83 198,-242 173.51,-231.77 147.13,-219 124.72,-207.6"/>
<polygon fill="orange" stroke="orange" points="255.81,-267.49 266.4,-267.42 258.07,-260.87 255.81,-267.49"/>
<text text-anchor="middle" x="231.5" y="-234" font-family="Helvetica,sans-Serif" font-size="10.00" fill="grey"> &lt; DigitalIn &gt;</text>
</g>
<!-- Node4 -->
<g id="node4" class="node">
<title>Node4</title>
<g id="a_node4"><a xlink:href="classroblab_1_1common_1_1gpio_1_1_i_digital_read.html" target="_top" xlink:title=" ">
<polygon fill="white" stroke="transparent" points="308,-207.5 158,-207.5 158,-147.5 308,-147.5 308,-207.5"/>
<text text-anchor="start" x="163" y="-195.5" font-family="Helvetica,sans-Serif" font-size="10.00">roblab::common::gpio</text>
<text text-anchor="start" x="163" y="-184.5" font-family="Helvetica,sans-Serif" font-size="10.00">::IDigitalRead&lt; InterruptIn &gt;</text>
<text text-anchor="start" x="229.5" y="-169.5" font-family="Helvetica,sans-Serif" font-size="10.00"> </text>
<text text-anchor="start" x="186" y="-154.5" font-family="Helvetica,sans-Serif" font-size="10.00">+</text>
<text text-anchor="start" x="223" y="-154.5" font-family="Helvetica,sans-Serif" font-size="10.00">Read()</text>
<polygon fill="#666666" stroke="#666666" points="158,-179.5 158,-179.5 308,-179.5 308,-179.5 158,-179.5"/>
<polygon fill="#666666" stroke="#666666" points="158,-164.5 158,-164.5 308,-164.5 308,-164.5 158,-164.5"/>
<polygon fill="none" stroke="#666666" points="158,-147.5 158,-207.5 308,-207.5 308,-147.5 158,-147.5"/>
</a>
</g>
</g>
<!-- Node1&#45;&gt;Node4 -->
<g id="edge3" class="edge">
<title>Node1&#45;&gt;Node4</title>
<path fill="none" stroke="orange" d="M288.22,-253.09C284.29,-249.49 280.49,-245.76 277,-242 267.33,-231.58 258.13,-218.9 250.66,-207.62"/>
<polygon fill="orange" stroke="orange" points="286.07,-255.87 295.89,-259.87 290.71,-250.62 286.07,-255.87"/>
<text text-anchor="middle" x="315.5" y="-234" font-family="Helvetica,sans-Serif" font-size="10.00" fill="grey"> &lt; InterruptIn &gt;</text>
</g>
<!-- Node6 -->
<g id="node6" class="node">
<title>Node6</title>
<g id="a_node6"><a xlink:href="classroblab_1_1common_1_1gpio_1_1_i_digital_read.html" target="_top" xlink:title=" ">
<polygon fill="white" stroke="transparent" points="443.5,-213 326.5,-213 326.5,-142 443.5,-142 443.5,-213"/>
<text text-anchor="start" x="332" y="-200.5" font-family="Helvetica,sans-Serif" font-size="10.00">roblab::common::gpio</text>
<text text-anchor="start" x="332" y="-189.5" font-family="Helvetica,sans-Serif" font-size="10.00">::IDigitalRead&lt; mbed</text>
<text text-anchor="start" x="342.5" y="-178.5" font-family="Helvetica,sans-Serif" font-size="10.00">::gpio::DigitalIn &gt;</text>
<text text-anchor="start" x="382" y="-163.5" font-family="Helvetica,sans-Serif" font-size="10.00"> </text>
<text text-anchor="start" x="346.5" y="-148.5" font-family="Helvetica,sans-Serif" font-size="10.00">+</text>
<text text-anchor="start" x="375" y="-148.5" font-family="Helvetica,sans-Serif" font-size="10.00">Read()</text>
<polygon fill="#666666" stroke="#666666" points="327,-173.5 327,-173.5 444,-173.5 444,-173.5 327,-173.5"/>
<polygon fill="#666666" stroke="#666666" points="327,-158.5 327,-158.5 444,-158.5 444,-158.5 327,-158.5"/>
<polygon fill="none" stroke="#666666" points="326.5,-142 326.5,-213 443.5,-213 443.5,-142 326.5,-142"/>
</a>
</g>
</g>
<!-- Node1&#45;&gt;Node6 -->
<g id="edge5" class="edge">
<title>Node1&#45;&gt;Node6</title>
<path fill="none" stroke="orange" d="M352.4,-250.55C357.89,-238.42 363.92,-225.09 369.28,-213.24"/>
<polygon fill="orange" stroke="orange" points="349.07,-249.41 348.14,-259.97 355.45,-252.3 349.07,-249.41"/>
<text text-anchor="middle" x="424" y="-234" font-family="Helvetica,sans-Serif" font-size="10.00" fill="grey"> &lt; mbed::gpio::DigitalIn &gt;</text>
</g>
<!-- Node7 -->
<g id="node7" class="node">
<title>Node7</title>
<g id="a_node7"><a xlink:href="classroblab_1_1common_1_1gpio_1_1_i_digital_read.html" target="_top" xlink:title=" ">
<polygon fill="white" stroke="transparent" points="610,-213 462,-213 462,-142 610,-142 610,-213"/>
<text text-anchor="start" x="467" y="-200.5" font-family="Helvetica,sans-Serif" font-size="10.00">roblab::common::gpio</text>
<text text-anchor="start" x="467" y="-189.5" font-family="Helvetica,sans-Serif" font-size="10.00">::IDigitalRead&lt; IDigitalRead</text>
<text text-anchor="start" x="519" y="-178.5" font-family="Helvetica,sans-Serif" font-size="10.00">Impl &gt;</text>
<text text-anchor="start" x="532.5" y="-163.5" font-family="Helvetica,sans-Serif" font-size="10.00"> </text>
<text text-anchor="start" x="489.5" y="-148.5" font-family="Helvetica,sans-Serif" font-size="10.00">+</text>
<text text-anchor="start" x="526" y="-148.5" font-family="Helvetica,sans-Serif" font-size="10.00">Read()</text>
<polygon fill="#666666" stroke="#666666" points="462,-173.5 462,-173.5 610,-173.5 610,-173.5 462,-173.5"/>
<polygon fill="#666666" stroke="#666666" points="462,-158.5 462,-158.5 610,-158.5 610,-158.5 462,-158.5"/>
<polygon fill="none" stroke="#666666" points="462,-142 462,-213 610,-213 610,-142 462,-142"/>
</a>
</g>
</g>
<!-- Node1&#45;&gt;Node7 -->
<g id="edge6" class="edge">
<title>Node1&#45;&gt;Node7</title>
<path fill="none" stroke="orange" d="M413.4,-276.48C440.13,-269.49 469.03,-258.67 492,-242 502.42,-234.44 511.21,-223.62 518.13,-213.04"/>
<polygon fill="orange" stroke="orange" points="412.53,-273.09 403.66,-278.88 414.21,-279.88 412.53,-273.09"/>
<text text-anchor="middle" x="556" y="-234" font-family="Helvetica,sans-Serif" font-size="10.00" fill="grey"> &lt; IDigitalReadImpl &gt;</text>
</g>
<!-- Node3 -->
<g id="node3" class="node">
<title>Node3</title>
<g id="a_node3"><a xlink:href="classroblab_1_1mbed_1_1gpio_1_1_digital_in.html" target="_top" xlink:title="デジタル入力ピン">
<polygon fill="white" stroke="transparent" points="121,-97.5 19,-97.5 19,-7.5 121,-7.5 121,-97.5"/>
<text text-anchor="start" x="24" y="-85.5" font-family="Helvetica,sans-Serif" font-size="10.00">roblab::mbed::gpio</text>
<text text-anchor="start" x="46" y="-74.5" font-family="Helvetica,sans-Serif" font-size="10.00">::DigitalIn</text>
<text text-anchor="start" x="66.5" y="-59.5" font-family="Helvetica,sans-Serif" font-size="10.00"> </text>
<text text-anchor="start" x="28.5" y="-44.5" font-family="Helvetica,sans-Serif" font-size="10.00">+</text>
<text text-anchor="start" x="47" y="-44.5" font-family="Helvetica,sans-Serif" font-size="10.00">DigitalIn()</text>
<text text-anchor="start" x="28.5" y="-29.5" font-family="Helvetica,sans-Serif" font-size="10.00">+</text>
<text text-anchor="start" x="47" y="-29.5" font-family="Helvetica,sans-Serif" font-size="10.00">ReadImpl()</text>
<text text-anchor="start" x="28.5" y="-14.5" font-family="Helvetica,sans-Serif" font-size="10.00">+</text>
<text text-anchor="start" x="47" y="-14.5" font-family="Helvetica,sans-Serif" font-size="10.00">~DigitalIn()</text>
<polygon fill="#666666" stroke="#666666" points="19,-69.5 19,-69.5 121,-69.5 121,-69.5 19,-69.5"/>
<polygon fill="#666666" stroke="#666666" points="19,-54.5 19,-54.5 121,-54.5 121,-54.5 19,-54.5"/>
<polygon fill="none" stroke="#666666" points="19,-7.5 19,-97.5 121,-97.5 121,-7.5 19,-7.5"/>
</a>
</g>
</g>
<!-- Node2&#45;&gt;Node3 -->
<g id="edge2" class="edge">
<title>Node2&#45;&gt;Node3</title>
<path fill="none" stroke="#63b8ff" d="M70,-137.21C70,-124.67 70,-110.71 70,-97.84"/>
<polygon fill="none" stroke="#63b8ff" points="66.5,-137.35 70,-147.35 73.5,-137.35 66.5,-137.35"/>
</g>
<!-- Node5 -->
<g id="node5" class="node">
<title>Node5</title>
<g id="a_node5"><a xlink:href="classroblab_1_1mbed_1_1gpio_1_1_interrupt_in.html" target="_top" xlink:title="割り込み入力ピン">
<polygon fill="white" stroke="transparent" points="295,-105 171,-105 171,0 295,0 295,-105"/>
<text text-anchor="start" x="187" y="-92.5" font-family="Helvetica,sans-Serif" font-size="10.00">roblab::mbed::gpio</text>
<text text-anchor="start" x="204" y="-81.5" font-family="Helvetica,sans-Serif" font-size="10.00">::InterruptIn</text>
<text text-anchor="start" x="229.5" y="-66.5" font-family="Helvetica,sans-Serif" font-size="10.00"> </text>
<text text-anchor="start" x="175" y="-51.5" font-family="Helvetica,sans-Serif" font-size="10.00">+</text>
<text text-anchor="start" x="188" y="-51.5" font-family="Helvetica,sans-Serif" font-size="10.00">InterruptIn()</text>
<text text-anchor="start" x="175" y="-36.5" font-family="Helvetica,sans-Serif" font-size="10.00">+</text>
<text text-anchor="start" x="188" y="-36.5" font-family="Helvetica,sans-Serif" font-size="10.00">AttachInterruptImpl()</text>
<text text-anchor="start" x="175" y="-21.5" font-family="Helvetica,sans-Serif" font-size="10.00">+</text>
<text text-anchor="start" x="188" y="-21.5" font-family="Helvetica,sans-Serif" font-size="10.00">ReadImpl()</text>
<text text-anchor="start" x="175" y="-6.5" font-family="Helvetica,sans-Serif" font-size="10.00">+</text>
<text text-anchor="start" x="188" y="-6.5" font-family="Helvetica,sans-Serif" font-size="10.00">~InterruptIn()</text>
<polygon fill="#666666" stroke="#666666" points="171,-76.5 171,-76.5 295,-76.5 295,-76.5 171,-76.5"/>
<polygon fill="#666666" stroke="#666666" points="171,-61.5 171,-61.5 295,-61.5 295,-61.5 171,-61.5"/>
<polygon fill="none" stroke="#666666" points="171,0 171,-105 295,-105 295,0 171,0"/>
</a>
</g>
</g>
<!-- Node4&#45;&gt;Node5 -->
<g id="edge4" class="edge">
<title>Node4&#45;&gt;Node5</title>
<path fill="none" stroke="#63b8ff" d="M233,-137.12C233,-126.92 233,-115.79 233,-105.06"/>
<polygon fill="none" stroke="#63b8ff" points="229.5,-137.35 233,-147.35 236.5,-137.35 229.5,-137.35"/>
</g>
</g>
</svg>
