<?xml version="1.0" encoding="UTF-8" standalone="no"?>
<!DOCTYPE svg PUBLIC "-//W3C//DTD SVG 1.1//EN"
 "http://www.w3.org/Graphics/SVG/1.1/DTD/svg11.dtd">
<!-- Generated by graphviz version 2.43.0 (0)
 -->
<!-- Title: alps::mbed::gpio::InterruptIn Pages: 1 -->
<svg width="292pt" height="306pt"
 viewBox="0.00 0.00 292.00 306.00" xmlns="http://www.w3.org/2000/svg" xmlns:xlink="http://www.w3.org/1999/xlink">
<g id="graph0" class="graph" transform="scale(1 1) rotate(0) translate(4 302)">
<title>alps::mbed::gpio::InterruptIn</title>
<!-- Node1 -->
<g id="node1" class="node">
<title>Node1</title>
<g id="a_node1"><a xlink:title="割り込み入力ピン">
<polygon fill="#999999" stroke="transparent" points="208.5,-94 59.5,-94 59.5,0 208.5,0 208.5,-94"/>
<text text-anchor="start" x="65" y="-82" font-family="Helvetica,sans-Serif" font-size="10.00">alps::mbed::gpio::InterruptIn</text>
<text text-anchor="start" x="131" y="-67" font-family="Helvetica,sans-Serif" font-size="10.00"> </text>
<text text-anchor="start" x="75.5" y="-52" font-family="Helvetica,sans-Serif" font-size="10.00">+</text>
<text text-anchor="start" x="100" y="-52" font-family="Helvetica,sans-Serif" font-size="10.00">InterruptIn()</text>
<text text-anchor="start" x="75.5" y="-37" font-family="Helvetica,sans-Serif" font-size="10.00">+</text>
<text text-anchor="start" x="100" y="-37" font-family="Helvetica,sans-Serif" font-size="10.00">AttachInterrupt()</text>
<text text-anchor="start" x="75.5" y="-22" font-family="Helvetica,sans-Serif" font-size="10.00">+</text>
<text text-anchor="start" x="100" y="-22" font-family="Helvetica,sans-Serif" font-size="10.00">Read()</text>
<text text-anchor="start" x="75.5" y="-7" font-family="Helvetica,sans-Serif" font-size="10.00">+</text>
<text text-anchor="start" x="100" y="-7" font-family="Helvetica,sans-Serif" font-size="10.00">~InterruptIn()</text>
<polygon fill="#666666" stroke="#666666" points="60,-77 60,-77 209,-77 209,-77 60,-77"/>
<polygon fill="#666666" stroke="#666666" points="60,-62 60,-62 209,-62 209,-62 60,-62"/>
<polygon fill="none" stroke="#666666" points="59.5,0 59.5,-94 208.5,-94 208.5,0 59.5,0"/>
</a>
</g>
</g>
<!-- Node2 -->
<g id="node2" class="node">
<title>Node2</title>
<g id="a_node2"><a xlink:href="classalps_1_1cmn_1_1gpio_1_1_i_attach_interrupt.html" target="_top" xlink:title=" ">
<polygon fill="white" stroke="transparent" points="126,-191 0,-191 0,-131 126,-131 126,-191"/>
<text text-anchor="start" x="5" y="-179" font-family="Helvetica,sans-Serif" font-size="10.00">alps::cmn::gpio::IAttach</text>
<text text-anchor="start" x="5" y="-168" font-family="Helvetica,sans-Serif" font-size="10.00">Interrupt&lt; InterruptIn &gt;</text>
<text text-anchor="start" x="59.5" y="-153" font-family="Helvetica,sans-Serif" font-size="10.00"> </text>
<text text-anchor="start" x="5" y="-138" font-family="Helvetica,sans-Serif" font-size="10.00">+</text>
<text text-anchor="start" x="19" y="-138" font-family="Helvetica,sans-Serif" font-size="10.00">CallAttachInterrupt()</text>
<polygon fill="#666666" stroke="#666666" points="0,-163 0,-163 126,-163 126,-163 0,-163"/>
<polygon fill="#666666" stroke="#666666" points="0,-148 0,-148 126,-148 126,-148 0,-148"/>
<polygon fill="none" stroke="#666666" points="0,-131 0,-191 126,-191 126,-131 0,-131"/>
</a>
</g>
</g>
<!-- Node2&#45;&gt;Node1 -->
<g id="edge1" class="edge">
<title>Node2&#45;&gt;Node1</title>
<path fill="none" stroke="#63b8ff" d="M86.97,-122.19C92.63,-113.25 98.74,-103.62 104.62,-94.35"/>
<polygon fill="none" stroke="#63b8ff" points="83.87,-120.55 81.47,-130.87 89.78,-124.29 83.87,-120.55"/>
</g>
<!-- Node3 -->
<g id="node3" class="node">
<title>Node3</title>
<g id="a_node3"><a xlink:href="classalps_1_1cmn_1_1gpio_1_1_i_attach_interrupt.html" target="_top" xlink:title="割り込みを設定するインターフェース">
<polygon fill="white" stroke="transparent" points="125.5,-298 0.5,-298 0.5,-238 125.5,-238 125.5,-298"/>
<text text-anchor="start" x="6" y="-286" font-family="Helvetica,sans-Serif" font-size="10.00">alps::cmn::gpio::IAttach</text>
<text text-anchor="start" x="12" y="-275" font-family="Helvetica,sans-Serif" font-size="10.00">Interrupt&lt; Derived &gt;</text>
<text text-anchor="start" x="60" y="-260" font-family="Helvetica,sans-Serif" font-size="10.00"> </text>
<text text-anchor="start" x="6" y="-245" font-family="Helvetica,sans-Serif" font-size="10.00">+</text>
<text text-anchor="start" x="20" y="-245" font-family="Helvetica,sans-Serif" font-size="10.00">CallAttachInterrupt()</text>
<polygon fill="#666666" stroke="#666666" points="1,-270 1,-270 126,-270 126,-270 1,-270"/>
<polygon fill="#666666" stroke="#666666" points="1,-255 1,-255 126,-255 126,-255 1,-255"/>
<polygon fill="none" stroke="#666666" points="0.5,-238 0.5,-298 125.5,-298 125.5,-238 0.5,-238"/>
</a>
</g>
</g>
<!-- Node3&#45;&gt;Node2 -->
<g id="edge2" class="edge">
<title>Node3&#45;&gt;Node2</title>
<path fill="none" stroke="orange" d="M63,-227.46C63,-215.39 63,-202.34 63,-191.09"/>
<polygon fill="orange" stroke="orange" points="59.5,-227.75 63,-237.75 66.5,-227.75 59.5,-227.75"/>
<text text-anchor="middle" x="101.5" y="-212" font-family="Helvetica,sans-Serif" font-size="10.00" fill="grey"> &lt; InterruptIn &gt;</text>
</g>
<!-- Node4 -->
<g id="node4" class="node">
<title>Node4</title>
<g id="a_node4"><a xlink:href="classalps_1_1cmn_1_1gpio_1_1_i_digital_read.html" target="_top" xlink:title=" ">
<polygon fill="white" stroke="transparent" points="270,-191 144,-191 144,-131 270,-131 270,-191"/>
<text text-anchor="start" x="149" y="-179" font-family="Helvetica,sans-Serif" font-size="10.00">alps::cmn::gpio::IDigital</text>
<text text-anchor="start" x="157.5" y="-168" font-family="Helvetica,sans-Serif" font-size="10.00">Read&lt; InterruptIn &gt;</text>
<text text-anchor="start" x="203.5" y="-153" font-family="Helvetica,sans-Serif" font-size="10.00"> </text>
<text text-anchor="start" x="161" y="-138" font-family="Helvetica,sans-Serif" font-size="10.00">+</text>
<text text-anchor="start" x="187" y="-138" font-family="Helvetica,sans-Serif" font-size="10.00">CallRead()</text>
<polygon fill="#666666" stroke="#666666" points="144,-163 144,-163 270,-163 270,-163 144,-163"/>
<polygon fill="#666666" stroke="#666666" points="144,-148 144,-148 270,-148 270,-148 144,-148"/>
<polygon fill="none" stroke="#666666" points="144,-131 144,-191 270,-191 270,-131 144,-131"/>
</a>
</g>
</g>
<!-- Node4&#45;&gt;Node1 -->
<g id="edge3" class="edge">
<title>Node4&#45;&gt;Node1</title>
<path fill="none" stroke="#63b8ff" d="M182.54,-122.47C176.66,-113.45 170.31,-103.71 164.21,-94.35"/>
<polygon fill="none" stroke="#63b8ff" points="179.62,-124.4 188.01,-130.87 185.48,-120.58 179.62,-124.4"/>
</g>
<!-- Node5 -->
<g id="node5" class="node">
<title>Node5</title>
<g id="a_node5"><a xlink:href="classalps_1_1cmn_1_1gpio_1_1_i_digital_read.html" target="_top" xlink:title="デジタル入力を行うインタフェース">
<polygon fill="white" stroke="transparent" points="270,-298 144,-298 144,-238 270,-238 270,-298"/>
<text text-anchor="start" x="149" y="-286" font-family="Helvetica,sans-Serif" font-size="10.00">alps::cmn::gpio::IDigital</text>
<text text-anchor="start" x="164" y="-275" font-family="Helvetica,sans-Serif" font-size="10.00">Read&lt; Derived &gt;</text>
<text text-anchor="start" x="203.5" y="-260" font-family="Helvetica,sans-Serif" font-size="10.00"> </text>
<text text-anchor="start" x="161" y="-245" font-family="Helvetica,sans-Serif" font-size="10.00">+</text>
<text text-anchor="start" x="187" y="-245" font-family="Helvetica,sans-Serif" font-size="10.00">CallRead()</text>
<polygon fill="#666666" stroke="#666666" points="144,-270 144,-270 270,-270 270,-270 144,-270"/>
<polygon fill="#666666" stroke="#666666" points="144,-255 144,-255 270,-255 270,-255 144,-255"/>
<polygon fill="none" stroke="#666666" points="144,-238 144,-298 270,-298 270,-238 144,-238"/>
</a>
</g>
</g>
<!-- Node5&#45;&gt;Node4 -->
<g id="edge4" class="edge">
<title>Node5&#45;&gt;Node4</title>
<path fill="none" stroke="orange" d="M207,-227.46C207,-215.39 207,-202.34 207,-191.09"/>
<polygon fill="orange" stroke="orange" points="203.5,-227.75 207,-237.75 210.5,-227.75 203.5,-227.75"/>
<text text-anchor="middle" x="245.5" y="-212" font-family="Helvetica,sans-Serif" font-size="10.00" fill="grey"> &lt; InterruptIn &gt;</text>
</g>
</g>
</svg>
