<?xml version="1.0" encoding="UTF-8" standalone="no"?>
<!DOCTYPE svg PUBLIC "-//W3C//DTD SVG 1.1//EN"
 "http://www.w3.org/Graphics/SVG/1.1/DTD/svg11.dtd">
<!-- Generated by graphviz version 2.43.0 (0)
 -->
<!-- Title: roblab::common::actuator::ServoMotorBase&lt; IPwmSetPeriodImpl, IPwmSetPulseWidthImpl &gt; Pages: 1 -->
<svg width="190pt" height="139pt"
 viewBox="0.00 0.00 190.00 139.00" xmlns="http://www.w3.org/2000/svg" xmlns:xlink="http://www.w3.org/1999/xlink">
<g id="graph0" class="graph" transform="scale(1 1) rotate(0) translate(4 135)">
<title>roblab::common::actuator::ServoMotorBase&lt; IPwmSetPeriodImpl, IPwmSetPulseWidthImpl &gt;</title>
<!-- Node1 -->
<g id="node1" class="node">
<title>Node1</title>
<g id="a_node1"><a xlink:title="PWMパルス幅で指定した角度に動くサーボモータの共通実装">
<polygon fill="#999999" stroke="transparent" points="182,-131 0,-131 0,0 182,0 182,-131"/>
<text text-anchor="start" x="5" y="-118.5" font-family="Helvetica,sans-Serif" font-size="10.00">roblab::common::actuator</text>
<text text-anchor="start" x="5" y="-107.5" font-family="Helvetica,sans-Serif" font-size="10.00">::ServoMotorBase&lt; IPwmSetPeriod</text>
<text text-anchor="start" x="11.5" y="-96.5" font-family="Helvetica,sans-Serif" font-size="10.00">Impl, IPwmSetPulseWidthImpl &gt;</text>
<text text-anchor="start" x="87.5" y="-81.5" font-family="Helvetica,sans-Serif" font-size="10.00"> </text>
<text text-anchor="start" x="20" y="-66.5" font-family="Helvetica,sans-Serif" font-size="10.00">+</text>
<text text-anchor="start" x="49" y="-66.5" font-family="Helvetica,sans-Serif" font-size="10.00">ServoMotorBase()</text>
<text text-anchor="start" x="20" y="-51.5" font-family="Helvetica,sans-Serif" font-size="10.00">+</text>
<text text-anchor="start" x="49" y="-51.5" font-family="Helvetica,sans-Serif" font-size="10.00">ServoMotorBase()</text>
<text text-anchor="start" x="20" y="-36.5" font-family="Helvetica,sans-Serif" font-size="10.00">+</text>
<text text-anchor="start" x="49" y="-36.5" font-family="Helvetica,sans-Serif" font-size="10.00">~ServoMotorBase()</text>
<text text-anchor="start" x="20" y="-21.5" font-family="Helvetica,sans-Serif" font-size="10.00">+</text>
<text text-anchor="start" x="49" y="-21.5" font-family="Helvetica,sans-Serif" font-size="10.00">SetAngle()</text>
<text text-anchor="start" x="20" y="-6.5" font-family="Helvetica,sans-Serif" font-size="10.00">#</text>
<text text-anchor="start" x="49" y="-6.5" font-family="Helvetica,sans-Serif" font-size="10.00">SetInterface()</text>
<polygon fill="#666666" stroke="#666666" points="0,-91.5 0,-91.5 182,-91.5 182,-91.5 0,-91.5"/>
<polygon fill="#666666" stroke="#666666" points="0,-76.5 0,-76.5 182,-76.5 182,-76.5 0,-76.5"/>
<polygon fill="none" stroke="#666666" points="0,0 0,-131 182,-131 182,0 0,0"/>
</a>
</g>
</g>
</g>
</svg>
