<?xml version="1.0" encoding="UTF-8" standalone="no"?>
<!DOCTYPE svg PUBLIC "-//W3C//DTD SVG 1.1//EN"
 "http://www.w3.org/Graphics/SVG/1.1/DTD/svg11.dtd">
<!-- Generated by graphviz version 2.43.0 (0)
 -->
<!-- Title: alps::cmn::communication::detail::CanParamBase&lt; T &gt; Pages: 1 -->
<svg width="318pt" height="215pt"
 viewBox="0.00 0.00 318.00 215.00" xmlns="http://www.w3.org/2000/svg" xmlns:xlink="http://www.w3.org/1999/xlink">
<g id="graph0" class="graph" transform="scale(1 1) rotate(0) translate(4 211)">
<title>alps::cmn::communication::detail::CanParamBase&lt; T &gt;</title>
<polygon fill="white" stroke="transparent" points="-4,4 -4,-211 314,-211 314,4 -4,4"/>
<!-- Node1 -->
<g id="node1" class="node">
<title>Node1</title>
<g id="a_node1"><a xlink:title="パラメータの基底クラス">
<polygon fill="#bfbfbf" stroke="black" points="71,-105.5 71,-206.5 239,-206.5 239,-105.5 71,-105.5"/>
<text text-anchor="start" x="79" y="-194.5" font-family="Helvetica,sans-Serif" font-size="10.00">alps::cmn::communication</text>
<text text-anchor="middle" x="155" y="-183.5" font-family="Helvetica,sans-Serif" font-size="10.00">::detail::CanParamBase&lt; T &gt;</text>
<polyline fill="none" stroke="black" points="71,-176.5 239,-176.5 "/>
<text text-anchor="start" x="79" y="-164.5" font-family="Helvetica,sans-Serif" font-size="10.00">+ id_</text>
<polyline fill="none" stroke="black" points="71,-157.5 239,-157.5 "/>
<text text-anchor="start" x="79" y="-145.5" font-family="Helvetica,sans-Serif" font-size="10.00">+ GetParam()</text>
<text text-anchor="start" x="79" y="-134.5" font-family="Helvetica,sans-Serif" font-size="10.00">+ SetParam()</text>
<text text-anchor="start" x="79" y="-123.5" font-family="Helvetica,sans-Serif" font-size="10.00">+ RegisterOnChangeCallback()</text>
<text text-anchor="start" x="79" y="-112.5" font-family="Helvetica,sans-Serif" font-size="10.00"># CanParamBase()</text>
</a>
</g>
</g>
<!-- Node2 -->
<g id="node2" class="node">
<title>Node2</title>
<g id="a_node2"><a xlink:href="classalps_1_1cmn_1_1communication_1_1_can_param_client.html" target="_top" xlink:title="CANパラメータクライアント">
<polygon fill="white" stroke="black" points="0,-0.5 0,-68.5 146,-68.5 146,-0.5 0,-0.5"/>
<text text-anchor="start" x="8" y="-56.5" font-family="Helvetica,sans-Serif" font-size="10.00">alps::cmn::communication</text>
<text text-anchor="middle" x="73" y="-45.5" font-family="Helvetica,sans-Serif" font-size="10.00">::CanParamClient&lt; T &gt;</text>
<polyline fill="none" stroke="black" points="0,-38.5 146,-38.5 "/>
<text text-anchor="middle" x="73" y="-26.5" font-family="Helvetica,sans-Serif" font-size="10.00"> </text>
<polyline fill="none" stroke="black" points="0,-19.5 146,-19.5 "/>
<text text-anchor="start" x="8" y="-7.5" font-family="Helvetica,sans-Serif" font-size="10.00">+ CanParamClient()</text>
</a>
</g>
</g>
<!-- Node1&#45;&gt;Node2 -->
<g id="edge1" class="edge">
<title>Node1&#45;&gt;Node2</title>
<path fill="none" stroke="midnightblue" d="M115.15,-96.93C108.53,-87.28 101.88,-77.58 95.87,-68.83"/>
<polygon fill="none" stroke="midnightblue" points="112.39,-99.09 120.94,-105.36 118.16,-95.13 112.39,-99.09"/>
</g>
<!-- Node3 -->
<g id="node3" class="node">
<title>Node3</title>
<g id="a_node3"><a xlink:href="classalps_1_1cmn_1_1communication_1_1_can_param_server.html" target="_top" xlink:title="CANパラメータサーバー">
<polygon fill="white" stroke="black" points="164,-0.5 164,-68.5 310,-68.5 310,-0.5 164,-0.5"/>
<text text-anchor="start" x="172" y="-56.5" font-family="Helvetica,sans-Serif" font-size="10.00">alps::cmn::communication</text>
<text text-anchor="middle" x="237" y="-45.5" font-family="Helvetica,sans-Serif" font-size="10.00">::CanParamServer&lt; T &gt;</text>
<polyline fill="none" stroke="black" points="164,-38.5 310,-38.5 "/>
<text text-anchor="middle" x="237" y="-26.5" font-family="Helvetica,sans-Serif" font-size="10.00"> </text>
<polyline fill="none" stroke="black" points="164,-19.5 310,-19.5 "/>
<text text-anchor="start" x="172" y="-7.5" font-family="Helvetica,sans-Serif" font-size="10.00">+ CanParamServer()</text>
</a>
</g>
</g>
<!-- Node1&#45;&gt;Node3 -->
<g id="edge2" class="edge">
<title>Node1&#45;&gt;Node3</title>
<path fill="none" stroke="midnightblue" d="M194.85,-96.93C201.47,-87.28 208.12,-77.58 214.13,-68.83"/>
<polygon fill="none" stroke="midnightblue" points="191.84,-95.13 189.06,-105.36 197.61,-99.09 191.84,-95.13"/>
</g>
</g>
</svg>
