<?xml version="1.0" encoding="UTF-8" standalone="no"?>
<!DOCTYPE svg PUBLIC "-//W3C//DTD SVG 1.1//EN"
 "http://www.w3.org/Graphics/SVG/1.1/DTD/svg11.dtd">
<!-- Generated by graphviz version 2.43.0 (0)
 -->
<!-- Title: alps::cmn::sensor::Potentiometer&lt; Clock, AnalogIn &gt; Pages: 1 -->
<svg width="174pt" height="259pt"
 viewBox="0.00 0.00 174.00 259.00" xmlns="http://www.w3.org/2000/svg" xmlns:xlink="http://www.w3.org/1999/xlink">
<g id="graph0" class="graph" transform="scale(1 1) rotate(0) translate(4 255)">
<title>alps::cmn::sensor::Potentiometer&lt; Clock, AnalogIn &gt;</title>
<polygon fill="white" stroke="transparent" points="-4,4 -4,-255 170,-255 170,4 -4,4"/>
<!-- Node1 -->
<g id="node1" class="node">
<title>Node1</title>
<g id="a_node1"><a xlink:title="ポテンショメータのクラス．">
<polygon fill="#bfbfbf" stroke="black" points="15,-0.5 15,-123.5 151,-123.5 151,-0.5 15,-0.5"/>
<text text-anchor="start" x="23" y="-111.5" font-family="Helvetica,sans-Serif" font-size="10.00">alps::cmn::sensor::</text>
<text text-anchor="start" x="23" y="-100.5" font-family="Helvetica,sans-Serif" font-size="10.00">Potentiometer&lt; Clock,</text>
<text text-anchor="middle" x="83" y="-89.5" font-family="Helvetica,sans-Serif" font-size="10.00"> AnalogIn &gt;</text>
<polyline fill="none" stroke="black" points="15,-82.5 151,-82.5 "/>
<text text-anchor="middle" x="83" y="-70.5" font-family="Helvetica,sans-Serif" font-size="10.00"> </text>
<polyline fill="none" stroke="black" points="15,-63.5 151,-63.5 "/>
<text text-anchor="start" x="23" y="-51.5" font-family="Helvetica,sans-Serif" font-size="10.00">+ Potentiometer()</text>
<text text-anchor="start" x="23" y="-40.5" font-family="Helvetica,sans-Serif" font-size="10.00">+ GetRawValue()</text>
<text text-anchor="start" x="23" y="-29.5" font-family="Helvetica,sans-Serif" font-size="10.00">+ GetNormalizedValue()</text>
<text text-anchor="start" x="23" y="-18.5" font-family="Helvetica,sans-Serif" font-size="10.00">+ GetAngle()</text>
<text text-anchor="start" x="23" y="-7.5" font-family="Helvetica,sans-Serif" font-size="10.00">+ GetVelocity()</text>
</a>
</g>
</g>
<!-- Node2 -->
<g id="node2" class="node">
<title>Node2</title>
<g id="a_node2"><a xlink:href="classalps_1_1cmn_1_1sensor_1_1_i_rotary_sensor.html" target="_top" xlink:title=" ">
<polygon fill="white" stroke="black" points="0,-160.5 0,-250.5 166,-250.5 166,-160.5 0,-160.5"/>
<text text-anchor="start" x="8" y="-238.5" font-family="Helvetica,sans-Serif" font-size="10.00">alps::cmn::sensor::</text>
<text text-anchor="start" x="8" y="-227.5" font-family="Helvetica,sans-Serif" font-size="10.00">IRotarySensor&lt; Potentiometer</text>
<text text-anchor="middle" x="83" y="-216.5" font-family="Helvetica,sans-Serif" font-size="10.00">&lt; Clock, AnalogIn &gt; &gt;</text>
<polyline fill="none" stroke="black" points="0,-209.5 166,-209.5 "/>
<text text-anchor="middle" x="83" y="-197.5" font-family="Helvetica,sans-Serif" font-size="10.00"> </text>
<polyline fill="none" stroke="black" points="0,-190.5 166,-190.5 "/>
<text text-anchor="start" x="8" y="-178.5" font-family="Helvetica,sans-Serif" font-size="10.00">+ CallGetAngle()</text>
<text text-anchor="start" x="8" y="-167.5" font-family="Helvetica,sans-Serif" font-size="10.00">+ CallGetVelocity()</text>
</a>
</g>
</g>
<!-- Node2&#45;&gt;Node1 -->
<g id="edge1" class="edge">
<title>Node2&#45;&gt;Node1</title>
<path fill="none" stroke="midnightblue" d="M83,-150.11C83,-141.42 83,-132.38 83,-123.56"/>
<polygon fill="none" stroke="midnightblue" points="79.5,-150.12 83,-160.12 86.5,-150.12 79.5,-150.12"/>
</g>
</g>
</svg>
