<?xml version="1.0" encoding="UTF-8" standalone="no"?>
<!DOCTYPE svg PUBLIC "-//W3C//DTD SVG 1.1//EN"
 "http://www.w3.org/Graphics/SVG/1.1/DTD/svg11.dtd">
<!-- Generated by graphviz version 2.43.0 (0)
 -->
<!-- Title: alps::mbed::gpio::AnalogIn Pages: 1 -->
<svg width="148pt" height="168pt"
 viewBox="0.00 0.00 148.00 168.00" xmlns="http://www.w3.org/2000/svg" xmlns:xlink="http://www.w3.org/1999/xlink">
<g id="graph0" class="graph" transform="scale(1 1) rotate(0) translate(4 164)">
<title>alps::mbed::gpio::AnalogIn</title>
<!-- Node1 -->
<g id="Node000001" class="node">
<title>Node1</title>
<g id="a_Node000001"><a xlink:title=" ">
<polygon fill="#999999" stroke="transparent" points="140,-64 0,-64 0,0 140,0 140,-64"/>
<text text-anchor="start" x="5" y="-52" font-family="Helvetica,sans-Serif" font-size="10.00">alps::mbed::gpio::AnalogIn</text>
<text text-anchor="start" x="68" y="-37" font-family="Helvetica,sans-Serif" font-size="10.00"> </text>
<text text-anchor="start" x="21" y="-22" font-family="Helvetica,sans-Serif" font-size="10.00">+</text>
<text text-anchor="start" x="51" y="-22" font-family="Helvetica,sans-Serif" font-size="10.00">AnalogIn()</text>
<text text-anchor="start" x="21" y="-7" font-family="Helvetica,sans-Serif" font-size="10.00">+</text>
<text text-anchor="start" x="51" y="-7" font-family="Helvetica,sans-Serif" font-size="10.00">Read()</text>
<polygon fill="#666666" stroke="#666666" points="0,-47 0,-47 140,-47 140,-47 0,-47"/>
<polygon fill="#666666" stroke="#666666" points="0,-32 0,-32 140,-32 140,-32 0,-32"/>
<polygon fill="none" stroke="#666666" points="0,0 0,-64 140,-64 140,0 0,0"/>
</a>
</g>
</g>
<!-- Node2 -->
<g id="Node000002" class="node">
<title>Node2</title>
<g id="a_Node000002"><a xlink:href="classalps_1_1cmn_1_1gpio_1_1_i_analog_in.html" target="_top" xlink:title=" ">
<polygon fill="white" stroke="transparent" points="134,-160 6,-160 6,-100 134,-100 134,-160"/>
<text text-anchor="start" x="11" y="-148" font-family="Helvetica,sans-Serif" font-size="10.00">alps::cmn::gpio::IAnalog</text>
<text text-anchor="start" x="32.5" y="-137" font-family="Helvetica,sans-Serif" font-size="10.00">In&lt; AnalogIn &gt;</text>
<text text-anchor="start" x="68" y="-122" font-family="Helvetica,sans-Serif" font-size="10.00"> </text>
<text text-anchor="start" x="23.5" y="-107" font-family="Helvetica,sans-Serif" font-size="10.00">+</text>
<text text-anchor="start" x="50" y="-107" font-family="Helvetica,sans-Serif" font-size="10.00">CallRead()</text>
<polygon fill="#666666" stroke="#666666" points="6,-132 6,-132 134,-132 134,-132 6,-132"/>
<polygon fill="#666666" stroke="#666666" points="6,-117 6,-117 134,-117 134,-117 6,-117"/>
<polygon fill="none" stroke="#666666" points="6,-100 6,-160 134,-160 134,-100 6,-100"/>
</a>
</g>
</g>
<!-- Node2&#45;&gt;Node1 -->
<g id="edge1_Node000001_Node000002" class="edge">
<title>Node2&#45;&gt;Node1</title>
<g id="a_edge1_Node000001_Node000002"><a xlink:title=" ">
<path fill="none" stroke="#63b8ff" d="M70,-89.83C70,-81.33 70,-72.45 70,-64.3"/>
<polygon fill="none" stroke="#63b8ff" points="66.5,-89.94 70,-99.94 73.5,-89.94 66.5,-89.94"/>
</a>
</g>
</g>
</g>
</svg>
