<?xml version="1.0" encoding="UTF-8" standalone="no"?>
<!DOCTYPE svg PUBLIC "-//W3C//DTD SVG 1.1//EN"
 "http://www.w3.org/Graphics/SVG/1.1/DTD/svg11.dtd">
<!-- Generated by graphviz version 2.43.0 (0)
 -->
<!-- Title: alps::cmn::sensor::IncrementalEncoder&lt; Clock, InterruptIn, DigitalIn &gt; Pages: 1 -->
<svg width="163pt" height="281pt"
 viewBox="0.00 0.00 163.00 281.00" xmlns="http://www.w3.org/2000/svg" xmlns:xlink="http://www.w3.org/1999/xlink">
<g id="graph0" class="graph" transform="scale(1 1) rotate(0) translate(4 277)">
<title>alps::cmn::sensor::IncrementalEncoder&lt; Clock, InterruptIn, DigitalIn &gt;</title>
<polygon fill="white" stroke="transparent" points="-4,4 -4,-277 159,-277 159,4 -4,4"/>
<!-- Node1 -->
<g id="node1" class="node">
<title>Node1</title>
<g id="a_node1"><a xlink:title="A相B相からなるインクリメンタルエンコーダ">
<polygon fill="#bfbfbf" stroke="black" points="11,-0.5 11,-145.5 144,-145.5 144,-0.5 11,-0.5"/>
<text text-anchor="start" x="19" y="-133.5" font-family="Helvetica,sans-Serif" font-size="10.00">alps::cmn::sensor::</text>
<text text-anchor="start" x="19" y="-122.5" font-family="Helvetica,sans-Serif" font-size="10.00">IncrementalEncoder&lt;</text>
<text text-anchor="start" x="19" y="-111.5" font-family="Helvetica,sans-Serif" font-size="10.00"> Clock, InterruptIn,</text>
<text text-anchor="middle" x="77.5" y="-100.5" font-family="Helvetica,sans-Serif" font-size="10.00"> DigitalIn &gt;</text>
<polyline fill="none" stroke="black" points="11,-93.5 144,-93.5 "/>
<text text-anchor="middle" x="77.5" y="-81.5" font-family="Helvetica,sans-Serif" font-size="10.00"> </text>
<polyline fill="none" stroke="black" points="11,-74.5 144,-74.5 "/>
<text text-anchor="start" x="19" y="-62.5" font-family="Helvetica,sans-Serif" font-size="10.00">+ IncrementalEncoder()</text>
<text text-anchor="start" x="19" y="-51.5" font-family="Helvetica,sans-Serif" font-size="10.00">+ Reset()</text>
<text text-anchor="start" x="19" y="-40.5" font-family="Helvetica,sans-Serif" font-size="10.00">+ GetCurrentState()</text>
<text text-anchor="start" x="19" y="-29.5" font-family="Helvetica,sans-Serif" font-size="10.00">+ GetPulses()</text>
<text text-anchor="start" x="19" y="-18.5" font-family="Helvetica,sans-Serif" font-size="10.00">+ GetAngle()</text>
<text text-anchor="start" x="19" y="-7.5" font-family="Helvetica,sans-Serif" font-size="10.00">+ GetVelocity()</text>
</a>
</g>
</g>
<!-- Node2 -->
<g id="node2" class="node">
<title>Node2</title>
<g id="a_node2"><a xlink:href="classalps_1_1cmn_1_1sensor_1_1_i_rotary_sensor.html" target="_top" xlink:title=" ">
<polygon fill="white" stroke="black" points="0,-182.5 0,-272.5 155,-272.5 155,-182.5 0,-182.5"/>
<text text-anchor="start" x="8" y="-260.5" font-family="Helvetica,sans-Serif" font-size="10.00">alps::cmn::sensor::</text>
<text text-anchor="start" x="8" y="-249.5" font-family="Helvetica,sans-Serif" font-size="10.00">IRotarySensor&lt; Incremental</text>
<text text-anchor="start" x="8" y="-238.5" font-family="Helvetica,sans-Serif" font-size="10.00">Encoder&lt; Clock, InterruptIn,</text>
<text text-anchor="middle" x="77.5" y="-227.5" font-family="Helvetica,sans-Serif" font-size="10.00"> DigitalIn &gt; &gt;</text>
<polyline fill="none" stroke="black" points="0,-220.5 155,-220.5 "/>
<text text-anchor="middle" x="77.5" y="-208.5" font-family="Helvetica,sans-Serif" font-size="10.00"> </text>
<polyline fill="none" stroke="black" points="0,-201.5 155,-201.5 "/>
<text text-anchor="start" x="8" y="-189.5" font-family="Helvetica,sans-Serif" font-size="10.00">+ CallGetAngle()</text>
</a>
</g>
</g>
<!-- Node2&#45;&gt;Node1 -->
<g id="edge1" class="edge">
<title>Node2&#45;&gt;Node1</title>
<path fill="none" stroke="midnightblue" d="M77.5,-172.13C77.5,-163.53 77.5,-154.52 77.5,-145.59"/>
<polygon fill="none" stroke="midnightblue" points="74,-172.39 77.5,-182.39 81,-172.39 74,-172.39"/>
</g>
</g>
</svg>
