<?xml version="1.0" encoding="UTF-8" standalone="no"?>
<!DOCTYPE svg PUBLIC "-//W3C//DTD SVG 1.1//EN"
 "http://www.w3.org/Graphics/SVG/1.1/DTD/svg11.dtd">
<!-- Generated by graphviz version 2.43.0 (0)
 -->
<!-- Title: alps::cmn::sensor::Potentiometer&lt; Clock, AnalogIn &gt; Pages: 1 -->
<svg width="168pt" height="261pt"
 viewBox="0.00 0.00 168.00 261.00" xmlns="http://www.w3.org/2000/svg" xmlns:xlink="http://www.w3.org/1999/xlink">
<g id="graph0" class="graph" transform="scale(1 1) rotate(0) translate(4 257)">
<title>alps::cmn::sensor::Potentiometer&lt; Clock, AnalogIn &gt;</title>
<!-- Node1 -->
<g id="Node000001" class="node">
<title>Node1</title>
<g id="a_Node000001"><a xlink:title="ポテンショメータのクラス．">
<polygon fill="#999999" stroke="transparent" points="148,-146 12,-146 12,0 148,0 148,-146"/>
<text text-anchor="start" x="24" y="-134" font-family="Helvetica,sans-Serif" font-size="10.00">alps::cmn::sensor::</text>
<text text-anchor="start" x="24" y="-123" font-family="Helvetica,sans-Serif" font-size="10.00">Potentiometer&lt; Clock,</text>
<text text-anchor="start" x="51" y="-112" font-family="Helvetica,sans-Serif" font-size="10.00"> AnalogIn &gt;</text>
<text text-anchor="start" x="78" y="-97" font-family="Helvetica,sans-Serif" font-size="10.00"> </text>
<text text-anchor="start" x="16" y="-82" font-family="Helvetica,sans-Serif" font-size="10.00">+</text>
<text text-anchor="start" x="29" y="-82" font-family="Helvetica,sans-Serif" font-size="10.00">Potentiometer()</text>
<text text-anchor="start" x="16" y="-67" font-family="Helvetica,sans-Serif" font-size="10.00">+</text>
<text text-anchor="start" x="29" y="-67" font-family="Helvetica,sans-Serif" font-size="10.00">SetParam()</text>
<text text-anchor="start" x="16" y="-52" font-family="Helvetica,sans-Serif" font-size="10.00">+</text>
<text text-anchor="start" x="29" y="-52" font-family="Helvetica,sans-Serif" font-size="10.00">GetRawValue()</text>
<text text-anchor="start" x="16" y="-37" font-family="Helvetica,sans-Serif" font-size="10.00">+</text>
<text text-anchor="start" x="29" y="-37" font-family="Helvetica,sans-Serif" font-size="10.00">GetLowPassRawValue()</text>
<text text-anchor="start" x="16" y="-22" font-family="Helvetica,sans-Serif" font-size="10.00">+</text>
<text text-anchor="start" x="29" y="-22" font-family="Helvetica,sans-Serif" font-size="10.00">GetNormalizedValue()</text>
<text text-anchor="start" x="16" y="-7" font-family="Helvetica,sans-Serif" font-size="10.00">+</text>
<text text-anchor="start" x="29" y="-7" font-family="Helvetica,sans-Serif" font-size="10.00">GetAngle()</text>
<polygon fill="#666666" stroke="#666666" points="12,-107 12,-107 148,-107 148,-107 12,-107"/>
<polygon fill="#666666" stroke="#666666" points="12,-92 12,-92 148,-92 148,-92 12,-92"/>
<polygon fill="none" stroke="#666666" points="12,0 12,-146 148,-146 148,0 12,0"/>
</a>
</g>
</g>
<!-- Node2 -->
<g id="Node000002" class="node">
<title>Node2</title>
<g id="a_Node000002"><a xlink:href="classalps_1_1cmn_1_1sensor_1_1_i_rotary_sensor.html" target="_top" xlink:title=" ">
<polygon fill="white" stroke="transparent" points="160,-253 0,-253 0,-182 160,-182 160,-253"/>
<text text-anchor="start" x="5" y="-240.5" font-family="Helvetica,sans-Serif" font-size="10.00">alps::cmn::sensor::</text>
<text text-anchor="start" x="5" y="-229.5" font-family="Helvetica,sans-Serif" font-size="10.00">IRotarySensor&lt; Potentiometer</text>
<text text-anchor="start" x="25" y="-218.5" font-family="Helvetica,sans-Serif" font-size="10.00">&lt; Clock, AnalogIn &gt; &gt;</text>
<text text-anchor="start" x="78" y="-203.5" font-family="Helvetica,sans-Serif" font-size="10.00"> </text>
<text text-anchor="start" x="20.5" y="-188.5" font-family="Helvetica,sans-Serif" font-size="10.00">+</text>
<text text-anchor="start" x="50" y="-188.5" font-family="Helvetica,sans-Serif" font-size="10.00">CallGetAngle()</text>
<polygon fill="#666666" stroke="#666666" points="0,-213.5 0,-213.5 160,-213.5 160,-213.5 0,-213.5"/>
<polygon fill="#666666" stroke="#666666" points="0,-198.5 0,-198.5 160,-198.5 160,-198.5 0,-198.5"/>
<polygon fill="none" stroke="#666666" points="0,-182 0,-253 160,-253 160,-182 0,-182"/>
</a>
</g>
</g>
<!-- Node2&#45;&gt;Node1 -->
<g id="edge1_Node000001_Node000002" class="edge">
<title>Node2&#45;&gt;Node1</title>
<g id="a_edge1_Node000001_Node000002"><a xlink:title=" ">
<path fill="none" stroke="#63b8ff" d="M80,-171.39C80,-163.34 80,-154.77 80,-146.18"/>
<polygon fill="none" stroke="#63b8ff" points="76.5,-171.64 80,-181.64 83.5,-171.64 76.5,-171.64"/>
</a>
</g>
</g>
</g>
</svg>
