<?xml version="1.0" encoding="UTF-8" standalone="no"?>
<!DOCTYPE svg PUBLIC "-//W3C//DTD SVG 1.1//EN"
 "http://www.w3.org/Graphics/SVG/1.1/DTD/svg11.dtd">
<!-- Generated by graphviz version 2.43.0 (0)
 -->
<!-- Title: PwmOut Pages: 1 -->
<svg width="445pt" height="306pt"
 viewBox="0.00 0.00 445.00 306.00" xmlns="http://www.w3.org/2000/svg" xmlns:xlink="http://www.w3.org/1999/xlink">
<g id="graph0" class="graph" transform="scale(1 1) rotate(0) translate(4 302)">
<title>PwmOut</title>
<!-- Node1 -->
<g id="node1" class="node">
<title>Node1</title>
<g id="a_node1"><a xlink:title="PWM出力ピン">
<polygon fill="#999999" stroke="transparent" points="280.5,-94 159.5,-94 159.5,0 280.5,0 280.5,-94"/>
<text text-anchor="start" x="199.5" y="-82" font-family="Helvetica,sans-Serif" font-size="10.00">PwmOut</text>
<text text-anchor="start" x="217" y="-67" font-family="Helvetica,sans-Serif" font-size="10.00"> </text>
<text text-anchor="start" x="164" y="-52" font-family="Helvetica,sans-Serif" font-size="10.00">+</text>
<text text-anchor="start" x="177" y="-52" font-family="Helvetica,sans-Serif" font-size="10.00">PwmOut()</text>
<text text-anchor="start" x="164" y="-37" font-family="Helvetica,sans-Serif" font-size="10.00">+</text>
<text text-anchor="start" x="177" y="-37" font-family="Helvetica,sans-Serif" font-size="10.00">WriteImpl()</text>
<text text-anchor="start" x="164" y="-22" font-family="Helvetica,sans-Serif" font-size="10.00">+</text>
<text text-anchor="start" x="177" y="-22" font-family="Helvetica,sans-Serif" font-size="10.00">SetPeriodImpl()</text>
<text text-anchor="start" x="164" y="-7" font-family="Helvetica,sans-Serif" font-size="10.00">+</text>
<text text-anchor="start" x="177" y="-7" font-family="Helvetica,sans-Serif" font-size="10.00">SetPulseWidthImpl()</text>
<polygon fill="#666666" stroke="#666666" points="160,-77 160,-77 281,-77 281,-77 160,-77"/>
<polygon fill="#666666" stroke="#666666" points="160,-62 160,-62 281,-62 281,-62 160,-62"/>
<polygon fill="none" stroke="#666666" points="159.5,0 159.5,-94 280.5,-94 280.5,0 159.5,0"/>
</a>
</g>
</g>
<!-- Node2 -->
<g id="node2" class="node">
<title>Node2</title>
<g id="a_node2"><a xlink:href="classroblab_1_1common_1_1gpio_1_1_i_pwm_write.html" target="_top" xlink:title=" ">
<polygon fill="white" stroke="transparent" points="128,-185.5 0,-185.5 0,-136.5 128,-136.5 128,-185.5"/>
<text text-anchor="start" x="5" y="-173" font-family="Helvetica,sans-Serif" font-size="10.00">IPwmWrite&lt; PwmOut &gt;</text>
<text text-anchor="start" x="60.5" y="-158" font-family="Helvetica,sans-Serif" font-size="10.00"> </text>
<text text-anchor="start" x="22" y="-143" font-family="Helvetica,sans-Serif" font-size="10.00">+</text>
<text text-anchor="start" x="53" y="-143" font-family="Helvetica,sans-Serif" font-size="10.00">Write()</text>
<polygon fill="#666666" stroke="#666666" points="0,-168 0,-168 128,-168 128,-168 0,-168"/>
<polygon fill="#666666" stroke="#666666" points="0,-153 0,-153 128,-153 128,-153 0,-153"/>
<polygon fill="none" stroke="#666666" points="0,-136.5 0,-185.5 128,-185.5 128,-136.5 0,-136.5"/>
</a>
</g>
</g>
<!-- Node2&#45;&gt;Node1 -->
<g id="edge1" class="edge">
<title>Node2&#45;&gt;Node1</title>
<path fill="none" stroke="#63b8ff" d="M105.43,-130.26C121.92,-118.41 141.23,-104.55 159.25,-91.61"/>
<polygon fill="none" stroke="#63b8ff" points="103.17,-127.57 97.08,-136.25 107.25,-133.26 103.17,-127.57"/>
</g>
<!-- Node3 -->
<g id="node3" class="node">
<title>Node3</title>
<g id="a_node3"><a xlink:href="classroblab_1_1common_1_1gpio_1_1_i_pwm_write.html" target="_top" xlink:title="PWM出力を行うインタフェース">
<polygon fill="white" stroke="transparent" points="126.5,-292.5 1.5,-292.5 1.5,-243.5 126.5,-243.5 126.5,-292.5"/>
<text text-anchor="start" x="7" y="-280" font-family="Helvetica,sans-Serif" font-size="10.00">IPwmWrite&lt; Derived &gt;</text>
<text text-anchor="start" x="61" y="-265" font-family="Helvetica,sans-Serif" font-size="10.00"> </text>
<text text-anchor="start" x="23.5" y="-250" font-family="Helvetica,sans-Serif" font-size="10.00">+</text>
<text text-anchor="start" x="54" y="-250" font-family="Helvetica,sans-Serif" font-size="10.00">Write()</text>
<polygon fill="#666666" stroke="#666666" points="2,-275 2,-275 127,-275 127,-275 2,-275"/>
<polygon fill="#666666" stroke="#666666" points="2,-260 2,-260 127,-260 127,-260 2,-260"/>
<polygon fill="none" stroke="#666666" points="1.5,-243.5 1.5,-292.5 126.5,-292.5 126.5,-243.5 1.5,-243.5"/>
</a>
</g>
</g>
<!-- Node3&#45;&gt;Node2 -->
<g id="edge2" class="edge">
<title>Node3&#45;&gt;Node2</title>
<path fill="none" stroke="orange" d="M64,-233.22C64,-217.78 64,-199.85 64,-185.85"/>
<polygon fill="orange" stroke="orange" points="60.5,-233.44 64,-243.44 67.5,-233.44 60.5,-233.44"/>
<text text-anchor="middle" x="97.5" y="-212" font-family="Helvetica,sans-Serif" font-size="10.00" fill="grey"> &lt; PwmOut &gt;</text>
</g>
<!-- Node4 -->
<g id="node4" class="node">
<title>Node4</title>
<g id="a_node4"><a xlink:href="classroblab_1_1common_1_1gpio_1_1_i_pwm_set_period.html" target="_top" xlink:title=" ">
<polygon fill="white" stroke="transparent" points="294,-185.5 146,-185.5 146,-136.5 294,-136.5 294,-185.5"/>
<text text-anchor="start" x="151" y="-173" font-family="Helvetica,sans-Serif" font-size="10.00">IPwmSetPeriod&lt; PwmOut &gt;</text>
<text text-anchor="start" x="216.5" y="-158" font-family="Helvetica,sans-Serif" font-size="10.00"> </text>
<text text-anchor="start" x="168" y="-143" font-family="Helvetica,sans-Serif" font-size="10.00">+</text>
<text text-anchor="start" x="199" y="-143" font-family="Helvetica,sans-Serif" font-size="10.00">SetPeriod()</text>
<polygon fill="#666666" stroke="#666666" points="146,-168 146,-168 294,-168 294,-168 146,-168"/>
<polygon fill="#666666" stroke="#666666" points="146,-153 146,-153 294,-153 294,-153 146,-153"/>
<polygon fill="none" stroke="#666666" points="146,-136.5 146,-185.5 294,-185.5 294,-136.5 146,-136.5"/>
</a>
</g>
</g>
<!-- Node4&#45;&gt;Node1 -->
<g id="edge3" class="edge">
<title>Node4&#45;&gt;Node1</title>
<path fill="none" stroke="#63b8ff" d="M220,-125.94C220,-115.98 220,-104.92 220,-94.33"/>
<polygon fill="none" stroke="#63b8ff" points="216.5,-126.25 220,-136.25 223.5,-126.25 216.5,-126.25"/>
</g>
<!-- Node5 -->
<g id="node5" class="node">
<title>Node5</title>
<g id="a_node5"><a xlink:href="classroblab_1_1common_1_1gpio_1_1_i_pwm_set_period.html" target="_top" xlink:title="PWMの周期を設定するインタフェース">
<polygon fill="white" stroke="transparent" points="292.5,-292.5 147.5,-292.5 147.5,-243.5 292.5,-243.5 292.5,-292.5"/>
<text text-anchor="start" x="153" y="-280" font-family="Helvetica,sans-Serif" font-size="10.00">IPwmSetPeriod&lt; Derived &gt;</text>
<text text-anchor="start" x="217" y="-265" font-family="Helvetica,sans-Serif" font-size="10.00"> </text>
<text text-anchor="start" x="169" y="-250" font-family="Helvetica,sans-Serif" font-size="10.00">+</text>
<text text-anchor="start" x="199" y="-250" font-family="Helvetica,sans-Serif" font-size="10.00">SetPeriod()</text>
<polygon fill="#666666" stroke="#666666" points="148,-275 148,-275 293,-275 293,-275 148,-275"/>
<polygon fill="#666666" stroke="#666666" points="148,-260 148,-260 293,-260 293,-260 148,-260"/>
<polygon fill="none" stroke="#666666" points="147.5,-243.5 147.5,-292.5 292.5,-292.5 292.5,-243.5 147.5,-243.5"/>
</a>
</g>
</g>
<!-- Node5&#45;&gt;Node4 -->
<g id="edge4" class="edge">
<title>Node5&#45;&gt;Node4</title>
<path fill="none" stroke="orange" d="M220,-233.22C220,-217.78 220,-199.85 220,-185.85"/>
<polygon fill="orange" stroke="orange" points="216.5,-233.44 220,-243.44 223.5,-233.44 216.5,-233.44"/>
<text text-anchor="middle" x="253.5" y="-212" font-family="Helvetica,sans-Serif" font-size="10.00" fill="grey"> &lt; PwmOut &gt;</text>
</g>
<!-- Node6 -->
<g id="node6" class="node">
<title>Node6</title>
<g id="a_node6"><a xlink:href="classroblab_1_1common_1_1gpio_1_1_i_pwm_set_pulse_width.html" target="_top" xlink:title=" ">
<polygon fill="white" stroke="transparent" points="428,-191 312,-191 312,-131 428,-131 428,-191"/>
<text text-anchor="start" x="317" y="-179" font-family="Helvetica,sans-Serif" font-size="10.00">IPwmSetPulseWidth&lt;</text>
<text text-anchor="start" x="342" y="-168" font-family="Helvetica,sans-Serif" font-size="10.00"> PwmOut &gt;</text>
<text text-anchor="start" x="366.5" y="-153" font-family="Helvetica,sans-Serif" font-size="10.00"> </text>
<text text-anchor="start" x="320" y="-138" font-family="Helvetica,sans-Serif" font-size="10.00">+</text>
<text text-anchor="start" x="337" y="-138" font-family="Helvetica,sans-Serif" font-size="10.00">SetPulseWidth()</text>
<polygon fill="#666666" stroke="#666666" points="312,-163 312,-163 428,-163 428,-163 312,-163"/>
<polygon fill="#666666" stroke="#666666" points="312,-148 312,-148 428,-148 428,-148 312,-148"/>
<polygon fill="none" stroke="#666666" points="312,-131 312,-191 428,-191 428,-131 312,-131"/>
</a>
</g>
</g>
<!-- Node6&#45;&gt;Node1 -->
<g id="edge5" class="edge">
<title>Node6&#45;&gt;Node1</title>
<path fill="none" stroke="#63b8ff" d="M322.84,-124.79C309.46,-114.79 294.69,-103.77 280.63,-93.27"/>
<polygon fill="none" stroke="#63b8ff" points="320.87,-127.69 330.98,-130.87 325.06,-122.08 320.87,-127.69"/>
</g>
<!-- Node7 -->
<g id="node7" class="node">
<title>Node7</title>
<g id="a_node7"><a xlink:href="classroblab_1_1common_1_1gpio_1_1_i_pwm_set_pulse_width.html" target="_top" xlink:title="PWMのパルス幅を時間で指定し出力するインタフェース">
<polygon fill="white" stroke="transparent" points="428,-298 312,-298 312,-238 428,-238 428,-298"/>
<text text-anchor="start" x="317" y="-286" font-family="Helvetica,sans-Serif" font-size="10.00">IPwmSetPulseWidth&lt;</text>
<text text-anchor="start" x="343.5" y="-275" font-family="Helvetica,sans-Serif" font-size="10.00"> Derived &gt;</text>
<text text-anchor="start" x="366.5" y="-260" font-family="Helvetica,sans-Serif" font-size="10.00"> </text>
<text text-anchor="start" x="320" y="-245" font-family="Helvetica,sans-Serif" font-size="10.00">+</text>
<text text-anchor="start" x="337" y="-245" font-family="Helvetica,sans-Serif" font-size="10.00">SetPulseWidth()</text>
<polygon fill="#666666" stroke="#666666" points="312,-270 312,-270 428,-270 428,-270 312,-270"/>
<polygon fill="#666666" stroke="#666666" points="312,-255 312,-255 428,-255 428,-255 312,-255"/>
<polygon fill="none" stroke="#666666" points="312,-238 312,-298 428,-298 428,-238 312,-238"/>
</a>
</g>
</g>
<!-- Node7&#45;&gt;Node6 -->
<g id="edge6" class="edge">
<title>Node7&#45;&gt;Node6</title>
<path fill="none" stroke="orange" d="M370,-227.46C370,-215.39 370,-202.34 370,-191.09"/>
<polygon fill="orange" stroke="orange" points="366.5,-227.75 370,-237.75 373.5,-227.75 366.5,-227.75"/>
<text text-anchor="middle" x="403.5" y="-212" font-family="Helvetica,sans-Serif" font-size="10.00" fill="grey"> &lt; PwmOut &gt;</text>
</g>
</g>
</svg>
