<?xml version="1.0" encoding="UTF-8" standalone="no"?>
<!DOCTYPE svg PUBLIC "-//W3C//DTD SVG 1.1//EN"
 "http://www.w3.org/Graphics/SVG/1.1/DTD/svg11.dtd">
<!-- Generated by graphviz version 2.43.0 (0)
 -->
<!-- Title: alps::cmn::communication::IUartIo&lt; Derived &gt; Pages: 1 -->
<svg width="309pt" height="347pt"
 viewBox="0.00 0.00 309.00 347.00" xmlns="http://www.w3.org/2000/svg" xmlns:xlink="http://www.w3.org/1999/xlink">
<g id="graph0" class="graph" transform="scale(1 1) rotate(0) translate(4 343)">
<title>alps::cmn::communication::IUartIo&lt; Derived &gt;</title>
<!-- Node1 -->
<g id="node1" class="node">
<title>Node1</title>
<g id="a_node1"><a xlink:title="Uart通信IOのインターフェース">
<polygon fill="#999999" stroke="transparent" points="219,-339 79,-339 79,-264 219,-264 219,-339"/>
<text text-anchor="start" x="84" y="-326.5" font-family="Helvetica,sans-Serif" font-size="10.00">alps::cmn::communication</text>
<text text-anchor="start" x="99" y="-315.5" font-family="Helvetica,sans-Serif" font-size="10.00">::IUartIo&lt; Derived &gt;</text>
<text text-anchor="start" x="145.5" y="-300.5" font-family="Helvetica,sans-Serif" font-size="10.00"> </text>
<text text-anchor="start" x="99.5" y="-285.5" font-family="Helvetica,sans-Serif" font-size="10.00">+</text>
<text text-anchor="start" x="129" y="-285.5" font-family="Helvetica,sans-Serif" font-size="10.00">CallWrite()</text>
<text text-anchor="start" x="99.5" y="-270.5" font-family="Helvetica,sans-Serif" font-size="10.00">+</text>
<text text-anchor="start" x="129" y="-270.5" font-family="Helvetica,sans-Serif" font-size="10.00">CallRead()</text>
<polygon fill="#666666" stroke="#666666" points="79,-310.5 79,-310.5 219,-310.5 219,-310.5 79,-310.5"/>
<polygon fill="#666666" stroke="#666666" points="79,-295.5 79,-295.5 219,-295.5 219,-295.5 79,-295.5"/>
<polygon fill="none" stroke="#666666" points="79,-264 79,-339 219,-339 219,-264 79,-264"/>
</a>
</g>
</g>
<!-- Node2 -->
<g id="node2" class="node">
<title>Node2</title>
<g id="a_node2"><a xlink:href="classalps_1_1cmn_1_1communication_1_1_i_uart_io.html" target="_top" xlink:title=" ">
<polygon fill="white" stroke="transparent" points="140,-217 0,-217 0,-142 140,-142 140,-217"/>
<text text-anchor="start" x="5" y="-204.5" font-family="Helvetica,sans-Serif" font-size="10.00">alps::cmn::communication</text>
<text text-anchor="start" x="6.5" y="-193.5" font-family="Helvetica,sans-Serif" font-size="10.00">::IUartIo&lt; UbuntuUartIo &gt;</text>
<text text-anchor="start" x="66.5" y="-178.5" font-family="Helvetica,sans-Serif" font-size="10.00"> </text>
<text text-anchor="start" x="20.5" y="-163.5" font-family="Helvetica,sans-Serif" font-size="10.00">+</text>
<text text-anchor="start" x="50" y="-163.5" font-family="Helvetica,sans-Serif" font-size="10.00">CallWrite()</text>
<text text-anchor="start" x="20.5" y="-148.5" font-family="Helvetica,sans-Serif" font-size="10.00">+</text>
<text text-anchor="start" x="50" y="-148.5" font-family="Helvetica,sans-Serif" font-size="10.00">CallRead()</text>
<polygon fill="#666666" stroke="#666666" points="0,-188.5 0,-188.5 140,-188.5 140,-188.5 0,-188.5"/>
<polygon fill="#666666" stroke="#666666" points="0,-173.5 0,-173.5 140,-173.5 140,-173.5 0,-173.5"/>
<polygon fill="none" stroke="#666666" points="0,-142 0,-217 140,-217 140,-142 0,-142"/>
</a>
</g>
</g>
<!-- Node1&#45;&gt;Node2 -->
<g id="edge1" class="edge">
<title>Node1&#45;&gt;Node2</title>
<path fill="none" stroke="orange" d="M110.85,-255.78C108.45,-252.52 106.15,-249.25 104,-246 98.06,-237.02 92.36,-226.89 87.38,-217.32"/>
<polygon fill="orange" stroke="orange" points="108.09,-257.94 116.93,-263.78 113.66,-253.7 108.09,-257.94"/>
<text text-anchor="middle" x="149.5" y="-238" font-family="Helvetica,sans-Serif" font-size="10.00" fill="grey"> &lt; UbuntuUartIo &gt;</text>
</g>
<!-- Node4 -->
<g id="node4" class="node">
<title>Node4</title>
<g id="a_node4"><a xlink:href="classalps_1_1cmn_1_1communication_1_1_i_uart_io.html" target="_top" xlink:title=" ">
<polygon fill="white" stroke="transparent" points="298,-217 158,-217 158,-142 298,-142 298,-217"/>
<text text-anchor="start" x="163" y="-204.5" font-family="Helvetica,sans-Serif" font-size="10.00">alps::cmn::communication</text>
<text text-anchor="start" x="182" y="-193.5" font-family="Helvetica,sans-Serif" font-size="10.00">::IUartIo&lt; UartIo &gt;</text>
<text text-anchor="start" x="224.5" y="-178.5" font-family="Helvetica,sans-Serif" font-size="10.00"> </text>
<text text-anchor="start" x="178.5" y="-163.5" font-family="Helvetica,sans-Serif" font-size="10.00">+</text>
<text text-anchor="start" x="208" y="-163.5" font-family="Helvetica,sans-Serif" font-size="10.00">CallWrite()</text>
<text text-anchor="start" x="178.5" y="-148.5" font-family="Helvetica,sans-Serif" font-size="10.00">+</text>
<text text-anchor="start" x="208" y="-148.5" font-family="Helvetica,sans-Serif" font-size="10.00">CallRead()</text>
<polygon fill="#666666" stroke="#666666" points="158,-188.5 158,-188.5 298,-188.5 298,-188.5 158,-188.5"/>
<polygon fill="#666666" stroke="#666666" points="158,-173.5 158,-173.5 298,-173.5 298,-173.5 158,-173.5"/>
<polygon fill="none" stroke="#666666" points="158,-142 158,-217 298,-217 298,-142 158,-142"/>
</a>
</g>
</g>
<!-- Node1&#45;&gt;Node4 -->
<g id="edge3" class="edge">
<title>Node1&#45;&gt;Node4</title>
<path fill="none" stroke="orange" d="M188.07,-255.85C190.5,-252.58 192.84,-249.28 195,-246 200.97,-236.97 206.61,-226.72 211.48,-217.04"/>
<polygon fill="orange" stroke="orange" points="185.21,-253.82 181.88,-263.88 190.76,-258.09 185.21,-253.82"/>
<text text-anchor="middle" x="230" y="-238" font-family="Helvetica,sans-Serif" font-size="10.00" fill="grey"> &lt; UartIo &gt;</text>
</g>
<!-- Node3 -->
<g id="node3" class="node">
<title>Node3</title>
<g id="a_node3"><a xlink:href="classalps_1_1lin_1_1communication_1_1_ubuntu_uart_io.html" target="_top" xlink:title="Ubuntu環境でのUartシリアル通信IOクラス">
<polygon fill="white" stroke="transparent" points="135.5,-105 4.5,-105 4.5,0 135.5,0 135.5,-105"/>
<text text-anchor="start" x="10" y="-92.5" font-family="Helvetica,sans-Serif" font-size="10.00">alps::lin::communication</text>
<text text-anchor="start" x="34.5" y="-81.5" font-family="Helvetica,sans-Serif" font-size="10.00">::UbuntuUartIo</text>
<text text-anchor="start" x="67" y="-66.5" font-family="Helvetica,sans-Serif" font-size="10.00"> </text>
<text text-anchor="start" x="16" y="-51.5" font-family="Helvetica,sans-Serif" font-size="10.00">+</text>
<text text-anchor="start" x="36" y="-51.5" font-family="Helvetica,sans-Serif" font-size="10.00">UbuntuUartIo()</text>
<text text-anchor="start" x="16" y="-36.5" font-family="Helvetica,sans-Serif" font-size="10.00">+</text>
<text text-anchor="start" x="36" y="-36.5" font-family="Helvetica,sans-Serif" font-size="10.00">~UbuntuUartIo()</text>
<text text-anchor="start" x="16" y="-21.5" font-family="Helvetica,sans-Serif" font-size="10.00">+</text>
<text text-anchor="start" x="36" y="-21.5" font-family="Helvetica,sans-Serif" font-size="10.00">Write()</text>
<text text-anchor="start" x="16" y="-6.5" font-family="Helvetica,sans-Serif" font-size="10.00">+</text>
<text text-anchor="start" x="36" y="-6.5" font-family="Helvetica,sans-Serif" font-size="10.00">Read()</text>
<polygon fill="#666666" stroke="#666666" points="5,-76.5 5,-76.5 136,-76.5 136,-76.5 5,-76.5"/>
<polygon fill="#666666" stroke="#666666" points="5,-61.5 5,-61.5 136,-61.5 136,-61.5 5,-61.5"/>
<polygon fill="none" stroke="#666666" points="4.5,0 4.5,-105 135.5,-105 135.5,0 4.5,0"/>
</a>
</g>
</g>
<!-- Node2&#45;&gt;Node3 -->
<g id="edge2" class="edge">
<title>Node2&#45;&gt;Node3</title>
<path fill="none" stroke="#63b8ff" d="M70,-131.51C70,-122.97 70,-114.02 70,-105.35"/>
<polygon fill="none" stroke="#63b8ff" points="66.5,-131.67 70,-141.67 73.5,-131.67 66.5,-131.67"/>
</g>
<!-- Node5 -->
<g id="node5" class="node">
<title>Node5</title>
<g id="a_node5"><a xlink:href="classalps_1_1mbed_1_1communication_1_1_uart_io.html" target="_top" xlink:title="mbedのUartシリアル通信IOクラス">
<polygon fill="white" stroke="transparent" points="301,-105 155,-105 155,0 301,0 301,-105"/>
<text text-anchor="start" x="160" y="-92.5" font-family="Helvetica,sans-Serif" font-size="10.00">alps::mbed::communication</text>
<text text-anchor="start" x="209.5" y="-81.5" font-family="Helvetica,sans-Serif" font-size="10.00">::UartIo</text>
<text text-anchor="start" x="224.5" y="-66.5" font-family="Helvetica,sans-Serif" font-size="10.00"> </text>
<text text-anchor="start" x="178.5" y="-51.5" font-family="Helvetica,sans-Serif" font-size="10.00">+</text>
<text text-anchor="start" x="211" y="-51.5" font-family="Helvetica,sans-Serif" font-size="10.00">UartIo()</text>
<text text-anchor="start" x="178.5" y="-36.5" font-family="Helvetica,sans-Serif" font-size="10.00">+</text>
<text text-anchor="start" x="211" y="-36.5" font-family="Helvetica,sans-Serif" font-size="10.00">~UartIo()</text>
<text text-anchor="start" x="178.5" y="-21.5" font-family="Helvetica,sans-Serif" font-size="10.00">+</text>
<text text-anchor="start" x="211" y="-21.5" font-family="Helvetica,sans-Serif" font-size="10.00">Write()</text>
<text text-anchor="start" x="178.5" y="-6.5" font-family="Helvetica,sans-Serif" font-size="10.00">+</text>
<text text-anchor="start" x="211" y="-6.5" font-family="Helvetica,sans-Serif" font-size="10.00">Read()</text>
<polygon fill="#666666" stroke="#666666" points="155,-76.5 155,-76.5 301,-76.5 301,-76.5 155,-76.5"/>
<polygon fill="#666666" stroke="#666666" points="155,-61.5 155,-61.5 301,-61.5 301,-61.5 155,-61.5"/>
<polygon fill="none" stroke="#666666" points="155,0 155,-105 301,-105 301,0 155,0"/>
</a>
</g>
</g>
<!-- Node4&#45;&gt;Node5 -->
<g id="edge4" class="edge">
<title>Node4&#45;&gt;Node5</title>
<path fill="none" stroke="#63b8ff" d="M228,-131.51C228,-122.97 228,-114.02 228,-105.35"/>
<polygon fill="none" stroke="#63b8ff" points="224.5,-131.67 228,-141.67 231.5,-131.67 224.5,-131.67"/>
</g>
</g>
</svg>
