<?xml version="1.0" encoding="UTF-8" standalone="no"?>
<!DOCTYPE svg PUBLIC "-//W3C//DTD SVG 1.1//EN"
 "http://www.w3.org/Graphics/SVG/1.1/DTD/svg11.dtd">
<!-- Generated by graphviz version 2.43.0 (0)
 -->
<!-- Title: alps::lin::communication::UbuntuUartIo Pages: 1 -->
<svg width="169pt" height="347pt"
 viewBox="0.00 0.00 169.00 347.00" xmlns="http://www.w3.org/2000/svg" xmlns:xlink="http://www.w3.org/1999/xlink">
<g id="graph0" class="graph" transform="scale(1 1) rotate(0) translate(4 343)">
<title>alps::lin::communication::UbuntuUartIo</title>
<!-- Node1 -->
<g id="node1" class="node">
<title>Node1</title>
<g id="a_node1"><a xlink:title="Ubuntu環境でのUartシリアル通信IOクラス">
<polygon fill="#999999" stroke="transparent" points="135.5,-105 4.5,-105 4.5,0 135.5,0 135.5,-105"/>
<text text-anchor="start" x="10" y="-92.5" font-family="Helvetica,sans-Serif" font-size="10.00">alps::lin::communication</text>
<text text-anchor="start" x="34.5" y="-81.5" font-family="Helvetica,sans-Serif" font-size="10.00">::UbuntuUartIo</text>
<text text-anchor="start" x="67" y="-66.5" font-family="Helvetica,sans-Serif" font-size="10.00"> </text>
<text text-anchor="start" x="16" y="-51.5" font-family="Helvetica,sans-Serif" font-size="10.00">+</text>
<text text-anchor="start" x="36" y="-51.5" font-family="Helvetica,sans-Serif" font-size="10.00">UbuntuUartIo()</text>
<text text-anchor="start" x="16" y="-36.5" font-family="Helvetica,sans-Serif" font-size="10.00">+</text>
<text text-anchor="start" x="36" y="-36.5" font-family="Helvetica,sans-Serif" font-size="10.00">~UbuntuUartIo()</text>
<text text-anchor="start" x="16" y="-21.5" font-family="Helvetica,sans-Serif" font-size="10.00">+</text>
<text text-anchor="start" x="36" y="-21.5" font-family="Helvetica,sans-Serif" font-size="10.00">Write()</text>
<text text-anchor="start" x="16" y="-6.5" font-family="Helvetica,sans-Serif" font-size="10.00">+</text>
<text text-anchor="start" x="36" y="-6.5" font-family="Helvetica,sans-Serif" font-size="10.00">Read()</text>
<polygon fill="#666666" stroke="#666666" points="5,-76.5 5,-76.5 136,-76.5 136,-76.5 5,-76.5"/>
<polygon fill="#666666" stroke="#666666" points="5,-61.5 5,-61.5 136,-61.5 136,-61.5 5,-61.5"/>
<polygon fill="none" stroke="#666666" points="4.5,0 4.5,-105 135.5,-105 135.5,0 4.5,0"/>
</a>
</g>
</g>
<!-- Node2 -->
<g id="node2" class="node">
<title>Node2</title>
<g id="a_node2"><a xlink:href="classalps_1_1cmn_1_1communication_1_1_i_uart_io.html" target="_top" xlink:title=" ">
<polygon fill="white" stroke="transparent" points="140,-217 0,-217 0,-142 140,-142 140,-217"/>
<text text-anchor="start" x="5" y="-204.5" font-family="Helvetica,sans-Serif" font-size="10.00">alps::cmn::communication</text>
<text text-anchor="start" x="6.5" y="-193.5" font-family="Helvetica,sans-Serif" font-size="10.00">::IUartIo&lt; UbuntuUartIo &gt;</text>
<text text-anchor="start" x="66.5" y="-178.5" font-family="Helvetica,sans-Serif" font-size="10.00"> </text>
<text text-anchor="start" x="20.5" y="-163.5" font-family="Helvetica,sans-Serif" font-size="10.00">+</text>
<text text-anchor="start" x="50" y="-163.5" font-family="Helvetica,sans-Serif" font-size="10.00">CallWrite()</text>
<text text-anchor="start" x="20.5" y="-148.5" font-family="Helvetica,sans-Serif" font-size="10.00">+</text>
<text text-anchor="start" x="50" y="-148.5" font-family="Helvetica,sans-Serif" font-size="10.00">CallRead()</text>
<polygon fill="#666666" stroke="#666666" points="0,-188.5 0,-188.5 140,-188.5 140,-188.5 0,-188.5"/>
<polygon fill="#666666" stroke="#666666" points="0,-173.5 0,-173.5 140,-173.5 140,-173.5 0,-173.5"/>
<polygon fill="none" stroke="#666666" points="0,-142 0,-217 140,-217 140,-142 0,-142"/>
</a>
</g>
</g>
<!-- Node2&#45;&gt;Node1 -->
<g id="edge1" class="edge">
<title>Node2&#45;&gt;Node1</title>
<path fill="none" stroke="#63b8ff" d="M70,-131.51C70,-122.97 70,-114.02 70,-105.35"/>
<polygon fill="none" stroke="#63b8ff" points="66.5,-131.67 70,-141.67 73.5,-131.67 66.5,-131.67"/>
</g>
<!-- Node3 -->
<g id="node3" class="node">
<title>Node3</title>
<g id="a_node3"><a xlink:href="classalps_1_1cmn_1_1communication_1_1_i_uart_io.html" target="_top" xlink:title="Uart通信IOのインターフェース">
<polygon fill="white" stroke="transparent" points="140,-339 0,-339 0,-264 140,-264 140,-339"/>
<text text-anchor="start" x="5" y="-326.5" font-family="Helvetica,sans-Serif" font-size="10.00">alps::cmn::communication</text>
<text text-anchor="start" x="20" y="-315.5" font-family="Helvetica,sans-Serif" font-size="10.00">::IUartIo&lt; Derived &gt;</text>
<text text-anchor="start" x="66.5" y="-300.5" font-family="Helvetica,sans-Serif" font-size="10.00"> </text>
<text text-anchor="start" x="20.5" y="-285.5" font-family="Helvetica,sans-Serif" font-size="10.00">+</text>
<text text-anchor="start" x="50" y="-285.5" font-family="Helvetica,sans-Serif" font-size="10.00">CallWrite()</text>
<text text-anchor="start" x="20.5" y="-270.5" font-family="Helvetica,sans-Serif" font-size="10.00">+</text>
<text text-anchor="start" x="50" y="-270.5" font-family="Helvetica,sans-Serif" font-size="10.00">CallRead()</text>
<polygon fill="#666666" stroke="#666666" points="0,-310.5 0,-310.5 140,-310.5 140,-310.5 0,-310.5"/>
<polygon fill="#666666" stroke="#666666" points="0,-295.5 0,-295.5 140,-295.5 140,-295.5 0,-295.5"/>
<polygon fill="none" stroke="#666666" points="0,-264 0,-339 140,-339 140,-264 0,-264"/>
</a>
</g>
</g>
<!-- Node3&#45;&gt;Node2 -->
<g id="edge2" class="edge">
<title>Node3&#45;&gt;Node2</title>
<path fill="none" stroke="orange" d="M70,-253.53C70,-241.51 70,-228.77 70,-217.35"/>
<polygon fill="orange" stroke="orange" points="66.5,-253.84 70,-263.84 73.5,-253.84 66.5,-253.84"/>
<text text-anchor="middle" x="115.5" y="-238" font-family="Helvetica,sans-Serif" font-size="10.00" fill="grey"> &lt; UbuntuUartIo &gt;</text>
</g>
</g>
</svg>
