<?xml version="1.0" encoding="UTF-8" standalone="no"?>
<!DOCTYPE svg PUBLIC "-//W3C//DTD SVG 1.1//EN"
 "http://www.w3.org/Graphics/SVG/1.1/DTD/svg11.dtd">
<!-- Generated by graphviz version 2.43.0 (0)
 -->
<!-- Title: roblab::common::control::Dob Pages: 1 -->
<svg width="328pt" height="457pt"
 viewBox="0.00 0.00 328.00 457.00" xmlns="http://www.w3.org/2000/svg" xmlns:xlink="http://www.w3.org/1999/xlink">
<g id="graph0" class="graph" transform="scale(1 1) rotate(0) translate(4 453)">
<title>roblab::common::control::Dob</title>
<!-- Node1 -->
<g id="node1" class="node">
<title>Node1</title>
<g id="a_node1"><a xlink:title="外乱オブザーバー">
<polygon fill="#999999" stroke="transparent" points="238.5,-214 80.5,-214 80.5,0 238.5,0 238.5,-214"/>
<text text-anchor="start" x="87" y="-202" font-family="Helvetica,sans-Serif" font-size="10.00">roblab::common::control::Dob</text>
<text text-anchor="start" x="156" y="-187" font-family="Helvetica,sans-Serif" font-size="10.00"> </text>
<text text-anchor="start" x="84.5" y="-172" font-family="Helvetica,sans-Serif" font-size="10.00">+</text>
<text text-anchor="start" x="97.5" y="-172" font-family="Helvetica,sans-Serif" font-size="10.00">Dob()</text>
<text text-anchor="start" x="84.5" y="-157" font-family="Helvetica,sans-Serif" font-size="10.00">+</text>
<text text-anchor="start" x="97.5" y="-157" font-family="Helvetica,sans-Serif" font-size="10.00">getCoeff_a_()</text>
<text text-anchor="start" x="84.5" y="-142" font-family="Helvetica,sans-Serif" font-size="10.00">+</text>
<text text-anchor="start" x="97.5" y="-142" font-family="Helvetica,sans-Serif" font-size="10.00">getCoeff_b_()</text>
<text text-anchor="start" x="84.5" y="-127" font-family="Helvetica,sans-Serif" font-size="10.00">+</text>
<text text-anchor="start" x="97.5" y="-127" font-family="Helvetica,sans-Serif" font-size="10.00">getCoeff_c_()</text>
<text text-anchor="start" x="84.5" y="-112" font-family="Helvetica,sans-Serif" font-size="10.00">+</text>
<text text-anchor="start" x="97.5" y="-112" font-family="Helvetica,sans-Serif" font-size="10.00">getPidOutput_()</text>
<text text-anchor="start" x="84.5" y="-97" font-family="Helvetica,sans-Serif" font-size="10.00">+</text>
<text text-anchor="start" x="97.5" y="-97" font-family="Helvetica,sans-Serif" font-size="10.00">getLpfOutput_()</text>
<text text-anchor="start" x="84.5" y="-82" font-family="Helvetica,sans-Serif" font-size="10.00">+</text>
<text text-anchor="start" x="97.5" y="-82" font-family="Helvetica,sans-Serif" font-size="10.00">getDobOutput_()</text>
<text text-anchor="start" x="84.5" y="-67" font-family="Helvetica,sans-Serif" font-size="10.00">+</text>
<text text-anchor="start" x="97.5" y="-67" font-family="Helvetica,sans-Serif" font-size="10.00">getEstimatedDisturbance_()</text>
<text text-anchor="start" x="84.5" y="-52" font-family="Helvetica,sans-Serif" font-size="10.00">+</text>
<text text-anchor="start" x="97.5" y="-52" font-family="Helvetica,sans-Serif" font-size="10.00">setLimitOutput()</text>
<text text-anchor="start" x="84.5" y="-37" font-family="Helvetica,sans-Serif" font-size="10.00">+</text>
<text text-anchor="start" x="97.5" y="-37" font-family="Helvetica,sans-Serif" font-size="10.00">Reset()</text>
<text text-anchor="start" x="84.5" y="-22" font-family="Helvetica,sans-Serif" font-size="10.00">+</text>
<text text-anchor="start" x="97.5" y="-22" font-family="Helvetica,sans-Serif" font-size="10.00">Filter()</text>
<text text-anchor="start" x="84.5" y="-7" font-family="Helvetica,sans-Serif" font-size="10.00">+</text>
<text text-anchor="start" x="97.5" y="-7" font-family="Helvetica,sans-Serif" font-size="10.00">Control()</text>
<polygon fill="#666666" stroke="#666666" points="80.5,-197 80.5,-197 238.5,-197 238.5,-197 80.5,-197"/>
<polygon fill="#666666" stroke="#666666" points="80.5,-182 80.5,-182 238.5,-182 238.5,-182 80.5,-182"/>
<polygon fill="none" stroke="#666666" points="80.5,0 80.5,-214 238.5,-214 238.5,0 80.5,0"/>
</a>
</g>
</g>
<!-- Node2 -->
<g id="node2" class="node">
<title>Node2</title>
<g id="a_node2"><a xlink:href="classroblab_1_1common_1_1control_1_1_pid.html" target="_top" xlink:title="PID制御を行うクラス">
<polygon fill="white" stroke="transparent" points="151,-449 0,-449 0,-250 151,-250 151,-449"/>
<text text-anchor="start" x="5.5" y="-436.5" font-family="Helvetica,sans-Serif" font-size="10.00">roblab::common::control::Pid</text>
<text text-anchor="start" x="72.5" y="-421.5" font-family="Helvetica,sans-Serif" font-size="10.00"> </text>
<text text-anchor="start" x="13.5" y="-406.5" font-family="Helvetica,sans-Serif" font-size="10.00">+</text>
<text text-anchor="start" x="35.5" y="-406.5" font-family="Helvetica,sans-Serif" font-size="10.00">Pid()</text>
<text text-anchor="start" x="13.5" y="-391.5" font-family="Helvetica,sans-Serif" font-size="10.00">+</text>
<text text-anchor="start" x="35.5" y="-391.5" font-family="Helvetica,sans-Serif" font-size="10.00">Init()</text>
<text text-anchor="start" x="13.5" y="-376.5" font-family="Helvetica,sans-Serif" font-size="10.00">+</text>
<text text-anchor="start" x="35.5" y="-376.5" font-family="Helvetica,sans-Serif" font-size="10.00">SetTarget()</text>
<text text-anchor="start" x="13.5" y="-361.5" font-family="Helvetica,sans-Serif" font-size="10.00">+</text>
<text text-anchor="start" x="35.5" y="-361.5" font-family="Helvetica,sans-Serif" font-size="10.00">SetGain()</text>
<text text-anchor="start" x="13.5" y="-346.5" font-family="Helvetica,sans-Serif" font-size="10.00">+</text>
<text text-anchor="start" x="35.5" y="-346.5" font-family="Helvetica,sans-Serif" font-size="10.00">SetEndCondition()</text>
<text text-anchor="start" x="13.5" y="-331.5" font-family="Helvetica,sans-Serif" font-size="10.00">+</text>
<text text-anchor="start" x="35.5" y="-331.5" font-family="Helvetica,sans-Serif" font-size="10.00">SetPreviousValue()</text>
<text text-anchor="start" x="13.5" y="-316.5" font-family="Helvetica,sans-Serif" font-size="10.00">+</text>
<text text-anchor="start" x="35.5" y="-316.5" font-family="Helvetica,sans-Serif" font-size="10.00">SetDiffTimeConst()</text>
<text text-anchor="start" x="13.5" y="-301.5" font-family="Helvetica,sans-Serif" font-size="10.00">+</text>
<text text-anchor="start" x="35.5" y="-301.5" font-family="Helvetica,sans-Serif" font-size="10.00">SetMaxOutput()</text>
<text text-anchor="start" x="13.5" y="-286.5" font-family="Helvetica,sans-Serif" font-size="10.00">+</text>
<text text-anchor="start" x="35.5" y="-286.5" font-family="Helvetica,sans-Serif" font-size="10.00">SetIntegralMax()</text>
<text text-anchor="start" x="13.5" y="-271.5" font-family="Helvetica,sans-Serif" font-size="10.00">+</text>
<text text-anchor="start" x="35.5" y="-271.5" font-family="Helvetica,sans-Serif" font-size="10.00">GetOutputP()</text>
<text text-anchor="start" x="35.5" y="-256.5" font-family="Helvetica,sans-Serif" font-size="10.00">ほか 8 件…</text>
<polygon fill="#666666" stroke="#666666" points="0.5,-431.5 0.5,-431.5 151.5,-431.5 151.5,-431.5 0.5,-431.5"/>
<polygon fill="#666666" stroke="#666666" points="0.5,-416.5 0.5,-416.5 151.5,-416.5 151.5,-416.5 0.5,-416.5"/>
<polygon fill="none" stroke="#666666" points="0,-250 0,-449 151,-449 151,-250 0,-250"/>
</a>
</g>
</g>
<!-- Node2&#45;&gt;Node1 -->
<g id="edge1" class="edge">
<title>Node2&#45;&gt;Node1</title>
<path fill="none" stroke="#63b8ff" d="M113.21,-240.53C116.27,-231.77 119.36,-222.92 122.41,-214.18"/>
<polygon fill="none" stroke="#63b8ff" points="109.9,-239.39 109.91,-249.99 116.51,-241.7 109.9,-239.39"/>
</g>
<!-- Node3 -->
<g id="node3" class="node">
<title>Node3</title>
<g id="a_node3"><a xlink:href="classroblab_1_1common_1_1control_1_1_lpf.html" target="_top" xlink:title="ローパスフィルタのクラス">
<polygon fill="white" stroke="transparent" points="320,-404 169,-404 169,-295 320,-295 320,-404"/>
<text text-anchor="start" x="174.5" y="-391.5" font-family="Helvetica,sans-Serif" font-size="10.00">roblab::common::control::Lpf</text>
<text text-anchor="start" x="241.5" y="-376.5" font-family="Helvetica,sans-Serif" font-size="10.00"> </text>
<text text-anchor="start" x="187" y="-361.5" font-family="Helvetica,sans-Serif" font-size="10.00">+</text>
<text text-anchor="start" x="213.5" y="-361.5" font-family="Helvetica,sans-Serif" font-size="10.00">Lpf()</text>
<text text-anchor="start" x="187" y="-346.5" font-family="Helvetica,sans-Serif" font-size="10.00">+</text>
<text text-anchor="start" x="213.5" y="-346.5" font-family="Helvetica,sans-Serif" font-size="10.00">SetTimeConst()</text>
<text text-anchor="start" x="187" y="-331.5" font-family="Helvetica,sans-Serif" font-size="10.00">+</text>
<text text-anchor="start" x="213.5" y="-331.5" font-family="Helvetica,sans-Serif" font-size="10.00">SetInputPrev()</text>
<text text-anchor="start" x="187" y="-316.5" font-family="Helvetica,sans-Serif" font-size="10.00">+</text>
<text text-anchor="start" x="213.5" y="-316.5" font-family="Helvetica,sans-Serif" font-size="10.00">Reset()</text>
<text text-anchor="start" x="187" y="-301.5" font-family="Helvetica,sans-Serif" font-size="10.00">+</text>
<text text-anchor="start" x="213.5" y="-301.5" font-family="Helvetica,sans-Serif" font-size="10.00">Filter()</text>
<polygon fill="#666666" stroke="#666666" points="169.5,-386.5 169.5,-386.5 320.5,-386.5 320.5,-386.5 169.5,-386.5"/>
<polygon fill="#666666" stroke="#666666" points="169.5,-371.5 169.5,-371.5 320.5,-371.5 320.5,-371.5 169.5,-371.5"/>
<polygon fill="none" stroke="#666666" points="169,-295 169,-404 320,-404 320,-295 169,-295"/>
</a>
</g>
</g>
<!-- Node3&#45;&gt;Node1 -->
<g id="edge2" class="edge">
<title>Node3&#45;&gt;Node1</title>
<path fill="none" stroke="#63b8ff" d="M222.19,-285.38C214.49,-263.58 205.63,-238.52 197.05,-214.24"/>
<polygon fill="none" stroke="#63b8ff" points="218.9,-286.56 225.53,-294.83 225.5,-284.23 218.9,-286.56"/>
</g>
</g>
</svg>
