<?xml version="1.0" encoding="UTF-8" standalone="no"?>
<!DOCTYPE svg PUBLIC "-//W3C//DTD SVG 1.1//EN"
 "http://www.w3.org/Graphics/SVG/1.1/DTD/svg11.dtd">
<!-- Generated by graphviz version 2.43.0 (0)
 -->
<!-- Title: roblab::mbed::serial::CanIo Pages: 1 -->
<svg width="131pt" height="194pt"
 viewBox="0.00 0.00 131.00 194.00" xmlns="http://www.w3.org/2000/svg" xmlns:xlink="http://www.w3.org/1999/xlink">
<g id="graph0" class="graph" transform="scale(1 1) rotate(0) translate(4 190)">
<title>roblab::mbed::serial::CanIo</title>
<!-- Node1 -->
<g id="node1" class="node">
<title>Node1</title>
<g id="a_node1"><a xlink:title=" ">
<polygon fill="#999999" stroke="transparent" points="115.5,-90 7.5,-90 7.5,0 115.5,0 115.5,-90"/>
<text text-anchor="start" x="12.5" y="-78" font-family="Helvetica,sans-Serif" font-size="10.00">roblab::mbed::serial</text>
<text text-anchor="start" x="44.5" y="-67" font-family="Helvetica,sans-Serif" font-size="10.00">::CanIo</text>
<text text-anchor="start" x="58" y="-52" font-family="Helvetica,sans-Serif" font-size="10.00"> </text>
<text text-anchor="start" x="15.5" y="-37" font-family="Helvetica,sans-Serif" font-size="10.00">+</text>
<text text-anchor="start" x="32.5" y="-37" font-family="Helvetica,sans-Serif" font-size="10.00">CanIo()</text>
<text text-anchor="start" x="15.5" y="-22" font-family="Helvetica,sans-Serif" font-size="10.00">+</text>
<text text-anchor="start" x="32.5" y="-22" font-family="Helvetica,sans-Serif" font-size="10.00">TryReadImpl()</text>
<text text-anchor="start" x="15.5" y="-7" font-family="Helvetica,sans-Serif" font-size="10.00">+</text>
<text text-anchor="start" x="32.5" y="-7" font-family="Helvetica,sans-Serif" font-size="10.00">WriteImpl()</text>
<polygon fill="#666666" stroke="#666666" points="7.5,-62 7.5,-62 115.5,-62 115.5,-62 7.5,-62"/>
<polygon fill="#666666" stroke="#666666" points="7.5,-47 7.5,-47 115.5,-47 115.5,-47 7.5,-47"/>
<polygon fill="none" stroke="#666666" points="7.5,0 7.5,-90 115.5,-90 115.5,0 7.5,0"/>
</a>
</g>
</g>
<!-- Node2 -->
<g id="node2" class="node">
<title>Node2</title>
<g id="a_node2"><a xlink:title=" ">
<polygon fill="white" stroke="transparent" points="123,-186 0,-186 0,-126 123,-126 123,-186"/>
<text text-anchor="start" x="5.5" y="-174" font-family="Helvetica,sans-Serif" font-size="10.00">common::serial::ICanIo</text>
<text text-anchor="start" x="36.5" y="-163" font-family="Helvetica,sans-Serif" font-size="10.00">&lt; CanIo &gt;</text>
<text text-anchor="start" x="58.5" y="-148" font-family="Helvetica,sans-Serif" font-size="10.00"> </text>
<text text-anchor="start" x="58.5" y="-133" font-family="Helvetica,sans-Serif" font-size="10.00"> </text>
<polygon fill="#666666" stroke="#666666" points="0.5,-158 0.5,-158 123.5,-158 123.5,-158 0.5,-158"/>
<polygon fill="#666666" stroke="#666666" points="0.5,-143 0.5,-143 123.5,-143 123.5,-143 0.5,-143"/>
<polygon fill="none" stroke="#666666" points="0,-126 0,-186 123,-186 123,-126 0,-126"/>
</a>
</g>
</g>
<!-- Node2&#45;&gt;Node1 -->
<g id="edge1" class="edge">
<title>Node2&#45;&gt;Node1</title>
<path fill="none" stroke="#63b8ff" d="M61.5,-115.62C61.5,-107.32 61.5,-98.52 61.5,-90.06"/>
<polygon fill="none" stroke="#63b8ff" points="58,-115.79 61.5,-125.79 65,-115.79 58,-115.79"/>
</g>
</g>
</svg>
