<?xml version="1.0" encoding="UTF-8" standalone="no"?>
<!DOCTYPE svg PUBLIC "-//W3C//DTD SVG 1.1//EN"
 "http://www.w3.org/Graphics/SVG/1.1/DTD/svg11.dtd">
<!-- Generated by graphviz version 2.43.0 (0)
 -->
<!-- Title: alps::lin::communication::UartIo Pages: 1 -->
<svg width="148pt" height="224pt"
 viewBox="0.00 0.00 148.00 224.00" xmlns="http://www.w3.org/2000/svg" xmlns:xlink="http://www.w3.org/1999/xlink">
<g id="graph0" class="graph" transform="scale(1 1) rotate(0) translate(4 220)">
<title>alps::lin::communication::UartIo</title>
<!-- Node1 -->
<g id="Node000001" class="node">
<title>Node1</title>
<g id="a_Node000001"><a xlink:title="Linux環境でのUart通信IOクラス">
<polygon fill="#999999" stroke="transparent" points="135.5,-105 4.5,-105 4.5,0 135.5,0 135.5,-105"/>
<text text-anchor="start" x="10" y="-92.5" font-family="Helvetica,sans-Serif" font-size="10.00">alps::lin::communication</text>
<text text-anchor="start" x="52" y="-81.5" font-family="Helvetica,sans-Serif" font-size="10.00">::UartIo</text>
<text text-anchor="start" x="68.5" y="-66.5" font-family="Helvetica,sans-Serif" font-size="10.00"> </text>
<text text-anchor="start" x="25" y="-51.5" font-family="Helvetica,sans-Serif" font-size="10.00">+</text>
<text text-anchor="start" x="54" y="-51.5" font-family="Helvetica,sans-Serif" font-size="10.00">UartIo()</text>
<text text-anchor="start" x="25" y="-36.5" font-family="Helvetica,sans-Serif" font-size="10.00">+</text>
<text text-anchor="start" x="54" y="-36.5" font-family="Helvetica,sans-Serif" font-size="10.00">~UartIo()</text>
<text text-anchor="start" x="25" y="-21.5" font-family="Helvetica,sans-Serif" font-size="10.00">+</text>
<text text-anchor="start" x="54" y="-21.5" font-family="Helvetica,sans-Serif" font-size="10.00">Write()</text>
<text text-anchor="start" x="25" y="-6.5" font-family="Helvetica,sans-Serif" font-size="10.00">+</text>
<text text-anchor="start" x="54" y="-6.5" font-family="Helvetica,sans-Serif" font-size="10.00">Read()</text>
<polygon fill="#666666" stroke="#666666" points="5,-76.5 5,-76.5 136,-76.5 136,-76.5 5,-76.5"/>
<polygon fill="#666666" stroke="#666666" points="5,-61.5 5,-61.5 136,-61.5 136,-61.5 5,-61.5"/>
<polygon fill="none" stroke="#666666" points="4.5,0 4.5,-105 135.5,-105 135.5,0 4.5,0"/>
</a>
</g>
</g>
<!-- Node2 -->
<g id="Node000002" class="node">
<title>Node2</title>
<g id="a_Node000002"><a xlink:href="classalps_1_1cmn_1_1communication_1_1_i_uart_io.html" target="_top" xlink:title=" ">
<polygon fill="white" stroke="transparent" points="140,-216 0,-216 0,-141 140,-141 140,-216"/>
<text text-anchor="start" x="5" y="-203.5" font-family="Helvetica,sans-Serif" font-size="10.00">alps::cmn::communication</text>
<text text-anchor="start" x="24" y="-192.5" font-family="Helvetica,sans-Serif" font-size="10.00">::IUartIo&lt; UartIo &gt;</text>
<text text-anchor="start" x="68" y="-177.5" font-family="Helvetica,sans-Serif" font-size="10.00"> </text>
<text text-anchor="start" x="20.5" y="-162.5" font-family="Helvetica,sans-Serif" font-size="10.00">+</text>
<text text-anchor="start" x="50" y="-162.5" font-family="Helvetica,sans-Serif" font-size="10.00">CallWrite()</text>
<text text-anchor="start" x="20.5" y="-147.5" font-family="Helvetica,sans-Serif" font-size="10.00">+</text>
<text text-anchor="start" x="50" y="-147.5" font-family="Helvetica,sans-Serif" font-size="10.00">CallRead()</text>
<polygon fill="#666666" stroke="#666666" points="0,-187.5 0,-187.5 140,-187.5 140,-187.5 0,-187.5"/>
<polygon fill="#666666" stroke="#666666" points="0,-172.5 0,-172.5 140,-172.5 140,-172.5 0,-172.5"/>
<polygon fill="none" stroke="#666666" points="0,-141 0,-216 140,-216 140,-141 0,-141"/>
</a>
</g>
</g>
<!-- Node2&#45;&gt;Node1 -->
<g id="edge1_Node000001_Node000002" class="edge">
<title>Node2&#45;&gt;Node1</title>
<g id="a_edge1_Node000001_Node000002"><a xlink:title=" ">
<path fill="none" stroke="#63b8ff" d="M70,-130.74C70,-122.46 70,-113.8 70,-105.39"/>
<polygon fill="none" stroke="#63b8ff" points="66.5,-130.97 70,-140.97 73.5,-130.97 66.5,-130.97"/>
</a>
</g>
</g>
</g>
</svg>
