<?xml version="1.0" encoding="UTF-8" standalone="no"?>
<!DOCTYPE svg PUBLIC "-//W3C//DTD SVG 1.1//EN"
 "http://www.w3.org/Graphics/SVG/1.1/DTD/svg11.dtd">
<!-- Generated by graphviz version 2.43.0 (0)
 -->
<!-- Title: alps::mbed::gpio::PwmOut Pages: 1 -->
<svg width="456pt" height="306pt"
 viewBox="0.00 0.00 456.00 306.00" xmlns="http://www.w3.org/2000/svg" xmlns:xlink="http://www.w3.org/1999/xlink">
<g id="graph0" class="graph" transform="scale(1 1) rotate(0) translate(4 302)">
<title>alps::mbed::gpio::PwmOut</title>
<!-- Node1 -->
<g id="node1" class="node">
<title>Node1</title>
<g id="a_node1"><a xlink:title="PWM出力ピン">
<polygon fill="#999999" stroke="transparent" points="298.5,-94 159.5,-94 159.5,0 298.5,0 298.5,-94"/>
<text text-anchor="start" x="165" y="-82" font-family="Helvetica,sans-Serif" font-size="10.00">alps::mbed::gpio::PwmOut</text>
<text text-anchor="start" x="226" y="-67" font-family="Helvetica,sans-Serif" font-size="10.00"> </text>
<text text-anchor="start" x="173.5" y="-52" font-family="Helvetica,sans-Serif" font-size="10.00">+</text>
<text text-anchor="start" x="196" y="-52" font-family="Helvetica,sans-Serif" font-size="10.00">PwmOut()</text>
<text text-anchor="start" x="173.5" y="-37" font-family="Helvetica,sans-Serif" font-size="10.00">+</text>
<text text-anchor="start" x="196" y="-37" font-family="Helvetica,sans-Serif" font-size="10.00">Write()</text>
<text text-anchor="start" x="173.5" y="-22" font-family="Helvetica,sans-Serif" font-size="10.00">+</text>
<text text-anchor="start" x="196" y="-22" font-family="Helvetica,sans-Serif" font-size="10.00">SetPeriod()</text>
<text text-anchor="start" x="173.5" y="-7" font-family="Helvetica,sans-Serif" font-size="10.00">+</text>
<text text-anchor="start" x="196" y="-7" font-family="Helvetica,sans-Serif" font-size="10.00">SetPulseWidth()</text>
<polygon fill="#666666" stroke="#666666" points="160,-77 160,-77 299,-77 299,-77 160,-77"/>
<polygon fill="#666666" stroke="#666666" points="160,-62 160,-62 299,-62 299,-62 160,-62"/>
<polygon fill="none" stroke="#666666" points="159.5,0 159.5,-94 298.5,-94 298.5,0 159.5,0"/>
</a>
</g>
</g>
<!-- Node2 -->
<g id="node2" class="node">
<title>Node2</title>
<g id="a_node2"><a xlink:href="classalps_1_1cmn_1_1gpio_1_1_i_pwm_write.html" target="_top" xlink:title=" ">
<polygon fill="white" stroke="transparent" points="144,-191 0,-191 0,-131 144,-131 144,-191"/>
<text text-anchor="start" x="5" y="-179" font-family="Helvetica,sans-Serif" font-size="10.00">alps::cmn::gpio::IPwmWrite</text>
<text text-anchor="start" x="40" y="-168" font-family="Helvetica,sans-Serif" font-size="10.00">&lt; PwmOut &gt;</text>
<text text-anchor="start" x="68.5" y="-153" font-family="Helvetica,sans-Serif" font-size="10.00"> </text>
<text text-anchor="start" x="21.5" y="-138" font-family="Helvetica,sans-Serif" font-size="10.00">+</text>
<text text-anchor="start" x="52" y="-138" font-family="Helvetica,sans-Serif" font-size="10.00">CallWrite()</text>
<polygon fill="#666666" stroke="#666666" points="0,-163 0,-163 144,-163 144,-163 0,-163"/>
<polygon fill="#666666" stroke="#666666" points="0,-148 0,-148 144,-148 144,-148 0,-148"/>
<polygon fill="none" stroke="#666666" points="0,-131 0,-191 144,-191 144,-131 0,-131"/>
</a>
</g>
</g>
<!-- Node2&#45;&gt;Node1 -->
<g id="edge1" class="edge">
<title>Node2&#45;&gt;Node1</title>
<path fill="none" stroke="#63b8ff" d="M121.16,-124.93C134.84,-115.17 149.91,-104.42 164.34,-94.13"/>
<polygon fill="none" stroke="#63b8ff" points="118.95,-122.21 112.84,-130.87 123.01,-127.91 118.95,-122.21"/>
</g>
<!-- Node3 -->
<g id="node3" class="node">
<title>Node3</title>
<g id="a_node3"><a xlink:href="classalps_1_1cmn_1_1gpio_1_1_i_pwm_write.html" target="_top" xlink:title="PWM出力を行うインタフェース">
<polygon fill="white" stroke="transparent" points="144,-298 0,-298 0,-238 144,-238 144,-298"/>
<text text-anchor="start" x="5" y="-286" font-family="Helvetica,sans-Serif" font-size="10.00">alps::cmn::gpio::IPwmWrite</text>
<text text-anchor="start" x="41.5" y="-275" font-family="Helvetica,sans-Serif" font-size="10.00">&lt; Derived &gt;</text>
<text text-anchor="start" x="68.5" y="-260" font-family="Helvetica,sans-Serif" font-size="10.00"> </text>
<text text-anchor="start" x="21.5" y="-245" font-family="Helvetica,sans-Serif" font-size="10.00">+</text>
<text text-anchor="start" x="52" y="-245" font-family="Helvetica,sans-Serif" font-size="10.00">CallWrite()</text>
<polygon fill="#666666" stroke="#666666" points="0,-270 0,-270 144,-270 144,-270 0,-270"/>
<polygon fill="#666666" stroke="#666666" points="0,-255 0,-255 144,-255 144,-255 0,-255"/>
<polygon fill="none" stroke="#666666" points="0,-238 0,-298 144,-298 144,-238 0,-238"/>
</a>
</g>
</g>
<!-- Node3&#45;&gt;Node2 -->
<g id="edge2" class="edge">
<title>Node3&#45;&gt;Node2</title>
<path fill="none" stroke="orange" d="M72,-227.46C72,-215.39 72,-202.34 72,-191.09"/>
<polygon fill="orange" stroke="orange" points="68.5,-227.75 72,-237.75 75.5,-227.75 68.5,-227.75"/>
<text text-anchor="middle" x="105.5" y="-212" font-family="Helvetica,sans-Serif" font-size="10.00" fill="grey"> &lt; PwmOut &gt;</text>
</g>
<!-- Node4 -->
<g id="node4" class="node">
<title>Node4</title>
<g id="a_node4"><a xlink:href="classalps_1_1cmn_1_1gpio_1_1_i_pwm_set_period.html" target="_top" xlink:title=" ">
<polygon fill="white" stroke="transparent" points="296,-191 162,-191 162,-131 296,-131 296,-191"/>
<text text-anchor="start" x="167" y="-179" font-family="Helvetica,sans-Serif" font-size="10.00">alps::cmn::gpio::IPwmSet</text>
<text text-anchor="start" x="181.5" y="-168" font-family="Helvetica,sans-Serif" font-size="10.00">Period&lt; PwmOut &gt;</text>
<text text-anchor="start" x="225.5" y="-153" font-family="Helvetica,sans-Serif" font-size="10.00"> </text>
<text text-anchor="start" x="176" y="-138" font-family="Helvetica,sans-Serif" font-size="10.00">+</text>
<text text-anchor="start" x="199" y="-138" font-family="Helvetica,sans-Serif" font-size="10.00">CallSetPeriod()</text>
<polygon fill="#666666" stroke="#666666" points="162,-163 162,-163 296,-163 296,-163 162,-163"/>
<polygon fill="#666666" stroke="#666666" points="162,-148 162,-148 296,-148 296,-148 162,-148"/>
<polygon fill="none" stroke="#666666" points="162,-131 162,-191 296,-191 296,-131 162,-131"/>
</a>
</g>
</g>
<!-- Node4&#45;&gt;Node1 -->
<g id="edge3" class="edge">
<title>Node4&#45;&gt;Node1</title>
<path fill="none" stroke="#63b8ff" d="M229,-120.79C229,-112.25 229,-103.13 229,-94.35"/>
<polygon fill="none" stroke="#63b8ff" points="225.5,-120.87 229,-130.87 232.5,-120.87 225.5,-120.87"/>
</g>
<!-- Node5 -->
<g id="node5" class="node">
<title>Node5</title>
<g id="a_node5"><a xlink:href="classalps_1_1cmn_1_1gpio_1_1_i_pwm_set_period.html" target="_top" xlink:title="PWMの周期を設定するインタフェース">
<polygon fill="white" stroke="transparent" points="296,-298 162,-298 162,-238 296,-238 296,-298"/>
<text text-anchor="start" x="167" y="-286" font-family="Helvetica,sans-Serif" font-size="10.00">alps::cmn::gpio::IPwmSet</text>
<text text-anchor="start" x="183" y="-275" font-family="Helvetica,sans-Serif" font-size="10.00">Period&lt; Derived &gt;</text>
<text text-anchor="start" x="225.5" y="-260" font-family="Helvetica,sans-Serif" font-size="10.00"> </text>
<text text-anchor="start" x="176" y="-245" font-family="Helvetica,sans-Serif" font-size="10.00">+</text>
<text text-anchor="start" x="199" y="-245" font-family="Helvetica,sans-Serif" font-size="10.00">CallSetPeriod()</text>
<polygon fill="#666666" stroke="#666666" points="162,-270 162,-270 296,-270 296,-270 162,-270"/>
<polygon fill="#666666" stroke="#666666" points="162,-255 162,-255 296,-255 296,-255 162,-255"/>
<polygon fill="none" stroke="#666666" points="162,-238 162,-298 296,-298 296,-238 162,-238"/>
</a>
</g>
</g>
<!-- Node5&#45;&gt;Node4 -->
<g id="edge4" class="edge">
<title>Node5&#45;&gt;Node4</title>
<path fill="none" stroke="orange" d="M229,-227.46C229,-215.39 229,-202.34 229,-191.09"/>
<polygon fill="orange" stroke="orange" points="225.5,-227.75 229,-237.75 232.5,-227.75 225.5,-227.75"/>
<text text-anchor="middle" x="262.5" y="-212" font-family="Helvetica,sans-Serif" font-size="10.00" fill="grey"> &lt; PwmOut &gt;</text>
</g>
<!-- Node6 -->
<g id="node6" class="node">
<title>Node6</title>
<g id="a_node6"><a xlink:href="classalps_1_1cmn_1_1gpio_1_1_i_pwm_set_pulse_width.html" target="_top" xlink:title=" ">
<polygon fill="white" stroke="transparent" points="448,-191 314,-191 314,-131 448,-131 448,-191"/>
<text text-anchor="start" x="319" y="-179" font-family="Helvetica,sans-Serif" font-size="10.00">alps::cmn::gpio::IPwmSet</text>
<text text-anchor="start" x="321.5" y="-168" font-family="Helvetica,sans-Serif" font-size="10.00">PulseWidth&lt; PwmOut &gt;</text>
<text text-anchor="start" x="377.5" y="-153" font-family="Helvetica,sans-Serif" font-size="10.00"> </text>
<text text-anchor="start" x="322" y="-138" font-family="Helvetica,sans-Serif" font-size="10.00">+</text>
<text text-anchor="start" x="339" y="-138" font-family="Helvetica,sans-Serif" font-size="10.00">CallSetPulseWidth()</text>
<polygon fill="#666666" stroke="#666666" points="314,-163 314,-163 448,-163 448,-163 314,-163"/>
<polygon fill="#666666" stroke="#666666" points="314,-148 314,-148 448,-148 448,-148 314,-148"/>
<polygon fill="none" stroke="#666666" points="314,-131 314,-191 448,-191 448,-131 314,-131"/>
</a>
</g>
</g>
<!-- Node6&#45;&gt;Node1 -->
<g id="edge5" class="edge">
<title>Node6&#45;&gt;Node1</title>
<path fill="none" stroke="#63b8ff" d="M333.41,-124.93C320.16,-115.17 305.57,-104.42 291.6,-94.13"/>
<polygon fill="none" stroke="#63b8ff" points="331.33,-127.75 341.46,-130.87 335.49,-122.12 331.33,-127.75"/>
</g>
<!-- Node7 -->
<g id="node7" class="node">
<title>Node7</title>
<g id="a_node7"><a xlink:href="classalps_1_1cmn_1_1gpio_1_1_i_pwm_set_pulse_width.html" target="_top" xlink:title="PWMのパルス幅を時間で指定し出力するインタフェース">
<polygon fill="white" stroke="transparent" points="448,-298 314,-298 314,-238 448,-238 448,-298"/>
<text text-anchor="start" x="319" y="-286" font-family="Helvetica,sans-Serif" font-size="10.00">alps::cmn::gpio::IPwmSet</text>
<text text-anchor="start" x="323" y="-275" font-family="Helvetica,sans-Serif" font-size="10.00">PulseWidth&lt; Derived &gt;</text>
<text text-anchor="start" x="377.5" y="-260" font-family="Helvetica,sans-Serif" font-size="10.00"> </text>
<text text-anchor="start" x="322" y="-245" font-family="Helvetica,sans-Serif" font-size="10.00">+</text>
<text text-anchor="start" x="339" y="-245" font-family="Helvetica,sans-Serif" font-size="10.00">CallSetPulseWidth()</text>
<polygon fill="#666666" stroke="#666666" points="314,-270 314,-270 448,-270 448,-270 314,-270"/>
<polygon fill="#666666" stroke="#666666" points="314,-255 314,-255 448,-255 448,-255 314,-255"/>
<polygon fill="none" stroke="#666666" points="314,-238 314,-298 448,-298 448,-238 314,-238"/>
</a>
</g>
</g>
<!-- Node7&#45;&gt;Node6 -->
<g id="edge6" class="edge">
<title>Node7&#45;&gt;Node6</title>
<path fill="none" stroke="orange" d="M381,-227.46C381,-215.39 381,-202.34 381,-191.09"/>
<polygon fill="orange" stroke="orange" points="377.5,-227.75 381,-237.75 384.5,-227.75 377.5,-227.75"/>
<text text-anchor="middle" x="414.5" y="-212" font-family="Helvetica,sans-Serif" font-size="10.00" fill="grey"> &lt; PwmOut &gt;</text>
</g>
</g>
</svg>
