<?xml version="1.0" encoding="UTF-8" standalone="no"?>
<!DOCTYPE svg PUBLIC "-//W3C//DTD SVG 1.1//EN"
 "http://www.w3.org/Graphics/SVG/1.1/DTD/svg11.dtd">
<!-- Generated by graphviz version 2.43.0 (0)
 -->
<!-- Title: CanIo Pages: 1 -->
<svg width="100pt" height="172pt"
 viewBox="0.00 0.00 100.00 172.00" xmlns="http://www.w3.org/2000/svg" xmlns:xlink="http://www.w3.org/1999/xlink">
<g id="graph0" class="graph" transform="scale(1 1) rotate(0) translate(4 168)">
<title>CanIo</title>
<!-- Node1 -->
<g id="node1" class="node">
<title>Node1</title>
<g id="a_node1"><a xlink:title=" ">
<polygon fill="#999999" stroke="transparent" points="91.5,-79 0.5,-79 0.5,0 91.5,0 91.5,-79"/>
<text text-anchor="start" x="32.5" y="-66.5" font-family="Helvetica,sans-Serif" font-size="10.00">CanIo</text>
<text text-anchor="start" x="43" y="-51.5" font-family="Helvetica,sans-Serif" font-size="10.00"> </text>
<text text-anchor="start" x="5" y="-36.5" font-family="Helvetica,sans-Serif" font-size="10.00">+</text>
<text text-anchor="start" x="18" y="-36.5" font-family="Helvetica,sans-Serif" font-size="10.00">CanIo()</text>
<text text-anchor="start" x="5" y="-21.5" font-family="Helvetica,sans-Serif" font-size="10.00">+</text>
<text text-anchor="start" x="18" y="-21.5" font-family="Helvetica,sans-Serif" font-size="10.00">TryReadImpl()</text>
<text text-anchor="start" x="5" y="-6.5" font-family="Helvetica,sans-Serif" font-size="10.00">+</text>
<text text-anchor="start" x="18" y="-6.5" font-family="Helvetica,sans-Serif" font-size="10.00">WriteImpl()</text>
<polygon fill="#666666" stroke="#666666" points="1,-61.5 1,-61.5 92,-61.5 92,-61.5 1,-61.5"/>
<polygon fill="#666666" stroke="#666666" points="1,-46.5 1,-46.5 92,-46.5 92,-46.5 1,-46.5"/>
<polygon fill="none" stroke="#666666" points="0.5,0 0.5,-79 91.5,-79 91.5,0 0.5,0"/>
</a>
</g>
</g>
<!-- Node2 -->
<g id="node2" class="node">
<title>Node2</title>
<g id="a_node2"><a xlink:title=" ">
<polygon fill="white" stroke="transparent" points="92,-164 0,-164 0,-115 92,-115 92,-164"/>
<text text-anchor="start" x="5" y="-151.5" font-family="Helvetica,sans-Serif" font-size="10.00">ICanIo&lt; CanIo &gt;</text>
<text text-anchor="start" x="42.5" y="-136.5" font-family="Helvetica,sans-Serif" font-size="10.00"> </text>
<text text-anchor="start" x="42.5" y="-121.5" font-family="Helvetica,sans-Serif" font-size="10.00"> </text>
<polygon fill="#666666" stroke="#666666" points="0,-146.5 0,-146.5 92,-146.5 92,-146.5 0,-146.5"/>
<polygon fill="#666666" stroke="#666666" points="0,-131.5 0,-131.5 92,-131.5 92,-131.5 0,-131.5"/>
<polygon fill="none" stroke="#666666" points="0,-115 0,-164 92,-164 92,-115 0,-115"/>
</a>
</g>
</g>
<!-- Node2&#45;&gt;Node1 -->
<g id="edge1" class="edge">
<title>Node2&#45;&gt;Node1</title>
<path fill="none" stroke="#63b8ff" d="M46,-104.52C46,-96.38 46,-87.63 46,-79.29"/>
<polygon fill="none" stroke="#63b8ff" points="42.5,-104.78 46,-114.78 49.5,-104.78 42.5,-104.78"/>
</g>
</g>
</svg>
