<?xml version="1.0" encoding="UTF-8" standalone="no"?>
<!DOCTYPE svg PUBLIC "-//W3C//DTD SVG 1.1//EN"
 "http://www.w3.org/Graphics/SVG/1.1/DTD/svg11.dtd">
<!-- Generated by graphviz version 2.43.0 (0)
 -->
<!-- Title: DcMotor Pages: 1 -->
<svg width="214pt" height="376pt"
 viewBox="0.00 0.00 213.50 376.00" xmlns="http://www.w3.org/2000/svg" xmlns:xlink="http://www.w3.org/1999/xlink">
<g id="graph0" class="graph" transform="scale(1 1) rotate(0) translate(4 372)">
<title>DcMotor</title>
<!-- Node1 -->
<g id="node1" class="node">
<title>Node1</title>
<g id="a_node1"><a xlink:title="PWMピンと方向指定ピンで動かすDCモーターのmbed用実装">
<polygon fill="#999999" stroke="transparent" points="115.5,-49 45.5,-49 45.5,0 115.5,0 115.5,-49"/>
<text text-anchor="start" x="59.5" y="-36.5" font-family="Helvetica,sans-Serif" font-size="10.00">DcMotor</text>
<text text-anchor="start" x="77" y="-21.5" font-family="Helvetica,sans-Serif" font-size="10.00"> </text>
<text text-anchor="start" x="49.5" y="-6.5" font-family="Helvetica,sans-Serif" font-size="10.00">+</text>
<text text-anchor="start" x="62.5" y="-6.5" font-family="Helvetica,sans-Serif" font-size="10.00">DcMotor()</text>
<polygon fill="#666666" stroke="#666666" points="45.5,-31.5 45.5,-31.5 115.5,-31.5 115.5,-31.5 45.5,-31.5"/>
<polygon fill="#666666" stroke="#666666" points="45.5,-16.5 45.5,-16.5 115.5,-16.5 115.5,-16.5 45.5,-16.5"/>
<polygon fill="none" stroke="#666666" points="45.5,0 45.5,-49 115.5,-49 115.5,0 45.5,0"/>
</a>
</g>
</g>
<!-- Node2 -->
<g id="node2" class="node">
<title>Node2</title>
<g id="a_node2"><a xlink:href="classroblab_1_1common_1_1actuator_1_1_dc_motor_base.html" target="_top" xlink:title=" ">
<polygon fill="white" stroke="transparent" points="150.5,-198 10.5,-198 10.5,-86 150.5,-86 150.5,-198"/>
<text text-anchor="start" x="15.5" y="-186" font-family="Helvetica,sans-Serif" font-size="10.00">DcMotorBase&lt; mbed::</text>
<text text-anchor="start" x="15.5" y="-175" font-family="Helvetica,sans-Serif" font-size="10.00">gpio::PwmOut, mbed::</text>
<text text-anchor="start" x="15.5" y="-164" font-family="Helvetica,sans-Serif" font-size="10.00">gpio::PwmOut, mbed::gpio</text>
<text text-anchor="start" x="47" y="-153" font-family="Helvetica,sans-Serif" font-size="10.00">::DigitalOut &gt;</text>
<text text-anchor="start" x="77" y="-138" font-family="Helvetica,sans-Serif" font-size="10.00"> </text>
<text text-anchor="start" x="26" y="-123" font-family="Helvetica,sans-Serif" font-size="10.00">+</text>
<text text-anchor="start" x="50.5" y="-123" font-family="Helvetica,sans-Serif" font-size="10.00">DcMotorBase()</text>
<text text-anchor="start" x="26" y="-108" font-family="Helvetica,sans-Serif" font-size="10.00">+</text>
<text text-anchor="start" x="50.5" y="-108" font-family="Helvetica,sans-Serif" font-size="10.00">Drive()</text>
<text text-anchor="start" x="26" y="-93" font-family="Helvetica,sans-Serif" font-size="10.00">#</text>
<text text-anchor="start" x="50.5" y="-93" font-family="Helvetica,sans-Serif" font-size="10.00">SetInterface()</text>
<polygon fill="#666666" stroke="#666666" points="10.5,-148 10.5,-148 150.5,-148 150.5,-148 10.5,-148"/>
<polygon fill="#666666" stroke="#666666" points="10.5,-133 10.5,-133 150.5,-133 150.5,-133 10.5,-133"/>
<polygon fill="none" stroke="#666666" points="10.5,-86 10.5,-198 150.5,-198 150.5,-86 10.5,-86"/>
</a>
</g>
</g>
<!-- Node2&#45;&gt;Node1 -->
<g id="edge1" class="edge">
<title>Node2&#45;&gt;Node1</title>
<path fill="none" stroke="#63b8ff" d="M80.5,-75.9C80.5,-66.3 80.5,-56.98 80.5,-49.01"/>
<polygon fill="none" stroke="#63b8ff" points="77,-75.96 80.5,-85.96 84,-75.96 77,-75.96"/>
</g>
<!-- Node3 -->
<g id="node3" class="node">
<title>Node3</title>
<g id="a_node3"><a xlink:href="classroblab_1_1common_1_1actuator_1_1_dc_motor_base.html" target="_top" xlink:title="PWMピンと方向指定ピンで動かすDCモーターの共通実装">
<polygon fill="white" stroke="transparent" points="161,-368 0,-368 0,-267 161,-267 161,-368"/>
<text text-anchor="start" x="5.5" y="-355.5" font-family="Helvetica,sans-Serif" font-size="10.00">DcMotorBase&lt; IPwmSetPeriod</text>
<text text-anchor="start" x="5.5" y="-344.5" font-family="Helvetica,sans-Serif" font-size="10.00">Impl, IPwmSetPulseWidthImpl,</text>
<text text-anchor="start" x="32" y="-333.5" font-family="Helvetica,sans-Serif" font-size="10.00"> IDigitalWriteImpl &gt;</text>
<text text-anchor="start" x="77.5" y="-318.5" font-family="Helvetica,sans-Serif" font-size="10.00"> </text>
<text text-anchor="start" x="21" y="-303.5" font-family="Helvetica,sans-Serif" font-size="10.00">+</text>
<text text-anchor="start" x="50.5" y="-303.5" font-family="Helvetica,sans-Serif" font-size="10.00">DcMotorBase()</text>
<text text-anchor="start" x="21" y="-288.5" font-family="Helvetica,sans-Serif" font-size="10.00">+</text>
<text text-anchor="start" x="50.5" y="-288.5" font-family="Helvetica,sans-Serif" font-size="10.00">Drive()</text>
<text text-anchor="start" x="21" y="-273.5" font-family="Helvetica,sans-Serif" font-size="10.00">#</text>
<text text-anchor="start" x="50.5" y="-273.5" font-family="Helvetica,sans-Serif" font-size="10.00">SetInterface()</text>
<polygon fill="#666666" stroke="#666666" points="0.5,-328.5 0.5,-328.5 161.5,-328.5 161.5,-328.5 0.5,-328.5"/>
<polygon fill="#666666" stroke="#666666" points="0.5,-313.5 0.5,-313.5 161.5,-313.5 161.5,-313.5 0.5,-313.5"/>
<polygon fill="none" stroke="#666666" points="0,-267 0,-368 161,-368 161,-267 0,-267"/>
</a>
</g>
</g>
<!-- Node3&#45;&gt;Node2 -->
<g id="edge2" class="edge">
<title>Node3&#45;&gt;Node2</title>
<path fill="none" stroke="orange" d="M80.5,-256.75C80.5,-237.77 80.5,-216.86 80.5,-198.21"/>
<polygon fill="orange" stroke="orange" points="77,-256.78 80.5,-266.78 84,-256.78 77,-256.78"/>
<text text-anchor="start" x="80.5" y="-241" font-family="Helvetica,sans-Serif" font-size="10.00" fill="grey"> &lt; mbed::gpio::PwmOut,</text>
<text text-anchor="start" x="80.5" y="-230" font-family="Helvetica,sans-Serif" font-size="10.00" fill="grey"> mbed::gpio::PwmOut,</text>
<text text-anchor="middle" x="143" y="-219" font-family="Helvetica,sans-Serif" font-size="10.00" fill="grey"> mbed::gpio::DigitalOut &gt;</text>
</g>
</g>
</svg>
