<?xml version="1.0" encoding="UTF-8" standalone="no"?>
<!DOCTYPE svg PUBLIC "-//W3C//DTD SVG 1.1//EN"
 "http://www.w3.org/Graphics/SVG/1.1/DTD/svg11.dtd">
<!-- Generated by graphviz version 2.43.0 (0)
 -->
<!-- Title: alps::mbed::actuator::DcMotor Pages: 1 -->
<svg width="133pt" height="227pt"
 viewBox="0.00 0.00 133.00 227.00" xmlns="http://www.w3.org/2000/svg" xmlns:xlink="http://www.w3.org/1999/xlink">
<g id="graph0" class="graph" transform="scale(1 1) rotate(0) translate(4 223)">
<title>alps::mbed::actuator::DcMotor</title>
<!-- Node1 -->
<g id="node1" class="node">
<title>Node1</title>
<g id="a_node1"><a xlink:title="PWMピンと方向指定ピンで動かすDCモーターのmbed用実装">
<polygon fill="#999999" stroke="transparent" points="118,-60 7,-60 7,0 118,0 118,-60"/>
<text text-anchor="start" x="12.5" y="-48" font-family="Helvetica,sans-Serif" font-size="10.00">alps::mbed::actuator</text>
<text text-anchor="start" x="39" y="-37" font-family="Helvetica,sans-Serif" font-size="10.00">::DcMotor</text>
<text text-anchor="start" x="59.5" y="-22" font-family="Helvetica,sans-Serif" font-size="10.00"> </text>
<text text-anchor="start" x="21.5" y="-7" font-family="Helvetica,sans-Serif" font-size="10.00">+</text>
<text text-anchor="start" x="44.5" y="-7" font-family="Helvetica,sans-Serif" font-size="10.00">DcMotor()</text>
<polygon fill="#666666" stroke="#666666" points="7.5,-32 7.5,-32 118.5,-32 118.5,-32 7.5,-32"/>
<polygon fill="#666666" stroke="#666666" points="7.5,-17 7.5,-17 118.5,-17 118.5,-17 7.5,-17"/>
<polygon fill="none" stroke="#666666" points="7,0 7,-60 118,-60 118,0 7,0"/>
</a>
</g>
</g>
<!-- Node2 -->
<g id="node2" class="node">
<title>Node2</title>
<g id="a_node2"><a xlink:href="classalps_1_1cmn_1_1actuator_1_1_dc_motor_base.html" target="_top" xlink:title=" ">
<polygon fill="white" stroke="transparent" points="125,-219 0,-219 0,-96 125,-96 125,-219"/>
<text text-anchor="start" x="5.5" y="-206.5" font-family="Helvetica,sans-Serif" font-size="10.00">alps::cmn::actuator</text>
<text text-anchor="start" x="5.5" y="-195.5" font-family="Helvetica,sans-Serif" font-size="10.00">::DcMotorBase&lt; mbed</text>
<text text-anchor="start" x="5.5" y="-184.5" font-family="Helvetica,sans-Serif" font-size="10.00">::gpio::PwmOut, mbed</text>
<text text-anchor="start" x="5.5" y="-173.5" font-family="Helvetica,sans-Serif" font-size="10.00">::gpio::PwmOut, mbed::</text>
<text text-anchor="start" x="19" y="-162.5" font-family="Helvetica,sans-Serif" font-size="10.00">gpio::DigitalOut &gt;</text>
<text text-anchor="start" x="59.5" y="-147.5" font-family="Helvetica,sans-Serif" font-size="10.00"> </text>
<text text-anchor="start" x="12" y="-132.5" font-family="Helvetica,sans-Serif" font-size="10.00">+</text>
<text text-anchor="start" x="32.5" y="-132.5" font-family="Helvetica,sans-Serif" font-size="10.00">DcMotorBase()</text>
<text text-anchor="start" x="12" y="-117.5" font-family="Helvetica,sans-Serif" font-size="10.00">+</text>
<text text-anchor="start" x="32.5" y="-117.5" font-family="Helvetica,sans-Serif" font-size="10.00">Drive()</text>
<text text-anchor="start" x="12" y="-102.5" font-family="Helvetica,sans-Serif" font-size="10.00">#</text>
<text text-anchor="start" x="32.5" y="-102.5" font-family="Helvetica,sans-Serif" font-size="10.00">SetInterface()</text>
<polygon fill="#666666" stroke="#666666" points="0.5,-157.5 0.5,-157.5 125.5,-157.5 125.5,-157.5 0.5,-157.5"/>
<polygon fill="#666666" stroke="#666666" points="0.5,-142.5 0.5,-142.5 125.5,-142.5 125.5,-142.5 0.5,-142.5"/>
<polygon fill="none" stroke="#666666" points="0,-96 0,-219 125,-219 125,-96 0,-96"/>
</a>
</g>
</g>
<!-- Node2&#45;&gt;Node1 -->
<g id="edge1" class="edge">
<title>Node2&#45;&gt;Node1</title>
<path fill="none" stroke="#63b8ff" d="M62.5,-85.79C62.5,-76.83 62.5,-68.09 62.5,-60.32"/>
<polygon fill="none" stroke="#63b8ff" points="59,-85.96 62.5,-95.96 66,-85.96 59,-85.96"/>
</g>
</g>
</svg>
