<?xml version="1.0" encoding="UTF-8" standalone="no"?>
<!DOCTYPE svg PUBLIC "-//W3C//DTD SVG 1.1//EN"
 "http://www.w3.org/Graphics/SVG/1.1/DTD/svg11.dtd">
<!-- Generated by graphviz version 2.43.0 (0)
 -->
<!-- Title: alps::mbed::gpio::DigitalOut Pages: 1 -->
<svg width="155pt" height="183pt"
 viewBox="0.00 0.00 155.00 183.00" xmlns="http://www.w3.org/2000/svg" xmlns:xlink="http://www.w3.org/1999/xlink">
<g id="graph0" class="graph" transform="scale(1 1) rotate(0) translate(4 179)">
<title>alps::mbed::gpio::DigitalOut</title>
<!-- Node1 -->
<g id="node1" class="node">
<title>Node1</title>
<g id="a_node1"><a xlink:title="デジタル出力ピン">
<polygon fill="#999999" stroke="transparent" points="147,-79 0,-79 0,0 147,0 147,-79"/>
<text text-anchor="start" x="5.5" y="-66.5" font-family="Helvetica,sans-Serif" font-size="10.00">alps::mbed::gpio::DigitalOut</text>
<text text-anchor="start" x="70.5" y="-51.5" font-family="Helvetica,sans-Serif" font-size="10.00"> </text>
<text text-anchor="start" x="19.5" y="-36.5" font-family="Helvetica,sans-Serif" font-size="10.00">+</text>
<text text-anchor="start" x="47.5" y="-36.5" font-family="Helvetica,sans-Serif" font-size="10.00">DigitalOut()</text>
<text text-anchor="start" x="19.5" y="-21.5" font-family="Helvetica,sans-Serif" font-size="10.00">+</text>
<text text-anchor="start" x="47.5" y="-21.5" font-family="Helvetica,sans-Serif" font-size="10.00">Write()</text>
<text text-anchor="start" x="19.5" y="-6.5" font-family="Helvetica,sans-Serif" font-size="10.00">+</text>
<text text-anchor="start" x="47.5" y="-6.5" font-family="Helvetica,sans-Serif" font-size="10.00">~DigitalOut()</text>
<polygon fill="#666666" stroke="#666666" points="0.5,-61.5 0.5,-61.5 147.5,-61.5 147.5,-61.5 0.5,-61.5"/>
<polygon fill="#666666" stroke="#666666" points="0.5,-46.5 0.5,-46.5 147.5,-46.5 147.5,-46.5 0.5,-46.5"/>
<polygon fill="none" stroke="#666666" points="0,0 0,-79 147,-79 147,0 0,0"/>
</a>
</g>
</g>
<!-- Node2 -->
<g id="node2" class="node">
<title>Node2</title>
<g id="a_node2"><a xlink:href="classalps_1_1cmn_1_1gpio_1_1_i_digital_out.html" target="_top" xlink:title=" ">
<polygon fill="white" stroke="transparent" points="136.5,-175 10.5,-175 10.5,-115 136.5,-115 136.5,-175"/>
<text text-anchor="start" x="15.5" y="-163" font-family="Helvetica,sans-Serif" font-size="10.00">alps::cmn::gpio::IDigital</text>
<text text-anchor="start" x="28.5" y="-152" font-family="Helvetica,sans-Serif" font-size="10.00">Out&lt; DigitalOut &gt;</text>
<text text-anchor="start" x="70" y="-137" font-family="Helvetica,sans-Serif" font-size="10.00"> </text>
<text text-anchor="start" x="27.5" y="-122" font-family="Helvetica,sans-Serif" font-size="10.00">+</text>
<text text-anchor="start" x="53.5" y="-122" font-family="Helvetica,sans-Serif" font-size="10.00">CallWrite()</text>
<polygon fill="#666666" stroke="#666666" points="10.5,-147 10.5,-147 136.5,-147 136.5,-147 10.5,-147"/>
<polygon fill="#666666" stroke="#666666" points="10.5,-132 10.5,-132 136.5,-132 136.5,-132 10.5,-132"/>
<polygon fill="none" stroke="#666666" points="10.5,-115 10.5,-175 136.5,-175 136.5,-115 10.5,-115"/>
</a>
</g>
</g>
<!-- Node2&#45;&gt;Node1 -->
<g id="edge1" class="edge">
<title>Node2&#45;&gt;Node1</title>
<path fill="none" stroke="#63b8ff" d="M73.5,-104.88C73.5,-96.42 73.5,-87.48 73.5,-79.05"/>
<polygon fill="none" stroke="#63b8ff" points="70,-104.89 73.5,-114.89 77,-104.89 70,-104.89"/>
</g>
</g>
</svg>
