<?xml version="1.0" encoding="UTF-8" standalone="no"?>
<!DOCTYPE svg PUBLIC "-//W3C//DTD SVG 1.1//EN"
 "http://www.w3.org/Graphics/SVG/1.1/DTD/svg11.dtd">
<!-- Generated by graphviz version 2.43.0 (0)
 -->
<!-- Title: roblab::common::actuator::DcMotorBase&lt; IPwmSetPeriodImpl, IPwmSetPulseWidthImpl, IDigitalWriteImpl &gt; Pages: 1 -->
<svg width="241pt" height="109pt"
 viewBox="0.00 0.00 241.00 109.00" xmlns="http://www.w3.org/2000/svg" xmlns:xlink="http://www.w3.org/1999/xlink">
<g id="graph0" class="graph" transform="scale(1 1) rotate(0) translate(4 105)">
<title>roblab::common::actuator::DcMotorBase&lt; IPwmSetPeriodImpl, IPwmSetPulseWidthImpl, IDigitalWriteImpl &gt;</title>
<!-- Node1 -->
<g id="node1" class="node">
<title>Node1</title>
<g id="a_node1"><a xlink:title="PWMピンと方向指定ピンで動かすDCモーターの共通実装">
<polygon fill="#999999" stroke="transparent" points="233,-101 0,-101 0,0 233,0 233,-101"/>
<text text-anchor="start" x="5.5" y="-88.5" font-family="Helvetica,sans-Serif" font-size="10.00">roblab::common::actuator</text>
<text text-anchor="start" x="5.5" y="-77.5" font-family="Helvetica,sans-Serif" font-size="10.00">::DcMotorBase&lt; IPwmSetPeriodImpl,</text>
<text text-anchor="start" x="5.5" y="-66.5" font-family="Helvetica,sans-Serif" font-size="10.00"> IPwmSetPulseWidthImpl, IDigitalWriteImpl &gt;</text>
<text text-anchor="start" x="113.5" y="-51.5" font-family="Helvetica,sans-Serif" font-size="10.00"> </text>
<text text-anchor="start" x="39" y="-36.5" font-family="Helvetica,sans-Serif" font-size="10.00">+</text>
<text text-anchor="start" x="86.5" y="-36.5" font-family="Helvetica,sans-Serif" font-size="10.00">DcMotorBase()</text>
<text text-anchor="start" x="39" y="-21.5" font-family="Helvetica,sans-Serif" font-size="10.00">+</text>
<text text-anchor="start" x="86.5" y="-21.5" font-family="Helvetica,sans-Serif" font-size="10.00">Drive()</text>
<text text-anchor="start" x="39" y="-6.5" font-family="Helvetica,sans-Serif" font-size="10.00">#</text>
<text text-anchor="start" x="86.5" y="-6.5" font-family="Helvetica,sans-Serif" font-size="10.00">SetInterface()</text>
<polygon fill="#666666" stroke="#666666" points="0.5,-61.5 0.5,-61.5 233.5,-61.5 233.5,-61.5 0.5,-61.5"/>
<polygon fill="#666666" stroke="#666666" points="0.5,-46.5 0.5,-46.5 233.5,-46.5 233.5,-46.5 0.5,-46.5"/>
<polygon fill="none" stroke="#666666" points="0,0 0,-101 233,-101 233,0 0,0"/>
</a>
</g>
</g>
</g>
</svg>
