<?xml version="1.0" encoding="UTF-8" standalone="no"?>
<!DOCTYPE svg PUBLIC "-//W3C//DTD SVG 1.1//EN"
 "http://www.w3.org/Graphics/SVG/1.1/DTD/svg11.dtd">
<!-- Generated by graphviz version 2.43.0 (0)
 -->
<!-- Title: roblab_common_lib/include/roblab_common/serial/cobs.hpp Pages: 1 -->
<svg width="497pt" height="192pt"
 viewBox="0.00 0.00 497.00 192.00" xmlns="http://www.w3.org/2000/svg" xmlns:xlink="http://www.w3.org/1999/xlink">
<g id="graph0" class="graph" transform="scale(1 1) rotate(0) translate(4 188)">
<title>roblab_common_lib/include/roblab_common/serial/cobs.hpp</title>
<!-- Node1 -->
<g id="node1" class="node">
<title>Node1</title>
<g id="a_node1"><a xlink:title="COBS変換ライブラリ">
<polygon fill="#999999" stroke="#666666" points="269,-184 94,-184 94,-154 269,-154 269,-184"/>
<text text-anchor="start" x="102" y="-172" font-family="Helvetica,sans-Serif" font-size="10.00">roblab_common_lib/include</text>
<text text-anchor="middle" x="181.5" y="-161" font-family="Helvetica,sans-Serif" font-size="10.00">/roblab_common/serial/cobs.hpp</text>
</a>
</g>
</g>
<!-- Node2 -->
<g id="node2" class="node">
<title>Node2</title>
<g id="a_node2"><a xlink:href="id__packet__manager_8hpp.html" target="_top" xlink:title="ID付きパケットデータを管理">
<polygon fill="white" stroke="#666666" points="257,-118 106,-118 106,-77 257,-77 257,-118"/>
<text text-anchor="start" x="114" y="-106" font-family="Helvetica,sans-Serif" font-size="10.00">roblab_common_lib/include</text>
<text text-anchor="start" x="114" y="-95" font-family="Helvetica,sans-Serif" font-size="10.00">/roblab_common/serial/id</text>
<text text-anchor="middle" x="181.5" y="-84" font-family="Helvetica,sans-Serif" font-size="10.00">_packet_manager.hpp</text>
</a>
</g>
</g>
<!-- Node1&#45;&gt;Node2 -->
<g id="edge1" class="edge">
<title>Node1&#45;&gt;Node2</title>
<path fill="none" stroke="#63b8ff" d="M181.5,-143.91C181.5,-135.47 181.5,-126.1 181.5,-118.07"/>
<polygon fill="#63b8ff" stroke="#63b8ff" points="178,-143.94 181.5,-153.94 185,-143.94 178,-143.94"/>
</g>
<!-- Node3 -->
<g id="node3" class="node">
<title>Node3</title>
<g id="a_node3"><a xlink:href="sender_8hpp.html" target="_top" xlink:title="シリアル通信で送るデータを登録">
<polygon fill="white" stroke="#666666" points="185,-35.5 0,-35.5 0,-5.5 185,-5.5 185,-35.5"/>
<text text-anchor="start" x="8" y="-23.5" font-family="Helvetica,sans-Serif" font-size="10.00">roblab_common_lib/include</text>
<text text-anchor="middle" x="92.5" y="-12.5" font-family="Helvetica,sans-Serif" font-size="10.00">/roblab_common/serial/sender.hpp</text>
</a>
</g>
</g>
<!-- Node2&#45;&gt;Node3 -->
<g id="edge2" class="edge">
<title>Node2&#45;&gt;Node3</title>
<path fill="none" stroke="#63b8ff" d="M144.24,-70.54C129.84,-58.92 114.44,-45.66 104.1,-35.86"/>
<polygon fill="#63b8ff" stroke="#63b8ff" points="142.09,-73.3 152.09,-76.79 146.45,-67.83 142.09,-73.3"/>
</g>
<!-- Node4 -->
<g id="node4" class="node">
<title>Node4</title>
<g id="a_node4"><a xlink:href="pc__uart__connection_8hpp.html" target="_top" xlink:title="パソコンと接続してパケット通信を行うライブラリ">
<polygon fill="white" stroke="#666666" points="339.5,-41 203.5,-41 203.5,0 339.5,0 339.5,-41"/>
<text text-anchor="start" x="211.5" y="-29" font-family="Helvetica,sans-Serif" font-size="10.00">roblab_mbed_lib/include</text>
<text text-anchor="start" x="211.5" y="-18" font-family="Helvetica,sans-Serif" font-size="10.00">/roblab_mbed/serial/pc</text>
<text text-anchor="middle" x="271.5" y="-7" font-family="Helvetica,sans-Serif" font-size="10.00">_uart_connection.hpp</text>
</a>
</g>
</g>
<!-- Node2&#45;&gt;Node4 -->
<g id="edge4" class="edge">
<title>Node2&#45;&gt;Node4</title>
<path fill="none" stroke="#63b8ff" d="M212.88,-70.35C224.42,-60.73 237.28,-50.01 248.01,-41.07"/>
<polygon fill="#63b8ff" stroke="#63b8ff" points="210.59,-67.7 205.15,-76.79 215.07,-73.08 210.59,-67.7"/>
</g>
<!-- Node5 -->
<g id="node5" class="node">
<title>Node5</title>
<g id="a_node5"><a xlink:href="mbed__uart__connection_8hpp.html" target="_top" xlink:title="接続された複数のMbedとシリアル通信を行う">
<polygon fill="white" stroke="#666666" points="489,-41 358,-41 358,0 489,0 489,-41"/>
<text text-anchor="start" x="366" y="-29" font-family="Helvetica,sans-Serif" font-size="10.00">roblab_ros_lib/include</text>
<text text-anchor="start" x="366" y="-18" font-family="Helvetica,sans-Serif" font-size="10.00">/roblab_ros/serial/mbed</text>
<text text-anchor="middle" x="423.5" y="-7" font-family="Helvetica,sans-Serif" font-size="10.00">_uart_connection.hpp</text>
</a>
</g>
</g>
<!-- Node2&#45;&gt;Node5 -->
<g id="edge5" class="edge">
<title>Node2&#45;&gt;Node5</title>
<path fill="none" stroke="#63b8ff" d="M254.28,-73.94C288.1,-63.46 327.93,-51.12 360.44,-41.04"/>
<polygon fill="#63b8ff" stroke="#63b8ff" points="252.97,-70.69 244.45,-76.99 255.04,-77.37 252.97,-70.69"/>
</g>
<!-- Node3&#45;&gt;Node2 -->
<g id="edge3" class="edge">
<title>Node3&#45;&gt;Node2</title>
<path fill="none" stroke="#63b8ff" d="M122.94,-42.02C136.7,-52.85 152.37,-66.08 164.14,-76.79"/>
<polygon fill="#63b8ff" stroke="#63b8ff" points="124.73,-38.98 114.68,-35.63 120.45,-44.51 124.73,-38.98"/>
</g>
</g>
</svg>
