<?xml version="1.0" encoding="UTF-8" standalone="no"?>
<!DOCTYPE svg PUBLIC "-//W3C//DTD SVG 1.1//EN"
 "http://www.w3.org/Graphics/SVG/1.1/DTD/svg11.dtd">
<!-- Generated by graphviz version 2.43.0 (0)
 -->
<!-- Title: alps_common_lib/include/alps_cmn/communication/cobs.hpp Pages: 1 -->
<svg width="362pt" height="203pt"
 viewBox="0.00 0.00 362.00 203.00" xmlns="http://www.w3.org/2000/svg" xmlns:xlink="http://www.w3.org/1999/xlink">
<g id="graph0" class="graph" transform="scale(1 1) rotate(0) translate(4 199)">
<title>alps_common_lib/include/alps_cmn/communication/cobs.hpp</title>
<!-- Node1 -->
<g id="node1" class="node">
<title>Node1</title>
<g id="a_node1"><a xlink:title="COBS変換ライブラリ">
<polygon fill="#999999" stroke="#666666" points="254.5,-195 109.5,-195 109.5,-154 254.5,-154 254.5,-195"/>
<text text-anchor="start" x="117.5" y="-183" font-family="Helvetica,sans-Serif" font-size="10.00">alps_common_lib/include</text>
<text text-anchor="start" x="117.5" y="-172" font-family="Helvetica,sans-Serif" font-size="10.00">/alps_cmn/communication</text>
<text text-anchor="middle" x="182" y="-161" font-family="Helvetica,sans-Serif" font-size="10.00">/cobs.hpp</text>
</a>
</g>
</g>
<!-- Node2 -->
<g id="node2" class="node">
<title>Node2</title>
<g id="a_node2"><a xlink:href="can__typed__data__transceiver_8hpp.html" target="_top" xlink:title="CAN通信で型付けされたデータの送受信を行うライブラリ">
<polygon fill="white" stroke="#666666" points="178,-118 0,-118 0,-77 178,-77 178,-118"/>
<text text-anchor="start" x="8" y="-106" font-family="Helvetica,sans-Serif" font-size="10.00">alps_common_lib/include</text>
<text text-anchor="start" x="8" y="-95" font-family="Helvetica,sans-Serif" font-size="10.00">/alps_cmn/communication</text>
<text text-anchor="middle" x="89" y="-84" font-family="Helvetica,sans-Serif" font-size="10.00">/can_typed_data_transceiver.hpp</text>
</a>
</g>
</g>
<!-- Node1&#45;&gt;Node2 -->
<g id="edge1" class="edge">
<title>Node1&#45;&gt;Node2</title>
<path fill="none" stroke="#63b8ff" d="M149.57,-147.35C137.65,-137.73 124.36,-127.01 113.27,-118.07"/>
<polygon fill="#63b8ff" stroke="#63b8ff" points="147.58,-150.24 157.57,-153.79 151.98,-144.79 147.58,-150.24"/>
</g>
<!-- Node4 -->
<g id="node4" class="node">
<title>Node4</title>
<g id="a_node4"><a xlink:href="uart__packet__transceiver_8hpp.html" target="_top" xlink:title=" ">
<polygon fill="white" stroke="#666666" points="354,-118 196,-118 196,-77 354,-77 354,-118"/>
<text text-anchor="start" x="204" y="-106" font-family="Helvetica,sans-Serif" font-size="10.00">alps_common_lib/include</text>
<text text-anchor="start" x="204" y="-95" font-family="Helvetica,sans-Serif" font-size="10.00">/alps_cmn/communication</text>
<text text-anchor="middle" x="275" y="-84" font-family="Helvetica,sans-Serif" font-size="10.00">/uart_packet_transceiver.hpp</text>
</a>
</g>
</g>
<!-- Node1&#45;&gt;Node4 -->
<g id="edge3" class="edge">
<title>Node1&#45;&gt;Node4</title>
<path fill="none" stroke="#63b8ff" d="M214.43,-147.35C226.35,-137.73 239.64,-127.01 250.73,-118.07"/>
<polygon fill="#63b8ff" stroke="#63b8ff" points="212.02,-144.79 206.43,-153.79 216.42,-150.24 212.02,-144.79"/>
</g>
<!-- Node3 -->
<g id="node3" class="node">
<title>Node3</title>
<g id="a_node3"><a xlink:href="robomas__motors__can__controller_8hpp.html" target="_top" xlink:title=" ">
<polygon fill="white" stroke="#666666" points="166.5,-41 11.5,-41 11.5,0 166.5,0 166.5,-41"/>
<text text-anchor="start" x="19.5" y="-29" font-family="Helvetica,sans-Serif" font-size="10.00">alps_common_lib/include</text>
<text text-anchor="start" x="19.5" y="-18" font-family="Helvetica,sans-Serif" font-size="10.00">/alps_cmn/actuator/robomas</text>
<text text-anchor="middle" x="89" y="-7" font-family="Helvetica,sans-Serif" font-size="10.00">_motors_can_controller.hpp</text>
</a>
</g>
</g>
<!-- Node2&#45;&gt;Node3 -->
<g id="edge2" class="edge">
<title>Node2&#45;&gt;Node3</title>
<path fill="none" stroke="#63b8ff" d="M89,-66.69C89,-58.08 89,-48.9 89,-41.07"/>
<polygon fill="#63b8ff" stroke="#63b8ff" points="85.5,-66.79 89,-76.79 92.5,-66.79 85.5,-66.79"/>
</g>
</g>
</svg>
