<?xml version="1.0" encoding="UTF-8" standalone="no"?>
<!DOCTYPE svg PUBLIC "-//W3C//DTD SVG 1.1//EN"
 "http://www.w3.org/Graphics/SVG/1.1/DTD/svg11.dtd">
<!-- Generated by graphviz version 2.43.0 (0)
 -->
<!-- Title: alps_common_lib/include/alps_cmn/communication/cobs.hpp Pages: 1 -->
<svg width="307pt" height="170pt"
 viewBox="0.00 0.00 307.00 170.00" xmlns="http://www.w3.org/2000/svg" xmlns:xlink="http://www.w3.org/1999/xlink">
<g id="graph0" class="graph" transform="scale(1 1) rotate(0) translate(4 166)">
<title>alps_common_lib/include/alps_cmn/communication/cobs.hpp</title>
<!-- Node1 -->
<g id="node1" class="node">
<title>Node1</title>
<g id="a_node1"><a xlink:title="COBS変換ライブラリ">
<polygon fill="#999999" stroke="#666666" points="272.5,-162 127.5,-162 127.5,-121 272.5,-121 272.5,-162"/>
<text text-anchor="start" x="135.5" y="-150" font-family="Helvetica,sans-Serif" font-size="10.00">alps_common_lib/include</text>
<text text-anchor="start" x="135.5" y="-139" font-family="Helvetica,sans-Serif" font-size="10.00">/alps_cmn/communication</text>
<text text-anchor="middle" x="200" y="-128" font-family="Helvetica,sans-Serif" font-size="10.00">/cobs.hpp</text>
</a>
</g>
</g>
<!-- Node2 -->
<g id="node2" class="node">
<title>Node2</title>
<g id="a_node2"><a xlink:href="byte__ring__buffer_8hpp.html" target="_top" xlink:title="シリアル通信用リングバッファー">
<polygon fill="white" stroke="#666666" points="152.5,-85 39.5,-85 39.5,-55 152.5,-55 152.5,-85"/>
<text text-anchor="start" x="47.5" y="-73" font-family="Helvetica,sans-Serif" font-size="10.00">alps_cmn/type/byte</text>
<text text-anchor="middle" x="96" y="-62" font-family="Helvetica,sans-Serif" font-size="10.00">_ring_buffer.hpp</text>
</a>
</g>
</g>
<!-- Node1&#45;&gt;Node2 -->
<g id="edge1" class="edge">
<title>Node1&#45;&gt;Node2</title>
<path fill="none" stroke="#63b8ff" d="M170.75,-120.96C156.62,-111.51 139.7,-100.2 125.53,-90.74"/>
<polygon fill="#63b8ff" stroke="#63b8ff" points="127.38,-87.76 117.12,-85.11 123.49,-93.58 127.38,-87.76"/>
</g>
<!-- Node5 -->
<g id="node5" class="node">
<title>Node5</title>
<g id="a_node5"><a xlink:title=" ">
<polygon fill="#e0e0e0" stroke="#999999" points="180,-19 134,-19 134,0 180,0 180,-19"/>
<text text-anchor="middle" x="157" y="-7" font-family="Helvetica,sans-Serif" font-size="10.00">cstdio</text>
</a>
</g>
</g>
<!-- Node1&#45;&gt;Node5 -->
<g id="edge6" class="edge">
<title>Node1&#45;&gt;Node5</title>
<path fill="none" stroke="#63b8ff" d="M193.47,-120.76C185.2,-95.75 171.06,-53 163.03,-28.73"/>
<polygon fill="#63b8ff" stroke="#63b8ff" points="166.28,-27.41 159.82,-19.01 159.63,-29.61 166.28,-27.41"/>
</g>
<!-- Node6 -->
<g id="node6" class="node">
<title>Node6</title>
<g id="a_node6"><a xlink:title=" ">
<polygon fill="#e0e0e0" stroke="#999999" points="247.5,-19 198.5,-19 198.5,0 247.5,0 247.5,-19"/>
<text text-anchor="middle" x="223" y="-7" font-family="Helvetica,sans-Serif" font-size="10.00">cstdlib</text>
</a>
</g>
</g>
<!-- Node1&#45;&gt;Node6 -->
<g id="edge8" class="edge">
<title>Node1&#45;&gt;Node6</title>
<path fill="none" stroke="#63b8ff" d="M203.49,-120.76C207.9,-95.86 215.41,-53.38 219.72,-29.06"/>
<polygon fill="#63b8ff" stroke="#63b8ff" points="223.2,-29.47 221.49,-19.01 216.31,-28.25 223.2,-29.47"/>
</g>
<!-- Node7 -->
<g id="node7" class="node">
<title>Node7</title>
<g id="a_node7"><a xlink:title=" ">
<polygon fill="#e0e0e0" stroke="#999999" points="299,-79.5 247,-79.5 247,-60.5 299,-60.5 299,-79.5"/>
<text text-anchor="middle" x="273" y="-67.5" font-family="Helvetica,sans-Serif" font-size="10.00">cassert</text>
</a>
</g>
</g>
<!-- Node1&#45;&gt;Node7 -->
<g id="edge7" class="edge">
<title>Node1&#45;&gt;Node7</title>
<path fill="none" stroke="#63b8ff" d="M220.72,-120.77C232.01,-110.02 245.79,-96.91 256.37,-86.84"/>
<polygon fill="#63b8ff" stroke="#63b8ff" points="258.91,-89.25 263.74,-79.82 254.08,-84.18 258.91,-89.25"/>
</g>
<!-- Node3 -->
<g id="node3" class="node">
<title>Node3</title>
<g id="a_node3"><a xlink:title=" ">
<polygon fill="#e0e0e0" stroke="#999999" points="50,-19 0,-19 0,0 50,0 50,-19"/>
<text text-anchor="middle" x="25" y="-7" font-family="Helvetica,sans-Serif" font-size="10.00">cstdint</text>
</a>
</g>
</g>
<!-- Node2&#45;&gt;Node3 -->
<g id="edge2" class="edge">
<title>Node2&#45;&gt;Node3</title>
<path fill="none" stroke="#63b8ff" d="M78.81,-54.84C68.19,-46.09 54.56,-34.85 43.67,-25.88"/>
<polygon fill="#63b8ff" stroke="#63b8ff" points="45.58,-22.92 35.64,-19.27 41.13,-28.33 45.58,-22.92"/>
</g>
<!-- Node4 -->
<g id="node4" class="node">
<title>Node4</title>
<g id="a_node4"><a xlink:title=" ">
<polygon fill="#e0e0e0" stroke="#999999" points="115.5,-19 68.5,-19 68.5,0 115.5,0 115.5,-19"/>
<text text-anchor="middle" x="92" y="-7" font-family="Helvetica,sans-Serif" font-size="10.00">vector</text>
</a>
</g>
</g>
<!-- Node2&#45;&gt;Node4 -->
<g id="edge3" class="edge">
<title>Node2&#45;&gt;Node4</title>
<path fill="none" stroke="#63b8ff" d="M95.03,-54.84C94.51,-47.21 93.86,-37.7 93.3,-29.45"/>
<polygon fill="#63b8ff" stroke="#63b8ff" points="96.77,-29 92.6,-19.27 89.79,-29.48 96.77,-29"/>
</g>
<!-- Node2&#45;&gt;Node5 -->
<g id="edge4" class="edge">
<title>Node2&#45;&gt;Node5</title>
<path fill="none" stroke="#63b8ff" d="M110.77,-54.84C119.71,-46.26 131.14,-35.3 140.4,-26.42"/>
<polygon fill="#63b8ff" stroke="#63b8ff" points="143.06,-28.71 147.86,-19.27 138.22,-23.66 143.06,-28.71"/>
</g>
<!-- Node2&#45;&gt;Node6 -->
<g id="edge5" class="edge">
<title>Node2&#45;&gt;Node6</title>
<path fill="none" stroke="#63b8ff" d="M126.42,-54.99C147.23,-45.4 174.62,-32.79 194.91,-23.44"/>
<polygon fill="#63b8ff" stroke="#63b8ff" points="196.63,-26.5 204.24,-19.14 193.7,-20.14 196.63,-26.5"/>
</g>
</g>
</svg>
