<?xml version="1.0" encoding="UTF-8" standalone="no"?>
<!DOCTYPE svg PUBLIC "-//W3C//DTD SVG 1.1//EN"
 "http://www.w3.org/Graphics/SVG/1.1/DTD/svg11.dtd">
<!-- Generated by graphviz version 2.43.0 (0)
 -->
<!-- Title: roblab_common_lib/include/roblab_common/serial/cobs.hpp Pages: 1 -->
<svg width="310pt" height="159pt"
 viewBox="0.00 0.00 310.00 159.00" xmlns="http://www.w3.org/2000/svg" xmlns:xlink="http://www.w3.org/1999/xlink">
<g id="graph0" class="graph" transform="scale(1 1) rotate(0) translate(4 155)">
<title>roblab_common_lib/include/roblab_common/serial/cobs.hpp</title>
<!-- Node1 -->
<g id="node1" class="node">
<title>Node1</title>
<g id="a_node1"><a xlink:title="COBS変換ライブラリ">
<polygon fill="#999999" stroke="#666666" points="290.5,-151 115.5,-151 115.5,-121 290.5,-121 290.5,-151"/>
<text text-anchor="start" x="123.5" y="-139" font-family="Helvetica,sans-Serif" font-size="10.00">roblab_common_lib/include</text>
<text text-anchor="middle" x="203" y="-128" font-family="Helvetica,sans-Serif" font-size="10.00">/roblab_common/serial/cobs.hpp</text>
</a>
</g>
</g>
<!-- Node2 -->
<g id="node2" class="node">
<title>Node2</title>
<g id="a_node2"><a xlink:href="byte__ring__buffer_8hpp.html" target="_top" xlink:title="シリアル通信用リングバッファー">
<polygon fill="white" stroke="#666666" points="155.5,-85 30.5,-85 30.5,-55 155.5,-55 155.5,-85"/>
<text text-anchor="start" x="38.5" y="-73" font-family="Helvetica,sans-Serif" font-size="10.00">roblab_common/serial</text>
<text text-anchor="middle" x="93" y="-62" font-family="Helvetica,sans-Serif" font-size="10.00">/byte_ring_buffer.hpp</text>
</a>
</g>
</g>
<!-- Node1&#45;&gt;Node2 -->
<g id="edge1" class="edge">
<title>Node1&#45;&gt;Node2</title>
<path fill="none" stroke="#63b8ff" d="M178.86,-120.95C163.39,-111.95 143.09,-100.14 126.12,-90.27"/>
<polygon fill="#63b8ff" stroke="#63b8ff" points="127.49,-87.02 117.08,-85.01 123.97,-93.07 127.49,-87.02"/>
</g>
<!-- Node5 -->
<g id="node5" class="node">
<title>Node5</title>
<g id="a_node5"><a xlink:title=" ">
<polygon fill="#e0e0e0" stroke="#999999" points="180,-19 134,-19 134,0 180,0 180,-19"/>
<text text-anchor="middle" x="157" y="-7" font-family="Helvetica,sans-Serif" font-size="10.00">cstdio</text>
</a>
</g>
</g>
<!-- Node1&#45;&gt;Node5 -->
<g id="edge6" class="edge">
<title>Node1&#45;&gt;Node5</title>
<path fill="none" stroke="#63b8ff" d="M197.72,-120.72C189.34,-98.02 172.97,-53.72 163.74,-28.75"/>
<polygon fill="#63b8ff" stroke="#63b8ff" points="166.92,-27.24 160.17,-19.07 160.35,-29.66 166.92,-27.24"/>
</g>
<!-- Node6 -->
<g id="node6" class="node">
<title>Node6</title>
<g id="a_node6"><a xlink:title=" ">
<polygon fill="#e0e0e0" stroke="#999999" points="247.5,-19 198.5,-19 198.5,0 247.5,0 247.5,-19"/>
<text text-anchor="middle" x="223" y="-7" font-family="Helvetica,sans-Serif" font-size="10.00">cstdlib</text>
</a>
</g>
</g>
<!-- Node1&#45;&gt;Node6 -->
<g id="edge8" class="edge">
<title>Node1&#45;&gt;Node6</title>
<path fill="none" stroke="#63b8ff" d="M205.29,-120.72C208.92,-98.12 215.99,-54.12 220.01,-29.09"/>
<polygon fill="#63b8ff" stroke="#63b8ff" points="223.49,-29.5 221.62,-19.07 216.58,-28.39 223.49,-29.5"/>
</g>
<!-- Node7 -->
<g id="node7" class="node">
<title>Node7</title>
<g id="a_node7"><a xlink:title=" ">
<polygon fill="#e0e0e0" stroke="#999999" points="302,-79.5 250,-79.5 250,-60.5 302,-60.5 302,-79.5"/>
<text text-anchor="middle" x="276" y="-67.5" font-family="Helvetica,sans-Serif" font-size="10.00">cassert</text>
</a>
</g>
</g>
<!-- Node1&#45;&gt;Node7 -->
<g id="edge7" class="edge">
<title>Node1&#45;&gt;Node7</title>
<path fill="none" stroke="#63b8ff" d="M219.2,-120.8C230.8,-110.62 246.42,-96.93 258.34,-86.48"/>
<polygon fill="#63b8ff" stroke="#63b8ff" points="260.7,-89.07 265.91,-79.84 256.09,-83.8 260.7,-89.07"/>
</g>
<!-- Node3 -->
<g id="node3" class="node">
<title>Node3</title>
<g id="a_node3"><a xlink:title=" ">
<polygon fill="#e0e0e0" stroke="#999999" points="50,-19 0,-19 0,0 50,0 50,-19"/>
<text text-anchor="middle" x="25" y="-7" font-family="Helvetica,sans-Serif" font-size="10.00">cstdint</text>
</a>
</g>
</g>
<!-- Node2&#45;&gt;Node3 -->
<g id="edge2" class="edge">
<title>Node2&#45;&gt;Node3</title>
<path fill="none" stroke="#63b8ff" d="M76.54,-54.84C66.37,-46.09 53.31,-34.85 42.88,-25.88"/>
<polygon fill="#63b8ff" stroke="#63b8ff" points="45.05,-23.13 35.19,-19.27 40.49,-28.44 45.05,-23.13"/>
</g>
<!-- Node4 -->
<g id="node4" class="node">
<title>Node4</title>
<g id="a_node4"><a xlink:title=" ">
<polygon fill="#e0e0e0" stroke="#999999" points="115.5,-19 68.5,-19 68.5,0 115.5,0 115.5,-19"/>
<text text-anchor="middle" x="92" y="-7" font-family="Helvetica,sans-Serif" font-size="10.00">vector</text>
</a>
</g>
</g>
<!-- Node2&#45;&gt;Node4 -->
<g id="edge3" class="edge">
<title>Node2&#45;&gt;Node4</title>
<path fill="none" stroke="#63b8ff" d="M92.76,-54.84C92.63,-47.21 92.47,-37.7 92.32,-29.45"/>
<polygon fill="#63b8ff" stroke="#63b8ff" points="95.82,-29.2 92.15,-19.27 88.82,-29.32 95.82,-29.2"/>
</g>
<!-- Node2&#45;&gt;Node5 -->
<g id="edge4" class="edge">
<title>Node2&#45;&gt;Node5</title>
<path fill="none" stroke="#63b8ff" d="M108.49,-54.84C117.97,-46.17 130.11,-35.08 139.88,-26.15"/>
<polygon fill="#63b8ff" stroke="#63b8ff" points="142.39,-28.6 147.41,-19.27 137.67,-23.43 142.39,-28.6"/>
</g>
<!-- Node2&#45;&gt;Node6 -->
<g id="edge5" class="edge">
<title>Node2&#45;&gt;Node6</title>
<path fill="none" stroke="#63b8ff" d="M124.14,-54.99C145.54,-45.36 173.73,-32.67 194.53,-23.31"/>
<polygon fill="#63b8ff" stroke="#63b8ff" points="196.12,-26.43 203.8,-19.14 193.25,-20.05 196.12,-26.43"/>
</g>
</g>
</svg>
