<?xml version="1.0" encoding="UTF-8" standalone="no"?>
<!DOCTYPE svg PUBLIC "-//W3C//DTD SVG 1.1//EN"
 "http://www.w3.org/Graphics/SVG/1.1/DTD/svg11.dtd">
<!-- Generated by graphviz version 2.43.0 (0)
 -->
<!-- Title: alps_common_lib/include/alps_cmn/communication/cobs.hpp Pages: 1 -->
<svg width="390pt" height="104pt"
 viewBox="0.00 0.00 390.00 104.00" xmlns="http://www.w3.org/2000/svg" xmlns:xlink="http://www.w3.org/1999/xlink">
<g id="graph0" class="graph" transform="scale(1 1) rotate(0) translate(4 100)">
<title>alps_common_lib/include/alps_cmn/communication/cobs.hpp</title>
<!-- Node1 -->
<g id="node1" class="node">
<title>Node1</title>
<g id="a_node1"><a xlink:title="COBS変換ライブラリ">
<polygon fill="#999999" stroke="#666666" points="233.5,-96 88.5,-96 88.5,-55 233.5,-55 233.5,-96"/>
<text text-anchor="start" x="96.5" y="-84" font-family="Helvetica,sans-Serif" font-size="10.00">alps_common_lib/include</text>
<text text-anchor="start" x="96.5" y="-73" font-family="Helvetica,sans-Serif" font-size="10.00">/alps_cmn/communication</text>
<text text-anchor="middle" x="161" y="-62" font-family="Helvetica,sans-Serif" font-size="10.00">/cobs.hpp</text>
</a>
</g>
</g>
<!-- Node2 -->
<g id="node2" class="node">
<title>Node2</title>
<g id="a_node2"><a xlink:title=" ">
<polygon fill="#e0e0e0" stroke="#999999" points="52,-19 0,-19 0,0 52,0 52,-19"/>
<text text-anchor="middle" x="26" y="-7" font-family="Helvetica,sans-Serif" font-size="10.00">cassert</text>
</a>
</g>
</g>
<!-- Node1&#45;&gt;Node2 -->
<g id="edge1" class="edge">
<title>Node1&#45;&gt;Node2</title>
<path fill="none" stroke="#63b8ff" d="M119.76,-54.95C98.14,-44.7 72.25,-32.43 53.16,-23.38"/>
<polygon fill="#63b8ff" stroke="#63b8ff" points="54.66,-20.21 44.12,-19.09 51.66,-26.54 54.66,-20.21"/>
</g>
<!-- Node3 -->
<g id="node3" class="node">
<title>Node3</title>
<g id="a_node3"><a xlink:title=" ">
<polygon fill="#e0e0e0" stroke="#999999" points="120,-19 70,-19 70,0 120,0 120,-19"/>
<text text-anchor="middle" x="95" y="-7" font-family="Helvetica,sans-Serif" font-size="10.00">cstdint</text>
</a>
</g>
</g>
<!-- Node1&#45;&gt;Node3 -->
<g id="edge2" class="edge">
<title>Node1&#45;&gt;Node3</title>
<path fill="none" stroke="#63b8ff" d="M140.84,-54.95C131.34,-45.74 120.16,-34.9 111.22,-26.23"/>
<polygon fill="#63b8ff" stroke="#63b8ff" points="113.65,-23.71 104.03,-19.26 108.78,-28.73 113.65,-23.71"/>
</g>
<!-- Node4 -->
<g id="node4" class="node">
<title>Node4</title>
<g id="a_node4"><a xlink:title=" ">
<polygon fill="#e0e0e0" stroke="#999999" points="184,-19 138,-19 138,0 184,0 184,-19"/>
<text text-anchor="middle" x="161" y="-7" font-family="Helvetica,sans-Serif" font-size="10.00">cstdio</text>
</a>
</g>
</g>
<!-- Node1&#45;&gt;Node4 -->
<g id="edge3" class="edge">
<title>Node1&#45;&gt;Node4</title>
<path fill="none" stroke="#63b8ff" d="M161,-54.95C161,-46.85 161,-37.5 161,-29.47"/>
<polygon fill="#63b8ff" stroke="#63b8ff" points="164.5,-29.26 161,-19.26 157.5,-29.26 164.5,-29.26"/>
</g>
<!-- Node5 -->
<g id="node5" class="node">
<title>Node5</title>
<g id="a_node5"><a xlink:title=" ">
<polygon fill="#e0e0e0" stroke="#999999" points="251.5,-19 202.5,-19 202.5,0 251.5,0 251.5,-19"/>
<text text-anchor="middle" x="227" y="-7" font-family="Helvetica,sans-Serif" font-size="10.00">cstdlib</text>
</a>
</g>
</g>
<!-- Node1&#45;&gt;Node5 -->
<g id="edge4" class="edge">
<title>Node1&#45;&gt;Node5</title>
<path fill="none" stroke="#63b8ff" d="M181.16,-54.95C190.66,-45.74 201.84,-34.9 210.78,-26.23"/>
<polygon fill="#63b8ff" stroke="#63b8ff" points="213.22,-28.73 217.97,-19.26 208.35,-23.71 213.22,-28.73"/>
</g>
<!-- Node6 -->
<g id="node6" class="node">
<title>Node6</title>
<g id="a_node6"><a xlink:title=" ">
<polygon fill="#e0e0e0" stroke="#999999" points="382,-19 270,-19 270,0 382,0 382,-19"/>
<text text-anchor="middle" x="326" y="-7" font-family="Helvetica,sans-Serif" font-size="10.00">etl/circular_buffer.h</text>
</a>
</g>
</g>
<!-- Node1&#45;&gt;Node6 -->
<g id="edge5" class="edge">
<title>Node1&#45;&gt;Node6</title>
<path fill="none" stroke="#63b8ff" d="M211.4,-54.95C238.44,-44.46 270.92,-31.87 294.39,-22.76"/>
<polygon fill="#63b8ff" stroke="#63b8ff" points="295.79,-25.97 303.85,-19.09 293.26,-19.45 295.79,-25.97"/>
</g>
</g>
</svg>
