<?xml version="1.0" encoding="UTF-8" standalone="no"?>
<!DOCTYPE svg PUBLIC "-//W3C//DTD SVG 1.1//EN"
 "http://www.w3.org/Graphics/SVG/1.1/DTD/svg11.dtd">
<!-- Generated by graphviz version 2.43.0 (0)
 -->
<!-- Title: alps_common_lib/include/alps_cmn/type/container_traits.hpp Pages: 1 -->
<svg width="205pt" height="106pt"
 viewBox="0.00 0.00 204.50 106.00" xmlns="http://www.w3.org/2000/svg" xmlns:xlink="http://www.w3.org/1999/xlink">
<g id="graph0" class="graph" transform="scale(1 1) rotate(0) translate(4 102)">
<title>alps_common_lib/include/alps_cmn/type/container_traits.hpp</title>
<polygon fill="white" stroke="transparent" points="-4,4 -4,-102 200.5,-102 200.5,4 -4,4"/>
<!-- Node1 -->
<g id="node1" class="node">
<title>Node1</title>
<g id="a_node1"><a xlink:title="container関係の型特性">
<polygon fill="#bfbfbf" stroke="black" points="27,-56.5 27,-97.5 167,-97.5 167,-56.5 27,-56.5"/>
<text text-anchor="start" x="35" y="-85.5" font-family="Helvetica,sans-Serif" font-size="10.00">alps_common_lib/include</text>
<text text-anchor="start" x="35" y="-74.5" font-family="Helvetica,sans-Serif" font-size="10.00">/alps_cmn/type/container</text>
<text text-anchor="middle" x="97" y="-63.5" font-family="Helvetica,sans-Serif" font-size="10.00">_traits.hpp</text>
</a>
</g>
</g>
<!-- Node2 -->
<g id="node2" class="node">
<title>Node2</title>
<g id="a_node2"><a xlink:title=" ">
<polygon fill="white" stroke="#bfbfbf" points="0,-0.5 0,-19.5 44,-19.5 44,-0.5 0,-0.5"/>
<text text-anchor="middle" x="22" y="-7.5" font-family="Helvetica,sans-Serif" font-size="10.00">string</text>
</a>
</g>
</g>
<!-- Node1&#45;&gt;Node2 -->
<g id="edge1" class="edge">
<title>Node1&#45;&gt;Node2</title>
<path fill="none" stroke="midnightblue" d="M74.5,-56.5C63.33,-46.82 50.04,-35.3 39.62,-26.27"/>
<polygon fill="midnightblue" stroke="midnightblue" points="41.83,-23.56 31.98,-19.65 37.25,-28.85 41.83,-23.56"/>
</g>
<!-- Node3 -->
<g id="node3" class="node">
<title>Node3</title>
<g id="a_node3"><a xlink:title=" ">
<polygon fill="white" stroke="#bfbfbf" points="62.5,-0.5 62.5,-19.5 131.5,-19.5 131.5,-0.5 62.5,-0.5"/>
<text text-anchor="middle" x="97" y="-7.5" font-family="Helvetica,sans-Serif" font-size="10.00">type_traits</text>
</a>
</g>
</g>
<!-- Node1&#45;&gt;Node3 -->
<g id="edge2" class="edge">
<title>Node1&#45;&gt;Node3</title>
<path fill="none" stroke="midnightblue" d="M97,-56.5C97,-48.07 97,-38.24 97,-29.87"/>
<polygon fill="midnightblue" stroke="midnightblue" points="100.5,-29.65 97,-19.65 93.5,-29.65 100.5,-29.65"/>
</g>
<!-- Node4 -->
<g id="node4" class="node">
<title>Node4</title>
<g id="a_node4"><a xlink:title=" ">
<polygon fill="white" stroke="#bfbfbf" points="149.5,-0.5 149.5,-19.5 196.5,-19.5 196.5,-0.5 149.5,-0.5"/>
<text text-anchor="middle" x="173" y="-7.5" font-family="Helvetica,sans-Serif" font-size="10.00">vector</text>
</a>
</g>
</g>
<!-- Node1&#45;&gt;Node4 -->
<g id="edge3" class="edge">
<title>Node1&#45;&gt;Node4</title>
<path fill="none" stroke="midnightblue" d="M119.8,-56.5C131.12,-46.82 144.59,-35.3 155.14,-26.27"/>
<polygon fill="midnightblue" stroke="midnightblue" points="157.56,-28.81 162.88,-19.65 153.01,-23.49 157.56,-28.81"/>
</g>
</g>
</svg>
