<?xml version="1.0" encoding="UTF-8" standalone="no"?>
<!DOCTYPE svg PUBLIC "-//W3C//DTD SVG 1.1//EN"
 "http://www.w3.org/Graphics/SVG/1.1/DTD/svg11.dtd">
<!-- Generated by graphviz version 2.43.0 (0)
 -->
<!-- Title: alps_common_lib/include/alps_cmn/type/container_traits.hpp Pages: 1 -->
<svg width="338pt" height="295pt"
 viewBox="0.00 0.00 337.50 295.00" xmlns="http://www.w3.org/2000/svg" xmlns:xlink="http://www.w3.org/1999/xlink">
<g id="graph0" class="graph" transform="scale(1 1) rotate(0) translate(4 291)">
<title>alps_common_lib/include/alps_cmn/type/container_traits.hpp</title>
<polygon fill="white" stroke="transparent" points="-4,4 -4,-291 333.5,-291 333.5,4 -4,4"/>
<!-- Node1 -->
<g id="node1" class="node">
<title>Node1</title>
<g id="a_node1"><a xlink:title="container関係の型特性">
<polygon fill="#bfbfbf" stroke="black" points="102.5,-245.5 102.5,-286.5 242.5,-286.5 242.5,-245.5 102.5,-245.5"/>
<text text-anchor="start" x="110.5" y="-274.5" font-family="Helvetica,sans-Serif" font-size="10.00">alps_common_lib/include</text>
<text text-anchor="start" x="110.5" y="-263.5" font-family="Helvetica,sans-Serif" font-size="10.00">/alps_cmn/type/container</text>
<text text-anchor="middle" x="172.5" y="-252.5" font-family="Helvetica,sans-Serif" font-size="10.00">_traits.hpp</text>
</a>
</g>
</g>
<!-- Node2 -->
<g id="node2" class="node">
<title>Node2</title>
<g id="a_node2"><a xlink:href="array__traits_8hpp.html" target="_top" xlink:title="array関係の型特性">
<polygon fill="white" stroke="black" points="0,-173 0,-203 171,-203 171,-173 0,-173"/>
<text text-anchor="start" x="8" y="-191" font-family="Helvetica,sans-Serif" font-size="10.00">alps_common_lib/include</text>
<text text-anchor="middle" x="85.5" y="-180" font-family="Helvetica,sans-Serif" font-size="10.00">/alps_cmn/type/array_traits.hpp</text>
</a>
</g>
</g>
<!-- Node1&#45;&gt;Node2 -->
<g id="edge1" class="edge">
<title>Node1&#45;&gt;Node2</title>
<path fill="none" stroke="midnightblue" d="M142.35,-238.66C128.73,-226.76 113.17,-213.18 101.78,-203.23"/>
<polygon fill="midnightblue" stroke="midnightblue" points="140.26,-241.49 150.1,-245.43 144.87,-236.21 140.26,-241.49"/>
</g>
<!-- Node6 -->
<g id="node6" class="node">
<title>Node6</title>
<g id="a_node6"><a xlink:href="vector__traits_8hpp.html" target="_top" xlink:title="vector関係の型特性">
<polygon fill="white" stroke="black" points="189.5,-167.5 189.5,-208.5 329.5,-208.5 329.5,-167.5 189.5,-167.5"/>
<text text-anchor="start" x="197.5" y="-196.5" font-family="Helvetica,sans-Serif" font-size="10.00">alps_common_lib/include</text>
<text text-anchor="start" x="197.5" y="-185.5" font-family="Helvetica,sans-Serif" font-size="10.00">/alps_cmn/type/vector</text>
<text text-anchor="middle" x="259.5" y="-174.5" font-family="Helvetica,sans-Serif" font-size="10.00">_traits.hpp</text>
</a>
</g>
</g>
<!-- Node1&#45;&gt;Node6 -->
<g id="edge5" class="edge">
<title>Node1&#45;&gt;Node6</title>
<path fill="none" stroke="midnightblue" d="M202.52,-238.78C213.89,-228.84 226.63,-217.72 237.17,-208.51"/>
<polygon fill="midnightblue" stroke="midnightblue" points="200.13,-236.21 194.9,-245.43 204.74,-241.49 200.13,-236.21"/>
</g>
<!-- Node3 -->
<g id="node3" class="node">
<title>Node3</title>
<g id="a_node3"><a xlink:href="topic__converter_8hpp.html" target="_top" xlink:title=" ">
<polygon fill="white" stroke="black" points="113,-89.5 113,-130.5 232,-130.5 232,-89.5 113,-89.5"/>
<text text-anchor="start" x="121" y="-118.5" font-family="Helvetica,sans-Serif" font-size="10.00">alps_ros2_lib/include</text>
<text text-anchor="start" x="121" y="-107.5" font-family="Helvetica,sans-Serif" font-size="10.00">/alps_ros2/type/topic</text>
<text text-anchor="middle" x="172.5" y="-96.5" font-family="Helvetica,sans-Serif" font-size="10.00">_converter.hpp</text>
</a>
</g>
</g>
<!-- Node2&#45;&gt;Node3 -->
<g id="edge2" class="edge">
<title>Node2&#45;&gt;Node3</title>
<path fill="none" stroke="midnightblue" d="M109.7,-165.86C122.3,-154.85 137.62,-141.47 149.97,-130.68"/>
<polygon fill="midnightblue" stroke="midnightblue" points="107.09,-163.49 101.86,-172.7 111.7,-168.76 107.09,-163.49"/>
</g>
<!-- Node4 -->
<g id="node4" class="node">
<title>Node4</title>
<g id="a_node4"><a xlink:href="can__topic__bridge_8hpp.html" target="_top" xlink:title=" ">
<polygon fill="white" stroke="black" points="22,-6 22,-47 167,-47 167,-6 22,-6"/>
<text text-anchor="start" x="30" y="-35" font-family="Helvetica,sans-Serif" font-size="10.00">alps_ros2_lib/include</text>
<text text-anchor="start" x="30" y="-24" font-family="Helvetica,sans-Serif" font-size="10.00">/alps_ros2/communication</text>
<text text-anchor="middle" x="94.5" y="-13" font-family="Helvetica,sans-Serif" font-size="10.00">/can_topic_bridge.hpp</text>
</a>
</g>
</g>
<!-- Node3&#45;&gt;Node4 -->
<g id="edge3" class="edge">
<title>Node3&#45;&gt;Node4</title>
<path fill="none" stroke="midnightblue" d="M146.7,-82.04C135.75,-70.6 123.24,-57.53 113.21,-47.05"/>
<polygon fill="midnightblue" stroke="midnightblue" points="144.18,-84.47 153.62,-89.27 149.23,-79.63 144.18,-84.47"/>
</g>
<!-- Node5 -->
<g id="node5" class="node">
<title>Node5</title>
<g id="a_node5"><a xlink:href="custom__type__topic__conversion__rule_8hpp.html" target="_top" xlink:title=" ">
<polygon fill="white" stroke="black" points="185,-0.5 185,-52.5 316,-52.5 316,-0.5 185,-0.5"/>
<text text-anchor="start" x="193" y="-40.5" font-family="Helvetica,sans-Serif" font-size="10.00">alps_ros2_lib/include</text>
<text text-anchor="start" x="193" y="-29.5" font-family="Helvetica,sans-Serif" font-size="10.00">/alps_ros2/type/custom</text>
<text text-anchor="start" x="193" y="-18.5" font-family="Helvetica,sans-Serif" font-size="10.00">_type_topic_conversion</text>
<text text-anchor="middle" x="250.5" y="-7.5" font-family="Helvetica,sans-Serif" font-size="10.00">_rule.hpp</text>
</a>
</g>
</g>
<!-- Node3&#45;&gt;Node5 -->
<g id="edge4" class="edge">
<title>Node3&#45;&gt;Node5</title>
<path fill="none" stroke="midnightblue" d="M198.38,-81.96C207.44,-72.5 217.57,-61.91 226.47,-52.61"/>
<polygon fill="midnightblue" stroke="midnightblue" points="195.77,-79.63 191.38,-89.27 200.82,-84.47 195.77,-79.63"/>
</g>
<!-- Node6&#45;&gt;Node3 -->
<g id="edge6" class="edge">
<title>Node6&#45;&gt;Node3</title>
<path fill="none" stroke="midnightblue" d="M229.48,-160.78C218.11,-150.84 205.37,-139.72 194.83,-130.51"/>
<polygon fill="midnightblue" stroke="midnightblue" points="227.26,-163.49 237.1,-167.43 231.87,-158.21 227.26,-163.49"/>
</g>
</g>
</svg>
