<?xml version="1.0" encoding="UTF-8" standalone="no"?>
<!DOCTYPE svg PUBLIC "-//W3C//DTD SVG 1.1//EN"
 "http://www.w3.org/Graphics/SVG/1.1/DTD/svg11.dtd">
<!-- Generated by graphviz version 2.43.0 (0)
 -->
<!-- Title: alps_ros2_lib/include/alps_ros2/communication/custom_type_can_topic_conversion_rule.hpp Pages: 1 -->
<svg width="5044pt" height="396pt"
 viewBox="0.00 0.00 5043.50 396.00" xmlns="http://www.w3.org/2000/svg" xmlns:xlink="http://www.w3.org/1999/xlink">
<g id="graph0" class="graph" transform="scale(1 1) rotate(0) translate(4 392)">
<title>alps_ros2_lib/include/alps_ros2/communication/custom_type_can_topic_conversion_rule.hpp</title>
<polygon fill="white" stroke="transparent" points="-4,4 -4,-392 5039.5,-392 5039.5,4 -4,4"/>
<!-- Node1 -->
<g id="node1" class="node">
<title>Node1</title>
<g id="a_node1"><a xlink:title=" ">
<polygon fill="#bfbfbf" stroke="black" points="1586,-335.5 1586,-387.5 1779,-387.5 1779,-335.5 1586,-335.5"/>
<text text-anchor="start" x="1594" y="-375.5" font-family="Helvetica,sans-Serif" font-size="10.00">alps_ros2_lib/include</text>
<text text-anchor="start" x="1594" y="-364.5" font-family="Helvetica,sans-Serif" font-size="10.00">/alps_ros2/communication</text>
<text text-anchor="start" x="1594" y="-353.5" font-family="Helvetica,sans-Serif" font-size="10.00">/custom_type_can_topic_conversion</text>
<text text-anchor="middle" x="1682.5" y="-342.5" font-family="Helvetica,sans-Serif" font-size="10.00">_rule.hpp</text>
</a>
</g>
</g>
<!-- Node2 -->
<g id="node2" class="node">
<title>Node2</title>
<g id="a_node2"><a xlink:href="motor__velocity__controller_8hpp.html" target="_top" xlink:title=" ">
<polygon fill="white" stroke="black" points="364,-263 364,-293 497,-293 497,-263 364,-263"/>
<text text-anchor="start" x="372" y="-281" font-family="Helvetica,sans-Serif" font-size="10.00">alps_cmn/control/motor</text>
<text text-anchor="middle" x="430.5" y="-270" font-family="Helvetica,sans-Serif" font-size="10.00">_velocity_controller.hpp</text>
</a>
</g>
</g>
<!-- Node1&#45;&gt;Node2 -->
<g id="edge1" class="edge">
<title>Node1&#45;&gt;Node2</title>
<path fill="none" stroke="midnightblue" d="M1585.82,-354.21C1345.44,-338.56 724.49,-298.14 507.07,-283.98"/>
<polygon fill="midnightblue" stroke="midnightblue" points="507.23,-280.49 497.02,-283.33 506.77,-287.47 507.23,-280.49"/>
</g>
<!-- Node16 -->
<g id="node14" class="node">
<title>Node16</title>
<g id="a_node14"><a xlink:title=" ">
<polygon fill="white" stroke="#bfbfbf" points="1299,-257.5 1299,-298.5 1444,-298.5 1444,-257.5 1299,-257.5"/>
<text text-anchor="start" x="1307" y="-286.5" font-family="Helvetica,sans-Serif" font-size="10.00">alps_interfaces/msg</text>
<text text-anchor="start" x="1307" y="-275.5" font-family="Helvetica,sans-Serif" font-size="10.00">/motor_velocity_controller</text>
<text text-anchor="middle" x="1371.5" y="-264.5" font-family="Helvetica,sans-Serif" font-size="10.00">_calc_info.hpp</text>
</a>
</g>
</g>
<!-- Node1&#45;&gt;Node16 -->
<g id="edge19" class="edge">
<title>Node1&#45;&gt;Node16</title>
<path fill="none" stroke="midnightblue" d="M1587.08,-335.49C1544.43,-324.32 1494.66,-311.27 1453.69,-300.54"/>
<polygon fill="midnightblue" stroke="midnightblue" points="1454.57,-297.15 1444.01,-298 1452.8,-303.92 1454.57,-297.15"/>
</g>
<!-- Node17 -->
<g id="node15" class="node">
<title>Node17</title>
<g id="a_node15"><a xlink:title=" ">
<polygon fill="white" stroke="#bfbfbf" points="1462,-257.5 1462,-298.5 1607,-298.5 1607,-257.5 1462,-257.5"/>
<text text-anchor="start" x="1470" y="-286.5" font-family="Helvetica,sans-Serif" font-size="10.00">alps_interfaces/msg</text>
<text text-anchor="start" x="1470" y="-275.5" font-family="Helvetica,sans-Serif" font-size="10.00">/motor_velocity_controller</text>
<text text-anchor="middle" x="1534.5" y="-264.5" font-family="Helvetica,sans-Serif" font-size="10.00">_param.hpp</text>
</a>
</g>
</g>
<!-- Node1&#45;&gt;Node17 -->
<g id="edge20" class="edge">
<title>Node1&#45;&gt;Node17</title>
<path fill="none" stroke="midnightblue" d="M1636.89,-335.38C1618.66,-325.35 1597.73,-313.82 1579.56,-303.81"/>
<polygon fill="midnightblue" stroke="midnightblue" points="1580.78,-300.49 1570.34,-298.73 1577.41,-306.62 1580.78,-300.49"/>
</g>
<!-- Node18 -->
<g id="node16" class="node">
<title>Node18</title>
<g id="a_node16"><a xlink:title=" ">
<polygon fill="white" stroke="#bfbfbf" points="1625,-263 1625,-293 1740,-293 1740,-263 1625,-263"/>
<text text-anchor="start" x="1633" y="-281" font-family="Helvetica,sans-Serif" font-size="10.00">alps_interfaces/msg</text>
<text text-anchor="middle" x="1682.5" y="-270" font-family="Helvetica,sans-Serif" font-size="10.00">/pid_calc_info.hpp</text>
</a>
</g>
</g>
<!-- Node1&#45;&gt;Node18 -->
<g id="edge21" class="edge">
<title>Node1&#45;&gt;Node18</title>
<path fill="none" stroke="midnightblue" d="M1682.5,-335.16C1682.5,-325 1682.5,-313.35 1682.5,-303.3"/>
<polygon fill="midnightblue" stroke="midnightblue" points="1686,-303.17 1682.5,-293.17 1679,-303.17 1686,-303.17"/>
</g>
<!-- Node19 -->
<g id="node17" class="node">
<title>Node19</title>
<g id="a_node17"><a xlink:title=" ">
<polygon fill="white" stroke="#bfbfbf" points="1758,-263 1758,-293 1873,-293 1873,-263 1758,-263"/>
<text text-anchor="start" x="1766" y="-281" font-family="Helvetica,sans-Serif" font-size="10.00">alps_interfaces/msg</text>
<text text-anchor="middle" x="1815.5" y="-270" font-family="Helvetica,sans-Serif" font-size="10.00">/pid_param.hpp</text>
</a>
</g>
</g>
<!-- Node1&#45;&gt;Node19 -->
<g id="edge22" class="edge">
<title>Node1&#45;&gt;Node19</title>
<path fill="none" stroke="midnightblue" d="M1723.49,-335.38C1742.86,-323.51 1765.63,-309.56 1783.67,-298.5"/>
<polygon fill="midnightblue" stroke="midnightblue" points="1785.94,-301.22 1792.64,-293.01 1782.28,-295.25 1785.94,-301.22"/>
</g>
<!-- Node20 -->
<g id="node18" class="node">
<title>Node20</title>
<g id="a_node18"><a xlink:title=" ">
<polygon fill="white" stroke="#bfbfbf" points="1891,-263 1891,-293 2006,-293 2006,-263 1891,-263"/>
<text text-anchor="start" x="1899" y="-281" font-family="Helvetica,sans-Serif" font-size="10.00">alps_interfaces/msg</text>
<text text-anchor="middle" x="1948.5" y="-270" font-family="Helvetica,sans-Serif" font-size="10.00">/seconds.hpp</text>
</a>
</g>
</g>
<!-- Node1&#45;&gt;Node20 -->
<g id="edge23" class="edge">
<title>Node1&#45;&gt;Node20</title>
<path fill="none" stroke="midnightblue" d="M1764.12,-335.49C1805.89,-322.69 1855.66,-307.44 1892.96,-296.02"/>
<polygon fill="midnightblue" stroke="midnightblue" points="1894.11,-299.33 1902.64,-293.05 1892.06,-292.63 1894.11,-299.33"/>
</g>
<!-- Node21 -->
<g id="node19" class="node">
<title>Node21</title>
<g id="a_node19"><a xlink:href="can__topic__converter_8hpp.html" target="_top" xlink:title=" ">
<polygon fill="white" stroke="black" points="2855.5,-263 2855.5,-293 2997.5,-293 2997.5,-263 2855.5,-263"/>
<text text-anchor="start" x="2863.5" y="-281" font-family="Helvetica,sans-Serif" font-size="10.00">alps_ros2/communication</text>
<text text-anchor="middle" x="2926.5" y="-270" font-family="Helvetica,sans-Serif" font-size="10.00">/can_topic_converter.hpp</text>
</a>
</g>
</g>
<!-- Node1&#45;&gt;Node21 -->
<g id="edge24" class="edge">
<title>Node1&#45;&gt;Node21</title>
<path fill="none" stroke="midnightblue" d="M1779.08,-354.17C2016.36,-338.63 2624.59,-298.78 2845.1,-284.33"/>
<polygon fill="midnightblue" stroke="midnightblue" points="2845.56,-287.81 2855.31,-283.66 2845.1,-280.83 2845.56,-287.81"/>
</g>
<!-- Node3 -->
<g id="node3" class="node">
<title>Node3</title>
<g id="a_node3"><a xlink:href="i__motor_8hpp.html" target="_top" xlink:title=" ">
<polygon fill="white" stroke="black" points="191,-190.5 191,-220.5 304,-220.5 304,-190.5 191,-190.5"/>
<text text-anchor="start" x="199" y="-208.5" font-family="Helvetica,sans-Serif" font-size="10.00">alps_cmn/actuator/i</text>
<text text-anchor="middle" x="247.5" y="-197.5" font-family="Helvetica,sans-Serif" font-size="10.00">_motor.hpp</text>
</a>
</g>
</g>
<!-- Node2&#45;&gt;Node3 -->
<g id="edge2" class="edge">
<title>Node2&#45;&gt;Node3</title>
<path fill="none" stroke="midnightblue" d="M393.91,-262.9C365.11,-251.81 324.79,-236.28 293.75,-224.32"/>
<polygon fill="midnightblue" stroke="midnightblue" points="294.62,-220.9 284.03,-220.57 292.1,-227.43 294.62,-220.9"/>
</g>
<!-- Node4 -->
<g id="node4" class="node">
<title>Node4</title>
<g id="a_node4"><a xlink:href="low__pass__differentiator_8hpp.html" target="_top" xlink:title=" ">
<polygon fill="white" stroke="black" points="190.5,-123.5 190.5,-153.5 324.5,-153.5 324.5,-123.5 190.5,-123.5"/>
<text text-anchor="start" x="198.5" y="-141.5" font-family="Helvetica,sans-Serif" font-size="10.00">alps_cmn/control/low</text>
<text text-anchor="middle" x="257.5" y="-130.5" font-family="Helvetica,sans-Serif" font-size="10.00">_pass_differentiator.hpp</text>
</a>
</g>
</g>
<!-- Node2&#45;&gt;Node4 -->
<g id="edge3" class="edge">
<title>Node2&#45;&gt;Node4</title>
<path fill="none" stroke="midnightblue" d="M409.3,-262.81C393.16,-251.8 370.54,-235.95 351.5,-221 326.38,-201.28 298.91,-177.15 280.2,-160.28"/>
<polygon fill="midnightblue" stroke="midnightblue" points="282.5,-157.65 272.74,-153.53 277.8,-162.84 282.5,-157.65"/>
</g>
<!-- Node9 -->
<g id="node8" class="node">
<title>Node9</title>
<g id="a_node8"><a xlink:href="pid_8hpp.html" target="_top" xlink:title=" ">
<polygon fill="white" stroke="black" points="361,-196 361,-215 500,-215 500,-196 361,-196"/>
<text text-anchor="middle" x="430.5" y="-203" font-family="Helvetica,sans-Serif" font-size="10.00">alps_cmn/control/pid.hpp</text>
</a>
</g>
</g>
<!-- Node2&#45;&gt;Node9 -->
<g id="edge8" class="edge">
<title>Node2&#45;&gt;Node9</title>
<path fill="none" stroke="midnightblue" d="M430.5,-262.73C430.5,-252 430.5,-237.19 430.5,-225.46"/>
<polygon fill="midnightblue" stroke="midnightblue" points="434,-225.39 430.5,-215.39 427,-225.39 434,-225.39"/>
</g>
<!-- Node15 -->
<g id="node13" class="node">
<title>Node15</title>
<g id="a_node13"><a xlink:href="i__rotary__sensor_8hpp.html" target="_top" xlink:title=" ">
<polygon fill="white" stroke="black" points="518,-190.5 518,-220.5 657,-220.5 657,-190.5 518,-190.5"/>
<text text-anchor="start" x="526" y="-208.5" font-family="Helvetica,sans-Serif" font-size="10.00">alps_cmn/sensor/i_rotary</text>
<text text-anchor="middle" x="587.5" y="-197.5" font-family="Helvetica,sans-Serif" font-size="10.00">_sensor.hpp</text>
</a>
</g>
</g>
<!-- Node2&#45;&gt;Node15 -->
<g id="edge18" class="edge">
<title>Node2&#45;&gt;Node15</title>
<path fill="none" stroke="midnightblue" d="M461.89,-262.9C486.28,-251.95 520.29,-236.68 546.78,-224.79"/>
<polygon fill="midnightblue" stroke="midnightblue" points="548.47,-227.86 556.16,-220.57 545.6,-221.48 548.47,-227.86"/>
</g>
<!-- Node5 -->
<g id="node5" class="node">
<title>Node5</title>
<g id="a_node5"><a xlink:href="differentiator_8hpp.html" target="_top" xlink:title="微分器ライブラリ">
<polygon fill="white" stroke="red" points="0,-62 0,-81 187,-81 187,-62 0,-62"/>
<text text-anchor="middle" x="93.5" y="-69" font-family="Helvetica,sans-Serif" font-size="10.00">alps_cmn/control/differentiator.hpp</text>
</a>
</g>
</g>
<!-- Node4&#45;&gt;Node5 -->
<g id="edge4" class="edge">
<title>Node4&#45;&gt;Node5</title>
<path fill="none" stroke="midnightblue" d="M221.91,-123.4C192.88,-111.89 152.28,-95.8 124.55,-84.81"/>
<polygon fill="midnightblue" stroke="midnightblue" points="125.55,-81.44 114.96,-81.01 122.97,-87.95 125.55,-81.44"/>
</g>
<!-- Node8 -->
<g id="node7" class="node">
<title>Node8</title>
<g id="a_node7"><a xlink:href="low__pass__filter_8hpp.html" target="_top" xlink:title="ローパスフィルタのクラス">
<polygon fill="white" stroke="red" points="204.5,-56.5 204.5,-86.5 324.5,-86.5 324.5,-56.5 204.5,-56.5"/>
<text text-anchor="start" x="212.5" y="-74.5" font-family="Helvetica,sans-Serif" font-size="10.00">alps_cmn/control/low</text>
<text text-anchor="middle" x="264.5" y="-63.5" font-family="Helvetica,sans-Serif" font-size="10.00">_pass_filter.hpp</text>
</a>
</g>
</g>
<!-- Node4&#45;&gt;Node8 -->
<g id="edge6" class="edge">
<title>Node4&#45;&gt;Node8</title>
<path fill="none" stroke="midnightblue" d="M259.02,-123.4C259.86,-115.56 260.94,-105.6 261.91,-96.57"/>
<polygon fill="midnightblue" stroke="midnightblue" points="265.39,-96.89 262.98,-86.58 258.43,-96.14 265.39,-96.89"/>
</g>
<!-- Node6 -->
<g id="node6" class="node">
<title>Node6</title>
<g id="a_node6"><a xlink:title=" ">
<polygon fill="white" stroke="#bfbfbf" points="283.5,-0.5 283.5,-19.5 333.5,-19.5 333.5,-0.5 283.5,-0.5"/>
<text text-anchor="middle" x="308.5" y="-7.5" font-family="Helvetica,sans-Serif" font-size="10.00">chrono</text>
</a>
</g>
</g>
<!-- Node5&#45;&gt;Node6 -->
<g id="edge5" class="edge">
<title>Node5&#45;&gt;Node6</title>
<path fill="none" stroke="midnightblue" d="M124.3,-61.98C163.89,-51.02 232.41,-32.06 273.8,-20.6"/>
<polygon fill="midnightblue" stroke="midnightblue" points="274.74,-23.97 283.45,-17.93 272.88,-17.23 274.74,-23.97"/>
</g>
<!-- Node8&#45;&gt;Node6 -->
<g id="edge7" class="edge">
<title>Node8&#45;&gt;Node6</title>
<path fill="none" stroke="midnightblue" d="M274.93,-56.4C281.26,-47.84 289.37,-36.87 296.03,-27.86"/>
<polygon fill="midnightblue" stroke="midnightblue" points="298.97,-29.78 302.1,-19.66 293.34,-25.62 298.97,-29.78"/>
</g>
<!-- Node9&#45;&gt;Node4 -->
<g id="edge15" class="edge">
<title>Node9&#45;&gt;Node4</title>
<path fill="none" stroke="midnightblue" d="M407.53,-195.87C381.34,-186.03 337.85,-169.69 304.42,-157.13"/>
<polygon fill="midnightblue" stroke="midnightblue" points="305.43,-153.77 294.84,-153.53 302.97,-160.32 305.43,-153.77"/>
</g>
<!-- Node9&#45;&gt;Node6 -->
<g id="edge9" class="edge">
<title>Node9&#45;&gt;Node6</title>
<path fill="none" stroke="midnightblue" d="M417.09,-195.95C403.9,-186.93 383.97,-171.6 371.5,-154 344.49,-115.88 353.33,-98.3 333.5,-56 329.14,-46.69 323.65,-36.67 318.93,-28.45"/>
<polygon fill="midnightblue" stroke="midnightblue" points="321.92,-26.64 313.85,-19.78 315.88,-30.17 321.92,-26.64"/>
</g>
<!-- Node10 -->
<g id="node9" class="node">
<title>Node10</title>
<g id="a_node9"><a xlink:title=" ">
<polygon fill="white" stroke="#bfbfbf" points="381,-129 381,-148 428,-148 428,-129 381,-129"/>
<text text-anchor="middle" x="404.5" y="-136" font-family="Helvetica,sans-Serif" font-size="10.00">cmath</text>
</a>
</g>
</g>
<!-- Node9&#45;&gt;Node10 -->
<g id="edge10" class="edge">
<title>Node9&#45;&gt;Node10</title>
<path fill="none" stroke="midnightblue" d="M426.99,-195.73C423.1,-185.99 416.69,-169.98 411.71,-157.53"/>
<polygon fill="midnightblue" stroke="midnightblue" points="414.91,-156.11 407.95,-148.13 408.42,-158.71 414.91,-156.11"/>
</g>
<!-- Node11 -->
<g id="node10" class="node">
<title>Node11</title>
<g id="a_node10"><a xlink:title=" ">
<polygon fill="white" stroke="#bfbfbf" points="525.5,-62 525.5,-81 569.5,-81 569.5,-62 525.5,-62"/>
<text text-anchor="middle" x="547.5" y="-69" font-family="Helvetica,sans-Serif" font-size="10.00">limits</text>
</a>
</g>
</g>
<!-- Node9&#45;&gt;Node11 -->
<g id="edge11" class="edge">
<title>Node9&#45;&gt;Node11</title>
<path fill="none" stroke="midnightblue" d="M433.74,-195.85C439.97,-180.03 454.87,-145.97 475.5,-123 488.85,-108.14 507.36,-95.28 522.27,-86.25"/>
<polygon fill="midnightblue" stroke="midnightblue" points="524.14,-89.21 531.01,-81.15 520.61,-83.17 524.14,-89.21"/>
</g>
<!-- Node12 -->
<g id="node11" class="node">
<title>Node12</title>
<g id="a_node11"><a xlink:href="integrator_8hpp.html" target="_top" xlink:title="積分器ライブラリ">
<polygon fill="white" stroke="red" points="628,-129 628,-148 799,-148 799,-129 628,-129"/>
<text text-anchor="middle" x="713.5" y="-136" font-family="Helvetica,sans-Serif" font-size="10.00">alps_cmn/control/integrator.hpp</text>
</a>
</g>
</g>
<!-- Node9&#45;&gt;Node12 -->
<g id="edge12" class="edge">
<title>Node9&#45;&gt;Node12</title>
<path fill="none" stroke="midnightblue" d="M467.79,-195.94C518.8,-184.22 610.35,-163.19 666.14,-150.38"/>
<polygon fill="midnightblue" stroke="midnightblue" points="667.17,-153.73 676.13,-148.08 665.6,-146.91 667.17,-153.73"/>
</g>
<!-- Node14 -->
<g id="node12" class="node">
<title>Node14</title>
<g id="a_node12"><a xlink:href="numeric__range_8hpp.html" target="_top" xlink:title="数値の範囲を扱うクラス">
<polygon fill="white" stroke="red" points="485,-123.5 485,-153.5 610,-153.5 610,-123.5 485,-123.5"/>
<text text-anchor="start" x="493" y="-141.5" font-family="Helvetica,sans-Serif" font-size="10.00">alps_cmn/util/numeric</text>
<text text-anchor="middle" x="547.5" y="-130.5" font-family="Helvetica,sans-Serif" font-size="10.00">_range.hpp</text>
</a>
</g>
</g>
<!-- Node9&#45;&gt;Node14 -->
<g id="edge16" class="edge">
<title>Node9&#45;&gt;Node14</title>
<path fill="none" stroke="midnightblue" d="M446.28,-195.73C463.38,-186.23 491.2,-170.78 513.35,-158.47"/>
<polygon fill="midnightblue" stroke="midnightblue" points="515.1,-161.51 522.14,-153.59 511.7,-155.39 515.1,-161.51"/>
</g>
<!-- Node12&#45;&gt;Node6 -->
<g id="edge13" class="edge">
<title>Node12&#45;&gt;Node6</title>
<path fill="none" stroke="midnightblue" d="M702.69,-128.98C680.69,-112.11 628.57,-74.51 578.5,-56 498.02,-26.24 396.75,-16.08 344.05,-12.67"/>
<polygon fill="midnightblue" stroke="midnightblue" points="344.07,-9.16 333.88,-12.06 343.65,-16.15 344.07,-9.16"/>
</g>
<!-- Node12&#45;&gt;Node11 -->
<g id="edge14" class="edge">
<title>Node12&#45;&gt;Node11</title>
<path fill="none" stroke="midnightblue" d="M691.46,-128.87C662.6,-117.57 611.85,-97.7 578.96,-84.82"/>
<polygon fill="midnightblue" stroke="midnightblue" points="579.96,-81.45 569.37,-81.06 577.41,-87.97 579.96,-81.45"/>
</g>
<!-- Node14&#45;&gt;Node11 -->
<g id="edge17" class="edge">
<title>Node14&#45;&gt;Node11</title>
<path fill="none" stroke="midnightblue" d="M547.5,-123.4C547.5,-114.06 547.5,-101.71 547.5,-91.52"/>
<polygon fill="midnightblue" stroke="midnightblue" points="551,-91.19 547.5,-81.19 544,-91.19 551,-91.19"/>
</g>
<!-- Node22 -->
<g id="node20" class="node">
<title>Node22</title>
<g id="a_node20"><a xlink:href="can__typed__data__transceiver_8hpp.html" target="_top" xlink:title="CAN通信で型付けされたデータの送受信を行うライブラリ">
<polygon fill="white" stroke="black" points="963,-190.5 963,-220.5 1140,-220.5 1140,-190.5 963,-190.5"/>
<text text-anchor="start" x="971" y="-208.5" font-family="Helvetica,sans-Serif" font-size="10.00">alps_cmn/communication</text>
<text text-anchor="middle" x="1051.5" y="-197.5" font-family="Helvetica,sans-Serif" font-size="10.00">/can_typed_data_transceiver.hpp</text>
</a>
</g>
</g>
<!-- Node21&#45;&gt;Node22 -->
<g id="edge25" class="edge">
<title>Node21&#45;&gt;Node22</title>
<path fill="none" stroke="midnightblue" d="M2855.38,-275.24C2550.8,-267.66 1362.72,-237.41 1150.3,-220.93"/>
<polygon fill="midnightblue" stroke="midnightblue" points="1150.37,-217.42 1140.12,-220.08 1149.79,-224.4 1150.37,-217.42"/>
</g>
<!-- Node45 -->
<g id="node25" class="node">
<title>Node45</title>
<g id="a_node25"><a xlink:title=" ">
<polygon fill="white" stroke="#bfbfbf" points="1158,-196 1158,-215 1257,-215 1257,-196 1158,-196"/>
<text text-anchor="middle" x="1207.5" y="-203" font-family="Helvetica,sans-Serif" font-size="10.00">rclcpp/rclcpp.hpp</text>
</a>
</g>
</g>
<!-- Node21&#45;&gt;Node45 -->
<g id="edge30" class="edge">
<title>Node21&#45;&gt;Node45</title>
<path fill="none" stroke="midnightblue" d="M2855.33,-275.47C2558.23,-268.96 1425.12,-242.93 1266.5,-221 1260.12,-220.12 1253.43,-218.83 1246.94,-217.39"/>
<polygon fill="midnightblue" stroke="midnightblue" points="1247.52,-213.93 1236.98,-215.02 1245.9,-220.74 1247.52,-213.93"/>
</g>
<!-- Node46 -->
<g id="node26" class="node">
<title>Node46</title>
<g id="a_node26"><a xlink:title=" ">
<polygon fill="white" stroke="#bfbfbf" points="1275.5,-196 1275.5,-215 1407.5,-215 1407.5,-196 1275.5,-196"/>
<text text-anchor="middle" x="1341.5" y="-203" font-family="Helvetica,sans-Serif" font-size="10.00">std_msgs/msg/bool.hpp</text>
</a>
</g>
</g>
<!-- Node21&#45;&gt;Node46 -->
<g id="edge31" class="edge">
<title>Node21&#45;&gt;Node46</title>
<path fill="none" stroke="midnightblue" d="M2855.39,-275.79C2596.06,-271.16 1701.44,-253.17 1417.5,-221 1408.58,-219.99 1399.13,-218.52 1390.05,-216.9"/>
<polygon fill="midnightblue" stroke="midnightblue" points="1390.46,-213.41 1379.99,-215.02 1389.18,-220.29 1390.46,-213.41"/>
</g>
<!-- Node47 -->
<g id="node27" class="node">
<title>Node47</title>
<g id="a_node27"><a xlink:title=" ">
<polygon fill="white" stroke="#bfbfbf" points="1426,-196 1426,-215 1559,-215 1559,-196 1426,-196"/>
<text text-anchor="middle" x="1492.5" y="-203" font-family="Helvetica,sans-Serif" font-size="10.00">std_msgs/msg/byte.hpp</text>
</a>
</g>
</g>
<!-- Node21&#45;&gt;Node47 -->
<g id="edge32" class="edge">
<title>Node21&#45;&gt;Node47</title>
<path fill="none" stroke="midnightblue" d="M2855.1,-275.45C2612.56,-269.95 1821.37,-250.18 1568.5,-221 1559.68,-219.98 1550.34,-218.52 1541.35,-216.92"/>
<polygon fill="midnightblue" stroke="midnightblue" points="1541.86,-213.45 1531.38,-215.06 1540.57,-220.33 1541.86,-213.45"/>
</g>
<!-- Node48 -->
<g id="node28" class="node">
<title>Node48</title>
<g id="a_node28"><a xlink:title=" ">
<polygon fill="white" stroke="#bfbfbf" points="1577,-190.5 1577,-220.5 1720,-220.5 1720,-190.5 1577,-190.5"/>
<text text-anchor="start" x="1585" y="-208.5" font-family="Helvetica,sans-Serif" font-size="10.00">std_msgs/msg/byte_multi</text>
<text text-anchor="middle" x="1648.5" y="-197.5" font-family="Helvetica,sans-Serif" font-size="10.00">_array.hpp</text>
</a>
</g>
</g>
<!-- Node21&#45;&gt;Node48 -->
<g id="edge33" class="edge">
<title>Node21&#45;&gt;Node48</title>
<path fill="none" stroke="midnightblue" d="M2855.41,-276.9C2671.14,-275.95 2162.89,-268.93 1730.61,-221.02"/>
<polygon fill="midnightblue" stroke="midnightblue" points="1730.74,-217.51 1720.42,-219.88 1729.97,-224.46 1730.74,-217.51"/>
</g>
<!-- Node49 -->
<g id="node29" class="node">
<title>Node49</title>
<g id="a_node29"><a xlink:title=" ">
<polygon fill="white" stroke="#bfbfbf" points="1738,-196 1738,-215 1869,-215 1869,-196 1738,-196"/>
<text text-anchor="middle" x="1803.5" y="-203" font-family="Helvetica,sans-Serif" font-size="10.00">std_msgs/msg/char.hpp</text>
</a>
</g>
</g>
<!-- Node21&#45;&gt;Node49 -->
<g id="edge34" class="edge">
<title>Node21&#45;&gt;Node49</title>
<path fill="none" stroke="midnightblue" d="M2855.36,-276.57C2685.67,-274.8 2244.03,-265.88 1878.5,-221 1869.99,-219.95 1860.98,-218.51 1852.29,-216.94"/>
<polygon fill="midnightblue" stroke="midnightblue" points="1852.74,-213.46 1842.26,-215.05 1851.44,-220.34 1852.74,-213.46"/>
</g>
<!-- Node50 -->
<g id="node30" class="node">
<title>Node50</title>
<g id="a_node30"><a xlink:title=" ">
<polygon fill="white" stroke="#bfbfbf" points="1887,-196 1887,-215 2032,-215 2032,-196 1887,-196"/>
<text text-anchor="middle" x="1959.5" y="-203" font-family="Helvetica,sans-Serif" font-size="10.00">std_msgs/msg/float32.hpp</text>
</a>
</g>
</g>
<!-- Node21&#45;&gt;Node50 -->
<g id="edge35" class="edge">
<title>Node21&#45;&gt;Node50</title>
<path fill="none" stroke="midnightblue" d="M2855.42,-275.2C2704.84,-270.79 2342.83,-257.06 2041.5,-221 2032.02,-219.87 2021.97,-218.35 2012.28,-216.73"/>
<polygon fill="midnightblue" stroke="midnightblue" points="2012.8,-213.27 2002.35,-215.01 2011.6,-220.16 2012.8,-213.27"/>
</g>
<!-- Node51 -->
<g id="node31" class="node">
<title>Node51</title>
<g id="a_node31"><a xlink:title=" ">
<polygon fill="white" stroke="#bfbfbf" points="2050.5,-190.5 2050.5,-220.5 2174.5,-220.5 2174.5,-190.5 2050.5,-190.5"/>
<text text-anchor="start" x="2058.5" y="-208.5" font-family="Helvetica,sans-Serif" font-size="10.00">std_msgs/msg/float32</text>
<text text-anchor="middle" x="2112.5" y="-197.5" font-family="Helvetica,sans-Serif" font-size="10.00">_multi_array.hpp</text>
</a>
</g>
</g>
<!-- Node21&#45;&gt;Node51 -->
<g id="edge36" class="edge">
<title>Node21&#45;&gt;Node51</title>
<path fill="none" stroke="midnightblue" d="M2855.34,-274.55C2724.56,-269.41 2437.12,-255.15 2184.95,-220.93"/>
<polygon fill="midnightblue" stroke="midnightblue" points="2185.24,-217.44 2174.86,-219.55 2184.29,-224.37 2185.24,-217.44"/>
</g>
<!-- Node52 -->
<g id="node32" class="node">
<title>Node52</title>
<g id="a_node32"><a xlink:title=" ">
<polygon fill="white" stroke="#bfbfbf" points="2193,-196 2193,-215 2338,-215 2338,-196 2193,-196"/>
<text text-anchor="middle" x="2265.5" y="-203" font-family="Helvetica,sans-Serif" font-size="10.00">std_msgs/msg/float64.hpp</text>
</a>
</g>
</g>
<!-- Node21&#45;&gt;Node52 -->
<g id="edge37" class="edge">
<title>Node21&#45;&gt;Node52</title>
<path fill="none" stroke="midnightblue" d="M2855.43,-271.94C2746.02,-263.73 2529.86,-245.9 2347.5,-221 2338.65,-219.79 2329.3,-218.32 2320.21,-216.79"/>
<polygon fill="midnightblue" stroke="midnightblue" points="2320.54,-213.29 2310.09,-215.04 2319.34,-220.19 2320.54,-213.29"/>
</g>
<!-- Node53 -->
<g id="node33" class="node">
<title>Node53</title>
<g id="a_node33"><a xlink:title=" ">
<polygon fill="white" stroke="#bfbfbf" points="2356.5,-190.5 2356.5,-220.5 2480.5,-220.5 2480.5,-190.5 2356.5,-190.5"/>
<text text-anchor="start" x="2364.5" y="-208.5" font-family="Helvetica,sans-Serif" font-size="10.00">std_msgs/msg/float64</text>
<text text-anchor="middle" x="2418.5" y="-197.5" font-family="Helvetica,sans-Serif" font-size="10.00">_multi_array.hpp</text>
</a>
</g>
</g>
<!-- Node21&#45;&gt;Node53 -->
<g id="edge38" class="edge">
<title>Node21&#45;&gt;Node53</title>
<path fill="none" stroke="midnightblue" d="M2855.49,-269.54C2770.95,-260.28 2625.29,-243.18 2490.86,-221.16"/>
<polygon fill="midnightblue" stroke="midnightblue" points="2491.23,-217.67 2480.79,-219.49 2490.09,-224.57 2491.23,-217.67"/>
</g>
<!-- Node54 -->
<g id="node34" class="node">
<title>Node54</title>
<g id="a_node34"><a xlink:title=" ">
<polygon fill="white" stroke="#bfbfbf" points="2498.5,-196 2498.5,-215 2634.5,-215 2634.5,-196 2498.5,-196"/>
<text text-anchor="middle" x="2566.5" y="-203" font-family="Helvetica,sans-Serif" font-size="10.00">std_msgs/msg/int16.hpp</text>
</a>
</g>
</g>
<!-- Node21&#45;&gt;Node54 -->
<g id="edge39" class="edge">
<title>Node21&#45;&gt;Node54</title>
<path fill="none" stroke="midnightblue" d="M2855.38,-263.07C2786.18,-249.52 2682.59,-229.23 2620.08,-216.99"/>
<polygon fill="midnightblue" stroke="midnightblue" points="2620.52,-213.51 2610.04,-215.03 2619.18,-220.38 2620.52,-213.51"/>
</g>
<!-- Node55 -->
<g id="node35" class="node">
<title>Node55</title>
<g id="a_node35"><a xlink:title=" ">
<polygon fill="white" stroke="#bfbfbf" points="2653,-190.5 2653,-220.5 2768,-220.5 2768,-190.5 2653,-190.5"/>
<text text-anchor="start" x="2661" y="-208.5" font-family="Helvetica,sans-Serif" font-size="10.00">std_msgs/msg/int16</text>
<text text-anchor="middle" x="2710.5" y="-197.5" font-family="Helvetica,sans-Serif" font-size="10.00">_multi_array.hpp</text>
</a>
</g>
</g>
<!-- Node21&#45;&gt;Node55 -->
<g id="edge40" class="edge">
<title>Node21&#45;&gt;Node55</title>
<path fill="none" stroke="midnightblue" d="M2883.57,-262.99C2849.01,-251.71 2800.28,-235.8 2763.33,-223.74"/>
<polygon fill="midnightblue" stroke="midnightblue" points="2764.31,-220.38 2753.72,-220.61 2762.14,-227.04 2764.31,-220.38"/>
</g>
<!-- Node56 -->
<g id="node36" class="node">
<title>Node56</title>
<g id="a_node36"><a xlink:title=" ">
<polygon fill="white" stroke="#bfbfbf" points="2786.5,-196 2786.5,-215 2922.5,-215 2922.5,-196 2786.5,-196"/>
<text text-anchor="middle" x="2854.5" y="-203" font-family="Helvetica,sans-Serif" font-size="10.00">std_msgs/msg/int32.hpp</text>
</a>
</g>
</g>
<!-- Node21&#45;&gt;Node56 -->
<g id="edge41" class="edge">
<title>Node21&#45;&gt;Node56</title>
<path fill="none" stroke="midnightblue" d="M2911.93,-262.73C2900.06,-251.12 2883.32,-234.72 2870.97,-222.62"/>
<polygon fill="midnightblue" stroke="midnightblue" points="2873.18,-219.89 2863.58,-215.39 2868.28,-224.89 2873.18,-219.89"/>
</g>
<!-- Node57 -->
<g id="node37" class="node">
<title>Node57</title>
<g id="a_node37"><a xlink:title=" ">
<polygon fill="white" stroke="#bfbfbf" points="2941,-190.5 2941,-220.5 3056,-220.5 3056,-190.5 2941,-190.5"/>
<text text-anchor="start" x="2949" y="-208.5" font-family="Helvetica,sans-Serif" font-size="10.00">std_msgs/msg/int32</text>
<text text-anchor="middle" x="2998.5" y="-197.5" font-family="Helvetica,sans-Serif" font-size="10.00">_multi_array.hpp</text>
</a>
</g>
</g>
<!-- Node21&#45;&gt;Node57 -->
<g id="edge42" class="edge">
<title>Node21&#45;&gt;Node57</title>
<path fill="none" stroke="midnightblue" d="M2941.07,-262.73C2951.32,-252.7 2965.21,-239.1 2976.76,-227.79"/>
<polygon fill="midnightblue" stroke="midnightblue" points="2979.25,-230.24 2983.95,-220.75 2974.36,-225.24 2979.25,-230.24"/>
</g>
<!-- Node58 -->
<g id="node38" class="node">
<title>Node58</title>
<g id="a_node38"><a xlink:title=" ">
<polygon fill="white" stroke="#bfbfbf" points="3074.5,-196 3074.5,-215 3210.5,-215 3210.5,-196 3074.5,-196"/>
<text text-anchor="middle" x="3142.5" y="-203" font-family="Helvetica,sans-Serif" font-size="10.00">std_msgs/msg/int64.hpp</text>
</a>
</g>
</g>
<!-- Node21&#45;&gt;Node58 -->
<g id="edge43" class="edge">
<title>Node21&#45;&gt;Node58</title>
<path fill="none" stroke="midnightblue" d="M2969.43,-262.99C3009.64,-249.86 3069.03,-230.48 3106.73,-218.17"/>
<polygon fill="midnightblue" stroke="midnightblue" points="3107.87,-221.49 3116.29,-215.05 3105.7,-214.83 3107.87,-221.49"/>
</g>
<!-- Node59 -->
<g id="node39" class="node">
<title>Node59</title>
<g id="a_node39"><a xlink:title=" ">
<polygon fill="white" stroke="#bfbfbf" points="3229,-190.5 3229,-220.5 3344,-220.5 3344,-190.5 3229,-190.5"/>
<text text-anchor="start" x="3237" y="-208.5" font-family="Helvetica,sans-Serif" font-size="10.00">std_msgs/msg/int64</text>
<text text-anchor="middle" x="3286.5" y="-197.5" font-family="Helvetica,sans-Serif" font-size="10.00">_multi_array.hpp</text>
</a>
</g>
</g>
<!-- Node21&#45;&gt;Node59 -->
<g id="edge44" class="edge">
<title>Node21&#45;&gt;Node59</title>
<path fill="none" stroke="midnightblue" d="M2997.64,-263.9C3054.72,-253.28 3137.14,-237.68 3218.82,-221.11"/>
<polygon fill="midnightblue" stroke="midnightblue" points="3219.67,-224.51 3228.78,-219.09 3218.28,-217.65 3219.67,-224.51"/>
</g>
<!-- Node60 -->
<g id="node40" class="node">
<title>Node60</title>
<g id="a_node40"><a xlink:title=" ">
<polygon fill="white" stroke="#bfbfbf" points="3362.5,-196 3362.5,-215 3492.5,-215 3492.5,-196 3362.5,-196"/>
<text text-anchor="middle" x="3427.5" y="-203" font-family="Helvetica,sans-Serif" font-size="10.00">std_msgs/msg/int8.hpp</text>
</a>
</g>
</g>
<!-- Node21&#45;&gt;Node60 -->
<g id="edge45" class="edge">
<title>Node21&#45;&gt;Node60</title>
<path fill="none" stroke="midnightblue" d="M2997.72,-269.05C3082.65,-259.25 3228.8,-241.37 3353.5,-221 3360.96,-219.78 3368.81,-218.38 3376.51,-216.93"/>
<polygon fill="midnightblue" stroke="midnightblue" points="3377.32,-220.34 3386.48,-215.02 3376,-213.46 3377.32,-220.34"/>
</g>
<!-- Node61 -->
<g id="node41" class="node">
<title>Node61</title>
<g id="a_node41"><a xlink:title=" ">
<polygon fill="white" stroke="#bfbfbf" points="3510.5,-190.5 3510.5,-220.5 3650.5,-220.5 3650.5,-190.5 3510.5,-190.5"/>
<text text-anchor="start" x="3518.5" y="-208.5" font-family="Helvetica,sans-Serif" font-size="10.00">std_msgs/msg/int8_multi</text>
<text text-anchor="middle" x="3580.5" y="-197.5" font-family="Helvetica,sans-Serif" font-size="10.00">_array.hpp</text>
</a>
</g>
</g>
<!-- Node21&#45;&gt;Node61 -->
<g id="edge46" class="edge">
<title>Node21&#45;&gt;Node61</title>
<path fill="none" stroke="midnightblue" d="M2997.54,-272.02C3104.45,-264.1 3313.22,-246.96 3500.32,-221.09"/>
<polygon fill="midnightblue" stroke="midnightblue" points="3500.92,-224.54 3510.34,-219.7 3499.95,-217.61 3500.92,-224.54"/>
</g>
<!-- Node62 -->
<g id="node42" class="node">
<title>Node62</title>
<g id="a_node42"><a xlink:title=" ">
<polygon fill="white" stroke="#bfbfbf" points="3669,-196 3669,-215 3808,-215 3808,-196 3669,-196"/>
<text text-anchor="middle" x="3738.5" y="-203" font-family="Helvetica,sans-Serif" font-size="10.00">std_msgs/msg/string.hpp</text>
</a>
</g>
</g>
<!-- Node21&#45;&gt;Node62 -->
<g id="edge47" class="edge">
<title>Node21&#45;&gt;Node62</title>
<path fill="none" stroke="midnightblue" d="M2997.51,-274.06C3128.71,-268.08 3417.75,-252.33 3659.5,-221 3668.34,-219.85 3677.69,-218.38 3686.75,-216.8"/>
<polygon fill="midnightblue" stroke="midnightblue" points="3687.58,-220.21 3696.81,-215 3686.35,-213.32 3687.58,-220.21"/>
</g>
<!-- Node63 -->
<g id="node43" class="node">
<title>Node63</title>
<g id="a_node43"><a xlink:title=" ">
<polygon fill="white" stroke="#bfbfbf" points="3826,-196 3826,-215 3973,-215 3973,-196 3826,-196"/>
<text text-anchor="middle" x="3899.5" y="-203" font-family="Helvetica,sans-Serif" font-size="10.00">std_msgs/msg/u_int16.hpp</text>
</a>
</g>
</g>
<!-- Node21&#45;&gt;Node63 -->
<g id="edge48" class="edge">
<title>Node21&#45;&gt;Node63</title>
<path fill="none" stroke="midnightblue" d="M2997.78,-275.24C3149.2,-270.89 3513.94,-257.26 3817.5,-221 3826.98,-219.87 3837.03,-218.35 3846.72,-216.73"/>
<polygon fill="midnightblue" stroke="midnightblue" points="3847.4,-220.17 3856.65,-215.01 3846.2,-213.27 3847.4,-220.17"/>
</g>
<!-- Node64 -->
<g id="node44" class="node">
<title>Node64</title>
<g id="a_node44"><a xlink:title=" ">
<polygon fill="white" stroke="#bfbfbf" points="3991.5,-190.5 3991.5,-220.5 4117.5,-220.5 4117.5,-190.5 3991.5,-190.5"/>
<text text-anchor="start" x="3999.5" y="-208.5" font-family="Helvetica,sans-Serif" font-size="10.00">std_msgs/msg/u_int16</text>
<text text-anchor="middle" x="4054.5" y="-197.5" font-family="Helvetica,sans-Serif" font-size="10.00">_multi_array.hpp</text>
</a>
</g>
</g>
<!-- Node21&#45;&gt;Node64 -->
<g id="edge49" class="edge">
<title>Node21&#45;&gt;Node64</title>
<path fill="none" stroke="midnightblue" d="M2997.57,-276.8C3166.65,-275.55 3606.08,-267.78 3981.4,-221.01"/>
<polygon fill="midnightblue" stroke="midnightblue" points="3981.88,-224.48 3991.37,-219.76 3981.01,-217.53 3981.88,-224.48"/>
</g>
<!-- Node65 -->
<g id="node45" class="node">
<title>Node65</title>
<g id="a_node45"><a xlink:title=" ">
<polygon fill="white" stroke="#bfbfbf" points="4136,-196 4136,-215 4283,-215 4283,-196 4136,-196"/>
<text text-anchor="middle" x="4209.5" y="-203" font-family="Helvetica,sans-Serif" font-size="10.00">std_msgs/msg/u_int32.hpp</text>
</a>
</g>
</g>
<!-- Node21&#45;&gt;Node65 -->
<g id="edge50" class="edge">
<title>Node21&#45;&gt;Node65</title>
<path fill="none" stroke="midnightblue" d="M2997.75,-276.81C3183.91,-275.63 3699.97,-268.02 4126.5,-221 4136.21,-219.93 4146.51,-218.43 4156.42,-216.8"/>
<polygon fill="midnightblue" stroke="midnightblue" points="4157.3,-220.2 4166.57,-215.06 4156.12,-213.3 4157.3,-220.2"/>
</g>
<!-- Node66 -->
<g id="node46" class="node">
<title>Node66</title>
<g id="a_node46"><a xlink:title=" ">
<polygon fill="white" stroke="#bfbfbf" points="4301.5,-190.5 4301.5,-220.5 4427.5,-220.5 4427.5,-190.5 4301.5,-190.5"/>
<text text-anchor="start" x="4309.5" y="-208.5" font-family="Helvetica,sans-Serif" font-size="10.00">std_msgs/msg/u_int32</text>
<text text-anchor="middle" x="4364.5" y="-197.5" font-family="Helvetica,sans-Serif" font-size="10.00">_multi_array.hpp</text>
</a>
</g>
</g>
<!-- Node21&#45;&gt;Node66 -->
<g id="edge51" class="edge">
<title>Node21&#45;&gt;Node66</title>
<path fill="none" stroke="midnightblue" d="M2997.91,-275.56C3238.33,-270.49 4018.01,-252.11 4291.09,-221"/>
<polygon fill="midnightblue" stroke="midnightblue" points="4291.85,-224.44 4301.38,-219.8 4291.04,-217.49 4291.85,-224.44"/>
</g>
<!-- Node67 -->
<g id="node47" class="node">
<title>Node67</title>
<g id="a_node47"><a xlink:title=" ">
<polygon fill="white" stroke="#bfbfbf" points="4446,-196 4446,-215 4593,-215 4593,-196 4446,-196"/>
<text text-anchor="middle" x="4519.5" y="-203" font-family="Helvetica,sans-Serif" font-size="10.00">std_msgs/msg/u_int64.hpp</text>
</a>
</g>
</g>
<!-- Node21&#45;&gt;Node67 -->
<g id="edge52" class="edge">
<title>Node21&#45;&gt;Node67</title>
<path fill="none" stroke="midnightblue" d="M2997.64,-275.65C3257.09,-270.51 4152.13,-250.97 4436.5,-221 4446.43,-219.95 4456.96,-218.43 4467.07,-216.77"/>
<polygon fill="midnightblue" stroke="midnightblue" points="4467.74,-220.21 4477.01,-215.07 4466.56,-213.31 4467.74,-220.21"/>
</g>
<!-- Node68 -->
<g id="node48" class="node">
<title>Node68</title>
<g id="a_node48"><a xlink:title=" ">
<polygon fill="white" stroke="#bfbfbf" points="4611.5,-190.5 4611.5,-220.5 4737.5,-220.5 4737.5,-190.5 4611.5,-190.5"/>
<text text-anchor="start" x="4619.5" y="-208.5" font-family="Helvetica,sans-Serif" font-size="10.00">std_msgs/msg/u_int64</text>
<text text-anchor="middle" x="4674.5" y="-197.5" font-family="Helvetica,sans-Serif" font-size="10.00">_multi_array.hpp</text>
</a>
</g>
</g>
<!-- Node21&#45;&gt;Node68 -->
<g id="edge53" class="edge">
<title>Node21&#45;&gt;Node68</title>
<path fill="none" stroke="midnightblue" d="M2997.74,-276.19C3272.42,-272.82 4263.79,-258.39 4601.11,-221"/>
<polygon fill="midnightblue" stroke="midnightblue" points="4601.84,-224.43 4611.38,-219.83 4601.05,-217.48 4601.84,-224.43"/>
</g>
<!-- Node69 -->
<g id="node49" class="node">
<title>Node69</title>
<g id="a_node49"><a xlink:title=" ">
<polygon fill="white" stroke="#bfbfbf" points="4756,-196 4756,-215 4897,-215 4897,-196 4756,-196"/>
<text text-anchor="middle" x="4826.5" y="-203" font-family="Helvetica,sans-Serif" font-size="10.00">std_msgs/msg/u_int8.hpp</text>
</a>
</g>
</g>
<!-- Node21&#45;&gt;Node69 -->
<g id="edge54" class="edge">
<title>Node21&#45;&gt;Node69</title>
<path fill="none" stroke="midnightblue" d="M2997.78,-276.22C3290.15,-272.82 4398.32,-257.7 4746.5,-221 4756.08,-219.99 4766.25,-218.49 4776,-216.83"/>
<polygon fill="midnightblue" stroke="midnightblue" points="4776.74,-220.25 4785.97,-215.05 4775.51,-213.36 4776.74,-220.25"/>
</g>
<!-- Node70 -->
<g id="node50" class="node">
<title>Node70</title>
<g id="a_node50"><a xlink:title=" ">
<polygon fill="white" stroke="#bfbfbf" points="4915.5,-190.5 4915.5,-220.5 5035.5,-220.5 5035.5,-190.5 4915.5,-190.5"/>
<text text-anchor="start" x="4923.5" y="-208.5" font-family="Helvetica,sans-Serif" font-size="10.00">std_msgs/msg/u_int8</text>
<text text-anchor="middle" x="4975.5" y="-197.5" font-family="Helvetica,sans-Serif" font-size="10.00">_multi_array.hpp</text>
</a>
</g>
</g>
<!-- Node21&#45;&gt;Node70 -->
<g id="edge55" class="edge">
<title>Node21&#45;&gt;Node70</title>
<path fill="none" stroke="midnightblue" d="M2997.74,-276.69C3303.26,-275.12 4504.94,-266.18 4905.22,-220.97"/>
<polygon fill="midnightblue" stroke="midnightblue" points="4905.86,-224.42 4915.39,-219.79 4905.06,-217.46 4905.86,-224.42"/>
</g>
<!-- Node23 -->
<g id="node21" class="node">
<title>Node23</title>
<g id="a_node21"><a xlink:href="can__callback__handler_8hpp.html" target="_top" xlink:title="CANデータフレームをコールバックで処理するためのライブラリ">
<polygon fill="white" stroke="red" points="817,-123.5 817,-153.5 962,-153.5 962,-123.5 817,-123.5"/>
<text text-anchor="start" x="825" y="-141.5" font-family="Helvetica,sans-Serif" font-size="10.00">alps_cmn/communication</text>
<text text-anchor="middle" x="889.5" y="-130.5" font-family="Helvetica,sans-Serif" font-size="10.00">/can_callback_handler.hpp</text>
</a>
</g>
</g>
<!-- Node22&#45;&gt;Node23 -->
<g id="edge26" class="edge">
<title>Node22&#45;&gt;Node23</title>
<path fill="none" stroke="midnightblue" d="M1016.35,-190.4C992.25,-180.73 960.09,-167.82 934.18,-157.43"/>
<polygon fill="midnightblue" stroke="midnightblue" points="935.17,-154.05 924.58,-153.58 932.56,-160.55 935.17,-154.05"/>
</g>
<!-- Node30 -->
<g id="node22" class="node">
<title>Node30</title>
<g id="a_node22"><a xlink:href="cobs_8hpp.html" target="_top" xlink:title="COBS変換ライブラリ">
<polygon fill="white" stroke="red" points="980.5,-123.5 980.5,-153.5 1122.5,-153.5 1122.5,-123.5 980.5,-123.5"/>
<text text-anchor="start" x="988.5" y="-141.5" font-family="Helvetica,sans-Serif" font-size="10.00">alps_cmn/communication</text>
<text text-anchor="middle" x="1051.5" y="-130.5" font-family="Helvetica,sans-Serif" font-size="10.00">/cobs.hpp</text>
</a>
</g>
</g>
<!-- Node22&#45;&gt;Node30 -->
<g id="edge27" class="edge">
<title>Node22&#45;&gt;Node30</title>
<path fill="none" stroke="midnightblue" d="M1051.5,-190.4C1051.5,-182.64 1051.5,-172.81 1051.5,-163.86"/>
<polygon fill="midnightblue" stroke="midnightblue" points="1055,-163.58 1051.5,-153.58 1048,-163.58 1055,-163.58"/>
</g>
<!-- Node36 -->
<g id="node23" class="node">
<title>Node36</title>
<g id="a_node23"><a xlink:href="serializer_8hpp.html" target="_top" xlink:title="データとバイト列の変換ライブラリ">
<polygon fill="white" stroke="red" points="1140.5,-123.5 1140.5,-153.5 1282.5,-153.5 1282.5,-123.5 1140.5,-123.5"/>
<text text-anchor="start" x="1148.5" y="-141.5" font-family="Helvetica,sans-Serif" font-size="10.00">alps_cmn/communication</text>
<text text-anchor="middle" x="1211.5" y="-130.5" font-family="Helvetica,sans-Serif" font-size="10.00">/serializer.hpp</text>
</a>
</g>
</g>
<!-- Node22&#45;&gt;Node36 -->
<g id="edge28" class="edge">
<title>Node22&#45;&gt;Node36</title>
<path fill="none" stroke="midnightblue" d="M1086.22,-190.4C1110.01,-180.73 1141.78,-167.82 1167.37,-157.43"/>
<polygon fill="midnightblue" stroke="midnightblue" points="1168.9,-160.58 1176.85,-153.58 1166.27,-154.1 1168.9,-160.58"/>
</g>
<!-- Node43 -->
<g id="node24" class="node">
<title>Node43</title>
<g id="a_node24"><a xlink:href="logging__macros_8hpp.html" target="_top" xlink:title=" ">
<polygon fill="white" stroke="red" points="1300.5,-123.5 1300.5,-153.5 1420.5,-153.5 1420.5,-123.5 1300.5,-123.5"/>
<text text-anchor="start" x="1308.5" y="-141.5" font-family="Helvetica,sans-Serif" font-size="10.00">alps_cmn/log/logging</text>
<text text-anchor="middle" x="1360.5" y="-130.5" font-family="Helvetica,sans-Serif" font-size="10.00">_macros.hpp</text>
</a>
</g>
</g>
<!-- Node22&#45;&gt;Node43 -->
<g id="edge29" class="edge">
<title>Node22&#45;&gt;Node43</title>
<path fill="none" stroke="midnightblue" d="M1118.17,-190.48C1168.98,-179.79 1238.78,-165.11 1290.41,-154.24"/>
<polygon fill="midnightblue" stroke="midnightblue" points="1291.42,-157.61 1300.49,-152.12 1289.98,-150.76 1291.42,-157.61"/>
</g>
</g>
</svg>
