<?xml version="1.0" encoding="UTF-8" standalone="no"?>
<!DOCTYPE svg PUBLIC "-//W3C//DTD SVG 1.1//EN"
 "http://www.w3.org/Graphics/SVG/1.1/DTD/svg11.dtd">
<!-- Generated by graphviz version 2.43.0 (0)
 -->
<!-- Title: alps_core/lib_internal/alps_ros2_lib/include/alps_ros2/type/custom_type_param_conversion_rule.hpp Pages: 1 -->
<svg width="811pt" height="247pt"
 viewBox="0.00 0.00 811.00 247.00" xmlns="http://www.w3.org/2000/svg" xmlns:xlink="http://www.w3.org/1999/xlink">
<g id="graph0" class="graph" transform="scale(1 1) rotate(0) translate(4 243)">
<title>alps_core/lib_internal/alps_ros2_lib/include/alps_ros2/type/custom_type_param_conversion_rule.hpp</title>
<!-- Node1 -->
<g id="Node000001" class="node">
<title>Node1</title>
<g id="a_Node000001"><a xlink:title=" ">
<polygon fill="#999999" stroke="#666666" points="290,-239 106,-239 106,-187 290,-187 290,-239"/>
<text text-anchor="start" x="114" y="-227" font-family="Helvetica,sans-Serif" font-size="10.00">alps_core/lib_internal</text>
<text text-anchor="start" x="114" y="-216" font-family="Helvetica,sans-Serif" font-size="10.00">/alps_ros2_lib/include</text>
<text text-anchor="start" x="114" y="-205" font-family="Helvetica,sans-Serif" font-size="10.00">/alps_ros2/type/custom</text>
<text text-anchor="middle" x="198" y="-194" font-family="Helvetica,sans-Serif" font-size="10.00">_type_param_conversion_rule.hpp</text>
</a>
</g>
</g>
<!-- Node2 -->
<g id="Node000002" class="node">
<title>Node2</title>
<g id="a_Node000002"><a xlink:href="duration_8hpp.html" target="_top" xlink:title="時間間隔の型エイリアス">
<polygon fill="white" stroke="#666666" points="196.5,-145.5 43.5,-145.5 43.5,-126.5 196.5,-126.5 196.5,-145.5"/>
<text text-anchor="middle" x="120" y="-133.5" font-family="Helvetica,sans-Serif" font-size="10.00">alps_cmn/time/duration.hpp</text>
</a>
</g>
</g>
<!-- Node1&#45;&gt;Node2 -->
<g id="edge1_Node000001_Node000002" class="edge">
<title>Node1&#45;&gt;Node2</title>
<g id="a_edge1_Node000001_Node000002"><a xlink:title=" ">
<path fill="none" stroke="#63b8ff" d="M171.59,-186.61C160.01,-175.48 146.78,-162.75 136.61,-152.97"/>
<polygon fill="#63b8ff" stroke="#63b8ff" points="138.84,-150.26 129.21,-145.85 133.99,-155.31 138.84,-150.26"/>
</a>
</g>
</g>
<!-- Node4 -->
<g id="Node000004" class="node">
<title>Node4</title>
<g id="a_Node000004"><a xlink:href="param__converter_8hpp.html" target="_top" xlink:title="ROS2パラメータと値の変換ライブラリ">
<polygon fill="white" stroke="#666666" points="432,-151 310,-151 310,-121 432,-121 432,-151"/>
<text text-anchor="start" x="318" y="-139" font-family="Helvetica,sans-Serif" font-size="10.00">alps_ros2/type/param</text>
<text text-anchor="middle" x="371" y="-128" font-family="Helvetica,sans-Serif" font-size="10.00">_converter.hpp</text>
</a>
</g>
</g>
<!-- Node1&#45;&gt;Node4 -->
<g id="edge3_Node000001_Node000004" class="edge">
<title>Node1&#45;&gt;Node4</title>
<g id="a_edge3_Node000001_Node000004"><a xlink:title=" ">
<path fill="none" stroke="#63b8ff" d="M256.09,-186.82C280.03,-176.44 307.24,-164.64 329.17,-155.13"/>
<polygon fill="#63b8ff" stroke="#63b8ff" points="330.75,-158.27 338.53,-151.08 327.96,-151.84 330.75,-158.27"/>
</a>
</g>
</g>
<!-- Node3 -->
<g id="Node000003" class="node">
<title>Node3</title>
<g id="a_Node000003"><a xlink:title=" ">
<polygon fill="#e0e0e0" stroke="#999999" points="50,-79.5 0,-79.5 0,-60.5 50,-60.5 50,-79.5"/>
<text text-anchor="middle" x="25" y="-67.5" font-family="Helvetica,sans-Serif" font-size="10.00">chrono</text>
</a>
</g>
</g>
<!-- Node2&#45;&gt;Node3 -->
<g id="edge2_Node000002_Node000003" class="edge">
<title>Node2&#45;&gt;Node3</title>
<g id="a_edge2_Node000002_Node000003"><a xlink:title=" ">
<path fill="none" stroke="#63b8ff" d="M107.19,-126.37C91.61,-115.87 65.07,-98 46.38,-85.4"/>
<polygon fill="#63b8ff" stroke="#63b8ff" points="48.16,-82.38 37.91,-79.7 44.25,-88.19 48.16,-82.38"/>
</a>
</g>
</g>
<!-- Node5 -->
<g id="Node000005" class="node">
<title>Node5</title>
<g id="a_Node000005"><a xlink:href="tuple__traits_8hpp.html" target="_top" xlink:title="タプル関係の型特性">
<polygon fill="white" stroke="#666666" points="184,-85 68,-85 68,-55 184,-55 184,-85"/>
<text text-anchor="start" x="76" y="-73" font-family="Helvetica,sans-Serif" font-size="10.00">alps_cmn/type/tuple</text>
<text text-anchor="middle" x="126" y="-62" font-family="Helvetica,sans-Serif" font-size="10.00">_traits.hpp</text>
</a>
</g>
</g>
<!-- Node4&#45;&gt;Node5 -->
<g id="edge4_Node000004_Node000005" class="edge">
<title>Node4&#45;&gt;Node5</title>
<g id="a_edge4_Node000004_Node000005"><a xlink:title=" ">
<path fill="none" stroke="#63b8ff" d="M317.23,-120.95C279.58,-111.12 229.11,-97.93 189.47,-87.58"/>
<polygon fill="#63b8ff" stroke="#63b8ff" points="190.2,-84.15 179.64,-85.01 188.43,-90.93 190.2,-84.15"/>
</a>
</g>
</g>
<!-- Node9 -->
<g id="Node000009" class="node">
<title>Node9</title>
<g id="a_Node000009"><a xlink:href="param__map_8hpp.html" target="_top" xlink:title=" ">
<polygon fill="white" stroke="#666666" points="318,-85 202,-85 202,-55 318,-55 318,-85"/>
<text text-anchor="start" x="210" y="-73" font-family="Helvetica,sans-Serif" font-size="10.00">alps_ros2/util/param</text>
<text text-anchor="middle" x="260" y="-62" font-family="Helvetica,sans-Serif" font-size="10.00">_map.hpp</text>
</a>
</g>
</g>
<!-- Node4&#45;&gt;Node9 -->
<g id="edge8_Node000004_Node000009" class="edge">
<title>Node4&#45;&gt;Node9</title>
<g id="a_edge8_Node000004_Node000009"><a xlink:title=" ">
<path fill="none" stroke="#63b8ff" d="M346.64,-120.95C331.03,-111.95 310.55,-100.14 293.42,-90.27"/>
<polygon fill="#63b8ff" stroke="#63b8ff" points="294.71,-86.98 284.3,-85.01 291.22,-93.04 294.71,-86.98"/>
</a>
</g>
</g>
<!-- Node13 -->
<g id="Node000013" class="node">
<title>Node13</title>
<g id="a_Node000013"><a xlink:title=" ">
<polygon fill="#e0e0e0" stroke="#999999" points="405.5,-79.5 336.5,-79.5 336.5,-60.5 405.5,-60.5 405.5,-79.5"/>
<text text-anchor="middle" x="371" y="-67.5" font-family="Helvetica,sans-Serif" font-size="10.00">etl/string.h</text>
</a>
</g>
</g>
<!-- Node4&#45;&gt;Node13 -->
<g id="edge12_Node000004_Node000013" class="edge">
<title>Node4&#45;&gt;Node13</title>
<g id="a_edge12_Node000004_Node000013"><a xlink:title=" ">
<path fill="none" stroke="#63b8ff" d="M371,-120.8C371,-111.7 371,-99.79 371,-89.9"/>
<polygon fill="#63b8ff" stroke="#63b8ff" points="374.5,-89.84 371,-79.84 367.5,-89.84 374.5,-89.84"/>
</a>
</g>
</g>
<!-- Node14 -->
<g id="Node000014" class="node">
<title>Node14</title>
<g id="a_Node000014"><a xlink:title=" ">
<polygon fill="#e0e0e0" stroke="#999999" points="494.5,-79.5 423.5,-79.5 423.5,-60.5 494.5,-60.5 494.5,-79.5"/>
<text text-anchor="middle" x="459" y="-67.5" font-family="Helvetica,sans-Serif" font-size="10.00">etl/vector.h</text>
</a>
</g>
</g>
<!-- Node4&#45;&gt;Node14 -->
<g id="edge13_Node000004_Node000014" class="edge">
<title>Node4&#45;&gt;Node14</title>
<g id="a_edge13_Node000004_Node000014"><a xlink:title=" ">
<path fill="none" stroke="#63b8ff" d="M390.53,-120.8C404.87,-110.37 424.3,-96.24 438.79,-85.69"/>
<polygon fill="#63b8ff" stroke="#63b8ff" points="441.07,-88.37 447.09,-79.66 436.95,-82.71 441.07,-88.37"/>
</a>
</g>
</g>
<!-- Node15 -->
<g id="Node000015" class="node">
<title>Node15</title>
<g id="a_Node000015"><a xlink:title=" ">
<polygon fill="#e0e0e0" stroke="#999999" points="679.5,-79.5 512.5,-79.5 512.5,-60.5 679.5,-60.5 679.5,-79.5"/>
<text text-anchor="middle" x="596" y="-67.5" font-family="Helvetica,sans-Serif" font-size="10.00">magic_enum/magic_enum.hpp</text>
</a>
</g>
</g>
<!-- Node4&#45;&gt;Node15 -->
<g id="edge14_Node000004_Node000015" class="edge">
<title>Node4&#45;&gt;Node15</title>
<g id="a_edge14_Node000004_Node000015"><a xlink:title=" ">
<path fill="none" stroke="#63b8ff" d="M420.38,-120.95C461.23,-109.34 518.49,-93.05 556.39,-82.27"/>
<polygon fill="#63b8ff" stroke="#63b8ff" points="557.4,-85.62 566.06,-79.52 555.48,-78.89 557.4,-85.62"/>
</a>
</g>
</g>
<!-- Node16 -->
<g id="Node000016" class="node">
<title>Node16</title>
<g id="a_Node000016"><a xlink:title=" ">
<polygon fill="#e0e0e0" stroke="#999999" points="803,-79.5 697,-79.5 697,-60.5 803,-60.5 803,-79.5"/>
<text text-anchor="middle" x="750" y="-67.5" font-family="Helvetica,sans-Serif" font-size="10.00">rclcpp/logging.hpp</text>
</a>
</g>
</g>
<!-- Node4&#45;&gt;Node16 -->
<g id="edge15_Node000004_Node000016" class="edge">
<title>Node4&#45;&gt;Node16</title>
<g id="a_edge15_Node000004_Node000016"><a xlink:title=" ">
<path fill="none" stroke="#63b8ff" d="M432.18,-126.67C496.38,-117.63 600.11,-102.17 689,-85 694.07,-84.02 699.36,-82.92 704.62,-81.78"/>
<polygon fill="#63b8ff" stroke="#63b8ff" points="705.6,-85.15 714.61,-79.56 704.09,-78.32 705.6,-85.15"/>
</a>
</g>
</g>
<!-- Node6 -->
<g id="Node000006" class="node">
<title>Node6</title>
<g id="a_Node000006"><a xlink:title=" ">
<polygon fill="#e0e0e0" stroke="#999999" points="45,-19 1,-19 1,0 45,0 45,-19"/>
<text text-anchor="middle" x="23" y="-7" font-family="Helvetica,sans-Serif" font-size="10.00">string</text>
</a>
</g>
</g>
<!-- Node5&#45;&gt;Node6 -->
<g id="edge5_Node000005_Node000006" class="edge">
<title>Node5&#45;&gt;Node6</title>
<g id="a_edge5_Node000005_Node000006"><a xlink:title=" ">
<path fill="none" stroke="#63b8ff" d="M101.33,-54.99C84.91,-45.66 63.45,-33.47 47.14,-24.21"/>
<polygon fill="#63b8ff" stroke="#63b8ff" points="48.63,-21.03 38.21,-19.14 45.18,-27.12 48.63,-21.03"/>
</a>
</g>
</g>
<!-- Node7 -->
<g id="Node000007" class="node">
<title>Node7</title>
<g id="a_Node000007"><a xlink:title=" ">
<polygon fill="#e0e0e0" stroke="#999999" points="104.5,-19 63.5,-19 63.5,0 104.5,0 104.5,-19"/>
<text text-anchor="middle" x="84" y="-7" font-family="Helvetica,sans-Serif" font-size="10.00">tuple</text>
</a>
</g>
</g>
<!-- Node5&#45;&gt;Node7 -->
<g id="edge6_Node000005_Node000007" class="edge">
<title>Node5&#45;&gt;Node7</title>
<g id="a_edge6_Node000005_Node000007"><a xlink:title=" ">
<path fill="none" stroke="#63b8ff" d="M115.83,-54.84C109.92,-46.61 102.44,-36.18 96.21,-27.51"/>
<polygon fill="#63b8ff" stroke="#63b8ff" points="98.97,-25.35 90.29,-19.27 93.28,-29.43 98.97,-25.35"/>
</a>
</g>
</g>
<!-- Node8 -->
<g id="Node000008" class="node">
<title>Node8</title>
<g id="a_Node000008"><a xlink:title=" ">
<polygon fill="#e0e0e0" stroke="#999999" points="191.5,-19 122.5,-19 122.5,0 191.5,0 191.5,-19"/>
<text text-anchor="middle" x="157" y="-7" font-family="Helvetica,sans-Serif" font-size="10.00">type_traits</text>
</a>
</g>
</g>
<!-- Node5&#45;&gt;Node8 -->
<g id="edge7_Node000005_Node000008" class="edge">
<title>Node5&#45;&gt;Node8</title>
<g id="a_edge7_Node000005_Node000008"><a xlink:title=" ">
<path fill="none" stroke="#63b8ff" d="M133.5,-54.84C137.73,-46.87 143.04,-36.84 147.55,-28.33"/>
<polygon fill="#63b8ff" stroke="#63b8ff" points="150.77,-29.74 152.35,-19.27 144.58,-26.46 150.77,-29.74"/>
</a>
</g>
</g>
<!-- Node10 -->
<g id="Node000010" class="node">
<title>Node10</title>
<g id="a_Node000010"><a xlink:title=" ">
<polygon fill="#e0e0e0" stroke="#999999" points="248,-19 210,-19 210,0 248,0 248,-19"/>
<text text-anchor="middle" x="229" y="-7" font-family="Helvetica,sans-Serif" font-size="10.00">map</text>
</a>
</g>
</g>
<!-- Node9&#45;&gt;Node10 -->
<g id="edge9_Node000009_Node000010" class="edge">
<title>Node9&#45;&gt;Node10</title>
<g id="a_edge9_Node000009_Node000010"><a xlink:title=" ">
<path fill="none" stroke="#63b8ff" d="M252.5,-54.84C248.27,-46.87 242.96,-36.84 238.45,-28.33"/>
<polygon fill="#63b8ff" stroke="#63b8ff" points="241.42,-26.46 233.65,-19.27 235.23,-29.74 241.42,-26.46"/>
</a>
</g>
</g>
<!-- Node11 -->
<g id="Node000011" class="node">
<title>Node11</title>
<g id="a_Node000011"><a xlink:title=" ">
<polygon fill="#e0e0e0" stroke="#999999" points="322,-19 266,-19 266,0 322,0 322,-19"/>
<text text-anchor="middle" x="294" y="-7" font-family="Helvetica,sans-Serif" font-size="10.00">optional</text>
</a>
</g>
</g>
<!-- Node9&#45;&gt;Node11 -->
<g id="edge10_Node000009_Node000011" class="edge">
<title>Node9&#45;&gt;Node11</title>
<g id="a_edge10_Node000009_Node000011"><a xlink:title=" ">
<path fill="none" stroke="#63b8ff" d="M268.23,-54.84C272.91,-46.78 278.82,-36.62 283.8,-28.06"/>
<polygon fill="#63b8ff" stroke="#63b8ff" points="286.91,-29.67 288.91,-19.27 280.85,-26.15 286.91,-29.67"/>
</a>
</g>
</g>
<!-- Node12 -->
<g id="Node000012" class="node">
<title>Node12</title>
<g id="a_Node000012"><a xlink:title=" ">
<polygon fill="#e0e0e0" stroke="#999999" points="460,-19 340,-19 340,0 460,0 460,-19"/>
<text text-anchor="middle" x="400" y="-7" font-family="Helvetica,sans-Serif" font-size="10.00">rclcpp/parameter.hpp</text>
</a>
</g>
</g>
<!-- Node9&#45;&gt;Node12 -->
<g id="edge11_Node000009_Node000012" class="edge">
<title>Node9&#45;&gt;Node12</title>
<g id="a_edge11_Node000009_Node000012"><a xlink:title=" ">
<path fill="none" stroke="#63b8ff" d="M293.53,-54.99C316.79,-45.27 347.49,-32.44 369.95,-23.06"/>
<polygon fill="#63b8ff" stroke="#63b8ff" points="371.45,-26.22 379.32,-19.14 368.75,-19.77 371.45,-26.22"/>
</a>
</g>
</g>
</g>
</svg>
