<?xml version="1.0" encoding="UTF-8" standalone="no"?>
<!DOCTYPE svg PUBLIC "-//W3C//DTD SVG 1.1//EN"
 "http://www.w3.org/Graphics/SVG/1.1/DTD/svg11.dtd">
<!-- Generated by graphviz version 2.43.0 (0)
 -->
<!-- Title: alps_common_lib/include/alps_cmn/communication/custom_type_serialize_rule.hpp Pages: 1 -->
<svg width="1289pt" height="430pt"
 viewBox="0.00 0.00 1288.70 430.00" xmlns="http://www.w3.org/2000/svg" xmlns:xlink="http://www.w3.org/1999/xlink">
<g id="graph0" class="graph" transform="scale(1 1) rotate(0) translate(4 426)">
<title>alps_common_lib/include/alps_cmn/communication/custom_type_serialize_rule.hpp</title>
<polygon fill="white" stroke="transparent" points="-4,4 -4,-426 1284.7,-426 1284.7,4 -4,4"/>
<!-- Node1 -->
<g id="node1" class="node">
<title>Node1</title>
<g id="a_node1"><a xlink:title="カスタム型のシリアライズ規則を定義する">
<polygon fill="#bfbfbf" stroke="black" points="921.5,-380.5 921.5,-421.5 1095.5,-421.5 1095.5,-380.5 921.5,-380.5"/>
<text text-anchor="start" x="929.5" y="-409.5" font-family="Helvetica,sans-Serif" font-size="10.00">alps_common_lib/include</text>
<text text-anchor="start" x="929.5" y="-398.5" font-family="Helvetica,sans-Serif" font-size="10.00">/alps_cmn/communication</text>
<text text-anchor="middle" x="1008.5" y="-387.5" font-family="Helvetica,sans-Serif" font-size="10.00">/custom_type_serialize_rule.hpp</text>
</a>
</g>
</g>
<!-- Node2 -->
<g id="node2" class="node">
<title>Node2</title>
<g id="a_node2"><a xlink:href="serializer_8hpp.html" target="_top" xlink:title="データとバイト列の変換ライブラリ">
<polygon fill="white" stroke="black" points="389.5,-313.5 389.5,-343.5 531.5,-343.5 531.5,-313.5 389.5,-313.5"/>
<text text-anchor="start" x="397.5" y="-331.5" font-family="Helvetica,sans-Serif" font-size="10.00">alps_cmn/communication</text>
<text text-anchor="middle" x="460.5" y="-320.5" font-family="Helvetica,sans-Serif" font-size="10.00">/serializer.hpp</text>
</a>
</g>
</g>
<!-- Node1&#45;&gt;Node2 -->
<g id="edge1" class="edge">
<title>Node1&#45;&gt;Node2</title>
<path fill="none" stroke="midnightblue" d="M921.36,-388.79C816.99,-375.36 643.51,-353.04 541.8,-339.96"/>
<polygon fill="midnightblue" stroke="midnightblue" points="541.94,-336.45 531.58,-338.64 541.05,-343.39 541.94,-336.45"/>
</g>
<!-- Node12 -->
<g id="node12" class="node">
<title>Node12</title>
<g id="a_node12"><a xlink:href="motor__velocity__controller_8hpp.html" target="_top" xlink:title=" ">
<polygon fill="white" stroke="black" points="942,-313.5 942,-343.5 1075,-343.5 1075,-313.5 942,-313.5"/>
<text text-anchor="start" x="950" y="-331.5" font-family="Helvetica,sans-Serif" font-size="10.00">alps_cmn/control/motor</text>
<text text-anchor="middle" x="1008.5" y="-320.5" font-family="Helvetica,sans-Serif" font-size="10.00">_velocity_controller.hpp</text>
</a>
</g>
</g>
<!-- Node1&#45;&gt;Node12 -->
<g id="edge11" class="edge">
<title>Node1&#45;&gt;Node12</title>
<path fill="none" stroke="midnightblue" d="M1008.5,-380.36C1008.5,-372.23 1008.5,-362.7 1008.5,-354.11"/>
<polygon fill="midnightblue" stroke="midnightblue" points="1012,-353.89 1008.5,-343.89 1005,-353.89 1012,-353.89"/>
</g>
<!-- Node17 -->
<g id="node17" class="node">
<title>Node17</title>
<g id="a_node17"><a xlink:href="duration_8hpp.html" target="_top" xlink:title="時間間隔の型エイリアス">
<polygon fill="white" stroke="black" points="926,-56.5 926,-75.5 1079,-75.5 1079,-56.5 926,-56.5"/>
<text text-anchor="middle" x="1002.5" y="-63.5" font-family="Helvetica,sans-Serif" font-size="10.00">alps_cmn/time/duration.hpp</text>
</a>
</g>
</g>
<!-- Node1&#45;&gt;Node17 -->
<g id="edge35" class="edge">
<title>Node1&#45;&gt;Node17</title>
<path fill="none" stroke="midnightblue" d="M1095.79,-391.7C1174.67,-378.82 1278.5,-346.01 1278.5,-262.5 1278.5,-262.5 1278.5,-262.5 1278.5,-193.5 1278.5,-156.4 1287.31,-137.64 1260.5,-112 1236.29,-88.85 1154.46,-77.44 1089.37,-71.92"/>
<polygon fill="midnightblue" stroke="midnightblue" points="1089.33,-68.41 1079.08,-71.09 1088.76,-75.39 1089.33,-68.41"/>
</g>
<!-- Node3 -->
<g id="node3" class="node">
<title>Node3</title>
<g id="a_node3"><a xlink:title=" ">
<polygon fill="white" stroke="#bfbfbf" points="392.5,-252 392.5,-271 456.5,-271 456.5,-252 392.5,-252"/>
<text text-anchor="middle" x="424.5" y="-259" font-family="Helvetica,sans-Serif" font-size="10.00">algorithm</text>
</a>
</g>
</g>
<!-- Node2&#45;&gt;Node3 -->
<g id="edge2" class="edge">
<title>Node2&#45;&gt;Node3</title>
<path fill="none" stroke="midnightblue" d="M452.69,-313.4C447.3,-303.66 440.09,-290.65 434.31,-280.21"/>
<polygon fill="midnightblue" stroke="midnightblue" points="437.22,-278.25 429.32,-271.19 431.1,-281.64 437.22,-278.25"/>
</g>
<!-- Node4 -->
<g id="node4" class="node">
<title>Node4</title>
<g id="a_node4"><a xlink:title=" ">
<polygon fill="white" stroke="#bfbfbf" points="474.5,-252 474.5,-271 516.5,-271 516.5,-252 474.5,-252"/>
<text text-anchor="middle" x="495.5" y="-259" font-family="Helvetica,sans-Serif" font-size="10.00">array</text>
</a>
</g>
</g>
<!-- Node2&#45;&gt;Node4 -->
<g id="edge3" class="edge">
<title>Node2&#45;&gt;Node4</title>
<path fill="none" stroke="midnightblue" d="M468.09,-313.4C473.34,-303.66 480.34,-290.65 485.96,-280.21"/>
<polygon fill="midnightblue" stroke="midnightblue" points="489.16,-281.66 490.82,-271.19 483,-278.34 489.16,-281.66"/>
</g>
<!-- Node5 -->
<g id="node5" class="node">
<title>Node5</title>
<g id="a_node5"><a xlink:title=" ">
<polygon fill="white" stroke="#bfbfbf" points="534.5,-252 534.5,-271 584.5,-271 584.5,-252 534.5,-252"/>
<text text-anchor="middle" x="559.5" y="-259" font-family="Helvetica,sans-Serif" font-size="10.00">cstdint</text>
</a>
</g>
</g>
<!-- Node2&#45;&gt;Node5 -->
<g id="edge4" class="edge">
<title>Node2&#45;&gt;Node5</title>
<path fill="none" stroke="midnightblue" d="M481.98,-313.4C498.58,-302.5 521.46,-287.48 538.05,-276.58"/>
<polygon fill="midnightblue" stroke="midnightblue" points="540.1,-279.42 546.54,-271.01 536.26,-273.57 540.1,-279.42"/>
</g>
<!-- Node6 -->
<g id="node6" class="node">
<title>Node6</title>
<g id="a_node6"><a xlink:title=" ">
<polygon fill="white" stroke="#bfbfbf" points="602.5,-252 602.5,-271 652.5,-271 652.5,-252 602.5,-252"/>
<text text-anchor="middle" x="627.5" y="-259" font-family="Helvetica,sans-Serif" font-size="10.00">cstring</text>
</a>
</g>
</g>
<!-- Node2&#45;&gt;Node6 -->
<g id="edge5" class="edge">
<title>Node2&#45;&gt;Node6</title>
<path fill="none" stroke="midnightblue" d="M498.78,-313.43C525.44,-303.52 561.77,-289.78 593.5,-277 595.1,-276.36 596.73,-275.69 598.38,-275.01"/>
<polygon fill="midnightblue" stroke="midnightblue" points="599.91,-278.16 607.78,-271.07 597.2,-271.71 599.91,-278.16"/>
</g>
<!-- Node7 -->
<g id="node7" class="node">
<title>Node7</title>
<g id="a_node7"><a xlink:title=" ">
<polygon fill="white" stroke="#bfbfbf" points="671,-252 671,-271 712,-271 712,-252 671,-252"/>
<text text-anchor="middle" x="691.5" y="-259" font-family="Helvetica,sans-Serif" font-size="10.00">tuple</text>
</a>
</g>
</g>
<!-- Node2&#45;&gt;Node7 -->
<g id="edge6" class="edge">
<title>Node2&#45;&gt;Node7</title>
<path fill="none" stroke="midnightblue" d="M531.32,-313.42C570.31,-304.75 619.22,-292.35 661.5,-277 662.93,-276.48 664.38,-275.92 665.83,-275.32"/>
<polygon fill="midnightblue" stroke="midnightblue" points="667.56,-278.38 675.26,-271.1 664.7,-271.99 667.56,-278.38"/>
</g>
<!-- Node8 -->
<g id="node8" class="node">
<title>Node8</title>
<g id="a_node8"><a xlink:title=" ">
<polygon fill="white" stroke="#bfbfbf" points="0,-252 0,-271 69,-271 69,-252 0,-252"/>
<text text-anchor="middle" x="34.5" y="-259" font-family="Helvetica,sans-Serif" font-size="10.00">type_traits</text>
</a>
</g>
</g>
<!-- Node2&#45;&gt;Node8 -->
<g id="edge7" class="edge">
<title>Node2&#45;&gt;Node8</title>
<path fill="none" stroke="midnightblue" d="M389.39,-322.1C312.14,-315.31 185.45,-301.46 78.5,-277 75.02,-276.2 71.43,-275.25 67.87,-274.21"/>
<polygon fill="midnightblue" stroke="midnightblue" points="68.61,-270.78 58.02,-271.15 66.53,-277.46 68.61,-270.78"/>
</g>
<!-- Node9 -->
<g id="node9" class="node">
<title>Node9</title>
<g id="a_node9"><a xlink:title=" ">
<polygon fill="white" stroke="#bfbfbf" points="87.5,-252 87.5,-271 197.5,-271 197.5,-252 87.5,-252"/>
<text text-anchor="middle" x="142.5" y="-259" font-family="Helvetica,sans-Serif" font-size="10.00">etl/circular_buffer.h</text>
</a>
</g>
</g>
<!-- Node2&#45;&gt;Node9 -->
<g id="edge8" class="edge">
<title>Node2&#45;&gt;Node9</title>
<path fill="none" stroke="midnightblue" d="M389.23,-313.85C338.26,-303.97 268.07,-290.09 206.5,-277 201,-275.83 195.24,-274.57 189.52,-273.3"/>
<polygon fill="midnightblue" stroke="midnightblue" points="189.88,-269.8 179.35,-271.02 188.35,-276.63 189.88,-269.8"/>
</g>
<!-- Node10 -->
<g id="node10" class="node">
<title>Node10</title>
<g id="a_node10"><a xlink:title=" ">
<polygon fill="white" stroke="#bfbfbf" points="216,-252 216,-271 285,-271 285,-252 216,-252"/>
<text text-anchor="middle" x="250.5" y="-259" font-family="Helvetica,sans-Serif" font-size="10.00">etl/string.h</text>
</a>
</g>
</g>
<!-- Node2&#45;&gt;Node10 -->
<g id="edge9" class="edge">
<title>Node2&#45;&gt;Node10</title>
<path fill="none" stroke="midnightblue" d="M412.51,-313.42C379.06,-303.51 333.46,-289.78 293.5,-277 290.76,-276.12 287.92,-275.2 285.07,-274.26"/>
<polygon fill="midnightblue" stroke="midnightblue" points="286.06,-270.9 275.47,-271.07 283.85,-277.55 286.06,-270.9"/>
</g>
<!-- Node11 -->
<g id="node11" class="node">
<title>Node11</title>
<g id="a_node11"><a xlink:title=" ">
<polygon fill="white" stroke="#bfbfbf" points="303,-252 303,-271 374,-271 374,-252 303,-252"/>
<text text-anchor="middle" x="338.5" y="-259" font-family="Helvetica,sans-Serif" font-size="10.00">etl/vector.h</text>
</a>
</g>
</g>
<!-- Node2&#45;&gt;Node11 -->
<g id="edge10" class="edge">
<title>Node2&#45;&gt;Node11</title>
<path fill="none" stroke="midnightblue" d="M434.03,-313.4C413.1,-302.24 384.07,-286.78 363.53,-275.83"/>
<polygon fill="midnightblue" stroke="midnightblue" points="364.94,-272.62 354.47,-271.01 361.65,-278.8 364.94,-272.62"/>
</g>
<!-- Node13 -->
<g id="node13" class="node">
<title>Node13</title>
<g id="a_node13"><a xlink:href="i__motor_8hpp.html" target="_top" xlink:title=" ">
<polygon fill="white" stroke="black" points="730,-246.5 730,-276.5 843,-276.5 843,-246.5 730,-246.5"/>
<text text-anchor="start" x="738" y="-264.5" font-family="Helvetica,sans-Serif" font-size="10.00">alps_cmn/actuator/i</text>
<text text-anchor="middle" x="786.5" y="-253.5" font-family="Helvetica,sans-Serif" font-size="10.00">_motor.hpp</text>
</a>
</g>
</g>
<!-- Node12&#45;&gt;Node13 -->
<g id="edge12" class="edge">
<title>Node12&#45;&gt;Node13</title>
<path fill="none" stroke="midnightblue" d="M960.6,-313.48C926.58,-303.51 880.72,-290.09 844.6,-279.51"/>
<polygon fill="midnightblue" stroke="midnightblue" points="845.27,-276.06 834.69,-276.61 843.31,-282.78 845.27,-276.06"/>
</g>
<!-- Node14 -->
<g id="node14" class="node">
<title>Node14</title>
<g id="a_node14"><a xlink:href="low__pass__differentiator_8hpp.html" target="_top" xlink:title=" ">
<polygon fill="white" stroke="black" points="1071.5,-179.5 1071.5,-209.5 1205.5,-209.5 1205.5,-179.5 1071.5,-179.5"/>
<text text-anchor="start" x="1079.5" y="-197.5" font-family="Helvetica,sans-Serif" font-size="10.00">alps_cmn/control/low</text>
<text text-anchor="middle" x="1138.5" y="-186.5" font-family="Helvetica,sans-Serif" font-size="10.00">_pass_differentiator.hpp</text>
</a>
</g>
</g>
<!-- Node12&#45;&gt;Node14 -->
<g id="edge13" class="edge">
<title>Node12&#45;&gt;Node14</title>
<path fill="none" stroke="midnightblue" d="M1075.21,-323.93C1108.32,-318.38 1145.61,-305.61 1166.5,-277 1179.35,-259.41 1168.52,-235.46 1156.79,-218.08"/>
<polygon fill="midnightblue" stroke="midnightblue" points="1159.4,-215.71 1150.7,-209.65 1153.73,-219.81 1159.4,-215.71"/>
</g>
<!-- Node19 -->
<g id="node19" class="node">
<title>Node19</title>
<g id="a_node19"><a xlink:href="pid_8hpp.html" target="_top" xlink:title=" ">
<polygon fill="white" stroke="black" points="861,-252 861,-271 1000,-271 1000,-252 861,-252"/>
<text text-anchor="middle" x="930.5" y="-259" font-family="Helvetica,sans-Serif" font-size="10.00">alps_cmn/control/pid.hpp</text>
</a>
</g>
</g>
<!-- Node12&#45;&gt;Node19 -->
<g id="edge21" class="edge">
<title>Node12&#45;&gt;Node19</title>
<path fill="none" stroke="midnightblue" d="M991.58,-313.4C978.93,-302.86 961.67,-288.48 948.73,-277.69"/>
<polygon fill="midnightblue" stroke="midnightblue" points="950.86,-274.91 940.93,-271.19 946.38,-280.29 950.86,-274.91"/>
</g>
<!-- Node25 -->
<g id="node25" class="node">
<title>Node25</title>
<g id="a_node25"><a xlink:href="i__rotary__sensor_8hpp.html" target="_top" xlink:title=" ">
<polygon fill="white" stroke="black" points="1018,-246.5 1018,-276.5 1157,-276.5 1157,-246.5 1018,-246.5"/>
<text text-anchor="start" x="1026" y="-264.5" font-family="Helvetica,sans-Serif" font-size="10.00">alps_cmn/sensor/i_rotary</text>
<text text-anchor="middle" x="1087.5" y="-253.5" font-family="Helvetica,sans-Serif" font-size="10.00">_sensor.hpp</text>
</a>
</g>
</g>
<!-- Node12&#45;&gt;Node25 -->
<g id="edge34" class="edge">
<title>Node12&#45;&gt;Node25</title>
<path fill="none" stroke="midnightblue" d="M1025.64,-313.4C1036.41,-304.54 1050.48,-292.96 1062.48,-283.09"/>
<polygon fill="midnightblue" stroke="midnightblue" points="1064.89,-285.63 1070.39,-276.58 1060.45,-280.23 1064.89,-285.63"/>
</g>
<!-- Node15 -->
<g id="node15" class="node">
<title>Node15</title>
<g id="a_node15"><a xlink:href="differentiator_8hpp.html" target="_top" xlink:title="微分器ライブラリ">
<polygon fill="white" stroke="black" points="1064,-118 1064,-137 1251,-137 1251,-118 1064,-118"/>
<text text-anchor="middle" x="1157.5" y="-125" font-family="Helvetica,sans-Serif" font-size="10.00">alps_cmn/control/differentiator.hpp</text>
</a>
</g>
</g>
<!-- Node14&#45;&gt;Node15 -->
<g id="edge14" class="edge">
<title>Node14&#45;&gt;Node15</title>
<path fill="none" stroke="midnightblue" d="M1142.62,-179.4C1145.41,-169.86 1149.12,-157.18 1152.13,-146.86"/>
<polygon fill="midnightblue" stroke="midnightblue" points="1155.51,-147.77 1154.96,-137.19 1148.79,-145.81 1155.51,-147.77"/>
</g>
<!-- Node18 -->
<g id="node18" class="node">
<title>Node18</title>
<g id="a_node18"><a xlink:href="low__pass__filter_8hpp.html" target="_top" xlink:title="ローパスフィルタのクラス">
<polygon fill="white" stroke="black" points="925.5,-112.5 925.5,-142.5 1045.5,-142.5 1045.5,-112.5 925.5,-112.5"/>
<text text-anchor="start" x="933.5" y="-130.5" font-family="Helvetica,sans-Serif" font-size="10.00">alps_cmn/control/low</text>
<text text-anchor="middle" x="985.5" y="-119.5" font-family="Helvetica,sans-Serif" font-size="10.00">_pass_filter.hpp</text>
</a>
</g>
</g>
<!-- Node14&#45;&gt;Node18 -->
<g id="edge18" class="edge">
<title>Node14&#45;&gt;Node18</title>
<path fill="none" stroke="midnightblue" d="M1105.3,-179.4C1082.65,-169.77 1052.43,-156.94 1028.02,-146.56"/>
<polygon fill="midnightblue" stroke="midnightblue" points="1029.21,-143.27 1018.63,-142.58 1026.47,-149.71 1029.21,-143.27"/>
</g>
<!-- Node16 -->
<g id="node16" class="node">
<title>Node16</title>
<g id="a_node16"><a xlink:title=" ">
<polygon fill="white" stroke="#bfbfbf" points="872.5,-0.5 872.5,-19.5 922.5,-19.5 922.5,-0.5 872.5,-0.5"/>
<text text-anchor="middle" x="897.5" y="-7.5" font-family="Helvetica,sans-Serif" font-size="10.00">chrono</text>
</a>
</g>
</g>
<!-- Node15&#45;&gt;Node16 -->
<g id="edge15" class="edge">
<title>Node15&#45;&gt;Node16</title>
<path fill="none" stroke="midnightblue" d="M1151.42,-117.57C1140.61,-102.43 1116.54,-71.82 1088.5,-56 1038.93,-28.03 972.71,-17.4 932.69,-13.39"/>
<polygon fill="midnightblue" stroke="midnightblue" points="932.89,-9.9 922.62,-12.47 932.25,-16.87 932.89,-9.9"/>
</g>
<!-- Node15&#45;&gt;Node17 -->
<g id="edge16" class="edge">
<title>Node15&#45;&gt;Node17</title>
<path fill="none" stroke="midnightblue" d="M1135.29,-117.98C1108.82,-107.81 1064.39,-90.76 1034.28,-79.2"/>
<polygon fill="midnightblue" stroke="midnightblue" points="1035.26,-75.83 1024.67,-75.51 1032.75,-82.36 1035.26,-75.83"/>
</g>
<!-- Node17&#45;&gt;Node16 -->
<g id="edge17" class="edge">
<title>Node17&#45;&gt;Node16</title>
<path fill="none" stroke="midnightblue" d="M985.63,-56.32C968.79,-47.66 942.69,-34.24 923.26,-24.25"/>
<polygon fill="midnightblue" stroke="midnightblue" points="924.82,-21.12 914.33,-19.65 921.62,-27.34 924.82,-21.12"/>
</g>
<!-- Node18&#45;&gt;Node16 -->
<g id="edge19" class="edge">
<title>Node18&#45;&gt;Node16</title>
<path fill="none" stroke="midnightblue" d="M958.98,-112.36C944.83,-103.6 928.19,-91.13 917.5,-76 907.81,-62.29 902.71,-43.76 900.1,-29.99"/>
<polygon fill="midnightblue" stroke="midnightblue" points="903.49,-29.07 898.44,-19.75 896.59,-30.19 903.49,-29.07"/>
</g>
<!-- Node18&#45;&gt;Node17 -->
<g id="edge20" class="edge">
<title>Node18&#45;&gt;Node17</title>
<path fill="none" stroke="midnightblue" d="M989.53,-112.4C991.85,-104.29 994.78,-94.01 997.28,-85.28"/>
<polygon fill="midnightblue" stroke="midnightblue" points="1000.64,-86.23 1000.03,-75.66 993.91,-84.31 1000.64,-86.23"/>
</g>
<!-- Node19&#45;&gt;Node14 -->
<g id="edge30" class="edge">
<title>Node19&#45;&gt;Node14</title>
<path fill="none" stroke="midnightblue" d="M958.12,-251.87C990.08,-241.88 1043.47,-225.2 1083.89,-212.56"/>
<polygon fill="midnightblue" stroke="midnightblue" points="1085.11,-215.85 1093.61,-209.53 1083.02,-209.17 1085.11,-215.85"/>
</g>
<!-- Node19&#45;&gt;Node16 -->
<g id="edge22" class="edge">
<title>Node19&#45;&gt;Node16</title>
<path fill="none" stroke="midnightblue" d="M885.43,-251.94C874.35,-249.92 862.51,-247.82 851.5,-246 797.21,-237.03 642.47,-251.64 606.5,-210 554.24,-149.5 577.27,-136.11 703.5,-56 752.64,-24.81 821.05,-15.18 862.13,-12.25"/>
<polygon fill="midnightblue" stroke="midnightblue" points="862.44,-15.73 872.2,-11.62 862.01,-8.75 862.44,-15.73"/>
</g>
<!-- Node20 -->
<g id="node20" class="node">
<title>Node20</title>
<g id="a_node20"><a xlink:title=" ">
<polygon fill="white" stroke="#bfbfbf" points="987,-185 987,-204 1034,-204 1034,-185 987,-185"/>
<text text-anchor="middle" x="1010.5" y="-192" font-family="Helvetica,sans-Serif" font-size="10.00">cmath</text>
</a>
</g>
</g>
<!-- Node19&#45;&gt;Node20 -->
<g id="edge23" class="edge">
<title>Node19&#45;&gt;Node20</title>
<path fill="none" stroke="midnightblue" d="M941.29,-251.73C954.24,-241.21 976.19,-223.38 991.89,-210.62"/>
<polygon fill="midnightblue" stroke="midnightblue" points="994.33,-213.15 999.88,-204.13 989.91,-207.72 994.33,-213.15"/>
</g>
<!-- Node21 -->
<g id="node21" class="node">
<title>Node21</title>
<g id="a_node21"><a xlink:title=" ">
<polygon fill="white" stroke="#bfbfbf" points="863.5,-118 863.5,-137 907.5,-137 907.5,-118 863.5,-118"/>
<text text-anchor="middle" x="885.5" y="-125" font-family="Helvetica,sans-Serif" font-size="10.00">limits</text>
</a>
</g>
</g>
<!-- Node19&#45;&gt;Node21 -->
<g id="edge24" class="edge">
<title>Node19&#45;&gt;Node21</title>
<path fill="none" stroke="midnightblue" d="M934.13,-251.99C940.09,-236.69 950.27,-203.81 939.5,-179 933.04,-164.12 919.81,-151.63 908.06,-142.79"/>
<polygon fill="midnightblue" stroke="midnightblue" points="910.07,-139.93 899.88,-137.02 906.03,-145.65 910.07,-139.93"/>
</g>
<!-- Node22 -->
<g id="node22" class="node">
<title>Node22</title>
<g id="a_node22"><a xlink:href="integrator_8hpp.html" target="_top" xlink:title="積分器ライブラリ">
<polygon fill="white" stroke="black" points="616,-185 616,-204 787,-204 787,-185 616,-185"/>
<text text-anchor="middle" x="701.5" y="-192" font-family="Helvetica,sans-Serif" font-size="10.00">alps_cmn/control/integrator.hpp</text>
</a>
</g>
</g>
<!-- Node19&#45;&gt;Node22 -->
<g id="edge25" class="edge">
<title>Node19&#45;&gt;Node22</title>
<path fill="none" stroke="midnightblue" d="M900.09,-251.87C859.26,-240.28 786.63,-219.66 741.43,-206.83"/>
<polygon fill="midnightblue" stroke="midnightblue" points="742.25,-203.43 731.67,-204.06 740.33,-210.16 742.25,-203.43"/>
</g>
<!-- Node24 -->
<g id="node24" class="node">
<title>Node24</title>
<g id="a_node24"><a xlink:href="numeric__range_8hpp.html" target="_top" xlink:title="数値の範囲を扱うクラス">
<polygon fill="white" stroke="black" points="805,-179.5 805,-209.5 930,-209.5 930,-179.5 805,-179.5"/>
<text text-anchor="start" x="813" y="-197.5" font-family="Helvetica,sans-Serif" font-size="10.00">alps_cmn/util/numeric</text>
<text text-anchor="middle" x="867.5" y="-186.5" font-family="Helvetica,sans-Serif" font-size="10.00">_range.hpp</text>
</a>
</g>
</g>
<!-- Node19&#45;&gt;Node24 -->
<g id="edge31" class="edge">
<title>Node19&#45;&gt;Node24</title>
<path fill="none" stroke="midnightblue" d="M922,-251.73C913.41,-242.86 899.79,-228.81 888.31,-216.97"/>
<polygon fill="midnightblue" stroke="midnightblue" points="890.63,-214.33 881.16,-209.59 885.6,-219.21 890.63,-214.33"/>
</g>
<!-- Node22&#45;&gt;Node16 -->
<g id="edge26" class="edge">
<title>Node22&#45;&gt;Node16</title>
<path fill="none" stroke="midnightblue" d="M693.44,-184.83C679.99,-169.29 655.91,-136.04 671.5,-112 713.94,-46.55 809.8,-23.14 862,-15.05"/>
<polygon fill="midnightblue" stroke="midnightblue" points="862.74,-18.48 872.13,-13.59 861.74,-11.56 862.74,-18.48"/>
</g>
<!-- Node22&#45;&gt;Node17 -->
<g id="edge29" class="edge">
<title>Node22&#45;&gt;Node17</title>
<path fill="none" stroke="midnightblue" d="M695.1,-184.71C684.04,-168.37 664.2,-133.05 682.5,-112 712.16,-77.87 831.35,-68.88 915.55,-66.9"/>
<polygon fill="midnightblue" stroke="midnightblue" points="915.71,-70.4 925.64,-66.69 915.57,-63.4 915.71,-70.4"/>
</g>
<!-- Node22&#45;&gt;Node21 -->
<g id="edge27" class="edge">
<title>Node22&#45;&gt;Node21</title>
<path fill="none" stroke="midnightblue" d="M730.11,-184.98C760.9,-175.58 811.16,-159.57 853.5,-143 854.92,-142.44 856.37,-141.86 857.82,-141.25"/>
<polygon fill="midnightblue" stroke="midnightblue" points="859.58,-144.31 867.36,-137.11 856.8,-137.88 859.58,-144.31"/>
</g>
<!-- Node23 -->
<g id="node23" class="node">
<title>Node23</title>
<g id="a_node23"><a xlink:href="algorithm_8hpp.html" target="_top" xlink:title=" ">
<polygon fill="white" stroke="black" points="692,-118 692,-137 845,-137 845,-118 692,-118"/>
<text text-anchor="middle" x="768.5" y="-125" font-family="Helvetica,sans-Serif" font-size="10.00">alps_cmn/util/algorithm.hpp</text>
</a>
</g>
</g>
<!-- Node22&#45;&gt;Node23 -->
<g id="edge28" class="edge">
<title>Node22&#45;&gt;Node23</title>
<path fill="none" stroke="midnightblue" d="M710.54,-184.73C721.18,-174.4 739.08,-157.04 752.18,-144.33"/>
<polygon fill="midnightblue" stroke="midnightblue" points="754.87,-146.6 759.61,-137.13 749.99,-141.58 754.87,-146.6"/>
</g>
<!-- Node24&#45;&gt;Node21 -->
<g id="edge32" class="edge">
<title>Node24&#45;&gt;Node21</title>
<path fill="none" stroke="midnightblue" d="M871.41,-179.4C874.05,-169.86 877.56,-157.18 880.42,-146.86"/>
<polygon fill="midnightblue" stroke="midnightblue" points="883.8,-147.77 883.09,-137.19 877.05,-145.9 883.8,-147.77"/>
</g>
<!-- Node24&#45;&gt;Node23 -->
<g id="edge33" class="edge">
<title>Node24&#45;&gt;Node23</title>
<path fill="none" stroke="midnightblue" d="M846.02,-179.4C829.42,-168.5 806.54,-153.48 789.95,-142.58"/>
<polygon fill="midnightblue" stroke="midnightblue" points="791.74,-139.57 781.46,-137.01 787.9,-145.42 791.74,-139.57"/>
</g>
</g>
</svg>
