<?xml version="1.0" encoding="UTF-8" standalone="no"?>
<!DOCTYPE svg PUBLIC "-//W3C//DTD SVG 1.1//EN"
 "http://www.w3.org/Graphics/SVG/1.1/DTD/svg11.dtd">
<!-- Generated by graphviz version 2.43.0 (0)
 -->
<!-- Title: alps_core/lib_internal/alps_ros2_lib/include/alps_ros2/type/custom_type_param_conversion_rule.hpp Pages: 1 -->
<svg width="811pt" height="251pt"
 viewBox="0.00 0.00 811.00 251.00" xmlns="http://www.w3.org/2000/svg" xmlns:xlink="http://www.w3.org/1999/xlink">
<g id="graph0" class="graph" transform="scale(1 1) rotate(0) translate(4 247)">
<title>alps_core/lib_internal/alps_ros2_lib/include/alps_ros2/type/custom_type_param_conversion_rule.hpp</title>
<polygon fill="white" stroke="transparent" points="-4,4 -4,-247 807,-247 807,4 -4,4"/>
<!-- Node1 -->
<g id="node1" class="node">
<title>Node1</title>
<g id="a_node1"><a xlink:title=" ">
<polygon fill="#bfbfbf" stroke="black" points="106,-190.5 106,-242.5 290,-242.5 290,-190.5 106,-190.5"/>
<text text-anchor="start" x="114" y="-230.5" font-family="Helvetica,sans-Serif" font-size="10.00">alps_core/lib_internal</text>
<text text-anchor="start" x="114" y="-219.5" font-family="Helvetica,sans-Serif" font-size="10.00">/alps_ros2_lib/include</text>
<text text-anchor="start" x="114" y="-208.5" font-family="Helvetica,sans-Serif" font-size="10.00">/alps_ros2/type/custom</text>
<text text-anchor="middle" x="198" y="-197.5" font-family="Helvetica,sans-Serif" font-size="10.00">_type_param_conversion_rule.hpp</text>
</a>
</g>
</g>
<!-- Node2 -->
<g id="node2" class="node">
<title>Node2</title>
<g id="a_node2"><a xlink:href="duration_8hpp.html" target="_top" xlink:title="時間間隔の型エイリアス">
<polygon fill="white" stroke="black" points="43.5,-129 43.5,-148 196.5,-148 196.5,-129 43.5,-129"/>
<text text-anchor="middle" x="120" y="-136" font-family="Helvetica,sans-Serif" font-size="10.00">alps_cmn/time/duration.hpp</text>
</a>
</g>
</g>
<!-- Node1&#45;&gt;Node2 -->
<g id="edge1" class="edge">
<title>Node1&#45;&gt;Node2</title>
<path fill="none" stroke="midnightblue" d="M172.03,-190.19C160.16,-178.63 146.48,-165.3 136.12,-155.21"/>
<polygon fill="midnightblue" stroke="midnightblue" points="138.54,-152.68 128.94,-148.21 133.66,-157.69 138.54,-152.68"/>
</g>
<!-- Node4 -->
<g id="node4" class="node">
<title>Node4</title>
<g id="a_node4"><a xlink:href="param__converter_8hpp.html" target="_top" xlink:title="ROS2パラメータと値の変換ライブラリ">
<polygon fill="white" stroke="black" points="310,-123.5 310,-153.5 432,-153.5 432,-123.5 310,-123.5"/>
<text text-anchor="start" x="318" y="-141.5" font-family="Helvetica,sans-Serif" font-size="10.00">alps_ros2/type/param</text>
<text text-anchor="middle" x="371" y="-130.5" font-family="Helvetica,sans-Serif" font-size="10.00">_converter.hpp</text>
</a>
</g>
</g>
<!-- Node1&#45;&gt;Node4 -->
<g id="edge3" class="edge">
<title>Node1&#45;&gt;Node4</title>
<path fill="none" stroke="midnightblue" d="M255.13,-190.4C279.41,-179.74 307.2,-167.53 329.48,-157.74"/>
<polygon fill="midnightblue" stroke="midnightblue" points="330.91,-160.93 338.66,-153.71 328.1,-154.52 330.91,-160.93"/>
</g>
<!-- Node3 -->
<g id="node3" class="node">
<title>Node3</title>
<g id="a_node3"><a xlink:title=" ">
<polygon fill="white" stroke="#bfbfbf" points="0,-62 0,-81 50,-81 50,-62 0,-62"/>
<text text-anchor="middle" x="25" y="-69" font-family="Helvetica,sans-Serif" font-size="10.00">chrono</text>
</a>
</g>
</g>
<!-- Node2&#45;&gt;Node3 -->
<g id="edge2" class="edge">
<title>Node2&#45;&gt;Node3</title>
<path fill="none" stroke="midnightblue" d="M107.19,-128.73C91.52,-118.01 64.78,-99.72 46.07,-86.91"/>
<polygon fill="midnightblue" stroke="midnightblue" points="47.84,-83.89 37.61,-81.13 43.89,-89.66 47.84,-83.89"/>
</g>
<!-- Node5 -->
<g id="node5" class="node">
<title>Node5</title>
<g id="a_node5"><a xlink:href="tuple__traits_8hpp.html" target="_top" xlink:title="タプル関係の型特性">
<polygon fill="white" stroke="black" points="68,-56.5 68,-86.5 184,-86.5 184,-56.5 68,-56.5"/>
<text text-anchor="start" x="76" y="-74.5" font-family="Helvetica,sans-Serif" font-size="10.00">alps_cmn/type/tuple</text>
<text text-anchor="middle" x="126" y="-63.5" font-family="Helvetica,sans-Serif" font-size="10.00">_traits.hpp</text>
</a>
</g>
</g>
<!-- Node4&#45;&gt;Node5 -->
<g id="edge4" class="edge">
<title>Node4&#45;&gt;Node5</title>
<path fill="none" stroke="midnightblue" d="M318.14,-123.48C280.27,-113.43 229.11,-99.86 189.1,-89.24"/>
<polygon fill="midnightblue" stroke="midnightblue" points="189.75,-85.79 179.19,-86.61 187.96,-92.56 189.75,-85.79"/>
</g>
<!-- Node9 -->
<g id="node9" class="node">
<title>Node9</title>
<g id="a_node9"><a xlink:href="param__map_8hpp.html" target="_top" xlink:title=" ">
<polygon fill="white" stroke="black" points="202,-56.5 202,-86.5 318,-86.5 318,-56.5 202,-56.5"/>
<text text-anchor="start" x="210" y="-74.5" font-family="Helvetica,sans-Serif" font-size="10.00">alps_ros2/util/param</text>
<text text-anchor="middle" x="260" y="-63.5" font-family="Helvetica,sans-Serif" font-size="10.00">_map.hpp</text>
</a>
</g>
</g>
<!-- Node4&#45;&gt;Node9 -->
<g id="edge8" class="edge">
<title>Node4&#45;&gt;Node9</title>
<path fill="none" stroke="midnightblue" d="M346.91,-123.4C331.06,-114.11 310.11,-101.84 292.74,-91.67"/>
<polygon fill="midnightblue" stroke="midnightblue" points="294.44,-88.61 284.04,-86.58 290.9,-94.65 294.44,-88.61"/>
</g>
<!-- Node13 -->
<g id="node13" class="node">
<title>Node13</title>
<g id="a_node13"><a xlink:title=" ">
<polygon fill="white" stroke="#bfbfbf" points="336.5,-62 336.5,-81 405.5,-81 405.5,-62 336.5,-62"/>
<text text-anchor="middle" x="371" y="-69" font-family="Helvetica,sans-Serif" font-size="10.00">etl/string.h</text>
</a>
</g>
</g>
<!-- Node4&#45;&gt;Node13 -->
<g id="edge12" class="edge">
<title>Node4&#45;&gt;Node13</title>
<path fill="none" stroke="midnightblue" d="M371,-123.4C371,-114.06 371,-101.71 371,-91.52"/>
<polygon fill="midnightblue" stroke="midnightblue" points="374.5,-91.19 371,-81.19 367.5,-91.19 374.5,-91.19"/>
</g>
<!-- Node14 -->
<g id="node14" class="node">
<title>Node14</title>
<g id="a_node14"><a xlink:title=" ">
<polygon fill="white" stroke="#bfbfbf" points="423.5,-62 423.5,-81 494.5,-81 494.5,-62 423.5,-62"/>
<text text-anchor="middle" x="459" y="-69" font-family="Helvetica,sans-Serif" font-size="10.00">etl/vector.h</text>
</a>
</g>
</g>
<!-- Node4&#45;&gt;Node14 -->
<g id="edge13" class="edge">
<title>Node4&#45;&gt;Node14</title>
<path fill="none" stroke="midnightblue" d="M390.09,-123.4C404.58,-112.7 424.43,-98.03 439.11,-87.19"/>
<polygon fill="midnightblue" stroke="midnightblue" points="441.52,-89.76 447.48,-81.01 437.36,-84.13 441.52,-89.76"/>
</g>
<!-- Node15 -->
<g id="node15" class="node">
<title>Node15</title>
<g id="a_node15"><a xlink:title=" ">
<polygon fill="white" stroke="#bfbfbf" points="512.5,-62 512.5,-81 679.5,-81 679.5,-62 512.5,-62"/>
<text text-anchor="middle" x="596" y="-69" font-family="Helvetica,sans-Serif" font-size="10.00">magic_enum/magic_enum.hpp</text>
</a>
</g>
</g>
<!-- Node4&#45;&gt;Node15 -->
<g id="edge14" class="edge">
<title>Node4&#45;&gt;Node15</title>
<path fill="none" stroke="midnightblue" d="M419.54,-123.48C460.58,-111.62 518.61,-94.86 556.75,-83.84"/>
<polygon fill="midnightblue" stroke="midnightblue" points="557.84,-87.17 566.48,-81.03 555.9,-80.44 557.84,-87.17"/>
</g>
<!-- Node16 -->
<g id="node16" class="node">
<title>Node16</title>
<g id="a_node16"><a xlink:title=" ">
<polygon fill="white" stroke="#bfbfbf" points="697,-62 697,-81 803,-81 803,-62 697,-62"/>
<text text-anchor="middle" x="750" y="-69" font-family="Helvetica,sans-Serif" font-size="10.00">rclcpp/logging.hpp</text>
</a>
</g>
</g>
<!-- Node4&#45;&gt;Node16 -->
<g id="edge15" class="edge">
<title>Node4&#45;&gt;Node16</title>
<path fill="none" stroke="midnightblue" d="M432.21,-129.19C496.42,-120.14 600.17,-104.59 689,-87 694.54,-85.9 700.34,-84.66 706.06,-83.36"/>
<polygon fill="midnightblue" stroke="midnightblue" points="707.27,-86.68 716.22,-81.01 705.69,-79.86 707.27,-86.68"/>
</g>
<!-- Node6 -->
<g id="node6" class="node">
<title>Node6</title>
<g id="a_node6"><a xlink:title=" ">
<polygon fill="white" stroke="#bfbfbf" points="1,-0.5 1,-19.5 45,-19.5 45,-0.5 1,-0.5"/>
<text text-anchor="middle" x="23" y="-7.5" font-family="Helvetica,sans-Serif" font-size="10.00">string</text>
</a>
</g>
</g>
<!-- Node5&#45;&gt;Node6 -->
<g id="edge5" class="edge">
<title>Node5&#45;&gt;Node6</title>
<path fill="none" stroke="midnightblue" d="M101.59,-56.4C85.08,-46.86 63.38,-34.32 46.96,-24.84"/>
<polygon fill="midnightblue" stroke="midnightblue" points="48.4,-21.63 37.99,-19.66 44.9,-27.69 48.4,-21.63"/>
</g>
<!-- Node7 -->
<g id="node7" class="node">
<title>Node7</title>
<g id="a_node7"><a xlink:title=" ">
<polygon fill="white" stroke="#bfbfbf" points="63.5,-0.5 63.5,-19.5 104.5,-19.5 104.5,-0.5 63.5,-0.5"/>
<text text-anchor="middle" x="84" y="-7.5" font-family="Helvetica,sans-Serif" font-size="10.00">tuple</text>
</a>
</g>
</g>
<!-- Node5&#45;&gt;Node7 -->
<g id="edge6" class="edge">
<title>Node5&#45;&gt;Node7</title>
<path fill="none" stroke="midnightblue" d="M116.05,-56.4C110.01,-47.84 102.26,-36.87 95.9,-27.86"/>
<polygon fill="midnightblue" stroke="midnightblue" points="98.74,-25.81 90.11,-19.66 93.02,-29.85 98.74,-25.81"/>
</g>
<!-- Node8 -->
<g id="node8" class="node">
<title>Node8</title>
<g id="a_node8"><a xlink:title=" ">
<polygon fill="white" stroke="#bfbfbf" points="122.5,-0.5 122.5,-19.5 191.5,-19.5 191.5,-0.5 122.5,-0.5"/>
<text text-anchor="middle" x="157" y="-7.5" font-family="Helvetica,sans-Serif" font-size="10.00">type_traits</text>
</a>
</g>
</g>
<!-- Node5&#45;&gt;Node8 -->
<g id="edge7" class="edge">
<title>Node5&#45;&gt;Node8</title>
<path fill="none" stroke="midnightblue" d="M133.35,-56.4C137.67,-48.11 143.17,-37.55 147.77,-28.71"/>
<polygon fill="midnightblue" stroke="midnightblue" points="150.97,-30.14 152.49,-19.66 144.76,-26.91 150.97,-30.14"/>
</g>
<!-- Node10 -->
<g id="node10" class="node">
<title>Node10</title>
<g id="a_node10"><a xlink:title=" ">
<polygon fill="white" stroke="#bfbfbf" points="210,-0.5 210,-19.5 248,-19.5 248,-0.5 210,-0.5"/>
<text text-anchor="middle" x="229" y="-7.5" font-family="Helvetica,sans-Serif" font-size="10.00">map</text>
</a>
</g>
</g>
<!-- Node9&#45;&gt;Node10 -->
<g id="edge9" class="edge">
<title>Node9&#45;&gt;Node10</title>
<path fill="none" stroke="midnightblue" d="M252.65,-56.4C248.33,-48.11 242.83,-37.55 238.23,-28.71"/>
<polygon fill="midnightblue" stroke="midnightblue" points="241.24,-26.91 233.51,-19.66 235.03,-30.14 241.24,-26.91"/>
</g>
<!-- Node11 -->
<g id="node11" class="node">
<title>Node11</title>
<g id="a_node11"><a xlink:title=" ">
<polygon fill="white" stroke="#bfbfbf" points="266,-0.5 266,-19.5 322,-19.5 322,-0.5 266,-0.5"/>
<text text-anchor="middle" x="294" y="-7.5" font-family="Helvetica,sans-Serif" font-size="10.00">optional</text>
</a>
</g>
</g>
<!-- Node9&#45;&gt;Node11 -->
<g id="edge10" class="edge">
<title>Node9&#45;&gt;Node11</title>
<path fill="none" stroke="midnightblue" d="M268.06,-56.4C272.85,-48.02 278.96,-37.33 284.04,-28.42"/>
<polygon fill="midnightblue" stroke="midnightblue" points="287.13,-30.08 289.05,-19.66 281.05,-26.6 287.13,-30.08"/>
</g>
<!-- Node12 -->
<g id="node12" class="node">
<title>Node12</title>
<g id="a_node12"><a xlink:title=" ">
<polygon fill="white" stroke="#bfbfbf" points="340,-0.5 340,-19.5 460,-19.5 460,-0.5 340,-0.5"/>
<text text-anchor="middle" x="400" y="-7.5" font-family="Helvetica,sans-Serif" font-size="10.00">rclcpp/parameter.hpp</text>
</a>
</g>
</g>
<!-- Node9&#45;&gt;Node12 -->
<g id="edge11" class="edge">
<title>Node9&#45;&gt;Node12</title>
<path fill="none" stroke="midnightblue" d="M293.18,-56.4C316.56,-46.46 347.61,-33.26 370.21,-23.66"/>
<polygon fill="midnightblue" stroke="midnightblue" points="371.79,-26.79 379.63,-19.66 369.06,-20.35 371.79,-26.79"/>
</g>
</g>
</svg>
