<?xml version="1.0" encoding="UTF-8" standalone="no"?>
<!DOCTYPE svg PUBLIC "-//W3C//DTD SVG 1.1//EN"
 "http://www.w3.org/Graphics/SVG/1.1/DTD/svg11.dtd">
<!-- Generated by graphviz version 2.43.0 (0)
 -->
<!-- Title: alps_common_lib/include/alps_cmn/type/custom_type_serialize_rule.hpp Pages: 1 -->
<svg width="851pt" height="229pt"
 viewBox="0.00 0.00 851.00 229.00" xmlns="http://www.w3.org/2000/svg" xmlns:xlink="http://www.w3.org/1999/xlink">
<g id="graph0" class="graph" transform="scale(1 1) rotate(0) translate(4 225)">
<title>alps_common_lib/include/alps_cmn/type/custom_type_serialize_rule.hpp</title>
<polygon fill="white" stroke="transparent" points="-4,4 -4,-225 847,-225 847,4 -4,4"/>
<!-- Node1 -->
<g id="node1" class="node">
<title>Node1</title>
<g id="a_node1"><a xlink:title="カスタム型のシリアライズ規則を定義する">
<polygon fill="#bfbfbf" stroke="black" points="290,-179.5 290,-220.5 430,-220.5 430,-179.5 290,-179.5"/>
<text text-anchor="start" x="298" y="-208.5" font-family="Helvetica,sans-Serif" font-size="10.00">alps_common_lib/include</text>
<text text-anchor="start" x="298" y="-197.5" font-family="Helvetica,sans-Serif" font-size="10.00">/alps_cmn/type/custom</text>
<text text-anchor="middle" x="360" y="-186.5" font-family="Helvetica,sans-Serif" font-size="10.00">_type_serialize_rule.hpp</text>
</a>
</g>
</g>
<!-- Node2 -->
<g id="node2" class="node">
<title>Node2</title>
<g id="a_node2"><a xlink:href="duration_8hpp.html" target="_top" xlink:title="時間間隔の型エイリアス">
<polygon fill="white" stroke="black" points="29.5,-123.5 29.5,-142.5 182.5,-142.5 182.5,-123.5 29.5,-123.5"/>
<text text-anchor="middle" x="106" y="-130.5" font-family="Helvetica,sans-Serif" font-size="10.00">alps_cmn/time/duration.hpp</text>
</a>
</g>
</g>
<!-- Node1&#45;&gt;Node2 -->
<g id="edge1" class="edge">
<title>Node1&#45;&gt;Node2</title>
<path fill="none" stroke="midnightblue" d="M289.92,-181.07C244.9,-169.55 187.84,-154.94 149.31,-145.08"/>
<polygon fill="midnightblue" stroke="midnightblue" points="150,-141.65 139.45,-142.56 148.27,-148.43 150,-141.65"/>
</g>
<!-- Node4 -->
<g id="node4" class="node">
<title>Node4</title>
<g id="a_node4"><a xlink:href="serializer_8hpp.html" target="_top" xlink:title="データとバイト列の変換ライブラリ">
<polygon fill="white" stroke="black" points="282,-123.5 282,-142.5 438,-142.5 438,-123.5 282,-123.5"/>
<text text-anchor="middle" x="360" y="-130.5" font-family="Helvetica,sans-Serif" font-size="10.00">alps_cmn/type/serializer.hpp</text>
</a>
</g>
</g>
<!-- Node1&#45;&gt;Node4 -->
<g id="edge3" class="edge">
<title>Node1&#45;&gt;Node4</title>
<path fill="none" stroke="midnightblue" d="M360,-179.5C360,-171.07 360,-161.24 360,-152.87"/>
<polygon fill="midnightblue" stroke="midnightblue" points="363.5,-152.65 360,-142.65 356.5,-152.65 363.5,-152.65"/>
</g>
<!-- Node16 -->
<g id="node16" class="node">
<title>Node16</title>
<g id="a_node16"><a xlink:title=" ">
<polygon fill="white" stroke="#bfbfbf" points="456.5,-123.5 456.5,-142.5 537.5,-142.5 537.5,-123.5 456.5,-123.5"/>
<text text-anchor="middle" x="497" y="-130.5" font-family="Helvetica,sans-Serif" font-size="10.00">etl/optional.h</text>
</a>
</g>
</g>
<!-- Node1&#45;&gt;Node16 -->
<g id="edge17" class="edge">
<title>Node1&#45;&gt;Node16</title>
<path fill="none" stroke="midnightblue" d="M401.1,-179.5C423.22,-169.01 449.9,-156.35 469.49,-147.05"/>
<polygon fill="midnightblue" stroke="midnightblue" points="471.23,-150.1 478.76,-142.65 468.23,-143.78 471.23,-150.1"/>
</g>
<!-- Node3 -->
<g id="node3" class="node">
<title>Node3</title>
<g id="a_node3"><a xlink:title=" ">
<polygon fill="white" stroke="#bfbfbf" points="0,-62 0,-81 50,-81 50,-62 0,-62"/>
<text text-anchor="middle" x="25" y="-69" font-family="Helvetica,sans-Serif" font-size="10.00">chrono</text>
</a>
</g>
</g>
<!-- Node2&#45;&gt;Node3 -->
<g id="edge2" class="edge">
<title>Node2&#45;&gt;Node3</title>
<path fill="none" stroke="midnightblue" d="M94.39,-123.48C81.52,-114.02 60.53,-98.6 44.99,-87.19"/>
<polygon fill="midnightblue" stroke="midnightblue" points="46.72,-84.11 36.58,-81.01 42.57,-89.75 46.72,-84.11"/>
</g>
<!-- Node5 -->
<g id="node5" class="node">
<title>Node5</title>
<g id="a_node5"><a xlink:title=" ">
<polygon fill="white" stroke="#bfbfbf" points="779,-62 779,-81 843,-81 843,-62 779,-62"/>
<text text-anchor="middle" x="811" y="-69" font-family="Helvetica,sans-Serif" font-size="10.00">algorithm</text>
</a>
</g>
</g>
<!-- Node4&#45;&gt;Node5 -->
<g id="edge4" class="edge">
<title>Node4&#45;&gt;Node5</title>
<path fill="none" stroke="midnightblue" d="M438.05,-123.9C552.49,-111.96 754.07,-90.64 770,-87 773.24,-86.26 776.58,-85.35 779.88,-84.34"/>
<polygon fill="midnightblue" stroke="midnightblue" points="781.18,-87.6 789.57,-81.13 778.98,-80.95 781.18,-87.6"/>
</g>
<!-- Node6 -->
<g id="node6" class="node">
<title>Node6</title>
<g id="a_node6"><a xlink:title=" ">
<polygon fill="white" stroke="#bfbfbf" points="68,-62 68,-81 110,-81 110,-62 68,-62"/>
<text text-anchor="middle" x="89" y="-69" font-family="Helvetica,sans-Serif" font-size="10.00">array</text>
</a>
</g>
</g>
<!-- Node4&#45;&gt;Node6 -->
<g id="edge5" class="edge">
<title>Node4&#45;&gt;Node6</title>
<path fill="none" stroke="midnightblue" d="M286.77,-123.48C238.34,-116.6 173.89,-105.03 119,-87 117.38,-86.47 115.73,-85.86 114.08,-85.21"/>
<polygon fill="midnightblue" stroke="midnightblue" points="115.43,-81.98 104.87,-81.14 112.59,-88.38 115.43,-81.98"/>
</g>
<!-- Node7 -->
<g id="node7" class="node">
<title>Node7</title>
<g id="a_node7"><a xlink:title=" ">
<polygon fill="white" stroke="#bfbfbf" points="128,-62 128,-81 178,-81 178,-62 128,-62"/>
<text text-anchor="middle" x="153" y="-69" font-family="Helvetica,sans-Serif" font-size="10.00">cstdint</text>
</a>
</g>
</g>
<!-- Node4&#45;&gt;Node7 -->
<g id="edge6" class="edge">
<title>Node4&#45;&gt;Node7</title>
<path fill="none" stroke="midnightblue" d="M320.34,-123.45C284.96,-115.41 231.94,-102.33 187,-87 185.13,-86.36 183.22,-85.67 181.31,-84.94"/>
<polygon fill="midnightblue" stroke="midnightblue" points="182.45,-81.63 171.87,-81.14 179.83,-88.12 182.45,-81.63"/>
</g>
<!-- Node8 -->
<g id="node8" class="node">
<title>Node8</title>
<g id="a_node8"><a xlink:title=" ">
<polygon fill="white" stroke="#bfbfbf" points="196,-62 196,-81 246,-81 246,-62 196,-62"/>
<text text-anchor="middle" x="221" y="-69" font-family="Helvetica,sans-Serif" font-size="10.00">cstring</text>
</a>
</g>
</g>
<!-- Node4&#45;&gt;Node8 -->
<g id="edge7" class="edge">
<title>Node4&#45;&gt;Node8</title>
<path fill="none" stroke="midnightblue" d="M340.08,-123.48C316.55,-113.4 277.19,-96.55 250.21,-85"/>
<polygon fill="midnightblue" stroke="midnightblue" points="251.45,-81.73 240.88,-81.01 248.69,-88.16 251.45,-81.73"/>
</g>
<!-- Node9 -->
<g id="node9" class="node">
<title>Node9</title>
<g id="a_node9"><a xlink:title=" ">
<polygon fill="white" stroke="#bfbfbf" points="266.5,-0.5 266.5,-19.5 307.5,-19.5 307.5,-0.5 266.5,-0.5"/>
<text text-anchor="middle" x="287" y="-7.5" font-family="Helvetica,sans-Serif" font-size="10.00">tuple</text>
</a>
</g>
</g>
<!-- Node4&#45;&gt;Node9 -->
<g id="edge8" class="edge">
<title>Node4&#45;&gt;Node9</title>
<path fill="none" stroke="midnightblue" d="M337.95,-123.4C322.56,-116.14 303.04,-104.18 293,-87 282.89,-69.71 282.64,-46.32 284.12,-30.07"/>
<polygon fill="midnightblue" stroke="midnightblue" points="287.65,-30.04 285.39,-19.69 280.7,-29.19 287.65,-30.04"/>
</g>
<!-- Node10 -->
<g id="node10" class="node">
<title>Node10</title>
<g id="a_node10"><a xlink:title=" ">
<polygon fill="white" stroke="#bfbfbf" points="405.5,-0.5 405.5,-19.5 474.5,-19.5 474.5,-0.5 405.5,-0.5"/>
<text text-anchor="middle" x="440" y="-7.5" font-family="Helvetica,sans-Serif" font-size="10.00">type_traits</text>
</a>
</g>
</g>
<!-- Node4&#45;&gt;Node10 -->
<g id="edge9" class="edge">
<title>Node4&#45;&gt;Node10</title>
<path fill="none" stroke="midnightblue" d="M380.96,-123.42C396.21,-116.06 416.04,-103.94 427,-87 438,-70 440.54,-46.55 440.78,-30.21"/>
<polygon fill="midnightblue" stroke="midnightblue" points="444.27,-29.72 440.63,-19.77 437.27,-29.81 444.27,-29.72"/>
</g>
<!-- Node11 -->
<g id="node11" class="node">
<title>Node11</title>
<g id="a_node11"><a xlink:href="tuple__traits_8hpp.html" target="_top" xlink:title="タプル関係の型特性">
<polygon fill="white" stroke="black" points="302,-56.5 302,-86.5 418,-86.5 418,-56.5 302,-56.5"/>
<text text-anchor="start" x="310" y="-74.5" font-family="Helvetica,sans-Serif" font-size="10.00">alps_cmn/type/tuple</text>
<text text-anchor="middle" x="360" y="-63.5" font-family="Helvetica,sans-Serif" font-size="10.00">_traits.hpp</text>
</a>
</g>
</g>
<!-- Node4&#45;&gt;Node11 -->
<g id="edge10" class="edge">
<title>Node4&#45;&gt;Node11</title>
<path fill="none" stroke="midnightblue" d="M360,-123.48C360,-116.47 360,-106.19 360,-96.7"/>
<polygon fill="midnightblue" stroke="midnightblue" points="363.5,-96.52 360,-86.52 356.5,-96.52 363.5,-96.52"/>
</g>
<!-- Node13 -->
<g id="node13" class="node">
<title>Node13</title>
<g id="a_node13"><a xlink:title=" ">
<polygon fill="white" stroke="#bfbfbf" points="474,-62 474,-81 584,-81 584,-62 474,-62"/>
<text text-anchor="middle" x="529" y="-69" font-family="Helvetica,sans-Serif" font-size="10.00">etl/circular_buffer.h</text>
</a>
</g>
</g>
<!-- Node4&#45;&gt;Node13 -->
<g id="edge14" class="edge">
<title>Node4&#45;&gt;Node13</title>
<path fill="none" stroke="midnightblue" d="M384.21,-123.48C413.33,-113.22 462.37,-95.96 495.2,-84.4"/>
<polygon fill="midnightblue" stroke="midnightblue" points="496.56,-87.63 504.83,-81.01 494.24,-81.03 496.56,-87.63"/>
</g>
<!-- Node14 -->
<g id="node14" class="node">
<title>Node14</title>
<g id="a_node14"><a xlink:title=" ">
<polygon fill="white" stroke="#bfbfbf" points="602.5,-62 602.5,-81 671.5,-81 671.5,-62 602.5,-62"/>
<text text-anchor="middle" x="637" y="-69" font-family="Helvetica,sans-Serif" font-size="10.00">etl/string.h</text>
</a>
</g>
</g>
<!-- Node4&#45;&gt;Node14 -->
<g id="edge15" class="edge">
<title>Node4&#45;&gt;Node14</title>
<path fill="none" stroke="midnightblue" d="M414.58,-123.48C462.08,-115.59 532.6,-102.72 593,-87 596.37,-86.12 599.86,-85.13 603.33,-84.08"/>
<polygon fill="midnightblue" stroke="midnightblue" points="604.48,-87.39 612.96,-81.04 602.37,-80.71 604.48,-87.39"/>
</g>
<!-- Node15 -->
<g id="node15" class="node">
<title>Node15</title>
<g id="a_node15"><a xlink:title=" ">
<polygon fill="white" stroke="#bfbfbf" points="689.5,-62 689.5,-81 760.5,-81 760.5,-62 689.5,-62"/>
<text text-anchor="middle" x="725" y="-69" font-family="Helvetica,sans-Serif" font-size="10.00">etl/vector.h</text>
</a>
</g>
</g>
<!-- Node4&#45;&gt;Node15 -->
<g id="edge16" class="edge">
<title>Node4&#45;&gt;Node15</title>
<path fill="none" stroke="midnightblue" d="M431.75,-123.46C511.47,-113.7 635.03,-97.71 681,-87 684.47,-86.19 688.06,-85.23 691.63,-84.19"/>
<polygon fill="midnightblue" stroke="midnightblue" points="692.97,-87.43 701.47,-81.11 690.88,-80.75 692.97,-87.43"/>
</g>
<!-- Node11&#45;&gt;Node9 -->
<g id="edge12" class="edge">
<title>Node11&#45;&gt;Node9</title>
<path fill="none" stroke="midnightblue" d="M342.7,-56.4C331.55,-47.31 317.05,-35.49 305.64,-26.19"/>
<polygon fill="midnightblue" stroke="midnightblue" points="307.58,-23.26 297.62,-19.66 303.16,-28.69 307.58,-23.26"/>
</g>
<!-- Node11&#45;&gt;Node10 -->
<g id="edge13" class="edge">
<title>Node11&#45;&gt;Node10</title>
<path fill="none" stroke="midnightblue" d="M378.96,-56.4C391.42,-47.13 407.7,-35.03 420.31,-25.65"/>
<polygon fill="midnightblue" stroke="midnightblue" points="422.42,-28.43 428.36,-19.66 418.25,-22.82 422.42,-28.43"/>
</g>
<!-- Node12 -->
<g id="node12" class="node">
<title>Node12</title>
<g id="a_node12"><a xlink:title=" ">
<polygon fill="white" stroke="#bfbfbf" points="338,-0.5 338,-19.5 382,-19.5 382,-0.5 338,-0.5"/>
<text text-anchor="middle" x="360" y="-7.5" font-family="Helvetica,sans-Serif" font-size="10.00">string</text>
</a>
</g>
</g>
<!-- Node11&#45;&gt;Node12 -->
<g id="edge11" class="edge">
<title>Node11&#45;&gt;Node12</title>
<path fill="none" stroke="midnightblue" d="M360,-56.4C360,-48.47 360,-38.46 360,-29.86"/>
<polygon fill="midnightblue" stroke="midnightblue" points="363.5,-29.66 360,-19.66 356.5,-29.66 363.5,-29.66"/>
</g>
</g>
</svg>
