<?xml version="1.0" encoding="UTF-8" standalone="no"?>
<!DOCTYPE svg PUBLIC "-//W3C//DTD SVG 1.1//EN"
 "http://www.w3.org/Graphics/SVG/1.1/DTD/svg11.dtd">
<!-- Generated by graphviz version 2.43.0 (0)
 -->
<!-- Title: alps_ros2_lib/include/alps_ros2/util/custom_type_param_conversion_rule.hpp Pages: 1 -->
<svg width="1239pt" height="441pt"
 viewBox="0.00 0.00 1238.50 441.00" xmlns="http://www.w3.org/2000/svg" xmlns:xlink="http://www.w3.org/1999/xlink">
<g id="graph0" class="graph" transform="scale(1 1) rotate(0) translate(4 437)">
<title>alps_ros2_lib/include/alps_ros2/util/custom_type_param_conversion_rule.hpp</title>
<polygon fill="white" stroke="transparent" points="-4,4 -4,-437 1234.5,-437 1234.5,4 -4,4"/>
<!-- Node1 -->
<g id="node1" class="node">
<title>Node1</title>
<g id="a_node1"><a xlink:title=" ">
<polygon fill="#bfbfbf" stroke="black" points="515.5,-380.5 515.5,-432.5 654.5,-432.5 654.5,-380.5 515.5,-380.5"/>
<text text-anchor="start" x="523.5" y="-420.5" font-family="Helvetica,sans-Serif" font-size="10.00">alps_ros2_lib/include</text>
<text text-anchor="start" x="523.5" y="-409.5" font-family="Helvetica,sans-Serif" font-size="10.00">/alps_ros2/util/custom</text>
<text text-anchor="start" x="523.5" y="-398.5" font-family="Helvetica,sans-Serif" font-size="10.00">_type_param_conversion</text>
<text text-anchor="middle" x="585" y="-387.5" font-family="Helvetica,sans-Serif" font-size="10.00">_rule.hpp</text>
</a>
</g>
</g>
<!-- Node2 -->
<g id="node2" class="node">
<title>Node2</title>
<g id="a_node2"><a xlink:href="motor__velocity__controller_8hpp.html" target="_top" xlink:title=" ">
<polygon fill="white" stroke="black" points="420.5,-313.5 420.5,-343.5 553.5,-343.5 553.5,-313.5 420.5,-313.5"/>
<text text-anchor="start" x="428.5" y="-331.5" font-family="Helvetica,sans-Serif" font-size="10.00">alps_cmn/control/motor</text>
<text text-anchor="middle" x="487" y="-320.5" font-family="Helvetica,sans-Serif" font-size="10.00">_velocity_controller.hpp</text>
</a>
</g>
</g>
<!-- Node1&#45;&gt;Node2 -->
<g id="edge1" class="edge">
<title>Node1&#45;&gt;Node2</title>
<path fill="none" stroke="midnightblue" d="M552.64,-380.4C539.87,-370.5 525.38,-359.26 513.27,-349.87"/>
<polygon fill="midnightblue" stroke="midnightblue" points="515.37,-347.07 505.32,-343.71 511.08,-352.6 515.37,-347.07"/>
</g>
<!-- Node9 -->
<g id="node9" class="node">
<title>Node9</title>
<g id="a_node9"><a xlink:href="pid_8hpp.html" target="_top" xlink:title=" ">
<polygon fill="white" stroke="black" points="515.5,-252 515.5,-271 654.5,-271 654.5,-252 515.5,-252"/>
<text text-anchor="middle" x="585" y="-259" font-family="Helvetica,sans-Serif" font-size="10.00">alps_cmn/control/pid.hpp</text>
</a>
</g>
</g>
<!-- Node1&#45;&gt;Node9 -->
<g id="edge25" class="edge">
<title>Node1&#45;&gt;Node9</title>
<path fill="none" stroke="midnightblue" d="M585,-380.26C585,-351.89 585,-306.5 585,-281.15"/>
<polygon fill="midnightblue" stroke="midnightblue" points="588.5,-281.05 585,-271.05 581.5,-281.05 588.5,-281.05"/>
</g>
<!-- Node16 -->
<g id="node16" class="node">
<title>Node16</title>
<g id="a_node16"><a xlink:href="param__converter_8hpp.html" target="_top" xlink:title="ROS2パラメータと値の変換ライブラリ">
<polygon fill="white" stroke="black" points="864,-313.5 864,-343.5 980,-343.5 980,-313.5 864,-313.5"/>
<text text-anchor="start" x="872" y="-331.5" font-family="Helvetica,sans-Serif" font-size="10.00">alps_ros2/util/param</text>
<text text-anchor="middle" x="922" y="-320.5" font-family="Helvetica,sans-Serif" font-size="10.00">_converter.hpp</text>
</a>
</g>
</g>
<!-- Node1&#45;&gt;Node16 -->
<g id="edge26" class="edge">
<title>Node1&#45;&gt;Node16</title>
<path fill="none" stroke="midnightblue" d="M654.83,-389.75C713.24,-376.58 796.07,-357.9 853.97,-344.84"/>
<polygon fill="midnightblue" stroke="midnightblue" points="854.78,-348.25 863.76,-342.63 853.24,-341.42 854.78,-348.25"/>
</g>
<!-- Node3 -->
<g id="node3" class="node">
<title>Node3</title>
<g id="a_node3"><a xlink:href="i__motor_8hpp.html" target="_top" xlink:title=" ">
<polygon fill="white" stroke="black" points="345.5,-246.5 345.5,-276.5 458.5,-276.5 458.5,-246.5 345.5,-246.5"/>
<text text-anchor="start" x="353.5" y="-264.5" font-family="Helvetica,sans-Serif" font-size="10.00">alps_cmn/actuator/i</text>
<text text-anchor="middle" x="402" y="-253.5" font-family="Helvetica,sans-Serif" font-size="10.00">_motor.hpp</text>
</a>
</g>
</g>
<!-- Node2&#45;&gt;Node3 -->
<g id="edge2" class="edge">
<title>Node2&#45;&gt;Node3</title>
<path fill="none" stroke="midnightblue" d="M468.56,-313.4C456.86,-304.45 441.54,-292.74 428.55,-282.8"/>
<polygon fill="midnightblue" stroke="midnightblue" points="430.48,-279.87 420.41,-276.58 426.23,-285.43 430.48,-279.87"/>
</g>
<!-- Node4 -->
<g id="node4" class="node">
<title>Node4</title>
<g id="a_node4"><a xlink:href="low__pass__differentiator_8hpp.html" target="_top" xlink:title=" ">
<polygon fill="white" stroke="black" points="134,-179.5 134,-209.5 268,-209.5 268,-179.5 134,-179.5"/>
<text text-anchor="start" x="142" y="-197.5" font-family="Helvetica,sans-Serif" font-size="10.00">alps_cmn/control/low</text>
<text text-anchor="middle" x="201" y="-186.5" font-family="Helvetica,sans-Serif" font-size="10.00">_pass_differentiator.hpp</text>
</a>
</g>
</g>
<!-- Node2&#45;&gt;Node4 -->
<g id="edge3" class="edge">
<title>Node2&#45;&gt;Node4</title>
<path fill="none" stroke="midnightblue" d="M487.82,-313.45C488.06,-295.18 485.5,-263.54 467,-246 406.88,-189.01 364.58,-223.35 278.06,-210.02"/>
<polygon fill="midnightblue" stroke="midnightblue" points="278.58,-206.56 268.14,-208.31 277.4,-213.46 278.58,-206.56"/>
</g>
<!-- Node2&#45;&gt;Node9 -->
<g id="edge11" class="edge">
<title>Node2&#45;&gt;Node9</title>
<path fill="none" stroke="midnightblue" d="M508.26,-313.4C524.7,-302.5 547.34,-287.48 563.77,-276.58"/>
<polygon fill="midnightblue" stroke="midnightblue" points="565.78,-279.45 572.17,-271.01 561.91,-273.62 565.78,-279.45"/>
</g>
<!-- Node15 -->
<g id="node15" class="node">
<title>Node15</title>
<g id="a_node15"><a xlink:href="i__rotary__sensor_8hpp.html" target="_top" xlink:title=" ">
<polygon fill="white" stroke="black" points="188.5,-246.5 188.5,-276.5 327.5,-276.5 327.5,-246.5 188.5,-246.5"/>
<text text-anchor="start" x="196.5" y="-264.5" font-family="Helvetica,sans-Serif" font-size="10.00">alps_cmn/sensor/i_rotary</text>
<text text-anchor="middle" x="258" y="-253.5" font-family="Helvetica,sans-Serif" font-size="10.00">_sensor.hpp</text>
</a>
</g>
</g>
<!-- Node2&#45;&gt;Node15 -->
<g id="edge24" class="edge">
<title>Node2&#45;&gt;Node15</title>
<path fill="none" stroke="midnightblue" d="M437.59,-313.48C402.35,-303.47 354.78,-289.97 317.46,-279.38"/>
<polygon fill="midnightblue" stroke="midnightblue" points="318.29,-275.97 307.71,-276.61 316.38,-282.71 318.29,-275.97"/>
</g>
<!-- Node5 -->
<g id="node5" class="node">
<title>Node5</title>
<g id="a_node5"><a xlink:href="differentiator_8hpp.html" target="_top" xlink:title="微分器ライブラリ">
<polygon fill="white" stroke="black" points="138.5,-118 138.5,-137 325.5,-137 325.5,-118 138.5,-118"/>
<text text-anchor="middle" x="232" y="-125" font-family="Helvetica,sans-Serif" font-size="10.00">alps_cmn/control/differentiator.hpp</text>
</a>
</g>
</g>
<!-- Node4&#45;&gt;Node5 -->
<g id="edge4" class="edge">
<title>Node4&#45;&gt;Node5</title>
<path fill="none" stroke="midnightblue" d="M207.73,-179.4C212.32,-169.76 218.45,-156.91 223.4,-146.54"/>
<polygon fill="midnightblue" stroke="midnightblue" points="226.71,-147.73 227.85,-137.19 220.39,-144.71 226.71,-147.73"/>
</g>
<!-- Node8 -->
<g id="node8" class="node">
<title>Node8</title>
<g id="a_node8"><a xlink:href="low__pass__filter_8hpp.html" target="_top" xlink:title="ローパスフィルタのクラス">
<polygon fill="white" stroke="black" points="0,-112.5 0,-142.5 120,-142.5 120,-112.5 0,-112.5"/>
<text text-anchor="start" x="8" y="-130.5" font-family="Helvetica,sans-Serif" font-size="10.00">alps_cmn/control/low</text>
<text text-anchor="middle" x="60" y="-119.5" font-family="Helvetica,sans-Serif" font-size="10.00">_pass_filter.hpp</text>
</a>
</g>
</g>
<!-- Node4&#45;&gt;Node8 -->
<g id="edge8" class="edge">
<title>Node4&#45;&gt;Node8</title>
<path fill="none" stroke="midnightblue" d="M170.41,-179.4C149.71,-169.86 122.18,-157.16 99.78,-146.84"/>
<polygon fill="midnightblue" stroke="midnightblue" points="101.08,-143.58 90.54,-142.58 98.15,-149.94 101.08,-143.58"/>
</g>
<!-- Node6 -->
<g id="node6" class="node">
<title>Node6</title>
<g id="a_node6"><a xlink:title=" ">
<polygon fill="white" stroke="#bfbfbf" points="261,-0.5 261,-19.5 311,-19.5 311,-0.5 261,-0.5"/>
<text text-anchor="middle" x="286" y="-7.5" font-family="Helvetica,sans-Serif" font-size="10.00">chrono</text>
</a>
</g>
</g>
<!-- Node5&#45;&gt;Node6 -->
<g id="edge5" class="edge">
<title>Node5&#45;&gt;Node6</title>
<path fill="none" stroke="midnightblue" d="M222.79,-117.93C209.33,-104.32 187.19,-77.16 200,-56 211.1,-37.67 232.38,-26.45 251,-19.79"/>
<polygon fill="midnightblue" stroke="midnightblue" points="252.28,-23.06 260.71,-16.63 250.12,-16.4 252.28,-23.06"/>
</g>
<!-- Node7 -->
<g id="node7" class="node">
<title>Node7</title>
<g id="a_node7"><a xlink:href="duration_8hpp.html" target="_top" xlink:title="時間間隔の型エイリアス">
<polygon fill="white" stroke="black" points="209.5,-56.5 209.5,-75.5 362.5,-75.5 362.5,-56.5 209.5,-56.5"/>
<text text-anchor="middle" x="286" y="-63.5" font-family="Helvetica,sans-Serif" font-size="10.00">alps_cmn/time/duration.hpp</text>
</a>
</g>
</g>
<!-- Node5&#45;&gt;Node7 -->
<g id="edge6" class="edge">
<title>Node5&#45;&gt;Node7</title>
<path fill="none" stroke="midnightblue" d="M239.74,-117.98C248,-108.87 261.28,-94.24 271.49,-82.98"/>
<polygon fill="midnightblue" stroke="midnightblue" points="274.15,-85.27 278.28,-75.51 268.97,-80.56 274.15,-85.27"/>
</g>
<!-- Node7&#45;&gt;Node6 -->
<g id="edge7" class="edge">
<title>Node7&#45;&gt;Node6</title>
<path fill="none" stroke="midnightblue" d="M286,-56.08C286,-49.01 286,-38.86 286,-29.99"/>
<polygon fill="midnightblue" stroke="midnightblue" points="289.5,-29.75 286,-19.75 282.5,-29.75 289.5,-29.75"/>
</g>
<!-- Node8&#45;&gt;Node6 -->
<g id="edge9" class="edge">
<title>Node8&#45;&gt;Node6</title>
<path fill="none" stroke="midnightblue" d="M85.85,-112.44C112.54,-98 155.47,-75.02 193,-56 214.94,-44.88 240.05,-32.77 258.65,-23.91"/>
<polygon fill="midnightblue" stroke="midnightblue" points="260.19,-27.05 267.73,-19.6 257.19,-20.73 260.19,-27.05"/>
</g>
<!-- Node8&#45;&gt;Node7 -->
<g id="edge10" class="edge">
<title>Node8&#45;&gt;Node7</title>
<path fill="none" stroke="midnightblue" d="M113.27,-112.47C153.11,-101.99 206.86,-87.84 243.75,-78.12"/>
<polygon fill="midnightblue" stroke="midnightblue" points="244.91,-81.44 253.69,-75.51 243.13,-74.67 244.91,-81.44"/>
</g>
<!-- Node9&#45;&gt;Node4 -->
<g id="edge20" class="edge">
<title>Node9&#45;&gt;Node4</title>
<path fill="none" stroke="midnightblue" d="M536.16,-251.97C524.63,-249.98 512.39,-247.9 501,-246 404.65,-229.94 377.96,-227.59 278.02,-210.15"/>
<polygon fill="midnightblue" stroke="midnightblue" points="278.57,-206.69 268.12,-208.42 277.36,-213.59 278.57,-206.69"/>
</g>
<!-- Node9&#45;&gt;Node6 -->
<g id="edge12" class="edge">
<title>Node9&#45;&gt;Node6</title>
<path fill="none" stroke="midnightblue" d="M627.02,-251.96C650.16,-244.89 676.96,-232.24 691,-210 716.79,-169.15 683.4,-139.95 644,-112 542.01,-39.64 389.48,-18.96 321.22,-13.18"/>
<polygon fill="midnightblue" stroke="midnightblue" points="321.26,-9.67 311.01,-12.37 320.71,-16.65 321.26,-9.67"/>
</g>
<!-- Node10 -->
<g id="node10" class="node">
<title>Node10</title>
<g id="a_node10"><a xlink:title=" ">
<polygon fill="white" stroke="#bfbfbf" points="618.5,-185 618.5,-204 665.5,-204 665.5,-185 618.5,-185"/>
<text text-anchor="middle" x="642" y="-192" font-family="Helvetica,sans-Serif" font-size="10.00">cmath</text>
</a>
</g>
</g>
<!-- Node9&#45;&gt;Node10 -->
<g id="edge13" class="edge">
<title>Node9&#45;&gt;Node10</title>
<path fill="none" stroke="midnightblue" d="M592.69,-251.73C601.66,-241.5 616.69,-224.36 627.8,-211.69"/>
<polygon fill="midnightblue" stroke="midnightblue" points="630.47,-213.95 634.43,-204.13 625.21,-209.34 630.47,-213.95"/>
</g>
<!-- Node11 -->
<g id="node11" class="node">
<title>Node11</title>
<g id="a_node11"><a xlink:title=" ">
<polygon fill="white" stroke="#bfbfbf" points="591,-118 591,-137 635,-137 635,-118 591,-118"/>
<text text-anchor="middle" x="613" y="-125" font-family="Helvetica,sans-Serif" font-size="10.00">limits</text>
</a>
</g>
</g>
<!-- Node9&#45;&gt;Node11 -->
<g id="edge14" class="edge">
<title>Node9&#45;&gt;Node11</title>
<path fill="none" stroke="midnightblue" d="M615.99,-251.87C636.4,-244.39 661.57,-231.34 674,-210 680.93,-198.09 679.86,-191.47 674,-179 666.68,-163.43 651.94,-151.02 638.79,-142.4"/>
<polygon fill="midnightblue" stroke="midnightblue" points="640.4,-139.28 630.04,-137.04 636.74,-145.25 640.4,-139.28"/>
</g>
<!-- Node12 -->
<g id="node12" class="node">
<title>Node12</title>
<g id="a_node12"><a xlink:href="integrator_8hpp.html" target="_top" xlink:title="積分器ライブラリ">
<polygon fill="white" stroke="black" points="286.5,-185 286.5,-204 457.5,-204 457.5,-185 286.5,-185"/>
<text text-anchor="middle" x="372" y="-192" font-family="Helvetica,sans-Serif" font-size="10.00">alps_cmn/control/integrator.hpp</text>
</a>
</g>
</g>
<!-- Node9&#45;&gt;Node12 -->
<g id="edge15" class="edge">
<title>Node9&#45;&gt;Node12</title>
<path fill="none" stroke="midnightblue" d="M556.72,-251.87C518.89,-240.33 451.75,-219.84 409.67,-207"/>
<polygon fill="midnightblue" stroke="midnightblue" points="410.65,-203.63 400.06,-204.06 408.61,-210.33 410.65,-203.63"/>
</g>
<!-- Node14 -->
<g id="node14" class="node">
<title>Node14</title>
<g id="a_node14"><a xlink:href="numeric__range_8hpp.html" target="_top" xlink:title="数値の範囲を扱うクラス">
<polygon fill="white" stroke="black" points="475.5,-179.5 475.5,-209.5 600.5,-209.5 600.5,-179.5 475.5,-179.5"/>
<text text-anchor="start" x="483.5" y="-197.5" font-family="Helvetica,sans-Serif" font-size="10.00">alps_cmn/util/numeric</text>
<text text-anchor="middle" x="538" y="-186.5" font-family="Helvetica,sans-Serif" font-size="10.00">_range.hpp</text>
</a>
</g>
</g>
<!-- Node9&#45;&gt;Node14 -->
<g id="edge21" class="edge">
<title>Node9&#45;&gt;Node14</title>
<path fill="none" stroke="midnightblue" d="M578.66,-251.73C572.43,-243.12 562.66,-229.61 554.26,-217.99"/>
<polygon fill="midnightblue" stroke="midnightblue" points="556.88,-215.64 548.19,-209.59 551.21,-219.74 556.88,-215.64"/>
</g>
<!-- Node12&#45;&gt;Node6 -->
<g id="edge16" class="edge">
<title>Node12&#45;&gt;Node6</title>
<path fill="none" stroke="midnightblue" d="M374.72,-184.96C381.47,-162.07 396.64,-98.24 371,-56 360.06,-37.97 339.22,-26.78 320.92,-20.07"/>
<polygon fill="midnightblue" stroke="midnightblue" points="321.96,-16.72 311.37,-16.87 319.74,-23.36 321.96,-16.72"/>
</g>
<!-- Node12&#45;&gt;Node7 -->
<g id="edge19" class="edge">
<title>Node12&#45;&gt;Node7</title>
<path fill="none" stroke="midnightblue" d="M369.2,-184.83C363.91,-169.28 351.4,-136.02 334,-112 325.91,-100.84 314.79,-90.2 305.28,-82.08"/>
<polygon fill="midnightblue" stroke="midnightblue" points="307.41,-79.29 297.46,-75.63 302.95,-84.69 307.41,-79.29"/>
</g>
<!-- Node12&#45;&gt;Node11 -->
<g id="edge17" class="edge">
<title>Node12&#45;&gt;Node11</title>
<path fill="none" stroke="midnightblue" d="M417.96,-184.99C460.79,-176.46 526.11,-161.88 581,-143 582.67,-142.43 584.36,-141.8 586.06,-141.14"/>
<polygon fill="midnightblue" stroke="midnightblue" points="587.79,-144.2 595.64,-137.08 585.06,-137.76 587.79,-144.2"/>
</g>
<!-- Node13 -->
<g id="node13" class="node">
<title>Node13</title>
<g id="a_node13"><a xlink:href="algorithm_8hpp.html" target="_top" xlink:title=" ">
<polygon fill="white" stroke="black" points="419.5,-118 419.5,-137 572.5,-137 572.5,-118 419.5,-118"/>
<text text-anchor="middle" x="496" y="-125" font-family="Helvetica,sans-Serif" font-size="10.00">alps_cmn/util/algorithm.hpp</text>
</a>
</g>
</g>
<!-- Node12&#45;&gt;Node13 -->
<g id="edge18" class="edge">
<title>Node12&#45;&gt;Node13</title>
<path fill="none" stroke="midnightblue" d="M388.47,-184.87C409.4,-173.89 445.78,-154.82 470.36,-141.94"/>
<polygon fill="midnightblue" stroke="midnightblue" points="472.23,-144.91 479.47,-137.17 468.98,-138.71 472.23,-144.91"/>
</g>
<!-- Node14&#45;&gt;Node11 -->
<g id="edge22" class="edge">
<title>Node14&#45;&gt;Node11</title>
<path fill="none" stroke="midnightblue" d="M554.27,-179.4C566.32,-168.96 582.71,-154.75 595.12,-144"/>
<polygon fill="midnightblue" stroke="midnightblue" points="597.7,-146.39 602.97,-137.19 593.12,-141.1 597.7,-146.39"/>
</g>
<!-- Node14&#45;&gt;Node13 -->
<g id="edge23" class="edge">
<title>Node14&#45;&gt;Node13</title>
<path fill="none" stroke="midnightblue" d="M528.89,-179.4C522.53,-169.56 514.01,-156.38 507.24,-145.89"/>
<polygon fill="midnightblue" stroke="midnightblue" points="509.98,-143.69 501.62,-137.19 504.11,-147.49 509.98,-143.69"/>
</g>
<!-- Node17 -->
<g id="node17" class="node">
<title>Node17</title>
<g id="a_node17"><a xlink:href="param__map_8hpp.html" target="_top" xlink:title=" ">
<polygon fill="white" stroke="black" points="753,-246.5 753,-276.5 869,-276.5 869,-246.5 753,-246.5"/>
<text text-anchor="start" x="761" y="-264.5" font-family="Helvetica,sans-Serif" font-size="10.00">alps_ros2/util/param</text>
<text text-anchor="middle" x="811" y="-253.5" font-family="Helvetica,sans-Serif" font-size="10.00">_map.hpp</text>
</a>
</g>
</g>
<!-- Node16&#45;&gt;Node17 -->
<g id="edge27" class="edge">
<title>Node16&#45;&gt;Node17</title>
<path fill="none" stroke="midnightblue" d="M897.91,-313.4C882.06,-304.11 861.11,-291.84 843.74,-281.67"/>
<polygon fill="midnightblue" stroke="midnightblue" points="845.44,-278.61 835.04,-276.58 841.9,-284.65 845.44,-278.61"/>
</g>
<!-- Node21 -->
<g id="node21" class="node">
<title>Node21</title>
<g id="a_node21"><a xlink:title=" ">
<polygon fill="white" stroke="#bfbfbf" points="887.5,-252 887.5,-271 956.5,-271 956.5,-252 887.5,-252"/>
<text text-anchor="middle" x="922" y="-259" font-family="Helvetica,sans-Serif" font-size="10.00">etl/string.h</text>
</a>
</g>
</g>
<!-- Node16&#45;&gt;Node21 -->
<g id="edge31" class="edge">
<title>Node16&#45;&gt;Node21</title>
<path fill="none" stroke="midnightblue" d="M922,-313.4C922,-304.06 922,-291.71 922,-281.52"/>
<polygon fill="midnightblue" stroke="midnightblue" points="925.5,-281.19 922,-271.19 918.5,-281.19 925.5,-281.19"/>
</g>
<!-- Node22 -->
<g id="node22" class="node">
<title>Node22</title>
<g id="a_node22"><a xlink:title=" ">
<polygon fill="white" stroke="#bfbfbf" points="974.5,-252 974.5,-271 1045.5,-271 1045.5,-252 974.5,-252"/>
<text text-anchor="middle" x="1010" y="-259" font-family="Helvetica,sans-Serif" font-size="10.00">etl/vector.h</text>
</a>
</g>
</g>
<!-- Node16&#45;&gt;Node22 -->
<g id="edge32" class="edge">
<title>Node16&#45;&gt;Node22</title>
<path fill="none" stroke="midnightblue" d="M941.09,-313.4C955.58,-302.7 975.43,-288.03 990.11,-277.19"/>
<polygon fill="midnightblue" stroke="midnightblue" points="992.52,-279.76 998.48,-271.01 988.36,-274.13 992.52,-279.76"/>
</g>
<!-- Node23 -->
<g id="node23" class="node">
<title>Node23</title>
<g id="a_node23"><a xlink:title=" ">
<polygon fill="white" stroke="#bfbfbf" points="1063.5,-252 1063.5,-271 1230.5,-271 1230.5,-252 1063.5,-252"/>
<text text-anchor="middle" x="1147" y="-259" font-family="Helvetica,sans-Serif" font-size="10.00">magic_enum/magic_enum.hpp</text>
</a>
</g>
</g>
<!-- Node16&#45;&gt;Node23 -->
<g id="edge33" class="edge">
<title>Node16&#45;&gt;Node23</title>
<path fill="none" stroke="midnightblue" d="M970.54,-313.48C1011.58,-301.62 1069.61,-284.86 1107.75,-273.84"/>
<polygon fill="midnightblue" stroke="midnightblue" points="1108.84,-277.17 1117.48,-271.03 1106.9,-270.44 1108.84,-277.17"/>
</g>
<!-- Node18 -->
<g id="node18" class="node">
<title>Node18</title>
<g id="a_node18"><a xlink:title=" ">
<polygon fill="white" stroke="#bfbfbf" points="760,-185 760,-204 798,-204 798,-185 760,-185"/>
<text text-anchor="middle" x="779" y="-192" font-family="Helvetica,sans-Serif" font-size="10.00">map</text>
</a>
</g>
</g>
<!-- Node17&#45;&gt;Node18 -->
<g id="edge28" class="edge">
<title>Node17&#45;&gt;Node18</title>
<path fill="none" stroke="midnightblue" d="M804.06,-246.4C799.26,-236.66 792.86,-223.65 787.72,-213.21"/>
<polygon fill="midnightblue" stroke="midnightblue" points="790.84,-211.62 783.28,-204.19 784.56,-214.71 790.84,-211.62"/>
</g>
<!-- Node19 -->
<g id="node19" class="node">
<title>Node19</title>
<g id="a_node19"><a xlink:title=" ">
<polygon fill="white" stroke="#bfbfbf" points="816,-185 816,-204 872,-204 872,-185 816,-185"/>
<text text-anchor="middle" x="844" y="-192" font-family="Helvetica,sans-Serif" font-size="10.00">optional</text>
</a>
</g>
</g>
<!-- Node17&#45;&gt;Node19 -->
<g id="edge29" class="edge">
<title>Node17&#45;&gt;Node19</title>
<path fill="none" stroke="midnightblue" d="M818.16,-246.4C823.1,-236.66 829.71,-223.65 835.01,-213.21"/>
<polygon fill="midnightblue" stroke="midnightblue" points="838.18,-214.7 839.59,-204.19 831.94,-211.53 838.18,-214.7"/>
</g>
<!-- Node20 -->
<g id="node20" class="node">
<title>Node20</title>
<g id="a_node20"><a xlink:title=" ">
<polygon fill="white" stroke="#bfbfbf" points="890,-185 890,-204 1010,-204 1010,-185 890,-185"/>
<text text-anchor="middle" x="950" y="-192" font-family="Helvetica,sans-Serif" font-size="10.00">rclcpp/parameter.hpp</text>
</a>
</g>
</g>
<!-- Node17&#45;&gt;Node20 -->
<g id="edge30" class="edge">
<title>Node17&#45;&gt;Node20</title>
<path fill="none" stroke="midnightblue" d="M841.16,-246.4C865.44,-235.04 899.28,-219.22 922.75,-208.24"/>
<polygon fill="midnightblue" stroke="midnightblue" points="924.23,-211.41 931.81,-204.01 921.27,-205.07 924.23,-211.41"/>
</g>
</g>
</svg>
