<?xml version="1.0" encoding="UTF-8" standalone="no"?>
<!DOCTYPE svg PUBLIC "-//W3C//DTD SVG 1.1//EN"
 "http://www.w3.org/Graphics/SVG/1.1/DTD/svg11.dtd">
<!-- Generated by graphviz version 2.43.0 (0)
 -->
<!-- Title: alps_core/lib_internal/alps_common_lib/include/alps_cmn/type/custom_type_serialize_rule.hpp Pages: 1 -->
<svg width="851pt" height="236pt"
 viewBox="0.00 0.00 851.00 236.00" xmlns="http://www.w3.org/2000/svg" xmlns:xlink="http://www.w3.org/1999/xlink">
<g id="graph0" class="graph" transform="scale(1 1) rotate(0) translate(4 232)">
<title>alps_core/lib_internal/alps_common_lib/include/alps_cmn/type/custom_type_serialize_rule.hpp</title>
<!-- Node1 -->
<g id="Node000001" class="node">
<title>Node1</title>
<g id="a_Node000001"><a xlink:title="カスタム型のシリアライズ規則を定義する">
<polygon fill="#999999" stroke="#666666" points="395.5,-228 238.5,-228 238.5,-176 395.5,-176 395.5,-228"/>
<text text-anchor="start" x="246.5" y="-216" font-family="Helvetica,sans-Serif" font-size="10.00">alps_core/lib_internal</text>
<text text-anchor="start" x="246.5" y="-205" font-family="Helvetica,sans-Serif" font-size="10.00">/alps_common_lib/include</text>
<text text-anchor="start" x="246.5" y="-194" font-family="Helvetica,sans-Serif" font-size="10.00">/alps_cmn/type/custom_type</text>
<text text-anchor="middle" x="317" y="-183" font-family="Helvetica,sans-Serif" font-size="10.00">_serialize_rule.hpp</text>
</a>
</g>
</g>
<!-- Node2 -->
<g id="Node000002" class="node">
<title>Node2</title>
<g id="a_Node000002"><a xlink:href="duration_8hpp.html" target="_top" xlink:title="時間間隔の型エイリアス">
<polygon fill="white" stroke="#666666" points="182.5,-140 29.5,-140 29.5,-121 182.5,-121 182.5,-140"/>
<text text-anchor="middle" x="106" y="-128" font-family="Helvetica,sans-Serif" font-size="10.00">alps_cmn/time/duration.hpp</text>
</a>
</g>
</g>
<!-- Node1&#45;&gt;Node2 -->
<g id="edge1_Node000001_Node000002" class="edge">
<title>Node1&#45;&gt;Node2</title>
<g id="a_edge1_Node000001_Node000002"><a xlink:title=" ">
<path fill="none" stroke="#63b8ff" d="M240.82,-175.91C207.02,-164.77 168.84,-152.2 141.77,-143.28"/>
<polygon fill="#63b8ff" stroke="#63b8ff" points="142.56,-139.86 131.97,-140.05 140.37,-146.51 142.56,-139.86"/>
</a>
</g>
</g>
<!-- Node4 -->
<g id="Node000004" class="node">
<title>Node4</title>
<g id="a_Node000004"><a xlink:href="serializer_8hpp.html" target="_top" xlink:title="データとバイト列の変換ライブラリ">
<polygon fill="white" stroke="#666666" points="395,-140 239,-140 239,-121 395,-121 395,-140"/>
<text text-anchor="middle" x="317" y="-128" font-family="Helvetica,sans-Serif" font-size="10.00">alps_cmn/type/serializer.hpp</text>
</a>
</g>
</g>
<!-- Node1&#45;&gt;Node4 -->
<g id="edge3_Node000001_Node000004" class="edge">
<title>Node1&#45;&gt;Node4</title>
<g id="a_edge3_Node000001_Node000004"><a xlink:title=" ">
<path fill="none" stroke="#63b8ff" d="M317,-175.91C317,-167.55 317,-158.38 317,-150.55"/>
<polygon fill="#63b8ff" stroke="#63b8ff" points="320.5,-150.3 317,-140.3 313.5,-150.3 320.5,-150.3"/>
</a>
</g>
</g>
<!-- Node16 -->
<g id="Node000016" class="node">
<title>Node16</title>
<g id="a_Node000016"><a xlink:title=" ">
<polygon fill="#e0e0e0" stroke="#999999" points="494.5,-140 413.5,-140 413.5,-121 494.5,-121 494.5,-140"/>
<text text-anchor="middle" x="454" y="-128" font-family="Helvetica,sans-Serif" font-size="10.00">etl/optional.h</text>
</a>
</g>
</g>
<!-- Node1&#45;&gt;Node16 -->
<g id="edge18_Node000001_Node000016" class="edge">
<title>Node1&#45;&gt;Node16</title>
<g id="a_edge18_Node000001_Node000016"><a xlink:title=" ">
<path fill="none" stroke="#63b8ff" d="M366.46,-175.91C387.28,-165.35 410.66,-153.49 428.01,-144.68"/>
<polygon fill="#63b8ff" stroke="#63b8ff" points="429.64,-147.78 436.98,-140.14 426.48,-141.54 429.64,-147.78"/>
</a>
</g>
</g>
<!-- Node3 -->
<g id="Node000003" class="node">
<title>Node3</title>
<g id="a_Node000003"><a xlink:title=" ">
<polygon fill="#e0e0e0" stroke="#999999" points="50,-79.5 0,-79.5 0,-60.5 50,-60.5 50,-79.5"/>
<text text-anchor="middle" x="25" y="-67.5" font-family="Helvetica,sans-Serif" font-size="10.00">chrono</text>
</a>
</g>
</g>
<!-- Node2&#45;&gt;Node3 -->
<g id="edge2_Node000002_Node000003" class="edge">
<title>Node2&#45;&gt;Node3</title>
<g id="a_edge2_Node000002_Node000003"><a xlink:title=" ">
<path fill="none" stroke="#63b8ff" d="M94.05,-120.87C81.25,-111.62 60.7,-96.78 45.35,-85.69"/>
<polygon fill="#63b8ff" stroke="#63b8ff" points="47.16,-82.68 37,-79.67 43.06,-88.36 47.16,-82.68"/>
</a>
</g>
</g>
<!-- Node4&#45;&gt;Node3 -->
<g id="edge10_Node000004_Node000003" class="edge">
<title>Node4&#45;&gt;Node3</title>
<g id="a_edge10_Node000004_Node000003"><a xlink:title=" ">
<path fill="none" stroke="#63b8ff" d="M241.78,-120.97C189.79,-113.99 119.38,-102.41 59,-85 57.11,-84.46 55.19,-83.84 53.27,-83.18"/>
<polygon fill="#63b8ff" stroke="#63b8ff" points="54.39,-79.86 43.8,-79.6 51.92,-86.41 54.39,-79.86"/>
</a>
</g>
</g>
<!-- Node5 -->
<g id="Node000005" class="node">
<title>Node5</title>
<g id="a_Node000005"><a xlink:title=" ">
<polygon fill="#e0e0e0" stroke="#999999" points="843,-79.5 779,-79.5 779,-60.5 843,-60.5 843,-79.5"/>
<text text-anchor="middle" x="811" y="-67.5" font-family="Helvetica,sans-Serif" font-size="10.00">algorithm</text>
</a>
</g>
</g>
<!-- Node4&#45;&gt;Node5 -->
<g id="edge4_Node000004_Node000005" class="edge">
<title>Node4&#45;&gt;Node5</title>
<g id="a_edge4_Node000004_Node000005"><a xlink:title=" ">
<path fill="none" stroke="#63b8ff" d="M395.2,-121.93C523.61,-109.49 765.47,-85.98 770,-85 773.06,-84.34 776.21,-83.52 779.34,-82.61"/>
<polygon fill="#63b8ff" stroke="#63b8ff" points="780.66,-85.87 789.14,-79.51 778.55,-79.19 780.66,-85.87"/>
</a>
</g>
</g>
<!-- Node6 -->
<g id="Node000006" class="node">
<title>Node6</title>
<g id="a_Node000006"><a xlink:title=" ">
<polygon fill="#e0e0e0" stroke="#999999" points="110,-79.5 68,-79.5 68,-60.5 110,-60.5 110,-79.5"/>
<text text-anchor="middle" x="89" y="-67.5" font-family="Helvetica,sans-Serif" font-size="10.00">array</text>
</a>
</g>
</g>
<!-- Node4&#45;&gt;Node6 -->
<g id="edge5_Node000004_Node000006" class="edge">
<title>Node4&#45;&gt;Node6</title>
<g id="a_edge5_Node000004_Node000006"><a xlink:title=" ">
<path fill="none" stroke="#63b8ff" d="M264.88,-120.96C224.45,-113.58 167.35,-101.5 119,-85 117.61,-84.52 116.19,-84 114.77,-83.45"/>
<polygon fill="#63b8ff" stroke="#63b8ff" points="116.13,-80.22 105.56,-79.5 113.37,-86.66 116.13,-80.22"/>
</a>
</g>
</g>
<!-- Node7 -->
<g id="Node000007" class="node">
<title>Node7</title>
<g id="a_Node000007"><a xlink:title=" ">
<polygon fill="#e0e0e0" stroke="#999999" points="178,-79.5 128,-79.5 128,-60.5 178,-60.5 178,-79.5"/>
<text text-anchor="middle" x="153" y="-67.5" font-family="Helvetica,sans-Serif" font-size="10.00">cstdint</text>
</a>
</g>
</g>
<!-- Node4&#45;&gt;Node7 -->
<g id="edge6_Node000004_Node000007" class="edge">
<title>Node4&#45;&gt;Node7</title>
<g id="a_edge6_Node000004_Node000007"><a xlink:title=" ">
<path fill="none" stroke="#63b8ff" d="M290.44,-120.93C264.05,-112.3 222.5,-98.37 187,-85 185.62,-84.48 184.21,-83.94 182.79,-83.39"/>
<polygon fill="#63b8ff" stroke="#63b8ff" points="184,-80.1 173.42,-79.64 181.4,-86.6 184,-80.1"/>
</a>
</g>
</g>
<!-- Node8 -->
<g id="Node000008" class="node">
<title>Node8</title>
<g id="a_Node000008"><a xlink:title=" ">
<polygon fill="#e0e0e0" stroke="#999999" points="246,-79.5 196,-79.5 196,-60.5 246,-60.5 246,-79.5"/>
<text text-anchor="middle" x="221" y="-67.5" font-family="Helvetica,sans-Serif" font-size="10.00">cstring</text>
</a>
</g>
</g>
<!-- Node4&#45;&gt;Node8 -->
<g id="edge7_Node000004_Node000008" class="edge">
<title>Node4&#45;&gt;Node8</title>
<g id="a_edge7_Node000004_Node000008"><a xlink:title=" ">
<path fill="none" stroke="#63b8ff" d="M302.83,-120.87C287.31,-111.41 262.17,-96.09 243.85,-84.92"/>
<polygon fill="#63b8ff" stroke="#63b8ff" points="245.58,-81.88 235.22,-79.67 241.94,-87.86 245.58,-81.88"/>
</a>
</g>
</g>
<!-- Node9 -->
<g id="Node000009" class="node">
<title>Node9</title>
<g id="a_Node000009"><a xlink:title=" ">
<polygon fill="#e0e0e0" stroke="#999999" points="307.5,-19 266.5,-19 266.5,0 307.5,0 307.5,-19"/>
<text text-anchor="middle" x="287" y="-7" font-family="Helvetica,sans-Serif" font-size="10.00">tuple</text>
</a>
</g>
</g>
<!-- Node4&#45;&gt;Node9 -->
<g id="edge8_Node000004_Node000009" class="edge">
<title>Node4&#45;&gt;Node9</title>
<g id="a_edge8_Node000004_Node000009"><a xlink:title=" ">
<path fill="none" stroke="#63b8ff" d="M310.87,-120.78C305.15,-112.13 296.93,-98.3 293,-85 287.61,-66.75 286.42,-44.97 286.4,-29.69"/>
<polygon fill="#63b8ff" stroke="#63b8ff" points="289.9,-29.48 286.55,-19.43 282.9,-29.38 289.9,-29.48"/>
</a>
</g>
</g>
<!-- Node10 -->
<g id="Node000010" class="node">
<title>Node10</title>
<g id="a_Node000010"><a xlink:title=" ">
<polygon fill="#e0e0e0" stroke="#999999" points="474.5,-19 405.5,-19 405.5,0 474.5,0 474.5,-19"/>
<text text-anchor="middle" x="440" y="-7" font-family="Helvetica,sans-Serif" font-size="10.00">type_traits</text>
</a>
</g>
</g>
<!-- Node4&#45;&gt;Node10 -->
<g id="edge9_Node000004_Node000010" class="edge">
<title>Node4&#45;&gt;Node10</title>
<g id="a_edge9_Node000004_Node000010"><a xlink:title=" ">
<path fill="none" stroke="#63b8ff" d="M365.68,-120.97C387.57,-114.65 411.85,-103.75 427,-85 439.6,-69.4 441.8,-45.89 441.51,-29.47"/>
<polygon fill="#63b8ff" stroke="#63b8ff" points="445.01,-29.23 441.02,-19.41 438.01,-29.57 445.01,-29.23"/>
</a>
</g>
</g>
<!-- Node11 -->
<g id="Node000011" class="node">
<title>Node11</title>
<g id="a_Node000011"><a xlink:href="tuple__traits_8hpp.html" target="_top" xlink:title="タプル関係の型特性">
<polygon fill="white" stroke="#666666" points="418,-85 302,-85 302,-55 418,-55 418,-85"/>
<text text-anchor="start" x="310" y="-73" font-family="Helvetica,sans-Serif" font-size="10.00">alps_cmn/type/tuple</text>
<text text-anchor="middle" x="360" y="-62" font-family="Helvetica,sans-Serif" font-size="10.00">_traits.hpp</text>
</a>
</g>
</g>
<!-- Node4&#45;&gt;Node11 -->
<g id="edge11_Node000004_Node000011" class="edge">
<title>Node4&#45;&gt;Node11</title>
<g id="a_edge11_Node000004_Node000011"><a xlink:title=" ">
<path fill="none" stroke="#63b8ff" d="M323.34,-120.87C328.69,-113.59 336.59,-102.85 343.68,-93.2"/>
<polygon fill="#63b8ff" stroke="#63b8ff" points="346.52,-95.25 349.63,-85.11 340.88,-91.1 346.52,-95.25"/>
</a>
</g>
</g>
<!-- Node13 -->
<g id="Node000013" class="node">
<title>Node13</title>
<g id="a_Node000013"><a xlink:title=" ">
<polygon fill="#e0e0e0" stroke="#999999" points="584,-79.5 474,-79.5 474,-60.5 584,-60.5 584,-79.5"/>
<text text-anchor="middle" x="529" y="-67.5" font-family="Helvetica,sans-Serif" font-size="10.00">etl/circular_buffer.h</text>
</a>
</g>
</g>
<!-- Node4&#45;&gt;Node13 -->
<g id="edge15_Node000004_Node000013" class="edge">
<title>Node4&#45;&gt;Node13</title>
<g id="a_edge15_Node000004_Node000013"><a xlink:title=" ">
<path fill="none" stroke="#63b8ff" d="M347.83,-120.99C384.96,-110.75 447.45,-93.5 488.46,-82.19"/>
<polygon fill="#63b8ff" stroke="#63b8ff" points="489.43,-85.55 498.14,-79.52 487.57,-78.8 489.43,-85.55"/>
</a>
</g>
</g>
<!-- Node14 -->
<g id="Node000014" class="node">
<title>Node14</title>
<g id="a_Node000014"><a xlink:title=" ">
<polygon fill="#e0e0e0" stroke="#999999" points="671.5,-79.5 602.5,-79.5 602.5,-60.5 671.5,-60.5 671.5,-79.5"/>
<text text-anchor="middle" x="637" y="-67.5" font-family="Helvetica,sans-Serif" font-size="10.00">etl/string.h</text>
</a>
</g>
</g>
<!-- Node4&#45;&gt;Node14 -->
<g id="edge16_Node000004_Node000014" class="edge">
<title>Node4&#45;&gt;Node14</title>
<g id="a_edge16_Node000004_Node000014"><a xlink:title=" ">
<path fill="none" stroke="#63b8ff" d="M388.19,-120.97C444.27,-113.55 524.19,-101.4 593,-85 596.02,-84.28 599.14,-83.46 602.25,-82.58"/>
<polygon fill="#63b8ff" stroke="#63b8ff" points="603.47,-85.87 612.05,-79.64 601.47,-79.16 603.47,-85.87"/>
</a>
</g>
</g>
<!-- Node15 -->
<g id="Node000015" class="node">
<title>Node15</title>
<g id="a_Node000015"><a xlink:title=" ">
<polygon fill="#e0e0e0" stroke="#999999" points="760.5,-79.5 689.5,-79.5 689.5,-60.5 760.5,-60.5 760.5,-79.5"/>
<text text-anchor="middle" x="725" y="-67.5" font-family="Helvetica,sans-Serif" font-size="10.00">etl/vector.h</text>
</a>
</g>
</g>
<!-- Node4&#45;&gt;Node15 -->
<g id="edge17_Node000004_Node000015" class="edge">
<title>Node4&#45;&gt;Node15</title>
<g id="a_edge17_Node000004_Node000015"><a xlink:title=" ">
<path fill="none" stroke="#63b8ff" d="M395.13,-121.67C485.38,-112.33 628.21,-96.52 681,-85 684.39,-84.26 687.9,-83.37 691.38,-82.4"/>
<polygon fill="#63b8ff" stroke="#63b8ff" points="692.43,-85.74 701.01,-79.52 690.43,-79.03 692.43,-85.74"/>
</a>
</g>
</g>
<!-- Node11&#45;&gt;Node9 -->
<g id="edge13_Node000011_Node000009" class="edge">
<title>Node11&#45;&gt;Node9</title>
<g id="a_edge13_Node000011_Node000009"><a xlink:title=" ">
<path fill="none" stroke="#63b8ff" d="M342.33,-54.84C331.3,-46 317.11,-34.63 305.87,-25.62"/>
<polygon fill="#63b8ff" stroke="#63b8ff" points="307.93,-22.79 297.94,-19.27 303.55,-28.25 307.93,-22.79"/>
</a>
</g>
</g>
<!-- Node11&#45;&gt;Node10 -->
<g id="edge14_Node000011_Node000010" class="edge">
<title>Node11&#45;&gt;Node10</title>
<g id="a_edge14_Node000011_Node000010"><a xlink:title=" ">
<path fill="none" stroke="#63b8ff" d="M379.37,-54.84C391.57,-45.91 407.31,-34.41 419.69,-25.35"/>
<polygon fill="#63b8ff" stroke="#63b8ff" points="422.01,-27.99 428.01,-19.27 417.87,-22.34 422.01,-27.99"/>
</a>
</g>
</g>
<!-- Node12 -->
<g id="Node000012" class="node">
<title>Node12</title>
<g id="a_Node000012"><a xlink:title=" ">
<polygon fill="#e0e0e0" stroke="#999999" points="382,-19 338,-19 338,0 382,0 382,-19"/>
<text text-anchor="middle" x="360" y="-7" font-family="Helvetica,sans-Serif" font-size="10.00">string</text>
</a>
</g>
</g>
<!-- Node11&#45;&gt;Node12 -->
<g id="edge12_Node000011_Node000012" class="edge">
<title>Node11&#45;&gt;Node12</title>
<g id="a_edge12_Node000011_Node000012"><a xlink:title=" ">
<path fill="none" stroke="#63b8ff" d="M360,-54.84C360,-47.21 360,-37.7 360,-29.45"/>
<polygon fill="#63b8ff" stroke="#63b8ff" points="363.5,-29.27 360,-19.27 356.5,-29.27 363.5,-29.27"/>
</a>
</g>
</g>
</g>
</svg>
