<?xml version="1.0" encoding="UTF-8" standalone="no"?>
<!DOCTYPE svg PUBLIC "-//W3C//DTD SVG 1.1//EN"
 "http://www.w3.org/Graphics/SVG/1.1/DTD/svg11.dtd">
<!-- Generated by graphviz version 2.43.0 (0)
 -->
<!-- Title: alps_mbed_lib/include/alps_mbed/actuator/dc_motor.hpp Pages: 1 -->
<svg width="630pt" height="181pt"
 viewBox="0.00 0.00 629.50 181.00" xmlns="http://www.w3.org/2000/svg" xmlns:xlink="http://www.w3.org/1999/xlink">
<g id="graph0" class="graph" transform="scale(1 1) rotate(0) translate(4 177)">
<title>alps_mbed_lib/include/alps_mbed/actuator/dc_motor.hpp</title>
<!-- Node1 -->
<g id="node1" class="node">
<title>Node1</title>
<g id="a_node1"><a xlink:title=" ">
<polygon fill="#999999" stroke="#666666" points="270,-173 139,-173 139,-132 270,-132 270,-173"/>
<text text-anchor="start" x="147" y="-161" font-family="Helvetica,sans-Serif" font-size="10.00">alps_mbed_lib/include</text>
<text text-anchor="start" x="147" y="-150" font-family="Helvetica,sans-Serif" font-size="10.00">/alps_mbed/actuator/dc</text>
<text text-anchor="middle" x="204.5" y="-139" font-family="Helvetica,sans-Serif" font-size="10.00">_motor.hpp</text>
</a>
</g>
</g>
<!-- Node2 -->
<g id="node2" class="node">
<title>Node2</title>
<g id="a_node2"><a xlink:title=" ">
<polygon fill="#e0e0e0" stroke="#999999" points="53,-24.5 0,-24.5 0,-5.5 53,-5.5 53,-24.5"/>
<text text-anchor="middle" x="26.5" y="-12.5" font-family="Helvetica,sans-Serif" font-size="10.00">mbed.h</text>
</a>
</g>
</g>
<!-- Node1&#45;&gt;Node2 -->
<g id="edge1" class="edge">
<title>Node1&#45;&gt;Node2</title>
<path fill="none" stroke="#63b8ff" d="M138.82,-138.15C111.8,-129.85 81.88,-116.67 60.5,-96 43.25,-79.32 34.31,-52.5 30.01,-34.57"/>
<polygon fill="#63b8ff" stroke="#63b8ff" points="33.42,-33.77 27.91,-24.72 26.58,-35.24 33.42,-33.77"/>
</g>
<!-- Node3 -->
<g id="node3" class="node">
<title>Node3</title>
<g id="a_node3"><a xlink:href="dc__motor__base_8hpp.html" target="_top" xlink:title=" ">
<polygon fill="white" stroke="#666666" points="478,-96 357,-96 357,-66 478,-66 478,-96"/>
<text text-anchor="start" x="365" y="-84" font-family="Helvetica,sans-Serif" font-size="10.00">alps_cmn/actuator/dc</text>
<text text-anchor="middle" x="417.5" y="-73" font-family="Helvetica,sans-Serif" font-size="10.00">_motor_base.hpp</text>
</a>
</g>
</g>
<!-- Node1&#45;&gt;Node3 -->
<g id="edge2" class="edge">
<title>Node1&#45;&gt;Node3</title>
<path fill="none" stroke="#63b8ff" d="M264.4,-131.96C296.04,-121.63 334.52,-109.07 364.99,-99.13"/>
<polygon fill="#63b8ff" stroke="#63b8ff" points="366.16,-102.43 374.58,-96 363.99,-95.78 366.16,-102.43"/>
</g>
<!-- Node7 -->
<g id="node7" class="node">
<title>Node7</title>
<g id="a_node7"><a xlink:href="pwm__out_8hpp.html" target="_top" xlink:title=" ">
<polygon fill="white" stroke="#666666" points="337,-96 216,-96 216,-66 337,-66 337,-96"/>
<text text-anchor="start" x="224" y="-84" font-family="Helvetica,sans-Serif" font-size="10.00">alps_mbed/gpio/pwm</text>
<text text-anchor="middle" x="276.5" y="-73" font-family="Helvetica,sans-Serif" font-size="10.00">_out.hpp</text>
</a>
</g>
</g>
<!-- Node1&#45;&gt;Node7 -->
<g id="edge6" class="edge">
<title>Node1&#45;&gt;Node7</title>
<path fill="none" stroke="#63b8ff" d="M224.94,-131.77C234.16,-122.87 245.08,-112.33 254.48,-103.25"/>
<polygon fill="#63b8ff" stroke="#63b8ff" points="257.19,-105.5 261.96,-96.04 252.33,-100.47 257.19,-105.5"/>
</g>
<!-- Node9 -->
<g id="node9" class="node">
<title>Node9</title>
<g id="a_node9"><a xlink:href="digital__out_8hpp.html" target="_top" xlink:title=" ">
<polygon fill="white" stroke="#666666" points="197.5,-96 69.5,-96 69.5,-66 197.5,-66 197.5,-96"/>
<text text-anchor="start" x="77.5" y="-84" font-family="Helvetica,sans-Serif" font-size="10.00">alps_mbed/gpio/digital</text>
<text text-anchor="middle" x="133.5" y="-73" font-family="Helvetica,sans-Serif" font-size="10.00">_out.hpp</text>
</a>
</g>
</g>
<!-- Node1&#45;&gt;Node9 -->
<g id="edge11" class="edge">
<title>Node1&#45;&gt;Node9</title>
<path fill="none" stroke="#63b8ff" d="M184.34,-131.77C175.25,-122.87 164.49,-112.33 155.21,-103.25"/>
<polygon fill="#63b8ff" stroke="#63b8ff" points="157.44,-100.53 147.84,-96.04 152.54,-105.53 157.44,-100.53"/>
</g>
<!-- Node4 -->
<g id="node4" class="node">
<title>Node4</title>
<g id="a_node4"><a xlink:href="i__pwm__set__pulse__width_8hpp.html" target="_top" xlink:title=" ">
<polygon fill="white" stroke="#666666" points="621.5,-30 499.5,-30 499.5,0 621.5,0 621.5,-30"/>
<text text-anchor="start" x="507.5" y="-18" font-family="Helvetica,sans-Serif" font-size="10.00">alps_cmn/gpio/i_pwm</text>
<text text-anchor="middle" x="560.5" y="-7" font-family="Helvetica,sans-Serif" font-size="10.00">_set_pulse_width.hpp</text>
</a>
</g>
</g>
<!-- Node3&#45;&gt;Node4 -->
<g id="edge3" class="edge">
<title>Node3&#45;&gt;Node4</title>
<path fill="none" stroke="#63b8ff" d="M448.88,-65.95C469.74,-56.62 497.34,-44.27 519.88,-34.18"/>
<polygon fill="#63b8ff" stroke="#63b8ff" points="521.49,-37.29 529.19,-30.01 518.63,-30.9 521.49,-37.29"/>
</g>
<!-- Node5 -->
<g id="node5" class="node">
<title>Node5</title>
<g id="a_node5"><a xlink:href="i__pwm__set__period_8hpp.html" target="_top" xlink:title=" ">
<polygon fill="white" stroke="#666666" points="481.5,-30 359.5,-30 359.5,0 481.5,0 481.5,-30"/>
<text text-anchor="start" x="367.5" y="-18" font-family="Helvetica,sans-Serif" font-size="10.00">alps_cmn/gpio/i_pwm</text>
<text text-anchor="middle" x="420.5" y="-7" font-family="Helvetica,sans-Serif" font-size="10.00">_set_period.hpp</text>
</a>
</g>
</g>
<!-- Node3&#45;&gt;Node5 -->
<g id="edge4" class="edge">
<title>Node3&#45;&gt;Node5</title>
<path fill="none" stroke="#63b8ff" d="M418.17,-65.8C418.52,-58.34 418.95,-48.99 419.36,-40.41"/>
<polygon fill="#63b8ff" stroke="#63b8ff" points="422.86,-40.32 419.84,-30.16 415.87,-39.99 422.86,-40.32"/>
</g>
<!-- Node6 -->
<g id="node6" class="node">
<title>Node6</title>
<g id="a_node6"><a xlink:href="i__digital__write_8hpp.html" target="_top" xlink:title=" ">
<polygon fill="white" stroke="#666666" points="341,-30 212,-30 212,0 341,0 341,-30"/>
<text text-anchor="start" x="220" y="-18" font-family="Helvetica,sans-Serif" font-size="10.00">alps_cmn/gpio/i_digital</text>
<text text-anchor="middle" x="276.5" y="-7" font-family="Helvetica,sans-Serif" font-size="10.00">_write.hpp</text>
</a>
</g>
</g>
<!-- Node3&#45;&gt;Node6 -->
<g id="edge5" class="edge">
<title>Node3&#45;&gt;Node6</title>
<path fill="none" stroke="#63b8ff" d="M386.56,-65.95C365.99,-56.62 338.77,-44.27 316.55,-34.18"/>
<polygon fill="#63b8ff" stroke="#63b8ff" points="317.92,-30.96 307.37,-30.01 315.03,-37.33 317.92,-30.96"/>
</g>
<!-- Node7&#45;&gt;Node2 -->
<g id="edge7" class="edge">
<title>Node7&#45;&gt;Node2</title>
<path fill="none" stroke="#63b8ff" d="M215.79,-66.82C163.01,-55.18 90.7,-38.73 62.5,-30 60.58,-29.41 58.61,-28.76 56.64,-28.08"/>
<polygon fill="#63b8ff" stroke="#63b8ff" points="57.48,-24.66 46.88,-24.5 55.07,-31.23 57.48,-24.66"/>
</g>
<!-- Node7&#45;&gt;Node4 -->
<g id="edge10" class="edge">
<title>Node7&#45;&gt;Node4</title>
<path fill="none" stroke="#63b8ff" d="M337.08,-66.35C381.64,-56.31 442.36,-42.62 489.25,-32.06"/>
<polygon fill="#63b8ff" stroke="#63b8ff" points="490.05,-35.46 499.04,-29.85 488.51,-28.63 490.05,-35.46"/>
</g>
<!-- Node7&#45;&gt;Node5 -->
<g id="edge9" class="edge">
<title>Node7&#45;&gt;Node5</title>
<path fill="none" stroke="#63b8ff" d="M308.1,-65.95C329.11,-56.62 356.9,-44.27 379.59,-34.18"/>
<polygon fill="#63b8ff" stroke="#63b8ff" points="381.26,-37.27 388.97,-30.01 378.41,-30.88 381.26,-37.27"/>
</g>
<!-- Node8 -->
<g id="node8" class="node">
<title>Node8</title>
<g id="a_node8"><a xlink:href="i__pwm__write_8hpp.html" target="_top" xlink:title=" ">
<polygon fill="white" stroke="#666666" points="193.5,-30 71.5,-30 71.5,0 193.5,0 193.5,-30"/>
<text text-anchor="start" x="79.5" y="-18" font-family="Helvetica,sans-Serif" font-size="10.00">alps_cmn/gpio/i_pwm</text>
<text text-anchor="middle" x="132.5" y="-7" font-family="Helvetica,sans-Serif" font-size="10.00">_write.hpp</text>
</a>
</g>
</g>
<!-- Node7&#45;&gt;Node8 -->
<g id="edge8" class="edge">
<title>Node7&#45;&gt;Node8</title>
<path fill="none" stroke="#63b8ff" d="M244.9,-65.95C223.89,-56.62 196.1,-44.27 173.41,-34.18"/>
<polygon fill="#63b8ff" stroke="#63b8ff" points="174.59,-30.88 164.03,-30.01 171.74,-37.27 174.59,-30.88"/>
</g>
<!-- Node9&#45;&gt;Node2 -->
<g id="edge12" class="edge">
<title>Node9&#45;&gt;Node2</title>
<path fill="none" stroke="#63b8ff" d="M110.02,-65.95C92,-55.18 67.26,-40.38 49.39,-29.69"/>
<polygon fill="#63b8ff" stroke="#63b8ff" points="51.12,-26.65 40.74,-24.52 47.53,-32.65 51.12,-26.65"/>
</g>
<!-- Node9&#45;&gt;Node6 -->
<g id="edge13" class="edge">
<title>Node9&#45;&gt;Node6</title>
<path fill="none" stroke="#63b8ff" d="M164.88,-65.95C185.74,-56.62 213.34,-44.27 235.88,-34.18"/>
<polygon fill="#63b8ff" stroke="#63b8ff" points="237.49,-37.29 245.19,-30.01 234.63,-30.9 237.49,-37.29"/>
</g>
</g>
</svg>
