<?xml version="1.0" encoding="UTF-8" standalone="no"?>
<!DOCTYPE svg PUBLIC "-//W3C//DTD SVG 1.1//EN"
 "http://www.w3.org/Graphics/SVG/1.1/DTD/svg11.dtd">
<!-- Generated by graphviz version 2.43.0 (0)
 -->
<!-- Title: roblab_mbed_lib/include/dc_motor.hpp Pages: 1 -->
<svg width="144pt" height="148pt"
 viewBox="0.00 0.00 144.00 148.00" xmlns="http://www.w3.org/2000/svg" xmlns:xlink="http://www.w3.org/1999/xlink">
<g id="graph0" class="graph" transform="scale(1 1) rotate(0) translate(4 144)">
<title>roblab_mbed_lib/include/dc_motor.hpp</title>
<!-- Node1 -->
<g id="node1" class="node">
<title>Node1</title>
<g id="a_node1"><a xlink:title=" ">
<polygon fill="#999999" stroke="#666666" points="136,-140 0,-140 0,-110 136,-110 136,-140"/>
<text text-anchor="start" x="8" y="-128" font-family="Helvetica,sans-Serif" font-size="10.00">roblab_mbed_lib/include</text>
<text text-anchor="middle" x="68" y="-117" font-family="Helvetica,sans-Serif" font-size="10.00">/dc_motor.hpp</text>
</a>
</g>
</g>
<!-- Node2 -->
<g id="node2" class="node">
<title>Node2</title>
<g id="a_node2"><a xlink:href="_fast_p_w_m_8h.html" target="_top" xlink:title=" ">
<polygon fill="white" stroke="#666666" points="71.5,-74 0.5,-74 0.5,-55 71.5,-55 71.5,-74"/>
<text text-anchor="middle" x="36" y="-62" font-family="Helvetica,sans-Serif" font-size="10.00">FastPWM.h</text>
</a>
</g>
</g>
<!-- Node1&#45;&gt;Node2 -->
<g id="edge1" class="edge">
<title>Node1&#45;&gt;Node2</title>
<path fill="none" stroke="#63b8ff" d="M60.25,-109.84C55.85,-101.78 50.29,-91.62 45.6,-83.06"/>
<polygon fill="#63b8ff" stroke="#63b8ff" points="48.66,-81.36 40.8,-74.27 42.52,-84.72 48.66,-81.36"/>
</g>
<!-- Node3 -->
<g id="node3" class="node">
<title>Node3</title>
<g id="a_node3"><a xlink:title=" ">
<polygon fill="#e0e0e0" stroke="#999999" points="94.5,-19 41.5,-19 41.5,0 94.5,0 94.5,-19"/>
<text text-anchor="middle" x="68" y="-7" font-family="Helvetica,sans-Serif" font-size="10.00">mbed.h</text>
</a>
</g>
</g>
<!-- Node1&#45;&gt;Node3 -->
<g id="edge3" class="edge">
<title>Node1&#45;&gt;Node3</title>
<path fill="none" stroke="#63b8ff" d="M73.46,-109.79C78.14,-95.88 83.73,-74.07 81,-55 79.75,-46.24 77.17,-36.79 74.64,-28.86"/>
<polygon fill="#63b8ff" stroke="#63b8ff" points="77.88,-27.54 71.34,-19.2 71.26,-29.8 77.88,-27.54"/>
</g>
<!-- Node2&#45;&gt;Node3 -->
<g id="edge2" class="edge">
<title>Node2&#45;&gt;Node3</title>
<path fill="none" stroke="#63b8ff" d="M41.28,-54.75C45.71,-47.42 52.16,-36.73 57.62,-27.7"/>
<polygon fill="#63b8ff" stroke="#63b8ff" points="60.64,-29.46 62.81,-19.09 54.65,-25.84 60.64,-29.46"/>
</g>
</g>
</svg>
