<?xml version="1.0" encoding="UTF-8" standalone="no"?>
<!DOCTYPE svg PUBLIC "-//W3C//DTD SVG 1.1//EN"
 "http://www.w3.org/Graphics/SVG/1.1/DTD/svg11.dtd">
<!-- Generated by graphviz version 2.43.0 (0)
 -->
<!-- Title: alps_core/lib_internal/alps_common_lib/include/alps_cmn/control/differentiator.hpp Pages: 1 -->
<svg width="556pt" height="406pt"
 viewBox="0.00 0.00 556.00 406.00" xmlns="http://www.w3.org/2000/svg" xmlns:xlink="http://www.w3.org/1999/xlink">
<g id="graph0" class="graph" transform="scale(1 1) rotate(0) translate(4 402)">
<title>alps_core/lib_internal/alps_common_lib/include/alps_cmn/control/differentiator.hpp</title>
<polygon fill="white" stroke="transparent" points="-4,4 -4,-402 552,-402 552,4 -4,4"/>
<!-- Node1 -->
<g id="node1" class="node">
<title>Node1</title>
<g id="a_node1"><a xlink:title="微分器ライブラリ">
<polygon fill="#bfbfbf" stroke="black" points="150,-356.5 150,-397.5 340,-397.5 340,-356.5 150,-356.5"/>
<text text-anchor="start" x="158" y="-385.5" font-family="Helvetica,sans-Serif" font-size="10.00">alps_core/lib_internal</text>
<text text-anchor="start" x="158" y="-374.5" font-family="Helvetica,sans-Serif" font-size="10.00">/alps_common_lib/include</text>
<text text-anchor="middle" x="245" y="-363.5" font-family="Helvetica,sans-Serif" font-size="10.00">/alps_cmn/control/differentiator.hpp</text>
</a>
</g>
</g>
<!-- Node2 -->
<g id="node2" class="node">
<title>Node2</title>
<g id="a_node2"><a xlink:href="friction__compensated__motor_8hpp.html" target="_top" xlink:title="モーターに対して摩擦補償を行うデコレーター">
<polygon fill="white" stroke="black" points="8.5,-267.5 8.5,-319.5 151.5,-319.5 151.5,-267.5 8.5,-267.5"/>
<text text-anchor="start" x="16.5" y="-307.5" font-family="Helvetica,sans-Serif" font-size="10.00">alps_core/lib_internal</text>
<text text-anchor="start" x="16.5" y="-296.5" font-family="Helvetica,sans-Serif" font-size="10.00">/alps_common_lib/include</text>
<text text-anchor="start" x="16.5" y="-285.5" font-family="Helvetica,sans-Serif" font-size="10.00">/alps_cmn/control/friction</text>
<text text-anchor="middle" x="80" y="-274.5" font-family="Helvetica,sans-Serif" font-size="10.00">_compensated_motor.hpp</text>
</a>
</g>
</g>
<!-- Node1&#45;&gt;Node2 -->
<g id="edge1" class="edge">
<title>Node1&#45;&gt;Node2</title>
<path fill="none" stroke="midnightblue" d="M196.26,-351.93C175.64,-341.74 151.61,-329.87 130.77,-319.58"/>
<polygon fill="midnightblue" stroke="midnightblue" points="194.96,-355.19 205.48,-356.48 198.06,-348.91 194.96,-355.19"/>
</g>
<!-- Node4 -->
<g id="node4" class="node">
<title>Node4</title>
<g id="a_node4"><a xlink:href="low__pass__differentiator_8hpp.html" target="_top" xlink:title=" ">
<polygon fill="white" stroke="black" points="169.5,-267.5 169.5,-319.5 320.5,-319.5 320.5,-267.5 169.5,-267.5"/>
<text text-anchor="start" x="177.5" y="-307.5" font-family="Helvetica,sans-Serif" font-size="10.00">alps_core/lib_internal</text>
<text text-anchor="start" x="177.5" y="-296.5" font-family="Helvetica,sans-Serif" font-size="10.00">/alps_common_lib/include</text>
<text text-anchor="start" x="177.5" y="-285.5" font-family="Helvetica,sans-Serif" font-size="10.00">/alps_cmn/control/low_pass</text>
<text text-anchor="middle" x="245" y="-274.5" font-family="Helvetica,sans-Serif" font-size="10.00">_differentiator.hpp</text>
</a>
</g>
</g>
<!-- Node1&#45;&gt;Node4 -->
<g id="edge3" class="edge">
<title>Node1&#45;&gt;Node4</title>
<path fill="none" stroke="midnightblue" d="M245,-346.12C245,-337.41 245,-327.99 245,-319.61"/>
<polygon fill="midnightblue" stroke="midnightblue" points="241.5,-346.27 245,-356.27 248.5,-346.27 241.5,-346.27"/>
</g>
<!-- Node10 -->
<g id="node10" class="node">
<title>Node10</title>
<g id="a_node10"><a xlink:href="alps__common__lib_2include_2alps__cmn_2sensor_2incremental__encoder_8hpp.html" target="_top" xlink:title=" ">
<polygon fill="white" stroke="black" points="359.5,-267.5 359.5,-319.5 522.5,-319.5 522.5,-267.5 359.5,-267.5"/>
<text text-anchor="start" x="367.5" y="-307.5" font-family="Helvetica,sans-Serif" font-size="10.00">alps_core/lib_internal</text>
<text text-anchor="start" x="367.5" y="-296.5" font-family="Helvetica,sans-Serif" font-size="10.00">/alps_common_lib/include</text>
<text text-anchor="start" x="367.5" y="-285.5" font-family="Helvetica,sans-Serif" font-size="10.00">/alps_cmn/sensor/incremental</text>
<text text-anchor="middle" x="441" y="-274.5" font-family="Helvetica,sans-Serif" font-size="10.00">_encoder.hpp</text>
</a>
</g>
</g>
<!-- Node1&#45;&gt;Node10 -->
<g id="edge14" class="edge">
<title>Node1&#45;&gt;Node10</title>
<path fill="none" stroke="midnightblue" d="M301.24,-352.61C326.11,-342.28 355.38,-330.1 380.69,-319.58"/>
<polygon fill="midnightblue" stroke="midnightblue" points="299.84,-349.41 291.95,-356.48 302.52,-355.87 299.84,-349.41"/>
</g>
<!-- Node3 -->
<g id="node3" class="node">
<title>Node3</title>
<g id="a_node3"><a xlink:href="motor__friction__analyzer_8hpp.html" target="_top" xlink:title="モーター軸の摩擦力を計測するクラス">
<polygon fill="white" stroke="black" points="0,-178.5 0,-230.5 160,-230.5 160,-178.5 0,-178.5"/>
<text text-anchor="start" x="8" y="-218.5" font-family="Helvetica,sans-Serif" font-size="10.00">alps_core/lib_internal</text>
<text text-anchor="start" x="8" y="-207.5" font-family="Helvetica,sans-Serif" font-size="10.00">/alps_common_lib/include</text>
<text text-anchor="start" x="8" y="-196.5" font-family="Helvetica,sans-Serif" font-size="10.00">/alps_cmn/tool/motor_friction</text>
<text text-anchor="middle" x="80" y="-185.5" font-family="Helvetica,sans-Serif" font-size="10.00">_analyzer.hpp</text>
</a>
</g>
</g>
<!-- Node2&#45;&gt;Node3 -->
<g id="edge2" class="edge">
<title>Node2&#45;&gt;Node3</title>
<path fill="none" stroke="midnightblue" d="M80,-257.19C80,-248.28 80,-238.9 80,-230.61"/>
<polygon fill="midnightblue" stroke="midnightblue" points="76.5,-257.34 80,-267.34 83.5,-257.34 76.5,-257.34"/>
</g>
<!-- Node4&#45;&gt;Node3 -->
<g id="edge13" class="edge">
<title>Node4&#45;&gt;Node3</title>
<path fill="none" stroke="midnightblue" d="M188.36,-262.64C168.58,-252.2 146.59,-240.61 127.62,-230.61"/>
<polygon fill="midnightblue" stroke="midnightblue" points="186.8,-265.77 197.28,-267.34 190.06,-259.58 186.8,-265.77"/>
</g>
<!-- Node5 -->
<g id="node5" class="node">
<title>Node5</title>
<g id="a_node5"><a xlink:href="motor__velocity__controller_8hpp.html" target="_top" xlink:title=" ">
<polygon fill="white" stroke="black" points="85.5,-89.5 85.5,-141.5 228.5,-141.5 228.5,-89.5 85.5,-89.5"/>
<text text-anchor="start" x="93.5" y="-129.5" font-family="Helvetica,sans-Serif" font-size="10.00">alps_core/lib_internal</text>
<text text-anchor="start" x="93.5" y="-118.5" font-family="Helvetica,sans-Serif" font-size="10.00">/alps_common_lib/include</text>
<text text-anchor="start" x="93.5" y="-107.5" font-family="Helvetica,sans-Serif" font-size="10.00">/alps_cmn/control/motor</text>
<text text-anchor="middle" x="157" y="-96.5" font-family="Helvetica,sans-Serif" font-size="10.00">_velocity_controller.hpp</text>
</a>
</g>
</g>
<!-- Node4&#45;&gt;Node5 -->
<g id="edge4" class="edge">
<title>Node4&#45;&gt;Node5</title>
<path fill="none" stroke="midnightblue" d="M223.74,-258.85C218.38,-249.92 212.79,-240.2 208,-231 192.41,-201.09 177.01,-165.42 167.27,-141.94"/>
<polygon fill="midnightblue" stroke="midnightblue" points="220.8,-260.74 228.99,-267.47 226.78,-257.1 220.8,-260.74"/>
</g>
<!-- Node8 -->
<g id="node8" class="node">
<title>Node8</title>
<g id="a_node8"><a xlink:href="pid_8hpp.html" target="_top" xlink:title=" ">
<polygon fill="white" stroke="black" points="216.5,-184 216.5,-225 359.5,-225 359.5,-184 216.5,-184"/>
<text text-anchor="start" x="224.5" y="-213" font-family="Helvetica,sans-Serif" font-size="10.00">alps_core/lib_internal</text>
<text text-anchor="start" x="224.5" y="-202" font-family="Helvetica,sans-Serif" font-size="10.00">/alps_common_lib/include</text>
<text text-anchor="middle" x="288" y="-191" font-family="Helvetica,sans-Serif" font-size="10.00">/alps_cmn/control/pid.hpp</text>
</a>
</g>
</g>
<!-- Node4&#45;&gt;Node8 -->
<g id="edge7" class="edge">
<title>Node4&#45;&gt;Node8</title>
<path fill="none" stroke="midnightblue" d="M261.97,-258.17C267.52,-246.93 273.5,-234.84 278.32,-225.08"/>
<polygon fill="midnightblue" stroke="midnightblue" points="258.73,-256.82 257.44,-267.34 265.01,-259.92 258.73,-256.82"/>
</g>
<!-- Node6 -->
<g id="node6" class="node">
<title>Node6</title>
<g id="a_node6"><a xlink:href="motor__angle__velocity__controller_8hpp.html" target="_top" xlink:title=" ">
<polygon fill="white" stroke="black" points="263.5,-0.5 263.5,-52.5 428.5,-52.5 428.5,-0.5 263.5,-0.5"/>
<text text-anchor="start" x="271.5" y="-40.5" font-family="Helvetica,sans-Serif" font-size="10.00">alps_core/lib_internal</text>
<text text-anchor="start" x="271.5" y="-29.5" font-family="Helvetica,sans-Serif" font-size="10.00">/alps_common_lib/include</text>
<text text-anchor="start" x="271.5" y="-18.5" font-family="Helvetica,sans-Serif" font-size="10.00">/alps_cmn/control/motor</text>
<text text-anchor="middle" x="346" y="-7.5" font-family="Helvetica,sans-Serif" font-size="10.00">_angle_velocity_controller.hpp</text>
</a>
</g>
</g>
<!-- Node5&#45;&gt;Node6 -->
<g id="edge5" class="edge">
<title>Node5&#45;&gt;Node6</title>
<path fill="none" stroke="midnightblue" d="M220.75,-85.15C243.77,-74.56 269.51,-62.71 291.64,-52.52"/>
<polygon fill="midnightblue" stroke="midnightblue" points="219.03,-82.09 211.41,-89.45 221.96,-88.45 219.03,-82.09"/>
</g>
<!-- Node7 -->
<g id="node7" class="node">
<title>Node7</title>
<g id="a_node7"><a xlink:href="custom__type__topic__conversion__rule_8hpp.html" target="_top" xlink:title=" ">
<polygon fill="white" stroke="black" points="69,-0.5 69,-52.5 245,-52.5 245,-0.5 69,-0.5"/>
<text text-anchor="start" x="77" y="-40.5" font-family="Helvetica,sans-Serif" font-size="10.00">alps_core/lib_internal</text>
<text text-anchor="start" x="77" y="-29.5" font-family="Helvetica,sans-Serif" font-size="10.00">/alps_ros2_lib/include</text>
<text text-anchor="start" x="77" y="-18.5" font-family="Helvetica,sans-Serif" font-size="10.00">/alps_ros2/type/custom</text>
<text text-anchor="middle" x="157" y="-7.5" font-family="Helvetica,sans-Serif" font-size="10.00">_type_topic_conversion_rule.hpp</text>
</a>
</g>
</g>
<!-- Node5&#45;&gt;Node7 -->
<g id="edge6" class="edge">
<title>Node5&#45;&gt;Node7</title>
<path fill="none" stroke="midnightblue" d="M157,-79.19C157,-70.28 157,-60.9 157,-52.61"/>
<polygon fill="midnightblue" stroke="midnightblue" points="153.5,-79.34 157,-89.34 160.5,-79.34 153.5,-79.34"/>
</g>
<!-- Node8&#45;&gt;Node5 -->
<g id="edge12" class="edge">
<title>Node8&#45;&gt;Node5</title>
<path fill="none" stroke="midnightblue" d="M249.85,-178.17C232.52,-166.65 212.06,-153.07 194.77,-141.58"/>
<polygon fill="midnightblue" stroke="midnightblue" points="248.33,-181.36 258.6,-183.98 252.21,-175.53 248.33,-181.36"/>
</g>
<!-- Node8&#45;&gt;Node6 -->
<g id="edge11" class="edge">
<title>Node8&#45;&gt;Node6</title>
<path fill="none" stroke="midnightblue" d="M358.05,-179.23C374.29,-170.15 389.56,-158.02 399,-142 410.96,-121.71 407.2,-111.08 399,-89 393.94,-75.39 384.38,-62.78 374.75,-52.56"/>
<polygon fill="midnightblue" stroke="midnightblue" points="356.21,-176.24 348.96,-183.97 359.45,-182.45 356.21,-176.24"/>
</g>
<!-- Node9 -->
<g id="node9" class="node">
<title>Node9</title>
<g id="a_node9"><a xlink:href="motor__angle__controller_8hpp.html" target="_top" xlink:title=" ">
<polygon fill="white" stroke="black" points="246.5,-89.5 246.5,-141.5 389.5,-141.5 389.5,-89.5 246.5,-89.5"/>
<text text-anchor="start" x="254.5" y="-129.5" font-family="Helvetica,sans-Serif" font-size="10.00">alps_core/lib_internal</text>
<text text-anchor="start" x="254.5" y="-118.5" font-family="Helvetica,sans-Serif" font-size="10.00">/alps_common_lib/include</text>
<text text-anchor="start" x="254.5" y="-107.5" font-family="Helvetica,sans-Serif" font-size="10.00">/alps_cmn/control/motor</text>
<text text-anchor="middle" x="318" y="-96.5" font-family="Helvetica,sans-Serif" font-size="10.00">_angle_controller.hpp</text>
</a>
</g>
</g>
<!-- Node8&#45;&gt;Node9 -->
<g id="edge8" class="edge">
<title>Node8&#45;&gt;Node9</title>
<path fill="none" stroke="midnightblue" d="M298.12,-174.16C301.74,-163.66 305.79,-151.92 309.28,-141.79"/>
<polygon fill="midnightblue" stroke="midnightblue" points="294.76,-173.16 294.81,-183.76 301.38,-175.45 294.76,-173.16"/>
</g>
<!-- Node9&#45;&gt;Node6 -->
<g id="edge9" class="edge">
<title>Node9&#45;&gt;Node6</title>
<path fill="none" stroke="midnightblue" d="M329.18,-79.77C332.1,-70.69 335.19,-61.08 337.92,-52.61"/>
<polygon fill="midnightblue" stroke="midnightblue" points="325.83,-78.74 326.1,-89.34 332.49,-80.89 325.83,-78.74"/>
</g>
<!-- Node9&#45;&gt;Node7 -->
<g id="edge10" class="edge">
<title>Node9&#45;&gt;Node7</title>
<path fill="none" stroke="midnightblue" d="M262.47,-84.49C243.24,-74.1 221.89,-62.57 203.46,-52.61"/>
<polygon fill="midnightblue" stroke="midnightblue" points="260.97,-87.66 271.43,-89.34 264.3,-81.5 260.97,-87.66"/>
</g>
<!-- Node11 -->
<g id="node11" class="node">
<title>Node11</title>
<g id="a_node11"><a xlink:href="alps__mbed__lib_2include_2alps__mbed_2sensor_2incremental__encoder_8hpp.html" target="_top" xlink:title=" ">
<polygon fill="white" stroke="black" points="378,-178.5 378,-230.5 548,-230.5 548,-178.5 378,-178.5"/>
<text text-anchor="start" x="386" y="-218.5" font-family="Helvetica,sans-Serif" font-size="10.00">alps_core/lib_internal</text>
<text text-anchor="start" x="386" y="-207.5" font-family="Helvetica,sans-Serif" font-size="10.00">/alps_mbed_lib/include</text>
<text text-anchor="start" x="386" y="-196.5" font-family="Helvetica,sans-Serif" font-size="10.00">/alps_mbed/sensor/incremental</text>
<text text-anchor="middle" x="463" y="-185.5" font-family="Helvetica,sans-Serif" font-size="10.00">_encoder.hpp</text>
</a>
</g>
</g>
<!-- Node10&#45;&gt;Node11 -->
<g id="edge15" class="edge">
<title>Node10&#45;&gt;Node11</title>
<path fill="none" stroke="midnightblue" d="M449.86,-257.48C452.13,-248.49 454.53,-238.99 456.65,-230.61"/>
<polygon fill="midnightblue" stroke="midnightblue" points="446.42,-256.78 447.36,-267.34 453.21,-258.5 446.42,-256.78"/>
</g>
</g>
</svg>
