<?xml version="1.0" encoding="UTF-8" standalone="no"?>
<!DOCTYPE svg PUBLIC "-//W3C//DTD SVG 1.1//EN"
 "http://www.w3.org/Graphics/SVG/1.1/DTD/svg11.dtd">
<!-- Generated by graphviz version 2.43.0 (0)
 -->
<!-- Title: alps_common_lib/include/alps_cmn/control/differentiator.hpp Pages: 1 -->
<svg width="554pt" height="346pt"
 viewBox="0.00 0.00 554.00 346.00" xmlns="http://www.w3.org/2000/svg" xmlns:xlink="http://www.w3.org/1999/xlink">
<g id="graph0" class="graph" transform="scale(1 1) rotate(0) translate(4 342)">
<title>alps_common_lib/include/alps_cmn/control/differentiator.hpp</title>
<!-- Node1 -->
<g id="node1" class="node">
<title>Node1</title>
<g id="a_node1"><a xlink:title="微分器ライブラリ">
<polygon fill="#999999" stroke="#666666" points="335.5,-338 144.5,-338 144.5,-308 335.5,-308 335.5,-338"/>
<text text-anchor="start" x="152.5" y="-326" font-family="Helvetica,sans-Serif" font-size="10.00">alps_common_lib/include</text>
<text text-anchor="middle" x="240" y="-315" font-family="Helvetica,sans-Serif" font-size="10.00">/alps_cmn/control/differentiator.hpp</text>
</a>
</g>
</g>
<!-- Node2 -->
<g id="node2" class="node">
<title>Node2</title>
<g id="a_node2"><a xlink:href="friction__compensated__motor_8hpp.html" target="_top" xlink:title="モーターに対して摩擦補償を行うデコレーター">
<polygon fill="white" stroke="#666666" points="151.5,-272 8.5,-272 8.5,-231 151.5,-231 151.5,-272"/>
<text text-anchor="start" x="16.5" y="-260" font-family="Helvetica,sans-Serif" font-size="10.00">alps_common_lib/include</text>
<text text-anchor="start" x="16.5" y="-249" font-family="Helvetica,sans-Serif" font-size="10.00">/alps_cmn/control/friction</text>
<text text-anchor="middle" x="80" y="-238" font-family="Helvetica,sans-Serif" font-size="10.00">_compensated_motor.hpp</text>
</a>
</g>
</g>
<!-- Node1&#45;&gt;Node2 -->
<g id="edge1" class="edge">
<title>Node1&#45;&gt;Node2</title>
<path fill="none" stroke="#63b8ff" d="M198.34,-303.9C175.84,-294.13 148.06,-282.06 125.06,-272.07"/>
<polygon fill="#63b8ff" stroke="#63b8ff" points="197.06,-307.16 207.62,-307.94 199.84,-300.74 197.06,-307.16"/>
</g>
<!-- Node4 -->
<g id="node4" class="node">
<title>Node4</title>
<g id="a_node4"><a xlink:href="low__pass__differentiator_8hpp.html" target="_top" xlink:title=" ">
<polygon fill="white" stroke="#666666" points="310,-272 170,-272 170,-231 310,-231 310,-272"/>
<text text-anchor="start" x="178" y="-260" font-family="Helvetica,sans-Serif" font-size="10.00">alps_common_lib/include</text>
<text text-anchor="start" x="178" y="-249" font-family="Helvetica,sans-Serif" font-size="10.00">/alps_cmn/control/low</text>
<text text-anchor="middle" x="240" y="-238" font-family="Helvetica,sans-Serif" font-size="10.00">_pass_differentiator.hpp</text>
</a>
</g>
</g>
<!-- Node1&#45;&gt;Node4 -->
<g id="edge3" class="edge">
<title>Node1&#45;&gt;Node4</title>
<path fill="none" stroke="#63b8ff" d="M240,-297.91C240,-289.47 240,-280.1 240,-272.07"/>
<polygon fill="#63b8ff" stroke="#63b8ff" points="236.5,-297.94 240,-307.94 243.5,-297.94 236.5,-297.94"/>
</g>
<!-- Node9 -->
<g id="node9" class="node">
<title>Node9</title>
<g id="a_node9"><a xlink:href="alps__common__lib_2include_2alps__cmn_2sensor_2incremental__encoder_8hpp.html" target="_top" xlink:title=" ">
<polygon fill="white" stroke="#666666" points="516.5,-272 353.5,-272 353.5,-231 516.5,-231 516.5,-272"/>
<text text-anchor="start" x="361.5" y="-260" font-family="Helvetica,sans-Serif" font-size="10.00">alps_common_lib/include</text>
<text text-anchor="start" x="361.5" y="-249" font-family="Helvetica,sans-Serif" font-size="10.00">/alps_cmn/sensor/incremental</text>
<text text-anchor="middle" x="435" y="-238" font-family="Helvetica,sans-Serif" font-size="10.00">_encoder.hpp</text>
</a>
</g>
</g>
<!-- Node1&#45;&gt;Node9 -->
<g id="edge12" class="edge">
<title>Node1&#45;&gt;Node9</title>
<path fill="none" stroke="#63b8ff" d="M288.95,-304.55C316.68,-294.67 351.43,-282.28 380.08,-272.07"/>
<polygon fill="#63b8ff" stroke="#63b8ff" points="287.71,-301.28 279.46,-307.94 290.06,-307.88 287.71,-301.28"/>
</g>
<!-- Node3 -->
<g id="node3" class="node">
<title>Node3</title>
<g id="a_node3"><a xlink:href="motor__friction__analyzer_8hpp.html" target="_top" xlink:title="モーター軸の摩擦力を計測するクラス">
<polygon fill="white" stroke="#666666" points="160,-195 0,-195 0,-154 160,-154 160,-195"/>
<text text-anchor="start" x="8" y="-183" font-family="Helvetica,sans-Serif" font-size="10.00">alps_common_lib/include</text>
<text text-anchor="start" x="8" y="-172" font-family="Helvetica,sans-Serif" font-size="10.00">/alps_cmn/tool/motor_friction</text>
<text text-anchor="middle" x="80" y="-161" font-family="Helvetica,sans-Serif" font-size="10.00">_analyzer.hpp</text>
</a>
</g>
</g>
<!-- Node2&#45;&gt;Node3 -->
<g id="edge2" class="edge">
<title>Node2&#45;&gt;Node3</title>
<path fill="none" stroke="#63b8ff" d="M80,-220.69C80,-212.08 80,-202.9 80,-195.07"/>
<polygon fill="#63b8ff" stroke="#63b8ff" points="76.5,-220.79 80,-230.79 83.5,-220.79 76.5,-220.79"/>
</g>
<!-- Node4&#45;&gt;Node3 -->
<g id="edge11" class="edge">
<title>Node4&#45;&gt;Node3</title>
<path fill="none" stroke="#63b8ff" d="M189.27,-226.72C167.5,-216.51 142.36,-204.73 121.69,-195.04"/>
<polygon fill="#63b8ff" stroke="#63b8ff" points="187.84,-229.92 198.38,-230.99 190.81,-223.58 187.84,-229.92"/>
</g>
<!-- Node5 -->
<g id="node5" class="node">
<title>Node5</title>
<g id="a_node5"><a xlink:href="motor__velocity__controller_8hpp.html" target="_top" xlink:title=" ">
<polygon fill="white" stroke="#666666" points="258,-118 118,-118 118,-77 258,-77 258,-118"/>
<text text-anchor="start" x="126" y="-106" font-family="Helvetica,sans-Serif" font-size="10.00">alps_common_lib/include</text>
<text text-anchor="start" x="126" y="-95" font-family="Helvetica,sans-Serif" font-size="10.00">/alps_cmn/control/motor</text>
<text text-anchor="middle" x="188" y="-84" font-family="Helvetica,sans-Serif" font-size="10.00">_velocity_controller.hpp</text>
</a>
</g>
</g>
<!-- Node4&#45;&gt;Node5 -->
<g id="edge4" class="edge">
<title>Node4&#45;&gt;Node5</title>
<path fill="none" stroke="#63b8ff" d="M220.59,-222.11C215.54,-213.68 210.53,-204.23 207,-195 197.24,-169.48 192.26,-138.17 189.89,-118.27"/>
<polygon fill="#63b8ff" stroke="#63b8ff" points="217.75,-224.17 226.03,-230.79 223.69,-220.46 217.75,-224.17"/>
</g>
<!-- Node7 -->
<g id="node7" class="node">
<title>Node7</title>
<g id="a_node7"><a xlink:href="pid_8hpp.html" target="_top" xlink:title=" ">
<polygon fill="white" stroke="#666666" points="358,-189.5 216,-189.5 216,-159.5 358,-159.5 358,-189.5"/>
<text text-anchor="start" x="224" y="-177.5" font-family="Helvetica,sans-Serif" font-size="10.00">alps_common_lib/include</text>
<text text-anchor="middle" x="287" y="-166.5" font-family="Helvetica,sans-Serif" font-size="10.00">/alps_cmn/control/pid.hpp</text>
</a>
</g>
</g>
<!-- Node4&#45;&gt;Node7 -->
<g id="edge6" class="edge">
<title>Node4&#45;&gt;Node7</title>
<path fill="none" stroke="#63b8ff" d="M257.7,-222.26C264.62,-211.21 272.26,-199.02 278,-189.86"/>
<polygon fill="#63b8ff" stroke="#63b8ff" points="254.69,-220.46 252.35,-230.79 260.62,-224.18 254.69,-220.46"/>
</g>
<!-- Node6 -->
<g id="node6" class="node">
<title>Node6</title>
<g id="a_node6"><a xlink:href="motor__angle__velocity__controller_8hpp.html" target="_top" xlink:title=" ">
<polygon fill="white" stroke="#666666" points="369,-41 203,-41 203,0 369,0 369,-41"/>
<text text-anchor="start" x="211" y="-29" font-family="Helvetica,sans-Serif" font-size="10.00">alps_common_lib/include</text>
<text text-anchor="start" x="211" y="-18" font-family="Helvetica,sans-Serif" font-size="10.00">/alps_cmn/control/motor</text>
<text text-anchor="middle" x="286" y="-7" font-family="Helvetica,sans-Serif" font-size="10.00">_angle_velocity_controller.hpp</text>
</a>
</g>
</g>
<!-- Node5&#45;&gt;Node6 -->
<g id="edge5" class="edge">
<title>Node5&#45;&gt;Node6</title>
<path fill="none" stroke="#63b8ff" d="M221.56,-70.82C234.24,-61.11 248.45,-50.24 260.29,-41.17"/>
<polygon fill="#63b8ff" stroke="#63b8ff" points="219.31,-68.13 213.49,-76.99 223.56,-73.69 219.31,-68.13"/>
</g>
<!-- Node7&#45;&gt;Node5 -->
<g id="edge10" class="edge">
<title>Node7&#45;&gt;Node5</title>
<path fill="none" stroke="#63b8ff" d="M260.34,-153.31C245.96,-142.41 228.29,-129.02 214.01,-118.2"/>
<polygon fill="#63b8ff" stroke="#63b8ff" points="258.29,-156.14 268.38,-159.39 262.52,-150.56 258.29,-156.14"/>
</g>
<!-- Node7&#45;&gt;Node6 -->
<g id="edge9" class="edge">
<title>Node7&#45;&gt;Node6</title>
<path fill="none" stroke="#63b8ff" d="M286.84,-149.46C286.64,-119.51 286.31,-68.93 286.13,-41.18"/>
<polygon fill="#63b8ff" stroke="#63b8ff" points="283.34,-149.5 286.91,-159.47 290.34,-149.45 283.34,-149.5"/>
</g>
<!-- Node8 -->
<g id="node8" class="node">
<title>Node8</title>
<g id="a_node8"><a xlink:href="motor__angle__controller_8hpp.html" target="_top" xlink:title=" ">
<polygon fill="white" stroke="#666666" points="454,-118 314,-118 314,-77 454,-77 454,-118"/>
<text text-anchor="start" x="322" y="-106" font-family="Helvetica,sans-Serif" font-size="10.00">alps_common_lib/include</text>
<text text-anchor="start" x="322" y="-95" font-family="Helvetica,sans-Serif" font-size="10.00">/alps_cmn/control/motor</text>
<text text-anchor="middle" x="384" y="-84" font-family="Helvetica,sans-Serif" font-size="10.00">_angle_controller.hpp</text>
</a>
</g>
</g>
<!-- Node7&#45;&gt;Node8 -->
<g id="edge7" class="edge">
<title>Node7&#45;&gt;Node8</title>
<path fill="none" stroke="#63b8ff" d="M313.51,-153C327.53,-142.16 344.66,-128.92 358.52,-118.2"/>
<polygon fill="#63b8ff" stroke="#63b8ff" points="311.02,-150.51 305.24,-159.39 315.3,-156.05 311.02,-150.51"/>
</g>
<!-- Node8&#45;&gt;Node6 -->
<g id="edge8" class="edge">
<title>Node8&#45;&gt;Node6</title>
<path fill="none" stroke="#63b8ff" d="M350.44,-70.82C337.76,-61.11 323.55,-50.24 311.71,-41.17"/>
<polygon fill="#63b8ff" stroke="#63b8ff" points="348.44,-73.69 358.51,-76.99 352.69,-68.13 348.44,-73.69"/>
</g>
<!-- Node10 -->
<g id="node10" class="node">
<title>Node10</title>
<g id="a_node10"><a xlink:href="alps__mbed__lib_2include_2alps__mbed_2sensor_2incremental__encoder_8hpp.html" target="_top" xlink:title=" ">
<polygon fill="white" stroke="#666666" points="546,-195 376,-195 376,-154 546,-154 546,-195"/>
<text text-anchor="start" x="384" y="-183" font-family="Helvetica,sans-Serif" font-size="10.00">alps_mbed_lib/include</text>
<text text-anchor="start" x="384" y="-172" font-family="Helvetica,sans-Serif" font-size="10.00">/alps_mbed/sensor/incremental</text>
<text text-anchor="middle" x="461" y="-161" font-family="Helvetica,sans-Serif" font-size="10.00">_encoder.hpp</text>
</a>
</g>
</g>
<!-- Node9&#45;&gt;Node10 -->
<g id="edge13" class="edge">
<title>Node9&#45;&gt;Node10</title>
<path fill="none" stroke="#63b8ff" d="M445.14,-221.26C448.18,-212.48 451.44,-203.07 454.21,-195.07"/>
<polygon fill="#63b8ff" stroke="#63b8ff" points="441.8,-220.2 441.83,-230.79 448.41,-222.49 441.8,-220.2"/>
</g>
</g>
</svg>
