<?xml version="1.0" encoding="UTF-8" standalone="no"?>
<!DOCTYPE svg PUBLIC "-//W3C//DTD SVG 1.1//EN"
 "http://www.w3.org/Graphics/SVG/1.1/DTD/svg11.dtd">
<!-- Generated by graphviz version 2.43.0 (0)
 -->
<!-- Title: alps_common_lib/include/alps_cmn/control/differentiator.hpp Pages: 1 -->
<svg width="554pt" height="351pt"
 viewBox="0.00 0.00 554.00 351.00" xmlns="http://www.w3.org/2000/svg" xmlns:xlink="http://www.w3.org/1999/xlink">
<g id="graph0" class="graph" transform="scale(1 1) rotate(0) translate(4 347)">
<title>alps_common_lib/include/alps_cmn/control/differentiator.hpp</title>
<polygon fill="white" stroke="transparent" points="-4,4 -4,-347 550,-347 550,4 -4,4"/>
<!-- Node1 -->
<g id="node1" class="node">
<title>Node1</title>
<g id="a_node1"><a xlink:title="微分器ライブラリ">
<polygon fill="#bfbfbf" stroke="black" points="145,-312.5 145,-342.5 335,-342.5 335,-312.5 145,-312.5"/>
<text text-anchor="start" x="153" y="-330.5" font-family="Helvetica,sans-Serif" font-size="10.00">alps_common_lib/include</text>
<text text-anchor="middle" x="240" y="-319.5" font-family="Helvetica,sans-Serif" font-size="10.00">/alps_cmn/control/differentiator.hpp</text>
</a>
</g>
</g>
<!-- Node2 -->
<g id="node2" class="node">
<title>Node2</title>
<g id="a_node2"><a xlink:href="friction__compensated__motor_8hpp.html" target="_top" xlink:title="モーターに対して摩擦補償を行うデコレーター">
<polygon fill="white" stroke="black" points="8.5,-234.5 8.5,-275.5 151.5,-275.5 151.5,-234.5 8.5,-234.5"/>
<text text-anchor="start" x="16.5" y="-263.5" font-family="Helvetica,sans-Serif" font-size="10.00">alps_common_lib/include</text>
<text text-anchor="start" x="16.5" y="-252.5" font-family="Helvetica,sans-Serif" font-size="10.00">/alps_cmn/control/friction</text>
<text text-anchor="middle" x="80" y="-241.5" font-family="Helvetica,sans-Serif" font-size="10.00">_compensated_motor.hpp</text>
</a>
</g>
</g>
<!-- Node1&#45;&gt;Node2 -->
<g id="edge1" class="edge">
<title>Node1&#45;&gt;Node2</title>
<path fill="none" stroke="midnightblue" d="M198.61,-308.26C175.84,-298.23 147.58,-285.78 124.36,-275.55"/>
<polygon fill="midnightblue" stroke="midnightblue" points="197.44,-311.57 208.01,-312.4 200.27,-305.17 197.44,-311.57"/>
</g>
<!-- Node4 -->
<g id="node4" class="node">
<title>Node4</title>
<g id="a_node4"><a xlink:href="low__pass__differentiator_8hpp.html" target="_top" xlink:title=" ">
<polygon fill="white" stroke="black" points="170,-234.5 170,-275.5 310,-275.5 310,-234.5 170,-234.5"/>
<text text-anchor="start" x="178" y="-263.5" font-family="Helvetica,sans-Serif" font-size="10.00">alps_common_lib/include</text>
<text text-anchor="start" x="178" y="-252.5" font-family="Helvetica,sans-Serif" font-size="10.00">/alps_cmn/control/low</text>
<text text-anchor="middle" x="240" y="-241.5" font-family="Helvetica,sans-Serif" font-size="10.00">_pass_differentiator.hpp</text>
</a>
</g>
</g>
<!-- Node1&#45;&gt;Node4 -->
<g id="edge3" class="edge">
<title>Node1&#45;&gt;Node4</title>
<path fill="none" stroke="midnightblue" d="M240,-301.98C240,-293.35 240,-283.76 240,-275.59"/>
<polygon fill="midnightblue" stroke="midnightblue" points="236.5,-302.23 240,-312.23 243.5,-302.23 236.5,-302.23"/>
</g>
<!-- Node9 -->
<g id="node9" class="node">
<title>Node9</title>
<g id="a_node9"><a xlink:href="alps__common__lib_2include_2alps__cmn_2sensor_2incremental__encoder_8hpp.html" target="_top" xlink:title=" ">
<polygon fill="white" stroke="black" points="353.5,-234.5 353.5,-275.5 516.5,-275.5 516.5,-234.5 353.5,-234.5"/>
<text text-anchor="start" x="361.5" y="-263.5" font-family="Helvetica,sans-Serif" font-size="10.00">alps_common_lib/include</text>
<text text-anchor="start" x="361.5" y="-252.5" font-family="Helvetica,sans-Serif" font-size="10.00">/alps_cmn/sensor/incremental</text>
<text text-anchor="middle" x="435" y="-241.5" font-family="Helvetica,sans-Serif" font-size="10.00">_encoder.hpp</text>
</a>
</g>
</g>
<!-- Node1&#45;&gt;Node9 -->
<g id="edge12" class="edge">
<title>Node1&#45;&gt;Node9</title>
<path fill="none" stroke="midnightblue" d="M288.59,-308.93C316.65,-298.79 352,-286.01 380.94,-275.55"/>
<polygon fill="midnightblue" stroke="midnightblue" points="287.21,-305.71 278.99,-312.4 289.59,-312.29 287.21,-305.71"/>
</g>
<!-- Node3 -->
<g id="node3" class="node">
<title>Node3</title>
<g id="a_node3"><a xlink:href="motor__friction__analyzer_8hpp.html" target="_top" xlink:title="モーター軸の摩擦力を計測するクラス">
<polygon fill="white" stroke="black" points="0,-156.5 0,-197.5 160,-197.5 160,-156.5 0,-156.5"/>
<text text-anchor="start" x="8" y="-185.5" font-family="Helvetica,sans-Serif" font-size="10.00">alps_common_lib/include</text>
<text text-anchor="start" x="8" y="-174.5" font-family="Helvetica,sans-Serif" font-size="10.00">/alps_cmn/tool/motor_friction</text>
<text text-anchor="middle" x="80" y="-163.5" font-family="Helvetica,sans-Serif" font-size="10.00">_analyzer.hpp</text>
</a>
</g>
</g>
<!-- Node2&#45;&gt;Node3 -->
<g id="edge2" class="edge">
<title>Node2&#45;&gt;Node3</title>
<path fill="none" stroke="midnightblue" d="M80,-224.3C80,-215.3 80,-205.65 80,-197.51"/>
<polygon fill="midnightblue" stroke="midnightblue" points="76.5,-224.43 80,-234.43 83.5,-224.43 76.5,-224.43"/>
</g>
<!-- Node4&#45;&gt;Node3 -->
<g id="edge11" class="edge">
<title>Node4&#45;&gt;Node3</title>
<path fill="none" stroke="midnightblue" d="M189.58,-230.05C167.51,-219.57 141.95,-207.42 121.06,-197.51"/>
<polygon fill="midnightblue" stroke="midnightblue" points="188.26,-233.3 198.8,-234.43 191.26,-226.98 188.26,-233.3"/>
</g>
<!-- Node5 -->
<g id="node5" class="node">
<title>Node5</title>
<g id="a_node5"><a xlink:href="motor__velocity__controller_8hpp.html" target="_top" xlink:title=" ">
<polygon fill="white" stroke="black" points="118,-78.5 118,-119.5 258,-119.5 258,-78.5 118,-78.5"/>
<text text-anchor="start" x="126" y="-107.5" font-family="Helvetica,sans-Serif" font-size="10.00">alps_common_lib/include</text>
<text text-anchor="start" x="126" y="-96.5" font-family="Helvetica,sans-Serif" font-size="10.00">/alps_cmn/control/motor</text>
<text text-anchor="middle" x="188" y="-85.5" font-family="Helvetica,sans-Serif" font-size="10.00">_velocity_controller.hpp</text>
</a>
</g>
</g>
<!-- Node4&#45;&gt;Node5 -->
<g id="edge4" class="edge">
<title>Node4&#45;&gt;Node5</title>
<path fill="none" stroke="midnightblue" d="M220.87,-225.82C215.72,-217.2 210.59,-207.48 207,-198 197.12,-171.91 192.15,-139.87 189.83,-119.69"/>
<polygon fill="midnightblue" stroke="midnightblue" points="217.93,-227.72 226.18,-234.36 223.87,-224.02 217.93,-227.72"/>
</g>
<!-- Node7 -->
<g id="node7" class="node">
<title>Node7</title>
<g id="a_node7"><a xlink:href="pid_8hpp.html" target="_top" xlink:title=" ">
<polygon fill="white" stroke="black" points="216,-162 216,-192 358,-192 358,-162 216,-162"/>
<text text-anchor="start" x="224" y="-180" font-family="Helvetica,sans-Serif" font-size="10.00">alps_common_lib/include</text>
<text text-anchor="middle" x="287" y="-169" font-family="Helvetica,sans-Serif" font-size="10.00">/alps_cmn/control/pid.hpp</text>
</a>
</g>
</g>
<!-- Node4&#45;&gt;Node7 -->
<g id="edge6" class="edge">
<title>Node4&#45;&gt;Node7</title>
<path fill="none" stroke="midnightblue" d="M257.54,-225.64C264.58,-214.25 272.39,-201.62 278.2,-192.23"/>
<polygon fill="midnightblue" stroke="midnightblue" points="254.39,-224.08 252.1,-234.43 260.34,-227.76 254.39,-224.08"/>
</g>
<!-- Node6 -->
<g id="node6" class="node">
<title>Node6</title>
<g id="a_node6"><a xlink:href="motor__angle__velocity__controller_8hpp.html" target="_top" xlink:title=" ">
<polygon fill="white" stroke="black" points="203.5,-0.5 203.5,-41.5 368.5,-41.5 368.5,-0.5 203.5,-0.5"/>
<text text-anchor="start" x="211.5" y="-29.5" font-family="Helvetica,sans-Serif" font-size="10.00">alps_common_lib/include</text>
<text text-anchor="start" x="211.5" y="-18.5" font-family="Helvetica,sans-Serif" font-size="10.00">/alps_cmn/control/motor</text>
<text text-anchor="middle" x="286" y="-7.5" font-family="Helvetica,sans-Serif" font-size="10.00">_angle_velocity_controller.hpp</text>
</a>
</g>
</g>
<!-- Node5&#45;&gt;Node6 -->
<g id="edge5" class="edge">
<title>Node5&#45;&gt;Node6</title>
<path fill="none" stroke="midnightblue" d="M221.44,-72.06C234.35,-62.06 248.86,-50.8 260.85,-41.51"/>
<polygon fill="midnightblue" stroke="midnightblue" points="218.99,-69.53 213.24,-78.43 223.28,-75.07 218.99,-69.53"/>
</g>
<!-- Node7&#45;&gt;Node5 -->
<g id="edge10" class="edge">
<title>Node7&#45;&gt;Node5</title>
<path fill="none" stroke="midnightblue" d="M260.28,-155.49C245.79,-144.36 227.96,-130.68 213.64,-119.68"/>
<polygon fill="midnightblue" stroke="midnightblue" points="258.32,-158.39 268.38,-161.7 262.58,-152.84 258.32,-158.39"/>
</g>
<!-- Node7&#45;&gt;Node6 -->
<g id="edge9" class="edge">
<title>Node7&#45;&gt;Node6</title>
<path fill="none" stroke="midnightblue" d="M286.84,-151.61C286.64,-121.17 286.31,-69.73 286.13,-41.68"/>
<polygon fill="midnightblue" stroke="midnightblue" points="283.34,-151.81 286.91,-161.79 290.34,-151.77 283.34,-151.81"/>
</g>
<!-- Node8 -->
<g id="node8" class="node">
<title>Node8</title>
<g id="a_node8"><a xlink:href="motor__angle__controller_8hpp.html" target="_top" xlink:title=" ">
<polygon fill="white" stroke="black" points="314,-78.5 314,-119.5 454,-119.5 454,-78.5 314,-78.5"/>
<text text-anchor="start" x="322" y="-107.5" font-family="Helvetica,sans-Serif" font-size="10.00">alps_common_lib/include</text>
<text text-anchor="start" x="322" y="-96.5" font-family="Helvetica,sans-Serif" font-size="10.00">/alps_cmn/control/motor</text>
<text text-anchor="middle" x="384" y="-85.5" font-family="Helvetica,sans-Serif" font-size="10.00">_angle_controller.hpp</text>
</a>
</g>
</g>
<!-- Node7&#45;&gt;Node8 -->
<g id="edge7" class="edge">
<title>Node7&#45;&gt;Node8</title>
<path fill="none" stroke="midnightblue" d="M313.18,-155.49C327.38,-144.36 344.85,-130.68 358.88,-119.68"/>
<polygon fill="midnightblue" stroke="midnightblue" points="310.96,-152.78 305.24,-161.7 315.28,-158.29 310.96,-152.78"/>
</g>
<!-- Node8&#45;&gt;Node6 -->
<g id="edge8" class="edge">
<title>Node8&#45;&gt;Node6</title>
<path fill="none" stroke="midnightblue" d="M350.56,-72.06C337.65,-62.06 323.14,-50.8 311.15,-41.51"/>
<polygon fill="midnightblue" stroke="midnightblue" points="348.72,-75.07 358.76,-78.43 353.01,-69.53 348.72,-75.07"/>
</g>
<!-- Node10 -->
<g id="node10" class="node">
<title>Node10</title>
<g id="a_node10"><a xlink:href="alps__mbed__lib_2include_2alps__mbed_2sensor_2incremental__encoder_8hpp.html" target="_top" xlink:title=" ">
<polygon fill="white" stroke="black" points="376,-156.5 376,-197.5 546,-197.5 546,-156.5 376,-156.5"/>
<text text-anchor="start" x="384" y="-185.5" font-family="Helvetica,sans-Serif" font-size="10.00">alps_mbed_lib/include</text>
<text text-anchor="start" x="384" y="-174.5" font-family="Helvetica,sans-Serif" font-size="10.00">/alps_mbed/sensor/incremental</text>
<text text-anchor="middle" x="461" y="-163.5" font-family="Helvetica,sans-Serif" font-size="10.00">_encoder.hpp</text>
</a>
</g>
</g>
<!-- Node9&#45;&gt;Node10 -->
<g id="edge13" class="edge">
<title>Node9&#45;&gt;Node10</title>
<path fill="none" stroke="midnightblue" d="M444.96,-224.88C448.1,-215.72 451.48,-205.83 454.33,-197.51"/>
<polygon fill="midnightblue" stroke="midnightblue" points="441.62,-223.83 441.7,-234.43 448.24,-226.1 441.62,-223.83"/>
</g>
</g>
</svg>
