<?xml version="1.0" encoding="UTF-8" standalone="no"?>
<!DOCTYPE svg PUBLIC "-//W3C//DTD SVG 1.1//EN"
 "http://www.w3.org/Graphics/SVG/1.1/DTD/svg11.dtd">
<!-- Generated by graphviz version 2.43.0 (0)
 -->
<!-- Title: alps_common_lib/include/alps_cmn/control/differentiator.hpp Pages: 1 -->
<svg width="554pt" height="362pt"
 viewBox="0.00 0.00 554.00 362.00" xmlns="http://www.w3.org/2000/svg" xmlns:xlink="http://www.w3.org/1999/xlink">
<g id="graph0" class="graph" transform="scale(1 1) rotate(0) translate(4 358)">
<title>alps_common_lib/include/alps_cmn/control/differentiator.hpp</title>
<polygon fill="white" stroke="transparent" points="-4,4 -4,-358 550,-358 550,4 -4,4"/>
<!-- Node1 -->
<g id="node1" class="node">
<title>Node1</title>
<g id="a_node1"><a xlink:title="微分器ライブラリ">
<polygon fill="#bfbfbf" stroke="black" points="154,-323.5 154,-353.5 344,-353.5 344,-323.5 154,-323.5"/>
<text text-anchor="start" x="162" y="-341.5" font-family="Helvetica,sans-Serif" font-size="10.00">alps_common_lib/include</text>
<text text-anchor="middle" x="249" y="-330.5" font-family="Helvetica,sans-Serif" font-size="10.00">/alps_cmn/control/differentiator.hpp</text>
</a>
</g>
</g>
<!-- Node2 -->
<g id="node2" class="node">
<title>Node2</title>
<g id="a_node2"><a xlink:href="friction__compensated__motor_8hpp.html" target="_top" xlink:title="モーターに対して摩擦補償を行うデコレーター">
<polygon fill="white" stroke="black" points="13.5,-245.5 13.5,-286.5 156.5,-286.5 156.5,-245.5 13.5,-245.5"/>
<text text-anchor="start" x="21.5" y="-274.5" font-family="Helvetica,sans-Serif" font-size="10.00">alps_common_lib/include</text>
<text text-anchor="start" x="21.5" y="-263.5" font-family="Helvetica,sans-Serif" font-size="10.00">/alps_cmn/control/friction</text>
<text text-anchor="middle" x="85" y="-252.5" font-family="Helvetica,sans-Serif" font-size="10.00">_compensated_motor.hpp</text>
</a>
</g>
</g>
<!-- Node1&#45;&gt;Node2 -->
<g id="edge1" class="edge">
<title>Node1&#45;&gt;Node2</title>
<path fill="none" stroke="midnightblue" d="M206.89,-319.4C183.5,-309.34 154.38,-296.83 130.47,-286.55"/>
<polygon fill="midnightblue" stroke="midnightblue" points="205.64,-322.67 216.21,-323.4 208.4,-316.24 205.64,-322.67"/>
</g>
<!-- Node4 -->
<g id="node4" class="node">
<title>Node4</title>
<g id="a_node4"><a xlink:href="low__pass__differentiator_8hpp.html" target="_top" xlink:title=" ">
<polygon fill="white" stroke="black" points="179,-245.5 179,-286.5 319,-286.5 319,-245.5 179,-245.5"/>
<text text-anchor="start" x="187" y="-274.5" font-family="Helvetica,sans-Serif" font-size="10.00">alps_common_lib/include</text>
<text text-anchor="start" x="187" y="-263.5" font-family="Helvetica,sans-Serif" font-size="10.00">/alps_cmn/control/low</text>
<text text-anchor="middle" x="249" y="-252.5" font-family="Helvetica,sans-Serif" font-size="10.00">_pass_differentiator.hpp</text>
</a>
</g>
</g>
<!-- Node1&#45;&gt;Node4 -->
<g id="edge3" class="edge">
<title>Node1&#45;&gt;Node4</title>
<path fill="none" stroke="midnightblue" d="M249,-312.98C249,-304.35 249,-294.76 249,-286.59"/>
<polygon fill="midnightblue" stroke="midnightblue" points="245.5,-313.23 249,-323.23 252.5,-313.23 245.5,-313.23"/>
</g>
<!-- Node11 -->
<g id="node11" class="node">
<title>Node11</title>
<g id="a_node11"><a xlink:href="alps__common__lib_2include_2alps__cmn_2sensor_2incremental__encoder_8hpp.html" target="_top" xlink:title=" ">
<polygon fill="white" stroke="black" points="358.5,-245.5 358.5,-286.5 521.5,-286.5 521.5,-245.5 358.5,-245.5"/>
<text text-anchor="start" x="366.5" y="-274.5" font-family="Helvetica,sans-Serif" font-size="10.00">alps_common_lib/include</text>
<text text-anchor="start" x="366.5" y="-263.5" font-family="Helvetica,sans-Serif" font-size="10.00">/alps_cmn/sensor/incremental</text>
<text text-anchor="middle" x="440" y="-252.5" font-family="Helvetica,sans-Serif" font-size="10.00">_encoder.hpp</text>
</a>
</g>
</g>
<!-- Node1&#45;&gt;Node11 -->
<g id="edge15" class="edge">
<title>Node1&#45;&gt;Node11</title>
<path fill="none" stroke="midnightblue" d="M296.59,-319.93C324.08,-309.79 358.7,-297.01 387.04,-286.55"/>
<polygon fill="midnightblue" stroke="midnightblue" points="295.36,-316.66 287.19,-323.4 297.79,-323.22 295.36,-316.66"/>
</g>
<!-- Node3 -->
<g id="node3" class="node">
<title>Node3</title>
<g id="a_node3"><a xlink:href="motor__friction__analyzer_8hpp.html" target="_top" xlink:title="モーター軸の摩擦力を計測するクラス">
<polygon fill="white" stroke="black" points="0,-167.5 0,-208.5 160,-208.5 160,-167.5 0,-167.5"/>
<text text-anchor="start" x="8" y="-196.5" font-family="Helvetica,sans-Serif" font-size="10.00">alps_common_lib/include</text>
<text text-anchor="start" x="8" y="-185.5" font-family="Helvetica,sans-Serif" font-size="10.00">/alps_cmn/tool/motor_friction</text>
<text text-anchor="middle" x="80" y="-174.5" font-family="Helvetica,sans-Serif" font-size="10.00">_analyzer.hpp</text>
</a>
</g>
</g>
<!-- Node2&#45;&gt;Node3 -->
<g id="edge2" class="edge">
<title>Node2&#45;&gt;Node3</title>
<path fill="none" stroke="midnightblue" d="M83.05,-235.3C82.45,-226.3 81.82,-216.65 81.28,-208.51"/>
<polygon fill="midnightblue" stroke="midnightblue" points="79.56,-235.68 83.71,-245.43 86.55,-235.22 79.56,-235.68"/>
</g>
<!-- Node4&#45;&gt;Node3 -->
<g id="edge14" class="edge">
<title>Node4&#45;&gt;Node3</title>
<path fill="none" stroke="midnightblue" d="M196.05,-241.19C172.67,-230.67 145.53,-218.47 123.37,-208.51"/>
<polygon fill="midnightblue" stroke="midnightblue" points="194.92,-244.52 205.48,-245.43 197.79,-238.13 194.92,-244.52"/>
</g>
<!-- Node5 -->
<g id="node5" class="node">
<title>Node5</title>
<g id="a_node5"><a xlink:href="motor__velocity__controller_8hpp.html" target="_top" xlink:title=" ">
<polygon fill="white" stroke="black" points="278,-89.5 278,-130.5 418,-130.5 418,-89.5 278,-89.5"/>
<text text-anchor="start" x="286" y="-118.5" font-family="Helvetica,sans-Serif" font-size="10.00">alps_common_lib/include</text>
<text text-anchor="start" x="286" y="-107.5" font-family="Helvetica,sans-Serif" font-size="10.00">/alps_cmn/control/motor</text>
<text text-anchor="middle" x="348" y="-96.5" font-family="Helvetica,sans-Serif" font-size="10.00">_velocity_controller.hpp</text>
</a>
</g>
</g>
<!-- Node4&#45;&gt;Node5 -->
<g id="edge4" class="edge">
<title>Node4&#45;&gt;Node5</title>
<path fill="none" stroke="midnightblue" d="M297.77,-239.69C309.62,-231.39 321.13,-221.13 329,-209 344.48,-185.16 347.92,-151.65 348.4,-130.64"/>
<polygon fill="midnightblue" stroke="midnightblue" points="295.56,-236.95 289.13,-245.38 299.41,-242.8 295.56,-236.95"/>
</g>
<!-- Node9 -->
<g id="node9" class="node">
<title>Node9</title>
<g id="a_node9"><a xlink:href="pid_8hpp.html" target="_top" xlink:title=" ">
<polygon fill="white" stroke="black" points="178,-173 178,-203 320,-203 320,-173 178,-173"/>
<text text-anchor="start" x="186" y="-191" font-family="Helvetica,sans-Serif" font-size="10.00">alps_common_lib/include</text>
<text text-anchor="middle" x="249" y="-180" font-family="Helvetica,sans-Serif" font-size="10.00">/alps_cmn/control/pid.hpp</text>
</a>
</g>
</g>
<!-- Node4&#45;&gt;Node9 -->
<g id="edge8" class="edge">
<title>Node4&#45;&gt;Node9</title>
<path fill="none" stroke="midnightblue" d="M249,-235.28C249,-224.25 249,-212.25 249,-203.23"/>
<polygon fill="midnightblue" stroke="midnightblue" points="245.5,-235.43 249,-245.43 252.5,-235.43 245.5,-235.43"/>
</g>
<!-- Node6 -->
<g id="node6" class="node">
<title>Node6</title>
<g id="a_node6"><a xlink:href="motor__angle__velocity__controller_8hpp.html" target="_top" xlink:title=" ">
<polygon fill="white" stroke="black" points="63.5,-6 63.5,-47 228.5,-47 228.5,-6 63.5,-6"/>
<text text-anchor="start" x="71.5" y="-35" font-family="Helvetica,sans-Serif" font-size="10.00">alps_common_lib/include</text>
<text text-anchor="start" x="71.5" y="-24" font-family="Helvetica,sans-Serif" font-size="10.00">/alps_cmn/control/motor</text>
<text text-anchor="middle" x="146" y="-13" font-family="Helvetica,sans-Serif" font-size="10.00">_angle_velocity_controller.hpp</text>
</a>
</g>
</g>
<!-- Node5&#45;&gt;Node6 -->
<g id="edge5" class="edge">
<title>Node5&#45;&gt;Node6</title>
<path fill="none" stroke="midnightblue" d="M290.02,-85.61C259.73,-73.39 223.08,-58.6 194.34,-47"/>
<polygon fill="midnightblue" stroke="midnightblue" points="289.03,-88.98 299.62,-89.48 291.65,-82.49 289.03,-88.98"/>
</g>
<!-- Node7 -->
<g id="node7" class="node">
<title>Node7</title>
<g id="a_node7"><a xlink:href="custom__type__param__conversion__rule_8hpp.html" target="_top" xlink:title=" ">
<polygon fill="white" stroke="black" points="246.5,-0.5 246.5,-52.5 385.5,-52.5 385.5,-0.5 246.5,-0.5"/>
<text text-anchor="start" x="254.5" y="-40.5" font-family="Helvetica,sans-Serif" font-size="10.00">alps_ros2_lib/include</text>
<text text-anchor="start" x="254.5" y="-29.5" font-family="Helvetica,sans-Serif" font-size="10.00">/alps_ros2/type/custom</text>
<text text-anchor="start" x="254.5" y="-18.5" font-family="Helvetica,sans-Serif" font-size="10.00">_type_param_conversion</text>
<text text-anchor="middle" x="316" y="-7.5" font-family="Helvetica,sans-Serif" font-size="10.00">_rule.hpp</text>
</a>
</g>
</g>
<!-- Node5&#45;&gt;Node7 -->
<g id="edge6" class="edge">
<title>Node5&#45;&gt;Node7</title>
<path fill="none" stroke="midnightblue" d="M336.49,-79.69C333.01,-70.83 329.22,-61.17 325.86,-52.61"/>
<polygon fill="midnightblue" stroke="midnightblue" points="333.34,-81.24 340.25,-89.27 339.86,-78.68 333.34,-81.24"/>
</g>
<!-- Node8 -->
<g id="node8" class="node">
<title>Node8</title>
<g id="a_node8"><a xlink:href="custom__type__topic__conversion__rule_8hpp.html" target="_top" xlink:title=" ">
<polygon fill="white" stroke="black" points="403.5,-0.5 403.5,-52.5 534.5,-52.5 534.5,-0.5 403.5,-0.5"/>
<text text-anchor="start" x="411.5" y="-40.5" font-family="Helvetica,sans-Serif" font-size="10.00">alps_ros2_lib/include</text>
<text text-anchor="start" x="411.5" y="-29.5" font-family="Helvetica,sans-Serif" font-size="10.00">/alps_ros2/type/custom</text>
<text text-anchor="start" x="411.5" y="-18.5" font-family="Helvetica,sans-Serif" font-size="10.00">_type_topic_conversion</text>
<text text-anchor="middle" x="469" y="-7.5" font-family="Helvetica,sans-Serif" font-size="10.00">_rule.hpp</text>
</a>
</g>
</g>
<!-- Node5&#45;&gt;Node8 -->
<g id="edge7" class="edge">
<title>Node5&#45;&gt;Node8</title>
<path fill="none" stroke="midnightblue" d="M385.35,-83.84C400.03,-73.96 416.85,-62.62 431.54,-52.73"/>
<polygon fill="midnightblue" stroke="midnightblue" points="383.32,-80.99 376.98,-89.48 387.23,-86.8 383.32,-80.99"/>
</g>
<!-- Node9&#45;&gt;Node5 -->
<g id="edge12" class="edge">
<title>Node9&#45;&gt;Node5</title>
<path fill="none" stroke="midnightblue" d="M275.72,-166.49C290.21,-155.36 308.04,-141.68 322.36,-130.68"/>
<polygon fill="midnightblue" stroke="midnightblue" points="273.42,-163.84 267.62,-172.7 277.68,-169.39 273.42,-163.84"/>
</g>
<!-- Node9&#45;&gt;Node6 -->
<g id="edge11" class="edge">
<title>Node9&#45;&gt;Node6</title>
<path fill="none" stroke="midnightblue" d="M236.78,-163.61C225.96,-143.42 209.39,-113.7 193,-89 183.42,-74.56 171.56,-59.05 162.15,-47.22"/>
<polygon fill="midnightblue" stroke="midnightblue" points="233.82,-165.5 241.6,-172.69 240,-162.22 233.82,-165.5"/>
</g>
<!-- Node9&#45;&gt;Node7 -->
<g id="edge13" class="edge">
<title>Node9&#45;&gt;Node7</title>
<path fill="none" stroke="midnightblue" d="M250.9,-162.72C253.2,-142.29 258.21,-112.71 269,-89 274.9,-76.03 283.97,-63.26 292.58,-52.75"/>
<polygon fill="midnightblue" stroke="midnightblue" points="247.41,-162.46 249.9,-172.75 254.37,-163.15 247.41,-162.46"/>
</g>
<!-- Node10 -->
<g id="node10" class="node">
<title>Node10</title>
<g id="a_node10"><a xlink:href="motor__angle__controller_8hpp.html" target="_top" xlink:title=" ">
<polygon fill="white" stroke="black" points="44,-89.5 44,-130.5 184,-130.5 184,-89.5 44,-89.5"/>
<text text-anchor="start" x="52" y="-118.5" font-family="Helvetica,sans-Serif" font-size="10.00">alps_common_lib/include</text>
<text text-anchor="start" x="52" y="-107.5" font-family="Helvetica,sans-Serif" font-size="10.00">/alps_cmn/control/motor</text>
<text text-anchor="middle" x="114" y="-96.5" font-family="Helvetica,sans-Serif" font-size="10.00">_angle_controller.hpp</text>
</a>
</g>
</g>
<!-- Node9&#45;&gt;Node10 -->
<g id="edge9" class="edge">
<title>Node9&#45;&gt;Node10</title>
<path fill="none" stroke="midnightblue" d="M215.05,-167.89C194.84,-156.51 169.24,-142.1 148.87,-130.63"/>
<polygon fill="midnightblue" stroke="midnightblue" points="213.49,-171.03 223.92,-172.88 216.93,-164.93 213.49,-171.03"/>
</g>
<!-- Node10&#45;&gt;Node6 -->
<g id="edge10" class="edge">
<title>Node10&#45;&gt;Node6</title>
<path fill="none" stroke="midnightblue" d="M125.49,-79.73C129.76,-68.87 134.48,-56.83 138.33,-47.05"/>
<polygon fill="midnightblue" stroke="midnightblue" points="122.14,-78.68 121.75,-89.27 128.66,-81.24 122.14,-78.68"/>
</g>
<!-- Node12 -->
<g id="node12" class="node">
<title>Node12</title>
<g id="a_node12"><a xlink:href="alps__mbed__lib_2include_2alps__mbed_2sensor_2incremental__encoder_8hpp.html" target="_top" xlink:title=" ">
<polygon fill="white" stroke="black" points="376,-167.5 376,-208.5 546,-208.5 546,-167.5 376,-167.5"/>
<text text-anchor="start" x="384" y="-196.5" font-family="Helvetica,sans-Serif" font-size="10.00">alps_mbed_lib/include</text>
<text text-anchor="start" x="384" y="-185.5" font-family="Helvetica,sans-Serif" font-size="10.00">/alps_mbed/sensor/incremental</text>
<text text-anchor="middle" x="461" y="-174.5" font-family="Helvetica,sans-Serif" font-size="10.00">_encoder.hpp</text>
</a>
</g>
</g>
<!-- Node11&#45;&gt;Node12 -->
<g id="edge16" class="edge">
<title>Node11&#45;&gt;Node12</title>
<path fill="none" stroke="midnightblue" d="M448.13,-235.59C450.64,-226.51 453.33,-216.74 455.61,-208.51"/>
<polygon fill="midnightblue" stroke="midnightblue" points="444.7,-234.86 445.41,-245.43 451.45,-236.72 444.7,-234.86"/>
</g>
</g>
</svg>
