<?xml version="1.0" encoding="UTF-8" standalone="no"?>
<!DOCTYPE svg PUBLIC "-//W3C//DTD SVG 1.1//EN"
 "http://www.w3.org/Graphics/SVG/1.1/DTD/svg11.dtd">
<!-- Generated by graphviz version 2.43.0 (0)
 -->
<!-- Title: alps_core/lib_internal/alps_common_lib/include/alps_cmn/control/differentiator.hpp Pages: 1 -->
<svg width="233pt" height="162pt"
 viewBox="0.00 0.00 232.50 162.00" xmlns="http://www.w3.org/2000/svg" xmlns:xlink="http://www.w3.org/1999/xlink">
<g id="graph0" class="graph" transform="scale(1 1) rotate(0) translate(4 158)">
<title>alps_core/lib_internal/alps_common_lib/include/alps_cmn/control/differentiator.hpp</title>
<polygon fill="white" stroke="transparent" points="-4,4 -4,-158 228.5,-158 228.5,4 -4,4"/>
<!-- Node1 -->
<g id="node1" class="node">
<title>Node1</title>
<g id="a_node1"><a xlink:title="微分器ライブラリ">
<polygon fill="#bfbfbf" stroke="black" points="0,-112.5 0,-153.5 190,-153.5 190,-112.5 0,-112.5"/>
<text text-anchor="start" x="8" y="-141.5" font-family="Helvetica,sans-Serif" font-size="10.00">alps_core/lib_internal</text>
<text text-anchor="start" x="8" y="-130.5" font-family="Helvetica,sans-Serif" font-size="10.00">/alps_common_lib/include</text>
<text text-anchor="middle" x="95" y="-119.5" font-family="Helvetica,sans-Serif" font-size="10.00">/alps_cmn/control/differentiator.hpp</text>
</a>
</g>
</g>
<!-- Node2 -->
<g id="node2" class="node">
<title>Node2</title>
<g id="a_node2"><a xlink:title=" ">
<polygon fill="white" stroke="#bfbfbf" points="70,-0.5 70,-19.5 120,-19.5 120,-0.5 70,-0.5"/>
<text text-anchor="middle" x="95" y="-7.5" font-family="Helvetica,sans-Serif" font-size="10.00">chrono</text>
</a>
</g>
</g>
<!-- Node1&#45;&gt;Node2 -->
<g id="edge1" class="edge">
<title>Node1&#45;&gt;Node2</title>
<path fill="none" stroke="midnightblue" d="M77.88,-112.39C66.8,-97.27 55.56,-75.69 62,-56 65.49,-45.34 72.57,-35.12 79.29,-27.12"/>
<polygon fill="midnightblue" stroke="midnightblue" points="81.9,-29.44 85.98,-19.66 76.7,-24.76 81.9,-29.44"/>
</g>
<!-- Node3 -->
<g id="node3" class="node">
<title>Node3</title>
<g id="a_node3"><a xlink:href="duration_8hpp.html" target="_top" xlink:title="時間間隔の型エイリアス">
<polygon fill="white" stroke="black" points="71.5,-56.5 71.5,-75.5 224.5,-75.5 224.5,-56.5 71.5,-56.5"/>
<text text-anchor="middle" x="148" y="-63.5" font-family="Helvetica,sans-Serif" font-size="10.00">alps_cmn/time/duration.hpp</text>
</a>
</g>
</g>
<!-- Node1&#45;&gt;Node3 -->
<g id="edge2" class="edge">
<title>Node1&#45;&gt;Node3</title>
<path fill="none" stroke="midnightblue" d="M110.9,-112.5C118.4,-103.3 127.26,-92.44 134.44,-83.63"/>
<polygon fill="midnightblue" stroke="midnightblue" points="137.34,-85.61 140.94,-75.65 131.91,-81.19 137.34,-85.61"/>
</g>
<!-- Node3&#45;&gt;Node2 -->
<g id="edge3" class="edge">
<title>Node3&#45;&gt;Node2</title>
<path fill="none" stroke="midnightblue" d="M139.25,-56.08C131.53,-48.22 120.1,-36.57 110.78,-27.08"/>
<polygon fill="midnightblue" stroke="midnightblue" points="113.09,-24.44 103.59,-19.75 108.1,-29.34 113.09,-24.44"/>
</g>
</g>
</svg>
