<?xml version="1.0" encoding="UTF-8" standalone="no"?>
<!DOCTYPE svg PUBLIC "-//W3C//DTD SVG 1.1//EN"
 "http://www.w3.org/Graphics/SVG/1.1/DTD/svg11.dtd">
<!-- Generated by graphviz version 2.43.0 (0)
 -->
<!-- Title: alps_mbed_lib/include/alps_mbed/gpio/digital_out.hpp Pages: 1 -->
<svg width="208pt" height="115pt"
 viewBox="0.00 0.00 208.00 115.00" xmlns="http://www.w3.org/2000/svg" xmlns:xlink="http://www.w3.org/1999/xlink">
<g id="graph0" class="graph" transform="scale(1 1) rotate(0) translate(4 111)">
<title>alps_mbed_lib/include/alps_mbed/gpio/digital_out.hpp</title>
<!-- Node1 -->
<g id="node1" class="node">
<title>Node1</title>
<g id="a_node1"><a xlink:title="デジタル出力ピン">
<polygon fill="#999999" stroke="#666666" points="146,-107 15,-107 15,-66 146,-66 146,-107"/>
<text text-anchor="start" x="23" y="-95" font-family="Helvetica,sans-Serif" font-size="10.00">alps_mbed_lib/include</text>
<text text-anchor="start" x="23" y="-84" font-family="Helvetica,sans-Serif" font-size="10.00">/alps_mbed/gpio/digital</text>
<text text-anchor="middle" x="80.5" y="-73" font-family="Helvetica,sans-Serif" font-size="10.00">_out.hpp</text>
</a>
</g>
</g>
<!-- Node2 -->
<g id="node2" class="node">
<title>Node2</title>
<g id="a_node2"><a xlink:title=" ">
<polygon fill="#e0e0e0" stroke="#999999" points="53,-24.5 0,-24.5 0,-5.5 53,-5.5 53,-24.5"/>
<text text-anchor="middle" x="26.5" y="-12.5" font-family="Helvetica,sans-Serif" font-size="10.00">mbed.h</text>
</a>
</g>
</g>
<!-- Node1&#45;&gt;Node2 -->
<g id="edge1" class="edge">
<title>Node1&#45;&gt;Node2</title>
<path fill="none" stroke="#63b8ff" d="M65.17,-65.77C57.07,-55.34 47.23,-42.68 39.5,-32.73"/>
<polygon fill="#63b8ff" stroke="#63b8ff" points="42.25,-30.57 33.35,-24.82 36.72,-34.86 42.25,-30.57"/>
</g>
<!-- Node3 -->
<g id="node3" class="node">
<title>Node3</title>
<g id="a_node3"><a xlink:href="i__digital__out_8hpp.html" target="_top" xlink:title=" ">
<polygon fill="white" stroke="#666666" points="200,-30 71,-30 71,0 200,0 200,-30"/>
<text text-anchor="start" x="79" y="-18" font-family="Helvetica,sans-Serif" font-size="10.00">alps_cmn/gpio/i_digital</text>
<text text-anchor="middle" x="135.5" y="-7" font-family="Helvetica,sans-Serif" font-size="10.00">_out.hpp</text>
</a>
</g>
</g>
<!-- Node1&#45;&gt;Node3 -->
<g id="edge2" class="edge">
<title>Node1&#45;&gt;Node3</title>
<path fill="none" stroke="#63b8ff" d="M96.11,-65.77C102.95,-57.13 111,-46.96 118.03,-38.08"/>
<polygon fill="#63b8ff" stroke="#63b8ff" points="120.93,-40.05 124.39,-30.04 115.44,-35.71 120.93,-40.05"/>
</g>
</g>
</svg>
