<?xml version="1.0" encoding="UTF-8" standalone="no"?>
<!DOCTYPE svg PUBLIC "-//W3C//DTD SVG 1.1//EN"
 "http://www.w3.org/Graphics/SVG/1.1/DTD/svg11.dtd">
<!-- Generated by graphviz version 2.43.0 (0)
 -->
<!-- Title: alps_core/lib_internal/alps_mbed_lib/include/alps_mbed/gpio/digital_in.hpp Pages: 1 -->
<svg width="211pt" height="115pt"
 viewBox="0.00 0.00 210.50 115.00" xmlns="http://www.w3.org/2000/svg" xmlns:xlink="http://www.w3.org/1999/xlink">
<g id="graph0" class="graph" transform="scale(1 1) rotate(0) translate(4 111)">
<title>alps_core/lib_internal/alps_mbed_lib/include/alps_mbed/gpio/digital_in.hpp</title>
<!-- Node1 -->
<g id="Node000001" class="node">
<title>Node1</title>
<g id="a_Node000001"><a xlink:title="デジタル入力ピン">
<polygon fill="#999999" stroke="#666666" points="166,-107 0,-107 0,-66 166,-66 166,-107"/>
<text text-anchor="start" x="8" y="-95" font-family="Helvetica,sans-Serif" font-size="10.00">alps_core/lib_internal</text>
<text text-anchor="start" x="8" y="-84" font-family="Helvetica,sans-Serif" font-size="10.00">/alps_mbed_lib/include</text>
<text text-anchor="middle" x="83" y="-73" font-family="Helvetica,sans-Serif" font-size="10.00">/alps_mbed/gpio/digital_in.hpp</text>
</a>
</g>
</g>
<!-- Node2 -->
<g id="Node000002" class="node">
<title>Node2</title>
<g id="a_Node000002"><a xlink:title=" ">
<polygon fill="#e0e0e0" stroke="#999999" points="55.5,-24.5 2.5,-24.5 2.5,-5.5 55.5,-5.5 55.5,-24.5"/>
<text text-anchor="middle" x="29" y="-12.5" font-family="Helvetica,sans-Serif" font-size="10.00">mbed.h</text>
</a>
</g>
</g>
<!-- Node1&#45;&gt;Node2 -->
<g id="edge1_Node000001_Node000002" class="edge">
<title>Node1&#45;&gt;Node2</title>
<g id="a_edge1_Node000001_Node000002"><a xlink:title=" ">
<path fill="none" stroke="#63b8ff" d="M67.67,-65.77C59.57,-55.34 49.73,-42.68 42,-32.73"/>
<polygon fill="#63b8ff" stroke="#63b8ff" points="44.75,-30.57 35.85,-24.82 39.22,-34.86 44.75,-30.57"/>
</a>
</g>
</g>
<!-- Node3 -->
<g id="Node000003" class="node">
<title>Node3</title>
<g id="a_Node000003"><a xlink:href="i__digital__in_8hpp.html" target="_top" xlink:title=" ">
<polygon fill="white" stroke="#666666" points="202.5,-30 73.5,-30 73.5,0 202.5,0 202.5,-30"/>
<text text-anchor="start" x="81.5" y="-18" font-family="Helvetica,sans-Serif" font-size="10.00">alps_cmn/gpio/i_digital</text>
<text text-anchor="middle" x="138" y="-7" font-family="Helvetica,sans-Serif" font-size="10.00">_in.hpp</text>
</a>
</g>
</g>
<!-- Node1&#45;&gt;Node3 -->
<g id="edge2_Node000001_Node000003" class="edge">
<title>Node1&#45;&gt;Node3</title>
<g id="a_edge2_Node000001_Node000003"><a xlink:title=" ">
<path fill="none" stroke="#63b8ff" d="M98.61,-65.77C105.45,-57.13 113.5,-46.96 120.53,-38.08"/>
<polygon fill="#63b8ff" stroke="#63b8ff" points="123.43,-40.05 126.89,-30.04 117.94,-35.71 123.43,-40.05"/>
</a>
</g>
</g>
</g>
</svg>
