<?xml version="1.0" encoding="UTF-8" standalone="no"?>
<!DOCTYPE svg PUBLIC "-//W3C//DTD SVG 1.1//EN"
 "http://www.w3.org/Graphics/SVG/1.1/DTD/svg11.dtd">
<!-- Generated by graphviz version 2.43.0 (0)
 -->
<!-- Title: roblab_mbed_lib/include/roblab_mbed/gpio/digital_out.hpp Pages: 1 -->
<svg width="198pt" height="115pt"
 viewBox="0.00 0.00 198.00 115.00" xmlns="http://www.w3.org/2000/svg" xmlns:xlink="http://www.w3.org/1999/xlink">
<g id="graph0" class="graph" transform="scale(1 1) rotate(0) translate(4 111)">
<title>roblab_mbed_lib/include/roblab_mbed/gpio/digital_out.hpp</title>
<!-- Node1 -->
<g id="node1" class="node">
<title>Node1</title>
<g id="a_node1"><a xlink:title=" ">
<polygon fill="#999999" stroke="#666666" points="149,-107 8,-107 8,-66 149,-66 149,-107"/>
<text text-anchor="start" x="16" y="-95" font-family="Helvetica,sans-Serif" font-size="10.00">roblab_mbed_lib/include</text>
<text text-anchor="start" x="16" y="-84" font-family="Helvetica,sans-Serif" font-size="10.00">/roblab_mbed/gpio/digital</text>
<text text-anchor="middle" x="78.5" y="-73" font-family="Helvetica,sans-Serif" font-size="10.00">_out.hpp</text>
</a>
</g>
</g>
<!-- Node2 -->
<g id="node2" class="node">
<title>Node2</title>
<g id="a_node2"><a xlink:title=" ">
<polygon fill="#e0e0e0" stroke="#999999" points="53,-24.5 0,-24.5 0,-5.5 53,-5.5 53,-24.5"/>
<text text-anchor="middle" x="26.5" y="-12.5" font-family="Helvetica,sans-Serif" font-size="10.00">mbed.h</text>
</a>
</g>
</g>
<!-- Node1&#45;&gt;Node2 -->
<g id="edge1" class="edge">
<title>Node1&#45;&gt;Node2</title>
<path fill="none" stroke="#63b8ff" d="M63.74,-65.77C56.01,-55.45 46.65,-42.93 39.25,-33.04"/>
<polygon fill="#63b8ff" stroke="#63b8ff" points="41.89,-30.73 33.1,-24.82 36.29,-34.92 41.89,-30.73"/>
</g>
<!-- Node3 -->
<g id="node3" class="node">
<title>Node3</title>
<g id="a_node3"><a xlink:href="i__digital__write_8hpp.html" target="_top" xlink:title=" ">
<polygon fill="white" stroke="#666666" points="190,-30 71,-30 71,0 190,0 190,-30"/>
<text text-anchor="start" x="79" y="-18" font-family="Helvetica,sans-Serif" font-size="10.00">roblab_common/gpio</text>
<text text-anchor="middle" x="130.5" y="-7" font-family="Helvetica,sans-Serif" font-size="10.00">/i_digital_write.hpp</text>
</a>
</g>
</g>
<!-- Node1&#45;&gt;Node3 -->
<g id="edge2" class="edge">
<title>Node1&#45;&gt;Node3</title>
<path fill="none" stroke="#63b8ff" d="M93.26,-65.77C99.72,-57.13 107.33,-46.96 113.98,-38.08"/>
<polygon fill="#63b8ff" stroke="#63b8ff" points="116.81,-40.14 120,-30.04 111.2,-35.95 116.81,-40.14"/>
</g>
</g>
</svg>
