<?xml version="1.0" encoding="UTF-8" standalone="no"?>
<!DOCTYPE svg PUBLIC "-//W3C//DTD SVG 1.1//EN"
 "http://www.w3.org/Graphics/SVG/1.1/DTD/svg11.dtd">
<!-- Generated by graphviz version 2.43.0 (0)
 -->
<!-- Title: alps_core/lib_internal/alps_ros2_lib Pages: 1 -->
<svg width="208pt" height="175pt"
 viewBox="0.00 0.00 208.00 175.00" xmlns="http://www.w3.org/2000/svg" xmlns:xlink="http://www.w3.org/1999/xlink">
<g id="graph0" class="graph" transform="scale(1 1) rotate(0) translate(4 171)">
<title>alps_core/lib_internal/alps_ros2_lib</title>
<polygon fill="white" stroke="transparent" points="-4,4 -4,-171 204,-171 204,4 -4,4"/>
<g id="clust1" class="cluster">
<title>clusterdir_f64f47805544727f04f019e126982967</title>
<g id="a_clust1"><a xlink:href="dir_f64f47805544727f04f019e126982967.html" target="_top" xlink:title="lib_internal">
<polygon fill="#ddddee" stroke="black" points="8,-8 8,-159 192,-159 192,-8 8,-8"/>
<text text-anchor="middle" x="100" y="-147" font-family="Helvetica,sans-Serif" font-size="10.00">lib_internal</text>
</a>
</g>
</g>
<g id="clust2" class="cluster">
<title>clusterdir_bf770a5d4da35e72aa2cb5e026967a58</title>
<g id="a_clust2"><a xlink:href="dir_bf770a5d4da35e72aa2cb5e026967a58.html" target="_top">
<polygon fill="#eeeeff" stroke="black" points="16,-80 16,-132 184,-132 184,-80 16,-80"/>
</a>
</g>
</g>
<!-- dir_dbb6a150a1d2a9e3bac0bb1d4855e995 -->
<g id="node1" class="node">
<title>dir_dbb6a150a1d2a9e3bac0bb1d4855e995</title>
<g id="a_node1"><a xlink:href="dir_dbb6a150a1d2a9e3bac0bb1d4855e995.html" target="_top" xlink:title="alps_common_lib">
<polygon fill="white" stroke="red" points="118,-52 16,-52 16,-16 118,-16 118,-52"/>
<text text-anchor="middle" x="67" y="-31.5" font-family="Helvetica,sans-Serif" font-size="10.00">alps_common_lib</text>
</a>
</g>
</g>
<!-- dir_bf770a5d4da35e72aa2cb5e026967a58 -->
<g id="node2" class="node">
<title>dir_bf770a5d4da35e72aa2cb5e026967a58</title>
<text text-anchor="middle" x="136" y="-103.5" font-family="Helvetica,sans-Serif" font-size="10.00">alps_ros2_lib</text>
</g>
<!-- dir_cce31b221ad05865aefcce4893a92a60 -->
<g id="node3" class="node">
<title>dir_cce31b221ad05865aefcce4893a92a60</title>
<g id="a_node3"><a xlink:href="dir_cce31b221ad05865aefcce4893a92a60.html" target="_top" xlink:title="include">
<polygon fill="white" stroke="red" points="78,-124 24,-124 24,-88 78,-88 78,-124"/>
<text text-anchor="middle" x="51" y="-103.5" font-family="Helvetica,sans-Serif" font-size="10.00">include</text>
</a>
</g>
</g>
<!-- dir_cce31b221ad05865aefcce4893a92a60&#45;&gt;dir_dbb6a150a1d2a9e3bac0bb1d4855e995 -->
<g id="edge1" class="edge">
<title>dir_cce31b221ad05865aefcce4893a92a60&#45;&gt;dir_dbb6a150a1d2a9e3bac0bb1d4855e995</title>
<path fill="none" stroke="black" d="M54.96,-87.7C56.72,-79.98 58.84,-70.71 60.8,-62.11"/>
<polygon fill="black" stroke="black" points="64.27,-62.63 63.09,-52.1 57.45,-61.07 64.27,-62.63"/>
<g id="a_edge1&#45;headlabel"><a xlink:href="dir_000024_000002.html" target="_top" xlink:title="12">
<text text-anchor="middle" x="66.24" y="-64.27" font-family="Helvetica,sans-Serif" font-size="10.00">12</text>
</a>
</g>
</g>
</g>
</svg>
