<?xml version="1.0" encoding="UTF-8" standalone="no"?>
<!DOCTYPE svg PUBLIC "-//W3C//DTD SVG 1.1//EN"
 "http://www.w3.org/Graphics/SVG/1.1/DTD/svg11.dtd">
<!-- Generated by graphviz version 2.43.0 (0)
 -->
<!-- Title: alps_core/lib_internal/alps_common_lib/include/alps_cmn Pages: 1 -->
<svg width="394pt" height="424pt"
 viewBox="0.00 0.00 394.00 424.00" xmlns="http://www.w3.org/2000/svg" xmlns:xlink="http://www.w3.org/1999/xlink">
<g id="graph0" class="graph" transform="scale(1 1) rotate(0) translate(4 420)">
<title>alps_core/lib_internal/alps_common_lib/include/alps_cmn</title>
<g id="clust1" class="cluster">
<title>clusterdir_2b777a74a5ff5221077a83a37cc87235</title>
<g id="a_clust1"><a xlink:href="dir_2b777a74a5ff5221077a83a37cc87235.html" target="_top" xlink:title="include">
<polygon fill="#daedff" stroke="#7f7f7f" stroke-dasharray="5,2" points="8,-8 8,-408 378,-408 378,-8 8,-8"/>
<text text-anchor="middle" x="193" y="-396" font-family="Helvetica,sans-Serif" font-size="10.00">include</text>
</a>
</g>
</g>
<g id="clust2" class="cluster">
<title>clusterdir_664123f27b70b10eeac81c10039fb160</title>
<g id="a_clust2"><a xlink:href="dir_664123f27b70b10eeac81c10039fb160.html" target="_top">
<polygon fill="#daedff" stroke="#404040" stroke-width="2" points="16,-16 16,-381 370,-381 370,-16 16,-16"/>
</a>
</g>
</g>
<!-- dir_664123f27b70b10eeac81c10039fb160 -->
<g id="node1" class="node">
<title>dir_664123f27b70b10eeac81c10039fb160</title>
<text text-anchor="middle" x="291" y="-361" font-family="Helvetica,sans-Serif" font-size="10.00">alps_cmn</text>
</g>
<!-- dir_98805e936c7cb41c7fc1bd0592aaf3bd -->
<g id="node2" class="node">
<title>dir_98805e936c7cb41c7fc1bd0592aaf3bd</title>
<g id="a_node2"><a xlink:href="dir_98805e936c7cb41c7fc1bd0592aaf3bd.html" target="_top" xlink:title="actuator">
<polygon fill="#4ea9ff" stroke="#404040" points="194.5,-318 137.5,-318 137.5,-299 194.5,-299 194.5,-318"/>
<text text-anchor="middle" x="166" y="-306" font-family="Helvetica,sans-Serif" font-size="10.00">actuator</text>
</a>
</g>
</g>
<!-- dir_5bbbaec82e60c1c95ef5795854749336 -->
<g id="node3" class="node">
<title>dir_5bbbaec82e60c1c95ef5795854749336</title>
<g id="a_node3"><a xlink:href="dir_5bbbaec82e60c1c95ef5795854749336.html" target="_top" xlink:title="communication">
<polygon fill="#4ea9ff" stroke="#404040" points="212,-153 120,-153 120,-134 212,-134 212,-153"/>
<text text-anchor="middle" x="166" y="-141" font-family="Helvetica,sans-Serif" font-size="10.00">communication</text>
</a>
</g>
</g>
<!-- dir_98805e936c7cb41c7fc1bd0592aaf3bd&#45;&gt;dir_5bbbaec82e60c1c95ef5795854749336 -->
<g id="edge3" class="edge">
<title>dir_98805e936c7cb41c7fc1bd0592aaf3bd&#45;&gt;dir_5bbbaec82e60c1c95ef5795854749336</title>
<g id="a_edge3"><a xlink:href="dir_000000_000016.html" target="_top">
<path fill="none" stroke="#63b8ff" d="M159.55,-298.77C147.71,-282.14 122.92,-244.34 114,-208 111.99,-199.8 110.47,-196.67 114,-189 119.75,-176.52 130.91,-166.24 141.42,-158.71"/>
<polygon fill="#63b8ff" stroke="#63b8ff" points="143.57,-161.49 149.97,-153.05 139.7,-155.65 143.57,-161.49"/>
</a>
</g>
<g id="a_edge3&#45;headlabel"><a xlink:href="dir_000000_000016.html" target="_top" xlink:title="1">
<text text-anchor="middle" x="142.14" y="-163.34" font-family="Helvetica,sans-Serif" font-size="10.00" fill="#63b8ff">1</text>
</a>
</g>
</g>
<!-- dir_b6cd085f17e89cb6278eb6f5ecd32d39 -->
<g id="node4" class="node">
<title>dir_b6cd085f17e89cb6278eb6f5ecd32d39</title>
<g id="a_node4"><a xlink:href="dir_b6cd085f17e89cb6278eb6f5ecd32d39.html" target="_top" xlink:title="control">
<polygon fill="#4ea9ff" stroke="#404040" points="282,-263 232,-263 232,-244 282,-244 282,-263"/>
<text text-anchor="middle" x="257" y="-251" font-family="Helvetica,sans-Serif" font-size="10.00">control</text>
</a>
</g>
</g>
<!-- dir_98805e936c7cb41c7fc1bd0592aaf3bd&#45;&gt;dir_b6cd085f17e89cb6278eb6f5ecd32d39 -->
<g id="edge5" class="edge">
<title>dir_98805e936c7cb41c7fc1bd0592aaf3bd&#45;&gt;dir_b6cd085f17e89cb6278eb6f5ecd32d39</title>
<g id="a_edge5"><a xlink:href="dir_000000_000020.html" target="_top">
<path fill="none" stroke="#63b8ff" d="M175.51,-298.98C188.03,-290.61 209.91,-277.7 227.95,-267.95"/>
<polygon fill="#63b8ff" stroke="#63b8ff" points="229.77,-270.95 236.96,-263.17 226.49,-264.76 229.77,-270.95"/>
</a>
</g>
<g id="a_edge5&#45;headlabel"><a xlink:href="dir_000000_000020.html" target="_top" xlink:title="1">
<text text-anchor="middle" x="227.92" y="-272.64" font-family="Helvetica,sans-Serif" font-size="10.00" fill="#63b8ff">1</text>
</a>
</g>
</g>
<!-- dir_93f5cc57b76a8a4cabb5571679917938 -->
<g id="node6" class="node">
<title>dir_93f5cc57b76a8a4cabb5571679917938</title>
<g id="a_node6"><a xlink:href="dir_93f5cc57b76a8a4cabb5571679917938.html" target="_top" xlink:title="gpio">
<polygon fill="#4ea9ff" stroke="#404040" points="102,-153 64,-153 64,-134 102,-134 102,-153"/>
<text text-anchor="middle" x="83" y="-141" font-family="Helvetica,sans-Serif" font-size="10.00">gpio</text>
</a>
</g>
</g>
<!-- dir_98805e936c7cb41c7fc1bd0592aaf3bd&#45;&gt;dir_93f5cc57b76a8a4cabb5571679917938 -->
<g id="edge4" class="edge">
<title>dir_98805e936c7cb41c7fc1bd0592aaf3bd&#45;&gt;dir_93f5cc57b76a8a4cabb5571679917938</title>
<g id="a_edge4"><a xlink:href="dir_000000_000022.html" target="_top">
<path fill="none" stroke="#63b8ff" d="M155.43,-298.99C145.78,-290.71 131.72,-277.31 123,-263 103.31,-230.66 91.88,-187.39 86.6,-163.09"/>
<polygon fill="#63b8ff" stroke="#63b8ff" points="89.99,-162.18 84.54,-153.09 83.13,-163.59 89.99,-162.18"/>
</a>
</g>
<g id="a_edge4&#45;headlabel"><a xlink:href="dir_000000_000022.html" target="_top" xlink:title="4">
<text text-anchor="middle" x="93.49" y="-162.63" font-family="Helvetica,sans-Serif" font-size="10.00" fill="#63b8ff">4</text>
</a>
</g>
</g>
<!-- dir_d7b6a63eed36fea2858d2aa41ca33f02 -->
<g id="node7" class="node">
<title>dir_d7b6a63eed36fea2858d2aa41ca33f02</title>
<g id="a_node7"><a xlink:href="dir_d7b6a63eed36fea2858d2aa41ca33f02.html" target="_top" xlink:title="log">
<polygon fill="#4ea9ff" stroke="#404040" points="61,-98 29,-98 29,-79 61,-79 61,-98"/>
<text text-anchor="middle" x="45" y="-86" font-family="Helvetica,sans-Serif" font-size="10.00">log</text>
</a>
</g>
</g>
<!-- dir_98805e936c7cb41c7fc1bd0592aaf3bd&#45;&gt;dir_d7b6a63eed36fea2858d2aa41ca33f02 -->
<g id="edge7" class="edge">
<title>dir_98805e936c7cb41c7fc1bd0592aaf3bd&#45;&gt;dir_d7b6a63eed36fea2858d2aa41ca33f02</title>
<g id="a_edge7"><a xlink:href="dir_000000_000031.html" target="_top">
<path fill="none" stroke="#63b8ff" d="M151.38,-298.77C138.87,-290.72 121.03,-277.81 109,-263 74.66,-220.73 71.42,-204.93 55,-153 50.41,-138.5 47.88,-121.44 46.51,-108.66"/>
<polygon fill="#63b8ff" stroke="#63b8ff" points="49.96,-107.95 45.55,-98.32 42.99,-108.6 49.96,-107.95"/>
</a>
</g>
<g id="a_edge7&#45;headlabel"><a xlink:href="dir_000000_000031.html" target="_top" xlink:title="1">
<text text-anchor="middle" x="53.11" y="-108.77" font-family="Helvetica,sans-Serif" font-size="10.00" fill="#63b8ff">1</text>
</a>
</g>
</g>
<!-- dir_1585cb1296de2c4dde76500afa886952 -->
<g id="node9" class="node">
<title>dir_1585cb1296de2c4dde76500afa886952</title>
<g id="a_node9"><a xlink:href="dir_1585cb1296de2c4dde76500afa886952.html" target="_top" xlink:title="sensor">
<polygon fill="#4ea9ff" stroke="#404040" points="171.5,-208 122.5,-208 122.5,-189 171.5,-189 171.5,-208"/>
<text text-anchor="middle" x="147" y="-196" font-family="Helvetica,sans-Serif" font-size="10.00">sensor</text>
</a>
</g>
</g>
<!-- dir_98805e936c7cb41c7fc1bd0592aaf3bd&#45;&gt;dir_1585cb1296de2c4dde76500afa886952 -->
<g id="edge1" class="edge">
<title>dir_98805e936c7cb41c7fc1bd0592aaf3bd&#45;&gt;dir_1585cb1296de2c4dde76500afa886952</title>
<g id="a_edge1"><a xlink:href="dir_000000_000035.html" target="_top">
<path fill="none" stroke="#63b8ff" d="M164.45,-298.66C161.37,-281.17 154.44,-241.8 150.3,-218.27"/>
<polygon fill="#63b8ff" stroke="#63b8ff" points="153.7,-217.4 148.52,-208.16 146.81,-218.61 153.7,-217.4"/>
</a>
</g>
<g id="a_edge1&#45;headlabel"><a xlink:href="dir_000000_000035.html" target="_top" xlink:title="1">
<text text-anchor="middle" x="157.12" y="-217.95" font-family="Helvetica,sans-Serif" font-size="10.00" fill="#63b8ff">1</text>
</a>
</g>
</g>
<!-- dir_d33103ac168077bdcd2b65f79896931a -->
<g id="node10" class="node">
<title>dir_d33103ac168077bdcd2b65f79896931a</title>
<g id="a_node10"><a xlink:href="dir_d33103ac168077bdcd2b65f79896931a.html" target="_top" xlink:title="time">
<polygon fill="#4ea9ff" stroke="#404040" points="305.5,-43 266.5,-43 266.5,-24 305.5,-24 305.5,-43"/>
<text text-anchor="middle" x="286" y="-31" font-family="Helvetica,sans-Serif" font-size="10.00">time</text>
</a>
</g>
</g>
<!-- dir_98805e936c7cb41c7fc1bd0592aaf3bd&#45;&gt;dir_d33103ac168077bdcd2b65f79896931a -->
<g id="edge6" class="edge">
<title>dir_98805e936c7cb41c7fc1bd0592aaf3bd&#45;&gt;dir_d33103ac168077bdcd2b65f79896931a</title>
<g id="a_edge6"><a xlink:href="dir_000000_000037.html" target="_top">
<path fill="none" stroke="#63b8ff" d="M194.51,-303.26C244.09,-294.11 341,-267.51 341,-199.5 341,-199.5 341,-199.5 341,-142.5 341,-106.94 317.03,-71.27 300.74,-51.12"/>
<polygon fill="#63b8ff" stroke="#63b8ff" points="303.23,-48.65 294.12,-43.25 297.88,-53.16 303.23,-48.65"/>
</a>
</g>
<g id="a_edge6&#45;headlabel"><a xlink:href="dir_000000_000037.html" target="_top" xlink:title="3">
<text text-anchor="middle" x="307.72" y="-47.07" font-family="Helvetica,sans-Serif" font-size="10.00" fill="#63b8ff">3</text>
</a>
</g>
</g>
<!-- dir_232aac153d804cfbbc85dc0a0fa07463 -->
<g id="node13" class="node">
<title>dir_232aac153d804cfbbc85dc0a0fa07463</title>
<g id="a_node13"><a xlink:href="dir_232aac153d804cfbbc85dc0a0fa07463.html" target="_top" xlink:title="util">
<polygon fill="#4ea9ff" stroke="#404040" points="302,-153 270,-153 270,-134 302,-134 302,-153"/>
<text text-anchor="middle" x="286" y="-141" font-family="Helvetica,sans-Serif" font-size="10.00">util</text>
</a>
</g>
</g>
<!-- dir_98805e936c7cb41c7fc1bd0592aaf3bd&#45;&gt;dir_232aac153d804cfbbc85dc0a0fa07463 -->
<g id="edge2" class="edge">
<title>dir_98805e936c7cb41c7fc1bd0592aaf3bd&#45;&gt;dir_232aac153d804cfbbc85dc0a0fa07463</title>
<g id="a_edge2"><a xlink:href="dir_000000_000043.html" target="_top">
<path fill="none" stroke="#63b8ff" d="M173.73,-298.91C192.12,-278.42 237.88,-226.96 251,-208 261.17,-193.3 270.83,-175.36 277.42,-162.31"/>
<polygon fill="#63b8ff" stroke="#63b8ff" points="280.7,-163.56 281.99,-153.04 274.42,-160.46 280.7,-163.56"/>
</a>
</g>
<g id="a_edge2&#45;headlabel"><a xlink:href="dir_000000_000043.html" target="_top" xlink:title="7">
<text text-anchor="middle" x="281.66" y="-165.54" font-family="Helvetica,sans-Serif" font-size="10.00" fill="#63b8ff">7</text>
</a>
</g>
</g>
<!-- dir_5bbbaec82e60c1c95ef5795854749336&#45;&gt;dir_d7b6a63eed36fea2858d2aa41ca33f02 -->
<g id="edge9" class="edge">
<title>dir_5bbbaec82e60c1c95ef5795854749336&#45;&gt;dir_d7b6a63eed36fea2858d2aa41ca33f02</title>
<g id="a_edge9"><a xlink:href="dir_000016_000031.html" target="_top">
<path fill="none" stroke="#63b8ff" d="M146.56,-133.98C125.96,-124.96 93.33,-110.67 70.64,-100.73"/>
<polygon fill="#63b8ff" stroke="#63b8ff" points="71.85,-97.44 61.29,-96.63 69.04,-103.85 71.85,-97.44"/>
</a>
</g>
<g id="a_edge9&#45;headlabel"><a xlink:href="dir_000016_000031.html" target="_top" xlink:title="2">
<text text-anchor="middle" x="76.29" y="-93.78" font-family="Helvetica,sans-Serif" font-size="10.00" fill="#63b8ff">2</text>
</a>
</g>
</g>
<!-- dir_28f821d546ace6ab9b8c5a81f47cb6c0 -->
<g id="node12" class="node">
<title>dir_28f821d546ace6ab9b8c5a81f47cb6c0</title>
<g id="a_node12"><a xlink:href="dir_28f821d546ace6ab9b8c5a81f47cb6c0.html" target="_top" xlink:title="type">
<polygon fill="#4ea9ff" stroke="#404040" points="198,-98 160,-98 160,-79 198,-79 198,-98"/>
<text text-anchor="middle" x="179" y="-86" font-family="Helvetica,sans-Serif" font-size="10.00">type</text>
</a>
</g>
</g>
<!-- dir_5bbbaec82e60c1c95ef5795854749336&#45;&gt;dir_28f821d546ace6ab9b8c5a81f47cb6c0 -->
<g id="edge8" class="edge">
<title>dir_5bbbaec82e60c1c95ef5795854749336&#45;&gt;dir_28f821d546ace6ab9b8c5a81f47cb6c0</title>
<g id="a_edge8"><a xlink:href="dir_000016_000040.html" target="_top">
<path fill="none" stroke="#63b8ff" d="M168.15,-133.75C169.87,-126.72 172.35,-116.62 174.5,-107.84"/>
<polygon fill="#63b8ff" stroke="#63b8ff" points="177.91,-108.63 176.89,-98.09 171.11,-106.97 177.91,-108.63"/>
</a>
</g>
<g id="a_edge8&#45;headlabel"><a xlink:href="dir_000016_000040.html" target="_top" xlink:title="2">
<text text-anchor="middle" x="179.81" y="-110.3" font-family="Helvetica,sans-Serif" font-size="10.00" fill="#63b8ff">2</text>
</a>
</g>
</g>
<!-- dir_b6cd085f17e89cb6278eb6f5ecd32d39&#45;&gt;dir_98805e936c7cb41c7fc1bd0592aaf3bd -->
<g id="edge12" class="edge">
<title>dir_b6cd085f17e89cb6278eb6f5ecd32d39&#45;&gt;dir_98805e936c7cb41c7fc1bd0592aaf3bd</title>
<g id="a_edge12"><a xlink:href="dir_000020_000000.html" target="_top">
<path fill="none" stroke="#63b8ff" d="M247.26,-263.17C234.62,-271.6 212.71,-284.51 194.72,-294.23"/>
<polygon fill="#63b8ff" stroke="#63b8ff" points="192.94,-291.21 185.74,-298.98 196.21,-297.4 192.94,-291.21"/>
</a>
</g>
<g id="a_edge12&#45;headlabel"><a xlink:href="dir_000020_000000.html" target="_top" xlink:title="4">
<text text-anchor="middle" x="194.79" y="-284.52" font-family="Helvetica,sans-Serif" font-size="10.00" fill="#63b8ff">4</text>
</a>
</g>
</g>
<!-- dir_b6cd085f17e89cb6278eb6f5ecd32d39&#45;&gt;dir_1585cb1296de2c4dde76500afa886952 -->
<g id="edge10" class="edge">
<title>dir_b6cd085f17e89cb6278eb6f5ecd32d39&#45;&gt;dir_1585cb1296de2c4dde76500afa886952</title>
<g id="a_edge10"><a xlink:href="dir_000020_000035.html" target="_top">
<path fill="none" stroke="#63b8ff" d="M234.21,-243.98C214.99,-235.61 187.92,-222.7 168.94,-212.95"/>
<polygon fill="#63b8ff" stroke="#63b8ff" points="170.33,-209.72 159.85,-208.17 167.07,-215.92 170.33,-209.72"/>
</a>
</g>
<g id="a_edge10&#45;headlabel"><a xlink:href="dir_000020_000035.html" target="_top" xlink:title="4">
<text text-anchor="middle" x="174.83" y="-206.38" font-family="Helvetica,sans-Serif" font-size="10.00" fill="#63b8ff">4</text>
</a>
</g>
</g>
<!-- dir_b6cd085f17e89cb6278eb6f5ecd32d39&#45;&gt;dir_d33103ac168077bdcd2b65f79896931a -->
<g id="edge13" class="edge">
<title>dir_b6cd085f17e89cb6278eb6f5ecd32d39&#45;&gt;dir_d33103ac168077bdcd2b65f79896931a</title>
<g id="a_edge13"><a xlink:href="dir_000020_000037.html" target="_top">
<path fill="none" stroke="#63b8ff" d="M263.7,-243.81C275.98,-227.26 301.71,-189.58 311,-153 319.97,-117.65 305.31,-75.81 294.92,-52.5"/>
<polygon fill="#63b8ff" stroke="#63b8ff" points="297.97,-50.75 290.55,-43.18 291.63,-53.72 297.97,-50.75"/>
</a>
</g>
<g id="a_edge13&#45;headlabel"><a xlink:href="dir_000020_000037.html" target="_top" xlink:title="4">
<text text-anchor="middle" x="302.07" y="-50.29" font-family="Helvetica,sans-Serif" font-size="10.00" fill="#63b8ff">4</text>
</a>
</g>
</g>
<!-- dir_b6cd085f17e89cb6278eb6f5ecd32d39&#45;&gt;dir_232aac153d804cfbbc85dc0a0fa07463 -->
<g id="edge11" class="edge">
<title>dir_b6cd085f17e89cb6278eb6f5ecd32d39&#45;&gt;dir_232aac153d804cfbbc85dc0a0fa07463</title>
<g id="a_edge11"><a xlink:href="dir_000020_000043.html" target="_top">
<path fill="none" stroke="#63b8ff" d="M259.37,-243.66C264.09,-226.09 274.74,-186.45 281.04,-162.95"/>
<polygon fill="#63b8ff" stroke="#63b8ff" points="284.46,-163.72 283.68,-153.16 277.7,-161.91 284.46,-163.72"/>
</a>
</g>
<g id="a_edge11&#45;headlabel"><a xlink:href="dir_000020_000043.html" target="_top" xlink:title="4">
<text text-anchor="middle" x="286.27" y="-165.43" font-family="Helvetica,sans-Serif" font-size="10.00" fill="#63b8ff">4</text>
</a>
</g>
</g>
<!-- dir_6e7e3cd4d824912fe9b1604270114a68 -->
<g id="node5" class="node">
<title>dir_6e7e3cd4d824912fe9b1604270114a68</title>
<g id="a_node5"><a xlink:href="dir_6e7e3cd4d824912fe9b1604270114a68.html" target="_top" xlink:title="display">
<polygon fill="#4ea9ff" stroke="#404040" points="242,-208 190,-208 190,-189 242,-189 242,-208"/>
<text text-anchor="middle" x="216" y="-196" font-family="Helvetica,sans-Serif" font-size="10.00">display</text>
</a>
</g>
</g>
<!-- dir_6e7e3cd4d824912fe9b1604270114a68&#45;&gt;dir_5bbbaec82e60c1c95ef5795854749336 -->
<g id="edge15" class="edge">
<title>dir_6e7e3cd4d824912fe9b1604270114a68&#45;&gt;dir_5bbbaec82e60c1c95ef5795854749336</title>
<g id="a_edge15"><a xlink:href="dir_000021_000016.html" target="_top">
<path fill="none" stroke="#63b8ff" d="M207.74,-188.75C200.54,-181.11 189.89,-169.82 181.15,-160.56"/>
<polygon fill="#63b8ff" stroke="#63b8ff" points="183.51,-157.96 174.1,-153.09 178.42,-162.76 183.51,-157.96"/>
</a>
</g>
<g id="a_edge15&#45;headlabel"><a xlink:href="dir_000021_000016.html" target="_top" xlink:title="1">
<text text-anchor="middle" x="188.04" y="-156.13" font-family="Helvetica,sans-Serif" font-size="10.00" fill="#63b8ff">1</text>
</a>
</g>
</g>
<!-- dir_6e7e3cd4d824912fe9b1604270114a68&#45;&gt;dir_d33103ac168077bdcd2b65f79896931a -->
<g id="edge16" class="edge">
<title>dir_6e7e3cd4d824912fe9b1604270114a68&#45;&gt;dir_d33103ac168077bdcd2b65f79896931a</title>
<g id="a_edge16"><a xlink:href="dir_000021_000037.html" target="_top">
<path fill="none" stroke="#63b8ff" d="M219.89,-189C223.97,-180.06 230.52,-165.58 236,-153 251.47,-117.5 268.93,-75.71 278.58,-52.45"/>
<polygon fill="#63b8ff" stroke="#63b8ff" points="281.84,-53.73 282.43,-43.15 275.37,-51.05 281.84,-53.73"/>
</a>
</g>
<g id="a_edge16&#45;headlabel"><a xlink:href="dir_000021_000037.html" target="_top" xlink:title="1">
<text text-anchor="middle" x="283.08" y="-55.64" font-family="Helvetica,sans-Serif" font-size="10.00" fill="#63b8ff">1</text>
</a>
</g>
</g>
<!-- dir_6e7e3cd4d824912fe9b1604270114a68&#45;&gt;dir_232aac153d804cfbbc85dc0a0fa07463 -->
<g id="edge14" class="edge">
<title>dir_6e7e3cd4d824912fe9b1604270114a68&#45;&gt;dir_232aac153d804cfbbc85dc0a0fa07463</title>
<g id="a_edge14"><a xlink:href="dir_000021_000043.html" target="_top">
<path fill="none" stroke="#63b8ff" d="M227.25,-188.98C237.8,-181 253.8,-168.88 266.44,-159.31"/>
<polygon fill="#63b8ff" stroke="#63b8ff" points="268.69,-162 274.55,-153.17 264.46,-156.42 268.69,-162"/>
</a>
</g>
<g id="a_edge14&#45;headlabel"><a xlink:href="dir_000021_000043.html" target="_top" xlink:title="1">
<text text-anchor="middle" x="267.54" y="-163.93" font-family="Helvetica,sans-Serif" font-size="10.00" fill="#63b8ff">1</text>
</a>
</g>
</g>
<!-- dir_04517956a249c5a3c73c0c786c61cfd1 -->
<g id="node8" class="node">
<title>dir_04517956a249c5a3c73c0c786c61cfd1</title>
<g id="a_node8"><a xlink:href="dir_04517956a249c5a3c73c0c786c61cfd1.html" target="_top" xlink:title="robot">
<polygon fill="#4ea9ff" stroke="#404040" points="300,-318 258,-318 258,-299 300,-299 300,-318"/>
<text text-anchor="middle" x="279" y="-306" font-family="Helvetica,sans-Serif" font-size="10.00">robot</text>
</a>
</g>
</g>
<!-- dir_04517956a249c5a3c73c0c786c61cfd1&#45;&gt;dir_b6cd085f17e89cb6278eb6f5ecd32d39 -->
<g id="edge18" class="edge">
<title>dir_04517956a249c5a3c73c0c786c61cfd1&#45;&gt;dir_b6cd085f17e89cb6278eb6f5ecd32d39</title>
<g id="a_edge18"><a xlink:href="dir_000034_000020.html" target="_top">
<path fill="none" stroke="#63b8ff" d="M275.37,-298.75C272.42,-291.65 268.17,-281.4 264.49,-272.56"/>
<polygon fill="#63b8ff" stroke="#63b8ff" points="267.63,-270.98 260.57,-263.09 261.17,-273.67 267.63,-270.98"/>
</a>
</g>
<g id="a_edge18&#45;headlabel"><a xlink:href="dir_000034_000020.html" target="_top" xlink:title="1">
<text text-anchor="middle" x="271.63" y="-270.71" font-family="Helvetica,sans-Serif" font-size="10.00" fill="#63b8ff">1</text>
</a>
</g>
</g>
<!-- dir_04517956a249c5a3c73c0c786c61cfd1&#45;&gt;dir_232aac153d804cfbbc85dc0a0fa07463 -->
<g id="edge17" class="edge">
<title>dir_04517956a249c5a3c73c0c786c61cfd1&#45;&gt;dir_232aac153d804cfbbc85dc0a0fa07463</title>
<g id="a_edge17"><a xlink:href="dir_000034_000043.html" target="_top">
<path fill="none" stroke="#63b8ff" d="M282.09,-298.77C285.05,-289.9 289.32,-275.69 291,-263 295.65,-227.92 291.8,-186.53 288.77,-163.11"/>
<polygon fill="#63b8ff" stroke="#63b8ff" points="292.23,-162.59 287.39,-153.17 285.3,-163.56 292.23,-162.59"/>
</a>
</g>
<g id="a_edge17&#45;headlabel"><a xlink:href="dir_000034_000043.html" target="_top" xlink:title="1">
<text text-anchor="middle" x="295.54" y="-163.26" font-family="Helvetica,sans-Serif" font-size="10.00" fill="#63b8ff">1</text>
</a>
</g>
</g>
<!-- dir_1585cb1296de2c4dde76500afa886952&#45;&gt;dir_5bbbaec82e60c1c95ef5795854749336 -->
<g id="edge20" class="edge">
<title>dir_1585cb1296de2c4dde76500afa886952&#45;&gt;dir_5bbbaec82e60c1c95ef5795854749336</title>
<g id="a_edge20"><a xlink:href="dir_000035_000016.html" target="_top">
<path fill="none" stroke="#63b8ff" d="M150.14,-188.75C152.68,-181.65 156.36,-171.4 159.53,-162.56"/>
<polygon fill="#63b8ff" stroke="#63b8ff" points="162.84,-163.68 162.92,-153.09 156.25,-161.32 162.84,-163.68"/>
</a>
</g>
<g id="a_edge20&#45;headlabel"><a xlink:href="dir_000035_000016.html" target="_top" xlink:title="4">
<text text-anchor="middle" x="164.3" y="-165.53" font-family="Helvetica,sans-Serif" font-size="10.00" fill="#63b8ff">4</text>
</a>
</g>
</g>
<!-- dir_1585cb1296de2c4dde76500afa886952&#45;&gt;dir_b6cd085f17e89cb6278eb6f5ecd32d39 -->
<g id="edge22" class="edge">
<title>dir_1585cb1296de2c4dde76500afa886952&#45;&gt;dir_b6cd085f17e89cb6278eb6f5ecd32d39</title>
<g id="a_edge22"><a xlink:href="dir_000035_000020.html" target="_top">
<path fill="none" stroke="#63b8ff" d="M170.14,-208.17C189.46,-216.6 216.53,-229.51 235.4,-239.23"/>
<polygon fill="#63b8ff" stroke="#63b8ff" points="233.96,-242.43 244.44,-243.98 237.22,-236.23 233.96,-242.43"/>
</a>
</g>
<g id="a_edge22&#45;headlabel"><a xlink:href="dir_000035_000020.html" target="_top" xlink:title="2">
<text text-anchor="middle" x="229.46" y="-240.77" font-family="Helvetica,sans-Serif" font-size="10.00" fill="#63b8ff">2</text>
</a>
</g>
</g>
<!-- dir_1585cb1296de2c4dde76500afa886952&#45;&gt;dir_93f5cc57b76a8a4cabb5571679917938 -->
<g id="edge21" class="edge">
<title>dir_1585cb1296de2c4dde76500afa886952&#45;&gt;dir_93f5cc57b76a8a4cabb5571679917938</title>
<g id="a_edge21"><a xlink:href="dir_000035_000022.html" target="_top">
<path fill="none" stroke="#63b8ff" d="M136.72,-188.98C127.16,-181.07 112.72,-169.11 101.22,-159.58"/>
<polygon fill="#63b8ff" stroke="#63b8ff" points="103.4,-156.85 93.47,-153.17 98.94,-162.24 103.4,-156.85"/>
</a>
</g>
<g id="a_edge21&#45;headlabel"><a xlink:href="dir_000035_000022.html" target="_top" xlink:title="3">
<text text-anchor="middle" x="107.98" y="-154.46" font-family="Helvetica,sans-Serif" font-size="10.00" fill="#63b8ff">3</text>
</a>
</g>
</g>
<!-- dir_1585cb1296de2c4dde76500afa886952&#45;&gt;dir_d33103ac168077bdcd2b65f79896931a -->
<g id="edge23" class="edge">
<title>dir_1585cb1296de2c4dde76500afa886952&#45;&gt;dir_d33103ac168077bdcd2b65f79896931a</title>
<g id="a_edge23"><a xlink:href="dir_000035_000037.html" target="_top">
<path fill="none" stroke="#63b8ff" d="M168.16,-188.95C184.39,-181.49 206.4,-169.31 221,-153 245.14,-126.03 237.03,-110.42 255,-79 260.43,-69.5 267.33,-59.45 273.23,-51.31"/>
<polygon fill="#63b8ff" stroke="#63b8ff" points="276.2,-53.18 279.35,-43.06 270.58,-49.01 276.2,-53.18"/>
</a>
</g>
<g id="a_edge23&#45;headlabel"><a xlink:href="dir_000035_000037.html" target="_top" xlink:title="2">
<text text-anchor="middle" x="276.34" y="-55.26" font-family="Helvetica,sans-Serif" font-size="10.00" fill="#63b8ff">2</text>
</a>
</g>
</g>
<!-- dir_1585cb1296de2c4dde76500afa886952&#45;&gt;dir_232aac153d804cfbbc85dc0a0fa07463 -->
<g id="edge19" class="edge">
<title>dir_1585cb1296de2c4dde76500afa886952&#45;&gt;dir_232aac153d804cfbbc85dc0a0fa07463</title>
<g id="a_edge19"><a xlink:href="dir_000035_000043.html" target="_top">
<path fill="none" stroke="#63b8ff" d="M169.33,-188.98C194.13,-179.53 234.09,-164.29 260.2,-154.34"/>
<polygon fill="#63b8ff" stroke="#63b8ff" points="261.71,-157.51 269.8,-150.68 259.21,-150.97 261.71,-157.51"/>
</a>
</g>
<g id="a_edge19&#45;headlabel"><a xlink:href="dir_000035_000043.html" target="_top" xlink:title="2">
<text text-anchor="middle" x="259.36" y="-158.94" font-family="Helvetica,sans-Serif" font-size="10.00" fill="#63b8ff">2</text>
</a>
</g>
</g>
<!-- dir_e283d847d757715a6276040929a86eab -->
<g id="node11" class="node">
<title>dir_e283d847d757715a6276040929a86eab</title>
<g id="a_node11"><a xlink:href="dir_e283d847d757715a6276040929a86eab.html" target="_top" xlink:title="tool">
<polygon fill="#4ea9ff" stroke="#404040" points="183.5,-373 148.5,-373 148.5,-354 183.5,-354 183.5,-373"/>
<text text-anchor="middle" x="166" y="-361" font-family="Helvetica,sans-Serif" font-size="10.00">tool</text>
</a>
</g>
</g>
<!-- dir_e283d847d757715a6276040929a86eab&#45;&gt;dir_98805e936c7cb41c7fc1bd0592aaf3bd -->
<g id="edge25" class="edge">
<title>dir_e283d847d757715a6276040929a86eab&#45;&gt;dir_98805e936c7cb41c7fc1bd0592aaf3bd</title>
<g id="a_edge25"><a xlink:href="dir_000039_000000.html" target="_top">
<path fill="none" stroke="#63b8ff" d="M166,-353.75C166,-346.8 166,-336.85 166,-328.13"/>
<polygon fill="#63b8ff" stroke="#63b8ff" points="169.5,-328.09 166,-318.09 162.5,-328.09 169.5,-328.09"/>
</a>
</g>
<g id="a_edge25&#45;headlabel"><a xlink:href="dir_000039_000000.html" target="_top" xlink:title="1">
<text text-anchor="middle" x="172.34" y="-329.18" font-family="Helvetica,sans-Serif" font-size="10.00" fill="#63b8ff">1</text>
</a>
</g>
</g>
<!-- dir_e283d847d757715a6276040929a86eab&#45;&gt;dir_b6cd085f17e89cb6278eb6f5ecd32d39 -->
<g id="edge26" class="edge">
<title>dir_e283d847d757715a6276040929a86eab&#45;&gt;dir_b6cd085f17e89cb6278eb6f5ecd32d39</title>
<g id="a_edge26"><a xlink:href="dir_000039_000020.html" target="_top">
<path fill="none" stroke="#63b8ff" d="M173.31,-353.99C180.99,-345.06 193.38,-330.58 204,-318 217.4,-302.13 232.57,-283.93 243.24,-271.09"/>
<polygon fill="#63b8ff" stroke="#63b8ff" points="246.13,-273.08 249.83,-263.15 240.75,-268.61 246.13,-273.08"/>
</a>
</g>
<g id="a_edge26&#45;headlabel"><a xlink:href="dir_000039_000020.html" target="_top" xlink:title="2">
<text text-anchor="middle" x="246.02" y="-275.16" font-family="Helvetica,sans-Serif" font-size="10.00" fill="#63b8ff">2</text>
</a>
</g>
</g>
<!-- dir_e283d847d757715a6276040929a86eab&#45;&gt;dir_d7b6a63eed36fea2858d2aa41ca33f02 -->
<g id="edge28" class="edge">
<title>dir_e283d847d757715a6276040929a86eab&#45;&gt;dir_d7b6a63eed36fea2858d2aa41ca33f02</title>
<g id="a_edge28"><a xlink:href="dir_000039_000031.html" target="_top">
<path fill="none" stroke="#63b8ff" d="M148.43,-358.03C110.63,-347.24 25,-316.02 25,-254.5 25,-254.5 25,-254.5 25,-197.5 25,-165.51 33.59,-129.07 39.51,-107.75"/>
<polygon fill="#63b8ff" stroke="#63b8ff" points="42.89,-108.66 42.3,-98.08 36.16,-106.71 42.89,-108.66"/>
</a>
</g>
<g id="a_edge28&#45;headlabel"><a xlink:href="dir_000039_000031.html" target="_top" xlink:title="1">
<text text-anchor="middle" x="44.62" y="-110.4" font-family="Helvetica,sans-Serif" font-size="10.00" fill="#63b8ff">1</text>
</a>
</g>
</g>
<!-- dir_e283d847d757715a6276040929a86eab&#45;&gt;dir_1585cb1296de2c4dde76500afa886952 -->
<g id="edge24" class="edge">
<title>dir_e283d847d757715a6276040929a86eab&#45;&gt;dir_1585cb1296de2c4dde76500afa886952</title>
<g id="a_edge24"><a xlink:href="dir_000039_000035.html" target="_top">
<path fill="none" stroke="#63b8ff" d="M155.56,-353.87C146.58,-345.7 134.26,-332.55 129,-318 116.67,-283.89 129.48,-241.29 138.9,-217.58"/>
<polygon fill="#63b8ff" stroke="#63b8ff" points="142.24,-218.69 142.9,-208.11 135.79,-215.97 142.24,-218.69"/>
</a>
</g>
<g id="a_edge24&#45;headlabel"><a xlink:href="dir_000039_000035.html" target="_top" xlink:title="1">
<text text-anchor="middle" x="143.46" y="-220.6" font-family="Helvetica,sans-Serif" font-size="10.00" fill="#63b8ff">1</text>
</a>
</g>
</g>
<!-- dir_e283d847d757715a6276040929a86eab&#45;&gt;dir_d33103ac168077bdcd2b65f79896931a -->
<g id="edge27" class="edge">
<title>dir_e283d847d757715a6276040929a86eab&#45;&gt;dir_d33103ac168077bdcd2b65f79896931a</title>
<g id="a_edge27"><a xlink:href="dir_000039_000037.html" target="_top">
<path fill="none" stroke="#63b8ff" d="M183.65,-361.06C231.65,-356.08 361,-335.19 361,-254.5 361,-254.5 361,-254.5 361,-142.5 361,-103.64 327.83,-68.7 305.61,-49.65"/>
<polygon fill="#63b8ff" stroke="#63b8ff" points="307.66,-46.81 297.72,-43.16 303.21,-52.22 307.66,-46.81"/>
</a>
</g>
<g id="a_edge27&#45;headlabel"><a xlink:href="dir_000039_000037.html" target="_top" xlink:title="2">
<text text-anchor="middle" x="312.24" y="-44.41" font-family="Helvetica,sans-Serif" font-size="10.00" fill="#63b8ff">2</text>
</a>
</g>
</g>
<!-- dir_28f821d546ace6ab9b8c5a81f47cb6c0&#45;&gt;dir_d33103ac168077bdcd2b65f79896931a -->
<g id="edge29" class="edge">
<title>dir_28f821d546ace6ab9b8c5a81f47cb6c0&#45;&gt;dir_d33103ac168077bdcd2b65f79896931a</title>
<g id="a_edge29"><a xlink:href="dir_000040_000037.html" target="_top">
<path fill="none" stroke="#63b8ff" d="M196.19,-78.98C213.25,-70.54 239.63,-57.47 259.4,-47.68"/>
<polygon fill="#63b8ff" stroke="#63b8ff" points="261.09,-50.75 268.5,-43.17 257.98,-44.47 261.09,-50.75"/>
</a>
</g>
<g id="a_edge29&#45;headlabel"><a xlink:href="dir_000040_000037.html" target="_top" xlink:title="1">
<text text-anchor="middle" x="259.13" y="-52.39" font-family="Helvetica,sans-Serif" font-size="10.00" fill="#63b8ff">1</text>
</a>
</g>
</g>
</g>
</svg>
