<?xml version="1.0" encoding="UTF-8" standalone="no"?>
<!DOCTYPE svg PUBLIC "-//W3C//DTD SVG 1.1//EN"
 "http://www.w3.org/Graphics/SVG/1.1/DTD/svg11.dtd">
<!-- Generated by graphviz version 2.43.0 (0)
 -->
<!-- Title: alps_common_lib/include/alps_cmn/robotics Pages: 1 -->
<svg width="114pt" height="239pt"
 viewBox="0.00 0.00 114.00 239.00" xmlns="http://www.w3.org/2000/svg" xmlns:xlink="http://www.w3.org/1999/xlink">
<g id="graph0" class="graph" transform="scale(1 1) rotate(0) translate(4 235)">
<title>alps_common_lib/include/alps_cmn/robotics</title>
<polygon fill="white" stroke="transparent" points="-4,4 -4,-235 110,-235 110,4 -4,4"/>
<g id="clust1" class="cluster">
<title>clusterdir_cc648f72f51f156e42f9863c0e5bf5fb</title>
<g id="a_clust1"><a xlink:href="dir_cc648f72f51f156e42f9863c0e5bf5fb.html" target="_top" xlink:title="alps_cmn">
<polygon fill="#ddddee" stroke="black" points="8,-8 8,-223 98,-223 98,-8 8,-8"/>
<text text-anchor="middle" x="53" y="-211" font-family="Helvetica,sans-Serif" font-size="10.00">alps_cmn</text>
</a>
</g>
</g>
<!-- dir_26247a4c7d21a73996b8a7832c1a1463 -->
<g id="node1" class="node">
<title>dir_26247a4c7d21a73996b8a7832c1a1463</title>
<g id="a_node1"><a xlink:href="dir_26247a4c7d21a73996b8a7832c1a1463.html" target="_top" xlink:title="util">
<polygon fill="none" stroke="black" points="80,-52 26,-52 26,-16 80,-16 80,-52"/>
<text text-anchor="middle" x="53" y="-31.5" font-family="Helvetica,sans-Serif" font-size="10.00">util</text>
</a>
</g>
</g>
<!-- dir_83658e075a4ab7b2cbb8779471289882 -->
<g id="node2" class="node">
<title>dir_83658e075a4ab7b2cbb8779471289882</title>
<g id="a_node2"><a xlink:href="dir_83658e075a4ab7b2cbb8779471289882.html" target="_top" xlink:title="control">
<polygon fill="none" stroke="black" points="90,-124 36,-124 36,-88 90,-88 90,-124"/>
<text text-anchor="middle" x="63" y="-103.5" font-family="Helvetica,sans-Serif" font-size="10.00">control</text>
</a>
</g>
</g>
<!-- dir_83658e075a4ab7b2cbb8779471289882&#45;&gt;dir_26247a4c7d21a73996b8a7832c1a1463 -->
<g id="edge1" class="edge">
<title>dir_83658e075a4ab7b2cbb8779471289882&#45;&gt;dir_26247a4c7d21a73996b8a7832c1a1463</title>
<path fill="none" stroke="black" d="M60.53,-87.7C59.43,-79.98 58.1,-70.71 56.87,-62.11"/>
<polygon fill="black" stroke="black" points="60.32,-61.51 55.44,-52.1 53.39,-62.5 60.32,-61.51"/>
<g id="a_edge1&#45;headlabel"><a xlink:href="dir_000009_000028.html" target="_top" xlink:title="2">
<text text-anchor="middle" x="63.64" y="-62.17" font-family="Helvetica,sans-Serif" font-size="10.00">2</text>
</a>
</g>
</g>
<!-- dir_699f9106423e7a7cab26b00d3847951b -->
<g id="node3" class="node">
<title>dir_699f9106423e7a7cab26b00d3847951b</title>
<g id="a_node3"><a xlink:href="dir_699f9106423e7a7cab26b00d3847951b.html" target="_top" xlink:title="robotics">
<polygon fill="#eeeeff" stroke="black" points="81,-196 25,-196 25,-160 81,-160 81,-196"/>
<text text-anchor="middle" x="53" y="-175.5" font-family="Helvetica,sans-Serif" font-size="10.00">robotics</text>
</a>
</g>
</g>
<!-- dir_699f9106423e7a7cab26b00d3847951b&#45;&gt;dir_26247a4c7d21a73996b8a7832c1a1463 -->
<g id="edge2" class="edge">
<title>dir_699f9106423e7a7cab26b00d3847951b&#45;&gt;dir_26247a4c7d21a73996b8a7832c1a1463</title>
<path fill="none" stroke="black" d="M41.95,-159.61C36.26,-149.62 29.92,-136.58 27,-124 23.38,-108.41 23.38,-103.59 27,-88 29.1,-78.96 32.97,-69.68 37.09,-61.47"/>
<polygon fill="black" stroke="black" points="40.31,-62.86 41.95,-52.39 34.14,-59.55 40.31,-62.86"/>
<g id="a_edge2&#45;headlabel"><a xlink:href="dir_000024_000028.html" target="_top" xlink:title="1">
<text text-anchor="middle" x="41.12" y="-64.87" font-family="Helvetica,sans-Serif" font-size="10.00">1</text>
</a>
</g>
</g>
<!-- dir_699f9106423e7a7cab26b00d3847951b&#45;&gt;dir_83658e075a4ab7b2cbb8779471289882 -->
<g id="edge3" class="edge">
<title>dir_699f9106423e7a7cab26b00d3847951b&#45;&gt;dir_83658e075a4ab7b2cbb8779471289882</title>
<path fill="none" stroke="black" d="M55.47,-159.7C56.57,-151.98 57.9,-142.71 59.13,-134.11"/>
<polygon fill="black" stroke="black" points="62.61,-134.5 60.56,-124.1 55.68,-133.51 62.61,-134.5"/>
<g id="a_edge3&#45;headlabel"><a xlink:href="dir_000024_000009.html" target="_top" xlink:title="1">
<text text-anchor="middle" x="64.91" y="-135.96" font-family="Helvetica,sans-Serif" font-size="10.00">1</text>
</a>
</g>
</g>
</g>
</svg>
