<?xml version="1.0" encoding="UTF-8" standalone="no"?>
<!DOCTYPE svg PUBLIC "-//W3C//DTD SVG 1.1//EN"
 "http://www.w3.org/Graphics/SVG/1.1/DTD/svg11.dtd">
<!-- Generated by graphviz version 2.43.0 (0)
 -->
<!-- Title: alps_common_lib/include/alps_cmn Pages: 1 -->
<svg width="331pt" height="259pt"
 viewBox="0.00 0.00 331.00 259.00" xmlns="http://www.w3.org/2000/svg" xmlns:xlink="http://www.w3.org/1999/xlink">
<g id="graph0" class="graph" transform="scale(1 1) rotate(0) translate(4 255)">
<title>alps_common_lib/include/alps_cmn</title>
<g id="clust1" class="cluster">
<title>clusterdir_ce1e71e2103ac83e6d6cc720a9feeeb7</title>
<g id="a_clust1"><a xlink:href="dir_ce1e71e2103ac83e6d6cc720a9feeeb7.html" target="_top" xlink:title="include">
<polygon fill="#daedff" stroke="#7f7f7f" stroke-dasharray="5,2" points="8,-8 8,-243 315,-243 315,-8 8,-8"/>
<text text-anchor="middle" x="161.5" y="-231" font-family="Helvetica,sans-Serif" font-size="10.00">include</text>
</a>
</g>
</g>
<g id="clust2" class="cluster">
<title>clusterdir_cc648f72f51f156e42f9863c0e5bf5fb</title>
<g id="a_clust2"><a xlink:href="dir_cc648f72f51f156e42f9863c0e5bf5fb.html" target="_top">
<polygon fill="#daedff" stroke="#404040" stroke-width="2" points="16,-16 16,-216 307,-216 307,-16 16,-16"/>
</a>
</g>
</g>
<!-- dir_cc648f72f51f156e42f9863c0e5bf5fb -->
<g id="node1" class="node">
<title>dir_cc648f72f51f156e42f9863c0e5bf5fb</title>
<text text-anchor="middle" x="267" y="-196" font-family="Helvetica,sans-Serif" font-size="10.00">alps_cmn</text>
</g>
<!-- dir_2239b1117054295ada522fe6d99615b2 -->
<g id="node2" class="node">
<title>dir_2239b1117054295ada522fe6d99615b2</title>
<g id="a_node2"><a xlink:href="dir_2239b1117054295ada522fe6d99615b2.html" target="_top" xlink:title="actuator">
<polygon fill="#4ea9ff" stroke="#404040" points="217.5,-208 160.5,-208 160.5,-189 217.5,-189 217.5,-208"/>
<text text-anchor="middle" x="189" y="-196" font-family="Helvetica,sans-Serif" font-size="10.00">actuator</text>
</a>
</g>
</g>
<!-- dir_76fd7680a09542374d3e212281ba6ee2 -->
<g id="node3" class="node">
<title>dir_76fd7680a09542374d3e212281ba6ee2</title>
<g id="a_node3"><a xlink:href="dir_76fd7680a09542374d3e212281ba6ee2.html" target="_top" xlink:title="communication">
<polygon fill="#4ea9ff" stroke="#404040" points="235,-153 143,-153 143,-134 235,-134 235,-153"/>
<text text-anchor="middle" x="189" y="-141" font-family="Helvetica,sans-Serif" font-size="10.00">communication</text>
</a>
</g>
</g>
<!-- dir_2239b1117054295ada522fe6d99615b2&#45;&gt;dir_76fd7680a09542374d3e212281ba6ee2 -->
<g id="edge1" class="edge">
<title>dir_2239b1117054295ada522fe6d99615b2&#45;&gt;dir_76fd7680a09542374d3e212281ba6ee2</title>
<path fill="none" stroke="#63b8ff" d="M189,-188.75C189,-181.8 189,-171.85 189,-163.13"/>
<polygon fill="#63b8ff" stroke="#63b8ff" points="192.5,-163.09 189,-153.09 185.5,-163.09 192.5,-163.09"/>
<g id="a_edge1&#45;headlabel"><a xlink:href="dir_000000_000014.html" target="_top" xlink:title="1">
<text text-anchor="middle" x="195.34" y="-164.18" font-family="Helvetica,sans-Serif" font-size="10.00" fill="#63b8ff">1</text>
</a>
</g>
</g>
<!-- dir_7913872ef1e9131c7a4facddec50fb6b -->
<g id="node5" class="node">
<title>dir_7913872ef1e9131c7a4facddec50fb6b</title>
<g id="a_node5"><a xlink:href="dir_7913872ef1e9131c7a4facddec50fb6b.html" target="_top" xlink:title="gpio">
<polygon fill="#4ea9ff" stroke="#404040" points="96,-153 58,-153 58,-134 96,-134 96,-153"/>
<text text-anchor="middle" x="77" y="-141" font-family="Helvetica,sans-Serif" font-size="10.00">gpio</text>
</a>
</g>
</g>
<!-- dir_2239b1117054295ada522fe6d99615b2&#45;&gt;dir_7913872ef1e9131c7a4facddec50fb6b -->
<g id="edge2" class="edge">
<title>dir_2239b1117054295ada522fe6d99615b2&#45;&gt;dir_7913872ef1e9131c7a4facddec50fb6b</title>
<path fill="none" stroke="#63b8ff" d="M171.01,-188.98C153.07,-180.5 125.28,-167.35 104.57,-157.54"/>
<polygon fill="#63b8ff" stroke="#63b8ff" points="105.86,-154.28 95.32,-153.17 102.86,-160.61 105.86,-154.28"/>
<g id="a_edge2&#45;headlabel"><a xlink:href="dir_000000_000018.html" target="_top" xlink:title="5">
<text text-anchor="middle" x="110.32" y="-150.76" font-family="Helvetica,sans-Serif" font-size="10.00" fill="#63b8ff">5</text>
</a>
</g>
</g>
<!-- dir_d25f5a637edead84a36f80245f09fecf -->
<g id="node7" class="node">
<title>dir_d25f5a637edead84a36f80245f09fecf</title>
<g id="a_node7"><a xlink:href="dir_d25f5a637edead84a36f80245f09fecf.html" target="_top" xlink:title="type">
<polygon fill="#4ea9ff" stroke="#404040" points="207,-43 169,-43 169,-24 207,-24 207,-43"/>
<text text-anchor="middle" x="188" y="-31" font-family="Helvetica,sans-Serif" font-size="10.00">type</text>
</a>
</g>
</g>
<!-- dir_76fd7680a09542374d3e212281ba6ee2&#45;&gt;dir_d25f5a637edead84a36f80245f09fecf -->
<g id="edge4" class="edge">
<title>dir_76fd7680a09542374d3e212281ba6ee2&#45;&gt;dir_d25f5a637edead84a36f80245f09fecf</title>
<path fill="none" stroke="#63b8ff" d="M186.94,-133.7C184.96,-124.77 182.12,-110.51 181,-98 179.66,-82.94 181.73,-65.92 183.96,-53.3"/>
<polygon fill="#63b8ff" stroke="#63b8ff" points="187.46,-53.6 185.96,-43.12 180.6,-52.25 187.46,-53.6"/>
<g id="a_edge4&#45;headlabel"><a xlink:href="dir_000014_000028.html" target="_top" xlink:title="2">
<text text-anchor="middle" x="189.56" y="-55.18" font-family="Helvetica,sans-Serif" font-size="10.00" fill="#63b8ff">2</text>
</a>
</g>
</g>
<!-- dir_26247a4c7d21a73996b8a7832c1a1463 -->
<g id="node8" class="node">
<title>dir_26247a4c7d21a73996b8a7832c1a1463</title>
<g id="a_node8"><a xlink:href="dir_26247a4c7d21a73996b8a7832c1a1463.html" target="_top" xlink:title="util">
<polygon fill="#4ea9ff" stroke="#404040" points="222,-98 190,-98 190,-79 222,-79 222,-98"/>
<text text-anchor="middle" x="206" y="-86" font-family="Helvetica,sans-Serif" font-size="10.00">util</text>
</a>
</g>
</g>
<!-- dir_76fd7680a09542374d3e212281ba6ee2&#45;&gt;dir_26247a4c7d21a73996b8a7832c1a1463 -->
<g id="edge3" class="edge">
<title>dir_76fd7680a09542374d3e212281ba6ee2&#45;&gt;dir_26247a4c7d21a73996b8a7832c1a1463</title>
<path fill="none" stroke="#63b8ff" d="M191.81,-133.75C194.06,-126.72 197.3,-116.62 200.12,-107.84"/>
<polygon fill="#63b8ff" stroke="#63b8ff" points="203.52,-108.68 203.25,-98.09 196.86,-106.54 203.52,-108.68"/>
<g id="a_edge3&#45;headlabel"><a xlink:href="dir_000014_000029.html" target="_top" xlink:title="1">
<text text-anchor="middle" x="205.13" y="-110.47" font-family="Helvetica,sans-Serif" font-size="10.00" fill="#63b8ff">1</text>
</a>
</g>
</g>
<!-- dir_83658e075a4ab7b2cbb8779471289882 -->
<g id="node4" class="node">
<title>dir_83658e075a4ab7b2cbb8779471289882</title>
<g id="a_node4"><a xlink:href="dir_83658e075a4ab7b2cbb8779471289882.html" target="_top" xlink:title="control">
<polygon fill="#4ea9ff" stroke="#404040" points="142,-208 92,-208 92,-189 142,-189 142,-208"/>
<text text-anchor="middle" x="117" y="-196" font-family="Helvetica,sans-Serif" font-size="10.00">control</text>
</a>
</g>
</g>
<!-- dir_96320550a29baac38dc9eb0ae89f5e73 -->
<g id="node6" class="node">
<title>dir_96320550a29baac38dc9eb0ae89f5e73</title>
<g id="a_node6"><a xlink:href="dir_96320550a29baac38dc9eb0ae89f5e73.html" target="_top" xlink:title="sensor">
<polygon fill="#4ea9ff" stroke="#404040" points="73.5,-208 24.5,-208 24.5,-189 73.5,-189 73.5,-208"/>
<text text-anchor="middle" x="49" y="-196" font-family="Helvetica,sans-Serif" font-size="10.00">sensor</text>
</a>
</g>
</g>
<!-- dir_96320550a29baac38dc9eb0ae89f5e73&#45;&gt;dir_7913872ef1e9131c7a4facddec50fb6b -->
<g id="edge5" class="edge">
<title>dir_96320550a29baac38dc9eb0ae89f5e73&#45;&gt;dir_7913872ef1e9131c7a4facddec50fb6b</title>
<path fill="none" stroke="#63b8ff" d="M53.62,-188.75C57.46,-181.49 63.02,-170.95 67.76,-161.98"/>
<polygon fill="#63b8ff" stroke="#63b8ff" points="70.89,-163.57 72.46,-153.09 64.7,-160.3 70.89,-163.57"/>
<g id="a_edge5&#45;headlabel"><a xlink:href="dir_000026_000018.html" target="_top" xlink:title="2">
<text text-anchor="middle" x="71.72" y="-165.57" font-family="Helvetica,sans-Serif" font-size="10.00" fill="#63b8ff">2</text>
</a>
</g>
</g>
<!-- dir_26247a4c7d21a73996b8a7832c1a1463&#45;&gt;dir_d25f5a637edead84a36f80245f09fecf -->
<g id="edge6" class="edge">
<title>dir_26247a4c7d21a73996b8a7832c1a1463&#45;&gt;dir_d25f5a637edead84a36f80245f09fecf</title>
<path fill="none" stroke="#63b8ff" d="M203.03,-78.75C200.64,-71.72 197.21,-61.62 194.23,-52.84"/>
<polygon fill="#63b8ff" stroke="#63b8ff" points="197.45,-51.43 190.92,-43.09 190.82,-53.68 197.45,-51.43"/>
<g id="a_edge6&#45;headlabel"><a xlink:href="dir_000029_000028.html" target="_top" xlink:title="1">
<text text-anchor="middle" x="201.29" y="-51.42" font-family="Helvetica,sans-Serif" font-size="10.00" fill="#63b8ff">1</text>
</a>
</g>
</g>
</g>
</svg>
