<?xml version="1.0" encoding="UTF-8" standalone="no"?>
<!DOCTYPE svg PUBLIC "-//W3C//DTD SVG 1.1//EN"
 "http://www.w3.org/Graphics/SVG/1.1/DTD/svg11.dtd">
<!-- Generated by graphviz version 2.43.0 (0)
 -->
<!-- Title: alps_common_lib/include/alps_cmn/sensor Pages: 1 -->
<svg width="364pt" height="133pt"
 viewBox="0.00 0.00 364.00 133.00" xmlns="http://www.w3.org/2000/svg" xmlns:xlink="http://www.w3.org/1999/xlink">
<g id="graph0" class="graph" transform="scale(1 1) rotate(0) translate(4 129)">
<title>alps_common_lib/include/alps_cmn/sensor</title>
<g id="clust1" class="cluster">
<title>clusterdir_cc648f72f51f156e42f9863c0e5bf5fb</title>
<g id="a_clust1"><a xlink:href="dir_cc648f72f51f156e42f9863c0e5bf5fb.html" target="_top" xlink:title="alps_cmn">
<polygon fill="#daedff" stroke="#7f7f7f" stroke-dasharray="5,2" points="8,-8 8,-117 348,-117 348,-8 8,-8"/>
<text text-anchor="middle" x="178" y="-105" font-family="Helvetica,sans-Serif" font-size="10.00">alps_cmn</text>
</a>
</g>
</g>
<!-- dir_1367935105ebc251618457953f8d2b80 -->
<g id="node1" class="node">
<title>dir_1367935105ebc251618457953f8d2b80</title>
<g id="a_node1"><a xlink:href="dir_1367935105ebc251618457953f8d2b80.html" target="_top" xlink:title="time">
<polygon fill="#4ea9ff" stroke="#404040" points="55.5,-35 16.5,-35 16.5,-16 55.5,-16 55.5,-35"/>
<text text-anchor="middle" x="36" y="-23" font-family="Helvetica,sans-Serif" font-size="10.00">time</text>
</a>
</g>
</g>
<!-- dir_26247a4c7d21a73996b8a7832c1a1463 -->
<g id="node2" class="node">
<title>dir_26247a4c7d21a73996b8a7832c1a1463</title>
<g id="a_node2"><a xlink:href="dir_26247a4c7d21a73996b8a7832c1a1463.html" target="_top" xlink:title="util">
<polygon fill="#4ea9ff" stroke="#404040" points="106,-35 74,-35 74,-16 106,-16 106,-35"/>
<text text-anchor="middle" x="90" y="-23" font-family="Helvetica,sans-Serif" font-size="10.00">util</text>
</a>
</g>
</g>
<!-- dir_76fd7680a09542374d3e212281ba6ee2 -->
<g id="node3" class="node">
<title>dir_76fd7680a09542374d3e212281ba6ee2</title>
<g id="a_node3"><a xlink:href="dir_76fd7680a09542374d3e212281ba6ee2.html" target="_top" xlink:title="communication">
<polygon fill="#4ea9ff" stroke="#404040" points="216,-35 124,-35 124,-16 216,-16 216,-35"/>
<text text-anchor="middle" x="170" y="-23" font-family="Helvetica,sans-Serif" font-size="10.00">communication</text>
</a>
</g>
</g>
<!-- dir_7913872ef1e9131c7a4facddec50fb6b -->
<g id="node4" class="node">
<title>dir_7913872ef1e9131c7a4facddec50fb6b</title>
<g id="a_node4"><a xlink:href="dir_7913872ef1e9131c7a4facddec50fb6b.html" target="_top" xlink:title="gpio">
<polygon fill="#4ea9ff" stroke="#404040" points="272,-35 234,-35 234,-16 272,-16 272,-35"/>
<text text-anchor="middle" x="253" y="-23" font-family="Helvetica,sans-Serif" font-size="10.00">gpio</text>
</a>
</g>
</g>
<!-- dir_83658e075a4ab7b2cbb8779471289882 -->
<g id="node5" class="node">
<title>dir_83658e075a4ab7b2cbb8779471289882</title>
<g id="a_node5"><a xlink:href="dir_83658e075a4ab7b2cbb8779471289882.html" target="_top" xlink:title="control">
<polygon fill="#4ea9ff" stroke="#404040" points="340,-35 290,-35 290,-16 340,-16 340,-35"/>
<text text-anchor="middle" x="315" y="-23" font-family="Helvetica,sans-Serif" font-size="10.00">control</text>
</a>
</g>
</g>
<!-- dir_96320550a29baac38dc9eb0ae89f5e73 -->
<g id="node6" class="node">
<title>dir_96320550a29baac38dc9eb0ae89f5e73</title>
<g id="a_node6"><a xlink:href="dir_96320550a29baac38dc9eb0ae89f5e73.html" target="_top" xlink:title="sensor">
<polygon fill="#daedff" stroke="#404040" stroke-width="2" points="194.5,-90 145.5,-90 145.5,-71 194.5,-71 194.5,-90"/>
<text text-anchor="middle" x="170" y="-78" font-family="Helvetica,sans-Serif" font-size="10.00">sensor</text>
</a>
</g>
</g>
<!-- dir_96320550a29baac38dc9eb0ae89f5e73&#45;&gt;dir_1367935105ebc251618457953f8d2b80 -->
<g id="edge1" class="edge">
<title>dir_96320550a29baac38dc9eb0ae89f5e73&#45;&gt;dir_1367935105ebc251618457953f8d2b80</title>
<path fill="none" stroke="#63b8ff" d="M148.47,-70.98C125.87,-62.05 90.21,-47.94 65.11,-38.01"/>
<polygon fill="#63b8ff" stroke="#63b8ff" points="66.32,-34.73 55.73,-34.3 63.74,-41.24 66.32,-34.73"/>
<g id="a_edge1&#45;headlabel"><a xlink:href="dir_000031_000033.html" target="_top" xlink:title="1">
<text text-anchor="middle" x="70.7" y="-30.91" font-family="Helvetica,sans-Serif" font-size="10.00" fill="#63b8ff">1</text>
</a>
</g>
</g>
<!-- dir_96320550a29baac38dc9eb0ae89f5e73&#45;&gt;dir_26247a4c7d21a73996b8a7832c1a1463 -->
<g id="edge2" class="edge">
<title>dir_96320550a29baac38dc9eb0ae89f5e73&#45;&gt;dir_26247a4c7d21a73996b8a7832c1a1463</title>
<path fill="none" stroke="#63b8ff" d="M157.15,-70.98C144.86,-62.84 126.09,-50.41 111.52,-40.76"/>
<polygon fill="#63b8ff" stroke="#63b8ff" points="113.36,-37.78 103.09,-35.17 109.49,-43.61 113.36,-37.78"/>
<g id="a_edge2&#45;headlabel"><a xlink:href="dir_000031_000036.html" target="_top" xlink:title="2">
<text text-anchor="middle" x="117.92" y="-34.89" font-family="Helvetica,sans-Serif" font-size="10.00" fill="#63b8ff">2</text>
</a>
</g>
</g>
<!-- dir_96320550a29baac38dc9eb0ae89f5e73&#45;&gt;dir_76fd7680a09542374d3e212281ba6ee2 -->
<g id="edge3" class="edge">
<title>dir_96320550a29baac38dc9eb0ae89f5e73&#45;&gt;dir_76fd7680a09542374d3e212281ba6ee2</title>
<path fill="none" stroke="#63b8ff" d="M170,-70.75C170,-63.8 170,-53.85 170,-45.13"/>
<polygon fill="#63b8ff" stroke="#63b8ff" points="173.5,-45.09 170,-35.09 166.5,-45.09 173.5,-45.09"/>
<g id="a_edge3&#45;headlabel"><a xlink:href="dir_000031_000014.html" target="_top" xlink:title="4">
<text text-anchor="middle" x="176.34" y="-46.18" font-family="Helvetica,sans-Serif" font-size="10.00" fill="#63b8ff">4</text>
</a>
</g>
</g>
<!-- dir_96320550a29baac38dc9eb0ae89f5e73&#45;&gt;dir_7913872ef1e9131c7a4facddec50fb6b -->
<g id="edge4" class="edge">
<title>dir_96320550a29baac38dc9eb0ae89f5e73&#45;&gt;dir_7913872ef1e9131c7a4facddec50fb6b</title>
<path fill="none" stroke="#63b8ff" d="M183.34,-70.98C196.09,-62.84 215.55,-50.41 230.67,-40.76"/>
<polygon fill="#63b8ff" stroke="#63b8ff" points="232.88,-43.5 239.42,-35.17 229.11,-37.6 232.88,-43.5"/>
<g id="a_edge4&#45;headlabel"><a xlink:href="dir_000031_000019.html" target="_top" xlink:title="3">
<text text-anchor="middle" x="231.38" y="-45.33" font-family="Helvetica,sans-Serif" font-size="10.00" fill="#63b8ff">3</text>
</a>
</g>
</g>
<!-- dir_96320550a29baac38dc9eb0ae89f5e73&#45;&gt;dir_83658e075a4ab7b2cbb8779471289882 -->
<g id="edge5" class="edge">
<title>dir_96320550a29baac38dc9eb0ae89f5e73&#45;&gt;dir_83658e075a4ab7b2cbb8779471289882</title>
<path fill="none" stroke="#63b8ff" d="M193.3,-70.98C217.25,-62.23 254.78,-48.51 281.83,-38.62"/>
<polygon fill="#63b8ff" stroke="#63b8ff" points="283.09,-41.89 291.28,-35.17 280.69,-35.32 283.09,-41.89"/>
<g id="a_edge5&#45;headlabel"><a xlink:href="dir_000031_000018.html" target="_top" xlink:title="1">
<text text-anchor="middle" x="280.69" y="-43.29" font-family="Helvetica,sans-Serif" font-size="10.00" fill="#63b8ff">1</text>
</a>
</g>
</g>
</g>
</svg>
