<?xml version="1.0" encoding="UTF-8" standalone="no"?>
<!DOCTYPE svg PUBLIC "-//W3C//DTD SVG 1.1//EN"
 "http://www.w3.org/Graphics/SVG/1.1/DTD/svg11.dtd">
<!-- Generated by graphviz version 2.43.0 (0)
 -->
<!-- Title: alps_core/lib_internal/alps_mbed_lib/include/alps_mbed Pages: 1 -->
<svg width="456pt" height="231pt"
 viewBox="0.00 0.00 456.00 231.00" xmlns="http://www.w3.org/2000/svg" xmlns:xlink="http://www.w3.org/1999/xlink">
<g id="graph0" class="graph" transform="scale(1 1) rotate(0) translate(4 227)">
<title>alps_core/lib_internal/alps_mbed_lib/include/alps_mbed</title>
<polygon fill="white" stroke="transparent" points="-4,4 -4,-227 452,-227 452,4 -4,4"/>
<g id="clust1" class="cluster">
<title>clusterdir_004f98237f8c341a9024f226d8b822ea</title>
<g id="a_clust1"><a xlink:href="dir_004f98237f8c341a9024f226d8b822ea.html" target="_top" xlink:title="include">
<polygon fill="#ddddee" stroke="black" points="8,-56 8,-215 440,-215 440,-56 8,-56"/>
<text text-anchor="middle" x="224" y="-203" font-family="Helvetica,sans-Serif" font-size="10.00">include</text>
</a>
</g>
</g>
<g id="clust2" class="cluster">
<title>clusterdir_aeddf8fa4339a06bf9ad9a961c7b6af8</title>
<g id="a_clust2"><a xlink:href="dir_aeddf8fa4339a06bf9ad9a961c7b6af8.html" target="_top">
<polygon fill="#eeeeff" stroke="black" points="16,-64 16,-188 432,-188 432,-64 16,-64"/>
</a>
</g>
</g>
<!-- dir_aeddf8fa4339a06bf9ad9a961c7b6af8 -->
<g id="node1" class="node">
<title>dir_aeddf8fa4339a06bf9ad9a961c7b6af8</title>
<text text-anchor="middle" x="389" y="-159.5" font-family="Helvetica,sans-Serif" font-size="10.00">alps_mbed</text>
</g>
<!-- dir_12003c53952475f2485c834635c1c3b6 -->
<g id="node2" class="node">
<title>dir_12003c53952475f2485c834635c1c3b6</title>
<g id="a_node2"><a xlink:href="dir_12003c53952475f2485c834635c1c3b6.html" target="_top" xlink:title="actuator">
<polygon fill="white" stroke="black" points="153.5,-180 96.5,-180 96.5,-144 153.5,-144 153.5,-180"/>
<text text-anchor="middle" x="125" y="-159.5" font-family="Helvetica,sans-Serif" font-size="10.00">actuator</text>
</a>
</g>
</g>
<!-- dir_581791ccee735a0cb31ab604a462ee79 -->
<g id="node4" class="node">
<title>dir_581791ccee735a0cb31ab604a462ee79</title>
<g id="a_node4"><a xlink:href="dir_581791ccee735a0cb31ab604a462ee79.html" target="_top" xlink:title="gpio">
<polygon fill="white" stroke="black" points="96,-108 42,-108 42,-72 96,-72 96,-108"/>
<text text-anchor="middle" x="69" y="-87.5" font-family="Helvetica,sans-Serif" font-size="10.00">gpio</text>
</a>
</g>
</g>
<!-- dir_12003c53952475f2485c834635c1c3b6&#45;&gt;dir_581791ccee735a0cb31ab604a462ee79 -->
<g id="edge4" class="edge">
<title>dir_12003c53952475f2485c834635c1c3b6&#45;&gt;dir_581791ccee735a0cb31ab604a462ee79</title>
<path fill="none" stroke="black" d="M111.16,-143.7C104.51,-135.39 96.42,-125.28 89.11,-116.14"/>
<polygon fill="black" stroke="black" points="91.66,-113.73 82.68,-108.1 86.2,-118.1 91.66,-113.73"/>
<g id="a_edge4&#45;headlabel"><a xlink:href="dir_000009_000035.html" target="_top" xlink:title="3">
<text text-anchor="middle" x="96.13" y="-112.26" font-family="Helvetica,sans-Serif" font-size="10.00">3</text>
</a>
</g>
</g>
<!-- dir_dbb6a150a1d2a9e3bac0bb1d4855e995 -->
<g id="node7" class="node">
<title>dir_dbb6a150a1d2a9e3bac0bb1d4855e995</title>
<g id="a_node7"><a xlink:href="dir_dbb6a150a1d2a9e3bac0bb1d4855e995.html" target="_top" xlink:title="alps_common_lib">
<polygon fill="white" stroke="red" points="213,-36 111,-36 111,0 213,0 213,-36"/>
<text text-anchor="middle" x="162" y="-15.5" font-family="Helvetica,sans-Serif" font-size="10.00">alps_common_lib</text>
</a>
</g>
</g>
<!-- dir_12003c53952475f2485c834635c1c3b6&#45;&gt;dir_dbb6a150a1d2a9e3bac0bb1d4855e995 -->
<g id="edge5" class="edge">
<title>dir_12003c53952475f2485c834635c1c3b6&#45;&gt;dir_dbb6a150a1d2a9e3bac0bb1d4855e995</title>
<path fill="none" stroke="black" d="M129.46,-143.87C135.8,-119.56 147.46,-74.82 154.96,-46.01"/>
<polygon fill="black" stroke="black" points="158.39,-46.75 157.52,-36.19 151.61,-44.98 158.39,-46.75"/>
<g id="a_edge5&#45;headlabel"><a xlink:href="dir_000009_000002.html" target="_top" xlink:title="2">
<text text-anchor="middle" x="160.23" y="-48.44" font-family="Helvetica,sans-Serif" font-size="10.00">2</text>
</a>
</g>
</g>
<!-- dir_9eaad8482ebdaa54b2bc49722f1ee47c -->
<g id="node3" class="node">
<title>dir_9eaad8482ebdaa54b2bc49722f1ee47c</title>
<g id="a_node3"><a xlink:href="dir_9eaad8482ebdaa54b2bc49722f1ee47c.html" target="_top" xlink:title="communication">
<polygon fill="white" stroke="black" points="264,-180 172,-180 172,-144 264,-144 264,-180"/>
<text text-anchor="middle" x="218" y="-159.5" font-family="Helvetica,sans-Serif" font-size="10.00">communication</text>
</a>
</g>
</g>
<!-- dir_9eaad8482ebdaa54b2bc49722f1ee47c&#45;&gt;dir_dbb6a150a1d2a9e3bac0bb1d4855e995 -->
<g id="edge6" class="edge">
<title>dir_9eaad8482ebdaa54b2bc49722f1ee47c&#45;&gt;dir_dbb6a150a1d2a9e3bac0bb1d4855e995</title>
<path fill="none" stroke="black" d="M211.25,-143.87C201.62,-119.46 183.86,-74.43 172.5,-45.64"/>
<polygon fill="black" stroke="black" points="175.7,-44.21 168.78,-36.19 169.19,-46.78 175.7,-44.21"/>
<g id="a_edge6&#45;headlabel"><a xlink:href="dir_000034_000002.html" target="_top" xlink:title="3">
<text text-anchor="middle" x="179.66" y="-44.01" font-family="Helvetica,sans-Serif" font-size="10.00">3</text>
</a>
</g>
</g>
<!-- dir_581791ccee735a0cb31ab604a462ee79&#45;&gt;dir_dbb6a150a1d2a9e3bac0bb1d4855e995 -->
<g id="edge7" class="edge">
<title>dir_581791ccee735a0cb31ab604a462ee79&#45;&gt;dir_dbb6a150a1d2a9e3bac0bb1d4855e995</title>
<path fill="none" stroke="black" d="M89.67,-71.97C96.12,-66.76 103.3,-61.07 110,-56 116.07,-51.4 122.63,-46.6 128.98,-42.05"/>
<polygon fill="black" stroke="black" points="131.33,-44.67 137.45,-36.02 127.27,-38.97 131.33,-44.67"/>
<g id="a_edge7&#45;headlabel"><a xlink:href="dir_000035_000002.html" target="_top" xlink:title="6">
<text text-anchor="middle" x="130.05" y="-46.57" font-family="Helvetica,sans-Serif" font-size="10.00">6</text>
</a>
</g>
</g>
<!-- dir_bebaca3cb71f3039b3e245f5499d3f80 -->
<g id="node5" class="node">
<title>dir_bebaca3cb71f3039b3e245f5499d3f80</title>
<g id="a_node5"><a xlink:href="dir_bebaca3cb71f3039b3e245f5499d3f80.html" target="_top" xlink:title="log">
<polygon fill="white" stroke="black" points="336,-180 282,-180 282,-144 336,-144 336,-180"/>
<text text-anchor="middle" x="309" y="-159.5" font-family="Helvetica,sans-Serif" font-size="10.00">log</text>
</a>
</g>
</g>
<!-- dir_bebaca3cb71f3039b3e245f5499d3f80&#45;&gt;dir_dbb6a150a1d2a9e3bac0bb1d4855e995 -->
<g id="edge1" class="edge">
<title>dir_bebaca3cb71f3039b3e245f5499d3f80&#45;&gt;dir_dbb6a150a1d2a9e3bac0bb1d4855e995</title>
<path fill="none" stroke="black" d="M291.27,-143.87C265.33,-118.82 216.92,-72.05 187.27,-43.41"/>
<polygon fill="black" stroke="black" points="189.42,-40.62 179.79,-36.19 184.56,-45.65 189.42,-40.62"/>
<g id="a_edge1&#45;headlabel"><a xlink:href="dir_000036_000002.html" target="_top" xlink:title="1">
<text text-anchor="middle" x="193.98" y="-38.57" font-family="Helvetica,sans-Serif" font-size="10.00">1</text>
</a>
</g>
</g>
<!-- dir_634480ad381c6c0f14f222313cbd3ce3 -->
<g id="node6" class="node">
<title>dir_634480ad381c6c0f14f222313cbd3ce3</title>
<g id="a_node6"><a xlink:href="dir_634480ad381c6c0f14f222313cbd3ce3.html" target="_top" xlink:title="sensor">
<polygon fill="white" stroke="black" points="78,-180 24,-180 24,-144 78,-144 78,-180"/>
<text text-anchor="middle" x="51" y="-159.5" font-family="Helvetica,sans-Serif" font-size="10.00">sensor</text>
</a>
</g>
</g>
<!-- dir_634480ad381c6c0f14f222313cbd3ce3&#45;&gt;dir_581791ccee735a0cb31ab604a462ee79 -->
<g id="edge2" class="edge">
<title>dir_634480ad381c6c0f14f222313cbd3ce3&#45;&gt;dir_581791ccee735a0cb31ab604a462ee79</title>
<path fill="none" stroke="black" d="M55.45,-143.7C57.45,-135.9 59.87,-126.51 62.1,-117.83"/>
<polygon fill="black" stroke="black" points="65.5,-118.66 64.6,-108.1 58.72,-116.92 65.5,-118.66"/>
<g id="a_edge2&#45;headlabel"><a xlink:href="dir_000028_000035.html" target="_top" xlink:title="2">
<text text-anchor="middle" x="67.36" y="-120.35" font-family="Helvetica,sans-Serif" font-size="10.00">2</text>
</a>
</g>
</g>
<!-- dir_634480ad381c6c0f14f222313cbd3ce3&#45;&gt;dir_dbb6a150a1d2a9e3bac0bb1d4855e995 -->
<g id="edge3" class="edge">
<title>dir_634480ad381c6c0f14f222313cbd3ce3&#45;&gt;dir_dbb6a150a1d2a9e3bac0bb1d4855e995</title>
<path fill="none" stroke="black" d="M70.58,-143.83C81.35,-133.91 94.59,-120.87 105,-108 122.21,-86.72 123.22,-79.04 138,-56 140.33,-52.38 142.79,-48.56 145.21,-44.81"/>
<polygon fill="black" stroke="black" points="148.23,-46.59 150.73,-36.29 142.36,-42.78 148.23,-46.59"/>
<g id="a_edge3&#45;headlabel"><a xlink:href="dir_000028_000002.html" target="_top" xlink:title="1">
<text text-anchor="middle" x="148.66" y="-48.65" font-family="Helvetica,sans-Serif" font-size="10.00">1</text>
</a>
</g>
</g>
</g>
</svg>
