<?xml version="1.0" encoding="UTF-8" standalone="no"?>
<!DOCTYPE svg PUBLIC "-//W3C//DTD SVG 1.1//EN"
 "http://www.w3.org/Graphics/SVG/1.1/DTD/svg11.dtd">
<!-- Generated by graphviz version 2.43.0 (0)
 -->
<!-- Title: alps_linux_lib/include/alps_lin Pages: 1 -->
<svg width="220pt" height="159pt"
 viewBox="0.00 0.00 220.00 159.00" xmlns="http://www.w3.org/2000/svg" xmlns:xlink="http://www.w3.org/1999/xlink">
<g id="graph0" class="graph" transform="scale(1 1) rotate(0) translate(4 155)">
<title>alps_linux_lib/include/alps_lin</title>
<polygon fill="white" stroke="transparent" points="-4,4 -4,-155 216,-155 216,4 -4,4"/>
<g id="clust1" class="cluster">
<title>clusterdir_6d217df781fc4021ea64ca101836a906</title>
<g id="a_clust1"><a xlink:href="dir_6d217df781fc4021ea64ca101836a906.html" target="_top" xlink:title="include">
<polygon fill="#ddddee" stroke="black" points="8,-56 8,-143 204,-143 204,-56 8,-56"/>
<text text-anchor="middle" x="106" y="-131" font-family="Helvetica,sans-Serif" font-size="10.00">include</text>
</a>
</g>
</g>
<g id="clust2" class="cluster">
<title>clusterdir_a2f3e768eb1f47df90dbab1b9b2951f6</title>
<g id="a_clust2"><a xlink:href="dir_a2f3e768eb1f47df90dbab1b9b2951f6.html" target="_top">
<polygon fill="#eeeeff" stroke="black" points="16,-64 16,-116 196,-116 196,-64 16,-64"/>
</a>
</g>
</g>
<!-- dir_a2f3e768eb1f47df90dbab1b9b2951f6 -->
<g id="node1" class="node">
<title>dir_a2f3e768eb1f47df90dbab1b9b2951f6</title>
<text text-anchor="middle" x="161" y="-87.5" font-family="Helvetica,sans-Serif" font-size="10.00">alps_lin</text>
</g>
<!-- dir_042306a24671901d82947867ee593e03 -->
<g id="node2" class="node">
<title>dir_042306a24671901d82947867ee593e03</title>
<g id="a_node2"><a xlink:href="dir_042306a24671901d82947867ee593e03.html" target="_top" xlink:title="communication">
<polygon fill="white" stroke="black" points="116,-108 24,-108 24,-72 116,-72 116,-108"/>
<text text-anchor="middle" x="70" y="-87.5" font-family="Helvetica,sans-Serif" font-size="10.00">communication</text>
</a>
</g>
</g>
<!-- dir_fcd1ba41f8679fcc7bf76d667eaa0e17 -->
<g id="node3" class="node">
<title>dir_fcd1ba41f8679fcc7bf76d667eaa0e17</title>
<g id="a_node3"><a xlink:href="dir_fcd1ba41f8679fcc7bf76d667eaa0e17.html" target="_top" xlink:title="alps_common_lib">
<polygon fill="white" stroke="red" points="121,-36 19,-36 19,0 121,0 121,-36"/>
<text text-anchor="middle" x="70" y="-15.5" font-family="Helvetica,sans-Serif" font-size="10.00">alps_common_lib</text>
</a>
</g>
</g>
<!-- dir_042306a24671901d82947867ee593e03&#45;&gt;dir_fcd1ba41f8679fcc7bf76d667eaa0e17 -->
<g id="edge1" class="edge">
<title>dir_042306a24671901d82947867ee593e03&#45;&gt;dir_fcd1ba41f8679fcc7bf76d667eaa0e17</title>
<path fill="none" stroke="black" d="M70,-71.7C70,-63.98 70,-54.71 70,-46.11"/>
<polygon fill="black" stroke="black" points="73.5,-46.1 70,-36.1 66.5,-46.1 73.5,-46.1"/>
<g id="a_edge1&#45;headlabel"><a xlink:href="dir_000027_000000.html" target="_top" xlink:title="2">
<text text-anchor="middle" x="76.34" y="-47.2" font-family="Helvetica,sans-Serif" font-size="10.00">2</text>
</a>
</g>
</g>
</g>
</svg>
