<?xml version="1.0" encoding="UTF-8" standalone="no"?>
<!DOCTYPE svg PUBLIC "-//W3C//DTD SVG 1.1//EN"
 "http://www.w3.org/Graphics/SVG/1.1/DTD/svg11.dtd">
<!-- Generated by graphviz version 2.43.0 (0)
 -->
<!-- Title: alps_core/lib_internal/alps_ros2_lib/include/alps_ros2/communication Pages: 1 -->
<svg width="234pt" height="239pt"
 viewBox="0.00 0.00 234.00 239.00" xmlns="http://www.w3.org/2000/svg" xmlns:xlink="http://www.w3.org/1999/xlink">
<g id="graph0" class="graph" transform="scale(1 1) rotate(0) translate(4 235)">
<title>alps_core/lib_internal/alps_ros2_lib/include/alps_ros2/communication</title>
<polygon fill="white" stroke="transparent" points="-4,4 -4,-235 230,-235 230,4 -4,4"/>
<g id="clust1" class="cluster">
<title>clusterdir_6399a9de56a01148355a477c12de3c84</title>
<g id="a_clust1"><a xlink:href="dir_6399a9de56a01148355a477c12de3c84.html" target="_top" xlink:title="alps_ros2">
<polygon fill="#ddddee" stroke="black" points="8,-8 8,-223 116,-223 116,-8 8,-8"/>
<text text-anchor="middle" x="62" y="-211" font-family="Helvetica,sans-Serif" font-size="10.00">alps_ros2</text>
</a>
</g>
</g>
<!-- dir_690e2e1b8b6059d43a67bedbfe9d42ee -->
<g id="node1" class="node">
<title>dir_690e2e1b8b6059d43a67bedbfe9d42ee</title>
<g id="a_node1"><a xlink:href="dir_690e2e1b8b6059d43a67bedbfe9d42ee.html" target="_top" xlink:title="type">
<polygon fill="none" stroke="black" points="107,-124 53,-124 53,-88 107,-88 107,-124"/>
<text text-anchor="middle" x="80" y="-103.5" font-family="Helvetica,sans-Serif" font-size="10.00">type</text>
</a>
</g>
</g>
<!-- dir_bc613f62d55886f87db8f26460e84482 -->
<g id="node2" class="node">
<title>dir_bc613f62d55886f87db8f26460e84482</title>
<g id="a_node2"><a xlink:href="dir_bc613f62d55886f87db8f26460e84482.html" target="_top" xlink:title="util">
<polygon fill="none" stroke="black" points="106,-52 52,-52 52,-16 106,-16 106,-52"/>
<text text-anchor="middle" x="79" y="-31.5" font-family="Helvetica,sans-Serif" font-size="10.00">util</text>
</a>
</g>
</g>
<!-- dir_690e2e1b8b6059d43a67bedbfe9d42ee&#45;&gt;dir_bc613f62d55886f87db8f26460e84482 -->
<g id="edge4" class="edge">
<title>dir_690e2e1b8b6059d43a67bedbfe9d42ee&#45;&gt;dir_bc613f62d55886f87db8f26460e84482</title>
<path fill="none" stroke="black" d="M73.84,-87.7C72.93,-79.98 72.57,-70.71 72.79,-62.11"/>
<polygon fill="black" stroke="black" points="76.29,-62.28 73.35,-52.1 69.3,-61.89 76.29,-62.28"/>
<g id="a_edge4&#45;headlabel"><a xlink:href="dir_000039_000041.html" target="_top" xlink:title="1">
<text text-anchor="middle" x="78.92" y="-63.53" font-family="Helvetica,sans-Serif" font-size="10.00">1</text>
</a>
</g>
</g>
<!-- dir_dbb6a150a1d2a9e3bac0bb1d4855e995 -->
<g id="node4" class="node">
<title>dir_dbb6a150a1d2a9e3bac0bb1d4855e995</title>
<g id="a_node4"><a xlink:href="dir_dbb6a150a1d2a9e3bac0bb1d4855e995.html" target="_top" xlink:title="alps_common_lib">
<polygon fill="white" stroke="red" points="226,-52 124,-52 124,-16 226,-16 226,-52"/>
<text text-anchor="middle" x="175" y="-31.5" font-family="Helvetica,sans-Serif" font-size="10.00">alps_common_lib</text>
</a>
</g>
</g>
<!-- dir_690e2e1b8b6059d43a67bedbfe9d42ee&#45;&gt;dir_dbb6a150a1d2a9e3bac0bb1d4855e995 -->
<g id="edge5" class="edge">
<title>dir_690e2e1b8b6059d43a67bedbfe9d42ee&#45;&gt;dir_dbb6a150a1d2a9e3bac0bb1d4855e995</title>
<path fill="none" stroke="black" d="M103.48,-87.7C115.56,-78.8 130.45,-67.82 143.52,-58.2"/>
<polygon fill="black" stroke="black" points="145.81,-60.85 151.79,-52.1 141.66,-55.22 145.81,-60.85"/>
<g id="a_edge5&#45;headlabel"><a xlink:href="dir_000039_000002.html" target="_top" xlink:title="10">
<text text-anchor="middle" x="144.6" y="-62.77" font-family="Helvetica,sans-Serif" font-size="10.00">10</text>
</a>
</g>
</g>
<!-- dir_bc613f62d55886f87db8f26460e84482&#45;&gt;dir_690e2e1b8b6059d43a67bedbfe9d42ee -->
<g id="edge6" class="edge">
<title>dir_bc613f62d55886f87db8f26460e84482&#45;&gt;dir_690e2e1b8b6059d43a67bedbfe9d42ee</title>
<path fill="none" stroke="black" d="M85.14,-52.1C86.05,-59.79 86.42,-69.05 86.21,-77.67"/>
<polygon fill="black" stroke="black" points="82.72,-77.52 85.67,-87.7 89.71,-77.9 82.72,-77.52"/>
<g id="a_edge6&#45;headlabel"><a xlink:href="dir_000041_000039.html" target="_top" xlink:title="1">
<text text-anchor="middle" x="80.08" y="-71.28" font-family="Helvetica,sans-Serif" font-size="10.00">1</text>
</a>
</g>
</g>
<!-- dir_45fba23e44dab9635f79e4c99afbf5ad -->
<g id="node3" class="node">
<title>dir_45fba23e44dab9635f79e4c99afbf5ad</title>
<g id="a_node3"><a xlink:href="dir_45fba23e44dab9635f79e4c99afbf5ad.html" target="_top" xlink:title="communication">
<polygon fill="#eeeeff" stroke="black" points="108,-196 16,-196 16,-160 108,-160 108,-196"/>
<text text-anchor="middle" x="62" y="-175.5" font-family="Helvetica,sans-Serif" font-size="10.00">communication</text>
</a>
</g>
</g>
<!-- dir_45fba23e44dab9635f79e4c99afbf5ad&#45;&gt;dir_690e2e1b8b6059d43a67bedbfe9d42ee -->
<g id="edge1" class="edge">
<title>dir_45fba23e44dab9635f79e4c99afbf5ad&#45;&gt;dir_690e2e1b8b6059d43a67bedbfe9d42ee</title>
<path fill="none" stroke="black" d="M66.45,-159.7C68.45,-151.9 70.87,-142.51 73.1,-133.83"/>
<polygon fill="black" stroke="black" points="76.5,-134.66 75.6,-124.1 69.72,-132.92 76.5,-134.66"/>
<g id="a_edge1&#45;headlabel"><a xlink:href="dir_000038_000039.html" target="_top" xlink:title="1">
<text text-anchor="middle" x="78.36" y="-136.35" font-family="Helvetica,sans-Serif" font-size="10.00">1</text>
</a>
</g>
</g>
<!-- dir_45fba23e44dab9635f79e4c99afbf5ad&#45;&gt;dir_bc613f62d55886f87db8f26460e84482 -->
<g id="edge2" class="edge">
<title>dir_45fba23e44dab9635f79e4c99afbf5ad&#45;&gt;dir_bc613f62d55886f87db8f26460e84482</title>
<path fill="none" stroke="black" d="M53.53,-159.71C45.81,-141.6 36.65,-112.46 44,-88 46.92,-78.28 52.26,-68.7 57.91,-60.41"/>
<polygon fill="black" stroke="black" points="60.76,-62.44 63.82,-52.3 55.1,-58.32 60.76,-62.44"/>
<g id="a_edge2&#45;headlabel"><a xlink:href="dir_000038_000041.html" target="_top" xlink:title="1">
<text text-anchor="middle" x="60.94" y="-64.52" font-family="Helvetica,sans-Serif" font-size="10.00">1</text>
</a>
</g>
</g>
<!-- dir_45fba23e44dab9635f79e4c99afbf5ad&#45;&gt;dir_dbb6a150a1d2a9e3bac0bb1d4855e995 -->
<g id="edge3" class="edge">
<title>dir_45fba23e44dab9635f79e4c99afbf5ad&#45;&gt;dir_dbb6a150a1d2a9e3bac0bb1d4855e995</title>
<path fill="none" stroke="black" d="M81.23,-159.99C92.01,-150.01 105.38,-136.87 116,-124 132.56,-103.94 148.69,-79.14 159.88,-60.82"/>
<polygon fill="black" stroke="black" points="162.95,-62.51 165.12,-52.14 156.96,-58.89 162.95,-62.51"/>
<g id="a_edge3&#45;headlabel"><a xlink:href="dir_000038_000002.html" target="_top" xlink:title="2">
<text text-anchor="middle" x="163.53" y="-64.55" font-family="Helvetica,sans-Serif" font-size="10.00">2</text>
</a>
</g>
</g>
</g>
</svg>
