<?xml version="1.0" encoding="UTF-8" standalone="no"?>
<!DOCTYPE svg PUBLIC "-//W3C//DTD SVG 1.1//EN"
 "http://www.w3.org/Graphics/SVG/1.1/DTD/svg11.dtd">
<!-- Generated by graphviz version 2.43.0 (0)
 -->
<!-- Title: alps_common_lib/include/alps_cmn Pages: 1 -->
<svg width="236pt" height="259pt"
 viewBox="0.00 0.00 236.00 259.00" xmlns="http://www.w3.org/2000/svg" xmlns:xlink="http://www.w3.org/1999/xlink">
<g id="graph0" class="graph" transform="scale(1 1) rotate(0) translate(4 255)">
<title>alps_common_lib/include/alps_cmn</title>
<g id="clust1" class="cluster">
<title>clusterdir_ce1e71e2103ac83e6d6cc720a9feeeb7</title>
<g id="a_clust1"><a xlink:href="dir_ce1e71e2103ac83e6d6cc720a9feeeb7.html" target="_top" xlink:title="include">
<polygon fill="#daedff" stroke="#7f7f7f" stroke-dasharray="5,2" points="8,-8 8,-243 220,-243 220,-8 8,-8"/>
<text text-anchor="middle" x="114" y="-231" font-family="Helvetica,sans-Serif" font-size="10.00">include</text>
</a>
</g>
</g>
<g id="clust2" class="cluster">
<title>clusterdir_cc648f72f51f156e42f9863c0e5bf5fb</title>
<g id="a_clust2"><a xlink:href="dir_cc648f72f51f156e42f9863c0e5bf5fb.html" target="_top">
<polygon fill="#daedff" stroke="#404040" stroke-width="2" points="16,-16 16,-216 212,-216 212,-16 16,-16"/>
</a>
</g>
</g>
<!-- dir_cc648f72f51f156e42f9863c0e5bf5fb -->
<g id="node1" class="node">
<title>dir_cc648f72f51f156e42f9863c0e5bf5fb</title>
<text text-anchor="middle" x="172" y="-196" font-family="Helvetica,sans-Serif" font-size="10.00">alps_cmn</text>
</g>
<!-- dir_2239b1117054295ada522fe6d99615b2 -->
<g id="node2" class="node">
<title>dir_2239b1117054295ada522fe6d99615b2</title>
<g id="a_node2"><a xlink:href="dir_2239b1117054295ada522fe6d99615b2.html" target="_top" xlink:title="actuator">
<polygon fill="#4ea9ff" stroke="#404040" points="125.5,-153 68.5,-153 68.5,-134 125.5,-134 125.5,-153"/>
<text text-anchor="middle" x="97" y="-141" font-family="Helvetica,sans-Serif" font-size="10.00">actuator</text>
</a>
</g>
</g>
<!-- dir_76fd7680a09542374d3e212281ba6ee2 -->
<g id="node3" class="node">
<title>dir_76fd7680a09542374d3e212281ba6ee2</title>
<g id="a_node3"><a xlink:href="dir_76fd7680a09542374d3e212281ba6ee2.html" target="_top" xlink:title="communication">
<polygon fill="#4ea9ff" stroke="#404040" points="116,-98 24,-98 24,-79 116,-79 116,-98"/>
<text text-anchor="middle" x="70" y="-86" font-family="Helvetica,sans-Serif" font-size="10.00">communication</text>
</a>
</g>
</g>
<!-- dir_2239b1117054295ada522fe6d99615b2&#45;&gt;dir_76fd7680a09542374d3e212281ba6ee2 -->
<g id="edge1" class="edge">
<title>dir_2239b1117054295ada522fe6d99615b2&#45;&gt;dir_76fd7680a09542374d3e212281ba6ee2</title>
<path fill="none" stroke="#63b8ff" d="M92.54,-133.75C88.88,-126.57 83.59,-116.18 79.05,-107.27"/>
<polygon fill="#63b8ff" stroke="#63b8ff" points="82.03,-105.41 74.38,-98.09 75.8,-108.59 82.03,-105.41"/>
<g id="a_edge1&#45;headlabel"><a xlink:href="dir_000000_000014.html" target="_top" xlink:title="2">
<text text-anchor="middle" x="86.2" y="-104.82" font-family="Helvetica,sans-Serif" font-size="10.00" fill="#63b8ff">2</text>
</a>
</g>
</g>
<!-- dir_7913872ef1e9131c7a4facddec50fb6b -->
<g id="node5" class="node">
<title>dir_7913872ef1e9131c7a4facddec50fb6b</title>
<g id="a_node5"><a xlink:href="dir_7913872ef1e9131c7a4facddec50fb6b.html" target="_top" xlink:title="gpio">
<polygon fill="#4ea9ff" stroke="#404040" points="144,-43 106,-43 106,-24 144,-24 144,-43"/>
<text text-anchor="middle" x="125" y="-31" font-family="Helvetica,sans-Serif" font-size="10.00">gpio</text>
</a>
</g>
</g>
<!-- dir_2239b1117054295ada522fe6d99615b2&#45;&gt;dir_7913872ef1e9131c7a4facddec50fb6b -->
<g id="edge2" class="edge">
<title>dir_2239b1117054295ada522fe6d99615b2&#45;&gt;dir_7913872ef1e9131c7a4facddec50fb6b</title>
<path fill="none" stroke="#63b8ff" d="M104.67,-133.7C111.52,-125.21 121.05,-111.68 125,-98 129.21,-83.42 128.89,-66.15 127.7,-53.31"/>
<polygon fill="#63b8ff" stroke="#63b8ff" points="131.17,-52.86 126.51,-43.34 124.22,-53.68 131.17,-52.86"/>
<g id="a_edge2&#45;headlabel"><a xlink:href="dir_000000_000018.html" target="_top" xlink:title="3">
<text text-anchor="middle" x="134.41" y="-53.6" font-family="Helvetica,sans-Serif" font-size="10.00" fill="#63b8ff">3</text>
</a>
</g>
</g>
<!-- dir_96320550a29baac38dc9eb0ae89f5e73 -->
<g id="node7" class="node">
<title>dir_96320550a29baac38dc9eb0ae89f5e73</title>
<g id="a_node7"><a xlink:href="dir_96320550a29baac38dc9eb0ae89f5e73.html" target="_top" xlink:title="sensor">
<polygon fill="#4ea9ff" stroke="#404040" points="203.5,-98 154.5,-98 154.5,-79 203.5,-79 203.5,-98"/>
<text text-anchor="middle" x="179" y="-86" font-family="Helvetica,sans-Serif" font-size="10.00">sensor</text>
</a>
</g>
</g>
<!-- dir_2239b1117054295ada522fe6d99615b2&#45;&gt;dir_96320550a29baac38dc9eb0ae89f5e73 -->
<g id="edge3" class="edge">
<title>dir_2239b1117054295ada522fe6d99615b2&#45;&gt;dir_96320550a29baac38dc9eb0ae89f5e73</title>
<path fill="none" stroke="#63b8ff" d="M110.17,-133.98C122.77,-125.84 142,-113.41 156.94,-103.76"/>
<polygon fill="#63b8ff" stroke="#63b8ff" points="159.09,-106.54 165.59,-98.17 155.29,-100.66 159.09,-106.54"/>
<g id="a_edge3&#45;headlabel"><a xlink:href="dir_000000_000027.html" target="_top" xlink:title="1">
<text text-anchor="middle" x="157.61" y="-108.37" font-family="Helvetica,sans-Serif" font-size="10.00" fill="#63b8ff">1</text>
</a>
</g>
</g>
<!-- dir_83658e075a4ab7b2cbb8779471289882 -->
<g id="node4" class="node">
<title>dir_83658e075a4ab7b2cbb8779471289882</title>
<g id="a_node4"><a xlink:href="dir_83658e075a4ab7b2cbb8779471289882.html" target="_top" xlink:title="control">
<polygon fill="#4ea9ff" stroke="#404040" points="122,-208 72,-208 72,-189 122,-189 122,-208"/>
<text text-anchor="middle" x="97" y="-196" font-family="Helvetica,sans-Serif" font-size="10.00">control</text>
</a>
</g>
</g>
<!-- dir_83658e075a4ab7b2cbb8779471289882&#45;&gt;dir_2239b1117054295ada522fe6d99615b2 -->
<g id="edge4" class="edge">
<title>dir_83658e075a4ab7b2cbb8779471289882&#45;&gt;dir_2239b1117054295ada522fe6d99615b2</title>
<path fill="none" stroke="#63b8ff" d="M97,-188.75C97,-181.8 97,-171.85 97,-163.13"/>
<polygon fill="#63b8ff" stroke="#63b8ff" points="100.5,-163.09 97,-153.09 93.5,-163.09 100.5,-163.09"/>
<g id="a_edge4&#45;headlabel"><a xlink:href="dir_000017_000000.html" target="_top" xlink:title="1">
<text text-anchor="middle" x="103.34" y="-164.18" font-family="Helvetica,sans-Serif" font-size="10.00" fill="#63b8ff">1</text>
</a>
</g>
</g>
<!-- dir_83658e075a4ab7b2cbb8779471289882&#45;&gt;dir_96320550a29baac38dc9eb0ae89f5e73 -->
<g id="edge6" class="edge">
<title>dir_83658e075a4ab7b2cbb8779471289882&#45;&gt;dir_96320550a29baac38dc9eb0ae89f5e73</title>
<path fill="none" stroke="#63b8ff" d="M104.84,-188.85C112.72,-180.04 125.08,-165.88 135,-153 146.72,-137.78 159.1,-119.71 167.73,-106.75"/>
<polygon fill="#63b8ff" stroke="#63b8ff" points="170.71,-108.6 173.29,-98.33 164.86,-104.74 170.71,-108.6"/>
<g id="a_edge6&#45;headlabel"><a xlink:href="dir_000017_000027.html" target="_top" xlink:title="1">
<text text-anchor="middle" x="171.1" y="-110.66" font-family="Helvetica,sans-Serif" font-size="10.00" fill="#63b8ff">1</text>
</a>
</g>
</g>
<!-- dir_26247a4c7d21a73996b8a7832c1a1463 -->
<g id="node8" class="node">
<title>dir_26247a4c7d21a73996b8a7832c1a1463</title>
<g id="a_node8"><a xlink:href="dir_26247a4c7d21a73996b8a7832c1a1463.html" target="_top" xlink:title="util">
<polygon fill="#4ea9ff" stroke="#404040" points="196,-153 164,-153 164,-134 196,-134 196,-153"/>
<text text-anchor="middle" x="180" y="-141" font-family="Helvetica,sans-Serif" font-size="10.00">util</text>
</a>
</g>
</g>
<!-- dir_83658e075a4ab7b2cbb8779471289882&#45;&gt;dir_26247a4c7d21a73996b8a7832c1a1463 -->
<g id="edge5" class="edge">
<title>dir_83658e075a4ab7b2cbb8779471289882&#45;&gt;dir_26247a4c7d21a73996b8a7832c1a1463</title>
<path fill="none" stroke="#63b8ff" d="M110.34,-188.98C123.09,-180.84 142.55,-168.41 157.67,-158.76"/>
<polygon fill="#63b8ff" stroke="#63b8ff" points="159.88,-161.5 166.42,-153.17 156.11,-155.6 159.88,-161.5"/>
<g id="a_edge5&#45;headlabel"><a xlink:href="dir_000017_000029.html" target="_top" xlink:title="1">
<text text-anchor="middle" x="158.38" y="-163.33" font-family="Helvetica,sans-Serif" font-size="10.00" fill="#63b8ff">1</text>
</a>
</g>
</g>
<!-- dir_563ed2d29ef623953b20c0f9d2e12d2d -->
<g id="node6" class="node">
<title>dir_563ed2d29ef623953b20c0f9d2e12d2d</title>
<g id="a_node6"><a xlink:href="dir_563ed2d29ef623953b20c0f9d2e12d2d.html" target="_top" xlink:title="math">
<polygon fill="#4ea9ff" stroke="#404040" points="204,-43 162,-43 162,-24 204,-24 204,-43"/>
<text text-anchor="middle" x="183" y="-31" font-family="Helvetica,sans-Serif" font-size="10.00">math</text>
</a>
</g>
</g>
<!-- dir_96320550a29baac38dc9eb0ae89f5e73&#45;&gt;dir_7913872ef1e9131c7a4facddec50fb6b -->
<g id="edge8" class="edge">
<title>dir_96320550a29baac38dc9eb0ae89f5e73&#45;&gt;dir_7913872ef1e9131c7a4facddec50fb6b</title>
<path fill="none" stroke="#63b8ff" d="M170.08,-78.75C162.22,-71.03 150.57,-59.6 141.08,-50.28"/>
<polygon fill="#63b8ff" stroke="#63b8ff" points="143.34,-47.6 133.75,-43.09 138.44,-52.59 143.34,-47.6"/>
<g id="a_edge8&#45;headlabel"><a xlink:href="dir_000027_000018.html" target="_top" xlink:title="2">
<text text-anchor="middle" x="147.89" y="-45.59" font-family="Helvetica,sans-Serif" font-size="10.00" fill="#63b8ff">2</text>
</a>
</g>
</g>
<!-- dir_96320550a29baac38dc9eb0ae89f5e73&#45;&gt;dir_563ed2d29ef623953b20c0f9d2e12d2d -->
<g id="edge7" class="edge">
<title>dir_96320550a29baac38dc9eb0ae89f5e73&#45;&gt;dir_563ed2d29ef623953b20c0f9d2e12d2d</title>
<path fill="none" stroke="#63b8ff" d="M179.66,-78.75C180.18,-71.8 180.94,-61.85 181.59,-53.13"/>
<polygon fill="#63b8ff" stroke="#63b8ff" points="185.09,-53.32 182.35,-43.09 178.11,-52.8 185.09,-53.32"/>
<g id="a_edge7&#45;headlabel"><a xlink:href="dir_000027_000026.html" target="_top" xlink:title="1">
<text text-anchor="middle" x="187.65" y="-54.62" font-family="Helvetica,sans-Serif" font-size="10.00" fill="#63b8ff">1</text>
</a>
</g>
</g>
</g>
</svg>
