<?xml version="1.0" encoding="UTF-8" standalone="no"?>
<!DOCTYPE svg PUBLIC "-//W3C//DTD SVG 1.1//EN"
 "http://www.w3.org/Graphics/SVG/1.1/DTD/svg11.dtd">
<!-- Generated by graphviz version 2.43.0 (0)
 -->
<!-- Title: alps_mbed_lib/include/alps_mbed Pages: 1 -->
<svg width="379pt" height="180pt"
 viewBox="0.00 0.00 379.00 180.00" xmlns="http://www.w3.org/2000/svg" xmlns:xlink="http://www.w3.org/1999/xlink">
<g id="graph0" class="graph" transform="scale(1 1) rotate(0) translate(4 176)">
<title>alps_mbed_lib/include/alps_mbed</title>
<g id="clust1" class="cluster">
<title>clusterdir_06d0b736b1247c5c94714e69ec444f3a</title>
<g id="a_clust1"><a xlink:href="dir_06d0b736b1247c5c94714e69ec444f3a.html" target="_top" xlink:title="include">
<polygon fill="#daedff" stroke="#7f7f7f" stroke-dasharray="5,2" points="8,-39 8,-164 363,-164 363,-39 8,-39"/>
<text text-anchor="middle" x="185.5" y="-152" font-family="Helvetica,sans-Serif" font-size="10.00">include</text>
</a>
</g>
</g>
<g id="clust2" class="cluster">
<title>clusterdir_c813e285ae311a0f099f263ae937976d</title>
<g id="a_clust2"><a xlink:href="dir_c813e285ae311a0f099f263ae937976d.html" target="_top">
<polygon fill="#daedff" stroke="#404040" stroke-width="2" points="16,-47 16,-137 355,-137 355,-47 16,-47"/>
</a>
</g>
</g>
<!-- dir_c813e285ae311a0f099f263ae937976d -->
<g id="node1" class="node">
<title>dir_c813e285ae311a0f099f263ae937976d</title>
<text text-anchor="middle" x="312" y="-117" font-family="Helvetica,sans-Serif" font-size="10.00">alps_mbed</text>
</g>
<!-- dir_2b96044426943e6eb49b990d92e542f4 -->
<g id="node2" class="node">
<title>dir_2b96044426943e6eb49b990d92e542f4</title>
<g id="a_node2"><a xlink:href="dir_2b96044426943e6eb49b990d92e542f4.html" target="_top" xlink:title="actuator">
<polygon fill="#4ea9ff" stroke="#404040" points="148.5,-129 91.5,-129 91.5,-110 148.5,-110 148.5,-129"/>
<text text-anchor="middle" x="120" y="-117" font-family="Helvetica,sans-Serif" font-size="10.00">actuator</text>
</a>
</g>
</g>
<!-- dir_cfc86feb12eb97e7fc67660f2e3b546b -->
<g id="node4" class="node">
<title>dir_cfc86feb12eb97e7fc67660f2e3b546b</title>
<g id="a_node4"><a xlink:href="dir_cfc86feb12eb97e7fc67660f2e3b546b.html" target="_top" xlink:title="gpio">
<polygon fill="#4ea9ff" stroke="#404040" points="68,-74 30,-74 30,-55 68,-55 68,-74"/>
<text text-anchor="middle" x="49" y="-62" font-family="Helvetica,sans-Serif" font-size="10.00">gpio</text>
</a>
</g>
</g>
<!-- dir_2b96044426943e6eb49b990d92e542f4&#45;&gt;dir_cfc86feb12eb97e7fc67660f2e3b546b -->
<g id="edge1" class="edge">
<title>dir_2b96044426943e6eb49b990d92e542f4&#45;&gt;dir_cfc86feb12eb97e7fc67660f2e3b546b</title>
<path fill="none" stroke="#63b8ff" d="M108.59,-109.98C97.89,-102 81.66,-89.88 68.84,-80.31"/>
<polygon fill="#63b8ff" stroke="#63b8ff" points="70.72,-77.35 60.61,-74.17 66.53,-82.96 70.72,-77.35"/>
<g id="a_edge1&#45;headlabel"><a xlink:href="dir_000001_000019.html" target="_top" xlink:title="3">
<text text-anchor="middle" x="75.3" y="-74.72" font-family="Helvetica,sans-Serif" font-size="10.00" fill="#63b8ff">3</text>
</a>
</g>
</g>
<!-- dir_fcd1ba41f8679fcc7bf76d667eaa0e17 -->
<g id="node6" class="node">
<title>dir_fcd1ba41f8679fcc7bf76d667eaa0e17</title>
<g id="a_node6"><a xlink:href="dir_fcd1ba41f8679fcc7bf76d667eaa0e17.html" target="_top" xlink:title="alps_common_lib">
<polygon fill="#daedff" stroke="red" points="166,-19 64,-19 64,0 166,0 166,-19"/>
<text text-anchor="middle" x="115" y="-7" font-family="Helvetica,sans-Serif" font-size="10.00">alps_common_lib</text>
</a>
</g>
</g>
<!-- dir_2b96044426943e6eb49b990d92e542f4&#45;&gt;dir_fcd1ba41f8679fcc7bf76d667eaa0e17 -->
<g id="edge2" class="edge">
<title>dir_2b96044426943e6eb49b990d92e542f4&#45;&gt;dir_fcd1ba41f8679fcc7bf76d667eaa0e17</title>
<path fill="none" stroke="#63b8ff" d="M119.59,-109.66C118.78,-92.17 116.96,-52.8 115.87,-29.27"/>
<polygon fill="#63b8ff" stroke="#63b8ff" points="119.36,-28.99 115.4,-19.16 112.37,-29.31 119.36,-28.99"/>
<g id="a_edge2&#45;headlabel"><a xlink:href="dir_000001_000003.html" target="_top" xlink:title="2">
<text text-anchor="middle" x="122.36" y="-29.95" font-family="Helvetica,sans-Serif" font-size="10.00" fill="#63b8ff">2</text>
</a>
</g>
</g>
<!-- dir_4ee3a5073a2bddb4e83ff5cc31a8b46d -->
<g id="node3" class="node">
<title>dir_4ee3a5073a2bddb4e83ff5cc31a8b46d</title>
<g id="a_node3"><a xlink:href="dir_4ee3a5073a2bddb4e83ff5cc31a8b46d.html" target="_top" xlink:title="communication">
<polygon fill="#4ea9ff" stroke="#404040" points="259,-129 167,-129 167,-110 259,-110 259,-129"/>
<text text-anchor="middle" x="213" y="-117" font-family="Helvetica,sans-Serif" font-size="10.00">communication</text>
</a>
</g>
</g>
<!-- dir_4ee3a5073a2bddb4e83ff5cc31a8b46d&#45;&gt;dir_fcd1ba41f8679fcc7bf76d667eaa0e17 -->
<g id="edge3" class="edge">
<title>dir_4ee3a5073a2bddb4e83ff5cc31a8b46d&#45;&gt;dir_fcd1ba41f8679fcc7bf76d667eaa0e17</title>
<path fill="none" stroke="#63b8ff" d="M204.98,-109.66C188.53,-91.54 150.76,-49.91 129.76,-26.77"/>
<polygon fill="#63b8ff" stroke="#63b8ff" points="132.17,-24.21 122.86,-19.16 126.98,-28.92 132.17,-24.21"/>
<g id="a_edge3&#45;headlabel"><a xlink:href="dir_000016_000003.html" target="_top" xlink:title="2">
<text text-anchor="middle" x="136.69" y="-22.47" font-family="Helvetica,sans-Serif" font-size="10.00" fill="#63b8ff">2</text>
</a>
</g>
</g>
<!-- dir_cfc86feb12eb97e7fc67660f2e3b546b&#45;&gt;dir_fcd1ba41f8679fcc7bf76d667eaa0e17 -->
<g id="edge4" class="edge">
<title>dir_cfc86feb12eb97e7fc67660f2e3b546b&#45;&gt;dir_fcd1ba41f8679fcc7bf76d667eaa0e17</title>
<path fill="none" stroke="#63b8ff" d="M59.6,-54.98C69.46,-47.07 84.35,-35.11 96.22,-25.58"/>
<polygon fill="#63b8ff" stroke="#63b8ff" points="98.6,-28.16 104.2,-19.17 94.21,-22.7 98.6,-28.16"/>
<g id="a_edge4&#45;headlabel"><a xlink:href="dir_000019_000003.html" target="_top" xlink:title="5">
<text text-anchor="middle" x="97.57" y="-30.13" font-family="Helvetica,sans-Serif" font-size="10.00" fill="#63b8ff">5</text>
</a>
</g>
</g>
<!-- dir_44638994a5d30400bbaf5d2a0133e54c -->
<g id="node5" class="node">
<title>dir_44638994a5d30400bbaf5d2a0133e54c</title>
<g id="a_node5"><a xlink:href="dir_44638994a5d30400bbaf5d2a0133e54c.html" target="_top" xlink:title="sensor">
<polygon fill="#4ea9ff" stroke="#404040" points="73.5,-129 24.5,-129 24.5,-110 73.5,-110 73.5,-129"/>
<text text-anchor="middle" x="49" y="-117" font-family="Helvetica,sans-Serif" font-size="10.00">sensor</text>
</a>
</g>
</g>
<!-- dir_44638994a5d30400bbaf5d2a0133e54c&#45;&gt;dir_cfc86feb12eb97e7fc67660f2e3b546b -->
<g id="edge5" class="edge">
<title>dir_44638994a5d30400bbaf5d2a0133e54c&#45;&gt;dir_cfc86feb12eb97e7fc67660f2e3b546b</title>
<path fill="none" stroke="#63b8ff" d="M49,-109.75C49,-102.8 49,-92.85 49,-84.13"/>
<polygon fill="#63b8ff" stroke="#63b8ff" points="52.5,-84.09 49,-74.09 45.5,-84.09 52.5,-84.09"/>
<g id="a_edge5&#45;headlabel"><a xlink:href="dir_000027_000019.html" target="_top" xlink:title="2">
<text text-anchor="middle" x="55.34" y="-85.18" font-family="Helvetica,sans-Serif" font-size="10.00" fill="#63b8ff">2</text>
</a>
</g>
</g>
<!-- dir_44638994a5d30400bbaf5d2a0133e54c&#45;&gt;dir_fcd1ba41f8679fcc7bf76d667eaa0e17 -->
<g id="edge6" class="edge">
<title>dir_44638994a5d30400bbaf5d2a0133e54c&#45;&gt;dir_fcd1ba41f8679fcc7bf76d667eaa0e17</title>
<path fill="none" stroke="#63b8ff" d="M54.64,-109.67C60.33,-100.72 69.36,-86.45 77,-74 86.53,-58.47 97.17,-40.65 104.76,-27.85"/>
<polygon fill="#63b8ff" stroke="#63b8ff" points="107.82,-29.55 109.9,-19.16 101.79,-25.99 107.82,-29.55"/>
<g id="a_edge6&#45;headlabel"><a xlink:href="dir_000027_000003.html" target="_top" xlink:title="1">
<text text-anchor="middle" x="108.43" y="-31.59" font-family="Helvetica,sans-Serif" font-size="10.00" fill="#63b8ff">1</text>
</a>
</g>
</g>
</g>
</svg>
