<?xml version="1.0" encoding="UTF-8" standalone="no"?>
<!DOCTYPE svg PUBLIC "-//W3C//DTD SVG 1.1//EN"
 "http://www.w3.org/Graphics/SVG/1.1/DTD/svg11.dtd">
<!-- Generated by graphviz version 2.43.0 (0)
 -->
<!-- Title: alps_core/lib_internal/alps_common_lib/include/alps_cmn/communication Pages: 1 -->
<svg width="166pt" height="167pt"
 viewBox="0.00 0.00 166.00 167.00" xmlns="http://www.w3.org/2000/svg" xmlns:xlink="http://www.w3.org/1999/xlink">
<g id="graph0" class="graph" transform="scale(1 1) rotate(0) translate(4 163)">
<title>alps_core/lib_internal/alps_common_lib/include/alps_cmn/communication</title>
<polygon fill="white" stroke="transparent" points="-4,4 -4,-163 162,-163 162,4 -4,4"/>
<g id="clust1" class="cluster">
<title>clusterdir_664123f27b70b10eeac81c10039fb160</title>
<g id="a_clust1"><a xlink:href="dir_664123f27b70b10eeac81c10039fb160.html" target="_top" xlink:title="alps_cmn">
<polygon fill="#ddddee" stroke="black" points="8,-8 8,-151 150,-151 150,-8 8,-8"/>
<text text-anchor="middle" x="79" y="-139" font-family="Helvetica,sans-Serif" font-size="10.00">alps_cmn</text>
</a>
</g>
</g>
<!-- dir_28f821d546ace6ab9b8c5a81f47cb6c0 -->
<g id="node1" class="node">
<title>dir_28f821d546ace6ab9b8c5a81f47cb6c0</title>
<g id="a_node1"><a xlink:href="dir_28f821d546ace6ab9b8c5a81f47cb6c0.html" target="_top" xlink:title="type">
<polygon fill="none" stroke="black" points="70,-52 16,-52 16,-16 70,-16 70,-52"/>
<text text-anchor="middle" x="43" y="-31.5" font-family="Helvetica,sans-Serif" font-size="10.00">type</text>
</a>
</g>
</g>
<!-- dir_d7b6a63eed36fea2858d2aa41ca33f02 -->
<g id="node2" class="node">
<title>dir_d7b6a63eed36fea2858d2aa41ca33f02</title>
<g id="a_node2"><a xlink:href="dir_d7b6a63eed36fea2858d2aa41ca33f02.html" target="_top" xlink:title="log">
<polygon fill="none" stroke="black" points="142,-52 88,-52 88,-16 142,-16 142,-52"/>
<text text-anchor="middle" x="115" y="-31.5" font-family="Helvetica,sans-Serif" font-size="10.00">log</text>
</a>
</g>
</g>
<!-- dir_5bbbaec82e60c1c95ef5795854749336 -->
<g id="node3" class="node">
<title>dir_5bbbaec82e60c1c95ef5795854749336</title>
<g id="a_node3"><a xlink:href="dir_5bbbaec82e60c1c95ef5795854749336.html" target="_top" xlink:title="communication">
<polygon fill="#eeeeff" stroke="black" points="125,-124 33,-124 33,-88 125,-88 125,-124"/>
<text text-anchor="middle" x="79" y="-103.5" font-family="Helvetica,sans-Serif" font-size="10.00">communication</text>
</a>
</g>
</g>
<!-- dir_5bbbaec82e60c1c95ef5795854749336&#45;&gt;dir_28f821d546ace6ab9b8c5a81f47cb6c0 -->
<g id="edge1" class="edge">
<title>dir_5bbbaec82e60c1c95ef5795854749336&#45;&gt;dir_28f821d546ace6ab9b8c5a81f47cb6c0</title>
<path fill="none" stroke="black" d="M70.1,-87.7C66,-79.73 61.05,-70.1 56.51,-61.26"/>
<polygon fill="black" stroke="black" points="59.48,-59.4 51.8,-52.1 53.26,-62.6 59.48,-59.4"/>
<g id="a_edge1&#45;headlabel"><a xlink:href="dir_000010_000031.html" target="_top" xlink:title="2">
<text text-anchor="middle" x="63.65" y="-58.79" font-family="Helvetica,sans-Serif" font-size="10.00">2</text>
</a>
</g>
</g>
<!-- dir_5bbbaec82e60c1c95ef5795854749336&#45;&gt;dir_d7b6a63eed36fea2858d2aa41ca33f02 -->
<g id="edge2" class="edge">
<title>dir_5bbbaec82e60c1c95ef5795854749336&#45;&gt;dir_d7b6a63eed36fea2858d2aa41ca33f02</title>
<path fill="none" stroke="black" d="M87.9,-87.7C92,-79.73 96.95,-70.1 101.49,-61.26"/>
<polygon fill="black" stroke="black" points="104.74,-62.6 106.2,-52.1 98.52,-59.4 104.74,-62.6"/>
<g id="a_edge2&#45;headlabel"><a xlink:href="dir_000010_000013.html" target="_top" xlink:title="1">
<text text-anchor="middle" x="105.62" y="-64.59" font-family="Helvetica,sans-Serif" font-size="10.00">1</text>
</a>
</g>
</g>
</g>
</svg>
