<?xml version="1.0" encoding="UTF-8" standalone="no"?>
<!DOCTYPE svg PUBLIC "-//W3C//DTD SVG 1.1//EN"
 "http://www.w3.org/Graphics/SVG/1.1/DTD/svg11.dtd">
<!-- Generated by graphviz version 2.43.0 (0)
 -->
<!-- Title: alps_core/lib_internal/alps_common_lib/include/alps_cmn/type Pages: 1 -->
<svg width="94pt" height="167pt"
 viewBox="0.00 0.00 94.00 167.00" xmlns="http://www.w3.org/2000/svg" xmlns:xlink="http://www.w3.org/1999/xlink">
<g id="graph0" class="graph" transform="scale(1 1) rotate(0) translate(4 163)">
<title>alps_core/lib_internal/alps_common_lib/include/alps_cmn/type</title>
<polygon fill="white" stroke="transparent" points="-4,4 -4,-163 90,-163 90,4 -4,4"/>
<g id="clust1" class="cluster">
<title>clusterdir_664123f27b70b10eeac81c10039fb160</title>
<g id="a_clust1"><a xlink:href="dir_664123f27b70b10eeac81c10039fb160.html" target="_top" xlink:title="alps_cmn">
<polygon fill="#ddddee" stroke="black" points="8,-8 8,-151 78,-151 78,-8 8,-8"/>
<text text-anchor="middle" x="43" y="-139" font-family="Helvetica,sans-Serif" font-size="10.00">alps_cmn</text>
</a>
</g>
</g>
<!-- dir_d33103ac168077bdcd2b65f79896931a -->
<g id="node1" class="node">
<title>dir_d33103ac168077bdcd2b65f79896931a</title>
<g id="a_node1"><a xlink:href="dir_d33103ac168077bdcd2b65f79896931a.html" target="_top" xlink:title="time">
<polygon fill="none" stroke="black" points="70,-52 16,-52 16,-16 70,-16 70,-52"/>
<text text-anchor="middle" x="43" y="-31.5" font-family="Helvetica,sans-Serif" font-size="10.00">time</text>
</a>
</g>
</g>
<!-- dir_28f821d546ace6ab9b8c5a81f47cb6c0 -->
<g id="node2" class="node">
<title>dir_28f821d546ace6ab9b8c5a81f47cb6c0</title>
<g id="a_node2"><a xlink:href="dir_28f821d546ace6ab9b8c5a81f47cb6c0.html" target="_top" xlink:title="type">
<polygon fill="#eeeeff" stroke="black" points="70,-124 16,-124 16,-88 70,-88 70,-124"/>
<text text-anchor="middle" x="43" y="-103.5" font-family="Helvetica,sans-Serif" font-size="10.00">type</text>
</a>
</g>
</g>
<!-- dir_28f821d546ace6ab9b8c5a81f47cb6c0&#45;&gt;dir_d33103ac168077bdcd2b65f79896931a -->
<g id="edge1" class="edge">
<title>dir_28f821d546ace6ab9b8c5a81f47cb6c0&#45;&gt;dir_d33103ac168077bdcd2b65f79896931a</title>
<path fill="none" stroke="black" d="M43,-87.7C43,-79.98 43,-70.71 43,-62.11"/>
<polygon fill="black" stroke="black" points="46.5,-62.1 43,-52.1 39.5,-62.1 46.5,-62.1"/>
<g id="a_edge1&#45;headlabel"><a xlink:href="dir_000031_000029.html" target="_top" xlink:title="1">
<text text-anchor="middle" x="49.34" y="-63.2" font-family="Helvetica,sans-Serif" font-size="10.00">1</text>
</a>
</g>
</g>
</g>
</svg>
