<?xml version="1.0" encoding="UTF-8" standalone="no"?>
<!DOCTYPE svg PUBLIC "-//W3C//DTD SVG 1.1//EN"
 "http://www.w3.org/Graphics/SVG/1.1/DTD/svg11.dtd">
<!-- Generated by graphviz version 2.43.0 (0)
 -->
<!-- Title: alps_linux_lib/include/alps_lin/communication Pages: 1 -->
<svg width="132pt" height="151pt"
 viewBox="0.00 0.00 132.00 151.00" xmlns="http://www.w3.org/2000/svg" xmlns:xlink="http://www.w3.org/1999/xlink">
<g id="graph0" class="graph" transform="scale(1 1) rotate(0) translate(4 147)">
<title>alps_linux_lib/include/alps_lin/communication</title>
<polygon fill="white" stroke="transparent" points="-4,4 -4,-147 128,-147 128,4 -4,4"/>
<g id="clust1" class="cluster">
<title>clusterdir_a2f3e768eb1f47df90dbab1b9b2951f6</title>
<g id="a_clust1"><a xlink:href="dir_a2f3e768eb1f47df90dbab1b9b2951f6.html" target="_top" xlink:title="alps_lin">
<polygon fill="#ddddee" stroke="black" points="8,-64 8,-135 116,-135 116,-64 8,-64"/>
<text text-anchor="middle" x="62" y="-123" font-family="Helvetica,sans-Serif" font-size="10.00">alps_lin</text>
</a>
</g>
</g>
<!-- dir_042306a24671901d82947867ee593e03 -->
<g id="node1" class="node">
<title>dir_042306a24671901d82947867ee593e03</title>
<g id="a_node1"><a xlink:href="dir_042306a24671901d82947867ee593e03.html" target="_top" xlink:title="communication">
<polygon fill="#eeeeff" stroke="black" points="108,-108 16,-108 16,-72 108,-72 108,-108"/>
<text text-anchor="middle" x="62" y="-87.5" font-family="Helvetica,sans-Serif" font-size="10.00">communication</text>
</a>
</g>
</g>
<!-- dir_fcd1ba41f8679fcc7bf76d667eaa0e17 -->
<g id="node2" class="node">
<title>dir_fcd1ba41f8679fcc7bf76d667eaa0e17</title>
<g id="a_node2"><a xlink:href="dir_fcd1ba41f8679fcc7bf76d667eaa0e17.html" target="_top" xlink:title="alps_common_lib">
<polygon fill="white" stroke="red" points="113,-36 11,-36 11,0 113,0 113,-36"/>
<text text-anchor="middle" x="62" y="-15.5" font-family="Helvetica,sans-Serif" font-size="10.00">alps_common_lib</text>
</a>
</g>
</g>
<!-- dir_042306a24671901d82947867ee593e03&#45;&gt;dir_fcd1ba41f8679fcc7bf76d667eaa0e17 -->
<g id="edge1" class="edge">
<title>dir_042306a24671901d82947867ee593e03&#45;&gt;dir_fcd1ba41f8679fcc7bf76d667eaa0e17</title>
<path fill="none" stroke="black" d="M62,-71.7C62,-63.98 62,-54.71 62,-46.11"/>
<polygon fill="black" stroke="black" points="65.5,-46.1 62,-36.1 58.5,-46.1 65.5,-46.1"/>
<g id="a_edge1&#45;headlabel"><a xlink:href="dir_000029_000000.html" target="_top" xlink:title="2">
<text text-anchor="middle" x="68.34" y="-47.2" font-family="Helvetica,sans-Serif" font-size="10.00">2</text>
</a>
</g>
</g>
</g>
</svg>
