<?xml version="1.0" encoding="UTF-8" standalone="no"?>
<!DOCTYPE svg PUBLIC "-//W3C//DTD SVG 1.1//EN"
 "http://www.w3.org/Graphics/SVG/1.1/DTD/svg11.dtd">
<!-- Generated by graphviz version 2.43.0 (0)
 -->
<!-- Title: roblab_mbed_lib/include/roblab_mbed Pages: 1 -->
<svg width="341pt" height="180pt"
 viewBox="0.00 0.00 341.00 180.00" xmlns="http://www.w3.org/2000/svg" xmlns:xlink="http://www.w3.org/1999/xlink">
<g id="graph0" class="graph" transform="scale(1 1) rotate(0) translate(4 176)">
<title>roblab_mbed_lib/include/roblab_mbed</title>
<g id="clust1" class="cluster">
<title>clusterdir_858b1795adc2910eb251408166003f7f</title>
<g id="a_clust1"><a xlink:href="dir_858b1795adc2910eb251408166003f7f.html" target="_top" xlink:title="include">
<polygon fill="#daedff" stroke="#7f7f7f" stroke-dasharray="5,2" points="8,-39 8,-164 325,-164 325,-39 8,-39"/>
<text text-anchor="middle" x="166.5" y="-152" font-family="Helvetica,sans-Serif" font-size="10.00">include</text>
</a>
</g>
</g>
<g id="clust2" class="cluster">
<title>clusterdir_8f2461ed01872a68db9a9b31590e2846</title>
<g id="a_clust2"><a xlink:href="dir_8f2461ed01872a68db9a9b31590e2846.html" target="_top">
<polygon fill="#daedff" stroke="#404040" stroke-width="2" points="16,-47 16,-137 317,-137 317,-47 16,-47"/>
</a>
</g>
</g>
<!-- dir_8f2461ed01872a68db9a9b31590e2846 -->
<g id="node1" class="node">
<title>dir_8f2461ed01872a68db9a9b31590e2846</title>
<text text-anchor="middle" x="269" y="-117" font-family="Helvetica,sans-Serif" font-size="10.00">roblab_mbed</text>
</g>
<!-- dir_4da496a44ec4cd966a18c67c0ee27fec -->
<g id="node2" class="node">
<title>dir_4da496a44ec4cd966a18c67c0ee27fec</title>
<g id="a_node2"><a xlink:href="dir_4da496a44ec4cd966a18c67c0ee27fec.html" target="_top" xlink:title="actuator">
<polygon fill="#4ea9ff" stroke="#404040" points="81.5,-129 24.5,-129 24.5,-110 81.5,-110 81.5,-129"/>
<text text-anchor="middle" x="53" y="-117" font-family="Helvetica,sans-Serif" font-size="10.00">actuator</text>
</a>
</g>
</g>
<!-- dir_f45560154fa7502d930f29fb8edf9890 -->
<g id="node3" class="node">
<title>dir_f45560154fa7502d930f29fb8edf9890</title>
<g id="a_node3"><a xlink:href="dir_f45560154fa7502d930f29fb8edf9890.html" target="_top" xlink:title="gpio">
<polygon fill="#4ea9ff" stroke="#404040" points="72,-74 34,-74 34,-55 72,-55 72,-74"/>
<text text-anchor="middle" x="53" y="-62" font-family="Helvetica,sans-Serif" font-size="10.00">gpio</text>
</a>
</g>
</g>
<!-- dir_4da496a44ec4cd966a18c67c0ee27fec&#45;&gt;dir_f45560154fa7502d930f29fb8edf9890 -->
<g id="edge2" class="edge">
<title>dir_4da496a44ec4cd966a18c67c0ee27fec&#45;&gt;dir_f45560154fa7502d930f29fb8edf9890</title>
<path fill="none" stroke="#63b8ff" d="M53,-109.75C53,-102.8 53,-92.85 53,-84.13"/>
<polygon fill="#63b8ff" stroke="#63b8ff" points="56.5,-84.09 53,-74.09 49.5,-84.09 56.5,-84.09"/>
<g id="a_edge2&#45;headlabel"><a xlink:href="dir_000001_000004.html" target="_top" xlink:title="3">
<text text-anchor="middle" x="59.34" y="-85.18" font-family="Helvetica,sans-Serif" font-size="10.00" fill="#63b8ff">3</text>
</a>
</g>
</g>
<!-- dir_efc7c08bb78c728619d6f844434d9ba6 -->
<g id="node6" class="node">
<title>dir_efc7c08bb78c728619d6f844434d9ba6</title>
<g id="a_node6"><a xlink:href="dir_efc7c08bb78c728619d6f844434d9ba6.html" target="_top" xlink:title="roblab_common_lib">
<polygon fill="#daedff" stroke="red" points="175.5,-19 62.5,-19 62.5,0 175.5,0 175.5,-19"/>
<text text-anchor="middle" x="119" y="-7" font-family="Helvetica,sans-Serif" font-size="10.00">roblab_common_lib</text>
</a>
</g>
</g>
<!-- dir_4da496a44ec4cd966a18c67c0ee27fec&#45;&gt;dir_efc7c08bb78c728619d6f844434d9ba6 -->
<g id="edge1" class="edge">
<title>dir_4da496a44ec4cd966a18c67c0ee27fec&#45;&gt;dir_efc7c08bb78c728619d6f844434d9ba6</title>
<path fill="none" stroke="#63b8ff" d="M58.64,-109.67C64.33,-100.72 73.36,-86.45 81,-74 90.53,-58.47 101.17,-40.65 108.76,-27.85"/>
<polygon fill="#63b8ff" stroke="#63b8ff" points="111.82,-29.55 113.9,-19.16 105.79,-25.99 111.82,-29.55"/>
<g id="a_edge1&#45;headlabel"><a xlink:href="dir_000001_000009.html" target="_top" xlink:title="2">
<text text-anchor="middle" x="112.43" y="-31.59" font-family="Helvetica,sans-Serif" font-size="10.00" fill="#63b8ff">2</text>
</a>
</g>
</g>
<!-- dir_f45560154fa7502d930f29fb8edf9890&#45;&gt;dir_efc7c08bb78c728619d6f844434d9ba6 -->
<g id="edge3" class="edge">
<title>dir_f45560154fa7502d930f29fb8edf9890&#45;&gt;dir_efc7c08bb78c728619d6f844434d9ba6</title>
<path fill="none" stroke="#63b8ff" d="M63.6,-54.98C73.46,-47.07 88.35,-35.11 100.22,-25.58"/>
<polygon fill="#63b8ff" stroke="#63b8ff" points="102.6,-28.16 108.2,-19.17 98.21,-22.7 102.6,-28.16"/>
<g id="a_edge3&#45;headlabel"><a xlink:href="dir_000004_000009.html" target="_top" xlink:title="7">
<text text-anchor="middle" x="101.57" y="-30.13" font-family="Helvetica,sans-Serif" font-size="10.00" fill="#63b8ff">7</text>
</a>
</g>
</g>
<!-- dir_ca16e9b9462a3195835ea2b0707bb836 -->
<g id="node4" class="node">
<title>dir_ca16e9b9462a3195835ea2b0707bb836</title>
<g id="a_node4"><a xlink:href="dir_ca16e9b9462a3195835ea2b0707bb836.html" target="_top" xlink:title="sensor">
<polygon fill="#4ea9ff" stroke="#404040" points="148.5,-129 99.5,-129 99.5,-110 148.5,-110 148.5,-129"/>
<text text-anchor="middle" x="124" y="-117" font-family="Helvetica,sans-Serif" font-size="10.00">sensor</text>
</a>
</g>
</g>
<!-- dir_ca16e9b9462a3195835ea2b0707bb836&#45;&gt;dir_f45560154fa7502d930f29fb8edf9890 -->
<g id="edge5" class="edge">
<title>dir_ca16e9b9462a3195835ea2b0707bb836&#45;&gt;dir_f45560154fa7502d930f29fb8edf9890</title>
<path fill="none" stroke="#63b8ff" d="M112.59,-109.98C101.89,-102 85.66,-89.88 72.84,-80.31"/>
<polygon fill="#63b8ff" stroke="#63b8ff" points="74.72,-77.35 64.61,-74.17 70.53,-82.96 74.72,-77.35"/>
<g id="a_edge5&#45;headlabel"><a xlink:href="dir_000015_000004.html" target="_top" xlink:title="2">
<text text-anchor="middle" x="79.3" y="-74.72" font-family="Helvetica,sans-Serif" font-size="10.00" fill="#63b8ff">2</text>
</a>
</g>
</g>
<!-- dir_ca16e9b9462a3195835ea2b0707bb836&#45;&gt;dir_efc7c08bb78c728619d6f844434d9ba6 -->
<g id="edge4" class="edge">
<title>dir_ca16e9b9462a3195835ea2b0707bb836&#45;&gt;dir_efc7c08bb78c728619d6f844434d9ba6</title>
<path fill="none" stroke="#63b8ff" d="M123.59,-109.66C122.78,-92.17 120.96,-52.8 119.87,-29.27"/>
<polygon fill="#63b8ff" stroke="#63b8ff" points="123.36,-28.99 119.4,-19.16 116.37,-29.31 123.36,-28.99"/>
<g id="a_edge4&#45;headlabel"><a xlink:href="dir_000015_000009.html" target="_top" xlink:title="1">
<text text-anchor="middle" x="126.36" y="-29.95" font-family="Helvetica,sans-Serif" font-size="10.00" fill="#63b8ff">1</text>
</a>
</g>
</g>
<!-- dir_1facac1afc55653d03baac48191ccee2 -->
<g id="node5" class="node">
<title>dir_1facac1afc55653d03baac48191ccee2</title>
<g id="a_node5"><a xlink:href="dir_1facac1afc55653d03baac48191ccee2.html" target="_top" xlink:title="serial">
<polygon fill="#4ea9ff" stroke="#404040" points="211,-129 167,-129 167,-110 211,-110 211,-129"/>
<text text-anchor="middle" x="189" y="-117" font-family="Helvetica,sans-Serif" font-size="10.00">serial</text>
</a>
</g>
</g>
<!-- dir_1facac1afc55653d03baac48191ccee2&#45;&gt;dir_efc7c08bb78c728619d6f844434d9ba6 -->
<g id="edge6" class="edge">
<title>dir_1facac1afc55653d03baac48191ccee2&#45;&gt;dir_efc7c08bb78c728619d6f844434d9ba6</title>
<path fill="none" stroke="#63b8ff" d="M183.27,-109.66C171.68,-91.77 145.25,-51 130.14,-27.69"/>
<polygon fill="#63b8ff" stroke="#63b8ff" points="132.99,-25.65 124.61,-19.16 127.11,-29.45 132.99,-25.65"/>
<g id="a_edge6&#45;headlabel"><a xlink:href="dir_000017_000009.html" target="_top" xlink:title="3">
<text text-anchor="middle" x="137.33" y="-24.62" font-family="Helvetica,sans-Serif" font-size="10.00" fill="#63b8ff">3</text>
</a>
</g>
</g>
</g>
</svg>
