<?xml version="1.0" encoding="UTF-8" standalone="no"?>
<!DOCTYPE svg PUBLIC "-//W3C//DTD SVG 1.1//EN"
 "http://www.w3.org/Graphics/SVG/1.1/DTD/svg11.dtd">
<!-- Generated by graphviz version 2.43.0 (0)
 -->
<!-- Title: alps_core/lib_internal/alps_mbed_lib/include Pages: 1 -->
<svg width="198pt" height="159pt"
 viewBox="0.00 0.00 198.00 159.00" xmlns="http://www.w3.org/2000/svg" xmlns:xlink="http://www.w3.org/1999/xlink">
<g id="graph0" class="graph" transform="scale(1 1) rotate(0) translate(4 155)">
<title>alps_core/lib_internal/alps_mbed_lib/include</title>
<polygon fill="white" stroke="transparent" points="-4,4 -4,-155 194,-155 194,4 -4,4"/>
<g id="clust1" class="cluster">
<title>clusterdir_9873ffdc03473915e57dacf48330031a</title>
<g id="a_clust1"><a xlink:href="dir_9873ffdc03473915e57dacf48330031a.html" target="_top" xlink:title="alps_mbed_lib">
<polygon fill="#ddddee" stroke="black" points="8,-56 8,-143 182,-143 182,-56 8,-56"/>
<text text-anchor="middle" x="95" y="-131" font-family="Helvetica,sans-Serif" font-size="10.00">alps_mbed_lib</text>
</a>
</g>
</g>
<g id="clust2" class="cluster">
<title>clusterdir_004f98237f8c341a9024f226d8b822ea</title>
<g id="a_clust2"><a xlink:href="dir_004f98237f8c341a9024f226d8b822ea.html" target="_top">
<polygon fill="#eeeeff" stroke="black" points="16,-64 16,-116 174,-116 174,-64 16,-64"/>
</a>
</g>
</g>
<!-- dir_004f98237f8c341a9024f226d8b822ea -->
<g id="node1" class="node">
<title>dir_004f98237f8c341a9024f226d8b822ea</title>
<text text-anchor="middle" x="139" y="-87.5" font-family="Helvetica,sans-Serif" font-size="10.00">include</text>
</g>
<!-- dir_aeddf8fa4339a06bf9ad9a961c7b6af8 -->
<g id="node2" class="node">
<title>dir_aeddf8fa4339a06bf9ad9a961c7b6af8</title>
<g id="a_node2"><a xlink:href="dir_aeddf8fa4339a06bf9ad9a961c7b6af8.html" target="_top" xlink:title="alps_mbed">
<polygon fill="white" stroke="red" points="94,-108 24,-108 24,-72 94,-72 94,-108"/>
<text text-anchor="middle" x="59" y="-87.5" font-family="Helvetica,sans-Serif" font-size="10.00">alps_mbed</text>
</a>
</g>
</g>
<!-- dir_dbb6a150a1d2a9e3bac0bb1d4855e995 -->
<g id="node3" class="node">
<title>dir_dbb6a150a1d2a9e3bac0bb1d4855e995</title>
<g id="a_node3"><a xlink:href="dir_dbb6a150a1d2a9e3bac0bb1d4855e995.html" target="_top" xlink:title="alps_common_lib">
<polygon fill="white" stroke="red" points="110,-36 8,-36 8,0 110,0 110,-36"/>
<text text-anchor="middle" x="59" y="-15.5" font-family="Helvetica,sans-Serif" font-size="10.00">alps_common_lib</text>
</a>
</g>
</g>
<!-- dir_aeddf8fa4339a06bf9ad9a961c7b6af8&#45;&gt;dir_dbb6a150a1d2a9e3bac0bb1d4855e995 -->
<g id="edge1" class="edge">
<title>dir_aeddf8fa4339a06bf9ad9a961c7b6af8&#45;&gt;dir_dbb6a150a1d2a9e3bac0bb1d4855e995</title>
<path fill="none" stroke="black" d="M59,-71.7C59,-63.98 59,-54.71 59,-46.11"/>
<polygon fill="black" stroke="black" points="62.5,-46.1 59,-36.1 55.5,-46.1 62.5,-46.1"/>
<g id="a_edge1&#45;headlabel"><a xlink:href="dir_000008_000002.html" target="_top" xlink:title="13">
<text text-anchor="middle" x="65.34" y="-47.2" font-family="Helvetica,sans-Serif" font-size="10.00">13</text>
</a>
</g>
</g>
</g>
</svg>
