<?xml version="1.0" encoding="UTF-8" standalone="no"?>
<!DOCTYPE svg PUBLIC "-//W3C//DTD SVG 1.1//EN"
 "http://www.w3.org/Graphics/SVG/1.1/DTD/svg11.dtd">
<!-- Generated by graphviz version 2.43.0 (0)
 -->
<!-- Title: alps_common_lib/include/alps_cmn/sensor Pages: 1 -->
<svg width="238pt" height="311pt"
 viewBox="0.00 0.00 238.00 311.00" xmlns="http://www.w3.org/2000/svg" xmlns:xlink="http://www.w3.org/1999/xlink">
<g id="graph0" class="graph" transform="scale(1 1) rotate(0) translate(4 307)">
<title>alps_common_lib/include/alps_cmn/sensor</title>
<polygon fill="white" stroke="transparent" points="-4,4 -4,-307 234,-307 234,4 -4,4"/>
<g id="clust1" class="cluster">
<title>clusterdir_cc648f72f51f156e42f9863c0e5bf5fb</title>
<g id="a_clust1"><a xlink:href="dir_cc648f72f51f156e42f9863c0e5bf5fb.html" target="_top" xlink:title="alps_cmn">
<polygon fill="#ddddee" stroke="black" points="8,-8 8,-295 222,-295 222,-8 8,-8"/>
<text text-anchor="middle" x="115" y="-283" font-family="Helvetica,sans-Serif" font-size="10.00">alps_cmn</text>
</a>
</g>
</g>
<!-- dir_1367935105ebc251618457953f8d2b80 -->
<g id="node1" class="node">
<title>dir_1367935105ebc251618457953f8d2b80</title>
<g id="a_node1"><a xlink:href="dir_1367935105ebc251618457953f8d2b80.html" target="_top" xlink:title="time">
<polygon fill="none" stroke="black" points="70,-52 16,-52 16,-16 70,-16 70,-52"/>
<text text-anchor="middle" x="43" y="-31.5" font-family="Helvetica,sans-Serif" font-size="10.00">time</text>
</a>
</g>
</g>
<!-- dir_26247a4c7d21a73996b8a7832c1a1463 -->
<g id="node2" class="node">
<title>dir_26247a4c7d21a73996b8a7832c1a1463</title>
<g id="a_node2"><a xlink:href="dir_26247a4c7d21a73996b8a7832c1a1463.html" target="_top" xlink:title="util">
<polygon fill="none" stroke="black" points="142,-52 88,-52 88,-16 142,-16 142,-52"/>
<text text-anchor="middle" x="115" y="-31.5" font-family="Helvetica,sans-Serif" font-size="10.00">util</text>
</a>
</g>
</g>
<!-- dir_76fd7680a09542374d3e212281ba6ee2 -->
<g id="node3" class="node">
<title>dir_76fd7680a09542374d3e212281ba6ee2</title>
<g id="a_node3"><a xlink:href="dir_76fd7680a09542374d3e212281ba6ee2.html" target="_top" xlink:title="communication">
<polygon fill="none" stroke="black" points="125,-268 33,-268 33,-232 125,-232 125,-268"/>
<text text-anchor="middle" x="79" y="-247.5" font-family="Helvetica,sans-Serif" font-size="10.00">communication</text>
</a>
</g>
</g>
<!-- dir_76fd7680a09542374d3e212281ba6ee2&#45;&gt;dir_1367935105ebc251618457953f8d2b80 -->
<g id="edge4" class="edge">
<title>dir_76fd7680a09542374d3e212281ba6ee2&#45;&gt;dir_1367935105ebc251618457953f8d2b80</title>
<path fill="none" stroke="black" d="M63.39,-231.77C55.63,-222.03 47.05,-209.18 43,-196 29.12,-150.87 33.56,-95.21 38.18,-62.56"/>
<polygon fill="black" stroke="black" points="41.68,-62.83 39.73,-52.41 34.76,-61.77 41.68,-62.83"/>
<g id="a_edge4&#45;headlabel"><a xlink:href="dir_000008_000027.html" target="_top" xlink:title="1">
<text text-anchor="middle" x="43.94" y="-64.31" font-family="Helvetica,sans-Serif" font-size="10.00">1</text>
</a>
</g>
</g>
<!-- dir_83658e075a4ab7b2cbb8779471289882 -->
<g id="node5" class="node">
<title>dir_83658e075a4ab7b2cbb8779471289882</title>
<g id="a_node5"><a xlink:href="dir_83658e075a4ab7b2cbb8779471289882.html" target="_top" xlink:title="control">
<polygon fill="none" stroke="black" points="106,-196 52,-196 52,-160 106,-160 106,-196"/>
<text text-anchor="middle" x="79" y="-175.5" font-family="Helvetica,sans-Serif" font-size="10.00">control</text>
</a>
</g>
</g>
<!-- dir_76fd7680a09542374d3e212281ba6ee2&#45;&gt;dir_83658e075a4ab7b2cbb8779471289882 -->
<g id="edge5" class="edge">
<title>dir_76fd7680a09542374d3e212281ba6ee2&#45;&gt;dir_83658e075a4ab7b2cbb8779471289882</title>
<path fill="none" stroke="black" d="M79,-231.7C79,-223.98 79,-214.71 79,-206.11"/>
<polygon fill="black" stroke="black" points="82.5,-206.1 79,-196.1 75.5,-206.1 82.5,-206.1"/>
<g id="a_edge5&#45;headlabel"><a xlink:href="dir_000008_000009.html" target="_top" xlink:title="1">
<text text-anchor="middle" x="85.34" y="-207.2" font-family="Helvetica,sans-Serif" font-size="10.00">1</text>
</a>
</g>
</g>
<!-- dir_7913872ef1e9131c7a4facddec50fb6b -->
<g id="node4" class="node">
<title>dir_7913872ef1e9131c7a4facddec50fb6b</title>
<g id="a_node4"><a xlink:href="dir_7913872ef1e9131c7a4facddec50fb6b.html" target="_top" xlink:title="gpio">
<polygon fill="none" stroke="black" points="214,-52 160,-52 160,-16 214,-16 214,-52"/>
<text text-anchor="middle" x="187" y="-31.5" font-family="Helvetica,sans-Serif" font-size="10.00">gpio</text>
</a>
</g>
</g>
<!-- dir_83658e075a4ab7b2cbb8779471289882&#45;&gt;dir_1367935105ebc251618457953f8d2b80 -->
<g id="edge1" class="edge">
<title>dir_83658e075a4ab7b2cbb8779471289882&#45;&gt;dir_1367935105ebc251618457953f8d2b80</title>
<path fill="none" stroke="black" d="M74.66,-159.87C68.5,-135.56 57.15,-90.82 49.85,-62.01"/>
<polygon fill="black" stroke="black" points="53.21,-61.02 47.36,-52.19 46.42,-62.74 53.21,-61.02"/>
<g id="a_edge1&#45;headlabel"><a xlink:href="dir_000009_000027.html" target="_top" xlink:title="4">
<text text-anchor="middle" x="56.84" y="-61.31" font-family="Helvetica,sans-Serif" font-size="10.00">4</text>
</a>
</g>
</g>
<!-- dir_83658e075a4ab7b2cbb8779471289882&#45;&gt;dir_26247a4c7d21a73996b8a7832c1a1463 -->
<g id="edge2" class="edge">
<title>dir_83658e075a4ab7b2cbb8779471289882&#45;&gt;dir_26247a4c7d21a73996b8a7832c1a1463</title>
<path fill="none" stroke="black" d="M78.87,-159.91C79.16,-141.73 80.86,-112.29 88,-88 90.67,-78.93 94.88,-69.57 99.19,-61.29"/>
<polygon fill="black" stroke="black" points="102.29,-62.92 104.02,-52.46 96.15,-59.55 102.29,-62.92"/>
<g id="a_edge2&#45;headlabel"><a xlink:href="dir_000009_000029.html" target="_top" xlink:title="3">
<text text-anchor="middle" x="103.05" y="-64.93" font-family="Helvetica,sans-Serif" font-size="10.00">3</text>
</a>
</g>
</g>
<!-- dir_96320550a29baac38dc9eb0ae89f5e73 -->
<g id="node6" class="node">
<title>dir_96320550a29baac38dc9eb0ae89f5e73</title>
<g id="a_node6"><a xlink:href="dir_96320550a29baac38dc9eb0ae89f5e73.html" target="_top" xlink:title="sensor">
<polygon fill="#eeeeff" stroke="black" points="151,-124 97,-124 97,-88 151,-88 151,-124"/>
<text text-anchor="middle" x="124" y="-103.5" font-family="Helvetica,sans-Serif" font-size="10.00">sensor</text>
</a>
</g>
</g>
<!-- dir_83658e075a4ab7b2cbb8779471289882&#45;&gt;dir_96320550a29baac38dc9eb0ae89f5e73 -->
<g id="edge3" class="edge">
<title>dir_83658e075a4ab7b2cbb8779471289882&#45;&gt;dir_96320550a29baac38dc9eb0ae89f5e73</title>
<path fill="none" stroke="black" d="M84.21,-159.7C88.65,-151.47 94.87,-141.48 101.14,-132.42"/>
<polygon fill="black" stroke="black" points="104.12,-134.27 107.11,-124.1 98.43,-130.19 104.12,-134.27"/>
<g id="a_edge3&#45;headlabel"><a xlink:href="dir_000009_000025.html" target="_top" xlink:title="4">
<text text-anchor="middle" x="104.33" y="-136.34" font-family="Helvetica,sans-Serif" font-size="10.00">4</text>
</a>
</g>
</g>
<!-- dir_96320550a29baac38dc9eb0ae89f5e73&#45;&gt;dir_1367935105ebc251618457953f8d2b80 -->
<g id="edge6" class="edge">
<title>dir_96320550a29baac38dc9eb0ae89f5e73&#45;&gt;dir_1367935105ebc251618457953f8d2b80</title>
<path fill="none" stroke="black" d="M103.98,-87.7C93.87,-78.97 81.46,-68.24 70.48,-58.75"/>
<polygon fill="black" stroke="black" points="72.65,-55.99 62.79,-52.1 68.07,-61.29 72.65,-55.99"/>
<g id="a_edge6&#45;headlabel"><a xlink:href="dir_000025_000027.html" target="_top" xlink:title="2">
<text text-anchor="middle" x="77.22" y="-53.7" font-family="Helvetica,sans-Serif" font-size="10.00">2</text>
</a>
</g>
</g>
<!-- dir_96320550a29baac38dc9eb0ae89f5e73&#45;&gt;dir_26247a4c7d21a73996b8a7832c1a1463 -->
<g id="edge7" class="edge">
<title>dir_96320550a29baac38dc9eb0ae89f5e73&#45;&gt;dir_26247a4c7d21a73996b8a7832c1a1463</title>
<path fill="none" stroke="black" d="M121.78,-87.7C120.78,-79.98 119.59,-70.71 118.49,-62.11"/>
<polygon fill="black" stroke="black" points="121.95,-61.58 117.2,-52.1 115,-62.47 121.95,-61.58"/>
<g id="a_edge7&#45;headlabel"><a xlink:href="dir_000025_000029.html" target="_top" xlink:title="2">
<text text-anchor="middle" x="125.22" y="-62.28" font-family="Helvetica,sans-Serif" font-size="10.00">2</text>
</a>
</g>
</g>
<!-- dir_96320550a29baac38dc9eb0ae89f5e73&#45;&gt;dir_76fd7680a09542374d3e212281ba6ee2 -->
<g id="edge8" class="edge">
<title>dir_96320550a29baac38dc9eb0ae89f5e73&#45;&gt;dir_76fd7680a09542374d3e212281ba6ee2</title>
<path fill="none" stroke="black" d="M124.72,-124.28C124.93,-142.63 123.65,-172.21 115,-196 111.5,-205.62 105.87,-215.17 100.08,-223.46"/>
<polygon fill="black" stroke="black" points="97.2,-221.47 94.08,-231.6 102.84,-225.63 97.2,-221.47"/>
<g id="a_edge8&#45;headlabel"><a xlink:href="dir_000025_000008.html" target="_top" xlink:title="4">
<text text-anchor="middle" x="97.05" y="-214.39" font-family="Helvetica,sans-Serif" font-size="10.00">4</text>
</a>
</g>
</g>
<!-- dir_96320550a29baac38dc9eb0ae89f5e73&#45;&gt;dir_7913872ef1e9131c7a4facddec50fb6b -->
<g id="edge9" class="edge">
<title>dir_96320550a29baac38dc9eb0ae89f5e73&#45;&gt;dir_7913872ef1e9131c7a4facddec50fb6b</title>
<path fill="none" stroke="black" d="M139.57,-87.7C147.2,-79.22 156.52,-68.86 164.88,-59.58"/>
<polygon fill="black" stroke="black" points="167.52,-61.88 171.61,-52.1 162.31,-57.2 167.52,-61.88"/>
<g id="a_edge9&#45;headlabel"><a xlink:href="dir_000025_000010.html" target="_top" xlink:title="3">
<text text-anchor="middle" x="167.22" y="-63.95" font-family="Helvetica,sans-Serif" font-size="10.00">3</text>
</a>
</g>
</g>
<!-- dir_96320550a29baac38dc9eb0ae89f5e73&#45;&gt;dir_83658e075a4ab7b2cbb8779471289882 -->
<g id="edge10" class="edge">
<title>dir_96320550a29baac38dc9eb0ae89f5e73&#45;&gt;dir_83658e075a4ab7b2cbb8779471289882</title>
<path fill="none" stroke="black" d="M118.9,-124.1C114.49,-132.3 108.28,-142.28 102.01,-151.36"/>
<polygon fill="black" stroke="black" points="99.02,-149.53 96.04,-159.7 104.71,-153.61 99.02,-149.53"/>
<g id="a_edge10&#45;headlabel"><a xlink:href="dir_000025_000009.html" target="_top" xlink:title="2">
<text text-anchor="middle" x="98.81" y="-142.45" font-family="Helvetica,sans-Serif" font-size="10.00">2</text>
</a>
</g>
</g>
</g>
</svg>
