<?xml version="1.0" encoding="UTF-8" standalone="no"?>
<!DOCTYPE svg PUBLIC "-//W3C//DTD SVG 1.1//EN"
 "http://www.w3.org/Graphics/SVG/1.1/DTD/svg11.dtd">
<!-- Generated by graphviz version 2.43.0 (0)
 -->
<!-- Title: alps_core/lib_internal Pages: 1 -->
<svg width="632pt" height="183pt"
 viewBox="0.00 0.00 632.00 183.00" xmlns="http://www.w3.org/2000/svg" xmlns:xlink="http://www.w3.org/1999/xlink">
<g id="graph0" class="graph" transform="scale(1 1) rotate(0) translate(4 179)">
<title>alps_core/lib_internal</title>
<polygon fill="white" stroke="transparent" points="-4,4 -4,-179 628,-179 628,4 -4,4"/>
<g id="clust1" class="cluster">
<title>clusterdir_627d875eccf4a985023a7fe06842126c</title>
<g id="a_clust1"><a xlink:href="dir_627d875eccf4a985023a7fe06842126c.html" target="_top" xlink:title="alps_core">
<polygon fill="#ddddee" stroke="black" points="8,-8 8,-167 616,-167 616,-8 8,-8"/>
<text text-anchor="middle" x="312" y="-155" font-family="Helvetica,sans-Serif" font-size="10.00">alps_core</text>
</a>
</g>
</g>
<g id="clust2" class="cluster">
<title>clusterdir_f64f47805544727f04f019e126982967</title>
<g id="a_clust2"><a xlink:href="dir_f64f47805544727f04f019e126982967.html" target="_top">
<polygon fill="#eeeeff" stroke="black" points="16,-16 16,-140 608,-140 608,-16 16,-16"/>
</a>
</g>
</g>
<!-- dir_f64f47805544727f04f019e126982967 -->
<g id="node1" class="node">
<title>dir_f64f47805544727f04f019e126982967</title>
<text text-anchor="middle" x="564" y="-111.5" font-family="Helvetica,sans-Serif" font-size="10.00">lib_internal</text>
</g>
<!-- dir_dbb6a150a1d2a9e3bac0bb1d4855e995 -->
<g id="node2" class="node">
<title>dir_dbb6a150a1d2a9e3bac0bb1d4855e995</title>
<g id="a_node2"><a xlink:href="dir_dbb6a150a1d2a9e3bac0bb1d4855e995.html" target="_top" xlink:title="alps_common_lib">
<polygon fill="white" stroke="red" points="417,-60 315,-60 315,-24 417,-24 417,-60"/>
<text text-anchor="middle" x="366" y="-39.5" font-family="Helvetica,sans-Serif" font-size="10.00">alps_common_lib</text>
</a>
</g>
</g>
<!-- dir_b6adcdfbafe2d1f08c2f98ec29356b93 -->
<g id="node3" class="node">
<title>dir_b6adcdfbafe2d1f08c2f98ec29356b93</title>
<g id="a_node3"><a xlink:href="dir_b6adcdfbafe2d1f08c2f98ec29356b93.html" target="_top" xlink:title="alps_linux_lib">
<polygon fill="white" stroke="red" points="510.5,-132 427.5,-132 427.5,-96 510.5,-96 510.5,-132"/>
<text text-anchor="middle" x="469" y="-111.5" font-family="Helvetica,sans-Serif" font-size="10.00">alps_linux_lib</text>
</a>
</g>
</g>
<!-- dir_b6adcdfbafe2d1f08c2f98ec29356b93&#45;&gt;dir_dbb6a150a1d2a9e3bac0bb1d4855e995 -->
<g id="edge2" class="edge">
<title>dir_b6adcdfbafe2d1f08c2f98ec29356b93&#45;&gt;dir_dbb6a150a1d2a9e3bac0bb1d4855e995</title>
<path fill="none" stroke="black" d="M443.8,-95.88C430.59,-86.89 414.21,-75.76 399.89,-66.03"/>
<polygon fill="black" stroke="black" points="401.53,-62.92 391.29,-60.19 397.6,-68.71 401.53,-62.92"/>
<g id="a_edge2&#45;headlabel"><a xlink:href="dir_000014_000002.html" target="_top" xlink:title="3">
<text text-anchor="middle" x="406.1" y="-60.09" font-family="Helvetica,sans-Serif" font-size="10.00">3</text>
</a>
</g>
</g>
<!-- dir_9873ffdc03473915e57dacf48330031a -->
<g id="node4" class="node">
<title>dir_9873ffdc03473915e57dacf48330031a</title>
<g id="a_node4"><a xlink:href="dir_9873ffdc03473915e57dacf48330031a.html" target="_top" xlink:title="alps_mbed_lib">
<polygon fill="white" stroke="red" points="409.5,-132 322.5,-132 322.5,-96 409.5,-96 409.5,-132"/>
<text text-anchor="middle" x="366" y="-111.5" font-family="Helvetica,sans-Serif" font-size="10.00">alps_mbed_lib</text>
</a>
</g>
</g>
<!-- dir_9873ffdc03473915e57dacf48330031a&#45;&gt;dir_dbb6a150a1d2a9e3bac0bb1d4855e995 -->
<g id="edge1" class="edge">
<title>dir_9873ffdc03473915e57dacf48330031a&#45;&gt;dir_dbb6a150a1d2a9e3bac0bb1d4855e995</title>
<path fill="none" stroke="black" d="M366,-95.7C366,-87.98 366,-78.71 366,-70.11"/>
<polygon fill="black" stroke="black" points="369.5,-70.1 366,-60.1 362.5,-70.1 369.5,-70.1"/>
<g id="a_edge1&#45;headlabel"><a xlink:href="dir_000006_000002.html" target="_top" xlink:title="13">
<text text-anchor="middle" x="372.34" y="-71.2" font-family="Helvetica,sans-Serif" font-size="10.00">13</text>
</a>
</g>
</g>
<!-- dir_bf770a5d4da35e72aa2cb5e026967a58 -->
<g id="node5" class="node">
<title>dir_bf770a5d4da35e72aa2cb5e026967a58</title>
<g id="a_node5"><a xlink:href="dir_bf770a5d4da35e72aa2cb5e026967a58.html" target="_top" xlink:title="alps_ros2_lib">
<polygon fill="white" stroke="red" points="304,-132 224,-132 224,-96 304,-96 304,-132"/>
<text text-anchor="middle" x="264" y="-111.5" font-family="Helvetica,sans-Serif" font-size="10.00">alps_ros2_lib</text>
</a>
</g>
</g>
<!-- dir_bf770a5d4da35e72aa2cb5e026967a58&#45;&gt;dir_dbb6a150a1d2a9e3bac0bb1d4855e995 -->
<g id="edge3" class="edge">
<title>dir_bf770a5d4da35e72aa2cb5e026967a58&#45;&gt;dir_dbb6a150a1d2a9e3bac0bb1d4855e995</title>
<path fill="none" stroke="black" d="M288.95,-95.88C302.04,-86.89 318.26,-75.76 332.44,-66.03"/>
<polygon fill="black" stroke="black" points="334.69,-68.73 340.95,-60.19 330.73,-62.96 334.69,-68.73"/>
<g id="a_edge3&#45;headlabel"><a xlink:href="dir_000023_000002.html" target="_top" xlink:title="12">
<text text-anchor="middle" x="333.33" y="-70.61" font-family="Helvetica,sans-Serif" font-size="10.00">12</text>
</a>
</g>
</g>
<!-- dir_de794ff30ffd6bfe941e6ff5b8277185 -->
<g id="node6" class="node">
<title>dir_de794ff30ffd6bfe941e6ff5b8277185</title>
<g id="a_node6"><a xlink:href="dir_de794ff30ffd6bfe941e6ff5b8277185.html" target="_top" xlink:title="alps_ros_lib">
<polygon fill="white" stroke="red" points="206,-132 132,-132 132,-96 206,-96 206,-132"/>
<text text-anchor="middle" x="169" y="-111.5" font-family="Helvetica,sans-Serif" font-size="10.00">alps_ros_lib</text>
</a>
</g>
</g>
<!-- dir_385dc17fd30ff2509455fc3c3a61baea -->
<g id="node7" class="node">
<title>dir_385dc17fd30ff2509455fc3c3a61baea</title>
<g id="a_node7"><a xlink:href="dir_385dc17fd30ff2509455fc3c3a61baea.html" target="_top" xlink:title="alps_stm32_lib">
<polygon fill="white" stroke="red" points="114,-132 24,-132 24,-96 114,-96 114,-132"/>
<text text-anchor="middle" x="69" y="-111.5" font-family="Helvetica,sans-Serif" font-size="10.00">alps_stm32_lib</text>
</a>
</g>
</g>
</g>
</svg>
