<?xml version="1.0" encoding="UTF-8" standalone="no"?>
<!DOCTYPE svg PUBLIC "-//W3C//DTD SVG 1.1//EN"
 "http://www.w3.org/Graphics/SVG/1.1/DTD/svg11.dtd">
<!-- Generated by graphviz version 2.43.0 (0)
 -->
<!-- Title: alps_core/lib_internal/alps_ros2_lib/include/alps_ros2 Pages: 1 -->
<svg width="476pt" height="255pt"
 viewBox="0.00 0.00 476.00 255.00" xmlns="http://www.w3.org/2000/svg" xmlns:xlink="http://www.w3.org/1999/xlink">
<g id="graph0" class="graph" transform="scale(1 1) rotate(0) translate(4 251)">
<title>alps_core/lib_internal/alps_ros2_lib/include/alps_ros2</title>
<polygon fill="white" stroke="transparent" points="-4,4 -4,-251 472,-251 472,4 -4,4"/>
<g id="clust1" class="cluster">
<title>clusterdir_cce31b221ad05865aefcce4893a92a60</title>
<g id="a_clust1"><a xlink:href="dir_cce31b221ad05865aefcce4893a92a60.html" target="_top" xlink:title="include">
<polygon fill="#ddddee" stroke="black" points="8,-8 8,-239 358,-239 358,-8 8,-8"/>
<text text-anchor="middle" x="183" y="-227" font-family="Helvetica,sans-Serif" font-size="10.00">include</text>
</a>
</g>
</g>
<g id="clust2" class="cluster">
<title>clusterdir_6399a9de56a01148355a477c12de3c84</title>
<g id="a_clust2"><a xlink:href="dir_6399a9de56a01148355a477c12de3c84.html" target="_top">
<polygon fill="#eeeeff" stroke="black" points="16,-16 16,-212 350,-212 350,-16 16,-16"/>
</a>
</g>
</g>
<!-- dir_6399a9de56a01148355a477c12de3c84 -->
<g id="node1" class="node">
<title>dir_6399a9de56a01148355a477c12de3c84</title>
<text text-anchor="middle" x="310" y="-183.5" font-family="Helvetica,sans-Serif" font-size="10.00">alps_ros2</text>
</g>
<!-- dir_45fba23e44dab9635f79e4c99afbf5ad -->
<g id="node2" class="node">
<title>dir_45fba23e44dab9635f79e4c99afbf5ad</title>
<g id="a_node2"><a xlink:href="dir_45fba23e44dab9635f79e4c99afbf5ad.html" target="_top" xlink:title="communication">
<polygon fill="white" stroke="black" points="188,-204 96,-204 96,-168 188,-168 188,-204"/>
<text text-anchor="middle" x="142" y="-183.5" font-family="Helvetica,sans-Serif" font-size="10.00">communication</text>
</a>
</g>
</g>
<!-- dir_690e2e1b8b6059d43a67bedbfe9d42ee -->
<g id="node4" class="node">
<title>dir_690e2e1b8b6059d43a67bedbfe9d42ee</title>
<g id="a_node4"><a xlink:href="dir_690e2e1b8b6059d43a67bedbfe9d42ee.html" target="_top" xlink:title="type">
<polygon fill="white" stroke="black" points="215,-132 161,-132 161,-96 215,-96 215,-132"/>
<text text-anchor="middle" x="188" y="-111.5" font-family="Helvetica,sans-Serif" font-size="10.00">type</text>
</a>
</g>
</g>
<!-- dir_45fba23e44dab9635f79e4c99afbf5ad&#45;&gt;dir_690e2e1b8b6059d43a67bedbfe9d42ee -->
<g id="edge1" class="edge">
<title>dir_45fba23e44dab9635f79e4c99afbf5ad&#45;&gt;dir_690e2e1b8b6059d43a67bedbfe9d42ee</title>
<path fill="none" stroke="black" d="M153.37,-167.7C158.72,-159.56 165.2,-149.69 171.11,-140.7"/>
<polygon fill="black" stroke="black" points="174.19,-142.38 176.76,-132.1 168.34,-138.54 174.19,-142.38"/>
<g id="a_edge1&#45;headlabel"><a xlink:href="dir_000038_000039.html" target="_top" xlink:title="1">
<text text-anchor="middle" x="174.59" y="-144.45" font-family="Helvetica,sans-Serif" font-size="10.00">1</text>
</a>
</g>
</g>
<!-- dir_bc613f62d55886f87db8f26460e84482 -->
<g id="node6" class="node">
<title>dir_bc613f62d55886f87db8f26460e84482</title>
<g id="a_node6"><a xlink:href="dir_bc613f62d55886f87db8f26460e84482.html" target="_top" xlink:title="util">
<polygon fill="white" stroke="black" points="215,-60 161,-60 161,-24 215,-24 215,-60"/>
<text text-anchor="middle" x="188" y="-39.5" font-family="Helvetica,sans-Serif" font-size="10.00">util</text>
</a>
</g>
</g>
<!-- dir_45fba23e44dab9635f79e4c99afbf5ad&#45;&gt;dir_bc613f62d55886f87db8f26460e84482 -->
<g id="edge2" class="edge">
<title>dir_45fba23e44dab9635f79e4c99afbf5ad&#45;&gt;dir_bc613f62d55886f87db8f26460e84482</title>
<path fill="none" stroke="black" d="M141.52,-167.71C141.56,-149.35 143.21,-119.77 152,-96 155.55,-86.4 161.2,-76.85 166.98,-68.56"/>
<polygon fill="black" stroke="black" points="169.86,-70.55 172.97,-60.42 164.23,-66.4 169.86,-70.55"/>
<g id="a_edge2&#45;headlabel"><a xlink:href="dir_000038_000041.html" target="_top" xlink:title="1">
<text text-anchor="middle" x="170.02" y="-72.63" font-family="Helvetica,sans-Serif" font-size="10.00">1</text>
</a>
</g>
</g>
<!-- dir_dbb6a150a1d2a9e3bac0bb1d4855e995 -->
<g id="node7" class="node">
<title>dir_dbb6a150a1d2a9e3bac0bb1d4855e995</title>
<g id="a_node7"><a xlink:href="dir_dbb6a150a1d2a9e3bac0bb1d4855e995.html" target="_top" xlink:title="alps_common_lib">
<polygon fill="white" stroke="red" points="468,-60 366,-60 366,-24 468,-24 468,-60"/>
<text text-anchor="middle" x="417" y="-39.5" font-family="Helvetica,sans-Serif" font-size="10.00">alps_common_lib</text>
</a>
</g>
</g>
<!-- dir_45fba23e44dab9635f79e4c99afbf5ad&#45;&gt;dir_dbb6a150a1d2a9e3bac0bb1d4855e995 -->
<g id="edge3" class="edge">
<title>dir_45fba23e44dab9635f79e4c99afbf5ad&#45;&gt;dir_dbb6a150a1d2a9e3bac0bb1d4855e995</title>
<path fill="none" stroke="black" d="M175.17,-167.87C225.14,-142.07 319.69,-93.25 374.6,-64.9"/>
<polygon fill="black" stroke="black" points="376.43,-67.89 383.71,-60.19 373.22,-61.67 376.43,-67.89"/>
<g id="a_edge3&#45;headlabel"><a xlink:href="dir_000038_000002.html" target="_top" xlink:title="2">
<text text-anchor="middle" x="374.54" y="-69.56" font-family="Helvetica,sans-Serif" font-size="10.00">2</text>
</a>
</g>
</g>
<!-- dir_b258fd7aeb42fee328b7692b0d395006 -->
<g id="node3" class="node">
<title>dir_b258fd7aeb42fee328b7692b0d395006</title>
<g id="a_node3"><a xlink:href="dir_b258fd7aeb42fee328b7692b0d395006.html" target="_top" xlink:title="log">
<polygon fill="white" stroke="black" points="260,-204 206,-204 206,-168 260,-168 260,-204"/>
<text text-anchor="middle" x="233" y="-183.5" font-family="Helvetica,sans-Serif" font-size="10.00">log</text>
</a>
</g>
</g>
<!-- dir_b258fd7aeb42fee328b7692b0d395006&#45;&gt;dir_dbb6a150a1d2a9e3bac0bb1d4855e995 -->
<g id="edge6" class="edge">
<title>dir_b258fd7aeb42fee328b7692b0d395006&#45;&gt;dir_dbb6a150a1d2a9e3bac0bb1d4855e995</title>
<path fill="none" stroke="black" d="M260.26,-171.57C279.17,-161.72 304.54,-147.42 325,-132 350.89,-112.49 377.16,-86.31 394.95,-67.4"/>
<polygon fill="black" stroke="black" points="397.56,-69.74 401.81,-60.03 392.43,-64.97 397.56,-69.74"/>
<g id="a_edge6&#45;headlabel"><a xlink:href="dir_000037_000002.html" target="_top" xlink:title="1">
<text text-anchor="middle" x="397.19" y="-71.81" font-family="Helvetica,sans-Serif" font-size="10.00">1</text>
</a>
</g>
</g>
<!-- dir_690e2e1b8b6059d43a67bedbfe9d42ee&#45;&gt;dir_bc613f62d55886f87db8f26460e84482 -->
<g id="edge4" class="edge">
<title>dir_690e2e1b8b6059d43a67bedbfe9d42ee&#45;&gt;dir_bc613f62d55886f87db8f26460e84482</title>
<path fill="none" stroke="black" d="M182.08,-95.7C181.29,-87.98 181.06,-78.71 181.4,-70.11"/>
<polygon fill="black" stroke="black" points="184.9,-70.32 182.1,-60.1 177.92,-69.84 184.9,-70.32"/>
<g id="a_edge4&#45;headlabel"><a xlink:href="dir_000039_000041.html" target="_top" xlink:title="1">
<text text-anchor="middle" x="187.48" y="-71.61" font-family="Helvetica,sans-Serif" font-size="10.00">1</text>
</a>
</g>
</g>
<!-- dir_690e2e1b8b6059d43a67bedbfe9d42ee&#45;&gt;dir_dbb6a150a1d2a9e3bac0bb1d4855e995 -->
<g id="edge5" class="edge">
<title>dir_690e2e1b8b6059d43a67bedbfe9d42ee&#45;&gt;dir_dbb6a150a1d2a9e3bac0bb1d4855e995</title>
<path fill="none" stroke="black" d="M215.17,-104.7C249.61,-94.17 309.99,-75.71 355.77,-61.72"/>
<polygon fill="black" stroke="black" points="357.05,-64.99 365.59,-58.71 355,-58.29 357.05,-64.99"/>
<g id="a_edge5&#45;headlabel"><a xlink:href="dir_000039_000002.html" target="_top" xlink:title="10">
<text text-anchor="middle" x="354.44" y="-66.25" font-family="Helvetica,sans-Serif" font-size="10.00">10</text>
</a>
</g>
</g>
<!-- dir_729c3686c1b14a04de035d034d7d654b -->
<g id="node5" class="node">
<title>dir_729c3686c1b14a04de035d034d7d654b</title>
<g id="a_node5"><a xlink:href="dir_729c3686c1b14a04de035d034d7d654b.html" target="_top" xlink:title="ui">
<polygon fill="white" stroke="black" points="78,-204 24,-204 24,-168 78,-168 78,-204"/>
<text text-anchor="middle" x="51" y="-183.5" font-family="Helvetica,sans-Serif" font-size="10.00">ui</text>
</a>
</g>
</g>
<!-- dir_bc613f62d55886f87db8f26460e84482&#45;&gt;dir_690e2e1b8b6059d43a67bedbfe9d42ee -->
<g id="edge7" class="edge">
<title>dir_bc613f62d55886f87db8f26460e84482&#45;&gt;dir_690e2e1b8b6059d43a67bedbfe9d42ee</title>
<path fill="none" stroke="black" d="M193.9,-60.1C194.7,-67.79 194.94,-77.05 194.6,-85.67"/>
<polygon fill="black" stroke="black" points="191.11,-85.48 193.92,-95.7 198.09,-85.96 191.11,-85.48"/>
<g id="a_edge7&#45;headlabel"><a xlink:href="dir_000041_000039.html" target="_top" xlink:title="1">
<text text-anchor="middle" x="188.52" y="-79.2" font-family="Helvetica,sans-Serif" font-size="10.00">1</text>
</a>
</g>
</g>
</g>
</svg>
