<?xml version="1.0" encoding="UTF-8" standalone="no"?>
<!DOCTYPE svg PUBLIC "-//W3C//DTD SVG 1.1//EN"
 "http://www.w3.org/Graphics/SVG/1.1/DTD/svg11.dtd">
<!-- Generated by graphviz version 2.43.0 (0)
 -->
<!-- Title: alps_core/lib_internal/alps_ros2_lib/include/alps_ros2/type Pages: 1 -->
<svg width="110pt" height="223pt"
 viewBox="0.00 0.00 110.00 223.00" xmlns="http://www.w3.org/2000/svg" xmlns:xlink="http://www.w3.org/1999/xlink">
<g id="graph0" class="graph" transform="scale(1 1) rotate(0) translate(4 219)">
<title>alps_core/lib_internal/alps_ros2_lib/include/alps_ros2/type</title>
<polygon fill="white" stroke="transparent" points="-4,4 -4,-219 106,-219 106,4 -4,4"/>
<g id="clust1" class="cluster">
<title>clusterdir_6399a9de56a01148355a477c12de3c84</title>
<g id="a_clust1"><a xlink:href="dir_6399a9de56a01148355a477c12de3c84.html" target="_top" xlink:title="alps_ros2">
<polygon fill="#ddddee" stroke="black" points="16,-64 16,-207 86,-207 86,-64 16,-64"/>
<text text-anchor="middle" x="51" y="-195" font-family="Helvetica,sans-Serif" font-size="10.00">alps_ros2</text>
</a>
</g>
</g>
<!-- dir_bc613f62d55886f87db8f26460e84482 -->
<g id="node1" class="node">
<title>dir_bc613f62d55886f87db8f26460e84482</title>
<g id="a_node1"><a xlink:href="dir_bc613f62d55886f87db8f26460e84482.html" target="_top" xlink:title="util">
<polygon fill="none" stroke="black" points="78,-180 24,-180 24,-144 78,-144 78,-180"/>
<text text-anchor="middle" x="51" y="-159.5" font-family="Helvetica,sans-Serif" font-size="10.00">util</text>
</a>
</g>
</g>
<!-- dir_690e2e1b8b6059d43a67bedbfe9d42ee -->
<g id="node2" class="node">
<title>dir_690e2e1b8b6059d43a67bedbfe9d42ee</title>
<g id="a_node2"><a xlink:href="dir_690e2e1b8b6059d43a67bedbfe9d42ee.html" target="_top" xlink:title="type">
<polygon fill="#eeeeff" stroke="black" points="78,-108 24,-108 24,-72 78,-72 78,-108"/>
<text text-anchor="middle" x="51" y="-87.5" font-family="Helvetica,sans-Serif" font-size="10.00">type</text>
</a>
</g>
</g>
<!-- dir_bc613f62d55886f87db8f26460e84482&#45;&gt;dir_690e2e1b8b6059d43a67bedbfe9d42ee -->
<g id="edge3" class="edge">
<title>dir_bc613f62d55886f87db8f26460e84482&#45;&gt;dir_690e2e1b8b6059d43a67bedbfe9d42ee</title>
<path fill="none" stroke="black" d="M45.08,-143.7C44.29,-135.98 44.06,-126.71 44.4,-118.11"/>
<polygon fill="black" stroke="black" points="47.9,-118.32 45.1,-108.1 40.92,-117.84 47.9,-118.32"/>
<g id="a_edge3&#45;headlabel"><a xlink:href="dir_000042_000040.html" target="_top" xlink:title="1">
<text text-anchor="middle" x="50.48" y="-119.61" font-family="Helvetica,sans-Serif" font-size="10.00">1</text>
</a>
</g>
</g>
<!-- dir_690e2e1b8b6059d43a67bedbfe9d42ee&#45;&gt;dir_bc613f62d55886f87db8f26460e84482 -->
<g id="edge1" class="edge">
<title>dir_690e2e1b8b6059d43a67bedbfe9d42ee&#45;&gt;dir_bc613f62d55886f87db8f26460e84482</title>
<path fill="none" stroke="black" d="M56.9,-108.1C57.7,-115.79 57.94,-125.05 57.6,-133.67"/>
<polygon fill="black" stroke="black" points="54.11,-133.48 56.92,-143.7 61.09,-133.96 54.11,-133.48"/>
<g id="a_edge1&#45;headlabel"><a xlink:href="dir_000040_000042.html" target="_top" xlink:title="1">
<text text-anchor="middle" x="51.52" y="-127.2" font-family="Helvetica,sans-Serif" font-size="10.00">1</text>
</a>
</g>
</g>
<!-- dir_dbb6a150a1d2a9e3bac0bb1d4855e995 -->
<g id="node3" class="node">
<title>dir_dbb6a150a1d2a9e3bac0bb1d4855e995</title>
<g id="a_node3"><a xlink:href="dir_dbb6a150a1d2a9e3bac0bb1d4855e995.html" target="_top" xlink:title="alps_common_lib">
<polygon fill="white" stroke="red" points="102,-36 0,-36 0,0 102,0 102,-36"/>
<text text-anchor="middle" x="51" y="-15.5" font-family="Helvetica,sans-Serif" font-size="10.00">alps_common_lib</text>
</a>
</g>
</g>
<!-- dir_690e2e1b8b6059d43a67bedbfe9d42ee&#45;&gt;dir_dbb6a150a1d2a9e3bac0bb1d4855e995 -->
<g id="edge2" class="edge">
<title>dir_690e2e1b8b6059d43a67bedbfe9d42ee&#45;&gt;dir_dbb6a150a1d2a9e3bac0bb1d4855e995</title>
<path fill="none" stroke="black" d="M51,-71.7C51,-63.98 51,-54.71 51,-46.11"/>
<polygon fill="black" stroke="black" points="54.5,-46.1 51,-36.1 47.5,-46.1 54.5,-46.1"/>
<g id="a_edge2&#45;headlabel"><a xlink:href="dir_000040_000002.html" target="_top" xlink:title="9">
<text text-anchor="middle" x="57.34" y="-47.2" font-family="Helvetica,sans-Serif" font-size="10.00">9</text>
</a>
</g>
</g>
</g>
</svg>
