<?xml version="1.0" encoding="UTF-8" standalone="no"?>
<!DOCTYPE svg PUBLIC "-//W3C//DTD SVG 1.1//EN"
 "http://www.w3.org/Graphics/SVG/1.1/DTD/svg11.dtd">
<!-- Generated by graphviz version 2.43.0 (0)
 -->
<!-- Title: alps_core/lib_internal/alps_mbed_lib/include/alps_mbed Pages: 1 -->
<svg width="528pt" height="231pt"
 viewBox="0.00 0.00 528.00 231.00" xmlns="http://www.w3.org/2000/svg" xmlns:xlink="http://www.w3.org/1999/xlink">
<g id="graph0" class="graph" transform="scale(1 1) rotate(0) translate(4 227)">
<title>alps_core/lib_internal/alps_mbed_lib/include/alps_mbed</title>
<polygon fill="white" stroke="transparent" points="-4,4 -4,-227 524,-227 524,4 -4,4"/>
<g id="clust1" class="cluster">
<title>clusterdir_004f98237f8c341a9024f226d8b822ea</title>
<g id="a_clust1"><a xlink:href="dir_004f98237f8c341a9024f226d8b822ea.html" target="_top" xlink:title="include">
<polygon fill="#ddddee" stroke="black" points="8,-56 8,-215 512,-215 512,-56 8,-56"/>
<text text-anchor="middle" x="260" y="-203" font-family="Helvetica,sans-Serif" font-size="10.00">include</text>
</a>
</g>
</g>
<g id="clust2" class="cluster">
<title>clusterdir_aeddf8fa4339a06bf9ad9a961c7b6af8</title>
<g id="a_clust2"><a xlink:href="dir_aeddf8fa4339a06bf9ad9a961c7b6af8.html" target="_top">
<polygon fill="#eeeeff" stroke="black" points="16,-64 16,-188 504,-188 504,-64 16,-64"/>
</a>
</g>
</g>
<!-- dir_aeddf8fa4339a06bf9ad9a961c7b6af8 -->
<g id="node1" class="node">
<title>dir_aeddf8fa4339a06bf9ad9a961c7b6af8</title>
<text text-anchor="middle" x="461" y="-159.5" font-family="Helvetica,sans-Serif" font-size="10.00">alps_mbed</text>
</g>
<!-- dir_12003c53952475f2485c834635c1c3b6 -->
<g id="node2" class="node">
<title>dir_12003c53952475f2485c834635c1c3b6</title>
<g id="a_node2"><a xlink:href="dir_12003c53952475f2485c834635c1c3b6.html" target="_top" xlink:title="actuator">
<polygon fill="white" stroke="black" points="153.5,-180 96.5,-180 96.5,-144 153.5,-144 153.5,-180"/>
<text text-anchor="middle" x="125" y="-159.5" font-family="Helvetica,sans-Serif" font-size="10.00">actuator</text>
</a>
</g>
</g>
<!-- dir_581791ccee735a0cb31ab604a462ee79 -->
<g id="node4" class="node">
<title>dir_581791ccee735a0cb31ab604a462ee79</title>
<g id="a_node4"><a xlink:href="dir_581791ccee735a0cb31ab604a462ee79.html" target="_top" xlink:title="gpio">
<polygon fill="white" stroke="black" points="160,-108 106,-108 106,-72 160,-72 160,-108"/>
<text text-anchor="middle" x="133" y="-87.5" font-family="Helvetica,sans-Serif" font-size="10.00">gpio</text>
</a>
</g>
</g>
<!-- dir_12003c53952475f2485c834635c1c3b6&#45;&gt;dir_581791ccee735a0cb31ab604a462ee79 -->
<g id="edge4" class="edge">
<title>dir_12003c53952475f2485c834635c1c3b6&#45;&gt;dir_581791ccee735a0cb31ab604a462ee79</title>
<path fill="none" stroke="black" d="M126.98,-143.7C127.86,-135.98 128.92,-126.71 129.9,-118.11"/>
<polygon fill="black" stroke="black" points="133.39,-118.44 131.05,-108.1 126.43,-117.64 133.39,-118.44"/>
<g id="a_edge4&#45;headlabel"><a xlink:href="dir_000009_000035.html" target="_top" xlink:title="3">
<text text-anchor="middle" x="135.8" y="-119.83" font-family="Helvetica,sans-Serif" font-size="10.00">3</text>
</a>
</g>
</g>
<!-- dir_dbb6a150a1d2a9e3bac0bb1d4855e995 -->
<g id="node8" class="node">
<title>dir_dbb6a150a1d2a9e3bac0bb1d4855e995</title>
<g id="a_node8"><a xlink:href="dir_dbb6a150a1d2a9e3bac0bb1d4855e995.html" target="_top" xlink:title="alps_common_lib">
<polygon fill="white" stroke="red" points="277,-36 175,-36 175,0 277,0 277,-36"/>
<text text-anchor="middle" x="226" y="-15.5" font-family="Helvetica,sans-Serif" font-size="10.00">alps_common_lib</text>
</a>
</g>
</g>
<!-- dir_12003c53952475f2485c834635c1c3b6&#45;&gt;dir_dbb6a150a1d2a9e3bac0bb1d4855e995 -->
<g id="edge5" class="edge">
<title>dir_12003c53952475f2485c834635c1c3b6&#45;&gt;dir_dbb6a150a1d2a9e3bac0bb1d4855e995</title>
<path fill="none" stroke="black" d="M140.22,-143.77C148.97,-133.61 159.97,-120.36 169,-108 184.03,-87.44 199.52,-63.01 210.55,-44.95"/>
<polygon fill="black" stroke="black" points="213.7,-46.51 215.89,-36.14 207.71,-42.88 213.7,-46.51"/>
<g id="a_edge5&#45;headlabel"><a xlink:href="dir_000009_000002.html" target="_top" xlink:title="2">
<text text-anchor="middle" x="214.26" y="-48.56" font-family="Helvetica,sans-Serif" font-size="10.00">2</text>
</a>
</g>
</g>
<!-- dir_9eaad8482ebdaa54b2bc49722f1ee47c -->
<g id="node3" class="node">
<title>dir_9eaad8482ebdaa54b2bc49722f1ee47c</title>
<g id="a_node3"><a xlink:href="dir_9eaad8482ebdaa54b2bc49722f1ee47c.html" target="_top" xlink:title="communication">
<polygon fill="white" stroke="black" points="336,-180 244,-180 244,-144 336,-144 336,-180"/>
<text text-anchor="middle" x="290" y="-159.5" font-family="Helvetica,sans-Serif" font-size="10.00">communication</text>
</a>
</g>
</g>
<!-- dir_9eaad8482ebdaa54b2bc49722f1ee47c&#45;&gt;dir_dbb6a150a1d2a9e3bac0bb1d4855e995 -->
<g id="edge6" class="edge">
<title>dir_9eaad8482ebdaa54b2bc49722f1ee47c&#45;&gt;dir_dbb6a150a1d2a9e3bac0bb1d4855e995</title>
<path fill="none" stroke="black" d="M282.28,-143.87C271.28,-119.46 250.98,-74.43 238,-45.64"/>
<polygon fill="black" stroke="black" points="241.05,-43.87 233.75,-36.19 234.67,-46.74 241.05,-43.87"/>
<g id="a_edge6&#45;headlabel"><a xlink:href="dir_000034_000002.html" target="_top" xlink:title="3">
<text text-anchor="middle" x="245.11" y="-43.48" font-family="Helvetica,sans-Serif" font-size="10.00">3</text>
</a>
</g>
</g>
<!-- dir_581791ccee735a0cb31ab604a462ee79&#45;&gt;dir_dbb6a150a1d2a9e3bac0bb1d4855e995 -->
<g id="edge7" class="edge">
<title>dir_581791ccee735a0cb31ab604a462ee79&#45;&gt;dir_dbb6a150a1d2a9e3bac0bb1d4855e995</title>
<path fill="none" stroke="black" d="M153.67,-71.97C160.12,-66.76 167.3,-61.07 174,-56 180.07,-51.4 186.63,-46.6 192.98,-42.05"/>
<polygon fill="black" stroke="black" points="195.33,-44.67 201.45,-36.02 191.27,-38.97 195.33,-44.67"/>
<g id="a_edge7&#45;headlabel"><a xlink:href="dir_000035_000002.html" target="_top" xlink:title="6">
<text text-anchor="middle" x="194.05" y="-46.57" font-family="Helvetica,sans-Serif" font-size="10.00">6</text>
</a>
</g>
</g>
<!-- dir_bebaca3cb71f3039b3e245f5499d3f80 -->
<g id="node5" class="node">
<title>dir_bebaca3cb71f3039b3e245f5499d3f80</title>
<g id="a_node5"><a xlink:href="dir_bebaca3cb71f3039b3e245f5499d3f80.html" target="_top" xlink:title="log">
<polygon fill="white" stroke="black" points="408,-180 354,-180 354,-144 408,-144 408,-180"/>
<text text-anchor="middle" x="381" y="-159.5" font-family="Helvetica,sans-Serif" font-size="10.00">log</text>
</a>
</g>
</g>
<!-- dir_bebaca3cb71f3039b3e245f5499d3f80&#45;&gt;dir_dbb6a150a1d2a9e3bac0bb1d4855e995 -->
<g id="edge1" class="edge">
<title>dir_bebaca3cb71f3039b3e245f5499d3f80&#45;&gt;dir_dbb6a150a1d2a9e3bac0bb1d4855e995</title>
<path fill="none" stroke="black" d="M362.74,-143.75C340.51,-122.82 301.76,-86.54 268,-56 263.27,-51.72 258.21,-47.21 253.29,-42.85"/>
<polygon fill="black" stroke="black" points="255.57,-40.2 245.75,-36.21 250.94,-45.45 255.57,-40.2"/>
<g id="a_edge1&#45;headlabel"><a xlink:href="dir_000036_000002.html" target="_top" xlink:title="1">
<text text-anchor="middle" x="260.14" y="-37.94" font-family="Helvetica,sans-Serif" font-size="10.00">1</text>
</a>
</g>
</g>
<!-- dir_634480ad381c6c0f14f222313cbd3ce3 -->
<g id="node6" class="node">
<title>dir_634480ad381c6c0f14f222313cbd3ce3</title>
<g id="a_node6"><a xlink:href="dir_634480ad381c6c0f14f222313cbd3ce3.html" target="_top" xlink:title="sensor">
<polygon fill="white" stroke="black" points="226,-180 172,-180 172,-144 226,-144 226,-180"/>
<text text-anchor="middle" x="199" y="-159.5" font-family="Helvetica,sans-Serif" font-size="10.00">sensor</text>
</a>
</g>
</g>
<!-- dir_634480ad381c6c0f14f222313cbd3ce3&#45;&gt;dir_581791ccee735a0cb31ab604a462ee79 -->
<g id="edge2" class="edge">
<title>dir_634480ad381c6c0f14f222313cbd3ce3&#45;&gt;dir_581791ccee735a0cb31ab604a462ee79</title>
<path fill="none" stroke="black" d="M182.69,-143.7C174.69,-135.22 164.93,-124.86 156.18,-115.58"/>
<polygon fill="black" stroke="black" points="158.53,-112.98 149.13,-108.1 153.44,-117.78 158.53,-112.98"/>
<g id="a_edge2&#45;headlabel"><a xlink:href="dir_000028_000035.html" target="_top" xlink:title="2">
<text text-anchor="middle" x="163.07" y="-111.15" font-family="Helvetica,sans-Serif" font-size="10.00">2</text>
</a>
</g>
</g>
<!-- dir_634480ad381c6c0f14f222313cbd3ce3&#45;&gt;dir_dbb6a150a1d2a9e3bac0bb1d4855e995 -->
<g id="edge3" class="edge">
<title>dir_634480ad381c6c0f14f222313cbd3ce3&#45;&gt;dir_dbb6a150a1d2a9e3bac0bb1d4855e995</title>
<path fill="none" stroke="black" d="M202.26,-143.87C206.86,-119.67 215.31,-75.21 220.79,-46.39"/>
<polygon fill="black" stroke="black" points="224.3,-46.67 222.73,-36.19 217.43,-45.36 224.3,-46.67"/>
<g id="a_edge3&#45;headlabel"><a xlink:href="dir_000028_000002.html" target="_top" xlink:title="1">
<text text-anchor="middle" x="226.42" y="-48.23" font-family="Helvetica,sans-Serif" font-size="10.00">1</text>
</a>
</g>
</g>
<!-- dir_80aef9975d4a22666dc0977b16b5cd06 -->
<g id="node7" class="node">
<title>dir_80aef9975d4a22666dc0977b16b5cd06</title>
<g id="a_node7"><a xlink:href="dir_80aef9975d4a22666dc0977b16b5cd06.html" target="_top" xlink:title="time">
<polygon fill="white" stroke="black" points="78,-180 24,-180 24,-144 78,-144 78,-180"/>
<text text-anchor="middle" x="51" y="-159.5" font-family="Helvetica,sans-Serif" font-size="10.00">time</text>
</a>
</g>
</g>
</g>
</svg>
