<?xml version="1.0" encoding="UTF-8" standalone="no"?>
<!DOCTYPE svg PUBLIC "-//W3C//DTD SVG 1.1//EN"
 "http://www.w3.org/Graphics/SVG/1.1/DTD/svg11.dtd">
<!-- Generated by graphviz version 2.43.0 (0)
 -->
<!-- Title: alps_core/lib_internal/alps_mbed_lib/include/alps_mbed/sensor Pages: 1 -->
<svg width="129pt" height="223pt"
 viewBox="0.00 0.00 129.00 223.00" xmlns="http://www.w3.org/2000/svg" xmlns:xlink="http://www.w3.org/1999/xlink">
<g id="graph0" class="graph" transform="scale(1 1) rotate(0) translate(4 219)">
<title>alps_core/lib_internal/alps_mbed_lib/include/alps_mbed/sensor</title>
<polygon fill="white" stroke="transparent" points="-4,4 -4,-219 125,-219 125,4 -4,4"/>
<g id="clust1" class="cluster">
<title>clusterdir_aeddf8fa4339a06bf9ad9a961c7b6af8</title>
<g id="a_clust1"><a xlink:href="dir_aeddf8fa4339a06bf9ad9a961c7b6af8.html" target="_top" xlink:title="alps_mbed">
<polygon fill="#ddddee" stroke="black" points="8,-64 8,-207 78,-207 78,-64 8,-64"/>
<text text-anchor="middle" x="43" y="-195" font-family="Helvetica,sans-Serif" font-size="10.00">alps_mbed</text>
</a>
</g>
</g>
<!-- dir_581791ccee735a0cb31ab604a462ee79 -->
<g id="node1" class="node">
<title>dir_581791ccee735a0cb31ab604a462ee79</title>
<g id="a_node1"><a xlink:href="dir_581791ccee735a0cb31ab604a462ee79.html" target="_top" xlink:title="gpio">
<polygon fill="none" stroke="black" points="70,-108 16,-108 16,-72 70,-72 70,-108"/>
<text text-anchor="middle" x="43" y="-87.5" font-family="Helvetica,sans-Serif" font-size="10.00">gpio</text>
</a>
</g>
</g>
<!-- dir_dbb6a150a1d2a9e3bac0bb1d4855e995 -->
<g id="node3" class="node">
<title>dir_dbb6a150a1d2a9e3bac0bb1d4855e995</title>
<g id="a_node3"><a xlink:href="dir_dbb6a150a1d2a9e3bac0bb1d4855e995.html" target="_top" xlink:title="alps_common_lib">
<polygon fill="white" stroke="red" points="121,-36 19,-36 19,0 121,0 121,-36"/>
<text text-anchor="middle" x="70" y="-15.5" font-family="Helvetica,sans-Serif" font-size="10.00">alps_common_lib</text>
</a>
</g>
</g>
<!-- dir_581791ccee735a0cb31ab604a462ee79&#45;&gt;dir_dbb6a150a1d2a9e3bac0bb1d4855e995 -->
<g id="edge3" class="edge">
<title>dir_581791ccee735a0cb31ab604a462ee79&#45;&gt;dir_dbb6a150a1d2a9e3bac0bb1d4855e995</title>
<path fill="none" stroke="black" d="M49.67,-71.7C52.71,-63.81 56.38,-54.3 59.76,-45.55"/>
<polygon fill="black" stroke="black" points="63.07,-46.69 63.4,-36.1 56.54,-44.17 63.07,-46.69"/>
<g id="a_edge3&#45;headlabel"><a xlink:href="dir_000035_000002.html" target="_top" xlink:title="6">
<text text-anchor="middle" x="64.42" y="-48.57" font-family="Helvetica,sans-Serif" font-size="10.00">6</text>
</a>
</g>
</g>
<!-- dir_634480ad381c6c0f14f222313cbd3ce3 -->
<g id="node2" class="node">
<title>dir_634480ad381c6c0f14f222313cbd3ce3</title>
<g id="a_node2"><a xlink:href="dir_634480ad381c6c0f14f222313cbd3ce3.html" target="_top" xlink:title="sensor">
<polygon fill="#eeeeff" stroke="black" points="70,-180 16,-180 16,-144 70,-144 70,-180"/>
<text text-anchor="middle" x="43" y="-159.5" font-family="Helvetica,sans-Serif" font-size="10.00">sensor</text>
</a>
</g>
</g>
<!-- dir_634480ad381c6c0f14f222313cbd3ce3&#45;&gt;dir_581791ccee735a0cb31ab604a462ee79 -->
<g id="edge1" class="edge">
<title>dir_634480ad381c6c0f14f222313cbd3ce3&#45;&gt;dir_581791ccee735a0cb31ab604a462ee79</title>
<path fill="none" stroke="black" d="M43,-143.7C43,-135.98 43,-126.71 43,-118.11"/>
<polygon fill="black" stroke="black" points="46.5,-118.1 43,-108.1 39.5,-118.1 46.5,-118.1"/>
<g id="a_edge1&#45;headlabel"><a xlink:href="dir_000028_000035.html" target="_top" xlink:title="2">
<text text-anchor="middle" x="49.34" y="-119.2" font-family="Helvetica,sans-Serif" font-size="10.00">2</text>
</a>
</g>
</g>
<!-- dir_634480ad381c6c0f14f222313cbd3ce3&#45;&gt;dir_dbb6a150a1d2a9e3bac0bb1d4855e995 -->
<g id="edge2" class="edge">
<title>dir_634480ad381c6c0f14f222313cbd3ce3&#45;&gt;dir_dbb6a150a1d2a9e3bac0bb1d4855e995</title>
<path fill="none" stroke="black" d="M58.61,-143.77C66.37,-134.03 74.95,-121.18 79,-108 85.22,-87.77 82.27,-63.87 78.15,-45.92"/>
<polygon fill="black" stroke="black" points="81.51,-44.95 75.65,-36.12 74.73,-46.68 81.51,-44.95"/>
<g id="a_edge2&#45;headlabel"><a xlink:href="dir_000028_000002.html" target="_top" xlink:title="1">
<text text-anchor="middle" x="85.15" y="-45.23" font-family="Helvetica,sans-Serif" font-size="10.00">1</text>
</a>
</g>
</g>
</g>
</svg>
