<?xml version="1.0" encoding="UTF-8" standalone="no"?>
<!DOCTYPE svg PUBLIC "-//W3C//DTD SVG 1.1//EN"
 "http://www.w3.org/Graphics/SVG/1.1/DTD/svg11.dtd">
<!-- Generated by graphviz version 2.43.0 (0)
 -->
<!-- Title: alps_linux_lib/include Pages: 1 -->
<svg width="182pt" height="159pt"
 viewBox="0.00 0.00 182.00 159.00" xmlns="http://www.w3.org/2000/svg" xmlns:xlink="http://www.w3.org/1999/xlink">
<g id="graph0" class="graph" transform="scale(1 1) rotate(0) translate(4 155)">
<title>alps_linux_lib/include</title>
<polygon fill="white" stroke="transparent" points="-4,4 -4,-155 178,-155 178,4 -4,4"/>
<g id="clust1" class="cluster">
<title>clusterdir_1c56f1202c4b9b2556a51beaa852430f</title>
<g id="a_clust1"><a xlink:href="dir_1c56f1202c4b9b2556a51beaa852430f.html" target="_top" xlink:title="alps_linux_lib">
<polygon fill="#ddddee" stroke="black" points="8,-56 8,-143 166,-143 166,-56 8,-56"/>
<text text-anchor="middle" x="87" y="-131" font-family="Helvetica,sans-Serif" font-size="10.00">alps_linux_lib</text>
</a>
</g>
</g>
<g id="clust2" class="cluster">
<title>clusterdir_6d217df781fc4021ea64ca101836a906</title>
<g id="a_clust2"><a xlink:href="dir_6d217df781fc4021ea64ca101836a906.html" target="_top">
<polygon fill="#eeeeff" stroke="black" points="16,-64 16,-116 158,-116 158,-64 16,-64"/>
</a>
</g>
</g>
<!-- dir_6d217df781fc4021ea64ca101836a906 -->
<g id="node1" class="node">
<title>dir_6d217df781fc4021ea64ca101836a906</title>
<text text-anchor="middle" x="123" y="-87.5" font-family="Helvetica,sans-Serif" font-size="10.00">include</text>
</g>
<!-- dir_a2f3e768eb1f47df90dbab1b9b2951f6 -->
<g id="node2" class="node">
<title>dir_a2f3e768eb1f47df90dbab1b9b2951f6</title>
<g id="a_node2"><a xlink:href="dir_a2f3e768eb1f47df90dbab1b9b2951f6.html" target="_top" xlink:title="alps_lin">
<polygon fill="white" stroke="red" points="78,-108 24,-108 24,-72 78,-72 78,-108"/>
<text text-anchor="middle" x="51" y="-87.5" font-family="Helvetica,sans-Serif" font-size="10.00">alps_lin</text>
</a>
</g>
</g>
<!-- dir_fcd1ba41f8679fcc7bf76d667eaa0e17 -->
<g id="node3" class="node">
<title>dir_fcd1ba41f8679fcc7bf76d667eaa0e17</title>
<g id="a_node3"><a xlink:href="dir_fcd1ba41f8679fcc7bf76d667eaa0e17.html" target="_top" xlink:title="alps_common_lib">
<polygon fill="white" stroke="red" points="102,-36 0,-36 0,0 102,0 102,-36"/>
<text text-anchor="middle" x="51" y="-15.5" font-family="Helvetica,sans-Serif" font-size="10.00">alps_common_lib</text>
</a>
</g>
</g>
<!-- dir_a2f3e768eb1f47df90dbab1b9b2951f6&#45;&gt;dir_fcd1ba41f8679fcc7bf76d667eaa0e17 -->
<g id="edge1" class="edge">
<title>dir_a2f3e768eb1f47df90dbab1b9b2951f6&#45;&gt;dir_fcd1ba41f8679fcc7bf76d667eaa0e17</title>
<path fill="none" stroke="black" d="M51,-71.7C51,-63.98 51,-54.71 51,-46.11"/>
<polygon fill="black" stroke="black" points="54.5,-46.1 51,-36.1 47.5,-46.1 54.5,-46.1"/>
<g id="a_edge1&#45;headlabel"><a xlink:href="dir_000014_000000.html" target="_top" xlink:title="3">
<text text-anchor="middle" x="57.34" y="-47.2" font-family="Helvetica,sans-Serif" font-size="10.00">3</text>
</a>
</g>
</g>
</g>
</svg>
