<?xml version="1.0" encoding="UTF-8" standalone="no"?>
<!DOCTYPE svg PUBLIC "-//W3C//DTD SVG 1.1//EN"
 "http://www.w3.org/Graphics/SVG/1.1/DTD/svg11.dtd">
<!-- Generated by graphviz version 2.43.0 (0)
 -->
<!-- Title: alps_core/lib_internal/alps_common_lib/include/alps_cmn Pages: 1 -->
<svg width="374pt" height="424pt"
 viewBox="0.00 0.00 374.00 424.00" xmlns="http://www.w3.org/2000/svg" xmlns:xlink="http://www.w3.org/1999/xlink">
<g id="graph0" class="graph" transform="scale(1 1) rotate(0) translate(4 420)">
<title>alps_core/lib_internal/alps_common_lib/include/alps_cmn</title>
<g id="clust1" class="cluster">
<title>clusterdir_2b777a74a5ff5221077a83a37cc87235</title>
<g id="a_clust1"><a xlink:href="dir_2b777a74a5ff5221077a83a37cc87235.html" target="_top" xlink:title="include">
<polygon fill="#daedff" stroke="#7f7f7f" stroke-dasharray="5,2" points="8,-8 8,-408 358,-408 358,-8 8,-8"/>
<text text-anchor="middle" x="183" y="-396" font-family="Helvetica,sans-Serif" font-size="10.00">include</text>
</a>
</g>
</g>
<g id="clust2" class="cluster">
<title>clusterdir_664123f27b70b10eeac81c10039fb160</title>
<g id="a_clust2"><a xlink:href="dir_664123f27b70b10eeac81c10039fb160.html" target="_top">
<polygon fill="#daedff" stroke="#404040" stroke-width="2" points="16,-16 16,-381 350,-381 350,-16 16,-16"/>
</a>
</g>
</g>
<!-- dir_664123f27b70b10eeac81c10039fb160 -->
<g id="node1" class="node">
<title>dir_664123f27b70b10eeac81c10039fb160</title>
<text text-anchor="middle" x="305" y="-361" font-family="Helvetica,sans-Serif" font-size="10.00">alps_cmn</text>
</g>
<!-- dir_98805e936c7cb41c7fc1bd0592aaf3bd -->
<g id="node2" class="node">
<title>dir_98805e936c7cb41c7fc1bd0592aaf3bd</title>
<g id="a_node2"><a xlink:href="dir_98805e936c7cb41c7fc1bd0592aaf3bd.html" target="_top" xlink:title="actuator">
<polygon fill="#4ea9ff" stroke="#404040" points="213.5,-318 156.5,-318 156.5,-299 213.5,-299 213.5,-318"/>
<text text-anchor="middle" x="185" y="-306" font-family="Helvetica,sans-Serif" font-size="10.00">actuator</text>
</a>
</g>
</g>
<!-- dir_5bbbaec82e60c1c95ef5795854749336 -->
<g id="node3" class="node">
<title>dir_5bbbaec82e60c1c95ef5795854749336</title>
<g id="a_node3"><a xlink:href="dir_5bbbaec82e60c1c95ef5795854749336.html" target="_top" xlink:title="communication">
<polygon fill="#4ea9ff" stroke="#404040" points="156,-153 64,-153 64,-134 156,-134 156,-153"/>
<text text-anchor="middle" x="110" y="-141" font-family="Helvetica,sans-Serif" font-size="10.00">communication</text>
</a>
</g>
</g>
<!-- dir_98805e936c7cb41c7fc1bd0592aaf3bd&#45;&gt;dir_5bbbaec82e60c1c95ef5795854749336 -->
<g id="edge3" class="edge">
<title>dir_98805e936c7cb41c7fc1bd0592aaf3bd&#45;&gt;dir_5bbbaec82e60c1c95ef5795854749336</title>
<g id="a_edge3"><a xlink:href="dir_000000_000016.html" target="_top">
<path fill="none" stroke="#63b8ff" d="M175.93,-298.72C167.63,-290.26 155.54,-276.74 148,-263 129.96,-230.14 118.92,-187.38 113.67,-163.24"/>
<polygon fill="#63b8ff" stroke="#63b8ff" points="117.07,-162.37 111.61,-153.29 110.21,-163.79 117.07,-162.37"/>
</a>
</g>
<g id="a_edge3&#45;headlabel"><a xlink:href="dir_000000_000016.html" target="_top" xlink:title="1">
<text text-anchor="middle" x="120.58" y="-162.82" font-family="Helvetica,sans-Serif" font-size="10.00" fill="#63b8ff">1</text>
</a>
</g>
</g>
<!-- dir_b6cd085f17e89cb6278eb6f5ecd32d39 -->
<g id="node4" class="node">
<title>dir_b6cd085f17e89cb6278eb6f5ecd32d39</title>
<g id="a_node4"><a xlink:href="dir_b6cd085f17e89cb6278eb6f5ecd32d39.html" target="_top" xlink:title="control">
<polygon fill="#4ea9ff" stroke="#404040" points="302,-263 252,-263 252,-244 302,-244 302,-263"/>
<text text-anchor="middle" x="277" y="-251" font-family="Helvetica,sans-Serif" font-size="10.00">control</text>
</a>
</g>
</g>
<!-- dir_98805e936c7cb41c7fc1bd0592aaf3bd&#45;&gt;dir_b6cd085f17e89cb6278eb6f5ecd32d39 -->
<g id="edge5" class="edge">
<title>dir_98805e936c7cb41c7fc1bd0592aaf3bd&#45;&gt;dir_b6cd085f17e89cb6278eb6f5ecd32d39</title>
<g id="a_edge5"><a xlink:href="dir_000000_000020.html" target="_top">
<path fill="none" stroke="#63b8ff" d="M194.67,-298.98C207.35,-290.61 229.48,-277.7 247.7,-267.95"/>
<polygon fill="#63b8ff" stroke="#63b8ff" points="249.57,-270.92 256.8,-263.17 246.32,-264.72 249.57,-270.92"/>
</a>
</g>
<g id="a_edge5&#45;headlabel"><a xlink:href="dir_000000_000020.html" target="_top" xlink:title="1">
<text text-anchor="middle" x="247.71" y="-272.6" font-family="Helvetica,sans-Serif" font-size="10.00" fill="#63b8ff">1</text>
</a>
</g>
</g>
<!-- dir_93f5cc57b76a8a4cabb5571679917938 -->
<g id="node5" class="node">
<title>dir_93f5cc57b76a8a4cabb5571679917938</title>
<g id="a_node5"><a xlink:href="dir_93f5cc57b76a8a4cabb5571679917938.html" target="_top" xlink:title="gpio">
<polygon fill="#4ea9ff" stroke="#404040" points="232,-153 194,-153 194,-134 232,-134 232,-153"/>
<text text-anchor="middle" x="213" y="-141" font-family="Helvetica,sans-Serif" font-size="10.00">gpio</text>
</a>
</g>
</g>
<!-- dir_98805e936c7cb41c7fc1bd0592aaf3bd&#45;&gt;dir_93f5cc57b76a8a4cabb5571679917938 -->
<g id="edge4" class="edge">
<title>dir_98805e936c7cb41c7fc1bd0592aaf3bd&#45;&gt;dir_93f5cc57b76a8a4cabb5571679917938</title>
<g id="a_edge4"><a xlink:href="dir_000000_000021.html" target="_top">
<path fill="none" stroke="#63b8ff" d="M183.84,-298.96C181.43,-279.19 177.02,-228.88 188,-189 190.67,-179.3 195.89,-169.45 200.87,-161.49"/>
<polygon fill="#63b8ff" stroke="#63b8ff" points="203.81,-163.4 206.45,-153.14 197.99,-159.51 203.81,-163.4"/>
</a>
</g>
<g id="a_edge4&#45;headlabel"><a xlink:href="dir_000000_000021.html" target="_top" xlink:title="4">
<text text-anchor="middle" x="204.17" y="-165.46" font-family="Helvetica,sans-Serif" font-size="10.00" fill="#63b8ff">4</text>
</a>
</g>
</g>
<!-- dir_d7b6a63eed36fea2858d2aa41ca33f02 -->
<g id="node6" class="node">
<title>dir_d7b6a63eed36fea2858d2aa41ca33f02</title>
<g id="a_node6"><a xlink:href="dir_d7b6a63eed36fea2858d2aa41ca33f02.html" target="_top" xlink:title="log">
<polygon fill="#4ea9ff" stroke="#404040" points="61,-98 29,-98 29,-79 61,-79 61,-98"/>
<text text-anchor="middle" x="45" y="-86" font-family="Helvetica,sans-Serif" font-size="10.00">log</text>
</a>
</g>
</g>
<!-- dir_98805e936c7cb41c7fc1bd0592aaf3bd&#45;&gt;dir_d7b6a63eed36fea2858d2aa41ca33f02 -->
<g id="edge7" class="edge">
<title>dir_98805e936c7cb41c7fc1bd0592aaf3bd&#45;&gt;dir_d7b6a63eed36fea2858d2aa41ca33f02</title>
<g id="a_edge7"><a xlink:href="dir_000000_000030.html" target="_top">
<path fill="none" stroke="#63b8ff" d="M174.09,-298.83C148.01,-277.37 82.22,-218.75 55,-153 49.06,-138.64 46.62,-121.12 45.63,-108.12"/>
<polygon fill="#63b8ff" stroke="#63b8ff" points="49.12,-107.86 45.09,-98.06 42.14,-108.23 49.12,-107.86"/>
</a>
</g>
<g id="a_edge7&#45;headlabel"><a xlink:href="dir_000000_000030.html" target="_top" xlink:title="1">
<text text-anchor="middle" x="52.15" y="-108.79" font-family="Helvetica,sans-Serif" font-size="10.00" fill="#63b8ff">1</text>
</a>
</g>
</g>
<!-- dir_1585cb1296de2c4dde76500afa886952 -->
<g id="node8" class="node">
<title>dir_1585cb1296de2c4dde76500afa886952</title>
<g id="a_node8"><a xlink:href="dir_1585cb1296de2c4dde76500afa886952.html" target="_top" xlink:title="sensor">
<polygon fill="#4ea9ff" stroke="#404040" points="261.5,-208 212.5,-208 212.5,-189 261.5,-189 261.5,-208"/>
<text text-anchor="middle" x="237" y="-196" font-family="Helvetica,sans-Serif" font-size="10.00">sensor</text>
</a>
</g>
</g>
<!-- dir_98805e936c7cb41c7fc1bd0592aaf3bd&#45;&gt;dir_1585cb1296de2c4dde76500afa886952 -->
<g id="edge1" class="edge">
<title>dir_98805e936c7cb41c7fc1bd0592aaf3bd&#45;&gt;dir_1585cb1296de2c4dde76500afa886952</title>
<g id="a_edge1"><a xlink:href="dir_000000_000034.html" target="_top">
<path fill="none" stroke="#63b8ff" d="M189.26,-298.66C197.79,-280.93 217.15,-240.73 228.42,-217.32"/>
<polygon fill="#63b8ff" stroke="#63b8ff" points="231.65,-218.69 232.83,-208.16 225.34,-215.65 231.65,-218.69"/>
</a>
</g>
<g id="a_edge1&#45;headlabel"><a xlink:href="dir_000000_000034.html" target="_top" xlink:title="1">
<text text-anchor="middle" x="232.65" y="-220.66" font-family="Helvetica,sans-Serif" font-size="10.00" fill="#63b8ff">1</text>
</a>
</g>
</g>
<!-- dir_d33103ac168077bdcd2b65f79896931a -->
<g id="node9" class="node">
<title>dir_d33103ac168077bdcd2b65f79896931a</title>
<g id="a_node9"><a xlink:href="dir_d33103ac168077bdcd2b65f79896931a.html" target="_top" xlink:title="time">
<polygon fill="#4ea9ff" stroke="#404040" points="270.5,-43 231.5,-43 231.5,-24 270.5,-24 270.5,-43"/>
<text text-anchor="middle" x="251" y="-31" font-family="Helvetica,sans-Serif" font-size="10.00">time</text>
</a>
</g>
</g>
<!-- dir_98805e936c7cb41c7fc1bd0592aaf3bd&#45;&gt;dir_d33103ac168077bdcd2b65f79896931a -->
<g id="edge6" class="edge">
<title>dir_98805e936c7cb41c7fc1bd0592aaf3bd&#45;&gt;dir_d33103ac168077bdcd2b65f79896931a</title>
<g id="a_edge6"><a xlink:href="dir_000000_000036.html" target="_top">
<path fill="none" stroke="#63b8ff" d="M182.68,-298.71C180.46,-289.79 177.26,-275.55 176,-263 170.28,-205.81 165.93,-188.22 185,-134 196.4,-101.59 220.7,-69.44 236.43,-50.79"/>
<polygon fill="#63b8ff" stroke="#63b8ff" points="239.27,-52.86 243.16,-43.01 233.97,-48.28 239.27,-52.86"/>
</a>
</g>
<g id="a_edge6&#45;headlabel"><a xlink:href="dir_000000_000036.html" target="_top" xlink:title="3">
<text text-anchor="middle" x="239.06" y="-54.94" font-family="Helvetica,sans-Serif" font-size="10.00" fill="#63b8ff">3</text>
</a>
</g>
</g>
<!-- dir_232aac153d804cfbbc85dc0a0fa07463 -->
<g id="node12" class="node">
<title>dir_232aac153d804cfbbc85dc0a0fa07463</title>
<g id="a_node12"><a xlink:href="dir_232aac153d804cfbbc85dc0a0fa07463.html" target="_top" xlink:title="util">
<polygon fill="#4ea9ff" stroke="#404040" points="302,-153 270,-153 270,-134 302,-134 302,-153"/>
<text text-anchor="middle" x="286" y="-141" font-family="Helvetica,sans-Serif" font-size="10.00">util</text>
</a>
</g>
</g>
<!-- dir_98805e936c7cb41c7fc1bd0592aaf3bd&#45;&gt;dir_232aac153d804cfbbc85dc0a0fa07463 -->
<g id="edge2" class="edge">
<title>dir_98805e936c7cb41c7fc1bd0592aaf3bd&#45;&gt;dir_232aac153d804cfbbc85dc0a0fa07463</title>
<g id="a_edge2"><a xlink:href="dir_000000_000042.html" target="_top">
<path fill="none" stroke="#63b8ff" d="M185.41,-298.78C186.72,-274.51 191.41,-206.77 204,-189 217.43,-170.04 241.55,-158.36 260.17,-151.75"/>
<polygon fill="#63b8ff" stroke="#63b8ff" points="261.43,-155.02 269.84,-148.58 259.25,-148.37 261.43,-155.02"/>
</a>
</g>
<g id="a_edge2&#45;headlabel"><a xlink:href="dir_000000_000042.html" target="_top" xlink:title="7">
<text text-anchor="middle" x="258.89" y="-156.34" font-family="Helvetica,sans-Serif" font-size="10.00" fill="#63b8ff">7</text>
</a>
</g>
</g>
<!-- dir_5bbbaec82e60c1c95ef5795854749336&#45;&gt;dir_d7b6a63eed36fea2858d2aa41ca33f02 -->
<g id="edge9" class="edge">
<title>dir_5bbbaec82e60c1c95ef5795854749336&#45;&gt;dir_d7b6a63eed36fea2858d2aa41ca33f02</title>
<g id="a_edge9"><a xlink:href="dir_000016_000030.html" target="_top">
<path fill="none" stroke="#63b8ff" d="M99.56,-133.98C89.85,-126.07 75.18,-114.11 63.5,-104.58"/>
<polygon fill="#63b8ff" stroke="#63b8ff" points="65.6,-101.78 55.63,-98.17 61.17,-107.2 65.6,-101.78"/>
</a>
</g>
<g id="a_edge9&#45;headlabel"><a xlink:href="dir_000016_000030.html" target="_top" xlink:title="1">
<text text-anchor="middle" x="70.18" y="-99.35" font-family="Helvetica,sans-Serif" font-size="10.00" fill="#63b8ff">1</text>
</a>
</g>
</g>
<!-- dir_28f821d546ace6ab9b8c5a81f47cb6c0 -->
<g id="node11" class="node">
<title>dir_28f821d546ace6ab9b8c5a81f47cb6c0</title>
<g id="a_node11"><a xlink:href="dir_28f821d546ace6ab9b8c5a81f47cb6c0.html" target="_top" xlink:title="type">
<polygon fill="#4ea9ff" stroke="#404040" points="142,-98 104,-98 104,-79 142,-79 142,-98"/>
<text text-anchor="middle" x="123" y="-86" font-family="Helvetica,sans-Serif" font-size="10.00">type</text>
</a>
</g>
</g>
<!-- dir_5bbbaec82e60c1c95ef5795854749336&#45;&gt;dir_28f821d546ace6ab9b8c5a81f47cb6c0 -->
<g id="edge8" class="edge">
<title>dir_5bbbaec82e60c1c95ef5795854749336&#45;&gt;dir_28f821d546ace6ab9b8c5a81f47cb6c0</title>
<g id="a_edge8"><a xlink:href="dir_000016_000039.html" target="_top">
<path fill="none" stroke="#63b8ff" d="M112.15,-133.75C113.87,-126.72 116.35,-116.62 118.5,-107.84"/>
<polygon fill="#63b8ff" stroke="#63b8ff" points="121.91,-108.63 120.89,-98.09 115.11,-106.97 121.91,-108.63"/>
</a>
</g>
<g id="a_edge8&#45;headlabel"><a xlink:href="dir_000016_000039.html" target="_top" xlink:title="2">
<text text-anchor="middle" x="123.81" y="-110.3" font-family="Helvetica,sans-Serif" font-size="10.00" fill="#63b8ff">2</text>
</a>
</g>
</g>
<!-- dir_b6cd085f17e89cb6278eb6f5ecd32d39&#45;&gt;dir_98805e936c7cb41c7fc1bd0592aaf3bd -->
<g id="edge12" class="edge">
<title>dir_b6cd085f17e89cb6278eb6f5ecd32d39&#45;&gt;dir_98805e936c7cb41c7fc1bd0592aaf3bd</title>
<g id="a_edge12"><a xlink:href="dir_000020_000000.html" target="_top">
<path fill="none" stroke="#63b8ff" d="M267.1,-263.17C254.3,-271.6 232.14,-284.51 213.97,-294.23"/>
<polygon fill="#63b8ff" stroke="#63b8ff" points="212.13,-291.24 204.9,-298.98 215.38,-297.44 212.13,-291.24"/>
</a>
</g>
<g id="a_edge12&#45;headlabel"><a xlink:href="dir_000020_000000.html" target="_top" xlink:title="4">
<text text-anchor="middle" x="214" y="-284.56" font-family="Helvetica,sans-Serif" font-size="10.00" fill="#63b8ff">4</text>
</a>
</g>
</g>
<!-- dir_b6cd085f17e89cb6278eb6f5ecd32d39&#45;&gt;dir_1585cb1296de2c4dde76500afa886952 -->
<g id="edge10" class="edge">
<title>dir_b6cd085f17e89cb6278eb6f5ecd32d39&#45;&gt;dir_1585cb1296de2c4dde76500afa886952</title>
<g id="a_edge10"><a xlink:href="dir_000020_000034.html" target="_top">
<path fill="none" stroke="#63b8ff" d="M265.23,-243.75C258.12,-236.42 249.65,-225.73 243.61,-216.7"/>
<polygon fill="#63b8ff" stroke="#63b8ff" points="246.55,-214.8 238.35,-208.09 240.58,-218.45 246.55,-214.8"/>
</a>
</g>
<g id="a_edge10&#45;headlabel"><a xlink:href="dir_000020_000034.html" target="_top" xlink:title="4">
<text text-anchor="middle" x="250.85" y="-213.88" font-family="Helvetica,sans-Serif" font-size="10.00" fill="#63b8ff">4</text>
</a>
</g>
</g>
<!-- dir_b6cd085f17e89cb6278eb6f5ecd32d39&#45;&gt;dir_d33103ac168077bdcd2b65f79896931a -->
<g id="edge13" class="edge">
<title>dir_b6cd085f17e89cb6278eb6f5ecd32d39&#45;&gt;dir_d33103ac168077bdcd2b65f79896931a</title>
<g id="a_edge13"><a xlink:href="dir_000020_000036.html" target="_top">
<path fill="none" stroke="#63b8ff" d="M282.82,-243.89C295.27,-224.37 322.47,-175.24 311,-134 302.04,-101.79 279.53,-69.58 264.77,-50.87"/>
<polygon fill="#63b8ff" stroke="#63b8ff" points="267.45,-48.61 258.43,-43.05 262.01,-53.02 267.45,-48.61"/>
</a>
</g>
<g id="a_edge13&#45;headlabel"><a xlink:href="dir_000020_000036.html" target="_top" xlink:title="4">
<text text-anchor="middle" x="271.92" y="-47.11" font-family="Helvetica,sans-Serif" font-size="10.00" fill="#63b8ff">4</text>
</a>
</g>
</g>
<!-- dir_b6cd085f17e89cb6278eb6f5ecd32d39&#45;&gt;dir_232aac153d804cfbbc85dc0a0fa07463 -->
<g id="edge11" class="edge">
<title>dir_b6cd085f17e89cb6278eb6f5ecd32d39&#45;&gt;dir_232aac153d804cfbbc85dc0a0fa07463</title>
<g id="a_edge11"><a xlink:href="dir_000020_000042.html" target="_top">
<path fill="none" stroke="#63b8ff" d="M277.74,-243.66C279.19,-226.17 282.47,-186.8 284.44,-163.27"/>
<polygon fill="#63b8ff" stroke="#63b8ff" points="287.94,-163.41 285.28,-153.16 280.96,-162.83 287.94,-163.41"/>
</a>
</g>
<g id="a_edge11&#45;headlabel"><a xlink:href="dir_000020_000042.html" target="_top" xlink:title="4">
<text text-anchor="middle" x="290.47" y="-164.73" font-family="Helvetica,sans-Serif" font-size="10.00" fill="#63b8ff">4</text>
</a>
</g>
</g>
<!-- dir_04517956a249c5a3c73c0c786c61cfd1 -->
<g id="node7" class="node">
<title>dir_04517956a249c5a3c73c0c786c61cfd1</title>
<g id="a_node7"><a xlink:href="dir_04517956a249c5a3c73c0c786c61cfd1.html" target="_top" xlink:title="robot">
<polygon fill="#4ea9ff" stroke="#404040" points="320,-318 278,-318 278,-299 320,-299 320,-318"/>
<text text-anchor="middle" x="299" y="-306" font-family="Helvetica,sans-Serif" font-size="10.00">robot</text>
</a>
</g>
</g>
<!-- dir_04517956a249c5a3c73c0c786c61cfd1&#45;&gt;dir_b6cd085f17e89cb6278eb6f5ecd32d39 -->
<g id="edge15" class="edge">
<title>dir_04517956a249c5a3c73c0c786c61cfd1&#45;&gt;dir_b6cd085f17e89cb6278eb6f5ecd32d39</title>
<g id="a_edge15"><a xlink:href="dir_000033_000020.html" target="_top">
<path fill="none" stroke="#63b8ff" d="M295.37,-298.75C292.42,-291.65 288.17,-281.4 284.49,-272.56"/>
<polygon fill="#63b8ff" stroke="#63b8ff" points="287.63,-270.98 280.57,-263.09 281.17,-273.67 287.63,-270.98"/>
</a>
</g>
<g id="a_edge15&#45;headlabel"><a xlink:href="dir_000033_000020.html" target="_top" xlink:title="1">
<text text-anchor="middle" x="291.63" y="-270.71" font-family="Helvetica,sans-Serif" font-size="10.00" fill="#63b8ff">1</text>
</a>
</g>
</g>
<!-- dir_04517956a249c5a3c73c0c786c61cfd1&#45;&gt;dir_232aac153d804cfbbc85dc0a0fa07463 -->
<g id="edge14" class="edge">
<title>dir_04517956a249c5a3c73c0c786c61cfd1&#45;&gt;dir_232aac153d804cfbbc85dc0a0fa07463</title>
<g id="a_edge14"><a xlink:href="dir_000033_000042.html" target="_top">
<path fill="none" stroke="#63b8ff" d="M302.09,-298.77C305.05,-289.9 309.32,-275.69 311,-263 315.77,-227.01 302.73,-185.67 293.74,-162.56"/>
<polygon fill="#63b8ff" stroke="#63b8ff" points="296.88,-160.98 289.86,-153.05 290.4,-163.63 296.88,-160.98"/>
</a>
</g>
<g id="a_edge14&#45;headlabel"><a xlink:href="dir_000033_000042.html" target="_top" xlink:title="1">
<text text-anchor="middle" x="300.86" y="-160.74" font-family="Helvetica,sans-Serif" font-size="10.00" fill="#63b8ff">1</text>
</a>
</g>
</g>
<!-- dir_1585cb1296de2c4dde76500afa886952&#45;&gt;dir_5bbbaec82e60c1c95ef5795854749336 -->
<g id="edge17" class="edge">
<title>dir_1585cb1296de2c4dde76500afa886952&#45;&gt;dir_5bbbaec82e60c1c95ef5795854749336</title>
<g id="a_edge17"><a xlink:href="dir_000034_000016.html" target="_top">
<path fill="none" stroke="#63b8ff" d="M216.6,-188.98C195.98,-180.38 163.89,-166.99 140.31,-157.15"/>
<polygon fill="#63b8ff" stroke="#63b8ff" points="141.35,-153.79 130.78,-153.17 138.66,-160.25 141.35,-153.79"/>
</a>
</g>
<g id="a_edge17&#45;headlabel"><a xlink:href="dir_000034_000016.html" target="_top" xlink:title="4">
<text text-anchor="middle" x="145.76" y="-150.06" font-family="Helvetica,sans-Serif" font-size="10.00" fill="#63b8ff">4</text>
</a>
</g>
</g>
<!-- dir_1585cb1296de2c4dde76500afa886952&#45;&gt;dir_b6cd085f17e89cb6278eb6f5ecd32d39 -->
<g id="edge19" class="edge">
<title>dir_1585cb1296de2c4dde76500afa886952&#45;&gt;dir_b6cd085f17e89cb6278eb6f5ecd32d39</title>
<g id="a_edge19"><a xlink:href="dir_000034_000020.html" target="_top">
<path fill="none" stroke="#63b8ff" d="M248.61,-208.09C255.7,-215.37 264.18,-226.04 270.25,-235.1"/>
<polygon fill="#63b8ff" stroke="#63b8ff" points="267.35,-237.06 275.56,-243.75 273.31,-233.39 267.35,-237.06"/>
</a>
</g>
<g id="a_edge19&#45;headlabel"><a xlink:href="dir_000034_000020.html" target="_top" xlink:title="2">
<text text-anchor="middle" x="263.05" y="-232.98" font-family="Helvetica,sans-Serif" font-size="10.00" fill="#63b8ff">2</text>
</a>
</g>
</g>
<!-- dir_1585cb1296de2c4dde76500afa886952&#45;&gt;dir_93f5cc57b76a8a4cabb5571679917938 -->
<g id="edge18" class="edge">
<title>dir_1585cb1296de2c4dde76500afa886952&#45;&gt;dir_93f5cc57b76a8a4cabb5571679917938</title>
<g id="a_edge18"><a xlink:href="dir_000034_000021.html" target="_top">
<path fill="none" stroke="#63b8ff" d="M233.04,-188.75C229.79,-181.57 225.08,-171.18 221.05,-162.27"/>
<polygon fill="#63b8ff" stroke="#63b8ff" points="224.2,-160.75 216.89,-153.09 217.83,-163.64 224.2,-160.75"/>
</a>
</g>
<g id="a_edge18&#45;headlabel"><a xlink:href="dir_000034_000021.html" target="_top" xlink:title="3">
<text text-anchor="middle" x="228.27" y="-160.36" font-family="Helvetica,sans-Serif" font-size="10.00" fill="#63b8ff">3</text>
</a>
</g>
</g>
<!-- dir_1585cb1296de2c4dde76500afa886952&#45;&gt;dir_d33103ac168077bdcd2b65f79896931a -->
<g id="edge20" class="edge">
<title>dir_1585cb1296de2c4dde76500afa886952&#45;&gt;dir_d33103ac168077bdcd2b65f79896931a</title>
<g id="a_edge20"><a xlink:href="dir_000034_000036.html" target="_top">
<path fill="none" stroke="#63b8ff" d="M237.78,-188.97C238.6,-180.01 239.91,-165.52 241,-153 244.07,-117.81 247.5,-76.73 249.44,-53.35"/>
<polygon fill="#63b8ff" stroke="#63b8ff" points="252.95,-53.38 250.29,-43.13 245.97,-52.8 252.95,-53.38"/>
</a>
</g>
<g id="a_edge20&#45;headlabel"><a xlink:href="dir_000034_000036.html" target="_top" xlink:title="2">
<text text-anchor="middle" x="255.48" y="-54.7" font-family="Helvetica,sans-Serif" font-size="10.00" fill="#63b8ff">2</text>
</a>
</g>
</g>
<!-- dir_1585cb1296de2c4dde76500afa886952&#45;&gt;dir_232aac153d804cfbbc85dc0a0fa07463 -->
<g id="edge16" class="edge">
<title>dir_1585cb1296de2c4dde76500afa886952&#45;&gt;dir_232aac153d804cfbbc85dc0a0fa07463</title>
<g id="a_edge16"><a xlink:href="dir_000034_000042.html" target="_top">
<path fill="none" stroke="#63b8ff" d="M245.09,-188.75C252.16,-181.11 262.59,-169.82 271.15,-160.56"/>
<polygon fill="#63b8ff" stroke="#63b8ff" points="273.84,-162.81 278.06,-153.09 268.7,-158.06 273.84,-162.81"/>
</a>
</g>
<g id="a_edge16&#45;headlabel"><a xlink:href="dir_000034_000042.html" target="_top" xlink:title="2">
<text text-anchor="middle" x="273.49" y="-164.87" font-family="Helvetica,sans-Serif" font-size="10.00" fill="#63b8ff">2</text>
</a>
</g>
</g>
<!-- dir_e283d847d757715a6276040929a86eab -->
<g id="node10" class="node">
<title>dir_e283d847d757715a6276040929a86eab</title>
<g id="a_node10"><a xlink:href="dir_e283d847d757715a6276040929a86eab.html" target="_top" xlink:title="tool">
<polygon fill="#4ea9ff" stroke="#404040" points="250.5,-373 215.5,-373 215.5,-354 250.5,-354 250.5,-373"/>
<text text-anchor="middle" x="233" y="-361" font-family="Helvetica,sans-Serif" font-size="10.00">tool</text>
</a>
</g>
</g>
<!-- dir_e283d847d757715a6276040929a86eab&#45;&gt;dir_98805e936c7cb41c7fc1bd0592aaf3bd -->
<g id="edge22" class="edge">
<title>dir_e283d847d757715a6276040929a86eab&#45;&gt;dir_98805e936c7cb41c7fc1bd0592aaf3bd</title>
<g id="a_edge22"><a xlink:href="dir_000038_000000.html" target="_top">
<path fill="none" stroke="#63b8ff" d="M225.07,-353.75C218.15,-346.11 207.93,-334.82 199.55,-325.56"/>
<polygon fill="#63b8ff" stroke="#63b8ff" points="202.09,-323.15 192.78,-318.09 196.9,-327.85 202.09,-323.15"/>
</a>
</g>
<g id="a_edge22&#45;headlabel"><a xlink:href="dir_000038_000000.html" target="_top" xlink:title="1">
<text text-anchor="middle" x="206.6" y="-321.41" font-family="Helvetica,sans-Serif" font-size="10.00" fill="#63b8ff">1</text>
</a>
</g>
</g>
<!-- dir_e283d847d757715a6276040929a86eab&#45;&gt;dir_b6cd085f17e89cb6278eb6f5ecd32d39 -->
<g id="edge23" class="edge">
<title>dir_e283d847d757715a6276040929a86eab&#45;&gt;dir_b6cd085f17e89cb6278eb6f5ecd32d39</title>
<g id="a_edge23"><a xlink:href="dir_000038_000020.html" target="_top">
<path fill="none" stroke="#63b8ff" d="M236.6,-353.66C243.79,-336.01 260.06,-296.09 269.61,-272.64"/>
<polygon fill="#63b8ff" stroke="#63b8ff" points="272.94,-273.74 273.47,-263.16 266.46,-271.1 272.94,-273.74"/>
</a>
</g>
<g id="a_edge23&#45;headlabel"><a xlink:href="dir_000038_000020.html" target="_top" xlink:title="2">
<text text-anchor="middle" x="274.21" y="-275.64" font-family="Helvetica,sans-Serif" font-size="10.00" fill="#63b8ff">2</text>
</a>
</g>
</g>
<!-- dir_e283d847d757715a6276040929a86eab&#45;&gt;dir_d7b6a63eed36fea2858d2aa41ca33f02 -->
<g id="edge25" class="edge">
<title>dir_e283d847d757715a6276040929a86eab&#45;&gt;dir_d7b6a63eed36fea2858d2aa41ca33f02</title>
<g id="a_edge25"><a xlink:href="dir_000038_000030.html" target="_top">
<path fill="none" stroke="#63b8ff" d="M215.27,-361.57C164.97,-357.88 25,-339.95 25,-254.5 25,-254.5 25,-254.5 25,-197.5 25,-165.51 33.59,-129.07 39.51,-107.75"/>
<polygon fill="#63b8ff" stroke="#63b8ff" points="42.89,-108.66 42.3,-98.08 36.16,-106.71 42.89,-108.66"/>
</a>
</g>
<g id="a_edge25&#45;headlabel"><a xlink:href="dir_000038_000030.html" target="_top" xlink:title="1">
<text text-anchor="middle" x="44.62" y="-110.4" font-family="Helvetica,sans-Serif" font-size="10.00" fill="#63b8ff">1</text>
</a>
</g>
</g>
<!-- dir_e283d847d757715a6276040929a86eab&#45;&gt;dir_1585cb1296de2c4dde76500afa886952 -->
<g id="edge21" class="edge">
<title>dir_e283d847d757715a6276040929a86eab&#45;&gt;dir_1585cb1296de2c4dde76500afa886952</title>
<g id="a_edge21"><a xlink:href="dir_000038_000034.html" target="_top">
<path fill="none" stroke="#63b8ff" d="M233.22,-353.74C233.84,-328.31 235.66,-254.08 236.53,-218.69"/>
<polygon fill="#63b8ff" stroke="#63b8ff" points="240.04,-218.39 236.78,-208.31 233.04,-218.22 240.04,-218.39"/>
</a>
</g>
<g id="a_edge21&#45;headlabel"><a xlink:href="dir_000038_000034.html" target="_top" xlink:title="1">
<text text-anchor="middle" x="242.79" y="-219.55" font-family="Helvetica,sans-Serif" font-size="10.00" fill="#63b8ff">1</text>
</a>
</g>
</g>
<!-- dir_e283d847d757715a6276040929a86eab&#45;&gt;dir_d33103ac168077bdcd2b65f79896931a -->
<g id="edge24" class="edge">
<title>dir_e283d847d757715a6276040929a86eab&#45;&gt;dir_d33103ac168077bdcd2b65f79896931a</title>
<g id="a_edge24"><a xlink:href="dir_000038_000036.html" target="_top">
<path fill="none" stroke="#63b8ff" d="M250.67,-356.51C275.51,-347.74 318.84,-331.04 329,-318 346.65,-295.34 341,-283.22 341,-254.5 341,-254.5 341,-254.5 341,-142.5 341,-100.84 300.98,-66.72 274.32,-48.6"/>
<polygon fill="#63b8ff" stroke="#63b8ff" points="276.15,-45.62 265.86,-43.09 272.32,-51.48 276.15,-45.62"/>
</a>
</g>
<g id="a_edge24&#45;headlabel"><a xlink:href="dir_000038_000036.html" target="_top" xlink:title="2">
<text text-anchor="middle" x="280.71" y="-42.71" font-family="Helvetica,sans-Serif" font-size="10.00" fill="#63b8ff">2</text>
</a>
</g>
</g>
<!-- dir_28f821d546ace6ab9b8c5a81f47cb6c0&#45;&gt;dir_d33103ac168077bdcd2b65f79896931a -->
<g id="edge26" class="edge">
<title>dir_28f821d546ace6ab9b8c5a81f47cb6c0&#45;&gt;dir_d33103ac168077bdcd2b65f79896931a</title>
<g id="a_edge26"><a xlink:href="dir_000039_000036.html" target="_top">
<path fill="none" stroke="#63b8ff" d="M142.16,-79.57C163.25,-70.83 197.38,-56.7 221.8,-46.59"/>
<polygon fill="#63b8ff" stroke="#63b8ff" points="223.38,-49.72 231.28,-42.66 220.71,-43.26 223.38,-49.72"/>
</a>
</g>
<g id="a_edge26&#45;headlabel"><a xlink:href="dir_000039_000036.html" target="_top" xlink:title="1">
<text text-anchor="middle" x="221.15" y="-51.22" font-family="Helvetica,sans-Serif" font-size="10.00" fill="#63b8ff">1</text>
</a>
</g>
</g>
</g>
</svg>
