<?xml version="1.0" encoding="UTF-8" standalone="no"?>
<!DOCTYPE svg PUBLIC "-//W3C//DTD SVG 1.1//EN"
 "http://www.w3.org/Graphics/SVG/1.1/DTD/svg11.dtd">
<!-- Generated by graphviz version 2.43.0 (0)
 -->
<!-- Title: alps_common_lib/include/alps_cmn/actuator Pages: 1 -->
<svg width="414pt" height="133pt"
 viewBox="0.00 0.00 414.00 133.00" xmlns="http://www.w3.org/2000/svg" xmlns:xlink="http://www.w3.org/1999/xlink">
<g id="graph0" class="graph" transform="scale(1 1) rotate(0) translate(4 129)">
<title>alps_common_lib/include/alps_cmn/actuator</title>
<g id="clust1" class="cluster">
<title>clusterdir_cc648f72f51f156e42f9863c0e5bf5fb</title>
<g id="a_clust1"><a xlink:href="dir_cc648f72f51f156e42f9863c0e5bf5fb.html" target="_top" xlink:title="alps_cmn">
<polygon fill="#daedff" stroke="#7f7f7f" stroke-dasharray="5,2" points="8,-8 8,-117 398,-117 398,-8 8,-8"/>
<text text-anchor="middle" x="203" y="-105" font-family="Helvetica,sans-Serif" font-size="10.00">alps_cmn</text>
</a>
</g>
</g>
<!-- dir_1367935105ebc251618457953f8d2b80 -->
<g id="node1" class="node">
<title>dir_1367935105ebc251618457953f8d2b80</title>
<g id="a_node1"><a xlink:href="dir_1367935105ebc251618457953f8d2b80.html" target="_top" xlink:title="time">
<polygon fill="#4ea9ff" stroke="#404040" points="55.5,-35 16.5,-35 16.5,-16 55.5,-16 55.5,-35"/>
<text text-anchor="middle" x="36" y="-23" font-family="Helvetica,sans-Serif" font-size="10.00">time</text>
</a>
</g>
</g>
<!-- dir_26247a4c7d21a73996b8a7832c1a1463 -->
<g id="node2" class="node">
<title>dir_26247a4c7d21a73996b8a7832c1a1463</title>
<g id="a_node2"><a xlink:href="dir_26247a4c7d21a73996b8a7832c1a1463.html" target="_top" xlink:title="util">
<polygon fill="#4ea9ff" stroke="#404040" points="106,-35 74,-35 74,-16 106,-16 106,-35"/>
<text text-anchor="middle" x="90" y="-23" font-family="Helvetica,sans-Serif" font-size="10.00">util</text>
</a>
</g>
</g>
<!-- dir_76fd7680a09542374d3e212281ba6ee2 -->
<g id="node3" class="node">
<title>dir_76fd7680a09542374d3e212281ba6ee2</title>
<g id="a_node3"><a xlink:href="dir_76fd7680a09542374d3e212281ba6ee2.html" target="_top" xlink:title="communication">
<polygon fill="#4ea9ff" stroke="#404040" points="216,-35 124,-35 124,-16 216,-16 216,-35"/>
<text text-anchor="middle" x="170" y="-23" font-family="Helvetica,sans-Serif" font-size="10.00">communication</text>
</a>
</g>
</g>
<!-- dir_7913872ef1e9131c7a4facddec50fb6b -->
<g id="node4" class="node">
<title>dir_7913872ef1e9131c7a4facddec50fb6b</title>
<g id="a_node4"><a xlink:href="dir_7913872ef1e9131c7a4facddec50fb6b.html" target="_top" xlink:title="gpio">
<polygon fill="#4ea9ff" stroke="#404040" points="272,-35 234,-35 234,-16 272,-16 272,-35"/>
<text text-anchor="middle" x="253" y="-23" font-family="Helvetica,sans-Serif" font-size="10.00">gpio</text>
</a>
</g>
</g>
<!-- dir_96320550a29baac38dc9eb0ae89f5e73 -->
<g id="node5" class="node">
<title>dir_96320550a29baac38dc9eb0ae89f5e73</title>
<g id="a_node5"><a xlink:href="dir_96320550a29baac38dc9eb0ae89f5e73.html" target="_top" xlink:title="sensor">
<polygon fill="#4ea9ff" stroke="#404040" points="339.5,-35 290.5,-35 290.5,-16 339.5,-16 339.5,-35"/>
<text text-anchor="middle" x="315" y="-23" font-family="Helvetica,sans-Serif" font-size="10.00">sensor</text>
</a>
</g>
</g>
<!-- dir_c42d739f81e7f8c788f3b0a5285dd299 -->
<g id="node6" class="node">
<title>dir_c42d739f81e7f8c788f3b0a5285dd299</title>
<g id="a_node6"><a xlink:href="dir_c42d739f81e7f8c788f3b0a5285dd299.html" target="_top" xlink:title="log">
<polygon fill="#4ea9ff" stroke="#404040" points="390,-35 358,-35 358,-16 390,-16 390,-35"/>
<text text-anchor="middle" x="374" y="-23" font-family="Helvetica,sans-Serif" font-size="10.00">log</text>
</a>
</g>
</g>
<!-- dir_2239b1117054295ada522fe6d99615b2 -->
<g id="node7" class="node">
<title>dir_2239b1117054295ada522fe6d99615b2</title>
<g id="a_node7"><a xlink:href="dir_2239b1117054295ada522fe6d99615b2.html" target="_top" xlink:title="actuator">
<polygon fill="#daedff" stroke="#404040" stroke-width="2" points="239.5,-90 182.5,-90 182.5,-71 239.5,-71 239.5,-90"/>
<text text-anchor="middle" x="211" y="-78" font-family="Helvetica,sans-Serif" font-size="10.00">actuator</text>
</a>
</g>
</g>
<!-- dir_2239b1117054295ada522fe6d99615b2&#45;&gt;dir_1367935105ebc251618457953f8d2b80 -->
<g id="edge1" class="edge">
<title>dir_2239b1117054295ada522fe6d99615b2&#45;&gt;dir_1367935105ebc251618457953f8d2b80</title>
<path fill="none" stroke="#63b8ff" d="M182.88,-70.98C150.8,-61.27 98.55,-45.44 65.79,-35.52"/>
<polygon fill="#63b8ff" stroke="#63b8ff" points="66.47,-32.07 55.88,-32.52 64.44,-38.77 66.47,-32.07"/>
<g id="a_edge1&#45;headlabel"><a xlink:href="dir_000000_000033.html" target="_top" xlink:title="1">
<text text-anchor="middle" x="70.73" y="-27.9" font-family="Helvetica,sans-Serif" font-size="10.00" fill="#63b8ff">1</text>
</a>
</g>
</g>
<!-- dir_2239b1117054295ada522fe6d99615b2&#45;&gt;dir_26247a4c7d21a73996b8a7832c1a1463 -->
<g id="edge2" class="edge">
<title>dir_2239b1117054295ada522fe6d99615b2&#45;&gt;dir_26247a4c7d21a73996b8a7832c1a1463</title>
<path fill="none" stroke="#63b8ff" d="M191.56,-70.98C170.96,-61.96 138.33,-47.67 115.64,-37.73"/>
<polygon fill="#63b8ff" stroke="#63b8ff" points="116.85,-34.44 106.29,-33.63 114.04,-40.85 116.85,-34.44"/>
<g id="a_edge2&#45;headlabel"><a xlink:href="dir_000000_000036.html" target="_top" xlink:title="5">
<text text-anchor="middle" x="121.29" y="-30.78" font-family="Helvetica,sans-Serif" font-size="10.00" fill="#63b8ff">5</text>
</a>
</g>
</g>
<!-- dir_2239b1117054295ada522fe6d99615b2&#45;&gt;dir_76fd7680a09542374d3e212281ba6ee2 -->
<g id="edge3" class="edge">
<title>dir_2239b1117054295ada522fe6d99615b2&#45;&gt;dir_76fd7680a09542374d3e212281ba6ee2</title>
<path fill="none" stroke="#63b8ff" d="M204.23,-70.75C198.44,-63.26 189.94,-52.28 182.86,-43.13"/>
<polygon fill="#63b8ff" stroke="#63b8ff" points="185.53,-40.86 176.64,-35.09 179.99,-45.14 185.53,-40.86"/>
<g id="a_edge3&#45;headlabel"><a xlink:href="dir_000000_000014.html" target="_top" xlink:title="1">
<text text-anchor="middle" x="189.98" y="-39.46" font-family="Helvetica,sans-Serif" font-size="10.00" fill="#63b8ff">1</text>
</a>
</g>
</g>
<!-- dir_2239b1117054295ada522fe6d99615b2&#45;&gt;dir_7913872ef1e9131c7a4facddec50fb6b -->
<g id="edge4" class="edge">
<title>dir_2239b1117054295ada522fe6d99615b2&#45;&gt;dir_7913872ef1e9131c7a4facddec50fb6b</title>
<path fill="none" stroke="#63b8ff" d="M217.94,-70.75C223.87,-63.26 232.57,-52.28 239.82,-43.13"/>
<polygon fill="#63b8ff" stroke="#63b8ff" points="242.73,-45.1 246.19,-35.09 237.24,-40.75 242.73,-45.1"/>
<g id="a_edge4&#45;headlabel"><a xlink:href="dir_000000_000019.html" target="_top" xlink:title="3">
<text text-anchor="middle" x="242.72" y="-47.18" font-family="Helvetica,sans-Serif" font-size="10.00" fill="#63b8ff">3</text>
</a>
</g>
</g>
<!-- dir_2239b1117054295ada522fe6d99615b2&#45;&gt;dir_96320550a29baac38dc9eb0ae89f5e73 -->
<g id="edge5" class="edge">
<title>dir_2239b1117054295ada522fe6d99615b2&#45;&gt;dir_96320550a29baac38dc9eb0ae89f5e73</title>
<path fill="none" stroke="#63b8ff" d="M227.71,-70.98C244.21,-62.57 269.7,-49.59 288.88,-39.81"/>
<polygon fill="#63b8ff" stroke="#63b8ff" points="290.67,-42.83 297.99,-35.17 287.49,-36.59 290.67,-42.83"/>
<g id="a_edge5&#45;headlabel"><a xlink:href="dir_000000_000031.html" target="_top" xlink:title="1">
<text text-anchor="middle" x="288.75" y="-44.49" font-family="Helvetica,sans-Serif" font-size="10.00" fill="#63b8ff">1</text>
</a>
</g>
</g>
<!-- dir_2239b1117054295ada522fe6d99615b2&#45;&gt;dir_c42d739f81e7f8c788f3b0a5285dd299 -->
<g id="edge6" class="edge">
<title>dir_2239b1117054295ada522fe6d99615b2&#45;&gt;dir_c42d739f81e7f8c788f3b0a5285dd299</title>
<path fill="none" stroke="#63b8ff" d="M238.01,-70.93C263.96,-62.66 304.5,-49.67 348.21,-35.23"/>
<polygon fill="#63b8ff" stroke="#63b8ff" points="349.48,-38.49 357.87,-32.02 347.28,-31.85 349.48,-38.49"/>
<g id="a_edge6&#45;headlabel"><a xlink:href="dir_000000_000027.html" target="_top" xlink:title="1">
<text text-anchor="middle" x="346.96" y="-39.82" font-family="Helvetica,sans-Serif" font-size="10.00" fill="#63b8ff">1</text>
</a>
</g>
</g>
</g>
</svg>
