<?xml version="1.0" encoding="UTF-8" standalone="no"?>
<!DOCTYPE svg PUBLIC "-//W3C//DTD SVG 1.1//EN"
 "http://www.w3.org/Graphics/SVG/1.1/DTD/svg11.dtd">
<!-- Generated by graphviz version 2.43.0 (0)
 -->
<!-- Title: alps_core/lib_internal/alps_common_lib/include/alps_cmn/tool Pages: 1 -->
<svg width="194pt" height="383pt"
 viewBox="0.00 0.00 194.00 383.00" xmlns="http://www.w3.org/2000/svg" xmlns:xlink="http://www.w3.org/1999/xlink">
<g id="graph0" class="graph" transform="scale(1 1) rotate(0) translate(4 379)">
<title>alps_core/lib_internal/alps_common_lib/include/alps_cmn/tool</title>
<polygon fill="white" stroke="transparent" points="-4,4 -4,-379 190,-379 190,4 -4,4"/>
<g id="clust1" class="cluster">
<title>clusterdir_664123f27b70b10eeac81c10039fb160</title>
<g id="a_clust1"><a xlink:href="dir_664123f27b70b10eeac81c10039fb160.html" target="_top" xlink:title="alps_cmn">
<polygon fill="#ddddee" stroke="black" points="8,-8 8,-367 178,-367 178,-8 8,-8"/>
<text text-anchor="middle" x="93" y="-355" font-family="Helvetica,sans-Serif" font-size="10.00">alps_cmn</text>
</a>
</g>
</g>
<!-- dir_1585cb1296de2c4dde76500afa886952 -->
<g id="node1" class="node">
<title>dir_1585cb1296de2c4dde76500afa886952</title>
<g id="a_node1"><a xlink:href="dir_1585cb1296de2c4dde76500afa886952.html" target="_top" xlink:title="sensor">
<polygon fill="none" stroke="black" points="120,-268 66,-268 66,-232 120,-232 120,-268"/>
<text text-anchor="middle" x="93" y="-247.5" font-family="Helvetica,sans-Serif" font-size="10.00">sensor</text>
</a>
</g>
</g>
<!-- dir_b6cd085f17e89cb6278eb6f5ecd32d39 -->
<g id="node3" class="node">
<title>dir_b6cd085f17e89cb6278eb6f5ecd32d39</title>
<g id="a_node3"><a xlink:href="dir_b6cd085f17e89cb6278eb6f5ecd32d39.html" target="_top" xlink:title="control">
<polygon fill="none" stroke="black" points="110,-196 56,-196 56,-160 110,-160 110,-196"/>
<text text-anchor="middle" x="83" y="-175.5" font-family="Helvetica,sans-Serif" font-size="10.00">control</text>
</a>
</g>
</g>
<!-- dir_1585cb1296de2c4dde76500afa886952&#45;&gt;dir_b6cd085f17e89cb6278eb6f5ecd32d39 -->
<g id="edge13" class="edge">
<title>dir_1585cb1296de2c4dde76500afa886952&#45;&gt;dir_b6cd085f17e89cb6278eb6f5ecd32d39</title>
<path fill="none" stroke="black" d="M84.61,-231.7C82.71,-223.98 81.16,-214.71 80.28,-206.11"/>
<polygon fill="black" stroke="black" points="83.77,-205.82 79.55,-196.1 76.78,-206.33 83.77,-205.82"/>
<g id="a_edge13&#45;headlabel"><a xlink:href="dir_000027_000011.html" target="_top" xlink:title="2">
<text text-anchor="middle" x="86.86" y="-206.7" font-family="Helvetica,sans-Serif" font-size="10.00">2</text>
</a>
</g>
</g>
<!-- dir_d33103ac168077bdcd2b65f79896931a -->
<g id="node4" class="node">
<title>dir_d33103ac168077bdcd2b65f79896931a</title>
<g id="a_node4"><a xlink:href="dir_d33103ac168077bdcd2b65f79896931a.html" target="_top" xlink:title="time">
<polygon fill="none" stroke="black" points="75,-52 21,-52 21,-16 75,-16 75,-52"/>
<text text-anchor="middle" x="48" y="-31.5" font-family="Helvetica,sans-Serif" font-size="10.00">time</text>
</a>
</g>
</g>
<!-- dir_1585cb1296de2c4dde76500afa886952&#45;&gt;dir_d33103ac168077bdcd2b65f79896931a -->
<g id="edge14" class="edge">
<title>dir_1585cb1296de2c4dde76500afa886952&#45;&gt;dir_d33103ac168077bdcd2b65f79896931a</title>
<path fill="none" stroke="black" d="M72.18,-231.62C62.54,-222.2 52.11,-209.7 47,-196 30.4,-151.54 36.26,-95.22 42.09,-62.34"/>
<polygon fill="black" stroke="black" points="45.6,-62.62 44.03,-52.14 38.72,-61.31 45.6,-62.62"/>
<g id="a_edge14&#45;headlabel"><a xlink:href="dir_000027_000029.html" target="_top" xlink:title="2">
<text text-anchor="middle" x="47.72" y="-64.18" font-family="Helvetica,sans-Serif" font-size="10.00">2</text>
</a>
</g>
</g>
<!-- dir_98805e936c7cb41c7fc1bd0592aaf3bd -->
<g id="node2" class="node">
<title>dir_98805e936c7cb41c7fc1bd0592aaf3bd</title>
<g id="a_node2"><a xlink:href="dir_98805e936c7cb41c7fc1bd0592aaf3bd.html" target="_top" xlink:title="actuator">
<polygon fill="none" stroke="black" points="146.5,-124 89.5,-124 89.5,-88 146.5,-88 146.5,-124"/>
<text text-anchor="middle" x="118" y="-103.5" font-family="Helvetica,sans-Serif" font-size="10.00">actuator</text>
</a>
</g>
</g>
<!-- dir_98805e936c7cb41c7fc1bd0592aaf3bd&#45;&gt;dir_1585cb1296de2c4dde76500afa886952 -->
<g id="edge1" class="edge">
<title>dir_98805e936c7cb41c7fc1bd0592aaf3bd&#45;&gt;dir_1585cb1296de2c4dde76500afa886952</title>
<path fill="none" stroke="black" d="M120.59,-124.32C122.76,-142.45 124.66,-171.62 119,-196 116.9,-205.04 113.03,-214.32 108.91,-222.53"/>
<polygon fill="black" stroke="black" points="105.69,-221.14 104.05,-231.61 111.86,-224.45 105.69,-221.14"/>
<g id="a_edge1&#45;headlabel"><a xlink:href="dir_000005_000027.html" target="_top" xlink:title="1">
<text text-anchor="middle" x="104.88" y="-214.13" font-family="Helvetica,sans-Serif" font-size="10.00">1</text>
</a>
</g>
</g>
<!-- dir_98805e936c7cb41c7fc1bd0592aaf3bd&#45;&gt;dir_b6cd085f17e89cb6278eb6f5ecd32d39 -->
<g id="edge2" class="edge">
<title>dir_98805e936c7cb41c7fc1bd0592aaf3bd&#45;&gt;dir_b6cd085f17e89cb6278eb6f5ecd32d39</title>
<path fill="none" stroke="black" d="M115.34,-124.1C112.17,-132.13 107.52,-141.87 102.66,-150.8"/>
<polygon fill="black" stroke="black" points="99.49,-149.28 97.57,-159.7 105.57,-152.75 99.49,-149.28"/>
<g id="a_edge2&#45;headlabel"><a xlink:href="dir_000005_000011.html" target="_top" xlink:title="1">
<text text-anchor="middle" x="98.82" y="-142.25" font-family="Helvetica,sans-Serif" font-size="10.00">1</text>
</a>
</g>
</g>
<!-- dir_98805e936c7cb41c7fc1bd0592aaf3bd&#45;&gt;dir_d33103ac168077bdcd2b65f79896931a -->
<g id="edge3" class="edge">
<title>dir_98805e936c7cb41c7fc1bd0592aaf3bd&#45;&gt;dir_d33103ac168077bdcd2b65f79896931a</title>
<path fill="none" stroke="black" d="M100.7,-87.7C92.14,-79.14 81.66,-68.66 72.3,-59.3"/>
<polygon fill="black" stroke="black" points="74.65,-56.7 65.1,-52.1 69.7,-61.65 74.65,-56.7"/>
<g id="a_edge3&#45;headlabel"><a xlink:href="dir_000005_000029.html" target="_top" xlink:title="3">
<text text-anchor="middle" x="79.2" y="-54.73" font-family="Helvetica,sans-Serif" font-size="10.00">3</text>
</a>
</g>
</g>
<!-- dir_d7b6a63eed36fea2858d2aa41ca33f02 -->
<g id="node5" class="node">
<title>dir_d7b6a63eed36fea2858d2aa41ca33f02</title>
<g id="a_node5"><a xlink:href="dir_d7b6a63eed36fea2858d2aa41ca33f02.html" target="_top" xlink:title="log">
<polygon fill="none" stroke="black" points="150,-52 96,-52 96,-16 150,-16 150,-52"/>
<text text-anchor="middle" x="123" y="-31.5" font-family="Helvetica,sans-Serif" font-size="10.00">log</text>
</a>
</g>
</g>
<!-- dir_98805e936c7cb41c7fc1bd0592aaf3bd&#45;&gt;dir_d7b6a63eed36fea2858d2aa41ca33f02 -->
<g id="edge4" class="edge">
<title>dir_98805e936c7cb41c7fc1bd0592aaf3bd&#45;&gt;dir_d7b6a63eed36fea2858d2aa41ca33f02</title>
<path fill="none" stroke="black" d="M119.24,-87.7C119.79,-79.98 120.45,-70.71 121.06,-62.11"/>
<polygon fill="black" stroke="black" points="124.56,-62.33 121.78,-52.1 117.57,-61.83 124.56,-62.33"/>
<g id="a_edge4&#45;headlabel"><a xlink:href="dir_000005_000013.html" target="_top" xlink:title="1">
<text text-anchor="middle" x="127.13" y="-63.62" font-family="Helvetica,sans-Serif" font-size="10.00">1</text>
</a>
</g>
</g>
<!-- dir_b6cd085f17e89cb6278eb6f5ecd32d39&#45;&gt;dir_1585cb1296de2c4dde76500afa886952 -->
<g id="edge10" class="edge">
<title>dir_b6cd085f17e89cb6278eb6f5ecd32d39&#45;&gt;dir_1585cb1296de2c4dde76500afa886952</title>
<path fill="none" stroke="black" d="M91.34,-196.1C93.24,-203.79 94.8,-213.05 95.7,-221.67"/>
<polygon fill="black" stroke="black" points="92.21,-221.98 96.44,-231.7 99.19,-221.46 92.21,-221.98"/>
<g id="a_edge10&#45;headlabel"><a xlink:href="dir_000011_000027.html" target="_top" xlink:title="4">
<text text-anchor="middle" x="89.12" y="-216.11" font-family="Helvetica,sans-Serif" font-size="10.00">4</text>
</a>
</g>
</g>
<!-- dir_b6cd085f17e89cb6278eb6f5ecd32d39&#45;&gt;dir_98805e936c7cb41c7fc1bd0592aaf3bd -->
<g id="edge11" class="edge">
<title>dir_b6cd085f17e89cb6278eb6f5ecd32d39&#45;&gt;dir_98805e936c7cb41c7fc1bd0592aaf3bd</title>
<path fill="none" stroke="black" d="M85.74,-159.7C88.93,-151.64 93.6,-141.89 98.46,-132.98"/>
<polygon fill="black" stroke="black" points="101.61,-134.52 103.55,-124.1 95.54,-131.04 101.61,-134.52"/>
<g id="a_edge11&#45;headlabel"><a xlink:href="dir_000011_000005.html" target="_top" xlink:title="4">
<text text-anchor="middle" x="102.29" y="-136.55" font-family="Helvetica,sans-Serif" font-size="10.00">4</text>
</a>
</g>
</g>
<!-- dir_b6cd085f17e89cb6278eb6f5ecd32d39&#45;&gt;dir_d33103ac168077bdcd2b65f79896931a -->
<g id="edge12" class="edge">
<title>dir_b6cd085f17e89cb6278eb6f5ecd32d39&#45;&gt;dir_d33103ac168077bdcd2b65f79896931a</title>
<path fill="none" stroke="black" d="M78.78,-159.87C72.79,-135.56 61.76,-90.82 54.66,-62.01"/>
<polygon fill="black" stroke="black" points="58.03,-61.06 52.24,-52.19 51.23,-62.74 58.03,-61.06"/>
<g id="a_edge12&#45;headlabel"><a xlink:href="dir_000011_000029.html" target="_top" xlink:title="4">
<text text-anchor="middle" x="61.65" y="-61.37" font-family="Helvetica,sans-Serif" font-size="10.00">4</text>
</a>
</g>
</g>
<!-- dir_e283d847d757715a6276040929a86eab -->
<g id="node6" class="node">
<title>dir_e283d847d757715a6276040929a86eab</title>
<g id="a_node6"><a xlink:href="dir_e283d847d757715a6276040929a86eab.html" target="_top" xlink:title="tool">
<polygon fill="#eeeeff" stroke="black" points="120,-340 66,-340 66,-304 120,-304 120,-340"/>
<text text-anchor="middle" x="93" y="-319.5" font-family="Helvetica,sans-Serif" font-size="10.00">tool</text>
</a>
</g>
</g>
<!-- dir_e283d847d757715a6276040929a86eab&#45;&gt;dir_1585cb1296de2c4dde76500afa886952 -->
<g id="edge5" class="edge">
<title>dir_e283d847d757715a6276040929a86eab&#45;&gt;dir_1585cb1296de2c4dde76500afa886952</title>
<path fill="none" stroke="black" d="M93,-303.7C93,-295.98 93,-286.71 93,-278.11"/>
<polygon fill="black" stroke="black" points="96.5,-278.1 93,-268.1 89.5,-278.1 96.5,-278.1"/>
<g id="a_edge5&#45;headlabel"><a xlink:href="dir_000030_000027.html" target="_top" xlink:title="1">
<text text-anchor="middle" x="99.34" y="-279.2" font-family="Helvetica,sans-Serif" font-size="10.00">1</text>
</a>
</g>
</g>
<!-- dir_e283d847d757715a6276040929a86eab&#45;&gt;dir_98805e936c7cb41c7fc1bd0592aaf3bd -->
<g id="edge6" class="edge">
<title>dir_e283d847d757715a6276040929a86eab&#45;&gt;dir_98805e936c7cb41c7fc1bd0592aaf3bd</title>
<path fill="none" stroke="black" d="M108.61,-303.77C116.37,-294.03 124.95,-281.18 129,-268 142.97,-222.57 133.59,-166.65 125.68,-134.09"/>
<polygon fill="black" stroke="black" points="129.07,-133.21 123.19,-124.39 122.28,-134.94 129.07,-133.21"/>
<g id="a_edge6&#45;headlabel"><a xlink:href="dir_000030_000005.html" target="_top" xlink:title="1">
<text text-anchor="middle" x="132.71" y="-133.48" font-family="Helvetica,sans-Serif" font-size="10.00">1</text>
</a>
</g>
</g>
<!-- dir_e283d847d757715a6276040929a86eab&#45;&gt;dir_b6cd085f17e89cb6278eb6f5ecd32d39 -->
<g id="edge7" class="edge">
<title>dir_e283d847d757715a6276040929a86eab&#45;&gt;dir_b6cd085f17e89cb6278eb6f5ecd32d39</title>
<path fill="none" stroke="black" d="M77.39,-303.77C69.63,-294.03 61.05,-281.18 57,-268 52.3,-252.71 53.38,-247.59 57,-232 59.1,-222.96 62.97,-213.68 67.09,-205.47"/>
<polygon fill="black" stroke="black" points="70.31,-206.86 71.95,-196.39 64.14,-203.55 70.31,-206.86"/>
<g id="a_edge7&#45;headlabel"><a xlink:href="dir_000030_000011.html" target="_top" xlink:title="2">
<text text-anchor="middle" x="71.12" y="-208.87" font-family="Helvetica,sans-Serif" font-size="10.00">2</text>
</a>
</g>
</g>
<!-- dir_e283d847d757715a6276040929a86eab&#45;&gt;dir_d33103ac168077bdcd2b65f79896931a -->
<g id="edge8" class="edge">
<title>dir_e283d847d757715a6276040929a86eab&#45;&gt;dir_d33103ac168077bdcd2b65f79896931a</title>
<path fill="none" stroke="black" d="M75.03,-303.95C65.87,-294.25 55.35,-281.4 49,-268 14.61,-195.42 21.96,-167.55 33,-88 34.18,-79.48 36.39,-70.39 38.75,-62.2"/>
<polygon fill="black" stroke="black" points="42.17,-62.99 41.76,-52.41 35.48,-60.94 42.17,-62.99"/>
<g id="a_edge8&#45;headlabel"><a xlink:href="dir_000030_000029.html" target="_top" xlink:title="2">
<text text-anchor="middle" x="43.83" y="-64.76" font-family="Helvetica,sans-Serif" font-size="10.00">2</text>
</a>
</g>
</g>
<!-- dir_e283d847d757715a6276040929a86eab&#45;&gt;dir_d7b6a63eed36fea2858d2aa41ca33f02 -->
<g id="edge9" class="edge">
<title>dir_e283d847d757715a6276040929a86eab&#45;&gt;dir_d7b6a63eed36fea2858d2aa41ca33f02</title>
<path fill="none" stroke="black" d="M111.74,-303.63C120.89,-294.03 131.16,-281.37 137,-268 162.85,-208.85 151.77,-188.42 156,-124 157.05,-108.03 160.4,-103.38 156,-88 153.29,-78.51 148.33,-69.06 143.07,-60.83"/>
<polygon fill="black" stroke="black" points="145.86,-58.72 137.33,-52.43 140.08,-62.67 145.86,-58.72"/>
<g id="a_edge9&#45;headlabel"><a xlink:href="dir_000030_000013.html" target="_top" xlink:title="1">
<text text-anchor="middle" x="150.23" y="-57.58" font-family="Helvetica,sans-Serif" font-size="10.00">1</text>
</a>
</g>
</g>
</g>
</svg>
