<?xml version="1.0" encoding="UTF-8" standalone="no"?>
<!DOCTYPE svg PUBLIC "-//W3C//DTD SVG 1.1//EN"
 "http://www.w3.org/Graphics/SVG/1.1/DTD/svg11.dtd">
<!-- Generated by graphviz version 2.43.0 (0)
 -->
<!-- Title: alps_ros2_lib/include/alps_ros2 Pages: 1 -->
<svg width="476pt" height="255pt"
 viewBox="0.00 0.00 476.00 255.00" xmlns="http://www.w3.org/2000/svg" xmlns:xlink="http://www.w3.org/1999/xlink">
<g id="graph0" class="graph" transform="scale(1 1) rotate(0) translate(4 251)">
<title>alps_ros2_lib/include/alps_ros2</title>
<polygon fill="white" stroke="transparent" points="-4,4 -4,-251 472,-251 472,4 -4,4"/>
<g id="clust1" class="cluster">
<title>clusterdir_d90eac5d112df8937e227330719f4f85</title>
<g id="a_clust1"><a xlink:href="dir_d90eac5d112df8937e227330719f4f85.html" target="_top" xlink:title="include">
<polygon fill="#ddddee" stroke="black" points="8,-8 8,-239 358,-239 358,-8 8,-8"/>
<text text-anchor="middle" x="183" y="-227" font-family="Helvetica,sans-Serif" font-size="10.00">include</text>
</a>
</g>
</g>
<g id="clust2" class="cluster">
<title>clusterdir_c1e6a71faa0eb7f68193916a54ca9466</title>
<g id="a_clust2"><a xlink:href="dir_c1e6a71faa0eb7f68193916a54ca9466.html" target="_top">
<polygon fill="#eeeeff" stroke="black" points="16,-16 16,-212 350,-212 350,-16 16,-16"/>
</a>
</g>
</g>
<!-- dir_c1e6a71faa0eb7f68193916a54ca9466 -->
<g id="node1" class="node">
<title>dir_c1e6a71faa0eb7f68193916a54ca9466</title>
<text text-anchor="middle" x="310" y="-183.5" font-family="Helvetica,sans-Serif" font-size="10.00">alps_ros2</text>
</g>
<!-- dir_ed551a56b1c4fafaf4bd37570c44b109 -->
<g id="node2" class="node">
<title>dir_ed551a56b1c4fafaf4bd37570c44b109</title>
<g id="a_node2"><a xlink:href="dir_ed551a56b1c4fafaf4bd37570c44b109.html" target="_top" xlink:title="communication">
<polygon fill="white" stroke="black" points="188,-204 96,-204 96,-168 188,-168 188,-204"/>
<text text-anchor="middle" x="142" y="-183.5" font-family="Helvetica,sans-Serif" font-size="10.00">communication</text>
</a>
</g>
</g>
<!-- dir_1e33acc4717173d8afcf0a707a228d0f -->
<g id="node4" class="node">
<title>dir_1e33acc4717173d8afcf0a707a228d0f</title>
<g id="a_node4"><a xlink:href="dir_1e33acc4717173d8afcf0a707a228d0f.html" target="_top" xlink:title="type">
<polygon fill="white" stroke="black" points="215,-132 161,-132 161,-96 215,-96 215,-132"/>
<text text-anchor="middle" x="188" y="-111.5" font-family="Helvetica,sans-Serif" font-size="10.00">type</text>
</a>
</g>
</g>
<!-- dir_ed551a56b1c4fafaf4bd37570c44b109&#45;&gt;dir_1e33acc4717173d8afcf0a707a228d0f -->
<g id="edge4" class="edge">
<title>dir_ed551a56b1c4fafaf4bd37570c44b109&#45;&gt;dir_1e33acc4717173d8afcf0a707a228d0f</title>
<path fill="none" stroke="black" d="M153.37,-167.7C158.72,-159.56 165.2,-149.69 171.11,-140.7"/>
<polygon fill="black" stroke="black" points="174.19,-142.38 176.76,-132.1 168.34,-138.54 174.19,-142.38"/>
<g id="a_edge4&#45;headlabel"><a xlink:href="dir_000036_000037.html" target="_top" xlink:title="1">
<text text-anchor="middle" x="174.59" y="-144.45" font-family="Helvetica,sans-Serif" font-size="10.00">1</text>
</a>
</g>
</g>
<!-- dir_cf0d49a49a49da5399731e8fbf77790f -->
<g id="node6" class="node">
<title>dir_cf0d49a49a49da5399731e8fbf77790f</title>
<g id="a_node6"><a xlink:href="dir_cf0d49a49a49da5399731e8fbf77790f.html" target="_top" xlink:title="util">
<polygon fill="white" stroke="black" points="215,-60 161,-60 161,-24 215,-24 215,-60"/>
<text text-anchor="middle" x="188" y="-39.5" font-family="Helvetica,sans-Serif" font-size="10.00">util</text>
</a>
</g>
</g>
<!-- dir_ed551a56b1c4fafaf4bd37570c44b109&#45;&gt;dir_cf0d49a49a49da5399731e8fbf77790f -->
<g id="edge5" class="edge">
<title>dir_ed551a56b1c4fafaf4bd37570c44b109&#45;&gt;dir_cf0d49a49a49da5399731e8fbf77790f</title>
<path fill="none" stroke="black" d="M141.52,-167.71C141.56,-149.35 143.21,-119.77 152,-96 155.55,-86.4 161.2,-76.85 166.98,-68.56"/>
<polygon fill="black" stroke="black" points="169.86,-70.55 172.97,-60.42 164.23,-66.4 169.86,-70.55"/>
<g id="a_edge5&#45;headlabel"><a xlink:href="dir_000036_000039.html" target="_top" xlink:title="1">
<text text-anchor="middle" x="170.02" y="-72.63" font-family="Helvetica,sans-Serif" font-size="10.00">1</text>
</a>
</g>
</g>
<!-- dir_fcd1ba41f8679fcc7bf76d667eaa0e17 -->
<g id="node7" class="node">
<title>dir_fcd1ba41f8679fcc7bf76d667eaa0e17</title>
<g id="a_node7"><a xlink:href="dir_fcd1ba41f8679fcc7bf76d667eaa0e17.html" target="_top" xlink:title="alps_common_lib">
<polygon fill="white" stroke="red" points="468,-60 366,-60 366,-24 468,-24 468,-60"/>
<text text-anchor="middle" x="417" y="-39.5" font-family="Helvetica,sans-Serif" font-size="10.00">alps_common_lib</text>
</a>
</g>
</g>
<!-- dir_ed551a56b1c4fafaf4bd37570c44b109&#45;&gt;dir_fcd1ba41f8679fcc7bf76d667eaa0e17 -->
<g id="edge6" class="edge">
<title>dir_ed551a56b1c4fafaf4bd37570c44b109&#45;&gt;dir_fcd1ba41f8679fcc7bf76d667eaa0e17</title>
<path fill="none" stroke="black" d="M175.17,-167.87C225.14,-142.07 319.69,-93.25 374.6,-64.9"/>
<polygon fill="black" stroke="black" points="376.43,-67.89 383.71,-60.19 373.22,-61.67 376.43,-67.89"/>
<g id="a_edge6&#45;headlabel"><a xlink:href="dir_000036_000000.html" target="_top" xlink:title="2">
<text text-anchor="middle" x="374.54" y="-69.56" font-family="Helvetica,sans-Serif" font-size="10.00">2</text>
</a>
</g>
</g>
<!-- dir_df0890f898911121f5aab2c6fb7e4077 -->
<g id="node3" class="node">
<title>dir_df0890f898911121f5aab2c6fb7e4077</title>
<g id="a_node3"><a xlink:href="dir_df0890f898911121f5aab2c6fb7e4077.html" target="_top" xlink:title="log">
<polygon fill="white" stroke="black" points="260,-204 206,-204 206,-168 260,-168 260,-204"/>
<text text-anchor="middle" x="233" y="-183.5" font-family="Helvetica,sans-Serif" font-size="10.00">log</text>
</a>
</g>
</g>
<!-- dir_df0890f898911121f5aab2c6fb7e4077&#45;&gt;dir_fcd1ba41f8679fcc7bf76d667eaa0e17 -->
<g id="edge7" class="edge">
<title>dir_df0890f898911121f5aab2c6fb7e4077&#45;&gt;dir_fcd1ba41f8679fcc7bf76d667eaa0e17</title>
<path fill="none" stroke="black" d="M260.26,-171.57C279.17,-161.72 304.54,-147.42 325,-132 350.89,-112.49 377.16,-86.31 394.95,-67.4"/>
<polygon fill="black" stroke="black" points="397.56,-69.74 401.81,-60.03 392.43,-64.97 397.56,-69.74"/>
<g id="a_edge7&#45;headlabel"><a xlink:href="dir_000035_000000.html" target="_top" xlink:title="1">
<text text-anchor="middle" x="397.19" y="-71.81" font-family="Helvetica,sans-Serif" font-size="10.00">1</text>
</a>
</g>
</g>
<!-- dir_1e33acc4717173d8afcf0a707a228d0f&#45;&gt;dir_cf0d49a49a49da5399731e8fbf77790f -->
<g id="edge1" class="edge">
<title>dir_1e33acc4717173d8afcf0a707a228d0f&#45;&gt;dir_cf0d49a49a49da5399731e8fbf77790f</title>
<path fill="none" stroke="black" d="M182.08,-95.7C181.29,-87.98 181.06,-78.71 181.4,-70.11"/>
<polygon fill="black" stroke="black" points="184.9,-70.32 182.1,-60.1 177.92,-69.84 184.9,-70.32"/>
<g id="a_edge1&#45;headlabel"><a xlink:href="dir_000037_000039.html" target="_top" xlink:title="1">
<text text-anchor="middle" x="187.48" y="-71.61" font-family="Helvetica,sans-Serif" font-size="10.00">1</text>
</a>
</g>
</g>
<!-- dir_1e33acc4717173d8afcf0a707a228d0f&#45;&gt;dir_fcd1ba41f8679fcc7bf76d667eaa0e17 -->
<g id="edge2" class="edge">
<title>dir_1e33acc4717173d8afcf0a707a228d0f&#45;&gt;dir_fcd1ba41f8679fcc7bf76d667eaa0e17</title>
<path fill="none" stroke="black" d="M215.17,-104.7C249.61,-94.17 309.99,-75.71 355.77,-61.72"/>
<polygon fill="black" stroke="black" points="357.05,-64.99 365.59,-58.71 355,-58.29 357.05,-64.99"/>
<g id="a_edge2&#45;headlabel"><a xlink:href="dir_000037_000000.html" target="_top" xlink:title="6">
<text text-anchor="middle" x="354.44" y="-66.25" font-family="Helvetica,sans-Serif" font-size="10.00">6</text>
</a>
</g>
</g>
<!-- dir_1f337407fa66791c1f72ce9c082d3c68 -->
<g id="node5" class="node">
<title>dir_1f337407fa66791c1f72ce9c082d3c68</title>
<g id="a_node5"><a xlink:href="dir_1f337407fa66791c1f72ce9c082d3c68.html" target="_top" xlink:title="ui">
<polygon fill="white" stroke="black" points="78,-204 24,-204 24,-168 78,-168 78,-204"/>
<text text-anchor="middle" x="51" y="-183.5" font-family="Helvetica,sans-Serif" font-size="10.00">ui</text>
</a>
</g>
</g>
<!-- dir_cf0d49a49a49da5399731e8fbf77790f&#45;&gt;dir_1e33acc4717173d8afcf0a707a228d0f -->
<g id="edge3" class="edge">
<title>dir_cf0d49a49a49da5399731e8fbf77790f&#45;&gt;dir_1e33acc4717173d8afcf0a707a228d0f</title>
<path fill="none" stroke="black" d="M193.9,-60.1C194.7,-67.79 194.94,-77.05 194.6,-85.67"/>
<polygon fill="black" stroke="black" points="191.11,-85.48 193.92,-95.7 198.09,-85.96 191.11,-85.48"/>
<g id="a_edge3&#45;headlabel"><a xlink:href="dir_000039_000037.html" target="_top" xlink:title="1">
<text text-anchor="middle" x="188.52" y="-79.2" font-family="Helvetica,sans-Serif" font-size="10.00">1</text>
</a>
</g>
</g>
</g>
</svg>
