<?xml version="1.0" encoding="UTF-8" standalone="no"?>
<!DOCTYPE svg PUBLIC "-//W3C//DTD SVG 1.1//EN"
 "http://www.w3.org/Graphics/SVG/1.1/DTD/svg11.dtd">
<!-- Generated by graphviz version 2.43.0 (0)
 -->
<!-- Title: alps_common_lib/include/alps_cmn/control Pages: 1 -->
<svg width="273pt" height="133pt"
 viewBox="0.00 0.00 273.00 133.00" xmlns="http://www.w3.org/2000/svg" xmlns:xlink="http://www.w3.org/1999/xlink">
<g id="graph0" class="graph" transform="scale(1 1) rotate(0) translate(4 129)">
<title>alps_common_lib/include/alps_cmn/control</title>
<g id="clust1" class="cluster">
<title>clusterdir_cc648f72f51f156e42f9863c0e5bf5fb</title>
<g id="a_clust1"><a xlink:href="dir_cc648f72f51f156e42f9863c0e5bf5fb.html" target="_top" xlink:title="alps_cmn">
<polygon fill="#daedff" stroke="#7f7f7f" stroke-dasharray="5,2" points="8,-8 8,-117 257,-117 257,-8 8,-8"/>
<text text-anchor="middle" x="132.5" y="-105" font-family="Helvetica,sans-Serif" font-size="10.00">alps_cmn</text>
</a>
</g>
</g>
<!-- dir_1367935105ebc251618457953f8d2b80 -->
<g id="node1" class="node">
<title>dir_1367935105ebc251618457953f8d2b80</title>
<g id="a_node1"><a xlink:href="dir_1367935105ebc251618457953f8d2b80.html" target="_top" xlink:title="time">
<polygon fill="#4ea9ff" stroke="#404040" points="55.5,-35 16.5,-35 16.5,-16 55.5,-16 55.5,-35"/>
<text text-anchor="middle" x="36" y="-23" font-family="Helvetica,sans-Serif" font-size="10.00">time</text>
</a>
</g>
</g>
<!-- dir_2239b1117054295ada522fe6d99615b2 -->
<g id="node2" class="node">
<title>dir_2239b1117054295ada522fe6d99615b2</title>
<g id="a_node2"><a xlink:href="dir_2239b1117054295ada522fe6d99615b2.html" target="_top" xlink:title="actuator">
<polygon fill="#4ea9ff" stroke="#404040" points="130.5,-35 73.5,-35 73.5,-16 130.5,-16 130.5,-35"/>
<text text-anchor="middle" x="102" y="-23" font-family="Helvetica,sans-Serif" font-size="10.00">actuator</text>
</a>
</g>
</g>
<!-- dir_26247a4c7d21a73996b8a7832c1a1463 -->
<g id="node3" class="node">
<title>dir_26247a4c7d21a73996b8a7832c1a1463</title>
<g id="a_node3"><a xlink:href="dir_26247a4c7d21a73996b8a7832c1a1463.html" target="_top" xlink:title="util">
<polygon fill="#4ea9ff" stroke="#404040" points="181,-35 149,-35 149,-16 181,-16 181,-35"/>
<text text-anchor="middle" x="165" y="-23" font-family="Helvetica,sans-Serif" font-size="10.00">util</text>
</a>
</g>
</g>
<!-- dir_96320550a29baac38dc9eb0ae89f5e73 -->
<g id="node4" class="node">
<title>dir_96320550a29baac38dc9eb0ae89f5e73</title>
<g id="a_node4"><a xlink:href="dir_96320550a29baac38dc9eb0ae89f5e73.html" target="_top" xlink:title="sensor">
<polygon fill="#4ea9ff" stroke="#404040" points="248.5,-35 199.5,-35 199.5,-16 248.5,-16 248.5,-35"/>
<text text-anchor="middle" x="224" y="-23" font-family="Helvetica,sans-Serif" font-size="10.00">sensor</text>
</a>
</g>
</g>
<!-- dir_83658e075a4ab7b2cbb8779471289882 -->
<g id="node5" class="node">
<title>dir_83658e075a4ab7b2cbb8779471289882</title>
<g id="a_node5"><a xlink:href="dir_83658e075a4ab7b2cbb8779471289882.html" target="_top" xlink:title="control">
<polygon fill="#daedff" stroke="#404040" stroke-width="2" points="158,-90 108,-90 108,-71 158,-71 158,-90"/>
<text text-anchor="middle" x="133" y="-78" font-family="Helvetica,sans-Serif" font-size="10.00">control</text>
</a>
</g>
</g>
<!-- dir_83658e075a4ab7b2cbb8779471289882&#45;&gt;dir_1367935105ebc251618457953f8d2b80 -->
<g id="edge1" class="edge">
<title>dir_83658e075a4ab7b2cbb8779471289882&#45;&gt;dir_1367935105ebc251618457953f8d2b80</title>
<path fill="none" stroke="#63b8ff" d="M117.42,-70.98C102.23,-62.69 78.9,-49.94 61.1,-40.22"/>
<polygon fill="#63b8ff" stroke="#63b8ff" points="62.32,-36.89 51.87,-35.17 58.97,-43.04 62.32,-36.89"/>
<g id="a_edge1&#45;headlabel"><a xlink:href="dir_000018_000033.html" target="_top" xlink:title="4">
<text text-anchor="middle" x="66.84" y="-33.63" font-family="Helvetica,sans-Serif" font-size="10.00" fill="#63b8ff">4</text>
</a>
</g>
</g>
<!-- dir_83658e075a4ab7b2cbb8779471289882&#45;&gt;dir_2239b1117054295ada522fe6d99615b2 -->
<g id="edge2" class="edge">
<title>dir_83658e075a4ab7b2cbb8779471289882&#45;&gt;dir_2239b1117054295ada522fe6d99615b2</title>
<path fill="none" stroke="#63b8ff" d="M127.88,-70.75C123.64,-63.49 117.47,-52.95 112.22,-43.98"/>
<polygon fill="#63b8ff" stroke="#63b8ff" points="115.09,-41.95 107.02,-35.09 109.05,-45.49 115.09,-41.95"/>
<g id="a_edge2&#45;headlabel"><a xlink:href="dir_000018_000000.html" target="_top" xlink:title="4">
<text text-anchor="middle" x="119.36" y="-41.12" font-family="Helvetica,sans-Serif" font-size="10.00" fill="#63b8ff">4</text>
</a>
</g>
</g>
<!-- dir_83658e075a4ab7b2cbb8779471289882&#45;&gt;dir_26247a4c7d21a73996b8a7832c1a1463 -->
<g id="edge3" class="edge">
<title>dir_83658e075a4ab7b2cbb8779471289882&#45;&gt;dir_26247a4c7d21a73996b8a7832c1a1463</title>
<path fill="none" stroke="#63b8ff" d="M138.28,-70.75C142.71,-63.42 149.16,-52.73 154.62,-43.7"/>
<polygon fill="#63b8ff" stroke="#63b8ff" points="157.64,-45.46 159.81,-35.09 151.65,-41.84 157.64,-45.46"/>
<g id="a_edge3&#45;headlabel"><a xlink:href="dir_000018_000036.html" target="_top" xlink:title="2">
<text text-anchor="middle" x="158.21" y="-47.5" font-family="Helvetica,sans-Serif" font-size="10.00" fill="#63b8ff">2</text>
</a>
</g>
</g>
<!-- dir_83658e075a4ab7b2cbb8779471289882&#45;&gt;dir_96320550a29baac38dc9eb0ae89f5e73 -->
<g id="edge4" class="edge">
<title>dir_83658e075a4ab7b2cbb8779471289882&#45;&gt;dir_96320550a29baac38dc9eb0ae89f5e73</title>
<path fill="none" stroke="#63b8ff" d="M147.62,-70.98C161.86,-62.69 183.75,-49.94 200.45,-40.22"/>
<polygon fill="#63b8ff" stroke="#63b8ff" points="202.23,-43.23 209.11,-35.17 198.71,-37.18 202.23,-43.23"/>
<g id="a_edge4&#45;headlabel"><a xlink:href="dir_000018_000031.html" target="_top" xlink:title="4">
<text text-anchor="middle" x="200.56" y="-44.99" font-family="Helvetica,sans-Serif" font-size="10.00" fill="#63b8ff">4</text>
</a>
</g>
</g>
</g>
</svg>
