<?xml version="1.0" encoding="UTF-8" standalone="no"?>
<!DOCTYPE svg PUBLIC "-//W3C//DTD SVG 1.1//EN"
 "http://www.w3.org/Graphics/SVG/1.1/DTD/svg11.dtd">
<!-- Generated by graphviz version 2.43.0 (0)
 -->
<!-- Title: alps_common_lib/include/alps_cmn Pages: 1 -->
<svg width="300pt" height="327pt"
 viewBox="0.00 0.00 300.00 327.00" xmlns="http://www.w3.org/2000/svg" xmlns:xlink="http://www.w3.org/1999/xlink">
<g id="graph0" class="graph" transform="scale(1 1) rotate(0) translate(4 323)">
<title>alps_common_lib/include/alps_cmn</title>
<polygon fill="white" stroke="transparent" points="-4,4 -4,-323 296,-323 296,4 -4,4"/>
<g id="clust1" class="cluster">
<title>clusterdir_ce1e71e2103ac83e6d6cc720a9feeeb7</title>
<g id="a_clust1"><a xlink:href="dir_ce1e71e2103ac83e6d6cc720a9feeeb7.html" target="_top" xlink:title="include">
<polygon fill="#ddddee" stroke="black" points="8,-8 8,-311 284,-311 284,-8 8,-8"/>
<text text-anchor="middle" x="146" y="-299" font-family="Helvetica,sans-Serif" font-size="10.00">include</text>
</a>
</g>
</g>
<g id="clust2" class="cluster">
<title>clusterdir_cc648f72f51f156e42f9863c0e5bf5fb</title>
<g id="a_clust2"><a xlink:href="dir_cc648f72f51f156e42f9863c0e5bf5fb.html" target="_top">
<polygon fill="#eeeeff" stroke="black" points="16,-16 16,-284 276,-284 276,-16 16,-16"/>
</a>
</g>
</g>
<!-- dir_cc648f72f51f156e42f9863c0e5bf5fb -->
<g id="node1" class="node">
<title>dir_cc648f72f51f156e42f9863c0e5bf5fb</title>
<text text-anchor="middle" x="235" y="-255.5" font-family="Helvetica,sans-Serif" font-size="10.00">alps_cmn</text>
</g>
<!-- dir_2239b1117054295ada522fe6d99615b2 -->
<g id="node2" class="node">
<title>dir_2239b1117054295ada522fe6d99615b2</title>
<g id="a_node2"><a xlink:href="dir_2239b1117054295ada522fe6d99615b2.html" target="_top" xlink:title="actuator">
<polygon fill="white" stroke="black" points="184.5,-276 127.5,-276 127.5,-240 184.5,-240 184.5,-276"/>
<text text-anchor="middle" x="156" y="-255.5" font-family="Helvetica,sans-Serif" font-size="10.00">actuator</text>
</a>
</g>
</g>
<!-- dir_76fd7680a09542374d3e212281ba6ee2 -->
<g id="node3" class="node">
<title>dir_76fd7680a09542374d3e212281ba6ee2</title>
<g id="a_node3"><a xlink:href="dir_76fd7680a09542374d3e212281ba6ee2.html" target="_top" xlink:title="communication">
<polygon fill="white" stroke="black" points="116,-204 24,-204 24,-168 116,-168 116,-204"/>
<text text-anchor="middle" x="70" y="-183.5" font-family="Helvetica,sans-Serif" font-size="10.00">communication</text>
</a>
</g>
</g>
<!-- dir_2239b1117054295ada522fe6d99615b2&#45;&gt;dir_76fd7680a09542374d3e212281ba6ee2 -->
<g id="edge3" class="edge">
<title>dir_2239b1117054295ada522fe6d99615b2&#45;&gt;dir_76fd7680a09542374d3e212281ba6ee2</title>
<path fill="none" stroke="black" d="M134.74,-239.7C123.91,-230.88 110.58,-220.03 98.84,-210.47"/>
<polygon fill="black" stroke="black" points="100.98,-207.7 91.01,-204.1 96.56,-213.13 100.98,-207.7"/>
<g id="a_edge3&#45;headlabel"><a xlink:href="dir_000003_000008.html" target="_top" xlink:title="2">
<text text-anchor="middle" x="105.56" y="-205.27" font-family="Helvetica,sans-Serif" font-size="10.00">2</text>
</a>
</g>
</g>
<!-- dir_7913872ef1e9131c7a4facddec50fb6b -->
<g id="node5" class="node">
<title>dir_7913872ef1e9131c7a4facddec50fb6b</title>
<g id="a_node5"><a xlink:href="dir_7913872ef1e9131c7a4facddec50fb6b.html" target="_top" xlink:title="gpio">
<polygon fill="white" stroke="black" points="104,-132 50,-132 50,-96 104,-96 104,-132"/>
<text text-anchor="middle" x="77" y="-111.5" font-family="Helvetica,sans-Serif" font-size="10.00">gpio</text>
</a>
</g>
</g>
<!-- dir_2239b1117054295ada522fe6d99615b2&#45;&gt;dir_7913872ef1e9131c7a4facddec50fb6b -->
<g id="edge4" class="edge">
<title>dir_2239b1117054295ada522fe6d99615b2&#45;&gt;dir_7913872ef1e9131c7a4facddec50fb6b</title>
<path fill="none" stroke="black" d="M152.17,-239.72C147.56,-221.11 138.69,-191.08 125,-168 118.99,-157.86 110.83,-147.96 102.95,-139.5"/>
<polygon fill="black" stroke="black" points="105.33,-136.93 95.86,-132.18 100.3,-141.8 105.33,-136.93"/>
<g id="a_edge4&#45;headlabel"><a xlink:href="dir_000003_000010.html" target="_top" xlink:title="3">
<text text-anchor="middle" x="109.87" y="-135.04" font-family="Helvetica,sans-Serif" font-size="10.00">3</text>
</a>
</g>
</g>
<!-- dir_563ed2d29ef623953b20c0f9d2e12d2d -->
<g id="node6" class="node">
<title>dir_563ed2d29ef623953b20c0f9d2e12d2d</title>
<g id="a_node6"><a xlink:href="dir_563ed2d29ef623953b20c0f9d2e12d2d.html" target="_top" xlink:title="math">
<polygon fill="white" stroke="black" points="176,-132 122,-132 122,-96 176,-96 176,-132"/>
<text text-anchor="middle" x="149" y="-111.5" font-family="Helvetica,sans-Serif" font-size="10.00">math</text>
</a>
</g>
</g>
<!-- dir_2239b1117054295ada522fe6d99615b2&#45;&gt;dir_563ed2d29ef623953b20c0f9d2e12d2d -->
<g id="edge2" class="edge">
<title>dir_2239b1117054295ada522fe6d99615b2&#45;&gt;dir_563ed2d29ef623953b20c0f9d2e12d2d</title>
<path fill="none" stroke="black" d="M155.16,-239.87C153.96,-215.67 151.77,-171.21 150.35,-142.39"/>
<polygon fill="black" stroke="black" points="153.84,-142 149.85,-132.19 146.84,-142.35 153.84,-142"/>
<g id="a_edge2&#45;headlabel"><a xlink:href="dir_000003_000011.html" target="_top" xlink:title="1">
<text text-anchor="middle" x="156.85" y="-142.96" font-family="Helvetica,sans-Serif" font-size="10.00">1</text>
</a>
</g>
</g>
<!-- dir_96320550a29baac38dc9eb0ae89f5e73 -->
<g id="node7" class="node">
<title>dir_96320550a29baac38dc9eb0ae89f5e73</title>
<g id="a_node7"><a xlink:href="dir_96320550a29baac38dc9eb0ae89f5e73.html" target="_top" xlink:title="sensor">
<polygon fill="white" stroke="black" points="228,-204 174,-204 174,-168 228,-168 228,-204"/>
<text text-anchor="middle" x="201" y="-183.5" font-family="Helvetica,sans-Serif" font-size="10.00">sensor</text>
</a>
</g>
</g>
<!-- dir_2239b1117054295ada522fe6d99615b2&#45;&gt;dir_96320550a29baac38dc9eb0ae89f5e73 -->
<g id="edge5" class="edge">
<title>dir_2239b1117054295ada522fe6d99615b2&#45;&gt;dir_96320550a29baac38dc9eb0ae89f5e73</title>
<path fill="none" stroke="black" d="M167.12,-239.7C172.36,-231.56 178.7,-221.69 184.48,-212.7"/>
<polygon fill="black" stroke="black" points="187.54,-214.41 190,-204.1 181.65,-210.62 187.54,-214.41"/>
<g id="a_edge5&#45;headlabel"><a xlink:href="dir_000003_000024.html" target="_top" xlink:title="1">
<text text-anchor="middle" x="187.99" y="-216.47" font-family="Helvetica,sans-Serif" font-size="10.00">1</text>
</a>
</g>
</g>
<!-- dir_26247a4c7d21a73996b8a7832c1a1463 -->
<g id="node9" class="node">
<title>dir_26247a4c7d21a73996b8a7832c1a1463</title>
<g id="a_node9"><a xlink:href="dir_26247a4c7d21a73996b8a7832c1a1463.html" target="_top" xlink:title="util">
<polygon fill="white" stroke="black" points="258,-60 204,-60 204,-24 258,-24 258,-60"/>
<text text-anchor="middle" x="231" y="-39.5" font-family="Helvetica,sans-Serif" font-size="10.00">util</text>
</a>
</g>
</g>
<!-- dir_2239b1117054295ada522fe6d99615b2&#45;&gt;dir_26247a4c7d21a73996b8a7832c1a1463 -->
<g id="edge1" class="edge">
<title>dir_2239b1117054295ada522fe6d99615b2&#45;&gt;dir_26247a4c7d21a73996b8a7832c1a1463</title>
<path fill="none" stroke="black" d="M184.86,-242.93C207.5,-231.32 236.41,-215.01 244,-204 271.44,-164.2 267.93,-143.09 257,-96 254.9,-86.96 251.03,-77.68 246.91,-69.47"/>
<polygon fill="black" stroke="black" points="249.86,-67.55 242.05,-60.39 243.69,-70.86 249.86,-67.55"/>
<g id="a_edge1&#45;headlabel"><a xlink:href="dir_000003_000027.html" target="_top" xlink:title="2">
<text text-anchor="middle" x="254.06" y="-66.88" font-family="Helvetica,sans-Serif" font-size="10.00">2</text>
</a>
</g>
</g>
<!-- dir_83658e075a4ab7b2cbb8779471289882 -->
<g id="node4" class="node">
<title>dir_83658e075a4ab7b2cbb8779471289882</title>
<g id="a_node4"><a xlink:href="dir_83658e075a4ab7b2cbb8779471289882.html" target="_top" xlink:title="control">
<polygon fill="white" stroke="black" points="248,-132 194,-132 194,-96 248,-96 248,-132"/>
<text text-anchor="middle" x="221" y="-111.5" font-family="Helvetica,sans-Serif" font-size="10.00">control</text>
</a>
</g>
</g>
<!-- dir_83658e075a4ab7b2cbb8779471289882&#45;&gt;dir_2239b1117054295ada522fe6d99615b2 -->
<g id="edge6" class="edge">
<title>dir_83658e075a4ab7b2cbb8779471289882&#45;&gt;dir_2239b1117054295ada522fe6d99615b2</title>
<path fill="none" stroke="black" d="M230.3,-132.11C239.11,-150.83 249.32,-181.21 237,-204 231.96,-213.32 212.25,-226.31 193.54,-237.09"/>
<polygon fill="black" stroke="black" points="191.77,-234.07 184.78,-242.03 195.21,-240.17 191.77,-234.07"/>
<g id="a_edge6&#45;headlabel"><a xlink:href="dir_000009_000003.html" target="_top" xlink:title="3">
<text text-anchor="middle" x="193.51" y="-227.33" font-family="Helvetica,sans-Serif" font-size="10.00">3</text>
</a>
</g>
</g>
<!-- dir_83658e075a4ab7b2cbb8779471289882&#45;&gt;dir_96320550a29baac38dc9eb0ae89f5e73 -->
<g id="edge8" class="edge">
<title>dir_83658e075a4ab7b2cbb8779471289882&#45;&gt;dir_96320550a29baac38dc9eb0ae89f5e73</title>
<path fill="none" stroke="black" d="M222.01,-132.1C220.59,-139.96 218.1,-149.46 215.23,-158.23"/>
<polygon fill="black" stroke="black" points="211.92,-157.1 211.86,-167.7 218.51,-159.45 211.92,-157.1"/>
<g id="a_edge8&#45;headlabel"><a xlink:href="dir_000009_000024.html" target="_top" xlink:title="3">
<text text-anchor="middle" x="210.45" y="-150.26" font-family="Helvetica,sans-Serif" font-size="10.00">3</text>
</a>
</g>
</g>
<!-- dir_83658e075a4ab7b2cbb8779471289882&#45;&gt;dir_26247a4c7d21a73996b8a7832c1a1463 -->
<g id="edge7" class="edge">
<title>dir_83658e075a4ab7b2cbb8779471289882&#45;&gt;dir_26247a4c7d21a73996b8a7832c1a1463</title>
<path fill="none" stroke="black" d="M223.47,-95.7C224.57,-87.98 225.9,-78.71 227.13,-70.11"/>
<polygon fill="black" stroke="black" points="230.61,-70.5 228.56,-60.1 223.68,-69.51 230.61,-70.5"/>
<g id="a_edge7&#45;headlabel"><a xlink:href="dir_000009_000027.html" target="_top" xlink:title="2">
<text text-anchor="middle" x="232.91" y="-71.96" font-family="Helvetica,sans-Serif" font-size="10.00">2</text>
</a>
</g>
</g>
<!-- dir_96320550a29baac38dc9eb0ae89f5e73&#45;&gt;dir_83658e075a4ab7b2cbb8779471289882 -->
<g id="edge11" class="edge">
<title>dir_96320550a29baac38dc9eb0ae89f5e73&#45;&gt;dir_83658e075a4ab7b2cbb8779471289882</title>
<path fill="none" stroke="black" d="M200.03,-167.7C201.47,-159.81 203.97,-150.3 206.84,-141.55"/>
<polygon fill="black" stroke="black" points="210.15,-142.7 210.22,-132.1 203.56,-140.34 210.15,-142.7"/>
<g id="a_edge11&#45;headlabel"><a xlink:href="dir_000024_000009.html" target="_top" xlink:title="1">
<text text-anchor="middle" x="211.61" y="-144.54" font-family="Helvetica,sans-Serif" font-size="10.00">1</text>
</a>
</g>
</g>
<!-- dir_96320550a29baac38dc9eb0ae89f5e73&#45;&gt;dir_7913872ef1e9131c7a4facddec50fb6b -->
<g id="edge10" class="edge">
<title>dir_96320550a29baac38dc9eb0ae89f5e73&#45;&gt;dir_7913872ef1e9131c7a4facddec50fb6b</title>
<path fill="none" stroke="black" d="M173.79,-169.64C155.94,-159.56 132.4,-146.28 113.01,-135.33"/>
<polygon fill="black" stroke="black" points="114.58,-132.19 104.15,-130.33 111.14,-138.29 114.58,-132.19"/>
<g id="a_edge10&#45;headlabel"><a xlink:href="dir_000024_000010.html" target="_top" xlink:title="3">
<text text-anchor="middle" x="119.1" y="-128.99" font-family="Helvetica,sans-Serif" font-size="10.00">3</text>
</a>
</g>
</g>
<!-- dir_96320550a29baac38dc9eb0ae89f5e73&#45;&gt;dir_563ed2d29ef623953b20c0f9d2e12d2d -->
<g id="edge9" class="edge">
<title>dir_96320550a29baac38dc9eb0ae89f5e73&#45;&gt;dir_563ed2d29ef623953b20c0f9d2e12d2d</title>
<path fill="none" stroke="black" d="M188.15,-167.7C181.97,-159.39 174.46,-149.28 167.68,-140.14"/>
<polygon fill="black" stroke="black" points="170.48,-138.04 161.71,-132.1 164.86,-142.22 170.48,-138.04"/>
<g id="a_edge9&#45;headlabel"><a xlink:href="dir_000024_000011.html" target="_top" xlink:title="1">
<text text-anchor="middle" x="174.9" y="-136.74" font-family="Helvetica,sans-Serif" font-size="10.00">1</text>
</a>
</g>
</g>
<!-- dir_1367935105ebc251618457953f8d2b80 -->
<g id="node8" class="node">
<title>dir_1367935105ebc251618457953f8d2b80</title>
<g id="a_node8"><a xlink:href="dir_1367935105ebc251618457953f8d2b80.html" target="_top" xlink:title="time">
<polygon fill="white" stroke="black" points="94,-276 40,-276 40,-240 94,-240 94,-276"/>
<text text-anchor="middle" x="67" y="-255.5" font-family="Helvetica,sans-Serif" font-size="10.00">time</text>
</a>
</g>
</g>
</g>
</svg>
