<?xml version="1.0" encoding="UTF-8" standalone="no"?>
<!DOCTYPE svg PUBLIC "-//W3C//DTD SVG 1.1//EN"
 "http://www.w3.org/Graphics/SVG/1.1/DTD/svg11.dtd">
<!-- Generated by graphviz version 2.43.0 (0)
 -->
<!-- Title: alps_common_lib/include/alps_cmn/actuator Pages: 1 -->
<svg width="366pt" height="133pt"
 viewBox="0.00 0.00 366.00 133.00" xmlns="http://www.w3.org/2000/svg" xmlns:xlink="http://www.w3.org/1999/xlink">
<g id="graph0" class="graph" transform="scale(1 1) rotate(0) translate(4 129)">
<title>alps_common_lib/include/alps_cmn/actuator</title>
<g id="clust1" class="cluster">
<title>clusterdir_cc648f72f51f156e42f9863c0e5bf5fb</title>
<g id="a_clust1"><a xlink:href="dir_cc648f72f51f156e42f9863c0e5bf5fb.html" target="_top" xlink:title="alps_cmn">
<polygon fill="#daedff" stroke="#7f7f7f" stroke-dasharray="5,2" points="8,-8 8,-117 350,-117 350,-8 8,-8"/>
<text text-anchor="middle" x="179" y="-105" font-family="Helvetica,sans-Serif" font-size="10.00">alps_cmn</text>
</a>
</g>
</g>
<!-- dir_26247a4c7d21a73996b8a7832c1a1463 -->
<g id="node1" class="node">
<title>dir_26247a4c7d21a73996b8a7832c1a1463</title>
<g id="a_node1"><a xlink:href="dir_26247a4c7d21a73996b8a7832c1a1463.html" target="_top" xlink:title="util">
<polygon fill="#4ea9ff" stroke="#404040" points="48,-35 16,-35 16,-16 48,-16 48,-35"/>
<text text-anchor="middle" x="32" y="-23" font-family="Helvetica,sans-Serif" font-size="10.00">util</text>
</a>
</g>
</g>
<!-- dir_563ed2d29ef623953b20c0f9d2e12d2d -->
<g id="node2" class="node">
<title>dir_563ed2d29ef623953b20c0f9d2e12d2d</title>
<g id="a_node2"><a xlink:href="dir_563ed2d29ef623953b20c0f9d2e12d2d.html" target="_top" xlink:title="math">
<polygon fill="#4ea9ff" stroke="#404040" points="108,-35 66,-35 66,-16 108,-16 108,-35"/>
<text text-anchor="middle" x="87" y="-23" font-family="Helvetica,sans-Serif" font-size="10.00">math</text>
</a>
</g>
</g>
<!-- dir_76fd7680a09542374d3e212281ba6ee2 -->
<g id="node3" class="node">
<title>dir_76fd7680a09542374d3e212281ba6ee2</title>
<g id="a_node3"><a xlink:href="dir_76fd7680a09542374d3e212281ba6ee2.html" target="_top" xlink:title="communication">
<polygon fill="#4ea9ff" stroke="#404040" points="218,-35 126,-35 126,-16 218,-16 218,-35"/>
<text text-anchor="middle" x="172" y="-23" font-family="Helvetica,sans-Serif" font-size="10.00">communication</text>
</a>
</g>
</g>
<!-- dir_7913872ef1e9131c7a4facddec50fb6b -->
<g id="node4" class="node">
<title>dir_7913872ef1e9131c7a4facddec50fb6b</title>
<g id="a_node4"><a xlink:href="dir_7913872ef1e9131c7a4facddec50fb6b.html" target="_top" xlink:title="gpio">
<polygon fill="#4ea9ff" stroke="#404040" points="274,-35 236,-35 236,-16 274,-16 274,-35"/>
<text text-anchor="middle" x="255" y="-23" font-family="Helvetica,sans-Serif" font-size="10.00">gpio</text>
</a>
</g>
</g>
<!-- dir_96320550a29baac38dc9eb0ae89f5e73 -->
<g id="node5" class="node">
<title>dir_96320550a29baac38dc9eb0ae89f5e73</title>
<g id="a_node5"><a xlink:href="dir_96320550a29baac38dc9eb0ae89f5e73.html" target="_top" xlink:title="sensor">
<polygon fill="#4ea9ff" stroke="#404040" points="341.5,-35 292.5,-35 292.5,-16 341.5,-16 341.5,-35"/>
<text text-anchor="middle" x="317" y="-23" font-family="Helvetica,sans-Serif" font-size="10.00">sensor</text>
</a>
</g>
</g>
<!-- dir_2239b1117054295ada522fe6d99615b2 -->
<g id="node6" class="node">
<title>dir_2239b1117054295ada522fe6d99615b2</title>
<g id="a_node6"><a xlink:href="dir_2239b1117054295ada522fe6d99615b2.html" target="_top" xlink:title="actuator">
<polygon fill="#daedff" stroke="#404040" stroke-width="2" points="200.5,-90 143.5,-90 143.5,-71 200.5,-71 200.5,-90"/>
<text text-anchor="middle" x="172" y="-78" font-family="Helvetica,sans-Serif" font-size="10.00">actuator</text>
</a>
</g>
</g>
<!-- dir_2239b1117054295ada522fe6d99615b2&#45;&gt;dir_26247a4c7d21a73996b8a7832c1a1463 -->
<g id="edge1" class="edge">
<title>dir_2239b1117054295ada522fe6d99615b2&#45;&gt;dir_26247a4c7d21a73996b8a7832c1a1463</title>
<path fill="none" stroke="#63b8ff" d="M149.51,-70.98C124.53,-61.53 84.28,-46.29 57.98,-36.34"/>
<polygon fill="#63b8ff" stroke="#63b8ff" points="58.91,-32.94 48.31,-32.68 56.43,-39.49 58.91,-32.94"/>
<g id="a_edge1&#45;headlabel"><a xlink:href="dir_000000_000029.html" target="_top" xlink:title="2">
<text text-anchor="middle" x="63.27" y="-29.06" font-family="Helvetica,sans-Serif" font-size="10.00" fill="#63b8ff">2</text>
</a>
</g>
</g>
<!-- dir_2239b1117054295ada522fe6d99615b2&#45;&gt;dir_563ed2d29ef623953b20c0f9d2e12d2d -->
<g id="edge2" class="edge">
<title>dir_2239b1117054295ada522fe6d99615b2&#45;&gt;dir_563ed2d29ef623953b20c0f9d2e12d2d</title>
<path fill="none" stroke="#63b8ff" d="M158.34,-70.98C145.16,-62.77 124.97,-50.18 109.43,-40.49"/>
<polygon fill="#63b8ff" stroke="#63b8ff" points="111.24,-37.49 100.91,-35.17 107.54,-43.43 111.24,-37.49"/>
<g id="a_edge2&#45;headlabel"><a xlink:href="dir_000000_000026.html" target="_top" xlink:title="1">
<text text-anchor="middle" x="115.8" y="-34.48" font-family="Helvetica,sans-Serif" font-size="10.00" fill="#63b8ff">1</text>
</a>
</g>
</g>
<!-- dir_2239b1117054295ada522fe6d99615b2&#45;&gt;dir_76fd7680a09542374d3e212281ba6ee2 -->
<g id="edge3" class="edge">
<title>dir_2239b1117054295ada522fe6d99615b2&#45;&gt;dir_76fd7680a09542374d3e212281ba6ee2</title>
<path fill="none" stroke="#63b8ff" d="M172,-70.75C172,-63.8 172,-53.85 172,-45.13"/>
<polygon fill="#63b8ff" stroke="#63b8ff" points="175.5,-45.09 172,-35.09 168.5,-45.09 175.5,-45.09"/>
<g id="a_edge3&#45;headlabel"><a xlink:href="dir_000000_000014.html" target="_top" xlink:title="2">
<text text-anchor="middle" x="178.34" y="-46.18" font-family="Helvetica,sans-Serif" font-size="10.00" fill="#63b8ff">2</text>
</a>
</g>
</g>
<!-- dir_2239b1117054295ada522fe6d99615b2&#45;&gt;dir_7913872ef1e9131c7a4facddec50fb6b -->
<g id="edge4" class="edge">
<title>dir_2239b1117054295ada522fe6d99615b2&#45;&gt;dir_7913872ef1e9131c7a4facddec50fb6b</title>
<path fill="none" stroke="#63b8ff" d="M185.34,-70.98C198.09,-62.84 217.55,-50.41 232.67,-40.76"/>
<polygon fill="#63b8ff" stroke="#63b8ff" points="234.88,-43.5 241.42,-35.17 231.11,-37.6 234.88,-43.5"/>
<g id="a_edge4&#45;headlabel"><a xlink:href="dir_000000_000018.html" target="_top" xlink:title="3">
<text text-anchor="middle" x="233.38" y="-45.33" font-family="Helvetica,sans-Serif" font-size="10.00" fill="#63b8ff">3</text>
</a>
</g>
</g>
<!-- dir_2239b1117054295ada522fe6d99615b2&#45;&gt;dir_96320550a29baac38dc9eb0ae89f5e73 -->
<g id="edge5" class="edge">
<title>dir_2239b1117054295ada522fe6d99615b2&#45;&gt;dir_96320550a29baac38dc9eb0ae89f5e73</title>
<path fill="none" stroke="#63b8ff" d="M195.3,-70.98C219.25,-62.23 256.78,-48.51 283.83,-38.62"/>
<polygon fill="#63b8ff" stroke="#63b8ff" points="285.09,-41.89 293.28,-35.17 282.69,-35.32 285.09,-41.89"/>
<g id="a_edge5&#45;headlabel"><a xlink:href="dir_000000_000027.html" target="_top" xlink:title="1">
<text text-anchor="middle" x="282.69" y="-43.29" font-family="Helvetica,sans-Serif" font-size="10.00" fill="#63b8ff">1</text>
</a>
</g>
</g>
</g>
</svg>
