<?xml version="1.0" encoding="UTF-8" standalone="no"?>
<!DOCTYPE svg PUBLIC "-//W3C//DTD SVG 1.1//EN"
 "http://www.w3.org/Graphics/SVG/1.1/DTD/svg11.dtd">
<!-- Generated by graphviz version 2.43.0 (0)
 -->
<!-- Title: alps_core/lib_internal/alps_common_lib/include/alps_cmn/actuator Pages: 1 -->
<svg width="368pt" height="383pt"
 viewBox="0.00 0.00 368.00 383.00" xmlns="http://www.w3.org/2000/svg" xmlns:xlink="http://www.w3.org/1999/xlink">
<g id="graph0" class="graph" transform="scale(1 1) rotate(0) translate(4 379)">
<title>alps_core/lib_internal/alps_common_lib/include/alps_cmn/actuator</title>
<polygon fill="white" stroke="transparent" points="-4,4 -4,-379 364,-379 364,4 -4,4"/>
<g id="clust1" class="cluster">
<title>clusterdir_664123f27b70b10eeac81c10039fb160</title>
<g id="a_clust1"><a xlink:href="dir_664123f27b70b10eeac81c10039fb160.html" target="_top" xlink:title="alps_cmn">
<polygon fill="#ddddee" stroke="black" points="8,-8 8,-367 352,-367 352,-8 8,-8"/>
<text text-anchor="middle" x="180" y="-355" font-family="Helvetica,sans-Serif" font-size="10.00">alps_cmn</text>
</a>
</g>
</g>
<!-- dir_1585cb1296de2c4dde76500afa886952 -->
<g id="node1" class="node">
<title>dir_1585cb1296de2c4dde76500afa886952</title>
<g id="a_node1"><a xlink:href="dir_1585cb1296de2c4dde76500afa886952.html" target="_top" xlink:title="sensor">
<polygon fill="none" stroke="black" points="266,-340 212,-340 212,-304 266,-304 266,-340"/>
<text text-anchor="middle" x="239" y="-319.5" font-family="Helvetica,sans-Serif" font-size="10.00">sensor</text>
</a>
</g>
</g>
<!-- dir_232aac153d804cfbbc85dc0a0fa07463 -->
<g id="node2" class="node">
<title>dir_232aac153d804cfbbc85dc0a0fa07463</title>
<g id="a_node2"><a xlink:href="dir_232aac153d804cfbbc85dc0a0fa07463.html" target="_top" xlink:title="util">
<polygon fill="none" stroke="black" points="344,-124 290,-124 290,-88 344,-88 344,-124"/>
<text text-anchor="middle" x="317" y="-103.5" font-family="Helvetica,sans-Serif" font-size="10.00">util</text>
</a>
</g>
</g>
<!-- dir_1585cb1296de2c4dde76500afa886952&#45;&gt;dir_232aac153d804cfbbc85dc0a0fa07463 -->
<g id="edge12" class="edge">
<title>dir_1585cb1296de2c4dde76500afa886952&#45;&gt;dir_232aac153d804cfbbc85dc0a0fa07463</title>
<path fill="none" stroke="black" d="M256.43,-303.82C265.35,-294.09 275.64,-281.24 282,-268 303.03,-224.22 311.56,-167.68 314.92,-134.58"/>
<polygon fill="black" stroke="black" points="318.44,-134.58 315.87,-124.3 311.47,-133.93 318.44,-134.58"/>
<g id="a_edge12&#45;headlabel"><a xlink:href="dir_000027_000032.html" target="_top" xlink:title="2">
<text text-anchor="middle" x="320.93" y="-135.92" font-family="Helvetica,sans-Serif" font-size="10.00">2</text>
</a>
</g>
</g>
<!-- dir_5bbbaec82e60c1c95ef5795854749336 -->
<g id="node3" class="node">
<title>dir_5bbbaec82e60c1c95ef5795854749336</title>
<g id="a_node3"><a xlink:href="dir_5bbbaec82e60c1c95ef5795854749336.html" target="_top" xlink:title="communication">
<polygon fill="none" stroke="black" points="180,-124 88,-124 88,-88 180,-88 180,-124"/>
<text text-anchor="middle" x="134" y="-103.5" font-family="Helvetica,sans-Serif" font-size="10.00">communication</text>
</a>
</g>
</g>
<!-- dir_1585cb1296de2c4dde76500afa886952&#45;&gt;dir_5bbbaec82e60c1c95ef5795854749336 -->
<g id="edge13" class="edge">
<title>dir_1585cb1296de2c4dde76500afa886952&#45;&gt;dir_5bbbaec82e60c1c95ef5795854749336</title>
<path fill="none" stroke="black" d="M221.44,-303.96C211.9,-294.07 200.39,-281.03 192,-268 164.43,-225.17 147.78,-167.5 139.78,-134.07"/>
<polygon fill="black" stroke="black" points="143.14,-133.08 137.49,-124.12 136.32,-134.65 143.14,-133.08"/>
<g id="a_edge13&#45;headlabel"><a xlink:href="dir_000027_000010.html" target="_top" xlink:title="4">
<text text-anchor="middle" x="146.72" y="-133.44" font-family="Helvetica,sans-Serif" font-size="10.00">4</text>
</a>
</g>
</g>
<!-- dir_93f5cc57b76a8a4cabb5571679917938 -->
<g id="node4" class="node">
<title>dir_93f5cc57b76a8a4cabb5571679917938</title>
<g id="a_node4"><a xlink:href="dir_93f5cc57b76a8a4cabb5571679917938.html" target="_top" xlink:title="gpio">
<polygon fill="none" stroke="black" points="70,-124 16,-124 16,-88 70,-88 70,-124"/>
<text text-anchor="middle" x="43" y="-103.5" font-family="Helvetica,sans-Serif" font-size="10.00">gpio</text>
</a>
</g>
</g>
<!-- dir_1585cb1296de2c4dde76500afa886952&#45;&gt;dir_93f5cc57b76a8a4cabb5571679917938 -->
<g id="edge14" class="edge">
<title>dir_1585cb1296de2c4dde76500afa886952&#45;&gt;dir_93f5cc57b76a8a4cabb5571679917938</title>
<path fill="none" stroke="black" d="M212.7,-303.91C198.7,-294.21 181.61,-281.36 168,-268 124.13,-224.96 82.26,-166.22 59.86,-132.89"/>
<polygon fill="black" stroke="black" points="62.53,-130.58 54.07,-124.2 56.7,-134.46 62.53,-130.58"/>
<g id="a_edge14&#45;headlabel"><a xlink:href="dir_000027_000012.html" target="_top" xlink:title="3">
<text text-anchor="middle" x="66.88" y="-129.5" font-family="Helvetica,sans-Serif" font-size="10.00">3</text>
</a>
</g>
</g>
<!-- dir_b6cd085f17e89cb6278eb6f5ecd32d39 -->
<g id="node5" class="node">
<title>dir_b6cd085f17e89cb6278eb6f5ecd32d39</title>
<g id="a_node5"><a xlink:href="dir_b6cd085f17e89cb6278eb6f5ecd32d39.html" target="_top" xlink:title="control">
<polygon fill="none" stroke="black" points="266,-268 212,-268 212,-232 266,-232 266,-268"/>
<text text-anchor="middle" x="239" y="-247.5" font-family="Helvetica,sans-Serif" font-size="10.00">control</text>
</a>
</g>
</g>
<!-- dir_1585cb1296de2c4dde76500afa886952&#45;&gt;dir_b6cd085f17e89cb6278eb6f5ecd32d39 -->
<g id="edge15" class="edge">
<title>dir_1585cb1296de2c4dde76500afa886952&#45;&gt;dir_b6cd085f17e89cb6278eb6f5ecd32d39</title>
<path fill="none" stroke="black" d="M233.08,-303.7C232.29,-295.98 232.06,-286.71 232.4,-278.11"/>
<polygon fill="black" stroke="black" points="235.9,-278.32 233.1,-268.1 228.92,-277.84 235.9,-278.32"/>
<g id="a_edge15&#45;headlabel"><a xlink:href="dir_000027_000011.html" target="_top" xlink:title="2">
<text text-anchor="middle" x="238.48" y="-279.61" font-family="Helvetica,sans-Serif" font-size="10.00">2</text>
</a>
</g>
</g>
<!-- dir_d33103ac168077bdcd2b65f79896931a -->
<g id="node6" class="node">
<title>dir_d33103ac168077bdcd2b65f79896931a</title>
<g id="a_node6"><a xlink:href="dir_d33103ac168077bdcd2b65f79896931a.html" target="_top" xlink:title="time">
<polygon fill="none" stroke="black" points="272,-124 218,-124 218,-88 272,-88 272,-124"/>
<text text-anchor="middle" x="245" y="-103.5" font-family="Helvetica,sans-Serif" font-size="10.00">time</text>
</a>
</g>
</g>
<!-- dir_1585cb1296de2c4dde76500afa886952&#45;&gt;dir_d33103ac168077bdcd2b65f79896931a -->
<g id="edge16" class="edge">
<title>dir_1585cb1296de2c4dde76500afa886952&#45;&gt;dir_d33103ac168077bdcd2b65f79896931a</title>
<path fill="none" stroke="black" d="M254.61,-303.77C262.37,-294.03 270.95,-281.18 275,-268 289.24,-221.7 271.24,-165.72 257.6,-133.45"/>
<polygon fill="black" stroke="black" points="260.78,-131.98 253.55,-124.23 254.37,-134.79 260.78,-131.98"/>
<g id="a_edge16&#45;headlabel"><a xlink:href="dir_000027_000029.html" target="_top" xlink:title="2">
<text text-anchor="middle" x="264.82" y="-131.62" font-family="Helvetica,sans-Serif" font-size="10.00">2</text>
</a>
</g>
</g>
<!-- dir_d7b6a63eed36fea2858d2aa41ca33f02 -->
<g id="node7" class="node">
<title>dir_d7b6a63eed36fea2858d2aa41ca33f02</title>
<g id="a_node7"><a xlink:href="dir_d7b6a63eed36fea2858d2aa41ca33f02.html" target="_top" xlink:title="log">
<polygon fill="none" stroke="black" points="193,-52 139,-52 139,-16 193,-16 193,-52"/>
<text text-anchor="middle" x="166" y="-31.5" font-family="Helvetica,sans-Serif" font-size="10.00">log</text>
</a>
</g>
</g>
<!-- dir_5bbbaec82e60c1c95ef5795854749336&#45;&gt;dir_d7b6a63eed36fea2858d2aa41ca33f02 -->
<g id="edge17" class="edge">
<title>dir_5bbbaec82e60c1c95ef5795854749336&#45;&gt;dir_d7b6a63eed36fea2858d2aa41ca33f02</title>
<path fill="none" stroke="black" d="M141.91,-87.7C145.55,-79.73 149.95,-70.1 153.99,-61.26"/>
<polygon fill="black" stroke="black" points="157.21,-62.65 158.18,-52.1 150.84,-59.74 157.21,-62.65"/>
<g id="a_edge17&#45;headlabel"><a xlink:href="dir_000010_000013.html" target="_top" xlink:title="1">
<text text-anchor="middle" x="158.29" y="-64.6" font-family="Helvetica,sans-Serif" font-size="10.00">1</text>
</a>
</g>
</g>
<!-- dir_b6cd085f17e89cb6278eb6f5ecd32d39&#45;&gt;dir_1585cb1296de2c4dde76500afa886952 -->
<g id="edge8" class="edge">
<title>dir_b6cd085f17e89cb6278eb6f5ecd32d39&#45;&gt;dir_1585cb1296de2c4dde76500afa886952</title>
<path fill="none" stroke="black" d="M244.9,-268.1C245.7,-275.79 245.94,-285.05 245.6,-293.67"/>
<polygon fill="black" stroke="black" points="242.11,-293.48 244.92,-303.7 249.09,-293.96 242.11,-293.48"/>
<g id="a_edge8&#45;headlabel"><a xlink:href="dir_000011_000027.html" target="_top" xlink:title="4">
<text text-anchor="middle" x="239.52" y="-287.2" font-family="Helvetica,sans-Serif" font-size="10.00">4</text>
</a>
</g>
</g>
<!-- dir_b6cd085f17e89cb6278eb6f5ecd32d39&#45;&gt;dir_232aac153d804cfbbc85dc0a0fa07463 -->
<g id="edge9" class="edge">
<title>dir_b6cd085f17e89cb6278eb6f5ecd32d39&#45;&gt;dir_232aac153d804cfbbc85dc0a0fa07463</title>
<path fill="none" stroke="black" d="M248.41,-231.87C261.88,-207.35 286.77,-162.03 302.58,-133.26"/>
<polygon fill="black" stroke="black" points="305.81,-134.64 307.56,-124.19 299.68,-131.27 305.81,-134.64"/>
<g id="a_edge9&#45;headlabel"><a xlink:href="dir_000011_000032.html" target="_top" xlink:title="4">
<text text-anchor="middle" x="306.57" y="-136.66" font-family="Helvetica,sans-Serif" font-size="10.00">4</text>
</a>
</g>
</g>
<!-- dir_b6cd085f17e89cb6278eb6f5ecd32d39&#45;&gt;dir_d33103ac168077bdcd2b65f79896931a -->
<g id="edge11" class="edge">
<title>dir_b6cd085f17e89cb6278eb6f5ecd32d39&#45;&gt;dir_d33103ac168077bdcd2b65f79896931a</title>
<path fill="none" stroke="black" d="M239.72,-231.87C240.75,-207.67 242.62,-163.21 243.84,-134.39"/>
<polygon fill="black" stroke="black" points="247.35,-134.33 244.27,-124.19 240.35,-134.03 247.35,-134.33"/>
<g id="a_edge11&#45;headlabel"><a xlink:href="dir_000011_000029.html" target="_top" xlink:title="4">
<text text-anchor="middle" x="250.03" y="-135.54" font-family="Helvetica,sans-Serif" font-size="10.00">4</text>
</a>
</g>
</g>
<!-- dir_98805e936c7cb41c7fc1bd0592aaf3bd -->
<g id="node8" class="node">
<title>dir_98805e936c7cb41c7fc1bd0592aaf3bd</title>
<g id="a_node8"><a xlink:href="dir_98805e936c7cb41c7fc1bd0592aaf3bd.html" target="_top" xlink:title="actuator">
<polygon fill="#eeeeff" stroke="black" points="225.5,-196 168.5,-196 168.5,-160 225.5,-160 225.5,-196"/>
<text text-anchor="middle" x="197" y="-175.5" font-family="Helvetica,sans-Serif" font-size="10.00">actuator</text>
</a>
</g>
</g>
<!-- dir_b6cd085f17e89cb6278eb6f5ecd32d39&#45;&gt;dir_98805e936c7cb41c7fc1bd0592aaf3bd -->
<g id="edge10" class="edge">
<title>dir_b6cd085f17e89cb6278eb6f5ecd32d39&#45;&gt;dir_98805e936c7cb41c7fc1bd0592aaf3bd</title>
<path fill="none" stroke="black" d="M222.7,-231.7C217.04,-223.64 210.98,-213.89 206.04,-204.98"/>
<polygon fill="black" stroke="black" points="209.12,-203.32 201.37,-196.1 202.93,-206.58 209.12,-203.32"/>
<g id="a_edge10&#45;headlabel"><a xlink:href="dir_000011_000005.html" target="_top" xlink:title="4">
<text text-anchor="middle" x="213.31" y="-202.68" font-family="Helvetica,sans-Serif" font-size="10.00">4</text>
</a>
</g>
</g>
<!-- dir_98805e936c7cb41c7fc1bd0592aaf3bd&#45;&gt;dir_1585cb1296de2c4dde76500afa886952 -->
<g id="edge1" class="edge">
<title>dir_98805e936c7cb41c7fc1bd0592aaf3bd&#45;&gt;dir_1585cb1296de2c4dde76500afa886952</title>
<path fill="none" stroke="black" d="M195.54,-196.25C194.59,-214.58 194.77,-244.14 203,-268 206.34,-277.68 211.93,-287.25 217.72,-295.53"/>
<polygon fill="black" stroke="black" points="214.97,-297.71 223.74,-303.66 220.6,-293.54 214.97,-297.71"/>
<g id="a_edge1&#45;headlabel"><a xlink:href="dir_000005_000027.html" target="_top" xlink:title="1">
<text text-anchor="middle" x="210.55" y="-294.01" font-family="Helvetica,sans-Serif" font-size="10.00">1</text>
</a>
</g>
</g>
<!-- dir_98805e936c7cb41c7fc1bd0592aaf3bd&#45;&gt;dir_232aac153d804cfbbc85dc0a0fa07463 -->
<g id="edge2" class="edge">
<title>dir_98805e936c7cb41c7fc1bd0592aaf3bd&#45;&gt;dir_232aac153d804cfbbc85dc0a0fa07463</title>
<path fill="none" stroke="black" d="M225.74,-160.23C242.28,-150.59 263.2,-138.38 280.84,-128.09"/>
<polygon fill="black" stroke="black" points="282.85,-130.97 289.73,-122.91 279.33,-124.92 282.85,-130.97"/>
<g id="a_edge2&#45;headlabel"><a xlink:href="dir_000005_000032.html" target="_top" xlink:title="7">
<text text-anchor="middle" x="281.18" y="-132.73" font-family="Helvetica,sans-Serif" font-size="10.00">7</text>
</a>
</g>
</g>
<!-- dir_98805e936c7cb41c7fc1bd0592aaf3bd&#45;&gt;dir_5bbbaec82e60c1c95ef5795854749336 -->
<g id="edge3" class="edge">
<title>dir_98805e936c7cb41c7fc1bd0592aaf3bd&#45;&gt;dir_5bbbaec82e60c1c95ef5795854749336</title>
<path fill="none" stroke="black" d="M181.43,-159.7C173.8,-151.22 164.48,-140.86 156.12,-131.58"/>
<polygon fill="black" stroke="black" points="158.69,-129.2 149.39,-124.1 153.48,-133.88 158.69,-129.2"/>
<g id="a_edge3&#45;headlabel"><a xlink:href="dir_000005_000010.html" target="_top" xlink:title="1">
<text text-anchor="middle" x="163.2" y="-127.47" font-family="Helvetica,sans-Serif" font-size="10.00">1</text>
</a>
</g>
</g>
<!-- dir_98805e936c7cb41c7fc1bd0592aaf3bd&#45;&gt;dir_93f5cc57b76a8a4cabb5571679917938 -->
<g id="edge4" class="edge">
<title>dir_98805e936c7cb41c7fc1bd0592aaf3bd&#45;&gt;dir_93f5cc57b76a8a4cabb5571679917938</title>
<path fill="none" stroke="black" d="M168.32,-164.3C146.25,-154.49 114.79,-140.42 79.23,-124.07"/>
<polygon fill="black" stroke="black" points="80.65,-120.87 70.1,-119.87 77.72,-127.23 80.65,-120.87"/>
<g id="a_edge4&#45;headlabel"><a xlink:href="dir_000005_000012.html" target="_top" xlink:title="4">
<text text-anchor="middle" x="85.1" y="-117.29" font-family="Helvetica,sans-Serif" font-size="10.00">4</text>
</a>
</g>
</g>
<!-- dir_98805e936c7cb41c7fc1bd0592aaf3bd&#45;&gt;dir_b6cd085f17e89cb6278eb6f5ecd32d39 -->
<g id="edge5" class="edge">
<title>dir_98805e936c7cb41c7fc1bd0592aaf3bd&#45;&gt;dir_b6cd085f17e89cb6278eb6f5ecd32d39</title>
<path fill="none" stroke="black" d="M213.16,-196.1C218.81,-204.13 224.88,-213.87 229.83,-222.8"/>
<polygon fill="black" stroke="black" points="226.77,-224.49 234.53,-231.7 232.96,-221.22 226.77,-224.49"/>
<g id="a_edge5&#45;headlabel"><a xlink:href="dir_000005_000011.html" target="_top" xlink:title="1">
<text text-anchor="middle" x="222.58" y="-220.13" font-family="Helvetica,sans-Serif" font-size="10.00">1</text>
</a>
</g>
</g>
<!-- dir_98805e936c7cb41c7fc1bd0592aaf3bd&#45;&gt;dir_d33103ac168077bdcd2b65f79896931a -->
<g id="edge6" class="edge">
<title>dir_98805e936c7cb41c7fc1bd0592aaf3bd&#45;&gt;dir_d33103ac168077bdcd2b65f79896931a</title>
<path fill="none" stroke="black" d="M208.87,-159.7C214.5,-151.47 221.35,-141.48 227.57,-132.42"/>
<polygon fill="black" stroke="black" points="230.5,-134.33 233.27,-124.1 224.73,-130.37 230.5,-134.33"/>
<g id="a_edge6&#45;headlabel"><a xlink:href="dir_000005_000029.html" target="_top" xlink:title="3">
<text text-anchor="middle" x="230.81" y="-136.4" font-family="Helvetica,sans-Serif" font-size="10.00">3</text>
</a>
</g>
</g>
<!-- dir_98805e936c7cb41c7fc1bd0592aaf3bd&#45;&gt;dir_d7b6a63eed36fea2858d2aa41ca33f02 -->
<g id="edge7" class="edge">
<title>dir_98805e936c7cb41c7fc1bd0592aaf3bd&#45;&gt;dir_d7b6a63eed36fea2858d2aa41ca33f02</title>
<path fill="none" stroke="black" d="M197.07,-160C196.78,-141.89 195.24,-112.5 189,-88 186.72,-79.06 183.11,-69.7 179.42,-61.38"/>
<polygon fill="black" stroke="black" points="182.52,-59.75 175.12,-52.17 176.18,-62.71 182.52,-59.75"/>
<g id="a_edge7&#45;headlabel"><a xlink:href="dir_000005_000013.html" target="_top" xlink:title="1">
<text text-anchor="middle" x="186.62" y="-59.31" font-family="Helvetica,sans-Serif" font-size="10.00">1</text>
</a>
</g>
</g>
</g>
</svg>
