<?xml version="1.0" encoding="UTF-8" standalone="no"?>
<!DOCTYPE svg PUBLIC "-//W3C//DTD SVG 1.1//EN"
 "http://www.w3.org/Graphics/SVG/1.1/DTD/svg11.dtd">
<!-- Generated by graphviz version 2.43.0 (0)
 -->
<!-- Title: alps_common_lib/include/alps_cmn/sensor Pages: 1 -->
<svg width="348pt" height="239pt"
 viewBox="0.00 0.00 348.00 239.00" xmlns="http://www.w3.org/2000/svg" xmlns:xlink="http://www.w3.org/1999/xlink">
<g id="graph0" class="graph" transform="scale(1 1) rotate(0) translate(4 235)">
<title>alps_common_lib/include/alps_cmn/sensor</title>
<polygon fill="white" stroke="transparent" points="-4,4 -4,-235 344,-235 344,4 -4,4"/>
<g id="clust1" class="cluster">
<title>clusterdir_cc648f72f51f156e42f9863c0e5bf5fb</title>
<g id="a_clust1"><a xlink:href="dir_cc648f72f51f156e42f9863c0e5bf5fb.html" target="_top" xlink:title="alps_cmn">
<polygon fill="#ddddee" stroke="black" points="8,-8 8,-223 332,-223 332,-8 8,-8"/>
<text text-anchor="middle" x="170" y="-211" font-family="Helvetica,sans-Serif" font-size="10.00">alps_cmn</text>
</a>
</g>
</g>
<!-- dir_1367935105ebc251618457953f8d2b80 -->
<g id="node1" class="node">
<title>dir_1367935105ebc251618457953f8d2b80</title>
<g id="a_node1"><a xlink:href="dir_1367935105ebc251618457953f8d2b80.html" target="_top" xlink:title="time">
<polygon fill="none" stroke="black" points="70,-52 16,-52 16,-16 70,-16 70,-52"/>
<text text-anchor="middle" x="43" y="-31.5" font-family="Helvetica,sans-Serif" font-size="10.00">time</text>
</a>
</g>
</g>
<!-- dir_26247a4c7d21a73996b8a7832c1a1463 -->
<g id="node2" class="node">
<title>dir_26247a4c7d21a73996b8a7832c1a1463</title>
<g id="a_node2"><a xlink:href="dir_26247a4c7d21a73996b8a7832c1a1463.html" target="_top" xlink:title="util">
<polygon fill="none" stroke="black" points="142,-52 88,-52 88,-16 142,-16 142,-52"/>
<text text-anchor="middle" x="115" y="-31.5" font-family="Helvetica,sans-Serif" font-size="10.00">util</text>
</a>
</g>
</g>
<!-- dir_76fd7680a09542374d3e212281ba6ee2 -->
<g id="node3" class="node">
<title>dir_76fd7680a09542374d3e212281ba6ee2</title>
<g id="a_node3"><a xlink:href="dir_76fd7680a09542374d3e212281ba6ee2.html" target="_top" xlink:title="communication">
<polygon fill="none" stroke="black" points="252,-52 160,-52 160,-16 252,-16 252,-52"/>
<text text-anchor="middle" x="206" y="-31.5" font-family="Helvetica,sans-Serif" font-size="10.00">communication</text>
</a>
</g>
</g>
<!-- dir_7913872ef1e9131c7a4facddec50fb6b -->
<g id="node4" class="node">
<title>dir_7913872ef1e9131c7a4facddec50fb6b</title>
<g id="a_node4"><a xlink:href="dir_7913872ef1e9131c7a4facddec50fb6b.html" target="_top" xlink:title="gpio">
<polygon fill="none" stroke="black" points="324,-52 270,-52 270,-16 324,-16 324,-52"/>
<text text-anchor="middle" x="297" y="-31.5" font-family="Helvetica,sans-Serif" font-size="10.00">gpio</text>
</a>
</g>
</g>
<!-- dir_83658e075a4ab7b2cbb8779471289882 -->
<g id="node5" class="node">
<title>dir_83658e075a4ab7b2cbb8779471289882</title>
<g id="a_node5"><a xlink:href="dir_83658e075a4ab7b2cbb8779471289882.html" target="_top" xlink:title="control">
<polygon fill="none" stroke="black" points="142,-196 88,-196 88,-160 142,-160 142,-196"/>
<text text-anchor="middle" x="115" y="-175.5" font-family="Helvetica,sans-Serif" font-size="10.00">control</text>
</a>
</g>
</g>
<!-- dir_83658e075a4ab7b2cbb8779471289882&#45;&gt;dir_1367935105ebc251618457953f8d2b80 -->
<g id="edge1" class="edge">
<title>dir_83658e075a4ab7b2cbb8779471289882&#45;&gt;dir_1367935105ebc251618457953f8d2b80</title>
<path fill="none" stroke="black" d="M106.32,-159.87C93.88,-135.35 70.9,-90.03 56.31,-61.26"/>
<polygon fill="black" stroke="black" points="59.36,-59.53 51.72,-52.19 53.12,-62.69 59.36,-59.53"/>
<g id="a_edge1&#45;headlabel"><a xlink:href="dir_000009_000027.html" target="_top" xlink:title="4">
<text text-anchor="middle" x="63.52" y="-58.95" font-family="Helvetica,sans-Serif" font-size="10.00">4</text>
</a>
</g>
</g>
<!-- dir_83658e075a4ab7b2cbb8779471289882&#45;&gt;dir_26247a4c7d21a73996b8a7832c1a1463 -->
<g id="edge2" class="edge">
<title>dir_83658e075a4ab7b2cbb8779471289882&#45;&gt;dir_26247a4c7d21a73996b8a7832c1a1463</title>
<path fill="none" stroke="black" d="M109.59,-159.53C106.7,-149.29 103.45,-136.04 102,-124 100.08,-108.12 100.08,-103.88 102,-88 103.02,-79.53 104.93,-70.47 106.98,-62.28"/>
<polygon fill="black" stroke="black" points="110.4,-63.03 109.59,-52.47 103.64,-61.23 110.4,-63.03"/>
<g id="a_edge2&#45;headlabel"><a xlink:href="dir_000009_000030.html" target="_top" xlink:title="4">
<text text-anchor="middle" x="112.22" y="-64.74" font-family="Helvetica,sans-Serif" font-size="10.00">4</text>
</a>
</g>
</g>
<!-- dir_96320550a29baac38dc9eb0ae89f5e73 -->
<g id="node6" class="node">
<title>dir_96320550a29baac38dc9eb0ae89f5e73</title>
<g id="a_node6"><a xlink:href="dir_96320550a29baac38dc9eb0ae89f5e73.html" target="_top" xlink:title="sensor">
<polygon fill="#eeeeff" stroke="black" points="165,-124 111,-124 111,-88 165,-88 165,-124"/>
<text text-anchor="middle" x="138" y="-103.5" font-family="Helvetica,sans-Serif" font-size="10.00">sensor</text>
</a>
</g>
</g>
<!-- dir_83658e075a4ab7b2cbb8779471289882&#45;&gt;dir_96320550a29baac38dc9eb0ae89f5e73 -->
<g id="edge3" class="edge">
<title>dir_83658e075a4ab7b2cbb8779471289882&#45;&gt;dir_96320550a29baac38dc9eb0ae89f5e73</title>
<path fill="none" stroke="black" d="M114.77,-159.7C116.55,-151.81 119.45,-142.3 122.71,-133.55"/>
<polygon fill="black" stroke="black" points="126.02,-134.69 126.48,-124.1 119.52,-132.09 126.02,-134.69"/>
<g id="a_edge3&#45;headlabel"><a xlink:href="dir_000009_000025.html" target="_top" xlink:title="4">
<text text-anchor="middle" x="127.32" y="-136.58" font-family="Helvetica,sans-Serif" font-size="10.00">4</text>
</a>
</g>
</g>
<!-- dir_96320550a29baac38dc9eb0ae89f5e73&#45;&gt;dir_1367935105ebc251618457953f8d2b80 -->
<g id="edge4" class="edge">
<title>dir_96320550a29baac38dc9eb0ae89f5e73&#45;&gt;dir_1367935105ebc251618457953f8d2b80</title>
<path fill="none" stroke="black" d="M114.52,-87.7C102.44,-78.8 87.55,-67.82 74.48,-58.2"/>
<polygon fill="black" stroke="black" points="76.34,-55.22 66.21,-52.1 72.19,-60.85 76.34,-55.22"/>
<g id="a_edge4&#45;headlabel"><a xlink:href="dir_000025_000027.html" target="_top" xlink:title="2">
<text text-anchor="middle" x="80.92" y="-52.57" font-family="Helvetica,sans-Serif" font-size="10.00">2</text>
</a>
</g>
</g>
<!-- dir_96320550a29baac38dc9eb0ae89f5e73&#45;&gt;dir_26247a4c7d21a73996b8a7832c1a1463 -->
<g id="edge5" class="edge">
<title>dir_96320550a29baac38dc9eb0ae89f5e73&#45;&gt;dir_26247a4c7d21a73996b8a7832c1a1463</title>
<path fill="none" stroke="black" d="M132.31,-87.7C129.75,-79.9 126.67,-70.51 123.82,-61.83"/>
<polygon fill="black" stroke="black" points="127.07,-60.51 120.62,-52.1 120.42,-62.7 127.07,-60.51"/>
<g id="a_edge5&#45;headlabel"><a xlink:href="dir_000025_000030.html" target="_top" xlink:title="2">
<text text-anchor="middle" x="130.89" y="-60.54" font-family="Helvetica,sans-Serif" font-size="10.00">2</text>
</a>
</g>
</g>
<!-- dir_96320550a29baac38dc9eb0ae89f5e73&#45;&gt;dir_76fd7680a09542374d3e212281ba6ee2 -->
<g id="edge6" class="edge">
<title>dir_96320550a29baac38dc9eb0ae89f5e73&#45;&gt;dir_76fd7680a09542374d3e212281ba6ee2</title>
<path fill="none" stroke="black" d="M154.81,-87.7C163.13,-79.14 173.31,-68.66 182.39,-59.3"/>
<polygon fill="black" stroke="black" points="184.93,-61.72 189.38,-52.1 179.91,-56.84 184.93,-61.72"/>
<g id="a_edge6&#45;headlabel"><a xlink:href="dir_000025_000008.html" target="_top" xlink:title="4">
<text text-anchor="middle" x="184.46" y="-63.77" font-family="Helvetica,sans-Serif" font-size="10.00">4</text>
</a>
</g>
</g>
<!-- dir_96320550a29baac38dc9eb0ae89f5e73&#45;&gt;dir_7913872ef1e9131c7a4facddec50fb6b -->
<g id="edge7" class="edge">
<title>dir_96320550a29baac38dc9eb0ae89f5e73&#45;&gt;dir_7913872ef1e9131c7a4facddec50fb6b</title>
<path fill="none" stroke="black" d="M165.48,-93.48C188.63,-83.7 222.81,-69.1 260.73,-52.06"/>
<polygon fill="black" stroke="black" points="262.24,-55.21 269.92,-47.91 259.36,-48.83 262.24,-55.21"/>
<g id="a_edge7&#45;headlabel"><a xlink:href="dir_000025_000010.html" target="_top" xlink:title="3">
<text text-anchor="middle" x="260.14" y="-56.78" font-family="Helvetica,sans-Serif" font-size="10.00">3</text>
</a>
</g>
</g>
<!-- dir_96320550a29baac38dc9eb0ae89f5e73&#45;&gt;dir_83658e075a4ab7b2cbb8779471289882 -->
<g id="edge8" class="edge">
<title>dir_96320550a29baac38dc9eb0ae89f5e73&#45;&gt;dir_83658e075a4ab7b2cbb8779471289882</title>
<path fill="none" stroke="black" d="M138.28,-124.1C136.52,-131.96 133.62,-141.46 130.38,-150.23"/>
<polygon fill="black" stroke="black" points="127.06,-149.11 126.6,-159.7 133.56,-151.71 127.06,-149.11"/>
<g id="a_edge8&#45;headlabel"><a xlink:href="dir_000025_000009.html" target="_top" xlink:title="2">
<text text-anchor="middle" x="125.75" y="-142.22" font-family="Helvetica,sans-Serif" font-size="10.00">2</text>
</a>
</g>
</g>
</g>
</svg>
