<?xml version="1.0" encoding="UTF-8" standalone="no"?>
<!DOCTYPE svg PUBLIC "-//W3C//DTD SVG 1.1//EN"
 "http://www.w3.org/Graphics/SVG/1.1/DTD/svg11.dtd">
<!-- Generated by graphviz version 2.43.0 (0)
 -->
<!-- Title: alps_common_lib/include/alps_cmn Pages: 1 -->
<svg width="306pt" height="259pt"
 viewBox="0.00 0.00 306.00 259.00" xmlns="http://www.w3.org/2000/svg" xmlns:xlink="http://www.w3.org/1999/xlink">
<g id="graph0" class="graph" transform="scale(1 1) rotate(0) translate(4 255)">
<title>alps_common_lib/include/alps_cmn</title>
<g id="clust1" class="cluster">
<title>clusterdir_ce1e71e2103ac83e6d6cc720a9feeeb7</title>
<g id="a_clust1"><a xlink:href="dir_ce1e71e2103ac83e6d6cc720a9feeeb7.html" target="_top" xlink:title="include">
<polygon fill="#daedff" stroke="#7f7f7f" stroke-dasharray="5,2" points="8,-8 8,-243 290,-243 290,-8 8,-8"/>
<text text-anchor="middle" x="149" y="-231" font-family="Helvetica,sans-Serif" font-size="10.00">include</text>
</a>
</g>
</g>
<g id="clust2" class="cluster">
<title>clusterdir_cc648f72f51f156e42f9863c0e5bf5fb</title>
<g id="a_clust2"><a xlink:href="dir_cc648f72f51f156e42f9863c0e5bf5fb.html" target="_top">
<polygon fill="#daedff" stroke="#404040" stroke-width="2" points="16,-16 16,-216 282,-216 282,-16 16,-16"/>
</a>
</g>
</g>
<!-- dir_cc648f72f51f156e42f9863c0e5bf5fb -->
<g id="node1" class="node">
<title>dir_cc648f72f51f156e42f9863c0e5bf5fb</title>
<text text-anchor="middle" x="215" y="-196" font-family="Helvetica,sans-Serif" font-size="10.00">alps_cmn</text>
</g>
<!-- dir_2239b1117054295ada522fe6d99615b2 -->
<g id="node2" class="node">
<title>dir_2239b1117054295ada522fe6d99615b2</title>
<g id="a_node2"><a xlink:href="dir_2239b1117054295ada522fe6d99615b2.html" target="_top" xlink:title="actuator">
<polygon fill="#4ea9ff" stroke="#404040" points="141.5,-153 84.5,-153 84.5,-134 141.5,-134 141.5,-153"/>
<text text-anchor="middle" x="113" y="-141" font-family="Helvetica,sans-Serif" font-size="10.00">actuator</text>
</a>
</g>
</g>
<!-- dir_76fd7680a09542374d3e212281ba6ee2 -->
<g id="node3" class="node">
<title>dir_76fd7680a09542374d3e212281ba6ee2</title>
<g id="a_node3"><a xlink:href="dir_76fd7680a09542374d3e212281ba6ee2.html" target="_top" xlink:title="communication">
<polygon fill="#4ea9ff" stroke="#404040" points="224,-98 132,-98 132,-79 224,-79 224,-98"/>
<text text-anchor="middle" x="178" y="-86" font-family="Helvetica,sans-Serif" font-size="10.00">communication</text>
</a>
</g>
</g>
<!-- dir_2239b1117054295ada522fe6d99615b2&#45;&gt;dir_76fd7680a09542374d3e212281ba6ee2 -->
<g id="edge3" class="edge">
<title>dir_2239b1117054295ada522fe6d99615b2&#45;&gt;dir_76fd7680a09542374d3e212281ba6ee2</title>
<path fill="none" stroke="#63b8ff" d="M123.44,-133.98C133.15,-126.07 147.82,-114.11 159.5,-104.58"/>
<polygon fill="#63b8ff" stroke="#63b8ff" points="161.83,-107.2 167.37,-98.17 157.4,-101.78 161.83,-107.2"/>
<g id="a_edge3&#45;headlabel"><a xlink:href="dir_000000_000014.html" target="_top" xlink:title="2">
<text text-anchor="middle" x="160.84" y="-109.17" font-family="Helvetica,sans-Serif" font-size="10.00" fill="#63b8ff">2</text>
</a>
</g>
</g>
<!-- dir_7913872ef1e9131c7a4facddec50fb6b -->
<g id="node5" class="node">
<title>dir_7913872ef1e9131c7a4facddec50fb6b</title>
<g id="a_node5"><a xlink:href="dir_7913872ef1e9131c7a4facddec50fb6b.html" target="_top" xlink:title="gpio">
<polygon fill="#4ea9ff" stroke="#404040" points="69,-43 31,-43 31,-24 69,-24 69,-43"/>
<text text-anchor="middle" x="50" y="-31" font-family="Helvetica,sans-Serif" font-size="10.00">gpio</text>
</a>
</g>
</g>
<!-- dir_2239b1117054295ada522fe6d99615b2&#45;&gt;dir_7913872ef1e9131c7a4facddec50fb6b -->
<g id="edge4" class="edge">
<title>dir_2239b1117054295ada522fe6d99615b2&#45;&gt;dir_7913872ef1e9131c7a4facddec50fb6b</title>
<path fill="none" stroke="#63b8ff" d="M109.45,-133.59C104.3,-121.04 94.15,-97.62 83,-79 77.19,-69.31 69.76,-59.14 63.43,-50.97"/>
<polygon fill="#63b8ff" stroke="#63b8ff" points="66.07,-48.66 57.11,-43.01 60.58,-53.02 66.07,-48.66"/>
<g id="a_edge4&#45;headlabel"><a xlink:href="dir_000000_000018.html" target="_top" xlink:title="3">
<text text-anchor="middle" x="70.52" y="-47.21" font-family="Helvetica,sans-Serif" font-size="10.00" fill="#63b8ff">3</text>
</a>
</g>
</g>
<!-- dir_563ed2d29ef623953b20c0f9d2e12d2d -->
<g id="node6" class="node">
<title>dir_563ed2d29ef623953b20c0f9d2e12d2d</title>
<g id="a_node6"><a xlink:href="dir_563ed2d29ef623953b20c0f9d2e12d2d.html" target="_top" xlink:title="math">
<polygon fill="#4ea9ff" stroke="#404040" points="132,-43 90,-43 90,-24 132,-24 132,-43"/>
<text text-anchor="middle" x="111" y="-31" font-family="Helvetica,sans-Serif" font-size="10.00">math</text>
</a>
</g>
</g>
<!-- dir_2239b1117054295ada522fe6d99615b2&#45;&gt;dir_563ed2d29ef623953b20c0f9d2e12d2d -->
<g id="edge2" class="edge">
<title>dir_2239b1117054295ada522fe6d99615b2&#45;&gt;dir_563ed2d29ef623953b20c0f9d2e12d2d</title>
<path fill="none" stroke="#63b8ff" d="M112.84,-133.66C112.51,-116.17 111.78,-76.8 111.35,-53.27"/>
<polygon fill="#63b8ff" stroke="#63b8ff" points="114.84,-53.09 111.16,-43.16 107.85,-53.22 114.84,-53.09"/>
<g id="a_edge2&#45;headlabel"><a xlink:href="dir_000000_000026.html" target="_top" xlink:title="1">
<text text-anchor="middle" x="117.75" y="-54.13" font-family="Helvetica,sans-Serif" font-size="10.00" fill="#63b8ff">1</text>
</a>
</g>
</g>
<!-- dir_96320550a29baac38dc9eb0ae89f5e73 -->
<g id="node7" class="node">
<title>dir_96320550a29baac38dc9eb0ae89f5e73</title>
<g id="a_node7"><a xlink:href="dir_96320550a29baac38dc9eb0ae89f5e73.html" target="_top" xlink:title="sensor">
<polygon fill="#4ea9ff" stroke="#404040" points="73.5,-98 24.5,-98 24.5,-79 73.5,-79 73.5,-98"/>
<text text-anchor="middle" x="49" y="-86" font-family="Helvetica,sans-Serif" font-size="10.00">sensor</text>
</a>
</g>
</g>
<!-- dir_2239b1117054295ada522fe6d99615b2&#45;&gt;dir_96320550a29baac38dc9eb0ae89f5e73 -->
<g id="edge5" class="edge">
<title>dir_2239b1117054295ada522fe6d99615b2&#45;&gt;dir_96320550a29baac38dc9eb0ae89f5e73</title>
<path fill="none" stroke="#63b8ff" d="M102.72,-133.98C93.16,-126.07 78.72,-114.11 67.22,-104.58"/>
<polygon fill="#63b8ff" stroke="#63b8ff" points="69.4,-101.85 59.47,-98.17 64.94,-107.24 69.4,-101.85"/>
<g id="a_edge5&#45;headlabel"><a xlink:href="dir_000000_000027.html" target="_top" xlink:title="1">
<text text-anchor="middle" x="73.98" y="-99.46" font-family="Helvetica,sans-Serif" font-size="10.00" fill="#63b8ff">1</text>
</a>
</g>
</g>
<!-- dir_26247a4c7d21a73996b8a7832c1a1463 -->
<g id="node8" class="node">
<title>dir_26247a4c7d21a73996b8a7832c1a1463</title>
<g id="a_node8"><a xlink:href="dir_26247a4c7d21a73996b8a7832c1a1463.html" target="_top" xlink:title="util">
<polygon fill="#4ea9ff" stroke="#404040" points="274,-98 242,-98 242,-79 274,-79 274,-98"/>
<text text-anchor="middle" x="258" y="-86" font-family="Helvetica,sans-Serif" font-size="10.00">util</text>
</a>
</g>
</g>
<!-- dir_2239b1117054295ada522fe6d99615b2&#45;&gt;dir_26247a4c7d21a73996b8a7832c1a1463 -->
<g id="edge1" class="edge">
<title>dir_2239b1117054295ada522fe6d99615b2&#45;&gt;dir_26247a4c7d21a73996b8a7832c1a1463</title>
<path fill="none" stroke="#63b8ff" d="M136.3,-133.98C162.56,-124.38 205.14,-108.82 232.34,-98.88"/>
<polygon fill="#63b8ff" stroke="#63b8ff" points="233.75,-102.09 241.94,-95.37 231.35,-95.51 233.75,-102.09"/>
<g id="a_edge1&#45;headlabel"><a xlink:href="dir_000000_000029.html" target="_top" xlink:title="2">
<text text-anchor="middle" x="231.35" y="-103.49" font-family="Helvetica,sans-Serif" font-size="10.00" fill="#63b8ff">2</text>
</a>
</g>
</g>
<!-- dir_83658e075a4ab7b2cbb8779471289882 -->
<g id="node4" class="node">
<title>dir_83658e075a4ab7b2cbb8779471289882</title>
<g id="a_node4"><a xlink:href="dir_83658e075a4ab7b2cbb8779471289882.html" target="_top" xlink:title="control">
<polygon fill="#4ea9ff" stroke="#404040" points="138,-208 88,-208 88,-189 138,-189 138,-208"/>
<text text-anchor="middle" x="113" y="-196" font-family="Helvetica,sans-Serif" font-size="10.00">control</text>
</a>
</g>
</g>
<!-- dir_83658e075a4ab7b2cbb8779471289882&#45;&gt;dir_2239b1117054295ada522fe6d99615b2 -->
<g id="edge6" class="edge">
<title>dir_83658e075a4ab7b2cbb8779471289882&#45;&gt;dir_2239b1117054295ada522fe6d99615b2</title>
<path fill="none" stroke="#63b8ff" d="M113,-188.75C113,-181.8 113,-171.85 113,-163.13"/>
<polygon fill="#63b8ff" stroke="#63b8ff" points="116.5,-163.09 113,-153.09 109.5,-163.09 116.5,-163.09"/>
<g id="a_edge6&#45;headlabel"><a xlink:href="dir_000017_000000.html" target="_top" xlink:title="1">
<text text-anchor="middle" x="119.34" y="-164.18" font-family="Helvetica,sans-Serif" font-size="10.00" fill="#63b8ff">1</text>
</a>
</g>
</g>
<!-- dir_83658e075a4ab7b2cbb8779471289882&#45;&gt;dir_96320550a29baac38dc9eb0ae89f5e73 -->
<g id="edge8" class="edge">
<title>dir_83658e075a4ab7b2cbb8779471289882&#45;&gt;dir_96320550a29baac38dc9eb0ae89f5e73</title>
<path fill="none" stroke="#63b8ff" d="M104.52,-188.89C96.42,-180.33 84.27,-166.55 76,-153 67.23,-138.62 59.94,-120.88 55.16,-107.8"/>
<polygon fill="#63b8ff" stroke="#63b8ff" points="58.37,-106.38 51.76,-98.1 51.77,-108.69 58.37,-106.38"/>
<g id="a_edge8&#45;headlabel"><a xlink:href="dir_000017_000027.html" target="_top" xlink:title="1">
<text text-anchor="middle" x="62.24" y="-106.33" font-family="Helvetica,sans-Serif" font-size="10.00" fill="#63b8ff">1</text>
</a>
</g>
</g>
<!-- dir_83658e075a4ab7b2cbb8779471289882&#45;&gt;dir_26247a4c7d21a73996b8a7832c1a1463 -->
<g id="edge7" class="edge">
<title>dir_83658e075a4ab7b2cbb8779471289882&#45;&gt;dir_26247a4c7d21a73996b8a7832c1a1463</title>
<path fill="none" stroke="#63b8ff" d="M124.87,-188.66C149.74,-170.14 207.55,-127.08 238.16,-104.28"/>
<polygon fill="#63b8ff" stroke="#63b8ff" points="240.45,-106.94 246.38,-98.16 236.26,-101.32 240.45,-106.94"/>
<g id="a_edge7&#45;headlabel"><a xlink:href="dir_000017_000029.html" target="_top" xlink:title="1">
<text text-anchor="middle" x="239.26" y="-108.86" font-family="Helvetica,sans-Serif" font-size="10.00" fill="#63b8ff">1</text>
</a>
</g>
</g>
<!-- dir_96320550a29baac38dc9eb0ae89f5e73&#45;&gt;dir_7913872ef1e9131c7a4facddec50fb6b -->
<g id="edge10" class="edge">
<title>dir_96320550a29baac38dc9eb0ae89f5e73&#45;&gt;dir_7913872ef1e9131c7a4facddec50fb6b</title>
<path fill="none" stroke="#63b8ff" d="M49.17,-78.75C49.3,-71.8 49.48,-61.85 49.65,-53.13"/>
<polygon fill="#63b8ff" stroke="#63b8ff" points="53.15,-53.15 49.84,-43.09 46.15,-53.02 53.15,-53.15"/>
<g id="a_edge10&#45;headlabel"><a xlink:href="dir_000027_000018.html" target="_top" xlink:title="2">
<text text-anchor="middle" x="55.92" y="-54.3" font-family="Helvetica,sans-Serif" font-size="10.00" fill="#63b8ff">2</text>
</a>
</g>
</g>
<!-- dir_96320550a29baac38dc9eb0ae89f5e73&#45;&gt;dir_563ed2d29ef623953b20c0f9d2e12d2d -->
<g id="edge9" class="edge">
<title>dir_96320550a29baac38dc9eb0ae89f5e73&#45;&gt;dir_563ed2d29ef623953b20c0f9d2e12d2d</title>
<path fill="none" stroke="#63b8ff" d="M58.96,-78.98C68.13,-71.15 81.94,-59.34 93.03,-49.86"/>
<polygon fill="#63b8ff" stroke="#63b8ff" points="95.53,-52.33 100.86,-43.17 90.98,-47.01 95.53,-52.33"/>
<g id="a_edge9&#45;headlabel"><a xlink:href="dir_000027_000026.html" target="_top" xlink:title="1">
<text text-anchor="middle" x="94.64" y="-54.32" font-family="Helvetica,sans-Serif" font-size="10.00" fill="#63b8ff">1</text>
</a>
</g>
</g>
</g>
</svg>
