<?xml version="1.0" encoding="UTF-8" standalone="no"?>
<!DOCTYPE svg PUBLIC "-//W3C//DTD SVG 1.1//EN"
 "http://www.w3.org/Graphics/SVG/1.1/DTD/svg11.dtd">
<!-- Generated by graphviz version 2.43.0 (0)
 -->
<!-- Title: alps_common_lib/include/alps_cmn Pages: 1 -->
<svg width="424pt" height="327pt"
 viewBox="0.00 0.00 424.00 327.00" xmlns="http://www.w3.org/2000/svg" xmlns:xlink="http://www.w3.org/1999/xlink">
<g id="graph0" class="graph" transform="scale(1 1) rotate(0) translate(4 323)">
<title>alps_common_lib/include/alps_cmn</title>
<polygon fill="white" stroke="transparent" points="-4,4 -4,-323 420,-323 420,4 -4,4"/>
<g id="clust1" class="cluster">
<title>clusterdir_ce1e71e2103ac83e6d6cc720a9feeeb7</title>
<g id="a_clust1"><a xlink:href="dir_ce1e71e2103ac83e6d6cc720a9feeeb7.html" target="_top" xlink:title="include">
<polygon fill="#ddddee" stroke="black" points="8,-8 8,-311 408,-311 408,-8 8,-8"/>
<text text-anchor="middle" x="208" y="-299" font-family="Helvetica,sans-Serif" font-size="10.00">include</text>
</a>
</g>
</g>
<g id="clust2" class="cluster">
<title>clusterdir_cc648f72f51f156e42f9863c0e5bf5fb</title>
<g id="a_clust2"><a xlink:href="dir_cc648f72f51f156e42f9863c0e5bf5fb.html" target="_top">
<polygon fill="#eeeeff" stroke="black" points="16,-16 16,-284 400,-284 400,-16 16,-16"/>
</a>
</g>
</g>
<!-- dir_cc648f72f51f156e42f9863c0e5bf5fb -->
<g id="node1" class="node">
<title>dir_cc648f72f51f156e42f9863c0e5bf5fb</title>
<text text-anchor="middle" x="308" y="-255.5" font-family="Helvetica,sans-Serif" font-size="10.00">alps_cmn</text>
</g>
<!-- dir_2239b1117054295ada522fe6d99615b2 -->
<g id="node2" class="node">
<title>dir_2239b1117054295ada522fe6d99615b2</title>
<g id="a_node2"><a xlink:href="dir_2239b1117054295ada522fe6d99615b2.html" target="_top" xlink:title="actuator">
<polygon fill="white" stroke="black" points="187.5,-276 130.5,-276 130.5,-240 187.5,-240 187.5,-276"/>
<text text-anchor="middle" x="159" y="-255.5" font-family="Helvetica,sans-Serif" font-size="10.00">actuator</text>
</a>
</g>
</g>
<!-- dir_76fd7680a09542374d3e212281ba6ee2 -->
<g id="node3" class="node">
<title>dir_76fd7680a09542374d3e212281ba6ee2</title>
<g id="a_node3"><a xlink:href="dir_76fd7680a09542374d3e212281ba6ee2.html" target="_top" xlink:title="communication">
<polygon fill="white" stroke="black" points="392,-132 300,-132 300,-96 392,-96 392,-132"/>
<text text-anchor="middle" x="346" y="-111.5" font-family="Helvetica,sans-Serif" font-size="10.00">communication</text>
</a>
</g>
</g>
<!-- dir_2239b1117054295ada522fe6d99615b2&#45;&gt;dir_76fd7680a09542374d3e212281ba6ee2 -->
<g id="edge2" class="edge">
<title>dir_2239b1117054295ada522fe6d99615b2&#45;&gt;dir_76fd7680a09542374d3e212281ba6ee2</title>
<path fill="none" stroke="black" d="M187.31,-239.96C203.4,-229.97 223.71,-216.83 241,-204 268.91,-183.29 298.99,-157.39 319.77,-138.88"/>
<polygon fill="black" stroke="black" points="322.15,-141.45 327.26,-132.17 317.47,-136.24 322.15,-141.45"/>
<g id="a_edge2&#45;headlabel"><a xlink:href="dir_000003_000008.html" target="_top" xlink:title="2">
<text text-anchor="middle" x="321.36" y="-143.47" font-family="Helvetica,sans-Serif" font-size="10.00">2</text>
</a>
</g>
</g>
<!-- dir_7913872ef1e9131c7a4facddec50fb6b -->
<g id="node5" class="node">
<title>dir_7913872ef1e9131c7a4facddec50fb6b</title>
<g id="a_node5"><a xlink:href="dir_7913872ef1e9131c7a4facddec50fb6b.html" target="_top" xlink:title="gpio">
<polygon fill="white" stroke="black" points="190,-132 136,-132 136,-96 190,-96 190,-132"/>
<text text-anchor="middle" x="163" y="-111.5" font-family="Helvetica,sans-Serif" font-size="10.00">gpio</text>
</a>
</g>
</g>
<!-- dir_2239b1117054295ada522fe6d99615b2&#45;&gt;dir_7913872ef1e9131c7a4facddec50fb6b -->
<g id="edge3" class="edge">
<title>dir_2239b1117054295ada522fe6d99615b2&#45;&gt;dir_7913872ef1e9131c7a4facddec50fb6b</title>
<path fill="none" stroke="black" d="M159.48,-239.87C160.16,-215.67 161.42,-171.21 162.23,-142.39"/>
<polygon fill="black" stroke="black" points="165.73,-142.28 162.52,-132.19 158.74,-142.09 165.73,-142.28"/>
<g id="a_edge3&#45;headlabel"><a xlink:href="dir_000003_000010.html" target="_top" xlink:title="3">
<text text-anchor="middle" x="168.47" y="-143.46" font-family="Helvetica,sans-Serif" font-size="10.00">3</text>
</a>
</g>
</g>
<!-- dir_96320550a29baac38dc9eb0ae89f5e73 -->
<g id="node8" class="node">
<title>dir_96320550a29baac38dc9eb0ae89f5e73</title>
<g id="a_node8"><a xlink:href="dir_96320550a29baac38dc9eb0ae89f5e73.html" target="_top" xlink:title="sensor">
<polygon fill="white" stroke="black" points="232,-204 178,-204 178,-168 232,-168 232,-204"/>
<text text-anchor="middle" x="205" y="-183.5" font-family="Helvetica,sans-Serif" font-size="10.00">sensor</text>
</a>
</g>
</g>
<!-- dir_2239b1117054295ada522fe6d99615b2&#45;&gt;dir_96320550a29baac38dc9eb0ae89f5e73 -->
<g id="edge4" class="edge">
<title>dir_2239b1117054295ada522fe6d99615b2&#45;&gt;dir_96320550a29baac38dc9eb0ae89f5e73</title>
<path fill="none" stroke="black" d="M170.37,-239.7C175.72,-231.56 182.2,-221.69 188.11,-212.7"/>
<polygon fill="black" stroke="black" points="191.19,-214.38 193.76,-204.1 185.34,-210.54 191.19,-214.38"/>
<g id="a_edge4&#45;headlabel"><a xlink:href="dir_000003_000025.html" target="_top" xlink:title="1">
<text text-anchor="middle" x="191.59" y="-216.45" font-family="Helvetica,sans-Serif" font-size="10.00">1</text>
</a>
</g>
</g>
<!-- dir_26247a4c7d21a73996b8a7832c1a1463 -->
<g id="node10" class="node">
<title>dir_26247a4c7d21a73996b8a7832c1a1463</title>
<g id="a_node10"><a xlink:href="dir_26247a4c7d21a73996b8a7832c1a1463.html" target="_top" xlink:title="util">
<polygon fill="white" stroke="black" points="98,-60 44,-60 44,-24 98,-24 98,-60"/>
<text text-anchor="middle" x="71" y="-39.5" font-family="Helvetica,sans-Serif" font-size="10.00">util</text>
</a>
</g>
</g>
<!-- dir_2239b1117054295ada522fe6d99615b2&#45;&gt;dir_26247a4c7d21a73996b8a7832c1a1463 -->
<g id="edge1" class="edge">
<title>dir_2239b1117054295ada522fe6d99615b2&#45;&gt;dir_26247a4c7d21a73996b8a7832c1a1463</title>
<path fill="none" stroke="black" d="M130.49,-245.74C98.1,-232.66 49.04,-211.87 44,-204 17.43,-162.51 39.4,-103.12 56.23,-69.28"/>
<polygon fill="black" stroke="black" points="59.52,-70.54 61.02,-60.05 53.31,-67.32 59.52,-70.54"/>
<g id="a_edge1&#45;headlabel"><a xlink:href="dir_000003_000028.html" target="_top" xlink:title="3">
<text text-anchor="middle" x="60.39" y="-72.54" font-family="Helvetica,sans-Serif" font-size="10.00">3</text>
</a>
</g>
</g>
<!-- dir_83658e075a4ab7b2cbb8779471289882 -->
<g id="node4" class="node">
<title>dir_83658e075a4ab7b2cbb8779471289882</title>
<g id="a_node4"><a xlink:href="dir_83658e075a4ab7b2cbb8779471289882.html" target="_top" xlink:title="control">
<polygon fill="white" stroke="black" points="118,-132 64,-132 64,-96 118,-96 118,-132"/>
<text text-anchor="middle" x="91" y="-111.5" font-family="Helvetica,sans-Serif" font-size="10.00">control</text>
</a>
</g>
</g>
<!-- dir_83658e075a4ab7b2cbb8779471289882&#45;&gt;dir_2239b1117054295ada522fe6d99615b2 -->
<g id="edge5" class="edge">
<title>dir_83658e075a4ab7b2cbb8779471289882&#45;&gt;dir_2239b1117054295ada522fe6d99615b2</title>
<path fill="none" stroke="black" d="M99.93,-132.1C105.27,-142.44 112.14,-155.92 118,-168 128.14,-188.92 139.14,-212.88 147.19,-230.66"/>
<polygon fill="black" stroke="black" points="144.04,-232.17 151.34,-239.84 150.42,-229.29 144.04,-232.17"/>
<g id="a_edge5&#45;headlabel"><a xlink:href="dir_000009_000003.html" target="_top" xlink:title="3">
<text text-anchor="middle" x="139.97" y="-227.56" font-family="Helvetica,sans-Serif" font-size="10.00">3</text>
</a>
</g>
</g>
<!-- dir_83658e075a4ab7b2cbb8779471289882&#45;&gt;dir_96320550a29baac38dc9eb0ae89f5e73 -->
<g id="edge7" class="edge">
<title>dir_83658e075a4ab7b2cbb8779471289882&#45;&gt;dir_96320550a29baac38dc9eb0ae89f5e73</title>
<path fill="none" stroke="black" d="M118.34,-128.44C135.24,-138 156.84,-151.07 174.3,-162.24"/>
<polygon fill="black" stroke="black" points="172.71,-165.38 183.01,-167.88 176.52,-159.5 172.71,-165.38"/>
<g id="a_edge7&#45;headlabel"><a xlink:href="dir_000009_000025.html" target="_top" xlink:title="3">
<text text-anchor="middle" x="168.15" y="-163.31" font-family="Helvetica,sans-Serif" font-size="10.00">3</text>
</a>
</g>
</g>
<!-- dir_83658e075a4ab7b2cbb8779471289882&#45;&gt;dir_26247a4c7d21a73996b8a7832c1a1463 -->
<g id="edge6" class="edge">
<title>dir_83658e075a4ab7b2cbb8779471289882&#45;&gt;dir_26247a4c7d21a73996b8a7832c1a1463</title>
<path fill="none" stroke="black" d="M86.06,-95.7C83.83,-87.9 81.15,-78.51 78.67,-69.83"/>
<polygon fill="black" stroke="black" points="82,-68.76 75.89,-60.1 75.27,-70.68 82,-68.76"/>
<g id="a_edge6&#45;headlabel"><a xlink:href="dir_000009_000028.html" target="_top" xlink:title="2">
<text text-anchor="middle" x="85.72" y="-68.93" font-family="Helvetica,sans-Serif" font-size="10.00">2</text>
</a>
</g>
</g>
<!-- dir_c42d739f81e7f8c788f3b0a5285dd299 -->
<g id="node6" class="node">
<title>dir_c42d739f81e7f8c788f3b0a5285dd299</title>
<g id="a_node6"><a xlink:href="dir_c42d739f81e7f8c788f3b0a5285dd299.html" target="_top" xlink:title="log">
<polygon fill="white" stroke="black" points="105,-276 51,-276 51,-240 105,-240 105,-276"/>
<text text-anchor="middle" x="78" y="-255.5" font-family="Helvetica,sans-Serif" font-size="10.00">log</text>
</a>
</g>
</g>
<!-- dir_699f9106423e7a7cab26b00d3847951b -->
<g id="node7" class="node">
<title>dir_699f9106423e7a7cab26b00d3847951b</title>
<g id="a_node7"><a xlink:href="dir_699f9106423e7a7cab26b00d3847951b.html" target="_top" xlink:title="robotics">
<polygon fill="white" stroke="black" points="109,-204 53,-204 53,-168 109,-168 109,-204"/>
<text text-anchor="middle" x="81" y="-183.5" font-family="Helvetica,sans-Serif" font-size="10.00">robotics</text>
</a>
</g>
</g>
<!-- dir_699f9106423e7a7cab26b00d3847951b&#45;&gt;dir_83658e075a4ab7b2cbb8779471289882 -->
<g id="edge14" class="edge">
<title>dir_699f9106423e7a7cab26b00d3847951b&#45;&gt;dir_83658e075a4ab7b2cbb8779471289882</title>
<path fill="none" stroke="black" d="M83.47,-167.7C84.57,-159.98 85.9,-150.71 87.13,-142.11"/>
<polygon fill="black" stroke="black" points="90.61,-142.5 88.56,-132.1 83.68,-141.51 90.61,-142.5"/>
<g id="a_edge14&#45;headlabel"><a xlink:href="dir_000024_000009.html" target="_top" xlink:title="1">
<text text-anchor="middle" x="92.91" y="-143.96" font-family="Helvetica,sans-Serif" font-size="10.00">1</text>
</a>
</g>
</g>
<!-- dir_699f9106423e7a7cab26b00d3847951b&#45;&gt;dir_26247a4c7d21a73996b8a7832c1a1463 -->
<g id="edge13" class="edge">
<title>dir_699f9106423e7a7cab26b00d3847951b&#45;&gt;dir_26247a4c7d21a73996b8a7832c1a1463</title>
<path fill="none" stroke="black" d="M69.95,-167.61C64.26,-157.62 57.92,-144.58 55,-132 50.19,-111.29 54.95,-87.59 60.5,-69.85"/>
<polygon fill="black" stroke="black" points="63.88,-70.76 63.79,-60.17 57.26,-68.51 63.88,-70.76"/>
<g id="a_edge13&#45;headlabel"><a xlink:href="dir_000024_000028.html" target="_top" xlink:title="1">
<text text-anchor="middle" x="65.42" y="-72.58" font-family="Helvetica,sans-Serif" font-size="10.00">1</text>
</a>
</g>
</g>
<!-- dir_96320550a29baac38dc9eb0ae89f5e73&#45;&gt;dir_76fd7680a09542374d3e212281ba6ee2 -->
<g id="edge10" class="edge">
<title>dir_96320550a29baac38dc9eb0ae89f5e73&#45;&gt;dir_76fd7680a09542374d3e212281ba6ee2</title>
<path fill="none" stroke="black" d="M232.19,-171.5C252.09,-161.62 279.52,-148.01 302.46,-136.62"/>
<polygon fill="black" stroke="black" points="304.25,-139.63 311.65,-132.05 301.14,-133.36 304.25,-139.63"/>
<g id="a_edge10&#45;headlabel"><a xlink:href="dir_000025_000008.html" target="_top" xlink:title="2">
<text text-anchor="middle" x="302.3" y="-141.27" font-family="Helvetica,sans-Serif" font-size="10.00">2</text>
</a>
</g>
</g>
<!-- dir_96320550a29baac38dc9eb0ae89f5e73&#45;&gt;dir_83658e075a4ab7b2cbb8779471289882 -->
<g id="edge12" class="edge">
<title>dir_96320550a29baac38dc9eb0ae89f5e73&#45;&gt;dir_83658e075a4ab7b2cbb8779471289882</title>
<path fill="none" stroke="black" d="M177.85,-171.67C160.88,-162.08 139.11,-148.9 121.56,-137.67"/>
<polygon fill="black" stroke="black" points="123.1,-134.5 112.81,-132 119.3,-140.38 123.1,-134.5"/>
<g id="a_edge12&#45;headlabel"><a xlink:href="dir_000025_000009.html" target="_top" xlink:title="1">
<text text-anchor="middle" x="127.66" y="-131.57" font-family="Helvetica,sans-Serif" font-size="10.00">1</text>
</a>
</g>
</g>
<!-- dir_96320550a29baac38dc9eb0ae89f5e73&#45;&gt;dir_7913872ef1e9131c7a4facddec50fb6b -->
<g id="edge11" class="edge">
<title>dir_96320550a29baac38dc9eb0ae89f5e73&#45;&gt;dir_7913872ef1e9131c7a4facddec50fb6b</title>
<path fill="none" stroke="black" d="M194.62,-167.7C189.74,-159.56 183.81,-149.69 178.42,-140.7"/>
<polygon fill="black" stroke="black" points="181.41,-138.88 173.26,-132.1 175.41,-142.48 181.41,-138.88"/>
<g id="a_edge11&#45;headlabel"><a xlink:href="dir_000025_000010.html" target="_top" xlink:title="3">
<text text-anchor="middle" x="185.69" y="-138" font-family="Helvetica,sans-Serif" font-size="10.00">3</text>
</a>
</g>
</g>
<!-- dir_1367935105ebc251618457953f8d2b80 -->
<g id="node9" class="node">
<title>dir_1367935105ebc251618457953f8d2b80</title>
<g id="a_node9"><a xlink:href="dir_1367935105ebc251618457953f8d2b80.html" target="_top" xlink:title="time">
<polygon fill="white" stroke="black" points="262,-132 208,-132 208,-96 262,-96 262,-132"/>
<text text-anchor="middle" x="235" y="-111.5" font-family="Helvetica,sans-Serif" font-size="10.00">time</text>
</a>
</g>
</g>
<!-- dir_96320550a29baac38dc9eb0ae89f5e73&#45;&gt;dir_1367935105ebc251618457953f8d2b80 -->
<g id="edge8" class="edge">
<title>dir_96320550a29baac38dc9eb0ae89f5e73&#45;&gt;dir_1367935105ebc251618457953f8d2b80</title>
<path fill="none" stroke="black" d="M212.42,-167.7C215.79,-159.81 219.87,-150.3 223.62,-141.55"/>
<polygon fill="black" stroke="black" points="226.95,-142.67 227.67,-132.1 220.51,-139.92 226.95,-142.67"/>
<g id="a_edge8&#45;headlabel"><a xlink:href="dir_000025_000027.html" target="_top" xlink:title="1">
<text text-anchor="middle" x="228.14" y="-144.6" font-family="Helvetica,sans-Serif" font-size="10.00">1</text>
</a>
</g>
</g>
<!-- dir_96320550a29baac38dc9eb0ae89f5e73&#45;&gt;dir_26247a4c7d21a73996b8a7832c1a1463 -->
<g id="edge9" class="edge">
<title>dir_96320550a29baac38dc9eb0ae89f5e73&#45;&gt;dir_26247a4c7d21a73996b8a7832c1a1463</title>
<path fill="none" stroke="black" d="M232.24,-171.01C246.62,-162 262.93,-148.83 271,-132 277.92,-117.57 280.76,-108.68 271,-96 251.33,-70.43 160.8,-54.65 108.53,-47.51"/>
<polygon fill="black" stroke="black" points="108.68,-44 98.31,-46.16 107.76,-50.94 108.68,-44"/>
<g id="a_edge9&#45;headlabel"><a xlink:href="dir_000025_000028.html" target="_top" xlink:title="2">
<text text-anchor="middle" x="112.62" y="-39.16" font-family="Helvetica,sans-Serif" font-size="10.00">2</text>
</a>
</g>
</g>
</g>
</svg>
