<?xml version="1.0" encoding="UTF-8" standalone="no"?>
<!DOCTYPE svg PUBLIC "-//W3C//DTD SVG 1.1//EN"
 "http://www.w3.org/Graphics/SVG/1.1/DTD/svg11.dtd">
<!-- Generated by graphviz version 2.43.0 (0)
 -->
<!-- Title: alps_ros2_lib/include/alps_ros2 Pages: 1 -->
<svg width="446pt" height="159pt"
 viewBox="0.00 0.00 446.00 159.00" xmlns="http://www.w3.org/2000/svg" xmlns:xlink="http://www.w3.org/1999/xlink">
<g id="graph0" class="graph" transform="scale(1 1) rotate(0) translate(4 155)">
<title>alps_ros2_lib/include/alps_ros2</title>
<polygon fill="white" stroke="transparent" points="-4,4 -4,-155 442,-155 442,4 -4,4"/>
<g id="clust1" class="cluster">
<title>clusterdir_d90eac5d112df8937e227330719f4f85</title>
<g id="a_clust1"><a xlink:href="dir_d90eac5d112df8937e227330719f4f85.html" target="_top" xlink:title="include">
<polygon fill="#ddddee" stroke="black" points="8,-56 8,-143 430,-143 430,-56 8,-56"/>
<text text-anchor="middle" x="219" y="-131" font-family="Helvetica,sans-Serif" font-size="10.00">include</text>
</a>
</g>
</g>
<g id="clust2" class="cluster">
<title>clusterdir_c1e6a71faa0eb7f68193916a54ca9466</title>
<g id="a_clust2"><a xlink:href="dir_c1e6a71faa0eb7f68193916a54ca9466.html" target="_top">
<polygon fill="#eeeeff" stroke="black" points="16,-64 16,-116 422,-116 422,-64 16,-64"/>
</a>
</g>
</g>
<!-- dir_c1e6a71faa0eb7f68193916a54ca9466 -->
<g id="node1" class="node">
<title>dir_c1e6a71faa0eb7f68193916a54ca9466</title>
<text text-anchor="middle" x="382" y="-87.5" font-family="Helvetica,sans-Serif" font-size="10.00">alps_ros2</text>
</g>
<!-- dir_ed551a56b1c4fafaf4bd37570c44b109 -->
<g id="node2" class="node">
<title>dir_ed551a56b1c4fafaf4bd37570c44b109</title>
<g id="a_node2"><a xlink:href="dir_ed551a56b1c4fafaf4bd37570c44b109.html" target="_top" xlink:title="communication">
<polygon fill="white" stroke="black" points="332,-108 240,-108 240,-72 332,-72 332,-108"/>
<text text-anchor="middle" x="286" y="-87.5" font-family="Helvetica,sans-Serif" font-size="10.00">communication</text>
</a>
</g>
</g>
<!-- dir_fcd1ba41f8679fcc7bf76d667eaa0e17 -->
<g id="node6" class="node">
<title>dir_fcd1ba41f8679fcc7bf76d667eaa0e17</title>
<g id="a_node6"><a xlink:href="dir_fcd1ba41f8679fcc7bf76d667eaa0e17.html" target="_top" xlink:title="alps_common_lib">
<polygon fill="white" stroke="red" points="291,-36 189,-36 189,0 291,0 291,-36"/>
<text text-anchor="middle" x="240" y="-15.5" font-family="Helvetica,sans-Serif" font-size="10.00">alps_common_lib</text>
</a>
</g>
</g>
<!-- dir_ed551a56b1c4fafaf4bd37570c44b109&#45;&gt;dir_fcd1ba41f8679fcc7bf76d667eaa0e17 -->
<g id="edge1" class="edge">
<title>dir_ed551a56b1c4fafaf4bd37570c44b109&#45;&gt;dir_fcd1ba41f8679fcc7bf76d667eaa0e17</title>
<path fill="none" stroke="black" d="M274.63,-71.7C269.28,-63.56 262.8,-53.69 256.89,-44.7"/>
<polygon fill="black" stroke="black" points="259.66,-42.54 251.24,-36.1 253.81,-46.38 259.66,-42.54"/>
<g id="a_edge1&#45;headlabel"><a xlink:href="dir_000035_000000.html" target="_top" xlink:title="1">
<text text-anchor="middle" x="264" y="-41.48" font-family="Helvetica,sans-Serif" font-size="10.00">1</text>
</a>
</g>
</g>
<!-- dir_df0890f898911121f5aab2c6fb7e4077 -->
<g id="node3" class="node">
<title>dir_df0890f898911121f5aab2c6fb7e4077</title>
<g id="a_node3"><a xlink:href="dir_df0890f898911121f5aab2c6fb7e4077.html" target="_top" xlink:title="log">
<polygon fill="white" stroke="black" points="222,-108 168,-108 168,-72 222,-72 222,-108"/>
<text text-anchor="middle" x="195" y="-87.5" font-family="Helvetica,sans-Serif" font-size="10.00">log</text>
</a>
</g>
</g>
<!-- dir_df0890f898911121f5aab2c6fb7e4077&#45;&gt;dir_fcd1ba41f8679fcc7bf76d667eaa0e17 -->
<g id="edge2" class="edge">
<title>dir_df0890f898911121f5aab2c6fb7e4077&#45;&gt;dir_fcd1ba41f8679fcc7bf76d667eaa0e17</title>
<path fill="none" stroke="black" d="M206.12,-71.7C211.36,-63.56 217.7,-53.69 223.48,-44.7"/>
<polygon fill="black" stroke="black" points="226.54,-46.41 229,-36.1 220.65,-42.62 226.54,-46.41"/>
<g id="a_edge2&#45;headlabel"><a xlink:href="dir_000034_000000.html" target="_top" xlink:title="1">
<text text-anchor="middle" x="226.99" y="-48.47" font-family="Helvetica,sans-Serif" font-size="10.00">1</text>
</a>
</g>
</g>
<!-- dir_1f337407fa66791c1f72ce9c082d3c68 -->
<g id="node4" class="node">
<title>dir_1f337407fa66791c1f72ce9c082d3c68</title>
<g id="a_node4"><a xlink:href="dir_1f337407fa66791c1f72ce9c082d3c68.html" target="_top" xlink:title="ui">
<polygon fill="white" stroke="black" points="150,-108 96,-108 96,-72 150,-72 150,-108"/>
<text text-anchor="middle" x="123" y="-87.5" font-family="Helvetica,sans-Serif" font-size="10.00">ui</text>
</a>
</g>
</g>
<!-- dir_cf0d49a49a49da5399731e8fbf77790f -->
<g id="node5" class="node">
<title>dir_cf0d49a49a49da5399731e8fbf77790f</title>
<g id="a_node5"><a xlink:href="dir_cf0d49a49a49da5399731e8fbf77790f.html" target="_top" xlink:title="util">
<polygon fill="white" stroke="black" points="78,-108 24,-108 24,-72 78,-72 78,-108"/>
<text text-anchor="middle" x="51" y="-87.5" font-family="Helvetica,sans-Serif" font-size="10.00">util</text>
</a>
</g>
</g>
</g>
</svg>
