<?xml version="1.0" encoding="UTF-8" standalone="no"?>
<!DOCTYPE svg PUBLIC "-//W3C//DTD SVG 1.1//EN"
 "http://www.w3.org/Graphics/SVG/1.1/DTD/svg11.dtd">
<!-- Generated by graphviz version 2.43.0 (0)
 -->
<!-- Title: alps_core/lib_internal/alps_common_lib/include/alps_cmn Pages: 1 -->
<svg width="412pt" height="543pt"
 viewBox="0.00 0.00 412.00 543.00" xmlns="http://www.w3.org/2000/svg" xmlns:xlink="http://www.w3.org/1999/xlink">
<g id="graph0" class="graph" transform="scale(1 1) rotate(0) translate(4 539)">
<title>alps_core/lib_internal/alps_common_lib/include/alps_cmn</title>
<polygon fill="white" stroke="transparent" points="-4,4 -4,-539 408,-539 408,4 -4,4"/>
<g id="clust1" class="cluster">
<title>clusterdir_2b777a74a5ff5221077a83a37cc87235</title>
<g id="a_clust1"><a xlink:href="dir_2b777a74a5ff5221077a83a37cc87235.html" target="_top" xlink:title="include">
<polygon fill="#ddddee" stroke="black" points="8,-8 8,-527 396,-527 396,-8 8,-8"/>
<text text-anchor="middle" x="202" y="-515" font-family="Helvetica,sans-Serif" font-size="10.00">include</text>
</a>
</g>
</g>
<g id="clust2" class="cluster">
<title>clusterdir_664123f27b70b10eeac81c10039fb160</title>
<g id="a_clust2"><a xlink:href="dir_664123f27b70b10eeac81c10039fb160.html" target="_top">
<polygon fill="#eeeeff" stroke="black" points="16,-16 16,-500 388,-500 388,-16 16,-16"/>
</a>
</g>
</g>
<!-- dir_664123f27b70b10eeac81c10039fb160 -->
<g id="node1" class="node">
<title>dir_664123f27b70b10eeac81c10039fb160</title>
<text text-anchor="middle" x="340" y="-471.5" font-family="Helvetica,sans-Serif" font-size="10.00">alps_cmn</text>
</g>
<!-- dir_98805e936c7cb41c7fc1bd0592aaf3bd -->
<g id="node2" class="node">
<title>dir_98805e936c7cb41c7fc1bd0592aaf3bd</title>
<g id="a_node2"><a xlink:href="dir_98805e936c7cb41c7fc1bd0592aaf3bd.html" target="_top" xlink:title="actuator">
<polygon fill="white" stroke="black" points="235.5,-420 178.5,-420 178.5,-384 235.5,-384 235.5,-420"/>
<text text-anchor="middle" x="207" y="-399.5" font-family="Helvetica,sans-Serif" font-size="10.00">actuator</text>
</a>
</g>
</g>
<!-- dir_5bbbaec82e60c1c95ef5795854749336 -->
<g id="node3" class="node">
<title>dir_5bbbaec82e60c1c95ef5795854749336</title>
<g id="a_node3"><a xlink:href="dir_5bbbaec82e60c1c95ef5795854749336.html" target="_top" xlink:title="communication">
<polygon fill="white" stroke="black" points="156,-204 64,-204 64,-168 156,-168 156,-204"/>
<text text-anchor="middle" x="110" y="-183.5" font-family="Helvetica,sans-Serif" font-size="10.00">communication</text>
</a>
</g>
</g>
<!-- dir_98805e936c7cb41c7fc1bd0592aaf3bd&#45;&gt;dir_5bbbaec82e60c1c95ef5795854749336 -->
<g id="edge3" class="edge">
<title>dir_98805e936c7cb41c7fc1bd0592aaf3bd&#45;&gt;dir_5bbbaec82e60c1c95ef5795854749336</title>
<path fill="none" stroke="black" d="M193.15,-383.57C185.63,-373.56 176.57,-360.52 170,-348 146.37,-302.95 127.6,-246.47 117.69,-213.78"/>
<polygon fill="black" stroke="black" points="121,-212.64 114.8,-204.05 114.3,-214.64 121,-212.64"/>
<g id="a_edge3&#45;headlabel"><a xlink:href="dir_000005_000010.html" target="_top" xlink:title="1">
<text text-anchor="middle" x="124.75" y="-212.77" font-family="Helvetica,sans-Serif" font-size="10.00">1</text>
</a>
</g>
</g>
<!-- dir_b6cd085f17e89cb6278eb6f5ecd32d39 -->
<g id="node4" class="node">
<title>dir_b6cd085f17e89cb6278eb6f5ecd32d39</title>
<g id="a_node4"><a xlink:href="dir_b6cd085f17e89cb6278eb6f5ecd32d39.html" target="_top" xlink:title="control">
<polygon fill="white" stroke="black" points="328,-348 274,-348 274,-312 328,-312 328,-348"/>
<text text-anchor="middle" x="301" y="-327.5" font-family="Helvetica,sans-Serif" font-size="10.00">control</text>
</a>
</g>
</g>
<!-- dir_98805e936c7cb41c7fc1bd0592aaf3bd&#45;&gt;dir_b6cd085f17e89cb6278eb6f5ecd32d39 -->
<g id="edge5" class="edge">
<title>dir_98805e936c7cb41c7fc1bd0592aaf3bd&#45;&gt;dir_b6cd085f17e89cb6278eb6f5ecd32d39</title>
<path fill="none" stroke="black" d="M224.32,-383.7C235.88,-374.38 251.31,-362.78 265.36,-352.85"/>
<polygon fill="black" stroke="black" points="267.67,-355.5 273.88,-346.91 263.67,-349.76 267.67,-355.5"/>
<g id="a_edge5&#45;headlabel"><a xlink:href="dir_000005_000011.html" target="_top" xlink:title="1">
<text text-anchor="middle" x="266.35" y="-357.38" font-family="Helvetica,sans-Serif" font-size="10.00">1</text>
</a>
</g>
</g>
<!-- dir_93f5cc57b76a8a4cabb5571679917938 -->
<g id="node5" class="node">
<title>dir_93f5cc57b76a8a4cabb5571679917938</title>
<g id="a_node5"><a xlink:href="dir_93f5cc57b76a8a4cabb5571679917938.html" target="_top" xlink:title="gpio">
<polygon fill="white" stroke="black" points="248,-204 194,-204 194,-168 248,-168 248,-204"/>
<text text-anchor="middle" x="221" y="-183.5" font-family="Helvetica,sans-Serif" font-size="10.00">gpio</text>
</a>
</g>
</g>
<!-- dir_98805e936c7cb41c7fc1bd0592aaf3bd&#45;&gt;dir_93f5cc57b76a8a4cabb5571679917938 -->
<g id="edge4" class="edge">
<title>dir_98805e936c7cb41c7fc1bd0592aaf3bd&#45;&gt;dir_93f5cc57b76a8a4cabb5571679917938</title>
<path fill="none" stroke="black" d="M206.27,-383.54C205.26,-353.91 204.18,-291.95 210,-240 210.96,-231.46 212.63,-222.27 214.39,-213.97"/>
<polygon fill="black" stroke="black" points="217.84,-214.58 216.62,-204.06 211.01,-213.05 217.84,-214.58"/>
<g id="a_edge4&#45;headlabel"><a xlink:href="dir_000005_000012.html" target="_top" xlink:title="4">
<text text-anchor="middle" x="219.83" y="-216.21" font-family="Helvetica,sans-Serif" font-size="10.00">4</text>
</a>
</g>
</g>
<!-- dir_d7b6a63eed36fea2858d2aa41ca33f02 -->
<g id="node6" class="node">
<title>dir_d7b6a63eed36fea2858d2aa41ca33f02</title>
<g id="a_node6"><a xlink:href="dir_d7b6a63eed36fea2858d2aa41ca33f02.html" target="_top" xlink:title="log">
<polygon fill="white" stroke="black" points="78,-132 24,-132 24,-96 78,-96 78,-132"/>
<text text-anchor="middle" x="51" y="-111.5" font-family="Helvetica,sans-Serif" font-size="10.00">log</text>
</a>
</g>
</g>
<!-- dir_98805e936c7cb41c7fc1bd0592aaf3bd&#45;&gt;dir_d7b6a63eed36fea2858d2aa41ca33f02 -->
<g id="edge7" class="edge">
<title>dir_98805e936c7cb41c7fc1bd0592aaf3bd&#45;&gt;dir_d7b6a63eed36fea2858d2aa41ca33f02</title>
<path fill="none" stroke="black" d="M186.68,-383.79C151.43,-352.39 80.29,-281.86 55,-204 48.52,-184.05 47.78,-160.26 48.52,-142.3"/>
<polygon fill="black" stroke="black" points="52.02,-142.4 49.12,-132.21 45.04,-141.99 52.02,-142.4"/>
<g id="a_edge7&#45;headlabel"><a xlink:href="dir_000005_000013.html" target="_top" xlink:title="1">
<text text-anchor="middle" x="54.65" y="-143.65" font-family="Helvetica,sans-Serif" font-size="10.00">1</text>
</a>
</g>
</g>
<!-- dir_1585cb1296de2c4dde76500afa886952 -->
<g id="node8" class="node">
<title>dir_1585cb1296de2c4dde76500afa886952</title>
<g id="a_node8"><a xlink:href="dir_1585cb1296de2c4dde76500afa886952.html" target="_top" xlink:title="sensor">
<polygon fill="white" stroke="black" points="289,-276 235,-276 235,-240 289,-240 289,-276"/>
<text text-anchor="middle" x="262" y="-255.5" font-family="Helvetica,sans-Serif" font-size="10.00">sensor</text>
</a>
</g>
</g>
<!-- dir_98805e936c7cb41c7fc1bd0592aaf3bd&#45;&gt;dir_1585cb1296de2c4dde76500afa886952 -->
<g id="edge1" class="edge">
<title>dir_98805e936c7cb41c7fc1bd0592aaf3bd&#45;&gt;dir_1585cb1296de2c4dde76500afa886952</title>
<path fill="none" stroke="black" d="M213.63,-383.87C223.09,-359.46 240.53,-314.43 251.68,-285.64"/>
<polygon fill="black" stroke="black" points="254.99,-286.78 255.34,-276.19 248.47,-284.25 254.99,-286.78"/>
<g id="a_edge1&#45;headlabel"><a xlink:href="dir_000005_000027.html" target="_top" xlink:title="1">
<text text-anchor="middle" x="256.34" y="-288.66" font-family="Helvetica,sans-Serif" font-size="10.00">1</text>
</a>
</g>
</g>
<!-- dir_d33103ac168077bdcd2b65f79896931a -->
<g id="node9" class="node">
<title>dir_d33103ac168077bdcd2b65f79896931a</title>
<g id="a_node9"><a xlink:href="dir_d33103ac168077bdcd2b65f79896931a.html" target="_top" xlink:title="time">
<polygon fill="white" stroke="black" points="294,-60 240,-60 240,-24 294,-24 294,-60"/>
<text text-anchor="middle" x="267" y="-39.5" font-family="Helvetica,sans-Serif" font-size="10.00">time</text>
</a>
</g>
</g>
<!-- dir_98805e936c7cb41c7fc1bd0592aaf3bd&#45;&gt;dir_d33103ac168077bdcd2b65f79896931a -->
<g id="edge6" class="edge">
<title>dir_98805e936c7cb41c7fc1bd0592aaf3bd&#45;&gt;dir_d33103ac168077bdcd2b65f79896931a</title>
<path fill="none" stroke="black" d="M200.52,-383.79C191.17,-357.36 175,-304.99 175,-259 175,-259 175,-259 175,-185 175,-137.47 211.75,-93.3 238.79,-67.23"/>
<polygon fill="black" stroke="black" points="241.21,-69.76 246.12,-60.37 236.43,-64.65 241.21,-69.76"/>
<g id="a_edge6&#45;headlabel"><a xlink:href="dir_000005_000029.html" target="_top" xlink:title="3">
<text text-anchor="middle" x="240.53" y="-71.79" font-family="Helvetica,sans-Serif" font-size="10.00">3</text>
</a>
</g>
</g>
<!-- dir_232aac153d804cfbbc85dc0a0fa07463 -->
<g id="node12" class="node">
<title>dir_232aac153d804cfbbc85dc0a0fa07463</title>
<g id="a_node12"><a xlink:href="dir_232aac153d804cfbbc85dc0a0fa07463.html" target="_top" xlink:title="util">
<polygon fill="white" stroke="black" points="340,-204 286,-204 286,-168 340,-168 340,-204"/>
<text text-anchor="middle" x="313" y="-183.5" font-family="Helvetica,sans-Serif" font-size="10.00">util</text>
</a>
</g>
</g>
<!-- dir_98805e936c7cb41c7fc1bd0592aaf3bd&#45;&gt;dir_232aac153d804cfbbc85dc0a0fa07463 -->
<g id="edge2" class="edge">
<title>dir_98805e936c7cb41c7fc1bd0592aaf3bd&#45;&gt;dir_232aac153d804cfbbc85dc0a0fa07463</title>
<path fill="none" stroke="black" d="M208.18,-383.84C210.97,-344.83 218.34,-251.93 226,-240 237.79,-221.62 258.45,-208.64 276.68,-200.13"/>
<polygon fill="black" stroke="black" points="278.17,-203.3 285.93,-196.08 275.36,-196.88 278.17,-203.3"/>
<g id="a_edge2&#45;headlabel"><a xlink:href="dir_000005_000032.html" target="_top" xlink:title="7">
<text text-anchor="middle" x="276.02" y="-204.84" font-family="Helvetica,sans-Serif" font-size="10.00">7</text>
</a>
</g>
</g>
<!-- dir_5bbbaec82e60c1c95ef5795854749336&#45;&gt;dir_d7b6a63eed36fea2858d2aa41ca33f02 -->
<g id="edge26" class="edge">
<title>dir_5bbbaec82e60c1c95ef5795854749336&#45;&gt;dir_d7b6a63eed36fea2858d2aa41ca33f02</title>
<path fill="none" stroke="black" d="M95.42,-167.7C88.34,-159.3 79.72,-149.07 71.95,-139.86"/>
<polygon fill="black" stroke="black" points="74.54,-137.49 65.42,-132.1 69.19,-142.01 74.54,-137.49"/>
<g id="a_edge26&#45;headlabel"><a xlink:href="dir_000010_000013.html" target="_top" xlink:title="1">
<text text-anchor="middle" x="79.03" y="-135.91" font-family="Helvetica,sans-Serif" font-size="10.00">1</text>
</a>
</g>
</g>
<!-- dir_28f821d546ace6ab9b8c5a81f47cb6c0 -->
<g id="node11" class="node">
<title>dir_28f821d546ace6ab9b8c5a81f47cb6c0</title>
<g id="a_node11"><a xlink:href="dir_28f821d546ace6ab9b8c5a81f47cb6c0.html" target="_top" xlink:title="type">
<polygon fill="white" stroke="black" points="153,-132 99,-132 99,-96 153,-96 153,-132"/>
<text text-anchor="middle" x="126" y="-111.5" font-family="Helvetica,sans-Serif" font-size="10.00">type</text>
</a>
</g>
</g>
<!-- dir_5bbbaec82e60c1c95ef5795854749336&#45;&gt;dir_28f821d546ace6ab9b8c5a81f47cb6c0 -->
<g id="edge25" class="edge">
<title>dir_5bbbaec82e60c1c95ef5795854749336&#45;&gt;dir_28f821d546ace6ab9b8c5a81f47cb6c0</title>
<path fill="none" stroke="black" d="M113.96,-167.7C115.72,-159.98 117.84,-150.71 119.8,-142.11"/>
<polygon fill="black" stroke="black" points="123.27,-142.63 122.09,-132.1 116.45,-141.07 123.27,-142.63"/>
<g id="a_edge25&#45;headlabel"><a xlink:href="dir_000010_000031.html" target="_top" xlink:title="2">
<text text-anchor="middle" x="125.24" y="-144.27" font-family="Helvetica,sans-Serif" font-size="10.00">2</text>
</a>
</g>
</g>
<!-- dir_b6cd085f17e89cb6278eb6f5ecd32d39&#45;&gt;dir_98805e936c7cb41c7fc1bd0592aaf3bd -->
<g id="edge18" class="edge">
<title>dir_b6cd085f17e89cb6278eb6f5ecd32d39&#45;&gt;dir_98805e936c7cb41c7fc1bd0592aaf3bd</title>
<path fill="none" stroke="black" d="M284.02,-348.03C272.8,-357.09 257.84,-368.36 244.03,-378.17"/>
<polygon fill="black" stroke="black" points="241.81,-375.45 235.63,-384.05 245.83,-381.18 241.81,-375.45"/>
<g id="a_edge18&#45;headlabel"><a xlink:href="dir_000011_000005.html" target="_top" xlink:title="4">
<text text-anchor="middle" x="243.13" y="-368.56" font-family="Helvetica,sans-Serif" font-size="10.00">4</text>
</a>
</g>
</g>
<!-- dir_b6cd085f17e89cb6278eb6f5ecd32d39&#45;&gt;dir_1585cb1296de2c4dde76500afa886952 -->
<g id="edge16" class="edge">
<title>dir_b6cd085f17e89cb6278eb6f5ecd32d39&#45;&gt;dir_1585cb1296de2c4dde76500afa886952</title>
<path fill="none" stroke="black" d="M285.44,-311.7C280.18,-303.73 274.6,-294.1 270.07,-285.26"/>
<polygon fill="black" stroke="black" points="273.15,-283.58 265.63,-276.1 266.85,-286.63 273.15,-283.58"/>
<g id="a_edge16&#45;headlabel"><a xlink:href="dir_000011_000027.html" target="_top" xlink:title="4">
<text text-anchor="middle" x="277.27" y="-283.07" font-family="Helvetica,sans-Serif" font-size="10.00">4</text>
</a>
</g>
</g>
<!-- dir_b6cd085f17e89cb6278eb6f5ecd32d39&#45;&gt;dir_d33103ac168077bdcd2b65f79896931a -->
<g id="edge19" class="edge">
<title>dir_b6cd085f17e89cb6278eb6f5ecd32d39&#45;&gt;dir_d33103ac168077bdcd2b65f79896931a</title>
<path fill="none" stroke="black" d="M312.98,-311.61C331.8,-282.08 364.61,-220.26 349,-168 337.5,-129.52 309.94,-91.88 289.94,-68.13"/>
<polygon fill="black" stroke="black" points="292.4,-65.62 283.22,-60.33 287.09,-70.19 292.4,-65.62"/>
<g id="a_edge19&#45;headlabel"><a xlink:href="dir_000011_000029.html" target="_top" xlink:title="4">
<text text-anchor="middle" x="296.89" y="-63.99" font-family="Helvetica,sans-Serif" font-size="10.00">4</text>
</a>
</g>
</g>
<!-- dir_b6cd085f17e89cb6278eb6f5ecd32d39&#45;&gt;dir_232aac153d804cfbbc85dc0a0fa07463 -->
<g id="edge17" class="edge">
<title>dir_b6cd085f17e89cb6278eb6f5ecd32d39&#45;&gt;dir_232aac153d804cfbbc85dc0a0fa07463</title>
<path fill="none" stroke="black" d="M302.45,-311.87C304.49,-287.67 308.25,-243.21 310.69,-214.39"/>
<polygon fill="black" stroke="black" points="314.19,-214.45 311.55,-204.19 307.22,-213.86 314.19,-214.45"/>
<g id="a_edge17&#45;headlabel"><a xlink:href="dir_000011_000032.html" target="_top" xlink:title="4">
<text text-anchor="middle" x="316.72" y="-215.77" font-family="Helvetica,sans-Serif" font-size="10.00">4</text>
</a>
</g>
</g>
<!-- dir_04517956a249c5a3c73c0c786c61cfd1 -->
<g id="node7" class="node">
<title>dir_04517956a249c5a3c73c0c786c61cfd1</title>
<g id="a_node7"><a xlink:href="dir_04517956a249c5a3c73c0c786c61cfd1.html" target="_top" xlink:title="robot">
<polygon fill="white" stroke="black" points="357,-420 303,-420 303,-384 357,-384 357,-420"/>
<text text-anchor="middle" x="330" y="-399.5" font-family="Helvetica,sans-Serif" font-size="10.00">robot</text>
</a>
</g>
</g>
<!-- dir_04517956a249c5a3c73c0c786c61cfd1&#45;&gt;dir_b6cd085f17e89cb6278eb6f5ecd32d39 -->
<g id="edge15" class="edge">
<title>dir_04517956a249c5a3c73c0c786c61cfd1&#45;&gt;dir_b6cd085f17e89cb6278eb6f5ecd32d39</title>
<path fill="none" stroke="black" d="M322.83,-383.7C319.57,-375.81 315.63,-366.3 312,-357.55"/>
<polygon fill="black" stroke="black" points="315.15,-356 308.09,-348.1 308.68,-358.68 315.15,-356"/>
<g id="a_edge15&#45;headlabel"><a xlink:href="dir_000026_000011.html" target="_top" xlink:title="1">
<text text-anchor="middle" x="319.15" y="-355.74" font-family="Helvetica,sans-Serif" font-size="10.00">1</text>
</a>
</g>
</g>
<!-- dir_04517956a249c5a3c73c0c786c61cfd1&#45;&gt;dir_232aac153d804cfbbc85dc0a0fa07463 -->
<g id="edge14" class="edge">
<title>dir_04517956a249c5a3c73c0c786c61cfd1&#45;&gt;dir_232aac153d804cfbbc85dc0a0fa07463</title>
<path fill="none" stroke="black" d="M332.84,-383.87C334.42,-373.52 336.21,-360.04 337,-348 338.05,-332.03 338.52,-327.93 337,-312 333.76,-277.93 325.66,-239.33 319.76,-214.16"/>
<polygon fill="black" stroke="black" points="323.12,-213.15 317.39,-204.24 316.31,-214.78 323.12,-213.15"/>
<g id="a_edge14&#45;headlabel"><a xlink:href="dir_000026_000032.html" target="_top" xlink:title="1">
<text text-anchor="middle" x="326.71" y="-213.49" font-family="Helvetica,sans-Serif" font-size="10.00">1</text>
</a>
</g>
</g>
<!-- dir_1585cb1296de2c4dde76500afa886952&#45;&gt;dir_5bbbaec82e60c1c95ef5795854749336 -->
<g id="edge21" class="edge">
<title>dir_1585cb1296de2c4dde76500afa886952&#45;&gt;dir_5bbbaec82e60c1c95ef5795854749336</title>
<path fill="none" stroke="black" d="M234.83,-244.49C213,-234.43 181.85,-220.09 156.14,-208.25"/>
<polygon fill="black" stroke="black" points="157.48,-205.01 146.93,-204.01 154.55,-211.37 157.48,-205.01"/>
<g id="a_edge21&#45;headlabel"><a xlink:href="dir_000027_000010.html" target="_top" xlink:title="4">
<text text-anchor="middle" x="161.93" y="-201.44" font-family="Helvetica,sans-Serif" font-size="10.00">4</text>
</a>
</g>
</g>
<!-- dir_1585cb1296de2c4dde76500afa886952&#45;&gt;dir_b6cd085f17e89cb6278eb6f5ecd32d39 -->
<g id="edge23" class="edge">
<title>dir_1585cb1296de2c4dde76500afa886952&#45;&gt;dir_b6cd085f17e89cb6278eb6f5ecd32d39</title>
<path fill="none" stroke="black" d="M277.42,-276.1C282.68,-284.04 288.27,-293.67 292.81,-302.51"/>
<polygon fill="black" stroke="black" points="289.76,-304.23 297.28,-311.7 296.05,-301.17 289.76,-304.23"/>
<g id="a_edge23&#45;headlabel"><a xlink:href="dir_000027_000011.html" target="_top" xlink:title="2">
<text text-anchor="middle" x="285.63" y="-299.74" font-family="Helvetica,sans-Serif" font-size="10.00">2</text>
</a>
</g>
</g>
<!-- dir_1585cb1296de2c4dde76500afa886952&#45;&gt;dir_93f5cc57b76a8a4cabb5571679917938 -->
<g id="edge22" class="edge">
<title>dir_1585cb1296de2c4dde76500afa886952&#45;&gt;dir_93f5cc57b76a8a4cabb5571679917938</title>
<path fill="none" stroke="black" d="M251.87,-239.7C247.15,-231.64 241.44,-221.89 236.22,-212.98"/>
<polygon fill="black" stroke="black" points="239.09,-210.96 231.02,-204.1 233.05,-214.5 239.09,-210.96"/>
<g id="a_edge22&#45;headlabel"><a xlink:href="dir_000027_000012.html" target="_top" xlink:title="3">
<text text-anchor="middle" x="243.36" y="-210.13" font-family="Helvetica,sans-Serif" font-size="10.00">3</text>
</a>
</g>
</g>
<!-- dir_1585cb1296de2c4dde76500afa886952&#45;&gt;dir_d33103ac168077bdcd2b65f79896931a -->
<g id="edge24" class="edge">
<title>dir_1585cb1296de2c4dde76500afa886952&#45;&gt;dir_d33103ac168077bdcd2b65f79896931a</title>
<path fill="none" stroke="black" d="M262.4,-239.85C263.27,-202.83 265.31,-115.18 266.36,-70.39"/>
<polygon fill="black" stroke="black" points="269.86,-70.31 266.6,-60.23 262.86,-70.15 269.86,-70.31"/>
<g id="a_edge24&#45;headlabel"><a xlink:href="dir_000027_000029.html" target="_top" xlink:title="2">
<text text-anchor="middle" x="272.62" y="-71.47" font-family="Helvetica,sans-Serif" font-size="10.00">2</text>
</a>
</g>
</g>
<!-- dir_1585cb1296de2c4dde76500afa886952&#45;&gt;dir_232aac153d804cfbbc85dc0a0fa07463 -->
<g id="edge20" class="edge">
<title>dir_1585cb1296de2c4dde76500afa886952&#45;&gt;dir_232aac153d804cfbbc85dc0a0fa07463</title>
<path fill="none" stroke="black" d="M274.61,-239.7C280.6,-231.47 287.88,-221.48 294.48,-212.42"/>
<polygon fill="black" stroke="black" points="297.48,-214.25 300.54,-204.1 291.82,-210.13 297.48,-214.25"/>
<g id="a_edge20&#45;headlabel"><a xlink:href="dir_000027_000032.html" target="_top" xlink:title="2">
<text text-anchor="middle" x="297.66" y="-216.32" font-family="Helvetica,sans-Serif" font-size="10.00">2</text>
</a>
</g>
</g>
<!-- dir_e283d847d757715a6276040929a86eab -->
<g id="node10" class="node">
<title>dir_e283d847d757715a6276040929a86eab</title>
<g id="a_node10"><a xlink:href="dir_e283d847d757715a6276040929a86eab.html" target="_top" xlink:title="tool">
<polygon fill="white" stroke="black" points="282,-492 228,-492 228,-456 282,-456 282,-492"/>
<text text-anchor="middle" x="255" y="-471.5" font-family="Helvetica,sans-Serif" font-size="10.00">tool</text>
</a>
</g>
</g>
<!-- dir_e283d847d757715a6276040929a86eab&#45;&gt;dir_98805e936c7cb41c7fc1bd0592aaf3bd -->
<g id="edge10" class="edge">
<title>dir_e283d847d757715a6276040929a86eab&#45;&gt;dir_98805e936c7cb41c7fc1bd0592aaf3bd</title>
<path fill="none" stroke="black" d="M243.13,-455.7C237.5,-447.47 230.65,-437.48 224.43,-428.42"/>
<polygon fill="black" stroke="black" points="227.27,-426.37 218.73,-420.1 221.5,-430.33 227.27,-426.37"/>
<g id="a_edge10&#45;headlabel"><a xlink:href="dir_000030_000005.html" target="_top" xlink:title="1">
<text text-anchor="middle" x="231.65" y="-425.23" font-family="Helvetica,sans-Serif" font-size="10.00">1</text>
</a>
</g>
</g>
<!-- dir_e283d847d757715a6276040929a86eab&#45;&gt;dir_b6cd085f17e89cb6278eb6f5ecd32d39 -->
<g id="edge11" class="edge">
<title>dir_e283d847d757715a6276040929a86eab&#45;&gt;dir_b6cd085f17e89cb6278eb6f5ecd32d39</title>
<path fill="none" stroke="black" d="M260.55,-455.87C268.42,-431.56 282.92,-386.82 292.25,-358.01"/>
<polygon fill="black" stroke="black" points="295.68,-358.78 295.43,-348.19 289.02,-356.62 295.68,-358.78"/>
<g id="a_edge11&#45;headlabel"><a xlink:href="dir_000030_000011.html" target="_top" xlink:title="2">
<text text-anchor="middle" x="297.27" y="-360.58" font-family="Helvetica,sans-Serif" font-size="10.00">2</text>
</a>
</g>
</g>
<!-- dir_e283d847d757715a6276040929a86eab&#45;&gt;dir_d7b6a63eed36fea2858d2aa41ca33f02 -->
<g id="edge13" class="edge">
<title>dir_e283d847d757715a6276040929a86eab&#45;&gt;dir_d7b6a63eed36fea2858d2aa41ca33f02</title>
<path fill="none" stroke="black" d="M227.71,-469.21C166.79,-459.07 25,-425.32 25,-331 25,-331 25,-331 25,-257 25,-216.55 35.33,-170.67 42.97,-142.28"/>
<polygon fill="black" stroke="black" points="46.44,-142.87 45.74,-132.3 39.69,-141 46.44,-142.87"/>
<g id="a_edge13&#45;headlabel"><a xlink:href="dir_000030_000013.html" target="_top" xlink:title="1">
<text text-anchor="middle" x="48.21" y="-144.6" font-family="Helvetica,sans-Serif" font-size="10.00">1</text>
</a>
</g>
</g>
<!-- dir_e283d847d757715a6276040929a86eab&#45;&gt;dir_1585cb1296de2c4dde76500afa886952 -->
<g id="edge9" class="edge">
<title>dir_e283d847d757715a6276040929a86eab&#45;&gt;dir_1585cb1296de2c4dde76500afa886952</title>
<path fill="none" stroke="black" d="M255.56,-455.85C256.77,-418.83 259.64,-331.18 261.1,-286.39"/>
<polygon fill="black" stroke="black" points="264.61,-286.34 261.44,-276.23 257.61,-286.11 264.61,-286.34"/>
<g id="a_edge9&#45;headlabel"><a xlink:href="dir_000030_000027.html" target="_top" xlink:title="1">
<text text-anchor="middle" x="267.33" y="-287.53" font-family="Helvetica,sans-Serif" font-size="10.00">1</text>
</a>
</g>
</g>
<!-- dir_e283d847d757715a6276040929a86eab&#45;&gt;dir_d33103ac168077bdcd2b65f79896931a -->
<g id="edge12" class="edge">
<title>dir_e283d847d757715a6276040929a86eab&#45;&gt;dir_d33103ac168077bdcd2b65f79896931a</title>
<path fill="none" stroke="black" d="M282.07,-461.67C313.16,-448.4 360.6,-427.33 366,-420 389.72,-387.82 379,-370.98 379,-331 379,-331 379,-331 379,-185 379,-134.35 334.52,-91.14 301.62,-66.11"/>
<polygon fill="black" stroke="black" points="303.67,-63.27 293.54,-60.15 299.51,-68.9 303.67,-63.27"/>
<g id="a_edge12&#45;headlabel"><a xlink:href="dir_000030_000029.html" target="_top" xlink:title="2">
<text text-anchor="middle" x="308.24" y="-60.62" font-family="Helvetica,sans-Serif" font-size="10.00">2</text>
</a>
</g>
</g>
<!-- dir_28f821d546ace6ab9b8c5a81f47cb6c0&#45;&gt;dir_d33103ac168077bdcd2b65f79896931a -->
<g id="edge8" class="edge">
<title>dir_28f821d546ace6ab9b8c5a81f47cb6c0&#45;&gt;dir_d33103ac168077bdcd2b65f79896931a</title>
<path fill="none" stroke="black" d="M153.19,-99.5C175.23,-88.56 206.49,-73.04 230.68,-61.03"/>
<polygon fill="black" stroke="black" points="232.5,-64.04 239.9,-56.46 229.38,-57.77 232.5,-64.04"/>
<g id="a_edge8&#45;headlabel"><a xlink:href="dir_000031_000029.html" target="_top" xlink:title="1">
<text text-anchor="middle" x="230.54" y="-65.68" font-family="Helvetica,sans-Serif" font-size="10.00">1</text>
</a>
</g>
</g>
</g>
</svg>
