<?xml version="1.0" encoding="UTF-8" standalone="no"?>
<!DOCTYPE svg PUBLIC "-//W3C//DTD SVG 1.1//EN"
 "http://www.w3.org/Graphics/SVG/1.1/DTD/svg11.dtd">
<!-- Generated by graphviz version 2.43.0 (0)
 -->
<!-- Title: alps_core/lib_internal/alps_ros2_lib/include/alps_ros2 Pages: 1 -->
<svg width="477pt" height="204pt"
 viewBox="0.00 0.00 477.00 204.00" xmlns="http://www.w3.org/2000/svg" xmlns:xlink="http://www.w3.org/1999/xlink">
<g id="graph0" class="graph" transform="scale(1 1) rotate(0) translate(4 200)">
<title>alps_core/lib_internal/alps_ros2_lib/include/alps_ros2</title>
<g id="clust1" class="cluster">
<title>clusterdir_cce31b221ad05865aefcce4893a92a60</title>
<g id="a_clust1"><a xlink:href="dir_cce31b221ad05865aefcce4893a92a60.html" target="_top" xlink:title="include">
<polygon fill="#daedff" stroke="#7f7f7f" stroke-dasharray="5,2" points="8,-8 8,-188 359,-188 359,-8 8,-8"/>
<text text-anchor="middle" x="183.5" y="-176" font-family="Helvetica,sans-Serif" font-size="10.00">include</text>
</a>
</g>
</g>
<g id="clust2" class="cluster">
<title>clusterdir_6399a9de56a01148355a477c12de3c84</title>
<g id="a_clust2"><a xlink:href="dir_6399a9de56a01148355a477c12de3c84.html" target="_top">
<polygon fill="#daedff" stroke="#404040" stroke-width="2" points="16,-16 16,-161 351,-161 351,-16 16,-16"/>
</a>
</g>
</g>
<!-- dir_6399a9de56a01148355a477c12de3c84 -->
<g id="node1" class="node">
<title>dir_6399a9de56a01148355a477c12de3c84</title>
<text text-anchor="middle" x="311" y="-141" font-family="Helvetica,sans-Serif" font-size="10.00">alps_ros2</text>
</g>
<!-- dir_0ea5383466ab814f990f933fc1eb2871 -->
<g id="node2" class="node">
<title>dir_0ea5383466ab814f990f933fc1eb2871</title>
<g id="a_node2"><a xlink:href="dir_0ea5383466ab814f990f933fc1eb2871.html" target="_top" xlink:title="bt">
<polygon fill="#4ea9ff" stroke="#404040" points="261.5,-153 232.5,-153 232.5,-134 261.5,-134 261.5,-153"/>
<text text-anchor="middle" x="247" y="-141" font-family="Helvetica,sans-Serif" font-size="10.00">bt</text>
</a>
</g>
</g>
<!-- dir_45fba23e44dab9635f79e4c99afbf5ad -->
<g id="node3" class="node">
<title>dir_45fba23e44dab9635f79e4c99afbf5ad</title>
<g id="a_node3"><a xlink:href="dir_45fba23e44dab9635f79e4c99afbf5ad.html" target="_top" xlink:title="communication">
<polygon fill="#4ea9ff" stroke="#404040" points="164,-153 72,-153 72,-134 164,-134 164,-153"/>
<text text-anchor="middle" x="118" y="-141" font-family="Helvetica,sans-Serif" font-size="10.00">communication</text>
</a>
</g>
</g>
<!-- dir_690e2e1b8b6059d43a67bedbfe9d42ee -->
<g id="node5" class="node">
<title>dir_690e2e1b8b6059d43a67bedbfe9d42ee</title>
<g id="a_node5"><a xlink:href="dir_690e2e1b8b6059d43a67bedbfe9d42ee.html" target="_top" xlink:title="type">
<polygon fill="#4ea9ff" stroke="#404040" points="175,-98 137,-98 137,-79 175,-79 175,-98"/>
<text text-anchor="middle" x="156" y="-86" font-family="Helvetica,sans-Serif" font-size="10.00">type</text>
</a>
</g>
</g>
<!-- dir_45fba23e44dab9635f79e4c99afbf5ad&#45;&gt;dir_690e2e1b8b6059d43a67bedbfe9d42ee -->
<g id="edge1" class="edge">
<title>dir_45fba23e44dab9635f79e4c99afbf5ad&#45;&gt;dir_690e2e1b8b6059d43a67bedbfe9d42ee</title>
<g id="a_edge1"><a xlink:href="dir_000019_000040.html" target="_top">
<path fill="none" stroke="#63b8ff" d="M124.27,-133.75C129.59,-126.34 137.36,-115.5 143.88,-106.41"/>
<polygon fill="#63b8ff" stroke="#63b8ff" points="146.86,-108.26 149.84,-98.09 141.17,-104.18 146.86,-108.26"/>
</a>
</g>
<g id="a_edge1&#45;headlabel"><a xlink:href="dir_000019_000040.html" target="_top" xlink:title="1">
<text text-anchor="middle" x="147.07" y="-110.33" font-family="Helvetica,sans-Serif" font-size="10.00" fill="#63b8ff">1</text>
</a>
</g>
</g>
<!-- dir_bc613f62d55886f87db8f26460e84482 -->
<g id="node7" class="node">
<title>dir_bc613f62d55886f87db8f26460e84482</title>
<g id="a_node7"><a xlink:href="dir_bc613f62d55886f87db8f26460e84482.html" target="_top" xlink:title="util">
<polygon fill="#4ea9ff" stroke="#404040" points="172,-43 140,-43 140,-24 172,-24 172,-43"/>
<text text-anchor="middle" x="156" y="-31" font-family="Helvetica,sans-Serif" font-size="10.00">util</text>
</a>
</g>
</g>
<!-- dir_45fba23e44dab9635f79e4c99afbf5ad&#45;&gt;dir_bc613f62d55886f87db8f26460e84482 -->
<g id="edge2" class="edge">
<title>dir_45fba23e44dab9635f79e4c99afbf5ad&#45;&gt;dir_bc613f62d55886f87db8f26460e84482</title>
<g id="a_edge2"><a xlink:href="dir_000019_000043.html" target="_top">
<path fill="none" stroke="#63b8ff" d="M118.28,-133.59C118.91,-121.03 121.02,-97.6 128,-79 131.64,-69.29 137.56,-59.44 143.02,-51.48"/>
<polygon fill="#63b8ff" stroke="#63b8ff" points="146.04,-53.29 149.06,-43.13 140.36,-49.19 146.04,-53.29"/>
</a>
</g>
<g id="a_edge2&#45;headlabel"><a xlink:href="dir_000019_000043.html" target="_top" xlink:title="1">
<text text-anchor="middle" x="146.23" y="-55.37" font-family="Helvetica,sans-Serif" font-size="10.00" fill="#63b8ff">1</text>
</a>
</g>
</g>
<!-- dir_dbb6a150a1d2a9e3bac0bb1d4855e995 -->
<g id="node8" class="node">
<title>dir_dbb6a150a1d2a9e3bac0bb1d4855e995</title>
<g id="a_node8"><a xlink:href="dir_dbb6a150a1d2a9e3bac0bb1d4855e995.html" target="_top" xlink:title="alps_common_lib">
<polygon fill="#daedff" stroke="red" stroke-dasharray="5,2" points="469,-43 367,-43 367,-24 469,-24 469,-43"/>
<text text-anchor="middle" x="418" y="-31" font-family="Helvetica,sans-Serif" font-size="10.00">alps_common_lib</text>
</a>
</g>
</g>
<!-- dir_45fba23e44dab9635f79e4c99afbf5ad&#45;&gt;dir_dbb6a150a1d2a9e3bac0bb1d4855e995 -->
<g id="edge3" class="edge">
<title>dir_45fba23e44dab9635f79e4c99afbf5ad&#45;&gt;dir_dbb6a150a1d2a9e3bac0bb1d4855e995</title>
<g id="a_edge3"><a xlink:href="dir_000019_000003.html" target="_top">
<path fill="none" stroke="#63b8ff" d="M141.79,-133.94C194.96,-114.79 323.53,-68.51 384.65,-46.51"/>
<polygon fill="#63b8ff" stroke="#63b8ff" points="385.98,-49.75 394.21,-43.07 383.61,-43.16 385.98,-49.75"/>
</a>
</g>
<g id="a_edge3&#45;headlabel"><a xlink:href="dir_000019_000003.html" target="_top" xlink:title="2">
<text text-anchor="middle" x="383.56" y="-51.14" font-family="Helvetica,sans-Serif" font-size="10.00" fill="#63b8ff">2</text>
</a>
</g>
</g>
<!-- dir_b258fd7aeb42fee328b7692b0d395006 -->
<g id="node4" class="node">
<title>dir_b258fd7aeb42fee328b7692b0d395006</title>
<g id="a_node4"><a xlink:href="dir_b258fd7aeb42fee328b7692b0d395006.html" target="_top" xlink:title="log">
<polygon fill="#4ea9ff" stroke="#404040" points="214,-153 182,-153 182,-134 214,-134 214,-153"/>
<text text-anchor="middle" x="198" y="-141" font-family="Helvetica,sans-Serif" font-size="10.00">log</text>
</a>
</g>
</g>
<!-- dir_b258fd7aeb42fee328b7692b0d395006&#45;&gt;dir_dbb6a150a1d2a9e3bac0bb1d4855e995 -->
<g id="edge4" class="edge">
<title>dir_b258fd7aeb42fee328b7692b0d395006&#45;&gt;dir_dbb6a150a1d2a9e3bac0bb1d4855e995</title>
<g id="a_edge4"><a xlink:href="dir_000032_000003.html" target="_top">
<path fill="none" stroke="#63b8ff" d="M214.21,-136.44C235.4,-128.37 273.52,-113.32 305,-98 337.04,-82.4 372.69,-61.8 395.21,-48.35"/>
<polygon fill="#63b8ff" stroke="#63b8ff" points="397.25,-51.22 404.02,-43.07 393.64,-45.22 397.25,-51.22"/>
</a>
</g>
<g id="a_edge4&#45;headlabel"><a xlink:href="dir_000032_000003.html" target="_top" xlink:title="1">
<text text-anchor="middle" x="395.63" y="-53" font-family="Helvetica,sans-Serif" font-size="10.00" fill="#63b8ff">1</text>
</a>
</g>
</g>
<!-- dir_690e2e1b8b6059d43a67bedbfe9d42ee&#45;&gt;dir_bc613f62d55886f87db8f26460e84482 -->
<g id="edge5" class="edge">
<title>dir_690e2e1b8b6059d43a67bedbfe9d42ee&#45;&gt;dir_bc613f62d55886f87db8f26460e84482</title>
<g id="a_edge5"><a xlink:href="dir_000040_000043.html" target="_top">
<path fill="none" stroke="#63b8ff" d="M150.83,-78.75C149.34,-71.8 148.9,-61.85 149.52,-53.13"/>
<polygon fill="#63b8ff" stroke="#63b8ff" points="153.01,-53.47 150.87,-43.09 146.07,-52.53 153.01,-53.47"/>
</a>
</g>
<g id="a_edge5&#45;headlabel"><a xlink:href="dir_000040_000043.html" target="_top" xlink:title="1">
<text text-anchor="middle" x="155.34" y="-54.91" font-family="Helvetica,sans-Serif" font-size="10.00" fill="#63b8ff">1</text>
</a>
</g>
</g>
<!-- dir_690e2e1b8b6059d43a67bedbfe9d42ee&#45;&gt;dir_dbb6a150a1d2a9e3bac0bb1d4855e995 -->
<g id="edge6" class="edge">
<title>dir_690e2e1b8b6059d43a67bedbfe9d42ee&#45;&gt;dir_dbb6a150a1d2a9e3bac0bb1d4855e995</title>
<g id="a_edge6"><a xlink:href="dir_000040_000003.html" target="_top">
<path fill="none" stroke="#63b8ff" d="M175.27,-83.6C215.04,-75.56 307.39,-56.87 366.03,-45.01"/>
<polygon fill="#63b8ff" stroke="#63b8ff" points="366.74,-48.44 375.85,-43.03 365.35,-41.58 366.74,-48.44"/>
</a>
</g>
<g id="a_edge6&#45;headlabel"><a xlink:href="dir_000040_000003.html" target="_top" xlink:title="9">
<text text-anchor="middle" x="363.78" y="-49.44" font-family="Helvetica,sans-Serif" font-size="10.00" fill="#63b8ff">9</text>
</a>
</g>
</g>
<!-- dir_729c3686c1b14a04de035d034d7d654b -->
<g id="node6" class="node">
<title>dir_729c3686c1b14a04de035d034d7d654b</title>
<g id="a_node6"><a xlink:href="dir_729c3686c1b14a04de035d034d7d654b.html" target="_top" xlink:title="ui">
<polygon fill="#4ea9ff" stroke="#404040" points="53.5,-153 24.5,-153 24.5,-134 53.5,-134 53.5,-153"/>
<text text-anchor="middle" x="39" y="-141" font-family="Helvetica,sans-Serif" font-size="10.00">ui</text>
</a>
</g>
</g>
<!-- dir_bc613f62d55886f87db8f26460e84482&#45;&gt;dir_690e2e1b8b6059d43a67bedbfe9d42ee -->
<g id="edge7" class="edge">
<title>dir_bc613f62d55886f87db8f26460e84482&#45;&gt;dir_690e2e1b8b6059d43a67bedbfe9d42ee</title>
<g id="a_edge7"><a xlink:href="dir_000043_000040.html" target="_top">
<path fill="none" stroke="#63b8ff" d="M161.13,-43.09C162.64,-49.99 163.09,-59.93 162.49,-68.66"/>
<polygon fill="#63b8ff" stroke="#63b8ff" points="159,-68.38 161.17,-78.75 165.94,-69.29 159,-68.38"/>
</a>
</g>
<g id="a_edge7&#45;headlabel"><a xlink:href="dir_000043_000040.html" target="_top" xlink:title="1">
<text text-anchor="middle" x="156.65" y="-61.94" font-family="Helvetica,sans-Serif" font-size="10.00" fill="#63b8ff">1</text>
</a>
</g>
</g>
</g>
</svg>
