<?xml version="1.0" encoding="UTF-8" standalone="no"?>
<!DOCTYPE svg PUBLIC "-//W3C//DTD SVG 1.1//EN"
 "http://www.w3.org/Graphics/SVG/1.1/DTD/svg11.dtd">
<!-- Generated by graphviz version 2.43.0 (0)
 -->
<!-- Title: alps_common_lib/include/alps_cmn Pages: 1 -->
<svg width="422pt" height="471pt"
 viewBox="0.00 0.00 422.00 471.00" xmlns="http://www.w3.org/2000/svg" xmlns:xlink="http://www.w3.org/1999/xlink">
<g id="graph0" class="graph" transform="scale(1 1) rotate(0) translate(4 467)">
<title>alps_common_lib/include/alps_cmn</title>
<polygon fill="white" stroke="transparent" points="-4,4 -4,-467 418,-467 418,4 -4,4"/>
<g id="clust1" class="cluster">
<title>clusterdir_ce1e71e2103ac83e6d6cc720a9feeeb7</title>
<g id="a_clust1"><a xlink:href="dir_ce1e71e2103ac83e6d6cc720a9feeeb7.html" target="_top" xlink:title="include">
<polygon fill="#ddddee" stroke="black" points="8,-8 8,-455 406,-455 406,-8 8,-8"/>
<text text-anchor="middle" x="207" y="-443" font-family="Helvetica,sans-Serif" font-size="10.00">include</text>
</a>
</g>
</g>
<g id="clust2" class="cluster">
<title>clusterdir_cc648f72f51f156e42f9863c0e5bf5fb</title>
<g id="a_clust2"><a xlink:href="dir_cc648f72f51f156e42f9863c0e5bf5fb.html" target="_top">
<polygon fill="#eeeeff" stroke="black" points="16,-16 16,-428 398,-428 398,-16 16,-16"/>
</a>
</g>
</g>
<!-- dir_cc648f72f51f156e42f9863c0e5bf5fb -->
<g id="node1" class="node">
<title>dir_cc648f72f51f156e42f9863c0e5bf5fb</title>
<text text-anchor="middle" x="343" y="-399.5" font-family="Helvetica,sans-Serif" font-size="10.00">alps_cmn</text>
</g>
<!-- dir_2239b1117054295ada522fe6d99615b2 -->
<g id="node2" class="node">
<title>dir_2239b1117054295ada522fe6d99615b2</title>
<g id="a_node2"><a xlink:href="dir_2239b1117054295ada522fe6d99615b2.html" target="_top" xlink:title="actuator">
<polygon fill="white" stroke="black" points="266.5,-348 209.5,-348 209.5,-312 266.5,-312 266.5,-348"/>
<text text-anchor="middle" x="238" y="-327.5" font-family="Helvetica,sans-Serif" font-size="10.00">actuator</text>
</a>
</g>
</g>
<!-- dir_76fd7680a09542374d3e212281ba6ee2 -->
<g id="node3" class="node">
<title>dir_76fd7680a09542374d3e212281ba6ee2</title>
<g id="a_node3"><a xlink:href="dir_76fd7680a09542374d3e212281ba6ee2.html" target="_top" xlink:title="communication">
<polygon fill="white" stroke="black" points="270,-276 178,-276 178,-240 270,-240 270,-276"/>
<text text-anchor="middle" x="224" y="-255.5" font-family="Helvetica,sans-Serif" font-size="10.00">communication</text>
</a>
</g>
</g>
<!-- dir_2239b1117054295ada522fe6d99615b2&#45;&gt;dir_76fd7680a09542374d3e212281ba6ee2 -->
<g id="edge3" class="edge">
<title>dir_2239b1117054295ada522fe6d99615b2&#45;&gt;dir_76fd7680a09542374d3e212281ba6ee2</title>
<path fill="none" stroke="black" d="M234.54,-311.7C233,-303.98 231.14,-294.71 229.42,-286.11"/>
<polygon fill="black" stroke="black" points="232.81,-285.22 227.42,-276.1 225.95,-286.6 232.81,-285.22"/>
<g id="a_edge3&#45;headlabel"><a xlink:href="dir_000003_000008.html" target="_top" xlink:title="1">
<text text-anchor="middle" x="236.3" y="-285.69" font-family="Helvetica,sans-Serif" font-size="10.00">1</text>
</a>
</g>
</g>
<!-- dir_83658e075a4ab7b2cbb8779471289882 -->
<g id="node4" class="node">
<title>dir_83658e075a4ab7b2cbb8779471289882</title>
<g id="a_node4"><a xlink:href="dir_83658e075a4ab7b2cbb8779471289882.html" target="_top" xlink:title="control">
<polygon fill="white" stroke="black" points="138,-204 84,-204 84,-168 138,-168 138,-204"/>
<text text-anchor="middle" x="111" y="-183.5" font-family="Helvetica,sans-Serif" font-size="10.00">control</text>
</a>
</g>
</g>
<!-- dir_2239b1117054295ada522fe6d99615b2&#45;&gt;dir_83658e075a4ab7b2cbb8779471289882 -->
<g id="edge5" class="edge">
<title>dir_2239b1117054295ada522fe6d99615b2&#45;&gt;dir_83658e075a4ab7b2cbb8779471289882</title>
<path fill="none" stroke="black" d="M209.3,-328.13C173.19,-325.49 113.3,-315.23 86,-276 73.21,-257.62 79.64,-232.08 89.4,-213.08"/>
<polygon fill="black" stroke="black" points="92.48,-214.75 94.39,-204.33 86.4,-211.29 92.48,-214.75"/>
<g id="a_edge5&#45;headlabel"><a xlink:href="dir_000003_000009.html" target="_top" xlink:title="1">
<text text-anchor="middle" x="93.16" y="-216.78" font-family="Helvetica,sans-Serif" font-size="10.00">1</text>
</a>
</g>
</g>
<!-- dir_7913872ef1e9131c7a4facddec50fb6b -->
<g id="node5" class="node">
<title>dir_7913872ef1e9131c7a4facddec50fb6b</title>
<g id="a_node5"><a xlink:href="dir_7913872ef1e9131c7a4facddec50fb6b.html" target="_top" xlink:title="gpio">
<polygon fill="white" stroke="black" points="367,-60 313,-60 313,-24 367,-24 367,-60"/>
<text text-anchor="middle" x="340" y="-39.5" font-family="Helvetica,sans-Serif" font-size="10.00">gpio</text>
</a>
</g>
</g>
<!-- dir_2239b1117054295ada522fe6d99615b2&#45;&gt;dir_7913872ef1e9131c7a4facddec50fb6b -->
<g id="edge4" class="edge">
<title>dir_2239b1117054295ada522fe6d99615b2&#45;&gt;dir_7913872ef1e9131c7a4facddec50fb6b</title>
<path fill="none" stroke="black" d="M266.84,-316.55C284.62,-307.58 306.69,-293.89 321,-276 368.95,-216.03 356.41,-117.44 346.59,-70.07"/>
<polygon fill="black" stroke="black" points="350,-69.26 344.44,-60.24 343.16,-70.76 350,-69.26"/>
<g id="a_edge4&#45;headlabel"><a xlink:href="dir_000003_000010.html" target="_top" xlink:title="4">
<text text-anchor="middle" x="353.54" y="-69.66" font-family="Helvetica,sans-Serif" font-size="10.00">4</text>
</a>
</g>
</g>
<!-- dir_c42d739f81e7f8c788f3b0a5285dd299 -->
<g id="node6" class="node">
<title>dir_c42d739f81e7f8c788f3b0a5285dd299</title>
<g id="a_node6"><a xlink:href="dir_c42d739f81e7f8c788f3b0a5285dd299.html" target="_top" xlink:title="log">
<polygon fill="white" stroke="black" points="330,-204 276,-204 276,-168 330,-168 330,-204"/>
<text text-anchor="middle" x="303" y="-183.5" font-family="Helvetica,sans-Serif" font-size="10.00">log</text>
</a>
</g>
</g>
<!-- dir_2239b1117054295ada522fe6d99615b2&#45;&gt;dir_c42d739f81e7f8c788f3b0a5285dd299 -->
<g id="edge7" class="edge">
<title>dir_2239b1117054295ada522fe6d99615b2&#45;&gt;dir_c42d739f81e7f8c788f3b0a5285dd299</title>
<path fill="none" stroke="black" d="M262.91,-311.99C274.38,-302.75 286.97,-290.3 294,-276 303.45,-256.78 305.33,-232.43 305.05,-214.06"/>
<polygon fill="black" stroke="black" points="308.55,-213.89 304.68,-204.02 301.55,-214.15 308.55,-213.89"/>
<g id="a_edge7&#45;headlabel"><a xlink:href="dir_000003_000011.html" target="_top" xlink:title="1">
<text text-anchor="middle" x="311.52" y="-214.88" font-family="Helvetica,sans-Serif" font-size="10.00">1</text>
</a>
</g>
</g>
<!-- dir_96320550a29baac38dc9eb0ae89f5e73 -->
<g id="node8" class="node">
<title>dir_96320550a29baac38dc9eb0ae89f5e73</title>
<g id="a_node8"><a xlink:href="dir_96320550a29baac38dc9eb0ae89f5e73.html" target="_top" xlink:title="sensor">
<polygon fill="white" stroke="black" points="228,-132 174,-132 174,-96 228,-96 228,-132"/>
<text text-anchor="middle" x="201" y="-111.5" font-family="Helvetica,sans-Serif" font-size="10.00">sensor</text>
</a>
</g>
</g>
<!-- dir_2239b1117054295ada522fe6d99615b2&#45;&gt;dir_96320550a29baac38dc9eb0ae89f5e73 -->
<g id="edge6" class="edge">
<title>dir_2239b1117054295ada522fe6d99615b2&#45;&gt;dir_96320550a29baac38dc9eb0ae89f5e73</title>
<path fill="none" stroke="black" d="M256.17,-311.68C264.88,-302.1 274.41,-289.43 279,-276 284.17,-260.86 283.41,-255.38 279,-240 268.04,-201.72 241.57,-163.78 222.51,-139.92"/>
<polygon fill="black" stroke="black" points="225.15,-137.62 216.11,-132.09 219.73,-142.05 225.15,-137.62"/>
<g id="a_edge6&#45;headlabel"><a xlink:href="dir_000003_000025.html" target="_top" xlink:title="1">
<text text-anchor="middle" x="229.62" y="-136.11" font-family="Helvetica,sans-Serif" font-size="10.00">1</text>
</a>
</g>
</g>
<!-- dir_1367935105ebc251618457953f8d2b80 -->
<g id="node9" class="node">
<title>dir_1367935105ebc251618457953f8d2b80</title>
<g id="a_node9"><a xlink:href="dir_1367935105ebc251618457953f8d2b80.html" target="_top" xlink:title="time">
<polygon fill="white" stroke="black" points="138,-60 84,-60 84,-24 138,-24 138,-60"/>
<text text-anchor="middle" x="111" y="-39.5" font-family="Helvetica,sans-Serif" font-size="10.00">time</text>
</a>
</g>
</g>
<!-- dir_2239b1117054295ada522fe6d99615b2&#45;&gt;dir_1367935105ebc251618457953f8d2b80 -->
<g id="edge1" class="edge">
<title>dir_2239b1117054295ada522fe6d99615b2&#45;&gt;dir_1367935105ebc251618457953f8d2b80</title>
<path fill="none" stroke="black" d="M209.39,-328C173.75,-325.09 113.78,-314.38 83,-276 34.47,-215.49 73.61,-116.12 96.86,-69.15"/>
<polygon fill="black" stroke="black" points="99.99,-70.72 101.41,-60.22 93.75,-67.54 99.99,-70.72"/>
<g id="a_edge1&#45;headlabel"><a xlink:href="dir_000003_000027.html" target="_top" xlink:title="1">
<text text-anchor="middle" x="100.89" y="-72.71" font-family="Helvetica,sans-Serif" font-size="10.00">1</text>
</a>
</g>
</g>
<!-- dir_26247a4c7d21a73996b8a7832c1a1463 -->
<g id="node11" class="node">
<title>dir_26247a4c7d21a73996b8a7832c1a1463</title>
<g id="a_node11"><a xlink:href="dir_26247a4c7d21a73996b8a7832c1a1463.html" target="_top" xlink:title="util">
<polygon fill="white" stroke="black" points="250,-60 196,-60 196,-24 250,-24 250,-60"/>
<text text-anchor="middle" x="223" y="-39.5" font-family="Helvetica,sans-Serif" font-size="10.00">util</text>
</a>
</g>
</g>
<!-- dir_2239b1117054295ada522fe6d99615b2&#45;&gt;dir_26247a4c7d21a73996b8a7832c1a1463 -->
<g id="edge2" class="edge">
<title>dir_2239b1117054295ada522fe6d99615b2&#45;&gt;dir_26247a4c7d21a73996b8a7832c1a1463</title>
<path fill="none" stroke="black" d="M263.98,-311.8C276.86,-302.35 291.99,-289.75 303,-276 334.63,-236.51 357.49,-215.1 339,-168 322.31,-125.48 283.61,-88.82 255.49,-66.39"/>
<polygon fill="black" stroke="black" points="257.54,-63.55 247.5,-60.17 253.24,-69.07 257.54,-63.55"/>
<g id="a_edge2&#45;headlabel"><a xlink:href="dir_000003_000029.html" target="_top" xlink:title="7">
<text text-anchor="middle" x="262.12" y="-61.02" font-family="Helvetica,sans-Serif" font-size="10.00">7</text>
</a>
</g>
</g>
<!-- dir_76fd7680a09542374d3e212281ba6ee2&#45;&gt;dir_83658e075a4ab7b2cbb8779471289882 -->
<g id="edge13" class="edge">
<title>dir_76fd7680a09542374d3e212281ba6ee2&#45;&gt;dir_83658e075a4ab7b2cbb8779471289882</title>
<path fill="none" stroke="black" d="M196.36,-239.88C181.47,-230.66 162.93,-219.17 146.94,-209.26"/>
<polygon fill="black" stroke="black" points="148.7,-206.24 138.36,-203.95 145.02,-212.19 148.7,-206.24"/>
<g id="a_edge13&#45;headlabel"><a xlink:href="dir_000008_000009.html" target="_top" xlink:title="1">
<text text-anchor="middle" x="153.25" y="-203.22" font-family="Helvetica,sans-Serif" font-size="10.00">1</text>
</a>
</g>
</g>
<!-- dir_76fd7680a09542374d3e212281ba6ee2&#45;&gt;dir_c42d739f81e7f8c788f3b0a5285dd299 -->
<g id="edge14" class="edge">
<title>dir_76fd7680a09542374d3e212281ba6ee2&#45;&gt;dir_c42d739f81e7f8c788f3b0a5285dd299</title>
<path fill="none" stroke="black" d="M243.53,-239.7C253.38,-230.97 265.49,-220.24 276.2,-210.75"/>
<polygon fill="black" stroke="black" points="278.53,-213.36 283.7,-204.1 273.89,-208.12 278.53,-213.36"/>
<g id="a_edge14&#45;headlabel"><a xlink:href="dir_000008_000011.html" target="_top" xlink:title="1">
<text text-anchor="middle" x="277.73" y="-215.36" font-family="Helvetica,sans-Serif" font-size="10.00">1</text>
</a>
</g>
</g>
<!-- dir_76fd7680a09542374d3e212281ba6ee2&#45;&gt;dir_1367935105ebc251618457953f8d2b80 -->
<g id="edge12" class="edge">
<title>dir_76fd7680a09542374d3e212281ba6ee2&#45;&gt;dir_1367935105ebc251618457953f8d2b80</title>
<path fill="none" stroke="black" d="M214.94,-239.85C195.23,-202.52 148.33,-113.69 124.87,-69.26"/>
<polygon fill="black" stroke="black" points="127.86,-67.44 120.1,-60.23 121.67,-70.71 127.86,-67.44"/>
<g id="a_edge12&#45;headlabel"><a xlink:href="dir_000008_000027.html" target="_top" xlink:title="1">
<text text-anchor="middle" x="132.05" y="-66.79" font-family="Helvetica,sans-Serif" font-size="10.00">1</text>
</a>
</g>
</g>
<!-- dir_83658e075a4ab7b2cbb8779471289882&#45;&gt;dir_2239b1117054295ada522fe6d99615b2 -->
<g id="edge9" class="edge">
<title>dir_83658e075a4ab7b2cbb8779471289882&#45;&gt;dir_2239b1117054295ada522fe6d99615b2</title>
<path fill="none" stroke="black" d="M107.48,-204.33C100.26,-223.54 89.12,-254.61 104,-276 125.67,-307.14 167.89,-320.03 199.28,-325.34"/>
<polygon fill="black" stroke="black" points="199.06,-328.84 209.47,-326.86 200.09,-321.92 199.06,-328.84"/>
<g id="a_edge9&#45;headlabel"><a xlink:href="dir_000009_000003.html" target="_top" xlink:title="4">
<text text-anchor="middle" x="195.08" y="-328.62" font-family="Helvetica,sans-Serif" font-size="10.00">4</text>
</a>
</g>
</g>
<!-- dir_83658e075a4ab7b2cbb8779471289882&#45;&gt;dir_96320550a29baac38dc9eb0ae89f5e73 -->
<g id="edge11" class="edge">
<title>dir_83658e075a4ab7b2cbb8779471289882&#45;&gt;dir_96320550a29baac38dc9eb0ae89f5e73</title>
<path fill="none" stroke="black" d="M127.33,-167.7C138.01,-158.66 152.22,-147.5 165.36,-137.77"/>
<polygon fill="black" stroke="black" points="167.77,-140.34 173.78,-131.62 163.64,-134.69 167.77,-140.34"/>
<g id="a_edge11&#45;headlabel"><a xlink:href="dir_000009_000025.html" target="_top" xlink:title="4">
<text text-anchor="middle" x="166.54" y="-142.25" font-family="Helvetica,sans-Serif" font-size="10.00">4</text>
</a>
</g>
</g>
<!-- dir_83658e075a4ab7b2cbb8779471289882&#45;&gt;dir_1367935105ebc251618457953f8d2b80 -->
<g id="edge8" class="edge">
<title>dir_83658e075a4ab7b2cbb8779471289882&#45;&gt;dir_1367935105ebc251618457953f8d2b80</title>
<path fill="none" stroke="black" d="M111,-167.87C111,-143.67 111,-99.21 111,-70.39"/>
<polygon fill="black" stroke="black" points="114.5,-70.19 111,-60.19 107.5,-70.19 114.5,-70.19"/>
<g id="a_edge8&#45;headlabel"><a xlink:href="dir_000009_000027.html" target="_top" xlink:title="4">
<text text-anchor="middle" x="117.34" y="-71.28" font-family="Helvetica,sans-Serif" font-size="10.00">4</text>
</a>
</g>
</g>
<!-- dir_83658e075a4ab7b2cbb8779471289882&#45;&gt;dir_26247a4c7d21a73996b8a7832c1a1463 -->
<g id="edge10" class="edge">
<title>dir_83658e075a4ab7b2cbb8779471289882&#45;&gt;dir_26247a4c7d21a73996b8a7832c1a1463</title>
<path fill="none" stroke="black" d="M119.44,-167.99C129.11,-149.35 146.07,-119.04 165,-96 173.54,-85.61 184.11,-75.35 193.88,-66.68"/>
<polygon fill="black" stroke="black" points="196.22,-69.28 201.48,-60.08 191.64,-63.99 196.22,-69.28"/>
<g id="a_edge10&#45;headlabel"><a xlink:href="dir_000009_000029.html" target="_top" xlink:title="3">
<text text-anchor="middle" x="195.36" y="-71.28" font-family="Helvetica,sans-Serif" font-size="10.00">3</text>
</a>
</g>
</g>
<!-- dir_699f9106423e7a7cab26b00d3847951b -->
<g id="node7" class="node">
<title>dir_699f9106423e7a7cab26b00d3847951b</title>
<g id="a_node7"><a xlink:href="dir_699f9106423e7a7cab26b00d3847951b.html" target="_top" xlink:title="robotics">
<polygon fill="white" stroke="black" points="160,-276 104,-276 104,-240 160,-240 160,-276"/>
<text text-anchor="middle" x="132" y="-255.5" font-family="Helvetica,sans-Serif" font-size="10.00">robotics</text>
</a>
</g>
</g>
<!-- dir_699f9106423e7a7cab26b00d3847951b&#45;&gt;dir_83658e075a4ab7b2cbb8779471289882 -->
<g id="edge26" class="edge">
<title>dir_699f9106423e7a7cab26b00d3847951b&#45;&gt;dir_83658e075a4ab7b2cbb8779471289882</title>
<path fill="none" stroke="black" d="M126.81,-239.7C124.47,-231.9 121.65,-222.51 119.05,-213.83"/>
<polygon fill="black" stroke="black" points="122.36,-212.68 116.13,-204.1 115.65,-214.69 122.36,-212.68"/>
<g id="a_edge26&#45;headlabel"><a xlink:href="dir_000024_000009.html" target="_top" xlink:title="1">
<text text-anchor="middle" x="126.11" y="-212.8" font-family="Helvetica,sans-Serif" font-size="10.00">1</text>
</a>
</g>
</g>
<!-- dir_699f9106423e7a7cab26b00d3847951b&#45;&gt;dir_26247a4c7d21a73996b8a7832c1a1463 -->
<g id="edge25" class="edge">
<title>dir_699f9106423e7a7cab26b00d3847951b&#45;&gt;dir_26247a4c7d21a73996b8a7832c1a1463</title>
<path fill="none" stroke="black" d="M153.55,-239.87C179.14,-218.01 220.41,-177.54 237,-132 244.33,-111.88 239.82,-87.83 234.03,-69.8"/>
<polygon fill="black" stroke="black" points="237.28,-68.49 230.66,-60.22 230.68,-70.81 237.28,-68.49"/>
<g id="a_edge25&#45;headlabel"><a xlink:href="dir_000024_000029.html" target="_top" xlink:title="1">
<text text-anchor="middle" x="241.15" y="-68.44" font-family="Helvetica,sans-Serif" font-size="10.00">1</text>
</a>
</g>
</g>
<!-- dir_96320550a29baac38dc9eb0ae89f5e73&#45;&gt;dir_76fd7680a09542374d3e212281ba6ee2 -->
<g id="edge17" class="edge">
<title>dir_96320550a29baac38dc9eb0ae89f5e73&#45;&gt;dir_76fd7680a09542374d3e212281ba6ee2</title>
<path fill="none" stroke="black" d="M203.78,-132.19C207.71,-156.42 214.91,-200.89 219.57,-229.68"/>
<polygon fill="black" stroke="black" points="216.17,-230.56 221.23,-239.87 223.08,-229.44 216.17,-230.56"/>
<g id="a_edge17&#45;headlabel"><a xlink:href="dir_000025_000008.html" target="_top" xlink:title="4">
<text text-anchor="middle" x="212.79" y="-224.97" font-family="Helvetica,sans-Serif" font-size="10.00">4</text>
</a>
</g>
</g>
<!-- dir_96320550a29baac38dc9eb0ae89f5e73&#45;&gt;dir_83658e075a4ab7b2cbb8779471289882 -->
<g id="edge19" class="edge">
<title>dir_96320550a29baac38dc9eb0ae89f5e73&#45;&gt;dir_83658e075a4ab7b2cbb8779471289882</title>
<path fill="none" stroke="black" d="M184.79,-132.2C173.99,-141.34 159.55,-152.69 146.25,-162.52"/>
<polygon fill="black" stroke="black" points="144.19,-159.69 138.17,-168.41 148.31,-165.35 144.19,-159.69"/>
<g id="a_edge19&#45;headlabel"><a xlink:href="dir_000025_000009.html" target="_top" xlink:title="2">
<text text-anchor="middle" x="145.42" y="-152.78" font-family="Helvetica,sans-Serif" font-size="10.00">2</text>
</a>
</g>
</g>
<!-- dir_96320550a29baac38dc9eb0ae89f5e73&#45;&gt;dir_7913872ef1e9131c7a4facddec50fb6b -->
<g id="edge18" class="edge">
<title>dir_96320550a29baac38dc9eb0ae89f5e73&#45;&gt;dir_7913872ef1e9131c7a4facddec50fb6b</title>
<path fill="none" stroke="black" d="M228.13,-99.34C249.75,-88.45 280.22,-73.1 303.9,-61.18"/>
<polygon fill="black" stroke="black" points="305.58,-64.25 312.94,-56.63 302.43,-58 305.58,-64.25"/>
<g id="a_edge18&#45;headlabel"><a xlink:href="dir_000025_000010.html" target="_top" xlink:title="3">
<text text-anchor="middle" x="303.65" y="-65.9" font-family="Helvetica,sans-Serif" font-size="10.00">3</text>
</a>
</g>
</g>
<!-- dir_96320550a29baac38dc9eb0ae89f5e73&#45;&gt;dir_1367935105ebc251618457953f8d2b80 -->
<g id="edge15" class="edge">
<title>dir_96320550a29baac38dc9eb0ae89f5e73&#45;&gt;dir_1367935105ebc251618457953f8d2b80</title>
<path fill="none" stroke="black" d="M178.75,-95.7C167.42,-86.88 153.47,-76.03 141.18,-66.47"/>
<polygon fill="black" stroke="black" points="143.03,-63.48 132.99,-60.1 138.74,-69.01 143.03,-63.48"/>
<g id="a_edge15&#45;headlabel"><a xlink:href="dir_000025_000027.html" target="_top" xlink:title="2">
<text text-anchor="middle" x="147.61" y="-60.95" font-family="Helvetica,sans-Serif" font-size="10.00">2</text>
</a>
</g>
</g>
<!-- dir_96320550a29baac38dc9eb0ae89f5e73&#45;&gt;dir_26247a4c7d21a73996b8a7832c1a1463 -->
<g id="edge16" class="edge">
<title>dir_96320550a29baac38dc9eb0ae89f5e73&#45;&gt;dir_26247a4c7d21a73996b8a7832c1a1463</title>
<path fill="none" stroke="black" d="M206.44,-95.7C208.89,-87.9 211.84,-78.51 214.57,-69.83"/>
<polygon fill="black" stroke="black" points="217.96,-70.69 217.62,-60.1 211.29,-68.59 217.96,-70.69"/>
<g id="a_edge16&#45;headlabel"><a xlink:href="dir_000025_000029.html" target="_top" xlink:title="2">
<text text-anchor="middle" x="219.6" y="-72.47" font-family="Helvetica,sans-Serif" font-size="10.00">2</text>
</a>
</g>
</g>
<!-- dir_6f7706dde26c4d1d2e9f795efa9b22f1 -->
<g id="node10" class="node">
<title>dir_6f7706dde26c4d1d2e9f795efa9b22f1</title>
<g id="a_node10"><a xlink:href="dir_6f7706dde26c4d1d2e9f795efa9b22f1.html" target="_top" xlink:title="tool">
<polygon fill="white" stroke="black" points="265,-420 211,-420 211,-384 265,-384 265,-420"/>
<text text-anchor="middle" x="238" y="-399.5" font-family="Helvetica,sans-Serif" font-size="10.00">tool</text>
</a>
</g>
</g>
<!-- dir_6f7706dde26c4d1d2e9f795efa9b22f1&#45;&gt;dir_2239b1117054295ada522fe6d99615b2 -->
<g id="edge21" class="edge">
<title>dir_6f7706dde26c4d1d2e9f795efa9b22f1&#45;&gt;dir_2239b1117054295ada522fe6d99615b2</title>
<path fill="none" stroke="black" d="M238,-383.7C238,-375.98 238,-366.71 238,-358.11"/>
<polygon fill="black" stroke="black" points="241.5,-358.1 238,-348.1 234.5,-358.1 241.5,-358.1"/>
<g id="a_edge21&#45;headlabel"><a xlink:href="dir_000028_000003.html" target="_top" xlink:title="1">
<text text-anchor="middle" x="244.34" y="-359.2" font-family="Helvetica,sans-Serif" font-size="10.00">1</text>
</a>
</g>
</g>
<!-- dir_6f7706dde26c4d1d2e9f795efa9b22f1&#45;&gt;dir_83658e075a4ab7b2cbb8779471289882 -->
<g id="edge22" class="edge">
<title>dir_6f7706dde26c4d1d2e9f795efa9b22f1&#45;&gt;dir_83658e075a4ab7b2cbb8779471289882</title>
<path fill="none" stroke="black" d="M210.99,-388.72C174.11,-370.26 109.55,-331.51 83,-276 73.3,-255.72 82.35,-231.26 92.67,-213.13"/>
<polygon fill="black" stroke="black" points="95.85,-214.63 98.09,-204.27 89.88,-210.97 95.85,-214.63"/>
<g id="a_edge22&#45;headlabel"><a xlink:href="dir_000028_000009.html" target="_top" xlink:title="2">
<text text-anchor="middle" x="96.4" y="-216.68" font-family="Helvetica,sans-Serif" font-size="10.00">2</text>
</a>
</g>
</g>
<!-- dir_6f7706dde26c4d1d2e9f795efa9b22f1&#45;&gt;dir_c42d739f81e7f8c788f3b0a5285dd299 -->
<g id="edge24" class="edge">
<title>dir_6f7706dde26c4d1d2e9f795efa9b22f1&#45;&gt;dir_c42d739f81e7f8c788f3b0a5285dd299</title>
<path fill="none" stroke="black" d="M252.25,-383.61C259.97,-373.62 269.28,-360.58 276,-348 292.1,-317.85 296.9,-309.63 303,-276 306.7,-255.6 306.52,-232.14 305.51,-214.43"/>
<polygon fill="black" stroke="black" points="308.99,-213.96 304.81,-204.22 302.01,-214.44 308.99,-213.96"/>
<g id="a_edge24&#45;headlabel"><a xlink:href="dir_000028_000011.html" target="_top" xlink:title="1">
<text text-anchor="middle" x="312.07" y="-214.85" font-family="Helvetica,sans-Serif" font-size="10.00">1</text>
</a>
</g>
</g>
<!-- dir_6f7706dde26c4d1d2e9f795efa9b22f1&#45;&gt;dir_96320550a29baac38dc9eb0ae89f5e73 -->
<g id="edge23" class="edge">
<title>dir_6f7706dde26c4d1d2e9f795efa9b22f1&#45;&gt;dir_96320550a29baac38dc9eb0ae89f5e73</title>
<path fill="none" stroke="black" d="M256.62,-383.77C297.85,-343.53 389.31,-241.22 339,-168 316.51,-135.27 270.78,-122.74 238.13,-117.95"/>
<polygon fill="black" stroke="black" points="238.4,-114.46 228.03,-116.65 237.5,-121.4 238.4,-114.46"/>
<g id="a_edge23&#45;headlabel"><a xlink:href="dir_000028_000025.html" target="_top" xlink:title="1">
<text text-anchor="middle" x="242.32" y="-109.6" font-family="Helvetica,sans-Serif" font-size="10.00">1</text>
</a>
</g>
</g>
<!-- dir_6f7706dde26c4d1d2e9f795efa9b22f1&#45;&gt;dir_1367935105ebc251618457953f8d2b80 -->
<g id="edge20" class="edge">
<title>dir_6f7706dde26c4d1d2e9f795efa9b22f1&#45;&gt;dir_1367935105ebc251618457953f8d2b80</title>
<path fill="none" stroke="black" d="M210.59,-396.08C153.06,-384 25,-347.22 25,-259 25,-259 25,-259 25,-185 25,-138.31 59.44,-93.84 84.73,-67.49"/>
<polygon fill="black" stroke="black" points="87.37,-69.8 91.91,-60.23 82.39,-64.88 87.37,-69.8"/>
<g id="a_edge20&#45;headlabel"><a xlink:href="dir_000028_000027.html" target="_top" xlink:title="2">
<text text-anchor="middle" x="86.86" y="-71.85" font-family="Helvetica,sans-Serif" font-size="10.00">2</text>
</a>
</g>
</g>
</g>
</svg>
