<?xml version="1.0" encoding="UTF-8" standalone="no"?>
<!DOCTYPE svg PUBLIC "-//W3C//DTD SVG 1.1//EN"
 "http://www.w3.org/Graphics/SVG/1.1/DTD/svg11.dtd">
<!-- Generated by graphviz version 2.43.0 (0)
 -->
<!-- Title: roblab_common_lib/include/roblab_common/control/dob.hpp Pages: 1 -->
<svg width="365pt" height="181pt"
 viewBox="0.00 0.00 365.00 181.00" xmlns="http://www.w3.org/2000/svg" xmlns:xlink="http://www.w3.org/1999/xlink">
<g id="graph0" class="graph" transform="scale(1 1) rotate(0) translate(4 177)">
<title>roblab_common_lib/include/roblab_common/control/dob.hpp</title>
<!-- Node1 -->
<g id="node1" class="node">
<title>Node1</title>
<g id="a_node1"><a xlink:title=" ">
<polygon fill="#999999" stroke="#666666" points="291.5,-173 140.5,-173 140.5,-132 291.5,-132 291.5,-173"/>
<text text-anchor="start" x="148.5" y="-161" font-family="Helvetica,sans-Serif" font-size="10.00">roblab_common_lib/include</text>
<text text-anchor="start" x="148.5" y="-150" font-family="Helvetica,sans-Serif" font-size="10.00">/roblab_common/control</text>
<text text-anchor="middle" x="216" y="-139" font-family="Helvetica,sans-Serif" font-size="10.00">/dob.hpp</text>
</a>
</g>
</g>
<!-- Node2 -->
<g id="node2" class="node">
<title>Node2</title>
<g id="a_node2"><a xlink:href="pid_8hpp.html" target="_top" xlink:title=" ">
<polygon fill="white" stroke="#666666" points="207,-96 75,-96 75,-66 207,-66 207,-96"/>
<text text-anchor="start" x="83" y="-84" font-family="Helvetica,sans-Serif" font-size="10.00">roblab_common/control</text>
<text text-anchor="middle" x="141" y="-73" font-family="Helvetica,sans-Serif" font-size="10.00">/pid.hpp</text>
</a>
</g>
</g>
<!-- Node1&#45;&gt;Node2 -->
<g id="edge1" class="edge">
<title>Node1&#45;&gt;Node2</title>
<path fill="none" stroke="#63b8ff" d="M194.71,-131.77C185,-122.78 173.51,-112.12 163.64,-102.98"/>
<polygon fill="#63b8ff" stroke="#63b8ff" points="165.86,-100.27 156.15,-96.04 161.11,-105.4 165.86,-100.27"/>
</g>
<!-- Node5 -->
<g id="node5" class="node">
<title>Node5</title>
<g id="a_node5"><a xlink:href="lpf_8hpp.html" target="_top" xlink:title=" ">
<polygon fill="white" stroke="#666666" points="357,-96 225,-96 225,-66 357,-66 357,-96"/>
<text text-anchor="start" x="233" y="-84" font-family="Helvetica,sans-Serif" font-size="10.00">roblab_common/control</text>
<text text-anchor="middle" x="291" y="-73" font-family="Helvetica,sans-Serif" font-size="10.00">/lpf.hpp</text>
</a>
</g>
</g>
<!-- Node1&#45;&gt;Node5 -->
<g id="edge4" class="edge">
<title>Node1&#45;&gt;Node5</title>
<path fill="none" stroke="#63b8ff" d="M237.29,-131.77C247,-122.78 258.49,-112.12 268.36,-102.98"/>
<polygon fill="#63b8ff" stroke="#63b8ff" points="270.89,-105.4 275.85,-96.04 266.14,-100.27 270.89,-105.4"/>
</g>
<!-- Node3 -->
<g id="node3" class="node">
<title>Node3</title>
<g id="a_node3"><a xlink:href="differential_8hpp.html" target="_top" xlink:title=" ">
<polygon fill="white" stroke="#666666" points="132,-30 0,-30 0,0 132,0 132,-30"/>
<text text-anchor="start" x="8" y="-18" font-family="Helvetica,sans-Serif" font-size="10.00">roblab_common/control</text>
<text text-anchor="middle" x="66" y="-7" font-family="Helvetica,sans-Serif" font-size="10.00">/differential.hpp</text>
</a>
</g>
</g>
<!-- Node2&#45;&gt;Node3 -->
<g id="edge2" class="edge">
<title>Node2&#45;&gt;Node3</title>
<path fill="none" stroke="#63b8ff" d="M124.36,-65.8C114.35,-57.26 101.45,-46.25 90.32,-36.75"/>
<polygon fill="#63b8ff" stroke="#63b8ff" points="92.48,-33.99 82.6,-30.16 87.93,-39.32 92.48,-33.99"/>
</g>
<!-- Node4 -->
<g id="node4" class="node">
<title>Node4</title>
<g id="a_node4"><a xlink:href="integral_8hpp.html" target="_top" xlink:title=" ">
<polygon fill="white" stroke="#666666" points="282,-30 150,-30 150,0 282,0 282,-30"/>
<text text-anchor="start" x="158" y="-18" font-family="Helvetica,sans-Serif" font-size="10.00">roblab_common/control</text>
<text text-anchor="middle" x="216" y="-7" font-family="Helvetica,sans-Serif" font-size="10.00">/integral.hpp</text>
</a>
</g>
</g>
<!-- Node2&#45;&gt;Node4 -->
<g id="edge3" class="edge">
<title>Node2&#45;&gt;Node4</title>
<path fill="none" stroke="#63b8ff" d="M157.64,-65.8C167.65,-57.26 180.55,-46.25 191.68,-36.75"/>
<polygon fill="#63b8ff" stroke="#63b8ff" points="194.07,-39.32 199.4,-30.16 189.52,-33.99 194.07,-39.32"/>
</g>
</g>
</svg>
