<?xml version="1.0" encoding="UTF-8" standalone="no"?>
<!DOCTYPE svg PUBLIC "-//W3C//DTD SVG 1.1//EN"
 "http://www.w3.org/Graphics/SVG/1.1/DTD/svg11.dtd">
<!-- Generated by graphviz version 2.43.0 (0)
 -->
<!-- Title: roblab_common_lib/src/dob.cpp Pages: 1 -->
<svg width="240pt" height="203pt"
 viewBox="0.00 0.00 240.00 203.00" xmlns="http://www.w3.org/2000/svg" xmlns:xlink="http://www.w3.org/1999/xlink">
<g id="graph0" class="graph" transform="scale(1 1) rotate(0) translate(4 199)">
<title>roblab_common_lib/src/dob.cpp</title>
<!-- Node1 -->
<g id="node1" class="node">
<title>Node1</title>
<g id="a_node1"><a xlink:title=" ">
<polygon fill="#999999" stroke="#666666" points="232,-195 102,-195 102,-165 232,-165 232,-195"/>
<text text-anchor="start" x="110" y="-183" font-family="Helvetica,sans-Serif" font-size="10.00">roblab_common_lib/src</text>
<text text-anchor="middle" x="167" y="-172" font-family="Helvetica,sans-Serif" font-size="10.00">/dob.cpp</text>
</a>
</g>
</g>
<!-- Node2 -->
<g id="node2" class="node">
<title>Node2</title>
<g id="a_node2"><a xlink:href="dob_8hpp.html" target="_top" xlink:title=" ">
<polygon fill="white" stroke="#666666" points="160,-129 104,-129 104,-110 160,-110 160,-129"/>
<text text-anchor="middle" x="132" y="-117" font-family="Helvetica,sans-Serif" font-size="10.00">dob.hpp</text>
</a>
</g>
</g>
<!-- Node1&#45;&gt;Node2 -->
<g id="edge1" class="edge">
<title>Node1&#45;&gt;Node2</title>
<path fill="none" stroke="#63b8ff" d="M158.53,-164.84C153.71,-156.78 147.63,-146.62 142.5,-138.06"/>
<polygon fill="#63b8ff" stroke="#63b8ff" points="145.38,-136.05 137.24,-129.27 139.38,-139.64 145.38,-136.05"/>
</g>
<!-- Node7 -->
<g id="node7" class="node">
<title>Node7</title>
<g id="a_node7"><a xlink:title=" ">
<polygon fill="#e0e0e0" stroke="#999999" points="225.5,-129 178.5,-129 178.5,-110 225.5,-110 225.5,-129"/>
<text text-anchor="middle" x="202" y="-117" font-family="Helvetica,sans-Serif" font-size="10.00">cmath</text>
</a>
</g>
</g>
<!-- Node1&#45;&gt;Node7 -->
<g id="edge6" class="edge">
<title>Node1&#45;&gt;Node7</title>
<path fill="none" stroke="#63b8ff" d="M175.47,-164.84C180.29,-156.78 186.37,-146.62 191.5,-138.06"/>
<polygon fill="#63b8ff" stroke="#63b8ff" points="194.62,-139.64 196.76,-129.27 188.62,-136.05 194.62,-139.64"/>
</g>
<!-- Node3 -->
<g id="node3" class="node">
<title>Node3</title>
<g id="a_node3"><a xlink:href="pid_8hpp.html" target="_top" xlink:title=" ">
<polygon fill="white" stroke="#666666" points="123.5,-74 70.5,-74 70.5,-55 123.5,-55 123.5,-74"/>
<text text-anchor="middle" x="97" y="-62" font-family="Helvetica,sans-Serif" font-size="10.00">pid.hpp</text>
</a>
</g>
</g>
<!-- Node2&#45;&gt;Node3 -->
<g id="edge2" class="edge">
<title>Node2&#45;&gt;Node3</title>
<path fill="none" stroke="#63b8ff" d="M126.22,-109.75C121.38,-102.42 114.32,-91.73 108.36,-82.7"/>
<polygon fill="#63b8ff" stroke="#63b8ff" points="111.1,-80.5 102.67,-74.09 105.26,-84.36 111.1,-80.5"/>
</g>
<!-- Node6 -->
<g id="node6" class="node">
<title>Node6</title>
<g id="a_node6"><a xlink:href="lpf_8hpp.html" target="_top" xlink:title=" ">
<polygon fill="white" stroke="#666666" points="192,-74 142,-74 142,-55 192,-55 192,-74"/>
<text text-anchor="middle" x="167" y="-62" font-family="Helvetica,sans-Serif" font-size="10.00">lpf.hpp</text>
</a>
</g>
</g>
<!-- Node2&#45;&gt;Node6 -->
<g id="edge5" class="edge">
<title>Node2&#45;&gt;Node6</title>
<path fill="none" stroke="#63b8ff" d="M137.78,-109.75C142.62,-102.42 149.68,-91.73 155.64,-82.7"/>
<polygon fill="#63b8ff" stroke="#63b8ff" points="158.74,-84.36 161.33,-74.09 152.9,-80.5 158.74,-84.36"/>
</g>
<!-- Node4 -->
<g id="node4" class="node">
<title>Node4</title>
<g id="a_node4"><a xlink:href="differential_8hpp.html" target="_top" xlink:title=" ">
<polygon fill="white" stroke="#666666" points="92,-19 0,-19 0,0 92,0 92,-19"/>
<text text-anchor="middle" x="46" y="-7" font-family="Helvetica,sans-Serif" font-size="10.00">differential.hpp</text>
</a>
</g>
</g>
<!-- Node3&#45;&gt;Node4 -->
<g id="edge3" class="edge">
<title>Node3&#45;&gt;Node4</title>
<path fill="none" stroke="#63b8ff" d="M88.58,-54.75C81.23,-47.11 70.37,-35.82 61.46,-26.56"/>
<polygon fill="#63b8ff" stroke="#63b8ff" points="63.72,-23.87 54.26,-19.09 58.68,-28.72 63.72,-23.87"/>
</g>
<!-- Node5 -->
<g id="node5" class="node">
<title>Node5</title>
<g id="a_node5"><a xlink:href="integral_8hpp.html" target="_top" xlink:title=" ">
<polygon fill="white" stroke="#666666" points="185.5,-19 110.5,-19 110.5,0 185.5,0 185.5,-19"/>
<text text-anchor="middle" x="148" y="-7" font-family="Helvetica,sans-Serif" font-size="10.00">integral.hpp</text>
</a>
</g>
</g>
<!-- Node3&#45;&gt;Node5 -->
<g id="edge4" class="edge">
<title>Node3&#45;&gt;Node5</title>
<path fill="none" stroke="#63b8ff" d="M105.42,-54.75C112.77,-47.11 123.63,-35.82 132.54,-26.56"/>
<polygon fill="#63b8ff" stroke="#63b8ff" points="135.32,-28.72 139.74,-19.09 130.28,-23.87 135.32,-28.72"/>
</g>
</g>
</svg>
