<?xml version="1.0" encoding="UTF-8" standalone="no"?>
<!DOCTYPE svg PUBLIC "-//W3C//DTD SVG 1.1//EN"
 "http://www.w3.org/Graphics/SVG/1.1/DTD/svg11.dtd">
<!-- Generated by graphviz version 2.43.0 (0)
 -->
<!-- Title: alps_common_lib/include/alps_cmn/control/dob.hpp Pages: 1 -->
<svg width="415pt" height="148pt"
 viewBox="0.00 0.00 415.00 148.00" xmlns="http://www.w3.org/2000/svg" xmlns:xlink="http://www.w3.org/1999/xlink">
<g id="graph0" class="graph" transform="scale(1 1) rotate(0) translate(4 144)">
<title>alps_common_lib/include/alps_cmn/control/dob.hpp</title>
<!-- Node1 -->
<g id="node1" class="node">
<title>Node1</title>
<g id="a_node1"><a xlink:title=" ">
<polygon fill="#999999" stroke="#666666" points="333.5,-140 188.5,-140 188.5,-110 333.5,-110 333.5,-140"/>
<text text-anchor="start" x="196.5" y="-128" font-family="Helvetica,sans-Serif" font-size="10.00">alps_common_lib/include</text>
<text text-anchor="middle" x="261" y="-117" font-family="Helvetica,sans-Serif" font-size="10.00">/alps_cmn/control/dob.hpp</text>
</a>
</g>
</g>
<!-- Node2 -->
<g id="node2" class="node">
<title>Node2</title>
<g id="a_node2"><a xlink:href="pid_8hpp.html" target="_top" xlink:title=" ">
<polygon fill="white" stroke="#666666" points="252.5,-74 113.5,-74 113.5,-55 252.5,-55 252.5,-74"/>
<text text-anchor="middle" x="183" y="-62" font-family="Helvetica,sans-Serif" font-size="10.00">alps_cmn/control/pid.hpp</text>
</a>
</g>
</g>
<!-- Node1&#45;&gt;Node2 -->
<g id="edge1" class="edge">
<title>Node1&#45;&gt;Node2</title>
<path fill="none" stroke="#63b8ff" d="M242.12,-109.84C230.22,-100.91 214.88,-89.41 202.8,-80.35"/>
<polygon fill="#63b8ff" stroke="#63b8ff" points="204.79,-77.47 194.69,-74.27 200.59,-83.07 204.79,-77.47"/>
</g>
<!-- Node5 -->
<g id="node5" class="node">
<title>Node5</title>
<g id="a_node5"><a xlink:href="lpf_8hpp.html" target="_top" xlink:title=" ">
<polygon fill="white" stroke="#666666" points="407,-74 271,-74 271,-55 407,-55 407,-74"/>
<text text-anchor="middle" x="339" y="-62" font-family="Helvetica,sans-Serif" font-size="10.00">alps_cmn/control/lpf.hpp</text>
</a>
</g>
</g>
<!-- Node1&#45;&gt;Node5 -->
<g id="edge4" class="edge">
<title>Node1&#45;&gt;Node5</title>
<path fill="none" stroke="#63b8ff" d="M279.88,-109.84C291.78,-100.91 307.12,-89.41 319.2,-80.35"/>
<polygon fill="#63b8ff" stroke="#63b8ff" points="321.41,-83.07 327.31,-74.27 317.21,-77.47 321.41,-83.07"/>
</g>
<!-- Node3 -->
<g id="node3" class="node">
<title>Node3</title>
<g id="a_node3"><a xlink:href="differential_8hpp.html" target="_top" xlink:title=" ">
<polygon fill="white" stroke="#666666" points="178,-19 0,-19 0,0 178,0 178,-19"/>
<text text-anchor="middle" x="89" y="-7" font-family="Helvetica,sans-Serif" font-size="10.00">alps_cmn/control/differential.hpp</text>
</a>
</g>
</g>
<!-- Node2&#45;&gt;Node3 -->
<g id="edge2" class="edge">
<title>Node2&#45;&gt;Node3</title>
<path fill="none" stroke="#63b8ff" d="M167.9,-54.98C153.18,-46.69 130.58,-33.94 113.33,-24.22"/>
<polygon fill="#63b8ff" stroke="#63b8ff" points="114.81,-21.03 104.38,-19.17 111.37,-27.13 114.81,-21.03"/>
</g>
<!-- Node4 -->
<g id="node4" class="node">
<title>Node4</title>
<g id="a_node4"><a xlink:href="integral_8hpp.html" target="_top" xlink:title=" ">
<polygon fill="white" stroke="#666666" points="357.5,-19 196.5,-19 196.5,0 357.5,0 357.5,-19"/>
<text text-anchor="middle" x="277" y="-7" font-family="Helvetica,sans-Serif" font-size="10.00">alps_cmn/control/integral.hpp</text>
</a>
</g>
</g>
<!-- Node2&#45;&gt;Node4 -->
<g id="edge3" class="edge">
<title>Node2&#45;&gt;Node4</title>
<path fill="none" stroke="#63b8ff" d="M198.1,-54.98C212.82,-46.69 235.42,-33.94 252.67,-24.22"/>
<polygon fill="#63b8ff" stroke="#63b8ff" points="254.63,-27.13 261.62,-19.17 251.19,-21.03 254.63,-27.13"/>
</g>
</g>
</svg>
