<?xml version="1.0" encoding="UTF-8" standalone="no"?>
<!DOCTYPE svg PUBLIC "-//W3C//DTD SVG 1.1//EN"
 "http://www.w3.org/Graphics/SVG/1.1/DTD/svg11.dtd">
<!-- Generated by graphviz version 2.43.0 (0)
 -->
<!-- Title: alps_common_lib/include/alps_cmn/time/duration.hpp Pages: 1 -->
<svg width="1241pt" height="440pt"
 viewBox="0.00 0.00 1240.50 440.00" xmlns="http://www.w3.org/2000/svg" xmlns:xlink="http://www.w3.org/1999/xlink">
<g id="graph0" class="graph" transform="scale(1 1) rotate(0) translate(4 436)">
<title>alps_common_lib/include/alps_cmn/time/duration.hpp</title>
<polygon fill="white" stroke="transparent" points="-4,4 -4,-436 1236.5,-436 1236.5,4 -4,4"/>
<!-- Node1 -->
<g id="node1" class="node">
<title>Node1</title>
<g id="a_node1"><a xlink:title="時間間隔の型エイリアス">
<polygon fill="#bfbfbf" stroke="black" points="559,-401.5 559,-431.5 715,-431.5 715,-401.5 559,-401.5"/>
<text text-anchor="start" x="567" y="-419.5" font-family="Helvetica,sans-Serif" font-size="10.00">alps_common_lib/include</text>
<text text-anchor="middle" x="637" y="-408.5" font-family="Helvetica,sans-Serif" font-size="10.00">/alps_cmn/time/duration.hpp</text>
</a>
</g>
</g>
<!-- Node2 -->
<g id="node2" class="node">
<title>Node2</title>
<g id="a_node2"><a xlink:href="custom__type__serialize__rule_8hpp.html" target="_top" xlink:title="カスタム型のシリアライズ規則を定義する">
<polygon fill="white" stroke="black" points="0,-6 0,-47 174,-47 174,-6 0,-6"/>
<text text-anchor="start" x="8" y="-35" font-family="Helvetica,sans-Serif" font-size="10.00">alps_common_lib/include</text>
<text text-anchor="start" x="8" y="-24" font-family="Helvetica,sans-Serif" font-size="10.00">/alps_cmn/communication</text>
<text text-anchor="middle" x="87" y="-13" font-family="Helvetica,sans-Serif" font-size="10.00">/custom_type_serialize_rule.hpp</text>
</a>
</g>
</g>
<!-- Node1&#45;&gt;Node2 -->
<g id="edge1" class="edge">
<title>Node1&#45;&gt;Node2</title>
<path fill="none" stroke="midnightblue" d="M548.47,-411.02C386.75,-400.41 60,-366.63 60,-267 60,-267 60,-267 60,-187 60,-136.17 73.5,-77.48 81.41,-47.46"/>
<polygon fill="midnightblue" stroke="midnightblue" points="548.68,-414.54 558.88,-411.69 549.13,-407.56 548.68,-414.54"/>
</g>
<!-- Node3 -->
<g id="node3" class="node">
<title>Node3</title>
<g id="a_node3"><a xlink:href="change__rate__limiter_8hpp.html" target="_top" xlink:title="時間あたりの変化量に制限をかけるクラス">
<polygon fill="white" stroke="black" points="991.5,-323.5 991.5,-364.5 1132.5,-364.5 1132.5,-323.5 991.5,-323.5"/>
<text text-anchor="start" x="999.5" y="-352.5" font-family="Helvetica,sans-Serif" font-size="10.00">alps_common_lib/include</text>
<text text-anchor="start" x="999.5" y="-341.5" font-family="Helvetica,sans-Serif" font-size="10.00">/alps_cmn/control/change</text>
<text text-anchor="middle" x="1062" y="-330.5" font-family="Helvetica,sans-Serif" font-size="10.00">_rate_limiter.hpp</text>
</a>
</g>
</g>
<!-- Node1&#45;&gt;Node3 -->
<g id="edge2" class="edge">
<title>Node1&#45;&gt;Node3</title>
<path fill="none" stroke="midnightblue" d="M725.38,-400.84C804.31,-387.75 918.44,-368.81 991.42,-356.71"/>
<polygon fill="midnightblue" stroke="midnightblue" points="724.74,-397.4 715.45,-402.49 725.88,-404.3 724.74,-397.4"/>
</g>
<!-- Node5 -->
<g id="node5" class="node">
<title>Node5</title>
<g id="a_node5"><a xlink:href="differentiator_8hpp.html" target="_top" xlink:title="微分器ライブラリ">
<polygon fill="white" stroke="black" points="278,-329 278,-359 468,-359 468,-329 278,-329"/>
<text text-anchor="start" x="286" y="-347" font-family="Helvetica,sans-Serif" font-size="10.00">alps_common_lib/include</text>
<text text-anchor="middle" x="373" y="-336" font-family="Helvetica,sans-Serif" font-size="10.00">/alps_cmn/control/differentiator.hpp</text>
</a>
</g>
</g>
<!-- Node1&#45;&gt;Node5 -->
<g id="edge4" class="edge">
<title>Node1&#45;&gt;Node5</title>
<path fill="none" stroke="midnightblue" d="M574.81,-398.89C529.51,-386.79 468.79,-370.58 425.83,-359.11"/>
<polygon fill="midnightblue" stroke="midnightblue" points="573.96,-402.29 584.53,-401.49 575.77,-395.53 573.96,-402.29"/>
</g>
<!-- Node17 -->
<g id="node17" class="node">
<title>Node17</title>
<g id="a_node17"><a xlink:href="integrator_8hpp.html" target="_top" xlink:title="積分器ライブラリ">
<polygon fill="white" stroke="black" points="724,-329 724,-359 898,-359 898,-329 724,-329"/>
<text text-anchor="start" x="732" y="-347" font-family="Helvetica,sans-Serif" font-size="10.00">alps_common_lib/include</text>
<text text-anchor="middle" x="811" y="-336" font-family="Helvetica,sans-Serif" font-size="10.00">/alps_cmn/control/integrator.hpp</text>
</a>
</g>
</g>
<!-- Node1&#45;&gt;Node17 -->
<g id="edge22" class="edge">
<title>Node1&#45;&gt;Node17</title>
<path fill="none" stroke="midnightblue" d="M681.43,-397.5C710.9,-385.56 749.02,-370.11 776.27,-359.07"/>
<polygon fill="midnightblue" stroke="midnightblue" points="679.75,-394.4 671.79,-401.4 682.38,-400.89 679.75,-394.4"/>
</g>
<!-- Node19 -->
<g id="node19" class="node">
<title>Node19</title>
<g id="a_node19"><a xlink:href="low__pass__filter_8hpp.html" target="_top" xlink:title="ローパスフィルタのクラス">
<polygon fill="white" stroke="black" points="518,-323.5 518,-364.5 658,-364.5 658,-323.5 518,-323.5"/>
<text text-anchor="start" x="526" y="-352.5" font-family="Helvetica,sans-Serif" font-size="10.00">alps_common_lib/include</text>
<text text-anchor="start" x="526" y="-341.5" font-family="Helvetica,sans-Serif" font-size="10.00">/alps_cmn/control/low</text>
<text text-anchor="middle" x="588" y="-330.5" font-family="Helvetica,sans-Serif" font-size="10.00">_pass_filter.hpp</text>
</a>
</g>
</g>
<!-- Node1&#45;&gt;Node19 -->
<g id="edge25" class="edge">
<title>Node1&#45;&gt;Node19</title>
<path fill="none" stroke="midnightblue" d="M621.35,-392.98C615,-383.85 607.74,-373.4 601.61,-364.59"/>
<polygon fill="midnightblue" stroke="midnightblue" points="618.5,-395.02 627.08,-401.23 624.25,-391.02 618.5,-395.02"/>
</g>
<!-- Node20 -->
<g id="node20" class="node">
<title>Node20</title>
<g id="a_node20"><a xlink:href="potentiometer_8hpp.html" target="_top" xlink:title="ポテンショメータのクラス">
<polygon fill="white" stroke="black" points="589,-251 589,-281 783,-281 783,-251 589,-251"/>
<text text-anchor="start" x="597" y="-269" font-family="Helvetica,sans-Serif" font-size="10.00">alps_common_lib/include</text>
<text text-anchor="middle" x="686" y="-258" font-family="Helvetica,sans-Serif" font-size="10.00">/alps_cmn/sensor/potentiometer.hpp</text>
</a>
</g>
</g>
<!-- Node1&#45;&gt;Node20 -->
<g id="edge28" class="edge">
<title>Node1&#45;&gt;Node20</title>
<path fill="none" stroke="midnightblue" d="M652.82,-392.68C658.01,-384.3 663.38,-374.52 667,-365 677.91,-336.33 682.82,-300.46 684.81,-281.05"/>
<polygon fill="midnightblue" stroke="midnightblue" points="649.83,-390.86 647.34,-401.16 655.71,-394.66 649.83,-390.86"/>
</g>
<!-- Node4 -->
<g id="node4" class="node">
<title>Node4</title>
<g id="a_node4"><a xlink:href="output__change__limit__motor__decorator_8hpp.html" target="_top" xlink:title="出力変化制限を掛けるモーターデコレータ">
<polygon fill="white" stroke="black" points="1041.5,-245.5 1041.5,-286.5 1232.5,-286.5 1232.5,-245.5 1041.5,-245.5"/>
<text text-anchor="start" x="1049.5" y="-274.5" font-family="Helvetica,sans-Serif" font-size="10.00">alps_common_lib/include</text>
<text text-anchor="start" x="1049.5" y="-263.5" font-family="Helvetica,sans-Serif" font-size="10.00">/alps_cmn/actuator/output</text>
<text text-anchor="middle" x="1137" y="-252.5" font-family="Helvetica,sans-Serif" font-size="10.00">_change_limit_motor_decorator.hpp</text>
</a>
</g>
</g>
<!-- Node3&#45;&gt;Node4 -->
<g id="edge3" class="edge">
<title>Node3&#45;&gt;Node4</title>
<path fill="none" stroke="midnightblue" d="M1088.44,-316.2C1098.1,-306.42 1108.84,-295.54 1117.75,-286.51"/>
<polygon fill="midnightblue" stroke="midnightblue" points="1085.85,-313.85 1081.31,-323.43 1090.83,-318.77 1085.85,-313.85"/>
</g>
<!-- Node6 -->
<g id="node6" class="node">
<title>Node6</title>
<g id="a_node6"><a xlink:href="friction__compensated__motor_8hpp.html" target="_top" xlink:title="モーターに対して摩擦補償を行うデコレーター">
<polygon fill="white" stroke="black" points="269.5,-245.5 269.5,-286.5 412.5,-286.5 412.5,-245.5 269.5,-245.5"/>
<text text-anchor="start" x="277.5" y="-274.5" font-family="Helvetica,sans-Serif" font-size="10.00">alps_common_lib/include</text>
<text text-anchor="start" x="277.5" y="-263.5" font-family="Helvetica,sans-Serif" font-size="10.00">/alps_cmn/control/friction</text>
<text text-anchor="middle" x="341" y="-252.5" font-family="Helvetica,sans-Serif" font-size="10.00">_compensated_motor.hpp</text>
</a>
</g>
</g>
<!-- Node5&#45;&gt;Node6 -->
<g id="edge5" class="edge">
<title>Node5&#45;&gt;Node6</title>
<path fill="none" stroke="midnightblue" d="M363.02,-319.31C358.61,-308.83 353.48,-296.65 349.29,-286.68"/>
<polygon fill="midnightblue" stroke="midnightblue" points="359.87,-320.85 366.98,-328.7 366.33,-318.13 359.87,-320.85"/>
</g>
<!-- Node8 -->
<g id="node8" class="node">
<title>Node8</title>
<g id="a_node8"><a xlink:href="low__pass__differentiator_8hpp.html" target="_top" xlink:title=" ">
<polygon fill="white" stroke="black" points="431,-245.5 431,-286.5 571,-286.5 571,-245.5 431,-245.5"/>
<text text-anchor="start" x="439" y="-274.5" font-family="Helvetica,sans-Serif" font-size="10.00">alps_common_lib/include</text>
<text text-anchor="start" x="439" y="-263.5" font-family="Helvetica,sans-Serif" font-size="10.00">/alps_cmn/control/low</text>
<text text-anchor="middle" x="501" y="-252.5" font-family="Helvetica,sans-Serif" font-size="10.00">_pass_differentiator.hpp</text>
</a>
</g>
</g>
<!-- Node5&#45;&gt;Node8 -->
<g id="edge7" class="edge">
<title>Node5&#45;&gt;Node8</title>
<path fill="none" stroke="midnightblue" d="M405.41,-323.75C424.46,-312.44 448.5,-298.17 467.7,-286.77"/>
<polygon fill="midnightblue" stroke="midnightblue" points="403.59,-320.77 396.78,-328.88 407.16,-326.79 403.59,-320.77"/>
</g>
<!-- Node15 -->
<g id="node15" class="node">
<title>Node15</title>
<g id="a_node15"><a xlink:href="alps__common__lib_2include_2alps__cmn_2sensor_2incremental__encoder_8hpp.html" target="_top" xlink:title=" ">
<polygon fill="white" stroke="black" points="88.5,-245.5 88.5,-286.5 251.5,-286.5 251.5,-245.5 88.5,-245.5"/>
<text text-anchor="start" x="96.5" y="-274.5" font-family="Helvetica,sans-Serif" font-size="10.00">alps_common_lib/include</text>
<text text-anchor="start" x="96.5" y="-263.5" font-family="Helvetica,sans-Serif" font-size="10.00">/alps_cmn/sensor/incremental</text>
<text text-anchor="middle" x="170" y="-252.5" font-family="Helvetica,sans-Serif" font-size="10.00">_encoder.hpp</text>
</a>
</g>
</g>
<!-- Node5&#45;&gt;Node15 -->
<g id="edge20" class="edge">
<title>Node5&#45;&gt;Node15</title>
<path fill="none" stroke="midnightblue" d="M325.61,-325.26C294.69,-313.68 254.31,-298.56 222.43,-286.63"/>
<polygon fill="midnightblue" stroke="midnightblue" points="324.7,-328.65 335.29,-328.88 327.15,-322.1 324.7,-328.65"/>
</g>
<!-- Node7 -->
<g id="node7" class="node">
<title>Node7</title>
<g id="a_node7"><a xlink:href="motor__friction__analyzer_8hpp.html" target="_top" xlink:title="モーター軸の摩擦力を計測するクラス">
<polygon fill="white" stroke="black" points="294,-167.5 294,-208.5 454,-208.5 454,-167.5 294,-167.5"/>
<text text-anchor="start" x="302" y="-196.5" font-family="Helvetica,sans-Serif" font-size="10.00">alps_common_lib/include</text>
<text text-anchor="start" x="302" y="-185.5" font-family="Helvetica,sans-Serif" font-size="10.00">/alps_cmn/tool/motor_friction</text>
<text text-anchor="middle" x="374" y="-174.5" font-family="Helvetica,sans-Serif" font-size="10.00">_analyzer.hpp</text>
</a>
</g>
</g>
<!-- Node6&#45;&gt;Node7 -->
<g id="edge6" class="edge">
<title>Node6&#45;&gt;Node7</title>
<path fill="none" stroke="midnightblue" d="M353.52,-236.17C357.53,-226.93 361.88,-216.92 365.53,-208.51"/>
<polygon fill="midnightblue" stroke="midnightblue" points="350.27,-234.86 349.5,-245.43 356.69,-237.65 350.27,-234.86"/>
</g>
<!-- Node8&#45;&gt;Node7 -->
<g id="edge19" class="edge">
<title>Node8&#45;&gt;Node7</title>
<path fill="none" stroke="midnightblue" d="M459.56,-240.2C442.38,-229.92 422.73,-218.16 406.59,-208.51"/>
<polygon fill="midnightblue" stroke="midnightblue" points="457.92,-243.3 468.29,-245.43 461.51,-237.29 457.92,-243.3"/>
</g>
<!-- Node9 -->
<g id="node9" class="node">
<title>Node9</title>
<g id="a_node9"><a xlink:href="motor__velocity__controller_8hpp.html" target="_top" xlink:title=" ">
<polygon fill="white" stroke="black" points="411,-89.5 411,-130.5 551,-130.5 551,-89.5 411,-89.5"/>
<text text-anchor="start" x="419" y="-118.5" font-family="Helvetica,sans-Serif" font-size="10.00">alps_common_lib/include</text>
<text text-anchor="start" x="419" y="-107.5" font-family="Helvetica,sans-Serif" font-size="10.00">/alps_cmn/control/motor</text>
<text text-anchor="middle" x="481" y="-96.5" font-family="Helvetica,sans-Serif" font-size="10.00">_velocity_controller.hpp</text>
</a>
</g>
</g>
<!-- Node8&#45;&gt;Node9 -->
<g id="edge8" class="edge">
<title>Node8&#45;&gt;Node9</title>
<path fill="none" stroke="midnightblue" d="M497.15,-235.36C493.16,-204.61 487.02,-157.36 483.58,-130.83"/>
<polygon fill="midnightblue" stroke="midnightblue" points="493.71,-236.03 498.47,-245.5 500.65,-235.13 493.71,-236.03"/>
</g>
<!-- Node13 -->
<g id="node13" class="node">
<title>Node13</title>
<g id="a_node13"><a xlink:href="pid_8hpp.html" target="_top" xlink:title=" ">
<polygon fill="white" stroke="black" points="537,-173 537,-203 679,-203 679,-173 537,-173"/>
<text text-anchor="start" x="545" y="-191" font-family="Helvetica,sans-Serif" font-size="10.00">alps_common_lib/include</text>
<text text-anchor="middle" x="608" y="-180" font-family="Helvetica,sans-Serif" font-size="10.00">/alps_cmn/control/pid.hpp</text>
</a>
</g>
</g>
<!-- Node8&#45;&gt;Node13 -->
<g id="edge13" class="edge">
<title>Node8&#45;&gt;Node13</title>
<path fill="none" stroke="midnightblue" d="M537.15,-239.32C554.12,-227.27 573.7,-213.36 587.97,-203.23"/>
<polygon fill="midnightblue" stroke="midnightblue" points="534.68,-236.78 528.56,-245.43 538.73,-242.49 534.68,-236.78"/>
</g>
<!-- Node9&#45;&gt;Node2 -->
<g id="edge9" class="edge">
<title>Node9&#45;&gt;Node2</title>
<path fill="none" stroke="midnightblue" d="M400.64,-92.38C334.76,-78.75 241.68,-59.5 174.04,-45.5"/>
<polygon fill="midnightblue" stroke="midnightblue" points="400.06,-95.83 410.56,-94.43 401.48,-88.98 400.06,-95.83"/>
</g>
<!-- Node10 -->
<g id="node10" class="node">
<title>Node10</title>
<g id="a_node10"><a xlink:href="motor__angle__velocity__controller_8hpp.html" target="_top" xlink:title=" ">
<polygon fill="white" stroke="black" points="605.5,-6 605.5,-47 770.5,-47 770.5,-6 605.5,-6"/>
<text text-anchor="start" x="613.5" y="-35" font-family="Helvetica,sans-Serif" font-size="10.00">alps_common_lib/include</text>
<text text-anchor="start" x="613.5" y="-24" font-family="Helvetica,sans-Serif" font-size="10.00">/alps_cmn/control/motor</text>
<text text-anchor="middle" x="688" y="-13" font-family="Helvetica,sans-Serif" font-size="10.00">_angle_velocity_controller.hpp</text>
</a>
</g>
</g>
<!-- Node9&#45;&gt;Node10 -->
<g id="edge10" class="edge">
<title>Node9&#45;&gt;Node10</title>
<path fill="none" stroke="midnightblue" d="M540.01,-85.77C571.13,-73.51 608.88,-58.65 638.46,-47"/>
<polygon fill="midnightblue" stroke="midnightblue" points="538.6,-82.56 530.58,-89.48 541.17,-89.07 538.6,-82.56"/>
</g>
<!-- Node11 -->
<g id="node11" class="node">
<title>Node11</title>
<g id="a_node11"><a xlink:href="custom__type__can__topic__conversion__rule_8hpp.html" target="_top" xlink:title=" ">
<polygon fill="white" stroke="black" points="237.5,-0.5 237.5,-52.5 430.5,-52.5 430.5,-0.5 237.5,-0.5"/>
<text text-anchor="start" x="245.5" y="-40.5" font-family="Helvetica,sans-Serif" font-size="10.00">alps_ros2_lib/include</text>
<text text-anchor="start" x="245.5" y="-29.5" font-family="Helvetica,sans-Serif" font-size="10.00">/alps_ros2/communication</text>
<text text-anchor="start" x="245.5" y="-18.5" font-family="Helvetica,sans-Serif" font-size="10.00">/custom_type_can_topic_conversion</text>
<text text-anchor="middle" x="334" y="-7.5" font-family="Helvetica,sans-Serif" font-size="10.00">_rule.hpp</text>
</a>
</g>
</g>
<!-- Node9&#45;&gt;Node11 -->
<g id="edge11" class="edge">
<title>Node9&#45;&gt;Node11</title>
<path fill="none" stroke="midnightblue" d="M436.59,-84.38C418.43,-74.31 397.46,-62.69 379.23,-52.58"/>
<polygon fill="midnightblue" stroke="midnightblue" points="435.35,-87.69 445.79,-89.48 438.74,-81.57 435.35,-87.69"/>
</g>
<!-- Node12 -->
<g id="node12" class="node">
<title>Node12</title>
<g id="a_node12"><a xlink:href="custom__type__param__conversion__rule_8hpp.html" target="_top" xlink:title=" ">
<polygon fill="white" stroke="black" points="448.5,-0.5 448.5,-52.5 587.5,-52.5 587.5,-0.5 448.5,-0.5"/>
<text text-anchor="start" x="456.5" y="-40.5" font-family="Helvetica,sans-Serif" font-size="10.00">alps_ros2_lib/include</text>
<text text-anchor="start" x="456.5" y="-29.5" font-family="Helvetica,sans-Serif" font-size="10.00">/alps_ros2/util/custom</text>
<text text-anchor="start" x="456.5" y="-18.5" font-family="Helvetica,sans-Serif" font-size="10.00">_type_param_conversion</text>
<text text-anchor="middle" x="518" y="-7.5" font-family="Helvetica,sans-Serif" font-size="10.00">_rule.hpp</text>
</a>
</g>
</g>
<!-- Node9&#45;&gt;Node12 -->
<g id="edge12" class="edge">
<title>Node9&#45;&gt;Node12</title>
<path fill="none" stroke="midnightblue" d="M494.17,-79.98C498.24,-71.04 502.67,-61.27 506.6,-52.61"/>
<polygon fill="midnightblue" stroke="midnightblue" points="490.9,-78.72 489.96,-89.27 497.28,-81.61 490.9,-78.72"/>
</g>
<!-- Node13&#45;&gt;Node9 -->
<g id="edge17" class="edge">
<title>Node13&#45;&gt;Node9</title>
<path fill="none" stroke="midnightblue" d="M575.58,-167.6C556.72,-156.31 533,-142.12 514.04,-130.77"/>
<polygon fill="midnightblue" stroke="midnightblue" points="574.03,-170.75 584.41,-172.88 577.63,-164.74 574.03,-170.75"/>
</g>
<!-- Node13&#45;&gt;Node10 -->
<g id="edge16" class="edge">
<title>Node13&#45;&gt;Node10</title>
<path fill="none" stroke="midnightblue" d="M611.93,-162.91C615.95,-142.39 623.43,-112.56 636,-89 644.23,-73.58 656.82,-58.56 667.55,-47.22"/>
<polygon fill="midnightblue" stroke="midnightblue" points="608.44,-162.52 610.09,-172.99 615.33,-163.78 608.44,-162.52"/>
</g>
<!-- Node13&#45;&gt;Node12 -->
<g id="edge18" class="edge">
<title>Node13&#45;&gt;Node12</title>
<path fill="none" stroke="midnightblue" d="M597.58,-163.37C588.43,-143.2 574.35,-113.65 560,-89 552.84,-76.71 544.08,-63.63 536.42,-52.7"/>
<polygon fill="midnightblue" stroke="midnightblue" points="594.49,-165.02 601.78,-172.71 600.88,-162.16 594.49,-165.02"/>
</g>
<!-- Node14 -->
<g id="node14" class="node">
<title>Node14</title>
<g id="a_node14"><a xlink:href="motor__angle__controller_8hpp.html" target="_top" xlink:title=" ">
<polygon fill="white" stroke="black" points="645,-89.5 645,-130.5 785,-130.5 785,-89.5 645,-89.5"/>
<text text-anchor="start" x="653" y="-118.5" font-family="Helvetica,sans-Serif" font-size="10.00">alps_common_lib/include</text>
<text text-anchor="start" x="653" y="-107.5" font-family="Helvetica,sans-Serif" font-size="10.00">/alps_cmn/control/motor</text>
<text text-anchor="middle" x="715" y="-96.5" font-family="Helvetica,sans-Serif" font-size="10.00">_angle_controller.hpp</text>
</a>
</g>
</g>
<!-- Node13&#45;&gt;Node14 -->
<g id="edge14" class="edge">
<title>Node13&#45;&gt;Node14</title>
<path fill="none" stroke="midnightblue" d="M636.18,-166.98C651.93,-155.8 671.48,-141.91 687.16,-130.77"/>
<polygon fill="midnightblue" stroke="midnightblue" points="634,-164.24 627.88,-172.88 638.05,-169.95 634,-164.24"/>
</g>
<!-- Node14&#45;&gt;Node10 -->
<g id="edge15" class="edge">
<title>Node14&#45;&gt;Node10</title>
<path fill="none" stroke="midnightblue" d="M705.3,-79.73C701.71,-68.87 697.72,-56.83 694.48,-47.05"/>
<polygon fill="midnightblue" stroke="midnightblue" points="702,-80.88 708.46,-89.27 708.64,-78.68 702,-80.88"/>
</g>
<!-- Node16 -->
<g id="node16" class="node">
<title>Node16</title>
<g id="a_node16"><a xlink:href="alps__mbed__lib_2include_2alps__mbed_2sensor_2incremental__encoder_8hpp.html" target="_top" xlink:title=" ">
<polygon fill="white" stroke="black" points="88,-167.5 88,-208.5 258,-208.5 258,-167.5 88,-167.5"/>
<text text-anchor="start" x="96" y="-196.5" font-family="Helvetica,sans-Serif" font-size="10.00">alps_mbed_lib/include</text>
<text text-anchor="start" x="96" y="-185.5" font-family="Helvetica,sans-Serif" font-size="10.00">/alps_mbed/sensor/incremental</text>
<text text-anchor="middle" x="173" y="-174.5" font-family="Helvetica,sans-Serif" font-size="10.00">_encoder.hpp</text>
</a>
</g>
</g>
<!-- Node15&#45;&gt;Node16 -->
<g id="edge21" class="edge">
<title>Node15&#45;&gt;Node16</title>
<path fill="none" stroke="midnightblue" d="M171.17,-235.3C171.53,-226.3 171.91,-216.65 172.23,-208.51"/>
<polygon fill="midnightblue" stroke="midnightblue" points="167.67,-235.3 170.77,-245.43 174.66,-235.57 167.67,-235.3"/>
</g>
<!-- Node17&#45;&gt;Node13 -->
<g id="edge23" class="edge">
<title>Node17&#45;&gt;Node13</title>
<path fill="none" stroke="midnightblue" d="M812.86,-318.52C813.15,-296.61 809.96,-264.94 792,-245 763.61,-213.5 718.11,-199.47 679.45,-193.33"/>
<polygon fill="midnightblue" stroke="midnightblue" points="809.36,-318.57 812.47,-328.69 816.35,-318.84 809.36,-318.57"/>
</g>
<!-- Node18 -->
<g id="node18" class="node">
<title>Node18</title>
<g id="a_node18"><a xlink:href="odometory_8hpp.html" target="_top" xlink:title="オドメトリ計算クラス">
<polygon fill="white" stroke="black" points="839,-251 839,-281 1023,-281 1023,-251 839,-251"/>
<text text-anchor="start" x="847" y="-269" font-family="Helvetica,sans-Serif" font-size="10.00">alps_common_lib/include</text>
<text text-anchor="middle" x="931" y="-258" font-family="Helvetica,sans-Serif" font-size="10.00">/alps_cmn/robotics/odometory.hpp</text>
</a>
</g>
</g>
<!-- Node17&#45;&gt;Node18 -->
<g id="edge24" class="edge">
<title>Node17&#45;&gt;Node18</title>
<path fill="none" stroke="midnightblue" d="M841.84,-323.47C862.79,-310.2 890.01,-292.96 908.83,-281.04"/>
<polygon fill="midnightblue" stroke="midnightblue" points="839.87,-320.58 833.29,-328.88 843.61,-326.49 839.87,-320.58"/>
</g>
<!-- Node19&#45;&gt;Node8 -->
<g id="edge26" class="edge">
<title>Node19&#45;&gt;Node8</title>
<path fill="none" stroke="midnightblue" d="M557.98,-316.78C546.61,-306.84 533.87,-295.72 523.33,-286.51"/>
<polygon fill="midnightblue" stroke="midnightblue" points="555.76,-319.49 565.6,-323.43 560.37,-314.21 555.76,-319.49"/>
</g>
<!-- Node19&#45;&gt;Node20 -->
<g id="edge27" class="edge">
<title>Node19&#45;&gt;Node20</title>
<path fill="none" stroke="midnightblue" d="M621.54,-316.99C636.98,-305.02 654.71,-291.27 667.66,-281.23"/>
<polygon fill="midnightblue" stroke="midnightblue" points="618.99,-314.53 613.24,-323.43 623.28,-320.07 618.99,-314.53"/>
</g>
</g>
</svg>
