<?xml version="1.0" encoding="UTF-8" standalone="no"?>
<!DOCTYPE svg PUBLIC "-//W3C//DTD SVG 1.1//EN"
 "http://www.w3.org/Graphics/SVG/1.1/DTD/svg11.dtd">
<!-- Generated by graphviz version 2.43.0 (0)
 -->
<!-- Title: alps_common_lib/include/alps_cmn/time/duration.hpp Pages: 1 -->
<svg width="720pt" height="429pt"
 viewBox="0.00 0.00 719.78 429.00" xmlns="http://www.w3.org/2000/svg" xmlns:xlink="http://www.w3.org/1999/xlink">
<g id="graph0" class="graph" transform="scale(1 1) rotate(0) translate(4 425)">
<title>alps_common_lib/include/alps_cmn/time/duration.hpp</title>
<polygon fill="white" stroke="transparent" points="-4,4 -4,-425 715.78,-425 715.78,4 -4,4"/>
<!-- Node1 -->
<g id="node1" class="node">
<title>Node1</title>
<g id="a_node1"><a xlink:title="時間間隔の型エイリアス">
<polygon fill="#bfbfbf" stroke="black" points="267.5,-390.5 267.5,-420.5 423.5,-420.5 423.5,-390.5 267.5,-390.5"/>
<text text-anchor="start" x="275.5" y="-408.5" font-family="Helvetica,sans-Serif" font-size="10.00">alps_common_lib/include</text>
<text text-anchor="middle" x="345.5" y="-397.5" font-family="Helvetica,sans-Serif" font-size="10.00">/alps_cmn/time/duration.hpp</text>
</a>
</g>
</g>
<!-- Node2 -->
<g id="node2" class="node">
<title>Node2</title>
<g id="a_node2"><a xlink:href="change__rate__limiter_8hpp.html" target="_top" xlink:title="時間あたりの変化量に制限をかけるクラス">
<polygon fill="white" stroke="black" points="0,-312.5 0,-353.5 141,-353.5 141,-312.5 0,-312.5"/>
<text text-anchor="start" x="8" y="-341.5" font-family="Helvetica,sans-Serif" font-size="10.00">alps_common_lib/include</text>
<text text-anchor="start" x="8" y="-330.5" font-family="Helvetica,sans-Serif" font-size="10.00">/alps_cmn/control/change</text>
<text text-anchor="middle" x="70.5" y="-319.5" font-family="Helvetica,sans-Serif" font-size="10.00">_rate_limiter.hpp</text>
</a>
</g>
</g>
<!-- Node1&#45;&gt;Node2 -->
<g id="edge1" class="edge">
<title>Node1&#45;&gt;Node2</title>
<path fill="none" stroke="midnightblue" d="M281.01,-387.97C239.08,-377.22 184.38,-363.19 141.25,-352.14"/>
<polygon fill="midnightblue" stroke="midnightblue" points="280.28,-391.39 290.84,-390.49 282.02,-384.61 280.28,-391.39"/>
</g>
<!-- Node3 -->
<g id="node3" class="node">
<title>Node3</title>
<g id="a_node3"><a xlink:href="differentiator_8hpp.html" target="_top" xlink:title="微分器ライブラリ">
<polygon fill="white" stroke="black" points="159.5,-318 159.5,-348 349.5,-348 349.5,-318 159.5,-318"/>
<text text-anchor="start" x="167.5" y="-336" font-family="Helvetica,sans-Serif" font-size="10.00">alps_common_lib/include</text>
<text text-anchor="middle" x="254.5" y="-325" font-family="Helvetica,sans-Serif" font-size="10.00">/alps_cmn/control/differentiator.hpp</text>
</a>
</g>
</g>
<!-- Node1&#45;&gt;Node3 -->
<g id="edge2" class="edge">
<title>Node1&#45;&gt;Node3</title>
<path fill="none" stroke="midnightblue" d="M318.76,-383.79C303.89,-372.27 285.78,-358.23 272.58,-348"/>
<polygon fill="midnightblue" stroke="midnightblue" points="317.04,-386.88 327.08,-390.23 321.32,-381.34 317.04,-386.88"/>
</g>
<!-- Node13 -->
<g id="node13" class="node">
<title>Node13</title>
<g id="a_node13"><a xlink:href="integrator_8hpp.html" target="_top" xlink:title="積分器ライブラリ">
<polygon fill="white" stroke="black" points="525.5,-318 525.5,-348 699.5,-348 699.5,-318 525.5,-318"/>
<text text-anchor="start" x="533.5" y="-336" font-family="Helvetica,sans-Serif" font-size="10.00">alps_common_lib/include</text>
<text text-anchor="middle" x="612.5" y="-325" font-family="Helvetica,sans-Serif" font-size="10.00">/alps_cmn/control/integrator.hpp</text>
</a>
</g>
</g>
<!-- Node1&#45;&gt;Node13 -->
<g id="edge16" class="edge">
<title>Node1&#45;&gt;Node13</title>
<path fill="none" stroke="midnightblue" d="M408.39,-387.89C454.21,-375.79 515.62,-359.58 559.07,-348.11"/>
<polygon fill="midnightblue" stroke="midnightblue" points="407.34,-384.55 398.57,-390.49 409.13,-391.32 407.34,-384.55"/>
</g>
<!-- Node15 -->
<g id="node15" class="node">
<title>Node15</title>
<g id="a_node15"><a xlink:href="low__pass__filter_8hpp.html" target="_top" xlink:title="ローパスフィルタのクラス">
<polygon fill="white" stroke="black" points="367.5,-312.5 367.5,-353.5 507.5,-353.5 507.5,-312.5 367.5,-312.5"/>
<text text-anchor="start" x="375.5" y="-341.5" font-family="Helvetica,sans-Serif" font-size="10.00">alps_common_lib/include</text>
<text text-anchor="start" x="375.5" y="-330.5" font-family="Helvetica,sans-Serif" font-size="10.00">/alps_cmn/control/low</text>
<text text-anchor="middle" x="437.5" y="-319.5" font-family="Helvetica,sans-Serif" font-size="10.00">_pass_filter.hpp</text>
</a>
</g>
</g>
<!-- Node1&#45;&gt;Node15 -->
<g id="edge19" class="edge">
<title>Node1&#45;&gt;Node15</title>
<path fill="none" stroke="midnightblue" d="M372.34,-383.93C384.83,-374.36 399.61,-363.03 411.94,-353.59"/>
<polygon fill="midnightblue" stroke="midnightblue" points="369.93,-381.37 364.12,-390.23 374.18,-386.93 369.93,-381.37"/>
</g>
<!-- Node4 -->
<g id="node4" class="node">
<title>Node4</title>
<g id="a_node4"><a xlink:href="friction__compensated__motor_8hpp.html" target="_top" xlink:title="モーターに対して摩擦補償を行うデコレーター">
<polygon fill="white" stroke="black" points="192,-234.5 192,-275.5 335,-275.5 335,-234.5 192,-234.5"/>
<text text-anchor="start" x="200" y="-263.5" font-family="Helvetica,sans-Serif" font-size="10.00">alps_common_lib/include</text>
<text text-anchor="start" x="200" y="-252.5" font-family="Helvetica,sans-Serif" font-size="10.00">/alps_cmn/control/friction</text>
<text text-anchor="middle" x="263.5" y="-241.5" font-family="Helvetica,sans-Serif" font-size="10.00">_compensated_motor.hpp</text>
</a>
</g>
</g>
<!-- Node3&#45;&gt;Node4 -->
<g id="edge3" class="edge">
<title>Node3&#45;&gt;Node4</title>
<path fill="none" stroke="midnightblue" d="M257.38,-307.66C258.61,-297.33 260.01,-285.44 261.17,-275.68"/>
<polygon fill="midnightblue" stroke="midnightblue" points="253.89,-307.36 256.19,-317.7 260.84,-308.19 253.89,-307.36"/>
</g>
<!-- Node6 -->
<g id="node6" class="node">
<title>Node6</title>
<g id="a_node6"><a xlink:href="low__pass__differentiator_8hpp.html" target="_top" xlink:title=" ">
<polygon fill="white" stroke="black" points="353.5,-234.5 353.5,-275.5 493.5,-275.5 493.5,-234.5 353.5,-234.5"/>
<text text-anchor="start" x="361.5" y="-263.5" font-family="Helvetica,sans-Serif" font-size="10.00">alps_common_lib/include</text>
<text text-anchor="start" x="361.5" y="-252.5" font-family="Helvetica,sans-Serif" font-size="10.00">/alps_cmn/control/low</text>
<text text-anchor="middle" x="423.5" y="-241.5" font-family="Helvetica,sans-Serif" font-size="10.00">_pass_differentiator.hpp</text>
</a>
</g>
</g>
<!-- Node3&#45;&gt;Node6 -->
<g id="edge5" class="edge">
<title>Node3&#45;&gt;Node6</title>
<path fill="none" stroke="midnightblue" d="M295.3,-313.65C320.86,-302.16 353.77,-287.36 379.85,-275.63"/>
<polygon fill="midnightblue" stroke="midnightblue" points="293.58,-310.59 285.89,-317.88 296.45,-316.97 293.58,-310.59"/>
</g>
<!-- Node11 -->
<g id="node11" class="node">
<title>Node11</title>
<g id="a_node11"><a xlink:href="alps__common__lib_2include_2alps__cmn_2sensor_2incremental__encoder_8hpp.html" target="_top" xlink:title=" ">
<polygon fill="white" stroke="black" points="11,-234.5 11,-275.5 174,-275.5 174,-234.5 11,-234.5"/>
<text text-anchor="start" x="19" y="-263.5" font-family="Helvetica,sans-Serif" font-size="10.00">alps_common_lib/include</text>
<text text-anchor="start" x="19" y="-252.5" font-family="Helvetica,sans-Serif" font-size="10.00">/alps_cmn/sensor/incremental</text>
<text text-anchor="middle" x="92.5" y="-241.5" font-family="Helvetica,sans-Serif" font-size="10.00">_encoder.hpp</text>
</a>
</g>
</g>
<!-- Node3&#45;&gt;Node11 -->
<g id="edge14" class="edge">
<title>Node3&#45;&gt;Node11</title>
<path fill="none" stroke="midnightblue" d="M215.07,-313.5C190.62,-302.03 159.23,-287.3 134.34,-275.63"/>
<polygon fill="midnightblue" stroke="midnightblue" points="213.87,-316.8 224.41,-317.88 216.84,-310.47 213.87,-316.8"/>
</g>
<!-- Node5 -->
<g id="node5" class="node">
<title>Node5</title>
<g id="a_node5"><a xlink:href="motor__friction__analyzer_8hpp.html" target="_top" xlink:title="モーター軸の摩擦力を計測するクラス">
<polygon fill="white" stroke="black" points="215.5,-156.5 215.5,-197.5 375.5,-197.5 375.5,-156.5 215.5,-156.5"/>
<text text-anchor="start" x="223.5" y="-185.5" font-family="Helvetica,sans-Serif" font-size="10.00">alps_common_lib/include</text>
<text text-anchor="start" x="223.5" y="-174.5" font-family="Helvetica,sans-Serif" font-size="10.00">/alps_cmn/tool/motor_friction</text>
<text text-anchor="middle" x="295.5" y="-163.5" font-family="Helvetica,sans-Serif" font-size="10.00">_analyzer.hpp</text>
</a>
</g>
</g>
<!-- Node4&#45;&gt;Node5 -->
<g id="edge4" class="edge">
<title>Node4&#45;&gt;Node5</title>
<path fill="none" stroke="midnightblue" d="M275.64,-225.17C279.53,-215.93 283.74,-205.92 287.29,-197.51"/>
<polygon fill="midnightblue" stroke="midnightblue" points="272.4,-223.85 271.74,-234.43 278.85,-226.57 272.4,-223.85"/>
</g>
<!-- Node6&#45;&gt;Node5 -->
<g id="edge13" class="edge">
<title>Node6&#45;&gt;Node5</title>
<path fill="none" stroke="midnightblue" d="M381.74,-229.2C364.41,-218.92 344.61,-207.16 328.35,-197.51"/>
<polygon fill="midnightblue" stroke="midnightblue" points="380.15,-232.33 390.54,-234.43 383.73,-226.31 380.15,-232.33"/>
</g>
<!-- Node7 -->
<g id="node7" class="node">
<title>Node7</title>
<g id="a_node7"><a xlink:href="motor__velocity__controller_8hpp.html" target="_top" xlink:title=" ">
<polygon fill="white" stroke="black" points="353.5,-78.5 353.5,-119.5 493.5,-119.5 493.5,-78.5 353.5,-78.5"/>
<text text-anchor="start" x="361.5" y="-107.5" font-family="Helvetica,sans-Serif" font-size="10.00">alps_common_lib/include</text>
<text text-anchor="start" x="361.5" y="-96.5" font-family="Helvetica,sans-Serif" font-size="10.00">/alps_cmn/control/motor</text>
<text text-anchor="middle" x="423.5" y="-85.5" font-family="Helvetica,sans-Serif" font-size="10.00">_velocity_controller.hpp</text>
</a>
</g>
</g>
<!-- Node6&#45;&gt;Node7 -->
<g id="edge6" class="edge">
<title>Node6&#45;&gt;Node7</title>
<path fill="none" stroke="midnightblue" d="M423.5,-224.36C423.5,-193.61 423.5,-146.36 423.5,-119.83"/>
<polygon fill="midnightblue" stroke="midnightblue" points="420,-224.5 423.5,-234.5 427,-224.5 420,-224.5"/>
</g>
<!-- Node9 -->
<g id="node9" class="node">
<title>Node9</title>
<g id="a_node9"><a xlink:href="pid_8hpp.html" target="_top" xlink:title=" ">
<polygon fill="white" stroke="black" points="510.5,-162 510.5,-192 652.5,-192 652.5,-162 510.5,-162"/>
<text text-anchor="start" x="518.5" y="-180" font-family="Helvetica,sans-Serif" font-size="10.00">alps_common_lib/include</text>
<text text-anchor="middle" x="581.5" y="-169" font-family="Helvetica,sans-Serif" font-size="10.00">/alps_cmn/control/pid.hpp</text>
</a>
</g>
</g>
<!-- Node6&#45;&gt;Node9 -->
<g id="edge8" class="edge">
<title>Node6&#45;&gt;Node9</title>
<path fill="none" stroke="midnightblue" d="M473.46,-229.97C499.27,-217.55 529.89,-202.83 551.93,-192.23"/>
<polygon fill="midnightblue" stroke="midnightblue" points="471.68,-226.94 464.19,-234.43 474.72,-233.25 471.68,-226.94"/>
</g>
<!-- Node8 -->
<g id="node8" class="node">
<title>Node8</title>
<g id="a_node8"><a xlink:href="motor__angle__velocity__controller_8hpp.html" target="_top" xlink:title=" ">
<polygon fill="white" stroke="black" points="499,-0.5 499,-41.5 664,-41.5 664,-0.5 499,-0.5"/>
<text text-anchor="start" x="507" y="-29.5" font-family="Helvetica,sans-Serif" font-size="10.00">alps_common_lib/include</text>
<text text-anchor="start" x="507" y="-18.5" font-family="Helvetica,sans-Serif" font-size="10.00">/alps_cmn/control/motor</text>
<text text-anchor="middle" x="581.5" y="-7.5" font-family="Helvetica,sans-Serif" font-size="10.00">_angle_velocity_controller.hpp</text>
</a>
</g>
</g>
<!-- Node7&#45;&gt;Node8 -->
<g id="edge7" class="edge">
<title>Node7&#45;&gt;Node8</title>
<path fill="none" stroke="midnightblue" d="M473.29,-74.05C495.09,-63.57 520.33,-51.42 540.95,-41.51"/>
<polygon fill="midnightblue" stroke="midnightblue" points="471.68,-70.94 464.19,-78.43 474.72,-77.25 471.68,-70.94"/>
</g>
<!-- Node9&#45;&gt;Node7 -->
<g id="edge12" class="edge">
<title>Node9&#45;&gt;Node7</title>
<path fill="none" stroke="midnightblue" d="M543.04,-157.5C519.19,-146.03 488.58,-131.3 464.31,-119.63"/>
<polygon fill="midnightblue" stroke="midnightblue" points="541.62,-160.7 552.15,-161.88 544.66,-154.39 541.62,-160.7"/>
</g>
<!-- Node9&#45;&gt;Node8 -->
<g id="edge11" class="edge">
<title>Node9&#45;&gt;Node8</title>
<path fill="none" stroke="midnightblue" d="M623.35,-156.73C637.83,-147.77 652.45,-135.58 660.5,-120 669.07,-103.42 669.07,-94.58 660.5,-78 652.55,-62.62 638.21,-50.55 623.9,-41.62"/>
<polygon fill="midnightblue" stroke="midnightblue" points="621.31,-153.87 614.4,-161.9 624.81,-159.93 621.31,-153.87"/>
</g>
<!-- Node10 -->
<g id="node10" class="node">
<title>Node10</title>
<g id="a_node10"><a xlink:href="motor__angle__controller_8hpp.html" target="_top" xlink:title=" ">
<polygon fill="white" stroke="black" points="511.5,-78.5 511.5,-119.5 651.5,-119.5 651.5,-78.5 511.5,-78.5"/>
<text text-anchor="start" x="519.5" y="-107.5" font-family="Helvetica,sans-Serif" font-size="10.00">alps_common_lib/include</text>
<text text-anchor="start" x="519.5" y="-96.5" font-family="Helvetica,sans-Serif" font-size="10.00">/alps_cmn/control/motor</text>
<text text-anchor="middle" x="581.5" y="-85.5" font-family="Helvetica,sans-Serif" font-size="10.00">_angle_controller.hpp</text>
</a>
</g>
</g>
<!-- Node9&#45;&gt;Node10 -->
<g id="edge9" class="edge">
<title>Node9&#45;&gt;Node10</title>
<path fill="none" stroke="midnightblue" d="M581.5,-151.66C581.5,-141.33 581.5,-129.44 581.5,-119.68"/>
<polygon fill="midnightblue" stroke="midnightblue" points="578,-151.7 581.5,-161.7 585,-151.71 578,-151.7"/>
</g>
<!-- Node10&#45;&gt;Node8 -->
<g id="edge10" class="edge">
<title>Node10&#45;&gt;Node8</title>
<path fill="none" stroke="midnightblue" d="M581.5,-68.3C581.5,-59.3 581.5,-49.65 581.5,-41.51"/>
<polygon fill="midnightblue" stroke="midnightblue" points="578,-68.43 581.5,-78.43 585,-68.43 578,-68.43"/>
</g>
<!-- Node12 -->
<g id="node12" class="node">
<title>Node12</title>
<g id="a_node12"><a xlink:href="alps__mbed__lib_2include_2alps__mbed_2sensor_2incremental__encoder_8hpp.html" target="_top" xlink:title=" ">
<polygon fill="white" stroke="black" points="7.5,-156.5 7.5,-197.5 177.5,-197.5 177.5,-156.5 7.5,-156.5"/>
<text text-anchor="start" x="15.5" y="-185.5" font-family="Helvetica,sans-Serif" font-size="10.00">alps_mbed_lib/include</text>
<text text-anchor="start" x="15.5" y="-174.5" font-family="Helvetica,sans-Serif" font-size="10.00">/alps_mbed/sensor/incremental</text>
<text text-anchor="middle" x="92.5" y="-163.5" font-family="Helvetica,sans-Serif" font-size="10.00">_encoder.hpp</text>
</a>
</g>
</g>
<!-- Node11&#45;&gt;Node12 -->
<g id="edge15" class="edge">
<title>Node11&#45;&gt;Node12</title>
<path fill="none" stroke="midnightblue" d="M92.5,-224.3C92.5,-215.3 92.5,-205.65 92.5,-197.51"/>
<polygon fill="midnightblue" stroke="midnightblue" points="89,-224.43 92.5,-234.43 96,-224.43 89,-224.43"/>
</g>
<!-- Node13&#45;&gt;Node9 -->
<g id="edge17" class="edge">
<title>Node13&#45;&gt;Node9</title>
<path fill="none" stroke="midnightblue" d="M662.54,-313.44C678.89,-304.71 695.22,-292.5 704.5,-276 713.65,-259.73 714.6,-249.7 704.5,-234 691.3,-213.48 668.52,-200.39 646.13,-192.08"/>
<polygon fill="midnightblue" stroke="midnightblue" points="660.89,-310.35 653.5,-317.94 664.01,-316.62 660.89,-310.35"/>
</g>
<!-- Node14 -->
<g id="node14" class="node">
<title>Node14</title>
<g id="a_node14"><a xlink:href="odometory_8hpp.html" target="_top" xlink:title="オドメトリ計算クラス">
<polygon fill="white" stroke="black" points="511.5,-240 511.5,-270 695.5,-270 695.5,-240 511.5,-240"/>
<text text-anchor="start" x="519.5" y="-258" font-family="Helvetica,sans-Serif" font-size="10.00">alps_common_lib/include</text>
<text text-anchor="middle" x="603.5" y="-247" font-family="Helvetica,sans-Serif" font-size="10.00">/alps_cmn/robotics/odometory.hpp</text>
</a>
</g>
</g>
<!-- Node13&#45;&gt;Node14 -->
<g id="edge18" class="edge">
<title>Node13&#45;&gt;Node14</title>
<path fill="none" stroke="midnightblue" d="M609.61,-307.59C608.15,-295.26 606.43,-280.72 605.19,-270.23"/>
<polygon fill="midnightblue" stroke="midnightblue" points="606.16,-308.19 610.81,-317.7 613.11,-307.36 606.16,-308.19"/>
</g>
<!-- Node15&#45;&gt;Node6 -->
<g id="edge20" class="edge">
<title>Node15&#45;&gt;Node6</title>
<path fill="none" stroke="midnightblue" d="M432.08,-302.59C430.41,-293.51 428.61,-283.74 427.09,-275.51"/>
<polygon fill="midnightblue" stroke="midnightblue" points="428.64,-303.23 433.89,-312.43 435.53,-301.96 428.64,-303.23"/>
</g>
</g>
</svg>
