<?xml version="1.0" encoding="UTF-8" standalone="no"?>
<!DOCTYPE svg PUBLIC "-//W3C//DTD SVG 1.1//EN"
 "http://www.w3.org/Graphics/SVG/1.1/DTD/svg11.dtd">
<!-- Generated by graphviz version 2.43.0 (0)
 -->
<!-- Title: alps_common_lib/include/alps_cmn/time/duration.hpp Pages: 1 -->
<svg width="721pt" height="423pt"
 viewBox="0.00 0.00 720.61 423.00" xmlns="http://www.w3.org/2000/svg" xmlns:xlink="http://www.w3.org/1999/xlink">
<g id="graph0" class="graph" transform="scale(1 1) rotate(0) translate(4 419)">
<title>alps_common_lib/include/alps_cmn/time/duration.hpp</title>
<!-- Node1 -->
<g id="node1" class="node">
<title>Node1</title>
<g id="a_node1"><a xlink:title="時間間隔の型エイリアス">
<polygon fill="#999999" stroke="#666666" points="424.5,-415 268.5,-415 268.5,-385 424.5,-385 424.5,-415"/>
<text text-anchor="start" x="276.5" y="-403" font-family="Helvetica,sans-Serif" font-size="10.00">alps_common_lib/include</text>
<text text-anchor="middle" x="346.5" y="-392" font-family="Helvetica,sans-Serif" font-size="10.00">/alps_cmn/time/duration.hpp</text>
</a>
</g>
</g>
<!-- Node2 -->
<g id="node2" class="node">
<title>Node2</title>
<g id="a_node2"><a xlink:href="change__rate__limiter_8hpp.html" target="_top" xlink:title="時間あたりの変化量に制限をかけるクラス">
<polygon fill="white" stroke="#666666" points="141,-349 0,-349 0,-308 141,-308 141,-349"/>
<text text-anchor="start" x="8" y="-337" font-family="Helvetica,sans-Serif" font-size="10.00">alps_common_lib/include</text>
<text text-anchor="start" x="8" y="-326" font-family="Helvetica,sans-Serif" font-size="10.00">/alps_cmn/control/change</text>
<text text-anchor="middle" x="70.5" y="-315" font-family="Helvetica,sans-Serif" font-size="10.00">_rate_limiter.hpp</text>
</a>
</g>
</g>
<!-- Node1&#45;&gt;Node2 -->
<g id="edge1" class="edge">
<title>Node1&#45;&gt;Node2</title>
<path fill="none" stroke="#63b8ff" d="M280.77,-382.45C238.65,-371.84 184.03,-358.09 141.01,-347.25"/>
<polygon fill="#63b8ff" stroke="#63b8ff" points="280.1,-385.89 290.65,-384.94 281.8,-379.1 280.1,-385.89"/>
</g>
<!-- Node3 -->
<g id="node3" class="node">
<title>Node3</title>
<g id="a_node3"><a xlink:href="differentiator_8hpp.html" target="_top" xlink:title="微分器ライブラリ">
<polygon fill="white" stroke="#666666" points="350,-343.5 159,-343.5 159,-313.5 350,-313.5 350,-343.5"/>
<text text-anchor="start" x="167" y="-331.5" font-family="Helvetica,sans-Serif" font-size="10.00">alps_common_lib/include</text>
<text text-anchor="middle" x="254.5" y="-320.5" font-family="Helvetica,sans-Serif" font-size="10.00">/alps_cmn/control/differentiator.hpp</text>
</a>
</g>
</g>
<!-- Node1&#45;&gt;Node3 -->
<g id="edge2" class="edge">
<title>Node1&#45;&gt;Node3</title>
<path fill="none" stroke="#63b8ff" d="M319.53,-378.63C304.6,-367.35 286.43,-353.62 273.09,-343.54"/>
<polygon fill="#63b8ff" stroke="#63b8ff" points="317.79,-381.7 327.88,-384.94 322.01,-376.12 317.79,-381.7"/>
</g>
<!-- Node13 -->
<g id="node13" class="node">
<title>Node13</title>
<g id="a_node13"><a xlink:href="integrator_8hpp.html" target="_top" xlink:title="積分器ライブラリ">
<polygon fill="white" stroke="#666666" points="702,-343.5 527,-343.5 527,-313.5 702,-313.5 702,-343.5"/>
<text text-anchor="start" x="535" y="-331.5" font-family="Helvetica,sans-Serif" font-size="10.00">alps_common_lib/include</text>
<text text-anchor="middle" x="614.5" y="-320.5" font-family="Helvetica,sans-Serif" font-size="10.00">/alps_cmn/control/integrator.hpp</text>
</a>
</g>
</g>
<!-- Node1&#45;&gt;Node13 -->
<g id="edge16" class="edge">
<title>Node1&#45;&gt;Node13</title>
<path fill="none" stroke="#63b8ff" d="M410.54,-382.39C456.25,-370.54 517.05,-354.77 560.35,-343.54"/>
<polygon fill="#63b8ff" stroke="#63b8ff" points="409.53,-379.04 400.73,-384.94 411.29,-385.81 409.53,-379.04"/>
</g>
<!-- Node15 -->
<g id="node15" class="node">
<title>Node15</title>
<g id="a_node15"><a xlink:href="low__pass__filter_8hpp.html" target="_top" xlink:title="ローパスフィルタのクラス">
<polygon fill="white" stroke="#666666" points="508.5,-349 368.5,-349 368.5,-308 508.5,-308 508.5,-349"/>
<text text-anchor="start" x="376.5" y="-337" font-family="Helvetica,sans-Serif" font-size="10.00">alps_common_lib/include</text>
<text text-anchor="start" x="376.5" y="-326" font-family="Helvetica,sans-Serif" font-size="10.00">/alps_cmn/control/low</text>
<text text-anchor="middle" x="438.5" y="-315" font-family="Helvetica,sans-Serif" font-size="10.00">_pass_filter.hpp</text>
</a>
</g>
</g>
<!-- Node1&#45;&gt;Node15 -->
<g id="edge19" class="edge">
<title>Node1&#45;&gt;Node15</title>
<path fill="none" stroke="#63b8ff" d="M373.27,-378.77C385.66,-369.42 400.31,-358.35 412.59,-349.07"/>
<polygon fill="#63b8ff" stroke="#63b8ff" points="370.99,-376.12 365.12,-384.94 375.21,-381.7 370.99,-376.12"/>
</g>
<!-- Node4 -->
<g id="node4" class="node">
<title>Node4</title>
<g id="a_node4"><a xlink:href="friction__compensated__motor_8hpp.html" target="_top" xlink:title="モーターに対して摩擦補償を行うデコレーター">
<polygon fill="white" stroke="#666666" points="336,-272 193,-272 193,-231 336,-231 336,-272"/>
<text text-anchor="start" x="201" y="-260" font-family="Helvetica,sans-Serif" font-size="10.00">alps_common_lib/include</text>
<text text-anchor="start" x="201" y="-249" font-family="Helvetica,sans-Serif" font-size="10.00">/alps_cmn/control/friction</text>
<text text-anchor="middle" x="264.5" y="-238" font-family="Helvetica,sans-Serif" font-size="10.00">_compensated_motor.hpp</text>
</a>
</g>
</g>
<!-- Node3&#45;&gt;Node4 -->
<g id="edge3" class="edge">
<title>Node3&#45;&gt;Node4</title>
<path fill="none" stroke="#63b8ff" d="M257.74,-303.23C259.07,-293.2 260.61,-281.71 261.87,-272.2"/>
<polygon fill="#63b8ff" stroke="#63b8ff" points="254.23,-303.02 256.38,-313.39 261.17,-303.94 254.23,-303.02"/>
</g>
<!-- Node6 -->
<g id="node6" class="node">
<title>Node6</title>
<g id="a_node6"><a xlink:href="low__pass__differentiator_8hpp.html" target="_top" xlink:title=" ">
<polygon fill="white" stroke="#666666" points="494.5,-272 354.5,-272 354.5,-231 494.5,-231 494.5,-272"/>
<text text-anchor="start" x="362.5" y="-260" font-family="Helvetica,sans-Serif" font-size="10.00">alps_common_lib/include</text>
<text text-anchor="start" x="362.5" y="-249" font-family="Helvetica,sans-Serif" font-size="10.00">/alps_cmn/control/low</text>
<text text-anchor="middle" x="424.5" y="-238" font-family="Helvetica,sans-Serif" font-size="10.00">_pass_differentiator.hpp</text>
</a>
</g>
</g>
<!-- Node3&#45;&gt;Node6 -->
<g id="edge5" class="edge">
<title>Node3&#45;&gt;Node6</title>
<path fill="none" stroke="#63b8ff" d="M295.87,-309.25C321.39,-297.99 354.11,-283.56 380.16,-272.06"/>
<polygon fill="#63b8ff" stroke="#63b8ff" points="294.21,-306.15 286.48,-313.39 297.04,-312.56 294.21,-306.15"/>
</g>
<!-- Node11 -->
<g id="node11" class="node">
<title>Node11</title>
<g id="a_node11"><a xlink:href="alps__common__lib_2include_2alps__cmn_2sensor_2incremental__encoder_8hpp.html" target="_top" xlink:title=" ">
<polygon fill="white" stroke="#666666" points="175,-272 12,-272 12,-231 175,-231 175,-272"/>
<text text-anchor="start" x="20" y="-260" font-family="Helvetica,sans-Serif" font-size="10.00">alps_common_lib/include</text>
<text text-anchor="start" x="20" y="-249" font-family="Helvetica,sans-Serif" font-size="10.00">/alps_cmn/sensor/incremental</text>
<text text-anchor="middle" x="93.5" y="-238" font-family="Helvetica,sans-Serif" font-size="10.00">_encoder.hpp</text>
</a>
</g>
</g>
<!-- Node3&#45;&gt;Node11 -->
<g id="edge14" class="edge">
<title>Node3&#45;&gt;Node11</title>
<path fill="none" stroke="#63b8ff" d="M215,-309.1C190.88,-297.86 160.06,-283.5 135.49,-272.06"/>
<polygon fill="#63b8ff" stroke="#63b8ff" points="213.67,-312.34 224.22,-313.39 216.63,-306 213.67,-312.34"/>
</g>
<!-- Node5 -->
<g id="node5" class="node">
<title>Node5</title>
<g id="a_node5"><a xlink:href="motor__friction__analyzer_8hpp.html" target="_top" xlink:title="モーター軸の摩擦力を計測するクラス">
<polygon fill="white" stroke="#666666" points="376.5,-195 216.5,-195 216.5,-154 376.5,-154 376.5,-195"/>
<text text-anchor="start" x="224.5" y="-183" font-family="Helvetica,sans-Serif" font-size="10.00">alps_common_lib/include</text>
<text text-anchor="start" x="224.5" y="-172" font-family="Helvetica,sans-Serif" font-size="10.00">/alps_cmn/tool/motor_friction</text>
<text text-anchor="middle" x="296.5" y="-161" font-family="Helvetica,sans-Serif" font-size="10.00">_analyzer.hpp</text>
</a>
</g>
</g>
<!-- Node4&#45;&gt;Node5 -->
<g id="edge4" class="edge">
<title>Node4&#45;&gt;Node5</title>
<path fill="none" stroke="#63b8ff" d="M276.85,-221.55C280.63,-212.69 284.7,-203.15 288.15,-195.07"/>
<polygon fill="#63b8ff" stroke="#63b8ff" points="273.61,-220.22 272.91,-230.79 280.05,-222.97 273.61,-220.22"/>
</g>
<!-- Node6&#45;&gt;Node5 -->
<g id="edge13" class="edge">
<title>Node6&#45;&gt;Node5</title>
<path fill="none" stroke="#63b8ff" d="M382.55,-225.92C365.53,-215.95 346.13,-204.58 330.07,-195.17"/>
<polygon fill="#63b8ff" stroke="#63b8ff" points="380.81,-228.95 391.2,-230.99 384.35,-222.92 380.81,-228.95"/>
</g>
<!-- Node7 -->
<g id="node7" class="node">
<title>Node7</title>
<g id="a_node7"><a xlink:href="motor__velocity__controller_8hpp.html" target="_top" xlink:title=" ">
<polygon fill="white" stroke="#666666" points="494.5,-118 354.5,-118 354.5,-77 494.5,-77 494.5,-118"/>
<text text-anchor="start" x="362.5" y="-106" font-family="Helvetica,sans-Serif" font-size="10.00">alps_common_lib/include</text>
<text text-anchor="start" x="362.5" y="-95" font-family="Helvetica,sans-Serif" font-size="10.00">/alps_cmn/control/motor</text>
<text text-anchor="middle" x="424.5" y="-84" font-family="Helvetica,sans-Serif" font-size="10.00">_velocity_controller.hpp</text>
</a>
</g>
</g>
<!-- Node6&#45;&gt;Node7 -->
<g id="edge6" class="edge">
<title>Node6&#45;&gt;Node7</title>
<path fill="none" stroke="#63b8ff" d="M424.5,-220.58C424.5,-190.36 424.5,-144.53 424.5,-118.47"/>
<polygon fill="#63b8ff" stroke="#63b8ff" points="421,-220.94 424.5,-230.94 428,-220.94 421,-220.94"/>
</g>
<!-- Node9 -->
<g id="node9" class="node">
<title>Node9</title>
<g id="a_node9"><a xlink:href="pid_8hpp.html" target="_top" xlink:title=" ">
<polygon fill="white" stroke="#666666" points="653.5,-189.5 511.5,-189.5 511.5,-159.5 653.5,-159.5 653.5,-189.5"/>
<text text-anchor="start" x="519.5" y="-177.5" font-family="Helvetica,sans-Serif" font-size="10.00">alps_common_lib/include</text>
<text text-anchor="middle" x="582.5" y="-166.5" font-family="Helvetica,sans-Serif" font-size="10.00">/alps_cmn/control/pid.hpp</text>
</a>
</g>
</g>
<!-- Node6&#45;&gt;Node9 -->
<g id="edge8" class="edge">
<title>Node6&#45;&gt;Node9</title>
<path fill="none" stroke="#63b8ff" d="M474.8,-226.62C500.41,-214.47 530.67,-200.1 552.59,-189.7"/>
<polygon fill="#63b8ff" stroke="#63b8ff" points="473.13,-223.54 465.6,-230.99 476.13,-229.86 473.13,-223.54"/>
</g>
<!-- Node8 -->
<g id="node8" class="node">
<title>Node8</title>
<g id="a_node8"><a xlink:href="motor__angle__velocity__controller_8hpp.html" target="_top" xlink:title=" ">
<polygon fill="white" stroke="#666666" points="665.5,-41 499.5,-41 499.5,0 665.5,0 665.5,-41"/>
<text text-anchor="start" x="507.5" y="-29" font-family="Helvetica,sans-Serif" font-size="10.00">alps_common_lib/include</text>
<text text-anchor="start" x="507.5" y="-18" font-family="Helvetica,sans-Serif" font-size="10.00">/alps_cmn/control/motor</text>
<text text-anchor="middle" x="582.5" y="-7" font-family="Helvetica,sans-Serif" font-size="10.00">_angle_velocity_controller.hpp</text>
</a>
</g>
</g>
<!-- Node7&#45;&gt;Node8 -->
<g id="edge7" class="edge">
<title>Node7&#45;&gt;Node8</title>
<path fill="none" stroke="#63b8ff" d="M474.88,-72.59C496.32,-62.41 521.01,-50.69 541.33,-41.04"/>
<polygon fill="#63b8ff" stroke="#63b8ff" points="473.13,-69.54 465.6,-76.99 476.13,-75.86 473.13,-69.54"/>
</g>
<!-- Node9&#45;&gt;Node7 -->
<g id="edge12" class="edge">
<title>Node9&#45;&gt;Node7</title>
<path fill="none" stroke="#63b8ff" d="M543.73,-155.1C520.06,-143.86 489.82,-129.5 465.71,-118.06"/>
<polygon fill="#63b8ff" stroke="#63b8ff" points="542.25,-158.27 552.78,-159.39 545.25,-151.94 542.25,-158.27"/>
</g>
<!-- Node9&#45;&gt;Node8 -->
<g id="edge11" class="edge">
<title>Node9&#45;&gt;Node8</title>
<path fill="none" stroke="#63b8ff" d="M624.68,-154.27C639.05,-145.42 653.5,-133.4 661.5,-118 669.9,-101.83 669.9,-93.17 661.5,-77 653.62,-61.83 639.47,-49.94 625.31,-41.12"/>
<polygon fill="#63b8ff" stroke="#63b8ff" points="622.72,-151.36 615.8,-159.38 626.21,-157.43 622.72,-151.36"/>
</g>
<!-- Node10 -->
<g id="node10" class="node">
<title>Node10</title>
<g id="a_node10"><a xlink:href="motor__angle__controller_8hpp.html" target="_top" xlink:title=" ">
<polygon fill="white" stroke="#666666" points="652.5,-118 512.5,-118 512.5,-77 652.5,-77 652.5,-118"/>
<text text-anchor="start" x="520.5" y="-106" font-family="Helvetica,sans-Serif" font-size="10.00">alps_common_lib/include</text>
<text text-anchor="start" x="520.5" y="-95" font-family="Helvetica,sans-Serif" font-size="10.00">/alps_cmn/control/motor</text>
<text text-anchor="middle" x="582.5" y="-84" font-family="Helvetica,sans-Serif" font-size="10.00">_angle_controller.hpp</text>
</a>
</g>
</g>
<!-- Node9&#45;&gt;Node10 -->
<g id="edge9" class="edge">
<title>Node9&#45;&gt;Node10</title>
<path fill="none" stroke="#63b8ff" d="M582.5,-149.23C582.5,-139.2 582.5,-127.71 582.5,-118.2"/>
<polygon fill="#63b8ff" stroke="#63b8ff" points="579,-149.39 582.5,-159.39 586,-149.39 579,-149.39"/>
</g>
<!-- Node10&#45;&gt;Node8 -->
<g id="edge10" class="edge">
<title>Node10&#45;&gt;Node8</title>
<path fill="none" stroke="#63b8ff" d="M582.5,-66.69C582.5,-58.08 582.5,-48.9 582.5,-41.07"/>
<polygon fill="#63b8ff" stroke="#63b8ff" points="579,-66.79 582.5,-76.79 586,-66.79 579,-66.79"/>
</g>
<!-- Node12 -->
<g id="node12" class="node">
<title>Node12</title>
<g id="a_node12"><a xlink:href="alps__mbed__lib_2include_2alps__mbed_2sensor_2incremental__encoder_8hpp.html" target="_top" xlink:title=" ">
<polygon fill="white" stroke="#666666" points="178.5,-195 8.5,-195 8.5,-154 178.5,-154 178.5,-195"/>
<text text-anchor="start" x="16.5" y="-183" font-family="Helvetica,sans-Serif" font-size="10.00">alps_mbed_lib/include</text>
<text text-anchor="start" x="16.5" y="-172" font-family="Helvetica,sans-Serif" font-size="10.00">/alps_mbed/sensor/incremental</text>
<text text-anchor="middle" x="93.5" y="-161" font-family="Helvetica,sans-Serif" font-size="10.00">_encoder.hpp</text>
</a>
</g>
</g>
<!-- Node11&#45;&gt;Node12 -->
<g id="edge15" class="edge">
<title>Node11&#45;&gt;Node12</title>
<path fill="none" stroke="#63b8ff" d="M93.5,-220.69C93.5,-212.08 93.5,-202.9 93.5,-195.07"/>
<polygon fill="#63b8ff" stroke="#63b8ff" points="90,-220.79 93.5,-230.79 97,-220.79 90,-220.79"/>
</g>
<!-- Node13&#45;&gt;Node9 -->
<g id="edge17" class="edge">
<title>Node13&#45;&gt;Node9</title>
<path fill="none" stroke="#63b8ff" d="M664.85,-308.63C680.74,-300.01 696.49,-288.05 705.5,-272 714.42,-256.11 715.39,-246.31 705.5,-231 692.41,-210.73 669.94,-197.79 647.76,-189.56"/>
<polygon fill="#63b8ff" stroke="#63b8ff" points="662.88,-305.7 655.53,-313.33 666.03,-311.95 662.88,-305.7"/>
</g>
<!-- Node14 -->
<g id="node14" class="node">
<title>Node14</title>
<g id="a_node14"><a xlink:href="odometory_8hpp.html" target="_top" xlink:title="オドメトリ計算クラス">
<polygon fill="white" stroke="#666666" points="696.5,-266.5 512.5,-266.5 512.5,-236.5 696.5,-236.5 696.5,-266.5"/>
<text text-anchor="start" x="520.5" y="-254.5" font-family="Helvetica,sans-Serif" font-size="10.00">alps_common_lib/include</text>
<text text-anchor="middle" x="604.5" y="-243.5" font-family="Helvetica,sans-Serif" font-size="10.00">/alps_cmn/robotics/odometory.hpp</text>
</a>
</g>
</g>
<!-- Node13&#45;&gt;Node14 -->
<g id="edge18" class="edge">
<title>Node13&#45;&gt;Node14</title>
<path fill="none" stroke="#63b8ff" d="M611.29,-303.41C609.67,-291.24 607.75,-276.9 606.37,-266.54"/>
<polygon fill="#63b8ff" stroke="#63b8ff" points="607.83,-303.94 612.62,-313.39 614.77,-303.02 607.83,-303.94"/>
</g>
<!-- Node15&#45;&gt;Node6 -->
<g id="edge20" class="edge">
<title>Node15&#45;&gt;Node6</title>
<path fill="none" stroke="#63b8ff" d="M432.94,-297.69C431.33,-289.08 429.61,-279.9 428.15,-272.07"/>
<polygon fill="#63b8ff" stroke="#63b8ff" points="429.55,-298.61 434.82,-307.79 436.43,-297.32 429.55,-298.61"/>
</g>
</g>
</svg>
