<?xml version="1.0" encoding="UTF-8" standalone="no"?>
<!DOCTYPE svg PUBLIC "-//W3C//DTD SVG 1.1//EN"
 "http://www.w3.org/Graphics/SVG/1.1/DTD/svg11.dtd">
<!-- Generated by graphviz version 2.43.0 (0)
 -->
<!-- Title: alps_common_lib/include/alps_cmn/actuator/esc_bldc_motor.hpp Pages: 1 -->
<svg width="775pt" height="173pt"
 viewBox="0.00 0.00 775.46 173.00" xmlns="http://www.w3.org/2000/svg" xmlns:xlink="http://www.w3.org/1999/xlink">
<g id="graph0" class="graph" transform="scale(1 1) rotate(0) translate(4 169)">
<title>alps_common_lib/include/alps_cmn/actuator/esc_bldc_motor.hpp</title>
<polygon fill="white" stroke="transparent" points="-4,4 -4,-169 771.46,-169 771.46,4 -4,4"/>
<!-- Node1 -->
<g id="node1" class="node">
<title>Node1</title>
<g id="a_node1"><a xlink:title="ESCで動かすブラシレスDCモーター">
<polygon fill="#bfbfbf" stroke="black" points="222.96,-123.5 222.96,-164.5 362.96,-164.5 362.96,-123.5 222.96,-123.5"/>
<text text-anchor="start" x="230.96" y="-152.5" font-family="Helvetica,sans-Serif" font-size="10.00">alps_common_lib/include</text>
<text text-anchor="start" x="230.96" y="-141.5" font-family="Helvetica,sans-Serif" font-size="10.00">/alps_cmn/actuator/esc</text>
<text text-anchor="middle" x="292.96" y="-130.5" font-family="Helvetica,sans-Serif" font-size="10.00">_bldc_motor.hpp</text>
</a>
</g>
</g>
<!-- Node2 -->
<g id="node2" class="node">
<title>Node2</title>
<g id="a_node2"><a xlink:title=" ">
<polygon fill="white" stroke="#bfbfbf" points="267.96,-0.5 267.96,-19.5 317.96,-19.5 317.96,-0.5 267.96,-0.5"/>
<text text-anchor="middle" x="292.96" y="-7.5" font-family="Helvetica,sans-Serif" font-size="10.00">chrono</text>
</a>
</g>
</g>
<!-- Node1&#45;&gt;Node2 -->
<g id="edge1" class="edge">
<title>Node1&#45;&gt;Node2</title>
<path fill="none" stroke="midnightblue" d="M222.9,-143.11C121.59,-140.89 -47.46,-126.9 12.96,-56 44.03,-19.54 189.65,-12.51 257.72,-11.23"/>
<polygon fill="midnightblue" stroke="midnightblue" points="258,-14.73 267.95,-11.07 257.9,-7.73 258,-14.73"/>
</g>
<!-- Node3 -->
<g id="node3" class="node">
<title>Node3</title>
<g id="a_node3"><a xlink:href="i__motor_8hpp.html" target="_top" xlink:title=" ">
<polygon fill="white" stroke="black" points="22.46,-56.5 22.46,-86.5 135.46,-86.5 135.46,-56.5 22.46,-56.5"/>
<text text-anchor="start" x="30.46" y="-74.5" font-family="Helvetica,sans-Serif" font-size="10.00">alps_cmn/actuator/i</text>
<text text-anchor="middle" x="78.96" y="-63.5" font-family="Helvetica,sans-Serif" font-size="10.00">_motor.hpp</text>
</a>
</g>
</g>
<!-- Node1&#45;&gt;Node3 -->
<g id="edge2" class="edge">
<title>Node1&#45;&gt;Node3</title>
<path fill="none" stroke="midnightblue" d="M233.64,-123.46C201.6,-112.9 162.4,-99.99 131.48,-89.8"/>
<polygon fill="midnightblue" stroke="midnightblue" points="132.35,-86.4 121.75,-86.6 130.16,-93.05 132.35,-86.4"/>
</g>
<!-- Node4 -->
<g id="node4" class="node">
<title>Node4</title>
<g id="a_node4"><a xlink:href="i__pwm__out_8hpp.html" target="_top" xlink:title="PWM出力を行うインタフェース">
<polygon fill="white" stroke="black" points="153.96,-56.5 153.96,-86.5 275.96,-86.5 275.96,-56.5 153.96,-56.5"/>
<text text-anchor="start" x="161.96" y="-74.5" font-family="Helvetica,sans-Serif" font-size="10.00">alps_cmn/gpio/i_pwm</text>
<text text-anchor="middle" x="214.96" y="-63.5" font-family="Helvetica,sans-Serif" font-size="10.00">_out.hpp</text>
</a>
</g>
</g>
<!-- Node1&#45;&gt;Node4 -->
<g id="edge3" class="edge">
<title>Node1&#45;&gt;Node4</title>
<path fill="none" stroke="midnightblue" d="M271.23,-123.36C261.03,-114.14 248.86,-103.13 238.44,-93.72"/>
<polygon fill="midnightblue" stroke="midnightblue" points="240.65,-91 230.88,-86.89 235.96,-96.19 240.65,-91"/>
</g>
<!-- Node5 -->
<g id="node5" class="node">
<title>Node5</title>
<g id="a_node5"><a xlink:href="duration_8hpp.html" target="_top" xlink:title="時間間隔の型エイリアス">
<polygon fill="white" stroke="black" points="294.46,-62 294.46,-81 447.46,-81 447.46,-62 294.46,-62"/>
<text text-anchor="middle" x="370.96" y="-69" font-family="Helvetica,sans-Serif" font-size="10.00">alps_cmn/time/duration.hpp</text>
</a>
</g>
</g>
<!-- Node1&#45;&gt;Node5 -->
<g id="edge5" class="edge">
<title>Node1&#45;&gt;Node5</title>
<path fill="none" stroke="midnightblue" d="M314.69,-123.36C327.02,-112.21 342.24,-98.46 353.74,-88.06"/>
<polygon fill="midnightblue" stroke="midnightblue" points="356.29,-90.48 361.37,-81.17 351.6,-85.28 356.29,-90.48"/>
</g>
<!-- Node6 -->
<g id="node6" class="node">
<title>Node6</title>
<g id="a_node6"><a xlink:href="timeout__checker_8hpp.html" target="_top" xlink:title="タイムアウトを検知するクラス">
<polygon fill="white" stroke="black" points="465.96,-56.5 465.96,-86.5 595.96,-86.5 595.96,-56.5 465.96,-56.5"/>
<text text-anchor="start" x="473.96" y="-74.5" font-family="Helvetica,sans-Serif" font-size="10.00">alps_cmn/time/timeout</text>
<text text-anchor="middle" x="530.96" y="-63.5" font-family="Helvetica,sans-Serif" font-size="10.00">_checker.hpp</text>
</a>
</g>
</g>
<!-- Node1&#45;&gt;Node6 -->
<g id="edge7" class="edge">
<title>Node1&#45;&gt;Node6</title>
<path fill="none" stroke="midnightblue" d="M358.94,-123.46C394.88,-112.81 438.92,-99.76 473.44,-89.54"/>
<polygon fill="midnightblue" stroke="midnightblue" points="474.78,-92.79 483.37,-86.6 472.79,-86.08 474.78,-92.79"/>
</g>
<!-- Node7 -->
<g id="node7" class="node">
<title>Node7</title>
<g id="a_node7"><a xlink:href="algorithm_8hpp.html" target="_top" xlink:title=" ">
<polygon fill="white" stroke="black" points="614.46,-62 614.46,-81 767.46,-81 767.46,-62 614.46,-62"/>
<text text-anchor="middle" x="690.96" y="-69" font-family="Helvetica,sans-Serif" font-size="10.00">alps_cmn/util/algorithm.hpp</text>
</a>
</g>
</g>
<!-- Node1&#45;&gt;Node7 -->
<g id="edge9" class="edge">
<title>Node1&#45;&gt;Node7</title>
<path fill="none" stroke="midnightblue" d="M363.2,-130.56C439.77,-116.99 560.92,-95.54 632.5,-82.86"/>
<polygon fill="midnightblue" stroke="midnightblue" points="633.46,-86.24 642.69,-81.05 632.24,-79.35 633.46,-86.24"/>
</g>
<!-- Node4&#45;&gt;Node2 -->
<g id="edge4" class="edge">
<title>Node4&#45;&gt;Node2</title>
<path fill="none" stroke="midnightblue" d="M233.45,-56.4C245.48,-47.22 261.16,-35.26 273.41,-25.92"/>
<polygon fill="midnightblue" stroke="midnightblue" points="275.78,-28.51 281.61,-19.66 271.54,-22.94 275.78,-28.51"/>
</g>
<!-- Node5&#45;&gt;Node2 -->
<g id="edge6" class="edge">
<title>Node5&#45;&gt;Node2</title>
<path fill="none" stroke="midnightblue" d="M359.79,-61.98C347.39,-52.52 327.17,-37.1 312.22,-25.69"/>
<polygon fill="midnightblue" stroke="midnightblue" points="314.19,-22.79 304.12,-19.51 309.95,-28.36 314.19,-22.79"/>
</g>
<!-- Node6&#45;&gt;Node2 -->
<g id="edge8" class="edge">
<title>Node6&#45;&gt;Node2</title>
<path fill="none" stroke="midnightblue" d="M474.86,-56.47C429.32,-45.09 366.53,-29.39 327.9,-19.73"/>
<polygon fill="midnightblue" stroke="midnightblue" points="328.7,-16.33 318.15,-17.3 327,-23.12 328.7,-16.33"/>
</g>
</g>
</svg>
