<?xml version="1.0" encoding="UTF-8" standalone="no"?>
<!DOCTYPE svg PUBLIC "-//W3C//DTD SVG 1.1//EN"
 "http://www.w3.org/Graphics/SVG/1.1/DTD/svg11.dtd">
<!-- Generated by graphviz version 2.43.0 (0)
 -->
<!-- Title: alps_core/lib_internal/alps_common_lib/include/alps_cmn/actuator/esc_bldc_motor.hpp Pages: 1 -->
<svg width="776pt" height="184pt"
 viewBox="0.00 0.00 775.57 184.00" xmlns="http://www.w3.org/2000/svg" xmlns:xlink="http://www.w3.org/1999/xlink">
<g id="graph0" class="graph" transform="scale(1 1) rotate(0) translate(4 180)">
<title>alps_core/lib_internal/alps_common_lib/include/alps_cmn/actuator/esc_bldc_motor.hpp</title>
<polygon fill="white" stroke="transparent" points="-4,4 -4,-180 771.57,-180 771.57,4 -4,4"/>
<!-- Node1 -->
<g id="node1" class="node">
<title>Node1</title>
<g id="a_node1"><a xlink:title="ESCで動かすブラシレスDCモーター">
<polygon fill="#bfbfbf" stroke="black" points="215.57,-123.5 215.57,-175.5 370.57,-175.5 370.57,-123.5 215.57,-123.5"/>
<text text-anchor="start" x="223.57" y="-163.5" font-family="Helvetica,sans-Serif" font-size="10.00">alps_core/lib_internal</text>
<text text-anchor="start" x="223.57" y="-152.5" font-family="Helvetica,sans-Serif" font-size="10.00">/alps_common_lib/include</text>
<text text-anchor="start" x="223.57" y="-141.5" font-family="Helvetica,sans-Serif" font-size="10.00">/alps_cmn/actuator/esc_bldc</text>
<text text-anchor="middle" x="293.07" y="-130.5" font-family="Helvetica,sans-Serif" font-size="10.00">_motor.hpp</text>
</a>
</g>
</g>
<!-- Node2 -->
<g id="node2" class="node">
<title>Node2</title>
<g id="a_node2"><a xlink:title=" ">
<polygon fill="white" stroke="#bfbfbf" points="268.07,-0.5 268.07,-19.5 318.07,-19.5 318.07,-0.5 268.07,-0.5"/>
<text text-anchor="middle" x="293.07" y="-7.5" font-family="Helvetica,sans-Serif" font-size="10.00">chrono</text>
</a>
</g>
</g>
<!-- Node1&#45;&gt;Node2 -->
<g id="edge1" class="edge">
<title>Node1&#45;&gt;Node2</title>
<path fill="none" stroke="midnightblue" d="M215.32,-147.32C113.31,-143.09 -46.2,-125.56 13.07,-56 44.14,-19.54 189.75,-12.51 257.82,-11.23"/>
<polygon fill="midnightblue" stroke="midnightblue" points="258.11,-14.73 268.05,-11.07 258,-7.73 258.11,-14.73"/>
</g>
<!-- Node3 -->
<g id="node3" class="node">
<title>Node3</title>
<g id="a_node3"><a xlink:href="i__motor_8hpp.html" target="_top" xlink:title=" ">
<polygon fill="white" stroke="black" points="22.57,-56.5 22.57,-86.5 135.57,-86.5 135.57,-56.5 22.57,-56.5"/>
<text text-anchor="start" x="30.57" y="-74.5" font-family="Helvetica,sans-Serif" font-size="10.00">alps_cmn/actuator/i</text>
<text text-anchor="middle" x="79.07" y="-63.5" font-family="Helvetica,sans-Serif" font-size="10.00">_motor.hpp</text>
</a>
</g>
</g>
<!-- Node1&#45;&gt;Node3 -->
<g id="edge2" class="edge">
<title>Node1&#45;&gt;Node3</title>
<path fill="none" stroke="midnightblue" d="M222.4,-123.4C191.58,-112.46 156.2,-99.89 128.3,-89.98"/>
<polygon fill="midnightblue" stroke="midnightblue" points="129.36,-86.65 118.76,-86.6 127.01,-93.24 129.36,-86.65"/>
</g>
<!-- Node4 -->
<g id="node4" class="node">
<title>Node4</title>
<g id="a_node4"><a xlink:href="i__pwm__out_8hpp.html" target="_top" xlink:title="PWM出力を行うインタフェース">
<polygon fill="white" stroke="black" points="154.07,-56.5 154.07,-86.5 276.07,-86.5 276.07,-56.5 154.07,-56.5"/>
<text text-anchor="start" x="162.07" y="-74.5" font-family="Helvetica,sans-Serif" font-size="10.00">alps_cmn/gpio/i_pwm</text>
<text text-anchor="middle" x="215.07" y="-63.5" font-family="Helvetica,sans-Serif" font-size="10.00">_out.hpp</text>
</a>
</g>
</g>
<!-- Node1&#45;&gt;Node4 -->
<g id="edge3" class="edge">
<title>Node1&#45;&gt;Node4</title>
<path fill="none" stroke="midnightblue" d="M267.09,-123.19C257.4,-113.75 246.49,-103.12 237.18,-94.04"/>
<polygon fill="midnightblue" stroke="midnightblue" points="239.39,-91.32 229.79,-86.85 234.51,-96.33 239.39,-91.32"/>
</g>
<!-- Node5 -->
<g id="node5" class="node">
<title>Node5</title>
<g id="a_node5"><a xlink:href="duration_8hpp.html" target="_top" xlink:title="時間間隔の型エイリアス">
<polygon fill="white" stroke="black" points="294.57,-62 294.57,-81 447.57,-81 447.57,-62 294.57,-62"/>
<text text-anchor="middle" x="371.07" y="-69" font-family="Helvetica,sans-Serif" font-size="10.00">alps_cmn/time/duration.hpp</text>
</a>
</g>
</g>
<!-- Node1&#45;&gt;Node5 -->
<g id="edge5" class="edge">
<title>Node1&#45;&gt;Node5</title>
<path fill="none" stroke="midnightblue" d="M319.04,-123.19C330.9,-111.63 344.59,-98.3 354.94,-88.21"/>
<polygon fill="midnightblue" stroke="midnightblue" points="357.41,-90.69 362.13,-81.21 352.52,-85.68 357.41,-90.69"/>
</g>
<!-- Node6 -->
<g id="node6" class="node">
<title>Node6</title>
<g id="a_node6"><a xlink:href="timeout__checker_8hpp.html" target="_top" xlink:title="タイムアウトを検知するクラス">
<polygon fill="white" stroke="black" points="466.07,-56.5 466.07,-86.5 596.07,-86.5 596.07,-56.5 466.07,-56.5"/>
<text text-anchor="start" x="474.07" y="-74.5" font-family="Helvetica,sans-Serif" font-size="10.00">alps_cmn/time/timeout</text>
<text text-anchor="middle" x="531.07" y="-63.5" font-family="Helvetica,sans-Serif" font-size="10.00">_checker.hpp</text>
</a>
</g>
</g>
<!-- Node1&#45;&gt;Node6 -->
<g id="edge7" class="edge">
<title>Node1&#45;&gt;Node6</title>
<path fill="none" stroke="midnightblue" d="M370.67,-123.72C405.43,-112.62 445.58,-99.8 477.01,-89.76"/>
<polygon fill="midnightblue" stroke="midnightblue" points="478.43,-92.98 486.89,-86.61 476.3,-86.31 478.43,-92.98"/>
</g>
<!-- Node7 -->
<g id="node7" class="node">
<title>Node7</title>
<g id="a_node7"><a xlink:href="algorithm_8hpp.html" target="_top" xlink:title=" ">
<polygon fill="white" stroke="black" points="614.57,-62 614.57,-81 767.57,-81 767.57,-62 614.57,-62"/>
<text text-anchor="middle" x="691.07" y="-69" font-family="Helvetica,sans-Serif" font-size="10.00">alps_cmn/util/algorithm.hpp</text>
</a>
</g>
</g>
<!-- Node1&#45;&gt;Node7 -->
<g id="edge9" class="edge">
<title>Node1&#45;&gt;Node7</title>
<path fill="none" stroke="midnightblue" d="M370.75,-133.67C448.86,-118.75 567.29,-96.14 636.14,-82.99"/>
<polygon fill="midnightblue" stroke="midnightblue" points="637.17,-86.36 646.34,-81.04 635.86,-79.48 637.17,-86.36"/>
</g>
<!-- Node4&#45;&gt;Node2 -->
<g id="edge4" class="edge">
<title>Node4&#45;&gt;Node2</title>
<path fill="none" stroke="midnightblue" d="M233.55,-56.4C245.59,-47.22 261.27,-35.26 273.51,-25.92"/>
<polygon fill="midnightblue" stroke="midnightblue" points="275.89,-28.51 281.72,-19.66 271.64,-22.94 275.89,-28.51"/>
</g>
<!-- Node5&#45;&gt;Node2 -->
<g id="edge6" class="edge">
<title>Node5&#45;&gt;Node2</title>
<path fill="none" stroke="midnightblue" d="M359.89,-61.98C347.5,-52.52 327.28,-37.1 312.32,-25.69"/>
<polygon fill="midnightblue" stroke="midnightblue" points="314.29,-22.79 304.22,-19.51 310.05,-28.36 314.29,-22.79"/>
</g>
<!-- Node6&#45;&gt;Node2 -->
<g id="edge8" class="edge">
<title>Node6&#45;&gt;Node2</title>
<path fill="none" stroke="midnightblue" d="M474.96,-56.47C429.42,-45.09 366.63,-29.39 328,-19.73"/>
<polygon fill="midnightblue" stroke="midnightblue" points="328.8,-16.33 318.25,-17.3 327.1,-23.12 328.8,-16.33"/>
</g>
</g>
</svg>
