<?xml version="1.0" encoding="UTF-8" standalone="no"?>
<!DOCTYPE svg PUBLIC "-//W3C//DTD SVG 1.1//EN"
 "http://www.w3.org/Graphics/SVG/1.1/DTD/svg11.dtd">
<!-- Generated by graphviz version 2.43.0 (0)
 -->
<!-- Title: alps_core/lib_internal/alps_common_lib/include/alps_cmn/display/font6x9.hpp Pages: 1 -->
<svg width="207pt" height="170pt"
 viewBox="0.00 0.00 207.00 170.00" xmlns="http://www.w3.org/2000/svg" xmlns:xlink="http://www.w3.org/1999/xlink">
<g id="graph0" class="graph" transform="scale(1 1) rotate(0) translate(4 166)">
<title>alps_core/lib_internal/alps_common_lib/include/alps_cmn/display/font6x9.hpp</title>
<!-- Node1 -->
<g id="Node000001" class="node">
<title>Node1</title>
<g id="a_Node000001"><a xlink:title="SSD1306 OLEDディスプレイ用 フォント">
<polygon fill="#999999" stroke="#666666" points="166,-162 0,-162 0,-121 166,-121 166,-162"/>
<text text-anchor="start" x="8" y="-150" font-family="Helvetica,sans-Serif" font-size="10.00">alps_core/lib_internal</text>
<text text-anchor="start" x="8" y="-139" font-family="Helvetica,sans-Serif" font-size="10.00">/alps_common_lib/include</text>
<text text-anchor="middle" x="83" y="-128" font-family="Helvetica,sans-Serif" font-size="10.00">/alps_cmn/display/font6x9.hpp</text>
</a>
</g>
</g>
<!-- Node2 -->
<g id="Node000002" class="node">
<title>Node2</title>
<g id="a_Node000002"><a xlink:title=" ">
<polygon fill="#e0e0e0" stroke="#999999" points="56.5,-79.5 3.5,-79.5 3.5,-60.5 56.5,-60.5 56.5,-79.5"/>
<text text-anchor="middle" x="30" y="-67.5" font-family="Helvetica,sans-Serif" font-size="10.00">stdint.h</text>
</a>
</g>
</g>
<!-- Node1&#45;&gt;Node2 -->
<g id="edge1_Node000001_Node000002" class="edge">
<title>Node1&#45;&gt;Node2</title>
<g id="a_edge1_Node000001_Node000002"><a xlink:title=" ">
<path fill="none" stroke="#63b8ff" d="M67.95,-120.77C60.08,-110.45 50.54,-97.93 42.99,-88.04"/>
<polygon fill="#63b8ff" stroke="#63b8ff" points="45.57,-85.65 36.73,-79.82 40.01,-89.89 45.57,-85.65"/>
</a>
</g>
</g>
<!-- Node3 -->
<g id="Node000003" class="node">
<title>Node3</title>
<g id="a_Node000003"><a xlink:href="font__info_8hpp.html" target="_top" xlink:title="フォント情報構造体">
<polygon fill="white" stroke="#666666" points="199,-85 75,-85 75,-55 199,-55 199,-85"/>
<text text-anchor="start" x="83" y="-73" font-family="Helvetica,sans-Serif" font-size="10.00">alps_cmn/display/font</text>
<text text-anchor="middle" x="137" y="-62" font-family="Helvetica,sans-Serif" font-size="10.00">_info.hpp</text>
</a>
</g>
</g>
<!-- Node1&#45;&gt;Node3 -->
<g id="edge2_Node000001_Node000003" class="edge">
<title>Node1&#45;&gt;Node3</title>
<g id="a_edge2_Node000001_Node000003"><a xlink:title=" ">
<path fill="none" stroke="#63b8ff" d="M98.33,-120.77C105.04,-112.13 112.94,-101.96 119.85,-93.08"/>
<polygon fill="#63b8ff" stroke="#63b8ff" points="122.72,-95.08 126.09,-85.04 117.19,-90.79 122.72,-95.08"/>
</a>
</g>
</g>
<!-- Node4 -->
<g id="Node000004" class="node">
<title>Node4</title>
<g id="a_Node000004"><a xlink:title=" ">
<polygon fill="#e0e0e0" stroke="#999999" points="162,-19 112,-19 112,0 162,0 162,-19"/>
<text text-anchor="middle" x="137" y="-7" font-family="Helvetica,sans-Serif" font-size="10.00">cstdint</text>
</a>
</g>
</g>
<!-- Node3&#45;&gt;Node4 -->
<g id="edge3_Node000003_Node000004" class="edge">
<title>Node3&#45;&gt;Node4</title>
<g id="a_edge3_Node000003_Node000004"><a xlink:title=" ">
<path fill="none" stroke="#63b8ff" d="M137,-54.84C137,-47.21 137,-37.7 137,-29.45"/>
<polygon fill="#63b8ff" stroke="#63b8ff" points="140.5,-29.27 137,-19.27 133.5,-29.27 140.5,-29.27"/>
</a>
</g>
</g>
</g>
</svg>
