<?xml version="1.0" encoding="UTF-8" standalone="no"?>
<!DOCTYPE svg PUBLIC "-//W3C//DTD SVG 1.1//EN"
 "http://www.w3.org/Graphics/SVG/1.1/DTD/svg11.dtd">
<!-- Generated by graphviz version 2.43.0 (0)
 -->
<!-- Title: alps_common_lib/include/alps_cmn/robotics/four_wheel_omni.hpp Pages: 1 -->
<svg width="354pt" height="104pt"
 viewBox="0.00 0.00 353.50 104.00" xmlns="http://www.w3.org/2000/svg" xmlns:xlink="http://www.w3.org/1999/xlink">
<g id="graph0" class="graph" transform="scale(1 1) rotate(0) translate(4 100)">
<title>alps_common_lib/include/alps_cmn/robotics/four_wheel_omni.hpp</title>
<!-- Node1 -->
<g id="node1" class="node">
<title>Node1</title>
<g id="a_node1"><a xlink:title="4輪オムニホイールロボットの運動学モデルクラス">
<polygon fill="#999999" stroke="#666666" points="192,-96 52,-96 52,-55 192,-55 192,-96"/>
<text text-anchor="start" x="60" y="-84" font-family="Helvetica,sans-Serif" font-size="10.00">alps_common_lib/include</text>
<text text-anchor="start" x="60" y="-73" font-family="Helvetica,sans-Serif" font-size="10.00">/alps_cmn/robotics/four</text>
<text text-anchor="middle" x="122" y="-62" font-family="Helvetica,sans-Serif" font-size="10.00">_wheel_omni.hpp</text>
</a>
</g>
</g>
<!-- Node2 -->
<g id="node2" class="node">
<title>Node2</title>
<g id="a_node2"><a xlink:title=" ">
<polygon fill="#e0e0e0" stroke="#999999" points="42,-19 0,-19 0,0 42,0 42,-19"/>
<text text-anchor="middle" x="21" y="-7" font-family="Helvetica,sans-Serif" font-size="10.00">array</text>
</a>
</g>
</g>
<!-- Node1&#45;&gt;Node2 -->
<g id="edge1" class="edge">
<title>Node1&#45;&gt;Node2</title>
<path fill="none" stroke="#63b8ff" d="M91.15,-54.95C75.63,-45.12 57.19,-33.43 43.11,-24.51"/>
<polygon fill="#63b8ff" stroke="#63b8ff" points="44.88,-21.49 34.56,-19.09 41.13,-27.4 44.88,-21.49"/>
</g>
<!-- Node3 -->
<g id="node3" class="node">
<title>Node3</title>
<g id="a_node3"><a xlink:title=" ">
<polygon fill="#e0e0e0" stroke="#999999" points="107.5,-19 60.5,-19 60.5,0 107.5,0 107.5,-19"/>
<text text-anchor="middle" x="84" y="-7" font-family="Helvetica,sans-Serif" font-size="10.00">cmath</text>
</a>
</g>
</g>
<!-- Node1&#45;&gt;Node3 -->
<g id="edge2" class="edge">
<title>Node1&#45;&gt;Node3</title>
<path fill="none" stroke="#63b8ff" d="M110.39,-54.95C105.31,-46.39 99.39,-36.42 94.45,-28.1"/>
<polygon fill="#63b8ff" stroke="#63b8ff" points="97.32,-26.07 89.2,-19.26 91.3,-29.65 97.32,-26.07"/>
</g>
<!-- Node4 -->
<g id="node4" class="node">
<title>Node4</title>
<g id="a_node4"><a xlink:title=" ">
<polygon fill="#e0e0e0" stroke="#999999" points="194.5,-19 125.5,-19 125.5,0 194.5,0 194.5,-19"/>
<text text-anchor="middle" x="160" y="-7" font-family="Helvetica,sans-Serif" font-size="10.00">Eigen/Core</text>
</a>
</g>
</g>
<!-- Node1&#45;&gt;Node4 -->
<g id="edge3" class="edge">
<title>Node1&#45;&gt;Node4</title>
<path fill="none" stroke="#63b8ff" d="M133.61,-54.95C138.69,-46.39 144.61,-36.42 149.55,-28.1"/>
<polygon fill="#63b8ff" stroke="#63b8ff" points="152.7,-29.65 154.8,-19.26 146.68,-26.07 152.7,-29.65"/>
</g>
<!-- Node5 -->
<g id="node5" class="node">
<title>Node5</title>
<g id="a_node5"><a xlink:href="angle_8hpp.html" target="_top" xlink:title=" ">
<polygon fill="white" stroke="#666666" points="345.5,-19 212.5,-19 212.5,0 345.5,0 345.5,-19"/>
<text text-anchor="middle" x="279" y="-7" font-family="Helvetica,sans-Serif" font-size="10.00">alps_cmn/util/angle.hpp</text>
</a>
</g>
</g>
<!-- Node1&#45;&gt;Node5 -->
<g id="edge4" class="edge">
<title>Node1&#45;&gt;Node5</title>
<path fill="none" stroke="#63b8ff" d="M169.96,-54.95C195.57,-44.51 226.31,-31.98 248.62,-22.88"/>
<polygon fill="#63b8ff" stroke="#63b8ff" points="249.98,-26.11 257.92,-19.09 247.34,-19.63 249.98,-26.11"/>
</g>
</g>
</svg>
