<?xml version="1.0" encoding="UTF-8" standalone="no"?>
<!DOCTYPE svg PUBLIC "-//W3C//DTD SVG 1.1//EN"
 "http://www.w3.org/Graphics/SVG/1.1/DTD/svg11.dtd">
<!-- Generated by graphviz version 2.43.0 (0)
 -->
<!-- Title: alps_common_lib/include/alps_cmn/control/friction_compensated_motor.hpp Pages: 1 -->
<svg width="550pt" height="225pt"
 viewBox="0.00 0.00 550.00 225.00" xmlns="http://www.w3.org/2000/svg" xmlns:xlink="http://www.w3.org/1999/xlink">
<g id="graph0" class="graph" transform="scale(1 1) rotate(0) translate(4 221)">
<title>alps_common_lib/include/alps_cmn/control/friction_compensated_motor.hpp</title>
<!-- Node1 -->
<g id="node1" class="node">
<title>Node1</title>
<g id="a_node1"><a xlink:title="モーターに対して摩擦補償を行うデコレーター">
<polygon fill="#999999" stroke="#666666" points="277,-217 134,-217 134,-176 277,-176 277,-217"/>
<text text-anchor="start" x="142" y="-205" font-family="Helvetica,sans-Serif" font-size="10.00">alps_common_lib/include</text>
<text text-anchor="start" x="142" y="-194" font-family="Helvetica,sans-Serif" font-size="10.00">/alps_cmn/control/friction</text>
<text text-anchor="middle" x="205.5" y="-183" font-family="Helvetica,sans-Serif" font-size="10.00">_compensated_motor.hpp</text>
</a>
</g>
</g>
<!-- Node2 -->
<g id="node2" class="node">
<title>Node2</title>
<g id="a_node2"><a xlink:title=" ">
<polygon fill="#e0e0e0" stroke="#999999" points="47,-134.5 0,-134.5 0,-115.5 47,-115.5 47,-134.5"/>
<text text-anchor="middle" x="23.5" y="-122.5" font-family="Helvetica,sans-Serif" font-size="10.00">cmath</text>
</a>
</g>
</g>
<!-- Node1&#45;&gt;Node2 -->
<g id="edge1" class="edge">
<title>Node1&#45;&gt;Node2</title>
<path fill="none" stroke="#63b8ff" d="M150.35,-175.96C121.87,-165.65 86.66,-152.57 55.5,-140 54.33,-139.53 53.14,-139.04 51.94,-138.54"/>
<polygon fill="#63b8ff" stroke="#63b8ff" points="53.29,-135.31 42.71,-134.62 50.55,-141.76 53.29,-135.31"/>
</g>
<!-- Node3 -->
<g id="node3" class="node">
<title>Node3</title>
<g id="a_node3"><a xlink:href="i__motor_8hpp.html" target="_top" xlink:title=" ">
<polygon fill="white" stroke="#666666" points="178,-140 65,-140 65,-110 178,-110 178,-140"/>
<text text-anchor="start" x="73" y="-128" font-family="Helvetica,sans-Serif" font-size="10.00">alps_cmn/actuator/i</text>
<text text-anchor="middle" x="121.5" y="-117" font-family="Helvetica,sans-Serif" font-size="10.00">_motor.hpp</text>
</a>
</g>
</g>
<!-- Node1&#45;&gt;Node3 -->
<g id="edge2" class="edge">
<title>Node1&#45;&gt;Node3</title>
<path fill="none" stroke="#63b8ff" d="M181.65,-175.77C170.57,-166.6 157.4,-155.7 146.21,-146.44"/>
<polygon fill="#63b8ff" stroke="#63b8ff" points="148.4,-143.72 138.47,-140.04 143.94,-149.11 148.4,-143.72"/>
</g>
<!-- Node4 -->
<g id="node4" class="node">
<title>Node4</title>
<g id="a_node4"><a xlink:href="differentiator_8hpp.html" target="_top" xlink:title="微分器ライブラリ">
<polygon fill="white" stroke="#666666" points="384.5,-134.5 196.5,-134.5 196.5,-115.5 384.5,-115.5 384.5,-134.5"/>
<text text-anchor="middle" x="290.5" y="-122.5" font-family="Helvetica,sans-Serif" font-size="10.00">alps_cmn/control/differentiator.hpp</text>
</a>
</g>
</g>
<!-- Node1&#45;&gt;Node4 -->
<g id="edge3" class="edge">
<title>Node1&#45;&gt;Node4</title>
<path fill="none" stroke="#63b8ff" d="M229.63,-175.77C243.03,-164.81 259.45,-151.39 271.85,-141.25"/>
<polygon fill="#63b8ff" stroke="#63b8ff" points="274.19,-143.86 279.71,-134.82 269.76,-138.44 274.19,-143.86"/>
</g>
<!-- Node7 -->
<g id="node7" class="node">
<title>Node7</title>
<g id="a_node7"><a xlink:href="i__rotary__sensor_8hpp.html" target="_top" xlink:title=" ">
<polygon fill="white" stroke="#666666" points="542,-140 403,-140 403,-110 542,-110 542,-140"/>
<text text-anchor="start" x="411" y="-128" font-family="Helvetica,sans-Serif" font-size="10.00">alps_cmn/sensor/i_rotary</text>
<text text-anchor="middle" x="472.5" y="-117" font-family="Helvetica,sans-Serif" font-size="10.00">_sensor.hpp</text>
</a>
</g>
</g>
<!-- Node1&#45;&gt;Node7 -->
<g id="edge7" class="edge">
<title>Node1&#45;&gt;Node7</title>
<path fill="none" stroke="#63b8ff" d="M277.05,-176.88C318.06,-166.2 369.1,-152.92 408.73,-142.6"/>
<polygon fill="#63b8ff" stroke="#63b8ff" points="409.75,-145.95 418.55,-140.04 407.99,-139.18 409.75,-145.95"/>
</g>
<!-- Node5 -->
<g id="node5" class="node">
<title>Node5</title>
<g id="a_node5"><a xlink:title=" ">
<polygon fill="#e0e0e0" stroke="#999999" points="314.5,-19 264.5,-19 264.5,0 314.5,0 314.5,-19"/>
<text text-anchor="middle" x="289.5" y="-7" font-family="Helvetica,sans-Serif" font-size="10.00">chrono</text>
</a>
</g>
</g>
<!-- Node4&#45;&gt;Node5 -->
<g id="edge4" class="edge">
<title>Node4&#45;&gt;Node5</title>
<path fill="none" stroke="#63b8ff" d="M282.14,-115.3C273.79,-105.96 261.5,-90.25 256.5,-74 254.02,-65.93 253.85,-63.02 256.5,-55 259.96,-44.54 266.93,-34.53 273.58,-26.66"/>
<polygon fill="#63b8ff" stroke="#63b8ff" points="276.36,-28.8 280.48,-19.04 271.17,-24.1 276.36,-28.8"/>
</g>
<!-- Node6 -->
<g id="node6" class="node">
<title>Node6</title>
<g id="a_node6"><a xlink:href="duration_8hpp.html" target="_top" xlink:title="時間間隔の型エイリアス">
<polygon fill="white" stroke="#666666" points="419,-74 266,-74 266,-55 419,-55 419,-74"/>
<text text-anchor="middle" x="342.5" y="-62" font-family="Helvetica,sans-Serif" font-size="10.00">alps_cmn/time/duration.hpp</text>
</a>
</g>
</g>
<!-- Node4&#45;&gt;Node6 -->
<g id="edge5" class="edge">
<title>Node4&#45;&gt;Node6</title>
<path fill="none" stroke="#63b8ff" d="M298.17,-115.37C306.01,-106.55 318.36,-92.66 328.04,-81.77"/>
<polygon fill="#63b8ff" stroke="#63b8ff" points="330.77,-83.97 334.8,-74.17 325.54,-79.32 330.77,-83.97"/>
</g>
<!-- Node6&#45;&gt;Node5 -->
<g id="edge6" class="edge">
<title>Node6&#45;&gt;Node5</title>
<path fill="none" stroke="#63b8ff" d="M333.75,-54.75C326.03,-47.03 314.6,-35.6 305.28,-26.28"/>
<polygon fill="#63b8ff" stroke="#63b8ff" points="307.64,-23.69 298.09,-19.09 302.69,-28.64 307.64,-23.69"/>
</g>
</g>
</svg>
