<?xml version="1.0" encoding="UTF-8" standalone="no"?>
<!DOCTYPE svg PUBLIC "-//W3C//DTD SVG 1.1//EN"
 "http://www.w3.org/Graphics/SVG/1.1/DTD/svg11.dtd">
<!-- Generated by graphviz version 2.43.0 (0)
 -->
<!-- Title: alps_common_lib/include/alps_cmn/control/friction_compensated_motor.hpp Pages: 1 -->
<svg width="548pt" height="229pt"
 viewBox="0.00 0.00 548.00 229.00" xmlns="http://www.w3.org/2000/svg" xmlns:xlink="http://www.w3.org/1999/xlink">
<g id="graph0" class="graph" transform="scale(1 1) rotate(0) translate(4 225)">
<title>alps_common_lib/include/alps_cmn/control/friction_compensated_motor.hpp</title>
<polygon fill="white" stroke="transparent" points="-4,4 -4,-225 544,-225 544,4 -4,4"/>
<!-- Node1 -->
<g id="node1" class="node">
<title>Node1</title>
<g id="a_node1"><a xlink:title="モーターに対して摩擦補償を行うデコレーター">
<polygon fill="#bfbfbf" stroke="black" points="134,-179.5 134,-220.5 277,-220.5 277,-179.5 134,-179.5"/>
<text text-anchor="start" x="142" y="-208.5" font-family="Helvetica,sans-Serif" font-size="10.00">alps_common_lib/include</text>
<text text-anchor="start" x="142" y="-197.5" font-family="Helvetica,sans-Serif" font-size="10.00">/alps_cmn/control/friction</text>
<text text-anchor="middle" x="205.5" y="-186.5" font-family="Helvetica,sans-Serif" font-size="10.00">_compensated_motor.hpp</text>
</a>
</g>
</g>
<!-- Node2 -->
<g id="node2" class="node">
<title>Node2</title>
<g id="a_node2"><a xlink:title=" ">
<polygon fill="white" stroke="#bfbfbf" points="0,-118 0,-137 47,-137 47,-118 0,-118"/>
<text text-anchor="middle" x="23.5" y="-125" font-family="Helvetica,sans-Serif" font-size="10.00">cmath</text>
</a>
</g>
</g>
<!-- Node1&#45;&gt;Node2 -->
<g id="edge1" class="edge">
<title>Node1&#45;&gt;Node2</title>
<path fill="none" stroke="midnightblue" d="M150.29,-179.41C121.8,-169.04 86.59,-155.83 55.5,-143 54.13,-142.43 52.72,-141.84 51.31,-141.24"/>
<polygon fill="midnightblue" stroke="midnightblue" points="52.58,-137.97 42.02,-137.15 49.76,-144.38 52.58,-137.97"/>
</g>
<!-- Node3 -->
<g id="node3" class="node">
<title>Node3</title>
<g id="a_node3"><a xlink:href="i__motor_8hpp.html" target="_top" xlink:title=" ">
<polygon fill="white" stroke="black" points="65,-112.5 65,-142.5 178,-142.5 178,-112.5 65,-112.5"/>
<text text-anchor="start" x="73" y="-130.5" font-family="Helvetica,sans-Serif" font-size="10.00">alps_cmn/actuator/i</text>
<text text-anchor="middle" x="121.5" y="-119.5" font-family="Helvetica,sans-Serif" font-size="10.00">_motor.hpp</text>
</a>
</g>
</g>
<!-- Node1&#45;&gt;Node3 -->
<g id="edge2" class="edge">
<title>Node1&#45;&gt;Node3</title>
<path fill="none" stroke="midnightblue" d="M182.1,-179.36C170.93,-169.99 157.56,-158.76 146.22,-149.25"/>
<polygon fill="midnightblue" stroke="midnightblue" points="148.29,-146.42 138.38,-142.67 143.79,-151.78 148.29,-146.42"/>
</g>
<!-- Node4 -->
<g id="node4" class="node">
<title>Node4</title>
<g id="a_node4"><a xlink:href="differentiator_8hpp.html" target="_top" xlink:title="微分器ライブラリ">
<polygon fill="white" stroke="black" points="196,-118 196,-137 383,-137 383,-118 196,-118"/>
<text text-anchor="middle" x="289.5" y="-125" font-family="Helvetica,sans-Serif" font-size="10.00">alps_cmn/control/differentiator.hpp</text>
</a>
</g>
</g>
<!-- Node1&#45;&gt;Node4 -->
<g id="edge3" class="edge">
<title>Node1&#45;&gt;Node4</title>
<path fill="none" stroke="midnightblue" d="M228.9,-179.36C242.31,-168.11 258.89,-154.19 271.32,-143.76"/>
<polygon fill="midnightblue" stroke="midnightblue" points="273.76,-146.28 279.17,-137.17 269.26,-140.92 273.76,-146.28"/>
</g>
<!-- Node7 -->
<g id="node7" class="node">
<title>Node7</title>
<g id="a_node7"><a xlink:href="i__rotary__sensor_8hpp.html" target="_top" xlink:title=" ">
<polygon fill="white" stroke="black" points="401,-112.5 401,-142.5 540,-142.5 540,-112.5 401,-112.5"/>
<text text-anchor="start" x="409" y="-130.5" font-family="Helvetica,sans-Serif" font-size="10.00">alps_cmn/sensor/i_rotary</text>
<text text-anchor="middle" x="470.5" y="-119.5" font-family="Helvetica,sans-Serif" font-size="10.00">_sensor.hpp</text>
</a>
</g>
</g>
<!-- Node1&#45;&gt;Node7 -->
<g id="edge7" class="edge">
<title>Node1&#45;&gt;Node7</title>
<path fill="none" stroke="midnightblue" d="M277.21,-179.92C318.05,-169.06 368.72,-155.58 407.94,-145.14"/>
<polygon fill="midnightblue" stroke="midnightblue" points="408.89,-148.51 417.65,-142.56 407.09,-141.75 408.89,-148.51"/>
</g>
<!-- Node5 -->
<g id="node5" class="node">
<title>Node5</title>
<g id="a_node5"><a xlink:title=" ">
<polygon fill="white" stroke="#bfbfbf" points="263.5,-0.5 263.5,-19.5 313.5,-19.5 313.5,-0.5 263.5,-0.5"/>
<text text-anchor="middle" x="288.5" y="-7.5" font-family="Helvetica,sans-Serif" font-size="10.00">chrono</text>
</a>
</g>
</g>
<!-- Node4&#45;&gt;Node5 -->
<g id="edge4" class="edge">
<title>Node4&#45;&gt;Node5</title>
<path fill="none" stroke="midnightblue" d="M281.14,-117.7C272.79,-108.25 260.5,-92.38 255.5,-76 252.9,-67.5 252.73,-64.45 255.5,-56 258.99,-45.34 266.07,-35.12 272.79,-27.12"/>
<polygon fill="midnightblue" stroke="midnightblue" points="275.4,-29.44 279.48,-19.66 270.2,-24.76 275.4,-29.44"/>
</g>
<!-- Node6 -->
<g id="node6" class="node">
<title>Node6</title>
<g id="a_node6"><a xlink:href="duration_8hpp.html" target="_top" xlink:title="時間間隔の型エイリアス">
<polygon fill="white" stroke="black" points="265,-56.5 265,-75.5 418,-75.5 418,-56.5 265,-56.5"/>
<text text-anchor="middle" x="341.5" y="-63.5" font-family="Helvetica,sans-Serif" font-size="10.00">alps_cmn/time/duration.hpp</text>
</a>
</g>
</g>
<!-- Node4&#45;&gt;Node6 -->
<g id="edge5" class="edge">
<title>Node4&#45;&gt;Node6</title>
<path fill="none" stroke="midnightblue" d="M296.95,-117.98C304.83,-108.96 317.44,-94.52 327.24,-83.31"/>
<polygon fill="midnightblue" stroke="midnightblue" points="330.12,-85.34 334.06,-75.51 324.85,-80.74 330.12,-85.34"/>
</g>
<!-- Node6&#45;&gt;Node5 -->
<g id="edge6" class="edge">
<title>Node6&#45;&gt;Node5</title>
<path fill="none" stroke="midnightblue" d="M332.75,-56.08C325.03,-48.22 313.6,-36.57 304.28,-27.08"/>
<polygon fill="midnightblue" stroke="midnightblue" points="306.59,-24.44 297.09,-19.75 301.6,-29.34 306.59,-24.44"/>
</g>
</g>
</svg>
