<?xml version="1.0" encoding="UTF-8" standalone="no"?>
<!DOCTYPE svg PUBLIC "-//W3C//DTD SVG 1.1//EN"
 "http://www.w3.org/Graphics/SVG/1.1/DTD/svg11.dtd">
<!-- Generated by graphviz version 2.43.0 (0)
 -->
<!-- Title: alps_common_lib/include/alps_cmn/gpio/i_analog_in.hpp Pages: 1 -->
<svg width="354pt" height="126pt"
 viewBox="0.00 0.00 354.00 126.00" xmlns="http://www.w3.org/2000/svg" xmlns:xlink="http://www.w3.org/1999/xlink">
<g id="graph0" class="graph" transform="scale(1 1) rotate(0) translate(4 122)">
<title>alps_common_lib/include/alps_cmn/gpio/i_analog_in.hpp</title>
<!-- Node1 -->
<g id="node1" class="node">
<title>Node1</title>
<g id="a_node1"><a xlink:title="アナログ入力インタフェース">
<polygon fill="#999999" stroke="#666666" points="258.5,-118 118.5,-118 118.5,-77 258.5,-77 258.5,-118"/>
<text text-anchor="start" x="126.5" y="-106" font-family="Helvetica,sans-Serif" font-size="10.00">alps_common_lib/include</text>
<text text-anchor="start" x="126.5" y="-95" font-family="Helvetica,sans-Serif" font-size="10.00">/alps_cmn/gpio/i_analog</text>
<text text-anchor="middle" x="188.5" y="-84" font-family="Helvetica,sans-Serif" font-size="10.00">_in.hpp</text>
</a>
</g>
</g>
<!-- Node2 -->
<g id="node2" class="node">
<title>Node2</title>
<g id="a_node2"><a xlink:href="potentiometer_8hpp.html" target="_top" xlink:title="ポテンショメータのクラス">
<polygon fill="white" stroke="#666666" points="195,-35.5 0,-35.5 0,-5.5 195,-5.5 195,-35.5"/>
<text text-anchor="start" x="8" y="-23.5" font-family="Helvetica,sans-Serif" font-size="10.00">alps_common_lib/include</text>
<text text-anchor="middle" x="97.5" y="-12.5" font-family="Helvetica,sans-Serif" font-size="10.00">/alps_cmn/sensor/potentiometer.hpp</text>
</a>
</g>
</g>
<!-- Node1&#45;&gt;Node2 -->
<g id="edge1" class="edge">
<title>Node1&#45;&gt;Node2</title>
<path fill="none" stroke="#63b8ff" d="M156.55,-70.17C142.45,-58.55 126.43,-45.34 114.64,-35.63"/>
<polygon fill="#63b8ff" stroke="#63b8ff" points="154.65,-73.14 164.59,-76.79 159.1,-67.73 154.65,-73.14"/>
</g>
<!-- Node3 -->
<g id="node3" class="node">
<title>Node3</title>
<g id="a_node3"><a xlink:href="analog__in_8hpp.html" target="_top" xlink:title="アナログ入力ピン">
<polygon fill="white" stroke="#666666" points="346,-41 213,-41 213,0 346,0 346,-41"/>
<text text-anchor="start" x="221" y="-29" font-family="Helvetica,sans-Serif" font-size="10.00">alps_mbed_lib/include</text>
<text text-anchor="start" x="221" y="-18" font-family="Helvetica,sans-Serif" font-size="10.00">/alps_mbed/gpio/analog</text>
<text text-anchor="middle" x="279.5" y="-7" font-family="Helvetica,sans-Serif" font-size="10.00">_in.hpp</text>
</a>
</g>
</g>
<!-- Node1&#45;&gt;Node3 -->
<g id="edge2" class="edge">
<title>Node1&#45;&gt;Node3</title>
<path fill="none" stroke="#63b8ff" d="M220.23,-70.35C231.9,-60.73 244.9,-50.01 255.75,-41.07"/>
<polygon fill="#63b8ff" stroke="#63b8ff" points="217.9,-67.73 212.41,-76.79 222.35,-73.14 217.9,-67.73"/>
</g>
</g>
</svg>
