<?xml version="1.0" encoding="UTF-8" standalone="no"?>
<!DOCTYPE svg PUBLIC "-//W3C//DTD SVG 1.1//EN"
 "http://www.w3.org/Graphics/SVG/1.1/DTD/svg11.dtd">
<!-- Generated by graphviz version 2.43.0 (0)
 -->
<!-- Title: alps_common_lib/include/alps_cmn/gpio/i_analog_in.hpp Pages: 1 -->
<svg width="354pt" height="128pt"
 viewBox="0.00 0.00 353.50 128.00" xmlns="http://www.w3.org/2000/svg" xmlns:xlink="http://www.w3.org/1999/xlink">
<g id="graph0" class="graph" transform="scale(1 1) rotate(0) translate(4 124)">
<title>alps_common_lib/include/alps_cmn/gpio/i_analog_in.hpp</title>
<polygon fill="white" stroke="transparent" points="-4,4 -4,-124 349.5,-124 349.5,4 -4,4"/>
<!-- Node1 -->
<g id="node1" class="node">
<title>Node1</title>
<g id="a_node1"><a xlink:title="アナログ入力インタフェース">
<polygon fill="#bfbfbf" stroke="black" points="118,-78.5 118,-119.5 258,-119.5 258,-78.5 118,-78.5"/>
<text text-anchor="start" x="126" y="-107.5" font-family="Helvetica,sans-Serif" font-size="10.00">alps_common_lib/include</text>
<text text-anchor="start" x="126" y="-96.5" font-family="Helvetica,sans-Serif" font-size="10.00">/alps_cmn/gpio/i_analog</text>
<text text-anchor="middle" x="188" y="-85.5" font-family="Helvetica,sans-Serif" font-size="10.00">_in.hpp</text>
</a>
</g>
</g>
<!-- Node2 -->
<g id="node2" class="node">
<title>Node2</title>
<g id="a_node2"><a xlink:href="potentiometer_8hpp.html" target="_top" xlink:title="ポテンショメータのクラス">
<polygon fill="white" stroke="black" points="0,-6 0,-36 194,-36 194,-6 0,-6"/>
<text text-anchor="start" x="8" y="-24" font-family="Helvetica,sans-Serif" font-size="10.00">alps_common_lib/include</text>
<text text-anchor="middle" x="97" y="-13" font-family="Helvetica,sans-Serif" font-size="10.00">/alps_cmn/sensor/potentiometer.hpp</text>
</a>
</g>
</g>
<!-- Node1&#45;&gt;Node2 -->
<g id="edge1" class="edge">
<title>Node1&#45;&gt;Node2</title>
<path fill="none" stroke="midnightblue" d="M156.86,-71.99C142.52,-60.02 126.06,-46.27 114.03,-36.23"/>
<polygon fill="midnightblue" stroke="midnightblue" points="154.65,-74.7 164.57,-78.43 159.13,-69.33 154.65,-74.7"/>
</g>
<!-- Node3 -->
<g id="node3" class="node">
<title>Node3</title>
<g id="a_node3"><a xlink:href="analog__in_8hpp.html" target="_top" xlink:title="アナログ入力ピン">
<polygon fill="white" stroke="black" points="212.5,-0.5 212.5,-41.5 345.5,-41.5 345.5,-0.5 212.5,-0.5"/>
<text text-anchor="start" x="220.5" y="-29.5" font-family="Helvetica,sans-Serif" font-size="10.00">alps_mbed_lib/include</text>
<text text-anchor="start" x="220.5" y="-18.5" font-family="Helvetica,sans-Serif" font-size="10.00">/alps_mbed/gpio/analog</text>
<text text-anchor="middle" x="279" y="-7.5" font-family="Helvetica,sans-Serif" font-size="10.00">_in.hpp</text>
</a>
</g>
</g>
<!-- Node1&#45;&gt;Node3 -->
<g id="edge2" class="edge">
<title>Node1&#45;&gt;Node3</title>
<path fill="none" stroke="midnightblue" d="M219.4,-71.78C231.29,-61.84 244.62,-50.72 255.64,-41.51"/>
<polygon fill="midnightblue" stroke="midnightblue" points="216.87,-69.33 211.43,-78.43 221.35,-74.7 216.87,-69.33"/>
</g>
</g>
</svg>
