<?xml version="1.0" encoding="UTF-8" standalone="no"?>
<!DOCTYPE svg PUBLIC "-//W3C//DTD SVG 1.1//EN"
 "http://www.w3.org/Graphics/SVG/1.1/DTD/svg11.dtd">
<!-- Generated by graphviz version 2.43.0 (0)
 -->
<!-- Title: alps_core/lib_internal/alps_common_lib/include/alps_cmn/communication/i_can_io.hpp Pages: 1 -->
<svg width="156pt" height="184pt"
 viewBox="0.00 0.00 156.00 184.00" xmlns="http://www.w3.org/2000/svg" xmlns:xlink="http://www.w3.org/1999/xlink">
<g id="graph0" class="graph" transform="scale(1 1) rotate(0) translate(4 180)">
<title>alps_core/lib_internal/alps_common_lib/include/alps_cmn/communication/i_can_io.hpp</title>
<polygon fill="white" stroke="transparent" points="-4,4 -4,-180 152,-180 152,4 -4,4"/>
<!-- Node1 -->
<g id="node1" class="node">
<title>Node1</title>
<g id="a_node1"><a xlink:title=" ">
<polygon fill="#bfbfbf" stroke="black" points="0,-123.5 0,-175.5 145,-175.5 145,-123.5 0,-123.5"/>
<text text-anchor="start" x="8" y="-163.5" font-family="Helvetica,sans-Serif" font-size="10.00">alps_core/lib_internal</text>
<text text-anchor="start" x="8" y="-152.5" font-family="Helvetica,sans-Serif" font-size="10.00">/alps_common_lib/include</text>
<text text-anchor="start" x="8" y="-141.5" font-family="Helvetica,sans-Serif" font-size="10.00">/alps_cmn/communication</text>
<text text-anchor="middle" x="72.5" y="-130.5" font-family="Helvetica,sans-Serif" font-size="10.00">/i_can_io.hpp</text>
</a>
</g>
</g>
<!-- Node2 -->
<g id="node2" class="node">
<title>Node2</title>
<g id="a_node2"><a xlink:href="can__data__frame_8hpp.html" target="_top" xlink:title="CANフレームを表す構造体">
<polygon fill="white" stroke="black" points="1.5,-56.5 1.5,-86.5 143.5,-86.5 143.5,-56.5 1.5,-56.5"/>
<text text-anchor="start" x="9.5" y="-74.5" font-family="Helvetica,sans-Serif" font-size="10.00">alps_cmn/communication</text>
<text text-anchor="middle" x="72.5" y="-63.5" font-family="Helvetica,sans-Serif" font-size="10.00">/can_data_frame.hpp</text>
</a>
</g>
</g>
<!-- Node1&#45;&gt;Node2 -->
<g id="edge1" class="edge">
<title>Node1&#45;&gt;Node2</title>
<path fill="none" stroke="midnightblue" d="M72.5,-123.19C72.5,-114.79 72.5,-105.44 72.5,-97.09"/>
<polygon fill="midnightblue" stroke="midnightblue" points="76,-96.85 72.5,-86.85 69,-96.85 76,-96.85"/>
</g>
<!-- Node3 -->
<g id="node3" class="node">
<title>Node3</title>
<g id="a_node3"><a xlink:title=" ">
<polygon fill="white" stroke="#bfbfbf" points="6,-0.5 6,-19.5 59,-19.5 59,-0.5 6,-0.5"/>
<text text-anchor="middle" x="32.5" y="-7.5" font-family="Helvetica,sans-Serif" font-size="10.00">stdint.h</text>
</a>
</g>
</g>
<!-- Node2&#45;&gt;Node3 -->
<g id="edge2" class="edge">
<title>Node2&#45;&gt;Node3</title>
<path fill="none" stroke="midnightblue" d="M63.02,-56.4C57.33,-47.93 50.05,-37.1 44.02,-28.14"/>
<polygon fill="midnightblue" stroke="midnightblue" points="46.8,-26 38.32,-19.66 40.99,-29.91 46.8,-26"/>
</g>
<!-- Node4 -->
<g id="node4" class="node">
<title>Node4</title>
<g id="a_node4"><a xlink:title=" ">
<polygon fill="white" stroke="#bfbfbf" points="77,-0.5 77,-19.5 148,-19.5 148,-0.5 77,-0.5"/>
<text text-anchor="middle" x="112.5" y="-7.5" font-family="Helvetica,sans-Serif" font-size="10.00">etl/vector.h</text>
</a>
</g>
</g>
<!-- Node2&#45;&gt;Node4 -->
<g id="edge3" class="edge">
<title>Node2&#45;&gt;Node4</title>
<path fill="none" stroke="midnightblue" d="M81.98,-56.4C87.67,-47.93 94.95,-37.1 100.98,-28.14"/>
<polygon fill="midnightblue" stroke="midnightblue" points="104.01,-29.91 106.68,-19.66 98.2,-26 104.01,-29.91"/>
</g>
</g>
</svg>
