<?xml version="1.0" encoding="UTF-8" standalone="no"?>
<!DOCTYPE svg PUBLIC "-//W3C//DTD SVG 1.1//EN"
 "http://www.w3.org/Graphics/SVG/1.1/DTD/svg11.dtd">
<!-- Generated by graphviz version 2.43.0 (0)
 -->
<!-- Title: alps_common_lib/include/alps_cmn/communication/i_can_io.hpp Pages: 1 -->
<svg width="567pt" height="373pt"
 viewBox="0.00 0.00 566.50 373.00" xmlns="http://www.w3.org/2000/svg" xmlns:xlink="http://www.w3.org/1999/xlink">
<g id="graph0" class="graph" transform="scale(1 1) rotate(0) translate(4 369)">
<title>alps_common_lib/include/alps_cmn/communication/i_can_io.hpp</title>
<polygon fill="white" stroke="transparent" points="-4,4 -4,-369 562.5,-369 562.5,4 -4,4"/>
<!-- Node1 -->
<g id="node1" class="node">
<title>Node1</title>
<g id="a_node1"><a xlink:title=" ">
<polygon fill="#bfbfbf" stroke="black" points="248,-323.5 248,-364.5 393,-364.5 393,-323.5 248,-323.5"/>
<text text-anchor="start" x="256" y="-352.5" font-family="Helvetica,sans-Serif" font-size="10.00">alps_common_lib/include</text>
<text text-anchor="start" x="256" y="-341.5" font-family="Helvetica,sans-Serif" font-size="10.00">/alps_cmn/communication</text>
<text text-anchor="middle" x="320.5" y="-330.5" font-family="Helvetica,sans-Serif" font-size="10.00">/i_can_io.hpp</text>
</a>
</g>
</g>
<!-- Node2 -->
<g id="node2" class="node">
<title>Node2</title>
<g id="a_node2"><a xlink:href="can__callback__handler_8hpp.html" target="_top" xlink:title="CANデータフレームをコールバックで処理するためのライブラリ">
<polygon fill="white" stroke="black" points="89,-245.5 89,-286.5 234,-286.5 234,-245.5 89,-245.5"/>
<text text-anchor="start" x="97" y="-274.5" font-family="Helvetica,sans-Serif" font-size="10.00">alps_common_lib/include</text>
<text text-anchor="start" x="97" y="-263.5" font-family="Helvetica,sans-Serif" font-size="10.00">/alps_cmn/communication</text>
<text text-anchor="middle" x="161.5" y="-252.5" font-family="Helvetica,sans-Serif" font-size="10.00">/can_callback_handler.hpp</text>
</a>
</g>
</g>
<!-- Node1&#45;&gt;Node2 -->
<g id="edge1" class="edge">
<title>Node1&#45;&gt;Node2</title>
<path fill="none" stroke="midnightblue" d="M270.39,-319.05C248.46,-308.57 223.06,-296.42 202.31,-286.51"/>
<polygon fill="midnightblue" stroke="midnightblue" points="269.02,-322.27 279.55,-323.43 272.04,-315.96 269.02,-322.27"/>
</g>
<!-- Node7 -->
<g id="node7" class="node">
<title>Node7</title>
<g id="a_node7"><a xlink:href="socket__can__io_8hpp.html" target="_top" xlink:title=" ">
<polygon fill="white" stroke="black" points="252.5,-245.5 252.5,-286.5 388.5,-286.5 388.5,-245.5 252.5,-245.5"/>
<text text-anchor="start" x="260.5" y="-274.5" font-family="Helvetica,sans-Serif" font-size="10.00">alps_linux_lib/include</text>
<text text-anchor="start" x="260.5" y="-263.5" font-family="Helvetica,sans-Serif" font-size="10.00">/alps_lin/communication</text>
<text text-anchor="middle" x="320.5" y="-252.5" font-family="Helvetica,sans-Serif" font-size="10.00">/socket_can_io.hpp</text>
</a>
</g>
</g>
<!-- Node1&#45;&gt;Node7 -->
<g id="edge6" class="edge">
<title>Node1&#45;&gt;Node7</title>
<path fill="none" stroke="midnightblue" d="M320.5,-313.3C320.5,-304.3 320.5,-294.65 320.5,-286.51"/>
<polygon fill="midnightblue" stroke="midnightblue" points="317,-313.43 320.5,-323.43 324,-313.43 317,-313.43"/>
</g>
<!-- Node8 -->
<g id="node8" class="node">
<title>Node8</title>
<g id="a_node8"><a xlink:href="buffered__can__io_8hpp.html" target="_top" xlink:title="MbedのCAN通信IOクラス">
<polygon fill="white" stroke="black" points="406.5,-245.5 406.5,-286.5 558.5,-286.5 558.5,-245.5 406.5,-245.5"/>
<text text-anchor="start" x="414.5" y="-274.5" font-family="Helvetica,sans-Serif" font-size="10.00">alps_mbed_lib/include</text>
<text text-anchor="start" x="414.5" y="-263.5" font-family="Helvetica,sans-Serif" font-size="10.00">/alps_mbed/communication</text>
<text text-anchor="middle" x="482.5" y="-252.5" font-family="Helvetica,sans-Serif" font-size="10.00">/buffered_can_io.hpp</text>
</a>
</g>
</g>
<!-- Node1&#45;&gt;Node8 -->
<g id="edge7" class="edge">
<title>Node1&#45;&gt;Node8</title>
<path fill="none" stroke="midnightblue" d="M371.55,-319.05C393.9,-308.57 419.78,-296.42 440.92,-286.51"/>
<polygon fill="midnightblue" stroke="midnightblue" points="369.79,-316.01 362.22,-323.43 372.76,-322.35 369.79,-316.01"/>
</g>
<!-- Node3 -->
<g id="node3" class="node">
<title>Node3</title>
<g id="a_node3"><a xlink:href="can__typed__data__transceiver_8hpp.html" target="_top" xlink:title="CAN通信で型付けされたデータの送受信を行うライブラリ">
<polygon fill="white" stroke="black" points="73,-167.5 73,-208.5 250,-208.5 250,-167.5 73,-167.5"/>
<text text-anchor="start" x="81" y="-196.5" font-family="Helvetica,sans-Serif" font-size="10.00">alps_common_lib/include</text>
<text text-anchor="start" x="81" y="-185.5" font-family="Helvetica,sans-Serif" font-size="10.00">/alps_cmn/communication</text>
<text text-anchor="middle" x="161.5" y="-174.5" font-family="Helvetica,sans-Serif" font-size="10.00">/can_typed_data_transceiver.hpp</text>
</a>
</g>
</g>
<!-- Node2&#45;&gt;Node3 -->
<g id="edge2" class="edge">
<title>Node2&#45;&gt;Node3</title>
<path fill="none" stroke="midnightblue" d="M161.5,-235.3C161.5,-226.3 161.5,-216.65 161.5,-208.51"/>
<polygon fill="midnightblue" stroke="midnightblue" points="158,-235.43 161.5,-245.43 165,-235.43 158,-235.43"/>
</g>
<!-- Node4 -->
<g id="node4" class="node">
<title>Node4</title>
<g id="a_node4"><a xlink:href="robomas__motor_8hpp.html" target="_top" xlink:title="ロボマスモータのライブラリ">
<polygon fill="white" stroke="black" points="0,-89.5 0,-130.5 155,-130.5 155,-89.5 0,-89.5"/>
<text text-anchor="start" x="8" y="-118.5" font-family="Helvetica,sans-Serif" font-size="10.00">alps_common_lib/include</text>
<text text-anchor="start" x="8" y="-107.5" font-family="Helvetica,sans-Serif" font-size="10.00">/alps_cmn/actuator/robomas</text>
<text text-anchor="middle" x="77.5" y="-96.5" font-family="Helvetica,sans-Serif" font-size="10.00">_motor.hpp</text>
</a>
</g>
</g>
<!-- Node3&#45;&gt;Node4 -->
<g id="edge3" class="edge">
<title>Node3&#45;&gt;Node4</title>
<path fill="none" stroke="midnightblue" d="M132.2,-160.49C121.3,-150.63 109.14,-139.63 99.06,-130.51"/>
<polygon fill="midnightblue" stroke="midnightblue" points="130.1,-163.31 139.87,-167.43 134.8,-158.12 130.1,-163.31"/>
</g>
<!-- Node5 -->
<g id="node5" class="node">
<title>Node5</title>
<g id="a_node5"><a xlink:href="can__topic__converter_8hpp.html" target="_top" xlink:title=" ">
<polygon fill="white" stroke="black" points="173,-89.5 173,-130.5 318,-130.5 318,-89.5 173,-89.5"/>
<text text-anchor="start" x="181" y="-118.5" font-family="Helvetica,sans-Serif" font-size="10.00">alps_ros2_lib/include</text>
<text text-anchor="start" x="181" y="-107.5" font-family="Helvetica,sans-Serif" font-size="10.00">/alps_ros2/communication</text>
<text text-anchor="middle" x="245.5" y="-96.5" font-family="Helvetica,sans-Serif" font-size="10.00">/can_topic_converter.hpp</text>
</a>
</g>
</g>
<!-- Node3&#45;&gt;Node5 -->
<g id="edge4" class="edge">
<title>Node3&#45;&gt;Node5</title>
<path fill="none" stroke="midnightblue" d="M190.8,-160.49C201.7,-150.63 213.86,-139.63 223.94,-130.51"/>
<polygon fill="midnightblue" stroke="midnightblue" points="188.2,-158.12 183.13,-167.43 192.9,-163.31 188.2,-158.12"/>
</g>
<!-- Node6 -->
<g id="node6" class="node">
<title>Node6</title>
<g id="a_node6"><a xlink:href="custom__type__can__topic__conversion__rule_8hpp.html" target="_top" xlink:title=" ">
<polygon fill="white" stroke="black" points="149,-0.5 149,-52.5 342,-52.5 342,-0.5 149,-0.5"/>
<text text-anchor="start" x="157" y="-40.5" font-family="Helvetica,sans-Serif" font-size="10.00">alps_ros2_lib/include</text>
<text text-anchor="start" x="157" y="-29.5" font-family="Helvetica,sans-Serif" font-size="10.00">/alps_ros2/communication</text>
<text text-anchor="start" x="157" y="-18.5" font-family="Helvetica,sans-Serif" font-size="10.00">/custom_type_can_topic_conversion</text>
<text text-anchor="middle" x="245.5" y="-7.5" font-family="Helvetica,sans-Serif" font-size="10.00">_rule.hpp</text>
</a>
</g>
</g>
<!-- Node5&#45;&gt;Node6 -->
<g id="edge5" class="edge">
<title>Node5&#45;&gt;Node6</title>
<path fill="none" stroke="midnightblue" d="M245.5,-79.12C245.5,-70.41 245.5,-60.99 245.5,-52.61"/>
<polygon fill="midnightblue" stroke="midnightblue" points="242,-79.27 245.5,-89.27 249,-79.27 242,-79.27"/>
</g>
</g>
</svg>
