<?xml version="1.0" encoding="UTF-8" standalone="no"?>
<!DOCTYPE svg PUBLIC "-//W3C//DTD SVG 1.1//EN"
 "http://www.w3.org/Graphics/SVG/1.1/DTD/svg11.dtd">
<!-- Generated by graphviz version 2.43.0 (0)
 -->
<!-- Title: alps_common_lib/include/alps_cmn/communication/i_can_io.hpp Pages: 1 -->
<svg width="494pt" height="280pt"
 viewBox="0.00 0.00 494.00 280.00" xmlns="http://www.w3.org/2000/svg" xmlns:xlink="http://www.w3.org/1999/xlink">
<g id="graph0" class="graph" transform="scale(1 1) rotate(0) translate(4 276)">
<title>alps_common_lib/include/alps_cmn/communication/i_can_io.hpp</title>
<!-- Node1 -->
<g id="node1" class="node">
<title>Node1</title>
<g id="a_node1"><a xlink:title=" ">
<polygon fill="#999999" stroke="#666666" points="320.5,-272 175.5,-272 175.5,-231 320.5,-231 320.5,-272"/>
<text text-anchor="start" x="183.5" y="-260" font-family="Helvetica,sans-Serif" font-size="10.00">alps_common_lib/include</text>
<text text-anchor="start" x="183.5" y="-249" font-family="Helvetica,sans-Serif" font-size="10.00">/alps_cmn/communication</text>
<text text-anchor="middle" x="248" y="-238" font-family="Helvetica,sans-Serif" font-size="10.00">/i_can_io.hpp</text>
</a>
</g>
</g>
<!-- Node2 -->
<g id="node2" class="node">
<title>Node2</title>
<g id="a_node2"><a xlink:href="can__callback__handler_8hpp.html" target="_top" xlink:title="CANデータフレームをコールバックで処理するためのライブラリ">
<polygon fill="white" stroke="#666666" points="162,-195 16,-195 16,-154 162,-154 162,-195"/>
<text text-anchor="start" x="24" y="-183" font-family="Helvetica,sans-Serif" font-size="10.00">alps_common_lib/include</text>
<text text-anchor="start" x="24" y="-172" font-family="Helvetica,sans-Serif" font-size="10.00">/alps_cmn/communication</text>
<text text-anchor="middle" x="89" y="-161" font-family="Helvetica,sans-Serif" font-size="10.00">/can_callback_handler.hpp</text>
</a>
</g>
</g>
<!-- Node1&#45;&gt;Node2 -->
<g id="edge1" class="edge">
<title>Node1&#45;&gt;Node2</title>
<path fill="none" stroke="#63b8ff" d="M197.59,-226.72C175.95,-216.51 150.97,-204.73 130.43,-195.04"/>
<polygon fill="#63b8ff" stroke="#63b8ff" points="196.1,-229.89 206.64,-230.99 199.09,-223.56 196.1,-229.89"/>
</g>
<!-- Node5 -->
<g id="node5" class="node">
<title>Node5</title>
<g id="a_node5"><a xlink:href="socket__can__io_8hpp.html" target="_top" xlink:title=" ">
<polygon fill="white" stroke="#666666" points="316,-195 180,-195 180,-154 316,-154 316,-195"/>
<text text-anchor="start" x="188" y="-183" font-family="Helvetica,sans-Serif" font-size="10.00">alps_linux_lib/include</text>
<text text-anchor="start" x="188" y="-172" font-family="Helvetica,sans-Serif" font-size="10.00">/alps_lin/communication</text>
<text text-anchor="middle" x="248" y="-161" font-family="Helvetica,sans-Serif" font-size="10.00">/socket_can_io.hpp</text>
</a>
</g>
</g>
<!-- Node1&#45;&gt;Node5 -->
<g id="edge4" class="edge">
<title>Node1&#45;&gt;Node5</title>
<path fill="none" stroke="#63b8ff" d="M248,-220.69C248,-212.08 248,-202.9 248,-195.07"/>
<polygon fill="#63b8ff" stroke="#63b8ff" points="244.5,-220.79 248,-230.79 251.5,-220.79 244.5,-220.79"/>
</g>
<!-- Node6 -->
<g id="node6" class="node">
<title>Node6</title>
<g id="a_node6"><a xlink:href="buffered__can__io_8hpp.html" target="_top" xlink:title="MbedのCAN通信IOクラス">
<polygon fill="white" stroke="#666666" points="486,-195 334,-195 334,-154 486,-154 486,-195"/>
<text text-anchor="start" x="342" y="-183" font-family="Helvetica,sans-Serif" font-size="10.00">alps_mbed_lib/include</text>
<text text-anchor="start" x="342" y="-172" font-family="Helvetica,sans-Serif" font-size="10.00">/alps_mbed/communication</text>
<text text-anchor="middle" x="410" y="-161" font-family="Helvetica,sans-Serif" font-size="10.00">/buffered_can_io.hpp</text>
</a>
</g>
</g>
<!-- Node1&#45;&gt;Node6 -->
<g id="edge5" class="edge">
<title>Node1&#45;&gt;Node6</title>
<path fill="none" stroke="#63b8ff" d="M299.36,-226.72C321.41,-216.51 346.86,-204.73 367.79,-195.04"/>
<polygon fill="#63b8ff" stroke="#63b8ff" points="297.74,-223.61 290.14,-230.99 300.69,-229.97 297.74,-223.61"/>
</g>
<!-- Node3 -->
<g id="node3" class="node">
<title>Node3</title>
<g id="a_node3"><a xlink:href="can__typed__data__transceiver_8hpp.html" target="_top" xlink:title="CAN通信で型付けされたデータの送受信を行うライブラリ">
<polygon fill="white" stroke="#666666" points="178,-118 0,-118 0,-77 178,-77 178,-118"/>
<text text-anchor="start" x="8" y="-106" font-family="Helvetica,sans-Serif" font-size="10.00">alps_common_lib/include</text>
<text text-anchor="start" x="8" y="-95" font-family="Helvetica,sans-Serif" font-size="10.00">/alps_cmn/communication</text>
<text text-anchor="middle" x="89" y="-84" font-family="Helvetica,sans-Serif" font-size="10.00">/can_typed_data_transceiver.hpp</text>
</a>
</g>
</g>
<!-- Node2&#45;&gt;Node3 -->
<g id="edge2" class="edge">
<title>Node2&#45;&gt;Node3</title>
<path fill="none" stroke="#63b8ff" d="M89,-143.69C89,-135.08 89,-125.9 89,-118.07"/>
<polygon fill="#63b8ff" stroke="#63b8ff" points="85.5,-143.79 89,-153.79 92.5,-143.79 85.5,-143.79"/>
</g>
<!-- Node4 -->
<g id="node4" class="node">
<title>Node4</title>
<g id="a_node4"><a xlink:href="robomas__motors__can__controller_8hpp.html" target="_top" xlink:title=" ">
<polygon fill="white" stroke="#666666" points="166.5,-41 11.5,-41 11.5,0 166.5,0 166.5,-41"/>
<text text-anchor="start" x="19.5" y="-29" font-family="Helvetica,sans-Serif" font-size="10.00">alps_common_lib/include</text>
<text text-anchor="start" x="19.5" y="-18" font-family="Helvetica,sans-Serif" font-size="10.00">/alps_cmn/actuator/robomas</text>
<text text-anchor="middle" x="89" y="-7" font-family="Helvetica,sans-Serif" font-size="10.00">_motors_can_controller.hpp</text>
</a>
</g>
</g>
<!-- Node3&#45;&gt;Node4 -->
<g id="edge3" class="edge">
<title>Node3&#45;&gt;Node4</title>
<path fill="none" stroke="#63b8ff" d="M89,-66.69C89,-58.08 89,-48.9 89,-41.07"/>
<polygon fill="#63b8ff" stroke="#63b8ff" points="85.5,-66.79 89,-76.79 92.5,-66.79 85.5,-66.79"/>
</g>
</g>
</svg>
