<?xml version="1.0" encoding="UTF-8" standalone="no"?>
<!DOCTYPE svg PUBLIC "-//W3C//DTD SVG 1.1//EN"
 "http://www.w3.org/Graphics/SVG/1.1/DTD/svg11.dtd">
<!-- Generated by graphviz version 2.43.0 (0)
 -->
<!-- Title: roblab_common_lib/include/roblab_common/gpio/i_digital_write.hpp Pages: 1 -->
<svg width="318pt" height="203pt"
 viewBox="0.00 0.00 318.00 203.00" xmlns="http://www.w3.org/2000/svg" xmlns:xlink="http://www.w3.org/1999/xlink">
<g id="graph0" class="graph" transform="scale(1 1) rotate(0) translate(4 199)">
<title>roblab_common_lib/include/roblab_common/gpio/i_digital_write.hpp</title>
<!-- Node1 -->
<g id="node1" class="node">
<title>Node1</title>
<g id="a_node1"><a xlink:title=" ">
<polygon fill="#999999" stroke="#666666" points="239.5,-195 75.5,-195 75.5,-154 239.5,-154 239.5,-195"/>
<text text-anchor="start" x="83.5" y="-183" font-family="Helvetica,sans-Serif" font-size="10.00">roblab_common_lib/include</text>
<text text-anchor="start" x="83.5" y="-172" font-family="Helvetica,sans-Serif" font-size="10.00">/roblab_common/gpio/i_digital</text>
<text text-anchor="middle" x="157.5" y="-161" font-family="Helvetica,sans-Serif" font-size="10.00">_write.hpp</text>
</a>
</g>
</g>
<!-- Node2 -->
<g id="node2" class="node">
<title>Node2</title>
<g id="a_node2"><a xlink:href="dc__motor__base_8hpp.html" target="_top" xlink:title=" ">
<polygon fill="white" stroke="#666666" points="151,-118 0,-118 0,-77 151,-77 151,-118"/>
<text text-anchor="start" x="8" y="-106" font-family="Helvetica,sans-Serif" font-size="10.00">roblab_common_lib/include</text>
<text text-anchor="start" x="8" y="-95" font-family="Helvetica,sans-Serif" font-size="10.00">/roblab_common/actuator</text>
<text text-anchor="middle" x="75.5" y="-84" font-family="Helvetica,sans-Serif" font-size="10.00">/dc_motor_base.hpp</text>
</a>
</g>
</g>
<!-- Node1&#45;&gt;Node2 -->
<g id="edge1" class="edge">
<title>Node1&#45;&gt;Node2</title>
<path fill="none" stroke="#63b8ff" d="M128.3,-146.79C117.94,-137.32 106.49,-126.84 96.9,-118.07"/>
<polygon fill="#63b8ff" stroke="#63b8ff" points="126.21,-149.63 135.96,-153.79 130.94,-144.46 126.21,-149.63"/>
</g>
<!-- Node4 -->
<g id="node4" class="node">
<title>Node4</title>
<g id="a_node4"><a xlink:href="digital__out_8hpp.html" target="_top" xlink:title=" ">
<polygon fill="white" stroke="#666666" points="310,-118 169,-118 169,-77 310,-77 310,-118"/>
<text text-anchor="start" x="177" y="-106" font-family="Helvetica,sans-Serif" font-size="10.00">roblab_mbed_lib/include</text>
<text text-anchor="start" x="177" y="-95" font-family="Helvetica,sans-Serif" font-size="10.00">/roblab_mbed/gpio/digital</text>
<text text-anchor="middle" x="239.5" y="-84" font-family="Helvetica,sans-Serif" font-size="10.00">_out.hpp</text>
</a>
</g>
</g>
<!-- Node1&#45;&gt;Node4 -->
<g id="edge3" class="edge">
<title>Node1&#45;&gt;Node4</title>
<path fill="none" stroke="#63b8ff" d="M186.7,-146.79C197.06,-137.32 208.51,-126.84 218.1,-118.07"/>
<polygon fill="#63b8ff" stroke="#63b8ff" points="184.06,-144.46 179.04,-153.79 188.79,-149.63 184.06,-144.46"/>
</g>
<!-- Node3 -->
<g id="node3" class="node">
<title>Node3</title>
<g id="a_node3"><a xlink:href="dc__motor_8hpp.html" target="_top" xlink:title=" ">
<polygon fill="white" stroke="#666666" points="225.5,-41 89.5,-41 89.5,0 225.5,0 225.5,-41"/>
<text text-anchor="start" x="97.5" y="-29" font-family="Helvetica,sans-Serif" font-size="10.00">roblab_mbed_lib/include</text>
<text text-anchor="start" x="97.5" y="-18" font-family="Helvetica,sans-Serif" font-size="10.00">/roblab_mbed/actuator</text>
<text text-anchor="middle" x="157.5" y="-7" font-family="Helvetica,sans-Serif" font-size="10.00">/dc_motor.hpp</text>
</a>
</g>
</g>
<!-- Node2&#45;&gt;Node3 -->
<g id="edge2" class="edge">
<title>Node2&#45;&gt;Node3</title>
<path fill="none" stroke="#63b8ff" d="M104.7,-69.79C115.06,-60.32 126.51,-49.84 136.1,-41.07"/>
<polygon fill="#63b8ff" stroke="#63b8ff" points="102.06,-67.46 97.04,-76.79 106.79,-72.63 102.06,-67.46"/>
</g>
<!-- Node4&#45;&gt;Node3 -->
<g id="edge4" class="edge">
<title>Node4&#45;&gt;Node3</title>
<path fill="none" stroke="#63b8ff" d="M210.3,-69.79C199.94,-60.32 188.49,-49.84 178.9,-41.07"/>
<polygon fill="#63b8ff" stroke="#63b8ff" points="208.21,-72.63 217.96,-76.79 212.94,-67.46 208.21,-72.63"/>
</g>
</g>
</svg>
