<?xml version="1.0" encoding="UTF-8" standalone="no"?>
<!DOCTYPE svg PUBLIC "-//W3C//DTD SVG 1.1//EN"
 "http://www.w3.org/Graphics/SVG/1.1/DTD/svg11.dtd">
<!-- Generated by graphviz version 2.43.0 (0)
 -->
<!-- Title: roblab_common_lib/include/roblab_common/gpio/i_digital_read.hpp Pages: 1 -->
<svg width="533pt" height="203pt"
 viewBox="0.00 0.00 532.50 203.00" xmlns="http://www.w3.org/2000/svg" xmlns:xlink="http://www.w3.org/1999/xlink">
<g id="graph0" class="graph" transform="scale(1 1) rotate(0) translate(4 199)">
<title>roblab_common_lib/include/roblab_common/gpio/i_digital_read.hpp</title>
<!-- Node1 -->
<g id="node1" class="node">
<title>Node1</title>
<g id="a_node1"><a xlink:title=" ">
<polygon fill="#999999" stroke="#666666" points="365.5,-195 201.5,-195 201.5,-154 365.5,-154 365.5,-195"/>
<text text-anchor="start" x="209.5" y="-183" font-family="Helvetica,sans-Serif" font-size="10.00">roblab_common_lib/include</text>
<text text-anchor="start" x="209.5" y="-172" font-family="Helvetica,sans-Serif" font-size="10.00">/roblab_common/gpio/i_digital</text>
<text text-anchor="middle" x="283.5" y="-161" font-family="Helvetica,sans-Serif" font-size="10.00">_read.hpp</text>
</a>
</g>
</g>
<!-- Node2 -->
<g id="node2" class="node">
<title>Node2</title>
<g id="a_node2"><a xlink:href="incremental__encoder__base_8hpp.html" target="_top" xlink:title=" ">
<polygon fill="white" stroke="#666666" points="195,-118 0,-118 0,-77 195,-77 195,-118"/>
<text text-anchor="start" x="8" y="-106" font-family="Helvetica,sans-Serif" font-size="10.00">roblab_common_lib/include</text>
<text text-anchor="start" x="8" y="-95" font-family="Helvetica,sans-Serif" font-size="10.00">/roblab_common/sensor/incremental</text>
<text text-anchor="middle" x="97.5" y="-84" font-family="Helvetica,sans-Serif" font-size="10.00">_encoder_base.hpp</text>
</a>
</g>
</g>
<!-- Node1&#45;&gt;Node2 -->
<g id="edge1" class="edge">
<title>Node1&#45;&gt;Node2</title>
<path fill="none" stroke="#63b8ff" d="M225.55,-150.13C200,-139.83 170.31,-127.86 145.96,-118.04"/>
<polygon fill="#63b8ff" stroke="#63b8ff" points="224.53,-153.5 235.12,-153.99 227.15,-147 224.53,-153.5"/>
</g>
<!-- Node4 -->
<g id="node4" class="node">
<title>Node4</title>
<g id="a_node4"><a xlink:href="digital__in_8hpp.html" target="_top" xlink:title=" ">
<polygon fill="white" stroke="#666666" points="354,-118 213,-118 213,-77 354,-77 354,-118"/>
<text text-anchor="start" x="221" y="-106" font-family="Helvetica,sans-Serif" font-size="10.00">roblab_mbed_lib/include</text>
<text text-anchor="start" x="221" y="-95" font-family="Helvetica,sans-Serif" font-size="10.00">/roblab_mbed/gpio/digital</text>
<text text-anchor="middle" x="283.5" y="-84" font-family="Helvetica,sans-Serif" font-size="10.00">_in.hpp</text>
</a>
</g>
</g>
<!-- Node1&#45;&gt;Node4 -->
<g id="edge3" class="edge">
<title>Node1&#45;&gt;Node4</title>
<path fill="none" stroke="#63b8ff" d="M283.5,-143.69C283.5,-135.08 283.5,-125.9 283.5,-118.07"/>
<polygon fill="#63b8ff" stroke="#63b8ff" points="280,-143.79 283.5,-153.79 287,-143.79 280,-143.79"/>
</g>
<!-- Node5 -->
<g id="node5" class="node">
<title>Node5</title>
<g id="a_node5"><a xlink:href="interrupt__in_8hpp.html" target="_top" xlink:title=" ">
<polygon fill="white" stroke="#666666" points="524.5,-118 372.5,-118 372.5,-77 524.5,-77 524.5,-118"/>
<text text-anchor="start" x="380.5" y="-106" font-family="Helvetica,sans-Serif" font-size="10.00">roblab_mbed_lib/include</text>
<text text-anchor="start" x="380.5" y="-95" font-family="Helvetica,sans-Serif" font-size="10.00">/roblab_mbed/gpio/interrupt</text>
<text text-anchor="middle" x="448.5" y="-84" font-family="Helvetica,sans-Serif" font-size="10.00">_in.hpp</text>
</a>
</g>
</g>
<!-- Node1&#45;&gt;Node5 -->
<g id="edge5" class="edge">
<title>Node1&#45;&gt;Node5</title>
<path fill="none" stroke="#63b8ff" d="M335.81,-149.72C358.27,-139.51 384.19,-127.73 405.51,-118.04"/>
<polygon fill="#63b8ff" stroke="#63b8ff" points="334.08,-146.67 326.42,-153.99 336.97,-153.04 334.08,-146.67"/>
</g>
<!-- Node3 -->
<g id="node3" class="node">
<title>Node3</title>
<g id="a_node3"><a xlink:href="incremental__encoder_8hpp.html" target="_top" xlink:title=" ">
<polygon fill="white" stroke="#666666" points="373.5,-41 193.5,-41 193.5,0 373.5,0 373.5,-41"/>
<text text-anchor="start" x="201.5" y="-29" font-family="Helvetica,sans-Serif" font-size="10.00">roblab_mbed_lib/include</text>
<text text-anchor="start" x="201.5" y="-18" font-family="Helvetica,sans-Serif" font-size="10.00">/roblab_mbed/sensor/incremental</text>
<text text-anchor="middle" x="283.5" y="-7" font-family="Helvetica,sans-Serif" font-size="10.00">_encoder.hpp</text>
</a>
</g>
</g>
<!-- Node2&#45;&gt;Node3 -->
<g id="edge2" class="edge">
<title>Node2&#45;&gt;Node3</title>
<path fill="none" stroke="#63b8ff" d="M155.45,-73.13C181,-62.83 210.69,-50.86 235.04,-41.04"/>
<polygon fill="#63b8ff" stroke="#63b8ff" points="153.85,-70 145.88,-76.99 156.47,-76.5 153.85,-70"/>
</g>
<!-- Node4&#45;&gt;Node3 -->
<g id="edge4" class="edge">
<title>Node4&#45;&gt;Node3</title>
<path fill="none" stroke="#63b8ff" d="M283.5,-66.69C283.5,-58.08 283.5,-48.9 283.5,-41.07"/>
<polygon fill="#63b8ff" stroke="#63b8ff" points="280,-66.79 283.5,-76.79 287,-66.79 280,-66.79"/>
</g>
<!-- Node5&#45;&gt;Node3 -->
<g id="edge6" class="edge">
<title>Node5&#45;&gt;Node3</title>
<path fill="none" stroke="#63b8ff" d="M396.19,-72.72C373.73,-62.51 347.81,-50.73 326.49,-41.04"/>
<polygon fill="#63b8ff" stroke="#63b8ff" points="395.03,-76.04 405.58,-76.99 397.92,-69.67 395.03,-76.04"/>
</g>
</g>
</svg>
