<?xml version="1.0" encoding="UTF-8" standalone="no"?>
<!DOCTYPE svg PUBLIC "-//W3C//DTD SVG 1.1//EN"
 "http://www.w3.org/Graphics/SVG/1.1/DTD/svg11.dtd">
<!-- Generated by graphviz version 2.43.0 (0)
 -->
<!-- Title: alps_core/lib_internal/alps_common_lib/include/alps_cmn/communication/i_i2c_io.hpp Pages: 1 -->
<svg width="887pt" height="148pt"
 viewBox="0.00 0.00 886.50 148.00" xmlns="http://www.w3.org/2000/svg" xmlns:xlink="http://www.w3.org/1999/xlink">
<g id="graph0" class="graph" transform="scale(1 1) rotate(0) translate(4 144)">
<title>alps_core/lib_internal/alps_common_lib/include/alps_cmn/communication/i_i2c_io.hpp</title>
<!-- Node1 -->
<g id="Node000001" class="node">
<title>Node1</title>
<g id="a_Node000001"><a xlink:title="I2C通信インタフェース">
<polygon fill="#999999" stroke="#666666" points="516,-140 371,-140 371,-88 516,-88 516,-140"/>
<text text-anchor="start" x="379" y="-128" font-family="Helvetica,sans-Serif" font-size="10.00">alps_core/lib_internal</text>
<text text-anchor="start" x="379" y="-117" font-family="Helvetica,sans-Serif" font-size="10.00">/alps_common_lib/include</text>
<text text-anchor="start" x="379" y="-106" font-family="Helvetica,sans-Serif" font-size="10.00">/alps_cmn/communication</text>
<text text-anchor="middle" x="443.5" y="-95" font-family="Helvetica,sans-Serif" font-size="10.00">/i_i2c_io.hpp</text>
</a>
</g>
</g>
<!-- Node2 -->
<g id="Node000002" class="node">
<title>Node2</title>
<g id="a_Node000002"><a xlink:href="bno055_8hpp.html" target="_top" xlink:title="BNO055 9軸センサ">
<polygon fill="white" stroke="#666666" points="161,-46.5 0,-46.5 0,-5.5 161,-5.5 161,-46.5"/>
<text text-anchor="start" x="8" y="-34.5" font-family="Helvetica,sans-Serif" font-size="10.00">alps_core/lib_internal</text>
<text text-anchor="start" x="8" y="-23.5" font-family="Helvetica,sans-Serif" font-size="10.00">/alps_common_lib/include</text>
<text text-anchor="middle" x="80.5" y="-12.5" font-family="Helvetica,sans-Serif" font-size="10.00">/alps_cmn/sensor/bno055.hpp</text>
</a>
</g>
</g>
<!-- Node1&#45;&gt;Node2 -->
<g id="edge1_Node000001_Node000002" class="edge">
<title>Node1&#45;&gt;Node2</title>
<g id="a_edge1_Node000001_Node000002"><a xlink:title=" ">
<path fill="none" stroke="#63b8ff" d="M360.88,-95.84C306.36,-84.21 233.46,-68.09 169.5,-52 162.81,-50.32 155.85,-48.49 148.91,-46.62"/>
<polygon fill="#63b8ff" stroke="#63b8ff" points="360.34,-99.3 370.84,-97.96 361.79,-92.46 360.34,-99.3"/>
</a>
</g>
</g>
<!-- Node3 -->
<g id="Node000003" class="node">
<title>Node3</title>
<g id="a_Node000003"><a xlink:href="s11059_8hpp.html" target="_top" xlink:title="S11059&#45;02DTカラーセンサー用のライブラリ">
<polygon fill="white" stroke="#666666" points="340,-46.5 179,-46.5 179,-5.5 340,-5.5 340,-46.5"/>
<text text-anchor="start" x="187" y="-34.5" font-family="Helvetica,sans-Serif" font-size="10.00">alps_core/lib_internal</text>
<text text-anchor="start" x="187" y="-23.5" font-family="Helvetica,sans-Serif" font-size="10.00">/alps_common_lib/include</text>
<text text-anchor="middle" x="259.5" y="-12.5" font-family="Helvetica,sans-Serif" font-size="10.00">/alps_cmn/sensor/s11059.hpp</text>
</a>
</g>
</g>
<!-- Node1&#45;&gt;Node3 -->
<g id="edge2_Node000001_Node000003" class="edge">
<title>Node1&#45;&gt;Node3</title>
<g id="a_edge2_Node000001_Node000003"><a xlink:title=" ">
<path fill="none" stroke="#63b8ff" d="M380.68,-83.64C354.47,-71.39 324.74,-57.49 301.29,-46.53"/>
<polygon fill="#63b8ff" stroke="#63b8ff" points="379.24,-86.83 389.78,-87.89 382.21,-80.49 379.24,-86.83"/>
</a>
</g>
</g>
<!-- Node4 -->
<g id="Node000004" class="node">
<title>Node4</title>
<g id="a_Node000004"><a xlink:href="tcs34725_8hpp.html" target="_top" xlink:title="カラーセンサーTCS34725のクラス">
<polygon fill="white" stroke="#666666" points="528.5,-46.5 358.5,-46.5 358.5,-5.5 528.5,-5.5 528.5,-46.5"/>
<text text-anchor="start" x="366.5" y="-34.5" font-family="Helvetica,sans-Serif" font-size="10.00">alps_core/lib_internal</text>
<text text-anchor="start" x="366.5" y="-23.5" font-family="Helvetica,sans-Serif" font-size="10.00">/alps_common_lib/include</text>
<text text-anchor="middle" x="443.5" y="-12.5" font-family="Helvetica,sans-Serif" font-size="10.00">/alps_cmn/sensor/tcs34725.hpp</text>
</a>
</g>
</g>
<!-- Node1&#45;&gt;Node4 -->
<g id="edge3_Node000001_Node000004" class="edge">
<title>Node1&#45;&gt;Node4</title>
<g id="a_edge3_Node000001_Node000004"><a xlink:title=" ">
<path fill="none" stroke="#63b8ff" d="M443.5,-77.45C443.5,-66.94 443.5,-55.82 443.5,-46.7"/>
<polygon fill="#63b8ff" stroke="#63b8ff" points="440,-77.66 443.5,-87.66 447,-77.66 440,-77.66"/>
</a>
</g>
</g>
<!-- Node5 -->
<g id="Node000005" class="node">
<title>Node5</title>
<g id="a_Node000005"><a xlink:href="vl53l0x_8hpp.html" target="_top" xlink:title="VL53L0X 距離センサ">
<polygon fill="white" stroke="#666666" points="708,-46.5 547,-46.5 547,-5.5 708,-5.5 708,-46.5"/>
<text text-anchor="start" x="555" y="-34.5" font-family="Helvetica,sans-Serif" font-size="10.00">alps_core/lib_internal</text>
<text text-anchor="start" x="555" y="-23.5" font-family="Helvetica,sans-Serif" font-size="10.00">/alps_common_lib/include</text>
<text text-anchor="middle" x="627.5" y="-12.5" font-family="Helvetica,sans-Serif" font-size="10.00">/alps_cmn/sensor/vl53l0x.hpp</text>
</a>
</g>
</g>
<!-- Node1&#45;&gt;Node5 -->
<g id="edge4_Node000001_Node000005" class="edge">
<title>Node1&#45;&gt;Node5</title>
<g id="a_edge4_Node000001_Node000005"><a xlink:title=" ">
<path fill="none" stroke="#63b8ff" d="M506.32,-83.64C532.53,-71.39 562.26,-57.49 585.71,-46.53"/>
<polygon fill="#63b8ff" stroke="#63b8ff" points="504.79,-80.49 497.22,-87.89 507.76,-86.83 504.79,-80.49"/>
</a>
</g>
</g>
<!-- Node6 -->
<g id="Node000006" class="node">
<title>Node6</title>
<g id="a_Node000006"><a xlink:href="i2c__io_8hpp.html" target="_top" xlink:title="I2C通信インタフェース">
<polygon fill="white" stroke="#666666" points="878.5,-52 726.5,-52 726.5,0 878.5,0 878.5,-52"/>
<text text-anchor="start" x="734.5" y="-40" font-family="Helvetica,sans-Serif" font-size="10.00">alps_core/lib_internal</text>
<text text-anchor="start" x="734.5" y="-29" font-family="Helvetica,sans-Serif" font-size="10.00">/alps_mbed_lib/include</text>
<text text-anchor="start" x="734.5" y="-18" font-family="Helvetica,sans-Serif" font-size="10.00">/alps_mbed/communication</text>
<text text-anchor="middle" x="802.5" y="-7" font-family="Helvetica,sans-Serif" font-size="10.00">/i2c_io.hpp</text>
</a>
</g>
</g>
<!-- Node1&#45;&gt;Node6 -->
<g id="edge5_Node000001_Node000006" class="edge">
<title>Node1&#45;&gt;Node6</title>
<g id="a_edge5_Node000001_Node000006"><a xlink:title=" ">
<path fill="none" stroke="#63b8ff" d="M526.18,-96.1C580.73,-84.58 653.64,-68.48 717.5,-52 720.33,-51.27 723.21,-50.51 726.11,-49.73"/>
<polygon fill="#63b8ff" stroke="#63b8ff" points="525.28,-92.71 516.22,-98.2 526.72,-99.56 525.28,-92.71"/>
</a>
</g>
</g>
</g>
</svg>
