<?xml version="1.0" encoding="UTF-8" standalone="no"?>
<!DOCTYPE svg PUBLIC "-//W3C//DTD SVG 1.1//EN"
 "http://www.w3.org/Graphics/SVG/1.1/DTD/svg11.dtd">
<!-- Generated by graphviz version 2.43.0 (0)
 -->
<!-- Title: alps_common_lib/include/alps_cmn/gpio/i_interrupt_in.hpp Pages: 1 -->
<svg width="332pt" height="206pt"
 viewBox="0.00 0.00 331.50 206.00" xmlns="http://www.w3.org/2000/svg" xmlns:xlink="http://www.w3.org/1999/xlink">
<g id="graph0" class="graph" transform="scale(1 1) rotate(0) translate(4 202)">
<title>alps_common_lib/include/alps_cmn/gpio/i_interrupt_in.hpp</title>
<polygon fill="white" stroke="transparent" points="-4,4 -4,-202 327.5,-202 327.5,4 -4,4"/>
<!-- Node1 -->
<g id="node1" class="node">
<title>Node1</title>
<g id="a_node1"><a xlink:title=" ">
<polygon fill="#bfbfbf" stroke="black" points="95,-156.5 95,-197.5 238,-197.5 238,-156.5 95,-156.5"/>
<text text-anchor="start" x="103" y="-185.5" font-family="Helvetica,sans-Serif" font-size="10.00">alps_common_lib/include</text>
<text text-anchor="start" x="103" y="-174.5" font-family="Helvetica,sans-Serif" font-size="10.00">/alps_cmn/gpio/i_interrupt</text>
<text text-anchor="middle" x="166.5" y="-163.5" font-family="Helvetica,sans-Serif" font-size="10.00">_in.hpp</text>
</a>
</g>
</g>
<!-- Node2 -->
<g id="node2" class="node">
<title>Node2</title>
<g id="a_node2"><a xlink:href="alps__common__lib_2include_2alps__cmn_2sensor_2incremental__encoder_8hpp.html" target="_top" xlink:title=" ">
<polygon fill="white" stroke="black" points="0,-78.5 0,-119.5 163,-119.5 163,-78.5 0,-78.5"/>
<text text-anchor="start" x="8" y="-107.5" font-family="Helvetica,sans-Serif" font-size="10.00">alps_common_lib/include</text>
<text text-anchor="start" x="8" y="-96.5" font-family="Helvetica,sans-Serif" font-size="10.00">/alps_cmn/sensor/incremental</text>
<text text-anchor="middle" x="81.5" y="-85.5" font-family="Helvetica,sans-Serif" font-size="10.00">_encoder.hpp</text>
</a>
</g>
</g>
<!-- Node1&#45;&gt;Node2 -->
<g id="edge1" class="edge">
<title>Node1&#45;&gt;Node2</title>
<path fill="none" stroke="midnightblue" d="M136.85,-149.49C125.82,-139.63 113.52,-128.63 103.32,-119.51"/>
<polygon fill="midnightblue" stroke="midnightblue" points="134.82,-152.37 144.61,-156.43 139.49,-147.15 134.82,-152.37"/>
</g>
<!-- Node4 -->
<g id="node4" class="node">
<title>Node4</title>
<g id="a_node4"><a xlink:href="interrupt__in_8hpp.html" target="_top" xlink:title="割り込み入力ピン">
<polygon fill="white" stroke="black" points="181.5,-78.5 181.5,-119.5 323.5,-119.5 323.5,-78.5 181.5,-78.5"/>
<text text-anchor="start" x="189.5" y="-107.5" font-family="Helvetica,sans-Serif" font-size="10.00">alps_mbed_lib/include</text>
<text text-anchor="start" x="189.5" y="-96.5" font-family="Helvetica,sans-Serif" font-size="10.00">/alps_mbed/gpio/interrupt</text>
<text text-anchor="middle" x="252.5" y="-85.5" font-family="Helvetica,sans-Serif" font-size="10.00">_in.hpp</text>
</a>
</g>
</g>
<!-- Node1&#45;&gt;Node4 -->
<g id="edge3" class="edge">
<title>Node1&#45;&gt;Node4</title>
<path fill="none" stroke="midnightblue" d="M196.17,-149.78C207.41,-139.84 220.01,-128.72 230.43,-119.51"/>
<polygon fill="midnightblue" stroke="midnightblue" points="193.82,-147.18 188.65,-156.43 198.46,-152.43 193.82,-147.18"/>
</g>
<!-- Node3 -->
<g id="node3" class="node">
<title>Node3</title>
<g id="a_node3"><a xlink:href="alps__mbed__lib_2include_2alps__mbed_2sensor_2incremental__encoder_8hpp.html" target="_top" xlink:title=" ">
<polygon fill="white" stroke="black" points="81.5,-0.5 81.5,-41.5 251.5,-41.5 251.5,-0.5 81.5,-0.5"/>
<text text-anchor="start" x="89.5" y="-29.5" font-family="Helvetica,sans-Serif" font-size="10.00">alps_mbed_lib/include</text>
<text text-anchor="start" x="89.5" y="-18.5" font-family="Helvetica,sans-Serif" font-size="10.00">/alps_mbed/sensor/incremental</text>
<text text-anchor="middle" x="166.5" y="-7.5" font-family="Helvetica,sans-Serif" font-size="10.00">_encoder.hpp</text>
</a>
</g>
</g>
<!-- Node2&#45;&gt;Node3 -->
<g id="edge2" class="edge">
<title>Node2&#45;&gt;Node3</title>
<path fill="none" stroke="midnightblue" d="M111.15,-71.49C122.18,-61.63 134.48,-50.63 144.68,-41.51"/>
<polygon fill="midnightblue" stroke="midnightblue" points="108.51,-69.15 103.39,-78.43 113.18,-74.37 108.51,-69.15"/>
</g>
<!-- Node4&#45;&gt;Node3 -->
<g id="edge4" class="edge">
<title>Node4&#45;&gt;Node3</title>
<path fill="none" stroke="midnightblue" d="M222.83,-71.78C211.59,-61.84 198.99,-50.72 188.57,-41.51"/>
<polygon fill="midnightblue" stroke="midnightblue" points="220.54,-74.43 230.35,-78.43 225.18,-69.18 220.54,-74.43"/>
</g>
</g>
</svg>
