<?xml version="1.0" encoding="UTF-8" standalone="no"?>
<!DOCTYPE svg PUBLIC "-//W3C//DTD SVG 1.1//EN"
 "http://www.w3.org/Graphics/SVG/1.1/DTD/svg11.dtd">
<!-- Generated by graphviz version 2.43.0 (0)
 -->
<!-- Title: alps_core/lib_internal/alps_common_lib/include/alps_cmn/communication/i_i2c_io.hpp Pages: 1 -->
<svg width="1074pt" height="148pt"
 viewBox="0.00 0.00 1073.50 148.00" xmlns="http://www.w3.org/2000/svg" xmlns:xlink="http://www.w3.org/1999/xlink">
<g id="graph0" class="graph" transform="scale(1 1) rotate(0) translate(4 144)">
<title>alps_core/lib_internal/alps_common_lib/include/alps_cmn/communication/i_i2c_io.hpp</title>
<!-- Node1 -->
<g id="Node000001" class="node">
<title>Node1</title>
<g id="a_Node000001"><a xlink:title="I2C通信インタフェース">
<polygon fill="#999999" stroke="#666666" points="611,-140 466,-140 466,-88 611,-88 611,-140"/>
<text text-anchor="start" x="474" y="-128" font-family="Helvetica,sans-Serif" font-size="10.00">alps_core/lib_internal</text>
<text text-anchor="start" x="474" y="-117" font-family="Helvetica,sans-Serif" font-size="10.00">/alps_common_lib/include</text>
<text text-anchor="start" x="474" y="-106" font-family="Helvetica,sans-Serif" font-size="10.00">/alps_cmn/communication</text>
<text text-anchor="middle" x="538.5" y="-95" font-family="Helvetica,sans-Serif" font-size="10.00">/i_i2c_io.hpp</text>
</a>
</g>
</g>
<!-- Node2 -->
<g id="Node000002" class="node">
<title>Node2</title>
<g id="a_Node000002"><a xlink:href="ssd1306_8hpp.html" target="_top" xlink:title="SSD1306 OLEDディスプレイ">
<polygon fill="white" stroke="#666666" points="169,-46.5 0,-46.5 0,-5.5 169,-5.5 169,-46.5"/>
<text text-anchor="start" x="8" y="-34.5" font-family="Helvetica,sans-Serif" font-size="10.00">alps_core/lib_internal</text>
<text text-anchor="start" x="8" y="-23.5" font-family="Helvetica,sans-Serif" font-size="10.00">/alps_common_lib/include</text>
<text text-anchor="middle" x="84.5" y="-12.5" font-family="Helvetica,sans-Serif" font-size="10.00">/alps_cmn/display/ssd1306.hpp</text>
</a>
</g>
</g>
<!-- Node1&#45;&gt;Node2 -->
<g id="edge1_Node000001_Node000002" class="edge">
<title>Node1&#45;&gt;Node2</title>
<g id="a_edge1_Node000001_Node000002"><a xlink:title=" ">
<path fill="none" stroke="#63b8ff" d="M455.73,-101.31C382.29,-90.39 272.25,-72.69 177.5,-52 169.99,-50.36 162.17,-48.5 154.4,-46.56"/>
<polygon fill="#63b8ff" stroke="#63b8ff" points="455.45,-104.8 465.85,-102.8 456.47,-97.88 455.45,-104.8"/>
</a>
</g>
</g>
<!-- Node3 -->
<g id="Node000003" class="node">
<title>Node3</title>
<g id="a_Node000003"><a xlink:href="bno055_8hpp.html" target="_top" xlink:title="BNO055 9軸センサ">
<polygon fill="white" stroke="#666666" points="348,-46.5 187,-46.5 187,-5.5 348,-5.5 348,-46.5"/>
<text text-anchor="start" x="195" y="-34.5" font-family="Helvetica,sans-Serif" font-size="10.00">alps_core/lib_internal</text>
<text text-anchor="start" x="195" y="-23.5" font-family="Helvetica,sans-Serif" font-size="10.00">/alps_common_lib/include</text>
<text text-anchor="middle" x="267.5" y="-12.5" font-family="Helvetica,sans-Serif" font-size="10.00">/alps_cmn/sensor/bno055.hpp</text>
</a>
</g>
</g>
<!-- Node1&#45;&gt;Node3 -->
<g id="edge2_Node000001_Node000003" class="edge">
<title>Node1&#45;&gt;Node3</title>
<g id="a_edge2_Node000001_Node000003"><a xlink:title=" ">
<path fill="none" stroke="#63b8ff" d="M456.21,-86.89C415.39,-73.93 366.9,-58.54 329.29,-46.61"/>
<polygon fill="#63b8ff" stroke="#63b8ff" points="455.29,-90.26 465.88,-89.95 457.4,-83.59 455.29,-90.26"/>
</a>
</g>
</g>
<!-- Node4 -->
<g id="Node000004" class="node">
<title>Node4</title>
<g id="a_Node000004"><a xlink:href="s11059_8hpp.html" target="_top" xlink:title="S11059&#45;02DTカラーセンサー用のライブラリ">
<polygon fill="white" stroke="#666666" points="527,-46.5 366,-46.5 366,-5.5 527,-5.5 527,-46.5"/>
<text text-anchor="start" x="374" y="-34.5" font-family="Helvetica,sans-Serif" font-size="10.00">alps_core/lib_internal</text>
<text text-anchor="start" x="374" y="-23.5" font-family="Helvetica,sans-Serif" font-size="10.00">/alps_common_lib/include</text>
<text text-anchor="middle" x="446.5" y="-12.5" font-family="Helvetica,sans-Serif" font-size="10.00">/alps_cmn/sensor/s11059.hpp</text>
</a>
</g>
</g>
<!-- Node1&#45;&gt;Node4 -->
<g id="edge3_Node000001_Node000004" class="edge">
<title>Node1&#45;&gt;Node4</title>
<g id="a_edge3_Node000001_Node000004"><a xlink:title=" ">
<path fill="none" stroke="#63b8ff" d="M503.96,-80.72C491.73,-69.28 478.35,-56.77 467.58,-46.7"/>
<polygon fill="#63b8ff" stroke="#63b8ff" points="501.7,-83.39 511.39,-87.66 506.48,-78.28 501.7,-83.39"/>
</a>
</g>
</g>
<!-- Node5 -->
<g id="Node000005" class="node">
<title>Node5</title>
<g id="a_Node000005"><a xlink:href="tcs34725_8hpp.html" target="_top" xlink:title="カラーセンサーTCS34725のクラス">
<polygon fill="white" stroke="#666666" points="715.5,-46.5 545.5,-46.5 545.5,-5.5 715.5,-5.5 715.5,-46.5"/>
<text text-anchor="start" x="553.5" y="-34.5" font-family="Helvetica,sans-Serif" font-size="10.00">alps_core/lib_internal</text>
<text text-anchor="start" x="553.5" y="-23.5" font-family="Helvetica,sans-Serif" font-size="10.00">/alps_common_lib/include</text>
<text text-anchor="middle" x="630.5" y="-12.5" font-family="Helvetica,sans-Serif" font-size="10.00">/alps_cmn/sensor/tcs34725.hpp</text>
</a>
</g>
</g>
<!-- Node1&#45;&gt;Node5 -->
<g id="edge4_Node000001_Node000005" class="edge">
<title>Node1&#45;&gt;Node5</title>
<g id="a_edge4_Node000001_Node000005"><a xlink:title=" ">
<path fill="none" stroke="#63b8ff" d="M573.04,-80.72C585.27,-69.28 598.65,-56.77 609.42,-46.7"/>
<polygon fill="#63b8ff" stroke="#63b8ff" points="570.52,-78.28 565.61,-87.66 575.3,-83.39 570.52,-78.28"/>
</a>
</g>
</g>
<!-- Node6 -->
<g id="Node000006" class="node">
<title>Node6</title>
<g id="a_Node000006"><a xlink:href="vl53l0x_8hpp.html" target="_top" xlink:title="VL53L0X 距離センサ">
<polygon fill="white" stroke="#666666" points="895,-46.5 734,-46.5 734,-5.5 895,-5.5 895,-46.5"/>
<text text-anchor="start" x="742" y="-34.5" font-family="Helvetica,sans-Serif" font-size="10.00">alps_core/lib_internal</text>
<text text-anchor="start" x="742" y="-23.5" font-family="Helvetica,sans-Serif" font-size="10.00">/alps_common_lib/include</text>
<text text-anchor="middle" x="814.5" y="-12.5" font-family="Helvetica,sans-Serif" font-size="10.00">/alps_cmn/sensor/vl53l0x.hpp</text>
</a>
</g>
</g>
<!-- Node1&#45;&gt;Node6 -->
<g id="edge5_Node000001_Node000006" class="edge">
<title>Node1&#45;&gt;Node6</title>
<g id="a_edge5_Node000001_Node000006"><a xlink:title=" ">
<path fill="none" stroke="#63b8ff" d="M620.67,-87.4C662.69,-74.3 713,-58.63 751.84,-46.52"/>
<polygon fill="#63b8ff" stroke="#63b8ff" points="619.52,-84.09 611.02,-90.4 621.6,-90.77 619.52,-84.09"/>
</a>
</g>
</g>
<!-- Node7 -->
<g id="Node000007" class="node">
<title>Node7</title>
<g id="a_Node000007"><a xlink:href="i2c__io_8hpp.html" target="_top" xlink:title="I2C通信インタフェース">
<polygon fill="white" stroke="#666666" points="1065.5,-52 913.5,-52 913.5,0 1065.5,0 1065.5,-52"/>
<text text-anchor="start" x="921.5" y="-40" font-family="Helvetica,sans-Serif" font-size="10.00">alps_core/lib_internal</text>
<text text-anchor="start" x="921.5" y="-29" font-family="Helvetica,sans-Serif" font-size="10.00">/alps_mbed_lib/include</text>
<text text-anchor="start" x="921.5" y="-18" font-family="Helvetica,sans-Serif" font-size="10.00">/alps_mbed/communication</text>
<text text-anchor="middle" x="989.5" y="-7" font-family="Helvetica,sans-Serif" font-size="10.00">/i2c_io.hpp</text>
</a>
</g>
</g>
<!-- Node1&#45;&gt;Node7 -->
<g id="edge6_Node000001_Node000007" class="edge">
<title>Node1&#45;&gt;Node7</title>
<g id="a_edge6_Node000001_Node000007"><a xlink:title=" ">
<path fill="none" stroke="#63b8ff" d="M621.49,-102.09C696.04,-91.6 808.26,-74.09 904.5,-52 907.35,-51.35 910.24,-50.65 913.16,-49.93"/>
<polygon fill="#63b8ff" stroke="#63b8ff" points="620.65,-98.67 611.23,-103.52 621.62,-105.61 620.65,-98.67"/>
</a>
</g>
</g>
</g>
</svg>
