<?xml version="1.0" encoding="UTF-8" standalone="no"?>
<!DOCTYPE svg PUBLIC "-//W3C//DTD SVG 1.1//EN"
 "http://www.w3.org/Graphics/SVG/1.1/DTD/svg11.dtd">
<!-- Generated by graphviz version 2.43.0 (0)
 -->
<!-- Title: alps_core/lib_internal/alps_common_lib/include/alps_cmn/gpio/i_interrupt_in.hpp Pages: 1 -->
<svg width="366pt" height="228pt"
 viewBox="0.00 0.00 366.00 228.00" xmlns="http://www.w3.org/2000/svg" xmlns:xlink="http://www.w3.org/1999/xlink">
<g id="graph0" class="graph" transform="scale(1 1) rotate(0) translate(4 224)">
<title>alps_core/lib_internal/alps_common_lib/include/alps_cmn/gpio/i_interrupt_in.hpp</title>
<polygon fill="white" stroke="transparent" points="-4,4 -4,-224 362,-224 362,4 -4,4"/>
<!-- Node1 -->
<g id="node1" class="node">
<title>Node1</title>
<g id="a_node1"><a xlink:title=" ">
<polygon fill="#bfbfbf" stroke="black" points="86,-178.5 86,-219.5 265,-219.5 265,-178.5 86,-178.5"/>
<text text-anchor="start" x="94" y="-207.5" font-family="Helvetica,sans-Serif" font-size="10.00">alps_core/lib_internal</text>
<text text-anchor="start" x="94" y="-196.5" font-family="Helvetica,sans-Serif" font-size="10.00">/alps_common_lib/include</text>
<text text-anchor="middle" x="175.5" y="-185.5" font-family="Helvetica,sans-Serif" font-size="10.00">/alps_cmn/gpio/i_interrupt_in.hpp</text>
</a>
</g>
</g>
<!-- Node2 -->
<g id="node2" class="node">
<title>Node2</title>
<g id="a_node2"><a xlink:href="alps__common__lib_2include_2alps__cmn_2sensor_2incremental__encoder_8hpp.html" target="_top" xlink:title=" ">
<polygon fill="white" stroke="black" points="0,-89.5 0,-141.5 163,-141.5 163,-89.5 0,-89.5"/>
<text text-anchor="start" x="8" y="-129.5" font-family="Helvetica,sans-Serif" font-size="10.00">alps_core/lib_internal</text>
<text text-anchor="start" x="8" y="-118.5" font-family="Helvetica,sans-Serif" font-size="10.00">/alps_common_lib/include</text>
<text text-anchor="start" x="8" y="-107.5" font-family="Helvetica,sans-Serif" font-size="10.00">/alps_cmn/sensor/incremental</text>
<text text-anchor="middle" x="81.5" y="-96.5" font-family="Helvetica,sans-Serif" font-size="10.00">_encoder.hpp</text>
</a>
</g>
</g>
<!-- Node1&#45;&gt;Node2 -->
<g id="edge1" class="edge">
<title>Node1&#45;&gt;Node2</title>
<path fill="none" stroke="midnightblue" d="M144.96,-171.52C133.88,-161.92 121.4,-151.09 110.46,-141.61"/>
<polygon fill="midnightblue" stroke="midnightblue" points="142.9,-174.36 152.75,-178.27 147.48,-169.08 142.9,-174.36"/>
</g>
<!-- Node4 -->
<g id="node4" class="node">
<title>Node4</title>
<g id="a_node4"><a xlink:href="interrupt__in_8hpp.html" target="_top" xlink:title="割り込み入力ピン">
<polygon fill="white" stroke="black" points="181,-95 181,-136 358,-136 358,-95 181,-95"/>
<text text-anchor="start" x="189" y="-124" font-family="Helvetica,sans-Serif" font-size="10.00">alps_core/lib_internal</text>
<text text-anchor="start" x="189" y="-113" font-family="Helvetica,sans-Serif" font-size="10.00">/alps_mbed_lib/include</text>
<text text-anchor="middle" x="269.5" y="-102" font-family="Helvetica,sans-Serif" font-size="10.00">/alps_mbed/gpio/interrupt_in.hpp</text>
</a>
</g>
</g>
<!-- Node1&#45;&gt;Node4 -->
<g id="edge3" class="edge">
<title>Node1&#45;&gt;Node4</title>
<path fill="none" stroke="midnightblue" d="M205.85,-171.69C219.21,-160.1 234.64,-146.73 246.95,-136.05"/>
<polygon fill="midnightblue" stroke="midnightblue" points="203.52,-169.08 198.25,-178.27 208.1,-174.36 203.52,-169.08"/>
</g>
<!-- Node3 -->
<g id="node3" class="node">
<title>Node3</title>
<g id="a_node3"><a xlink:href="alps__mbed__lib_2include_2alps__mbed_2sensor_2incremental__encoder_8hpp.html" target="_top" xlink:title=" ">
<polygon fill="white" stroke="black" points="90.5,-0.5 90.5,-52.5 260.5,-52.5 260.5,-0.5 90.5,-0.5"/>
<text text-anchor="start" x="98.5" y="-40.5" font-family="Helvetica,sans-Serif" font-size="10.00">alps_core/lib_internal</text>
<text text-anchor="start" x="98.5" y="-29.5" font-family="Helvetica,sans-Serif" font-size="10.00">/alps_mbed_lib/include</text>
<text text-anchor="start" x="98.5" y="-18.5" font-family="Helvetica,sans-Serif" font-size="10.00">/alps_mbed/sensor/incremental</text>
<text text-anchor="middle" x="175.5" y="-7.5" font-family="Helvetica,sans-Serif" font-size="10.00">_encoder.hpp</text>
</a>
</g>
</g>
<!-- Node2&#45;&gt;Node3 -->
<g id="edge2" class="edge">
<title>Node2&#45;&gt;Node3</title>
<path fill="none" stroke="midnightblue" d="M116.22,-82.36C126.83,-72.54 138.34,-61.89 148.37,-52.61"/>
<polygon fill="midnightblue" stroke="midnightblue" points="113.65,-79.97 108.69,-89.34 118.41,-85.11 113.65,-79.97"/>
</g>
<!-- Node4&#45;&gt;Node3 -->
<g id="edge4" class="edge">
<title>Node4&#45;&gt;Node3</title>
<path fill="none" stroke="midnightblue" d="M240.58,-87.73C228.56,-76.6 214.67,-63.75 202.82,-52.79"/>
<polygon fill="midnightblue" stroke="midnightblue" points="238.45,-90.53 248.17,-94.76 243.21,-85.4 238.45,-90.53"/>
</g>
</g>
</svg>
