<?xml version="1.0" encoding="UTF-8" standalone="no"?>
<!DOCTYPE svg PUBLIC "-//W3C//DTD SVG 1.1//EN"
 "http://www.w3.org/Graphics/SVG/1.1/DTD/svg11.dtd">
<!-- Generated by graphviz version 2.43.0 (0)
 -->
<!-- Title: alps_common_lib/include/alps_cmn/communication/i_i2c_io.hpp Pages: 1 -->
<svg width="887pt" height="126pt"
 viewBox="0.00 0.00 886.50 126.00" xmlns="http://www.w3.org/2000/svg" xmlns:xlink="http://www.w3.org/1999/xlink">
<g id="graph0" class="graph" transform="scale(1 1) rotate(0) translate(4 122)">
<title>alps_common_lib/include/alps_cmn/communication/i_i2c_io.hpp</title>
<!-- Node1 -->
<g id="node1" class="node">
<title>Node1</title>
<g id="a_node1"><a xlink:title="I2C通信インタフェース">
<polygon fill="#999999" stroke="#666666" points="516,-118 371,-118 371,-77 516,-77 516,-118"/>
<text text-anchor="start" x="379" y="-106" font-family="Helvetica,sans-Serif" font-size="10.00">alps_common_lib/include</text>
<text text-anchor="start" x="379" y="-95" font-family="Helvetica,sans-Serif" font-size="10.00">/alps_cmn/communication</text>
<text text-anchor="middle" x="443.5" y="-84" font-family="Helvetica,sans-Serif" font-size="10.00">/i_i2c_io.hpp</text>
</a>
</g>
</g>
<!-- Node2 -->
<g id="node2" class="node">
<title>Node2</title>
<g id="a_node2"><a xlink:href="bno055_8hpp.html" target="_top" xlink:title="BNO055 9軸センサ">
<polygon fill="white" stroke="#666666" points="161,-35.5 0,-35.5 0,-5.5 161,-5.5 161,-35.5"/>
<text text-anchor="start" x="8" y="-23.5" font-family="Helvetica,sans-Serif" font-size="10.00">alps_common_lib/include</text>
<text text-anchor="middle" x="80.5" y="-12.5" font-family="Helvetica,sans-Serif" font-size="10.00">/alps_cmn/sensor/bno055.hpp</text>
</a>
</g>
</g>
<!-- Node1&#45;&gt;Node2 -->
<g id="edge1" class="edge">
<title>Node1&#45;&gt;Node2</title>
<path fill="none" stroke="#63b8ff" d="M360.81,-80.1C306.4,-69.23 233.66,-54.53 169.5,-41 161.3,-39.27 152.68,-37.42 144.16,-35.58"/>
<polygon fill="#63b8ff" stroke="#63b8ff" points="360.25,-83.56 370.75,-82.09 361.63,-76.7 360.25,-83.56"/>
</g>
<!-- Node3 -->
<g id="node3" class="node">
<title>Node3</title>
<g id="a_node3"><a xlink:href="s11059_8hpp.html" target="_top" xlink:title="S11059&#45;02DTカラーセンサー用のライブラリ">
<polygon fill="white" stroke="#666666" points="340,-35.5 179,-35.5 179,-5.5 340,-5.5 340,-35.5"/>
<text text-anchor="start" x="187" y="-23.5" font-family="Helvetica,sans-Serif" font-size="10.00">alps_common_lib/include</text>
<text text-anchor="middle" x="259.5" y="-12.5" font-family="Helvetica,sans-Serif" font-size="10.00">/alps_cmn/sensor/s11059.hpp</text>
</a>
</g>
</g>
<!-- Node1&#45;&gt;Node3 -->
<g id="edge2" class="edge">
<title>Node1&#45;&gt;Node3</title>
<path fill="none" stroke="#63b8ff" d="M386.06,-73.09C355.89,-60.79 319.92,-46.13 294.05,-35.58"/>
<polygon fill="#63b8ff" stroke="#63b8ff" points="385.06,-76.46 395.64,-76.99 387.7,-69.97 385.06,-76.46"/>
</g>
<!-- Node4 -->
<g id="node4" class="node">
<title>Node4</title>
<g id="a_node4"><a xlink:href="tcs34725_8hpp.html" target="_top" xlink:title="カラーセンサーTCS34725のクラス">
<polygon fill="white" stroke="#666666" points="528.5,-35.5 358.5,-35.5 358.5,-5.5 528.5,-5.5 528.5,-35.5"/>
<text text-anchor="start" x="366.5" y="-23.5" font-family="Helvetica,sans-Serif" font-size="10.00">alps_common_lib/include</text>
<text text-anchor="middle" x="443.5" y="-12.5" font-family="Helvetica,sans-Serif" font-size="10.00">/alps_cmn/sensor/tcs34725.hpp</text>
</a>
</g>
</g>
<!-- Node1&#45;&gt;Node4 -->
<g id="edge3" class="edge">
<title>Node1&#45;&gt;Node4</title>
<path fill="none" stroke="#63b8ff" d="M443.5,-66.61C443.5,-56.01 443.5,-44.57 443.5,-35.86"/>
<polygon fill="#63b8ff" stroke="#63b8ff" points="440,-66.79 443.5,-76.79 447,-66.79 440,-66.79"/>
</g>
<!-- Node5 -->
<g id="node5" class="node">
<title>Node5</title>
<g id="a_node5"><a xlink:href="vl53l0x_8hpp.html" target="_top" xlink:title="VL53L0X 距離センサ">
<polygon fill="white" stroke="#666666" points="708,-35.5 547,-35.5 547,-5.5 708,-5.5 708,-35.5"/>
<text text-anchor="start" x="555" y="-23.5" font-family="Helvetica,sans-Serif" font-size="10.00">alps_common_lib/include</text>
<text text-anchor="middle" x="627.5" y="-12.5" font-family="Helvetica,sans-Serif" font-size="10.00">/alps_cmn/sensor/vl53l0x.hpp</text>
</a>
</g>
</g>
<!-- Node1&#45;&gt;Node5 -->
<g id="edge4" class="edge">
<title>Node1&#45;&gt;Node5</title>
<path fill="none" stroke="#63b8ff" d="M500.94,-73.09C531.11,-60.79 567.08,-46.13 592.95,-35.58"/>
<polygon fill="#63b8ff" stroke="#63b8ff" points="499.3,-69.97 491.36,-76.99 501.94,-76.46 499.3,-69.97"/>
</g>
<!-- Node6 -->
<g id="node6" class="node">
<title>Node6</title>
<g id="a_node6"><a xlink:href="i2c__io_8hpp.html" target="_top" xlink:title="I2C通信インタフェース">
<polygon fill="white" stroke="#666666" points="878.5,-41 726.5,-41 726.5,0 878.5,0 878.5,-41"/>
<text text-anchor="start" x="734.5" y="-29" font-family="Helvetica,sans-Serif" font-size="10.00">alps_mbed_lib/include</text>
<text text-anchor="start" x="734.5" y="-18" font-family="Helvetica,sans-Serif" font-size="10.00">/alps_mbed/communication</text>
<text text-anchor="middle" x="802.5" y="-7" font-family="Helvetica,sans-Serif" font-size="10.00">/i2c_io.hpp</text>
</a>
</g>
</g>
<!-- Node1&#45;&gt;Node6 -->
<g id="edge5" class="edge">
<title>Node1&#45;&gt;Node6</title>
<path fill="none" stroke="#63b8ff" d="M525.95,-80.37C580.41,-69.58 653.3,-54.86 717.5,-41 720.31,-40.39 723.17,-39.77 726.06,-39.13"/>
<polygon fill="#63b8ff" stroke="#63b8ff" points="525.14,-76.97 516.01,-82.34 526.5,-83.83 525.14,-76.97"/>
</g>
</g>
</svg>
