<?xml version="1.0" encoding="UTF-8" standalone="no"?>
<!DOCTYPE svg PUBLIC "-//W3C//DTD SVG 1.1//EN"
 "http://www.w3.org/Graphics/SVG/1.1/DTD/svg11.dtd">
<!-- Generated by graphviz version 2.43.0 (0)
 -->
<!-- Title: alps_common_lib/include/alps_cmn/actuator/i_motor.hpp Pages: 1 -->
<svg width="676pt" height="195pt"
 viewBox="0.00 0.00 676.00 195.00" xmlns="http://www.w3.org/2000/svg" xmlns:xlink="http://www.w3.org/1999/xlink">
<g id="graph0" class="graph" transform="scale(1 1) rotate(0) translate(4 191)">
<title>alps_common_lib/include/alps_cmn/actuator/i_motor.hpp</title>
<polygon fill="white" stroke="transparent" points="-4,4 -4,-191 672,-191 672,4 -4,4"/>
<!-- Node1 -->
<g id="node1" class="node">
<title>Node1</title>
<g id="a_node1"><a xlink:title=" ">
<polygon fill="#bfbfbf" stroke="black" points="317,-156.5 317,-186.5 487,-186.5 487,-156.5 317,-156.5"/>
<text text-anchor="start" x="325" y="-174.5" font-family="Helvetica,sans-Serif" font-size="10.00">alps_common_lib/include</text>
<text text-anchor="middle" x="402" y="-163.5" font-family="Helvetica,sans-Serif" font-size="10.00">/alps_cmn/actuator/i_motor.hpp</text>
</a>
</g>
</g>
<!-- Node2 -->
<g id="node2" class="node">
<title>Node2</title>
<g id="a_node2"><a xlink:href="alps__common__lib_2include_2alps__cmn_2actuator_2dc__motor_8hpp.html" target="_top" xlink:title=" ">
<polygon fill="white" stroke="black" points="0,-78.5 0,-119.5 140,-119.5 140,-78.5 0,-78.5"/>
<text text-anchor="start" x="8" y="-107.5" font-family="Helvetica,sans-Serif" font-size="10.00">alps_common_lib/include</text>
<text text-anchor="start" x="8" y="-96.5" font-family="Helvetica,sans-Serif" font-size="10.00">/alps_cmn/actuator/dc</text>
<text text-anchor="middle" x="70" y="-85.5" font-family="Helvetica,sans-Serif" font-size="10.00">_motor.hpp</text>
</a>
</g>
</g>
<!-- Node1&#45;&gt;Node2 -->
<g id="edge1" class="edge">
<title>Node1&#45;&gt;Node2</title>
<path fill="none" stroke="midnightblue" d="M316.55,-154.57C267.41,-145.12 204.58,-132.57 149,-120 146.1,-119.34 143.15,-118.66 140.17,-117.96"/>
<polygon fill="midnightblue" stroke="midnightblue" points="316.03,-158.03 326.51,-156.47 317.34,-151.16 316.03,-158.03"/>
</g>
<!-- Node4 -->
<g id="node4" class="node">
<title>Node4</title>
<g id="a_node4"><a xlink:href="robomas__motor_8hpp.html" target="_top" xlink:title="ロボマスモータのライブラリ">
<polygon fill="white" stroke="black" points="158.5,-78.5 158.5,-119.5 313.5,-119.5 313.5,-78.5 158.5,-78.5"/>
<text text-anchor="start" x="166.5" y="-107.5" font-family="Helvetica,sans-Serif" font-size="10.00">alps_common_lib/include</text>
<text text-anchor="start" x="166.5" y="-96.5" font-family="Helvetica,sans-Serif" font-size="10.00">/alps_cmn/actuator/robomas</text>
<text text-anchor="middle" x="236" y="-85.5" font-family="Helvetica,sans-Serif" font-size="10.00">_motor.hpp</text>
</a>
</g>
</g>
<!-- Node1&#45;&gt;Node4 -->
<g id="edge3" class="edge">
<title>Node1&#45;&gt;Node4</title>
<path fill="none" stroke="midnightblue" d="M359.38,-152.4C335.7,-142.34 306.23,-129.83 282.02,-119.55"/>
<polygon fill="midnightblue" stroke="midnightblue" points="358.23,-155.72 368.81,-156.4 360.97,-149.27 358.23,-155.72"/>
</g>
<!-- Node6 -->
<g id="node6" class="node">
<title>Node6</title>
<g id="a_node6"><a xlink:href="motor__angle__controller_8hpp.html" target="_top" xlink:title=" ">
<polygon fill="white" stroke="black" points="332,-78.5 332,-119.5 472,-119.5 472,-78.5 332,-78.5"/>
<text text-anchor="start" x="340" y="-107.5" font-family="Helvetica,sans-Serif" font-size="10.00">alps_common_lib/include</text>
<text text-anchor="start" x="340" y="-96.5" font-family="Helvetica,sans-Serif" font-size="10.00">/alps_cmn/control/motor</text>
<text text-anchor="middle" x="402" y="-85.5" font-family="Helvetica,sans-Serif" font-size="10.00">_angle_controller.hpp</text>
</a>
</g>
</g>
<!-- Node1&#45;&gt;Node6 -->
<g id="edge5" class="edge">
<title>Node1&#45;&gt;Node6</title>
<path fill="none" stroke="midnightblue" d="M402,-145.98C402,-137.35 402,-127.76 402,-119.59"/>
<polygon fill="midnightblue" stroke="midnightblue" points="398.5,-146.23 402,-156.23 405.5,-146.23 398.5,-146.23"/>
</g>
<!-- Node7 -->
<g id="node7" class="node">
<title>Node7</title>
<g id="a_node7"><a xlink:href="motor__angle__velocity__controller_8hpp.html" target="_top" xlink:title=" ">
<polygon fill="white" stroke="black" points="466.5,-0.5 466.5,-41.5 631.5,-41.5 631.5,-0.5 466.5,-0.5"/>
<text text-anchor="start" x="474.5" y="-29.5" font-family="Helvetica,sans-Serif" font-size="10.00">alps_common_lib/include</text>
<text text-anchor="start" x="474.5" y="-18.5" font-family="Helvetica,sans-Serif" font-size="10.00">/alps_cmn/control/motor</text>
<text text-anchor="middle" x="549" y="-7.5" font-family="Helvetica,sans-Serif" font-size="10.00">_angle_velocity_controller.hpp</text>
</a>
</g>
</g>
<!-- Node1&#45;&gt;Node7 -->
<g id="edge6" class="edge">
<title>Node1&#45;&gt;Node7</title>
<path fill="none" stroke="midnightblue" d="M438.85,-151.09C452.94,-142.65 468.59,-131.95 481,-120 505.46,-96.44 526.49,-62.85 538.44,-41.75"/>
<polygon fill="midnightblue" stroke="midnightblue" points="436.76,-148.25 429.87,-156.3 440.28,-154.31 436.76,-148.25"/>
</g>
<!-- Node8 -->
<g id="node8" class="node">
<title>Node8</title>
<g id="a_node8"><a xlink:href="motor__velocity__controller_8hpp.html" target="_top" xlink:title=" ">
<polygon fill="white" stroke="black" points="528,-78.5 528,-119.5 668,-119.5 668,-78.5 528,-78.5"/>
<text text-anchor="start" x="536" y="-107.5" font-family="Helvetica,sans-Serif" font-size="10.00">alps_common_lib/include</text>
<text text-anchor="start" x="536" y="-96.5" font-family="Helvetica,sans-Serif" font-size="10.00">/alps_cmn/control/motor</text>
<text text-anchor="middle" x="598" y="-85.5" font-family="Helvetica,sans-Serif" font-size="10.00">_velocity_controller.hpp</text>
</a>
</g>
</g>
<!-- Node1&#45;&gt;Node8 -->
<g id="edge7" class="edge">
<title>Node1&#45;&gt;Node8</title>
<path fill="none" stroke="midnightblue" d="M450.84,-152.93C479.04,-142.79 514.57,-130.01 543.66,-119.55"/>
<polygon fill="midnightblue" stroke="midnightblue" points="449.42,-149.72 441.19,-156.4 451.79,-156.31 449.42,-149.72"/>
</g>
<!-- Node3 -->
<g id="node3" class="node">
<title>Node3</title>
<g id="a_node3"><a xlink:href="alps__mbed__lib_2include_2alps__mbed_2actuator_2dc__motor_8hpp.html" target="_top" xlink:title=" ">
<polygon fill="white" stroke="black" points="4.5,-0.5 4.5,-41.5 135.5,-41.5 135.5,-0.5 4.5,-0.5"/>
<text text-anchor="start" x="12.5" y="-29.5" font-family="Helvetica,sans-Serif" font-size="10.00">alps_mbed_lib/include</text>
<text text-anchor="start" x="12.5" y="-18.5" font-family="Helvetica,sans-Serif" font-size="10.00">/alps_mbed/actuator/dc</text>
<text text-anchor="middle" x="70" y="-7.5" font-family="Helvetica,sans-Serif" font-size="10.00">_motor.hpp</text>
</a>
</g>
</g>
<!-- Node2&#45;&gt;Node3 -->
<g id="edge2" class="edge">
<title>Node2&#45;&gt;Node3</title>
<path fill="none" stroke="midnightblue" d="M70,-68.3C70,-59.3 70,-49.65 70,-41.51"/>
<polygon fill="midnightblue" stroke="midnightblue" points="66.5,-68.43 70,-78.43 73.5,-68.43 66.5,-68.43"/>
</g>
<!-- Node5 -->
<g id="node5" class="node">
<title>Node5</title>
<g id="a_node5"><a xlink:href="robomas__motors__can__port_8hpp.html" target="_top" xlink:title=" ">
<polygon fill="white" stroke="black" points="158.5,-0.5 158.5,-41.5 313.5,-41.5 313.5,-0.5 158.5,-0.5"/>
<text text-anchor="start" x="166.5" y="-29.5" font-family="Helvetica,sans-Serif" font-size="10.00">alps_common_lib/include</text>
<text text-anchor="start" x="166.5" y="-18.5" font-family="Helvetica,sans-Serif" font-size="10.00">/alps_cmn/actuator/robomas</text>
<text text-anchor="middle" x="236" y="-7.5" font-family="Helvetica,sans-Serif" font-size="10.00">_motors_can_port.hpp</text>
</a>
</g>
</g>
<!-- Node4&#45;&gt;Node5 -->
<g id="edge4" class="edge">
<title>Node4&#45;&gt;Node5</title>
<path fill="none" stroke="midnightblue" d="M236,-68.3C236,-59.3 236,-49.65 236,-41.51"/>
<polygon fill="midnightblue" stroke="midnightblue" points="232.5,-68.43 236,-78.43 239.5,-68.43 232.5,-68.43"/>
</g>
<!-- Node8&#45;&gt;Node7 -->
<g id="edge8" class="edge">
<title>Node8&#45;&gt;Node7</title>
<path fill="none" stroke="midnightblue" d="M579.79,-69.76C573.73,-60.35 567.11,-50.1 561.58,-41.51"/>
<polygon fill="midnightblue" stroke="midnightblue" points="577.02,-71.92 585.38,-78.43 582.9,-68.13 577.02,-71.92"/>
</g>
</g>
</svg>
