<?xml version="1.0" encoding="UTF-8" standalone="no"?>
<!DOCTYPE svg PUBLIC "-//W3C//DTD SVG 1.1//EN"
 "http://www.w3.org/Graphics/SVG/1.1/DTD/svg11.dtd">
<!-- Generated by graphviz version 2.43.0 (0)
 -->
<!-- Title: alps_common_lib/include/alps_cmn/actuator/i_motor.hpp Pages: 1 -->
<svg width="875pt" height="192pt"
 viewBox="0.00 0.00 875.00 192.00" xmlns="http://www.w3.org/2000/svg" xmlns:xlink="http://www.w3.org/1999/xlink">
<g id="graph0" class="graph" transform="scale(1 1) rotate(0) translate(4 188)">
<title>alps_common_lib/include/alps_cmn/actuator/i_motor.hpp</title>
<!-- Node1 -->
<g id="node1" class="node">
<title>Node1</title>
<g id="a_node1"><a xlink:title=" ">
<polygon fill="#999999" stroke="#666666" points="588.5,-184 417.5,-184 417.5,-154 588.5,-154 588.5,-184"/>
<text text-anchor="start" x="425.5" y="-172" font-family="Helvetica,sans-Serif" font-size="10.00">alps_common_lib/include</text>
<text text-anchor="middle" x="503" y="-161" font-family="Helvetica,sans-Serif" font-size="10.00">/alps_cmn/actuator/i_motor.hpp</text>
</a>
</g>
</g>
<!-- Node2 -->
<g id="node2" class="node">
<title>Node2</title>
<g id="a_node2"><a xlink:href="alps__common__lib_2include_2alps__cmn_2actuator_2dc__motor_8hpp.html" target="_top" xlink:title=" ">
<polygon fill="white" stroke="#666666" points="140,-118 0,-118 0,-77 140,-77 140,-118"/>
<text text-anchor="start" x="8" y="-106" font-family="Helvetica,sans-Serif" font-size="10.00">alps_common_lib/include</text>
<text text-anchor="start" x="8" y="-95" font-family="Helvetica,sans-Serif" font-size="10.00">/alps_cmn/actuator/dc</text>
<text text-anchor="middle" x="70" y="-84" font-family="Helvetica,sans-Serif" font-size="10.00">_motor.hpp</text>
</a>
</g>
</g>
<!-- Node1&#45;&gt;Node2 -->
<g id="edge1" class="edge">
<title>Node1&#45;&gt;Node2</title>
<path fill="none" stroke="#63b8ff" d="M407.14,-157.14C335.67,-148.39 235.83,-134.8 149,-118 146.09,-117.44 143.12,-116.83 140.13,-116.2"/>
<polygon fill="#63b8ff" stroke="#63b8ff" points="407.13,-160.66 417.48,-158.39 407.97,-153.71 407.13,-160.66"/>
</g>
<!-- Node4 -->
<g id="node4" class="node">
<title>Node4</title>
<g id="a_node4"><a xlink:href="robomas__motor_8hpp.html" target="_top" xlink:title="ロボマスモータのライブラリ">
<polygon fill="white" stroke="#666666" points="313.5,-118 158.5,-118 158.5,-77 313.5,-77 313.5,-118"/>
<text text-anchor="start" x="166.5" y="-106" font-family="Helvetica,sans-Serif" font-size="10.00">alps_common_lib/include</text>
<text text-anchor="start" x="166.5" y="-95" font-family="Helvetica,sans-Serif" font-size="10.00">/alps_cmn/actuator/robomas</text>
<text text-anchor="middle" x="236" y="-84" font-family="Helvetica,sans-Serif" font-size="10.00">_motor.hpp</text>
</a>
</g>
</g>
<!-- Node1&#45;&gt;Node4 -->
<g id="edge3" class="edge">
<title>Node1&#45;&gt;Node4</title>
<path fill="none" stroke="#63b8ff" d="M438.92,-151.32C400.41,-141.3 351.24,-128.5 310.94,-118.01"/>
<polygon fill="#63b8ff" stroke="#63b8ff" points="438.41,-154.8 448.97,-153.94 440.17,-148.03 438.41,-154.8"/>
</g>
<!-- Node5 -->
<g id="node5" class="node">
<title>Node5</title>
<g id="a_node5"><a xlink:href="friction__compensated__motor_8hpp.html" target="_top" xlink:title="モーターに対して摩擦補償を行うデコレーター">
<polygon fill="white" stroke="#666666" points="474.5,-118 331.5,-118 331.5,-77 474.5,-77 474.5,-118"/>
<text text-anchor="start" x="339.5" y="-106" font-family="Helvetica,sans-Serif" font-size="10.00">alps_common_lib/include</text>
<text text-anchor="start" x="339.5" y="-95" font-family="Helvetica,sans-Serif" font-size="10.00">/alps_cmn/control/friction</text>
<text text-anchor="middle" x="403" y="-84" font-family="Helvetica,sans-Serif" font-size="10.00">_compensated_motor.hpp</text>
</a>
</g>
</g>
<!-- Node1&#45;&gt;Node5 -->
<g id="edge4" class="edge">
<title>Node1&#45;&gt;Node5</title>
<path fill="none" stroke="#63b8ff" d="M474.29,-148.04C460.74,-138.63 444.64,-127.44 431.16,-118.07"/>
<polygon fill="#63b8ff" stroke="#63b8ff" points="472.55,-151.1 482.76,-153.94 476.55,-145.35 472.55,-151.1"/>
</g>
<!-- Node6 -->
<g id="node6" class="node">
<title>Node6</title>
<g id="a_node6"><a xlink:href="motor__friction__analyzer_8hpp.html" target="_top" xlink:title="モーター軸の摩擦力を計測するクラス">
<polygon fill="white" stroke="#666666" points="533,-41 373,-41 373,0 533,0 533,-41"/>
<text text-anchor="start" x="381" y="-29" font-family="Helvetica,sans-Serif" font-size="10.00">alps_common_lib/include</text>
<text text-anchor="start" x="381" y="-18" font-family="Helvetica,sans-Serif" font-size="10.00">/alps_cmn/tool/motor_friction</text>
<text text-anchor="middle" x="453" y="-7" font-family="Helvetica,sans-Serif" font-size="10.00">_analyzer.hpp</text>
</a>
</g>
</g>
<!-- Node1&#45;&gt;Node6 -->
<g id="edge11" class="edge">
<title>Node1&#45;&gt;Node6</title>
<path fill="none" stroke="#63b8ff" d="M499.57,-143.76C496.48,-125.12 491.15,-98.93 483,-77 478.38,-64.58 471.43,-51.5 465.38,-41.16"/>
<polygon fill="#63b8ff" stroke="#63b8ff" points="496.13,-144.44 501.13,-153.78 503.04,-143.36 496.13,-144.44"/>
</g>
<!-- Node7 -->
<g id="node7" class="node">
<title>Node7</title>
<g id="a_node7"><a xlink:href="motor__angle__controller_8hpp.html" target="_top" xlink:title=" ">
<polygon fill="white" stroke="#666666" points="671,-118 531,-118 531,-77 671,-77 671,-118"/>
<text text-anchor="start" x="539" y="-106" font-family="Helvetica,sans-Serif" font-size="10.00">alps_common_lib/include</text>
<text text-anchor="start" x="539" y="-95" font-family="Helvetica,sans-Serif" font-size="10.00">/alps_cmn/control/motor</text>
<text text-anchor="middle" x="601" y="-84" font-family="Helvetica,sans-Serif" font-size="10.00">_angle_controller.hpp</text>
</a>
</g>
</g>
<!-- Node1&#45;&gt;Node7 -->
<g id="edge6" class="edge">
<title>Node1&#45;&gt;Node7</title>
<path fill="none" stroke="#63b8ff" d="M531.14,-148.04C544.41,-138.63 560.2,-127.44 573.4,-118.07"/>
<polygon fill="#63b8ff" stroke="#63b8ff" points="528.96,-145.3 522.83,-153.94 533.01,-151.01 528.96,-145.3"/>
</g>
<!-- Node8 -->
<g id="node8" class="node">
<title>Node8</title>
<g id="a_node8"><a xlink:href="motor__angle__velocity__controller_8hpp.html" target="_top" xlink:title=" ">
<polygon fill="white" stroke="#666666" points="782,-41 616,-41 616,0 782,0 782,-41"/>
<text text-anchor="start" x="624" y="-29" font-family="Helvetica,sans-Serif" font-size="10.00">alps_common_lib/include</text>
<text text-anchor="start" x="624" y="-18" font-family="Helvetica,sans-Serif" font-size="10.00">/alps_cmn/control/motor</text>
<text text-anchor="middle" x="699" y="-7" font-family="Helvetica,sans-Serif" font-size="10.00">_angle_velocity_controller.hpp</text>
</a>
</g>
</g>
<!-- Node1&#45;&gt;Node8 -->
<g id="edge8" class="edge">
<title>Node1&#45;&gt;Node8</title>
<path fill="none" stroke="#63b8ff" d="M598.69,-160.45C628.48,-153.47 659,-140.78 680,-118 699.22,-97.16 701.5,-62.77 700.73,-41.17"/>
<polygon fill="#63b8ff" stroke="#63b8ff" points="597.68,-157.09 588.63,-162.61 599.14,-163.94 597.68,-157.09"/>
</g>
<!-- Node9 -->
<g id="node9" class="node">
<title>Node9</title>
<g id="a_node9"><a xlink:href="motor__velocity__controller_8hpp.html" target="_top" xlink:title=" ">
<polygon fill="white" stroke="#666666" points="867,-118 727,-118 727,-77 867,-77 867,-118"/>
<text text-anchor="start" x="735" y="-106" font-family="Helvetica,sans-Serif" font-size="10.00">alps_common_lib/include</text>
<text text-anchor="start" x="735" y="-95" font-family="Helvetica,sans-Serif" font-size="10.00">/alps_cmn/control/motor</text>
<text text-anchor="middle" x="797" y="-84" font-family="Helvetica,sans-Serif" font-size="10.00">_velocity_controller.hpp</text>
</a>
</g>
</g>
<!-- Node1&#45;&gt;Node9 -->
<g id="edge9" class="edge">
<title>Node1&#45;&gt;Node9</title>
<path fill="none" stroke="#63b8ff" d="M572.51,-151.57C619.12,-140.55 680.28,-126.09 726.99,-115.05"/>
<polygon fill="#63b8ff" stroke="#63b8ff" points="571.42,-148.23 562.5,-153.94 573.03,-155.04 571.42,-148.23"/>
</g>
<!-- Node3 -->
<g id="node3" class="node">
<title>Node3</title>
<g id="a_node3"><a xlink:href="alps__mbed__lib_2include_2alps__mbed_2actuator_2dc__motor_8hpp.html" target="_top" xlink:title=" ">
<polygon fill="white" stroke="#666666" points="135.5,-41 4.5,-41 4.5,0 135.5,0 135.5,-41"/>
<text text-anchor="start" x="12.5" y="-29" font-family="Helvetica,sans-Serif" font-size="10.00">alps_mbed_lib/include</text>
<text text-anchor="start" x="12.5" y="-18" font-family="Helvetica,sans-Serif" font-size="10.00">/alps_mbed/actuator/dc</text>
<text text-anchor="middle" x="70" y="-7" font-family="Helvetica,sans-Serif" font-size="10.00">_motor.hpp</text>
</a>
</g>
</g>
<!-- Node2&#45;&gt;Node3 -->
<g id="edge2" class="edge">
<title>Node2&#45;&gt;Node3</title>
<path fill="none" stroke="#63b8ff" d="M70,-66.69C70,-58.08 70,-48.9 70,-41.07"/>
<polygon fill="#63b8ff" stroke="#63b8ff" points="66.5,-66.79 70,-76.79 73.5,-66.79 66.5,-66.79"/>
</g>
<!-- Node5&#45;&gt;Node6 -->
<g id="edge5" class="edge">
<title>Node5&#45;&gt;Node6</title>
<path fill="none" stroke="#63b8ff" d="M421.74,-68.39C427.8,-59.3 434.39,-49.41 439.95,-41.07"/>
<polygon fill="#63b8ff" stroke="#63b8ff" points="418.77,-66.53 416.14,-76.79 424.6,-70.42 418.77,-66.53"/>
</g>
<!-- Node7&#45;&gt;Node8 -->
<g id="edge7" class="edge">
<title>Node7&#45;&gt;Node8</title>
<path fill="none" stroke="#63b8ff" d="M634.56,-70.82C647.24,-61.11 661.45,-50.24 673.29,-41.17"/>
<polygon fill="#63b8ff" stroke="#63b8ff" points="632.31,-68.13 626.49,-76.99 636.56,-73.69 632.31,-68.13"/>
</g>
<!-- Node9&#45;&gt;Node8 -->
<g id="edge10" class="edge">
<title>Node9&#45;&gt;Node8</title>
<path fill="none" stroke="#63b8ff" d="M763.44,-70.82C750.76,-61.11 736.55,-50.24 724.71,-41.17"/>
<polygon fill="#63b8ff" stroke="#63b8ff" points="761.44,-73.69 771.51,-76.99 765.69,-68.13 761.44,-73.69"/>
</g>
</g>
</svg>
