<?xml version="1.0" encoding="UTF-8" standalone="no"?>
<!DOCTYPE svg PUBLIC "-//W3C//DTD SVG 1.1//EN"
 "http://www.w3.org/Graphics/SVG/1.1/DTD/svg11.dtd">
<!-- Generated by graphviz version 2.43.0 (0)
 -->
<!-- Title: alps_common_lib/include/alps_cmn/actuator/i_motor.hpp Pages: 1 -->
<svg width="1391pt" height="206pt"
 viewBox="0.00 0.00 1390.50 206.00" xmlns="http://www.w3.org/2000/svg" xmlns:xlink="http://www.w3.org/1999/xlink">
<g id="graph0" class="graph" transform="scale(1 1) rotate(0) translate(4 202)">
<title>alps_common_lib/include/alps_cmn/actuator/i_motor.hpp</title>
<polygon fill="white" stroke="transparent" points="-4,4 -4,-202 1386.5,-202 1386.5,4 -4,4"/>
<!-- Node1 -->
<g id="node1" class="node">
<title>Node1</title>
<g id="a_node1"><a xlink:title=" ">
<polygon fill="#bfbfbf" stroke="black" points="685,-167.5 685,-197.5 855,-197.5 855,-167.5 685,-167.5"/>
<text text-anchor="start" x="693" y="-185.5" font-family="Helvetica,sans-Serif" font-size="10.00">alps_common_lib/include</text>
<text text-anchor="middle" x="770" y="-174.5" font-family="Helvetica,sans-Serif" font-size="10.00">/alps_cmn/actuator/i_motor.hpp</text>
</a>
</g>
</g>
<!-- Node2 -->
<g id="node2" class="node">
<title>Node2</title>
<g id="a_node2"><a xlink:href="alps__common__lib_2include_2alps__cmn_2actuator_2dc__motor_8hpp.html" target="_top" xlink:title=" ">
<polygon fill="white" stroke="black" points="0,-89.5 0,-130.5 140,-130.5 140,-89.5 0,-89.5"/>
<text text-anchor="start" x="8" y="-118.5" font-family="Helvetica,sans-Serif" font-size="10.00">alps_common_lib/include</text>
<text text-anchor="start" x="8" y="-107.5" font-family="Helvetica,sans-Serif" font-size="10.00">/alps_cmn/actuator/dc</text>
<text text-anchor="middle" x="70" y="-96.5" font-family="Helvetica,sans-Serif" font-size="10.00">_motor.hpp</text>
</a>
</g>
</g>
<!-- Node1&#45;&gt;Node2 -->
<g id="edge1" class="edge">
<title>Node1&#45;&gt;Node2</title>
<path fill="none" stroke="midnightblue" d="M674.73,-178.68C552.33,-173.94 333.62,-161.66 149,-131 146.07,-130.51 143.09,-129.97 140.08,-129.39"/>
<polygon fill="midnightblue" stroke="midnightblue" points="674.7,-182.19 684.83,-179.07 674.97,-175.19 674.7,-182.19"/>
</g>
<!-- Node4 -->
<g id="node4" class="node">
<title>Node4</title>
<g id="a_node4"><a xlink:href="esc__bldc__motor_8hpp.html" target="_top" xlink:title="ESCで動かすブラシレスDCモーター">
<polygon fill="white" stroke="black" points="158,-89.5 158,-130.5 298,-130.5 298,-89.5 158,-89.5"/>
<text text-anchor="start" x="166" y="-118.5" font-family="Helvetica,sans-Serif" font-size="10.00">alps_common_lib/include</text>
<text text-anchor="start" x="166" y="-107.5" font-family="Helvetica,sans-Serif" font-size="10.00">/alps_cmn/actuator/esc</text>
<text text-anchor="middle" x="228" y="-96.5" font-family="Helvetica,sans-Serif" font-size="10.00">_bldc_motor.hpp</text>
</a>
</g>
</g>
<!-- Node1&#45;&gt;Node4 -->
<g id="edge3" class="edge">
<title>Node1&#45;&gt;Node4</title>
<path fill="none" stroke="midnightblue" d="M674.52,-174.99C580.51,-167.67 433.11,-153.73 307,-131 304.08,-130.47 301.1,-129.9 298.1,-129.29"/>
<polygon fill="midnightblue" stroke="midnightblue" points="674.34,-178.49 684.58,-175.77 674.88,-171.51 674.34,-178.49"/>
</g>
<!-- Node5 -->
<g id="node5" class="node">
<title>Node5</title>
<g id="a_node5"><a xlink:href="output__change__limit__motor__decorator_8hpp.html" target="_top" xlink:title="出力変化制限を掛けるモーターデコレータ">
<polygon fill="white" stroke="black" points="316.5,-89.5 316.5,-130.5 507.5,-130.5 507.5,-89.5 316.5,-89.5"/>
<text text-anchor="start" x="324.5" y="-118.5" font-family="Helvetica,sans-Serif" font-size="10.00">alps_common_lib/include</text>
<text text-anchor="start" x="324.5" y="-107.5" font-family="Helvetica,sans-Serif" font-size="10.00">/alps_cmn/actuator/output</text>
<text text-anchor="middle" x="412" y="-96.5" font-family="Helvetica,sans-Serif" font-size="10.00">_change_limit_motor_decorator.hpp</text>
</a>
</g>
</g>
<!-- Node1&#45;&gt;Node5 -->
<g id="edge4" class="edge">
<title>Node1&#45;&gt;Node5</title>
<path fill="none" stroke="midnightblue" d="M689.01,-165.55C635.22,-154.96 564.36,-141 507.77,-129.86"/>
<polygon fill="midnightblue" stroke="midnightblue" points="688.35,-168.99 698.84,-167.49 689.71,-162.12 688.35,-168.99"/>
</g>
<!-- Node6 -->
<g id="node6" class="node">
<title>Node6</title>
<g id="a_node6"><a xlink:href="robomas__motor_8hpp.html" target="_top" xlink:title="ロボマスモータのライブラリ">
<polygon fill="white" stroke="black" points="525.5,-89.5 525.5,-130.5 680.5,-130.5 680.5,-89.5 525.5,-89.5"/>
<text text-anchor="start" x="533.5" y="-118.5" font-family="Helvetica,sans-Serif" font-size="10.00">alps_common_lib/include</text>
<text text-anchor="start" x="533.5" y="-107.5" font-family="Helvetica,sans-Serif" font-size="10.00">/alps_cmn/actuator/robomas</text>
<text text-anchor="middle" x="603" y="-96.5" font-family="Helvetica,sans-Serif" font-size="10.00">_motor.hpp</text>
</a>
</g>
</g>
<!-- Node1&#45;&gt;Node6 -->
<g id="edge5" class="edge">
<title>Node1&#45;&gt;Node6</title>
<path fill="none" stroke="midnightblue" d="M727.12,-163.4C703.3,-153.34 673.65,-140.83 649.3,-130.55"/>
<polygon fill="midnightblue" stroke="midnightblue" points="726.03,-166.74 736.61,-167.4 728.75,-160.29 726.03,-166.74"/>
</g>
<!-- Node7 -->
<g id="node7" class="node">
<title>Node7</title>
<g id="a_node7"><a xlink:href="friction__compensated__motor_8hpp.html" target="_top" xlink:title="モーターに対して摩擦補償を行うデコレーター">
<polygon fill="white" stroke="black" points="698.5,-89.5 698.5,-130.5 841.5,-130.5 841.5,-89.5 698.5,-89.5"/>
<text text-anchor="start" x="706.5" y="-118.5" font-family="Helvetica,sans-Serif" font-size="10.00">alps_common_lib/include</text>
<text text-anchor="start" x="706.5" y="-107.5" font-family="Helvetica,sans-Serif" font-size="10.00">/alps_cmn/control/friction</text>
<text text-anchor="middle" x="770" y="-96.5" font-family="Helvetica,sans-Serif" font-size="10.00">_compensated_motor.hpp</text>
</a>
</g>
</g>
<!-- Node1&#45;&gt;Node7 -->
<g id="edge6" class="edge">
<title>Node1&#45;&gt;Node7</title>
<path fill="none" stroke="midnightblue" d="M770,-156.98C770,-148.35 770,-138.76 770,-130.59"/>
<polygon fill="midnightblue" stroke="midnightblue" points="766.5,-157.23 770,-167.23 773.5,-157.23 766.5,-157.23"/>
</g>
<!-- Node8 -->
<g id="node8" class="node">
<title>Node8</title>
<g id="a_node8"><a xlink:href="motor__friction__analyzer_8hpp.html" target="_top" xlink:title="モーター軸の摩擦力を計測するクラス">
<polygon fill="white" stroke="black" points="711,-6 711,-47 871,-47 871,-6 711,-6"/>
<text text-anchor="start" x="719" y="-35" font-family="Helvetica,sans-Serif" font-size="10.00">alps_common_lib/include</text>
<text text-anchor="start" x="719" y="-24" font-family="Helvetica,sans-Serif" font-size="10.00">/alps_cmn/tool/motor_friction</text>
<text text-anchor="middle" x="791" y="-13" font-family="Helvetica,sans-Serif" font-size="10.00">_analyzer.hpp</text>
</a>
</g>
</g>
<!-- Node1&#45;&gt;Node8 -->
<g id="edge15" class="edge">
<title>Node1&#45;&gt;Node8</title>
<path fill="none" stroke="midnightblue" d="M816.84,-162.53C829.93,-154.8 842.59,-144.44 850,-131 859.01,-114.65 856.96,-106.32 850,-89 843.38,-72.53 830,-57.98 817.65,-47.18"/>
<polygon fill="midnightblue" stroke="midnightblue" points="814.88,-159.61 807.77,-167.47 818.23,-165.76 814.88,-159.61"/>
</g>
<!-- Node9 -->
<g id="node9" class="node">
<title>Node9</title>
<g id="a_node9"><a xlink:href="motor__angle__controller_8hpp.html" target="_top" xlink:title=" ">
<polygon fill="white" stroke="black" points="898,-89.5 898,-130.5 1038,-130.5 1038,-89.5 898,-89.5"/>
<text text-anchor="start" x="906" y="-118.5" font-family="Helvetica,sans-Serif" font-size="10.00">alps_common_lib/include</text>
<text text-anchor="start" x="906" y="-107.5" font-family="Helvetica,sans-Serif" font-size="10.00">/alps_cmn/control/motor</text>
<text text-anchor="middle" x="968" y="-96.5" font-family="Helvetica,sans-Serif" font-size="10.00">_angle_controller.hpp</text>
</a>
</g>
</g>
<!-- Node1&#45;&gt;Node9 -->
<g id="edge8" class="edge">
<title>Node1&#45;&gt;Node9</title>
<path fill="none" stroke="midnightblue" d="M819.34,-163.93C847.83,-153.79 883.72,-141.01 913.1,-130.55"/>
<polygon fill="midnightblue" stroke="midnightblue" points="817.84,-160.75 809.59,-167.4 820.19,-167.35 817.84,-160.75"/>
</g>
<!-- Node10 -->
<g id="node10" class="node">
<title>Node10</title>
<g id="a_node10"><a xlink:href="motor__angle__velocity__controller_8hpp.html" target="_top" xlink:title=" ">
<polygon fill="white" stroke="black" points="911.5,-6 911.5,-47 1076.5,-47 1076.5,-6 911.5,-6"/>
<text text-anchor="start" x="919.5" y="-35" font-family="Helvetica,sans-Serif" font-size="10.00">alps_common_lib/include</text>
<text text-anchor="start" x="919.5" y="-24" font-family="Helvetica,sans-Serif" font-size="10.00">/alps_cmn/control/motor</text>
<text text-anchor="middle" x="994" y="-13" font-family="Helvetica,sans-Serif" font-size="10.00">_angle_velocity_controller.hpp</text>
</a>
</g>
</g>
<!-- Node1&#45;&gt;Node10 -->
<g id="edge10" class="edge">
<title>Node1&#45;&gt;Node10</title>
<path fill="none" stroke="midnightblue" d="M865.34,-176.84C936.04,-171.15 1023.98,-158.59 1047,-131 1068.47,-105.27 1039.81,-69.39 1017.01,-47.34"/>
<polygon fill="midnightblue" stroke="midnightblue" points="864.75,-173.37 855.05,-177.63 865.29,-180.35 864.75,-173.37"/>
</g>
<!-- Node11 -->
<g id="node11" class="node">
<title>Node11</title>
<g id="a_node11"><a xlink:href="motor__velocity__controller_8hpp.html" target="_top" xlink:title=" ">
<polygon fill="white" stroke="black" points="1094,-89.5 1094,-130.5 1234,-130.5 1234,-89.5 1094,-89.5"/>
<text text-anchor="start" x="1102" y="-118.5" font-family="Helvetica,sans-Serif" font-size="10.00">alps_common_lib/include</text>
<text text-anchor="start" x="1102" y="-107.5" font-family="Helvetica,sans-Serif" font-size="10.00">/alps_cmn/control/motor</text>
<text text-anchor="middle" x="1164" y="-96.5" font-family="Helvetica,sans-Serif" font-size="10.00">_velocity_controller.hpp</text>
</a>
</g>
</g>
<!-- Node1&#45;&gt;Node11 -->
<g id="edge11" class="edge">
<title>Node1&#45;&gt;Node11</title>
<path fill="none" stroke="midnightblue" d="M865.24,-167.81C926.73,-158.52 1008.33,-145.35 1080,-131 1084.56,-130.09 1089.24,-129.1 1093.96,-128.08"/>
<polygon fill="midnightblue" stroke="midnightblue" points="864.53,-164.37 855.16,-169.32 865.57,-171.3 864.53,-164.37"/>
</g>
<!-- Node3 -->
<g id="node3" class="node">
<title>Node3</title>
<g id="a_node3"><a xlink:href="alps__mbed__lib_2include_2alps__mbed_2actuator_2dc__motor_8hpp.html" target="_top" xlink:title=" ">
<polygon fill="white" stroke="black" points="4.5,-6 4.5,-47 135.5,-47 135.5,-6 4.5,-6"/>
<text text-anchor="start" x="12.5" y="-35" font-family="Helvetica,sans-Serif" font-size="10.00">alps_mbed_lib/include</text>
<text text-anchor="start" x="12.5" y="-24" font-family="Helvetica,sans-Serif" font-size="10.00">/alps_mbed/actuator/dc</text>
<text text-anchor="middle" x="70" y="-13" font-family="Helvetica,sans-Serif" font-size="10.00">_motor.hpp</text>
</a>
</g>
</g>
<!-- Node2&#45;&gt;Node3 -->
<g id="edge2" class="edge">
<title>Node2&#45;&gt;Node3</title>
<path fill="none" stroke="midnightblue" d="M70,-79.06C70,-68.38 70,-56.63 70,-47.05"/>
<polygon fill="midnightblue" stroke="midnightblue" points="66.5,-79.27 70,-89.27 73.5,-79.27 66.5,-79.27"/>
</g>
<!-- Node7&#45;&gt;Node8 -->
<g id="edge7" class="edge">
<title>Node7&#45;&gt;Node8</title>
<path fill="none" stroke="midnightblue" d="M777.63,-79.4C780.4,-68.63 783.47,-56.73 785.96,-47.05"/>
<polygon fill="midnightblue" stroke="midnightblue" points="774.19,-78.71 775.08,-89.27 780.97,-80.46 774.19,-78.71"/>
</g>
<!-- Node9&#45;&gt;Node10 -->
<g id="edge9" class="edge">
<title>Node9&#45;&gt;Node10</title>
<path fill="none" stroke="midnightblue" d="M977.34,-79.73C980.8,-68.87 984.64,-56.83 987.76,-47.05"/>
<polygon fill="midnightblue" stroke="midnightblue" points="974,-78.68 974.29,-89.27 980.67,-80.81 974,-78.68"/>
</g>
<!-- Node11&#45;&gt;Node10 -->
<g id="edge12" class="edge">
<title>Node11&#45;&gt;Node10</title>
<path fill="none" stroke="midnightblue" d="M1114.21,-85.13C1088.91,-73 1058.56,-58.45 1034.68,-47"/>
<polygon fill="midnightblue" stroke="midnightblue" points="1112.75,-88.31 1123.28,-89.48 1115.78,-82 1112.75,-88.31"/>
</g>
<!-- Node12 -->
<g id="node12" class="node">
<title>Node12</title>
<g id="a_node12"><a xlink:href="custom__type__param__conversion__rule_8hpp.html" target="_top" xlink:title=" ">
<polygon fill="white" stroke="black" points="1094.5,-0.5 1094.5,-52.5 1233.5,-52.5 1233.5,-0.5 1094.5,-0.5"/>
<text text-anchor="start" x="1102.5" y="-40.5" font-family="Helvetica,sans-Serif" font-size="10.00">alps_ros2_lib/include</text>
<text text-anchor="start" x="1102.5" y="-29.5" font-family="Helvetica,sans-Serif" font-size="10.00">/alps_ros2/type/custom</text>
<text text-anchor="start" x="1102.5" y="-18.5" font-family="Helvetica,sans-Serif" font-size="10.00">_type_param_conversion</text>
<text text-anchor="middle" x="1164" y="-7.5" font-family="Helvetica,sans-Serif" font-size="10.00">_rule.hpp</text>
</a>
</g>
</g>
<!-- Node11&#45;&gt;Node12 -->
<g id="edge13" class="edge">
<title>Node11&#45;&gt;Node12</title>
<path fill="none" stroke="midnightblue" d="M1164,-79.12C1164,-70.41 1164,-60.99 1164,-52.61"/>
<polygon fill="midnightblue" stroke="midnightblue" points="1160.5,-79.27 1164,-89.27 1167.5,-79.27 1160.5,-79.27"/>
</g>
<!-- Node13 -->
<g id="node13" class="node">
<title>Node13</title>
<g id="a_node13"><a xlink:href="custom__type__topic__conversion__rule_8hpp.html" target="_top" xlink:title=" ">
<polygon fill="white" stroke="black" points="1251.5,-0.5 1251.5,-52.5 1382.5,-52.5 1382.5,-0.5 1251.5,-0.5"/>
<text text-anchor="start" x="1259.5" y="-40.5" font-family="Helvetica,sans-Serif" font-size="10.00">alps_ros2_lib/include</text>
<text text-anchor="start" x="1259.5" y="-29.5" font-family="Helvetica,sans-Serif" font-size="10.00">/alps_ros2/type/custom</text>
<text text-anchor="start" x="1259.5" y="-18.5" font-family="Helvetica,sans-Serif" font-size="10.00">_type_topic_conversion</text>
<text text-anchor="middle" x="1317" y="-7.5" font-family="Helvetica,sans-Serif" font-size="10.00">_rule.hpp</text>
</a>
</g>
</g>
<!-- Node11&#45;&gt;Node13 -->
<g id="edge14" class="edge">
<title>Node11&#45;&gt;Node13</title>
<path fill="none" stroke="midnightblue" d="M1209.71,-84.65C1228.72,-74.53 1250.77,-62.78 1269.92,-52.58"/>
<polygon fill="midnightblue" stroke="midnightblue" points="1207.83,-81.69 1200.65,-89.48 1211.12,-87.87 1207.83,-81.69"/>
</g>
</g>
</svg>
