<?xml version="1.0" encoding="UTF-8" standalone="no"?>
<!DOCTYPE svg PUBLIC "-//W3C//DTD SVG 1.1//EN"
 "http://www.w3.org/Graphics/SVG/1.1/DTD/svg11.dtd">
<!-- Generated by graphviz version 2.43.0 (0)
 -->
<!-- Title: alps_common_lib/include/alps_cmn/gpio/i_pwm_out.hpp Pages: 1 -->
<svg width="490pt" height="192pt"
 viewBox="0.00 0.00 490.00 192.00" xmlns="http://www.w3.org/2000/svg" xmlns:xlink="http://www.w3.org/1999/xlink">
<g id="graph0" class="graph" transform="scale(1 1) rotate(0) translate(4 188)">
<title>alps_common_lib/include/alps_cmn/gpio/i_pwm_out.hpp</title>
<!-- Node1 -->
<g id="node1" class="node">
<title>Node1</title>
<g id="a_node1"><a xlink:title="PWM出力を行うインタフェース">
<polygon fill="#999999" stroke="#666666" points="324.5,-184 157.5,-184 157.5,-154 324.5,-154 324.5,-184"/>
<text text-anchor="start" x="165.5" y="-172" font-family="Helvetica,sans-Serif" font-size="10.00">alps_common_lib/include</text>
<text text-anchor="middle" x="241" y="-161" font-family="Helvetica,sans-Serif" font-size="10.00">/alps_cmn/gpio/i_pwm_out.hpp</text>
</a>
</g>
</g>
<!-- Node2 -->
<g id="node2" class="node">
<title>Node2</title>
<g id="a_node2"><a xlink:href="alps__common__lib_2include_2alps__cmn_2actuator_2dc__motor_8hpp.html" target="_top" xlink:title=" ">
<polygon fill="white" stroke="#666666" points="140,-118 0,-118 0,-77 140,-77 140,-118"/>
<text text-anchor="start" x="8" y="-106" font-family="Helvetica,sans-Serif" font-size="10.00">alps_common_lib/include</text>
<text text-anchor="start" x="8" y="-95" font-family="Helvetica,sans-Serif" font-size="10.00">/alps_cmn/actuator/dc</text>
<text text-anchor="middle" x="70" y="-84" font-family="Helvetica,sans-Serif" font-size="10.00">_motor.hpp</text>
</a>
</g>
</g>
<!-- Node1&#45;&gt;Node2 -->
<g id="edge1" class="edge">
<title>Node1&#45;&gt;Node2</title>
<path fill="none" stroke="#63b8ff" d="M197.11,-150.16C172.96,-140.35 142.95,-128.15 118.16,-118.07"/>
<polygon fill="#63b8ff" stroke="#63b8ff" points="195.81,-153.41 206.4,-153.94 198.45,-146.93 195.81,-153.41"/>
</g>
<!-- Node4 -->
<g id="node4" class="node">
<title>Node4</title>
<g id="a_node4"><a xlink:href="alps__common__lib_2include_2alps__cmn_2actuator_2servo__motor_8hpp.html" target="_top" xlink:title=" ">
<polygon fill="white" stroke="#666666" points="482,-118 342,-118 342,-77 482,-77 482,-118"/>
<text text-anchor="start" x="350" y="-106" font-family="Helvetica,sans-Serif" font-size="10.00">alps_common_lib/include</text>
<text text-anchor="start" x="350" y="-95" font-family="Helvetica,sans-Serif" font-size="10.00">/alps_cmn/actuator/servo</text>
<text text-anchor="middle" x="412" y="-84" font-family="Helvetica,sans-Serif" font-size="10.00">_motor.hpp</text>
</a>
</g>
</g>
<!-- Node1&#45;&gt;Node4 -->
<g id="edge3" class="edge">
<title>Node1&#45;&gt;Node4</title>
<path fill="none" stroke="#63b8ff" d="M284.89,-150.16C309.04,-140.35 339.05,-128.15 363.84,-118.07"/>
<polygon fill="#63b8ff" stroke="#63b8ff" points="283.55,-146.93 275.6,-153.94 286.19,-153.41 283.55,-146.93"/>
</g>
<!-- Node6 -->
<g id="node6" class="node">
<title>Node6</title>
<g id="a_node6"><a xlink:href="pwm__out_8hpp.html" target="_top" xlink:title=" ">
<polygon fill="white" stroke="#666666" points="324,-112.5 158,-112.5 158,-82.5 324,-82.5 324,-112.5"/>
<text text-anchor="start" x="166" y="-100.5" font-family="Helvetica,sans-Serif" font-size="10.00">alps_mbed_lib/include</text>
<text text-anchor="middle" x="241" y="-89.5" font-family="Helvetica,sans-Serif" font-size="10.00">/alps_mbed/gpio/pwm_out.hpp</text>
</a>
</g>
</g>
<!-- Node1&#45;&gt;Node6 -->
<g id="edge5" class="edge">
<title>Node1&#45;&gt;Node6</title>
<path fill="none" stroke="#63b8ff" d="M241,-143.75C241,-133.31 241,-121.49 241,-112.54"/>
<polygon fill="#63b8ff" stroke="#63b8ff" points="237.5,-143.94 241,-153.94 244.5,-143.94 237.5,-143.94"/>
</g>
<!-- Node3 -->
<g id="node3" class="node">
<title>Node3</title>
<g id="a_node3"><a xlink:href="alps__mbed__lib_2include_2alps__mbed_2actuator_2dc__motor_8hpp.html" target="_top" xlink:title=" ">
<polygon fill="white" stroke="#666666" points="224.5,-41 93.5,-41 93.5,0 224.5,0 224.5,-41"/>
<text text-anchor="start" x="101.5" y="-29" font-family="Helvetica,sans-Serif" font-size="10.00">alps_mbed_lib/include</text>
<text text-anchor="start" x="101.5" y="-18" font-family="Helvetica,sans-Serif" font-size="10.00">/alps_mbed/actuator/dc</text>
<text text-anchor="middle" x="159" y="-7" font-family="Helvetica,sans-Serif" font-size="10.00">_motor.hpp</text>
</a>
</g>
</g>
<!-- Node2&#45;&gt;Node3 -->
<g id="edge2" class="edge">
<title>Node2&#45;&gt;Node3</title>
<path fill="none" stroke="#63b8ff" d="M101.03,-70.35C112.45,-60.73 125.16,-50.01 135.77,-41.07"/>
<polygon fill="#63b8ff" stroke="#63b8ff" points="98.78,-67.67 93.38,-76.79 103.29,-73.03 98.78,-67.67"/>
</g>
<!-- Node5 -->
<g id="node5" class="node">
<title>Node5</title>
<g id="a_node5"><a xlink:href="alps__mbed__lib_2include_2alps__mbed_2actuator_2servo__motor_8hpp.html" target="_top" xlink:title=" ">
<polygon fill="white" stroke="#666666" points="396,-41 250,-41 250,0 396,0 396,-41"/>
<text text-anchor="start" x="258" y="-29" font-family="Helvetica,sans-Serif" font-size="10.00">alps_mbed_lib/include</text>
<text text-anchor="start" x="258" y="-18" font-family="Helvetica,sans-Serif" font-size="10.00">/alps_mbed/actuator/servo</text>
<text text-anchor="middle" x="323" y="-7" font-family="Helvetica,sans-Serif" font-size="10.00">_motor.hpp</text>
</a>
</g>
</g>
<!-- Node4&#45;&gt;Node5 -->
<g id="edge4" class="edge">
<title>Node4&#45;&gt;Node5</title>
<path fill="none" stroke="#63b8ff" d="M380.97,-70.35C369.55,-60.73 356.84,-50.01 346.23,-41.07"/>
<polygon fill="#63b8ff" stroke="#63b8ff" points="378.71,-73.03 388.62,-76.79 383.22,-67.67 378.71,-73.03"/>
</g>
<!-- Node6&#45;&gt;Node3 -->
<g id="edge6" class="edge">
<title>Node6&#45;&gt;Node3</title>
<path fill="none" stroke="#63b8ff" d="M217.91,-75.38C206.19,-64.66 192.04,-51.72 180.54,-41.2"/>
<polygon fill="#63b8ff" stroke="#63b8ff" points="215.84,-78.23 225.58,-82.39 220.56,-73.06 215.84,-78.23"/>
</g>
<!-- Node6&#45;&gt;Node5 -->
<g id="edge7" class="edge">
<title>Node6&#45;&gt;Node5</title>
<path fill="none" stroke="#63b8ff" d="M264.09,-75.38C275.81,-64.66 289.96,-51.72 301.46,-41.2"/>
<polygon fill="#63b8ff" stroke="#63b8ff" points="261.44,-73.06 256.42,-82.39 266.16,-78.23 261.44,-73.06"/>
</g>
</g>
</svg>
