<?xml version="1.0" encoding="UTF-8" standalone="no"?>
<!DOCTYPE svg PUBLIC "-//W3C//DTD SVG 1.1//EN"
 "http://www.w3.org/Graphics/SVG/1.1/DTD/svg11.dtd">
<!-- Generated by graphviz version 2.43.0 (0)
 -->
<!-- Title: alps_core/lib_internal/alps_common_lib/include/alps_cmn/gpio/i_pwm_out.hpp Pages: 1 -->
<svg width="706pt" height="228pt"
 viewBox="0.00 0.00 706.00 228.00" xmlns="http://www.w3.org/2000/svg" xmlns:xlink="http://www.w3.org/1999/xlink">
<g id="graph0" class="graph" transform="scale(1 1) rotate(0) translate(4 224)">
<title>alps_core/lib_internal/alps_common_lib/include/alps_cmn/gpio/i_pwm_out.hpp</title>
<polygon fill="white" stroke="transparent" points="-4,4 -4,-224 702,-224 702,4 -4,4"/>
<!-- Node1 -->
<g id="node1" class="node">
<title>Node1</title>
<g id="a_node1"><a xlink:title="PWM出力を行うインタフェース">
<polygon fill="#bfbfbf" stroke="black" points="280,-178.5 280,-219.5 447,-219.5 447,-178.5 280,-178.5"/>
<text text-anchor="start" x="288" y="-207.5" font-family="Helvetica,sans-Serif" font-size="10.00">alps_core/lib_internal</text>
<text text-anchor="start" x="288" y="-196.5" font-family="Helvetica,sans-Serif" font-size="10.00">/alps_common_lib/include</text>
<text text-anchor="middle" x="363.5" y="-185.5" font-family="Helvetica,sans-Serif" font-size="10.00">/alps_cmn/gpio/i_pwm_out.hpp</text>
</a>
</g>
</g>
<!-- Node2 -->
<g id="node2" class="node">
<title>Node2</title>
<g id="a_node2"><a xlink:href="alps__common__lib_2include_2alps__cmn_2actuator_2dc__motor_8hpp.html" target="_top" xlink:title=" ">
<polygon fill="white" stroke="black" points="0,-95 0,-136 179,-136 179,-95 0,-95"/>
<text text-anchor="start" x="8" y="-124" font-family="Helvetica,sans-Serif" font-size="10.00">alps_core/lib_internal</text>
<text text-anchor="start" x="8" y="-113" font-family="Helvetica,sans-Serif" font-size="10.00">/alps_common_lib/include</text>
<text text-anchor="middle" x="89.5" y="-102" font-family="Helvetica,sans-Serif" font-size="10.00">/alps_cmn/actuator/dc_motor.hpp</text>
</a>
</g>
</g>
<!-- Node1&#45;&gt;Node2 -->
<g id="edge1" class="edge">
<title>Node1&#45;&gt;Node2</title>
<path fill="none" stroke="midnightblue" d="M288.04,-175.55C246.35,-163.16 195.07,-147.9 155.07,-136"/>
<polygon fill="midnightblue" stroke="midnightblue" points="287.29,-178.98 297.87,-178.48 289.28,-172.27 287.29,-178.98"/>
</g>
<!-- Node4 -->
<g id="node4" class="node">
<title>Node4</title>
<g id="a_node4"><a xlink:href="esc__bldc__motor_8hpp.html" target="_top" xlink:title="ESCで動かすブラシレスDCモーター">
<polygon fill="white" stroke="black" points="197,-89.5 197,-141.5 352,-141.5 352,-89.5 197,-89.5"/>
<text text-anchor="start" x="205" y="-129.5" font-family="Helvetica,sans-Serif" font-size="10.00">alps_core/lib_internal</text>
<text text-anchor="start" x="205" y="-118.5" font-family="Helvetica,sans-Serif" font-size="10.00">/alps_common_lib/include</text>
<text text-anchor="start" x="205" y="-107.5" font-family="Helvetica,sans-Serif" font-size="10.00">/alps_cmn/actuator/esc_bldc</text>
<text text-anchor="middle" x="274.5" y="-96.5" font-family="Helvetica,sans-Serif" font-size="10.00">_motor.hpp</text>
</a>
</g>
</g>
<!-- Node1&#45;&gt;Node4 -->
<g id="edge3" class="edge">
<title>Node1&#45;&gt;Node4</title>
<path fill="none" stroke="midnightblue" d="M334.28,-171.24C323.87,-161.71 312.18,-151 301.92,-141.61"/>
<polygon fill="midnightblue" stroke="midnightblue" points="332.22,-174.1 341.96,-178.27 336.94,-168.94 332.22,-174.1"/>
</g>
<!-- Node5 -->
<g id="node5" class="node">
<title>Node5</title>
<g id="a_node5"><a xlink:href="alps__common__lib_2include_2alps__cmn_2actuator_2servo__motor_8hpp.html" target="_top" xlink:title=" ">
<polygon fill="white" stroke="black" points="555,-89.5 555,-141.5 698,-141.5 698,-89.5 555,-89.5"/>
<text text-anchor="start" x="563" y="-129.5" font-family="Helvetica,sans-Serif" font-size="10.00">alps_core/lib_internal</text>
<text text-anchor="start" x="563" y="-118.5" font-family="Helvetica,sans-Serif" font-size="10.00">/alps_common_lib/include</text>
<text text-anchor="start" x="563" y="-107.5" font-family="Helvetica,sans-Serif" font-size="10.00">/alps_cmn/actuator/servo</text>
<text text-anchor="middle" x="626.5" y="-96.5" font-family="Helvetica,sans-Serif" font-size="10.00">_motor.hpp</text>
</a>
</g>
</g>
<!-- Node1&#45;&gt;Node5 -->
<g id="edge4" class="edge">
<title>Node1&#45;&gt;Node5</title>
<path fill="none" stroke="midnightblue" d="M437.16,-175.45C470.29,-165.28 509.88,-153.09 545.5,-142 548.6,-141.04 551.76,-140.05 554.95,-139.05"/>
<polygon fill="midnightblue" stroke="midnightblue" points="436.08,-172.13 427.54,-178.4 438.13,-178.82 436.08,-172.13"/>
</g>
<!-- Node7 -->
<g id="node7" class="node">
<title>Node7</title>
<g id="a_node7"><a xlink:href="pwm__out_8hpp.html" target="_top" xlink:title="PWM出力ピン">
<polygon fill="white" stroke="black" points="370.5,-95 370.5,-136 536.5,-136 536.5,-95 370.5,-95"/>
<text text-anchor="start" x="378.5" y="-124" font-family="Helvetica,sans-Serif" font-size="10.00">alps_core/lib_internal</text>
<text text-anchor="start" x="378.5" y="-113" font-family="Helvetica,sans-Serif" font-size="10.00">/alps_mbed_lib/include</text>
<text text-anchor="middle" x="453.5" y="-102" font-family="Helvetica,sans-Serif" font-size="10.00">/alps_mbed/gpio/pwm_out.hpp</text>
</a>
</g>
</g>
<!-- Node1&#45;&gt;Node7 -->
<g id="edge6" class="edge">
<title>Node1&#45;&gt;Node7</title>
<path fill="none" stroke="midnightblue" d="M392.91,-171.36C405.62,-159.85 420.23,-146.63 431.91,-136.05"/>
<polygon fill="midnightblue" stroke="midnightblue" points="390.35,-168.96 385.29,-178.27 395.05,-174.15 390.35,-168.96"/>
</g>
<!-- Node3 -->
<g id="node3" class="node">
<title>Node3</title>
<g id="a_node3"><a xlink:href="alps__mbed__lib_2include_2alps__mbed_2actuator_2dc__motor_8hpp.html" target="_top" xlink:title=" ">
<polygon fill="white" stroke="black" points="214,-0.5 214,-52.5 345,-52.5 345,-0.5 214,-0.5"/>
<text text-anchor="start" x="222" y="-40.5" font-family="Helvetica,sans-Serif" font-size="10.00">alps_core/lib_internal</text>
<text text-anchor="start" x="222" y="-29.5" font-family="Helvetica,sans-Serif" font-size="10.00">/alps_mbed_lib/include</text>
<text text-anchor="start" x="222" y="-18.5" font-family="Helvetica,sans-Serif" font-size="10.00">/alps_mbed/actuator/dc</text>
<text text-anchor="middle" x="279.5" y="-7.5" font-family="Helvetica,sans-Serif" font-size="10.00">_motor.hpp</text>
</a>
</g>
</g>
<!-- Node2&#45;&gt;Node3 -->
<g id="edge2" class="edge">
<title>Node2&#45;&gt;Node3</title>
<path fill="none" stroke="midnightblue" d="M141.4,-90.74C167.24,-78.9 198.49,-64.59 224.72,-52.58"/>
<polygon fill="midnightblue" stroke="midnightblue" points="139.77,-87.63 132.14,-94.98 142.69,-93.99 139.77,-87.63"/>
</g>
<!-- Node6 -->
<g id="node6" class="node">
<title>Node6</title>
<g id="a_node6"><a xlink:href="alps__mbed__lib_2include_2alps__mbed_2actuator_2servo__motor_8hpp.html" target="_top" xlink:title=" ">
<polygon fill="white" stroke="black" points="466.5,-0.5 466.5,-52.5 612.5,-52.5 612.5,-0.5 466.5,-0.5"/>
<text text-anchor="start" x="474.5" y="-40.5" font-family="Helvetica,sans-Serif" font-size="10.00">alps_core/lib_internal</text>
<text text-anchor="start" x="474.5" y="-29.5" font-family="Helvetica,sans-Serif" font-size="10.00">/alps_mbed_lib/include</text>
<text text-anchor="start" x="474.5" y="-18.5" font-family="Helvetica,sans-Serif" font-size="10.00">/alps_mbed/actuator/servo</text>
<text text-anchor="middle" x="539.5" y="-7.5" font-family="Helvetica,sans-Serif" font-size="10.00">_motor.hpp</text>
</a>
</g>
</g>
<!-- Node5&#45;&gt;Node6 -->
<g id="edge5" class="edge">
<title>Node5&#45;&gt;Node6</title>
<path fill="none" stroke="midnightblue" d="M594.08,-82.08C584.34,-72.34 573.8,-61.8 564.61,-52.61"/>
<polygon fill="midnightblue" stroke="midnightblue" points="591.79,-84.74 601.34,-89.34 596.74,-79.79 591.79,-84.74"/>
</g>
<!-- Node7&#45;&gt;Node3 -->
<g id="edge7" class="edge">
<title>Node7&#45;&gt;Node3</title>
<path fill="none" stroke="midnightblue" d="M405.35,-90.42C381.8,-78.65 353.48,-64.49 329.67,-52.58"/>
<polygon fill="midnightblue" stroke="midnightblue" points="403.94,-93.63 414.45,-94.98 407.07,-87.37 403.94,-93.63"/>
</g>
<!-- Node7&#45;&gt;Node6 -->
<g id="edge8" class="edge">
<title>Node7&#45;&gt;Node6</title>
<path fill="none" stroke="midnightblue" d="M480.27,-87.41C491.2,-76.36 503.77,-63.65 514.5,-52.79"/>
<polygon fill="midnightblue" stroke="midnightblue" points="477.56,-85.19 473.01,-94.76 482.53,-90.11 477.56,-85.19"/>
</g>
</g>
</svg>
