<?xml version="1.0" encoding="UTF-8" standalone="no"?>
<!DOCTYPE svg PUBLIC "-//W3C//DTD SVG 1.1//EN"
 "http://www.w3.org/Graphics/SVG/1.1/DTD/svg11.dtd">
<!-- Generated by graphviz version 2.43.0 (0)
 -->
<!-- Title: alps_core/lib_internal/alps_common_lib/include/alps_cmn/gpio/i_pwm_out.hpp Pages: 1 -->
<svg width="909pt" height="225pt"
 viewBox="0.00 0.00 909.00 225.00" xmlns="http://www.w3.org/2000/svg" xmlns:xlink="http://www.w3.org/1999/xlink">
<g id="graph0" class="graph" transform="scale(1 1) rotate(0) translate(4 221)">
<title>alps_core/lib_internal/alps_common_lib/include/alps_cmn/gpio/i_pwm_out.hpp</title>
<!-- Node1 -->
<g id="Node000001" class="node">
<title>Node1</title>
<g id="a_Node000001"><a xlink:title="PWM出力を行うインタフェース">
<polygon fill="#999999" stroke="#666666" points="525,-217 358,-217 358,-176 525,-176 525,-217"/>
<text text-anchor="start" x="366" y="-205" font-family="Helvetica,sans-Serif" font-size="10.00">alps_core/lib_internal</text>
<text text-anchor="start" x="366" y="-194" font-family="Helvetica,sans-Serif" font-size="10.00">/alps_common_lib/include</text>
<text text-anchor="middle" x="441.5" y="-183" font-family="Helvetica,sans-Serif" font-size="10.00">/alps_cmn/gpio/i_pwm_out.hpp</text>
</a>
</g>
</g>
<!-- Node2 -->
<g id="Node000002" class="node">
<title>Node2</title>
<g id="a_Node000002"><a xlink:href="alps__common__lib_2include_2alps__cmn_2actuator_2dc__motor_8hpp.html" target="_top" xlink:title=" ">
<polygon fill="white" stroke="#666666" points="179,-134.5 0,-134.5 0,-93.5 179,-93.5 179,-134.5"/>
<text text-anchor="start" x="8" y="-122.5" font-family="Helvetica,sans-Serif" font-size="10.00">alps_core/lib_internal</text>
<text text-anchor="start" x="8" y="-111.5" font-family="Helvetica,sans-Serif" font-size="10.00">/alps_common_lib/include</text>
<text text-anchor="middle" x="89.5" y="-100.5" font-family="Helvetica,sans-Serif" font-size="10.00">/alps_cmn/actuator/dc_motor.hpp</text>
</a>
</g>
</g>
<!-- Node1&#45;&gt;Node2 -->
<g id="edge1_Node000001_Node000002" class="edge">
<title>Node1&#45;&gt;Node2</title>
<g id="a_edge1_Node000001_Node000002"><a xlink:title=" ">
<path fill="none" stroke="#63b8ff" d="M347.76,-175.83C299.74,-165.55 240.4,-152.52 187.5,-140 180.15,-138.26 172.51,-136.4 164.88,-134.51"/>
<polygon fill="#63b8ff" stroke="#63b8ff" points="347.31,-179.31 357.82,-177.98 348.78,-172.47 347.31,-179.31"/>
</a>
</g>
</g>
<!-- Node4 -->
<g id="Node000004" class="node">
<title>Node4</title>
<g id="a_Node000004"><a xlink:href="esc__bldc__motor_8hpp.html" target="_top" xlink:title="ESCで動かすブラシレスDCモーター">
<polygon fill="white" stroke="#666666" points="901,-140 746,-140 746,-88 901,-88 901,-140"/>
<text text-anchor="start" x="754" y="-128" font-family="Helvetica,sans-Serif" font-size="10.00">alps_core/lib_internal</text>
<text text-anchor="start" x="754" y="-117" font-family="Helvetica,sans-Serif" font-size="10.00">/alps_common_lib/include</text>
<text text-anchor="start" x="754" y="-106" font-family="Helvetica,sans-Serif" font-size="10.00">/alps_cmn/actuator/esc_bldc</text>
<text text-anchor="middle" x="823.5" y="-95" font-family="Helvetica,sans-Serif" font-size="10.00">_motor.hpp</text>
</a>
</g>
</g>
<!-- Node1&#45;&gt;Node4 -->
<g id="edge3_Node000001_Node000004" class="edge">
<title>Node1&#45;&gt;Node4</title>
<g id="a_edge3_Node000001_Node000004"><a xlink:title=" ">
<path fill="none" stroke="#63b8ff" d="M535.17,-180.34C593.64,-170.29 670.31,-156.02 737.5,-140 740.22,-139.35 742.99,-138.67 745.77,-137.96"/>
<polygon fill="#63b8ff" stroke="#63b8ff" points="534.48,-176.91 525.21,-182.05 535.66,-183.81 534.48,-176.91"/>
</a>
</g>
</g>
<!-- Node5 -->
<g id="Node000005" class="node">
<title>Node5</title>
<g id="a_Node000005"><a xlink:href="alps__common__lib_2include_2alps__cmn_2actuator_2servo__motor_8hpp.html" target="_top" xlink:title=" ">
<polygon fill="white" stroke="#666666" points="340,-140 197,-140 197,-88 340,-88 340,-140"/>
<text text-anchor="start" x="205" y="-128" font-family="Helvetica,sans-Serif" font-size="10.00">alps_core/lib_internal</text>
<text text-anchor="start" x="205" y="-117" font-family="Helvetica,sans-Serif" font-size="10.00">/alps_common_lib/include</text>
<text text-anchor="start" x="205" y="-106" font-family="Helvetica,sans-Serif" font-size="10.00">/alps_cmn/actuator/servo</text>
<text text-anchor="middle" x="268.5" y="-95" font-family="Helvetica,sans-Serif" font-size="10.00">_motor.hpp</text>
</a>
</g>
</g>
<!-- Node1&#45;&gt;Node5 -->
<g id="edge4_Node000001_Node000005" class="edge">
<title>Node1&#45;&gt;Node5</title>
<g id="a_edge4_Node000001_Node000005"><a xlink:title=" ">
<path fill="none" stroke="#63b8ff" d="M389.98,-171.53C368.7,-161.63 344.03,-150.14 322.5,-140.13"/>
<polygon fill="#63b8ff" stroke="#63b8ff" points="388.64,-174.76 399.18,-175.81 391.59,-168.42 388.64,-174.76"/>
</a>
</g>
</g>
<!-- Node7 -->
<g id="Node000007" class="node">
<title>Node7</title>
<g id="a_Node000007"><a xlink:href="alps__common__lib_2include_2alps__cmn_2sound_2piezo__buzzer_8hpp.html" target="_top" xlink:title="圧電ブザー 鳴動用ライブラリ">
<polygon fill="white" stroke="#666666" points="728,-134.5 543,-134.5 543,-93.5 728,-93.5 728,-134.5"/>
<text text-anchor="start" x="551" y="-122.5" font-family="Helvetica,sans-Serif" font-size="10.00">alps_core/lib_internal</text>
<text text-anchor="start" x="551" y="-111.5" font-family="Helvetica,sans-Serif" font-size="10.00">/alps_common_lib/include</text>
<text text-anchor="middle" x="635.5" y="-100.5" font-family="Helvetica,sans-Serif" font-size="10.00">/alps_cmn/sound/piezo_buzzer.hpp</text>
</a>
</g>
</g>
<!-- Node1&#45;&gt;Node7 -->
<g id="edge6_Node000001_Node000007" class="edge">
<title>Node1&#45;&gt;Node7</title>
<g id="a_edge6_Node000001_Node000007"><a xlink:title=" ">
<path fill="none" stroke="#63b8ff" d="M498.4,-171.89C526.95,-160.04 561.11,-145.87 588.2,-134.63"/>
<polygon fill="#63b8ff" stroke="#63b8ff" points="496.85,-168.74 488.96,-175.81 499.54,-175.21 496.85,-168.74"/>
</a>
</g>
</g>
<!-- Node9 -->
<g id="Node000009" class="node">
<title>Node9</title>
<g id="a_Node000009"><a xlink:href="pwm__out_8hpp.html" target="_top" xlink:title="PWM出力ピン">
<polygon fill="white" stroke="#666666" points="524.5,-134.5 358.5,-134.5 358.5,-93.5 524.5,-93.5 524.5,-134.5"/>
<text text-anchor="start" x="366.5" y="-122.5" font-family="Helvetica,sans-Serif" font-size="10.00">alps_core/lib_internal</text>
<text text-anchor="start" x="366.5" y="-111.5" font-family="Helvetica,sans-Serif" font-size="10.00">/alps_mbed_lib/include</text>
<text text-anchor="middle" x="441.5" y="-100.5" font-family="Helvetica,sans-Serif" font-size="10.00">/alps_mbed/gpio/pwm_out.hpp</text>
</a>
</g>
</g>
<!-- Node1&#45;&gt;Node9 -->
<g id="edge8_Node000001_Node000009" class="edge">
<title>Node1&#45;&gt;Node9</title>
<g id="a_edge8_Node000001_Node000009"><a xlink:title=" ">
<path fill="none" stroke="#63b8ff" d="M441.5,-165.37C441.5,-155.1 441.5,-143.9 441.5,-134.67"/>
<polygon fill="#63b8ff" stroke="#63b8ff" points="438,-165.6 441.5,-175.6 445,-165.6 438,-165.6"/>
</a>
</g>
</g>
<!-- Node3 -->
<g id="Node000003" class="node">
<title>Node3</title>
<g id="a_Node000003"><a xlink:href="alps__mbed__lib_2include_2alps__mbed_2actuator_2dc__motor_8hpp.html" target="_top" xlink:title=" ">
<polygon fill="white" stroke="#666666" points="173,-52 42,-52 42,0 173,0 173,-52"/>
<text text-anchor="start" x="50" y="-40" font-family="Helvetica,sans-Serif" font-size="10.00">alps_core/lib_internal</text>
<text text-anchor="start" x="50" y="-29" font-family="Helvetica,sans-Serif" font-size="10.00">/alps_mbed_lib/include</text>
<text text-anchor="start" x="50" y="-18" font-family="Helvetica,sans-Serif" font-size="10.00">/alps_mbed/actuator/dc</text>
<text text-anchor="middle" x="107.5" y="-7" font-family="Helvetica,sans-Serif" font-size="10.00">_motor.hpp</text>
</a>
</g>
</g>
<!-- Node2&#45;&gt;Node3 -->
<g id="edge2_Node000002_Node000003" class="edge">
<title>Node2&#45;&gt;Node3</title>
<g id="a_edge2_Node000002_Node000003"><a xlink:title=" ">
<path fill="none" stroke="#63b8ff" d="M95.69,-83.44C97.81,-73.31 100.16,-62.08 102.2,-52.32"/>
<polygon fill="#63b8ff" stroke="#63b8ff" points="92.21,-82.98 93.58,-93.49 99.06,-84.41 92.21,-82.98"/>
</a>
</g>
</g>
<!-- Node6 -->
<g id="Node000006" class="node">
<title>Node6</title>
<g id="a_Node000006"><a xlink:href="alps__mbed__lib_2include_2alps__mbed_2actuator_2servo__motor_8hpp.html" target="_top" xlink:title=" ">
<polygon fill="white" stroke="#666666" points="348.5,-52 202.5,-52 202.5,0 348.5,0 348.5,-52"/>
<text text-anchor="start" x="210.5" y="-40" font-family="Helvetica,sans-Serif" font-size="10.00">alps_core/lib_internal</text>
<text text-anchor="start" x="210.5" y="-29" font-family="Helvetica,sans-Serif" font-size="10.00">/alps_mbed_lib/include</text>
<text text-anchor="start" x="210.5" y="-18" font-family="Helvetica,sans-Serif" font-size="10.00">/alps_mbed/actuator/servo</text>
<text text-anchor="middle" x="275.5" y="-7" font-family="Helvetica,sans-Serif" font-size="10.00">_motor.hpp</text>
</a>
</g>
</g>
<!-- Node5&#45;&gt;Node6 -->
<g id="edge5_Node000005_Node000006" class="edge">
<title>Node5&#45;&gt;Node6</title>
<g id="a_edge5_Node000005_Node000006"><a xlink:title=" ">
<path fill="none" stroke="#63b8ff" d="M271.38,-77.56C272.08,-69.04 272.81,-60.1 273.45,-52.16"/>
<polygon fill="#63b8ff" stroke="#63b8ff" points="267.89,-77.41 270.56,-87.66 274.86,-77.98 267.89,-77.41"/>
</a>
</g>
</g>
<!-- Node8 -->
<g id="Node000008" class="node">
<title>Node8</title>
<g id="a_Node000008"><a xlink:href="alps__mbed__lib_2include_2alps__mbed_2sound_2piezo__buzzer_8hpp.html" target="_top" xlink:title="圧電ブザー 鳴動用ライブラリ（mbed）">
<polygon fill="white" stroke="#666666" points="605.5,-52 471.5,-52 471.5,0 605.5,0 605.5,-52"/>
<text text-anchor="start" x="479.5" y="-40" font-family="Helvetica,sans-Serif" font-size="10.00">alps_core/lib_internal</text>
<text text-anchor="start" x="479.5" y="-29" font-family="Helvetica,sans-Serif" font-size="10.00">/alps_mbed_lib/include</text>
<text text-anchor="start" x="479.5" y="-18" font-family="Helvetica,sans-Serif" font-size="10.00">/alps_mbed/sound/piezo</text>
<text text-anchor="middle" x="538.5" y="-7" font-family="Helvetica,sans-Serif" font-size="10.00">_buzzer.hpp</text>
</a>
</g>
</g>
<!-- Node7&#45;&gt;Node8 -->
<g id="edge7_Node000007_Node000008" class="edge">
<title>Node7&#45;&gt;Node8</title>
<g id="a_edge7_Node000007_Node000008"><a xlink:title=" ">
<path fill="none" stroke="#63b8ff" d="M605.72,-86.6C593.42,-75.69 579.22,-63.11 567.06,-52.32"/>
<polygon fill="#63b8ff" stroke="#63b8ff" points="603.68,-89.47 613.49,-93.49 608.33,-84.23 603.68,-89.47"/>
</a>
</g>
</g>
<!-- Node9&#45;&gt;Node3 -->
<g id="edge9_Node000009_Node000003" class="edge">
<title>Node9&#45;&gt;Node3</title>
<g id="a_edge9_Node000009_Node000003"><a xlink:title=" ">
<path fill="none" stroke="#63b8ff" d="M360.01,-90.92C356.12,-89.92 352.27,-88.94 348.5,-88 279.9,-70.82 261.93,-69.88 193.5,-52 186.88,-50.27 180,-48.4 173.13,-46.48"/>
<polygon fill="#63b8ff" stroke="#63b8ff" points="359.16,-94.32 369.72,-93.44 360.92,-87.54 359.16,-94.32"/>
</a>
</g>
</g>
<!-- Node9&#45;&gt;Node6 -->
<g id="edge10_Node000009_Node000006" class="edge">
<title>Node9&#45;&gt;Node6</title>
<g id="a_edge10_Node000009_Node000006"><a xlink:title=" ">
<path fill="none" stroke="#63b8ff" d="M394.66,-88.74C372.61,-77.31 346.33,-63.69 324.06,-52.16"/>
<polygon fill="#63b8ff" stroke="#63b8ff" points="393.34,-91.99 403.83,-93.49 396.56,-85.78 393.34,-91.99"/>
</a>
</g>
</g>
<!-- Node9&#45;&gt;Node8 -->
<g id="edge11_Node000009_Node000008" class="edge">
<title>Node9&#45;&gt;Node8</title>
<g id="a_edge11_Node000009_Node000008"><a xlink:title=" ">
<path fill="none" stroke="#63b8ff" d="M471.28,-86.6C483.58,-75.69 497.78,-63.11 509.94,-52.32"/>
<polygon fill="#63b8ff" stroke="#63b8ff" points="468.67,-84.23 463.51,-93.49 473.32,-89.47 468.67,-84.23"/>
</a>
</g>
</g>
</g>
</svg>
