<?xml version="1.0" encoding="UTF-8" standalone="no"?>
<!DOCTYPE svg PUBLIC "-//W3C//DTD SVG 1.1//EN"
 "http://www.w3.org/Graphics/SVG/1.1/DTD/svg11.dtd">
<!-- Generated by graphviz version 2.43.0 (0)
 -->
<!-- Title: alps_common_lib/include/alps_cmn/gpio/i_pwm_set_pulse_width.hpp Pages: 1 -->
<svg width="490pt" height="203pt"
 viewBox="0.00 0.00 490.00 203.00" xmlns="http://www.w3.org/2000/svg" xmlns:xlink="http://www.w3.org/1999/xlink">
<g id="graph0" class="graph" transform="scale(1 1) rotate(0) translate(4 199)">
<title>alps_common_lib/include/alps_cmn/gpio/i_pwm_set_pulse_width.hpp</title>
<!-- Node1 -->
<g id="node1" class="node">
<title>Node1</title>
<g id="a_node1"><a xlink:title=" ">
<polygon fill="#999999" stroke="#666666" points="314,-195 168,-195 168,-154 314,-154 314,-195"/>
<text text-anchor="start" x="176" y="-183" font-family="Helvetica,sans-Serif" font-size="10.00">alps_common_lib/include</text>
<text text-anchor="start" x="176" y="-172" font-family="Helvetica,sans-Serif" font-size="10.00">/alps_cmn/gpio/i_pwm_set</text>
<text text-anchor="middle" x="241" y="-161" font-family="Helvetica,sans-Serif" font-size="10.00">_pulse_width.hpp</text>
</a>
</g>
</g>
<!-- Node2 -->
<g id="node2" class="node">
<title>Node2</title>
<g id="a_node2"><a xlink:href="dc__motor__base_8hpp.html" target="_top" xlink:title=" ">
<polygon fill="white" stroke="#666666" points="140,-118 0,-118 0,-77 140,-77 140,-118"/>
<text text-anchor="start" x="8" y="-106" font-family="Helvetica,sans-Serif" font-size="10.00">alps_common_lib/include</text>
<text text-anchor="start" x="8" y="-95" font-family="Helvetica,sans-Serif" font-size="10.00">/alps_cmn/actuator/dc</text>
<text text-anchor="middle" x="70" y="-84" font-family="Helvetica,sans-Serif" font-size="10.00">_motor_base.hpp</text>
</a>
</g>
</g>
<!-- Node1&#45;&gt;Node2 -->
<g id="edge1" class="edge">
<title>Node1&#45;&gt;Node2</title>
<path fill="none" stroke="#63b8ff" d="M187.1,-149.86C163.75,-139.62 136.75,-127.77 114.56,-118.04"/>
<polygon fill="#63b8ff" stroke="#63b8ff" points="185.95,-153.18 196.52,-153.99 188.77,-146.77 185.95,-153.18"/>
</g>
<!-- Node4 -->
<g id="node4" class="node">
<title>Node4</title>
<g id="a_node4"><a xlink:href="servo__motor__base_8hpp.html" target="_top" xlink:title=" ">
<polygon fill="white" stroke="#666666" points="482,-118 342,-118 342,-77 482,-77 482,-118"/>
<text text-anchor="start" x="350" y="-106" font-family="Helvetica,sans-Serif" font-size="10.00">alps_common_lib/include</text>
<text text-anchor="start" x="350" y="-95" font-family="Helvetica,sans-Serif" font-size="10.00">/alps_cmn/actuator/servo</text>
<text text-anchor="middle" x="412" y="-84" font-family="Helvetica,sans-Serif" font-size="10.00">_motor_base.hpp</text>
</a>
</g>
</g>
<!-- Node1&#45;&gt;Node4 -->
<g id="edge3" class="edge">
<title>Node1&#45;&gt;Node4</title>
<path fill="none" stroke="#63b8ff" d="M294.9,-149.86C318.25,-139.62 345.25,-127.77 367.44,-118.04"/>
<polygon fill="#63b8ff" stroke="#63b8ff" points="293.23,-146.77 285.48,-153.99 296.05,-153.18 293.23,-146.77"/>
</g>
<!-- Node6 -->
<g id="node6" class="node">
<title>Node6</title>
<g id="a_node6"><a xlink:href="pwm__out_8hpp.html" target="_top" xlink:title=" ">
<polygon fill="white" stroke="#666666" points="324,-112.5 158,-112.5 158,-82.5 324,-82.5 324,-112.5"/>
<text text-anchor="start" x="166" y="-100.5" font-family="Helvetica,sans-Serif" font-size="10.00">alps_mbed_lib/include</text>
<text text-anchor="middle" x="241" y="-89.5" font-family="Helvetica,sans-Serif" font-size="10.00">/alps_mbed/gpio/pwm_out.hpp</text>
</a>
</g>
</g>
<!-- Node1&#45;&gt;Node6 -->
<g id="edge5" class="edge">
<title>Node1&#45;&gt;Node6</title>
<path fill="none" stroke="#63b8ff" d="M241,-143.61C241,-133.01 241,-121.57 241,-112.86"/>
<polygon fill="#63b8ff" stroke="#63b8ff" points="237.5,-143.79 241,-153.79 244.5,-143.79 237.5,-143.79"/>
</g>
<!-- Node3 -->
<g id="node3" class="node">
<title>Node3</title>
<g id="a_node3"><a xlink:href="dc__motor_8hpp.html" target="_top" xlink:title=" ">
<polygon fill="white" stroke="#666666" points="224.5,-41 93.5,-41 93.5,0 224.5,0 224.5,-41"/>
<text text-anchor="start" x="101.5" y="-29" font-family="Helvetica,sans-Serif" font-size="10.00">alps_mbed_lib/include</text>
<text text-anchor="start" x="101.5" y="-18" font-family="Helvetica,sans-Serif" font-size="10.00">/alps_mbed/actuator/dc</text>
<text text-anchor="middle" x="159" y="-7" font-family="Helvetica,sans-Serif" font-size="10.00">_motor.hpp</text>
</a>
</g>
</g>
<!-- Node2&#45;&gt;Node3 -->
<g id="edge2" class="edge">
<title>Node2&#45;&gt;Node3</title>
<path fill="none" stroke="#63b8ff" d="M101.03,-70.35C112.45,-60.73 125.16,-50.01 135.77,-41.07"/>
<polygon fill="#63b8ff" stroke="#63b8ff" points="98.78,-67.67 93.38,-76.79 103.29,-73.03 98.78,-67.67"/>
</g>
<!-- Node5 -->
<g id="node5" class="node">
<title>Node5</title>
<g id="a_node5"><a xlink:href="servo__motor_8hpp.html" target="_top" xlink:title=" ">
<polygon fill="white" stroke="#666666" points="396,-41 250,-41 250,0 396,0 396,-41"/>
<text text-anchor="start" x="258" y="-29" font-family="Helvetica,sans-Serif" font-size="10.00">alps_mbed_lib/include</text>
<text text-anchor="start" x="258" y="-18" font-family="Helvetica,sans-Serif" font-size="10.00">/alps_mbed/actuator/servo</text>
<text text-anchor="middle" x="323" y="-7" font-family="Helvetica,sans-Serif" font-size="10.00">_motor.hpp</text>
</a>
</g>
</g>
<!-- Node4&#45;&gt;Node5 -->
<g id="edge4" class="edge">
<title>Node4&#45;&gt;Node5</title>
<path fill="none" stroke="#63b8ff" d="M380.97,-70.35C369.55,-60.73 356.84,-50.01 346.23,-41.07"/>
<polygon fill="#63b8ff" stroke="#63b8ff" points="378.71,-73.03 388.62,-76.79 383.22,-67.67 378.71,-73.03"/>
</g>
<!-- Node6&#45;&gt;Node3 -->
<g id="edge6" class="edge">
<title>Node6&#45;&gt;Node3</title>
<path fill="none" stroke="#63b8ff" d="M217.91,-75.38C206.19,-64.66 192.04,-51.72 180.54,-41.2"/>
<polygon fill="#63b8ff" stroke="#63b8ff" points="215.84,-78.23 225.58,-82.39 220.56,-73.06 215.84,-78.23"/>
</g>
<!-- Node6&#45;&gt;Node5 -->
<g id="edge7" class="edge">
<title>Node6&#45;&gt;Node5</title>
<path fill="none" stroke="#63b8ff" d="M264.09,-75.38C275.81,-64.66 289.96,-51.72 301.46,-41.2"/>
<polygon fill="#63b8ff" stroke="#63b8ff" points="261.44,-73.06 256.42,-82.39 266.16,-78.23 261.44,-73.06"/>
</g>
</g>
</svg>
