<?xml version="1.0" encoding="UTF-8" standalone="no"?>
<!DOCTYPE svg PUBLIC "-//W3C//DTD SVG 1.1//EN"
 "http://www.w3.org/Graphics/SVG/1.1/DTD/svg11.dtd">
<!-- Generated by graphviz version 2.43.0 (0)
 -->
<!-- Title: alps_common_lib/include/alps_cmn/sensor/i_rotary_sensor.hpp Pages: 1 -->
<svg width="1112pt" height="217pt"
 viewBox="0.00 0.00 1111.50 217.00" xmlns="http://www.w3.org/2000/svg" xmlns:xlink="http://www.w3.org/1999/xlink">
<g id="graph0" class="graph" transform="scale(1 1) rotate(0) translate(4 213)">
<title>alps_common_lib/include/alps_cmn/sensor/i_rotary_sensor.hpp</title>
<polygon fill="white" stroke="transparent" points="-4,4 -4,-213 1107.5,-213 1107.5,4 -4,4"/>
<!-- Node1 -->
<g id="node1" class="node">
<title>Node1</title>
<g id="a_node1"><a xlink:title=" ">
<polygon fill="#bfbfbf" stroke="black" points="361.5,-167.5 361.5,-208.5 503.5,-208.5 503.5,-167.5 361.5,-167.5"/>
<text text-anchor="start" x="369.5" y="-196.5" font-family="Helvetica,sans-Serif" font-size="10.00">alps_common_lib/include</text>
<text text-anchor="start" x="369.5" y="-185.5" font-family="Helvetica,sans-Serif" font-size="10.00">/alps_cmn/sensor/i_rotary</text>
<text text-anchor="middle" x="432.5" y="-174.5" font-family="Helvetica,sans-Serif" font-size="10.00">_sensor.hpp</text>
</a>
</g>
</g>
<!-- Node2 -->
<g id="node2" class="node">
<title>Node2</title>
<g id="a_node2"><a xlink:href="robomas__motor_8hpp.html" target="_top" xlink:title="ロボマスモータのライブラリ">
<polygon fill="white" stroke="black" points="0,-89.5 0,-130.5 155,-130.5 155,-89.5 0,-89.5"/>
<text text-anchor="start" x="8" y="-118.5" font-family="Helvetica,sans-Serif" font-size="10.00">alps_common_lib/include</text>
<text text-anchor="start" x="8" y="-107.5" font-family="Helvetica,sans-Serif" font-size="10.00">/alps_cmn/actuator/robomas</text>
<text text-anchor="middle" x="77.5" y="-96.5" font-family="Helvetica,sans-Serif" font-size="10.00">_motor.hpp</text>
</a>
</g>
</g>
<!-- Node1&#45;&gt;Node2 -->
<g id="edge1" class="edge">
<title>Node1&#45;&gt;Node2</title>
<path fill="none" stroke="midnightblue" d="M351.48,-169.84C299.47,-158.8 230.49,-144.12 169.5,-131 164.87,-130 160.1,-128.98 155.29,-127.94"/>
<polygon fill="midnightblue" stroke="midnightblue" points="350.81,-173.28 361.32,-171.93 352.27,-166.43 350.81,-173.28"/>
</g>
<!-- Node3 -->
<g id="node3" class="node">
<title>Node3</title>
<g id="a_node3"><a xlink:href="friction__compensated__motor_8hpp.html" target="_top" xlink:title="モーターに対して摩擦補償を行うデコレーター">
<polygon fill="white" stroke="black" points="212,-89.5 212,-130.5 355,-130.5 355,-89.5 212,-89.5"/>
<text text-anchor="start" x="220" y="-118.5" font-family="Helvetica,sans-Serif" font-size="10.00">alps_common_lib/include</text>
<text text-anchor="start" x="220" y="-107.5" font-family="Helvetica,sans-Serif" font-size="10.00">/alps_cmn/control/friction</text>
<text text-anchor="middle" x="283.5" y="-96.5" font-family="Helvetica,sans-Serif" font-size="10.00">_compensated_motor.hpp</text>
</a>
</g>
</g>
<!-- Node1&#45;&gt;Node3 -->
<g id="edge2" class="edge">
<title>Node1&#45;&gt;Node3</title>
<path fill="none" stroke="midnightblue" d="M384.99,-162.77C364.57,-152.35 341.01,-140.34 321.74,-130.51"/>
<polygon fill="midnightblue" stroke="midnightblue" points="383.63,-166 394.13,-167.43 386.81,-159.77 383.63,-166"/>
</g>
<!-- Node4 -->
<g id="node4" class="node">
<title>Node4</title>
<g id="a_node4"><a xlink:href="motor__friction__analyzer_8hpp.html" target="_top" xlink:title="モーター軸の摩擦力を計測するクラス">
<polygon fill="white" stroke="black" points="113.5,-6 113.5,-47 273.5,-47 273.5,-6 113.5,-6"/>
<text text-anchor="start" x="121.5" y="-35" font-family="Helvetica,sans-Serif" font-size="10.00">alps_common_lib/include</text>
<text text-anchor="start" x="121.5" y="-24" font-family="Helvetica,sans-Serif" font-size="10.00">/alps_cmn/tool/motor_friction</text>
<text text-anchor="middle" x="193.5" y="-13" font-family="Helvetica,sans-Serif" font-size="10.00">_analyzer.hpp</text>
</a>
</g>
</g>
<!-- Node1&#45;&gt;Node4 -->
<g id="edge15" class="edge">
<title>Node1&#45;&gt;Node4</title>
<path fill="none" stroke="midnightblue" d="M351.35,-177.32C293.22,-168.59 221.92,-153.62 202.5,-131 182.65,-107.87 185.08,-70.17 189.03,-47.22"/>
<polygon fill="midnightblue" stroke="midnightblue" points="350.89,-180.79 361.29,-178.77 351.9,-173.86 350.89,-180.79"/>
</g>
<!-- Node5 -->
<g id="node5" class="node">
<title>Node5</title>
<g id="a_node5"><a xlink:href="motor__angle__controller_8hpp.html" target="_top" xlink:title=" ">
<polygon fill="white" stroke="black" points="411.5,-89.5 411.5,-130.5 551.5,-130.5 551.5,-89.5 411.5,-89.5"/>
<text text-anchor="start" x="419.5" y="-118.5" font-family="Helvetica,sans-Serif" font-size="10.00">alps_common_lib/include</text>
<text text-anchor="start" x="419.5" y="-107.5" font-family="Helvetica,sans-Serif" font-size="10.00">/alps_cmn/control/motor</text>
<text text-anchor="middle" x="481.5" y="-96.5" font-family="Helvetica,sans-Serif" font-size="10.00">_angle_controller.hpp</text>
</a>
</g>
</g>
<!-- Node1&#45;&gt;Node5 -->
<g id="edge4" class="edge">
<title>Node1&#45;&gt;Node5</title>
<path fill="none" stroke="midnightblue" d="M450.71,-158.76C456.77,-149.35 463.39,-139.1 468.92,-130.51"/>
<polygon fill="midnightblue" stroke="midnightblue" points="447.6,-157.13 445.12,-167.43 453.48,-160.92 447.6,-157.13"/>
</g>
<!-- Node6 -->
<g id="node6" class="node">
<title>Node6</title>
<g id="a_node6"><a xlink:href="motor__angle__velocity__controller_8hpp.html" target="_top" xlink:title=" ">
<polygon fill="white" stroke="black" points="301,-6 301,-47 466,-47 466,-6 301,-6"/>
<text text-anchor="start" x="309" y="-35" font-family="Helvetica,sans-Serif" font-size="10.00">alps_common_lib/include</text>
<text text-anchor="start" x="309" y="-24" font-family="Helvetica,sans-Serif" font-size="10.00">/alps_cmn/control/motor</text>
<text text-anchor="middle" x="383.5" y="-13" font-family="Helvetica,sans-Serif" font-size="10.00">_angle_velocity_controller.hpp</text>
</a>
</g>
</g>
<!-- Node1&#45;&gt;Node6 -->
<g id="edge7" class="edge">
<title>Node1&#45;&gt;Node6</title>
<path fill="none" stroke="midnightblue" d="M415.09,-158.6C410.42,-149.98 405.76,-140.33 402.5,-131 392.6,-102.72 387.59,-68.2 385.26,-47.04"/>
<polygon fill="midnightblue" stroke="midnightblue" points="412.14,-160.49 420.1,-167.47 418.23,-157.04 412.14,-160.49"/>
</g>
<!-- Node8 -->
<g id="node8" class="node">
<title>Node8</title>
<g id="a_node8"><a xlink:href="motor__velocity__controller_8hpp.html" target="_top" xlink:title=" ">
<polygon fill="white" stroke="black" points="569.5,-89.5 569.5,-130.5 709.5,-130.5 709.5,-89.5 569.5,-89.5"/>
<text text-anchor="start" x="577.5" y="-118.5" font-family="Helvetica,sans-Serif" font-size="10.00">alps_common_lib/include</text>
<text text-anchor="start" x="577.5" y="-107.5" font-family="Helvetica,sans-Serif" font-size="10.00">/alps_cmn/control/motor</text>
<text text-anchor="middle" x="639.5" y="-96.5" font-family="Helvetica,sans-Serif" font-size="10.00">_velocity_controller.hpp</text>
</a>
</g>
</g>
<!-- Node1&#45;&gt;Node8 -->
<g id="edge8" class="edge">
<title>Node1&#45;&gt;Node8</title>
<path fill="none" stroke="midnightblue" d="M495.45,-163.89C524.51,-153.22 558.63,-140.69 586.37,-130.51"/>
<polygon fill="midnightblue" stroke="midnightblue" points="493.99,-160.7 485.81,-167.43 496.4,-167.27 493.99,-160.7"/>
</g>
<!-- Node10 -->
<g id="node10" class="node">
<title>Node10</title>
<g id="a_node10"><a xlink:href="alps__common__lib_2include_2alps__cmn_2sensor_2incremental__encoder_8hpp.html" target="_top" xlink:title=" ">
<polygon fill="white" stroke="black" points="728,-89.5 728,-130.5 891,-130.5 891,-89.5 728,-89.5"/>
<text text-anchor="start" x="736" y="-118.5" font-family="Helvetica,sans-Serif" font-size="10.00">alps_common_lib/include</text>
<text text-anchor="start" x="736" y="-107.5" font-family="Helvetica,sans-Serif" font-size="10.00">/alps_cmn/sensor/incremental</text>
<text text-anchor="middle" x="809.5" y="-96.5" font-family="Helvetica,sans-Serif" font-size="10.00">_encoder.hpp</text>
</a>
</g>
</g>
<!-- Node1&#45;&gt;Node10 -->
<g id="edge12" class="edge">
<title>Node1&#45;&gt;Node10</title>
<path fill="none" stroke="midnightblue" d="M513.78,-171.6C571.08,-160.62 649.57,-145.32 718.5,-131 721.51,-130.37 724.57,-129.73 727.67,-129.08"/>
<polygon fill="midnightblue" stroke="midnightblue" points="512.86,-168.21 503.7,-173.53 514.18,-175.09 512.86,-168.21"/>
</g>
<!-- Node12 -->
<g id="node12" class="node">
<title>Node12</title>
<g id="a_node12"><a xlink:href="potentiometer_8hpp.html" target="_top" xlink:title="ポテンショメータのクラス">
<polygon fill="white" stroke="black" points="909.5,-95 909.5,-125 1103.5,-125 1103.5,-95 909.5,-95"/>
<text text-anchor="start" x="917.5" y="-113" font-family="Helvetica,sans-Serif" font-size="10.00">alps_common_lib/include</text>
<text text-anchor="middle" x="1006.5" y="-102" font-family="Helvetica,sans-Serif" font-size="10.00">/alps_cmn/sensor/potentiometer.hpp</text>
</a>
</g>
</g>
<!-- Node1&#45;&gt;Node12 -->
<g id="edge14" class="edge">
<title>Node1&#45;&gt;Node12</title>
<path fill="none" stroke="midnightblue" d="M513.62,-178.97C607.13,-169.33 765.31,-151.82 900.5,-131 911.98,-129.23 924.11,-127.15 935.91,-125"/>
<polygon fill="midnightblue" stroke="midnightblue" points="513.25,-175.49 503.66,-179.99 513.97,-182.45 513.25,-175.49"/>
</g>
<!-- Node3&#45;&gt;Node4 -->
<g id="edge3" class="edge">
<title>Node3&#45;&gt;Node4</title>
<path fill="none" stroke="midnightblue" d="M254.09,-82.36C241.38,-70.85 226.77,-57.63 215.09,-47.05"/>
<polygon fill="midnightblue" stroke="midnightblue" points="251.95,-85.15 261.71,-89.27 256.65,-79.96 251.95,-85.15"/>
</g>
<!-- Node5&#45;&gt;Node6 -->
<g id="edge5" class="edge">
<title>Node5&#45;&gt;Node6</title>
<path fill="none" stroke="midnightblue" d="M449.86,-82.69C435.93,-71.1 419.85,-57.73 407,-47.05"/>
<polygon fill="midnightblue" stroke="midnightblue" points="447.85,-85.57 457.78,-89.27 452.33,-80.19 447.85,-85.57"/>
</g>
<!-- Node7 -->
<g id="node7" class="node">
<title>Node7</title>
<g id="a_node7"><a xlink:href="custom__type__topic__conversion__rule_8hpp.html" target="_top" xlink:title=" ">
<polygon fill="white" stroke="black" points="484,-0.5 484,-52.5 615,-52.5 615,-0.5 484,-0.5"/>
<text text-anchor="start" x="492" y="-40.5" font-family="Helvetica,sans-Serif" font-size="10.00">alps_ros2_lib/include</text>
<text text-anchor="start" x="492" y="-29.5" font-family="Helvetica,sans-Serif" font-size="10.00">/alps_ros2/type/custom</text>
<text text-anchor="start" x="492" y="-18.5" font-family="Helvetica,sans-Serif" font-size="10.00">_type_topic_conversion</text>
<text text-anchor="middle" x="549.5" y="-7.5" font-family="Helvetica,sans-Serif" font-size="10.00">_rule.hpp</text>
</a>
</g>
</g>
<!-- Node5&#45;&gt;Node7 -->
<g id="edge6" class="edge">
<title>Node5&#45;&gt;Node7</title>
<path fill="none" stroke="midnightblue" d="M504.53,-81.4C512.31,-72.08 520.94,-61.73 528.55,-52.61"/>
<polygon fill="midnightblue" stroke="midnightblue" points="501.68,-79.35 497.96,-89.27 507.05,-83.84 501.68,-79.35"/>
</g>
<!-- Node8&#45;&gt;Node6 -->
<g id="edge9" class="edge">
<title>Node8&#45;&gt;Node6</title>
<path fill="none" stroke="midnightblue" d="M568.5,-86.4C529.65,-74.03 481.98,-58.85 444.76,-47"/>
<polygon fill="midnightblue" stroke="midnightblue" points="567.59,-89.78 578.18,-89.48 569.71,-83.11 567.59,-89.78"/>
</g>
<!-- Node8&#45;&gt;Node7 -->
<g id="edge11" class="edge">
<title>Node8&#45;&gt;Node7</title>
<path fill="none" stroke="midnightblue" d="M610.26,-82.52C599.65,-72.92 587.7,-62.09 577.23,-52.61"/>
<polygon fill="midnightblue" stroke="midnightblue" points="607.95,-85.15 617.71,-89.27 612.65,-79.96 607.95,-85.15"/>
</g>
<!-- Node9 -->
<g id="node9" class="node">
<title>Node9</title>
<g id="a_node9"><a xlink:href="custom__type__param__conversion__rule_8hpp.html" target="_top" xlink:title=" ">
<polygon fill="white" stroke="black" points="633,-0.5 633,-52.5 772,-52.5 772,-0.5 633,-0.5"/>
<text text-anchor="start" x="641" y="-40.5" font-family="Helvetica,sans-Serif" font-size="10.00">alps_ros2_lib/include</text>
<text text-anchor="start" x="641" y="-29.5" font-family="Helvetica,sans-Serif" font-size="10.00">/alps_ros2/type/custom</text>
<text text-anchor="start" x="641" y="-18.5" font-family="Helvetica,sans-Serif" font-size="10.00">_type_param_conversion</text>
<text text-anchor="middle" x="702.5" y="-7.5" font-family="Helvetica,sans-Serif" font-size="10.00">_rule.hpp</text>
</a>
</g>
</g>
<!-- Node8&#45;&gt;Node9 -->
<g id="edge10" class="edge">
<title>Node8&#45;&gt;Node9</title>
<path fill="none" stroke="midnightblue" d="M661.05,-81.12C668.2,-71.87 676.11,-61.63 683.09,-52.61"/>
<polygon fill="midnightblue" stroke="midnightblue" points="658.1,-79.22 654.75,-89.27 663.64,-83.5 658.1,-79.22"/>
</g>
<!-- Node11 -->
<g id="node11" class="node">
<title>Node11</title>
<g id="a_node11"><a xlink:href="alps__mbed__lib_2include_2alps__mbed_2sensor_2incremental__encoder_8hpp.html" target="_top" xlink:title=" ">
<polygon fill="white" stroke="black" points="790.5,-6 790.5,-47 960.5,-47 960.5,-6 790.5,-6"/>
<text text-anchor="start" x="798.5" y="-35" font-family="Helvetica,sans-Serif" font-size="10.00">alps_mbed_lib/include</text>
<text text-anchor="start" x="798.5" y="-24" font-family="Helvetica,sans-Serif" font-size="10.00">/alps_mbed/sensor/incremental</text>
<text text-anchor="middle" x="875.5" y="-13" font-family="Helvetica,sans-Serif" font-size="10.00">_encoder.hpp</text>
</a>
</g>
</g>
<!-- Node10&#45;&gt;Node11 -->
<g id="edge13" class="edge">
<title>Node10&#45;&gt;Node11</title>
<path fill="none" stroke="midnightblue" d="M831.86,-81.38C841,-70.11 851.34,-57.33 859.67,-47.05"/>
<polygon fill="midnightblue" stroke="midnightblue" points="829.05,-79.3 825.48,-89.27 834.49,-83.7 829.05,-79.3"/>
</g>
</g>
</svg>
