<?xml version="1.0" encoding="UTF-8" standalone="no"?>
<!DOCTYPE svg PUBLIC "-//W3C//DTD SVG 1.1//EN"
 "http://www.w3.org/Graphics/SVG/1.1/DTD/svg11.dtd">
<!-- Generated by graphviz version 2.43.0 (0)
 -->
<!-- Title: alps_common_lib/include/alps_cmn/sensor/i_rotary_sensor.hpp Pages: 1 -->
<svg width="740pt" height="206pt"
 viewBox="0.00 0.00 739.50 206.00" xmlns="http://www.w3.org/2000/svg" xmlns:xlink="http://www.w3.org/1999/xlink">
<g id="graph0" class="graph" transform="scale(1 1) rotate(0) translate(4 202)">
<title>alps_common_lib/include/alps_cmn/sensor/i_rotary_sensor.hpp</title>
<polygon fill="white" stroke="transparent" points="-4,4 -4,-202 735.5,-202 735.5,4 -4,4"/>
<!-- Node1 -->
<g id="node1" class="node">
<title>Node1</title>
<g id="a_node1"><a xlink:title=" ">
<polygon fill="#bfbfbf" stroke="black" points="275.5,-156.5 275.5,-197.5 417.5,-197.5 417.5,-156.5 275.5,-156.5"/>
<text text-anchor="start" x="283.5" y="-185.5" font-family="Helvetica,sans-Serif" font-size="10.00">alps_common_lib/include</text>
<text text-anchor="start" x="283.5" y="-174.5" font-family="Helvetica,sans-Serif" font-size="10.00">/alps_cmn/sensor/i_rotary</text>
<text text-anchor="middle" x="346.5" y="-163.5" font-family="Helvetica,sans-Serif" font-size="10.00">_sensor.hpp</text>
</a>
</g>
</g>
<!-- Node2 -->
<g id="node2" class="node">
<title>Node2</title>
<g id="a_node2"><a xlink:href="robomas__motor_8hpp.html" target="_top" xlink:title="ロボマスモータのライブラリ">
<polygon fill="white" stroke="black" points="0,-78.5 0,-119.5 155,-119.5 155,-78.5 0,-78.5"/>
<text text-anchor="start" x="8" y="-107.5" font-family="Helvetica,sans-Serif" font-size="10.00">alps_common_lib/include</text>
<text text-anchor="start" x="8" y="-96.5" font-family="Helvetica,sans-Serif" font-size="10.00">/alps_cmn/actuator/robomas</text>
<text text-anchor="middle" x="77.5" y="-85.5" font-family="Helvetica,sans-Serif" font-size="10.00">_motor.hpp</text>
</a>
</g>
</g>
<!-- Node1&#45;&gt;Node2 -->
<g id="edge1" class="edge">
<title>Node1&#45;&gt;Node2</title>
<path fill="none" stroke="midnightblue" d="M267.15,-153.58C228.86,-142.76 183.37,-129.91 146.54,-119.51"/>
<polygon fill="midnightblue" stroke="midnightblue" points="266.65,-157.08 277.23,-156.43 268.55,-150.34 266.65,-157.08"/>
</g>
<!-- Node4 -->
<g id="node4" class="node">
<title>Node4</title>
<g id="a_node4"><a xlink:href="motor__angle__velocity__controller_8hpp.html" target="_top" xlink:title=" ">
<polygon fill="white" stroke="black" points="173,-78.5 173,-119.5 338,-119.5 338,-78.5 173,-78.5"/>
<text text-anchor="start" x="181" y="-107.5" font-family="Helvetica,sans-Serif" font-size="10.00">alps_common_lib/include</text>
<text text-anchor="start" x="181" y="-96.5" font-family="Helvetica,sans-Serif" font-size="10.00">/alps_cmn/control/motor</text>
<text text-anchor="middle" x="255.5" y="-85.5" font-family="Helvetica,sans-Serif" font-size="10.00">_angle_velocity_controller.hpp</text>
</a>
</g>
</g>
<!-- Node1&#45;&gt;Node4 -->
<g id="edge3" class="edge">
<title>Node1&#45;&gt;Node4</title>
<path fill="none" stroke="midnightblue" d="M315.1,-149.78C303.21,-139.84 289.88,-128.72 278.86,-119.51"/>
<polygon fill="midnightblue" stroke="midnightblue" points="313.15,-152.7 323.07,-156.43 317.63,-147.33 313.15,-152.7"/>
</g>
<!-- Node5 -->
<g id="node5" class="node">
<title>Node5</title>
<g id="a_node5"><a xlink:href="alps__common__lib_2include_2alps__cmn_2sensor_2incremental__encoder_8hpp.html" target="_top" xlink:title=" ">
<polygon fill="white" stroke="black" points="356,-78.5 356,-119.5 519,-119.5 519,-78.5 356,-78.5"/>
<text text-anchor="start" x="364" y="-107.5" font-family="Helvetica,sans-Serif" font-size="10.00">alps_common_lib/include</text>
<text text-anchor="start" x="364" y="-96.5" font-family="Helvetica,sans-Serif" font-size="10.00">/alps_cmn/sensor/incremental</text>
<text text-anchor="middle" x="437.5" y="-85.5" font-family="Helvetica,sans-Serif" font-size="10.00">_encoder.hpp</text>
</a>
</g>
</g>
<!-- Node1&#45;&gt;Node5 -->
<g id="edge4" class="edge">
<title>Node1&#45;&gt;Node5</title>
<path fill="none" stroke="midnightblue" d="M377.9,-149.78C389.79,-139.84 403.12,-128.72 414.14,-119.51"/>
<polygon fill="midnightblue" stroke="midnightblue" points="375.37,-147.33 369.93,-156.43 379.85,-152.7 375.37,-147.33"/>
</g>
<!-- Node7 -->
<g id="node7" class="node">
<title>Node7</title>
<g id="a_node7"><a xlink:href="potentiometer_8hpp.html" target="_top" xlink:title="ポテンショメータのクラス">
<polygon fill="white" stroke="black" points="537.5,-84 537.5,-114 731.5,-114 731.5,-84 537.5,-84"/>
<text text-anchor="start" x="545.5" y="-102" font-family="Helvetica,sans-Serif" font-size="10.00">alps_common_lib/include</text>
<text text-anchor="middle" x="634.5" y="-91" font-family="Helvetica,sans-Serif" font-size="10.00">/alps_cmn/sensor/potentiometer.hpp</text>
</a>
</g>
</g>
<!-- Node1&#45;&gt;Node7 -->
<g id="edge6" class="edge">
<title>Node1&#45;&gt;Node7</title>
<path fill="none" stroke="midnightblue" d="M427.37,-154.66C476.61,-141.66 538.14,-125.43 581.3,-114.04"/>
<polygon fill="midnightblue" stroke="midnightblue" points="426.47,-151.28 417.69,-157.21 428.25,-158.05 426.47,-151.28"/>
</g>
<!-- Node3 -->
<g id="node3" class="node">
<title>Node3</title>
<g id="a_node3"><a xlink:href="robomas__motors__can__controller_8hpp.html" target="_top" xlink:title=" ">
<polygon fill="white" stroke="black" points="0,-0.5 0,-41.5 155,-41.5 155,-0.5 0,-0.5"/>
<text text-anchor="start" x="8" y="-29.5" font-family="Helvetica,sans-Serif" font-size="10.00">alps_common_lib/include</text>
<text text-anchor="start" x="8" y="-18.5" font-family="Helvetica,sans-Serif" font-size="10.00">/alps_cmn/actuator/robomas</text>
<text text-anchor="middle" x="77.5" y="-7.5" font-family="Helvetica,sans-Serif" font-size="10.00">_motors_can_controller.hpp</text>
</a>
</g>
</g>
<!-- Node2&#45;&gt;Node3 -->
<g id="edge2" class="edge">
<title>Node2&#45;&gt;Node3</title>
<path fill="none" stroke="midnightblue" d="M77.5,-68.3C77.5,-59.3 77.5,-49.65 77.5,-41.51"/>
<polygon fill="midnightblue" stroke="midnightblue" points="74,-68.43 77.5,-78.43 81,-68.43 74,-68.43"/>
</g>
<!-- Node6 -->
<g id="node6" class="node">
<title>Node6</title>
<g id="a_node6"><a xlink:href="alps__mbed__lib_2include_2alps__mbed_2sensor_2incremental__encoder_8hpp.html" target="_top" xlink:title=" ">
<polygon fill="white" stroke="black" points="352.5,-0.5 352.5,-41.5 522.5,-41.5 522.5,-0.5 352.5,-0.5"/>
<text text-anchor="start" x="360.5" y="-29.5" font-family="Helvetica,sans-Serif" font-size="10.00">alps_mbed_lib/include</text>
<text text-anchor="start" x="360.5" y="-18.5" font-family="Helvetica,sans-Serif" font-size="10.00">/alps_mbed/sensor/incremental</text>
<text text-anchor="middle" x="437.5" y="-7.5" font-family="Helvetica,sans-Serif" font-size="10.00">_encoder.hpp</text>
</a>
</g>
</g>
<!-- Node5&#45;&gt;Node6 -->
<g id="edge5" class="edge">
<title>Node5&#45;&gt;Node6</title>
<path fill="none" stroke="midnightblue" d="M437.5,-68.3C437.5,-59.3 437.5,-49.65 437.5,-41.51"/>
<polygon fill="midnightblue" stroke="midnightblue" points="434,-68.43 437.5,-78.43 441,-68.43 434,-68.43"/>
</g>
</g>
</svg>
