<?xml version="1.0" encoding="UTF-8" standalone="no"?>
<!DOCTYPE svg PUBLIC "-//W3C//DTD SVG 1.1//EN"
 "http://www.w3.org/Graphics/SVG/1.1/DTD/svg11.dtd">
<!-- Generated by graphviz version 2.43.0 (0)
 -->
<!-- Title: alps_common_lib/include/alps_cmn/sensor/i_rotary_sensor.hpp Pages: 1 -->
<svg width="1283pt" height="217pt"
 viewBox="0.00 0.00 1282.50 217.00" xmlns="http://www.w3.org/2000/svg" xmlns:xlink="http://www.w3.org/1999/xlink">
<g id="graph0" class="graph" transform="scale(1 1) rotate(0) translate(4 213)">
<title>alps_common_lib/include/alps_cmn/sensor/i_rotary_sensor.hpp</title>
<polygon fill="white" stroke="transparent" points="-4,4 -4,-213 1278.5,-213 1278.5,4 -4,4"/>
<!-- Node1 -->
<g id="node1" class="node">
<title>Node1</title>
<g id="a_node1"><a xlink:title=" ">
<polygon fill="#bfbfbf" stroke="black" points="420.5,-167.5 420.5,-208.5 562.5,-208.5 562.5,-167.5 420.5,-167.5"/>
<text text-anchor="start" x="428.5" y="-196.5" font-family="Helvetica,sans-Serif" font-size="10.00">alps_common_lib/include</text>
<text text-anchor="start" x="428.5" y="-185.5" font-family="Helvetica,sans-Serif" font-size="10.00">/alps_cmn/sensor/i_rotary</text>
<text text-anchor="middle" x="491.5" y="-174.5" font-family="Helvetica,sans-Serif" font-size="10.00">_sensor.hpp</text>
</a>
</g>
</g>
<!-- Node2 -->
<g id="node2" class="node">
<title>Node2</title>
<g id="a_node2"><a xlink:href="robomas__motor_8hpp.html" target="_top" xlink:title="ロボマスモータのライブラリ">
<polygon fill="white" stroke="black" points="0,-89.5 0,-130.5 155,-130.5 155,-89.5 0,-89.5"/>
<text text-anchor="start" x="8" y="-118.5" font-family="Helvetica,sans-Serif" font-size="10.00">alps_common_lib/include</text>
<text text-anchor="start" x="8" y="-107.5" font-family="Helvetica,sans-Serif" font-size="10.00">/alps_cmn/actuator/robomas</text>
<text text-anchor="middle" x="77.5" y="-96.5" font-family="Helvetica,sans-Serif" font-size="10.00">_motor.hpp</text>
</a>
</g>
</g>
<!-- Node1&#45;&gt;Node2 -->
<g id="edge1" class="edge">
<title>Node1&#45;&gt;Node2</title>
<path fill="none" stroke="midnightblue" d="M410.25,-174.5C343.72,-163.94 247.26,-147.87 163.5,-131 160.8,-130.46 158.05,-129.89 155.27,-129.3"/>
<polygon fill="midnightblue" stroke="midnightblue" points="409.83,-177.98 420.25,-176.09 410.92,-171.07 409.83,-177.98"/>
</g>
<!-- Node3 -->
<g id="node3" class="node">
<title>Node3</title>
<g id="a_node3"><a xlink:href="friction__compensated__motor_8hpp.html" target="_top" xlink:title="モーターに対して摩擦補償を行うデコレーター">
<polygon fill="white" stroke="black" points="173,-89.5 173,-130.5 316,-130.5 316,-89.5 173,-89.5"/>
<text text-anchor="start" x="181" y="-118.5" font-family="Helvetica,sans-Serif" font-size="10.00">alps_common_lib/include</text>
<text text-anchor="start" x="181" y="-107.5" font-family="Helvetica,sans-Serif" font-size="10.00">/alps_cmn/control/friction</text>
<text text-anchor="middle" x="244.5" y="-96.5" font-family="Helvetica,sans-Serif" font-size="10.00">_compensated_motor.hpp</text>
</a>
</g>
</g>
<!-- Node1&#45;&gt;Node3 -->
<g id="edge2" class="edge">
<title>Node1&#45;&gt;Node3</title>
<path fill="none" stroke="midnightblue" d="M418.19,-164.44C383.13,-153.66 341.57,-140.87 307.89,-130.51"/>
<polygon fill="midnightblue" stroke="midnightblue" points="417.3,-167.83 427.89,-167.43 419.36,-161.14 417.3,-167.83"/>
</g>
<!-- Node4 -->
<g id="node4" class="node">
<title>Node4</title>
<g id="a_node4"><a xlink:href="motor__friction__analyzer_8hpp.html" target="_top" xlink:title="モーター軸の摩擦力を計測するクラス">
<polygon fill="white" stroke="black" points="173.5,-6 173.5,-47 333.5,-47 333.5,-6 173.5,-6"/>
<text text-anchor="start" x="181.5" y="-35" font-family="Helvetica,sans-Serif" font-size="10.00">alps_common_lib/include</text>
<text text-anchor="start" x="181.5" y="-24" font-family="Helvetica,sans-Serif" font-size="10.00">/alps_cmn/tool/motor_friction</text>
<text text-anchor="middle" x="253.5" y="-13" font-family="Helvetica,sans-Serif" font-size="10.00">_analyzer.hpp</text>
</a>
</g>
</g>
<!-- Node1&#45;&gt;Node4 -->
<g id="edge15" class="edge">
<title>Node1&#45;&gt;Node4</title>
<path fill="none" stroke="midnightblue" d="M424.14,-163.63C403.72,-154.97 381.85,-144.03 363.5,-131 342.73,-116.25 342.82,-106.7 324.5,-89 309.37,-74.38 291.46,-58.88 277.41,-47.1"/>
<polygon fill="midnightblue" stroke="midnightblue" points="422.82,-166.87 433.4,-167.44 425.48,-160.4 422.82,-166.87"/>
</g>
<!-- Node5 -->
<g id="node5" class="node">
<title>Node5</title>
<g id="a_node5"><a xlink:href="motor__angle__controller_8hpp.html" target="_top" xlink:title=" ">
<polygon fill="white" stroke="black" points="372.5,-89.5 372.5,-130.5 512.5,-130.5 512.5,-89.5 372.5,-89.5"/>
<text text-anchor="start" x="380.5" y="-118.5" font-family="Helvetica,sans-Serif" font-size="10.00">alps_common_lib/include</text>
<text text-anchor="start" x="380.5" y="-107.5" font-family="Helvetica,sans-Serif" font-size="10.00">/alps_cmn/control/motor</text>
<text text-anchor="middle" x="442.5" y="-96.5" font-family="Helvetica,sans-Serif" font-size="10.00">_angle_controller.hpp</text>
</a>
</g>
</g>
<!-- Node1&#45;&gt;Node5 -->
<g id="edge4" class="edge">
<title>Node1&#45;&gt;Node5</title>
<path fill="none" stroke="midnightblue" d="M473.29,-158.76C467.23,-149.35 460.61,-139.1 455.08,-130.51"/>
<polygon fill="midnightblue" stroke="midnightblue" points="470.52,-160.92 478.88,-167.43 476.4,-157.13 470.52,-160.92"/>
</g>
<!-- Node6 -->
<g id="node6" class="node">
<title>Node6</title>
<g id="a_node6"><a xlink:href="motor__angle__velocity__controller_8hpp.html" target="_top" xlink:title=" ">
<polygon fill="white" stroke="black" points="360,-6 360,-47 525,-47 525,-6 360,-6"/>
<text text-anchor="start" x="368" y="-35" font-family="Helvetica,sans-Serif" font-size="10.00">alps_common_lib/include</text>
<text text-anchor="start" x="368" y="-24" font-family="Helvetica,sans-Serif" font-size="10.00">/alps_cmn/control/motor</text>
<text text-anchor="middle" x="442.5" y="-13" font-family="Helvetica,sans-Serif" font-size="10.00">_angle_velocity_controller.hpp</text>
</a>
</g>
</g>
<!-- Node1&#45;&gt;Node6 -->
<g id="edge6" class="edge">
<title>Node1&#45;&gt;Node6</title>
<path fill="none" stroke="midnightblue" d="M511.23,-158.49C522.5,-138.44 532.41,-111.32 521.5,-89 512.87,-71.35 496.47,-57.3 480.84,-47.11"/>
<polygon fill="midnightblue" stroke="midnightblue" points="508.17,-156.79 506.03,-167.16 514.17,-160.39 508.17,-156.79"/>
</g>
<!-- Node7 -->
<g id="node7" class="node">
<title>Node7</title>
<g id="a_node7"><a xlink:href="motor__velocity__controller_8hpp.html" target="_top" xlink:title=" ">
<polygon fill="white" stroke="black" points="568.5,-89.5 568.5,-130.5 708.5,-130.5 708.5,-89.5 568.5,-89.5"/>
<text text-anchor="start" x="576.5" y="-118.5" font-family="Helvetica,sans-Serif" font-size="10.00">alps_common_lib/include</text>
<text text-anchor="start" x="576.5" y="-107.5" font-family="Helvetica,sans-Serif" font-size="10.00">/alps_cmn/control/motor</text>
<text text-anchor="middle" x="638.5" y="-96.5" font-family="Helvetica,sans-Serif" font-size="10.00">_velocity_controller.hpp</text>
</a>
</g>
</g>
<!-- Node1&#45;&gt;Node7 -->
<g id="edge7" class="edge">
<title>Node1&#45;&gt;Node7</title>
<path fill="none" stroke="midnightblue" d="M538.37,-162.77C558.52,-152.35 581.76,-140.34 600.77,-130.51"/>
<polygon fill="midnightblue" stroke="midnightblue" points="536.63,-159.73 529.36,-167.43 539.85,-165.94 536.63,-159.73"/>
</g>
<!-- Node11 -->
<g id="node11" class="node">
<title>Node11</title>
<g id="a_node11"><a xlink:href="alps__common__lib_2include_2alps__cmn_2sensor_2incremental__encoder_8hpp.html" target="_top" xlink:title=" ">
<polygon fill="white" stroke="black" points="727,-89.5 727,-130.5 890,-130.5 890,-89.5 727,-89.5"/>
<text text-anchor="start" x="735" y="-118.5" font-family="Helvetica,sans-Serif" font-size="10.00">alps_common_lib/include</text>
<text text-anchor="start" x="735" y="-107.5" font-family="Helvetica,sans-Serif" font-size="10.00">/alps_cmn/sensor/incremental</text>
<text text-anchor="middle" x="808.5" y="-96.5" font-family="Helvetica,sans-Serif" font-size="10.00">_encoder.hpp</text>
</a>
</g>
</g>
<!-- Node1&#45;&gt;Node11 -->
<g id="edge12" class="edge">
<title>Node1&#45;&gt;Node11</title>
<path fill="none" stroke="midnightblue" d="M572.55,-167.57C619.92,-156.21 679.52,-141.92 726.97,-130.55"/>
<polygon fill="midnightblue" stroke="midnightblue" points="571.55,-164.21 562.64,-169.94 573.18,-171.02 571.55,-164.21"/>
</g>
<!-- Node13 -->
<g id="node13" class="node">
<title>Node13</title>
<g id="a_node13"><a xlink:href="potentiometer_8hpp.html" target="_top" xlink:title="ポテンショメータのクラス">
<polygon fill="white" stroke="black" points="908.5,-95 908.5,-125 1102.5,-125 1102.5,-95 908.5,-95"/>
<text text-anchor="start" x="916.5" y="-113" font-family="Helvetica,sans-Serif" font-size="10.00">alps_common_lib/include</text>
<text text-anchor="middle" x="1005.5" y="-102" font-family="Helvetica,sans-Serif" font-size="10.00">/alps_cmn/sensor/potentiometer.hpp</text>
</a>
</g>
</g>
<!-- Node1&#45;&gt;Node13 -->
<g id="edge14" class="edge">
<title>Node1&#45;&gt;Node13</title>
<path fill="none" stroke="midnightblue" d="M572.85,-177.05C655.32,-166.68 786.54,-149.4 899.5,-131 910.59,-129.19 922.3,-127.14 933.74,-125.04"/>
<polygon fill="midnightblue" stroke="midnightblue" points="572.27,-173.6 562.79,-178.31 573.14,-180.54 572.27,-173.6"/>
</g>
<!-- Node3&#45;&gt;Node4 -->
<g id="edge3" class="edge">
<title>Node3&#45;&gt;Node4</title>
<path fill="none" stroke="midnightblue" d="M247.81,-79.06C248.99,-68.38 250.28,-56.63 251.34,-47.05"/>
<polygon fill="midnightblue" stroke="midnightblue" points="244.3,-78.95 246.68,-89.27 251.26,-79.72 244.3,-78.95"/>
</g>
<!-- Node5&#45;&gt;Node6 -->
<g id="edge5" class="edge">
<title>Node5&#45;&gt;Node6</title>
<path fill="none" stroke="midnightblue" d="M442.5,-79.06C442.5,-68.38 442.5,-56.63 442.5,-47.05"/>
<polygon fill="midnightblue" stroke="midnightblue" points="439,-79.27 442.5,-89.27 446,-79.27 439,-79.27"/>
</g>
<!-- Node7&#45;&gt;Node6 -->
<g id="edge9" class="edge">
<title>Node7&#45;&gt;Node6</title>
<path fill="none" stroke="midnightblue" d="M582.24,-85.61C552.85,-73.39 517.29,-58.6 489.4,-47"/>
<polygon fill="midnightblue" stroke="midnightblue" points="580.98,-88.87 591.55,-89.48 583.66,-82.41 580.98,-88.87"/>
</g>
<!-- Node8 -->
<g id="node8" class="node">
<title>Node8</title>
<g id="a_node8"><a xlink:href="custom__type__serialize__rule_8hpp.html" target="_top" xlink:title="カスタム型のシリアライズ規則を定義する">
<polygon fill="white" stroke="black" points="543.5,-6 543.5,-47 717.5,-47 717.5,-6 543.5,-6"/>
<text text-anchor="start" x="551.5" y="-35" font-family="Helvetica,sans-Serif" font-size="10.00">alps_common_lib/include</text>
<text text-anchor="start" x="551.5" y="-24" font-family="Helvetica,sans-Serif" font-size="10.00">/alps_cmn/communication</text>
<text text-anchor="middle" x="630.5" y="-13" font-family="Helvetica,sans-Serif" font-size="10.00">/custom_type_serialize_rule.hpp</text>
</a>
</g>
</g>
<!-- Node7&#45;&gt;Node8 -->
<g id="edge8" class="edge">
<title>Node7&#45;&gt;Node8</title>
<path fill="none" stroke="midnightblue" d="M635.56,-79.06C634.51,-68.38 633.36,-56.63 632.42,-47.05"/>
<polygon fill="midnightblue" stroke="midnightblue" points="632.1,-79.66 636.56,-89.27 639.07,-78.98 632.1,-79.66"/>
</g>
<!-- Node9 -->
<g id="node9" class="node">
<title>Node9</title>
<g id="a_node9"><a xlink:href="custom__type__can__topic__conversion__rule_8hpp.html" target="_top" xlink:title=" ">
<polygon fill="white" stroke="black" points="736,-0.5 736,-52.5 929,-52.5 929,-0.5 736,-0.5"/>
<text text-anchor="start" x="744" y="-40.5" font-family="Helvetica,sans-Serif" font-size="10.00">alps_ros2_lib/include</text>
<text text-anchor="start" x="744" y="-29.5" font-family="Helvetica,sans-Serif" font-size="10.00">/alps_ros2/communication</text>
<text text-anchor="start" x="744" y="-18.5" font-family="Helvetica,sans-Serif" font-size="10.00">/custom_type_can_topic_conversion</text>
<text text-anchor="middle" x="832.5" y="-7.5" font-family="Helvetica,sans-Serif" font-size="10.00">_rule.hpp</text>
</a>
</g>
</g>
<!-- Node7&#45;&gt;Node9 -->
<g id="edge10" class="edge">
<title>Node7&#45;&gt;Node9</title>
<path fill="none" stroke="midnightblue" d="M694.49,-85.48C719.03,-75.17 747.86,-63.06 772.81,-52.58"/>
<polygon fill="midnightblue" stroke="midnightblue" points="692.83,-82.38 684.97,-89.48 695.54,-88.83 692.83,-82.38"/>
</g>
<!-- Node10 -->
<g id="node10" class="node">
<title>Node10</title>
<g id="a_node10"><a xlink:href="custom__type__param__conversion__rule_8hpp.html" target="_top" xlink:title=" ">
<polygon fill="white" stroke="black" points="947,-0.5 947,-52.5 1086,-52.5 1086,-0.5 947,-0.5"/>
<text text-anchor="start" x="955" y="-40.5" font-family="Helvetica,sans-Serif" font-size="10.00">alps_ros2_lib/include</text>
<text text-anchor="start" x="955" y="-29.5" font-family="Helvetica,sans-Serif" font-size="10.00">/alps_ros2/util/custom</text>
<text text-anchor="start" x="955" y="-18.5" font-family="Helvetica,sans-Serif" font-size="10.00">_type_param_conversion</text>
<text text-anchor="middle" x="1016.5" y="-7.5" font-family="Helvetica,sans-Serif" font-size="10.00">_rule.hpp</text>
</a>
</g>
</g>
<!-- Node7&#45;&gt;Node10 -->
<g id="edge11" class="edge">
<title>Node7&#45;&gt;Node10</title>
<path fill="none" stroke="midnightblue" d="M718.2,-89.06C718.3,-89.04 718.4,-89.02 718.5,-89 815.53,-68.97 842.24,-76.46 938.5,-53 941.27,-52.33 944.08,-51.6 946.91,-50.84"/>
<polygon fill="midnightblue" stroke="midnightblue" points="717.71,-85.59 708.66,-91.11 719.18,-92.43 717.71,-85.59"/>
</g>
<!-- Node12 -->
<g id="node12" class="node">
<title>Node12</title>
<g id="a_node12"><a xlink:href="alps__mbed__lib_2include_2alps__mbed_2sensor_2incremental__encoder_8hpp.html" target="_top" xlink:title=" ">
<polygon fill="white" stroke="black" points="1104.5,-6 1104.5,-47 1274.5,-47 1274.5,-6 1104.5,-6"/>
<text text-anchor="start" x="1112.5" y="-35" font-family="Helvetica,sans-Serif" font-size="10.00">alps_mbed_lib/include</text>
<text text-anchor="start" x="1112.5" y="-24" font-family="Helvetica,sans-Serif" font-size="10.00">/alps_mbed/sensor/incremental</text>
<text text-anchor="middle" x="1189.5" y="-13" font-family="Helvetica,sans-Serif" font-size="10.00">_encoder.hpp</text>
</a>
</g>
</g>
<!-- Node11&#45;&gt;Node12 -->
<g id="edge13" class="edge">
<title>Node11&#45;&gt;Node12</title>
<path fill="none" stroke="midnightblue" d="M900.18,-88.91C988,-71.54 1012.17,-71.92 1095.5,-53 1103.5,-51.18 1111.84,-49.14 1120.11,-47.02"/>
<polygon fill="midnightblue" stroke="midnightblue" points="899.44,-85.48 890.32,-90.88 900.82,-92.35 899.44,-85.48"/>
</g>
</g>
</svg>
