<?xml version="1.0" encoding="UTF-8" standalone="no"?>
<!DOCTYPE svg PUBLIC "-//W3C//DTD SVG 1.1//EN"
 "http://www.w3.org/Graphics/SVG/1.1/DTD/svg11.dtd">
<!-- Generated by graphviz version 2.43.0 (0)
 -->
<!-- Title: alps_common_lib/include/alps_cmn/communication/i_uart_io.hpp Pages: 1 -->
<svg width="490pt" height="128pt"
 viewBox="0.00 0.00 489.50 128.00" xmlns="http://www.w3.org/2000/svg" xmlns:xlink="http://www.w3.org/1999/xlink">
<g id="graph0" class="graph" transform="scale(1 1) rotate(0) translate(4 124)">
<title>alps_common_lib/include/alps_cmn/communication/i_uart_io.hpp</title>
<polygon fill="white" stroke="transparent" points="-4,4 -4,-124 485.5,-124 485.5,4 -4,4"/>
<!-- Node1 -->
<g id="node1" class="node">
<title>Node1</title>
<g id="a_node1"><a xlink:title=" ">
<polygon fill="#bfbfbf" stroke="black" points="171,-78.5 171,-119.5 316,-119.5 316,-78.5 171,-78.5"/>
<text text-anchor="start" x="179" y="-107.5" font-family="Helvetica,sans-Serif" font-size="10.00">alps_common_lib/include</text>
<text text-anchor="start" x="179" y="-96.5" font-family="Helvetica,sans-Serif" font-size="10.00">/alps_cmn/communication</text>
<text text-anchor="middle" x="243.5" y="-85.5" font-family="Helvetica,sans-Serif" font-size="10.00">/i_uart_io.hpp</text>
</a>
</g>
</g>
<!-- Node2 -->
<g id="node2" class="node">
<title>Node2</title>
<g id="a_node2"><a xlink:href="uart__packet__transceiver_8hpp.html" target="_top" xlink:title=" ">
<polygon fill="white" stroke="black" points="0,-0.5 0,-41.5 157,-41.5 157,-0.5 0,-0.5"/>
<text text-anchor="start" x="8" y="-29.5" font-family="Helvetica,sans-Serif" font-size="10.00">alps_common_lib/include</text>
<text text-anchor="start" x="8" y="-18.5" font-family="Helvetica,sans-Serif" font-size="10.00">/alps_cmn/communication</text>
<text text-anchor="middle" x="78.5" y="-7.5" font-family="Helvetica,sans-Serif" font-size="10.00">/uart_packet_transceiver.hpp</text>
</a>
</g>
</g>
<!-- Node1&#45;&gt;Node2 -->
<g id="edge1" class="edge">
<title>Node1&#45;&gt;Node2</title>
<path fill="none" stroke="midnightblue" d="M191.81,-74.19C168.98,-63.67 142.48,-51.47 120.85,-41.51"/>
<polygon fill="midnightblue" stroke="midnightblue" points="190.46,-77.42 201.01,-78.43 193.39,-71.07 190.46,-77.42"/>
</g>
<!-- Node3 -->
<g id="node3" class="node">
<title>Node3</title>
<g id="a_node3"><a xlink:href="alps__linux__lib_2include_2alps__lin_2communication_2uart__io_8hpp.html" target="_top" xlink:title="Ubuntuシリアル通信IOライブラリ">
<polygon fill="white" stroke="black" points="175.5,-0.5 175.5,-41.5 311.5,-41.5 311.5,-0.5 175.5,-0.5"/>
<text text-anchor="start" x="183.5" y="-29.5" font-family="Helvetica,sans-Serif" font-size="10.00">alps_linux_lib/include</text>
<text text-anchor="start" x="183.5" y="-18.5" font-family="Helvetica,sans-Serif" font-size="10.00">/alps_lin/communication</text>
<text text-anchor="middle" x="243.5" y="-7.5" font-family="Helvetica,sans-Serif" font-size="10.00">/uart_io.hpp</text>
</a>
</g>
</g>
<!-- Node1&#45;&gt;Node3 -->
<g id="edge2" class="edge">
<title>Node1&#45;&gt;Node3</title>
<path fill="none" stroke="midnightblue" d="M243.5,-68.3C243.5,-59.3 243.5,-49.65 243.5,-41.51"/>
<polygon fill="midnightblue" stroke="midnightblue" points="240,-68.43 243.5,-78.43 247,-68.43 240,-68.43"/>
</g>
<!-- Node4 -->
<g id="node4" class="node">
<title>Node4</title>
<g id="a_node4"><a xlink:href="alps__mbed__lib_2include_2alps__mbed_2communication_2uart__io_8hpp.html" target="_top" xlink:title="mbedのUart通信IOライブラリ">
<polygon fill="white" stroke="black" points="329.5,-0.5 329.5,-41.5 481.5,-41.5 481.5,-0.5 329.5,-0.5"/>
<text text-anchor="start" x="337.5" y="-29.5" font-family="Helvetica,sans-Serif" font-size="10.00">alps_mbed_lib/include</text>
<text text-anchor="start" x="337.5" y="-18.5" font-family="Helvetica,sans-Serif" font-size="10.00">/alps_mbed/communication</text>
<text text-anchor="middle" x="405.5" y="-7.5" font-family="Helvetica,sans-Serif" font-size="10.00">/uart_io.hpp</text>
</a>
</g>
</g>
<!-- Node1&#45;&gt;Node4 -->
<g id="edge3" class="edge">
<title>Node1&#45;&gt;Node4</title>
<path fill="none" stroke="midnightblue" d="M294.55,-74.05C316.9,-63.57 342.78,-51.42 363.92,-41.51"/>
<polygon fill="midnightblue" stroke="midnightblue" points="292.79,-71.01 285.22,-78.43 295.76,-77.35 292.79,-71.01"/>
</g>
</g>
</svg>
