<?xml version="1.0" encoding="UTF-8" standalone="no"?>
<!DOCTYPE svg PUBLIC "-//W3C//DTD SVG 1.1//EN"
 "http://www.w3.org/Graphics/SVG/1.1/DTD/svg11.dtd">
<!-- Generated by graphviz version 2.43.0 (0)
 -->
<!-- Title: roblab_common_lib/include/roblab_common/serial/i_uart_io.hpp Pages: 1 -->
<svg width="256pt" height="170pt"
 viewBox="0.00 0.00 255.50 170.00" xmlns="http://www.w3.org/2000/svg" xmlns:xlink="http://www.w3.org/1999/xlink">
<g id="graph0" class="graph" transform="scale(1 1) rotate(0) translate(4 166)">
<title>roblab_common_lib/include/roblab_common/serial/i_uart_io.hpp</title>
<!-- Node1 -->
<g id="node1" class="node">
<title>Node1</title>
<g id="a_node1"><a xlink:title=" ">
<polygon fill="#999999" stroke="#666666" points="199.5,-162 48.5,-162 48.5,-121 199.5,-121 199.5,-162"/>
<text text-anchor="start" x="56.5" y="-150" font-family="Helvetica,sans-Serif" font-size="10.00">roblab_common_lib/include</text>
<text text-anchor="start" x="56.5" y="-139" font-family="Helvetica,sans-Serif" font-size="10.00">/roblab_common/serial/i</text>
<text text-anchor="middle" x="124" y="-128" font-family="Helvetica,sans-Serif" font-size="10.00">_uart_io.hpp</text>
</a>
</g>
</g>
<!-- Node2 -->
<g id="node2" class="node">
<title>Node2</title>
<g id="a_node2"><a xlink:href="byte__ring__buffer_8hpp.html" target="_top" xlink:title="シリアル通信用リングバッファー">
<polygon fill="white" stroke="#666666" points="186.5,-85 61.5,-85 61.5,-55 186.5,-55 186.5,-85"/>
<text text-anchor="start" x="69.5" y="-73" font-family="Helvetica,sans-Serif" font-size="10.00">roblab_common/serial</text>
<text text-anchor="middle" x="124" y="-62" font-family="Helvetica,sans-Serif" font-size="10.00">/byte_ring_buffer.hpp</text>
</a>
</g>
</g>
<!-- Node1&#45;&gt;Node2 -->
<g id="edge1" class="edge">
<title>Node1&#45;&gt;Node2</title>
<path fill="none" stroke="#63b8ff" d="M124,-120.77C124,-112.85 124,-103.63 124,-95.3"/>
<polygon fill="#63b8ff" stroke="#63b8ff" points="127.5,-95.04 124,-85.04 120.5,-95.04 127.5,-95.04"/>
</g>
<!-- Node3 -->
<g id="node3" class="node">
<title>Node3</title>
<g id="a_node3"><a xlink:title=" ">
<polygon fill="#e0e0e0" stroke="#999999" points="50,-19 0,-19 0,0 50,0 50,-19"/>
<text text-anchor="middle" x="25" y="-7" font-family="Helvetica,sans-Serif" font-size="10.00">cstdint</text>
</a>
</g>
</g>
<!-- Node2&#45;&gt;Node3 -->
<g id="edge2" class="edge">
<title>Node2&#45;&gt;Node3</title>
<path fill="none" stroke="#63b8ff" d="M100.29,-54.99C84.65,-45.75 64.26,-33.7 48.64,-24.47"/>
<polygon fill="#63b8ff" stroke="#63b8ff" points="50.01,-21.21 39.62,-19.14 46.45,-27.24 50.01,-21.21"/>
</g>
<!-- Node4 -->
<g id="node4" class="node">
<title>Node4</title>
<g id="a_node4"><a xlink:title=" ">
<polygon fill="#e0e0e0" stroke="#999999" points="115.5,-19 68.5,-19 68.5,0 115.5,0 115.5,-19"/>
<text text-anchor="middle" x="92" y="-7" font-family="Helvetica,sans-Serif" font-size="10.00">vector</text>
</a>
</g>
</g>
<!-- Node2&#45;&gt;Node4 -->
<g id="edge3" class="edge">
<title>Node2&#45;&gt;Node4</title>
<path fill="none" stroke="#63b8ff" d="M116.25,-54.84C111.85,-46.78 106.29,-36.62 101.6,-28.06"/>
<polygon fill="#63b8ff" stroke="#63b8ff" points="104.66,-26.36 96.8,-19.27 98.52,-29.72 104.66,-26.36"/>
</g>
<!-- Node5 -->
<g id="node5" class="node">
<title>Node5</title>
<g id="a_node5"><a xlink:title=" ">
<polygon fill="#e0e0e0" stroke="#999999" points="180,-19 134,-19 134,0 180,0 180,-19"/>
<text text-anchor="middle" x="157" y="-7" font-family="Helvetica,sans-Serif" font-size="10.00">cstdio</text>
</a>
</g>
</g>
<!-- Node2&#45;&gt;Node5 -->
<g id="edge4" class="edge">
<title>Node2&#45;&gt;Node5</title>
<path fill="none" stroke="#63b8ff" d="M131.99,-54.84C136.53,-46.78 142.27,-36.62 147.1,-28.06"/>
<polygon fill="#63b8ff" stroke="#63b8ff" points="150.19,-29.7 152.06,-19.27 144.09,-26.26 150.19,-29.7"/>
</g>
<!-- Node6 -->
<g id="node6" class="node">
<title>Node6</title>
<g id="a_node6"><a xlink:title=" ">
<polygon fill="#e0e0e0" stroke="#999999" points="247.5,-19 198.5,-19 198.5,0 247.5,0 247.5,-19"/>
<text text-anchor="middle" x="223" y="-7" font-family="Helvetica,sans-Serif" font-size="10.00">cstdlib</text>
</a>
</g>
</g>
<!-- Node2&#45;&gt;Node6 -->
<g id="edge5" class="edge">
<title>Node2&#45;&gt;Node6</title>
<path fill="none" stroke="#63b8ff" d="M147.71,-54.99C163.35,-45.75 183.74,-33.7 199.36,-24.47"/>
<polygon fill="#63b8ff" stroke="#63b8ff" points="201.55,-27.24 208.38,-19.14 197.99,-21.21 201.55,-27.24"/>
</g>
</g>
</svg>
