<?xml version="1.0" encoding="UTF-8" standalone="no"?>
<!DOCTYPE svg PUBLIC "-//W3C//DTD SVG 1.1//EN"
 "http://www.w3.org/Graphics/SVG/1.1/DTD/svg11.dtd">
<!-- Generated by graphviz version 2.43.0 (0)
 -->
<!-- Title: alps_core/lib_internal/alps_common_lib/include/alps_cmn/communication/i_uart_io.hpp Pages: 1 -->
<svg width="490pt" height="148pt"
 viewBox="0.00 0.00 489.50 148.00" xmlns="http://www.w3.org/2000/svg" xmlns:xlink="http://www.w3.org/1999/xlink">
<g id="graph0" class="graph" transform="scale(1 1) rotate(0) translate(4 144)">
<title>alps_core/lib_internal/alps_common_lib/include/alps_cmn/communication/i_uart_io.hpp</title>
<!-- Node1 -->
<g id="Node000001" class="node">
<title>Node1</title>
<g id="a_Node000001"><a xlink:title=" ">
<polygon fill="#999999" stroke="#666666" points="316,-140 171,-140 171,-88 316,-88 316,-140"/>
<text text-anchor="start" x="179" y="-128" font-family="Helvetica,sans-Serif" font-size="10.00">alps_core/lib_internal</text>
<text text-anchor="start" x="179" y="-117" font-family="Helvetica,sans-Serif" font-size="10.00">/alps_common_lib/include</text>
<text text-anchor="start" x="179" y="-106" font-family="Helvetica,sans-Serif" font-size="10.00">/alps_cmn/communication</text>
<text text-anchor="middle" x="243.5" y="-95" font-family="Helvetica,sans-Serif" font-size="10.00">/i_uart_io.hpp</text>
</a>
</g>
</g>
<!-- Node2 -->
<g id="Node000002" class="node">
<title>Node2</title>
<g id="a_Node000002"><a xlink:href="uart__packet__transceiver_8hpp.html" target="_top" xlink:title=" ">
<polygon fill="white" stroke="#666666" points="157,-52 0,-52 0,0 157,0 157,-52"/>
<text text-anchor="start" x="8" y="-40" font-family="Helvetica,sans-Serif" font-size="10.00">alps_core/lib_internal</text>
<text text-anchor="start" x="8" y="-29" font-family="Helvetica,sans-Serif" font-size="10.00">/alps_common_lib/include</text>
<text text-anchor="start" x="8" y="-18" font-family="Helvetica,sans-Serif" font-size="10.00">/alps_cmn/communication</text>
<text text-anchor="middle" x="78.5" y="-7" font-family="Helvetica,sans-Serif" font-size="10.00">/uart_packet_transceiver.hpp</text>
</a>
</g>
</g>
<!-- Node1&#45;&gt;Node2 -->
<g id="edge1_Node000001_Node000002" class="edge">
<title>Node1&#45;&gt;Node2</title>
<g id="a_edge1_Node000001_Node000002"><a xlink:title=" ">
<path fill="none" stroke="#63b8ff" d="M186.28,-83.18C166.86,-73.06 145.37,-61.86 126.73,-52.14"/>
<polygon fill="#63b8ff" stroke="#63b8ff" points="184.85,-86.38 195.33,-87.89 188.08,-80.17 184.85,-86.38"/>
</a>
</g>
</g>
<!-- Node3 -->
<g id="Node000003" class="node">
<title>Node3</title>
<g id="a_Node000003"><a xlink:href="alps__linux__lib_2include_2alps__lin_2communication_2uart__io_8hpp.html" target="_top" xlink:title="Ubuntuシリアル通信IOライブラリ">
<polygon fill="white" stroke="#666666" points="311.5,-52 175.5,-52 175.5,0 311.5,0 311.5,-52"/>
<text text-anchor="start" x="183.5" y="-40" font-family="Helvetica,sans-Serif" font-size="10.00">alps_core/lib_internal</text>
<text text-anchor="start" x="183.5" y="-29" font-family="Helvetica,sans-Serif" font-size="10.00">/alps_linux_lib/include</text>
<text text-anchor="start" x="183.5" y="-18" font-family="Helvetica,sans-Serif" font-size="10.00">/alps_lin/communication</text>
<text text-anchor="middle" x="243.5" y="-7" font-family="Helvetica,sans-Serif" font-size="10.00">/uart_io.hpp</text>
</a>
</g>
</g>
<!-- Node1&#45;&gt;Node3 -->
<g id="edge2_Node000001_Node000003" class="edge">
<title>Node1&#45;&gt;Node3</title>
<g id="a_edge2_Node000001_Node000003"><a xlink:title=" ">
<path fill="none" stroke="#63b8ff" d="M243.5,-77.56C243.5,-69.04 243.5,-60.1 243.5,-52.16"/>
<polygon fill="#63b8ff" stroke="#63b8ff" points="240,-77.66 243.5,-87.66 247,-77.66 240,-77.66"/>
</a>
</g>
</g>
<!-- Node4 -->
<g id="Node000004" class="node">
<title>Node4</title>
<g id="a_Node000004"><a xlink:href="alps__mbed__lib_2include_2alps__mbed_2communication_2uart__io_8hpp.html" target="_top" xlink:title="mbedのUart通信IOライブラリ">
<polygon fill="white" stroke="#666666" points="481.5,-52 329.5,-52 329.5,0 481.5,0 481.5,-52"/>
<text text-anchor="start" x="337.5" y="-40" font-family="Helvetica,sans-Serif" font-size="10.00">alps_core/lib_internal</text>
<text text-anchor="start" x="337.5" y="-29" font-family="Helvetica,sans-Serif" font-size="10.00">/alps_mbed_lib/include</text>
<text text-anchor="start" x="337.5" y="-18" font-family="Helvetica,sans-Serif" font-size="10.00">/alps_mbed/communication</text>
<text text-anchor="middle" x="405.5" y="-7" font-family="Helvetica,sans-Serif" font-size="10.00">/uart_io.hpp</text>
</a>
</g>
</g>
<!-- Node1&#45;&gt;Node4 -->
<g id="edge3_Node000001_Node000004" class="edge">
<title>Node1&#45;&gt;Node4</title>
<g id="a_edge3_Node000001_Node000004"><a xlink:title=" ">
<path fill="none" stroke="#63b8ff" d="M299.68,-83.18C318.74,-73.06 339.84,-61.86 358.15,-52.14"/>
<polygon fill="#63b8ff" stroke="#63b8ff" points="297.98,-80.11 290.79,-87.89 301.27,-86.3 297.98,-80.11"/>
</a>
</g>
</g>
</g>
</svg>
