<?xml version="1.0" encoding="UTF-8" standalone="no"?>
<!DOCTYPE svg PUBLIC "-//W3C//DTD SVG 1.1//EN"
 "http://www.w3.org/Graphics/SVG/1.1/DTD/svg11.dtd">
<!-- Generated by graphviz version 2.43.0 (0)
 -->
<!-- Title: alps_common_lib/include/alps_cmn/communication/i_uart_io.hpp Pages: 1 -->
<svg width="494pt" height="203pt"
 viewBox="0.00 0.00 493.50 203.00" xmlns="http://www.w3.org/2000/svg" xmlns:xlink="http://www.w3.org/1999/xlink">
<g id="graph0" class="graph" transform="scale(1 1) rotate(0) translate(4 199)">
<title>alps_common_lib/include/alps_cmn/communication/i_uart_io.hpp</title>
<!-- Node1 -->
<g id="node1" class="node">
<title>Node1</title>
<g id="a_node1"><a xlink:title=" ">
<polygon fill="#999999" stroke="#666666" points="313,-195 168,-195 168,-154 313,-154 313,-195"/>
<text text-anchor="start" x="176" y="-183" font-family="Helvetica,sans-Serif" font-size="10.00">alps_common_lib/include</text>
<text text-anchor="start" x="176" y="-172" font-family="Helvetica,sans-Serif" font-size="10.00">/alps_cmn/communication</text>
<text text-anchor="middle" x="240.5" y="-161" font-family="Helvetica,sans-Serif" font-size="10.00">/i_uart_io.hpp</text>
</a>
</g>
</g>
<!-- Node2 -->
<g id="node2" class="node">
<title>Node2</title>
<g id="a_node2"><a xlink:href="id__packet__manager_8hpp.html" target="_top" xlink:title="ID付きパケットデータを管理">
<polygon fill="white" stroke="#666666" points="146,-118 1,-118 1,-77 146,-77 146,-118"/>
<text text-anchor="start" x="9" y="-106" font-family="Helvetica,sans-Serif" font-size="10.00">alps_common_lib/include</text>
<text text-anchor="start" x="9" y="-95" font-family="Helvetica,sans-Serif" font-size="10.00">/alps_cmn/communication</text>
<text text-anchor="middle" x="73.5" y="-84" font-family="Helvetica,sans-Serif" font-size="10.00">/id_packet_manager.hpp</text>
</a>
</g>
</g>
<!-- Node1&#45;&gt;Node2 -->
<g id="edge1" class="edge">
<title>Node1&#45;&gt;Node2</title>
<path fill="none" stroke="#63b8ff" d="M187.86,-149.86C165.06,-139.62 138.68,-127.77 117.01,-118.04"/>
<polygon fill="#63b8ff" stroke="#63b8ff" points="186.5,-153.09 197.06,-153.99 189.37,-146.7 186.5,-153.09"/>
</g>
<!-- Node6 -->
<g id="node6" class="node">
<title>Node6</title>
<g id="a_node6"><a xlink:href="uart__io_8hpp.html" target="_top" xlink:title="mbedのUart通信IOライブラリ">
<polygon fill="white" stroke="#666666" points="316.5,-118 164.5,-118 164.5,-77 316.5,-77 316.5,-118"/>
<text text-anchor="start" x="172.5" y="-106" font-family="Helvetica,sans-Serif" font-size="10.00">alps_mbed_lib/include</text>
<text text-anchor="start" x="172.5" y="-95" font-family="Helvetica,sans-Serif" font-size="10.00">/alps_mbed/communication</text>
<text text-anchor="middle" x="240.5" y="-84" font-family="Helvetica,sans-Serif" font-size="10.00">/uart_io.hpp</text>
</a>
</g>
</g>
<!-- Node1&#45;&gt;Node6 -->
<g id="edge6" class="edge">
<title>Node1&#45;&gt;Node6</title>
<path fill="none" stroke="#63b8ff" d="M240.5,-143.69C240.5,-135.08 240.5,-125.9 240.5,-118.07"/>
<polygon fill="#63b8ff" stroke="#63b8ff" points="237,-143.79 240.5,-153.79 244,-143.79 237,-143.79"/>
</g>
<!-- Node7 -->
<g id="node7" class="node">
<title>Node7</title>
<g id="a_node7"><a xlink:href="ubuntu__uart__io_8hpp.html" target="_top" xlink:title="Ubuntuシリアル通信IOライブラリ">
<polygon fill="white" stroke="#666666" points="477,-118 338,-118 338,-77 477,-77 477,-118"/>
<text text-anchor="start" x="346" y="-106" font-family="Helvetica,sans-Serif" font-size="10.00">alps_ros_lib/include</text>
<text text-anchor="start" x="346" y="-95" font-family="Helvetica,sans-Serif" font-size="10.00">/alps_ros/communication</text>
<text text-anchor="middle" x="407.5" y="-84" font-family="Helvetica,sans-Serif" font-size="10.00">/ubuntu_uart_io.hpp</text>
</a>
</g>
</g>
<!-- Node1&#45;&gt;Node7 -->
<g id="edge8" class="edge">
<title>Node1&#45;&gt;Node7</title>
<path fill="none" stroke="#63b8ff" d="M293.14,-149.86C315.94,-139.62 342.32,-127.77 363.99,-118.04"/>
<polygon fill="#63b8ff" stroke="#63b8ff" points="291.63,-146.7 283.94,-153.99 294.5,-153.09 291.63,-146.7"/>
</g>
<!-- Node3 -->
<g id="node3" class="node">
<title>Node3</title>
<g id="a_node3"><a xlink:href="sender_8hpp.html" target="_top" xlink:title="シリアル通信で送るデータを登録">
<polygon fill="white" stroke="#666666" points="145,-41 0,-41 0,0 145,0 145,-41"/>
<text text-anchor="start" x="8" y="-29" font-family="Helvetica,sans-Serif" font-size="10.00">alps_common_lib/include</text>
<text text-anchor="start" x="8" y="-18" font-family="Helvetica,sans-Serif" font-size="10.00">/alps_cmn/communication</text>
<text text-anchor="middle" x="72.5" y="-7" font-family="Helvetica,sans-Serif" font-size="10.00">/sender.hpp</text>
</a>
</g>
</g>
<!-- Node2&#45;&gt;Node3 -->
<g id="edge2" class="edge">
<title>Node2&#45;&gt;Node3</title>
<path fill="none" stroke="#63b8ff" d="M66.48,-66.69C66.08,-58.08 66.16,-48.9 66.75,-41.07"/>
<polygon fill="#63b8ff" stroke="#63b8ff" points="63,-67.07 67.21,-76.79 69.98,-66.57 63,-67.07"/>
</g>
<!-- Node4 -->
<g id="node4" class="node">
<title>Node4</title>
<g id="a_node4"><a xlink:href="pc__uart__connection_8hpp.html" target="_top" xlink:title="パソコンと接続してパケット通信を行うライブラリ">
<polygon fill="white" stroke="#666666" points="315.5,-41 163.5,-41 163.5,0 315.5,0 315.5,-41"/>
<text text-anchor="start" x="171.5" y="-29" font-family="Helvetica,sans-Serif" font-size="10.00">alps_mbed_lib/include</text>
<text text-anchor="start" x="171.5" y="-18" font-family="Helvetica,sans-Serif" font-size="10.00">/alps_mbed/communication</text>
<text text-anchor="middle" x="239.5" y="-7" font-family="Helvetica,sans-Serif" font-size="10.00">/pc_uart_connection.hpp</text>
</a>
</g>
</g>
<!-- Node2&#45;&gt;Node4 -->
<g id="edge4" class="edge">
<title>Node2&#45;&gt;Node4</title>
<path fill="none" stroke="#63b8ff" d="M125.83,-72.86C148.49,-62.62 174.71,-50.77 196.25,-41.04"/>
<polygon fill="#63b8ff" stroke="#63b8ff" points="124.35,-69.68 116.68,-76.99 127.24,-76.06 124.35,-69.68"/>
</g>
<!-- Node5 -->
<g id="node5" class="node">
<title>Node5</title>
<g id="a_node5"><a xlink:href="mbed__uart__connection_8hpp.html" target="_top" xlink:title="接続された複数のMbedとシリアル通信を行う">
<polygon fill="white" stroke="#666666" points="485.5,-41 333.5,-41 333.5,0 485.5,0 485.5,-41"/>
<text text-anchor="start" x="341.5" y="-29" font-family="Helvetica,sans-Serif" font-size="10.00">alps_ros_lib/include</text>
<text text-anchor="start" x="341.5" y="-18" font-family="Helvetica,sans-Serif" font-size="10.00">/alps_ros/communication</text>
<text text-anchor="middle" x="409.5" y="-7" font-family="Helvetica,sans-Serif" font-size="10.00">/mbed_uart_connection.hpp</text>
</a>
</g>
</g>
<!-- Node2&#45;&gt;Node5 -->
<g id="edge5" class="edge">
<title>Node2&#45;&gt;Node5</title>
<path fill="none" stroke="#63b8ff" d="M156.38,-76.83C232.08,-59.88 252.59,-56.91 324.5,-41 327.31,-40.38 330.17,-39.74 333.06,-39.1"/>
<polygon fill="#63b8ff" stroke="#63b8ff" points="155.35,-73.47 146.36,-79.08 156.88,-80.3 155.35,-73.47"/>
</g>
<!-- Node3&#45;&gt;Node2 -->
<g id="edge3" class="edge">
<title>Node3&#45;&gt;Node2</title>
<path fill="none" stroke="#63b8ff" d="M79.51,-51.16C79.92,-59.77 79.85,-68.96 79.26,-76.79"/>
<polygon fill="#63b8ff" stroke="#63b8ff" points="83,-50.79 78.77,-41.07 76.01,-51.3 83,-50.79"/>
</g>
<!-- Node6&#45;&gt;Node4 -->
<g id="edge7" class="edge">
<title>Node6&#45;&gt;Node4</title>
<path fill="none" stroke="#63b8ff" d="M240.1,-66.69C239.99,-58.08 239.87,-48.9 239.76,-41.07"/>
<polygon fill="#63b8ff" stroke="#63b8ff" points="236.6,-66.84 240.24,-76.79 243.6,-66.75 236.6,-66.84"/>
</g>
<!-- Node7&#45;&gt;Node5 -->
<g id="edge9" class="edge">
<title>Node7&#45;&gt;Node5</title>
<path fill="none" stroke="#63b8ff" d="M408.29,-66.69C408.52,-58.08 408.77,-48.9 408.98,-41.07"/>
<polygon fill="#63b8ff" stroke="#63b8ff" points="404.79,-66.7 408.03,-76.79 411.79,-66.89 404.79,-66.7"/>
</g>
</g>
</svg>
