<?xml version="1.0" encoding="UTF-8" standalone="no"?>
<!DOCTYPE svg PUBLIC "-//W3C//DTD SVG 1.1//EN"
 "http://www.w3.org/Graphics/SVG/1.1/DTD/svg11.dtd">
<!-- Generated by graphviz version 2.43.0 (0)
 -->
<!-- Title: roblab_common_lib/include/roblab_common/serial/id_packet_manager.hpp Pages: 1 -->
<svg width="1260pt" height="236pt"
 viewBox="0.00 0.00 1259.50 236.00" xmlns="http://www.w3.org/2000/svg" xmlns:xlink="http://www.w3.org/1999/xlink">
<g id="graph0" class="graph" transform="scale(1 1) rotate(0) translate(4 232)">
<title>roblab_common_lib/include/roblab_common/serial/id_packet_manager.hpp</title>
<!-- Node1 -->
<g id="node1" class="node">
<title>Node1</title>
<g id="a_node1"><a xlink:title="ID付きパケットデータを管理">
<polygon fill="#999999" stroke="#666666" points="927.5,-228 776.5,-228 776.5,-187 927.5,-187 927.5,-228"/>
<text text-anchor="start" x="784.5" y="-216" font-family="Helvetica,sans-Serif" font-size="10.00">roblab_common_lib/include</text>
<text text-anchor="start" x="784.5" y="-205" font-family="Helvetica,sans-Serif" font-size="10.00">/roblab_common/serial/id</text>
<text text-anchor="middle" x="852" y="-194" font-family="Helvetica,sans-Serif" font-size="10.00">_packet_manager.hpp</text>
</a>
</g>
</g>
<!-- Node2 -->
<g id="node2" class="node">
<title>Node2</title>
<g id="a_node2"><a xlink:title=" ">
<polygon fill="#e0e0e0" stroke="#999999" points="44,-19 0,-19 0,0 44,0 44,-19"/>
<text text-anchor="middle" x="22" y="-7" font-family="Helvetica,sans-Serif" font-size="10.00">string</text>
</a>
</g>
</g>
<!-- Node1&#45;&gt;Node2 -->
<g id="edge1" class="edge">
<title>Node1&#45;&gt;Node2</title>
<path fill="none" stroke="#63b8ff" d="M776.28,-202.95C665.98,-196.92 454.99,-182.17 278,-151 162.28,-130.62 93.97,-177.88 22,-85 9.9,-69.38 12.24,-45.88 16.09,-29.46"/>
<polygon fill="#63b8ff" stroke="#63b8ff" points="19.58,-29.98 18.85,-19.41 12.83,-28.13 19.58,-29.98"/>
</g>
<!-- Node3 -->
<g id="node3" class="node">
<title>Node3</title>
<g id="a_node3"><a xlink:title=" ">
<polygon fill="#e0e0e0" stroke="#999999" points="898.5,-145.5 805.5,-145.5 805.5,-126.5 898.5,-126.5 898.5,-145.5"/>
<text text-anchor="middle" x="852" y="-133.5" font-family="Helvetica,sans-Serif" font-size="10.00">unordered_map</text>
</a>
</g>
</g>
<!-- Node1&#45;&gt;Node3 -->
<g id="edge2" class="edge">
<title>Node1&#45;&gt;Node3</title>
<path fill="none" stroke="#63b8ff" d="M852,-186.77C852,-177.08 852,-165.46 852,-155.88"/>
<polygon fill="#63b8ff" stroke="#63b8ff" points="855.5,-155.82 852,-145.82 848.5,-155.82 855.5,-155.82"/>
</g>
<!-- Node4 -->
<g id="node4" class="node">
<title>Node4</title>
<g id="a_node4"><a xlink:title=" ">
<polygon fill="#e0e0e0" stroke="#999999" points="804,-79.5 752,-79.5 752,-60.5 804,-60.5 804,-79.5"/>
<text text-anchor="middle" x="778" y="-67.5" font-family="Helvetica,sans-Serif" font-size="10.00">cassert</text>
</a>
</g>
</g>
<!-- Node1&#45;&gt;Node4 -->
<g id="edge3" class="edge">
<title>Node1&#45;&gt;Node4</title>
<path fill="none" stroke="#63b8ff" d="M827.22,-186.95C816.44,-177.22 804.58,-164.64 797,-151 786.41,-131.94 781.69,-107.14 779.61,-90.24"/>
<polygon fill="#63b8ff" stroke="#63b8ff" points="783.06,-89.56 778.55,-79.97 776.1,-90.28 783.06,-89.56"/>
</g>
<!-- Node5 -->
<g id="node5" class="node">
<title>Node5</title>
<g id="a_node5"><a xlink:title=" ">
<polygon fill="#e0e0e0" stroke="#999999" points="975,-145.5 917,-145.5 917,-126.5 975,-126.5 975,-145.5"/>
<text text-anchor="middle" x="946" y="-133.5" font-family="Helvetica,sans-Serif" font-size="10.00">memory</text>
</a>
</g>
</g>
<!-- Node1&#45;&gt;Node5 -->
<g id="edge4" class="edge">
<title>Node1&#45;&gt;Node5</title>
<path fill="none" stroke="#63b8ff" d="M878.43,-186.96C893.58,-175.76 912.27,-161.94 926.16,-151.67"/>
<polygon fill="#63b8ff" stroke="#63b8ff" points="928.54,-154.26 934.5,-145.5 924.38,-148.63 928.54,-154.26"/>
</g>
<!-- Node6 -->
<g id="node6" class="node">
<title>Node6</title>
<g id="a_node6"><a xlink:title=" ">
<polygon fill="#e0e0e0" stroke="#999999" points="1025,-145.5 993,-145.5 993,-126.5 1025,-126.5 1025,-145.5"/>
<text text-anchor="middle" x="1009" y="-133.5" font-family="Helvetica,sans-Serif" font-size="10.00">list</text>
</a>
</g>
</g>
<!-- Node1&#45;&gt;Node6 -->
<g id="edge5" class="edge">
<title>Node1&#45;&gt;Node6</title>
<path fill="none" stroke="#63b8ff" d="M902.11,-186.98C927.03,-176.89 957.42,-163.98 984,-151 984.42,-150.79 984.85,-150.58 985.28,-150.37"/>
<polygon fill="#63b8ff" stroke="#63b8ff" points="987.14,-153.34 994.34,-145.57 983.87,-147.16 987.14,-153.34"/>
</g>
<!-- Node7 -->
<g id="node7" class="node">
<title>Node7</title>
<g id="a_node7"><a xlink:title=" ">
<polygon fill="#e0e0e0" stroke="#999999" points="1108.5,-145.5 1043.5,-145.5 1043.5,-126.5 1108.5,-126.5 1108.5,-145.5"/>
<text text-anchor="middle" x="1076" y="-133.5" font-family="Helvetica,sans-Serif" font-size="10.00">functional</text>
</a>
</g>
</g>
<!-- Node1&#45;&gt;Node7 -->
<g id="edge6" class="edge">
<title>Node1&#45;&gt;Node7</title>
<path fill="none" stroke="#63b8ff" d="M917.41,-187C952.12,-176.54 995.45,-163.3 1034,-151 1036.29,-150.27 1038.64,-149.51 1041.01,-148.74"/>
<polygon fill="#63b8ff" stroke="#63b8ff" points="1042.31,-152 1050.72,-145.55 1040.12,-145.35 1042.31,-152"/>
</g>
<!-- Node8 -->
<g id="node8" class="node">
<title>Node8</title>
<g id="a_node8"><a xlink:href="cobs_8hpp.html" target="_top" xlink:title="COBS変換ライブラリ">
<polygon fill="white" stroke="#666666" points="748.5,-151 623.5,-151 623.5,-121 748.5,-121 748.5,-151"/>
<text text-anchor="start" x="631.5" y="-139" font-family="Helvetica,sans-Serif" font-size="10.00">roblab_common/serial</text>
<text text-anchor="middle" x="686" y="-128" font-family="Helvetica,sans-Serif" font-size="10.00">/cobs.hpp</text>
</a>
</g>
</g>
<!-- Node1&#45;&gt;Node8 -->
<g id="edge7" class="edge">
<title>Node1&#45;&gt;Node8</title>
<path fill="none" stroke="#63b8ff" d="M805.32,-186.96C781.3,-176.9 752.22,-164.73 728.79,-154.91"/>
<polygon fill="#63b8ff" stroke="#63b8ff" points="730.02,-151.64 719.45,-151 727.32,-158.09 730.02,-151.64"/>
</g>
<!-- Node14 -->
<g id="node14" class="node">
<title>Node14</title>
<g id="a_node14"><a xlink:href="data__serializer_8hpp.html" target="_top" xlink:title="データとバイト列の変換ライブラリ">
<polygon fill="white" stroke="#666666" points="412.5,-151 287.5,-151 287.5,-121 412.5,-121 412.5,-151"/>
<text text-anchor="start" x="295.5" y="-139" font-family="Helvetica,sans-Serif" font-size="10.00">roblab_common/serial</text>
<text text-anchor="middle" x="350" y="-128" font-family="Helvetica,sans-Serif" font-size="10.00">/data_serializer.hpp</text>
</a>
</g>
</g>
<!-- Node1&#45;&gt;Node14 -->
<g id="edge16" class="edge">
<title>Node1&#45;&gt;Node14</title>
<path fill="none" stroke="#63b8ff" d="M776.3,-196.02C680.63,-182.78 517.11,-160.14 422.82,-147.08"/>
<polygon fill="#63b8ff" stroke="#63b8ff" points="423.18,-143.6 412.8,-145.69 422.22,-150.53 423.18,-143.6"/>
</g>
<!-- Node22 -->
<g id="node22" class="node">
<title>Node22</title>
<g id="a_node22"><a xlink:href="sender_8hpp.html" target="_top" xlink:title="シリアル通信で送るデータを登録">
<polygon fill="white" stroke="#666666" points="1251.5,-151 1126.5,-151 1126.5,-121 1251.5,-121 1251.5,-151"/>
<text text-anchor="start" x="1134.5" y="-139" font-family="Helvetica,sans-Serif" font-size="10.00">roblab_common/serial</text>
<text text-anchor="middle" x="1189" y="-128" font-family="Helvetica,sans-Serif" font-size="10.00">/sender.hpp</text>
</a>
</g>
</g>
<!-- Node1&#45;&gt;Node22 -->
<g id="edge31" class="edge">
<title>Node1&#45;&gt;Node22</title>
<path fill="none" stroke="#63b8ff" d="M927.7,-189.68C984.1,-177.78 1060.6,-162.03 1116.28,-150.86"/>
<polygon fill="#63b8ff" stroke="#63b8ff" points="1117.31,-154.22 1126.43,-148.83 1115.94,-147.36 1117.31,-154.22"/>
</g>
<!-- Node23 -->
<g id="node23" class="node">
<title>Node23</title>
<g id="a_node23"><a xlink:href="i__uart__io_8hpp.html" target="_top" xlink:title=" ">
<polygon fill="white" stroke="#666666" points="605.5,-151 480.5,-151 480.5,-121 605.5,-121 605.5,-151"/>
<text text-anchor="start" x="488.5" y="-139" font-family="Helvetica,sans-Serif" font-size="10.00">roblab_common/serial</text>
<text text-anchor="middle" x="543" y="-128" font-family="Helvetica,sans-Serif" font-size="10.00">/i_uart_io.hpp</text>
</a>
</g>
</g>
<!-- Node1&#45;&gt;Node23 -->
<g id="edge33" class="edge">
<title>Node1&#45;&gt;Node23</title>
<path fill="none" stroke="#63b8ff" d="M776.41,-189.5C727.27,-178.45 663.56,-164.12 615.13,-153.22"/>
<polygon fill="#63b8ff" stroke="#63b8ff" points="615.87,-149.8 605.34,-151.02 614.33,-156.63 615.87,-149.8"/>
</g>
<!-- Node8&#45;&gt;Node4 -->
<g id="edge14" class="edge">
<title>Node8&#45;&gt;Node4</title>
<path fill="none" stroke="#63b8ff" d="M706.42,-120.8C721.55,-110.27 742.1,-95.97 757.3,-85.4"/>
<polygon fill="#63b8ff" stroke="#63b8ff" points="759.34,-88.24 765.55,-79.66 755.35,-82.5 759.34,-88.24"/>
</g>
<!-- Node9 -->
<g id="node9" class="node">
<title>Node9</title>
<g id="a_node9"><a xlink:href="byte__ring__buffer_8hpp.html" target="_top" xlink:title="シリアル通信用リングバッファー">
<polygon fill="white" stroke="#666666" points="657.5,-85 532.5,-85 532.5,-55 657.5,-55 657.5,-85"/>
<text text-anchor="start" x="540.5" y="-73" font-family="Helvetica,sans-Serif" font-size="10.00">roblab_common/serial</text>
<text text-anchor="middle" x="595" y="-62" font-family="Helvetica,sans-Serif" font-size="10.00">/byte_ring_buffer.hpp</text>
</a>
</g>
</g>
<!-- Node8&#45;&gt;Node9 -->
<g id="edge8" class="edge">
<title>Node8&#45;&gt;Node9</title>
<path fill="none" stroke="#63b8ff" d="M665.8,-120.8C653.32,-112.01 637.1,-100.61 623.34,-90.93"/>
<polygon fill="#63b8ff" stroke="#63b8ff" points="625.33,-88.05 615.14,-85.16 621.31,-93.78 625.33,-88.05"/>
</g>
<!-- Node12 -->
<g id="node12" class="node">
<title>Node12</title>
<g id="a_node12"><a xlink:title=" ">
<polygon fill="#e0e0e0" stroke="#999999" points="731,-19 685,-19 685,0 731,0 731,-19"/>
<text text-anchor="middle" x="708" y="-7" font-family="Helvetica,sans-Serif" font-size="10.00">cstdio</text>
</a>
</g>
</g>
<!-- Node8&#45;&gt;Node12 -->
<g id="edge13" class="edge">
<title>Node8&#45;&gt;Node12</title>
<path fill="none" stroke="#63b8ff" d="M690.68,-120.71C693.77,-110.79 697.65,-97.22 700,-85 703.6,-66.27 705.7,-44.56 706.84,-29.42"/>
<polygon fill="#63b8ff" stroke="#63b8ff" points="710.34,-29.5 707.53,-19.29 703.36,-29.03 710.34,-29.5"/>
</g>
<!-- Node13 -->
<g id="node13" class="node">
<title>Node13</title>
<g id="a_node13"><a xlink:title=" ">
<polygon fill="#e0e0e0" stroke="#999999" points="635.5,-19 586.5,-19 586.5,0 635.5,0 635.5,-19"/>
<text text-anchor="middle" x="611" y="-7" font-family="Helvetica,sans-Serif" font-size="10.00">cstdlib</text>
</a>
</g>
</g>
<!-- Node8&#45;&gt;Node13 -->
<g id="edge15" class="edge">
<title>Node8&#45;&gt;Node13</title>
<path fill="none" stroke="#63b8ff" d="M685.18,-120.93C683.61,-104.06 679.09,-75.52 666,-55 658.18,-42.74 645.84,-32.31 634.82,-24.63"/>
<polygon fill="#63b8ff" stroke="#63b8ff" points="636.66,-21.65 626.38,-19.08 632.82,-27.5 636.66,-21.65"/>
</g>
<!-- Node10 -->
<g id="node10" class="node">
<title>Node10</title>
<g id="a_node10"><a xlink:title=" ">
<polygon fill="#e0e0e0" stroke="#999999" points="545,-19 495,-19 495,0 545,0 545,-19"/>
<text text-anchor="middle" x="520" y="-7" font-family="Helvetica,sans-Serif" font-size="10.00">cstdint</text>
</a>
</g>
</g>
<!-- Node9&#45;&gt;Node10 -->
<g id="edge9" class="edge">
<title>Node9&#45;&gt;Node10</title>
<path fill="none" stroke="#63b8ff" d="M576.84,-54.84C565.51,-46 550.94,-34.63 539.38,-25.62"/>
<polygon fill="#63b8ff" stroke="#63b8ff" points="541.28,-22.66 531.24,-19.27 536.97,-28.18 541.28,-22.66"/>
</g>
<!-- Node11 -->
<g id="node11" class="node">
<title>Node11</title>
<g id="a_node11"><a xlink:title=" ">
<polygon fill="#e0e0e0" stroke="#999999" points="437.5,-19 390.5,-19 390.5,0 437.5,0 437.5,-19"/>
<text text-anchor="middle" x="414" y="-7" font-family="Helvetica,sans-Serif" font-size="10.00">vector</text>
</a>
</g>
</g>
<!-- Node9&#45;&gt;Node11 -->
<g id="edge10" class="edge">
<title>Node9&#45;&gt;Node11</title>
<path fill="none" stroke="#63b8ff" d="M551.65,-54.99C519.65,-44.65 476.75,-30.78 447.39,-21.29"/>
<polygon fill="#63b8ff" stroke="#63b8ff" points="448.21,-17.88 437.62,-18.13 446.06,-24.54 448.21,-17.88"/>
</g>
<!-- Node9&#45;&gt;Node12 -->
<g id="edge11" class="edge">
<title>Node9&#45;&gt;Node12</title>
<path fill="none" stroke="#63b8ff" d="M622.07,-54.99C640.25,-45.58 664.07,-33.24 682.02,-23.95"/>
<polygon fill="#63b8ff" stroke="#63b8ff" points="684.04,-26.84 691.31,-19.14 680.82,-20.63 684.04,-26.84"/>
</g>
<!-- Node9&#45;&gt;Node13 -->
<g id="edge12" class="edge">
<title>Node9&#45;&gt;Node13</title>
<path fill="none" stroke="#63b8ff" d="M598.87,-54.84C600.98,-47.13 603.62,-37.49 605.89,-29.17"/>
<polygon fill="#63b8ff" stroke="#63b8ff" points="609.34,-29.84 608.6,-19.27 602.59,-27.99 609.34,-29.84"/>
</g>
<!-- Node14&#45;&gt;Node2 -->
<g id="edge17" class="edge">
<title>Node14&#45;&gt;Node2</title>
<path fill="none" stroke="#63b8ff" d="M287.31,-132.79C207.6,-128.67 76.09,-117.09 41,-85 25.71,-71.02 21.98,-46.61 21.41,-29.56"/>
<polygon fill="#63b8ff" stroke="#63b8ff" points="24.91,-29.14 21.41,-19.14 17.91,-29.14 24.91,-29.14"/>
</g>
<!-- Node14&#45;&gt;Node9 -->
<g id="edge24" class="edge">
<title>Node14&#45;&gt;Node9</title>
<path fill="none" stroke="#63b8ff" d="M403.77,-120.95C441.42,-111.12 491.89,-97.93 531.53,-87.58"/>
<polygon fill="#63b8ff" stroke="#63b8ff" points="532.57,-90.93 541.36,-85.01 530.8,-84.15 532.57,-90.93"/>
</g>
<!-- Node14&#45;&gt;Node10 -->
<g id="edge19" class="edge">
<title>Node14&#45;&gt;Node10</title>
<path fill="none" stroke="#63b8ff" d="M368,-120.84C388.75,-104.63 423.98,-77.41 455,-55 469.27,-44.69 485.63,-33.49 498.36,-24.91"/>
<polygon fill="#63b8ff" stroke="#63b8ff" points="500.56,-27.65 506.92,-19.17 496.66,-21.84 500.56,-27.65"/>
</g>
<!-- Node14&#45;&gt;Node11 -->
<g id="edge18" class="edge">
<title>Node14&#45;&gt;Node11</title>
<path fill="none" stroke="#63b8ff" d="M358.32,-120.68C364.02,-110.75 371.66,-97.18 378,-85 387.92,-65.95 398.53,-43.75 405.64,-28.56"/>
<polygon fill="#63b8ff" stroke="#63b8ff" points="408.91,-29.84 409.96,-19.3 402.56,-26.89 408.91,-29.84"/>
</g>
<!-- Node15 -->
<g id="node15" class="node">
<title>Node15</title>
<g id="a_node15"><a xlink:title=" ">
<polygon fill="#e0e0e0" stroke="#999999" points="242.5,-19 173.5,-19 173.5,0 242.5,0 242.5,-19"/>
<text text-anchor="middle" x="208" y="-7" font-family="Helvetica,sans-Serif" font-size="10.00">type_traits</text>
</a>
</g>
</g>
<!-- Node14&#45;&gt;Node15 -->
<g id="edge20" class="edge">
<title>Node14&#45;&gt;Node15</title>
<path fill="none" stroke="#63b8ff" d="M287.43,-121.94C265.56,-114.48 242.61,-102.89 227,-85 213.6,-69.63 209.43,-46.08 208.24,-29.58"/>
<polygon fill="#63b8ff" stroke="#63b8ff" points="211.73,-29.32 207.82,-19.47 204.74,-29.61 211.73,-29.32"/>
</g>
<!-- Node16 -->
<g id="node16" class="node">
<title>Node16</title>
<g id="a_node16"><a xlink:title=" ">
<polygon fill="#e0e0e0" stroke="#999999" points="514,-79.5 464,-79.5 464,-60.5 514,-60.5 514,-79.5"/>
<text text-anchor="middle" x="489" y="-67.5" font-family="Helvetica,sans-Serif" font-size="10.00">cstring</text>
</a>
</g>
</g>
<!-- Node14&#45;&gt;Node16 -->
<g id="edge21" class="edge">
<title>Node14&#45;&gt;Node16</title>
<path fill="none" stroke="#63b8ff" d="M380.5,-120.95C404.56,-109.88 437.83,-94.56 461.16,-83.82"/>
<polygon fill="#63b8ff" stroke="#63b8ff" points="462.88,-86.88 470.5,-79.52 459.95,-80.52 462.88,-86.88"/>
</g>
<!-- Node17 -->
<g id="node17" class="node">
<title>Node17</title>
<g id="a_node17"><a xlink:title=" ">
<polygon fill="#e0e0e0" stroke="#999999" points="114,-79.5 50,-79.5 50,-60.5 114,-60.5 114,-79.5"/>
<text text-anchor="middle" x="82" y="-67.5" font-family="Helvetica,sans-Serif" font-size="10.00">algorithm</text>
</a>
</g>
</g>
<!-- Node14&#45;&gt;Node17 -->
<g id="edge22" class="edge">
<title>Node14&#45;&gt;Node17</title>
<path fill="none" stroke="#63b8ff" d="M287.39,-123.18C241.54,-114.04 177.99,-100.39 123,-85 120.53,-84.31 117.99,-83.55 115.44,-82.76"/>
<polygon fill="#63b8ff" stroke="#63b8ff" points="116.3,-79.36 105.71,-79.6 114.14,-86.02 116.3,-79.36"/>
</g>
<!-- Node18 -->
<g id="node18" class="node">
<title>Node18</title>
<g id="a_node18"><a xlink:title=" ">
<polygon fill="#e0e0e0" stroke="#999999" points="180,-79.5 132,-79.5 132,-60.5 180,-60.5 180,-79.5"/>
<text text-anchor="middle" x="156" y="-67.5" font-family="Helvetica,sans-Serif" font-size="10.00">mutex</text>
</a>
</g>
</g>
<!-- Node14&#45;&gt;Node18 -->
<g id="edge23" class="edge">
<title>Node14&#45;&gt;Node18</title>
<path fill="none" stroke="#63b8ff" d="M304.44,-120.96C273.24,-111.21 230.98,-97.73 194,-85 192.16,-84.36 190.26,-83.7 188.36,-83.03"/>
<polygon fill="#63b8ff" stroke="#63b8ff" points="189.45,-79.7 178.85,-79.6 187.07,-86.28 189.45,-79.7"/>
</g>
<!-- Node19 -->
<g id="node19" class="node">
<title>Node19</title>
<g id="a_node19"><a xlink:href="serialize__type__info_8hpp.html" target="_top" xlink:title="DataSeializerで変換する型に関する情報">
<polygon fill="white" stroke="#666666" points="369.5,-85 236.5,-85 236.5,-55 369.5,-55 369.5,-85"/>
<text text-anchor="start" x="244.5" y="-73" font-family="Helvetica,sans-Serif" font-size="10.00">roblab_common/serial</text>
<text text-anchor="middle" x="303" y="-62" font-family="Helvetica,sans-Serif" font-size="10.00">/serialize_type_info.hpp</text>
</a>
</g>
</g>
<!-- Node14&#45;&gt;Node19 -->
<g id="edge25" class="edge">
<title>Node14&#45;&gt;Node19</title>
<path fill="none" stroke="#63b8ff" d="M339.57,-120.8C333.67,-112.76 326.15,-102.53 319.47,-93.43"/>
<polygon fill="#63b8ff" stroke="#63b8ff" points="322.14,-91.15 313.4,-85.16 316.5,-95.3 322.14,-91.15"/>
</g>
<!-- Node19&#45;&gt;Node2 -->
<g id="edge30" class="edge">
<title>Node19&#45;&gt;Node2</title>
<path fill="none" stroke="#63b8ff" d="M236.41,-55.14C178.86,-43.16 98.19,-26.36 54.02,-17.17"/>
<polygon fill="#63b8ff" stroke="#63b8ff" points="54.64,-13.72 44.14,-15.11 53.21,-20.57 54.64,-13.72"/>
</g>
<!-- Node19&#45;&gt;Node11 -->
<g id="edge28" class="edge">
<title>Node19&#45;&gt;Node11</title>
<path fill="none" stroke="#63b8ff" d="M329.59,-54.99C347.45,-45.58 370.84,-33.24 388.48,-23.95"/>
<polygon fill="#63b8ff" stroke="#63b8ff" points="390.39,-26.9 397.61,-19.14 387.13,-20.71 390.39,-26.9"/>
</g>
<!-- Node19&#45;&gt;Node15 -->
<g id="edge26" class="edge">
<title>Node19&#45;&gt;Node15</title>
<path fill="none" stroke="#63b8ff" d="M280,-54.84C265,-45.6 245.5,-33.59 230.57,-24.4"/>
<polygon fill="#63b8ff" stroke="#63b8ff" points="232.31,-21.36 221.96,-19.09 228.64,-27.32 232.31,-21.36"/>
</g>
<!-- Node20 -->
<g id="node20" class="node">
<title>Node20</title>
<g id="a_node20"><a xlink:title=" ">
<polygon fill="#e0e0e0" stroke="#999999" points="313.5,-19 260.5,-19 260.5,0 313.5,0 313.5,-19"/>
<text text-anchor="middle" x="287" y="-7" font-family="Helvetica,sans-Serif" font-size="10.00">stdint.h</text>
</a>
</g>
</g>
<!-- Node19&#45;&gt;Node20 -->
<g id="edge27" class="edge">
<title>Node19&#45;&gt;Node20</title>
<path fill="none" stroke="#63b8ff" d="M299.13,-54.84C297.02,-47.13 294.38,-37.49 292.11,-29.17"/>
<polygon fill="#63b8ff" stroke="#63b8ff" points="295.41,-27.99 289.4,-19.27 288.66,-29.84 295.41,-27.99"/>
</g>
<!-- Node21 -->
<g id="node21" class="node">
<title>Node21</title>
<g id="a_node21"><a xlink:title=" ">
<polygon fill="#e0e0e0" stroke="#999999" points="372.5,-19 331.5,-19 331.5,0 372.5,0 372.5,-19"/>
<text text-anchor="middle" x="352" y="-7" font-family="Helvetica,sans-Serif" font-size="10.00">tuple</text>
</a>
</g>
</g>
<!-- Node19&#45;&gt;Node21 -->
<g id="edge29" class="edge">
<title>Node19&#45;&gt;Node21</title>
<path fill="none" stroke="#63b8ff" d="M314.86,-54.84C321.9,-46.43 330.86,-35.74 338.21,-26.96"/>
<polygon fill="#63b8ff" stroke="#63b8ff" points="340.92,-29.18 344.66,-19.27 335.55,-24.68 340.92,-29.18"/>
</g>
<!-- Node22&#45;&gt;Node1 -->
<g id="edge32" class="edge">
<title>Node22&#45;&gt;Node1</title>
<path fill="none" stroke="#63b8ff" d="M1126.42,-151.05C1073.31,-162.31 996.68,-178.13 937.86,-190"/>
<polygon fill="#63b8ff" stroke="#63b8ff" points="936.95,-186.61 927.84,-192.02 938.33,-193.47 936.95,-186.61"/>
</g>
<!-- Node23&#45;&gt;Node9 -->
<g id="edge34" class="edge">
<title>Node23&#45;&gt;Node9</title>
<path fill="none" stroke="#63b8ff" d="M554.54,-120.8C561.14,-112.68 569.56,-102.31 577,-93.15"/>
<polygon fill="#63b8ff" stroke="#63b8ff" points="579.9,-95.13 583.49,-85.16 574.47,-90.72 579.9,-95.13"/>
</g>
</g>
</svg>
