<?xml version="1.0" encoding="UTF-8" standalone="no"?>
<!DOCTYPE svg PUBLIC "-//W3C//DTD SVG 1.1//EN"
 "http://www.w3.org/Graphics/SVG/1.1/DTD/svg11.dtd">
<!-- Generated by graphviz version 2.43.0 (0)
 -->
<!-- Title: alps_common_lib/include/alps_cmn/communication/id_packet_manager.hpp Pages: 1 -->
<svg width="1307pt" height="236pt"
 viewBox="0.00 0.00 1307.00 236.00" xmlns="http://www.w3.org/2000/svg" xmlns:xlink="http://www.w3.org/1999/xlink">
<g id="graph0" class="graph" transform="scale(1 1) rotate(0) translate(4 232)">
<title>alps_common_lib/include/alps_cmn/communication/id_packet_manager.hpp</title>
<!-- Node1 -->
<g id="node1" class="node">
<title>Node1</title>
<g id="a_node1"><a xlink:title="ID付きパケットデータを管理">
<polygon fill="#999999" stroke="#666666" points="954.5,-228 809.5,-228 809.5,-187 954.5,-187 954.5,-228"/>
<text text-anchor="start" x="817.5" y="-216" font-family="Helvetica,sans-Serif" font-size="10.00">alps_common_lib/include</text>
<text text-anchor="start" x="817.5" y="-205" font-family="Helvetica,sans-Serif" font-size="10.00">/alps_cmn/communication</text>
<text text-anchor="middle" x="882" y="-194" font-family="Helvetica,sans-Serif" font-size="10.00">/id_packet_manager.hpp</text>
</a>
</g>
</g>
<!-- Node2 -->
<g id="node2" class="node">
<title>Node2</title>
<g id="a_node2"><a xlink:title=" ">
<polygon fill="#e0e0e0" stroke="#999999" points="44,-19 0,-19 0,0 44,0 44,-19"/>
<text text-anchor="middle" x="22" y="-7" font-family="Helvetica,sans-Serif" font-size="10.00">string</text>
</a>
</g>
</g>
<!-- Node1&#45;&gt;Node2 -->
<g id="edge1" class="edge">
<title>Node1&#45;&gt;Node2</title>
<path fill="none" stroke="#63b8ff" d="M809.38,-204.06C693.63,-199.24 460.49,-185.79 266,-151 155.41,-131.22 90.28,-174.21 22,-85 9.99,-69.31 12.31,-45.82 16.14,-29.42"/>
<polygon fill="#63b8ff" stroke="#63b8ff" points="19.62,-29.96 18.87,-19.39 12.87,-28.12 19.62,-29.96"/>
</g>
<!-- Node3 -->
<g id="node3" class="node">
<title>Node3</title>
<g id="a_node3"><a xlink:title=" ">
<polygon fill="#e0e0e0" stroke="#999999" points="928.5,-145.5 835.5,-145.5 835.5,-126.5 928.5,-126.5 928.5,-145.5"/>
<text text-anchor="middle" x="882" y="-133.5" font-family="Helvetica,sans-Serif" font-size="10.00">unordered_map</text>
</a>
</g>
</g>
<!-- Node1&#45;&gt;Node3 -->
<g id="edge2" class="edge">
<title>Node1&#45;&gt;Node3</title>
<path fill="none" stroke="#63b8ff" d="M882,-186.77C882,-177.08 882,-165.46 882,-155.88"/>
<polygon fill="#63b8ff" stroke="#63b8ff" points="885.5,-155.82 882,-145.82 878.5,-155.82 885.5,-155.82"/>
</g>
<!-- Node4 -->
<g id="node4" class="node">
<title>Node4</title>
<g id="a_node4"><a xlink:title=" ">
<polygon fill="#e0e0e0" stroke="#999999" points="831,-79.5 779,-79.5 779,-60.5 831,-60.5 831,-79.5"/>
<text text-anchor="middle" x="805" y="-67.5" font-family="Helvetica,sans-Serif" font-size="10.00">cassert</text>
</a>
</g>
</g>
<!-- Node1&#45;&gt;Node4 -->
<g id="edge3" class="edge">
<title>Node1&#45;&gt;Node4</title>
<path fill="none" stroke="#63b8ff" d="M857.44,-186.82C846.71,-177.07 834.81,-164.5 827,-151 815.98,-131.96 810.28,-107.16 807.47,-90.25"/>
<polygon fill="#63b8ff" stroke="#63b8ff" points="810.88,-89.36 805.96,-79.97 803.95,-90.38 810.88,-89.36"/>
</g>
<!-- Node5 -->
<g id="node5" class="node">
<title>Node5</title>
<g id="a_node5"><a xlink:title=" ">
<polygon fill="#e0e0e0" stroke="#999999" points="1005,-145.5 947,-145.5 947,-126.5 1005,-126.5 1005,-145.5"/>
<text text-anchor="middle" x="976" y="-133.5" font-family="Helvetica,sans-Serif" font-size="10.00">memory</text>
</a>
</g>
</g>
<!-- Node1&#45;&gt;Node5 -->
<g id="edge4" class="edge">
<title>Node1&#45;&gt;Node5</title>
<path fill="none" stroke="#63b8ff" d="M908.43,-186.96C923.58,-175.76 942.27,-161.94 956.16,-151.67"/>
<polygon fill="#63b8ff" stroke="#63b8ff" points="958.54,-154.26 964.5,-145.5 954.38,-148.63 958.54,-154.26"/>
</g>
<!-- Node6 -->
<g id="node6" class="node">
<title>Node6</title>
<g id="a_node6"><a xlink:title=" ">
<polygon fill="#e0e0e0" stroke="#999999" points="1055,-145.5 1023,-145.5 1023,-126.5 1055,-126.5 1055,-145.5"/>
<text text-anchor="middle" x="1039" y="-133.5" font-family="Helvetica,sans-Serif" font-size="10.00">list</text>
</a>
</g>
</g>
<!-- Node1&#45;&gt;Node6 -->
<g id="edge5" class="edge">
<title>Node1&#45;&gt;Node6</title>
<path fill="none" stroke="#63b8ff" d="M932.11,-186.98C957.03,-176.89 987.42,-163.98 1014,-151 1014.42,-150.79 1014.85,-150.58 1015.28,-150.37"/>
<polygon fill="#63b8ff" stroke="#63b8ff" points="1017.14,-153.34 1024.34,-145.57 1013.87,-147.16 1017.14,-153.34"/>
</g>
<!-- Node7 -->
<g id="node7" class="node">
<title>Node7</title>
<g id="a_node7"><a xlink:title=" ">
<polygon fill="#e0e0e0" stroke="#999999" points="1138.5,-145.5 1073.5,-145.5 1073.5,-126.5 1138.5,-126.5 1138.5,-145.5"/>
<text text-anchor="middle" x="1106" y="-133.5" font-family="Helvetica,sans-Serif" font-size="10.00">functional</text>
</a>
</g>
</g>
<!-- Node1&#45;&gt;Node7 -->
<g id="edge6" class="edge">
<title>Node1&#45;&gt;Node7</title>
<path fill="none" stroke="#63b8ff" d="M947.41,-187C982.12,-176.54 1025.45,-163.3 1064,-151 1066.29,-150.27 1068.64,-149.51 1071.01,-148.74"/>
<polygon fill="#63b8ff" stroke="#63b8ff" points="1072.31,-152 1080.72,-145.55 1070.12,-145.35 1072.31,-152"/>
</g>
<!-- Node8 -->
<g id="node8" class="node">
<title>Node8</title>
<g id="a_node8"><a xlink:href="cobs_8hpp.html" target="_top" xlink:title="COBS変換ライブラリ">
<polygon fill="white" stroke="#666666" points="779,-151 637,-151 637,-121 779,-121 779,-151"/>
<text text-anchor="start" x="645" y="-139" font-family="Helvetica,sans-Serif" font-size="10.00">alps_cmn/communication</text>
<text text-anchor="middle" x="708" y="-128" font-family="Helvetica,sans-Serif" font-size="10.00">/cobs.hpp</text>
</a>
</g>
</g>
<!-- Node1&#45;&gt;Node8 -->
<g id="edge7" class="edge">
<title>Node1&#45;&gt;Node8</title>
<path fill="none" stroke="#63b8ff" d="M833.07,-186.96C807.78,-176.85 777.14,-164.62 752.52,-154.78"/>
<polygon fill="#63b8ff" stroke="#63b8ff" points="753.65,-151.46 743.06,-151 751.05,-157.96 753.65,-151.46"/>
</g>
<!-- Node14 -->
<g id="node14" class="node">
<title>Node14</title>
<g id="a_node14"><a xlink:href="data__serializer_8hpp.html" target="_top" xlink:title="データとバイト列の変換ライブラリ">
<polygon fill="white" stroke="#666666" points="417,-151 275,-151 275,-121 417,-121 417,-151"/>
<text text-anchor="start" x="283" y="-139" font-family="Helvetica,sans-Serif" font-size="10.00">alps_cmn/communication</text>
<text text-anchor="middle" x="346" y="-128" font-family="Helvetica,sans-Serif" font-size="10.00">/data_serializer.hpp</text>
</a>
</g>
</g>
<!-- Node1&#45;&gt;Node14 -->
<g id="edge16" class="edge">
<title>Node1&#45;&gt;Node14</title>
<path fill="none" stroke="#63b8ff" d="M809.43,-197.09C709.79,-184.17 531.17,-161.01 427.19,-147.53"/>
<polygon fill="#63b8ff" stroke="#63b8ff" points="427.43,-144.03 417.06,-146.21 426.53,-150.97 427.43,-144.03"/>
</g>
<!-- Node22 -->
<g id="node22" class="node">
<title>Node22</title>
<g id="a_node22"><a xlink:href="sender_8hpp.html" target="_top" xlink:title="シリアル通信で送るデータを登録">
<polygon fill="white" stroke="#666666" points="1299,-151 1157,-151 1157,-121 1299,-121 1299,-151"/>
<text text-anchor="start" x="1165" y="-139" font-family="Helvetica,sans-Serif" font-size="10.00">alps_cmn/communication</text>
<text text-anchor="middle" x="1228" y="-128" font-family="Helvetica,sans-Serif" font-size="10.00">/sender.hpp</text>
</a>
</g>
</g>
<!-- Node1&#45;&gt;Node22 -->
<g id="edge31" class="edge">
<title>Node1&#45;&gt;Node22</title>
<path fill="none" stroke="#63b8ff" d="M954.75,-190.73C1010.99,-179.16 1088.74,-163.55 1146.96,-152.14"/>
<polygon fill="#63b8ff" stroke="#63b8ff" points="1147.72,-155.55 1156.86,-150.2 1146.37,-148.68 1147.72,-155.55"/>
</g>
<!-- Node23 -->
<g id="node23" class="node">
<title>Node23</title>
<g id="a_node23"><a xlink:href="i__uart__io_8hpp.html" target="_top" xlink:title=" ">
<polygon fill="white" stroke="#666666" points="619,-151 477,-151 477,-121 619,-121 619,-151"/>
<text text-anchor="start" x="485" y="-139" font-family="Helvetica,sans-Serif" font-size="10.00">alps_cmn/communication</text>
<text text-anchor="middle" x="548" y="-128" font-family="Helvetica,sans-Serif" font-size="10.00">/i_uart_io.hpp</text>
</a>
</g>
</g>
<!-- Node1&#45;&gt;Node23 -->
<g id="edge33" class="edge">
<title>Node1&#45;&gt;Node23</title>
<path fill="none" stroke="#63b8ff" d="M809.12,-191.33C754.82,-180.03 680.81,-164.63 625.44,-153.11"/>
<polygon fill="#63b8ff" stroke="#63b8ff" points="625.83,-149.62 615.33,-151.01 624.41,-156.47 625.83,-149.62"/>
</g>
<!-- Node8&#45;&gt;Node4 -->
<g id="edge14" class="edge">
<title>Node8&#45;&gt;Node4</title>
<path fill="none" stroke="#63b8ff" d="M729.53,-120.8C745.48,-110.27 767.15,-95.97 783.18,-85.4"/>
<polygon fill="#63b8ff" stroke="#63b8ff" points="785.46,-88.09 791.88,-79.66 781.6,-82.24 785.46,-88.09"/>
</g>
<!-- Node9 -->
<g id="node9" class="node">
<title>Node9</title>
<g id="a_node9"><a xlink:href="byte__ring__buffer_8hpp.html" target="_top" xlink:title="シリアル通信用リングバッファー">
<polygon fill="white" stroke="#666666" points="682,-85 540,-85 540,-55 682,-55 682,-85"/>
<text text-anchor="start" x="548" y="-73" font-family="Helvetica,sans-Serif" font-size="10.00">alps_cmn/communication</text>
<text text-anchor="middle" x="611" y="-62" font-family="Helvetica,sans-Serif" font-size="10.00">/byte_ring_buffer.hpp</text>
</a>
</g>
</g>
<!-- Node8&#45;&gt;Node9 -->
<g id="edge8" class="edge">
<title>Node8&#45;&gt;Node9</title>
<path fill="none" stroke="#63b8ff" d="M686.47,-120.8C673.16,-112.01 655.87,-100.61 641.2,-90.93"/>
<polygon fill="#63b8ff" stroke="#63b8ff" points="642.74,-87.75 632.47,-85.16 638.89,-93.59 642.74,-87.75"/>
</g>
<!-- Node12 -->
<g id="node12" class="node">
<title>Node12</title>
<g id="a_node12"><a xlink:title=" ">
<polygon fill="#e0e0e0" stroke="#999999" points="753,-19 707,-19 707,0 753,0 753,-19"/>
<text text-anchor="middle" x="730" y="-7" font-family="Helvetica,sans-Serif" font-size="10.00">cstdio</text>
</a>
</g>
</g>
<!-- Node8&#45;&gt;Node12 -->
<g id="edge13" class="edge">
<title>Node8&#45;&gt;Node12</title>
<path fill="none" stroke="#63b8ff" d="M713.51,-120.79C717.1,-110.9 721.56,-97.34 724,-85 727.69,-66.33 729.12,-44.61 729.67,-29.46"/>
<polygon fill="#63b8ff" stroke="#63b8ff" points="733.17,-29.4 729.94,-19.31 726.17,-29.21 733.17,-29.4"/>
</g>
<!-- Node13 -->
<g id="node13" class="node">
<title>Node13</title>
<g id="a_node13"><a xlink:title=" ">
<polygon fill="#e0e0e0" stroke="#999999" points="653.5,-19 604.5,-19 604.5,0 653.5,0 653.5,-19"/>
<text text-anchor="middle" x="629" y="-7" font-family="Helvetica,sans-Serif" font-size="10.00">cstdlib</text>
</a>
</g>
</g>
<!-- Node8&#45;&gt;Node13 -->
<g id="edge15" class="edge">
<title>Node8&#45;&gt;Node13</title>
<path fill="none" stroke="#63b8ff" d="M708,-120.82C707.37,-103.85 704.2,-75.21 691,-55 682.57,-42.1 668.99,-31.73 656.69,-24.26"/>
<polygon fill="#63b8ff" stroke="#63b8ff" points="658.07,-21.01 647.64,-19.12 654.61,-27.1 658.07,-21.01"/>
</g>
<!-- Node10 -->
<g id="node10" class="node">
<title>Node10</title>
<g id="a_node10"><a xlink:title=" ">
<polygon fill="#e0e0e0" stroke="#999999" points="555,-19 505,-19 505,0 555,0 555,-19"/>
<text text-anchor="middle" x="530" y="-7" font-family="Helvetica,sans-Serif" font-size="10.00">cstdint</text>
</a>
</g>
</g>
<!-- Node9&#45;&gt;Node10 -->
<g id="edge9" class="edge">
<title>Node9&#45;&gt;Node10</title>
<path fill="none" stroke="#63b8ff" d="M591.39,-54.84C579.03,-45.91 563.1,-34.41 550.57,-25.35"/>
<polygon fill="#63b8ff" stroke="#63b8ff" points="552.29,-22.28 542.14,-19.27 548.2,-27.96 552.29,-22.28"/>
</g>
<!-- Node11 -->
<g id="node11" class="node">
<title>Node11</title>
<g id="a_node11"><a xlink:title=" ">
<polygon fill="#e0e0e0" stroke="#999999" points="437.5,-19 390.5,-19 390.5,0 437.5,0 437.5,-19"/>
<text text-anchor="middle" x="414" y="-7" font-family="Helvetica,sans-Serif" font-size="10.00">vector</text>
</a>
</g>
</g>
<!-- Node9&#45;&gt;Node11 -->
<g id="edge10" class="edge">
<title>Node9&#45;&gt;Node11</title>
<path fill="none" stroke="#63b8ff" d="M563.81,-54.99C527.86,-44.31 479.26,-29.88 447.3,-20.39"/>
<polygon fill="#63b8ff" stroke="#63b8ff" points="448.12,-16.98 437.54,-17.49 446.13,-23.69 448.12,-16.98"/>
</g>
<!-- Node9&#45;&gt;Node12 -->
<g id="edge11" class="edge">
<title>Node9&#45;&gt;Node12</title>
<path fill="none" stroke="#63b8ff" d="M639.5,-54.99C658.91,-45.45 684.43,-32.9 703.42,-23.57"/>
<polygon fill="#63b8ff" stroke="#63b8ff" points="705,-26.69 712.43,-19.14 701.91,-20.41 705,-26.69"/>
</g>
<!-- Node9&#45;&gt;Node13 -->
<g id="edge12" class="edge">
<title>Node9&#45;&gt;Node13</title>
<path fill="none" stroke="#63b8ff" d="M615.36,-54.84C617.76,-47.04 620.76,-37.27 623.34,-28.89"/>
<polygon fill="#63b8ff" stroke="#63b8ff" points="626.71,-29.85 626.3,-19.27 620.02,-27.79 626.71,-29.85"/>
</g>
<!-- Node14&#45;&gt;Node2 -->
<g id="edge17" class="edge">
<title>Node14&#45;&gt;Node2</title>
<path fill="none" stroke="#63b8ff" d="M274.79,-132.15C195.56,-127.5 74.28,-115.5 41,-85 25.73,-71.01 21.99,-46.6 21.41,-29.55"/>
<polygon fill="#63b8ff" stroke="#63b8ff" points="24.91,-29.14 21.42,-19.14 17.91,-29.14 24.91,-29.14"/>
</g>
<!-- Node14&#45;&gt;Node9 -->
<g id="edge24" class="edge">
<title>Node14&#45;&gt;Node9</title>
<path fill="none" stroke="#63b8ff" d="M404.16,-120.95C445.15,-111.06 500.17,-97.77 543.16,-87.38"/>
<polygon fill="#63b8ff" stroke="#63b8ff" points="544.08,-90.76 552.98,-85.01 542.44,-83.96 544.08,-90.76"/>
</g>
<!-- Node14&#45;&gt;Node10 -->
<g id="edge19" class="edge">
<title>Node14&#45;&gt;Node10</title>
<path fill="none" stroke="#63b8ff" d="M366.65,-120.75C389.99,-104.69 429.13,-77.83 463,-55 478.05,-44.86 495.1,-33.54 508.23,-24.86"/>
<polygon fill="#63b8ff" stroke="#63b8ff" points="510.2,-27.74 516.62,-19.31 506.34,-21.9 510.2,-27.74"/>
</g>
<!-- Node14&#45;&gt;Node11 -->
<g id="edge18" class="edge">
<title>Node14&#45;&gt;Node11</title>
<path fill="none" stroke="#63b8ff" d="M359.99,-120.66C368.68,-111.16 379.56,-98.07 387,-85 397.18,-67.1 404.69,-44.67 409.17,-29.12"/>
<polygon fill="#63b8ff" stroke="#63b8ff" points="412.62,-29.74 411.89,-19.18 405.87,-27.9 412.62,-29.74"/>
</g>
<!-- Node15 -->
<g id="node15" class="node">
<title>Node15</title>
<g id="a_node15"><a xlink:title=" ">
<polygon fill="#e0e0e0" stroke="#999999" points="242.5,-19 173.5,-19 173.5,0 242.5,0 242.5,-19"/>
<text text-anchor="middle" x="208" y="-7" font-family="Helvetica,sans-Serif" font-size="10.00">type_traits</text>
</a>
</g>
</g>
<!-- Node14&#45;&gt;Node15 -->
<g id="edge20" class="edge">
<title>Node14&#45;&gt;Node15</title>
<path fill="none" stroke="#63b8ff" d="M283.9,-120.95C263.2,-113.43 241.7,-102.06 227,-85 213.69,-69.56 209.5,-46.02 208.28,-29.54"/>
<polygon fill="#63b8ff" stroke="#63b8ff" points="211.78,-29.29 207.84,-19.45 204.78,-29.6 211.78,-29.29"/>
</g>
<!-- Node16 -->
<g id="node16" class="node">
<title>Node16</title>
<g id="a_node16"><a xlink:title=" ">
<polygon fill="#e0e0e0" stroke="#999999" points="522,-79.5 472,-79.5 472,-60.5 522,-60.5 522,-79.5"/>
<text text-anchor="middle" x="497" y="-67.5" font-family="Helvetica,sans-Serif" font-size="10.00">cstring</text>
</a>
</g>
</g>
<!-- Node14&#45;&gt;Node16 -->
<g id="edge21" class="edge">
<title>Node14&#45;&gt;Node16</title>
<path fill="none" stroke="#63b8ff" d="M379.14,-120.95C405.5,-109.78 442.06,-94.29 467.44,-83.53"/>
<polygon fill="#63b8ff" stroke="#63b8ff" points="469.06,-86.64 476.9,-79.52 466.33,-80.2 469.06,-86.64"/>
</g>
<!-- Node17 -->
<g id="node17" class="node">
<title>Node17</title>
<g id="a_node17"><a xlink:title=" ">
<polygon fill="#e0e0e0" stroke="#999999" points="114,-79.5 50,-79.5 50,-60.5 114,-60.5 114,-79.5"/>
<text text-anchor="middle" x="82" y="-67.5" font-family="Helvetica,sans-Serif" font-size="10.00">algorithm</text>
</a>
</g>
</g>
<!-- Node14&#45;&gt;Node17 -->
<g id="edge22" class="edge">
<title>Node14&#45;&gt;Node17</title>
<path fill="none" stroke="#63b8ff" d="M274.95,-121.12C230.9,-112.01 173.31,-99.19 123,-85 120.53,-84.3 117.99,-83.54 115.44,-82.75"/>
<polygon fill="#63b8ff" stroke="#63b8ff" points="116.3,-79.35 105.71,-79.58 114.14,-86.01 116.3,-79.35"/>
</g>
<!-- Node18 -->
<g id="node18" class="node">
<title>Node18</title>
<g id="a_node18"><a xlink:title=" ">
<polygon fill="#e0e0e0" stroke="#999999" points="180,-79.5 132,-79.5 132,-60.5 180,-60.5 180,-79.5"/>
<text text-anchor="middle" x="156" y="-67.5" font-family="Helvetica,sans-Serif" font-size="10.00">mutex</text>
</a>
</g>
</g>
<!-- Node14&#45;&gt;Node18 -->
<g id="edge23" class="edge">
<title>Node14&#45;&gt;Node18</title>
<path fill="none" stroke="#63b8ff" d="M301.96,-120.97C271.54,-111.16 230.2,-97.62 194,-85 192.16,-84.36 190.27,-83.69 188.36,-83.01"/>
<polygon fill="#63b8ff" stroke="#63b8ff" points="189.46,-79.68 178.86,-79.57 187.07,-86.27 189.46,-79.68"/>
</g>
<!-- Node19 -->
<g id="node19" class="node">
<title>Node19</title>
<g id="a_node19"><a xlink:href="serialize__type__info_8hpp.html" target="_top" xlink:title="DataSeializerで変換する型に関する情報">
<polygon fill="white" stroke="#666666" points="378,-85 236,-85 236,-55 378,-55 378,-85"/>
<text text-anchor="start" x="244" y="-73" font-family="Helvetica,sans-Serif" font-size="10.00">alps_cmn/communication</text>
<text text-anchor="middle" x="307" y="-62" font-family="Helvetica,sans-Serif" font-size="10.00">/serialize_type_info.hpp</text>
</a>
</g>
</g>
<!-- Node14&#45;&gt;Node19 -->
<g id="edge25" class="edge">
<title>Node14&#45;&gt;Node19</title>
<path fill="none" stroke="#63b8ff" d="M337.34,-120.8C332.5,-112.84 326.34,-102.74 320.84,-93.71"/>
<polygon fill="#63b8ff" stroke="#63b8ff" points="323.82,-91.88 315.63,-85.16 317.85,-95.52 323.82,-91.88"/>
</g>
<!-- Node19&#45;&gt;Node2 -->
<g id="edge30" class="edge">
<title>Node19&#45;&gt;Node2</title>
<path fill="none" stroke="#63b8ff" d="M238.74,-54.99C180.19,-42.97 98.46,-26.19 53.96,-17.06"/>
<polygon fill="#63b8ff" stroke="#63b8ff" points="54.51,-13.6 44.01,-15.02 53.1,-20.46 54.51,-13.6"/>
</g>
<!-- Node19&#45;&gt;Node11 -->
<g id="edge28" class="edge">
<title>Node19&#45;&gt;Node11</title>
<path fill="none" stroke="#63b8ff" d="M332.63,-54.99C349.84,-45.58 372.4,-33.24 389.4,-23.95"/>
<polygon fill="#63b8ff" stroke="#63b8ff" points="391.1,-27.01 398.2,-19.14 387.75,-20.87 391.1,-27.01"/>
</g>
<!-- Node19&#45;&gt;Node15 -->
<g id="edge26" class="edge">
<title>Node19&#45;&gt;Node15</title>
<path fill="none" stroke="#63b8ff" d="M283.29,-54.99C267.65,-45.75 247.26,-33.7 231.64,-24.47"/>
<polygon fill="#63b8ff" stroke="#63b8ff" points="233.01,-21.21 222.62,-19.14 229.45,-27.24 233.01,-21.21"/>
</g>
<!-- Node20 -->
<g id="node20" class="node">
<title>Node20</title>
<g id="a_node20"><a xlink:title=" ">
<polygon fill="#e0e0e0" stroke="#999999" points="313.5,-19 260.5,-19 260.5,0 313.5,0 313.5,-19"/>
<text text-anchor="middle" x="287" y="-7" font-family="Helvetica,sans-Serif" font-size="10.00">stdint.h</text>
</a>
</g>
</g>
<!-- Node19&#45;&gt;Node20 -->
<g id="edge27" class="edge">
<title>Node19&#45;&gt;Node20</title>
<path fill="none" stroke="#63b8ff" d="M302.16,-54.84C299.49,-47.04 296.15,-37.27 293.29,-28.89"/>
<polygon fill="#63b8ff" stroke="#63b8ff" points="296.54,-27.6 290,-19.27 289.92,-29.86 296.54,-27.6"/>
</g>
<!-- Node21 -->
<g id="node21" class="node">
<title>Node21</title>
<g id="a_node21"><a xlink:title=" ">
<polygon fill="#e0e0e0" stroke="#999999" points="372.5,-19 331.5,-19 331.5,0 372.5,0 372.5,-19"/>
<text text-anchor="middle" x="352" y="-7" font-family="Helvetica,sans-Serif" font-size="10.00">tuple</text>
</a>
</g>
</g>
<!-- Node19&#45;&gt;Node21 -->
<g id="edge29" class="edge">
<title>Node19&#45;&gt;Node21</title>
<path fill="none" stroke="#63b8ff" d="M317.89,-54.84C324.29,-46.52 332.42,-35.96 339.13,-27.23"/>
<polygon fill="#63b8ff" stroke="#63b8ff" points="341.93,-29.33 345.26,-19.27 336.39,-25.06 341.93,-29.33"/>
</g>
<!-- Node22&#45;&gt;Node1 -->
<g id="edge32" class="edge">
<title>Node22&#45;&gt;Node1</title>
<path fill="none" stroke="#63b8ff" d="M1163.64,-151.04C1107.43,-162.64 1025.6,-179.09 964.58,-191.06"/>
<polygon fill="#63b8ff" stroke="#63b8ff" points="963.73,-187.66 954.59,-193.02 965.08,-194.53 963.73,-187.66"/>
</g>
<!-- Node23&#45;&gt;Node9 -->
<g id="edge34" class="edge">
<title>Node23&#45;&gt;Node9</title>
<path fill="none" stroke="#63b8ff" d="M561.98,-120.8C570.22,-112.43 580.8,-101.68 590.02,-92.31"/>
<polygon fill="#63b8ff" stroke="#63b8ff" points="592.54,-94.75 597.06,-85.16 587.55,-89.84 592.54,-94.75"/>
</g>
</g>
</svg>
