<?xml version="1.0" encoding="UTF-8" standalone="no"?>
<!DOCTYPE svg PUBLIC "-//W3C//DTD SVG 1.1//EN"
 "http://www.w3.org/Graphics/SVG/1.1/DTD/svg11.dtd">
<!-- Generated by graphviz version 2.43.0 (0)
 -->
<!-- Title: alps_mbed_lib/include/alps_mbed/sensor/incremental_encoder.hpp Pages: 1 -->
<svg width="472pt" height="236pt"
 viewBox="0.00 0.00 472.00 236.00" xmlns="http://www.w3.org/2000/svg" xmlns:xlink="http://www.w3.org/1999/xlink">
<g id="graph0" class="graph" transform="scale(1 1) rotate(0) translate(4 232)">
<title>alps_mbed_lib/include/alps_mbed/sensor/incremental_encoder.hpp</title>
<!-- Node1 -->
<g id="node1" class="node">
<title>Node1</title>
<g id="a_node1"><a xlink:title=" ">
<polygon fill="#999999" stroke="#666666" points="333,-228 163,-228 163,-187 333,-187 333,-228"/>
<text text-anchor="start" x="171" y="-216" font-family="Helvetica,sans-Serif" font-size="10.00">alps_mbed_lib/include</text>
<text text-anchor="start" x="171" y="-205" font-family="Helvetica,sans-Serif" font-size="10.00">/alps_mbed/sensor/incremental</text>
<text text-anchor="middle" x="248" y="-194" font-family="Helvetica,sans-Serif" font-size="10.00">_encoder.hpp</text>
</a>
</g>
</g>
<!-- Node2 -->
<g id="node2" class="node">
<title>Node2</title>
<g id="a_node2"><a xlink:href="incremental__encoder__base_8hpp.html" target="_top" xlink:title=" ">
<polygon fill="white" stroke="#666666" points="160,-151 0,-151 0,-121 160,-121 160,-151"/>
<text text-anchor="start" x="8" y="-139" font-family="Helvetica,sans-Serif" font-size="10.00">alps_cmn/sensor/incremental</text>
<text text-anchor="middle" x="80" y="-128" font-family="Helvetica,sans-Serif" font-size="10.00">_encoder_base.hpp</text>
</a>
</g>
</g>
<!-- Node1&#45;&gt;Node2 -->
<g id="edge1" class="edge">
<title>Node1&#45;&gt;Node2</title>
<path fill="none" stroke="#63b8ff" d="M200.76,-186.96C176.45,-176.9 147.02,-164.73 123.3,-154.91"/>
<polygon fill="#63b8ff" stroke="#63b8ff" points="124.43,-151.59 113.85,-151 121.75,-158.06 124.43,-151.59"/>
</g>
<!-- Node6 -->
<g id="node6" class="node">
<title>Node6</title>
<g id="a_node6"><a xlink:href="digital__in_8hpp.html" target="_top" xlink:title=" ">
<polygon fill="white" stroke="#666666" points="464,-151 336,-151 336,-121 464,-121 464,-151"/>
<text text-anchor="start" x="344" y="-139" font-family="Helvetica,sans-Serif" font-size="10.00">alps_mbed/gpio/digital</text>
<text text-anchor="middle" x="400" y="-128" font-family="Helvetica,sans-Serif" font-size="10.00">_in.hpp</text>
</a>
</g>
</g>
<!-- Node1&#45;&gt;Node6 -->
<g id="edge5" class="edge">
<title>Node1&#45;&gt;Node6</title>
<path fill="none" stroke="#63b8ff" d="M290.74,-186.96C312.47,-177.02 338.71,-165.03 360.02,-155.28"/>
<polygon fill="#63b8ff" stroke="#63b8ff" points="361.5,-158.45 369.13,-151.11 358.58,-152.09 361.5,-158.45"/>
</g>
<!-- Node8 -->
<g id="node8" class="node">
<title>Node8</title>
<g id="a_node8"><a xlink:href="interrupt__in_8hpp.html" target="_top" xlink:title=" ">
<polygon fill="white" stroke="#666666" points="317.5,-151 178.5,-151 178.5,-121 317.5,-121 317.5,-151"/>
<text text-anchor="start" x="186.5" y="-139" font-family="Helvetica,sans-Serif" font-size="10.00">alps_mbed/gpio/interrupt</text>
<text text-anchor="middle" x="248" y="-128" font-family="Helvetica,sans-Serif" font-size="10.00">_in.hpp</text>
</a>
</g>
</g>
<!-- Node1&#45;&gt;Node8 -->
<g id="edge8" class="edge">
<title>Node1&#45;&gt;Node8</title>
<path fill="none" stroke="#63b8ff" d="M248,-186.77C248,-178.85 248,-169.63 248,-161.3"/>
<polygon fill="#63b8ff" stroke="#63b8ff" points="251.5,-161.04 248,-151.04 244.5,-161.04 251.5,-161.04"/>
</g>
<!-- Node3 -->
<g id="node3" class="node">
<title>Node3</title>
<g id="a_node3"><a xlink:href="i__attach__interrupt_8hpp.html" target="_top" xlink:title=" ">
<polygon fill="white" stroke="#666666" points="155.5,-85 26.5,-85 26.5,-55 155.5,-55 155.5,-85"/>
<text text-anchor="start" x="34.5" y="-73" font-family="Helvetica,sans-Serif" font-size="10.00">alps_cmn/gpio/i_attach</text>
<text text-anchor="middle" x="91" y="-62" font-family="Helvetica,sans-Serif" font-size="10.00">_interrupt.hpp</text>
</a>
</g>
</g>
<!-- Node2&#45;&gt;Node3 -->
<g id="edge2" class="edge">
<title>Node2&#45;&gt;Node3</title>
<path fill="none" stroke="#63b8ff" d="M82.44,-120.8C83.74,-113.26 85.37,-103.78 86.85,-95.13"/>
<polygon fill="#63b8ff" stroke="#63b8ff" points="90.32,-95.61 88.57,-85.16 83.42,-94.43 90.32,-95.61"/>
</g>
<!-- Node5 -->
<g id="node5" class="node">
<title>Node5</title>
<g id="a_node5"><a xlink:href="i__digital__read_8hpp.html" target="_top" xlink:title=" ">
<polygon fill="white" stroke="#666666" points="312.5,-85 183.5,-85 183.5,-55 312.5,-55 312.5,-85"/>
<text text-anchor="start" x="191.5" y="-73" font-family="Helvetica,sans-Serif" font-size="10.00">alps_cmn/gpio/i_digital</text>
<text text-anchor="middle" x="248" y="-62" font-family="Helvetica,sans-Serif" font-size="10.00">_read.hpp</text>
</a>
</g>
</g>
<!-- Node2&#45;&gt;Node5 -->
<g id="edge4" class="edge">
<title>Node2&#45;&gt;Node5</title>
<path fill="none" stroke="#63b8ff" d="M116.87,-120.95C141.82,-111.45 174.96,-98.82 201.69,-88.64"/>
<polygon fill="#63b8ff" stroke="#63b8ff" points="203.12,-91.84 211.22,-85.01 200.63,-85.3 203.12,-91.84"/>
</g>
<!-- Node4 -->
<g id="node4" class="node">
<title>Node4</title>
<g id="a_node4"><a xlink:title=" ">
<polygon fill="#e0e0e0" stroke="#999999" points="133,-19 49,-19 49,0 133,0 133,-19"/>
<text text-anchor="middle" x="91" y="-7" font-family="Helvetica,sans-Serif" font-size="10.00">etl/delegate.h</text>
</a>
</g>
</g>
<!-- Node3&#45;&gt;Node4 -->
<g id="edge3" class="edge">
<title>Node3&#45;&gt;Node4</title>
<path fill="none" stroke="#63b8ff" d="M91,-54.84C91,-47.21 91,-37.7 91,-29.45"/>
<polygon fill="#63b8ff" stroke="#63b8ff" points="94.5,-29.27 91,-19.27 87.5,-29.27 94.5,-29.27"/>
</g>
<!-- Node6&#45;&gt;Node5 -->
<g id="edge7" class="edge">
<title>Node6&#45;&gt;Node5</title>
<path fill="none" stroke="#63b8ff" d="M366.64,-120.95C344.27,-111.53 314.61,-99.04 290.54,-88.91"/>
<polygon fill="#63b8ff" stroke="#63b8ff" points="291.85,-85.67 281.28,-85.01 289.14,-92.12 291.85,-85.67"/>
</g>
<!-- Node7 -->
<g id="node7" class="node">
<title>Node7</title>
<g id="a_node7"><a xlink:title=" ">
<polygon fill="#e0e0e0" stroke="#999999" points="404.5,-79.5 351.5,-79.5 351.5,-60.5 404.5,-60.5 404.5,-79.5"/>
<text text-anchor="middle" x="378" y="-67.5" font-family="Helvetica,sans-Serif" font-size="10.00">mbed.h</text>
</a>
</g>
</g>
<!-- Node6&#45;&gt;Node7 -->
<g id="edge6" class="edge">
<title>Node6&#45;&gt;Node7</title>
<path fill="none" stroke="#63b8ff" d="M395.12,-120.8C391.96,-111.6 387.81,-99.53 384.39,-89.58"/>
<polygon fill="#63b8ff" stroke="#63b8ff" points="387.6,-88.16 381.04,-79.84 380.98,-90.44 387.6,-88.16"/>
</g>
<!-- Node8&#45;&gt;Node3 -->
<g id="edge10" class="edge">
<title>Node8&#45;&gt;Node3</title>
<path fill="none" stroke="#63b8ff" d="M213.55,-120.95C190.44,-111.53 159.8,-99.04 134.94,-88.91"/>
<polygon fill="#63b8ff" stroke="#63b8ff" points="135.96,-85.55 125.37,-85.01 133.31,-92.03 135.96,-85.55"/>
</g>
<!-- Node8&#45;&gt;Node5 -->
<g id="edge11" class="edge">
<title>Node8&#45;&gt;Node5</title>
<path fill="none" stroke="#63b8ff" d="M248,-120.8C248,-113.34 248,-103.99 248,-95.41"/>
<polygon fill="#63b8ff" stroke="#63b8ff" points="251.5,-95.16 248,-85.16 244.5,-95.16 251.5,-95.16"/>
</g>
<!-- Node8&#45;&gt;Node7 -->
<g id="edge9" class="edge">
<title>Node8&#45;&gt;Node7</title>
<path fill="none" stroke="#63b8ff" d="M276.53,-120.95C298.93,-109.93 329.86,-94.7 351.67,-83.96"/>
<polygon fill="#63b8ff" stroke="#63b8ff" points="353.27,-87.07 360.7,-79.52 350.18,-80.79 353.27,-87.07"/>
</g>
</g>
</svg>
