<?xml version="1.0" encoding="UTF-8" standalone="no"?>
<!DOCTYPE svg PUBLIC "-//W3C//DTD SVG 1.1//EN"
 "http://www.w3.org/Graphics/SVG/1.1/DTD/svg11.dtd">
<!-- Generated by graphviz version 2.43.0 (0)
 -->
<!-- Title: クラス階層図 Pages: 1 -->
<svg width="333pt" height="530pt"
 viewBox="0.00 0.00 333.00 529.50" xmlns="http://www.w3.org/2000/svg" xmlns:xlink="http://www.w3.org/1999/xlink">
<g id="graph0" class="graph" transform="scale(1 1) rotate(0) translate(4 525.5)">
<title>クラス階層図</title>
<!-- Node0 -->
<g id="Node000000" class="node">
<title>Node0</title>
<g id="a_Node000000"><a xlink:title=" ">
<polygon fill="#e0e0e0" stroke="#999999" points="89,-276 0,-276 0,-257 89,-257 89,-276"/>
<text text-anchor="middle" x="44.5" y="-264" font-family="Helvetica,sans-Serif" font-size="10.00">std::false_type</text>
</a>
</g>
</g>
<!-- Node1 -->
<g id="Node000001" class="node">
<title>Node1</title>
<g id="a_Node000001"><a xlink:href="structalps_1_1cmn_1_1type_1_1_has_clear.html" target="_top" xlink:title="clearメソッドを持つかどうかを判定する型述語">
<polygon fill="white" stroke="#666666" points="296,-521.5 154,-521.5 154,-491.5 296,-491.5 296,-521.5"/>
<text text-anchor="start" x="162" y="-509.5" font-family="Helvetica,sans-Serif" font-size="10.00">alps::cmn::type::HasClear</text>
<text text-anchor="middle" x="225" y="-498.5" font-family="Helvetica,sans-Serif" font-size="10.00">&lt; T, typename &gt;</text>
</a>
</g>
</g>
<!-- Node0&#45;&gt;Node1 -->
<g id="edge23_Node000000_Node000001" class="edge">
<title>Node0&#45;&gt;Node1</title>
<g id="a_edge23_Node000000_Node000001"><a xlink:title=" ">
<path fill="none" stroke="#63b8ff" d="M46.78,-286.45C50.64,-329.15 65.85,-429.78 125,-482.5 133.25,-489.85 143.37,-495.05 153.96,-498.7"/>
<polygon fill="#63b8ff" stroke="#63b8ff" points="50.27,-286.16 46,-276.47 43.29,-286.71 50.27,-286.16"/>
</a>
</g>
</g>
<!-- Node2 -->
<g id="Node000002" class="node">
<title>Node2</title>
<g id="a_Node000002"><a xlink:href="structalps_1_1cmn_1_1type_1_1_has_push_back.html" target="_top" xlink:title="push_backメソッドを持つかどうかを判定する型述語">
<polygon fill="white" stroke="#666666" points="295,-473.5 155,-473.5 155,-443.5 295,-443.5 295,-473.5"/>
<text text-anchor="start" x="163" y="-461.5" font-family="Helvetica,sans-Serif" font-size="10.00">alps::cmn::type::HasPush</text>
<text text-anchor="middle" x="225" y="-450.5" font-family="Helvetica,sans-Serif" font-size="10.00">Back&lt; T, typename &gt;</text>
</a>
</g>
</g>
<!-- Node0&#45;&gt;Node2 -->
<g id="edge24_Node000000_Node000002" class="edge">
<title>Node0&#45;&gt;Node2</title>
<g id="a_edge24_Node000000_Node000002"><a xlink:title=" ">
<path fill="none" stroke="#63b8ff" d="M49.1,-286.3C56.61,-321.69 77.36,-395.71 125,-434.5 133.64,-441.53 144.02,-446.56 154.77,-450.14"/>
<polygon fill="#63b8ff" stroke="#63b8ff" points="52.49,-285.39 47.11,-276.26 45.62,-286.75 52.49,-285.39"/>
</a>
</g>
</g>
<!-- Node3 -->
<g id="Node000003" class="node">
<title>Node3</title>
<g id="a_Node000003"><a xlink:href="structalps_1_1cmn_1_1type_1_1_has_resize.html" target="_top" xlink:title="resizeメソッドを持つかどうかを判定する型述語">
<polygon fill="white" stroke="#666666" points="299.5,-425.5 150.5,-425.5 150.5,-395.5 299.5,-395.5 299.5,-425.5"/>
<text text-anchor="start" x="158.5" y="-413.5" font-family="Helvetica,sans-Serif" font-size="10.00">alps::cmn::type::HasResize</text>
<text text-anchor="middle" x="225" y="-402.5" font-family="Helvetica,sans-Serif" font-size="10.00">&lt; T, typename &gt;</text>
</a>
</g>
</g>
<!-- Node0&#45;&gt;Node3 -->
<g id="edge25_Node000000_Node000003" class="edge">
<title>Node0&#45;&gt;Node3</title>
<g id="a_edge25_Node000000_Node000003"><a xlink:title=" ">
<path fill="none" stroke="#63b8ff" d="M52.77,-285.47C64.05,-312.26 88.34,-360.78 125,-386.5 132.67,-391.88 141.41,-396.07 150.45,-399.31"/>
<polygon fill="#63b8ff" stroke="#63b8ff" points="55.96,-284.02 48.97,-276.05 49.47,-286.64 55.96,-284.02"/>
</a>
</g>
</g>
<!-- Node4 -->
<g id="Node000004" class="node">
<title>Node4</title>
<g id="a_Node000004"><a xlink:href="structalps_1_1cmn_1_1type_1_1_has_size.html" target="_top" xlink:title="sizeメソッドを持つかどうかを判定する型述語">
<polygon fill="white" stroke="#666666" points="293.5,-377.5 156.5,-377.5 156.5,-347.5 293.5,-347.5 293.5,-377.5"/>
<text text-anchor="start" x="164.5" y="-365.5" font-family="Helvetica,sans-Serif" font-size="10.00">alps::cmn::type::HasSize</text>
<text text-anchor="middle" x="225" y="-354.5" font-family="Helvetica,sans-Serif" font-size="10.00">&lt; T, typename &gt;</text>
</a>
</g>
</g>
<!-- Node0&#45;&gt;Node4 -->
<g id="edge26_Node000000_Node000004" class="edge">
<title>Node0&#45;&gt;Node4</title>
<g id="a_edge26_Node000000_Node000004"><a xlink:title=" ">
<path fill="none" stroke="#63b8ff" d="M59.99,-283.9C74.69,-300.41 98.93,-324.7 125,-338.5 134.69,-343.63 145.49,-347.68 156.3,-350.88"/>
<polygon fill="#63b8ff" stroke="#63b8ff" points="62.41,-281.34 53.22,-276.07 57.11,-285.92 62.41,-281.34"/>
</a>
</g>
</g>
<!-- Node5 -->
<g id="Node000005" class="node">
<title>Node5</title>
<g id="a_Node000005"><a xlink:href="structalps_1_1cmn_1_1type_1_1_has_subscript_operator.html" target="_top" xlink:title="添字演算子[]を持つかどうかを判定する型述語">
<polygon fill="white" stroke="#666666" points="305.5,-329.5 144.5,-329.5 144.5,-299.5 305.5,-299.5 305.5,-329.5"/>
<text text-anchor="start" x="152.5" y="-317.5" font-family="Helvetica,sans-Serif" font-size="10.00">alps::cmn::type::HasSubscript</text>
<text text-anchor="middle" x="225" y="-306.5" font-family="Helvetica,sans-Serif" font-size="10.00">Operator&lt; T, typename &gt;</text>
</a>
</g>
</g>
<!-- Node0&#45;&gt;Node5 -->
<g id="edge27_Node000000_Node000005" class="edge">
<title>Node0&#45;&gt;Node5</title>
<g id="a_edge27_Node000000_Node000005"><a xlink:title=" ">
<path fill="none" stroke="#63b8ff" d="M85.37,-279.01C98,-282.84 112.05,-286.98 125,-290.5 136.18,-293.54 148.12,-296.59 159.7,-299.46"/>
<polygon fill="#63b8ff" stroke="#63b8ff" points="86.17,-275.59 75.59,-276.01 84.12,-282.29 86.17,-275.59"/>
</a>
</g>
</g>
<!-- Node6 -->
<g id="Node000006" class="node">
<title>Node6</title>
<g id="a_Node000006"><a xlink:href="structalps_1_1cmn_1_1type_1_1_has_value_type.html" target="_top" xlink:title="value_type型を持つかどうかを判定する型述語">
<polygon fill="white" stroke="#666666" points="296.5,-281.5 153.5,-281.5 153.5,-251.5 296.5,-251.5 296.5,-281.5"/>
<text text-anchor="start" x="161.5" y="-269.5" font-family="Helvetica,sans-Serif" font-size="10.00">alps::cmn::type::HasValue</text>
<text text-anchor="middle" x="225" y="-258.5" font-family="Helvetica,sans-Serif" font-size="10.00">Type&lt; T, typename &gt;</text>
</a>
</g>
</g>
<!-- Node0&#45;&gt;Node6 -->
<g id="edge28_Node000000_Node000006" class="edge">
<title>Node0&#45;&gt;Node6</title>
<g id="a_edge28_Node000000_Node000006"><a xlink:title=" ">
<path fill="none" stroke="#63b8ff" d="M99.43,-266.5C116.39,-266.5 135.38,-266.5 153.32,-266.5"/>
<polygon fill="#63b8ff" stroke="#63b8ff" points="99.17,-263 89.17,-266.5 99.17,-270 99.17,-263"/>
</a>
</g>
</g>
<!-- Node7 -->
<g id="Node000007" class="node">
<title>Node7</title>
<g id="a_Node000007"><a xlink:href="structalps_1_1cmn_1_1type_1_1_is_array.html" target="_top" xlink:title="Array型かどうかを判定する型述語. cスタイルの配列とvectorはArrayではないと判定する">
<polygon fill="white" stroke="#666666" points="291,-233.5 159,-233.5 159,-203.5 291,-203.5 291,-233.5"/>
<text text-anchor="start" x="167" y="-221.5" font-family="Helvetica,sans-Serif" font-size="10.00">alps::cmn::type::IsArray</text>
<text text-anchor="middle" x="225" y="-210.5" font-family="Helvetica,sans-Serif" font-size="10.00">&lt; T, typename &gt;</text>
</a>
</g>
</g>
<!-- Node0&#45;&gt;Node7 -->
<g id="edge29_Node000000_Node000007" class="edge">
<title>Node0&#45;&gt;Node7</title>
<g id="a_edge29_Node000000_Node000007"><a xlink:title=" ">
<path fill="none" stroke="#63b8ff" d="M85.37,-253.99C98,-250.16 112.05,-246.02 125,-242.5 136.18,-239.46 148.12,-236.41 159.7,-233.54"/>
<polygon fill="#63b8ff" stroke="#63b8ff" points="84.12,-250.71 75.59,-256.99 86.17,-257.41 84.12,-250.71"/>
</a>
</g>
</g>
<!-- Node8 -->
<g id="Node000008" class="node">
<title>Node8</title>
<g id="a_Node000008"><a xlink:href="structalps_1_1cmn_1_1type_1_1_is_vector_like.html" target="_top" xlink:title="vector型のように振る舞う型かどうかを判定する型述語">
<polygon fill="white" stroke="#666666" points="293.5,-185.5 156.5,-185.5 156.5,-155.5 293.5,-155.5 293.5,-185.5"/>
<text text-anchor="start" x="164.5" y="-173.5" font-family="Helvetica,sans-Serif" font-size="10.00">alps::cmn::type::IsVector</text>
<text text-anchor="middle" x="225" y="-162.5" font-family="Helvetica,sans-Serif" font-size="10.00">Like&lt; T, typename &gt;</text>
</a>
</g>
</g>
<!-- Node0&#45;&gt;Node8 -->
<g id="edge30_Node000000_Node000008" class="edge">
<title>Node0&#45;&gt;Node8</title>
<g id="a_edge30_Node000000_Node000008"><a xlink:title=" ">
<path fill="none" stroke="#63b8ff" d="M59.99,-249.1C74.69,-232.59 98.93,-208.3 125,-194.5 134.69,-189.37 145.49,-185.32 156.3,-182.12"/>
<polygon fill="#63b8ff" stroke="#63b8ff" points="57.11,-247.08 53.22,-256.93 62.41,-251.66 57.11,-247.08"/>
</a>
</g>
</g>
<!-- Node9 -->
<g id="Node000009" class="node">
<title>Node9</title>
<g id="a_Node000009"><a xlink:href="structalps_1_1cmn_1_1type_1_1_supports_get_element_names.html" target="_top" xlink:title="T型がGetElementNames関数をサポートしているかどうかを判定する">
<polygon fill="white" stroke="#666666" points="321.5,-137.5 128.5,-137.5 128.5,-107.5 321.5,-107.5 321.5,-137.5"/>
<text text-anchor="start" x="136.5" y="-125.5" font-family="Helvetica,sans-Serif" font-size="10.00">alps::cmn::type::Supports</text>
<text text-anchor="middle" x="225" y="-114.5" font-family="Helvetica,sans-Serif" font-size="10.00">GetElementNames&lt; T, typename &gt;</text>
</a>
</g>
</g>
<!-- Node0&#45;&gt;Node9 -->
<g id="edge31_Node000000_Node000009" class="edge">
<title>Node0&#45;&gt;Node9</title>
<g id="a_edge31_Node000000_Node000009"><a xlink:title=" ">
<path fill="none" stroke="#63b8ff" d="M52.77,-247.53C64.05,-220.74 88.34,-172.22 125,-146.5 129.92,-143.05 135.28,-140.09 140.88,-137.55"/>
<polygon fill="#63b8ff" stroke="#63b8ff" points="49.47,-246.36 48.97,-256.95 55.96,-248.98 49.47,-246.36"/>
</a>
</g>
</g>
<!-- Node10 -->
<g id="Node000010" class="node">
<title>Node10</title>
<g id="a_Node000010"><a xlink:href="structalps_1_1cmn_1_1type_1_1_supports_to_tied_tuple.html" target="_top" xlink:title="T型がstd::tupleに変換可能かどうかを判定する">
<polygon fill="white" stroke="#666666" points="304,-89.5 146,-89.5 146,-59.5 304,-59.5 304,-89.5"/>
<text text-anchor="start" x="154" y="-77.5" font-family="Helvetica,sans-Serif" font-size="10.00">alps::cmn::type::Supports</text>
<text text-anchor="middle" x="225" y="-66.5" font-family="Helvetica,sans-Serif" font-size="10.00">ToTiedTuple&lt; T, typename &gt;</text>
</a>
</g>
</g>
<!-- Node0&#45;&gt;Node10 -->
<g id="edge32_Node000000_Node000010" class="edge">
<title>Node0&#45;&gt;Node10</title>
<g id="a_edge32_Node000000_Node000010"><a xlink:title=" ">
<path fill="none" stroke="#63b8ff" d="M49.1,-246.7C56.61,-211.31 77.36,-137.29 125,-98.5 131.17,-93.48 138.23,-89.48 145.68,-86.3"/>
<polygon fill="#63b8ff" stroke="#63b8ff" points="45.62,-246.25 47.11,-256.74 52.49,-247.61 45.62,-246.25"/>
</a>
</g>
</g>
<!-- Node11 -->
<g id="Node000011" class="node">
<title>Node11</title>
<g id="a_Node000011"><a xlink:href="structalps_1_1ros2_1_1type_1_1_is_single_element_std_msgs_type.html" target="_top" xlink:title="std_msgs::msg名前空間内のデータを1つだけ持つ型かどうかを判定する型述語 例) std_msgs::msg::Bool, std_msgs::msg::Float32MultiArray">
<polygon fill="white" stroke="#666666" points="325,-41 125,-41 125,0 325,0 325,-41"/>
<text text-anchor="start" x="133" y="-29" font-family="Helvetica,sans-Serif" font-size="10.00">alps::ros2::type::IsSingle</text>
<text text-anchor="start" x="133" y="-18" font-family="Helvetica,sans-Serif" font-size="10.00">ElementStdMsgsType&lt; RosTopicType,</text>
<text text-anchor="middle" x="225" y="-7" font-family="Helvetica,sans-Serif" font-size="10.00"> typename, typename &gt;</text>
</a>
</g>
</g>
<!-- Node0&#45;&gt;Node11 -->
<g id="edge33_Node000000_Node000011" class="edge">
<title>Node0&#45;&gt;Node11</title>
<g id="a_edge33_Node000000_Node000011"><a xlink:title=" ">
<path fill="none" stroke="#63b8ff" d="M47.04,-246.53C51.39,-204.17 67.48,-104.75 125,-50.5 128.79,-46.93 132.99,-43.78 137.46,-41"/>
<polygon fill="#63b8ff" stroke="#63b8ff" points="43.54,-246.39 46.12,-256.67 50.51,-247.02 43.54,-246.39"/>
</a>
</g>
</g>
</g>
</svg>
