<?xml version="1.0" encoding="UTF-8" standalone="no"?>
<!DOCTYPE svg PUBLIC "-//W3C//DTD SVG 1.1//EN"
 "http://www.w3.org/Graphics/SVG/1.1/DTD/svg11.dtd">
<!-- Generated by graphviz version 2.43.0 (0)
 -->
<!-- Title: クラス階層図 Pages: 1 -->
<svg width="524pt" height="110pt"
 viewBox="0.00 0.00 524.00 110.00" xmlns="http://www.w3.org/2000/svg" xmlns:xlink="http://www.w3.org/1999/xlink">
<g id="graph0" class="graph" transform="scale(1 1) rotate(0) translate(4 106)">
<title>クラス階層図</title>
<!-- Node0 -->
<g id="node1" class="node">
<title>Node0</title>
<g id="a_node1"><a xlink:href="classalps_1_1cmn_1_1communication_1_1_i_uart_read.html" target="_top" xlink:title="Uart読み込みのインターフェース">
<polygon fill="white" stroke="#666666" points="146,-78 0,-78 0,-48 146,-48 146,-78"/>
<text text-anchor="start" x="8" y="-66" font-family="Helvetica,sans-Serif" font-size="10.00">alps::cmn::communication</text>
<text text-anchor="middle" x="73" y="-55" font-family="Helvetica,sans-Serif" font-size="10.00">::IUartRead&lt; Derived &gt;</text>
</a>
</g>
</g>
<!-- Node1 -->
<g id="node2" class="node">
<title>Node1</title>
<g id="a_node2"><a xlink:href="classalps_1_1cmn_1_1communication_1_1_i_uart_io.html" target="_top" xlink:title=" ">
<polygon fill="white" stroke="#666666" points="328,-78 182,-78 182,-48 328,-48 328,-78"/>
<text text-anchor="start" x="190" y="-66" font-family="Helvetica,sans-Serif" font-size="10.00">alps::cmn::communication</text>
<text text-anchor="middle" x="255" y="-55" font-family="Helvetica,sans-Serif" font-size="10.00">::IUartIo&lt; UartIo &gt;</text>
</a>
</g>
</g>
<!-- Node0&#45;&gt;Node1 -->
<g id="edge1" class="edge">
<title>Node0&#45;&gt;Node1</title>
<path fill="none" stroke="#63b8ff" d="M156.44,-63C164.91,-63 173.46,-63 181.81,-63"/>
<polygon fill="#63b8ff" stroke="#63b8ff" points="156.18,-59.5 146.18,-63 156.18,-66.5 156.18,-59.5"/>
</g>
<!-- Node5 -->
<g id="node5" class="node">
<title>Node5</title>
<g id="a_node5"><a xlink:href="classalps_1_1cmn_1_1communication_1_1_i_uart_io.html" target="_top" xlink:title="Uart通信IOのインターフェース">
<polygon fill="white" stroke="#666666" points="328,-30 182,-30 182,0 328,0 328,-30"/>
<text text-anchor="start" x="190" y="-18" font-family="Helvetica,sans-Serif" font-size="10.00">alps::cmn::communication</text>
<text text-anchor="middle" x="255" y="-7" font-family="Helvetica,sans-Serif" font-size="10.00">::IUartIo&lt; Derived &gt;</text>
</a>
</g>
</g>
<!-- Node0&#45;&gt;Node5 -->
<g id="edge4" class="edge">
<title>Node0&#45;&gt;Node5</title>
<path fill="none" stroke="#63b8ff" d="M140.19,-45.35C159.09,-40.31 179.49,-34.87 197.74,-30"/>
<polygon fill="#63b8ff" stroke="#63b8ff" points="139.22,-41.99 130.46,-47.94 141.02,-48.75 139.22,-41.99"/>
</g>
<!-- Node2 -->
<g id="node3" class="node">
<title>Node2</title>
<g id="a_node3"><a xlink:href="classalps_1_1lin_1_1communication_1_1_uart_io.html" target="_top" xlink:title="Linux環境でのUart通信IOクラス">
<polygon fill="white" stroke="#666666" points="508.5,-102 371.5,-102 371.5,-72 508.5,-72 508.5,-102"/>
<text text-anchor="start" x="379.5" y="-90" font-family="Helvetica,sans-Serif" font-size="10.00">alps::lin::communication</text>
<text text-anchor="middle" x="440" y="-79" font-family="Helvetica,sans-Serif" font-size="10.00">::UartIo</text>
</a>
</g>
</g>
<!-- Node1&#45;&gt;Node2 -->
<g id="edge2" class="edge">
<title>Node1&#45;&gt;Node2</title>
<path fill="none" stroke="#63b8ff" d="M338.21,-73.78C349.34,-75.24 360.65,-76.72 371.48,-78.14"/>
<polygon fill="#63b8ff" stroke="#63b8ff" points="338.43,-70.28 328.06,-72.45 337.52,-77.22 338.43,-70.28"/>
</g>
<!-- Node3 -->
<g id="node4" class="node">
<title>Node3</title>
<g id="a_node4"><a xlink:href="classalps_1_1mbed_1_1communication_1_1_uart_io.html" target="_top" xlink:title="mbedのUartシリアル通信IOクラス">
<polygon fill="white" stroke="#666666" points="516,-54 364,-54 364,-24 516,-24 516,-54"/>
<text text-anchor="start" x="372" y="-42" font-family="Helvetica,sans-Serif" font-size="10.00">alps::mbed::communication</text>
<text text-anchor="middle" x="440" y="-31" font-family="Helvetica,sans-Serif" font-size="10.00">::UartIo</text>
</a>
</g>
</g>
<!-- Node1&#45;&gt;Node3 -->
<g id="edge3" class="edge">
<title>Node1&#45;&gt;Node3</title>
<path fill="none" stroke="#63b8ff" d="M338.11,-52.23C346.73,-51.1 355.46,-49.96 363.99,-48.84"/>
<polygon fill="#63b8ff" stroke="#63b8ff" points="337.52,-48.78 328.06,-53.55 338.43,-55.72 337.52,-48.78"/>
</g>
<!-- Node4 -->
<g id="node6" class="node">
<title>Node4</title>
<g id="a_node6"><a xlink:href="classalps_1_1cmn_1_1communication_1_1_i_uart_write.html" target="_top" xlink:title="Uart書き込みのインターフェース">
<polygon fill="white" stroke="#666666" points="146,-30 0,-30 0,0 146,0 146,-30"/>
<text text-anchor="start" x="8" y="-18" font-family="Helvetica,sans-Serif" font-size="10.00">alps::cmn::communication</text>
<text text-anchor="middle" x="73" y="-7" font-family="Helvetica,sans-Serif" font-size="10.00">::IUartWrite&lt; Derived &gt;</text>
</a>
</g>
</g>
<!-- Node4&#45;&gt;Node1 -->
<g id="edge5" class="edge">
<title>Node4&#45;&gt;Node1</title>
<path fill="none" stroke="#63b8ff" d="M140.19,-32.65C159.09,-37.69 179.49,-43.13 197.74,-48"/>
<polygon fill="#63b8ff" stroke="#63b8ff" points="141.02,-29.25 130.46,-30.06 139.22,-36.01 141.02,-29.25"/>
</g>
<!-- Node4&#45;&gt;Node5 -->
<g id="edge6" class="edge">
<title>Node4&#45;&gt;Node5</title>
<path fill="none" stroke="#63b8ff" d="M156.44,-15C164.91,-15 173.46,-15 181.81,-15"/>
<polygon fill="#63b8ff" stroke="#63b8ff" points="156.18,-11.5 146.18,-15 156.18,-18.5 156.18,-11.5"/>
</g>
</g>
</svg>
