<?xml version="1.0" encoding="UTF-8" standalone="no"?>
<!DOCTYPE svg PUBLIC "-//W3C//DTD SVG 1.1//EN"
 "http://www.w3.org/Graphics/SVG/1.1/DTD/svg11.dtd">
<!-- Generated by graphviz version 2.43.0 (0)
 -->
<!-- Title: クラス階層図 Pages: 1 -->
<svg width="348pt" height="88pt"
 viewBox="0.00 0.00 348.00 88.00" xmlns="http://www.w3.org/2000/svg" xmlns:xlink="http://www.w3.org/1999/xlink">
<g id="graph0" class="graph" transform="scale(1 1) rotate(0) translate(4 84)">
<title>クラス階層図</title>
<polygon fill="white" stroke="transparent" points="-4,4 -4,-84 344,-84 344,4 -4,4"/>
<!-- Node0 -->
<g id="node1" class="node">
<title>Node0</title>
<g id="a_node1"><a xlink:href="classalps_1_1cmn_1_1communication_1_1detail_1_1_can_param_base.html" target="_top" xlink:title="パラメータの基底クラス">
<polygon fill="white" stroke="black" points="0,-24.5 0,-54.5 158,-54.5 158,-24.5 0,-24.5"/>
<text text-anchor="start" x="8" y="-42.5" font-family="Helvetica,sans-Serif" font-size="10.00">alps::cmn::communication</text>
<text text-anchor="middle" x="79" y="-31.5" font-family="Helvetica,sans-Serif" font-size="10.00">::detail::CanParamBase&lt; T &gt;</text>
</a>
</g>
</g>
<!-- Node1 -->
<g id="node2" class="node">
<title>Node1</title>
<g id="a_node2"><a xlink:href="classalps_1_1cmn_1_1communication_1_1_can_param_client.html" target="_top" xlink:title="CANパラメータクライアント">
<polygon fill="white" stroke="black" points="194,-49.5 194,-79.5 340,-79.5 340,-49.5 194,-49.5"/>
<text text-anchor="start" x="202" y="-67.5" font-family="Helvetica,sans-Serif" font-size="10.00">alps::cmn::communication</text>
<text text-anchor="middle" x="267" y="-56.5" font-family="Helvetica,sans-Serif" font-size="10.00">::CanParamClient&lt; T &gt;</text>
</a>
</g>
</g>
<!-- Node0&#45;&gt;Node1 -->
<g id="edge1" class="edge">
<title>Node0&#45;&gt;Node1</title>
<path fill="none" stroke="midnightblue" d="M168.12,-51.34C176.71,-52.5 185.35,-53.66 193.76,-54.79"/>
<polygon fill="midnightblue" stroke="midnightblue" points="168.45,-47.86 158.07,-49.99 167.52,-54.79 168.45,-47.86"/>
</g>
<!-- Node2 -->
<g id="node3" class="node">
<title>Node2</title>
<g id="a_node3"><a xlink:href="classalps_1_1cmn_1_1communication_1_1_can_param_server.html" target="_top" xlink:title="CANパラメータサーバー">
<polygon fill="white" stroke="black" points="194,-0.5 194,-30.5 340,-30.5 340,-0.5 194,-0.5"/>
<text text-anchor="start" x="202" y="-18.5" font-family="Helvetica,sans-Serif" font-size="10.00">alps::cmn::communication</text>
<text text-anchor="middle" x="267" y="-7.5" font-family="Helvetica,sans-Serif" font-size="10.00">::CanParamServer&lt; T &gt;</text>
</a>
</g>
</g>
<!-- Node0&#45;&gt;Node2 -->
<g id="edge2" class="edge">
<title>Node0&#45;&gt;Node2</title>
<path fill="none" stroke="midnightblue" d="M168.12,-28.13C176.71,-27.02 185.35,-25.91 193.76,-24.82"/>
<polygon fill="midnightblue" stroke="midnightblue" points="167.54,-24.68 158.07,-29.43 168.44,-31.62 167.54,-24.68"/>
</g>
</g>
</svg>
