<?xml version="1.0" encoding="UTF-8" standalone="no"?>
<!DOCTYPE svg PUBLIC "-//W3C//DTD SVG 1.1//EN"
 "http://www.w3.org/Graphics/SVG/1.1/DTD/svg11.dtd">
<!-- Generated by graphviz version 2.43.0 (0)
 -->
<!-- Title: クラス階層図 Pages: 1 -->
<svg width="389pt" height="873pt"
 viewBox="0.00 0.00 389.00 873.00" xmlns="http://www.w3.org/2000/svg" xmlns:xlink="http://www.w3.org/1999/xlink">
<g id="graph0" class="graph" transform="scale(1 1) rotate(0) translate(4 869)">
<title>クラス階層図</title>
<polygon fill="white" stroke="transparent" points="-4,4 -4,-869 385,-869 385,4 -4,4"/>
<!-- Node144 -->
<g id="node1" class="node">
<title>Node144</title>
<g id="a_node1"><a xlink:title=" ">
<polygon fill="white" stroke="#bfbfbf" points="0,-488.5 0,-507.5 84,-507.5 84,-488.5 0,-488.5"/>
<text text-anchor="middle" x="42" y="-495.5" font-family="Helvetica,sans-Serif" font-size="10.00">std::true_type</text>
</a>
</g>
</g>
<!-- Node0 -->
<g id="node2" class="node">
<title>Node0</title>
<g id="a_node2"><a xlink:href="structalps_1_1cmn_1_1type_1_1_has_clear_3_01_t_00_01std_1_1void__t_3_01decltype_07std_1_1declval96b6f92e64ab8d06fead1c42af732212.html" target="_top" xlink:title=" ">
<polygon fill="white" stroke="black" points="165.5,-823.5 165.5,-864.5 335.5,-864.5 335.5,-823.5 165.5,-823.5"/>
<text text-anchor="start" x="173.5" y="-852.5" font-family="Helvetica,sans-Serif" font-size="10.00">alps::cmn::type::HasClear</text>
<text text-anchor="start" x="173.5" y="-841.5" font-family="Helvetica,sans-Serif" font-size="10.00">&lt; T, std::void_t&lt; decltype</text>
<text text-anchor="middle" x="250.5" y="-830.5" font-family="Helvetica,sans-Serif" font-size="10.00">(std::declval&lt; T &gt;().clear())&gt; &gt;</text>
</a>
</g>
</g>
<!-- Node144&#45;&gt;Node0 -->
<g id="edge1" class="edge">
<title>Node144&#45;&gt;Node0</title>
<path fill="none" stroke="midnightblue" d="M45.1,-517.56C52.17,-579.78 77.1,-771.58 120,-814 132.31,-826.17 148.52,-833.78 165.29,-838.47"/>
<polygon fill="midnightblue" stroke="midnightblue" points="48.57,-517.07 43.99,-507.51 41.61,-517.84 48.57,-517.07"/>
</g>
<!-- Node146 -->
<g id="node3" class="node">
<title>Node146</title>
<g id="a_node3"><a xlink:href="structalps_1_1cmn_1_1type_1_1_has_push_back_3_01_t_00_01std_1_1void__t_3_01decltype_07std_1_1dec4f52fd5e74f3ece7a8b46a29b385b63b.html" target="_top" xlink:title=" ">
<polygon fill="white" stroke="black" points="155,-741.5 155,-804.5 346,-804.5 346,-741.5 155,-741.5"/>
<text text-anchor="start" x="163" y="-792.5" font-family="Helvetica,sans-Serif" font-size="10.00">alps::cmn::type::HasPush</text>
<text text-anchor="start" x="163" y="-781.5" font-family="Helvetica,sans-Serif" font-size="10.00">Back&lt; T, std::void_t&lt;</text>
<text text-anchor="start" x="163" y="-770.5" font-family="Helvetica,sans-Serif" font-size="10.00"> decltype(std::declval</text>
<text text-anchor="start" x="163" y="-759.5" font-family="Helvetica,sans-Serif" font-size="10.00">&lt; T &gt;().push_back(std::declval</text>
<text text-anchor="middle" x="250.5" y="-748.5" font-family="Helvetica,sans-Serif" font-size="10.00">&lt; typename T::value_type &gt;()))&gt; &gt;</text>
</a>
</g>
</g>
<!-- Node144&#45;&gt;Node146 -->
<g id="edge2" class="edge">
<title>Node144&#45;&gt;Node146</title>
<path fill="none" stroke="midnightblue" d="M43.69,-517.7C46.32,-562.27 59.01,-671.7 120,-732 129.81,-741.7 141.9,-749.11 154.71,-754.76"/>
<polygon fill="midnightblue" stroke="midnightblue" points="47.18,-517.42 43.2,-507.6 40.19,-517.76 47.18,-517.42"/>
</g>
<!-- Node147 -->
<g id="node4" class="node">
<title>Node147</title>
<g id="a_node4"><a xlink:href="structalps_1_1cmn_1_1type_1_1_has_resize_3_01_t_00_01std_1_1void__t_3_01decltype_07std_1_1declvadbc02f6ffc52050966e695ec909bfc32.html" target="_top" xlink:title=" ">
<polygon fill="white" stroke="black" points="169.5,-670 169.5,-722 331.5,-722 331.5,-670 169.5,-670"/>
<text text-anchor="start" x="177.5" y="-710" font-family="Helvetica,sans-Serif" font-size="10.00">alps::cmn::type::HasResize</text>
<text text-anchor="start" x="177.5" y="-699" font-family="Helvetica,sans-Serif" font-size="10.00">&lt; T, std::void_t&lt; decltype</text>
<text text-anchor="start" x="177.5" y="-688" font-family="Helvetica,sans-Serif" font-size="10.00">(std::declval&lt; T &gt;().resize</text>
<text text-anchor="middle" x="250.5" y="-677" font-family="Helvetica,sans-Serif" font-size="10.00">(std::declval&lt; size_t &gt;()))&gt; &gt;</text>
</a>
</g>
</g>
<!-- Node144&#45;&gt;Node147 -->
<g id="edge3" class="edge">
<title>Node144&#45;&gt;Node147</title>
<path fill="none" stroke="midnightblue" d="M46.84,-517.88C54.52,-552.12 75.03,-622.19 120,-660 134.02,-671.79 151.62,-679.73 169.28,-685.08"/>
<polygon fill="midnightblue" stroke="midnightblue" points="50.2,-516.8 44.72,-507.74 43.35,-518.24 50.2,-516.8"/>
</g>
<!-- Node148 -->
<g id="node5" class="node">
<title>Node148</title>
<g id="a_node5"><a xlink:href="structalps_1_1cmn_1_1type_1_1_has_size_3_01_t_00_01std_1_1void__t_3_01decltype_07std_1_1declval_a5da36a8240e1bc573a239efeb859d1d.html" target="_top" xlink:title=" ">
<polygon fill="white" stroke="black" points="167.5,-609.5 167.5,-650.5 333.5,-650.5 333.5,-609.5 167.5,-609.5"/>
<text text-anchor="start" x="175.5" y="-638.5" font-family="Helvetica,sans-Serif" font-size="10.00">alps::cmn::type::HasSize</text>
<text text-anchor="start" x="175.5" y="-627.5" font-family="Helvetica,sans-Serif" font-size="10.00">&lt; T, std::void_t&lt; decltype</text>
<text text-anchor="middle" x="250.5" y="-616.5" font-family="Helvetica,sans-Serif" font-size="10.00">(std::declval&lt; T &gt;().size())&gt; &gt;</text>
</a>
</g>
</g>
<!-- Node144&#45;&gt;Node148 -->
<g id="edge4" class="edge">
<title>Node144&#45;&gt;Node148</title>
<path fill="none" stroke="midnightblue" d="M51.99,-516.83C64.1,-540.1 87.9,-579.16 120,-600 134.13,-609.17 150.73,-615.56 167.25,-619.99"/>
<polygon fill="midnightblue" stroke="midnightblue" points="55,-515.02 47.39,-507.65 48.74,-518.16 55,-515.02"/>
</g>
<!-- Node149 -->
<g id="node6" class="node">
<title>Node149</title>
<g id="a_node6"><a xlink:href="structalps_1_1cmn_1_1type_1_1_has_subscript_operator_3_01_t_00_01std_1_1void__t_3_01decltype_07s7980cab35474ab672bcbf46f74921ed4.html" target="_top" xlink:title=" ">
<polygon fill="white" stroke="black" points="170,-538 170,-590 331,-590 331,-538 170,-538"/>
<text text-anchor="start" x="178" y="-578" font-family="Helvetica,sans-Serif" font-size="10.00">alps::cmn::type::HasSubscript</text>
<text text-anchor="start" x="178" y="-567" font-family="Helvetica,sans-Serif" font-size="10.00">Operator&lt; T, std::void_t</text>
<text text-anchor="start" x="178" y="-556" font-family="Helvetica,sans-Serif" font-size="10.00">&lt; decltype(std::declval&lt; T</text>
<text text-anchor="middle" x="250.5" y="-545" font-family="Helvetica,sans-Serif" font-size="10.00"> &gt;()[0])&gt; &gt;</text>
</a>
</g>
</g>
<!-- Node144&#45;&gt;Node149 -->
<g id="edge5" class="edge">
<title>Node144&#45;&gt;Node149</title>
<path fill="none" stroke="midnightblue" d="M75.17,-511.36C88.87,-516.84 105.1,-523.04 120,-528 135.94,-533.31 153.16,-538.48 169.67,-543.17"/>
<polygon fill="midnightblue" stroke="midnightblue" points="76.27,-508.04 65.69,-507.53 73.65,-514.53 76.27,-508.04"/>
</g>
<!-- Node150 -->
<g id="node7" class="node">
<title>Node150</title>
<g id="a_node7"><a xlink:href="structalps_1_1cmn_1_1type_1_1_has_value_type_3_01_t_00_01std_1_1void__t_3_01typename_01_t_1_1value__type_01_4_01_4.html" target="_top" xlink:title=" ">
<polygon fill="white" stroke="black" points="163.5,-477.5 163.5,-518.5 337.5,-518.5 337.5,-477.5 163.5,-477.5"/>
<text text-anchor="start" x="171.5" y="-506.5" font-family="Helvetica,sans-Serif" font-size="10.00">alps::cmn::type::HasValue</text>
<text text-anchor="start" x="171.5" y="-495.5" font-family="Helvetica,sans-Serif" font-size="10.00">Type&lt; T, std::void_t&lt; typename</text>
<text text-anchor="middle" x="250.5" y="-484.5" font-family="Helvetica,sans-Serif" font-size="10.00"> T::value_type &gt; &gt;</text>
</a>
</g>
</g>
<!-- Node144&#45;&gt;Node150 -->
<g id="edge6" class="edge">
<title>Node144&#45;&gt;Node150</title>
<path fill="none" stroke="midnightblue" d="M94.52,-498C115.37,-498 140.03,-498 163.47,-498"/>
<polygon fill="midnightblue" stroke="midnightblue" points="94.29,-494.5 84.29,-498 94.29,-501.5 94.29,-494.5"/>
</g>
<!-- Node151 -->
<g id="node8" class="node">
<title>Node151</title>
<g id="a_node8"><a xlink:href="structalps_1_1cmn_1_1type_1_1_is_array_3_01_t_00_01std_1_1enable__if__t_3_01_has_subscript_opera7d851a1419eee690e6f6fea77e5acf54.html" target="_top" xlink:title=" ">
<polygon fill="white" stroke="black" points="147.5,-362 147.5,-458 353.5,-458 353.5,-362 147.5,-362"/>
<text text-anchor="start" x="155.5" y="-446" font-family="Helvetica,sans-Serif" font-size="10.00">alps::cmn::type::IsArray</text>
<text text-anchor="start" x="155.5" y="-435" font-family="Helvetica,sans-Serif" font-size="10.00">&lt; T, std::enable_if_t&lt;</text>
<text text-anchor="start" x="155.5" y="-424" font-family="Helvetica,sans-Serif" font-size="10.00"> HasSubscriptOperator&lt; T</text>
<text text-anchor="start" x="155.5" y="-413" font-family="Helvetica,sans-Serif" font-size="10.00"> &gt;::value &amp;&amp;HasValueType</text>
<text text-anchor="start" x="155.5" y="-402" font-family="Helvetica,sans-Serif" font-size="10.00">&lt; T &gt;::value &amp;&amp;HasSize&lt; T</text>
<text text-anchor="start" x="155.5" y="-391" font-family="Helvetica,sans-Serif" font-size="10.00"> &gt;::value &amp;&amp;!HasClear&lt; T &gt;</text>
<text text-anchor="start" x="155.5" y="-380" font-family="Helvetica,sans-Serif" font-size="10.00">::value &amp;&amp;!HasPushBack&lt; T &gt;</text>
<text text-anchor="middle" x="250.5" y="-369" font-family="Helvetica,sans-Serif" font-size="10.00">::value &amp;&amp;!HasResize&lt; T &gt;::value &gt; &gt;</text>
</a>
</g>
</g>
<!-- Node144&#45;&gt;Node151 -->
<g id="edge7" class="edge">
<title>Node144&#45;&gt;Node151</title>
<path fill="none" stroke="midnightblue" d="M74.84,-484.43C94.49,-476.06 120.9,-464.8 147.23,-453.58"/>
<polygon fill="midnightblue" stroke="midnightblue" points="73.32,-481.27 65.49,-488.41 76.06,-487.71 73.32,-481.27"/>
</g>
<!-- Node152 -->
<g id="node9" class="node">
<title>Node152</title>
<g id="a_node9"><a xlink:href="structalps_1_1cmn_1_1type_1_1_is_vector_like_3_01_t_00_01std_1_1enable__if__t_3_01_has_subscript5b230c3dfb1f1bba6bb554fc1992d723.html" target="_top" xlink:title=" ">
<polygon fill="white" stroke="black" points="135,-247 135,-343 366,-343 366,-247 135,-247"/>
<text text-anchor="start" x="143" y="-331" font-family="Helvetica,sans-Serif" font-size="10.00">alps::cmn::type::IsVector</text>
<text text-anchor="start" x="143" y="-320" font-family="Helvetica,sans-Serif" font-size="10.00">Like&lt; T, std::enable_if</text>
<text text-anchor="start" x="143" y="-309" font-family="Helvetica,sans-Serif" font-size="10.00">_t&lt; HasSubscriptOperator</text>
<text text-anchor="start" x="143" y="-298" font-family="Helvetica,sans-Serif" font-size="10.00">&lt; T &gt;::value &amp;&amp;HasValueType</text>
<text text-anchor="start" x="143" y="-287" font-family="Helvetica,sans-Serif" font-size="10.00">&lt; T &gt;::value &amp;&amp;HasSize&lt; T &gt;</text>
<text text-anchor="start" x="143" y="-276" font-family="Helvetica,sans-Serif" font-size="10.00">::value &amp;&amp;HasClear&lt; T &gt;::value</text>
<text text-anchor="start" x="143" y="-265" font-family="Helvetica,sans-Serif" font-size="10.00"> &amp;&amp;HasPushBack&lt; T &gt;::value &amp;&amp;HasResize</text>
<text text-anchor="middle" x="250.5" y="-254" font-family="Helvetica,sans-Serif" font-size="10.00">&lt; T &gt;::value &gt; &gt;</text>
</a>
</g>
</g>
<!-- Node144&#45;&gt;Node152 -->
<g id="edge8" class="edge">
<title>Node144&#45;&gt;Node152</title>
<path fill="none" stroke="midnightblue" d="M48.84,-478.28C58.81,-447.71 81.8,-388.72 120,-353 124.59,-348.71 129.55,-344.7 134.76,-340.95"/>
<polygon fill="midnightblue" stroke="midnightblue" points="45.4,-477.57 45.76,-488.16 52.08,-479.65 45.4,-477.57"/>
</g>
<!-- Node153 -->
<g id="node10" class="node">
<title>Node153</title>
<g id="a_node10"><a xlink:href="structalps_1_1cmn_1_1type_1_1_supports_get_element_names_3_01_t_00_01std_1_1void__t_3_01decltype2f43caa8b955e7f8195f525d3aa247f1.html" target="_top" xlink:title=" ">
<polygon fill="white" stroke="black" points="149.5,-176 149.5,-228 351.5,-228 351.5,-176 149.5,-176"/>
<text text-anchor="start" x="157.5" y="-216" font-family="Helvetica,sans-Serif" font-size="10.00">alps::cmn::type::Supports</text>
<text text-anchor="start" x="157.5" y="-205" font-family="Helvetica,sans-Serif" font-size="10.00">GetElementNames&lt; T, std</text>
<text text-anchor="start" x="157.5" y="-194" font-family="Helvetica,sans-Serif" font-size="10.00">::void_t&lt; decltype(GetElementNames</text>
<text text-anchor="middle" x="250.5" y="-183" font-family="Helvetica,sans-Serif" font-size="10.00">(std::declval&lt; T &amp; &gt;()))&gt; &gt;</text>
</a>
</g>
</g>
<!-- Node144&#45;&gt;Node153 -->
<g id="edge9" class="edge">
<title>Node144&#45;&gt;Node153</title>
<path fill="none" stroke="midnightblue" d="M42.77,-478.28C43.31,-430.06 51.63,-305.23 120,-238 128.4,-229.74 138.53,-223.33 149.37,-218.38"/>
<polygon fill="midnightblue" stroke="midnightblue" points="39.27,-478.33 42.76,-488.33 46.27,-478.33 39.27,-478.33"/>
</g>
<!-- Node154 -->
<g id="node11" class="node">
<title>Node154</title>
<g id="a_node11"><a xlink:href="structalps_1_1cmn_1_1type_1_1_supports_to_tied_tuple_3_01_t_00_01std_1_1void__t_3_01decltype_07_9f44abe140632721ed0d7f78ca803e5b.html" target="_top" xlink:title="T型がstd::tupleに変換可能かどうかを判定する">
<polygon fill="white" stroke="black" points="175.5,-105 175.5,-157 325.5,-157 325.5,-105 175.5,-105"/>
<text text-anchor="start" x="183.5" y="-145" font-family="Helvetica,sans-Serif" font-size="10.00">alps::cmn::type::Supports</text>
<text text-anchor="start" x="183.5" y="-134" font-family="Helvetica,sans-Serif" font-size="10.00">ToTiedTuple&lt; T, std::void</text>
<text text-anchor="start" x="183.5" y="-123" font-family="Helvetica,sans-Serif" font-size="10.00">_t&lt; decltype(ToTiedTuple</text>
<text text-anchor="middle" x="250.5" y="-112" font-family="Helvetica,sans-Serif" font-size="10.00">(std::declval&lt; T &amp; &gt;()))&gt; &gt;</text>
</a>
</g>
</g>
<!-- Node144&#45;&gt;Node154 -->
<g id="edge10" class="edge">
<title>Node144&#45;&gt;Node154</title>
<path fill="none" stroke="midnightblue" d="M44.95,-478.43C51.72,-414.41 76.2,-212.71 120,-167 134.61,-151.75 155.08,-142.79 175.43,-137.57"/>
<polygon fill="midnightblue" stroke="midnightblue" points="41.47,-478.1 43.92,-488.41 48.43,-478.82 41.47,-478.1"/>
</g>
<!-- Node155 -->
<g id="node12" class="node">
<title>Node155</title>
<g id="a_node12"><a xlink:href="structalps_1_1ros2_1_1type_1_1_is_single_element_std_msgs_type_3_01_ros_topic_type_00_01std_1_1vacc211517e2782de2f7efe73018b7548.html" target="_top" xlink:title=" ">
<polygon fill="white" stroke="black" points="120,-0.5 120,-85.5 381,-85.5 381,-0.5 120,-0.5"/>
<text text-anchor="start" x="128" y="-73.5" font-family="Helvetica,sans-Serif" font-size="10.00">alps::ros2::type::IsSingle</text>
<text text-anchor="start" x="128" y="-62.5" font-family="Helvetica,sans-Serif" font-size="10.00">ElementStdMsgsType&lt; RosTopicType,</text>
<text text-anchor="start" x="128" y="-51.5" font-family="Helvetica,sans-Serif" font-size="10.00"> std::void_t&lt; typename RosTopicType</text>
<text text-anchor="start" x="128" y="-40.5" font-family="Helvetica,sans-Serif" font-size="10.00">::_data_type &gt;, std::enable_if_t</text>
<text text-anchor="start" x="128" y="-29.5" font-family="Helvetica,sans-Serif" font-size="10.00">&lt; std::is_same_v&lt; typename RosTopicType</text>
<text text-anchor="start" x="128" y="-18.5" font-family="Helvetica,sans-Serif" font-size="10.00">::_data_type, decltype(std::declval&lt; RosTopicType</text>
<text text-anchor="middle" x="250.5" y="-7.5" font-family="Helvetica,sans-Serif" font-size="10.00"> &gt;().data)&gt; &gt; &gt;</text>
</a>
</g>
</g>
<!-- Node144&#45;&gt;Node155 -->
<g id="edge11" class="edge">
<title>Node144&#45;&gt;Node155</title>
<path fill="none" stroke="midnightblue" d="M44.32,-478.34C49.54,-406.04 70.88,-156.03 120,-96 123,-92.33 126.29,-88.92 129.82,-85.74"/>
<polygon fill="midnightblue" stroke="midnightblue" points="40.83,-478.14 43.62,-488.36 47.81,-478.63 40.83,-478.14"/>
</g>
</g>
</svg>
