<?xml version="1.0" encoding="UTF-8" standalone="no"?>
<!DOCTYPE svg PUBLIC "-//W3C//DTD SVG 1.1//EN"
 "http://www.w3.org/Graphics/SVG/1.1/DTD/svg11.dtd">
<!-- Generated by graphviz version 2.43.0 (0)
 -->
<!-- Title: クラス階層図 Pages: 1 -->
<svg width="336pt" height="88pt"
 viewBox="0.00 0.00 336.00 88.00" xmlns="http://www.w3.org/2000/svg" xmlns:xlink="http://www.w3.org/1999/xlink">
<g id="graph0" class="graph" transform="scale(1 1) rotate(0) translate(4 84)">
<title>クラス階層図</title>
<polygon fill="white" stroke="transparent" points="-4,4 -4,-84 332,-84 332,4 -4,4"/>
<!-- Node0 -->
<g id="node1" class="node">
<title>Node0</title>
<g id="a_node1"><a xlink:href="classalps_1_1cmn_1_1actuator_1_1_i_motor.html" target="_top" xlink:title=" ">
<polygon fill="white" stroke="black" points="15.5,-49.5 15.5,-79.5 166.5,-79.5 166.5,-49.5 15.5,-49.5"/>
<text text-anchor="start" x="23.5" y="-67.5" font-family="Helvetica,sans-Serif" font-size="10.00">alps::cmn::actuator</text>
<text text-anchor="middle" x="91" y="-56.5" font-family="Helvetica,sans-Serif" font-size="10.00">::IMotor&lt; RobomasMotor &gt;</text>
</a>
</g>
</g>
<!-- Node1 -->
<g id="node2" class="node">
<title>Node1</title>
<g id="a_node2"><a xlink:href="classalps_1_1cmn_1_1actuator_1_1_robomas_motor.html" target="_top" xlink:title="ロボマスモータのクラス．RobomasMotorsCanPortに登録して使用する．">
<polygon fill="white" stroke="black" points="218,-24.5 218,-54.5 328,-54.5 328,-24.5 218,-24.5"/>
<text text-anchor="start" x="226" y="-42.5" font-family="Helvetica,sans-Serif" font-size="10.00">alps::cmn::actuator</text>
<text text-anchor="middle" x="273" y="-31.5" font-family="Helvetica,sans-Serif" font-size="10.00">::RobomasMotor</text>
</a>
</g>
</g>
<!-- Node0&#45;&gt;Node1 -->
<g id="edge1" class="edge">
<title>Node0&#45;&gt;Node1</title>
<path fill="none" stroke="midnightblue" d="M176.67,-52.74C190.69,-50.79 204.88,-48.82 217.87,-47.02"/>
<polygon fill="midnightblue" stroke="midnightblue" points="175.94,-49.31 166.51,-54.15 176.9,-56.24 175.94,-49.31"/>
</g>
<!-- Node53 -->
<g id="node3" class="node">
<title>Node53</title>
<g id="a_node3"><a xlink:href="classalps_1_1cmn_1_1sensor_1_1_i_rotary_sensor.html" target="_top" xlink:title=" ">
<polygon fill="white" stroke="black" points="0,-0.5 0,-30.5 182,-30.5 182,-0.5 0,-0.5"/>
<text text-anchor="start" x="8" y="-18.5" font-family="Helvetica,sans-Serif" font-size="10.00">alps::cmn::sensor::</text>
<text text-anchor="middle" x="91" y="-7.5" font-family="Helvetica,sans-Serif" font-size="10.00">IRotarySensor&lt; RobomasMotor &gt;</text>
</a>
</g>
</g>
<!-- Node53&#45;&gt;Node1 -->
<g id="edge2" class="edge">
<title>Node53&#45;&gt;Node1</title>
<path fill="none" stroke="midnightblue" d="M192.46,-28.89C201.1,-30.05 209.62,-31.18 217.68,-32.26"/>
<polygon fill="midnightblue" stroke="midnightblue" points="192.64,-25.39 182.26,-27.54 191.71,-32.33 192.64,-25.39"/>
</g>
</g>
</svg>
