<?xml version="1.0" encoding="UTF-8" standalone="no"?>
<!DOCTYPE svg PUBLIC "-//W3C//DTD SVG 1.1//EN"
 "http://www.w3.org/Graphics/SVG/1.1/DTD/svg11.dtd">
<!-- Generated by graphviz version 2.43.0 (0)
 -->
<!-- Title: クラス階層図 Pages: 1 -->
<svg width="331pt" height="86pt"
 viewBox="0.00 0.00 331.00 86.00" xmlns="http://www.w3.org/2000/svg" xmlns:xlink="http://www.w3.org/1999/xlink">
<g id="graph0" class="graph" transform="scale(1 1) rotate(0) translate(4 82)">
<title>クラス階層図</title>
<!-- Node0 -->
<g id="node1" class="node">
<title>Node0</title>
<g id="a_node1"><a xlink:href="classalps_1_1cmn_1_1gpio_1_1_i_attach_interrupt.html" target="_top" xlink:title=" ">
<polygon fill="white" stroke="#666666" points="132,-78 0,-78 0,-48 132,-48 132,-78"/>
<text text-anchor="start" x="8" y="-66" font-family="Helvetica,sans-Serif" font-size="10.00">alps::cmn::gpio::IAttach</text>
<text text-anchor="middle" x="66" y="-55" font-family="Helvetica,sans-Serif" font-size="10.00">Interrupt&lt; InterruptIn &gt;</text>
</a>
</g>
</g>
<!-- Node1 -->
<g id="node2" class="node">
<title>Node1</title>
<g id="a_node2"><a xlink:href="classalps_1_1mbed_1_1gpio_1_1_interrupt_in.html" target="_top" xlink:title="割り込み入力ピン">
<polygon fill="white" stroke="#666666" points="323,-48.5 168,-48.5 168,-29.5 323,-29.5 323,-48.5"/>
<text text-anchor="middle" x="245.5" y="-36.5" font-family="Helvetica,sans-Serif" font-size="10.00">alps::mbed::gpio::InterruptIn</text>
</a>
</g>
</g>
<!-- Node0&#45;&gt;Node1 -->
<g id="edge1" class="edge">
<title>Node0&#45;&gt;Node1</title>
<path fill="none" stroke="#63b8ff" d="M142.13,-52.84C152.71,-51.41 163.55,-49.95 174.04,-48.53"/>
<polygon fill="#63b8ff" stroke="#63b8ff" points="141.53,-49.39 132.09,-54.2 142.47,-56.33 141.53,-49.39"/>
</g>
<!-- Node2 -->
<g id="node3" class="node">
<title>Node2</title>
<g id="a_node3"><a xlink:href="classalps_1_1cmn_1_1gpio_1_1_i_digital_read.html" target="_top" xlink:title=" ">
<polygon fill="white" stroke="#666666" points="132,-30 0,-30 0,0 132,0 132,-30"/>
<text text-anchor="start" x="8" y="-18" font-family="Helvetica,sans-Serif" font-size="10.00">alps::cmn::gpio::IDigital</text>
<text text-anchor="middle" x="66" y="-7" font-family="Helvetica,sans-Serif" font-size="10.00">Read&lt; InterruptIn &gt;</text>
</a>
</g>
</g>
<!-- Node2&#45;&gt;Node1 -->
<g id="edge2" class="edge">
<title>Node2&#45;&gt;Node1</title>
<path fill="none" stroke="#63b8ff" d="M142.13,-25.16C152.71,-26.59 163.55,-28.05 174.04,-29.47"/>
<polygon fill="#63b8ff" stroke="#63b8ff" points="142.47,-21.67 132.09,-23.8 141.53,-28.61 142.47,-21.67"/>
</g>
</g>
</svg>
