<?xml version="1.0" encoding="UTF-8" standalone="no"?>
<!DOCTYPE svg PUBLIC "-//W3C//DTD SVG 1.1//EN"
 "http://www.w3.org/Graphics/SVG/1.1/DTD/svg11.dtd">
<!-- Generated by graphviz version 2.43.0 (0)
 -->
<!-- Title: クラス階層図 Pages: 1 -->
<svg width="329pt" height="86pt"
 viewBox="0.00 0.00 329.00 86.00" xmlns="http://www.w3.org/2000/svg" xmlns:xlink="http://www.w3.org/1999/xlink">
<g id="graph0" class="graph" transform="scale(1 1) rotate(0) translate(4 82)">
<title>クラス階層図</title>
<!-- Node0 -->
<g id="Node000000" class="node">
<title>Node0</title>
<g id="a_Node000000"><a xlink:href="classalps_1_1ros2_1_1util_1_1detail_1_1_typed_param_base.html" target="_top" xlink:title="型付きパラメーターの基底クラス">
<polygon fill="white" stroke="#666666" points="134,-54 0,-54 0,-24 134,-24 134,-54"/>
<text text-anchor="start" x="8" y="-42" font-family="Helvetica,sans-Serif" font-size="10.00">alps::ros2::util::detail</text>
<text text-anchor="middle" x="67" y="-31" font-family="Helvetica,sans-Serif" font-size="10.00">::TypedParamBase&lt; T &gt;</text>
</a>
</g>
</g>
<!-- Node1 -->
<g id="Node000001" class="node">
<title>Node1</title>
<g id="a_Node000001"><a xlink:href="classalps_1_1ros2_1_1util_1_1_typed_param_client.html" target="_top" xlink:title="型付きパラメーターのクライアント">
<polygon fill="white" stroke="#666666" points="321,-78 170,-78 170,-48 321,-48 321,-78"/>
<text text-anchor="start" x="178" y="-66" font-family="Helvetica,sans-Serif" font-size="10.00">alps::ros2::util::TypedParam</text>
<text text-anchor="middle" x="245.5" y="-55" font-family="Helvetica,sans-Serif" font-size="10.00">Client&lt; T &gt;</text>
</a>
</g>
</g>
<!-- Node0&#45;&gt;Node1 -->
<g id="edge21_Node000000_Node000001" class="edge">
<title>Node0&#45;&gt;Node1</title>
<g id="a_edge21_Node000000_Node000001"><a xlink:title=" ">
<path fill="none" stroke="#63b8ff" d="M144.16,-49.36C152.69,-50.52 161.38,-51.7 169.9,-52.86"/>
<polygon fill="#63b8ff" stroke="#63b8ff" points="144.6,-45.88 134.22,-48 143.66,-52.82 144.6,-45.88"/>
</a>
</g>
</g>
<!-- Node2 -->
<g id="Node000002" class="node">
<title>Node2</title>
<g id="a_Node000002"><a xlink:href="classalps_1_1ros2_1_1util_1_1_typed_param_server.html" target="_top" xlink:title="型付きパラメーターのサーバー">
<polygon fill="white" stroke="#666666" points="321,-30 170,-30 170,0 321,0 321,-30"/>
<text text-anchor="start" x="178" y="-18" font-family="Helvetica,sans-Serif" font-size="10.00">alps::ros2::util::TypedParam</text>
<text text-anchor="middle" x="245.5" y="-7" font-family="Helvetica,sans-Serif" font-size="10.00">Server&lt; T &gt;</text>
</a>
</g>
</g>
<!-- Node0&#45;&gt;Node2 -->
<g id="edge22_Node000000_Node000002" class="edge">
<title>Node0&#45;&gt;Node2</title>
<g id="a_edge22_Node000000_Node000002"><a xlink:title=" ">
<path fill="none" stroke="#63b8ff" d="M144.16,-28.64C152.69,-27.48 161.38,-26.3 169.9,-25.14"/>
<polygon fill="#63b8ff" stroke="#63b8ff" points="143.66,-25.18 134.22,-30 144.6,-32.12 143.66,-25.18"/>
</a>
</g>
</g>
</g>
</svg>
