<?xml version="1.0" encoding="UTF-8" standalone="no"?>
<!DOCTYPE svg PUBLIC "-//W3C//DTD SVG 1.1//EN"
 "http://www.w3.org/Graphics/SVG/1.1/DTD/svg11.dtd">
<!-- Generated by graphviz version 2.43.0 (0)
 -->
<!-- Title: クラス階層図 Pages: 1 -->
<svg width="341pt" height="88pt"
 viewBox="0.00 0.00 341.00 88.00" xmlns="http://www.w3.org/2000/svg" xmlns:xlink="http://www.w3.org/1999/xlink">
<g id="graph0" class="graph" transform="scale(1 1) rotate(0) translate(4 84)">
<title>クラス階層図</title>
<polygon fill="white" stroke="transparent" points="-4,4 -4,-84 337,-84 337,4 -4,4"/>
<!-- Node0 -->
<g id="node1" class="node">
<title>Node0</title>
<g id="a_node1"><a xlink:href="classalps_1_1cmn_1_1gpio_1_1_i_digital_in.html" target="_top" xlink:title=" ">
<polygon fill="white" stroke="black" points="5,-49.5 5,-79.5 137,-79.5 137,-49.5 5,-49.5"/>
<text text-anchor="start" x="13" y="-67.5" font-family="Helvetica,sans-Serif" font-size="10.00">alps::cmn::gpio::IDigital</text>
<text text-anchor="middle" x="71" y="-56.5" font-family="Helvetica,sans-Serif" font-size="10.00">In&lt; InterruptIn &gt;</text>
</a>
</g>
</g>
<!-- Node1 -->
<g id="node2" class="node">
<title>Node1</title>
<g id="a_node2"><a xlink:href="classalps_1_1mbed_1_1gpio_1_1_interrupt_in.html" target="_top" xlink:title="割り込み入力ピン">
<polygon fill="white" stroke="black" points="178,-30 178,-49 333,-49 333,-30 178,-30"/>
<text text-anchor="middle" x="255.5" y="-37" font-family="Helvetica,sans-Serif" font-size="10.00">alps::mbed::gpio::InterruptIn</text>
</a>
</g>
</g>
<!-- Node0&#45;&gt;Node1 -->
<g id="edge1" class="edge">
<title>Node0&#45;&gt;Node1</title>
<path fill="none" stroke="midnightblue" d="M147.09,-54.21C159.66,-52.49 172.66,-50.71 185.09,-49.01"/>
<polygon fill="midnightblue" stroke="midnightblue" points="146.55,-50.76 137.11,-55.58 147.5,-57.69 146.55,-50.76"/>
</g>
<!-- Node39 -->
<g id="node3" class="node">
<title>Node39</title>
<g id="a_node3"><a xlink:href="classalps_1_1cmn_1_1gpio_1_1_i_interrupt_in.html" target="_top" xlink:title=" ">
<polygon fill="white" stroke="black" points="0,-0.5 0,-30.5 142,-30.5 142,-0.5 0,-0.5"/>
<text text-anchor="start" x="8" y="-18.5" font-family="Helvetica,sans-Serif" font-size="10.00">alps::cmn::gpio::IInterrupt</text>
<text text-anchor="middle" x="71" y="-7.5" font-family="Helvetica,sans-Serif" font-size="10.00">In&lt; InterruptIn &gt;</text>
</a>
</g>
</g>
<!-- Node39&#45;&gt;Node1 -->
<g id="edge2" class="edge">
<title>Node39&#45;&gt;Node1</title>
<path fill="none" stroke="midnightblue" d="M152.01,-26.02C162.07,-27.34 172.31,-28.69 182.23,-30"/>
<polygon fill="midnightblue" stroke="midnightblue" points="152.41,-22.54 142.04,-24.71 151.5,-29.48 152.41,-22.54"/>
</g>
</g>
</svg>
