<?xml version="1.0" encoding="UTF-8" standalone="no"?>
<!DOCTYPE svg PUBLIC "-//W3C//DTD SVG 1.1//EN"
 "http://www.w3.org/Graphics/SVG/1.1/DTD/svg11.dtd">
<!-- Generated by graphviz version 2.43.0 (0)
 -->
<!-- Title: クラス階層図 Pages: 1 -->
<svg width="524pt" height="182pt"
 viewBox="0.00 0.00 524.00 182.00" xmlns="http://www.w3.org/2000/svg" xmlns:xlink="http://www.w3.org/1999/xlink">
<g id="graph0" class="graph" transform="scale(1 1) rotate(0) translate(4 178)">
<title>クラス階層図</title>
<!-- Node0 -->
<g id="node1" class="node">
<title>Node0</title>
<g id="a_node1"><a xlink:href="classalps_1_1cmn_1_1communication_1_1_i_can_read.html" target="_top" xlink:title="CAN通信でデータを読み込むインターフェース">
<polygon fill="white" stroke="#666666" points="146,-126 0,-126 0,-96 146,-96 146,-126"/>
<text text-anchor="start" x="8" y="-114" font-family="Helvetica,sans-Serif" font-size="10.00">alps::cmn::communication</text>
<text text-anchor="middle" x="73" y="-103" font-family="Helvetica,sans-Serif" font-size="10.00">::ICanRead&lt; Derived &gt;</text>
</a>
</g>
</g>
<!-- Node1 -->
<g id="node2" class="node">
<title>Node1</title>
<g id="a_node2"><a xlink:href="classalps_1_1cmn_1_1communication_1_1_i_can_io.html" target="_top" xlink:title=" ">
<polygon fill="white" stroke="#666666" points="328,-78 182,-78 182,-48 328,-48 328,-78"/>
<text text-anchor="start" x="190" y="-66" font-family="Helvetica,sans-Serif" font-size="10.00">alps::cmn::communication</text>
<text text-anchor="middle" x="255" y="-55" font-family="Helvetica,sans-Serif" font-size="10.00">::ICanIo&lt; SocketCanIo &gt;</text>
</a>
</g>
</g>
<!-- Node0&#45;&gt;Node1 -->
<g id="edge1" class="edge">
<title>Node0&#45;&gt;Node1</title>
<path fill="none" stroke="#63b8ff" d="M140.19,-93.35C159.09,-88.31 179.49,-82.87 197.74,-78"/>
<polygon fill="#63b8ff" stroke="#63b8ff" points="139.22,-89.99 130.46,-95.94 141.02,-96.75 139.22,-89.99"/>
</g>
<!-- Node4 -->
<g id="node4" class="node">
<title>Node4</title>
<g id="a_node4"><a xlink:href="classalps_1_1cmn_1_1communication_1_1_i_can_io.html" target="_top" xlink:title=" ">
<polygon fill="white" stroke="#666666" points="328,-30 182,-30 182,0 328,0 328,-30"/>
<text text-anchor="start" x="190" y="-18" font-family="Helvetica,sans-Serif" font-size="10.00">alps::cmn::communication</text>
<text text-anchor="middle" x="255" y="-7" font-family="Helvetica,sans-Serif" font-size="10.00">::ICanIo&lt; BufferedCanIo &gt;</text>
</a>
</g>
</g>
<!-- Node0&#45;&gt;Node4 -->
<g id="edge3" class="edge">
<title>Node0&#45;&gt;Node4</title>
<path fill="none" stroke="#63b8ff" d="M139.56,-91.19C141.79,-89.88 143.94,-88.48 146,-87 167.63,-71.41 160.37,-54.59 182,-39 186.7,-35.61 191.92,-32.68 197.33,-30.14"/>
<polygon fill="#63b8ff" stroke="#63b8ff" points="137.9,-88.11 130.67,-95.86 141.15,-94.31 137.9,-88.11"/>
</g>
<!-- Node6 -->
<g id="node6" class="node">
<title>Node6</title>
<g id="a_node6"><a xlink:href="classalps_1_1cmn_1_1communication_1_1_i_can_io.html" target="_top" xlink:title=" ">
<polygon fill="white" stroke="#666666" points="328,-174 182,-174 182,-144 328,-144 328,-174"/>
<text text-anchor="start" x="190" y="-162" font-family="Helvetica,sans-Serif" font-size="10.00">alps::cmn::communication</text>
<text text-anchor="middle" x="255" y="-151" font-family="Helvetica,sans-Serif" font-size="10.00">::ICanIo&lt; CanIo &gt;</text>
</a>
</g>
</g>
<!-- Node0&#45;&gt;Node6 -->
<g id="edge5" class="edge">
<title>Node0&#45;&gt;Node6</title>
<path fill="none" stroke="#63b8ff" d="M140.19,-128.65C159.09,-133.69 179.49,-139.13 197.74,-144"/>
<polygon fill="#63b8ff" stroke="#63b8ff" points="141.02,-125.25 130.46,-126.06 139.22,-132.01 141.02,-125.25"/>
</g>
<!-- Node7 -->
<g id="node7" class="node">
<title>Node7</title>
<g id="a_node7"><a xlink:href="classalps_1_1cmn_1_1communication_1_1_i_can_io.html" target="_top" xlink:title="CAN通信IOのインターフェース">
<polygon fill="white" stroke="#666666" points="328,-126 182,-126 182,-96 328,-96 328,-126"/>
<text text-anchor="start" x="190" y="-114" font-family="Helvetica,sans-Serif" font-size="10.00">alps::cmn::communication</text>
<text text-anchor="middle" x="255" y="-103" font-family="Helvetica,sans-Serif" font-size="10.00">::ICanIo&lt; Derived &gt;</text>
</a>
</g>
</g>
<!-- Node0&#45;&gt;Node7 -->
<g id="edge6" class="edge">
<title>Node0&#45;&gt;Node7</title>
<path fill="none" stroke="#63b8ff" d="M156.44,-111C164.91,-111 173.46,-111 181.81,-111"/>
<polygon fill="#63b8ff" stroke="#63b8ff" points="156.18,-107.5 146.18,-111 156.18,-114.5 156.18,-107.5"/>
</g>
<!-- Node2 -->
<g id="node3" class="node">
<title>Node2</title>
<g id="a_node3"><a xlink:href="classalps_1_1lin_1_1communication_1_1_socket_can_io.html" target="_top" xlink:title="SocketCANを用いてCAN通信を行うクラス．">
<polygon fill="white" stroke="#666666" points="508.5,-78 371.5,-78 371.5,-48 508.5,-48 508.5,-78"/>
<text text-anchor="start" x="379.5" y="-66" font-family="Helvetica,sans-Serif" font-size="10.00">alps::lin::communication</text>
<text text-anchor="middle" x="440" y="-55" font-family="Helvetica,sans-Serif" font-size="10.00">::SocketCanIo</text>
</a>
</g>
</g>
<!-- Node1&#45;&gt;Node2 -->
<g id="edge2" class="edge">
<title>Node1&#45;&gt;Node2</title>
<path fill="none" stroke="#63b8ff" d="M338.21,-63C349.34,-63 360.65,-63 371.48,-63"/>
<polygon fill="#63b8ff" stroke="#63b8ff" points="338.06,-59.5 328.06,-63 338.06,-66.5 338.06,-59.5"/>
</g>
<!-- Node5 -->
<g id="node5" class="node">
<title>Node5</title>
<g id="a_node5"><a xlink:href="classalps_1_1mbed_1_1communication_1_1_buffered_can_io.html" target="_top" xlink:title="MbedのCAN通信IO. 受信割り込みによってデータをバッファリングする．">
<polygon fill="white" stroke="#666666" points="516,-30 364,-30 364,0 516,0 516,-30"/>
<text text-anchor="start" x="372" y="-18" font-family="Helvetica,sans-Serif" font-size="10.00">alps::mbed::communication</text>
<text text-anchor="middle" x="440" y="-7" font-family="Helvetica,sans-Serif" font-size="10.00">::BufferedCanIo</text>
</a>
</g>
</g>
<!-- Node4&#45;&gt;Node5 -->
<g id="edge4" class="edge">
<title>Node4&#45;&gt;Node5</title>
<path fill="none" stroke="#63b8ff" d="M338.11,-15C346.73,-15 355.46,-15 363.99,-15"/>
<polygon fill="#63b8ff" stroke="#63b8ff" points="338.06,-11.5 328.06,-15 338.06,-18.5 338.06,-11.5"/>
</g>
<!-- Node3 -->
<g id="node8" class="node">
<title>Node3</title>
<g id="a_node8"><a xlink:href="classalps_1_1cmn_1_1communication_1_1_i_can_write.html" target="_top" xlink:title="CAN通信でデータを書き込むインターフェース">
<polygon fill="white" stroke="#666666" points="146,-78 0,-78 0,-48 146,-48 146,-78"/>
<text text-anchor="start" x="8" y="-66" font-family="Helvetica,sans-Serif" font-size="10.00">alps::cmn::communication</text>
<text text-anchor="middle" x="73" y="-55" font-family="Helvetica,sans-Serif" font-size="10.00">::ICanWrite&lt; Derived &gt;</text>
</a>
</g>
</g>
<!-- Node3&#45;&gt;Node1 -->
<g id="edge7" class="edge">
<title>Node3&#45;&gt;Node1</title>
<path fill="none" stroke="#63b8ff" d="M156.44,-63C164.91,-63 173.46,-63 181.81,-63"/>
<polygon fill="#63b8ff" stroke="#63b8ff" points="156.18,-59.5 146.18,-63 156.18,-66.5 156.18,-59.5"/>
</g>
<!-- Node3&#45;&gt;Node4 -->
<g id="edge8" class="edge">
<title>Node3&#45;&gt;Node4</title>
<path fill="none" stroke="#63b8ff" d="M140.19,-45.35C159.09,-40.31 179.49,-34.87 197.74,-30"/>
<polygon fill="#63b8ff" stroke="#63b8ff" points="139.22,-41.99 130.46,-47.94 141.02,-48.75 139.22,-41.99"/>
</g>
<!-- Node3&#45;&gt;Node6 -->
<g id="edge9" class="edge">
<title>Node3&#45;&gt;Node6</title>
<path fill="none" stroke="#63b8ff" d="M139.56,-82.81C141.79,-84.12 143.94,-85.52 146,-87 167.63,-102.59 160.37,-119.41 182,-135 186.7,-138.39 191.92,-141.32 197.33,-143.86"/>
<polygon fill="#63b8ff" stroke="#63b8ff" points="141.15,-79.69 130.67,-78.14 137.9,-85.89 141.15,-79.69"/>
</g>
<!-- Node3&#45;&gt;Node7 -->
<g id="edge10" class="edge">
<title>Node3&#45;&gt;Node7</title>
<path fill="none" stroke="#63b8ff" d="M140.19,-80.65C159.09,-85.69 179.49,-91.13 197.74,-96"/>
<polygon fill="#63b8ff" stroke="#63b8ff" points="141.02,-77.25 130.46,-78.06 139.22,-84.01 141.02,-77.25"/>
</g>
</g>
</svg>
