<?xml version="1.0" encoding="UTF-8" standalone="no"?>
<!DOCTYPE svg PUBLIC "-//W3C//DTD SVG 1.1//EN"
 "http://www.w3.org/Graphics/SVG/1.1/DTD/svg11.dtd">
<!-- Generated by graphviz version 2.43.0 (0)
 -->
<!-- Title: クラス階層図 Pages: 1 -->
<svg width="283pt" height="64pt"
 viewBox="0.00 0.00 283.00 64.00" xmlns="http://www.w3.org/2000/svg" xmlns:xlink="http://www.w3.org/1999/xlink">
<g id="graph0" class="graph" transform="scale(1 1) rotate(0) translate(4 60)">
<title>クラス階層図</title>
<!-- Node0 -->
<g id="node1" class="node">
<title>Node0</title>
<g id="a_node1"><a xlink:href="classroblab_1_1common_1_1_lpf.html" target="_top" xlink:title="ローパスフィルタのクラス">
<polygon fill="white" stroke="#666666" points="117,-56 0,-56 0,-37 117,-37 117,-56"/>
<text text-anchor="middle" x="58.5" y="-44" font-family="Helvetica,sans-Serif" font-size="10.00">roblab::common::Lpf</text>
</a>
</g>
</g>
<!-- Node1 -->
<g id="node2" class="node">
<title>Node1</title>
<g id="a_node2"><a xlink:href="classroblab_1_1common_1_1_dob.html" target="_top" xlink:title="外乱オブザーバー">
<polygon fill="white" stroke="#666666" points="275,-37 153,-37 153,-18 275,-18 275,-37"/>
<text text-anchor="middle" x="214" y="-25" font-family="Helvetica,sans-Serif" font-size="10.00">roblab::common::Dob</text>
</a>
</g>
</g>
<!-- Node0&#45;&gt;Node1 -->
<g id="edge1" class="edge">
<title>Node0&#45;&gt;Node1</title>
<path fill="none" stroke="#63b8ff" d="M127.05,-38.14C135.62,-37.08 144.34,-36 152.78,-34.95"/>
<polygon fill="#63b8ff" stroke="#63b8ff" points="126.59,-34.67 117.09,-39.37 127.45,-41.62 126.59,-34.67"/>
</g>
<!-- Node2 -->
<g id="node3" class="node">
<title>Node2</title>
<g id="a_node3"><a xlink:href="classroblab_1_1common_1_1_pid.html" target="_top" xlink:title="PID制御を行うクラス">
<polygon fill="white" stroke="#666666" points="117,-19 0,-19 0,0 117,0 117,-19"/>
<text text-anchor="middle" x="58.5" y="-7" font-family="Helvetica,sans-Serif" font-size="10.00">roblab::common::Pid</text>
</a>
</g>
</g>
<!-- Node2&#45;&gt;Node1 -->
<g id="edge2" class="edge">
<title>Node2&#45;&gt;Node1</title>
<path fill="none" stroke="#63b8ff" d="M127.05,-17.42C135.62,-18.43 144.34,-19.45 152.78,-20.44"/>
<polygon fill="#63b8ff" stroke="#63b8ff" points="127.43,-13.94 117.09,-16.25 126.62,-20.89 127.43,-13.94"/>
</g>
</g>
</svg>
