<?xml version="1.0" encoding="UTF-8" standalone="no"?>
<!DOCTYPE svg PUBLIC "-//W3C//DTD SVG 1.1//EN"
 "http://www.w3.org/Graphics/SVG/1.1/DTD/svg11.dtd">
<!-- Generated by graphviz version 2.43.0 (0)
 -->
<!-- Title: クラス階層図 Pages: 1 -->
<svg width="325pt" height="86pt"
 viewBox="0.00 0.00 325.00 86.00" xmlns="http://www.w3.org/2000/svg" xmlns:xlink="http://www.w3.org/1999/xlink">
<g id="graph0" class="graph" transform="scale(1 1) rotate(0) translate(4 82)">
<title>クラス階層図</title>
<!-- Node0 -->
<g id="node1" class="node">
<title>Node0</title>
<g id="a_node1"><a xlink:href="classroblab_1_1common_1_1gpio_1_1_i_attach_interrupt.html" target="_top" xlink:title=" ">
<polygon fill="white" stroke="#666666" points="173,-78 0,-78 0,-48 173,-48 173,-78"/>
<text text-anchor="start" x="8" y="-66" font-family="Helvetica,sans-Serif" font-size="10.00">roblab::common::gpio</text>
<text text-anchor="middle" x="86.5" y="-55" font-family="Helvetica,sans-Serif" font-size="10.00">::IAttachInterrupt&lt; InterruptIn &gt;</text>
</a>
</g>
</g>
<!-- Node1 -->
<g id="node2" class="node">
<title>Node1</title>
<g id="a_node2"><a xlink:href="classroblab_1_1mbed_1_1gpio_1_1_interrupt_in.html" target="_top" xlink:title="割り込み入力ピン">
<polygon fill="white" stroke="#666666" points="317,-54 209,-54 209,-24 317,-24 317,-54"/>
<text text-anchor="start" x="217" y="-42" font-family="Helvetica,sans-Serif" font-size="10.00">roblab::mbed::gpio</text>
<text text-anchor="middle" x="263" y="-31" font-family="Helvetica,sans-Serif" font-size="10.00">::InterruptIn</text>
</a>
</g>
</g>
<!-- Node0&#45;&gt;Node1 -->
<g id="edge1" class="edge">
<title>Node0&#45;&gt;Node1</title>
<path fill="none" stroke="#63b8ff" d="M183.39,-49.81C192.02,-48.62 200.55,-47.45 208.61,-46.34"/>
<polygon fill="#63b8ff" stroke="#63b8ff" points="182.65,-46.38 173.22,-51.21 183.6,-53.32 182.65,-46.38"/>
</g>
<!-- Node2 -->
<g id="node3" class="node">
<title>Node2</title>
<g id="a_node3"><a xlink:href="classroblab_1_1common_1_1gpio_1_1_i_digital_read.html" target="_top" xlink:title=" ">
<polygon fill="white" stroke="#666666" points="164.5,-30 8.5,-30 8.5,0 164.5,0 164.5,-30"/>
<text text-anchor="start" x="16.5" y="-18" font-family="Helvetica,sans-Serif" font-size="10.00">roblab::common::gpio</text>
<text text-anchor="middle" x="86.5" y="-7" font-family="Helvetica,sans-Serif" font-size="10.00">::IDigitalRead&lt; InterruptIn &gt;</text>
</a>
</g>
</g>
<!-- Node2&#45;&gt;Node1 -->
<g id="edge2" class="edge">
<title>Node2&#45;&gt;Node1</title>
<path fill="none" stroke="#63b8ff" d="M174.77,-27C186.42,-28.6 198.07,-30.21 208.89,-31.7"/>
<polygon fill="#63b8ff" stroke="#63b8ff" points="174.93,-23.49 164.55,-25.6 173.98,-30.43 174.93,-23.49"/>
</g>
</g>
</svg>
