<?xml version="1.0" encoding="UTF-8" standalone="no"?>
<!DOCTYPE svg PUBLIC "-//W3C//DTD SVG 1.1//EN"
 "http://www.w3.org/Graphics/SVG/1.1/DTD/svg11.dtd">
<!-- Generated by graphviz version 2.43.0 (0)
 -->
<!-- Title: クラス階層図 Pages: 1 -->
<svg width="527pt" height="270pt"
 viewBox="0.00 0.00 527.00 269.50" xmlns="http://www.w3.org/2000/svg" xmlns:xlink="http://www.w3.org/1999/xlink">
<g id="graph0" class="graph" transform="scale(1 1) rotate(0) translate(4 265.5)">
<title>クラス階層図</title>
<polygon fill="white" stroke="transparent" points="-4,4 -4,-265.5 523,-265.5 523,4 -4,4"/>
<!-- Node0 -->
<g id="node1" class="node">
<title>Node0</title>
<g id="a_node1"><a xlink:href="classalps_1_1cmn_1_1actuator_1_1_i_motor.html" target="_top" xlink:title=" ">
<polygon fill="white" stroke="black" points="185,-231 185,-261 344,-261 344,-231 185,-231"/>
<text text-anchor="start" x="193" y="-249" font-family="Helvetica,sans-Serif" font-size="10.00">alps::cmn::actuator</text>
<text text-anchor="middle" x="264.5" y="-238" font-family="Helvetica,sans-Serif" font-size="10.00">::IMotor&lt; M2006&lt; Clock &gt; &gt;</text>
</a>
</g>
</g>
<!-- Node1 -->
<g id="node2" class="node">
<title>Node1</title>
<g id="a_node2"><a xlink:href="classalps_1_1cmn_1_1actuator_1_1robomas__motor_1_1_m2006.html" target="_top" xlink:title="M2006のクラス">
<polygon fill="white" stroke="black" points="380,-170.5 380,-211.5 519,-211.5 519,-170.5 380,-170.5"/>
<text text-anchor="start" x="388" y="-199.5" font-family="Helvetica,sans-Serif" font-size="10.00">alps::cmn::actuator</text>
<text text-anchor="start" x="388" y="-188.5" font-family="Helvetica,sans-Serif" font-size="10.00">::robomas_motor::M2006</text>
<text text-anchor="middle" x="449.5" y="-177.5" font-family="Helvetica,sans-Serif" font-size="10.00">&lt; Clock &gt;</text>
</a>
</g>
</g>
<!-- Node0&#45;&gt;Node1 -->
<g id="edge1" class="edge">
<title>Node0&#45;&gt;Node1</title>
<path fill="none" stroke="midnightblue" d="M325.54,-227.95C342.97,-222.72 362.13,-216.96 380.03,-211.58"/>
<polygon fill="midnightblue" stroke="midnightblue" points="324.07,-224.74 315.51,-230.97 326.09,-231.44 324.07,-224.74"/>
</g>
<!-- Node65 -->
<g id="node3" class="node">
<title>Node65</title>
<g id="a_node3"><a xlink:href="classalps_1_1cmn_1_1actuator_1_1_i_motor.html" target="_top" xlink:title=" ">
<polygon fill="white" stroke="black" points="185,-61 185,-91 344,-91 344,-61 185,-61"/>
<text text-anchor="start" x="193" y="-79" font-family="Helvetica,sans-Serif" font-size="10.00">alps::cmn::actuator</text>
<text text-anchor="middle" x="264.5" y="-68" font-family="Helvetica,sans-Serif" font-size="10.00">::IMotor&lt; M3508&lt; Clock &gt; &gt;</text>
</a>
</g>
</g>
<!-- Node66 -->
<g id="node4" class="node">
<title>Node66</title>
<g id="a_node4"><a xlink:href="classalps_1_1cmn_1_1actuator_1_1robomas__motor_1_1_m3508.html" target="_top" xlink:title="M3508のクラス">
<polygon fill="white" stroke="black" points="380,-55.5 380,-96.5 519,-96.5 519,-55.5 380,-55.5"/>
<text text-anchor="start" x="388" y="-84.5" font-family="Helvetica,sans-Serif" font-size="10.00">alps::cmn::actuator</text>
<text text-anchor="start" x="388" y="-73.5" font-family="Helvetica,sans-Serif" font-size="10.00">::robomas_motor::M3508</text>
<text text-anchor="middle" x="449.5" y="-62.5" font-family="Helvetica,sans-Serif" font-size="10.00">&lt; Clock &gt;</text>
</a>
</g>
</g>
<!-- Node65&#45;&gt;Node66 -->
<g id="edge2" class="edge">
<title>Node65&#45;&gt;Node66</title>
<path fill="none" stroke="midnightblue" d="M354.28,-76C362.91,-76 371.58,-76 379.98,-76"/>
<polygon fill="midnightblue" stroke="midnightblue" points="354.17,-72.5 344.17,-76 354.17,-79.5 354.17,-72.5"/>
</g>
<!-- Node68 -->
<g id="node5" class="node">
<title>Node68</title>
<g id="a_node5"><a xlink:href="classalps_1_1cmn_1_1actuator_1_1_i_motor.html" target="_top" xlink:title=" ">
<polygon fill="white" stroke="black" points="15.5,-140.5 15.5,-181.5 133.5,-181.5 133.5,-140.5 15.5,-140.5"/>
<text text-anchor="start" x="23.5" y="-169.5" font-family="Helvetica,sans-Serif" font-size="10.00">alps::cmn::actuator</text>
<text text-anchor="start" x="23.5" y="-158.5" font-family="Helvetica,sans-Serif" font-size="10.00">::IMotor&lt; MotorBase</text>
<text text-anchor="middle" x="74.5" y="-147.5" font-family="Helvetica,sans-Serif" font-size="10.00">&lt; Clock &gt; &gt;</text>
</a>
</g>
</g>
<!-- Node69 -->
<g id="node6" class="node">
<title>Node69</title>
<g id="a_node6"><a xlink:href="classalps_1_1cmn_1_1actuator_1_1robomas__motor_1_1detail_1_1_motor_base.html" target="_top" xlink:title="ロボマスモータの基底クラス．">
<polygon fill="white" stroke="black" points="197.5,-110.5 197.5,-151.5 331.5,-151.5 331.5,-110.5 197.5,-110.5"/>
<text text-anchor="start" x="205.5" y="-139.5" font-family="Helvetica,sans-Serif" font-size="10.00">alps::cmn::actuator</text>
<text text-anchor="start" x="205.5" y="-128.5" font-family="Helvetica,sans-Serif" font-size="10.00">::robomas_motor::detail</text>
<text text-anchor="middle" x="264.5" y="-117.5" font-family="Helvetica,sans-Serif" font-size="10.00">::MotorBase&lt; Clock &gt;</text>
</a>
</g>
</g>
<!-- Node68&#45;&gt;Node69 -->
<g id="edge3" class="edge">
<title>Node68&#45;&gt;Node69</title>
<path fill="none" stroke="midnightblue" d="M143.81,-150.1C161.27,-147.31 180.02,-144.32 197.37,-141.55"/>
<polygon fill="midnightblue" stroke="midnightblue" points="143.02,-146.68 133.7,-151.71 144.12,-153.59 143.02,-146.68"/>
</g>
<!-- Node69&#45;&gt;Node1 -->
<g id="edge4" class="edge">
<title>Node69&#45;&gt;Node1</title>
<path fill="none" stroke="midnightblue" d="M337.96,-154.76C353.8,-159.95 370.44,-165.41 385.86,-170.46"/>
<polygon fill="midnightblue" stroke="midnightblue" points="338.81,-151.35 328.22,-151.56 336.63,-158.01 338.81,-151.35"/>
</g>
<!-- Node69&#45;&gt;Node66 -->
<g id="edge5" class="edge">
<title>Node69&#45;&gt;Node66</title>
<path fill="none" stroke="midnightblue" d="M341.29,-108.22C354.14,-104.36 367.42,-100.37 380.06,-96.57"/>
<polygon fill="midnightblue" stroke="midnightblue" points="340.14,-104.91 331.57,-111.14 342.15,-111.62 340.14,-104.91"/>
</g>
<!-- Node79 -->
<g id="node7" class="node">
<title>Node79</title>
<g id="a_node7"><a xlink:href="classalps_1_1cmn_1_1sensor_1_1_i_rotary_sensor.html" target="_top" xlink:title=" ">
<polygon fill="white" stroke="black" points="200,-170.5 200,-211.5 329,-211.5 329,-170.5 200,-170.5"/>
<text text-anchor="start" x="208" y="-199.5" font-family="Helvetica,sans-Serif" font-size="10.00">alps::cmn::sensor::</text>
<text text-anchor="start" x="208" y="-188.5" font-family="Helvetica,sans-Serif" font-size="10.00">IRotarySensor&lt; M2006</text>
<text text-anchor="middle" x="264.5" y="-177.5" font-family="Helvetica,sans-Serif" font-size="10.00">&lt; Clock &gt; &gt;</text>
</a>
</g>
</g>
<!-- Node79&#45;&gt;Node1 -->
<g id="edge6" class="edge">
<title>Node79&#45;&gt;Node1</title>
<path fill="none" stroke="midnightblue" d="M339.38,-191C352.8,-191 366.74,-191 380,-191"/>
<polygon fill="midnightblue" stroke="midnightblue" points="339.25,-187.5 329.25,-191 339.25,-194.5 339.25,-187.5"/>
</g>
<!-- Node80 -->
<g id="node8" class="node">
<title>Node80</title>
<g id="a_node8"><a xlink:href="classalps_1_1cmn_1_1sensor_1_1_i_rotary_sensor.html" target="_top" xlink:title=" ">
<polygon fill="white" stroke="black" points="200,-0.5 200,-41.5 329,-41.5 329,-0.5 200,-0.5"/>
<text text-anchor="start" x="208" y="-29.5" font-family="Helvetica,sans-Serif" font-size="10.00">alps::cmn::sensor::</text>
<text text-anchor="start" x="208" y="-18.5" font-family="Helvetica,sans-Serif" font-size="10.00">IRotarySensor&lt; M3508</text>
<text text-anchor="middle" x="264.5" y="-7.5" font-family="Helvetica,sans-Serif" font-size="10.00">&lt; Clock &gt; &gt;</text>
</a>
</g>
</g>
<!-- Node80&#45;&gt;Node66 -->
<g id="edge7" class="edge">
<title>Node80&#45;&gt;Node66</title>
<path fill="none" stroke="midnightblue" d="M338.99,-43.09C352.53,-47.16 366.61,-51.39 380,-55.41"/>
<polygon fill="midnightblue" stroke="midnightblue" points="339.83,-39.69 329.25,-40.16 337.82,-46.39 339.83,-39.69"/>
</g>
<!-- Node81 -->
<g id="node9" class="node">
<title>Node81</title>
<g id="a_node9"><a xlink:href="classalps_1_1cmn_1_1sensor_1_1_i_rotary_sensor.html" target="_top" xlink:title=" ">
<polygon fill="white" stroke="black" points="0,-80.5 0,-121.5 149,-121.5 149,-80.5 0,-80.5"/>
<text text-anchor="start" x="8" y="-109.5" font-family="Helvetica,sans-Serif" font-size="10.00">alps::cmn::sensor::</text>
<text text-anchor="start" x="8" y="-98.5" font-family="Helvetica,sans-Serif" font-size="10.00">IRotarySensor&lt; MotorBase</text>
<text text-anchor="middle" x="74.5" y="-87.5" font-family="Helvetica,sans-Serif" font-size="10.00">&lt; Clock &gt; &gt;</text>
</a>
</g>
</g>
<!-- Node81&#45;&gt;Node69 -->
<g id="edge8" class="edge">
<title>Node81&#45;&gt;Node69</title>
<path fill="none" stroke="midnightblue" d="M159.38,-114.38C172.08,-116.41 185.03,-118.48 197.29,-120.43"/>
<polygon fill="midnightblue" stroke="midnightblue" points="159.69,-110.89 149.26,-112.77 158.59,-117.8 159.69,-110.89"/>
</g>
</g>
</svg>
