<?xml version="1.0" encoding="UTF-8" standalone="no"?>
<!DOCTYPE svg PUBLIC "-//W3C//DTD SVG 1.1//EN"
 "http://www.w3.org/Graphics/SVG/1.1/DTD/svg11.dtd">
<!-- Generated by graphviz version 2.43.0 (0)
 -->
<!-- Title: クラス階層図 Pages: 1 -->
<svg width="329pt" height="88pt"
 viewBox="0.00 0.00 329.00 88.00" xmlns="http://www.w3.org/2000/svg" xmlns:xlink="http://www.w3.org/1999/xlink">
<g id="graph0" class="graph" transform="scale(1 1) rotate(0) translate(4 84)">
<title>クラス階層図</title>
<polygon fill="white" stroke="transparent" points="-4,4 -4,-84 325,-84 325,4 -4,4"/>
<!-- Node0 -->
<g id="node1" class="node">
<title>Node0</title>
<g id="a_node1"><a xlink:href="classalps_1_1ros2_1_1util_1_1detail_1_1_typed_param_base.html" target="_top" xlink:title="型付きパラメーターの基底クラス">
<polygon fill="white" stroke="black" points="0,-24.5 0,-54.5 134,-54.5 134,-24.5 0,-24.5"/>
<text text-anchor="start" x="8" y="-42.5" font-family="Helvetica,sans-Serif" font-size="10.00">alps::ros2::util::detail</text>
<text text-anchor="middle" x="67" y="-31.5" font-family="Helvetica,sans-Serif" font-size="10.00">::TypedParamBase&lt; T &gt;</text>
</a>
</g>
</g>
<!-- Node1 -->
<g id="node2" class="node">
<title>Node1</title>
<g id="a_node2"><a xlink:href="classalps_1_1ros2_1_1util_1_1_typed_param_client.html" target="_top" xlink:title="型付きパラメーターのクライアント">
<polygon fill="white" stroke="black" points="170,-49.5 170,-79.5 321,-79.5 321,-49.5 170,-49.5"/>
<text text-anchor="start" x="178" y="-67.5" font-family="Helvetica,sans-Serif" font-size="10.00">alps::ros2::util::TypedParam</text>
<text text-anchor="middle" x="245.5" y="-56.5" font-family="Helvetica,sans-Serif" font-size="10.00">Client&lt; T &gt;</text>
</a>
</g>
</g>
<!-- Node0&#45;&gt;Node1 -->
<g id="edge1" class="edge">
<title>Node0&#45;&gt;Node1</title>
<path fill="none" stroke="midnightblue" d="M144.16,-50.29C152.69,-51.5 161.38,-52.73 169.9,-53.93"/>
<polygon fill="midnightblue" stroke="midnightblue" points="144.62,-46.82 134.22,-48.88 143.63,-53.75 144.62,-46.82"/>
</g>
<!-- Node2 -->
<g id="node3" class="node">
<title>Node2</title>
<g id="a_node3"><a xlink:href="classalps_1_1ros2_1_1util_1_1_typed_param_server.html" target="_top" xlink:title="型付きパラメーターのサーバー">
<polygon fill="white" stroke="black" points="170,-0.5 170,-30.5 321,-30.5 321,-0.5 170,-0.5"/>
<text text-anchor="start" x="178" y="-18.5" font-family="Helvetica,sans-Serif" font-size="10.00">alps::ros2::util::TypedParam</text>
<text text-anchor="middle" x="245.5" y="-7.5" font-family="Helvetica,sans-Serif" font-size="10.00">Server&lt; T &gt;</text>
</a>
</g>
</g>
<!-- Node0&#45;&gt;Node2 -->
<g id="edge2" class="edge">
<title>Node0&#45;&gt;Node2</title>
<path fill="none" stroke="midnightblue" d="M144.16,-29.14C152.69,-27.98 161.38,-26.8 169.9,-25.64"/>
<polygon fill="midnightblue" stroke="midnightblue" points="143.66,-25.68 134.22,-30.5 144.6,-32.62 143.66,-25.68"/>
</g>
</g>
</svg>
