<?xml version="1.0" encoding="UTF-8" standalone="no"?>
<!DOCTYPE svg PUBLIC "-//W3C//DTD SVG 1.1//EN"
 "http://www.w3.org/Graphics/SVG/1.1/DTD/svg11.dtd">
<!-- Generated by graphviz version 2.43.0 (0)
 -->
<!-- Title: クラス階層図 Pages: 1 -->
<svg width="362pt" height="64pt"
 viewBox="0.00 0.00 362.00 64.00" xmlns="http://www.w3.org/2000/svg" xmlns:xlink="http://www.w3.org/1999/xlink">
<g id="graph0" class="graph" transform="scale(1 1) rotate(0) translate(4 60)">
<title>クラス階層図</title>
<!-- Node0 -->
<g id="node1" class="node">
<title>Node0</title>
<g id="a_node1"><a xlink:href="classroblab_1_1common_1_1control_1_1_lpf.html" target="_top" xlink:title="ローパスフィルタのクラス">
<polygon fill="white" stroke="#666666" points="157,-56 0,-56 0,-37 157,-37 157,-56"/>
<text text-anchor="middle" x="78.5" y="-44" font-family="Helvetica,sans-Serif" font-size="10.00">roblab::common::control::Lpf</text>
</a>
</g>
</g>
<!-- Node1 -->
<g id="node2" class="node">
<title>Node1</title>
<g id="a_node2"><a xlink:href="classroblab_1_1common_1_1control_1_1_dob.html" target="_top" xlink:title="外乱オブザーバー">
<polygon fill="white" stroke="#666666" points="354,-37 193,-37 193,-18 354,-18 354,-37"/>
<text text-anchor="middle" x="273.5" y="-25" font-family="Helvetica,sans-Serif" font-size="10.00">roblab::common::control::Dob</text>
</a>
</g>
</g>
<!-- Node0&#45;&gt;Node1 -->
<g id="edge1" class="edge">
<title>Node0&#45;&gt;Node1</title>
<path fill="none" stroke="#63b8ff" d="M167.14,-37.87C175.69,-37.03 184.33,-36.18 192.79,-35.35"/>
<polygon fill="#63b8ff" stroke="#63b8ff" points="166.78,-34.39 157.17,-38.85 167.46,-41.36 166.78,-34.39"/>
</g>
<!-- Node2 -->
<g id="node3" class="node">
<title>Node2</title>
<g id="a_node3"><a xlink:href="classroblab_1_1common_1_1control_1_1_pid.html" target="_top" xlink:title="PID制御を行うクラス">
<polygon fill="white" stroke="#666666" points="157,-19 0,-19 0,0 157,0 157,-19"/>
<text text-anchor="middle" x="78.5" y="-7" font-family="Helvetica,sans-Serif" font-size="10.00">roblab::common::control::Pid</text>
</a>
</g>
</g>
<!-- Node2&#45;&gt;Node1 -->
<g id="edge2" class="edge">
<title>Node2&#45;&gt;Node1</title>
<path fill="none" stroke="#63b8ff" d="M167.14,-17.67C175.69,-18.47 184.33,-19.28 192.79,-20.07"/>
<polygon fill="#63b8ff" stroke="#63b8ff" points="167.45,-14.19 157.17,-16.74 166.8,-21.16 167.45,-14.19"/>
</g>
</g>
</svg>
