<?xml version="1.0" encoding="UTF-8" standalone="no"?>
<!DOCTYPE svg PUBLIC "-//W3C//DTD SVG 1.1//EN"
 "http://www.w3.org/Graphics/SVG/1.1/DTD/svg11.dtd">
<!-- Generated by graphviz version 2.43.0 (0)
 -->
<!-- Title: alps_common_lib/include/alps_cmn/control/integrator.hpp Pages: 1 -->
<svg width="498pt" height="273pt"
 viewBox="0.00 0.00 498.00 273.00" xmlns="http://www.w3.org/2000/svg" xmlns:xlink="http://www.w3.org/1999/xlink">
<g id="graph0" class="graph" transform="scale(1 1) rotate(0) translate(4 269)">
<title>alps_common_lib/include/alps_cmn/control/integrator.hpp</title>
<polygon fill="white" stroke="transparent" points="-4,4 -4,-269 494,-269 494,4 -4,4"/>
<!-- Node1 -->
<g id="node1" class="node">
<title>Node1</title>
<g id="a_node1"><a xlink:title="積分器ライブラリ">
<polygon fill="#bfbfbf" stroke="black" points="220,-234.5 220,-264.5 394,-264.5 394,-234.5 220,-234.5"/>
<text text-anchor="start" x="228" y="-252.5" font-family="Helvetica,sans-Serif" font-size="10.00">alps_common_lib/include</text>
<text text-anchor="middle" x="307" y="-241.5" font-family="Helvetica,sans-Serif" font-size="10.00">/alps_cmn/control/integrator.hpp</text>
</a>
</g>
</g>
<!-- Node2 -->
<g id="node2" class="node">
<title>Node2</title>
<g id="a_node2"><a xlink:href="pid_8hpp.html" target="_top" xlink:title=" ">
<polygon fill="white" stroke="black" points="146,-167.5 146,-197.5 288,-197.5 288,-167.5 146,-167.5"/>
<text text-anchor="start" x="154" y="-185.5" font-family="Helvetica,sans-Serif" font-size="10.00">alps_common_lib/include</text>
<text text-anchor="middle" x="217" y="-174.5" font-family="Helvetica,sans-Serif" font-size="10.00">/alps_cmn/control/pid.hpp</text>
</a>
</g>
</g>
<!-- Node1&#45;&gt;Node2 -->
<g id="edge1" class="edge">
<title>Node1&#45;&gt;Node2</title>
<path fill="none" stroke="midnightblue" d="M279.24,-228.45C265.39,-218.45 248.98,-206.6 236.49,-197.58"/>
<polygon fill="midnightblue" stroke="midnightblue" points="277.32,-231.38 287.47,-234.4 281.41,-225.7 277.32,-231.38"/>
</g>
<!-- Node8 -->
<g id="node8" class="node">
<title>Node8</title>
<g id="a_node8"><a xlink:href="odometory_8hpp.html" target="_top" xlink:title="オドメトリ計算クラス">
<polygon fill="white" stroke="black" points="306,-167.5 306,-197.5 490,-197.5 490,-167.5 306,-167.5"/>
<text text-anchor="start" x="314" y="-185.5" font-family="Helvetica,sans-Serif" font-size="10.00">alps_common_lib/include</text>
<text text-anchor="middle" x="398" y="-174.5" font-family="Helvetica,sans-Serif" font-size="10.00">/alps_cmn/robotics/odometory.hpp</text>
</a>
</g>
</g>
<!-- Node1&#45;&gt;Node8 -->
<g id="edge10" class="edge">
<title>Node1&#45;&gt;Node8</title>
<path fill="none" stroke="midnightblue" d="M335.07,-228.45C349.07,-218.45 365.66,-206.6 378.29,-197.58"/>
<polygon fill="midnightblue" stroke="midnightblue" points="332.85,-225.74 326.75,-234.4 336.92,-231.43 332.85,-225.74"/>
</g>
<!-- Node3 -->
<g id="node3" class="node">
<title>Node3</title>
<g id="a_node3"><a xlink:href="motor__angle__controller_8hpp.html" target="_top" xlink:title=" ">
<polygon fill="white" stroke="black" points="0,-89.5 0,-130.5 140,-130.5 140,-89.5 0,-89.5"/>
<text text-anchor="start" x="8" y="-118.5" font-family="Helvetica,sans-Serif" font-size="10.00">alps_common_lib/include</text>
<text text-anchor="start" x="8" y="-107.5" font-family="Helvetica,sans-Serif" font-size="10.00">/alps_cmn/control/motor</text>
<text text-anchor="middle" x="70" y="-96.5" font-family="Helvetica,sans-Serif" font-size="10.00">_angle_controller.hpp</text>
</a>
</g>
</g>
<!-- Node2&#45;&gt;Node3 -->
<g id="edge2" class="edge">
<title>Node2&#45;&gt;Node3</title>
<path fill="none" stroke="midnightblue" d="M178.42,-163C157.59,-153.01 131.9,-140.69 110.76,-130.55"/>
<polygon fill="midnightblue" stroke="midnightblue" points="177.08,-166.23 187.61,-167.4 180.1,-159.92 177.08,-166.23"/>
</g>
<!-- Node4 -->
<g id="node4" class="node">
<title>Node4</title>
<g id="a_node4"><a xlink:href="motor__angle__velocity__controller_8hpp.html" target="_top" xlink:title=" ">
<polygon fill="white" stroke="black" points="2.5,-6 2.5,-47 167.5,-47 167.5,-6 2.5,-6"/>
<text text-anchor="start" x="10.5" y="-35" font-family="Helvetica,sans-Serif" font-size="10.00">alps_common_lib/include</text>
<text text-anchor="start" x="10.5" y="-24" font-family="Helvetica,sans-Serif" font-size="10.00">/alps_cmn/control/motor</text>
<text text-anchor="middle" x="85" y="-13" font-family="Helvetica,sans-Serif" font-size="10.00">_angle_velocity_controller.hpp</text>
</a>
</g>
</g>
<!-- Node2&#45;&gt;Node4 -->
<g id="edge4" class="edge">
<title>Node2&#45;&gt;Node4</title>
<path fill="none" stroke="midnightblue" d="M202.1,-159.03C188.95,-139.78 168.85,-111.65 149,-89 136,-74.17 120,-58.79 107.25,-47.12"/>
<polygon fill="midnightblue" stroke="midnightblue" points="199.29,-161.13 207.79,-167.46 205.09,-157.21 199.29,-161.13"/>
</g>
<!-- Node5 -->
<g id="node5" class="node">
<title>Node5</title>
<g id="a_node5"><a xlink:href="motor__velocity__controller_8hpp.html" target="_top" xlink:title=" ">
<polygon fill="white" stroke="black" points="196,-89.5 196,-130.5 336,-130.5 336,-89.5 196,-89.5"/>
<text text-anchor="start" x="204" y="-118.5" font-family="Helvetica,sans-Serif" font-size="10.00">alps_common_lib/include</text>
<text text-anchor="start" x="204" y="-107.5" font-family="Helvetica,sans-Serif" font-size="10.00">/alps_cmn/control/motor</text>
<text text-anchor="middle" x="266" y="-96.5" font-family="Helvetica,sans-Serif" font-size="10.00">_velocity_controller.hpp</text>
</a>
</g>
</g>
<!-- Node2&#45;&gt;Node5 -->
<g id="edge5" class="edge">
<title>Node2&#45;&gt;Node5</title>
<path fill="none" stroke="midnightblue" d="M232.65,-158.98C239,-149.85 246.26,-139.4 252.39,-130.59"/>
<polygon fill="midnightblue" stroke="midnightblue" points="229.75,-157.02 226.92,-167.23 235.5,-161.02 229.75,-157.02"/>
</g>
<!-- Node6 -->
<g id="node6" class="node">
<title>Node6</title>
<g id="a_node6"><a xlink:href="custom__type__param__conversion__rule_8hpp.html" target="_top" xlink:title=" ">
<polygon fill="white" stroke="black" points="334.5,-0.5 334.5,-52.5 473.5,-52.5 473.5,-0.5 334.5,-0.5"/>
<text text-anchor="start" x="342.5" y="-40.5" font-family="Helvetica,sans-Serif" font-size="10.00">alps_ros2_lib/include</text>
<text text-anchor="start" x="342.5" y="-29.5" font-family="Helvetica,sans-Serif" font-size="10.00">/alps_ros2/type/custom</text>
<text text-anchor="start" x="342.5" y="-18.5" font-family="Helvetica,sans-Serif" font-size="10.00">_type_param_conversion</text>
<text text-anchor="middle" x="404" y="-7.5" font-family="Helvetica,sans-Serif" font-size="10.00">_rule.hpp</text>
</a>
</g>
</g>
<!-- Node2&#45;&gt;Node6 -->
<g id="edge9" class="edge">
<title>Node2&#45;&gt;Node6</title>
<path fill="none" stroke="midnightblue" d="M285.46,-164.12C306.23,-156.45 328.02,-145.72 345,-131 369.38,-109.86 385.96,-76.05 395.19,-52.87"/>
<polygon fill="midnightblue" stroke="midnightblue" points="284.28,-160.82 276.01,-167.43 286.6,-167.43 284.28,-160.82"/>
</g>
<!-- Node3&#45;&gt;Node4 -->
<g id="edge3" class="edge">
<title>Node3&#45;&gt;Node4</title>
<path fill="none" stroke="midnightblue" d="M75.45,-79.4C77.43,-68.63 79.62,-56.73 81.4,-47.05"/>
<polygon fill="midnightblue" stroke="midnightblue" points="72,-78.8 73.63,-89.27 78.88,-80.07 72,-78.8"/>
</g>
<!-- Node5&#45;&gt;Node4 -->
<g id="edge6" class="edge">
<title>Node5&#45;&gt;Node4</title>
<path fill="none" stroke="midnightblue" d="M213.34,-85.29C186.34,-73.13 153.85,-58.5 128.31,-47"/>
<polygon fill="midnightblue" stroke="midnightblue" points="212.09,-88.56 222.65,-89.48 214.96,-82.18 212.09,-88.56"/>
</g>
<!-- Node5&#45;&gt;Node6 -->
<g id="edge7" class="edge">
<title>Node5&#45;&gt;Node6</title>
<path fill="none" stroke="midnightblue" d="M307.7,-84.38C324.73,-74.31 344.42,-62.69 361.54,-52.58"/>
<polygon fill="midnightblue" stroke="midnightblue" points="305.89,-81.38 299.05,-89.48 309.44,-87.41 305.89,-81.38"/>
</g>
<!-- Node7 -->
<g id="node7" class="node">
<title>Node7</title>
<g id="a_node7"><a xlink:href="custom__type__topic__conversion__rule_8hpp.html" target="_top" xlink:title=" ">
<polygon fill="white" stroke="black" points="185.5,-0.5 185.5,-52.5 316.5,-52.5 316.5,-0.5 185.5,-0.5"/>
<text text-anchor="start" x="193.5" y="-40.5" font-family="Helvetica,sans-Serif" font-size="10.00">alps_ros2_lib/include</text>
<text text-anchor="start" x="193.5" y="-29.5" font-family="Helvetica,sans-Serif" font-size="10.00">/alps_ros2/type/custom</text>
<text text-anchor="start" x="193.5" y="-18.5" font-family="Helvetica,sans-Serif" font-size="10.00">_type_topic_conversion</text>
<text text-anchor="middle" x="251" y="-7.5" font-family="Helvetica,sans-Serif" font-size="10.00">_rule.hpp</text>
</a>
</g>
</g>
<!-- Node5&#45;&gt;Node7 -->
<g id="edge8" class="edge">
<title>Node5&#45;&gt;Node7</title>
<path fill="none" stroke="midnightblue" d="M260.55,-79.41C258.94,-70.62 257.18,-61.08 255.62,-52.61"/>
<polygon fill="midnightblue" stroke="midnightblue" points="257.12,-80.07 262.37,-89.27 264,-78.8 257.12,-80.07"/>
</g>
</g>
</svg>
