<?xml version="1.0" encoding="UTF-8" standalone="no"?>
<!DOCTYPE svg PUBLIC "-//W3C//DTD SVG 1.1//EN"
 "http://www.w3.org/Graphics/SVG/1.1/DTD/svg11.dtd">
<!-- Generated by graphviz version 2.43.0 (0)
 -->
<!-- Title: alps_core/lib_internal/alps_common_lib/include/alps_cmn/control/integrator.hpp Pages: 1 -->
<svg width="379pt" height="302pt"
 viewBox="0.00 0.00 378.50 302.00" xmlns="http://www.w3.org/2000/svg" xmlns:xlink="http://www.w3.org/1999/xlink">
<g id="graph0" class="graph" transform="scale(1 1) rotate(0) translate(4 298)">
<title>alps_core/lib_internal/alps_common_lib/include/alps_cmn/control/integrator.hpp</title>
<!-- Node1 -->
<g id="Node000001" class="node">
<title>Node1</title>
<g id="a_Node000001"><a xlink:title="積分器ライブラリ">
<polygon fill="#999999" stroke="#666666" points="284.5,-294 110.5,-294 110.5,-253 284.5,-253 284.5,-294"/>
<text text-anchor="start" x="118.5" y="-282" font-family="Helvetica,sans-Serif" font-size="10.00">alps_core/lib_internal</text>
<text text-anchor="start" x="118.5" y="-271" font-family="Helvetica,sans-Serif" font-size="10.00">/alps_common_lib/include</text>
<text text-anchor="middle" x="197.5" y="-260" font-family="Helvetica,sans-Serif" font-size="10.00">/alps_cmn/control/integrator.hpp</text>
</a>
</g>
</g>
<!-- Node2 -->
<g id="Node000002" class="node">
<title>Node2</title>
<g id="a_Node000002"><a xlink:href="pid_8hpp.html" target="_top" xlink:title=" ">
<polygon fill="white" stroke="#666666" points="182,-217 39,-217 39,-176 182,-176 182,-217"/>
<text text-anchor="start" x="47" y="-205" font-family="Helvetica,sans-Serif" font-size="10.00">alps_core/lib_internal</text>
<text text-anchor="start" x="47" y="-194" font-family="Helvetica,sans-Serif" font-size="10.00">/alps_common_lib/include</text>
<text text-anchor="middle" x="110.5" y="-183" font-family="Helvetica,sans-Serif" font-size="10.00">/alps_cmn/control/pid.hpp</text>
</a>
</g>
</g>
<!-- Node1&#45;&gt;Node2 -->
<g id="edge1_Node000001_Node000002" class="edge">
<title>Node1&#45;&gt;Node2</title>
<g id="a_edge1_Node000001_Node000002"><a xlink:title=" ">
<path fill="none" stroke="#63b8ff" d="M166.84,-246.07C155.77,-236.52 143.48,-225.93 133.21,-217.07"/>
<polygon fill="#63b8ff" stroke="#63b8ff" points="164.78,-248.92 174.64,-252.79 169.35,-243.61 164.78,-248.92"/>
</a>
</g>
</g>
<!-- Node7 -->
<g id="Node000007" class="node">
<title>Node7</title>
<g id="a_Node000007"><a xlink:href="odometory_8hpp.html" target="_top" xlink:title="オドメトリ計算クラス">
<polygon fill="white" stroke="#666666" points="370.5,-217 200.5,-217 200.5,-176 370.5,-176 370.5,-217"/>
<text text-anchor="start" x="208.5" y="-205" font-family="Helvetica,sans-Serif" font-size="10.00">alps_core/lib_internal</text>
<text text-anchor="start" x="208.5" y="-194" font-family="Helvetica,sans-Serif" font-size="10.00">/alps_common_lib/include</text>
<text text-anchor="middle" x="285.5" y="-183" font-family="Helvetica,sans-Serif" font-size="10.00">/alps_cmn/robot/odometory.hpp</text>
</a>
</g>
</g>
<!-- Node1&#45;&gt;Node7 -->
<g id="edge9_Node000001_Node000007" class="edge">
<title>Node1&#45;&gt;Node7</title>
<g id="a_edge9_Node000001_Node000007"><a xlink:title=" ">
<path fill="none" stroke="#63b8ff" d="M228.51,-246.07C239.71,-236.52 252.15,-225.93 262.53,-217.07"/>
<polygon fill="#63b8ff" stroke="#63b8ff" points="225.96,-243.64 220.62,-252.79 230.5,-248.97 225.96,-243.64"/>
</a>
</g>
</g>
<!-- Node3 -->
<g id="Node000003" class="node">
<title>Node3</title>
<g id="a_Node000003"><a xlink:href="motor__angle__controller_8hpp.html" target="_top" xlink:title=" ">
<polygon fill="white" stroke="#666666" points="343,-140 200,-140 200,-88 343,-88 343,-140"/>
<text text-anchor="start" x="208" y="-128" font-family="Helvetica,sans-Serif" font-size="10.00">alps_core/lib_internal</text>
<text text-anchor="start" x="208" y="-117" font-family="Helvetica,sans-Serif" font-size="10.00">/alps_common_lib/include</text>
<text text-anchor="start" x="208" y="-106" font-family="Helvetica,sans-Serif" font-size="10.00">/alps_cmn/control/motor</text>
<text text-anchor="middle" x="271.5" y="-95" font-family="Helvetica,sans-Serif" font-size="10.00">_angle_controller.hpp</text>
</a>
</g>
</g>
<!-- Node2&#45;&gt;Node3 -->
<g id="edge2_Node000002_Node000003" class="edge">
<title>Node2&#45;&gt;Node3</title>
<g id="a_edge2_Node000002_Node000003"><a xlink:title=" ">
<path fill="none" stroke="#63b8ff" d="M158.98,-171.26C178.66,-161.42 201.39,-150.06 221.25,-140.13"/>
<polygon fill="#63b8ff" stroke="#63b8ff" points="157.26,-168.2 149.89,-175.81 160.39,-174.47 157.26,-168.2"/>
</a>
</g>
</g>
<!-- Node4 -->
<g id="Node000004" class="node">
<title>Node4</title>
<g id="a_Node000004"><a xlink:href="motor__angle__velocity__controller_8hpp.html" target="_top" xlink:title=" ">
<polygon fill="white" stroke="#666666" points="165,-52 0,-52 0,0 165,0 165,-52"/>
<text text-anchor="start" x="8" y="-40" font-family="Helvetica,sans-Serif" font-size="10.00">alps_core/lib_internal</text>
<text text-anchor="start" x="8" y="-29" font-family="Helvetica,sans-Serif" font-size="10.00">/alps_common_lib/include</text>
<text text-anchor="start" x="8" y="-18" font-family="Helvetica,sans-Serif" font-size="10.00">/alps_cmn/control/motor</text>
<text text-anchor="middle" x="82.5" y="-7" font-family="Helvetica,sans-Serif" font-size="10.00">_angle_velocity_controller.hpp</text>
</a>
</g>
</g>
<!-- Node2&#45;&gt;Node4 -->
<g id="edge5_Node000002_Node000004" class="edge">
<title>Node2&#45;&gt;Node4</title>
<g id="a_edge5_Node000002_Node000004"><a xlink:title=" ">
<path fill="none" stroke="#63b8ff" d="M58.81,-170.48C47.46,-162.41 36.93,-152.29 30.5,-140 19.78,-119.52 22.51,-109.69 30.5,-88 35.41,-74.68 44.66,-62.29 54.01,-52.21"/>
<polygon fill="#63b8ff" stroke="#63b8ff" points="56.89,-173.41 67.16,-176 60.74,-167.56 56.89,-173.41"/>
</a>
</g>
</g>
<!-- Node6 -->
<g id="Node000006" class="node">
<title>Node6</title>
<g id="a_Node000006"><a xlink:href="motor__velocity__controller_8hpp.html" target="_top" xlink:title=" ">
<polygon fill="white" stroke="#666666" points="182,-140 39,-140 39,-88 182,-88 182,-140"/>
<text text-anchor="start" x="47" y="-128" font-family="Helvetica,sans-Serif" font-size="10.00">alps_core/lib_internal</text>
<text text-anchor="start" x="47" y="-117" font-family="Helvetica,sans-Serif" font-size="10.00">/alps_common_lib/include</text>
<text text-anchor="start" x="47" y="-106" font-family="Helvetica,sans-Serif" font-size="10.00">/alps_cmn/control/motor</text>
<text text-anchor="middle" x="110.5" y="-95" font-family="Helvetica,sans-Serif" font-size="10.00">_velocity_controller.hpp</text>
</a>
</g>
</g>
<!-- Node2&#45;&gt;Node6 -->
<g id="edge6_Node000002_Node000006" class="edge">
<title>Node2&#45;&gt;Node6</title>
<g id="a_edge6_Node000002_Node000006"><a xlink:title=" ">
<path fill="none" stroke="#63b8ff" d="M110.5,-165.49C110.5,-157.15 110.5,-148.19 110.5,-140.16"/>
<polygon fill="#63b8ff" stroke="#63b8ff" points="107,-165.6 110.5,-175.6 114,-165.6 107,-165.6"/>
</a>
</g>
</g>
<!-- Node3&#45;&gt;Node4 -->
<g id="edge3_Node000003_Node000004" class="edge">
<title>Node3&#45;&gt;Node4</title>
<g id="a_edge3_Node000003_Node000004"><a xlink:title=" ">
<path fill="none" stroke="#63b8ff" d="M207.16,-83.73C184.61,-73.46 159.49,-62.03 137.74,-52.14"/>
<polygon fill="#63b8ff" stroke="#63b8ff" points="205.77,-86.94 216.33,-87.89 208.67,-80.57 205.77,-86.94"/>
</a>
</g>
</g>
<!-- Node5 -->
<g id="Node000005" class="node">
<title>Node5</title>
<g id="a_Node000005"><a xlink:href="custom__type__topic__conversion__rule_8hpp.html" target="_top" xlink:title=" ">
<polygon fill="white" stroke="#666666" points="359.5,-52 183.5,-52 183.5,0 359.5,0 359.5,-52"/>
<text text-anchor="start" x="191.5" y="-40" font-family="Helvetica,sans-Serif" font-size="10.00">alps_core/lib_internal</text>
<text text-anchor="start" x="191.5" y="-29" font-family="Helvetica,sans-Serif" font-size="10.00">/alps_ros2_lib/include</text>
<text text-anchor="start" x="191.5" y="-18" font-family="Helvetica,sans-Serif" font-size="10.00">/alps_ros2/type/custom</text>
<text text-anchor="middle" x="271.5" y="-7" font-family="Helvetica,sans-Serif" font-size="10.00">_type_topic_conversion_rule.hpp</text>
</a>
</g>
</g>
<!-- Node3&#45;&gt;Node5 -->
<g id="edge4_Node000003_Node000005" class="edge">
<title>Node3&#45;&gt;Node5</title>
<g id="a_edge4_Node000003_Node000005"><a xlink:title=" ">
<path fill="none" stroke="#63b8ff" d="M271.5,-77.56C271.5,-69.04 271.5,-60.1 271.5,-52.16"/>
<polygon fill="#63b8ff" stroke="#63b8ff" points="268,-77.66 271.5,-87.66 275,-77.66 268,-77.66"/>
</a>
</g>
</g>
<!-- Node6&#45;&gt;Node4 -->
<g id="edge7_Node000006_Node000004" class="edge">
<title>Node6&#45;&gt;Node4</title>
<g id="a_edge7_Node000006_Node000004"><a xlink:title=" ">
<path fill="none" stroke="#63b8ff" d="M99.14,-78.12C96.31,-69.43 93.33,-60.28 90.69,-52.16"/>
<polygon fill="#63b8ff" stroke="#63b8ff" points="95.83,-79.24 102.25,-87.66 102.48,-77.07 95.83,-79.24"/>
</a>
</g>
</g>
<!-- Node6&#45;&gt;Node5 -->
<g id="edge8_Node000006_Node000005" class="edge">
<title>Node6&#45;&gt;Node5</title>
<g id="a_edge8_Node000006_Node000005"><a xlink:title=" ">
<path fill="none" stroke="#63b8ff" d="M166.33,-83.18C185.28,-73.06 206.25,-61.86 224.44,-52.14"/>
<polygon fill="#63b8ff" stroke="#63b8ff" points="164.67,-80.1 157.5,-87.89 167.97,-86.27 164.67,-80.1"/>
</a>
</g>
</g>
</g>
</svg>
