<?xml version="1.0" encoding="UTF-8" standalone="no"?>
<!DOCTYPE svg PUBLIC "-//W3C//DTD SVG 1.1//EN"
 "http://www.w3.org/Graphics/SVG/1.1/DTD/svg11.dtd">
<!-- Generated by graphviz version 2.43.0 (0)
 -->
<!-- Title: alps_core/lib_internal/alps_common_lib/include/alps_cmn/control/integrator.hpp Pages: 1 -->
<svg width="409pt" height="159pt"
 viewBox="0.00 0.00 408.74 159.00" xmlns="http://www.w3.org/2000/svg" xmlns:xlink="http://www.w3.org/1999/xlink">
<g id="graph0" class="graph" transform="scale(1 1) rotate(0) translate(4 155)">
<title>alps_core/lib_internal/alps_common_lib/include/alps_cmn/control/integrator.hpp</title>
<!-- Node1 -->
<g id="Node000001" class="node">
<title>Node1</title>
<g id="a_Node000001"><a xlink:title="積分器ライブラリ">
<polygon fill="#999999" stroke="#666666" points="181.24,-151 7.24,-151 7.24,-110 181.24,-110 181.24,-151"/>
<text text-anchor="start" x="15.24" y="-139" font-family="Helvetica,sans-Serif" font-size="10.00">alps_core/lib_internal</text>
<text text-anchor="start" x="15.24" y="-128" font-family="Helvetica,sans-Serif" font-size="10.00">/alps_common_lib/include</text>
<text text-anchor="middle" x="94.24" y="-117" font-family="Helvetica,sans-Serif" font-size="10.00">/alps_cmn/control/integrator.hpp</text>
</a>
</g>
</g>
<!-- Node2 -->
<g id="Node000002" class="node">
<title>Node2</title>
<g id="a_Node000002"><a xlink:title=" ">
<polygon fill="#e0e0e0" stroke="#999999" points="180.24,-19 130.24,-19 130.24,0 180.24,0 180.24,-19"/>
<text text-anchor="middle" x="155.24" y="-7" font-family="Helvetica,sans-Serif" font-size="10.00">chrono</text>
</a>
</g>
</g>
<!-- Node1&#45;&gt;Node2 -->
<g id="edge1_Node000001_Node000002" class="edge">
<title>Node1&#45;&gt;Node2</title>
<g id="a_edge1_Node000001_Node000002"><a xlink:title=" ">
<path fill="none" stroke="#63b8ff" d="M42.48,-109.91C14.61,-96.33 -11.03,-76.8 5.24,-55 31.45,-19.89 84.19,-11.35 119.62,-9.85"/>
<polygon fill="#63b8ff" stroke="#63b8ff" points="120.1,-13.34 130.01,-9.58 119.92,-6.34 120.1,-13.34"/>
</a>
</g>
</g>
<!-- Node3 -->
<g id="Node000003" class="node">
<title>Node3</title>
<g id="a_Node000003"><a xlink:title=" ">
<polygon fill="#e0e0e0" stroke="#999999" points="58.24,-74 14.24,-74 14.24,-55 58.24,-55 58.24,-74"/>
<text text-anchor="middle" x="36.24" y="-62" font-family="Helvetica,sans-Serif" font-size="10.00">limits</text>
</a>
</g>
</g>
<!-- Node1&#45;&gt;Node3 -->
<g id="edge2_Node000001_Node000003" class="edge">
<title>Node1&#45;&gt;Node3</title>
<g id="a_edge2_Node000001_Node000003"><a xlink:title=" ">
<path fill="none" stroke="#63b8ff" d="M76.52,-109.95C68.34,-100.92 58.75,-90.33 50.97,-81.75"/>
<polygon fill="#63b8ff" stroke="#63b8ff" points="53.49,-79.32 44.18,-74.26 48.3,-84.02 53.49,-79.32"/>
</a>
</g>
</g>
<!-- Node4 -->
<g id="Node000004" class="node">
<title>Node4</title>
<g id="a_Node000004"><a xlink:href="algorithm_8hpp.html" target="_top" xlink:title=" ">
<polygon fill="white" stroke="#666666" points="229.74,-74 76.74,-74 76.74,-55 229.74,-55 229.74,-74"/>
<text text-anchor="middle" x="153.24" y="-62" font-family="Helvetica,sans-Serif" font-size="10.00">alps_cmn/util/algorithm.hpp</text>
</a>
</g>
</g>
<!-- Node1&#45;&gt;Node4 -->
<g id="edge3_Node000001_Node000004" class="edge">
<title>Node1&#45;&gt;Node4</title>
<g id="a_edge3_Node000001_Node000004"><a xlink:title=" ">
<path fill="none" stroke="#63b8ff" d="M112.26,-109.95C120.58,-100.92 130.35,-90.33 138.26,-81.75"/>
<polygon fill="#63b8ff" stroke="#63b8ff" points="140.96,-83.99 145.16,-74.26 135.81,-79.24 140.96,-83.99"/>
</a>
</g>
</g>
<!-- Node5 -->
<g id="Node000005" class="node">
<title>Node5</title>
<g id="a_Node000005"><a xlink:href="duration_8hpp.html" target="_top" xlink:title="時間間隔の型エイリアス">
<polygon fill="white" stroke="#666666" points="400.74,-74 247.74,-74 247.74,-55 400.74,-55 400.74,-74"/>
<text text-anchor="middle" x="324.24" y="-62" font-family="Helvetica,sans-Serif" font-size="10.00">alps_cmn/time/duration.hpp</text>
</a>
</g>
</g>
<!-- Node1&#45;&gt;Node5 -->
<g id="edge4_Node000001_Node000005" class="edge">
<title>Node1&#45;&gt;Node5</title>
<g id="a_edge4_Node000001_Node000005"><a xlink:title=" ">
<path fill="none" stroke="#63b8ff" d="M164.5,-109.95C203.65,-99.06 250.99,-85.88 283.93,-76.72"/>
<polygon fill="#63b8ff" stroke="#63b8ff" points="284.97,-80.06 293.67,-74.01 283.09,-73.32 284.97,-80.06"/>
</a>
</g>
</g>
<!-- Node5&#45;&gt;Node2 -->
<g id="edge5_Node000005_Node000002" class="edge">
<title>Node5&#45;&gt;Node2</title>
<g id="a_edge5_Node000005_Node000002"><a xlink:title=" ">
<path fill="none" stroke="#63b8ff" d="M297.09,-54.98C268.04,-45.88 221.88,-31.4 190.15,-21.45"/>
<polygon fill="#63b8ff" stroke="#63b8ff" points="190.98,-18.04 180.39,-18.39 188.89,-24.72 190.98,-18.04"/>
</a>
</g>
</g>
</g>
</svg>
