<?xml version="1.0" encoding="UTF-8" standalone="no"?>
<!DOCTYPE svg PUBLIC "-//W3C//DTD SVG 1.1//EN"
 "http://www.w3.org/Graphics/SVG/1.1/DTD/svg11.dtd">
<!-- Generated by graphviz version 2.43.0 (0)
 -->
<!-- Title: alps_common_lib/include/alps_cmn/control/integrator.hpp Pages: 1 -->
<svg width="449pt" height="258pt"
 viewBox="0.00 0.00 449.00 258.00" xmlns="http://www.w3.org/2000/svg" xmlns:xlink="http://www.w3.org/1999/xlink">
<g id="graph0" class="graph" transform="scale(1 1) rotate(0) translate(4 254)">
<title>alps_common_lib/include/alps_cmn/control/integrator.hpp</title>
<!-- Node1 -->
<g id="node1" class="node">
<title>Node1</title>
<g id="a_node1"><a xlink:title="積分器ライブラリ">
<polygon fill="#999999" stroke="#666666" points="345.5,-250 170.5,-250 170.5,-220 345.5,-220 345.5,-250"/>
<text text-anchor="start" x="178.5" y="-238" font-family="Helvetica,sans-Serif" font-size="10.00">alps_common_lib/include</text>
<text text-anchor="middle" x="258" y="-227" font-family="Helvetica,sans-Serif" font-size="10.00">/alps_cmn/control/integrator.hpp</text>
</a>
</g>
</g>
<!-- Node2 -->
<g id="node2" class="node">
<title>Node2</title>
<g id="a_node2"><a xlink:href="pid_8hpp.html" target="_top" xlink:title=" ">
<polygon fill="white" stroke="#666666" points="239,-184 97,-184 97,-154 239,-154 239,-184"/>
<text text-anchor="start" x="105" y="-172" font-family="Helvetica,sans-Serif" font-size="10.00">alps_common_lib/include</text>
<text text-anchor="middle" x="168" y="-161" font-family="Helvetica,sans-Serif" font-size="10.00">/alps_cmn/control/pid.hpp</text>
</a>
</g>
</g>
<!-- Node1&#45;&gt;Node2 -->
<g id="edge1" class="edge">
<title>Node1&#45;&gt;Node2</title>
<path fill="none" stroke="#63b8ff" d="M229.53,-213.75C215.99,-204.13 200.14,-192.86 187.92,-184.16"/>
<polygon fill="#63b8ff" stroke="#63b8ff" points="227.85,-216.85 238.03,-219.8 231.9,-211.15 227.85,-216.85"/>
</g>
<!-- Node6 -->
<g id="node6" class="node">
<title>Node6</title>
<g id="a_node6"><a xlink:href="odometory_8hpp.html" target="_top" xlink:title="オドメトリ計算クラス">
<polygon fill="white" stroke="#666666" points="441,-184 257,-184 257,-154 441,-154 441,-184"/>
<text text-anchor="start" x="265" y="-172" font-family="Helvetica,sans-Serif" font-size="10.00">alps_common_lib/include</text>
<text text-anchor="middle" x="349" y="-161" font-family="Helvetica,sans-Serif" font-size="10.00">/alps_cmn/robotics/odometory.hpp</text>
</a>
</g>
</g>
<!-- Node1&#45;&gt;Node6 -->
<g id="edge7" class="edge">
<title>Node1&#45;&gt;Node6</title>
<path fill="none" stroke="#63b8ff" d="M286.4,-214.03C300.17,-204.34 316.38,-192.94 328.86,-184.16"/>
<polygon fill="#63b8ff" stroke="#63b8ff" points="284.36,-211.18 278.2,-219.8 288.39,-216.91 284.36,-211.18"/>
</g>
<!-- Node3 -->
<g id="node3" class="node">
<title>Node3</title>
<g id="a_node3"><a xlink:href="motor__angle__controller_8hpp.html" target="_top" xlink:title=" ">
<polygon fill="white" stroke="#666666" points="140,-118 0,-118 0,-77 140,-77 140,-118"/>
<text text-anchor="start" x="8" y="-106" font-family="Helvetica,sans-Serif" font-size="10.00">alps_common_lib/include</text>
<text text-anchor="start" x="8" y="-95" font-family="Helvetica,sans-Serif" font-size="10.00">/alps_cmn/control/motor</text>
<text text-anchor="middle" x="70" y="-84" font-family="Helvetica,sans-Serif" font-size="10.00">_angle_controller.hpp</text>
</a>
</g>
</g>
<!-- Node2&#45;&gt;Node3 -->
<g id="edge2" class="edge">
<title>Node2&#45;&gt;Node3</title>
<path fill="none" stroke="#63b8ff" d="M139.86,-148.04C126.59,-138.63 110.8,-127.44 97.6,-118.07"/>
<polygon fill="#63b8ff" stroke="#63b8ff" points="137.99,-151.01 148.17,-153.94 142.04,-145.3 137.99,-151.01"/>
</g>
<!-- Node4 -->
<g id="node4" class="node">
<title>Node4</title>
<g id="a_node4"><a xlink:href="motor__angle__velocity__controller_8hpp.html" target="_top" xlink:title=" ">
<polygon fill="white" stroke="#666666" points="251,-41 85,-41 85,0 251,0 251,-41"/>
<text text-anchor="start" x="93" y="-29" font-family="Helvetica,sans-Serif" font-size="10.00">alps_common_lib/include</text>
<text text-anchor="start" x="93" y="-18" font-family="Helvetica,sans-Serif" font-size="10.00">/alps_cmn/control/motor</text>
<text text-anchor="middle" x="168" y="-7" font-family="Helvetica,sans-Serif" font-size="10.00">_angle_velocity_controller.hpp</text>
</a>
</g>
</g>
<!-- Node2&#45;&gt;Node4 -->
<g id="edge4" class="edge">
<title>Node2&#45;&gt;Node4</title>
<path fill="none" stroke="#63b8ff" d="M168,-143.58C168,-114.88 168,-67.8 168,-41.27"/>
<polygon fill="#63b8ff" stroke="#63b8ff" points="164.5,-143.95 168,-153.95 171.5,-143.95 164.5,-143.95"/>
</g>
<!-- Node5 -->
<g id="node5" class="node">
<title>Node5</title>
<g id="a_node5"><a xlink:href="motor__velocity__controller_8hpp.html" target="_top" xlink:title=" ">
<polygon fill="white" stroke="#666666" points="336,-118 196,-118 196,-77 336,-77 336,-118"/>
<text text-anchor="start" x="204" y="-106" font-family="Helvetica,sans-Serif" font-size="10.00">alps_common_lib/include</text>
<text text-anchor="start" x="204" y="-95" font-family="Helvetica,sans-Serif" font-size="10.00">/alps_cmn/control/motor</text>
<text text-anchor="middle" x="266" y="-84" font-family="Helvetica,sans-Serif" font-size="10.00">_velocity_controller.hpp</text>
</a>
</g>
</g>
<!-- Node2&#45;&gt;Node5 -->
<g id="edge5" class="edge">
<title>Node2&#45;&gt;Node5</title>
<path fill="none" stroke="#63b8ff" d="M196.14,-148.04C209.41,-138.63 225.2,-127.44 238.4,-118.07"/>
<polygon fill="#63b8ff" stroke="#63b8ff" points="193.96,-145.3 187.83,-153.94 198.01,-151.01 193.96,-145.3"/>
</g>
<!-- Node3&#45;&gt;Node4 -->
<g id="edge3" class="edge">
<title>Node3&#45;&gt;Node4</title>
<path fill="none" stroke="#63b8ff" d="M103.56,-70.82C116.24,-61.11 130.45,-50.24 142.29,-41.17"/>
<polygon fill="#63b8ff" stroke="#63b8ff" points="101.31,-68.13 95.49,-76.99 105.56,-73.69 101.31,-68.13"/>
</g>
<!-- Node5&#45;&gt;Node4 -->
<g id="edge6" class="edge">
<title>Node5&#45;&gt;Node4</title>
<path fill="none" stroke="#63b8ff" d="M232.44,-70.82C219.76,-61.11 205.55,-50.24 193.71,-41.17"/>
<polygon fill="#63b8ff" stroke="#63b8ff" points="230.44,-73.69 240.51,-76.99 234.69,-68.13 230.44,-73.69"/>
</g>
</g>
</svg>
