<?xml version="1.0" encoding="UTF-8" standalone="no"?>
<!DOCTYPE svg PUBLIC "-//W3C//DTD SVG 1.1//EN"
 "http://www.w3.org/Graphics/SVG/1.1/DTD/svg11.dtd">
<!-- Generated by graphviz version 2.43.0 (0)
 -->
<!-- Title: alps_common_lib/include/alps_cmn/control/integrator.hpp Pages: 1 -->
<svg width="449pt" height="262pt"
 viewBox="0.00 0.00 449.00 262.00" xmlns="http://www.w3.org/2000/svg" xmlns:xlink="http://www.w3.org/1999/xlink">
<g id="graph0" class="graph" transform="scale(1 1) rotate(0) translate(4 258)">
<title>alps_common_lib/include/alps_cmn/control/integrator.hpp</title>
<polygon fill="white" stroke="transparent" points="-4,4 -4,-258 445,-258 445,4 -4,4"/>
<!-- Node1 -->
<g id="node1" class="node">
<title>Node1</title>
<g id="a_node1"><a xlink:title="積分器ライブラリ">
<polygon fill="#bfbfbf" stroke="black" points="171,-223.5 171,-253.5 345,-253.5 345,-223.5 171,-223.5"/>
<text text-anchor="start" x="179" y="-241.5" font-family="Helvetica,sans-Serif" font-size="10.00">alps_common_lib/include</text>
<text text-anchor="middle" x="258" y="-230.5" font-family="Helvetica,sans-Serif" font-size="10.00">/alps_cmn/control/integrator.hpp</text>
</a>
</g>
</g>
<!-- Node2 -->
<g id="node2" class="node">
<title>Node2</title>
<g id="a_node2"><a xlink:href="pid_8hpp.html" target="_top" xlink:title=" ">
<polygon fill="white" stroke="black" points="97,-156.5 97,-186.5 239,-186.5 239,-156.5 97,-156.5"/>
<text text-anchor="start" x="105" y="-174.5" font-family="Helvetica,sans-Serif" font-size="10.00">alps_common_lib/include</text>
<text text-anchor="middle" x="168" y="-163.5" font-family="Helvetica,sans-Serif" font-size="10.00">/alps_cmn/control/pid.hpp</text>
</a>
</g>
</g>
<!-- Node1&#45;&gt;Node2 -->
<g id="edge1" class="edge">
<title>Node1&#45;&gt;Node2</title>
<path fill="none" stroke="midnightblue" d="M230.24,-217.45C216.39,-207.45 199.98,-195.6 187.49,-186.58"/>
<polygon fill="midnightblue" stroke="midnightblue" points="228.32,-220.38 238.47,-223.4 232.41,-214.7 228.32,-220.38"/>
</g>
<!-- Node6 -->
<g id="node6" class="node">
<title>Node6</title>
<g id="a_node6"><a xlink:href="odometory_8hpp.html" target="_top" xlink:title="オドメトリ計算クラス">
<polygon fill="white" stroke="black" points="257,-156.5 257,-186.5 441,-186.5 441,-156.5 257,-156.5"/>
<text text-anchor="start" x="265" y="-174.5" font-family="Helvetica,sans-Serif" font-size="10.00">alps_common_lib/include</text>
<text text-anchor="middle" x="349" y="-163.5" font-family="Helvetica,sans-Serif" font-size="10.00">/alps_cmn/robotics/odometory.hpp</text>
</a>
</g>
</g>
<!-- Node1&#45;&gt;Node6 -->
<g id="edge7" class="edge">
<title>Node1&#45;&gt;Node6</title>
<path fill="none" stroke="midnightblue" d="M286.07,-217.45C300.07,-207.45 316.66,-195.6 329.29,-186.58"/>
<polygon fill="midnightblue" stroke="midnightblue" points="283.85,-214.74 277.75,-223.4 287.92,-220.43 283.85,-214.74"/>
</g>
<!-- Node3 -->
<g id="node3" class="node">
<title>Node3</title>
<g id="a_node3"><a xlink:href="motor__angle__controller_8hpp.html" target="_top" xlink:title=" ">
<polygon fill="white" stroke="black" points="0,-78.5 0,-119.5 140,-119.5 140,-78.5 0,-78.5"/>
<text text-anchor="start" x="8" y="-107.5" font-family="Helvetica,sans-Serif" font-size="10.00">alps_common_lib/include</text>
<text text-anchor="start" x="8" y="-96.5" font-family="Helvetica,sans-Serif" font-size="10.00">/alps_cmn/control/motor</text>
<text text-anchor="middle" x="70" y="-85.5" font-family="Helvetica,sans-Serif" font-size="10.00">_angle_controller.hpp</text>
</a>
</g>
</g>
<!-- Node2&#45;&gt;Node3 -->
<g id="edge2" class="edge">
<title>Node2&#45;&gt;Node3</title>
<path fill="none" stroke="midnightblue" d="M139.79,-150.21C126.41,-140.58 110.49,-129.12 97.23,-119.59"/>
<polygon fill="midnightblue" stroke="midnightblue" points="138.01,-153.23 148.17,-156.23 142.09,-147.55 138.01,-153.23"/>
</g>
<!-- Node4 -->
<g id="node4" class="node">
<title>Node4</title>
<g id="a_node4"><a xlink:href="motor__angle__velocity__controller_8hpp.html" target="_top" xlink:title=" ">
<polygon fill="white" stroke="black" points="85.5,-0.5 85.5,-41.5 250.5,-41.5 250.5,-0.5 85.5,-0.5"/>
<text text-anchor="start" x="93.5" y="-29.5" font-family="Helvetica,sans-Serif" font-size="10.00">alps_common_lib/include</text>
<text text-anchor="start" x="93.5" y="-18.5" font-family="Helvetica,sans-Serif" font-size="10.00">/alps_cmn/control/motor</text>
<text text-anchor="middle" x="168" y="-7.5" font-family="Helvetica,sans-Serif" font-size="10.00">_angle_velocity_controller.hpp</text>
</a>
</g>
</g>
<!-- Node2&#45;&gt;Node4 -->
<g id="edge4" class="edge">
<title>Node2&#45;&gt;Node4</title>
<path fill="none" stroke="midnightblue" d="M168,-146.08C168,-116.83 168,-68.44 168,-41.55"/>
<polygon fill="midnightblue" stroke="midnightblue" points="164.5,-146.26 168,-156.26 171.5,-146.26 164.5,-146.26"/>
</g>
<!-- Node5 -->
<g id="node5" class="node">
<title>Node5</title>
<g id="a_node5"><a xlink:href="motor__velocity__controller_8hpp.html" target="_top" xlink:title=" ">
<polygon fill="white" stroke="black" points="196,-78.5 196,-119.5 336,-119.5 336,-78.5 196,-78.5"/>
<text text-anchor="start" x="204" y="-107.5" font-family="Helvetica,sans-Serif" font-size="10.00">alps_common_lib/include</text>
<text text-anchor="start" x="204" y="-96.5" font-family="Helvetica,sans-Serif" font-size="10.00">/alps_cmn/control/motor</text>
<text text-anchor="middle" x="266" y="-85.5" font-family="Helvetica,sans-Serif" font-size="10.00">_velocity_controller.hpp</text>
</a>
</g>
</g>
<!-- Node2&#45;&gt;Node5 -->
<g id="edge5" class="edge">
<title>Node2&#45;&gt;Node5</title>
<path fill="none" stroke="midnightblue" d="M196.21,-150.21C209.59,-140.58 225.51,-129.12 238.77,-119.59"/>
<polygon fill="midnightblue" stroke="midnightblue" points="193.91,-147.55 187.83,-156.23 197.99,-153.23 193.91,-147.55"/>
</g>
<!-- Node3&#45;&gt;Node4 -->
<g id="edge3" class="edge">
<title>Node3&#45;&gt;Node4</title>
<path fill="none" stroke="midnightblue" d="M103.44,-72.06C116.35,-62.06 130.86,-50.8 142.85,-41.51"/>
<polygon fill="midnightblue" stroke="midnightblue" points="100.99,-69.53 95.24,-78.43 105.28,-75.07 100.99,-69.53"/>
</g>
<!-- Node5&#45;&gt;Node4 -->
<g id="edge6" class="edge">
<title>Node5&#45;&gt;Node4</title>
<path fill="none" stroke="midnightblue" d="M232.56,-72.06C219.65,-62.06 205.14,-50.8 193.15,-41.51"/>
<polygon fill="midnightblue" stroke="midnightblue" points="230.72,-75.07 240.76,-78.43 235.01,-69.53 230.72,-75.07"/>
</g>
</g>
</svg>
