<?xml version="1.0" encoding="UTF-8" standalone="no"?>
<!DOCTYPE svg PUBLIC "-//W3C//DTD SVG 1.1//EN"
 "http://www.w3.org/Graphics/SVG/1.1/DTD/svg11.dtd">
<!-- Generated by graphviz version 2.43.0 (0)
 -->
<!-- Title: alps_mbed_lib/include/alps_mbed/gpio/interrupt_in.hpp Pages: 1 -->
<svg width="355pt" height="170pt"
 viewBox="0.00 0.00 355.00 170.00" xmlns="http://www.w3.org/2000/svg" xmlns:xlink="http://www.w3.org/1999/xlink">
<g id="graph0" class="graph" transform="scale(1 1) rotate(0) translate(4 166)">
<title>alps_mbed_lib/include/alps_mbed/gpio/interrupt_in.hpp</title>
<!-- Node1 -->
<g id="node1" class="node">
<title>Node1</title>
<g id="a_node1"><a xlink:title=" ">
<polygon fill="#999999" stroke="#666666" points="206.5,-162 64.5,-162 64.5,-121 206.5,-121 206.5,-162"/>
<text text-anchor="start" x="72.5" y="-150" font-family="Helvetica,sans-Serif" font-size="10.00">alps_mbed_lib/include</text>
<text text-anchor="start" x="72.5" y="-139" font-family="Helvetica,sans-Serif" font-size="10.00">/alps_mbed/gpio/interrupt</text>
<text text-anchor="middle" x="135.5" y="-128" font-family="Helvetica,sans-Serif" font-size="10.00">_in.hpp</text>
</a>
</g>
</g>
<!-- Node2 -->
<g id="node2" class="node">
<title>Node2</title>
<g id="a_node2"><a xlink:title=" ">
<polygon fill="#e0e0e0" stroke="#999999" points="53,-79.5 0,-79.5 0,-60.5 53,-60.5 53,-79.5"/>
<text text-anchor="middle" x="26.5" y="-67.5" font-family="Helvetica,sans-Serif" font-size="10.00">mbed.h</text>
</a>
</g>
</g>
<!-- Node1&#45;&gt;Node2 -->
<g id="edge1" class="edge">
<title>Node1&#45;&gt;Node2</title>
<path fill="none" stroke="#63b8ff" d="M104.85,-120.96C86.95,-109.54 64.78,-95.41 48.6,-85.09"/>
<polygon fill="#63b8ff" stroke="#63b8ff" points="50.15,-81.93 39.84,-79.5 46.39,-87.83 50.15,-81.93"/>
</g>
<!-- Node3 -->
<g id="node3" class="node">
<title>Node3</title>
<g id="a_node3"><a xlink:href="i__attach__interrupt_8hpp.html" target="_top" xlink:title=" ">
<polygon fill="white" stroke="#666666" points="200,-85 71,-85 71,-55 200,-55 200,-85"/>
<text text-anchor="start" x="79" y="-73" font-family="Helvetica,sans-Serif" font-size="10.00">alps_cmn/gpio/i_attach</text>
<text text-anchor="middle" x="135.5" y="-62" font-family="Helvetica,sans-Serif" font-size="10.00">_interrupt.hpp</text>
</a>
</g>
</g>
<!-- Node1&#45;&gt;Node3 -->
<g id="edge2" class="edge">
<title>Node1&#45;&gt;Node3</title>
<path fill="none" stroke="#63b8ff" d="M135.5,-120.77C135.5,-112.85 135.5,-103.63 135.5,-95.3"/>
<polygon fill="#63b8ff" stroke="#63b8ff" points="139,-95.04 135.5,-85.04 132,-95.04 139,-95.04"/>
</g>
<!-- Node5 -->
<g id="node5" class="node">
<title>Node5</title>
<g id="a_node5"><a xlink:href="i__digital__read_8hpp.html" target="_top" xlink:title=" ">
<polygon fill="white" stroke="#666666" points="347,-85 218,-85 218,-55 347,-55 347,-85"/>
<text text-anchor="start" x="226" y="-73" font-family="Helvetica,sans-Serif" font-size="10.00">alps_cmn/gpio/i_digital</text>
<text text-anchor="middle" x="282.5" y="-62" font-family="Helvetica,sans-Serif" font-size="10.00">_read.hpp</text>
</a>
</g>
</g>
<!-- Node1&#45;&gt;Node5 -->
<g id="edge4" class="edge">
<title>Node1&#45;&gt;Node5</title>
<path fill="none" stroke="#63b8ff" d="M176.84,-120.96C197.75,-111.07 222.99,-99.13 243.56,-89.41"/>
<polygon fill="#63b8ff" stroke="#63b8ff" points="245.11,-92.55 252.65,-85.11 242.11,-86.22 245.11,-92.55"/>
</g>
<!-- Node4 -->
<g id="node4" class="node">
<title>Node4</title>
<g id="a_node4"><a xlink:title=" ">
<polygon fill="#e0e0e0" stroke="#999999" points="177.5,-19 93.5,-19 93.5,0 177.5,0 177.5,-19"/>
<text text-anchor="middle" x="135.5" y="-7" font-family="Helvetica,sans-Serif" font-size="10.00">etl/delegate.h</text>
</a>
</g>
</g>
<!-- Node3&#45;&gt;Node4 -->
<g id="edge3" class="edge">
<title>Node3&#45;&gt;Node4</title>
<path fill="none" stroke="#63b8ff" d="M135.5,-54.84C135.5,-47.21 135.5,-37.7 135.5,-29.45"/>
<polygon fill="#63b8ff" stroke="#63b8ff" points="139,-29.27 135.5,-19.27 132,-29.27 139,-29.27"/>
</g>
</g>
</svg>
