<?xml version="1.0" encoding="UTF-8" standalone="no"?>
<!DOCTYPE svg PUBLIC "-//W3C//DTD SVG 1.1//EN"
 "http://www.w3.org/Graphics/SVG/1.1/DTD/svg11.dtd">
<!-- Generated by graphviz version 2.43.0 (0)
 -->
<!-- Title: alps_common_lib/include/alps_cmn/control/integrator.hpp Pages: 1 -->
<svg width="409pt" height="151pt"
 viewBox="0.00 0.00 408.55 151.00" xmlns="http://www.w3.org/2000/svg" xmlns:xlink="http://www.w3.org/1999/xlink">
<g id="graph0" class="graph" transform="scale(1 1) rotate(0) translate(4 147)">
<title>alps_common_lib/include/alps_cmn/control/integrator.hpp</title>
<polygon fill="white" stroke="transparent" points="-4,4 -4,-147 404.55,-147 404.55,4 -4,4"/>
<!-- Node1 -->
<g id="node1" class="node">
<title>Node1</title>
<g id="a_node1"><a xlink:title="積分器ライブラリ">
<polygon fill="#bfbfbf" stroke="black" points="7.05,-112.5 7.05,-142.5 181.05,-142.5 181.05,-112.5 7.05,-112.5"/>
<text text-anchor="start" x="15.05" y="-130.5" font-family="Helvetica,sans-Serif" font-size="10.00">alps_common_lib/include</text>
<text text-anchor="middle" x="94.05" y="-119.5" font-family="Helvetica,sans-Serif" font-size="10.00">/alps_cmn/control/integrator.hpp</text>
</a>
</g>
</g>
<!-- Node2 -->
<g id="node2" class="node">
<title>Node2</title>
<g id="a_node2"><a xlink:title=" ">
<polygon fill="white" stroke="#bfbfbf" points="130.05,-0.5 130.05,-19.5 180.05,-19.5 180.05,-0.5 130.05,-0.5"/>
<text text-anchor="middle" x="155.05" y="-7.5" font-family="Helvetica,sans-Serif" font-size="10.00">chrono</text>
</a>
</g>
</g>
<!-- Node1&#45;&gt;Node2 -->
<g id="edge1" class="edge">
<title>Node1&#45;&gt;Node2</title>
<path fill="none" stroke="midnightblue" d="M51.83,-112.45C20.99,-99.85 -12.6,-79.72 5.05,-56 31.23,-20.81 83.97,-12.1 119.41,-10.47"/>
<polygon fill="midnightblue" stroke="midnightblue" points="119.91,-13.96 129.8,-10.17 119.71,-6.96 119.91,-13.96"/>
</g>
<!-- Node3 -->
<g id="node3" class="node">
<title>Node3</title>
<g id="a_node3"><a xlink:title=" ">
<polygon fill="white" stroke="#bfbfbf" points="14.05,-56.5 14.05,-75.5 58.05,-75.5 58.05,-56.5 14.05,-56.5"/>
<text text-anchor="middle" x="36.05" y="-63.5" font-family="Helvetica,sans-Serif" font-size="10.00">limits</text>
</a>
</g>
</g>
<!-- Node1&#45;&gt;Node3 -->
<g id="edge2" class="edge">
<title>Node1&#45;&gt;Node3</title>
<path fill="none" stroke="midnightblue" d="M80.3,-112.4C71.7,-103.58 60.6,-92.18 51.66,-83.02"/>
<polygon fill="midnightblue" stroke="midnightblue" points="53.97,-80.38 44.49,-75.66 48.96,-85.26 53.97,-80.38"/>
</g>
<!-- Node4 -->
<g id="node4" class="node">
<title>Node4</title>
<g id="a_node4"><a xlink:href="algorithm_8hpp.html" target="_top" xlink:title=" ">
<polygon fill="white" stroke="black" points="76.55,-56.5 76.55,-75.5 229.55,-75.5 229.55,-56.5 76.55,-56.5"/>
<text text-anchor="middle" x="153.05" y="-63.5" font-family="Helvetica,sans-Serif" font-size="10.00">alps_cmn/util/algorithm.hpp</text>
</a>
</g>
</g>
<!-- Node1&#45;&gt;Node4 -->
<g id="edge3" class="edge">
<title>Node1&#45;&gt;Node4</title>
<path fill="none" stroke="midnightblue" d="M108.03,-112.4C116.78,-103.58 128.08,-92.18 137.16,-83.02"/>
<polygon fill="midnightblue" stroke="midnightblue" points="139.91,-85.22 144.46,-75.66 134.94,-80.29 139.91,-85.22"/>
</g>
<!-- Node5 -->
<g id="node5" class="node">
<title>Node5</title>
<g id="a_node5"><a xlink:href="duration_8hpp.html" target="_top" xlink:title="時間間隔の型エイリアス">
<polygon fill="white" stroke="black" points="247.55,-56.5 247.55,-75.5 400.55,-75.5 400.55,-56.5 247.55,-56.5"/>
<text text-anchor="middle" x="324.05" y="-63.5" font-family="Helvetica,sans-Serif" font-size="10.00">alps_cmn/time/duration.hpp</text>
</a>
</g>
</g>
<!-- Node1&#45;&gt;Node5 -->
<g id="edge4" class="edge">
<title>Node1&#45;&gt;Node5</title>
<path fill="none" stroke="midnightblue" d="M148.26,-112.47C188.81,-101.99 243.5,-87.84 281.06,-78.12"/>
<polygon fill="midnightblue" stroke="midnightblue" points="282.36,-81.4 291.17,-75.51 280.61,-74.62 282.36,-81.4"/>
</g>
<!-- Node5&#45;&gt;Node2 -->
<g id="edge5" class="edge">
<title>Node5&#45;&gt;Node2</title>
<path fill="none" stroke="midnightblue" d="M297.27,-56.44C268.21,-47.16 221.71,-32.3 189.84,-22.12"/>
<polygon fill="midnightblue" stroke="midnightblue" points="190.64,-18.7 180.05,-18.99 188.51,-25.37 190.64,-18.7"/>
</g>
</g>
</svg>
