<?xml version="1.0" encoding="UTF-8" standalone="no"?>
<!DOCTYPE svg PUBLIC "-//W3C//DTD SVG 1.1//EN"
 "http://www.w3.org/Graphics/SVG/1.1/DTD/svg11.dtd">
<!-- Generated by graphviz version 2.43.0 (0)
 -->
<!-- Title: alps_common_lib/include/alps_cmn/control/integrator.hpp Pages: 1 -->
<svg width="492pt" height="273pt"
 viewBox="0.00 0.00 491.50 273.00" xmlns="http://www.w3.org/2000/svg" xmlns:xlink="http://www.w3.org/1999/xlink">
<g id="graph0" class="graph" transform="scale(1 1) rotate(0) translate(4 269)">
<title>alps_common_lib/include/alps_cmn/control/integrator.hpp</title>
<polygon fill="white" stroke="transparent" points="-4,4 -4,-269 487.5,-269 487.5,4 -4,4"/>
<!-- Node1 -->
<g id="node1" class="node">
<title>Node1</title>
<g id="a_node1"><a xlink:title="積分器ライブラリ">
<polygon fill="#bfbfbf" stroke="black" points="224.5,-234.5 224.5,-264.5 398.5,-264.5 398.5,-234.5 224.5,-234.5"/>
<text text-anchor="start" x="232.5" y="-252.5" font-family="Helvetica,sans-Serif" font-size="10.00">alps_common_lib/include</text>
<text text-anchor="middle" x="311.5" y="-241.5" font-family="Helvetica,sans-Serif" font-size="10.00">/alps_cmn/control/integrator.hpp</text>
</a>
</g>
</g>
<!-- Node2 -->
<g id="node2" class="node">
<title>Node2</title>
<g id="a_node2"><a xlink:href="pid_8hpp.html" target="_top" xlink:title=" ">
<polygon fill="white" stroke="black" points="153.5,-167.5 153.5,-197.5 295.5,-197.5 295.5,-167.5 153.5,-167.5"/>
<text text-anchor="start" x="161.5" y="-185.5" font-family="Helvetica,sans-Serif" font-size="10.00">alps_common_lib/include</text>
<text text-anchor="middle" x="224.5" y="-174.5" font-family="Helvetica,sans-Serif" font-size="10.00">/alps_cmn/control/pid.hpp</text>
</a>
</g>
</g>
<!-- Node1&#45;&gt;Node2 -->
<g id="edge1" class="edge">
<title>Node1&#45;&gt;Node2</title>
<path fill="none" stroke="midnightblue" d="M284.29,-228.17C270.98,-218.23 255.3,-206.51 243.34,-197.58"/>
<polygon fill="midnightblue" stroke="midnightblue" points="282.52,-231.21 292.62,-234.4 286.71,-225.61 282.52,-231.21"/>
</g>
<!-- Node8 -->
<g id="node8" class="node">
<title>Node8</title>
<g id="a_node8"><a xlink:href="odometory_8hpp.html" target="_top" xlink:title="オドメトリ計算クラス">
<polygon fill="white" stroke="black" points="313.5,-167.5 313.5,-197.5 483.5,-197.5 483.5,-167.5 313.5,-167.5"/>
<text text-anchor="start" x="321.5" y="-185.5" font-family="Helvetica,sans-Serif" font-size="10.00">alps_common_lib/include</text>
<text text-anchor="middle" x="398.5" y="-174.5" font-family="Helvetica,sans-Serif" font-size="10.00">/alps_cmn/robot/odometory.hpp</text>
</a>
</g>
</g>
<!-- Node1&#45;&gt;Node8 -->
<g id="edge11" class="edge">
<title>Node1&#45;&gt;Node8</title>
<path fill="none" stroke="midnightblue" d="M338.71,-228.17C352.02,-218.23 367.7,-206.51 379.66,-197.58"/>
<polygon fill="midnightblue" stroke="midnightblue" points="336.29,-225.61 330.38,-234.4 340.48,-231.21 336.29,-225.61"/>
</g>
<!-- Node3 -->
<g id="node3" class="node">
<title>Node3</title>
<g id="a_node3"><a xlink:href="motor__angle__controller_8hpp.html" target="_top" xlink:title=" ">
<polygon fill="white" stroke="black" points="75.5,-89.5 75.5,-130.5 215.5,-130.5 215.5,-89.5 75.5,-89.5"/>
<text text-anchor="start" x="83.5" y="-118.5" font-family="Helvetica,sans-Serif" font-size="10.00">alps_common_lib/include</text>
<text text-anchor="start" x="83.5" y="-107.5" font-family="Helvetica,sans-Serif" font-size="10.00">/alps_cmn/control/motor</text>
<text text-anchor="middle" x="145.5" y="-96.5" font-family="Helvetica,sans-Serif" font-size="10.00">_angle_controller.hpp</text>
</a>
</g>
</g>
<!-- Node2&#45;&gt;Node3 -->
<g id="edge2" class="edge">
<title>Node2&#45;&gt;Node3</title>
<path fill="none" stroke="midnightblue" d="M200.83,-160.38C190.24,-150.93 177.83,-139.85 167.45,-130.59"/>
<polygon fill="midnightblue" stroke="midnightblue" points="198.72,-163.19 208.51,-167.23 203.38,-157.96 198.72,-163.19"/>
</g>
<!-- Node4 -->
<g id="node4" class="node">
<title>Node4</title>
<g id="a_node4"><a xlink:href="motor__angle__velocity__controller_8hpp.html" target="_top" xlink:title=" ">
<polygon fill="white" stroke="black" points="0,-6 0,-47 165,-47 165,-6 0,-6"/>
<text text-anchor="start" x="8" y="-35" font-family="Helvetica,sans-Serif" font-size="10.00">alps_common_lib/include</text>
<text text-anchor="start" x="8" y="-24" font-family="Helvetica,sans-Serif" font-size="10.00">/alps_cmn/control/motor</text>
<text text-anchor="middle" x="82.5" y="-13" font-family="Helvetica,sans-Serif" font-size="10.00">_angle_velocity_controller.hpp</text>
</a>
</g>
</g>
<!-- Node2&#45;&gt;Node4 -->
<g id="edge5" class="edge">
<title>Node2&#45;&gt;Node4</title>
<path fill="none" stroke="midnightblue" d="M143.52,-175.11C114.44,-168.44 84.43,-155.55 66.5,-131 48.49,-106.33 61.01,-69.47 71.74,-47.04"/>
<polygon fill="midnightblue" stroke="midnightblue" points="142.82,-178.54 153.32,-177.15 144.24,-171.69 142.82,-178.54"/>
</g>
<!-- Node6 -->
<g id="node6" class="node">
<title>Node6</title>
<g id="a_node6"><a xlink:href="motor__velocity__controller_8hpp.html" target="_top" xlink:title=" ">
<polygon fill="white" stroke="black" points="233.5,-89.5 233.5,-130.5 373.5,-130.5 373.5,-89.5 233.5,-89.5"/>
<text text-anchor="start" x="241.5" y="-118.5" font-family="Helvetica,sans-Serif" font-size="10.00">alps_common_lib/include</text>
<text text-anchor="start" x="241.5" y="-107.5" font-family="Helvetica,sans-Serif" font-size="10.00">/alps_cmn/control/motor</text>
<text text-anchor="middle" x="303.5" y="-96.5" font-family="Helvetica,sans-Serif" font-size="10.00">_velocity_controller.hpp</text>
</a>
</g>
</g>
<!-- Node2&#45;&gt;Node6 -->
<g id="edge6" class="edge">
<title>Node2&#45;&gt;Node6</title>
<path fill="none" stroke="midnightblue" d="M248.17,-160.38C258.76,-150.93 271.17,-139.85 281.55,-130.59"/>
<polygon fill="midnightblue" stroke="midnightblue" points="245.62,-157.96 240.49,-167.23 250.28,-163.19 245.62,-157.96"/>
</g>
<!-- Node7 -->
<g id="node7" class="node">
<title>Node7</title>
<g id="a_node7"><a xlink:href="custom__type__param__conversion__rule_8hpp.html" target="_top" xlink:title=" ">
<polygon fill="white" stroke="black" points="332,-0.5 332,-52.5 471,-52.5 471,-0.5 332,-0.5"/>
<text text-anchor="start" x="340" y="-40.5" font-family="Helvetica,sans-Serif" font-size="10.00">alps_ros2_lib/include</text>
<text text-anchor="start" x="340" y="-29.5" font-family="Helvetica,sans-Serif" font-size="10.00">/alps_ros2/type/custom</text>
<text text-anchor="start" x="340" y="-18.5" font-family="Helvetica,sans-Serif" font-size="10.00">_type_param_conversion</text>
<text text-anchor="middle" x="401.5" y="-7.5" font-family="Helvetica,sans-Serif" font-size="10.00">_rule.hpp</text>
</a>
</g>
</g>
<!-- Node2&#45;&gt;Node7 -->
<g id="edge10" class="edge">
<title>Node2&#45;&gt;Node7</title>
<path fill="none" stroke="midnightblue" d="M300.67,-165.02C335.27,-156.01 371.02,-144.04 382.5,-131 401.32,-109.6 404.26,-75.85 403.68,-52.75"/>
<polygon fill="midnightblue" stroke="midnightblue" points="299.8,-161.63 290.96,-167.48 301.52,-168.41 299.8,-161.63"/>
</g>
<!-- Node3&#45;&gt;Node4 -->
<g id="edge3" class="edge">
<title>Node3&#45;&gt;Node4</title>
<path fill="none" stroke="midnightblue" d="M123.9,-81.05C115.24,-69.86 105.48,-57.23 97.61,-47.05"/>
<polygon fill="midnightblue" stroke="midnightblue" points="121.36,-83.5 130.25,-89.27 126.9,-79.22 121.36,-83.5"/>
</g>
<!-- Node5 -->
<g id="node5" class="node">
<title>Node5</title>
<g id="a_node5"><a xlink:href="custom__type__topic__conversion__rule_8hpp.html" target="_top" xlink:title=" ">
<polygon fill="white" stroke="black" points="183,-0.5 183,-52.5 314,-52.5 314,-0.5 183,-0.5"/>
<text text-anchor="start" x="191" y="-40.5" font-family="Helvetica,sans-Serif" font-size="10.00">alps_ros2_lib/include</text>
<text text-anchor="start" x="191" y="-29.5" font-family="Helvetica,sans-Serif" font-size="10.00">/alps_ros2/type/custom</text>
<text text-anchor="start" x="191" y="-18.5" font-family="Helvetica,sans-Serif" font-size="10.00">_type_topic_conversion</text>
<text text-anchor="middle" x="248.5" y="-7.5" font-family="Helvetica,sans-Serif" font-size="10.00">_rule.hpp</text>
</a>
</g>
</g>
<!-- Node3&#45;&gt;Node5 -->
<g id="edge4" class="edge">
<title>Node3&#45;&gt;Node5</title>
<path fill="none" stroke="midnightblue" d="M178.35,-83.01C190.59,-73.32 204.46,-62.35 216.62,-52.73"/>
<polygon fill="midnightblue" stroke="midnightblue" points="175.84,-80.53 170.17,-89.48 180.18,-86.02 175.84,-80.53"/>
</g>
<!-- Node6&#45;&gt;Node4 -->
<g id="edge7" class="edge">
<title>Node6&#45;&gt;Node4</title>
<path fill="none" stroke="midnightblue" d="M240.93,-85.92C207.62,-73.64 167.11,-58.7 135.39,-47"/>
<polygon fill="midnightblue" stroke="midnightblue" points="239.97,-89.3 250.56,-89.48 242.39,-82.73 239.97,-89.3"/>
</g>
<!-- Node6&#45;&gt;Node5 -->
<g id="edge9" class="edge">
<title>Node6&#45;&gt;Node5</title>
<path fill="none" stroke="midnightblue" d="M284.49,-80.83C278.3,-71.66 271.47,-61.54 265.44,-52.61"/>
<polygon fill="midnightblue" stroke="midnightblue" points="281.69,-82.94 290.19,-89.27 287.49,-79.02 281.69,-82.94"/>
</g>
<!-- Node6&#45;&gt;Node7 -->
<g id="edge8" class="edge">
<title>Node6&#45;&gt;Node7</title>
<path fill="none" stroke="midnightblue" d="M335,-82.8C346.64,-73.13 359.79,-62.19 371.31,-52.61"/>
<polygon fill="midnightblue" stroke="midnightblue" points="332.67,-80.19 327.22,-89.27 337.15,-85.57 332.67,-80.19"/>
</g>
</g>
</svg>
