<?xml version="1.0" encoding="UTF-8" standalone="no"?>
<!DOCTYPE svg PUBLIC "-//W3C//DTD SVG 1.1//EN"
 "http://www.w3.org/Graphics/SVG/1.1/DTD/svg11.dtd">
<!-- Generated by graphviz version 2.43.0 (0)
 -->
<!-- Title: alps_ros2_lib/include/alps_ros2/ui/joy.hpp Pages: 1 -->
<svg width="558pt" height="93pt"
 viewBox="0.00 0.00 558.00 93.00" xmlns="http://www.w3.org/2000/svg" xmlns:xlink="http://www.w3.org/1999/xlink">
<g id="graph0" class="graph" transform="scale(1 1) rotate(0) translate(4 89)">
<title>alps_ros2_lib/include/alps_ros2/ui/joy.hpp</title>
<!-- Node1 -->
<g id="node1" class="node">
<title>Node1</title>
<g id="a_node1"><a xlink:title="プレイステーションジョイコントローラーのクラス">
<polygon fill="#999999" stroke="#666666" points="255.5,-85 136.5,-85 136.5,-55 255.5,-55 255.5,-85"/>
<text text-anchor="start" x="144.5" y="-73" font-family="Helvetica,sans-Serif" font-size="10.00">alps_ros2_lib/include</text>
<text text-anchor="middle" x="196" y="-62" font-family="Helvetica,sans-Serif" font-size="10.00">/alps_ros2/ui/joy.hpp</text>
</a>
</g>
</g>
<!-- Node2 -->
<g id="node2" class="node">
<title>Node2</title>
<g id="a_node2"><a xlink:title=" ">
<polygon fill="#e0e0e0" stroke="#999999" points="42,-19 0,-19 0,0 42,0 42,-19"/>
<text text-anchor="middle" x="21" y="-7" font-family="Helvetica,sans-Serif" font-size="10.00">array</text>
</a>
</g>
</g>
<!-- Node1&#45;&gt;Node2 -->
<g id="edge1" class="edge">
<title>Node1&#45;&gt;Node2</title>
<path fill="none" stroke="#63b8ff" d="M154.08,-54.99C122.74,-44.51 80.58,-30.42 52.18,-20.92"/>
<polygon fill="#63b8ff" stroke="#63b8ff" points="52.98,-17.5 42.38,-17.65 50.76,-24.14 52.98,-17.5"/>
</g>
<!-- Node3 -->
<g id="node3" class="node">
<title>Node3</title>
<g id="a_node3"><a xlink:title=" ">
<polygon fill="#e0e0e0" stroke="#999999" points="98,-19 60,-19 60,0 98,0 98,-19"/>
<text text-anchor="middle" x="79" y="-7" font-family="Helvetica,sans-Serif" font-size="10.00">map</text>
</a>
</g>
</g>
<!-- Node1&#45;&gt;Node3 -->
<g id="edge2" class="edge">
<title>Node1&#45;&gt;Node3</title>
<path fill="none" stroke="#63b8ff" d="M167.98,-54.99C148.98,-45.49 124.03,-33.02 105.39,-23.69"/>
<polygon fill="#63b8ff" stroke="#63b8ff" points="106.79,-20.48 96.28,-19.14 103.66,-26.74 106.79,-20.48"/>
</g>
<!-- Node4 -->
<g id="node4" class="node">
<title>Node4</title>
<g id="a_node4"><a xlink:title=" ">
<polygon fill="#e0e0e0" stroke="#999999" points="189.5,-19 116.5,-19 116.5,0 189.5,0 189.5,-19"/>
<text text-anchor="middle" x="153" y="-7" font-family="Helvetica,sans-Serif" font-size="10.00">string_view</text>
</a>
</g>
</g>
<!-- Node1&#45;&gt;Node4 -->
<g id="edge3" class="edge">
<title>Node1&#45;&gt;Node4</title>
<path fill="none" stroke="#63b8ff" d="M185.59,-54.84C179.54,-46.61 171.88,-36.18 165.5,-27.51"/>
<polygon fill="#63b8ff" stroke="#63b8ff" points="168.19,-25.25 159.44,-19.27 162.55,-29.4 168.19,-25.25"/>
</g>
<!-- Node5 -->
<g id="node5" class="node">
<title>Node5</title>
<g id="a_node5"><a xlink:title=" ">
<polygon fill="#e0e0e0" stroke="#999999" points="272.5,-19 207.5,-19 207.5,0 272.5,0 272.5,-19"/>
<text text-anchor="middle" x="240" y="-7" font-family="Helvetica,sans-Serif" font-size="10.00">functional</text>
</a>
</g>
</g>
<!-- Node1&#45;&gt;Node5 -->
<g id="edge4" class="edge">
<title>Node1&#45;&gt;Node5</title>
<path fill="none" stroke="#63b8ff" d="M206.65,-54.84C212.84,-46.61 220.69,-36.18 227.21,-27.51"/>
<polygon fill="#63b8ff" stroke="#63b8ff" points="230.19,-29.36 233.41,-19.27 224.6,-25.15 230.19,-29.36"/>
</g>
<!-- Node6 -->
<g id="node6" class="node">
<title>Node6</title>
<g id="a_node6"><a xlink:title=" ">
<polygon fill="#e0e0e0" stroke="#999999" points="389.5,-19 290.5,-19 290.5,0 389.5,0 389.5,-19"/>
<text text-anchor="middle" x="340" y="-7" font-family="Helvetica,sans-Serif" font-size="10.00">rclcpp/rclcpp.hpp</text>
</a>
</g>
</g>
<!-- Node1&#45;&gt;Node6 -->
<g id="edge5" class="edge">
<title>Node1&#45;&gt;Node6</title>
<path fill="none" stroke="#63b8ff" d="M230.49,-54.99C254.52,-45.23 286.27,-32.33 309.4,-22.93"/>
<polygon fill="#63b8ff" stroke="#63b8ff" points="310.79,-26.15 318.73,-19.14 308.15,-19.66 310.79,-26.15"/>
</g>
<!-- Node7 -->
<g id="node7" class="node">
<title>Node7</title>
<g id="a_node7"><a xlink:title=" ">
<polygon fill="#e0e0e0" stroke="#999999" points="550,-19 408,-19 408,0 550,0 550,-19"/>
<text text-anchor="middle" x="479" y="-7" font-family="Helvetica,sans-Serif" font-size="10.00">sensor_msgs/msg/joy.hpp</text>
</a>
</g>
</g>
<!-- Node1&#45;&gt;Node7 -->
<g id="edge6" class="edge">
<title>Node1&#45;&gt;Node7</title>
<path fill="none" stroke="#63b8ff" d="M255.67,-56.67C306.69,-46.12 379.34,-31.1 427.77,-21.09"/>
<polygon fill="#63b8ff" stroke="#63b8ff" points="428.63,-24.49 437.72,-19.03 427.22,-17.63 428.63,-24.49"/>
</g>
</g>
</svg>
