<?xml version="1.0" encoding="UTF-8" standalone="no"?>
<!DOCTYPE svg PUBLIC "-//W3C//DTD SVG 1.1//EN"
 "http://www.w3.org/Graphics/SVG/1.1/DTD/svg11.dtd">
<!-- Generated by graphviz version 2.43.0 (0)
 -->
<!-- Title: alps_common_lib/include/alps_cmn/log/logger.hpp Pages: 1 -->
<svg width="662pt" height="273pt"
 viewBox="0.00 0.00 662.00 273.00" xmlns="http://www.w3.org/2000/svg" xmlns:xlink="http://www.w3.org/1999/xlink">
<g id="graph0" class="graph" transform="scale(1 1) rotate(0) translate(4 269)">
<title>alps_common_lib/include/alps_cmn/log/logger.hpp</title>
<polygon fill="white" stroke="transparent" points="-4,4 -4,-269 658,-269 658,4 -4,4"/>
<!-- Node1 -->
<g id="node1" class="node">
<title>Node1</title>
<g id="a_node1"><a xlink:title=" ">
<polygon fill="#bfbfbf" stroke="black" points="243,-234.5 243,-264.5 383,-264.5 383,-234.5 243,-234.5"/>
<text text-anchor="start" x="251" y="-252.5" font-family="Helvetica,sans-Serif" font-size="10.00">alps_common_lib/include</text>
<text text-anchor="middle" x="313" y="-241.5" font-family="Helvetica,sans-Serif" font-size="10.00">/alps_cmn/log/logger.hpp</text>
</a>
</g>
</g>
<!-- Node2 -->
<g id="node2" class="node">
<title>Node2</title>
<g id="a_node2"><a xlink:href="assert_8hpp.html" target="_top" xlink:title="プリプロセッサ定数で有効無効を設定できる実行時アサーションのマクロ">
<polygon fill="white" stroke="black" points="0,-162 0,-192 140,-192 140,-162 0,-162"/>
<text text-anchor="start" x="8" y="-180" font-family="Helvetica,sans-Serif" font-size="10.00">alps_common_lib/include</text>
<text text-anchor="middle" x="70" y="-169" font-family="Helvetica,sans-Serif" font-size="10.00">/alps_cmn/log/assert.hpp</text>
</a>
</g>
</g>
<!-- Node1&#45;&gt;Node2 -->
<g id="edge1" class="edge">
<title>Node1&#45;&gt;Node2</title>
<path fill="none" stroke="midnightblue" d="M254.97,-231.66C213.36,-219.59 157.92,-203.51 118.62,-192.11"/>
<polygon fill="midnightblue" stroke="midnightblue" points="254.12,-235.06 264.7,-234.49 256.07,-228.34 254.12,-235.06"/>
</g>
<!-- Node3 -->
<g id="node3" class="node">
<title>Node3</title>
<g id="a_node3"><a xlink:href="logging__macros_8hpp.html" target="_top" xlink:title=" ">
<polygon fill="white" stroke="black" points="158,-156.5 158,-197.5 298,-197.5 298,-156.5 158,-156.5"/>
<text text-anchor="start" x="166" y="-185.5" font-family="Helvetica,sans-Serif" font-size="10.00">alps_common_lib/include</text>
<text text-anchor="start" x="166" y="-174.5" font-family="Helvetica,sans-Serif" font-size="10.00">/alps_cmn/log/logging</text>
<text text-anchor="middle" x="228" y="-163.5" font-family="Helvetica,sans-Serif" font-size="10.00">_macros.hpp</text>
</a>
</g>
</g>
<!-- Node1&#45;&gt;Node3 -->
<g id="edge2" class="edge">
<title>Node1&#45;&gt;Node3</title>
<path fill="none" stroke="midnightblue" d="M287.87,-227.66C276.4,-218.15 262.9,-206.94 251.62,-197.59"/>
<polygon fill="midnightblue" stroke="midnightblue" points="285.87,-230.54 295.8,-234.23 290.34,-225.16 285.87,-230.54"/>
</g>
<!-- Node8 -->
<g id="node8" class="node">
<title>Node8</title>
<g id="a_node8"><a xlink:href="alps__mbed__lib_2include_2alps__mbed_2log_2log__writer_8hpp.html" target="_top" xlink:title=" ">
<polygon fill="white" stroke="black" points="316.5,-162 316.5,-192 479.5,-192 479.5,-162 316.5,-162"/>
<text text-anchor="start" x="324.5" y="-180" font-family="Helvetica,sans-Serif" font-size="10.00">alps_mbed_lib/include</text>
<text text-anchor="middle" x="398" y="-169" font-family="Helvetica,sans-Serif" font-size="10.00">/alps_mbed/log/log_writer.hpp</text>
</a>
</g>
</g>
<!-- Node1&#45;&gt;Node8 -->
<g id="edge8" class="edge">
<title>Node1&#45;&gt;Node8</title>
<path fill="none" stroke="midnightblue" d="M337.97,-227.79C351.86,-216.27 368.78,-202.23 381.11,-192"/>
<polygon fill="midnightblue" stroke="midnightblue" points="335.66,-225.16 330.2,-234.23 340.13,-230.54 335.66,-225.16"/>
</g>
<!-- Node9 -->
<g id="node9" class="node">
<title>Node9</title>
<g id="a_node9"><a xlink:href="alps__ros2__lib_2include_2alps__ros2_2log_2log__writer_8hpp.html" target="_top" xlink:title=" ">
<polygon fill="white" stroke="black" points="498,-162 498,-192 654,-192 654,-162 498,-162"/>
<text text-anchor="start" x="506" y="-180" font-family="Helvetica,sans-Serif" font-size="10.00">alps_ros2_lib/include</text>
<text text-anchor="middle" x="576" y="-169" font-family="Helvetica,sans-Serif" font-size="10.00">/alps_ros2/log/log_writer.hpp</text>
</a>
</g>
</g>
<!-- Node1&#45;&gt;Node9 -->
<g id="edge9" class="edge">
<title>Node1&#45;&gt;Node9</title>
<path fill="none" stroke="midnightblue" d="M374.95,-231.89C420.09,-219.79 480.57,-203.58 523.37,-192.11"/>
<polygon fill="midnightblue" stroke="midnightblue" points="374.03,-228.52 365.27,-234.49 375.84,-235.28 374.03,-228.52"/>
</g>
<!-- Node4 -->
<g id="node4" class="node">
<title>Node4</title>
<g id="a_node4"><a xlink:href="robomas__motor_8hpp.html" target="_top" xlink:title="ロボマスモータのライブラリ">
<polygon fill="white" stroke="black" points="34.5,-0.5 34.5,-41.5 189.5,-41.5 189.5,-0.5 34.5,-0.5"/>
<text text-anchor="start" x="42.5" y="-29.5" font-family="Helvetica,sans-Serif" font-size="10.00">alps_common_lib/include</text>
<text text-anchor="start" x="42.5" y="-18.5" font-family="Helvetica,sans-Serif" font-size="10.00">/alps_cmn/actuator/robomas</text>
<text text-anchor="middle" x="112" y="-7.5" font-family="Helvetica,sans-Serif" font-size="10.00">_motor.hpp</text>
</a>
</g>
</g>
<!-- Node3&#45;&gt;Node4 -->
<g id="edge3" class="edge">
<title>Node3&#45;&gt;Node4</title>
<path fill="none" stroke="midnightblue" d="M167.12,-151.44C153.41,-143.3 140.21,-132.92 131,-120 114.4,-96.72 111.31,-62.74 111.2,-41.52"/>
<polygon fill="midnightblue" stroke="midnightblue" points="165.72,-154.66 176.16,-156.47 169.12,-148.55 165.72,-154.66"/>
</g>
<!-- Node5 -->
<g id="node5" class="node">
<title>Node5</title>
<g id="a_node5"><a xlink:href="can__typed__data__transceiver_8hpp.html" target="_top" xlink:title="CAN通信で型付けされたデータの送受信を行うライブラリ">
<polygon fill="white" stroke="black" points="139.5,-78.5 139.5,-119.5 316.5,-119.5 316.5,-78.5 139.5,-78.5"/>
<text text-anchor="start" x="147.5" y="-107.5" font-family="Helvetica,sans-Serif" font-size="10.00">alps_common_lib/include</text>
<text text-anchor="start" x="147.5" y="-96.5" font-family="Helvetica,sans-Serif" font-size="10.00">/alps_cmn/communication</text>
<text text-anchor="middle" x="228" y="-85.5" font-family="Helvetica,sans-Serif" font-size="10.00">/can_typed_data_transceiver.hpp</text>
</a>
</g>
</g>
<!-- Node3&#45;&gt;Node5 -->
<g id="edge4" class="edge">
<title>Node3&#45;&gt;Node5</title>
<path fill="none" stroke="midnightblue" d="M228,-146.3C228,-137.3 228,-127.65 228,-119.51"/>
<polygon fill="midnightblue" stroke="midnightblue" points="224.5,-146.43 228,-156.43 231.5,-146.43 224.5,-146.43"/>
</g>
<!-- Node7 -->
<g id="node7" class="node">
<title>Node7</title>
<g id="a_node7"><a xlink:href="motor__friction__analyzer_8hpp.html" target="_top" xlink:title="モーター軸の摩擦力を計測するクラス">
<polygon fill="white" stroke="black" points="335,-78.5 335,-119.5 495,-119.5 495,-78.5 335,-78.5"/>
<text text-anchor="start" x="343" y="-107.5" font-family="Helvetica,sans-Serif" font-size="10.00">alps_common_lib/include</text>
<text text-anchor="start" x="343" y="-96.5" font-family="Helvetica,sans-Serif" font-size="10.00">/alps_cmn/tool/motor_friction</text>
<text text-anchor="middle" x="415" y="-85.5" font-family="Helvetica,sans-Serif" font-size="10.00">_analyzer.hpp</text>
</a>
</g>
</g>
<!-- Node3&#45;&gt;Node7 -->
<g id="edge7" class="edge">
<title>Node3&#45;&gt;Node7</title>
<path fill="none" stroke="midnightblue" d="M285.56,-152.61C311.66,-142 342.16,-129.6 367.01,-119.51"/>
<polygon fill="midnightblue" stroke="midnightblue" points="284.1,-149.42 276.16,-156.43 286.74,-155.91 284.1,-149.42"/>
</g>
<!-- Node5&#45;&gt;Node4 -->
<g id="edge5" class="edge">
<title>Node5&#45;&gt;Node4</title>
<path fill="none" stroke="midnightblue" d="M189.72,-72.92C174.12,-62.7 156.37,-51.07 141.77,-41.51"/>
<polygon fill="midnightblue" stroke="midnightblue" points="187.84,-75.88 198.13,-78.43 191.68,-70.02 187.84,-75.88"/>
</g>
<!-- Node6 -->
<g id="node6" class="node">
<title>Node6</title>
<g id="a_node6"><a xlink:href="can__topic__converter_8hpp.html" target="_top" xlink:title=" ">
<polygon fill="white" stroke="black" points="207.5,-0.5 207.5,-41.5 352.5,-41.5 352.5,-0.5 207.5,-0.5"/>
<text text-anchor="start" x="215.5" y="-29.5" font-family="Helvetica,sans-Serif" font-size="10.00">alps_ros2_lib/include</text>
<text text-anchor="start" x="215.5" y="-18.5" font-family="Helvetica,sans-Serif" font-size="10.00">/alps_ros2/communication</text>
<text text-anchor="middle" x="280" y="-7.5" font-family="Helvetica,sans-Serif" font-size="10.00">/can_topic_converter.hpp</text>
</a>
</g>
</g>
<!-- Node5&#45;&gt;Node6 -->
<g id="edge6" class="edge">
<title>Node5&#45;&gt;Node6</title>
<path fill="none" stroke="midnightblue" d="M247.13,-70.05C253.61,-60.57 260.72,-50.18 266.65,-41.51"/>
<polygon fill="midnightblue" stroke="midnightblue" points="244.15,-68.2 241.39,-78.43 249.93,-72.15 244.15,-68.2"/>
</g>
</g>
</svg>
