<?xml version="1.0" encoding="UTF-8" standalone="no"?>
<!DOCTYPE svg PUBLIC "-//W3C//DTD SVG 1.1//EN"
 "http://www.w3.org/Graphics/SVG/1.1/DTD/svg11.dtd">
<!-- Generated by graphviz version 2.43.0 (0)
 -->
<!-- Title: alps_common_lib/include/alps_cmn/log/logger.hpp Pages: 1 -->
<svg width="664pt" height="269pt"
 viewBox="0.00 0.00 663.50 269.00" xmlns="http://www.w3.org/2000/svg" xmlns:xlink="http://www.w3.org/1999/xlink">
<g id="graph0" class="graph" transform="scale(1 1) rotate(0) translate(4 265)">
<title>alps_common_lib/include/alps_cmn/log/logger.hpp</title>
<!-- Node1 -->
<g id="node1" class="node">
<title>Node1</title>
<g id="a_node1"><a xlink:title=" ">
<polygon fill="#999999" stroke="#666666" points="383,-261 243,-261 243,-231 383,-231 383,-261"/>
<text text-anchor="start" x="251" y="-249" font-family="Helvetica,sans-Serif" font-size="10.00">alps_common_lib/include</text>
<text text-anchor="middle" x="313" y="-238" font-family="Helvetica,sans-Serif" font-size="10.00">/alps_cmn/log/logger.hpp</text>
</a>
</g>
</g>
<!-- Node2 -->
<g id="node2" class="node">
<title>Node2</title>
<g id="a_node2"><a xlink:href="assert_8hpp.html" target="_top" xlink:title="プリプロセッサ定数で有効無効を設定できる実行時アサーションのマクロ">
<polygon fill="white" stroke="#666666" points="140,-189.5 0,-189.5 0,-159.5 140,-159.5 140,-189.5"/>
<text text-anchor="start" x="8" y="-177.5" font-family="Helvetica,sans-Serif" font-size="10.00">alps_common_lib/include</text>
<text text-anchor="middle" x="70" y="-166.5" font-family="Helvetica,sans-Serif" font-size="10.00">/alps_cmn/log/assert.hpp</text>
</a>
</g>
</g>
<!-- Node1&#45;&gt;Node2 -->
<g id="edge1" class="edge">
<title>Node1&#45;&gt;Node2</title>
<path fill="none" stroke="#63b8ff" d="M254.15,-228.17C212.8,-216.34 158.11,-200.7 119.1,-189.54"/>
<polygon fill="#63b8ff" stroke="#63b8ff" points="253.25,-231.55 263.83,-230.94 255.17,-224.82 253.25,-231.55"/>
</g>
<!-- Node3 -->
<g id="node3" class="node">
<title>Node3</title>
<g id="a_node3"><a xlink:href="logging__macros_8hpp.html" target="_top" xlink:title=" ">
<polygon fill="white" stroke="#666666" points="298,-195 158,-195 158,-154 298,-154 298,-195"/>
<text text-anchor="start" x="166" y="-183" font-family="Helvetica,sans-Serif" font-size="10.00">alps_common_lib/include</text>
<text text-anchor="start" x="166" y="-172" font-family="Helvetica,sans-Serif" font-size="10.00">/alps_cmn/log/logging</text>
<text text-anchor="middle" x="228" y="-161" font-family="Helvetica,sans-Serif" font-size="10.00">_macros.hpp</text>
</a>
</g>
</g>
<!-- Node1&#45;&gt;Node3 -->
<g id="edge2" class="edge">
<title>Node1&#45;&gt;Node3</title>
<path fill="none" stroke="#63b8ff" d="M287.93,-224.5C276.56,-215.21 263.17,-204.26 251.94,-195.07"/>
<polygon fill="#63b8ff" stroke="#63b8ff" points="285.84,-227.32 295.8,-230.94 290.27,-221.9 285.84,-227.32"/>
</g>
<!-- Node8 -->
<g id="node8" class="node">
<title>Node8</title>
<g id="a_node8"><a xlink:href="alps__mbed__lib_2include_2alps__mbed_2log_2log__writer_8hpp.html" target="_top" xlink:title=" ">
<polygon fill="white" stroke="#666666" points="480,-189.5 316,-189.5 316,-159.5 480,-159.5 480,-189.5"/>
<text text-anchor="start" x="324" y="-177.5" font-family="Helvetica,sans-Serif" font-size="10.00">alps_mbed_lib/include</text>
<text text-anchor="middle" x="398" y="-166.5" font-family="Helvetica,sans-Serif" font-size="10.00">/alps_mbed/log/log_writer.hpp</text>
</a>
</g>
</g>
<!-- Node1&#45;&gt;Node8 -->
<g id="edge8" class="edge">
<title>Node1&#45;&gt;Node8</title>
<path fill="none" stroke="#63b8ff" d="M338.31,-224.31C352.02,-213.09 368.62,-199.52 380.82,-189.54"/>
<polygon fill="#63b8ff" stroke="#63b8ff" points="335.73,-221.9 330.2,-230.94 340.16,-227.32 335.73,-221.9"/>
</g>
<!-- Node9 -->
<g id="node9" class="node">
<title>Node9</title>
<g id="a_node9"><a xlink:href="alps__ros2__lib_2include_2alps__ros2_2log_2log__writer_8hpp.html" target="_top" xlink:title=" ">
<polygon fill="white" stroke="#666666" points="655.5,-189.5 498.5,-189.5 498.5,-159.5 655.5,-159.5 655.5,-189.5"/>
<text text-anchor="start" x="506.5" y="-177.5" font-family="Helvetica,sans-Serif" font-size="10.00">alps_ros2_lib/include</text>
<text text-anchor="middle" x="577" y="-166.5" font-family="Helvetica,sans-Serif" font-size="10.00">/alps_ros2/log/log_writer.hpp</text>
</a>
</g>
</g>
<!-- Node1&#45;&gt;Node9 -->
<g id="edge9" class="edge">
<title>Node1&#45;&gt;Node9</title>
<path fill="none" stroke="#63b8ff" d="M376.37,-228.32C421.36,-216.47 481.09,-200.75 523.66,-189.54"/>
<polygon fill="#63b8ff" stroke="#63b8ff" points="375.2,-225.01 366.42,-230.94 376.99,-231.77 375.2,-225.01"/>
</g>
<!-- Node4 -->
<g id="node4" class="node">
<title>Node4</title>
<g id="a_node4"><a xlink:href="robomas__motor_8hpp.html" target="_top" xlink:title="ロボマスモータのライブラリ">
<polygon fill="white" stroke="#666666" points="188.5,-41 33.5,-41 33.5,0 188.5,0 188.5,-41"/>
<text text-anchor="start" x="41.5" y="-29" font-family="Helvetica,sans-Serif" font-size="10.00">alps_common_lib/include</text>
<text text-anchor="start" x="41.5" y="-18" font-family="Helvetica,sans-Serif" font-size="10.00">/alps_cmn/actuator/robomas</text>
<text text-anchor="middle" x="111" y="-7" font-family="Helvetica,sans-Serif" font-size="10.00">_motor.hpp</text>
</a>
</g>
</g>
<!-- Node3&#45;&gt;Node4 -->
<g id="edge3" class="edge">
<title>Node3&#45;&gt;Node4</title>
<path fill="none" stroke="#63b8ff" d="M165.9,-148.98C152.28,-140.96 139.2,-130.75 130,-118 113.62,-95.29 110.43,-62.07 110.25,-41.13"/>
<polygon fill="#63b8ff" stroke="#63b8ff" points="164.45,-152.17 174.9,-153.93 167.83,-146.04 164.45,-152.17"/>
</g>
<!-- Node5 -->
<g id="node5" class="node">
<title>Node5</title>
<g id="a_node5"><a xlink:href="can__typed__data__transceiver_8hpp.html" target="_top" xlink:title="CAN通信で型付けされたデータの送受信を行うライブラリ">
<polygon fill="white" stroke="#666666" points="317,-118 139,-118 139,-77 317,-77 317,-118"/>
<text text-anchor="start" x="147" y="-106" font-family="Helvetica,sans-Serif" font-size="10.00">alps_common_lib/include</text>
<text text-anchor="start" x="147" y="-95" font-family="Helvetica,sans-Serif" font-size="10.00">/alps_cmn/communication</text>
<text text-anchor="middle" x="228" y="-84" font-family="Helvetica,sans-Serif" font-size="10.00">/can_typed_data_transceiver.hpp</text>
</a>
</g>
</g>
<!-- Node3&#45;&gt;Node5 -->
<g id="edge4" class="edge">
<title>Node3&#45;&gt;Node5</title>
<path fill="none" stroke="#63b8ff" d="M228,-143.69C228,-135.08 228,-125.9 228,-118.07"/>
<polygon fill="#63b8ff" stroke="#63b8ff" points="224.5,-143.79 228,-153.79 231.5,-143.79 224.5,-143.79"/>
</g>
<!-- Node7 -->
<g id="node7" class="node">
<title>Node7</title>
<g id="a_node7"><a xlink:href="motor__friction__analyzer_8hpp.html" target="_top" xlink:title="モーター軸の摩擦力を計測するクラス">
<polygon fill="white" stroke="#666666" points="495,-118 335,-118 335,-77 495,-77 495,-118"/>
<text text-anchor="start" x="343" y="-106" font-family="Helvetica,sans-Serif" font-size="10.00">alps_common_lib/include</text>
<text text-anchor="start" x="343" y="-95" font-family="Helvetica,sans-Serif" font-size="10.00">/alps_cmn/tool/motor_friction</text>
<text text-anchor="middle" x="415" y="-84" font-family="Helvetica,sans-Serif" font-size="10.00">_analyzer.hpp</text>
</a>
</g>
</g>
<!-- Node3&#45;&gt;Node7 -->
<g id="edge7" class="edge">
<title>Node3&#45;&gt;Node7</title>
<path fill="none" stroke="#63b8ff" d="M285.93,-150.27C311.69,-139.94 341.69,-127.9 366.28,-118.04"/>
<polygon fill="#63b8ff" stroke="#63b8ff" points="284.62,-147.02 276.64,-153.99 287.23,-153.52 284.62,-147.02"/>
</g>
<!-- Node5&#45;&gt;Node4 -->
<g id="edge5" class="edge">
<title>Node5&#45;&gt;Node4</title>
<path fill="none" stroke="#63b8ff" d="M188.8,-71.37C173.45,-61.53 156.1,-50.41 141.69,-41.17"/>
<polygon fill="#63b8ff" stroke="#63b8ff" points="187.26,-74.54 197.57,-76.99 191.04,-68.65 187.26,-74.54"/>
</g>
<!-- Node6 -->
<g id="node6" class="node">
<title>Node6</title>
<g id="a_node6"><a xlink:href="can__topic__converter_8hpp.html" target="_top" xlink:title=" ">
<polygon fill="white" stroke="#666666" points="351.5,-41 206.5,-41 206.5,0 351.5,0 351.5,-41"/>
<text text-anchor="start" x="214.5" y="-29" font-family="Helvetica,sans-Serif" font-size="10.00">alps_ros2_lib/include</text>
<text text-anchor="start" x="214.5" y="-18" font-family="Helvetica,sans-Serif" font-size="10.00">/alps_ros2/communication</text>
<text text-anchor="middle" x="279" y="-7" font-family="Helvetica,sans-Serif" font-size="10.00">/can_topic_converter.hpp</text>
</a>
</g>
</g>
<!-- Node5&#45;&gt;Node6 -->
<g id="edge6" class="edge">
<title>Node5&#45;&gt;Node6</title>
<path fill="none" stroke="#63b8ff" d="M247.11,-68.39C253.3,-59.3 260.02,-49.41 265.69,-41.07"/>
<polygon fill="#63b8ff" stroke="#63b8ff" points="244.13,-66.56 241.4,-76.79 249.92,-70.49 244.13,-66.56"/>
</g>
</g>
</svg>
