<?xml version="1.0" encoding="UTF-8" standalone="no"?>
<!DOCTYPE svg PUBLIC "-//W3C//DTD SVG 1.1//EN"
 "http://www.w3.org/Graphics/SVG/1.1/DTD/svg11.dtd">
<!-- Generated by graphviz version 2.43.0 (0)
 -->
<!-- Title: alps_core/lib_internal/alps_common_lib/include/alps_cmn/log/logging_macros.hpp Pages: 1 -->
<svg width="818pt" height="313pt"
 viewBox="0.00 0.00 817.50 313.00" xmlns="http://www.w3.org/2000/svg" xmlns:xlink="http://www.w3.org/1999/xlink">
<g id="graph0" class="graph" transform="scale(1 1) rotate(0) translate(4 309)">
<title>alps_core/lib_internal/alps_common_lib/include/alps_cmn/log/logging_macros.hpp</title>
<!-- Node1 -->
<g id="Node000001" class="node">
<title>Node1</title>
<g id="a_Node000001"><a xlink:title=" ">
<polygon fill="#999999" stroke="#666666" points="528,-305 343,-305 343,-264 528,-264 528,-305"/>
<text text-anchor="start" x="351" y="-293" font-family="Helvetica,sans-Serif" font-size="10.00">alps_core/lib_internal</text>
<text text-anchor="start" x="351" y="-282" font-family="Helvetica,sans-Serif" font-size="10.00">/alps_common_lib/include</text>
<text text-anchor="middle" x="435.5" y="-271" font-family="Helvetica,sans-Serif" font-size="10.00">/alps_cmn/log/logging_macros.hpp</text>
</a>
</g>
</g>
<!-- Node2 -->
<g id="Node000002" class="node">
<title>Node2</title>
<g id="a_Node000002"><a xlink:href="robomas__motor_8hpp.html" target="_top" xlink:title="ロボマスモータのライブラリ">
<polygon fill="white" stroke="#666666" points="155,-140 0,-140 0,-88 155,-88 155,-140"/>
<text text-anchor="start" x="8" y="-128" font-family="Helvetica,sans-Serif" font-size="10.00">alps_core/lib_internal</text>
<text text-anchor="start" x="8" y="-117" font-family="Helvetica,sans-Serif" font-size="10.00">/alps_common_lib/include</text>
<text text-anchor="start" x="8" y="-106" font-family="Helvetica,sans-Serif" font-size="10.00">/alps_cmn/actuator/robomas</text>
<text text-anchor="middle" x="77.5" y="-95" font-family="Helvetica,sans-Serif" font-size="10.00">_motor.hpp</text>
</a>
</g>
</g>
<!-- Node1&#45;&gt;Node2 -->
<g id="edge1_Node000001_Node000002" class="edge">
<title>Node1&#45;&gt;Node2</title>
<g id="a_edge1_Node000001_Node000002"><a xlink:title=" ">
<path fill="none" stroke="#63b8ff" d="M340.57,-261.19C310.43,-252.58 277.44,-241.49 248.5,-228 196.57,-203.79 142.33,-165.34 109.22,-140.13"/>
<polygon fill="#63b8ff" stroke="#63b8ff" points="339.67,-264.58 350.24,-263.9 341.56,-257.84 339.67,-264.58"/>
</a>
</g>
</g>
<!-- Node3 -->
<g id="Node000003" class="node">
<title>Node3</title>
<g id="a_Node000003"><a xlink:href="can__typed__data__transceiver_8hpp.html" target="_top" xlink:title="CAN通信で型付けされたデータの送受信を行うライブラリ">
<polygon fill="white" stroke="#666666" points="435,-228 258,-228 258,-176 435,-176 435,-228"/>
<text text-anchor="start" x="266" y="-216" font-family="Helvetica,sans-Serif" font-size="10.00">alps_core/lib_internal</text>
<text text-anchor="start" x="266" y="-205" font-family="Helvetica,sans-Serif" font-size="10.00">/alps_common_lib/include</text>
<text text-anchor="start" x="266" y="-194" font-family="Helvetica,sans-Serif" font-size="10.00">/alps_cmn/communication</text>
<text text-anchor="middle" x="346.5" y="-183" font-family="Helvetica,sans-Serif" font-size="10.00">/can_typed_data_transceiver.hpp</text>
</a>
</g>
</g>
<!-- Node1&#45;&gt;Node3 -->
<g id="edge2_Node000001_Node000003" class="edge">
<title>Node1&#45;&gt;Node3</title>
<g id="a_edge2_Node000001_Node000003"><a xlink:title=" ">
<path fill="none" stroke="#63b8ff" d="M405.97,-256.79C395.77,-247.56 384.37,-237.26 374.31,-228.16"/>
<polygon fill="#63b8ff" stroke="#63b8ff" points="403.74,-259.49 413.5,-263.6 408.43,-254.3 403.74,-259.49"/>
</a>
</g>
</g>
<!-- Node9 -->
<g id="Node000009" class="node">
<title>Node9</title>
<g id="a_Node000009"><a xlink:href="odrive__can_8h.html" target="_top" xlink:title=" ">
<polygon fill="white" stroke="#666666" points="631,-228 486,-228 486,-176 631,-176 631,-228"/>
<text text-anchor="start" x="494" y="-216" font-family="Helvetica,sans-Serif" font-size="10.00">alps_core/lib_internal</text>
<text text-anchor="start" x="494" y="-205" font-family="Helvetica,sans-Serif" font-size="10.00">/alps_common_lib/include</text>
<text text-anchor="start" x="494" y="-194" font-family="Helvetica,sans-Serif" font-size="10.00">/alps_cmn/communication</text>
<text text-anchor="middle" x="558.5" y="-183" font-family="Helvetica,sans-Serif" font-size="10.00">/odrive_can.h</text>
</a>
</g>
</g>
<!-- Node1&#45;&gt;Node9 -->
<g id="edge10_Node000001_Node000009" class="edge">
<title>Node1&#45;&gt;Node9</title>
<g id="a_edge10_Node000001_Node000009"><a xlink:title=" ">
<path fill="none" stroke="#63b8ff" d="M474.35,-258.08C488.88,-248.57 505.37,-237.77 519.88,-228.28"/>
<polygon fill="#63b8ff" stroke="#63b8ff" points="472.04,-255.4 465.59,-263.81 475.87,-261.26 472.04,-255.4"/>
</a>
</g>
</g>
<!-- Node12 -->
<g id="Node000012" class="node">
<title>Node12</title>
<g id="a_Node000012"><a xlink:href="motor__friction__analyzer_8hpp.html" target="_top" xlink:title="モーター軸の摩擦力を計測するクラス">
<polygon fill="white" stroke="#666666" points="809.5,-228 649.5,-228 649.5,-176 809.5,-176 809.5,-228"/>
<text text-anchor="start" x="657.5" y="-216" font-family="Helvetica,sans-Serif" font-size="10.00">alps_core/lib_internal</text>
<text text-anchor="start" x="657.5" y="-205" font-family="Helvetica,sans-Serif" font-size="10.00">/alps_common_lib/include</text>
<text text-anchor="start" x="657.5" y="-194" font-family="Helvetica,sans-Serif" font-size="10.00">/alps_cmn/tool/motor_friction</text>
<text text-anchor="middle" x="729.5" y="-183" font-family="Helvetica,sans-Serif" font-size="10.00">_analyzer.hpp</text>
</a>
</g>
</g>
<!-- Node1&#45;&gt;Node12 -->
<g id="edge14_Node000001_Node000012" class="edge">
<title>Node1&#45;&gt;Node12</title>
<g id="a_edge14_Node000001_Node000012"><a xlink:title=" ">
<path fill="none" stroke="#63b8ff" d="M518.43,-261.24C555.76,-251.17 600.37,-239.07 640.5,-228 643.44,-227.19 646.43,-226.36 649.46,-225.52"/>
<polygon fill="#63b8ff" stroke="#63b8ff" points="517.35,-257.91 508.6,-263.89 519.17,-264.67 517.35,-257.91"/>
</a>
</g>
</g>
<!-- Node3&#45;&gt;Node2 -->
<g id="edge3_Node000003_Node000002" class="edge">
<title>Node3&#45;&gt;Node2</title>
<g id="a_edge3_Node000003_Node000002"><a xlink:title=" ">
<path fill="none" stroke="#63b8ff" d="M258.26,-172.79C224.99,-162.15 187.43,-150.14 155.2,-139.84"/>
<polygon fill="#63b8ff" stroke="#63b8ff" points="257.38,-176.18 267.97,-175.89 259.51,-169.52 257.38,-176.18"/>
</a>
</g>
</g>
<!-- Node4 -->
<g id="Node000004" class="node">
<title>Node4</title>
<g id="a_Node000004"><a xlink:href="can__param_8hpp.html" target="_top" xlink:title=" ">
<polygon fill="white" stroke="#666666" points="318,-140 173,-140 173,-88 318,-88 318,-140"/>
<text text-anchor="start" x="181" y="-128" font-family="Helvetica,sans-Serif" font-size="10.00">alps_core/lib_internal</text>
<text text-anchor="start" x="181" y="-117" font-family="Helvetica,sans-Serif" font-size="10.00">/alps_common_lib/include</text>
<text text-anchor="start" x="181" y="-106" font-family="Helvetica,sans-Serif" font-size="10.00">/alps_cmn/communication</text>
<text text-anchor="middle" x="245.5" y="-95" font-family="Helvetica,sans-Serif" font-size="10.00">/can_param.hpp</text>
</a>
</g>
</g>
<!-- Node3&#45;&gt;Node4 -->
<g id="edge4_Node000003_Node000004" class="edge">
<title>Node3&#45;&gt;Node4</title>
<g id="a_edge4_Node000003_Node000004"><a xlink:title=" ">
<path fill="none" stroke="#63b8ff" d="M309.4,-169.41C298.13,-159.82 285.91,-149.41 275.2,-140.29"/>
<polygon fill="#63b8ff" stroke="#63b8ff" points="307.13,-172.08 317.02,-175.89 311.67,-166.75 307.13,-172.08"/>
</a>
</g>
</g>
<!-- Node6 -->
<g id="Node000006" class="node">
<title>Node6</title>
<g id="a_Node000006"><a xlink:href="can__topic__bridge_8hpp.html" target="_top" xlink:title=" ">
<polygon fill="white" stroke="#666666" points="417,-52 272,-52 272,0 417,0 417,-52"/>
<text text-anchor="start" x="280" y="-40" font-family="Helvetica,sans-Serif" font-size="10.00">alps_core/lib_internal</text>
<text text-anchor="start" x="280" y="-29" font-family="Helvetica,sans-Serif" font-size="10.00">/alps_ros2_lib/include</text>
<text text-anchor="start" x="280" y="-18" font-family="Helvetica,sans-Serif" font-size="10.00">/alps_ros2/communication</text>
<text text-anchor="middle" x="344.5" y="-7" font-family="Helvetica,sans-Serif" font-size="10.00">/can_topic_bridge.hpp</text>
</a>
</g>
</g>
<!-- Node3&#45;&gt;Node6 -->
<g id="edge6_Node000003_Node000006" class="edge">
<title>Node3&#45;&gt;Node6</title>
<g id="a_edge6_Node000003_Node000006"><a xlink:title=" ">
<path fill="none" stroke="#63b8ff" d="M346.09,-165.35C345.7,-131.6 345.13,-81.79 344.79,-52.05"/>
<polygon fill="#63b8ff" stroke="#63b8ff" points="342.59,-165.74 346.21,-175.7 349.59,-165.66 342.59,-165.74"/>
</a>
</g>
</g>
<!-- Node7 -->
<g id="Node000007" class="node">
<title>Node7</title>
<g id="a_Node000007"><a xlink:href="topic__converter_8hpp.html" target="_top" xlink:title=" ">
<polygon fill="white" stroke="#666666" points="564.5,-134.5 374.5,-134.5 374.5,-93.5 564.5,-93.5 564.5,-134.5"/>
<text text-anchor="start" x="382.5" y="-122.5" font-family="Helvetica,sans-Serif" font-size="10.00">alps_core/lib_internal</text>
<text text-anchor="start" x="382.5" y="-111.5" font-family="Helvetica,sans-Serif" font-size="10.00">/alps_ros2_lib/include</text>
<text text-anchor="middle" x="469.5" y="-100.5" font-family="Helvetica,sans-Serif" font-size="10.00">/alps_ros2/type/topic_converter.hpp</text>
</a>
</g>
</g>
<!-- Node3&#45;&gt;Node7 -->
<g id="edge7_Node000003_Node000007" class="edge">
<title>Node3&#45;&gt;Node7</title>
<g id="a_edge7_Node000003_Node000007"><a xlink:title=" ">
<path fill="none" stroke="#63b8ff" d="M391.04,-169.86C407.91,-158.06 426.64,-144.97 441.57,-134.53"/>
<polygon fill="#63b8ff" stroke="#63b8ff" points="388.6,-167.3 382.41,-175.89 392.61,-173.03 388.6,-167.3"/>
</a>
</g>
</g>
<!-- Node5 -->
<g id="Node000005" class="node">
<title>Node5</title>
<g id="a_Node000005"><a xlink:href="can__param__bridge_8hpp.html" target="_top" xlink:title=" ">
<polygon fill="white" stroke="#666666" points="254,-52 109,-52 109,0 254,0 254,-52"/>
<text text-anchor="start" x="117" y="-40" font-family="Helvetica,sans-Serif" font-size="10.00">alps_core/lib_internal</text>
<text text-anchor="start" x="117" y="-29" font-family="Helvetica,sans-Serif" font-size="10.00">/alps_ros2_lib/include</text>
<text text-anchor="start" x="117" y="-18" font-family="Helvetica,sans-Serif" font-size="10.00">/alps_ros2/communication</text>
<text text-anchor="middle" x="181.5" y="-7" font-family="Helvetica,sans-Serif" font-size="10.00">/can_param_bridge.hpp</text>
</a>
</g>
</g>
<!-- Node4&#45;&gt;Node5 -->
<g id="edge5_Node000004_Node000005" class="edge">
<title>Node4&#45;&gt;Node5</title>
<g id="a_edge5_Node000004_Node000005"><a xlink:title=" ">
<path fill="none" stroke="#63b8ff" d="M220.58,-79.52C213.81,-70.42 206.59,-60.71 200.22,-52.16"/>
<polygon fill="#63b8ff" stroke="#63b8ff" points="217.87,-81.73 226.64,-87.66 223.48,-77.55 217.87,-81.73"/>
</a>
</g>
</g>
<!-- Node7&#45;&gt;Node6 -->
<g id="edge8_Node000007_Node000006" class="edge">
<title>Node7&#45;&gt;Node6</title>
<g id="a_edge8_Node000007_Node000006"><a xlink:title=" ">
<path fill="none" stroke="#63b8ff" d="M432.48,-87.53C416.32,-76.41 397.43,-63.41 381.3,-52.32"/>
<polygon fill="#63b8ff" stroke="#63b8ff" points="430.91,-90.7 441.14,-93.49 434.88,-84.93 430.91,-90.7"/>
</a>
</g>
</g>
<!-- Node8 -->
<g id="Node000008" class="node">
<title>Node8</title>
<g id="a_Node000008"><a xlink:href="custom__type__topic__conversion__rule_8hpp.html" target="_top" xlink:title=" ">
<polygon fill="white" stroke="#666666" points="611.5,-52 435.5,-52 435.5,0 611.5,0 611.5,-52"/>
<text text-anchor="start" x="443.5" y="-40" font-family="Helvetica,sans-Serif" font-size="10.00">alps_core/lib_internal</text>
<text text-anchor="start" x="443.5" y="-29" font-family="Helvetica,sans-Serif" font-size="10.00">/alps_ros2_lib/include</text>
<text text-anchor="start" x="443.5" y="-18" font-family="Helvetica,sans-Serif" font-size="10.00">/alps_ros2/type/custom</text>
<text text-anchor="middle" x="523.5" y="-7" font-family="Helvetica,sans-Serif" font-size="10.00">_type_topic_conversion_rule.hpp</text>
</a>
</g>
</g>
<!-- Node7&#45;&gt;Node8 -->
<g id="edge9_Node000007_Node000008" class="edge">
<title>Node7&#45;&gt;Node8</title>
<g id="a_edge9_Node000007_Node000008"><a xlink:title=" ">
<path fill="none" stroke="#63b8ff" d="M487.26,-84.71C493.82,-74.26 501.22,-62.49 507.6,-52.32"/>
<polygon fill="#63b8ff" stroke="#63b8ff" points="484.11,-83.16 481.75,-93.49 490.04,-86.88 484.11,-83.16"/>
</a>
</g>
</g>
<!-- Node10 -->
<g id="Node000010" class="node">
<title>Node10</title>
<g id="a_Node000010"><a xlink:href="odrive__can__func_8hpp.html" target="_top" xlink:title=" ">
<polygon fill="white" stroke="#666666" points="779.5,-52 629.5,-52 629.5,0 779.5,0 779.5,-52"/>
<text text-anchor="start" x="637.5" y="-40" font-family="Helvetica,sans-Serif" font-size="10.00">alps_core/lib_internal</text>
<text text-anchor="start" x="637.5" y="-29" font-family="Helvetica,sans-Serif" font-size="10.00">/alps_mbed_lib/include</text>
<text text-anchor="start" x="637.5" y="-18" font-family="Helvetica,sans-Serif" font-size="10.00">/alps_mbed/actuator/odrive</text>
<text text-anchor="middle" x="704.5" y="-7" font-family="Helvetica,sans-Serif" font-size="10.00">_can_func.hpp</text>
</a>
</g>
</g>
<!-- Node9&#45;&gt;Node10 -->
<g id="edge11_Node000009_Node000010" class="edge">
<title>Node9&#45;&gt;Node10</title>
<g id="a_edge11_Node000009_Node000010"><a xlink:title=" ">
<path fill="none" stroke="#63b8ff" d="M571.9,-166.23C582.21,-142.45 598.14,-111.17 618.5,-88 630.58,-74.25 646.35,-61.93 661.08,-52.03"/>
<polygon fill="#63b8ff" stroke="#63b8ff" points="568.61,-165.01 567.96,-175.59 575.07,-167.73 568.61,-165.01"/>
</a>
</g>
</g>
<!-- Node11 -->
<g id="Node000011" class="node">
<title>Node11</title>
<g id="a_Node000011"><a xlink:href="odrive__can__mbed_8hpp.html" target="_top" xlink:title=" ">
<polygon fill="white" stroke="#666666" points="779.5,-140 627.5,-140 627.5,-88 779.5,-88 779.5,-140"/>
<text text-anchor="start" x="635.5" y="-128" font-family="Helvetica,sans-Serif" font-size="10.00">alps_core/lib_internal</text>
<text text-anchor="start" x="635.5" y="-117" font-family="Helvetica,sans-Serif" font-size="10.00">/alps_mbed_lib/include</text>
<text text-anchor="start" x="635.5" y="-106" font-family="Helvetica,sans-Serif" font-size="10.00">/alps_mbed/communication</text>
<text text-anchor="middle" x="703.5" y="-95" font-family="Helvetica,sans-Serif" font-size="10.00">/odrive_can_mbed.hpp</text>
</a>
</g>
</g>
<!-- Node9&#45;&gt;Node11 -->
<g id="edge12_Node000009_Node000011" class="edge">
<title>Node9&#45;&gt;Node11</title>
<g id="a_edge12_Node000009_Node000011"><a xlink:title=" ">
<path fill="none" stroke="#63b8ff" d="M609.48,-170.76C626.36,-160.75 644.95,-149.72 661.12,-140.14"/>
<polygon fill="#63b8ff" stroke="#63b8ff" points="607.65,-167.78 600.83,-175.89 611.22,-173.8 607.65,-167.78"/>
</a>
</g>
</g>
<!-- Node11&#45;&gt;Node10 -->
<g id="edge13_Node000011_Node000010" class="edge">
<title>Node11&#45;&gt;Node10</title>
<g id="a_edge13_Node000011_Node000010"><a xlink:title=" ">
<path fill="none" stroke="#63b8ff" d="M703.91,-77.56C704.01,-69.04 704.12,-60.1 704.21,-52.16"/>
<polygon fill="#63b8ff" stroke="#63b8ff" points="700.41,-77.62 703.79,-87.66 707.41,-77.7 700.41,-77.62"/>
</a>
</g>
</g>
</g>
</svg>
