<?xml version="1.0" encoding="UTF-8" standalone="no"?>
<!DOCTYPE svg PUBLIC "-//W3C//DTD SVG 1.1//EN"
 "http://www.w3.org/Graphics/SVG/1.1/DTD/svg11.dtd">
<!-- Generated by graphviz version 2.43.0 (0)
 -->
<!-- Title: alps_common_lib/include/alps_cmn/log/logging_macros.hpp Pages: 1 -->
<svg width="469pt" height="206pt"
 viewBox="0.00 0.00 468.50 206.00" xmlns="http://www.w3.org/2000/svg" xmlns:xlink="http://www.w3.org/1999/xlink">
<g id="graph0" class="graph" transform="scale(1 1) rotate(0) translate(4 202)">
<title>alps_common_lib/include/alps_cmn/log/logging_macros.hpp</title>
<polygon fill="white" stroke="transparent" points="-4,4 -4,-202 464.5,-202 464.5,4 -4,4"/>
<!-- Node1 -->
<g id="node1" class="node">
<title>Node1</title>
<g id="a_node1"><a xlink:title=" ">
<polygon fill="#bfbfbf" stroke="black" points="123.5,-156.5 123.5,-197.5 263.5,-197.5 263.5,-156.5 123.5,-156.5"/>
<text text-anchor="start" x="131.5" y="-185.5" font-family="Helvetica,sans-Serif" font-size="10.00">alps_common_lib/include</text>
<text text-anchor="start" x="131.5" y="-174.5" font-family="Helvetica,sans-Serif" font-size="10.00">/alps_cmn/log/logging</text>
<text text-anchor="middle" x="193.5" y="-163.5" font-family="Helvetica,sans-Serif" font-size="10.00">_macros.hpp</text>
</a>
</g>
</g>
<!-- Node2 -->
<g id="node2" class="node">
<title>Node2</title>
<g id="a_node2"><a xlink:href="robomas__motor_8hpp.html" target="_top" xlink:title="ロボマスモータのライブラリ">
<polygon fill="white" stroke="black" points="0,-0.5 0,-41.5 155,-41.5 155,-0.5 0,-0.5"/>
<text text-anchor="start" x="8" y="-29.5" font-family="Helvetica,sans-Serif" font-size="10.00">alps_common_lib/include</text>
<text text-anchor="start" x="8" y="-18.5" font-family="Helvetica,sans-Serif" font-size="10.00">/alps_cmn/actuator/robomas</text>
<text text-anchor="middle" x="77.5" y="-7.5" font-family="Helvetica,sans-Serif" font-size="10.00">_motor.hpp</text>
</a>
</g>
</g>
<!-- Node1&#45;&gt;Node2 -->
<g id="edge1" class="edge">
<title>Node1&#45;&gt;Node2</title>
<path fill="none" stroke="midnightblue" d="M132.62,-151.44C118.91,-143.3 105.71,-132.92 96.5,-120 79.9,-96.72 76.81,-62.74 76.7,-41.52"/>
<polygon fill="midnightblue" stroke="midnightblue" points="131.22,-154.66 141.66,-156.47 134.62,-148.55 131.22,-154.66"/>
</g>
<!-- Node3 -->
<g id="node3" class="node">
<title>Node3</title>
<g id="a_node3"><a xlink:href="can__typed__data__transceiver_8hpp.html" target="_top" xlink:title="CAN通信で型付けされたデータの送受信を行うライブラリ">
<polygon fill="white" stroke="black" points="105,-78.5 105,-119.5 282,-119.5 282,-78.5 105,-78.5"/>
<text text-anchor="start" x="113" y="-107.5" font-family="Helvetica,sans-Serif" font-size="10.00">alps_common_lib/include</text>
<text text-anchor="start" x="113" y="-96.5" font-family="Helvetica,sans-Serif" font-size="10.00">/alps_cmn/communication</text>
<text text-anchor="middle" x="193.5" y="-85.5" font-family="Helvetica,sans-Serif" font-size="10.00">/can_typed_data_transceiver.hpp</text>
</a>
</g>
</g>
<!-- Node1&#45;&gt;Node3 -->
<g id="edge2" class="edge">
<title>Node1&#45;&gt;Node3</title>
<path fill="none" stroke="midnightblue" d="M193.5,-146.3C193.5,-137.3 193.5,-127.65 193.5,-119.51"/>
<polygon fill="midnightblue" stroke="midnightblue" points="190,-146.43 193.5,-156.43 197,-146.43 190,-146.43"/>
</g>
<!-- Node5 -->
<g id="node5" class="node">
<title>Node5</title>
<g id="a_node5"><a xlink:href="motor__friction__analyzer_8hpp.html" target="_top" xlink:title="モーター軸の摩擦力を計測するクラス">
<polygon fill="white" stroke="black" points="300.5,-78.5 300.5,-119.5 460.5,-119.5 460.5,-78.5 300.5,-78.5"/>
<text text-anchor="start" x="308.5" y="-107.5" font-family="Helvetica,sans-Serif" font-size="10.00">alps_common_lib/include</text>
<text text-anchor="start" x="308.5" y="-96.5" font-family="Helvetica,sans-Serif" font-size="10.00">/alps_cmn/tool/motor_friction</text>
<text text-anchor="middle" x="380.5" y="-85.5" font-family="Helvetica,sans-Serif" font-size="10.00">_analyzer.hpp</text>
</a>
</g>
</g>
<!-- Node1&#45;&gt;Node5 -->
<g id="edge5" class="edge">
<title>Node1&#45;&gt;Node5</title>
<path fill="none" stroke="midnightblue" d="M251.06,-152.61C277.16,-142 307.66,-129.6 332.51,-119.51"/>
<polygon fill="midnightblue" stroke="midnightblue" points="249.6,-149.42 241.66,-156.43 252.24,-155.91 249.6,-149.42"/>
</g>
<!-- Node3&#45;&gt;Node2 -->
<g id="edge3" class="edge">
<title>Node3&#45;&gt;Node2</title>
<path fill="none" stroke="midnightblue" d="M155.22,-72.92C139.62,-62.7 121.87,-51.07 107.27,-41.51"/>
<polygon fill="midnightblue" stroke="midnightblue" points="153.34,-75.88 163.63,-78.43 157.18,-70.02 153.34,-75.88"/>
</g>
<!-- Node4 -->
<g id="node4" class="node">
<title>Node4</title>
<g id="a_node4"><a xlink:href="can__topic__converter_8hpp.html" target="_top" xlink:title=" ">
<polygon fill="white" stroke="black" points="173,-0.5 173,-41.5 318,-41.5 318,-0.5 173,-0.5"/>
<text text-anchor="start" x="181" y="-29.5" font-family="Helvetica,sans-Serif" font-size="10.00">alps_ros2_lib/include</text>
<text text-anchor="start" x="181" y="-18.5" font-family="Helvetica,sans-Serif" font-size="10.00">/alps_ros2/communication</text>
<text text-anchor="middle" x="245.5" y="-7.5" font-family="Helvetica,sans-Serif" font-size="10.00">/can_topic_converter.hpp</text>
</a>
</g>
</g>
<!-- Node3&#45;&gt;Node4 -->
<g id="edge4" class="edge">
<title>Node3&#45;&gt;Node4</title>
<path fill="none" stroke="midnightblue" d="M212.63,-70.05C219.11,-60.57 226.22,-50.18 232.15,-41.51"/>
<polygon fill="midnightblue" stroke="midnightblue" points="209.65,-68.2 206.89,-78.43 215.43,-72.15 209.65,-68.2"/>
</g>
</g>
</svg>
