<?xml version="1.0" encoding="UTF-8" standalone="no"?>
<!DOCTYPE svg PUBLIC "-//W3C//DTD SVG 1.1//EN"
 "http://www.w3.org/Graphics/SVG/1.1/DTD/svg11.dtd">
<!-- Generated by graphviz version 2.43.0 (0)
 -->
<!-- Title: alps_common_lib/include/alps_cmn/log/logging_macros.hpp Pages: 1 -->
<svg width="470pt" height="203pt"
 viewBox="0.00 0.00 469.50 203.00" xmlns="http://www.w3.org/2000/svg" xmlns:xlink="http://www.w3.org/1999/xlink">
<g id="graph0" class="graph" transform="scale(1 1) rotate(0) translate(4 199)">
<title>alps_common_lib/include/alps_cmn/log/logging_macros.hpp</title>
<!-- Node1 -->
<g id="node1" class="node">
<title>Node1</title>
<g id="a_node1"><a xlink:title=" ">
<polygon fill="#999999" stroke="#666666" points="264.5,-195 124.5,-195 124.5,-154 264.5,-154 264.5,-195"/>
<text text-anchor="start" x="132.5" y="-183" font-family="Helvetica,sans-Serif" font-size="10.00">alps_common_lib/include</text>
<text text-anchor="start" x="132.5" y="-172" font-family="Helvetica,sans-Serif" font-size="10.00">/alps_cmn/log/logging</text>
<text text-anchor="middle" x="194.5" y="-161" font-family="Helvetica,sans-Serif" font-size="10.00">_macros.hpp</text>
</a>
</g>
</g>
<!-- Node2 -->
<g id="node2" class="node">
<title>Node2</title>
<g id="a_node2"><a xlink:href="robomas__motor_8hpp.html" target="_top" xlink:title="ロボマスモータのライブラリ">
<polygon fill="white" stroke="#666666" points="155,-41 0,-41 0,0 155,0 155,-41"/>
<text text-anchor="start" x="8" y="-29" font-family="Helvetica,sans-Serif" font-size="10.00">alps_common_lib/include</text>
<text text-anchor="start" x="8" y="-18" font-family="Helvetica,sans-Serif" font-size="10.00">/alps_cmn/actuator/robomas</text>
<text text-anchor="middle" x="77.5" y="-7" font-family="Helvetica,sans-Serif" font-size="10.00">_motor.hpp</text>
</a>
</g>
</g>
<!-- Node1&#45;&gt;Node2 -->
<g id="edge1" class="edge">
<title>Node1&#45;&gt;Node2</title>
<path fill="none" stroke="#63b8ff" d="M132.4,-148.98C118.78,-140.96 105.7,-130.75 96.5,-118 80.12,-95.29 76.93,-62.07 76.75,-41.13"/>
<polygon fill="#63b8ff" stroke="#63b8ff" points="130.95,-152.17 141.4,-153.93 134.33,-146.04 130.95,-152.17"/>
</g>
<!-- Node3 -->
<g id="node3" class="node">
<title>Node3</title>
<g id="a_node3"><a xlink:href="can__typed__data__transceiver_8hpp.html" target="_top" xlink:title="CAN通信で型付けされたデータの送受信を行うライブラリ">
<polygon fill="white" stroke="#666666" points="283.5,-118 105.5,-118 105.5,-77 283.5,-77 283.5,-118"/>
<text text-anchor="start" x="113.5" y="-106" font-family="Helvetica,sans-Serif" font-size="10.00">alps_common_lib/include</text>
<text text-anchor="start" x="113.5" y="-95" font-family="Helvetica,sans-Serif" font-size="10.00">/alps_cmn/communication</text>
<text text-anchor="middle" x="194.5" y="-84" font-family="Helvetica,sans-Serif" font-size="10.00">/can_typed_data_transceiver.hpp</text>
</a>
</g>
</g>
<!-- Node1&#45;&gt;Node3 -->
<g id="edge2" class="edge">
<title>Node1&#45;&gt;Node3</title>
<path fill="none" stroke="#63b8ff" d="M194.5,-143.69C194.5,-135.08 194.5,-125.9 194.5,-118.07"/>
<polygon fill="#63b8ff" stroke="#63b8ff" points="191,-143.79 194.5,-153.79 198,-143.79 191,-143.79"/>
</g>
<!-- Node5 -->
<g id="node5" class="node">
<title>Node5</title>
<g id="a_node5"><a xlink:href="motor__friction__analyzer_8hpp.html" target="_top" xlink:title="モーター軸の摩擦力を計測するクラス">
<polygon fill="white" stroke="#666666" points="461.5,-118 301.5,-118 301.5,-77 461.5,-77 461.5,-118"/>
<text text-anchor="start" x="309.5" y="-106" font-family="Helvetica,sans-Serif" font-size="10.00">alps_common_lib/include</text>
<text text-anchor="start" x="309.5" y="-95" font-family="Helvetica,sans-Serif" font-size="10.00">/alps_cmn/tool/motor_friction</text>
<text text-anchor="middle" x="381.5" y="-84" font-family="Helvetica,sans-Serif" font-size="10.00">_analyzer.hpp</text>
</a>
</g>
</g>
<!-- Node1&#45;&gt;Node5 -->
<g id="edge5" class="edge">
<title>Node1&#45;&gt;Node5</title>
<path fill="none" stroke="#63b8ff" d="M252.43,-150.27C278.19,-139.94 308.19,-127.9 332.78,-118.04"/>
<polygon fill="#63b8ff" stroke="#63b8ff" points="251.12,-147.02 243.14,-153.99 253.73,-153.52 251.12,-147.02"/>
</g>
<!-- Node3&#45;&gt;Node2 -->
<g id="edge3" class="edge">
<title>Node3&#45;&gt;Node2</title>
<path fill="none" stroke="#63b8ff" d="M155.3,-71.37C139.95,-61.53 122.6,-50.41 108.19,-41.17"/>
<polygon fill="#63b8ff" stroke="#63b8ff" points="153.76,-74.54 164.07,-76.99 157.54,-68.65 153.76,-74.54"/>
</g>
<!-- Node4 -->
<g id="node4" class="node">
<title>Node4</title>
<g id="a_node4"><a xlink:href="can__topic__converter_8hpp.html" target="_top" xlink:title=" ">
<polygon fill="white" stroke="#666666" points="318,-41 173,-41 173,0 318,0 318,-41"/>
<text text-anchor="start" x="181" y="-29" font-family="Helvetica,sans-Serif" font-size="10.00">alps_ros2_lib/include</text>
<text text-anchor="start" x="181" y="-18" font-family="Helvetica,sans-Serif" font-size="10.00">/alps_ros2/communication</text>
<text text-anchor="middle" x="245.5" y="-7" font-family="Helvetica,sans-Serif" font-size="10.00">/can_topic_converter.hpp</text>
</a>
</g>
</g>
<!-- Node3&#45;&gt;Node4 -->
<g id="edge4" class="edge">
<title>Node3&#45;&gt;Node4</title>
<path fill="none" stroke="#63b8ff" d="M213.61,-68.39C219.8,-59.3 226.52,-49.41 232.19,-41.07"/>
<polygon fill="#63b8ff" stroke="#63b8ff" points="210.63,-66.56 207.9,-76.79 216.42,-70.49 210.63,-66.56"/>
</g>
</g>
</svg>
