<?xml version="1.0" encoding="UTF-8" standalone="no"?>
<!DOCTYPE svg PUBLIC "-//W3C//DTD SVG 1.1//EN"
 "http://www.w3.org/Graphics/SVG/1.1/DTD/svg11.dtd">
<!-- Generated by graphviz version 2.43.0 (0)
 -->
<!-- Title: alps_core/lib_internal/alps_common_lib/include/alps_cmn/control/low_pass_filter.hpp Pages: 1 -->
<svg width="529pt" height="417pt"
 viewBox="0.00 0.00 529.00 417.00" xmlns="http://www.w3.org/2000/svg" xmlns:xlink="http://www.w3.org/1999/xlink">
<g id="graph0" class="graph" transform="scale(1 1) rotate(0) translate(4 413)">
<title>alps_core/lib_internal/alps_common_lib/include/alps_cmn/control/low_pass_filter.hpp</title>
<polygon fill="white" stroke="transparent" points="-4,4 -4,-413 525,-413 525,4 -4,4"/>
<!-- Node1 -->
<g id="node1" class="node">
<title>Node1</title>
<g id="a_node1"><a xlink:title="ローパスフィルタのクラス">
<polygon fill="#bfbfbf" stroke="black" points="252.5,-356.5 252.5,-408.5 403.5,-408.5 403.5,-356.5 252.5,-356.5"/>
<text text-anchor="start" x="260.5" y="-396.5" font-family="Helvetica,sans-Serif" font-size="10.00">alps_core/lib_internal</text>
<text text-anchor="start" x="260.5" y="-385.5" font-family="Helvetica,sans-Serif" font-size="10.00">/alps_common_lib/include</text>
<text text-anchor="start" x="260.5" y="-374.5" font-family="Helvetica,sans-Serif" font-size="10.00">/alps_cmn/control/low_pass</text>
<text text-anchor="middle" x="328" y="-363.5" font-family="Helvetica,sans-Serif" font-size="10.00">_filter.hpp</text>
</a>
</g>
</g>
<!-- Node2 -->
<g id="node2" class="node">
<title>Node2</title>
<g id="a_node2"><a xlink:href="low__pass__differentiator_8hpp.html" target="_top" xlink:title=" ">
<polygon fill="white" stroke="black" points="157.5,-267.5 157.5,-319.5 308.5,-319.5 308.5,-267.5 157.5,-267.5"/>
<text text-anchor="start" x="165.5" y="-307.5" font-family="Helvetica,sans-Serif" font-size="10.00">alps_core/lib_internal</text>
<text text-anchor="start" x="165.5" y="-296.5" font-family="Helvetica,sans-Serif" font-size="10.00">/alps_common_lib/include</text>
<text text-anchor="start" x="165.5" y="-285.5" font-family="Helvetica,sans-Serif" font-size="10.00">/alps_cmn/control/low_pass</text>
<text text-anchor="middle" x="233" y="-274.5" font-family="Helvetica,sans-Serif" font-size="10.00">_differentiator.hpp</text>
</a>
</g>
</g>
<!-- Node1&#45;&gt;Node2 -->
<g id="edge1" class="edge">
<title>Node1&#45;&gt;Node2</title>
<path fill="none" stroke="midnightblue" d="M292.91,-349.36C282.18,-339.54 270.55,-328.89 260.42,-319.61"/>
<polygon fill="midnightblue" stroke="midnightblue" points="290.78,-352.16 300.52,-356.34 295.51,-347 290.78,-352.16"/>
</g>
<!-- Node9 -->
<g id="node9" class="node">
<title>Node9</title>
<g id="a_node9"><a xlink:href="potentiometer_8hpp.html" target="_top" xlink:title="ポテンショメータのクラス">
<polygon fill="white" stroke="black" points="327,-273 327,-314 521,-314 521,-273 327,-273"/>
<text text-anchor="start" x="335" y="-302" font-family="Helvetica,sans-Serif" font-size="10.00">alps_core/lib_internal</text>
<text text-anchor="start" x="335" y="-291" font-family="Helvetica,sans-Serif" font-size="10.00">/alps_common_lib/include</text>
<text text-anchor="middle" x="424" y="-280" font-family="Helvetica,sans-Serif" font-size="10.00">/alps_cmn/sensor/potentiometer.hpp</text>
</a>
</g>
</g>
<!-- Node1&#45;&gt;Node9 -->
<g id="edge12" class="edge">
<title>Node1&#45;&gt;Node9</title>
<path fill="none" stroke="midnightblue" d="M363.29,-349.51C376.4,-337.64 390.87,-324.53 402.39,-314.08"/>
<polygon fill="midnightblue" stroke="midnightblue" points="360.83,-347.03 355.77,-356.34 365.53,-352.21 360.83,-347.03"/>
</g>
<!-- Node3 -->
<g id="node3" class="node">
<title>Node3</title>
<g id="a_node3"><a xlink:href="motor__velocity__controller_8hpp.html" target="_top" xlink:title=" ">
<polygon fill="white" stroke="black" points="16.5,-89.5 16.5,-141.5 159.5,-141.5 159.5,-89.5 16.5,-89.5"/>
<text text-anchor="start" x="24.5" y="-129.5" font-family="Helvetica,sans-Serif" font-size="10.00">alps_core/lib_internal</text>
<text text-anchor="start" x="24.5" y="-118.5" font-family="Helvetica,sans-Serif" font-size="10.00">/alps_common_lib/include</text>
<text text-anchor="start" x="24.5" y="-107.5" font-family="Helvetica,sans-Serif" font-size="10.00">/alps_cmn/control/motor</text>
<text text-anchor="middle" x="88" y="-96.5" font-family="Helvetica,sans-Serif" font-size="10.00">_velocity_controller.hpp</text>
</a>
</g>
</g>
<!-- Node2&#45;&gt;Node3 -->
<g id="edge2" class="edge">
<title>Node2&#45;&gt;Node3</title>
<path fill="none" stroke="midnightblue" d="M184.8,-261.06C173.24,-252.18 161.51,-241.94 152,-231 128.25,-203.67 109.31,-166.12 98.37,-141.59"/>
<polygon fill="midnightblue" stroke="midnightblue" points="183.04,-264.11 193.16,-267.27 187.22,-258.49 183.04,-264.11"/>
</g>
<!-- Node6 -->
<g id="node6" class="node">
<title>Node6</title>
<g id="a_node6"><a xlink:href="pid_8hpp.html" target="_top" xlink:title=" ">
<polygon fill="white" stroke="black" points="161.5,-184 161.5,-225 304.5,-225 304.5,-184 161.5,-184"/>
<text text-anchor="start" x="169.5" y="-213" font-family="Helvetica,sans-Serif" font-size="10.00">alps_core/lib_internal</text>
<text text-anchor="start" x="169.5" y="-202" font-family="Helvetica,sans-Serif" font-size="10.00">/alps_common_lib/include</text>
<text text-anchor="middle" x="233" y="-191" font-family="Helvetica,sans-Serif" font-size="10.00">/alps_cmn/control/pid.hpp</text>
</a>
</g>
</g>
<!-- Node2&#45;&gt;Node6 -->
<g id="edge5" class="edge">
<title>Node2&#45;&gt;Node6</title>
<path fill="none" stroke="midnightblue" d="M233,-257.16C233,-246.21 233,-234.55 233,-225.08"/>
<polygon fill="midnightblue" stroke="midnightblue" points="229.5,-257.34 233,-267.34 236.5,-257.34 229.5,-257.34"/>
</g>
<!-- Node8 -->
<g id="node8" class="node">
<title>Node8</title>
<g id="a_node8"><a xlink:href="motor__friction__analyzer_8hpp.html" target="_top" xlink:title="モーター軸の摩擦力を計測するクラス">
<polygon fill="white" stroke="black" points="323,-178.5 323,-230.5 483,-230.5 483,-178.5 323,-178.5"/>
<text text-anchor="start" x="331" y="-218.5" font-family="Helvetica,sans-Serif" font-size="10.00">alps_core/lib_internal</text>
<text text-anchor="start" x="331" y="-207.5" font-family="Helvetica,sans-Serif" font-size="10.00">/alps_common_lib/include</text>
<text text-anchor="start" x="331" y="-196.5" font-family="Helvetica,sans-Serif" font-size="10.00">/alps_cmn/tool/motor_friction</text>
<text text-anchor="middle" x="403" y="-185.5" font-family="Helvetica,sans-Serif" font-size="10.00">_analyzer.hpp</text>
</a>
</g>
</g>
<!-- Node2&#45;&gt;Node8 -->
<g id="edge11" class="edge">
<title>Node2&#45;&gt;Node8</title>
<path fill="none" stroke="midnightblue" d="M291.08,-262.78C311.53,-252.31 334.3,-240.66 353.94,-230.61"/>
<polygon fill="midnightblue" stroke="midnightblue" points="289.48,-259.66 282.17,-267.34 292.67,-265.9 289.48,-259.66"/>
</g>
<!-- Node4 -->
<g id="node4" class="node">
<title>Node4</title>
<g id="a_node4"><a xlink:href="motor__angle__velocity__controller_8hpp.html" target="_top" xlink:title=" ">
<polygon fill="white" stroke="black" points="194.5,-0.5 194.5,-52.5 359.5,-52.5 359.5,-0.5 194.5,-0.5"/>
<text text-anchor="start" x="202.5" y="-40.5" font-family="Helvetica,sans-Serif" font-size="10.00">alps_core/lib_internal</text>
<text text-anchor="start" x="202.5" y="-29.5" font-family="Helvetica,sans-Serif" font-size="10.00">/alps_common_lib/include</text>
<text text-anchor="start" x="202.5" y="-18.5" font-family="Helvetica,sans-Serif" font-size="10.00">/alps_cmn/control/motor</text>
<text text-anchor="middle" x="277" y="-7.5" font-family="Helvetica,sans-Serif" font-size="10.00">_angle_velocity_controller.hpp</text>
</a>
</g>
</g>
<!-- Node3&#45;&gt;Node4 -->
<g id="edge3" class="edge">
<title>Node3&#45;&gt;Node4</title>
<path fill="none" stroke="midnightblue" d="M151.75,-85.15C174.77,-74.56 200.51,-62.71 222.64,-52.52"/>
<polygon fill="midnightblue" stroke="midnightblue" points="150.03,-82.09 142.41,-89.45 152.96,-88.45 150.03,-82.09"/>
</g>
<!-- Node5 -->
<g id="node5" class="node">
<title>Node5</title>
<g id="a_node5"><a xlink:href="custom__type__topic__conversion__rule_8hpp.html" target="_top" xlink:title=" ">
<polygon fill="white" stroke="black" points="0,-0.5 0,-52.5 176,-52.5 176,-0.5 0,-0.5"/>
<text text-anchor="start" x="8" y="-40.5" font-family="Helvetica,sans-Serif" font-size="10.00">alps_core/lib_internal</text>
<text text-anchor="start" x="8" y="-29.5" font-family="Helvetica,sans-Serif" font-size="10.00">/alps_ros2_lib/include</text>
<text text-anchor="start" x="8" y="-18.5" font-family="Helvetica,sans-Serif" font-size="10.00">/alps_ros2/type/custom</text>
<text text-anchor="middle" x="88" y="-7.5" font-family="Helvetica,sans-Serif" font-size="10.00">_type_topic_conversion_rule.hpp</text>
</a>
</g>
</g>
<!-- Node3&#45;&gt;Node5 -->
<g id="edge4" class="edge">
<title>Node3&#45;&gt;Node5</title>
<path fill="none" stroke="midnightblue" d="M88,-79.19C88,-70.28 88,-60.9 88,-52.61"/>
<polygon fill="midnightblue" stroke="midnightblue" points="84.5,-79.34 88,-89.34 91.5,-79.34 84.5,-79.34"/>
</g>
<!-- Node6&#45;&gt;Node3 -->
<g id="edge10" class="edge">
<title>Node6&#45;&gt;Node3</title>
<path fill="none" stroke="midnightblue" d="M191.83,-178.8C172.42,-167.15 149.3,-153.28 129.81,-141.58"/>
<polygon fill="midnightblue" stroke="midnightblue" points="190.08,-181.83 200.46,-183.98 193.68,-175.83 190.08,-181.83"/>
</g>
<!-- Node6&#45;&gt;Node4 -->
<g id="edge9" class="edge">
<title>Node6&#45;&gt;Node4</title>
<path fill="none" stroke="midnightblue" d="M292.26,-178.86C307.24,-169.61 321.48,-157.48 330,-142 341.35,-121.36 338.2,-111.08 330,-89 324.94,-75.39 315.38,-62.78 305.75,-52.56"/>
<polygon fill="midnightblue" stroke="midnightblue" points="290.3,-175.95 283.39,-183.97 293.8,-182.01 290.3,-175.95"/>
</g>
<!-- Node7 -->
<g id="node7" class="node">
<title>Node7</title>
<g id="a_node7"><a xlink:href="motor__angle__controller_8hpp.html" target="_top" xlink:title=" ">
<polygon fill="white" stroke="black" points="177.5,-89.5 177.5,-141.5 320.5,-141.5 320.5,-89.5 177.5,-89.5"/>
<text text-anchor="start" x="185.5" y="-129.5" font-family="Helvetica,sans-Serif" font-size="10.00">alps_core/lib_internal</text>
<text text-anchor="start" x="185.5" y="-118.5" font-family="Helvetica,sans-Serif" font-size="10.00">/alps_common_lib/include</text>
<text text-anchor="start" x="185.5" y="-107.5" font-family="Helvetica,sans-Serif" font-size="10.00">/alps_cmn/control/motor</text>
<text text-anchor="middle" x="249" y="-96.5" font-family="Helvetica,sans-Serif" font-size="10.00">_angle_controller.hpp</text>
</a>
</g>
</g>
<!-- Node6&#45;&gt;Node7 -->
<g id="edge6" class="edge">
<title>Node6&#45;&gt;Node7</title>
<path fill="none" stroke="midnightblue" d="M238.46,-173.84C240.37,-163.42 242.51,-151.81 244.35,-141.79"/>
<polygon fill="midnightblue" stroke="midnightblue" points="235,-173.29 236.63,-183.76 241.88,-174.56 235,-173.29"/>
</g>
<!-- Node7&#45;&gt;Node4 -->
<g id="edge7" class="edge">
<title>Node7&#45;&gt;Node4</title>
<path fill="none" stroke="midnightblue" d="M260.18,-79.77C263.1,-70.69 266.19,-61.08 268.92,-52.61"/>
<polygon fill="midnightblue" stroke="midnightblue" points="256.83,-78.74 257.1,-89.34 263.49,-80.89 256.83,-78.74"/>
</g>
<!-- Node7&#45;&gt;Node5 -->
<g id="edge8" class="edge">
<title>Node7&#45;&gt;Node5</title>
<path fill="none" stroke="midnightblue" d="M193.47,-84.49C174.24,-74.1 152.89,-62.57 134.46,-52.61"/>
<polygon fill="midnightblue" stroke="midnightblue" points="191.97,-87.66 202.43,-89.34 195.3,-81.5 191.97,-87.66"/>
</g>
</g>
</svg>
