<?xml version="1.0" encoding="UTF-8" standalone="no"?>
<!DOCTYPE svg PUBLIC "-//W3C//DTD SVG 1.1//EN"
 "http://www.w3.org/Graphics/SVG/1.1/DTD/svg11.dtd">
<!-- Generated by graphviz version 2.43.0 (0)
 -->
<!-- Title: alps_common_lib/include/alps_cmn/control/low_pass_differentiator.hpp Pages: 1 -->
<svg width="426pt" height="280pt"
 viewBox="0.00 0.00 426.00 280.00" xmlns="http://www.w3.org/2000/svg" xmlns:xlink="http://www.w3.org/1999/xlink">
<g id="graph0" class="graph" transform="scale(1 1) rotate(0) translate(4 276)">
<title>alps_common_lib/include/alps_cmn/control/low_pass_differentiator.hpp</title>
<!-- Node1 -->
<g id="node1" class="node">
<title>Node1</title>
<g id="a_node1"><a xlink:title=" ">
<polygon fill="#999999" stroke="#666666" points="239,-272 99,-272 99,-231 239,-231 239,-272"/>
<text text-anchor="start" x="107" y="-260" font-family="Helvetica,sans-Serif" font-size="10.00">alps_common_lib/include</text>
<text text-anchor="start" x="107" y="-249" font-family="Helvetica,sans-Serif" font-size="10.00">/alps_cmn/control/low</text>
<text text-anchor="middle" x="169" y="-238" font-family="Helvetica,sans-Serif" font-size="10.00">_pass_differentiator.hpp</text>
</a>
</g>
</g>
<!-- Node2 -->
<g id="node2" class="node">
<title>Node2</title>
<g id="a_node2"><a xlink:href="motor__velocity__controller_8hpp.html" target="_top" xlink:title=" ">
<polygon fill="white" stroke="#666666" points="140,-118 0,-118 0,-77 140,-77 140,-118"/>
<text text-anchor="start" x="8" y="-106" font-family="Helvetica,sans-Serif" font-size="10.00">alps_common_lib/include</text>
<text text-anchor="start" x="8" y="-95" font-family="Helvetica,sans-Serif" font-size="10.00">/alps_cmn/control/motor</text>
<text text-anchor="middle" x="70" y="-84" font-family="Helvetica,sans-Serif" font-size="10.00">_velocity_controller.hpp</text>
</a>
</g>
</g>
<!-- Node1&#45;&gt;Node2 -->
<g id="edge1" class="edge">
<title>Node1&#45;&gt;Node2</title>
<path fill="none" stroke="#63b8ff" d="M119.92,-225.24C108.19,-217.06 96.82,-206.95 89,-195 73.76,-171.71 70.23,-138.96 69.67,-118.23"/>
<polygon fill="#63b8ff" stroke="#63b8ff" points="118.2,-228.29 128.48,-230.85 122.04,-222.44 118.2,-228.29"/>
</g>
<!-- Node4 -->
<g id="node4" class="node">
<title>Node4</title>
<g id="a_node4"><a xlink:href="pid_8hpp.html" target="_top" xlink:title=" ">
<polygon fill="white" stroke="#666666" points="240,-189.5 98,-189.5 98,-159.5 240,-159.5 240,-189.5"/>
<text text-anchor="start" x="106" y="-177.5" font-family="Helvetica,sans-Serif" font-size="10.00">alps_common_lib/include</text>
<text text-anchor="middle" x="169" y="-166.5" font-family="Helvetica,sans-Serif" font-size="10.00">/alps_cmn/control/pid.hpp</text>
</a>
</g>
</g>
<!-- Node1&#45;&gt;Node4 -->
<g id="edge3" class="edge">
<title>Node1&#45;&gt;Node4</title>
<path fill="none" stroke="#63b8ff" d="M169,-220.61C169,-210.01 169,-198.57 169,-189.86"/>
<polygon fill="#63b8ff" stroke="#63b8ff" points="165.5,-220.79 169,-230.79 172.5,-220.79 165.5,-220.79"/>
</g>
<!-- Node6 -->
<g id="node6" class="node">
<title>Node6</title>
<g id="a_node6"><a xlink:href="motor__friction__analyzer_8hpp.html" target="_top" xlink:title="モーター軸の摩擦力を計測するクラス">
<polygon fill="white" stroke="#666666" points="418,-195 258,-195 258,-154 418,-154 418,-195"/>
<text text-anchor="start" x="266" y="-183" font-family="Helvetica,sans-Serif" font-size="10.00">alps_common_lib/include</text>
<text text-anchor="start" x="266" y="-172" font-family="Helvetica,sans-Serif" font-size="10.00">/alps_cmn/tool/motor_friction</text>
<text text-anchor="middle" x="338" y="-161" font-family="Helvetica,sans-Serif" font-size="10.00">_analyzer.hpp</text>
</a>
</g>
</g>
<!-- Node1&#45;&gt;Node6 -->
<g id="edge8" class="edge">
<title>Node1&#45;&gt;Node6</title>
<path fill="none" stroke="#63b8ff" d="M222.27,-226.86C245.35,-216.62 272.04,-204.77 293.97,-195.04"/>
<polygon fill="#63b8ff" stroke="#63b8ff" points="220.68,-223.73 212.96,-230.99 223.52,-230.13 220.68,-223.73"/>
</g>
<!-- Node3 -->
<g id="node3" class="node">
<title>Node3</title>
<g id="a_node3"><a xlink:href="motor__angle__velocity__controller_8hpp.html" target="_top" xlink:title=" ">
<polygon fill="white" stroke="#666666" points="251,-41 85,-41 85,0 251,0 251,-41"/>
<text text-anchor="start" x="93" y="-29" font-family="Helvetica,sans-Serif" font-size="10.00">alps_common_lib/include</text>
<text text-anchor="start" x="93" y="-18" font-family="Helvetica,sans-Serif" font-size="10.00">/alps_cmn/control/motor</text>
<text text-anchor="middle" x="168" y="-7" font-family="Helvetica,sans-Serif" font-size="10.00">_angle_velocity_controller.hpp</text>
</a>
</g>
</g>
<!-- Node2&#45;&gt;Node3 -->
<g id="edge2" class="edge">
<title>Node2&#45;&gt;Node3</title>
<path fill="none" stroke="#63b8ff" d="M103.56,-70.82C116.24,-61.11 130.45,-50.24 142.29,-41.17"/>
<polygon fill="#63b8ff" stroke="#63b8ff" points="101.31,-68.13 95.49,-76.99 105.56,-73.69 101.31,-68.13"/>
</g>
<!-- Node4&#45;&gt;Node2 -->
<g id="edge7" class="edge">
<title>Node4&#45;&gt;Node2</title>
<path fill="none" stroke="#63b8ff" d="M142.34,-153.31C127.96,-142.41 110.29,-129.02 96.01,-118.2"/>
<polygon fill="#63b8ff" stroke="#63b8ff" points="140.29,-156.14 150.38,-159.39 144.52,-150.56 140.29,-156.14"/>
</g>
<!-- Node4&#45;&gt;Node3 -->
<g id="edge6" class="edge">
<title>Node4&#45;&gt;Node3</title>
<path fill="none" stroke="#63b8ff" d="M168.84,-149.46C168.64,-119.51 168.31,-68.93 168.13,-41.18"/>
<polygon fill="#63b8ff" stroke="#63b8ff" points="165.34,-149.5 168.91,-159.47 172.34,-149.45 165.34,-149.5"/>
</g>
<!-- Node5 -->
<g id="node5" class="node">
<title>Node5</title>
<g id="a_node5"><a xlink:href="motor__angle__controller_8hpp.html" target="_top" xlink:title=" ">
<polygon fill="white" stroke="#666666" points="336,-118 196,-118 196,-77 336,-77 336,-118"/>
<text text-anchor="start" x="204" y="-106" font-family="Helvetica,sans-Serif" font-size="10.00">alps_common_lib/include</text>
<text text-anchor="start" x="204" y="-95" font-family="Helvetica,sans-Serif" font-size="10.00">/alps_cmn/control/motor</text>
<text text-anchor="middle" x="266" y="-84" font-family="Helvetica,sans-Serif" font-size="10.00">_angle_controller.hpp</text>
</a>
</g>
</g>
<!-- Node4&#45;&gt;Node5 -->
<g id="edge4" class="edge">
<title>Node4&#45;&gt;Node5</title>
<path fill="none" stroke="#63b8ff" d="M195.51,-153C209.53,-142.16 226.66,-128.92 240.52,-118.2"/>
<polygon fill="#63b8ff" stroke="#63b8ff" points="193.02,-150.51 187.24,-159.39 197.3,-156.05 193.02,-150.51"/>
</g>
<!-- Node5&#45;&gt;Node3 -->
<g id="edge5" class="edge">
<title>Node5&#45;&gt;Node3</title>
<path fill="none" stroke="#63b8ff" d="M232.44,-70.82C219.76,-61.11 205.55,-50.24 193.71,-41.17"/>
<polygon fill="#63b8ff" stroke="#63b8ff" points="230.44,-73.69 240.51,-76.99 234.69,-68.13 230.44,-73.69"/>
</g>
</g>
</svg>
