<?xml version="1.0" encoding="UTF-8" standalone="no"?>
<!DOCTYPE svg PUBLIC "-//W3C//DTD SVG 1.1//EN"
 "http://www.w3.org/Graphics/SVG/1.1/DTD/svg11.dtd">
<!-- Generated by graphviz version 2.43.0 (0)
 -->
<!-- Title: alps_common_lib/include/alps_cmn/control/low_pass_differentiator.hpp Pages: 1 -->
<svg width="500pt" height="295pt"
 viewBox="0.00 0.00 499.50 295.00" xmlns="http://www.w3.org/2000/svg" xmlns:xlink="http://www.w3.org/1999/xlink">
<g id="graph0" class="graph" transform="scale(1 1) rotate(0) translate(4 291)">
<title>alps_common_lib/include/alps_cmn/control/low_pass_differentiator.hpp</title>
<polygon fill="white" stroke="transparent" points="-4,4 -4,-291 495.5,-291 495.5,4 -4,4"/>
<!-- Node1 -->
<g id="node1" class="node">
<title>Node1</title>
<g id="a_node1"><a xlink:title=" ">
<polygon fill="#bfbfbf" stroke="black" points="233.5,-245.5 233.5,-286.5 373.5,-286.5 373.5,-245.5 233.5,-245.5"/>
<text text-anchor="start" x="241.5" y="-274.5" font-family="Helvetica,sans-Serif" font-size="10.00">alps_common_lib/include</text>
<text text-anchor="start" x="241.5" y="-263.5" font-family="Helvetica,sans-Serif" font-size="10.00">/alps_cmn/control/low</text>
<text text-anchor="middle" x="303.5" y="-252.5" font-family="Helvetica,sans-Serif" font-size="10.00">_pass_differentiator.hpp</text>
</a>
</g>
</g>
<!-- Node2 -->
<g id="node2" class="node">
<title>Node2</title>
<g id="a_node2"><a xlink:href="motor__velocity__controller_8hpp.html" target="_top" xlink:title=" ">
<polygon fill="white" stroke="black" points="233.5,-89.5 233.5,-130.5 373.5,-130.5 373.5,-89.5 233.5,-89.5"/>
<text text-anchor="start" x="241.5" y="-118.5" font-family="Helvetica,sans-Serif" font-size="10.00">alps_common_lib/include</text>
<text text-anchor="start" x="241.5" y="-107.5" font-family="Helvetica,sans-Serif" font-size="10.00">/alps_cmn/control/motor</text>
<text text-anchor="middle" x="303.5" y="-96.5" font-family="Helvetica,sans-Serif" font-size="10.00">_velocity_controller.hpp</text>
</a>
</g>
</g>
<!-- Node1&#45;&gt;Node2 -->
<g id="edge1" class="edge">
<title>Node1&#45;&gt;Node2</title>
<path fill="none" stroke="midnightblue" d="M303.5,-235.36C303.5,-204.61 303.5,-157.36 303.5,-130.83"/>
<polygon fill="midnightblue" stroke="midnightblue" points="300,-235.5 303.5,-245.5 307,-235.5 300,-235.5"/>
</g>
<!-- Node6 -->
<g id="node6" class="node">
<title>Node6</title>
<g id="a_node6"><a xlink:href="pid_8hpp.html" target="_top" xlink:title=" ">
<polygon fill="white" stroke="black" points="133.5,-173 133.5,-203 275.5,-203 275.5,-173 133.5,-173"/>
<text text-anchor="start" x="141.5" y="-191" font-family="Helvetica,sans-Serif" font-size="10.00">alps_common_lib/include</text>
<text text-anchor="middle" x="204.5" y="-180" font-family="Helvetica,sans-Serif" font-size="10.00">/alps_cmn/control/pid.hpp</text>
</a>
</g>
</g>
<!-- Node1&#45;&gt;Node6 -->
<g id="edge5" class="edge">
<title>Node1&#45;&gt;Node6</title>
<path fill="none" stroke="midnightblue" d="M270.05,-239.32C254.35,-227.27 236.23,-213.36 223.03,-203.23"/>
<polygon fill="midnightblue" stroke="midnightblue" points="267.94,-242.11 278.01,-245.43 272.2,-236.56 267.94,-242.11"/>
</g>
<!-- Node8 -->
<g id="node8" class="node">
<title>Node8</title>
<g id="a_node8"><a xlink:href="motor__friction__analyzer_8hpp.html" target="_top" xlink:title="モーター軸の摩擦力を計測するクラス">
<polygon fill="white" stroke="black" points="331.5,-167.5 331.5,-208.5 491.5,-208.5 491.5,-167.5 331.5,-167.5"/>
<text text-anchor="start" x="339.5" y="-196.5" font-family="Helvetica,sans-Serif" font-size="10.00">alps_common_lib/include</text>
<text text-anchor="start" x="339.5" y="-185.5" font-family="Helvetica,sans-Serif" font-size="10.00">/alps_cmn/tool/motor_friction</text>
<text text-anchor="middle" x="411.5" y="-174.5" font-family="Helvetica,sans-Serif" font-size="10.00">_analyzer.hpp</text>
</a>
</g>
</g>
<!-- Node1&#45;&gt;Node8 -->
<g id="edge12" class="edge">
<title>Node1&#45;&gt;Node8</title>
<path fill="none" stroke="midnightblue" d="M339.54,-239.64C353.97,-229.49 370.32,-217.98 383.78,-208.51"/>
<polygon fill="midnightblue" stroke="midnightblue" points="337.48,-236.81 331.31,-245.43 341.51,-242.54 337.48,-236.81"/>
</g>
<!-- Node3 -->
<g id="node3" class="node">
<title>Node3</title>
<g id="a_node3"><a xlink:href="motor__angle__velocity__controller_8hpp.html" target="_top" xlink:title=" ">
<polygon fill="white" stroke="black" points="0,-6 0,-47 165,-47 165,-6 0,-6"/>
<text text-anchor="start" x="8" y="-35" font-family="Helvetica,sans-Serif" font-size="10.00">alps_common_lib/include</text>
<text text-anchor="start" x="8" y="-24" font-family="Helvetica,sans-Serif" font-size="10.00">/alps_cmn/control/motor</text>
<text text-anchor="middle" x="82.5" y="-13" font-family="Helvetica,sans-Serif" font-size="10.00">_angle_velocity_controller.hpp</text>
</a>
</g>
</g>
<!-- Node2&#45;&gt;Node3 -->
<g id="edge2" class="edge">
<title>Node2&#45;&gt;Node3</title>
<path fill="none" stroke="midnightblue" d="M240.93,-85.92C207.62,-73.64 167.11,-58.7 135.39,-47"/>
<polygon fill="midnightblue" stroke="midnightblue" points="239.97,-89.3 250.56,-89.48 242.39,-82.73 239.97,-89.3"/>
</g>
<!-- Node4 -->
<g id="node4" class="node">
<title>Node4</title>
<g id="a_node4"><a xlink:href="custom__type__param__conversion__rule_8hpp.html" target="_top" xlink:title=" ">
<polygon fill="white" stroke="black" points="332,-0.5 332,-52.5 471,-52.5 471,-0.5 332,-0.5"/>
<text text-anchor="start" x="340" y="-40.5" font-family="Helvetica,sans-Serif" font-size="10.00">alps_ros2_lib/include</text>
<text text-anchor="start" x="340" y="-29.5" font-family="Helvetica,sans-Serif" font-size="10.00">/alps_ros2/type/custom</text>
<text text-anchor="start" x="340" y="-18.5" font-family="Helvetica,sans-Serif" font-size="10.00">_type_param_conversion</text>
<text text-anchor="middle" x="401.5" y="-7.5" font-family="Helvetica,sans-Serif" font-size="10.00">_rule.hpp</text>
</a>
</g>
</g>
<!-- Node2&#45;&gt;Node4 -->
<g id="edge3" class="edge">
<title>Node2&#45;&gt;Node4</title>
<path fill="none" stroke="midnightblue" d="M335,-82.8C346.64,-73.13 359.79,-62.19 371.31,-52.61"/>
<polygon fill="midnightblue" stroke="midnightblue" points="332.67,-80.19 327.22,-89.27 337.15,-85.57 332.67,-80.19"/>
</g>
<!-- Node5 -->
<g id="node5" class="node">
<title>Node5</title>
<g id="a_node5"><a xlink:href="custom__type__topic__conversion__rule_8hpp.html" target="_top" xlink:title=" ">
<polygon fill="white" stroke="black" points="183,-0.5 183,-52.5 314,-52.5 314,-0.5 183,-0.5"/>
<text text-anchor="start" x="191" y="-40.5" font-family="Helvetica,sans-Serif" font-size="10.00">alps_ros2_lib/include</text>
<text text-anchor="start" x="191" y="-29.5" font-family="Helvetica,sans-Serif" font-size="10.00">/alps_ros2/type/custom</text>
<text text-anchor="start" x="191" y="-18.5" font-family="Helvetica,sans-Serif" font-size="10.00">_type_topic_conversion</text>
<text text-anchor="middle" x="248.5" y="-7.5" font-family="Helvetica,sans-Serif" font-size="10.00">_rule.hpp</text>
</a>
</g>
</g>
<!-- Node2&#45;&gt;Node5 -->
<g id="edge4" class="edge">
<title>Node2&#45;&gt;Node5</title>
<path fill="none" stroke="midnightblue" d="M284.49,-80.83C278.3,-71.66 271.47,-61.54 265.44,-52.61"/>
<polygon fill="midnightblue" stroke="midnightblue" points="281.69,-82.94 290.19,-89.27 287.49,-79.02 281.69,-82.94"/>
</g>
<!-- Node6&#45;&gt;Node2 -->
<g id="edge10" class="edge">
<title>Node6&#45;&gt;Node2</title>
<path fill="none" stroke="midnightblue" d="M231.22,-166.49C245.71,-155.36 263.54,-141.68 277.86,-130.68"/>
<polygon fill="midnightblue" stroke="midnightblue" points="228.92,-163.84 223.12,-172.7 233.18,-169.39 228.92,-163.84"/>
</g>
<!-- Node6&#45;&gt;Node3 -->
<g id="edge9" class="edge">
<title>Node6&#45;&gt;Node3</title>
<path fill="none" stroke="midnightblue" d="M123.74,-171.88C101.49,-163.6 79.83,-150.8 66.5,-131 49.54,-105.81 61.52,-69.44 71.89,-47.2"/>
<polygon fill="midnightblue" stroke="midnightblue" points="122.7,-175.22 133.29,-175.15 124.97,-168.6 122.7,-175.22"/>
</g>
<!-- Node6&#45;&gt;Node4 -->
<g id="edge11" class="edge">
<title>Node6&#45;&gt;Node4</title>
<path fill="none" stroke="midnightblue" d="M283.44,-170.59C324.44,-160.48 368.8,-146.51 382.5,-131 401.37,-109.64 404.3,-75.88 403.71,-52.76"/>
<polygon fill="midnightblue" stroke="midnightblue" points="282.56,-167.21 273.66,-172.95 284.2,-174.01 282.56,-167.21"/>
</g>
<!-- Node7 -->
<g id="node7" class="node">
<title>Node7</title>
<g id="a_node7"><a xlink:href="motor__angle__controller_8hpp.html" target="_top" xlink:title=" ">
<polygon fill="white" stroke="black" points="75.5,-89.5 75.5,-130.5 215.5,-130.5 215.5,-89.5 75.5,-89.5"/>
<text text-anchor="start" x="83.5" y="-118.5" font-family="Helvetica,sans-Serif" font-size="10.00">alps_common_lib/include</text>
<text text-anchor="start" x="83.5" y="-107.5" font-family="Helvetica,sans-Serif" font-size="10.00">/alps_cmn/control/motor</text>
<text text-anchor="middle" x="145.5" y="-96.5" font-family="Helvetica,sans-Serif" font-size="10.00">_angle_controller.hpp</text>
</a>
</g>
</g>
<!-- Node6&#45;&gt;Node7 -->
<g id="edge6" class="edge">
<title>Node6&#45;&gt;Node7</title>
<path fill="none" stroke="midnightblue" d="M187.11,-164.59C178.75,-153.84 168.84,-141.06 160.78,-130.68"/>
<polygon fill="midnightblue" stroke="midnightblue" points="184.51,-166.95 193.4,-172.7 190.04,-162.66 184.51,-166.95"/>
</g>
<!-- Node7&#45;&gt;Node3 -->
<g id="edge7" class="edge">
<title>Node7&#45;&gt;Node3</title>
<path fill="none" stroke="midnightblue" d="M123.9,-81.05C115.24,-69.86 105.48,-57.23 97.61,-47.05"/>
<polygon fill="midnightblue" stroke="midnightblue" points="121.36,-83.5 130.25,-89.27 126.9,-79.22 121.36,-83.5"/>
</g>
<!-- Node7&#45;&gt;Node5 -->
<g id="edge8" class="edge">
<title>Node7&#45;&gt;Node5</title>
<path fill="none" stroke="midnightblue" d="M178.35,-83.01C190.59,-73.32 204.46,-62.35 216.62,-52.73"/>
<polygon fill="midnightblue" stroke="midnightblue" points="175.84,-80.53 170.17,-89.48 180.18,-86.02 175.84,-80.53"/>
</g>
</g>
</svg>
