<?xml version="1.0" encoding="UTF-8" standalone="no"?>
<!DOCTYPE svg PUBLIC "-//W3C//DTD SVG 1.1//EN"
 "http://www.w3.org/Graphics/SVG/1.1/DTD/svg11.dtd">
<!-- Generated by graphviz version 2.43.0 (0)
 -->
<!-- Title: alps_core/lib_internal/alps_common_lib/include/alps_cmn/control/low_pass_filter.hpp Pages: 1 -->
<svg width="213pt" height="173pt"
 viewBox="0.00 0.00 213.00 173.00" xmlns="http://www.w3.org/2000/svg" xmlns:xlink="http://www.w3.org/1999/xlink">
<g id="graph0" class="graph" transform="scale(1 1) rotate(0) translate(4 169)">
<title>alps_core/lib_internal/alps_common_lib/include/alps_cmn/control/low_pass_filter.hpp</title>
<polygon fill="white" stroke="transparent" points="-4,4 -4,-169 209,-169 209,4 -4,4"/>
<!-- Node1 -->
<g id="node1" class="node">
<title>Node1</title>
<g id="a_node1"><a xlink:title="ローパスフィルタのクラス">
<polygon fill="#bfbfbf" stroke="black" points="0,-112.5 0,-164.5 151,-164.5 151,-112.5 0,-112.5"/>
<text text-anchor="start" x="8" y="-152.5" font-family="Helvetica,sans-Serif" font-size="10.00">alps_core/lib_internal</text>
<text text-anchor="start" x="8" y="-141.5" font-family="Helvetica,sans-Serif" font-size="10.00">/alps_common_lib/include</text>
<text text-anchor="start" x="8" y="-130.5" font-family="Helvetica,sans-Serif" font-size="10.00">/alps_cmn/control/low_pass</text>
<text text-anchor="middle" x="75.5" y="-119.5" font-family="Helvetica,sans-Serif" font-size="10.00">_filter.hpp</text>
</a>
</g>
</g>
<!-- Node2 -->
<g id="node2" class="node">
<title>Node2</title>
<g id="a_node2"><a xlink:title=" ">
<polygon fill="white" stroke="#bfbfbf" points="50.5,-0.5 50.5,-19.5 100.5,-19.5 100.5,-0.5 50.5,-0.5"/>
<text text-anchor="middle" x="75.5" y="-7.5" font-family="Helvetica,sans-Serif" font-size="10.00">chrono</text>
</a>
</g>
</g>
<!-- Node1&#45;&gt;Node2 -->
<g id="edge1" class="edge">
<title>Node1&#45;&gt;Node2</title>
<path fill="none" stroke="midnightblue" d="M55.59,-112.5C45.34,-96.54 36.18,-75.3 42.5,-56 45.99,-45.34 53.07,-35.12 59.79,-27.12"/>
<polygon fill="midnightblue" stroke="midnightblue" points="62.4,-29.44 66.48,-19.66 57.2,-24.76 62.4,-29.44"/>
</g>
<!-- Node3 -->
<g id="node3" class="node">
<title>Node3</title>
<g id="a_node3"><a xlink:href="duration_8hpp.html" target="_top" xlink:title="時間間隔の型エイリアス">
<polygon fill="white" stroke="black" points="52,-56.5 52,-75.5 205,-75.5 205,-56.5 52,-56.5"/>
<text text-anchor="middle" x="128.5" y="-63.5" font-family="Helvetica,sans-Serif" font-size="10.00">alps_cmn/time/duration.hpp</text>
</a>
</g>
</g>
<!-- Node1&#45;&gt;Node3 -->
<g id="edge2" class="edge">
<title>Node1&#45;&gt;Node3</title>
<path fill="none" stroke="midnightblue" d="M94.34,-112.45C101.49,-102.93 109.46,-92.33 115.9,-83.76"/>
<polygon fill="midnightblue" stroke="midnightblue" points="118.75,-85.79 121.96,-75.7 113.16,-81.59 118.75,-85.79"/>
</g>
<!-- Node3&#45;&gt;Node2 -->
<g id="edge3" class="edge">
<title>Node3&#45;&gt;Node2</title>
<path fill="none" stroke="midnightblue" d="M119.75,-56.08C112.03,-48.22 100.6,-36.57 91.28,-27.08"/>
<polygon fill="midnightblue" stroke="midnightblue" points="93.59,-24.44 84.09,-19.75 88.6,-29.34 93.59,-24.44"/>
</g>
</g>
</svg>
