<?xml version="1.0" encoding="UTF-8" standalone="no"?>
<!DOCTYPE svg PUBLIC "-//W3C//DTD SVG 1.1//EN"
 "http://www.w3.org/Graphics/SVG/1.1/DTD/svg11.dtd">
<!-- Generated by graphviz version 2.43.0 (0)
 -->
<!-- Title: alps_core/lib_internal/alps_common_lib/include/alps_cmn/control/low_pass_differentiator.hpp Pages: 1 -->
<svg width="333pt" height="236pt"
 viewBox="0.00 0.00 332.50 236.00" xmlns="http://www.w3.org/2000/svg" xmlns:xlink="http://www.w3.org/1999/xlink">
<g id="graph0" class="graph" transform="scale(1 1) rotate(0) translate(4 232)">
<title>alps_core/lib_internal/alps_common_lib/include/alps_cmn/control/low_pass_differentiator.hpp</title>
<!-- Node1 -->
<g id="Node000001" class="node">
<title>Node1</title>
<g id="a_Node000001"><a xlink:title=" ">
<polygon fill="#999999" stroke="#666666" points="254,-228 103,-228 103,-176 254,-176 254,-228"/>
<text text-anchor="start" x="111" y="-216" font-family="Helvetica,sans-Serif" font-size="10.00">alps_core/lib_internal</text>
<text text-anchor="start" x="111" y="-205" font-family="Helvetica,sans-Serif" font-size="10.00">/alps_common_lib/include</text>
<text text-anchor="start" x="111" y="-194" font-family="Helvetica,sans-Serif" font-size="10.00">/alps_cmn/control/low_pass</text>
<text text-anchor="middle" x="178.5" y="-183" font-family="Helvetica,sans-Serif" font-size="10.00">_differentiator.hpp</text>
</a>
</g>
</g>
<!-- Node2 -->
<g id="Node000002" class="node">
<title>Node2</title>
<g id="a_Node000002"><a xlink:href="differentiator_8hpp.html" target="_top" xlink:title="微分器ライブラリ">
<polygon fill="white" stroke="#666666" points="187,-134.5 0,-134.5 0,-115.5 187,-115.5 187,-134.5"/>
<text text-anchor="middle" x="93.5" y="-122.5" font-family="Helvetica,sans-Serif" font-size="10.00">alps_cmn/control/differentiator.hpp</text>
</a>
</g>
</g>
<!-- Node1&#45;&gt;Node2 -->
<g id="edge1_Node000001_Node000002" class="edge">
<title>Node1&#45;&gt;Node2</title>
<g id="a_edge1_Node000001_Node000002"><a xlink:title=" ">
<path fill="none" stroke="#63b8ff" d="M149.72,-175.61C136.98,-164.37 122.4,-151.5 111.27,-141.68"/>
<polygon fill="#63b8ff" stroke="#63b8ff" points="113.35,-138.84 103.53,-134.85 108.71,-144.09 113.35,-138.84"/>
</a>
</g>
</g>
<!-- Node5 -->
<g id="Node000005" class="node">
<title>Node5</title>
<g id="a_Node000005"><a xlink:href="low__pass__filter_8hpp.html" target="_top" xlink:title="ローパスフィルタのクラス">
<polygon fill="white" stroke="#666666" points="324.5,-140 204.5,-140 204.5,-110 324.5,-110 324.5,-140"/>
<text text-anchor="start" x="212.5" y="-128" font-family="Helvetica,sans-Serif" font-size="10.00">alps_cmn/control/low</text>
<text text-anchor="middle" x="264.5" y="-117" font-family="Helvetica,sans-Serif" font-size="10.00">_pass_filter.hpp</text>
</a>
</g>
</g>
<!-- Node1&#45;&gt;Node5 -->
<g id="edge5_Node000001_Node000005" class="edge">
<title>Node1&#45;&gt;Node5</title>
<g id="a_edge5_Node000001_Node000005"><a xlink:title=" ">
<path fill="none" stroke="#63b8ff" d="M207.62,-175.61C218.23,-166.35 230.1,-156 240.25,-147.15"/>
<polygon fill="#63b8ff" stroke="#63b8ff" points="242.72,-149.64 247.96,-140.43 238.12,-144.36 242.72,-149.64"/>
</a>
</g>
</g>
<!-- Node3 -->
<g id="Node000003" class="node">
<title>Node3</title>
<g id="a_Node000003"><a xlink:title=" ">
<polygon fill="#e0e0e0" stroke="#999999" points="204.5,-19 154.5,-19 154.5,0 204.5,0 204.5,-19"/>
<text text-anchor="middle" x="179.5" y="-7" font-family="Helvetica,sans-Serif" font-size="10.00">chrono</text>
</a>
</g>
</g>
<!-- Node2&#45;&gt;Node3 -->
<g id="edge2_Node000002_Node000003" class="edge">
<title>Node2&#45;&gt;Node3</title>
<g id="a_edge2_Node000002_Node000003"><a xlink:title=" ">
<path fill="none" stroke="#63b8ff" d="M90.78,-115.16C87.05,-101.24 82.04,-73.83 93.5,-55 104.61,-36.74 125.9,-25.64 144.52,-19.09"/>
<polygon fill="#63b8ff" stroke="#63b8ff" points="145.76,-22.37 154.22,-15.99 143.63,-15.7 145.76,-22.37"/>
</a>
</g>
</g>
<!-- Node4 -->
<g id="Node000004" class="node">
<title>Node4</title>
<g id="a_Node000004"><a xlink:href="duration_8hpp.html" target="_top" xlink:title="時間間隔の型エイリアス">
<polygon fill="white" stroke="#666666" points="256,-74 103,-74 103,-55 256,-55 256,-74"/>
<text text-anchor="middle" x="179.5" y="-62" font-family="Helvetica,sans-Serif" font-size="10.00">alps_cmn/time/duration.hpp</text>
</a>
</g>
</g>
<!-- Node2&#45;&gt;Node4 -->
<g id="edge3_Node000002_Node000004" class="edge">
<title>Node2&#45;&gt;Node4</title>
<g id="a_edge3_Node000002_Node000004"><a xlink:title=" ">
<path fill="none" stroke="#63b8ff" d="M106.19,-115.37C119.91,-106.04 142,-91.01 158.35,-79.88"/>
<polygon fill="#63b8ff" stroke="#63b8ff" points="160.46,-82.69 166.76,-74.17 156.52,-76.9 160.46,-82.69"/>
</a>
</g>
</g>
<!-- Node4&#45;&gt;Node3 -->
<g id="edge4_Node000004_Node000003" class="edge">
<title>Node4&#45;&gt;Node3</title>
<g id="a_edge4_Node000004_Node000003"><a xlink:title=" ">
<path fill="none" stroke="#63b8ff" d="M179.5,-54.75C179.5,-47.8 179.5,-37.85 179.5,-29.13"/>
<polygon fill="#63b8ff" stroke="#63b8ff" points="183,-29.09 179.5,-19.09 176,-29.09 183,-29.09"/>
</a>
</g>
</g>
<!-- Node5&#45;&gt;Node3 -->
<g id="edge6_Node000005_Node000003" class="edge">
<title>Node5&#45;&gt;Node3</title>
<g id="a_edge6_Node000005_Node000003"><a xlink:title=" ">
<path fill="none" stroke="#63b8ff" d="M268.5,-109.91C271.85,-95.11 274.61,-71.7 264.5,-55 253.61,-37 232.77,-25.93 214.46,-19.33"/>
<polygon fill="#63b8ff" stroke="#63b8ff" points="215.49,-15.99 204.9,-16.2 213.31,-22.64 215.49,-15.99"/>
</a>
</g>
</g>
<!-- Node5&#45;&gt;Node4 -->
<g id="edge7_Node000005_Node000004" class="edge">
<title>Node5&#45;&gt;Node4</title>
<g id="a_edge7_Node000005_Node000004"><a xlink:title=" ">
<path fill="none" stroke="#63b8ff" d="M243.92,-109.84C230.83,-100.83 213.91,-89.18 200.7,-80.09"/>
<polygon fill="#63b8ff" stroke="#63b8ff" points="202.46,-77.05 192.24,-74.27 198.49,-82.82 202.46,-77.05"/>
</a>
</g>
</g>
</g>
</svg>
