<?xml version="1.0" encoding="UTF-8" standalone="no"?>
<!DOCTYPE svg PUBLIC "-//W3C//DTD SVG 1.1//EN"
 "http://www.w3.org/Graphics/SVG/1.1/DTD/svg11.dtd">
<!-- Generated by graphviz version 2.43.0 (0)
 -->
<!-- Title: alps_common_lib/include/alps_cmn/control/low_pass_filter.hpp Pages: 1 -->
<svg width="776pt" height="373pt"
 viewBox="0.00 0.00 776.00 373.00" xmlns="http://www.w3.org/2000/svg" xmlns:xlink="http://www.w3.org/1999/xlink">
<g id="graph0" class="graph" transform="scale(1 1) rotate(0) translate(4 369)">
<title>alps_common_lib/include/alps_cmn/control/low_pass_filter.hpp</title>
<polygon fill="white" stroke="transparent" points="-4,4 -4,-369 772,-369 772,4 -4,4"/>
<!-- Node1 -->
<g id="node1" class="node">
<title>Node1</title>
<g id="a_node1"><a xlink:title="ローパスフィルタのクラス">
<polygon fill="#bfbfbf" stroke="black" points="508,-323.5 508,-364.5 648,-364.5 648,-323.5 508,-323.5"/>
<text text-anchor="start" x="516" y="-352.5" font-family="Helvetica,sans-Serif" font-size="10.00">alps_common_lib/include</text>
<text text-anchor="start" x="516" y="-341.5" font-family="Helvetica,sans-Serif" font-size="10.00">/alps_cmn/control/low</text>
<text text-anchor="middle" x="578" y="-330.5" font-family="Helvetica,sans-Serif" font-size="10.00">_pass_filter.hpp</text>
</a>
</g>
</g>
<!-- Node2 -->
<g id="node2" class="node">
<title>Node2</title>
<g id="a_node2"><a xlink:href="low__pass__differentiator_8hpp.html" target="_top" xlink:title=" ">
<polygon fill="white" stroke="black" points="416,-245.5 416,-286.5 556,-286.5 556,-245.5 416,-245.5"/>
<text text-anchor="start" x="424" y="-274.5" font-family="Helvetica,sans-Serif" font-size="10.00">alps_common_lib/include</text>
<text text-anchor="start" x="424" y="-263.5" font-family="Helvetica,sans-Serif" font-size="10.00">/alps_cmn/control/low</text>
<text text-anchor="middle" x="486" y="-252.5" font-family="Helvetica,sans-Serif" font-size="10.00">_pass_differentiator.hpp</text>
</a>
</g>
</g>
<!-- Node1&#45;&gt;Node2 -->
<g id="edge1" class="edge">
<title>Node1&#45;&gt;Node2</title>
<path fill="none" stroke="midnightblue" d="M546.26,-316.78C534.23,-306.84 520.76,-295.72 509.61,-286.51"/>
<polygon fill="midnightblue" stroke="midnightblue" points="544.37,-319.76 554.31,-323.43 548.83,-314.36 544.37,-319.76"/>
</g>
<!-- Node11 -->
<g id="node11" class="node">
<title>Node11</title>
<g id="a_node11"><a xlink:href="potentiometer_8hpp.html" target="_top" xlink:title="ポテンショメータのクラス">
<polygon fill="white" stroke="black" points="574,-251 574,-281 768,-281 768,-251 574,-251"/>
<text text-anchor="start" x="582" y="-269" font-family="Helvetica,sans-Serif" font-size="10.00">alps_common_lib/include</text>
<text text-anchor="middle" x="671" y="-258" font-family="Helvetica,sans-Serif" font-size="10.00">/alps_cmn/sensor/potentiometer.hpp</text>
</a>
</g>
</g>
<!-- Node1&#45;&gt;Node11 -->
<g id="edge14" class="edge">
<title>Node1&#45;&gt;Node11</title>
<path fill="none" stroke="midnightblue" d="M609.83,-316.99C624.48,-305.02 641.3,-291.27 653.59,-281.23"/>
<polygon fill="midnightblue" stroke="midnightblue" points="607.48,-314.39 601.95,-323.43 611.91,-319.81 607.48,-314.39"/>
</g>
<!-- Node3 -->
<g id="node3" class="node">
<title>Node3</title>
<g id="a_node3"><a xlink:href="motor__velocity__controller_8hpp.html" target="_top" xlink:title=" ">
<polygon fill="white" stroke="black" points="258,-89.5 258,-130.5 398,-130.5 398,-89.5 258,-89.5"/>
<text text-anchor="start" x="266" y="-118.5" font-family="Helvetica,sans-Serif" font-size="10.00">alps_common_lib/include</text>
<text text-anchor="start" x="266" y="-107.5" font-family="Helvetica,sans-Serif" font-size="10.00">/alps_cmn/control/motor</text>
<text text-anchor="middle" x="328" y="-96.5" font-family="Helvetica,sans-Serif" font-size="10.00">_velocity_controller.hpp</text>
</a>
</g>
</g>
<!-- Node2&#45;&gt;Node3 -->
<g id="edge2" class="edge">
<title>Node2&#45;&gt;Node3</title>
<path fill="none" stroke="midnightblue" d="M445.2,-239.78C432.06,-230.81 417.85,-220.15 406,-209 380.18,-184.72 355.62,-151.63 341.18,-130.79"/>
<polygon fill="midnightblue" stroke="midnightblue" points="443.38,-242.77 453.64,-245.42 447.27,-236.95 443.38,-242.77"/>
</g>
<!-- Node8 -->
<g id="node8" class="node">
<title>Node8</title>
<g id="a_node8"><a xlink:href="pid_8hpp.html" target="_top" xlink:title=" ">
<polygon fill="white" stroke="black" points="415,-173 415,-203 557,-203 557,-173 415,-173"/>
<text text-anchor="start" x="423" y="-191" font-family="Helvetica,sans-Serif" font-size="10.00">alps_common_lib/include</text>
<text text-anchor="middle" x="486" y="-180" font-family="Helvetica,sans-Serif" font-size="10.00">/alps_cmn/control/pid.hpp</text>
</a>
</g>
</g>
<!-- Node2&#45;&gt;Node8 -->
<g id="edge7" class="edge">
<title>Node2&#45;&gt;Node8</title>
<path fill="none" stroke="midnightblue" d="M486,-235.28C486,-224.25 486,-212.25 486,-203.23"/>
<polygon fill="midnightblue" stroke="midnightblue" points="482.5,-235.43 486,-245.43 489.5,-235.43 482.5,-235.43"/>
</g>
<!-- Node10 -->
<g id="node10" class="node">
<title>Node10</title>
<g id="a_node10"><a xlink:href="motor__friction__analyzer_8hpp.html" target="_top" xlink:title="モーター軸の摩擦力を計測するクラス">
<polygon fill="white" stroke="black" points="575,-167.5 575,-208.5 735,-208.5 735,-167.5 575,-167.5"/>
<text text-anchor="start" x="583" y="-196.5" font-family="Helvetica,sans-Serif" font-size="10.00">alps_common_lib/include</text>
<text text-anchor="start" x="583" y="-185.5" font-family="Helvetica,sans-Serif" font-size="10.00">/alps_cmn/tool/motor_friction</text>
<text text-anchor="middle" x="655" y="-174.5" font-family="Helvetica,sans-Serif" font-size="10.00">_analyzer.hpp</text>
</a>
</g>
</g>
<!-- Node2&#45;&gt;Node10 -->
<g id="edge13" class="edge">
<title>Node2&#45;&gt;Node10</title>
<path fill="none" stroke="midnightblue" d="M538.95,-241.19C562.33,-230.67 589.47,-218.47 611.63,-208.51"/>
<polygon fill="midnightblue" stroke="midnightblue" points="537.21,-238.13 529.52,-245.43 540.08,-244.52 537.21,-238.13"/>
</g>
<!-- Node4 -->
<g id="node4" class="node">
<title>Node4</title>
<g id="a_node4"><a xlink:href="custom__type__serialize__rule_8hpp.html" target="_top" xlink:title="カスタム型のシリアライズ規則を定義する">
<polygon fill="white" stroke="black" points="0,-6 0,-47 174,-47 174,-6 0,-6"/>
<text text-anchor="start" x="8" y="-35" font-family="Helvetica,sans-Serif" font-size="10.00">alps_common_lib/include</text>
<text text-anchor="start" x="8" y="-24" font-family="Helvetica,sans-Serif" font-size="10.00">/alps_cmn/communication</text>
<text text-anchor="middle" x="87" y="-13" font-family="Helvetica,sans-Serif" font-size="10.00">/custom_type_serialize_rule.hpp</text>
</a>
</g>
</g>
<!-- Node3&#45;&gt;Node4 -->
<g id="edge3" class="edge">
<title>Node3&#45;&gt;Node4</title>
<path fill="none" stroke="midnightblue" d="M260.7,-86.24C224.2,-73.9 179.56,-58.8 144.67,-47"/>
<polygon fill="midnightblue" stroke="midnightblue" points="259.68,-89.59 270.27,-89.48 261.92,-82.96 259.68,-89.59"/>
</g>
<!-- Node5 -->
<g id="node5" class="node">
<title>Node5</title>
<g id="a_node5"><a xlink:href="motor__angle__velocity__controller_8hpp.html" target="_top" xlink:title=" ">
<polygon fill="white" stroke="black" points="403.5,-6 403.5,-47 568.5,-47 568.5,-6 403.5,-6"/>
<text text-anchor="start" x="411.5" y="-35" font-family="Helvetica,sans-Serif" font-size="10.00">alps_common_lib/include</text>
<text text-anchor="start" x="411.5" y="-24" font-family="Helvetica,sans-Serif" font-size="10.00">/alps_cmn/control/motor</text>
<text text-anchor="middle" x="486" y="-13" font-family="Helvetica,sans-Serif" font-size="10.00">_angle_velocity_controller.hpp</text>
</a>
</g>
</g>
<!-- Node3&#45;&gt;Node5 -->
<g id="edge4" class="edge">
<title>Node3&#45;&gt;Node5</title>
<path fill="none" stroke="midnightblue" d="M374.9,-84.81C398.28,-72.75 426.19,-58.35 448.19,-47"/>
<polygon fill="midnightblue" stroke="midnightblue" points="373.13,-81.78 365.84,-89.48 376.34,-88 373.13,-81.78"/>
</g>
<!-- Node6 -->
<g id="node6" class="node">
<title>Node6</title>
<g id="a_node6"><a xlink:href="custom__type__can__topic__conversion__rule_8hpp.html" target="_top" xlink:title=" ">
<polygon fill="white" stroke="black" points="192.5,-0.5 192.5,-52.5 385.5,-52.5 385.5,-0.5 192.5,-0.5"/>
<text text-anchor="start" x="200.5" y="-40.5" font-family="Helvetica,sans-Serif" font-size="10.00">alps_ros2_lib/include</text>
<text text-anchor="start" x="200.5" y="-29.5" font-family="Helvetica,sans-Serif" font-size="10.00">/alps_ros2/communication</text>
<text text-anchor="start" x="200.5" y="-18.5" font-family="Helvetica,sans-Serif" font-size="10.00">/custom_type_can_topic_conversion</text>
<text text-anchor="middle" x="289" y="-7.5" font-family="Helvetica,sans-Serif" font-size="10.00">_rule.hpp</text>
</a>
</g>
</g>
<!-- Node3&#45;&gt;Node6 -->
<g id="edge5" class="edge">
<title>Node3&#45;&gt;Node6</title>
<path fill="none" stroke="midnightblue" d="M314.11,-79.98C309.83,-71.04 305.16,-61.27 301.01,-52.61"/>
<polygon fill="midnightblue" stroke="midnightblue" points="311.09,-81.76 318.56,-89.27 317.4,-78.74 311.09,-81.76"/>
</g>
<!-- Node7 -->
<g id="node7" class="node">
<title>Node7</title>
<g id="a_node7"><a xlink:href="custom__type__param__conversion__rule_8hpp.html" target="_top" xlink:title=" ">
<polygon fill="white" stroke="black" points="586.5,-0.5 586.5,-52.5 725.5,-52.5 725.5,-0.5 586.5,-0.5"/>
<text text-anchor="start" x="594.5" y="-40.5" font-family="Helvetica,sans-Serif" font-size="10.00">alps_ros2_lib/include</text>
<text text-anchor="start" x="594.5" y="-29.5" font-family="Helvetica,sans-Serif" font-size="10.00">/alps_ros2/util/custom</text>
<text text-anchor="start" x="594.5" y="-18.5" font-family="Helvetica,sans-Serif" font-size="10.00">_type_param_conversion</text>
<text text-anchor="middle" x="656" y="-7.5" font-family="Helvetica,sans-Serif" font-size="10.00">_rule.hpp</text>
</a>
</g>
</g>
<!-- Node3&#45;&gt;Node7 -->
<g id="edge6" class="edge">
<title>Node3&#45;&gt;Node7</title>
<path fill="none" stroke="midnightblue" d="M408.2,-88.78C483.97,-71.6 505.43,-72.07 577,-53 580.06,-52.18 583.18,-51.32 586.33,-50.42"/>
<polygon fill="midnightblue" stroke="midnightblue" points="407.14,-85.43 398.18,-91.08 408.71,-92.25 407.14,-85.43"/>
</g>
<!-- Node8&#45;&gt;Node3 -->
<g id="edge11" class="edge">
<title>Node8&#45;&gt;Node3</title>
<path fill="none" stroke="midnightblue" d="M447.54,-168.5C423.69,-157.03 393.08,-142.3 368.81,-130.63"/>
<polygon fill="midnightblue" stroke="midnightblue" points="446.12,-171.7 456.65,-172.88 449.16,-165.39 446.12,-171.7"/>
</g>
<!-- Node8&#45;&gt;Node5 -->
<g id="edge10" class="edge">
<title>Node8&#45;&gt;Node5</title>
<path fill="none" stroke="midnightblue" d="M527.85,-167.73C542.33,-158.77 556.95,-146.58 565,-131 573.57,-114.42 573.2,-105.77 565,-89 556.37,-71.35 539.97,-57.3 524.34,-47.11"/>
<polygon fill="midnightblue" stroke="midnightblue" points="525.81,-164.87 518.9,-172.9 529.31,-170.93 525.81,-164.87"/>
</g>
<!-- Node8&#45;&gt;Node7 -->
<g id="edge12" class="edge">
<title>Node8&#45;&gt;Node7</title>
<path fill="none" stroke="midnightblue" d="M527.01,-168.38C545.37,-158.83 566.54,-146.03 583,-131 608.01,-108.17 629.34,-75.35 642.38,-52.82"/>
<polygon fill="midnightblue" stroke="midnightblue" points="525.33,-165.31 517.98,-172.94 528.49,-171.56 525.33,-165.31"/>
</g>
<!-- Node9 -->
<g id="node9" class="node">
<title>Node9</title>
<g id="a_node9"><a xlink:href="motor__angle__controller_8hpp.html" target="_top" xlink:title=" ">
<polygon fill="white" stroke="black" points="416,-89.5 416,-130.5 556,-130.5 556,-89.5 416,-89.5"/>
<text text-anchor="start" x="424" y="-118.5" font-family="Helvetica,sans-Serif" font-size="10.00">alps_common_lib/include</text>
<text text-anchor="start" x="424" y="-107.5" font-family="Helvetica,sans-Serif" font-size="10.00">/alps_cmn/control/motor</text>
<text text-anchor="middle" x="486" y="-96.5" font-family="Helvetica,sans-Serif" font-size="10.00">_angle_controller.hpp</text>
</a>
</g>
</g>
<!-- Node8&#45;&gt;Node9 -->
<g id="edge8" class="edge">
<title>Node8&#45;&gt;Node9</title>
<path fill="none" stroke="midnightblue" d="M486,-162.66C486,-152.33 486,-140.44 486,-130.68"/>
<polygon fill="midnightblue" stroke="midnightblue" points="482.5,-162.7 486,-172.7 489.5,-162.71 482.5,-162.7"/>
</g>
<!-- Node9&#45;&gt;Node5 -->
<g id="edge9" class="edge">
<title>Node9&#45;&gt;Node5</title>
<path fill="none" stroke="midnightblue" d="M486,-79.06C486,-68.38 486,-56.63 486,-47.05"/>
<polygon fill="midnightblue" stroke="midnightblue" points="482.5,-79.27 486,-89.27 489.5,-79.27 482.5,-79.27"/>
</g>
</g>
</svg>
