<?xml version="1.0" encoding="UTF-8" standalone="no"?>
<!DOCTYPE svg PUBLIC "-//W3C//DTD SVG 1.1//EN"
 "http://www.w3.org/Graphics/SVG/1.1/DTD/svg11.dtd">
<!-- Generated by graphviz version 2.43.0 (0)
 -->
<!-- Title: alps_common_lib/include/alps_cmn/control/low_pass_differentiator.hpp Pages: 1 -->
<svg width="500pt" height="295pt"
 viewBox="0.00 0.00 500.00 295.00" xmlns="http://www.w3.org/2000/svg" xmlns:xlink="http://www.w3.org/1999/xlink">
<g id="graph0" class="graph" transform="scale(1 1) rotate(0) translate(4 291)">
<title>alps_common_lib/include/alps_cmn/control/low_pass_differentiator.hpp</title>
<polygon fill="white" stroke="transparent" points="-4,4 -4,-291 496,-291 496,4 -4,4"/>
<!-- Node1 -->
<g id="node1" class="node">
<title>Node1</title>
<g id="a_node1"><a xlink:title=" ">
<polygon fill="#bfbfbf" stroke="black" points="234,-245.5 234,-286.5 374,-286.5 374,-245.5 234,-245.5"/>
<text text-anchor="start" x="242" y="-274.5" font-family="Helvetica,sans-Serif" font-size="10.00">alps_common_lib/include</text>
<text text-anchor="start" x="242" y="-263.5" font-family="Helvetica,sans-Serif" font-size="10.00">/alps_cmn/control/low</text>
<text text-anchor="middle" x="304" y="-252.5" font-family="Helvetica,sans-Serif" font-size="10.00">_pass_differentiator.hpp</text>
</a>
</g>
</g>
<!-- Node2 -->
<g id="node2" class="node">
<title>Node2</title>
<g id="a_node2"><a xlink:href="motor__velocity__controller_8hpp.html" target="_top" xlink:title=" ">
<polygon fill="white" stroke="black" points="234,-89.5 234,-130.5 374,-130.5 374,-89.5 234,-89.5"/>
<text text-anchor="start" x="242" y="-118.5" font-family="Helvetica,sans-Serif" font-size="10.00">alps_common_lib/include</text>
<text text-anchor="start" x="242" y="-107.5" font-family="Helvetica,sans-Serif" font-size="10.00">/alps_cmn/control/motor</text>
<text text-anchor="middle" x="304" y="-96.5" font-family="Helvetica,sans-Serif" font-size="10.00">_velocity_controller.hpp</text>
</a>
</g>
</g>
<!-- Node1&#45;&gt;Node2 -->
<g id="edge1" class="edge">
<title>Node1&#45;&gt;Node2</title>
<path fill="none" stroke="midnightblue" d="M304,-235.36C304,-204.61 304,-157.36 304,-130.83"/>
<polygon fill="midnightblue" stroke="midnightblue" points="300.5,-235.5 304,-245.5 307.5,-235.5 300.5,-235.5"/>
</g>
<!-- Node6 -->
<g id="node6" class="node">
<title>Node6</title>
<g id="a_node6"><a xlink:href="pid_8hpp.html" target="_top" xlink:title=" ">
<polygon fill="white" stroke="black" points="134,-173 134,-203 276,-203 276,-173 134,-173"/>
<text text-anchor="start" x="142" y="-191" font-family="Helvetica,sans-Serif" font-size="10.00">alps_common_lib/include</text>
<text text-anchor="middle" x="205" y="-180" font-family="Helvetica,sans-Serif" font-size="10.00">/alps_cmn/control/pid.hpp</text>
</a>
</g>
</g>
<!-- Node1&#45;&gt;Node6 -->
<g id="edge5" class="edge">
<title>Node1&#45;&gt;Node6</title>
<path fill="none" stroke="midnightblue" d="M270.55,-239.32C254.85,-227.27 236.73,-213.36 223.53,-203.23"/>
<polygon fill="midnightblue" stroke="midnightblue" points="268.44,-242.11 278.51,-245.43 272.7,-236.56 268.44,-242.11"/>
</g>
<!-- Node8 -->
<g id="node8" class="node">
<title>Node8</title>
<g id="a_node8"><a xlink:href="motor__friction__analyzer_8hpp.html" target="_top" xlink:title="モーター軸の摩擦力を計測するクラス">
<polygon fill="white" stroke="black" points="332,-167.5 332,-208.5 492,-208.5 492,-167.5 332,-167.5"/>
<text text-anchor="start" x="340" y="-196.5" font-family="Helvetica,sans-Serif" font-size="10.00">alps_common_lib/include</text>
<text text-anchor="start" x="340" y="-185.5" font-family="Helvetica,sans-Serif" font-size="10.00">/alps_cmn/tool/motor_friction</text>
<text text-anchor="middle" x="412" y="-174.5" font-family="Helvetica,sans-Serif" font-size="10.00">_analyzer.hpp</text>
</a>
</g>
</g>
<!-- Node1&#45;&gt;Node8 -->
<g id="edge11" class="edge">
<title>Node1&#45;&gt;Node8</title>
<path fill="none" stroke="midnightblue" d="M340.04,-239.64C354.47,-229.49 370.82,-217.98 384.28,-208.51"/>
<polygon fill="midnightblue" stroke="midnightblue" points="337.98,-236.81 331.81,-245.43 342.01,-242.54 337.98,-236.81"/>
</g>
<!-- Node3 -->
<g id="node3" class="node">
<title>Node3</title>
<g id="a_node3"><a xlink:href="motor__angle__velocity__controller_8hpp.html" target="_top" xlink:title=" ">
<polygon fill="white" stroke="black" points="19.5,-6 19.5,-47 184.5,-47 184.5,-6 19.5,-6"/>
<text text-anchor="start" x="27.5" y="-35" font-family="Helvetica,sans-Serif" font-size="10.00">alps_common_lib/include</text>
<text text-anchor="start" x="27.5" y="-24" font-family="Helvetica,sans-Serif" font-size="10.00">/alps_cmn/control/motor</text>
<text text-anchor="middle" x="102" y="-13" font-family="Helvetica,sans-Serif" font-size="10.00">_angle_velocity_controller.hpp</text>
</a>
</g>
</g>
<!-- Node2&#45;&gt;Node3 -->
<g id="edge2" class="edge">
<title>Node2&#45;&gt;Node3</title>
<path fill="none" stroke="midnightblue" d="M246.02,-85.61C215.73,-73.39 179.08,-58.6 150.34,-47"/>
<polygon fill="midnightblue" stroke="midnightblue" points="245.03,-88.98 255.62,-89.48 247.65,-82.49 245.03,-88.98"/>
</g>
<!-- Node4 -->
<g id="node4" class="node">
<title>Node4</title>
<g id="a_node4"><a xlink:href="custom__type__param__conversion__rule_8hpp.html" target="_top" xlink:title=" ">
<polygon fill="white" stroke="black" points="202.5,-0.5 202.5,-52.5 341.5,-52.5 341.5,-0.5 202.5,-0.5"/>
<text text-anchor="start" x="210.5" y="-40.5" font-family="Helvetica,sans-Serif" font-size="10.00">alps_ros2_lib/include</text>
<text text-anchor="start" x="210.5" y="-29.5" font-family="Helvetica,sans-Serif" font-size="10.00">/alps_ros2/type/custom</text>
<text text-anchor="start" x="210.5" y="-18.5" font-family="Helvetica,sans-Serif" font-size="10.00">_type_param_conversion</text>
<text text-anchor="middle" x="272" y="-7.5" font-family="Helvetica,sans-Serif" font-size="10.00">_rule.hpp</text>
</a>
</g>
</g>
<!-- Node2&#45;&gt;Node4 -->
<g id="edge3" class="edge">
<title>Node2&#45;&gt;Node4</title>
<path fill="none" stroke="midnightblue" d="M292.49,-79.69C289.01,-70.83 285.22,-61.17 281.86,-52.61"/>
<polygon fill="midnightblue" stroke="midnightblue" points="289.34,-81.24 296.25,-89.27 295.86,-78.68 289.34,-81.24"/>
</g>
<!-- Node5 -->
<g id="node5" class="node">
<title>Node5</title>
<g id="a_node5"><a xlink:href="custom__type__topic__conversion__rule_8hpp.html" target="_top" xlink:title=" ">
<polygon fill="white" stroke="black" points="359.5,-0.5 359.5,-52.5 490.5,-52.5 490.5,-0.5 359.5,-0.5"/>
<text text-anchor="start" x="367.5" y="-40.5" font-family="Helvetica,sans-Serif" font-size="10.00">alps_ros2_lib/include</text>
<text text-anchor="start" x="367.5" y="-29.5" font-family="Helvetica,sans-Serif" font-size="10.00">/alps_ros2/type/custom</text>
<text text-anchor="start" x="367.5" y="-18.5" font-family="Helvetica,sans-Serif" font-size="10.00">_type_topic_conversion</text>
<text text-anchor="middle" x="425" y="-7.5" font-family="Helvetica,sans-Serif" font-size="10.00">_rule.hpp</text>
</a>
</g>
</g>
<!-- Node2&#45;&gt;Node5 -->
<g id="edge4" class="edge">
<title>Node2&#45;&gt;Node5</title>
<path fill="none" stroke="midnightblue" d="M341.35,-83.84C356.03,-73.96 372.85,-62.62 387.54,-52.73"/>
<polygon fill="midnightblue" stroke="midnightblue" points="339.32,-80.99 332.98,-89.48 343.23,-86.8 339.32,-80.99"/>
</g>
<!-- Node6&#45;&gt;Node2 -->
<g id="edge9" class="edge">
<title>Node6&#45;&gt;Node2</title>
<path fill="none" stroke="midnightblue" d="M231.72,-166.49C246.21,-155.36 264.04,-141.68 278.36,-130.68"/>
<polygon fill="midnightblue" stroke="midnightblue" points="229.42,-163.84 223.62,-172.7 233.68,-169.39 229.42,-163.84"/>
</g>
<!-- Node6&#45;&gt;Node3 -->
<g id="edge8" class="edge">
<title>Node6&#45;&gt;Node3</title>
<path fill="none" stroke="midnightblue" d="M192.78,-163.61C181.96,-143.42 165.39,-113.7 149,-89 139.42,-74.56 127.56,-59.05 118.15,-47.22"/>
<polygon fill="midnightblue" stroke="midnightblue" points="189.82,-165.5 197.6,-172.69 196,-162.22 189.82,-165.5"/>
</g>
<!-- Node6&#45;&gt;Node4 -->
<g id="edge10" class="edge">
<title>Node6&#45;&gt;Node4</title>
<path fill="none" stroke="midnightblue" d="M206.9,-162.72C209.2,-142.29 214.21,-112.71 225,-89 230.9,-76.03 239.97,-63.26 248.58,-52.75"/>
<polygon fill="midnightblue" stroke="midnightblue" points="203.41,-162.46 205.9,-172.75 210.37,-163.15 203.41,-162.46"/>
</g>
<!-- Node7 -->
<g id="node7" class="node">
<title>Node7</title>
<g id="a_node7"><a xlink:href="motor__angle__controller_8hpp.html" target="_top" xlink:title=" ">
<polygon fill="white" stroke="black" points="0,-89.5 0,-130.5 140,-130.5 140,-89.5 0,-89.5"/>
<text text-anchor="start" x="8" y="-118.5" font-family="Helvetica,sans-Serif" font-size="10.00">alps_common_lib/include</text>
<text text-anchor="start" x="8" y="-107.5" font-family="Helvetica,sans-Serif" font-size="10.00">/alps_cmn/control/motor</text>
<text text-anchor="middle" x="70" y="-96.5" font-family="Helvetica,sans-Serif" font-size="10.00">_angle_controller.hpp</text>
</a>
</g>
</g>
<!-- Node6&#45;&gt;Node7 -->
<g id="edge6" class="edge">
<title>Node6&#45;&gt;Node7</title>
<path fill="none" stroke="midnightblue" d="M171.05,-167.89C150.84,-156.51 125.24,-142.1 104.87,-130.63"/>
<polygon fill="midnightblue" stroke="midnightblue" points="169.49,-171.03 179.92,-172.88 172.93,-164.93 169.49,-171.03"/>
</g>
<!-- Node7&#45;&gt;Node3 -->
<g id="edge7" class="edge">
<title>Node7&#45;&gt;Node3</title>
<path fill="none" stroke="midnightblue" d="M81.49,-79.73C85.76,-68.87 90.48,-56.83 94.33,-47.05"/>
<polygon fill="midnightblue" stroke="midnightblue" points="78.14,-78.68 77.75,-89.27 84.66,-81.24 78.14,-78.68"/>
</g>
</g>
</svg>
