<?xml version="1.0" encoding="UTF-8" standalone="no"?>
<!DOCTYPE svg PUBLIC "-//W3C//DTD SVG 1.1//EN"
 "http://www.w3.org/Graphics/SVG/1.1/DTD/svg11.dtd">
<!-- Generated by graphviz version 2.43.0 (0)
 -->
<!-- Title: alps_common_lib/include/alps_cmn/control/low_pass_differentiator.hpp Pages: 1 -->
<svg width="333pt" height="229pt"
 viewBox="0.00 0.00 332.50 229.00" xmlns="http://www.w3.org/2000/svg" xmlns:xlink="http://www.w3.org/1999/xlink">
<g id="graph0" class="graph" transform="scale(1 1) rotate(0) translate(4 225)">
<title>alps_common_lib/include/alps_cmn/control/low_pass_differentiator.hpp</title>
<polygon fill="white" stroke="transparent" points="-4,4 -4,-225 328.5,-225 328.5,4 -4,4"/>
<!-- Node1 -->
<g id="node1" class="node">
<title>Node1</title>
<g id="a_node1"><a xlink:title=" ">
<polygon fill="#bfbfbf" stroke="black" points="108.5,-179.5 108.5,-220.5 248.5,-220.5 248.5,-179.5 108.5,-179.5"/>
<text text-anchor="start" x="116.5" y="-208.5" font-family="Helvetica,sans-Serif" font-size="10.00">alps_common_lib/include</text>
<text text-anchor="start" x="116.5" y="-197.5" font-family="Helvetica,sans-Serif" font-size="10.00">/alps_cmn/control/low</text>
<text text-anchor="middle" x="178.5" y="-186.5" font-family="Helvetica,sans-Serif" font-size="10.00">_pass_differentiator.hpp</text>
</a>
</g>
</g>
<!-- Node2 -->
<g id="node2" class="node">
<title>Node2</title>
<g id="a_node2"><a xlink:href="differentiator_8hpp.html" target="_top" xlink:title="微分器ライブラリ">
<polygon fill="white" stroke="black" points="0,-118 0,-137 187,-137 187,-118 0,-118"/>
<text text-anchor="middle" x="93.5" y="-125" font-family="Helvetica,sans-Serif" font-size="10.00">alps_cmn/control/differentiator.hpp</text>
</a>
</g>
</g>
<!-- Node1&#45;&gt;Node2 -->
<g id="edge1" class="edge">
<title>Node1&#45;&gt;Node2</title>
<path fill="none" stroke="midnightblue" d="M154.82,-179.36C141.25,-168.11 124.47,-154.19 111.9,-143.76"/>
<polygon fill="midnightblue" stroke="midnightblue" points="113.89,-140.86 103.96,-137.17 109.42,-146.25 113.89,-140.86"/>
</g>
<!-- Node5 -->
<g id="node5" class="node">
<title>Node5</title>
<g id="a_node5"><a xlink:href="low__pass__filter_8hpp.html" target="_top" xlink:title="ローパスフィルタのクラス">
<polygon fill="white" stroke="black" points="204.5,-112.5 204.5,-142.5 324.5,-142.5 324.5,-112.5 204.5,-112.5"/>
<text text-anchor="start" x="212.5" y="-130.5" font-family="Helvetica,sans-Serif" font-size="10.00">alps_cmn/control/low</text>
<text text-anchor="middle" x="264.5" y="-119.5" font-family="Helvetica,sans-Serif" font-size="10.00">_pass_filter.hpp</text>
</a>
</g>
</g>
<!-- Node1&#45;&gt;Node5 -->
<g id="edge5" class="edge">
<title>Node1&#45;&gt;Node5</title>
<path fill="none" stroke="midnightblue" d="M202.46,-179.36C213.89,-169.99 227.59,-158.76 239.19,-149.25"/>
<polygon fill="midnightblue" stroke="midnightblue" points="241.7,-151.72 247.21,-142.67 237.26,-146.3 241.7,-151.72"/>
</g>
<!-- Node3 -->
<g id="node3" class="node">
<title>Node3</title>
<g id="a_node3"><a xlink:title=" ">
<polygon fill="white" stroke="#bfbfbf" points="154.5,-0.5 154.5,-19.5 204.5,-19.5 204.5,-0.5 154.5,-0.5"/>
<text text-anchor="middle" x="179.5" y="-7.5" font-family="Helvetica,sans-Serif" font-size="10.00">chrono</text>
</a>
</g>
</g>
<!-- Node2&#45;&gt;Node3 -->
<g id="edge2" class="edge">
<title>Node2&#45;&gt;Node3</title>
<path fill="none" stroke="midnightblue" d="M90.86,-117.94C87.05,-103.87 81.71,-75.48 93.5,-56 104.6,-37.67 125.88,-26.45 144.5,-19.79"/>
<polygon fill="midnightblue" stroke="midnightblue" points="145.78,-23.06 154.21,-16.63 143.62,-16.4 145.78,-23.06"/>
</g>
<!-- Node4 -->
<g id="node4" class="node">
<title>Node4</title>
<g id="a_node4"><a xlink:href="duration_8hpp.html" target="_top" xlink:title="時間間隔の型エイリアス">
<polygon fill="white" stroke="black" points="103,-56.5 103,-75.5 256,-75.5 256,-56.5 103,-56.5"/>
<text text-anchor="middle" x="179.5" y="-63.5" font-family="Helvetica,sans-Serif" font-size="10.00">alps_cmn/time/duration.hpp</text>
</a>
</g>
</g>
<!-- Node2&#45;&gt;Node4 -->
<g id="edge3" class="edge">
<title>Node2&#45;&gt;Node4</title>
<path fill="none" stroke="midnightblue" d="M105.82,-117.98C119.62,-108.43 142.2,-92.81 158.73,-81.37"/>
<polygon fill="midnightblue" stroke="midnightblue" points="160.97,-84.08 167.2,-75.51 156.99,-78.32 160.97,-84.08"/>
</g>
<!-- Node4&#45;&gt;Node3 -->
<g id="edge4" class="edge">
<title>Node4&#45;&gt;Node3</title>
<path fill="none" stroke="midnightblue" d="M179.5,-56.08C179.5,-49.01 179.5,-38.86 179.5,-29.99"/>
<polygon fill="midnightblue" stroke="midnightblue" points="183,-29.75 179.5,-19.75 176,-29.75 183,-29.75"/>
</g>
<!-- Node5&#45;&gt;Node3 -->
<g id="edge6" class="edge">
<title>Node5&#45;&gt;Node3</title>
<path fill="none" stroke="midnightblue" d="M268.51,-112.39C271.94,-97.29 274.85,-73.2 264.5,-56 253.55,-37.81 232.51,-26.59 214.1,-19.9"/>
<polygon fill="midnightblue" stroke="midnightblue" points="215.1,-16.54 204.51,-16.72 212.9,-23.19 215.1,-16.54"/>
</g>
<!-- Node5&#45;&gt;Node4 -->
<g id="edge7" class="edge">
<title>Node5&#45;&gt;Node4</title>
<path fill="none" stroke="midnightblue" d="M244.36,-112.4C231.11,-103.13 213.82,-91.03 200.42,-81.65"/>
<polygon fill="midnightblue" stroke="midnightblue" points="202.07,-78.53 191.87,-75.66 198.05,-84.26 202.07,-78.53"/>
</g>
</g>
</svg>
