<?xml version="1.0" encoding="UTF-8" standalone="no"?>
<!DOCTYPE svg PUBLIC "-//W3C//DTD SVG 1.1//EN"
 "http://www.w3.org/Graphics/SVG/1.1/DTD/svg11.dtd">
<!-- Generated by graphviz version 2.43.0 (0)
 -->
<!-- Title: alps_common_lib/include/alps_cmn/control/low_pass_filter.hpp Pages: 1 -->
<svg width="208pt" height="159pt"
 viewBox="0.00 0.00 207.50 159.00" xmlns="http://www.w3.org/2000/svg" xmlns:xlink="http://www.w3.org/1999/xlink">
<g id="graph0" class="graph" transform="scale(1 1) rotate(0) translate(4 155)">
<title>alps_common_lib/include/alps_cmn/control/low_pass_filter.hpp</title>
<!-- Node1 -->
<g id="node1" class="node">
<title>Node1</title>
<g id="a_node1"><a xlink:title="ローパスフィルタのクラス">
<polygon fill="#999999" stroke="#666666" points="140,-151 0,-151 0,-110 140,-110 140,-151"/>
<text text-anchor="start" x="8" y="-139" font-family="Helvetica,sans-Serif" font-size="10.00">alps_common_lib/include</text>
<text text-anchor="start" x="8" y="-128" font-family="Helvetica,sans-Serif" font-size="10.00">/alps_cmn/control/low</text>
<text text-anchor="middle" x="70" y="-117" font-family="Helvetica,sans-Serif" font-size="10.00">_pass_filter.hpp</text>
</a>
</g>
</g>
<!-- Node2 -->
<g id="node2" class="node">
<title>Node2</title>
<g id="a_node2"><a xlink:title=" ">
<polygon fill="#e0e0e0" stroke="#999999" points="95,-19 45,-19 45,0 95,0 95,-19"/>
<text text-anchor="middle" x="70" y="-7" font-family="Helvetica,sans-Serif" font-size="10.00">chrono</text>
</a>
</g>
</g>
<!-- Node1&#45;&gt;Node2 -->
<g id="edge1" class="edge">
<title>Node1&#45;&gt;Node2</title>
<path fill="none" stroke="#63b8ff" d="M52.68,-110C41.7,-95.2 30.66,-74.21 37,-55 40.46,-44.54 47.43,-34.53 54.08,-26.66"/>
<polygon fill="#63b8ff" stroke="#63b8ff" points="56.86,-28.8 60.98,-19.04 51.67,-24.1 56.86,-28.8"/>
</g>
<!-- Node3 -->
<g id="node3" class="node">
<title>Node3</title>
<g id="a_node3"><a xlink:href="duration_8hpp.html" target="_top" xlink:title="時間間隔の型エイリアス">
<polygon fill="white" stroke="#666666" points="199.5,-74 46.5,-74 46.5,-55 199.5,-55 199.5,-74"/>
<text text-anchor="middle" x="123" y="-62" font-family="Helvetica,sans-Serif" font-size="10.00">alps_cmn/time/duration.hpp</text>
</a>
</g>
</g>
<!-- Node1&#45;&gt;Node3 -->
<g id="edge2" class="edge">
<title>Node1&#45;&gt;Node3</title>
<path fill="none" stroke="#63b8ff" d="M86.19,-109.95C93.59,-101.02 102.25,-90.55 109.32,-82.02"/>
<polygon fill="#63b8ff" stroke="#63b8ff" points="112.06,-84.19 115.75,-74.26 106.67,-79.73 112.06,-84.19"/>
</g>
<!-- Node3&#45;&gt;Node2 -->
<g id="edge3" class="edge">
<title>Node3&#45;&gt;Node2</title>
<path fill="none" stroke="#63b8ff" d="M114.25,-54.75C106.53,-47.03 95.1,-35.6 85.78,-26.28"/>
<polygon fill="#63b8ff" stroke="#63b8ff" points="88.14,-23.69 78.59,-19.09 83.19,-28.64 88.14,-23.69"/>
</g>
</g>
</svg>
