<?xml version="1.0" encoding="UTF-8" standalone="no"?>
<!DOCTYPE svg PUBLIC "-//W3C//DTD SVG 1.1//EN"
 "http://www.w3.org/Graphics/SVG/1.1/DTD/svg11.dtd">
<!-- Generated by graphviz version 2.43.0 (0)
 -->
<!-- Title: alps_ros_lib/include/alps_ros/communication/mbed_uart_connection.hpp Pages: 1 -->
<svg width="1618pt" height="302pt"
 viewBox="0.00 0.00 1617.50 302.00" xmlns="http://www.w3.org/2000/svg" xmlns:xlink="http://www.w3.org/1999/xlink">
<g id="graph0" class="graph" transform="scale(1 1) rotate(0) translate(4 298)">
<title>alps_ros_lib/include/alps_ros/communication/mbed_uart_connection.hpp</title>
<!-- Node1 -->
<g id="node1" class="node">
<title>Node1</title>
<g id="a_node1"><a xlink:title="接続された複数のMbedとシリアル通信を行う">
<polygon fill="#999999" stroke="#666666" points="1353.5,-294 1201.5,-294 1201.5,-253 1353.5,-253 1353.5,-294"/>
<text text-anchor="start" x="1209.5" y="-282" font-family="Helvetica,sans-Serif" font-size="10.00">alps_ros_lib/include</text>
<text text-anchor="start" x="1209.5" y="-271" font-family="Helvetica,sans-Serif" font-size="10.00">/alps_ros/communication</text>
<text text-anchor="middle" x="1277.5" y="-260" font-family="Helvetica,sans-Serif" font-size="10.00">/mbed_uart_connection.hpp</text>
</a>
</g>
</g>
<!-- Node2 -->
<g id="node2" class="node">
<title>Node2</title>
<g id="a_node2"><a xlink:href="ubuntu__uart__io_8hpp.html" target="_top" xlink:title="Ubuntuシリアル通信IOライブラリ">
<polygon fill="white" stroke="#666666" points="406.5,-211.5 296.5,-211.5 296.5,-192.5 406.5,-192.5 406.5,-211.5"/>
<text text-anchor="middle" x="351.5" y="-199.5" font-family="Helvetica,sans-Serif" font-size="10.00">ubuntu_uart_io.hpp</text>
</a>
</g>
</g>
<!-- Node1&#45;&gt;Node2 -->
<g id="edge1" class="edge">
<title>Node1&#45;&gt;Node2</title>
<path fill="none" stroke="#63b8ff" d="M1201.33,-266.78C1023.45,-253.43 583.26,-220.39 416.73,-207.9"/>
<polygon fill="#63b8ff" stroke="#63b8ff" points="416.87,-204.4 406.64,-207.14 416.35,-211.38 416.87,-204.4"/>
</g>
<!-- Node16 -->
<g id="node16" class="node">
<title>Node16</title>
<g id="a_node16"><a xlink:href="id__packet__manager_8hpp.html" target="_top" xlink:title="ID付きパケットデータを管理">
<polygon fill="white" stroke="#666666" points="1249.5,-217 1107.5,-217 1107.5,-187 1249.5,-187 1249.5,-217"/>
<text text-anchor="start" x="1115.5" y="-205" font-family="Helvetica,sans-Serif" font-size="10.00">alps_cmn/communication</text>
<text text-anchor="middle" x="1178.5" y="-194" font-family="Helvetica,sans-Serif" font-size="10.00">/id_packet_manager.hpp</text>
</a>
</g>
</g>
<!-- Node1&#45;&gt;Node16 -->
<g id="edge16" class="edge">
<title>Node1&#45;&gt;Node16</title>
<path fill="none" stroke="#63b8ff" d="M1249.66,-252.96C1236.34,-243.6 1220.4,-232.42 1207,-223.01"/>
<polygon fill="#63b8ff" stroke="#63b8ff" points="1208.8,-219.99 1198.6,-217.11 1204.78,-225.72 1208.8,-219.99"/>
</g>
<!-- Node20 -->
<g id="node20" class="node">
<title>Node20</title>
<g id="a_node20"><a xlink:title=" ">
<polygon fill="#e0e0e0" stroke="#999999" points="1609.5,-145.5 1577.5,-145.5 1577.5,-126.5 1609.5,-126.5 1609.5,-145.5"/>
<text text-anchor="middle" x="1593.5" y="-133.5" font-family="Helvetica,sans-Serif" font-size="10.00">list</text>
</a>
</g>
</g>
<!-- Node1&#45;&gt;Node20 -->
<g id="edge47" class="edge">
<title>Node1&#45;&gt;Node20</title>
<path fill="none" stroke="#63b8ff" d="M1275.99,-252.79C1275.65,-233.16 1278.54,-203.63 1296.5,-187 1338.01,-148.56 1493.32,-163.44 1548.5,-151 1554.74,-149.59 1561.36,-147.74 1567.55,-145.85"/>
<polygon fill="#63b8ff" stroke="#63b8ff" points="1568.97,-149.07 1577.42,-142.69 1566.83,-142.4 1568.97,-149.07"/>
</g>
<!-- Node32 -->
<g id="node32" class="node">
<title>Node32</title>
<g id="a_node32"><a xlink:title=" ">
<polygon fill="#e0e0e0" stroke="#999999" points="1359.5,-211.5 1305.5,-211.5 1305.5,-192.5 1359.5,-192.5 1359.5,-211.5"/>
<text text-anchor="middle" x="1332.5" y="-199.5" font-family="Helvetica,sans-Serif" font-size="10.00">dirent.h</text>
</a>
</g>
</g>
<!-- Node1&#45;&gt;Node32 -->
<g id="edge46" class="edge">
<title>Node1&#45;&gt;Node32</title>
<path fill="none" stroke="#63b8ff" d="M1293.11,-252.77C1301.37,-242.34 1311.39,-229.68 1319.26,-219.73"/>
<polygon fill="#63b8ff" stroke="#63b8ff" points="1322.06,-221.83 1325.52,-211.82 1316.57,-217.49 1322.06,-221.83"/>
</g>
<!-- Node33 -->
<g id="node33" class="node">
<title>Node33</title>
<g id="a_node33"><a xlink:title=" ">
<polygon fill="#e0e0e0" stroke="#999999" points="1415.5,-211.5 1377.5,-211.5 1377.5,-192.5 1415.5,-192.5 1415.5,-211.5"/>
<text text-anchor="middle" x="1396.5" y="-199.5" font-family="Helvetica,sans-Serif" font-size="10.00">map</text>
</a>
</g>
</g>
<!-- Node1&#45;&gt;Node33 -->
<g id="edge48" class="edge">
<title>Node1&#45;&gt;Node33</title>
<path fill="none" stroke="#63b8ff" d="M1310.96,-252.96C1330.69,-241.44 1355.16,-227.14 1372.87,-216.8"/>
<polygon fill="#63b8ff" stroke="#63b8ff" points="1375.07,-219.57 1381.94,-211.5 1371.54,-213.52 1375.07,-219.57"/>
</g>
<!-- Node3 -->
<g id="node3" class="node">
<title>Node3</title>
<g id="a_node3"><a xlink:title=" ">
<polygon fill="#e0e0e0" stroke="#999999" points="408,-145.5 361,-145.5 361,-126.5 408,-126.5 408,-145.5"/>
<text text-anchor="middle" x="384.5" y="-133.5" font-family="Helvetica,sans-Serif" font-size="10.00">fcntl.h</text>
</a>
</g>
</g>
<!-- Node2&#45;&gt;Node3 -->
<g id="edge2" class="edge">
<title>Node2&#45;&gt;Node3</title>
<path fill="none" stroke="#63b8ff" d="M355.95,-192.37C360.89,-182.78 369.01,-167.05 375.32,-154.8"/>
<polygon fill="#63b8ff" stroke="#63b8ff" points="378.44,-156.4 379.91,-145.91 372.21,-153.19 378.44,-156.4"/>
</g>
<!-- Node4 -->
<g id="node4" class="node">
<title>Node4</title>
<g id="a_node4"><a xlink:title=" ">
<polygon fill="#e0e0e0" stroke="#999999" points="51,-145.5 0,-145.5 0,-126.5 51,-126.5 51,-145.5"/>
<text text-anchor="middle" x="25.5" y="-133.5" font-family="Helvetica,sans-Serif" font-size="10.00">errno.h</text>
</a>
</g>
</g>
<!-- Node2&#45;&gt;Node4 -->
<g id="edge3" class="edge">
<title>Node2&#45;&gt;Node4</title>
<path fill="none" stroke="#63b8ff" d="M296.33,-195.24C237.01,-188.19 140.31,-174.25 59.5,-151 57.61,-150.46 55.69,-149.84 53.76,-149.18"/>
<polygon fill="#63b8ff" stroke="#63b8ff" points="54.89,-145.87 44.3,-145.61 52.42,-152.41 54.89,-145.87"/>
</g>
<!-- Node5 -->
<g id="node5" class="node">
<title>Node5</title>
<g id="a_node5"><a xlink:title=" ">
<polygon fill="#e0e0e0" stroke="#999999" points="132,-145.5 69,-145.5 69,-126.5 132,-126.5 132,-145.5"/>
<text text-anchor="middle" x="100.5" y="-133.5" font-family="Helvetica,sans-Serif" font-size="10.00">termios.h</text>
</a>
</g>
</g>
<!-- Node2&#45;&gt;Node5 -->
<g id="edge4" class="edge">
<title>Node2&#45;&gt;Node5</title>
<path fill="none" stroke="#63b8ff" d="M310.55,-192.46C268,-183.31 199.65,-167.81 141.5,-151 139.03,-150.29 136.5,-149.52 133.95,-148.71"/>
<polygon fill="#63b8ff" stroke="#63b8ff" points="134.82,-145.31 124.23,-145.53 132.64,-151.97 134.82,-145.31"/>
</g>
<!-- Node6 -->
<g id="node6" class="node">
<title>Node6</title>
<g id="a_node6"><a xlink:title=" ">
<polygon fill="#e0e0e0" stroke="#999999" points="206.5,-145.5 150.5,-145.5 150.5,-126.5 206.5,-126.5 206.5,-145.5"/>
<text text-anchor="middle" x="178.5" y="-133.5" font-family="Helvetica,sans-Serif" font-size="10.00">unistd.h</text>
</a>
</g>
</g>
<!-- Node2&#45;&gt;Node6 -->
<g id="edge5" class="edge">
<title>Node2&#45;&gt;Node6</title>
<path fill="none" stroke="#63b8ff" d="M327.89,-192.4C300.74,-182.49 254.86,-165.68 215.5,-151 213.91,-150.41 212.28,-149.8 210.63,-149.18"/>
<polygon fill="#63b8ff" stroke="#63b8ff" points="211.78,-145.87 201.19,-145.62 209.31,-152.42 211.78,-145.87"/>
</g>
<!-- Node7 -->
<g id="node7" class="node">
<title>Node7</title>
<g id="a_node7"><a xlink:title=" ">
<polygon fill="#e0e0e0" stroke="#999999" points="502.5,-19 458.5,-19 458.5,0 502.5,0 502.5,-19"/>
<text text-anchor="middle" x="480.5" y="-7" font-family="Helvetica,sans-Serif" font-size="10.00">string</text>
</a>
</g>
</g>
<!-- Node2&#45;&gt;Node7 -->
<g id="edge6" class="edge">
<title>Node2&#45;&gt;Node7</title>
<path fill="none" stroke="#63b8ff" d="M366.63,-192.37C381.03,-183.53 402.51,-168.61 416.5,-151 417.53,-149.7 455.39,-66.07 472.38,-28.47"/>
<polygon fill="#63b8ff" stroke="#63b8ff" points="475.65,-29.74 476.58,-19.19 469.27,-26.86 475.65,-29.74"/>
</g>
<!-- Node8 -->
<g id="node8" class="node">
<title>Node8</title>
<g id="a_node8"><a xlink:title=" ">
<polygon fill="#e0e0e0" stroke="#999999" points="274.5,-145.5 224.5,-145.5 224.5,-126.5 274.5,-126.5 274.5,-145.5"/>
<text text-anchor="middle" x="249.5" y="-133.5" font-family="Helvetica,sans-Serif" font-size="10.00">chrono</text>
</a>
</g>
</g>
<!-- Node2&#45;&gt;Node8 -->
<g id="edge7" class="edge">
<title>Node2&#45;&gt;Node8</title>
<path fill="none" stroke="#63b8ff" d="M337.74,-192.37C320.86,-181.78 292.01,-163.67 271.91,-151.06"/>
<polygon fill="#63b8ff" stroke="#63b8ff" points="273.69,-148.05 263.36,-145.7 269.97,-153.98 273.69,-148.05"/>
</g>
<!-- Node9 -->
<g id="node9" class="node">
<title>Node9</title>
<g id="a_node9"><a xlink:title=" ">
<polygon fill="#e0e0e0" stroke="#999999" points="342.5,-145.5 292.5,-145.5 292.5,-126.5 342.5,-126.5 342.5,-145.5"/>
<text text-anchor="middle" x="317.5" y="-133.5" font-family="Helvetica,sans-Serif" font-size="10.00">stdio.h</text>
</a>
</g>
</g>
<!-- Node2&#45;&gt;Node9 -->
<g id="edge8" class="edge">
<title>Node2&#45;&gt;Node9</title>
<path fill="none" stroke="#63b8ff" d="M346.91,-192.37C341.82,-182.78 333.46,-167.05 326.96,-154.8"/>
<polygon fill="#63b8ff" stroke="#63b8ff" points="330.01,-153.09 322.23,-145.91 323.83,-156.38 330.01,-153.09"/>
</g>
<!-- Node10 -->
<g id="node10" class="node">
<title>Node10</title>
<g id="a_node10"><a xlink:href="byte__ring__buffer_8hpp.html" target="_top" xlink:title="シリアル通信用リングバッファー">
<polygon fill="white" stroke="#666666" points="1172.5,-85 1030.5,-85 1030.5,-55 1172.5,-55 1172.5,-85"/>
<text text-anchor="start" x="1038.5" y="-73" font-family="Helvetica,sans-Serif" font-size="10.00">alps_cmn/communication</text>
<text text-anchor="middle" x="1101.5" y="-62" font-family="Helvetica,sans-Serif" font-size="10.00">/byte_ring_buffer.hpp</text>
</a>
</g>
</g>
<!-- Node2&#45;&gt;Node10 -->
<g id="edge9" class="edge">
<title>Node2&#45;&gt;Node10</title>
<path fill="none" stroke="#63b8ff" d="M406.77,-197.54C499.37,-191.15 681.5,-175.81 740.5,-151 760.34,-142.66 758.75,-129.53 778.5,-121 875.79,-78.98 911.61,-101.02 1020.37,-85.09"/>
<polygon fill="#63b8ff" stroke="#63b8ff" points="1021.07,-88.52 1030.42,-83.54 1020,-81.6 1021.07,-88.52"/>
</g>
<!-- Node15 -->
<g id="node15" class="node">
<title>Node15</title>
<g id="a_node15"><a xlink:href="i__uart__io_8hpp.html" target="_top" xlink:title=" ">
<polygon fill="white" stroke="#666666" points="929.5,-151 787.5,-151 787.5,-121 929.5,-121 929.5,-151"/>
<text text-anchor="start" x="795.5" y="-139" font-family="Helvetica,sans-Serif" font-size="10.00">alps_cmn/communication</text>
<text text-anchor="middle" x="858.5" y="-128" font-family="Helvetica,sans-Serif" font-size="10.00">/i_uart_io.hpp</text>
</a>
</g>
</g>
<!-- Node2&#45;&gt;Node15 -->
<g id="edge14" class="edge">
<title>Node2&#45;&gt;Node15</title>
<path fill="none" stroke="#63b8ff" d="M406.57,-195.28C487.23,-186.72 642.2,-169.58 773.5,-151 774.61,-150.84 775.73,-150.68 776.85,-150.52"/>
<polygon fill="#63b8ff" stroke="#63b8ff" points="777.74,-153.93 787.12,-149 776.71,-147 777.74,-153.93"/>
</g>
<!-- Node11 -->
<g id="node11" class="node">
<title>Node11</title>
<g id="a_node11"><a xlink:title=" ">
<polygon fill="#e0e0e0" stroke="#999999" points="996.5,-19 946.5,-19 946.5,0 996.5,0 996.5,-19"/>
<text text-anchor="middle" x="971.5" y="-7" font-family="Helvetica,sans-Serif" font-size="10.00">cstdint</text>
</a>
</g>
</g>
<!-- Node10&#45;&gt;Node11 -->
<g id="edge10" class="edge">
<title>Node10&#45;&gt;Node11</title>
<path fill="none" stroke="#63b8ff" d="M1070.36,-54.99C1048.96,-45.36 1020.77,-32.67 999.97,-23.31"/>
<polygon fill="#63b8ff" stroke="#63b8ff" points="1001.25,-20.05 990.7,-19.14 998.38,-26.43 1001.25,-20.05"/>
</g>
<!-- Node12 -->
<g id="node12" class="node">
<title>Node12</title>
<g id="a_node12"><a xlink:title=" ">
<polygon fill="#e0e0e0" stroke="#999999" points="790,-19 743,-19 743,0 790,0 790,-19"/>
<text text-anchor="middle" x="766.5" y="-7" font-family="Helvetica,sans-Serif" font-size="10.00">vector</text>
</a>
</g>
</g>
<!-- Node10&#45;&gt;Node12 -->
<g id="edge11" class="edge">
<title>Node10&#45;&gt;Node12</title>
<path fill="none" stroke="#63b8ff" d="M1030.4,-56.56C1027.39,-56.03 1024.42,-55.51 1021.5,-55 942.11,-41.13 848.81,-24.85 800.05,-16.35"/>
<polygon fill="#63b8ff" stroke="#63b8ff" points="800.51,-12.88 790.06,-14.61 799.31,-19.77 800.51,-12.88"/>
</g>
<!-- Node13 -->
<g id="node13" class="node">
<title>Node13</title>
<g id="a_node13"><a xlink:title=" ">
<polygon fill="#e0e0e0" stroke="#999999" points="1304.5,-19 1258.5,-19 1258.5,0 1304.5,0 1304.5,-19"/>
<text text-anchor="middle" x="1281.5" y="-7" font-family="Helvetica,sans-Serif" font-size="10.00">cstdio</text>
</a>
</g>
</g>
<!-- Node10&#45;&gt;Node13 -->
<g id="edge12" class="edge">
<title>Node10&#45;&gt;Node13</title>
<path fill="none" stroke="#63b8ff" d="M1144.61,-54.99C1176.53,-44.62 1219.35,-30.7 1248.55,-21.21"/>
<polygon fill="#63b8ff" stroke="#63b8ff" points="1249.84,-24.47 1258.26,-18.05 1247.67,-17.81 1249.84,-24.47"/>
</g>
<!-- Node14 -->
<g id="node14" class="node">
<title>Node14</title>
<g id="a_node14"><a xlink:title=" ">
<polygon fill="#e0e0e0" stroke="#999999" points="1164,-19 1115,-19 1115,0 1164,0 1164,-19"/>
<text text-anchor="middle" x="1139.5" y="-7" font-family="Helvetica,sans-Serif" font-size="10.00">cstdlib</text>
</a>
</g>
</g>
<!-- Node10&#45;&gt;Node14 -->
<g id="edge13" class="edge">
<title>Node10&#45;&gt;Node14</title>
<path fill="none" stroke="#63b8ff" d="M1110.7,-54.84C1115.99,-46.69 1122.68,-36.4 1128.28,-27.78"/>
<polygon fill="#63b8ff" stroke="#63b8ff" points="1131.29,-29.56 1133.81,-19.27 1125.42,-25.75 1131.29,-29.56"/>
</g>
<!-- Node15&#45;&gt;Node10 -->
<g id="edge15" class="edge">
<title>Node15&#45;&gt;Node10</title>
<path fill="none" stroke="#63b8ff" d="M911.83,-120.95C949.18,-111.12 999.24,-97.93 1038.55,-87.58"/>
<polygon fill="#63b8ff" stroke="#63b8ff" points="1039.52,-90.94 1048.3,-85.01 1037.74,-84.17 1039.52,-90.94"/>
</g>
<!-- Node16&#45;&gt;Node7 -->
<g id="edge17" class="edge">
<title>Node16&#45;&gt;Node7</title>
<path fill="none" stroke="#63b8ff" d="M1107.24,-200.39C969.96,-198.33 674.1,-189.44 580.5,-151 538.18,-133.62 526.37,-123.4 501.5,-85 490.57,-68.12 485.24,-45.51 482.7,-29.64"/>
<polygon fill="#63b8ff" stroke="#63b8ff" points="486.13,-28.89 481.3,-19.46 479.19,-29.84 486.13,-28.89"/>
</g>
<!-- Node16&#45;&gt;Node15 -->
<g id="edge45" class="edge">
<title>Node16&#45;&gt;Node15</title>
<path fill="none" stroke="#63b8ff" d="M1108.27,-186.95C1058.15,-176.93 990.65,-163.43 938.45,-152.99"/>
<polygon fill="#63b8ff" stroke="#63b8ff" points="939.05,-149.54 928.56,-151.01 937.68,-156.41 939.05,-149.54"/>
</g>
<!-- Node17 -->
<g id="node17" class="node">
<title>Node17</title>
<g id="a_node17"><a xlink:title=" ">
<polygon fill="#e0e0e0" stroke="#999999" points="1361,-145.5 1268,-145.5 1268,-126.5 1361,-126.5 1361,-145.5"/>
<text text-anchor="middle" x="1314.5" y="-133.5" font-family="Helvetica,sans-Serif" font-size="10.00">unordered_map</text>
</a>
</g>
</g>
<!-- Node16&#45;&gt;Node17 -->
<g id="edge18" class="edge">
<title>Node16&#45;&gt;Node17</title>
<path fill="none" stroke="#63b8ff" d="M1208.35,-186.95C1231.88,-175.88 1264.43,-160.56 1287.27,-149.82"/>
<polygon fill="#63b8ff" stroke="#63b8ff" points="1288.84,-152.94 1296.4,-145.52 1285.86,-146.61 1288.84,-152.94"/>
</g>
<!-- Node18 -->
<g id="node18" class="node">
<title>Node18</title>
<g id="a_node18"><a xlink:title=" ">
<polygon fill="#e0e0e0" stroke="#999999" points="1516.5,-79.5 1464.5,-79.5 1464.5,-60.5 1516.5,-60.5 1516.5,-79.5"/>
<text text-anchor="middle" x="1490.5" y="-67.5" font-family="Helvetica,sans-Serif" font-size="10.00">cassert</text>
</a>
</g>
</g>
<!-- Node16&#45;&gt;Node18 -->
<g id="edge19" class="edge">
<title>Node16&#45;&gt;Node18</title>
<path fill="none" stroke="#63b8ff" d="M1249.9,-189.09C1254.5,-188.37 1259.06,-187.66 1263.5,-187 1322.71,-178.13 1491.1,-196.07 1530.5,-151 1547.43,-131.64 1525.71,-103.84 1508.26,-86.63"/>
<polygon fill="#63b8ff" stroke="#63b8ff" points="1510.39,-83.83 1500.7,-79.53 1505.6,-88.93 1510.39,-83.83"/>
</g>
<!-- Node19 -->
<g id="node19" class="node">
<title>Node19</title>
<g id="a_node19"><a xlink:title=" ">
<polygon fill="#e0e0e0" stroke="#999999" points="1005.5,-145.5 947.5,-145.5 947.5,-126.5 1005.5,-126.5 1005.5,-145.5"/>
<text text-anchor="middle" x="976.5" y="-133.5" font-family="Helvetica,sans-Serif" font-size="10.00">memory</text>
</a>
</g>
</g>
<!-- Node16&#45;&gt;Node19 -->
<g id="edge20" class="edge">
<title>Node16&#45;&gt;Node19</title>
<path fill="none" stroke="#63b8ff" d="M1129.83,-186.95C1097.08,-177.31 1053.01,-163.95 1014.5,-151 1012.6,-150.36 1010.65,-149.69 1008.69,-149"/>
<polygon fill="#63b8ff" stroke="#63b8ff" points="1009.52,-145.58 998.93,-145.5 1007.16,-152.17 1009.52,-145.58"/>
</g>
<!-- Node16&#45;&gt;Node20 -->
<g id="edge21" class="edge">
<title>Node16&#45;&gt;Node20</title>
<path fill="none" stroke="#63b8ff" d="M1249.89,-189.01C1254.49,-188.31 1259.06,-187.63 1263.5,-187 1396.45,-168.08 1434.37,-187.86 1563.5,-151 1565.13,-150.53 1566.79,-149.99 1568.44,-149.39"/>
<polygon fill="#63b8ff" stroke="#63b8ff" points="1569.8,-152.62 1577.67,-145.53 1567.09,-146.16 1569.8,-152.62"/>
</g>
<!-- Node21 -->
<g id="node21" class="node">
<title>Node21</title>
<g id="a_node21"><a xlink:title=" ">
<polygon fill="#e0e0e0" stroke="#999999" points="1089,-145.5 1024,-145.5 1024,-126.5 1089,-126.5 1089,-145.5"/>
<text text-anchor="middle" x="1056.5" y="-133.5" font-family="Helvetica,sans-Serif" font-size="10.00">functional</text>
</a>
</g>
</g>
<!-- Node16&#45;&gt;Node21 -->
<g id="edge22" class="edge">
<title>Node16&#45;&gt;Node21</title>
<path fill="none" stroke="#63b8ff" d="M1151.73,-186.95C1130.9,-176.03 1102.19,-160.97 1081.76,-150.25"/>
<polygon fill="#63b8ff" stroke="#63b8ff" points="1083.22,-147.06 1072.74,-145.52 1079.97,-153.26 1083.22,-147.06"/>
</g>
<!-- Node22 -->
<g id="node22" class="node">
<title>Node22</title>
<g id="a_node22"><a xlink:href="cobs_8hpp.html" target="_top" xlink:title="COBS変換ライブラリ">
<polygon fill="white" stroke="#666666" points="1521.5,-151 1379.5,-151 1379.5,-121 1521.5,-121 1521.5,-151"/>
<text text-anchor="start" x="1387.5" y="-139" font-family="Helvetica,sans-Serif" font-size="10.00">alps_cmn/communication</text>
<text text-anchor="middle" x="1450.5" y="-128" font-family="Helvetica,sans-Serif" font-size="10.00">/cobs.hpp</text>
</a>
</g>
</g>
<!-- Node16&#45;&gt;Node22 -->
<g id="edge23" class="edge">
<title>Node16&#45;&gt;Node22</title>
<path fill="none" stroke="#63b8ff" d="M1238.19,-186.95C1280.35,-177.03 1336.98,-163.71 1381.15,-153.32"/>
<polygon fill="#63b8ff" stroke="#63b8ff" points="1382.02,-156.71 1390.95,-151.01 1380.41,-149.9 1382.02,-156.71"/>
</g>
<!-- Node23 -->
<g id="node23" class="node">
<title>Node23</title>
<g id="a_node23"><a xlink:href="data__serializer_8hpp.html" target="_top" xlink:title="データとバイト列の変換ライブラリ">
<polygon fill="white" stroke="#666666" points="731.5,-151 589.5,-151 589.5,-121 731.5,-121 731.5,-151"/>
<text text-anchor="start" x="597.5" y="-139" font-family="Helvetica,sans-Serif" font-size="10.00">alps_cmn/communication</text>
<text text-anchor="middle" x="660.5" y="-128" font-family="Helvetica,sans-Serif" font-size="10.00">/data_serializer.hpp</text>
</a>
</g>
</g>
<!-- Node16&#45;&gt;Node23 -->
<g id="edge28" class="edge">
<title>Node16&#45;&gt;Node23</title>
<path fill="none" stroke="#63b8ff" d="M1107.29,-192.2C1011.71,-180.39 842.35,-159.47 741.85,-147.05"/>
<polygon fill="#63b8ff" stroke="#63b8ff" points="742.1,-143.56 731.75,-145.8 741.24,-150.5 742.1,-143.56"/>
</g>
<!-- Node31 -->
<g id="node31" class="node">
<title>Node31</title>
<g id="a_node31"><a xlink:href="sender_8hpp.html" target="_top" xlink:title="シリアル通信で送るデータを登録">
<polygon fill="white" stroke="#666666" points="1249.5,-151 1107.5,-151 1107.5,-121 1249.5,-121 1249.5,-151"/>
<text text-anchor="start" x="1115.5" y="-139" font-family="Helvetica,sans-Serif" font-size="10.00">alps_cmn/communication</text>
<text text-anchor="middle" x="1178.5" y="-128" font-family="Helvetica,sans-Serif" font-size="10.00">/sender.hpp</text>
</a>
</g>
</g>
<!-- Node16&#45;&gt;Node31 -->
<g id="edge43" class="edge">
<title>Node16&#45;&gt;Node31</title>
<path fill="none" stroke="#63b8ff" d="M1172.78,-186.8C1171.8,-179.26 1171.52,-169.78 1171.93,-161.13"/>
<polygon fill="#63b8ff" stroke="#63b8ff" points="1175.42,-161.43 1172.79,-151.16 1168.45,-160.83 1175.42,-161.43"/>
</g>
<!-- Node22&#45;&gt;Node10 -->
<g id="edge24" class="edge">
<title>Node22&#45;&gt;Node10</title>
<path fill="none" stroke="#63b8ff" d="M1379.45,-121.97C1322.46,-111.52 1242.43,-96.84 1182.87,-85.92"/>
<polygon fill="#63b8ff" stroke="#63b8ff" points="1183.21,-82.43 1172.75,-84.07 1181.95,-89.31 1183.21,-82.43"/>
</g>
<!-- Node22&#45;&gt;Node13 -->
<g id="edge25" class="edge">
<title>Node22&#45;&gt;Node13</title>
<path fill="none" stroke="#63b8ff" d="M1431.44,-120.96C1399.25,-97.24 1334.4,-49.47 1301.55,-25.27"/>
<polygon fill="#63b8ff" stroke="#63b8ff" points="1303.31,-22.22 1293.19,-19.11 1299.16,-27.86 1303.31,-22.22"/>
</g>
<!-- Node22&#45;&gt;Node14 -->
<g id="edge27" class="edge">
<title>Node22&#45;&gt;Node14</title>
<path fill="none" stroke="#63b8ff" d="M1415.43,-120.96C1354.16,-96.43 1228.62,-46.18 1170.41,-22.87"/>
<polygon fill="#63b8ff" stroke="#63b8ff" points="1171.59,-19.58 1161.01,-19.11 1168.99,-26.08 1171.59,-19.58"/>
</g>
<!-- Node22&#45;&gt;Node18 -->
<g id="edge26" class="edge">
<title>Node22&#45;&gt;Node18</title>
<path fill="none" stroke="#63b8ff" d="M1459.38,-120.8C1465.31,-111.31 1473.15,-98.76 1479.48,-88.63"/>
<polygon fill="#63b8ff" stroke="#63b8ff" points="1482.64,-90.18 1484.97,-79.84 1476.7,-86.47 1482.64,-90.18"/>
</g>
<!-- Node23&#45;&gt;Node7 -->
<g id="edge29" class="edge">
<title>Node23&#45;&gt;Node7</title>
<path fill="none" stroke="#63b8ff" d="M603.34,-120.99C579.42,-113.16 552.4,-101.56 531.5,-85 512.17,-69.68 497.34,-45.05 488.77,-28.34"/>
<polygon fill="#63b8ff" stroke="#63b8ff" points="491.8,-26.56 484.27,-19.11 485.51,-29.64 491.8,-26.56"/>
</g>
<!-- Node23&#45;&gt;Node10 -->
<g id="edge36" class="edge">
<title>Node23&#45;&gt;Node10</title>
<path fill="none" stroke="#63b8ff" d="M731.89,-123.06C736.5,-122.35 741.06,-121.65 745.5,-121 864.65,-103.42 897.5,-103.64 1020.25,-85.15"/>
<polygon fill="#63b8ff" stroke="#63b8ff" points="1021.06,-88.56 1030.43,-83.6 1020.01,-81.64 1021.06,-88.56"/>
</g>
<!-- Node23&#45;&gt;Node11 -->
<g id="edge31" class="edge">
<title>Node23&#45;&gt;Node11</title>
<path fill="none" stroke="#63b8ff" d="M682.27,-120.78C709.94,-103.24 759.63,-73.48 805.5,-55 849.27,-37.37 902.3,-24.54 936.46,-17.31"/>
<polygon fill="#63b8ff" stroke="#63b8ff" points="937.34,-20.7 946.42,-15.24 935.92,-13.84 937.34,-20.7"/>
</g>
<!-- Node23&#45;&gt;Node12 -->
<g id="edge30" class="edge">
<title>Node23&#45;&gt;Node12</title>
<path fill="none" stroke="#63b8ff" d="M674.4,-120.86C683.94,-111 696.76,-97.44 707.5,-85 724.08,-65.79 742.04,-42.77 753.73,-27.45"/>
<polygon fill="#63b8ff" stroke="#63b8ff" points="756.57,-29.49 759.83,-19.41 751,-25.26 756.57,-29.49"/>
</g>
<!-- Node24 -->
<g id="node24" class="node">
<title>Node24</title>
<g id="a_node24"><a xlink:title=" ">
<polygon fill="#e0e0e0" stroke="#999999" points="725,-19 656,-19 656,0 725,0 725,-19"/>
<text text-anchor="middle" x="690.5" y="-7" font-family="Helvetica,sans-Serif" font-size="10.00">type_traits</text>
</a>
</g>
</g>
<!-- Node23&#45;&gt;Node24 -->
<g id="edge32" class="edge">
<title>Node23&#45;&gt;Node24</title>
<path fill="none" stroke="#63b8ff" d="M672.36,-120.72C679.43,-111.24 687.75,-98.16 691.5,-85 696.7,-66.76 695.61,-44.97 693.74,-29.69"/>
<polygon fill="#63b8ff" stroke="#63b8ff" points="697.15,-28.82 692.24,-19.43 690.22,-29.83 697.15,-28.82"/>
</g>
<!-- Node25 -->
<g id="node25" class="node">
<title>Node25</title>
<g id="a_node25"><a xlink:title=" ">
<polygon fill="#e0e0e0" stroke="#999999" points="930.5,-79.5 880.5,-79.5 880.5,-60.5 930.5,-60.5 930.5,-79.5"/>
<text text-anchor="middle" x="905.5" y="-67.5" font-family="Helvetica,sans-Serif" font-size="10.00">cstring</text>
</a>
</g>
</g>
<!-- Node23&#45;&gt;Node25 -->
<g id="edge33" class="edge">
<title>Node23&#45;&gt;Node25</title>
<path fill="none" stroke="#63b8ff" d="M731.6,-121.08C772.88,-112.28 825.63,-99.78 871.5,-85 873.17,-84.46 874.88,-83.88 876.59,-83.26"/>
<polygon fill="#63b8ff" stroke="#63b8ff" points="878.2,-86.39 886.28,-79.53 875.69,-79.86 878.2,-86.39"/>
</g>
<!-- Node26 -->
<g id="node26" class="node">
<title>Node26</title>
<g id="a_node26"><a xlink:title=" ">
<polygon fill="#e0e0e0" stroke="#999999" points="1012.5,-79.5 948.5,-79.5 948.5,-60.5 1012.5,-60.5 1012.5,-79.5"/>
<text text-anchor="middle" x="980.5" y="-67.5" font-family="Helvetica,sans-Serif" font-size="10.00">algorithm</text>
</a>
</g>
</g>
<!-- Node23&#45;&gt;Node26 -->
<g id="edge34" class="edge">
<title>Node23&#45;&gt;Node26</title>
<path fill="none" stroke="#63b8ff" d="M731.69,-122.82C807.62,-109.74 919.67,-90.13 939.5,-85 942.14,-84.32 944.85,-83.55 947.57,-82.73"/>
<polygon fill="#63b8ff" stroke="#63b8ff" points="948.82,-86 957.27,-79.62 946.68,-79.34 948.82,-86"/>
</g>
<!-- Node27 -->
<g id="node27" class="node">
<title>Node27</title>
<g id="a_node27"><a xlink:title=" ">
<polygon fill="#e0e0e0" stroke="#999999" points="862.5,-79.5 814.5,-79.5 814.5,-60.5 862.5,-60.5 862.5,-79.5"/>
<text text-anchor="middle" x="838.5" y="-67.5" font-family="Helvetica,sans-Serif" font-size="10.00">mutex</text>
</a>
</g>
</g>
<!-- Node23&#45;&gt;Node27 -->
<g id="edge35" class="edge">
<title>Node23&#45;&gt;Node27</title>
<path fill="none" stroke="#63b8ff" d="M700.06,-120.99C728.12,-111.02 766.65,-97.28 800.5,-85 802.14,-84.41 803.81,-83.8 805.5,-83.18"/>
<polygon fill="#63b8ff" stroke="#63b8ff" points="807.02,-86.35 815.2,-79.63 804.61,-79.78 807.02,-86.35"/>
</g>
<!-- Node28 -->
<g id="node28" class="node">
<title>Node28</title>
<g id="a_node28"><a xlink:href="serialize__type__info_8hpp.html" target="_top" xlink:title="DataSeializerで変換する型に関する情報">
<polygon fill="white" stroke="#666666" points="682.5,-85 540.5,-85 540.5,-55 682.5,-55 682.5,-85"/>
<text text-anchor="start" x="548.5" y="-73" font-family="Helvetica,sans-Serif" font-size="10.00">alps_cmn/communication</text>
<text text-anchor="middle" x="611.5" y="-62" font-family="Helvetica,sans-Serif" font-size="10.00">/serialize_type_info.hpp</text>
</a>
</g>
</g>
<!-- Node23&#45;&gt;Node28 -->
<g id="edge37" class="edge">
<title>Node23&#45;&gt;Node28</title>
<path fill="none" stroke="#63b8ff" d="M649.63,-120.8C643.41,-112.68 635.48,-102.31 628.46,-93.15"/>
<polygon fill="#63b8ff" stroke="#63b8ff" points="631.2,-90.98 622.34,-85.16 625.64,-95.23 631.2,-90.98"/>
</g>
<!-- Node28&#45;&gt;Node7 -->
<g id="edge42" class="edge">
<title>Node28&#45;&gt;Node7</title>
<path fill="none" stroke="#63b8ff" d="M580.12,-54.99C558.56,-45.36 530.15,-32.67 509.19,-23.31"/>
<polygon fill="#63b8ff" stroke="#63b8ff" points="510.4,-20.02 499.85,-19.14 507.55,-26.41 510.4,-20.02"/>
</g>
<!-- Node28&#45;&gt;Node12 -->
<g id="edge40" class="edge">
<title>Node28&#45;&gt;Node12</title>
<path fill="none" stroke="#63b8ff" d="M648.63,-54.99C674.72,-45.14 709.28,-32.1 734.23,-22.68"/>
<polygon fill="#63b8ff" stroke="#63b8ff" points="735.49,-25.94 743.61,-19.14 733.02,-19.4 735.49,-25.94"/>
</g>
<!-- Node28&#45;&gt;Node24 -->
<g id="edge38" class="edge">
<title>Node28&#45;&gt;Node24</title>
<path fill="none" stroke="#63b8ff" d="M630.62,-54.84C642.68,-45.91 658.21,-34.41 670.44,-25.35"/>
<polygon fill="#63b8ff" stroke="#63b8ff" points="672.71,-28.03 678.66,-19.27 668.54,-22.4 672.71,-28.03"/>
</g>
<!-- Node29 -->
<g id="node29" class="node">
<title>Node29</title>
<g id="a_node29"><a xlink:title=" ">
<polygon fill="#e0e0e0" stroke="#999999" points="638,-19 585,-19 585,0 638,0 638,-19"/>
<text text-anchor="middle" x="611.5" y="-7" font-family="Helvetica,sans-Serif" font-size="10.00">stdint.h</text>
</a>
</g>
</g>
<!-- Node28&#45;&gt;Node29 -->
<g id="edge39" class="edge">
<title>Node28&#45;&gt;Node29</title>
<path fill="none" stroke="#63b8ff" d="M611.5,-54.84C611.5,-47.21 611.5,-37.7 611.5,-29.45"/>
<polygon fill="#63b8ff" stroke="#63b8ff" points="615,-29.27 611.5,-19.27 608,-29.27 615,-29.27"/>
</g>
<!-- Node30 -->
<g id="node30" class="node">
<title>Node30</title>
<g id="a_node30"><a xlink:title=" ">
<polygon fill="#e0e0e0" stroke="#999999" points="567,-19 526,-19 526,0 567,0 567,-19"/>
<text text-anchor="middle" x="546.5" y="-7" font-family="Helvetica,sans-Serif" font-size="10.00">tuple</text>
</a>
</g>
</g>
<!-- Node28&#45;&gt;Node30 -->
<g id="edge41" class="edge">
<title>Node28&#45;&gt;Node30</title>
<path fill="none" stroke="#63b8ff" d="M595.77,-54.84C586.14,-46.17 573.81,-35.08 563.89,-26.15"/>
<polygon fill="#63b8ff" stroke="#63b8ff" points="566.01,-23.35 556.24,-19.27 561.33,-28.56 566.01,-23.35"/>
</g>
<!-- Node31&#45;&gt;Node16 -->
<g id="edge44" class="edge">
<title>Node31&#45;&gt;Node16</title>
<path fill="none" stroke="#63b8ff" d="M1184.21,-151.16C1185.19,-158.7 1185.48,-168.17 1185.07,-176.83"/>
<polygon fill="#63b8ff" stroke="#63b8ff" points="1181.58,-176.54 1184.22,-186.8 1188.55,-177.13 1181.58,-176.54"/>
</g>
</g>
</svg>
