<?xml version="1.0" encoding="UTF-8" standalone="no"?>
<!DOCTYPE svg PUBLIC "-//W3C//DTD SVG 1.1//EN"
 "http://www.w3.org/Graphics/SVG/1.1/DTD/svg11.dtd">
<!-- Generated by graphviz version 2.43.0 (0)
 -->
<!-- Title: roblab_mbed_lib/include/serial/mbed_uart_serial_io.hpp Pages: 1 -->
<svg width="304pt" height="214pt"
 viewBox="0.00 0.00 304.00 214.00" xmlns="http://www.w3.org/2000/svg" xmlns:xlink="http://www.w3.org/1999/xlink">
<g id="graph0" class="graph" transform="scale(1 1) rotate(0) translate(4 210)">
<title>roblab_mbed_lib/include/serial/mbed_uart_serial_io.hpp</title>
<!-- Node1 -->
<g id="node1" class="node">
<title>Node1</title>
<g id="a_node1"><a xlink:title="mbedのUart通信IOライブラリ">
<polygon fill="#999999" stroke="#666666" points="197.5,-206 61.5,-206 61.5,-165 197.5,-165 197.5,-206"/>
<text text-anchor="start" x="69.5" y="-194" font-family="Helvetica,sans-Serif" font-size="10.00">roblab_mbed_lib/include</text>
<text text-anchor="start" x="69.5" y="-183" font-family="Helvetica,sans-Serif" font-size="10.00">/serial/mbed_uart_serial</text>
<text text-anchor="middle" x="129.5" y="-172" font-family="Helvetica,sans-Serif" font-size="10.00">_io.hpp</text>
</a>
</g>
</g>
<!-- Node2 -->
<g id="node2" class="node">
<title>Node2</title>
<g id="a_node2"><a xlink:title=" ">
<polygon fill="#e0e0e0" stroke="#999999" points="53,-129 0,-129 0,-110 53,-110 53,-129"/>
<text text-anchor="middle" x="26.5" y="-117" font-family="Helvetica,sans-Serif" font-size="10.00">mbed.h</text>
</a>
</g>
</g>
<!-- Node1&#45;&gt;Node2 -->
<g id="edge1" class="edge">
<title>Node1&#45;&gt;Node2</title>
<path fill="none" stroke="#63b8ff" d="M98.04,-164.95C82.22,-155.12 63.41,-143.43 49.05,-134.51"/>
<polygon fill="#63b8ff" stroke="#63b8ff" points="50.67,-131.4 40.33,-129.09 46.97,-137.34 50.67,-131.4"/>
</g>
<!-- Node3 -->
<g id="node3" class="node">
<title>Node3</title>
<g id="a_node3"><a xlink:href="i__serial__io_8hpp.html" target="_top" xlink:title="シリアル通信IO抽象クラス">
<polygon fill="white" stroke="#666666" points="188,-129 71,-129 71,-110 188,-110 188,-129"/>
<text text-anchor="middle" x="129.5" y="-117" font-family="Helvetica,sans-Serif" font-size="10.00">serial/i_serial_io.hpp</text>
</a>
</g>
</g>
<!-- Node1&#45;&gt;Node3 -->
<g id="edge2" class="edge">
<title>Node1&#45;&gt;Node3</title>
<path fill="none" stroke="#63b8ff" d="M129.5,-164.95C129.5,-156.85 129.5,-147.5 129.5,-139.47"/>
<polygon fill="#63b8ff" stroke="#63b8ff" points="133,-139.26 129.5,-129.26 126,-139.26 133,-139.26"/>
</g>
<!-- Node4 -->
<g id="node4" class="node">
<title>Node4</title>
<g id="a_node4"><a xlink:href="byte__ring__buffer_8hpp.html" target="_top" xlink:title="シリアル通信用リングバッファー">
<polygon fill="white" stroke="#666666" points="231.5,-74 113.5,-74 113.5,-55 231.5,-55 231.5,-74"/>
<text text-anchor="middle" x="172.5" y="-62" font-family="Helvetica,sans-Serif" font-size="10.00">byte_ring_buffer.hpp</text>
</a>
</g>
</g>
<!-- Node1&#45;&gt;Node4 -->
<g id="edge8" class="edge">
<title>Node1&#45;&gt;Node4</title>
<path fill="none" stroke="#63b8ff" d="M164.69,-164.95C177.48,-155.84 190.51,-143.73 197.5,-129 204.85,-113.52 195.91,-95.26 186.75,-82.31"/>
<polygon fill="#63b8ff" stroke="#63b8ff" points="189.44,-80.07 180.57,-74.29 183.9,-84.34 189.44,-80.07"/>
</g>
<!-- Node3&#45;&gt;Node4 -->
<g id="edge3" class="edge">
<title>Node3&#45;&gt;Node4</title>
<path fill="none" stroke="#63b8ff" d="M136.6,-109.75C142.67,-102.26 151.59,-91.28 159.01,-82.13"/>
<polygon fill="#63b8ff" stroke="#63b8ff" points="161.95,-84.06 165.53,-74.09 156.51,-79.65 161.95,-84.06"/>
</g>
<!-- Node5 -->
<g id="node5" class="node">
<title>Node5</title>
<g id="a_node5"><a xlink:title=" ">
<polygon fill="#e0e0e0" stroke="#999999" points="98.5,-19 48.5,-19 48.5,0 98.5,0 98.5,-19"/>
<text text-anchor="middle" x="73.5" y="-7" font-family="Helvetica,sans-Serif" font-size="10.00">cstdint</text>
</a>
</g>
</g>
<!-- Node4&#45;&gt;Node5 -->
<g id="edge4" class="edge">
<title>Node4&#45;&gt;Node5</title>
<path fill="none" stroke="#63b8ff" d="M156.59,-54.98C140.95,-46.61 116.84,-33.7 98.62,-23.95"/>
<polygon fill="#63b8ff" stroke="#63b8ff" points="100.16,-20.8 89.7,-19.17 96.86,-26.98 100.16,-20.8"/>
</g>
<!-- Node6 -->
<g id="node6" class="node">
<title>Node6</title>
<g id="a_node6"><a xlink:title=" ">
<polygon fill="#e0e0e0" stroke="#999999" points="164,-19 117,-19 117,0 164,0 164,-19"/>
<text text-anchor="middle" x="140.5" y="-7" font-family="Helvetica,sans-Serif" font-size="10.00">vector</text>
</a>
</g>
</g>
<!-- Node4&#45;&gt;Node6 -->
<g id="edge5" class="edge">
<title>Node4&#45;&gt;Node6</title>
<path fill="none" stroke="#63b8ff" d="M167.22,-54.75C162.79,-47.42 156.34,-36.73 150.88,-27.7"/>
<polygon fill="#63b8ff" stroke="#63b8ff" points="153.85,-25.84 145.69,-19.09 147.86,-29.46 153.85,-25.84"/>
</g>
<!-- Node7 -->
<g id="node7" class="node">
<title>Node7</title>
<g id="a_node7"><a xlink:title=" ">
<polygon fill="#e0e0e0" stroke="#999999" points="228.5,-19 182.5,-19 182.5,0 228.5,0 228.5,-19"/>
<text text-anchor="middle" x="205.5" y="-7" font-family="Helvetica,sans-Serif" font-size="10.00">cstdio</text>
</a>
</g>
</g>
<!-- Node4&#45;&gt;Node7 -->
<g id="edge6" class="edge">
<title>Node4&#45;&gt;Node7</title>
<path fill="none" stroke="#63b8ff" d="M177.95,-54.75C182.51,-47.42 189.17,-36.73 194.79,-27.7"/>
<polygon fill="#63b8ff" stroke="#63b8ff" points="197.84,-29.43 200.15,-19.09 191.9,-25.73 197.84,-29.43"/>
</g>
<!-- Node8 -->
<g id="node8" class="node">
<title>Node8</title>
<g id="a_node8"><a xlink:title=" ">
<polygon fill="#e0e0e0" stroke="#999999" points="296,-19 247,-19 247,0 296,0 296,-19"/>
<text text-anchor="middle" x="271.5" y="-7" font-family="Helvetica,sans-Serif" font-size="10.00">cstdlib</text>
</a>
</g>
</g>
<!-- Node4&#45;&gt;Node8 -->
<g id="edge7" class="edge">
<title>Node4&#45;&gt;Node8</title>
<path fill="none" stroke="#63b8ff" d="M188.41,-54.98C204.05,-46.61 228.16,-33.7 246.38,-23.95"/>
<polygon fill="#63b8ff" stroke="#63b8ff" points="248.14,-26.98 255.3,-19.17 244.84,-20.8 248.14,-26.98"/>
</g>
</g>
</svg>
