<?xml version="1.0" encoding="UTF-8" standalone="no"?>
<!DOCTYPE svg PUBLIC "-//W3C//DTD SVG 1.1//EN"
 "http://www.w3.org/Graphics/SVG/1.1/DTD/svg11.dtd">
<!-- Generated by graphviz version 2.43.0 (0)
 -->
<!-- Title: roblab_ros_lib/include/roblab_ros/serial/mbed_uart_connection.hpp Pages: 1 -->
<svg width="1553pt" height="302pt"
 viewBox="0.00 0.00 1552.50 302.00" xmlns="http://www.w3.org/2000/svg" xmlns:xlink="http://www.w3.org/1999/xlink">
<g id="graph0" class="graph" transform="scale(1 1) rotate(0) translate(4 298)">
<title>roblab_ros_lib/include/roblab_ros/serial/mbed_uart_connection.hpp</title>
<!-- Node1 -->
<g id="node1" class="node">
<title>Node1</title>
<g id="a_node1"><a xlink:title="接続された複数のMbedとシリアル通信を行う">
<polygon fill="#999999" stroke="#666666" points="1301,-294 1170,-294 1170,-253 1301,-253 1301,-294"/>
<text text-anchor="start" x="1178" y="-282" font-family="Helvetica,sans-Serif" font-size="10.00">roblab_ros_lib/include</text>
<text text-anchor="start" x="1178" y="-271" font-family="Helvetica,sans-Serif" font-size="10.00">/roblab_ros/serial/mbed</text>
<text text-anchor="middle" x="1235.5" y="-260" font-family="Helvetica,sans-Serif" font-size="10.00">_uart_connection.hpp</text>
</a>
</g>
</g>
<!-- Node2 -->
<g id="node2" class="node">
<title>Node2</title>
<g id="a_node2"><a xlink:href="ubuntu__uart__io_8hpp.html" target="_top" xlink:title="Ubuntuシリアル通信IOライブラリ">
<polygon fill="white" stroke="#666666" points="406.5,-211.5 296.5,-211.5 296.5,-192.5 406.5,-192.5 406.5,-211.5"/>
<text text-anchor="middle" x="351.5" y="-199.5" font-family="Helvetica,sans-Serif" font-size="10.00">ubuntu_uart_io.hpp</text>
</a>
</g>
</g>
<!-- Node1&#45;&gt;Node2 -->
<g id="edge1" class="edge">
<title>Node1&#45;&gt;Node2</title>
<path fill="none" stroke="#63b8ff" d="M1169.78,-267.33C1005.92,-254.45 580.71,-221.02 417.04,-208.15"/>
<polygon fill="#63b8ff" stroke="#63b8ff" points="416.89,-204.63 406.65,-207.34 416.34,-211.61 416.89,-204.63"/>
</g>
<!-- Node16 -->
<g id="node16" class="node">
<title>Node16</title>
<g id="a_node16"><a xlink:href="id__packet__manager_8hpp.html" target="_top" xlink:title="ID付きパケットデータを管理">
<polygon fill="white" stroke="#666666" points="1207.5,-217 1071.5,-217 1071.5,-187 1207.5,-187 1207.5,-217"/>
<text text-anchor="start" x="1079.5" y="-205" font-family="Helvetica,sans-Serif" font-size="10.00">roblab_common/serial</text>
<text text-anchor="middle" x="1139.5" y="-194" font-family="Helvetica,sans-Serif" font-size="10.00">/id_packet_manager.hpp</text>
</a>
</g>
</g>
<!-- Node1&#45;&gt;Node16 -->
<g id="edge16" class="edge">
<title>Node1&#45;&gt;Node16</title>
<path fill="none" stroke="#63b8ff" d="M1208.5,-252.96C1195.58,-243.6 1180.13,-232.42 1167.13,-223.01"/>
<polygon fill="#63b8ff" stroke="#63b8ff" points="1169.15,-220.14 1158.99,-217.11 1165.04,-225.81 1169.15,-220.14"/>
</g>
<!-- Node20 -->
<g id="node20" class="node">
<title>Node20</title>
<g id="a_node20"><a xlink:title=" ">
<polygon fill="#e0e0e0" stroke="#999999" points="1544.5,-145.5 1512.5,-145.5 1512.5,-126.5 1544.5,-126.5 1544.5,-145.5"/>
<text text-anchor="middle" x="1528.5" y="-133.5" font-family="Helvetica,sans-Serif" font-size="10.00">list</text>
</a>
</g>
</g>
<!-- Node1&#45;&gt;Node20 -->
<g id="edge47" class="edge">
<title>Node1&#45;&gt;Node20</title>
<path fill="none" stroke="#63b8ff" d="M1234.04,-252.84C1233.74,-233.26 1236.66,-203.77 1254.5,-187 1291.88,-151.87 1432.51,-162.5 1482.5,-151 1489.12,-149.48 1496.18,-147.51 1502.73,-145.53"/>
<polygon fill="#63b8ff" stroke="#63b8ff" points="1503.97,-148.81 1512.47,-142.48 1501.88,-142.13 1503.97,-148.81"/>
</g>
<!-- Node32 -->
<g id="node32" class="node">
<title>Node32</title>
<g id="a_node32"><a xlink:title=" ">
<polygon fill="#e0e0e0" stroke="#999999" points="1317.5,-211.5 1263.5,-211.5 1263.5,-192.5 1317.5,-192.5 1317.5,-211.5"/>
<text text-anchor="middle" x="1290.5" y="-199.5" font-family="Helvetica,sans-Serif" font-size="10.00">dirent.h</text>
</a>
</g>
</g>
<!-- Node1&#45;&gt;Node32 -->
<g id="edge46" class="edge">
<title>Node1&#45;&gt;Node32</title>
<path fill="none" stroke="#63b8ff" d="M1251.11,-252.77C1259.37,-242.34 1269.39,-229.68 1277.26,-219.73"/>
<polygon fill="#63b8ff" stroke="#63b8ff" points="1280.06,-221.83 1283.52,-211.82 1274.57,-217.49 1280.06,-221.83"/>
</g>
<!-- Node33 -->
<g id="node33" class="node">
<title>Node33</title>
<g id="a_node33"><a xlink:title=" ">
<polygon fill="#e0e0e0" stroke="#999999" points="1373.5,-211.5 1335.5,-211.5 1335.5,-192.5 1373.5,-192.5 1373.5,-211.5"/>
<text text-anchor="middle" x="1354.5" y="-199.5" font-family="Helvetica,sans-Serif" font-size="10.00">map</text>
</a>
</g>
</g>
<!-- Node1&#45;&gt;Node33 -->
<g id="edge48" class="edge">
<title>Node1&#45;&gt;Node33</title>
<path fill="none" stroke="#63b8ff" d="M1268.96,-252.96C1288.69,-241.44 1313.16,-227.14 1330.87,-216.8"/>
<polygon fill="#63b8ff" stroke="#63b8ff" points="1333.07,-219.57 1339.94,-211.5 1329.54,-213.52 1333.07,-219.57"/>
</g>
<!-- Node3 -->
<g id="node3" class="node">
<title>Node3</title>
<g id="a_node3"><a xlink:title=" ">
<polygon fill="#e0e0e0" stroke="#999999" points="408,-145.5 361,-145.5 361,-126.5 408,-126.5 408,-145.5"/>
<text text-anchor="middle" x="384.5" y="-133.5" font-family="Helvetica,sans-Serif" font-size="10.00">fcntl.h</text>
</a>
</g>
</g>
<!-- Node2&#45;&gt;Node3 -->
<g id="edge2" class="edge">
<title>Node2&#45;&gt;Node3</title>
<path fill="none" stroke="#63b8ff" d="M355.95,-192.37C360.89,-182.78 369.01,-167.05 375.32,-154.8"/>
<polygon fill="#63b8ff" stroke="#63b8ff" points="378.44,-156.4 379.91,-145.91 372.21,-153.19 378.44,-156.4"/>
</g>
<!-- Node4 -->
<g id="node4" class="node">
<title>Node4</title>
<g id="a_node4"><a xlink:title=" ">
<polygon fill="#e0e0e0" stroke="#999999" points="51,-145.5 0,-145.5 0,-126.5 51,-126.5 51,-145.5"/>
<text text-anchor="middle" x="25.5" y="-133.5" font-family="Helvetica,sans-Serif" font-size="10.00">errno.h</text>
</a>
</g>
</g>
<!-- Node2&#45;&gt;Node4 -->
<g id="edge3" class="edge">
<title>Node2&#45;&gt;Node4</title>
<path fill="none" stroke="#63b8ff" d="M296.33,-195.24C237.01,-188.19 140.31,-174.25 59.5,-151 57.61,-150.46 55.69,-149.84 53.76,-149.18"/>
<polygon fill="#63b8ff" stroke="#63b8ff" points="54.89,-145.87 44.3,-145.61 52.42,-152.41 54.89,-145.87"/>
</g>
<!-- Node5 -->
<g id="node5" class="node">
<title>Node5</title>
<g id="a_node5"><a xlink:title=" ">
<polygon fill="#e0e0e0" stroke="#999999" points="132,-145.5 69,-145.5 69,-126.5 132,-126.5 132,-145.5"/>
<text text-anchor="middle" x="100.5" y="-133.5" font-family="Helvetica,sans-Serif" font-size="10.00">termios.h</text>
</a>
</g>
</g>
<!-- Node2&#45;&gt;Node5 -->
<g id="edge4" class="edge">
<title>Node2&#45;&gt;Node5</title>
<path fill="none" stroke="#63b8ff" d="M310.55,-192.46C268,-183.31 199.65,-167.81 141.5,-151 139.03,-150.29 136.5,-149.52 133.95,-148.71"/>
<polygon fill="#63b8ff" stroke="#63b8ff" points="134.82,-145.31 124.23,-145.53 132.64,-151.97 134.82,-145.31"/>
</g>
<!-- Node6 -->
<g id="node6" class="node">
<title>Node6</title>
<g id="a_node6"><a xlink:title=" ">
<polygon fill="#e0e0e0" stroke="#999999" points="206.5,-145.5 150.5,-145.5 150.5,-126.5 206.5,-126.5 206.5,-145.5"/>
<text text-anchor="middle" x="178.5" y="-133.5" font-family="Helvetica,sans-Serif" font-size="10.00">unistd.h</text>
</a>
</g>
</g>
<!-- Node2&#45;&gt;Node6 -->
<g id="edge5" class="edge">
<title>Node2&#45;&gt;Node6</title>
<path fill="none" stroke="#63b8ff" d="M327.89,-192.4C300.74,-182.49 254.86,-165.68 215.5,-151 213.91,-150.41 212.28,-149.8 210.63,-149.18"/>
<polygon fill="#63b8ff" stroke="#63b8ff" points="211.78,-145.87 201.19,-145.62 209.31,-152.42 211.78,-145.87"/>
</g>
<!-- Node7 -->
<g id="node7" class="node">
<title>Node7</title>
<g id="a_node7"><a xlink:title=" ">
<polygon fill="#e0e0e0" stroke="#999999" points="500.5,-19 456.5,-19 456.5,0 500.5,0 500.5,-19"/>
<text text-anchor="middle" x="478.5" y="-7" font-family="Helvetica,sans-Serif" font-size="10.00">string</text>
</a>
</g>
</g>
<!-- Node2&#45;&gt;Node7 -->
<g id="edge6" class="edge">
<title>Node2&#45;&gt;Node7</title>
<path fill="none" stroke="#63b8ff" d="M366.68,-192.41C381.11,-183.6 402.61,-168.7 416.5,-151 424.52,-140.78 456.25,-64.73 470.95,-28.97"/>
<polygon fill="#63b8ff" stroke="#63b8ff" points="474.36,-29.87 474.92,-19.29 467.89,-27.21 474.36,-29.87"/>
</g>
<!-- Node8 -->
<g id="node8" class="node">
<title>Node8</title>
<g id="a_node8"><a xlink:title=" ">
<polygon fill="#e0e0e0" stroke="#999999" points="274.5,-145.5 224.5,-145.5 224.5,-126.5 274.5,-126.5 274.5,-145.5"/>
<text text-anchor="middle" x="249.5" y="-133.5" font-family="Helvetica,sans-Serif" font-size="10.00">chrono</text>
</a>
</g>
</g>
<!-- Node2&#45;&gt;Node8 -->
<g id="edge7" class="edge">
<title>Node2&#45;&gt;Node8</title>
<path fill="none" stroke="#63b8ff" d="M337.74,-192.37C320.86,-181.78 292.01,-163.67 271.91,-151.06"/>
<polygon fill="#63b8ff" stroke="#63b8ff" points="273.69,-148.05 263.36,-145.7 269.97,-153.98 273.69,-148.05"/>
</g>
<!-- Node9 -->
<g id="node9" class="node">
<title>Node9</title>
<g id="a_node9"><a xlink:title=" ">
<polygon fill="#e0e0e0" stroke="#999999" points="342.5,-145.5 292.5,-145.5 292.5,-126.5 342.5,-126.5 342.5,-145.5"/>
<text text-anchor="middle" x="317.5" y="-133.5" font-family="Helvetica,sans-Serif" font-size="10.00">stdio.h</text>
</a>
</g>
</g>
<!-- Node2&#45;&gt;Node9 -->
<g id="edge8" class="edge">
<title>Node2&#45;&gt;Node9</title>
<path fill="none" stroke="#63b8ff" d="M346.91,-192.37C341.82,-182.78 333.46,-167.05 326.96,-154.8"/>
<polygon fill="#63b8ff" stroke="#63b8ff" points="330.01,-153.09 322.23,-145.91 323.83,-156.38 330.01,-153.09"/>
</g>
<!-- Node10 -->
<g id="node10" class="node">
<title>Node10</title>
<g id="a_node10"><a xlink:href="byte__ring__buffer_8hpp.html" target="_top" xlink:title="シリアル通信用リングバッファー">
<polygon fill="white" stroke="#666666" points="1148,-85 1023,-85 1023,-55 1148,-55 1148,-85"/>
<text text-anchor="start" x="1031" y="-73" font-family="Helvetica,sans-Serif" font-size="10.00">roblab_common/serial</text>
<text text-anchor="middle" x="1085.5" y="-62" font-family="Helvetica,sans-Serif" font-size="10.00">/byte_ring_buffer.hpp</text>
</a>
</g>
</g>
<!-- Node2&#45;&gt;Node10 -->
<g id="edge9" class="edge">
<title>Node2&#45;&gt;Node10</title>
<path fill="none" stroke="#63b8ff" d="M406.76,-197.13C496.38,-190.28 669.1,-174.47 725.5,-151 745.69,-142.6 744.35,-129.51 764.5,-121 864.59,-78.73 901.17,-102.25 1012.75,-85.01"/>
<polygon fill="#63b8ff" stroke="#63b8ff" points="1013.39,-88.45 1022.7,-83.4 1012.27,-81.54 1013.39,-88.45"/>
</g>
<!-- Node15 -->
<g id="node15" class="node">
<title>Node15</title>
<g id="a_node15"><a xlink:href="i__uart__io_8hpp.html" target="_top" xlink:title=" ">
<polygon fill="white" stroke="#666666" points="899,-151 774,-151 774,-121 899,-121 899,-151"/>
<text text-anchor="start" x="782" y="-139" font-family="Helvetica,sans-Serif" font-size="10.00">roblab_common/serial</text>
<text text-anchor="middle" x="836.5" y="-128" font-family="Helvetica,sans-Serif" font-size="10.00">/i_uart_io.hpp</text>
</a>
</g>
</g>
<!-- Node2&#45;&gt;Node15 -->
<g id="edge14" class="edge">
<title>Node2&#45;&gt;Node15</title>
<path fill="none" stroke="#63b8ff" d="M406.74,-195.26C485.3,-186.86 633.74,-170.12 759.5,-151 760.97,-150.78 762.45,-150.55 763.95,-150.31"/>
<polygon fill="#63b8ff" stroke="#63b8ff" points="764.63,-153.75 773.94,-148.69 763.5,-146.84 764.63,-153.75"/>
</g>
<!-- Node11 -->
<g id="node11" class="node">
<title>Node11</title>
<g id="a_node11"><a xlink:title=" ">
<polygon fill="#e0e0e0" stroke="#999999" points="978.5,-19 928.5,-19 928.5,0 978.5,0 978.5,-19"/>
<text text-anchor="middle" x="953.5" y="-7" font-family="Helvetica,sans-Serif" font-size="10.00">cstdint</text>
</a>
</g>
</g>
<!-- Node10&#45;&gt;Node11 -->
<g id="edge10" class="edge">
<title>Node10&#45;&gt;Node11</title>
<path fill="none" stroke="#63b8ff" d="M1053.88,-54.99C1032.15,-45.36 1003.53,-32.67 982.41,-23.31"/>
<polygon fill="#63b8ff" stroke="#63b8ff" points="983.55,-19.99 972.99,-19.14 980.72,-26.39 983.55,-19.99"/>
</g>
<!-- Node12 -->
<g id="node12" class="node">
<title>Node12</title>
<g id="a_node12"><a xlink:title=" ">
<polygon fill="#e0e0e0" stroke="#999999" points="786,-19 739,-19 739,0 786,0 786,-19"/>
<text text-anchor="middle" x="762.5" y="-7" font-family="Helvetica,sans-Serif" font-size="10.00">vector</text>
</a>
</g>
</g>
<!-- Node10&#45;&gt;Node12 -->
<g id="edge11" class="edge">
<title>Node10&#45;&gt;Node12</title>
<path fill="none" stroke="#63b8ff" d="M1022.68,-56.72C1019.58,-56.14 1016.5,-55.56 1013.5,-55 935.67,-40.53 844.06,-24.56 795.93,-16.24"/>
<polygon fill="#63b8ff" stroke="#63b8ff" points="796.5,-12.79 786.05,-14.54 795.31,-19.69 796.5,-12.79"/>
</g>
<!-- Node13 -->
<g id="node13" class="node">
<title>Node13</title>
<g id="a_node13"><a xlink:title=" ">
<polygon fill="#e0e0e0" stroke="#999999" points="1265.5,-19 1219.5,-19 1219.5,0 1265.5,0 1265.5,-19"/>
<text text-anchor="middle" x="1242.5" y="-7" font-family="Helvetica,sans-Serif" font-size="10.00">cstdio</text>
</a>
</g>
</g>
<!-- Node10&#45;&gt;Node13 -->
<g id="edge12" class="edge">
<title>Node10&#45;&gt;Node13</title>
<path fill="none" stroke="#63b8ff" d="M1123.11,-54.99C1149.53,-45.14 1184.54,-32.1 1209.81,-22.68"/>
<polygon fill="#63b8ff" stroke="#63b8ff" points="1211.17,-25.91 1219.31,-19.14 1208.72,-19.35 1211.17,-25.91"/>
</g>
<!-- Node14 -->
<g id="node14" class="node">
<title>Node14</title>
<g id="a_node14"><a xlink:title=" ">
<polygon fill="#e0e0e0" stroke="#999999" points="1140,-19 1091,-19 1091,0 1140,0 1140,-19"/>
<text text-anchor="middle" x="1115.5" y="-7" font-family="Helvetica,sans-Serif" font-size="10.00">cstdlib</text>
</a>
</g>
</g>
<!-- Node10&#45;&gt;Node14 -->
<g id="edge13" class="edge">
<title>Node10&#45;&gt;Node14</title>
<path fill="none" stroke="#63b8ff" d="M1092.76,-54.84C1096.85,-46.87 1101.99,-36.84 1106.36,-28.33"/>
<polygon fill="#63b8ff" stroke="#63b8ff" points="1109.56,-29.76 1111,-19.27 1103.33,-26.57 1109.56,-29.76"/>
</g>
<!-- Node15&#45;&gt;Node10 -->
<g id="edge15" class="edge">
<title>Node15&#45;&gt;Node10</title>
<path fill="none" stroke="#63b8ff" d="M891.14,-120.95C929.5,-111.1 980.93,-97.88 1021.25,-87.51"/>
<polygon fill="#63b8ff" stroke="#63b8ff" points="1022.17,-90.89 1030.98,-85.01 1020.43,-84.11 1022.17,-90.89"/>
</g>
<!-- Node16&#45;&gt;Node7 -->
<g id="edge17" class="edge">
<title>Node16&#45;&gt;Node7</title>
<path fill="none" stroke="#63b8ff" d="M1071.17,-199.84C942.5,-196.83 669.39,-186.37 582.5,-151 539.49,-133.49 527.46,-123.5 501.5,-85 490.05,-68.02 484.1,-45.09 481.15,-29.18"/>
<polygon fill="#63b8ff" stroke="#63b8ff" points="484.56,-28.32 479.49,-19.01 477.65,-29.44 484.56,-28.32"/>
</g>
<!-- Node16&#45;&gt;Node15 -->
<g id="edge45" class="edge">
<title>Node16&#45;&gt;Node15</title>
<path fill="none" stroke="#63b8ff" d="M1073.01,-186.95C1024.6,-176.73 959.08,-162.89 909.28,-152.37"/>
<polygon fill="#63b8ff" stroke="#63b8ff" points="909.72,-148.89 899.22,-150.25 908.28,-155.74 909.72,-148.89"/>
</g>
<!-- Node17 -->
<g id="node17" class="node">
<title>Node17</title>
<g id="a_node17"><a xlink:title=" ">
<polygon fill="#e0e0e0" stroke="#999999" points="1313,-145.5 1220,-145.5 1220,-126.5 1313,-126.5 1313,-145.5"/>
<text text-anchor="middle" x="1266.5" y="-133.5" font-family="Helvetica,sans-Serif" font-size="10.00">unordered_map</text>
</a>
</g>
</g>
<!-- Node16&#45;&gt;Node17 -->
<g id="edge18" class="edge">
<title>Node16&#45;&gt;Node17</title>
<path fill="none" stroke="#63b8ff" d="M1167.37,-186.95C1189.15,-175.98 1219.2,-160.83 1240.49,-150.11"/>
<polygon fill="#63b8ff" stroke="#63b8ff" points="1242.24,-153.14 1249.6,-145.52 1239.09,-146.89 1242.24,-153.14"/>
</g>
<!-- Node18 -->
<g id="node18" class="node">
<title>Node18</title>
<g id="a_node18"><a xlink:title=" ">
<polygon fill="#e0e0e0" stroke="#999999" points="1455.5,-79.5 1403.5,-79.5 1403.5,-60.5 1455.5,-60.5 1455.5,-79.5"/>
<text text-anchor="middle" x="1429.5" y="-67.5" font-family="Helvetica,sans-Serif" font-size="10.00">cassert</text>
</a>
</g>
</g>
<!-- Node16&#45;&gt;Node18 -->
<g id="edge19" class="edge">
<title>Node16&#45;&gt;Node18</title>
<path fill="none" stroke="#63b8ff" d="M1207.94,-189.2C1212.53,-188.44 1217.08,-187.7 1221.5,-187 1275.41,-178.41 1428.84,-192.33 1464.5,-151 1480.76,-132.16 1461.78,-104.59 1446.06,-87.23"/>
<polygon fill="#63b8ff" stroke="#63b8ff" points="1448.22,-84.42 1438.78,-79.61 1443.16,-89.26 1448.22,-84.42"/>
</g>
<!-- Node19 -->
<g id="node19" class="node">
<title>Node19</title>
<g id="a_node19"><a xlink:title=" ">
<polygon fill="#e0e0e0" stroke="#999999" points="975.5,-145.5 917.5,-145.5 917.5,-126.5 975.5,-126.5 975.5,-145.5"/>
<text text-anchor="middle" x="946.5" y="-133.5" font-family="Helvetica,sans-Serif" font-size="10.00">memory</text>
</a>
</g>
</g>
<!-- Node16&#45;&gt;Node19 -->
<g id="edge20" class="edge">
<title>Node16&#45;&gt;Node19</title>
<path fill="none" stroke="#63b8ff" d="M1094.23,-186.94C1063.24,-177.17 1021.25,-163.69 984.5,-151 982.66,-150.36 980.76,-149.7 978.86,-149.02"/>
<polygon fill="#63b8ff" stroke="#63b8ff" points="979.95,-145.7 969.35,-145.59 977.57,-152.28 979.95,-145.7"/>
</g>
<!-- Node16&#45;&gt;Node20 -->
<g id="edge21" class="edge">
<title>Node16&#45;&gt;Node20</title>
<path fill="none" stroke="#63b8ff" d="M1207.92,-189.11C1212.52,-188.37 1217.07,-187.67 1221.5,-187 1344.27,-168.55 1379.29,-185.66 1498.5,-151 1499.95,-150.58 1501.42,-150.1 1502.88,-149.57"/>
<polygon fill="#63b8ff" stroke="#63b8ff" points="1504.45,-152.71 1512.35,-145.64 1501.77,-146.24 1504.45,-152.71"/>
</g>
<!-- Node21 -->
<g id="node21" class="node">
<title>Node21</title>
<g id="a_node21"><a xlink:title=" ">
<polygon fill="#e0e0e0" stroke="#999999" points="1059,-145.5 994,-145.5 994,-126.5 1059,-126.5 1059,-145.5"/>
<text text-anchor="middle" x="1026.5" y="-133.5" font-family="Helvetica,sans-Serif" font-size="10.00">functional</text>
</a>
</g>
</g>
<!-- Node16&#45;&gt;Node21 -->
<g id="edge22" class="edge">
<title>Node16&#45;&gt;Node21</title>
<path fill="none" stroke="#63b8ff" d="M1114.7,-186.95C1095.58,-176.13 1069.3,-161.24 1050.41,-150.54"/>
<polygon fill="#63b8ff" stroke="#63b8ff" points="1051.96,-147.4 1041.54,-145.52 1048.51,-153.49 1051.96,-147.4"/>
</g>
<!-- Node22 -->
<g id="node22" class="node">
<title>Node22</title>
<g id="a_node22"><a xlink:href="cobs_8hpp.html" target="_top" xlink:title="COBS変換ライブラリ">
<polygon fill="white" stroke="#666666" points="1456,-151 1331,-151 1331,-121 1456,-121 1456,-151"/>
<text text-anchor="start" x="1339" y="-139" font-family="Helvetica,sans-Serif" font-size="10.00">roblab_common/serial</text>
<text text-anchor="middle" x="1393.5" y="-128" font-family="Helvetica,sans-Serif" font-size="10.00">/cobs.hpp</text>
</a>
</g>
</g>
<!-- Node16&#45;&gt;Node22 -->
<g id="edge23" class="edge">
<title>Node16&#45;&gt;Node22</title>
<path fill="none" stroke="#63b8ff" d="M1195.24,-186.95C1234.37,-177.1 1286.83,-163.88 1327.96,-153.51"/>
<polygon fill="#63b8ff" stroke="#63b8ff" points="1329.05,-156.85 1337.89,-151.01 1327.34,-150.06 1329.05,-156.85"/>
</g>
<!-- Node23 -->
<g id="node23" class="node">
<title>Node23</title>
<g id="a_node23"><a xlink:href="data__serializer_8hpp.html" target="_top" xlink:title="データとバイト列の変換ライブラリ">
<polygon fill="white" stroke="#666666" points="717,-151 592,-151 592,-121 717,-121 717,-151"/>
<text text-anchor="start" x="600" y="-139" font-family="Helvetica,sans-Serif" font-size="10.00">roblab_common/serial</text>
<text text-anchor="middle" x="654.5" y="-128" font-family="Helvetica,sans-Serif" font-size="10.00">/data_serializer.hpp</text>
</a>
</g>
</g>
<!-- Node16&#45;&gt;Node23 -->
<g id="edge28" class="edge">
<title>Node16&#45;&gt;Node23</title>
<path fill="none" stroke="#63b8ff" d="M1071.3,-192C980.51,-180.02 820.62,-158.92 727.48,-146.63"/>
<polygon fill="#63b8ff" stroke="#63b8ff" points="727.67,-143.13 717.3,-145.29 726.75,-150.06 727.67,-143.13"/>
</g>
<!-- Node31 -->
<g id="node31" class="node">
<title>Node31</title>
<g id="a_node31"><a xlink:href="sender_8hpp.html" target="_top" xlink:title="シリアル通信で送るデータを登録">
<polygon fill="white" stroke="#666666" points="1202,-151 1077,-151 1077,-121 1202,-121 1202,-151"/>
<text text-anchor="start" x="1085" y="-139" font-family="Helvetica,sans-Serif" font-size="10.00">roblab_common/serial</text>
<text text-anchor="middle" x="1139.5" y="-128" font-family="Helvetica,sans-Serif" font-size="10.00">/sender.hpp</text>
</a>
</g>
</g>
<!-- Node16&#45;&gt;Node31 -->
<g id="edge43" class="edge">
<title>Node16&#45;&gt;Node31</title>
<path fill="none" stroke="#63b8ff" d="M1133.78,-186.8C1132.8,-179.26 1132.52,-169.78 1132.93,-161.13"/>
<polygon fill="#63b8ff" stroke="#63b8ff" points="1136.42,-161.43 1133.79,-151.16 1129.45,-160.83 1136.42,-161.43"/>
</g>
<!-- Node22&#45;&gt;Node10 -->
<g id="edge24" class="edge">
<title>Node22&#45;&gt;Node10</title>
<path fill="none" stroke="#63b8ff" d="M1330.8,-121.97C1280.73,-111.57 1210.52,-96.98 1158.03,-86.07"/>
<polygon fill="#63b8ff" stroke="#63b8ff" points="1158.61,-82.62 1148.11,-84.01 1157.19,-89.47 1158.61,-82.62"/>
</g>
<!-- Node22&#45;&gt;Node13 -->
<g id="edge25" class="edge">
<title>Node22&#45;&gt;Node13</title>
<path fill="none" stroke="#63b8ff" d="M1376.47,-120.96C1347.83,-97.35 1290.26,-49.88 1260.79,-25.58"/>
<polygon fill="#63b8ff" stroke="#63b8ff" points="1262.88,-22.77 1252.94,-19.11 1258.43,-28.17 1262.88,-22.77"/>
</g>
<!-- Node22&#45;&gt;Node14 -->
<g id="edge27" class="edge">
<title>Node22&#45;&gt;Node14</title>
<path fill="none" stroke="#63b8ff" d="M1362.15,-120.96C1307.72,-96.59 1196.55,-46.8 1144.1,-23.31"/>
<polygon fill="#63b8ff" stroke="#63b8ff" points="1145.28,-20 1134.72,-19.11 1142.42,-26.39 1145.28,-20"/>
</g>
<!-- Node22&#45;&gt;Node18 -->
<g id="edge26" class="edge">
<title>Node22&#45;&gt;Node18</title>
<path fill="none" stroke="#63b8ff" d="M1401.49,-120.8C1406.83,-111.31 1413.89,-98.76 1419.58,-88.63"/>
<polygon fill="#63b8ff" stroke="#63b8ff" points="1422.67,-90.28 1424.53,-79.84 1416.57,-86.84 1422.67,-90.28"/>
</g>
<!-- Node23&#45;&gt;Node7 -->
<g id="edge29" class="edge">
<title>Node23&#45;&gt;Node7</title>
<path fill="none" stroke="#63b8ff" d="M601.97,-120.96C578.75,-113 552.11,-101.3 531.5,-85 511.91,-69.5 496.38,-44.91 487.32,-28.26"/>
<polygon fill="#63b8ff" stroke="#63b8ff" points="490.26,-26.32 482.54,-19.07 484.05,-29.56 490.26,-26.32"/>
</g>
<!-- Node23&#45;&gt;Node10 -->
<g id="edge36" class="edge">
<title>Node23&#45;&gt;Node10</title>
<path fill="none" stroke="#63b8ff" d="M717.07,-123.34C721.95,-122.52 726.8,-121.73 731.5,-121 853.2,-102.18 887.05,-104.91 1012.7,-85.06"/>
<polygon fill="#63b8ff" stroke="#63b8ff" points="1013.39,-88.49 1022.71,-83.46 1012.29,-81.58 1013.39,-88.49"/>
</g>
<!-- Node23&#45;&gt;Node11 -->
<g id="edge31" class="edge">
<title>Node23&#45;&gt;Node11</title>
<path fill="none" stroke="#63b8ff" d="M675.99,-120.88C703.3,-103.44 752.32,-73.78 797.5,-55 837.75,-38.27 886.34,-25.51 918.48,-18.03"/>
<polygon fill="#63b8ff" stroke="#63b8ff" points="919.34,-21.42 928.31,-15.78 917.78,-14.6 919.34,-21.42"/>
</g>
<!-- Node23&#45;&gt;Node12 -->
<g id="edge30" class="edge">
<title>Node23&#45;&gt;Node12</title>
<path fill="none" stroke="#63b8ff" d="M667.62,-120.66C676.66,-110.72 688.9,-97.14 699.5,-85 716.63,-65.37 735.92,-42.43 748.59,-27.25"/>
<polygon fill="#63b8ff" stroke="#63b8ff" points="751.51,-29.22 755.22,-19.29 746.13,-24.74 751.51,-29.22"/>
</g>
<!-- Node24 -->
<g id="node24" class="node">
<title>Node24</title>
<g id="a_node24"><a xlink:title=" ">
<polygon fill="#e0e0e0" stroke="#999999" points="721,-19 652,-19 652,0 721,0 721,-19"/>
<text text-anchor="middle" x="686.5" y="-7" font-family="Helvetica,sans-Serif" font-size="10.00">type_traits</text>
</a>
</g>
</g>
<!-- Node23&#45;&gt;Node24 -->
<g id="edge32" class="edge">
<title>Node23&#45;&gt;Node24</title>
<path fill="none" stroke="#63b8ff" d="M664.71,-120.91C671.07,-111.3 678.73,-98 682.5,-85 687.79,-66.76 688.33,-44.97 687.83,-29.69"/>
<polygon fill="#63b8ff" stroke="#63b8ff" points="691.31,-29.24 687.3,-19.43 684.32,-29.6 691.31,-29.24"/>
</g>
<!-- Node25 -->
<g id="node25" class="node">
<title>Node25</title>
<g id="a_node25"><a xlink:title=" ">
<polygon fill="#e0e0e0" stroke="#999999" points="922.5,-79.5 872.5,-79.5 872.5,-60.5 922.5,-60.5 922.5,-79.5"/>
<text text-anchor="middle" x="897.5" y="-67.5" font-family="Helvetica,sans-Serif" font-size="10.00">cstring</text>
</a>
</g>
</g>
<!-- Node23&#45;&gt;Node25 -->
<g id="edge33" class="edge">
<title>Node23&#45;&gt;Node25</title>
<path fill="none" stroke="#63b8ff" d="M717.39,-122.63C759.25,-113.75 815.22,-100.61 863.5,-85 865.17,-84.46 866.87,-83.87 868.59,-83.26"/>
<polygon fill="#63b8ff" stroke="#63b8ff" points="870.2,-86.39 878.28,-79.53 867.69,-79.85 870.2,-86.39"/>
</g>
<!-- Node26 -->
<g id="node26" class="node">
<title>Node26</title>
<g id="a_node26"><a xlink:title=" ">
<polygon fill="#e0e0e0" stroke="#999999" points="1004.5,-79.5 940.5,-79.5 940.5,-60.5 1004.5,-60.5 1004.5,-79.5"/>
<text text-anchor="middle" x="972.5" y="-67.5" font-family="Helvetica,sans-Serif" font-size="10.00">algorithm</text>
</a>
</g>
</g>
<!-- Node23&#45;&gt;Node26 -->
<g id="edge34" class="edge">
<title>Node23&#45;&gt;Node26</title>
<path fill="none" stroke="#63b8ff" d="M717.11,-123.61C721.98,-122.72 726.82,-121.85 731.5,-121 820.37,-104.92 844.07,-107.66 931.5,-85 934.14,-84.32 936.85,-83.55 939.57,-82.73"/>
<polygon fill="#63b8ff" stroke="#63b8ff" points="940.82,-86 949.27,-79.61 938.68,-79.34 940.82,-86"/>
</g>
<!-- Node27 -->
<g id="node27" class="node">
<title>Node27</title>
<g id="a_node27"><a xlink:title=" ">
<polygon fill="#e0e0e0" stroke="#999999" points="854.5,-79.5 806.5,-79.5 806.5,-60.5 854.5,-60.5 854.5,-79.5"/>
<text text-anchor="middle" x="830.5" y="-67.5" font-family="Helvetica,sans-Serif" font-size="10.00">mutex</text>
</a>
</g>
</g>
<!-- Node23&#45;&gt;Node27 -->
<g id="edge35" class="edge">
<title>Node23&#45;&gt;Node27</title>
<path fill="none" stroke="#63b8ff" d="M693.48,-120.94C721.13,-110.95 759.11,-97.2 792.5,-85 794.13,-84.4 795.81,-83.79 797.5,-83.17"/>
<polygon fill="#63b8ff" stroke="#63b8ff" points="799.02,-86.34 807.2,-79.61 796.6,-79.77 799.02,-86.34"/>
</g>
<!-- Node28 -->
<g id="node28" class="node">
<title>Node28</title>
<g id="a_node28"><a xlink:href="serialize__type__info_8hpp.html" target="_top" xlink:title="DataSeializerで変換する型に関する情報">
<polygon fill="white" stroke="#666666" points="674,-85 541,-85 541,-55 674,-55 674,-85"/>
<text text-anchor="start" x="549" y="-73" font-family="Helvetica,sans-Serif" font-size="10.00">roblab_common/serial</text>
<text text-anchor="middle" x="607.5" y="-62" font-family="Helvetica,sans-Serif" font-size="10.00">/serialize_type_info.hpp</text>
</a>
</g>
</g>
<!-- Node23&#45;&gt;Node28 -->
<g id="edge37" class="edge">
<title>Node23&#45;&gt;Node28</title>
<path fill="none" stroke="#63b8ff" d="M644.07,-120.8C638.17,-112.76 630.65,-102.53 623.97,-93.43"/>
<polygon fill="#63b8ff" stroke="#63b8ff" points="626.64,-91.15 617.9,-85.16 621,-95.3 626.64,-91.15"/>
</g>
<!-- Node28&#45;&gt;Node7 -->
<g id="edge42" class="edge">
<title>Node28&#45;&gt;Node7</title>
<path fill="none" stroke="#63b8ff" d="M576.6,-54.99C555.37,-45.36 527.39,-32.67 506.75,-23.31"/>
<polygon fill="#63b8ff" stroke="#63b8ff" points="508.1,-20.08 497.55,-19.14 505.21,-26.46 508.1,-20.08"/>
</g>
<!-- Node28&#45;&gt;Node12 -->
<g id="edge40" class="edge">
<title>Node28&#45;&gt;Node12</title>
<path fill="none" stroke="#63b8ff" d="M644.63,-54.99C670.72,-45.14 705.28,-32.1 730.23,-22.68"/>
<polygon fill="#63b8ff" stroke="#63b8ff" points="731.49,-25.94 739.61,-19.14 729.02,-19.4 731.49,-25.94"/>
</g>
<!-- Node28&#45;&gt;Node24 -->
<g id="edge38" class="edge">
<title>Node28&#45;&gt;Node24</title>
<path fill="none" stroke="#63b8ff" d="M626.62,-54.84C638.68,-45.91 654.21,-34.41 666.44,-25.35"/>
<polygon fill="#63b8ff" stroke="#63b8ff" points="668.71,-28.03 674.66,-19.27 664.54,-22.4 668.71,-28.03"/>
</g>
<!-- Node29 -->
<g id="node29" class="node">
<title>Node29</title>
<g id="a_node29"><a xlink:title=" ">
<polygon fill="#e0e0e0" stroke="#999999" points="634,-19 581,-19 581,0 634,0 634,-19"/>
<text text-anchor="middle" x="607.5" y="-7" font-family="Helvetica,sans-Serif" font-size="10.00">stdint.h</text>
</a>
</g>
</g>
<!-- Node28&#45;&gt;Node29 -->
<g id="edge39" class="edge">
<title>Node28&#45;&gt;Node29</title>
<path fill="none" stroke="#63b8ff" d="M607.5,-54.84C607.5,-47.21 607.5,-37.7 607.5,-29.45"/>
<polygon fill="#63b8ff" stroke="#63b8ff" points="611,-29.27 607.5,-19.27 604,-29.27 611,-29.27"/>
</g>
<!-- Node30 -->
<g id="node30" class="node">
<title>Node30</title>
<g id="a_node30"><a xlink:title=" ">
<polygon fill="#e0e0e0" stroke="#999999" points="563,-19 522,-19 522,0 563,0 563,-19"/>
<text text-anchor="middle" x="542.5" y="-7" font-family="Helvetica,sans-Serif" font-size="10.00">tuple</text>
</a>
</g>
</g>
<!-- Node28&#45;&gt;Node30 -->
<g id="edge41" class="edge">
<title>Node28&#45;&gt;Node30</title>
<path fill="none" stroke="#63b8ff" d="M591.77,-54.84C582.14,-46.17 569.81,-35.08 559.89,-26.15"/>
<polygon fill="#63b8ff" stroke="#63b8ff" points="562.01,-23.35 552.24,-19.27 557.33,-28.56 562.01,-23.35"/>
</g>
<!-- Node31&#45;&gt;Node16 -->
<g id="edge44" class="edge">
<title>Node31&#45;&gt;Node16</title>
<path fill="none" stroke="#63b8ff" d="M1145.21,-151.16C1146.19,-158.7 1146.48,-168.17 1146.07,-176.83"/>
<polygon fill="#63b8ff" stroke="#63b8ff" points="1142.58,-176.54 1145.22,-186.8 1149.55,-177.13 1142.58,-176.54"/>
</g>
</g>
</svg>
