<?xml version="1.0" encoding="UTF-8" standalone="no"?>
<!DOCTYPE svg PUBLIC "-//W3C//DTD SVG 1.1//EN"
 "http://www.w3.org/Graphics/SVG/1.1/DTD/svg11.dtd">
<!-- Generated by graphviz version 2.43.0 (0)
 -->
<!-- Title: roblab_ros_lib/include/serial/mbed_multi_connection.hpp Pages: 1 -->
<svg width="1521pt" height="313pt"
 viewBox="0.00 0.00 1520.50 313.00" xmlns="http://www.w3.org/2000/svg" xmlns:xlink="http://www.w3.org/1999/xlink">
<g id="graph0" class="graph" transform="scale(1 1) rotate(0) translate(4 309)">
<title>roblab_ros_lib/include/serial/mbed_multi_connection.hpp</title>
<!-- Node1 -->
<g id="node1" class="node">
<title>Node1</title>
<g id="a_node1"><a xlink:title="複数のMbedとシリアル通信を行うライブラリ">
<polygon fill="#999999" stroke="#666666" points="1495.5,-305 1307.5,-305 1307.5,-275 1495.5,-275 1495.5,-305"/>
<text text-anchor="start" x="1315.5" y="-293" font-family="Helvetica,sans-Serif" font-size="10.00">roblab_ros_lib/include</text>
<text text-anchor="middle" x="1401.5" y="-282" font-family="Helvetica,sans-Serif" font-size="10.00">/serial/mbed_multi_connection.hpp</text>
</a>
</g>
</g>
<!-- Node2 -->
<g id="node2" class="node">
<title>Node2</title>
<g id="a_node2"><a xlink:href="mbed__single__connection_8hpp.html" target="_top" xlink:title="1個のmbedとシリアル通信">
<polygon fill="white" stroke="#666666" points="1242.5,-239 1084.5,-239 1084.5,-220 1242.5,-220 1242.5,-239"/>
<text text-anchor="middle" x="1163.5" y="-227" font-family="Helvetica,sans-Serif" font-size="10.00">mbed_single_connection.hpp</text>
</a>
</g>
</g>
<!-- Node1&#45;&gt;Node2 -->
<g id="edge1" class="edge">
<title>Node1&#45;&gt;Node2</title>
<path fill="none" stroke="#63b8ff" d="M1344.49,-274.99C1302.71,-264.72 1246.77,-250.97 1208.2,-241.49"/>
<polygon fill="#63b8ff" stroke="#63b8ff" points="1208.85,-238.04 1198.3,-239.05 1207.17,-244.84 1208.85,-238.04"/>
</g>
<!-- Node21 -->
<g id="node21" class="node">
<title>Node21</title>
<g id="a_node21"><a xlink:title=" ">
<polygon fill="#e0e0e0" stroke="#999999" points="1454.5,-129 1422.5,-129 1422.5,-110 1454.5,-110 1454.5,-129"/>
<text text-anchor="middle" x="1438.5" y="-117" font-family="Helvetica,sans-Serif" font-size="10.00">list</text>
</a>
</g>
</g>
<!-- Node1&#45;&gt;Node21 -->
<g id="edge47" class="edge">
<title>Node1&#45;&gt;Node21</title>
<path fill="none" stroke="#63b8ff" d="M1397.18,-274.86C1393.52,-260.82 1389.46,-238.74 1393.5,-220 1400.07,-189.54 1416.75,-157.18 1427.85,-137.92"/>
<polygon fill="#63b8ff" stroke="#63b8ff" points="1430.98,-139.5 1433.07,-129.11 1424.96,-135.93 1430.98,-139.5"/>
</g>
<!-- Node33 -->
<g id="node33" class="node">
<title>Node33</title>
<g id="a_node33"><a xlink:title=" ">
<polygon fill="#e0e0e0" stroke="#999999" points="1456.5,-239 1402.5,-239 1402.5,-220 1456.5,-220 1456.5,-239"/>
<text text-anchor="middle" x="1429.5" y="-227" font-family="Helvetica,sans-Serif" font-size="10.00">dirent.h</text>
</a>
</g>
</g>
<!-- Node1&#45;&gt;Node33 -->
<g id="edge46" class="edge">
<title>Node1&#45;&gt;Node33</title>
<path fill="none" stroke="#63b8ff" d="M1408.28,-274.84C1412.09,-266.87 1416.89,-256.84 1420.96,-248.33"/>
<polygon fill="#63b8ff" stroke="#63b8ff" points="1424.14,-249.8 1425.3,-239.27 1417.83,-246.77 1424.14,-249.8"/>
</g>
<!-- Node34 -->
<g id="node34" class="node">
<title>Node34</title>
<g id="a_node34"><a xlink:title=" ">
<polygon fill="#e0e0e0" stroke="#999999" points="1512.5,-239 1474.5,-239 1474.5,-220 1512.5,-220 1512.5,-239"/>
<text text-anchor="middle" x="1493.5" y="-227" font-family="Helvetica,sans-Serif" font-size="10.00">map</text>
</a>
</g>
</g>
<!-- Node1&#45;&gt;Node34 -->
<g id="edge48" class="edge">
<title>Node1&#45;&gt;Node34</title>
<path fill="none" stroke="#63b8ff" d="M1423.77,-274.84C1438.17,-265.68 1456.83,-253.82 1471.23,-244.66"/>
<polygon fill="#63b8ff" stroke="#63b8ff" points="1473.42,-247.41 1479.98,-239.09 1469.67,-241.51 1473.42,-247.41"/>
</g>
<!-- Node3 -->
<g id="node3" class="node">
<title>Node3</title>
<g id="a_node3"><a xlink:href="posix__serial__io_8hpp.html" target="_top" xlink:title="Ubuntuシリアル通信IOライブラリ">
<polygon fill="white" stroke="#666666" points="528.5,-184 418.5,-184 418.5,-165 528.5,-165 528.5,-184"/>
<text text-anchor="middle" x="473.5" y="-172" font-family="Helvetica,sans-Serif" font-size="10.00">posix_serial_io.hpp</text>
</a>
</g>
</g>
<!-- Node2&#45;&gt;Node3 -->
<g id="edge2" class="edge">
<title>Node2&#45;&gt;Node3</title>
<path fill="none" stroke="#63b8ff" d="M1084.35,-222.42C946.66,-211.84 665.63,-190.26 538.51,-180.49"/>
<polygon fill="#63b8ff" stroke="#63b8ff" points="538.77,-177 528.53,-179.73 538.23,-183.98 538.77,-177"/>
</g>
<!-- Node17 -->
<g id="node17" class="node">
<title>Node17</title>
<g id="a_node17"><a xlink:href="id__packet__manager_8hpp.html" target="_top" xlink:title="ID付きパケットデータを管理">
<polygon fill="white" stroke="#666666" points="1245,-184 1082,-184 1082,-165 1245,-165 1245,-184"/>
<text text-anchor="middle" x="1163.5" y="-172" font-family="Helvetica,sans-Serif" font-size="10.00">serial/id_packet_manager.hpp</text>
</a>
</g>
</g>
<!-- Node2&#45;&gt;Node17 -->
<g id="edge17" class="edge">
<title>Node2&#45;&gt;Node17</title>
<path fill="none" stroke="#63b8ff" d="M1163.5,-219.75C1163.5,-212.8 1163.5,-202.85 1163.5,-194.13"/>
<polygon fill="#63b8ff" stroke="#63b8ff" points="1167,-194.09 1163.5,-184.09 1160,-194.09 1167,-194.09"/>
</g>
<!-- Node4 -->
<g id="node4" class="node">
<title>Node4</title>
<g id="a_node4"><a xlink:title=" ">
<polygon fill="#e0e0e0" stroke="#999999" points="47,-129 0,-129 0,-110 47,-110 47,-129"/>
<text text-anchor="middle" x="23.5" y="-117" font-family="Helvetica,sans-Serif" font-size="10.00">fcntl.h</text>
</a>
</g>
</g>
<!-- Node3&#45;&gt;Node4 -->
<g id="edge3" class="edge">
<title>Node3&#45;&gt;Node4</title>
<path fill="none" stroke="#63b8ff" d="M418.34,-170.33C339.95,-165.24 191.77,-153.42 57.25,-129.07"/>
<polygon fill="#63b8ff" stroke="#63b8ff" points="57.64,-125.59 47.17,-127.22 56.38,-132.47 57.64,-125.59"/>
</g>
<!-- Node5 -->
<g id="node5" class="node">
<title>Node5</title>
<g id="a_node5"><a xlink:title=" ">
<polygon fill="#e0e0e0" stroke="#999999" points="116,-129 65,-129 65,-110 116,-110 116,-129"/>
<text text-anchor="middle" x="90.5" y="-117" font-family="Helvetica,sans-Serif" font-size="10.00">errno.h</text>
</a>
</g>
</g>
<!-- Node3&#45;&gt;Node5 -->
<g id="edge4" class="edge">
<title>Node3&#45;&gt;Node5</title>
<path fill="none" stroke="#63b8ff" d="M418.48,-168.51C351.54,-162 234.93,-149.2 126.21,-129.13"/>
<polygon fill="#63b8ff" stroke="#63b8ff" points="126.52,-125.63 116.05,-127.23 125.23,-132.51 126.52,-125.63"/>
</g>
<!-- Node6 -->
<g id="node6" class="node">
<title>Node6</title>
<g id="a_node6"><a xlink:title=" ">
<polygon fill="#e0e0e0" stroke="#999999" points="197,-129 134,-129 134,-110 197,-110 197,-129"/>
<text text-anchor="middle" x="165.5" y="-117" font-family="Helvetica,sans-Serif" font-size="10.00">termios.h</text>
</a>
</g>
</g>
<!-- Node3&#45;&gt;Node6 -->
<g id="edge5" class="edge">
<title>Node3&#45;&gt;Node6</title>
<path fill="none" stroke="#63b8ff" d="M418.42,-164.97C366.57,-156.79 286.5,-143.79 207.4,-129.11"/>
<polygon fill="#63b8ff" stroke="#63b8ff" points="207.73,-125.61 197.26,-127.21 206.45,-132.49 207.73,-125.61"/>
</g>
<!-- Node7 -->
<g id="node7" class="node">
<title>Node7</title>
<g id="a_node7"><a xlink:title=" ">
<polygon fill="#e0e0e0" stroke="#999999" points="271.5,-129 215.5,-129 215.5,-110 271.5,-110 271.5,-129"/>
<text text-anchor="middle" x="243.5" y="-117" font-family="Helvetica,sans-Serif" font-size="10.00">unistd.h</text>
</a>
</g>
</g>
<!-- Node3&#45;&gt;Node7 -->
<g id="edge6" class="edge">
<title>Node3&#45;&gt;Node7</title>
<path fill="none" stroke="#63b8ff" d="M436.55,-164.98C393.99,-155.18 324.44,-139.15 281.46,-129.25"/>
<polygon fill="#63b8ff" stroke="#63b8ff" points="282.19,-125.82 271.66,-126.99 280.62,-132.65 282.19,-125.82"/>
</g>
<!-- Node8 -->
<g id="node8" class="node">
<title>Node8</title>
<g id="a_node8"><a xlink:title=" ">
<polygon fill="#e0e0e0" stroke="#999999" points="359.5,-19 315.5,-19 315.5,0 359.5,0 359.5,-19"/>
<text text-anchor="middle" x="337.5" y="-7" font-family="Helvetica,sans-Serif" font-size="10.00">string</text>
</a>
</g>
</g>
<!-- Node3&#45;&gt;Node8 -->
<g id="edge7" class="edge">
<title>Node3&#45;&gt;Node8</title>
<path fill="none" stroke="#63b8ff" d="M418.23,-172.65C385.05,-168.91 345.19,-158.06 323.5,-129 301.39,-99.38 316.9,-53.49 328.33,-28.39"/>
<polygon fill="#63b8ff" stroke="#63b8ff" points="331.52,-29.83 332.71,-19.3 325.22,-26.79 331.52,-29.83"/>
</g>
<!-- Node9 -->
<g id="node9" class="node">
<title>Node9</title>
<g id="a_node9"><a xlink:title=" ">
<polygon fill="#e0e0e0" stroke="#999999" points="859.5,-129 809.5,-129 809.5,-110 859.5,-110 859.5,-129"/>
<text text-anchor="middle" x="834.5" y="-117" font-family="Helvetica,sans-Serif" font-size="10.00">chrono</text>
</a>
</g>
</g>
<!-- Node3&#45;&gt;Node9 -->
<g id="edge8" class="edge">
<title>Node3&#45;&gt;Node9</title>
<path fill="none" stroke="#63b8ff" d="M528.57,-167.73C593.62,-160.51 704.93,-146.89 799.5,-129 799.6,-128.98 799.7,-128.96 799.8,-128.94"/>
<polygon fill="#63b8ff" stroke="#63b8ff" points="800.27,-132.42 809.33,-126.94 798.83,-125.57 800.27,-132.42"/>
</g>
<!-- Node10 -->
<g id="node10" class="node">
<title>Node10</title>
<g id="a_node10"><a xlink:title=" ">
<polygon fill="#e0e0e0" stroke="#999999" points="927.5,-129 877.5,-129 877.5,-110 927.5,-110 927.5,-129"/>
<text text-anchor="middle" x="902.5" y="-117" font-family="Helvetica,sans-Serif" font-size="10.00">stdio.h</text>
</a>
</g>
</g>
<!-- Node3&#45;&gt;Node10 -->
<g id="edge9" class="edge">
<title>Node3&#45;&gt;Node10</title>
<path fill="none" stroke="#63b8ff" d="M528.79,-169.6C603.54,-163.82 741.09,-151.35 867.48,-128.96"/>
<polygon fill="#63b8ff" stroke="#63b8ff" points="868.11,-132.4 877.33,-127.19 866.87,-125.51 868.11,-132.4"/>
</g>
<!-- Node11 -->
<g id="node11" class="node">
<title>Node11</title>
<g id="a_node11"><a xlink:href="byte__ring__buffer_8hpp.html" target="_top" xlink:title="シリアル通信用リングバッファー">
<polygon fill="white" stroke="#666666" points="1029.5,-74 881.5,-74 881.5,-55 1029.5,-55 1029.5,-74"/>
<text text-anchor="middle" x="955.5" y="-62" font-family="Helvetica,sans-Serif" font-size="10.00">serial/byte_ring_buffer.hpp</text>
</a>
</g>
</g>
<!-- Node3&#45;&gt;Node11 -->
<g id="edge10" class="edge">
<title>Node3&#45;&gt;Node11</title>
<path fill="none" stroke="#63b8ff" d="M509.66,-164.95C541.06,-157.06 587.48,-144.29 626.5,-129 644.08,-122.11 646.5,-115.72 664.5,-110 702.18,-98.03 800.61,-84.27 872.59,-75.26"/>
<polygon fill="#63b8ff" stroke="#63b8ff" points="873.08,-78.73 882.57,-74.02 872.21,-71.78 873.08,-78.73"/>
</g>
<!-- Node16 -->
<g id="node16" class="node">
<title>Node16</title>
<g id="a_node16"><a xlink:href="i__serial__io_8hpp.html" target="_top" xlink:title="シリアル通信IO抽象クラス">
<polygon fill="white" stroke="#666666" points="791,-129 674,-129 674,-110 791,-110 791,-129"/>
<text text-anchor="middle" x="732.5" y="-117" font-family="Helvetica,sans-Serif" font-size="10.00">serial/i_serial_io.hpp</text>
</a>
</g>
</g>
<!-- Node3&#45;&gt;Node16 -->
<g id="edge15" class="edge">
<title>Node3&#45;&gt;Node16</title>
<path fill="none" stroke="#63b8ff" d="M515.11,-164.98C560.1,-155.78 631.89,-141.09 680.55,-131.13"/>
<polygon fill="#63b8ff" stroke="#63b8ff" points="681.47,-134.52 690.56,-129.08 680.06,-127.66 681.47,-134.52"/>
</g>
<!-- Node12 -->
<g id="node12" class="node">
<title>Node12</title>
<g id="a_node12"><a xlink:title=" ">
<polygon fill="#e0e0e0" stroke="#999999" points="848.5,-19 798.5,-19 798.5,0 848.5,0 848.5,-19"/>
<text text-anchor="middle" x="823.5" y="-7" font-family="Helvetica,sans-Serif" font-size="10.00">cstdint</text>
</a>
</g>
</g>
<!-- Node11&#45;&gt;Node12 -->
<g id="edge11" class="edge">
<title>Node11&#45;&gt;Node12</title>
<path fill="none" stroke="#63b8ff" d="M934.29,-54.98C912.77,-46.34 879.22,-32.87 854.67,-23.02"/>
<polygon fill="#63b8ff" stroke="#63b8ff" points="855.68,-19.65 845.09,-19.17 853.07,-26.14 855.68,-19.65"/>
</g>
<!-- Node13 -->
<g id="node13" class="node">
<title>Node13</title>
<g id="a_node13"><a xlink:title=" ">
<polygon fill="#e0e0e0" stroke="#999999" points="642,-19 595,-19 595,0 642,0 642,-19"/>
<text text-anchor="middle" x="618.5" y="-7" font-family="Helvetica,sans-Serif" font-size="10.00">vector</text>
</a>
</g>
</g>
<!-- Node11&#45;&gt;Node13 -->
<g id="edge12" class="edge">
<title>Node11&#45;&gt;Node13</title>
<path fill="none" stroke="#63b8ff" d="M901.36,-54.98C831.12,-43.94 710.69,-25 652.26,-15.81"/>
<polygon fill="#63b8ff" stroke="#63b8ff" points="652.52,-12.31 642.1,-14.21 651.43,-19.22 652.52,-12.31"/>
</g>
<!-- Node14 -->
<g id="node14" class="node">
<title>Node14</title>
<g id="a_node14"><a xlink:title=" ">
<polygon fill="#e0e0e0" stroke="#999999" points="1014.5,-19 968.5,-19 968.5,0 1014.5,0 1014.5,-19"/>
<text text-anchor="middle" x="991.5" y="-7" font-family="Helvetica,sans-Serif" font-size="10.00">cstdio</text>
</a>
</g>
</g>
<!-- Node11&#45;&gt;Node14 -->
<g id="edge13" class="edge">
<title>Node11&#45;&gt;Node14</title>
<path fill="none" stroke="#63b8ff" d="M961.44,-54.75C966.48,-47.34 973.84,-36.5 980.01,-27.41"/>
<polygon fill="#63b8ff" stroke="#63b8ff" points="982.94,-29.33 985.67,-19.09 977.15,-25.39 982.94,-29.33"/>
</g>
<!-- Node15 -->
<g id="node15" class="node">
<title>Node15</title>
<g id="a_node15"><a xlink:title=" ">
<polygon fill="#e0e0e0" stroke="#999999" points="1154,-19 1105,-19 1105,0 1154,0 1154,-19"/>
<text text-anchor="middle" x="1129.5" y="-7" font-family="Helvetica,sans-Serif" font-size="10.00">cstdlib</text>
</a>
</g>
</g>
<!-- Node11&#45;&gt;Node15 -->
<g id="edge14" class="edge">
<title>Node11&#45;&gt;Node15</title>
<path fill="none" stroke="#63b8ff" d="M983.46,-54.98C1013.93,-45.7 1062.69,-30.85 1095.39,-20.89"/>
<polygon fill="#63b8ff" stroke="#63b8ff" points="1096.44,-24.23 1104.99,-17.97 1094.4,-17.53 1096.44,-24.23"/>
</g>
<!-- Node16&#45;&gt;Node11 -->
<g id="edge16" class="edge">
<title>Node16&#45;&gt;Node11</title>
<path fill="none" stroke="#63b8ff" d="M768.33,-109.98C806.66,-100.87 867.58,-86.4 909.45,-76.45"/>
<polygon fill="#63b8ff" stroke="#63b8ff" points="910.47,-79.8 919.39,-74.08 908.85,-72.99 910.47,-79.8"/>
</g>
<!-- Node17&#45;&gt;Node8 -->
<g id="edge18" class="edge">
<title>Node17&#45;&gt;Node8</title>
<path fill="none" stroke="#63b8ff" d="M1081.93,-171.45C929.5,-167.07 607.02,-154.97 498.5,-129 437.89,-114.49 414.95,-116.64 369.5,-74 356.3,-61.62 347.72,-42.59 342.8,-28.59"/>
<polygon fill="#63b8ff" stroke="#63b8ff" points="346.13,-27.5 339.74,-19.06 339.47,-29.65 346.13,-27.5"/>
</g>
<!-- Node18 -->
<g id="node18" class="node">
<title>Node18</title>
<g id="a_node18"><a xlink:title=" ">
<polygon fill="#e0e0e0" stroke="#999999" points="1039,-129 946,-129 946,-110 1039,-110 1039,-129"/>
<text text-anchor="middle" x="992.5" y="-117" font-family="Helvetica,sans-Serif" font-size="10.00">unordered_map</text>
</a>
</g>
</g>
<!-- Node17&#45;&gt;Node18 -->
<g id="edge19" class="edge">
<title>Node17&#45;&gt;Node18</title>
<path fill="none" stroke="#63b8ff" d="M1136.03,-164.98C1107.32,-156.09 1062.08,-142.07 1030.08,-132.15"/>
<polygon fill="#63b8ff" stroke="#63b8ff" points="1030.78,-128.7 1020.19,-129.08 1028.7,-135.39 1030.78,-128.7"/>
</g>
<!-- Node19 -->
<g id="node19" class="node">
<title>Node19</title>
<g id="a_node19"><a xlink:title=" ">
<polygon fill="#e0e0e0" stroke="#999999" points="1099.5,-74 1047.5,-74 1047.5,-55 1099.5,-55 1099.5,-74"/>
<text text-anchor="middle" x="1073.5" y="-62" font-family="Helvetica,sans-Serif" font-size="10.00">cassert</text>
</a>
</g>
</g>
<!-- Node17&#45;&gt;Node19 -->
<g id="edge20" class="edge">
<title>Node17&#45;&gt;Node19</title>
<path fill="none" stroke="#63b8ff" d="M1137.44,-164.87C1120.36,-157.87 1098.96,-146.29 1086.5,-129 1077.15,-116.02 1074.17,-97.87 1073.38,-84.3"/>
<polygon fill="#63b8ff" stroke="#63b8ff" points="1076.87,-84.1 1073.13,-74.18 1069.88,-84.27 1076.87,-84.1"/>
</g>
<!-- Node20 -->
<g id="node20" class="node">
<title>Node20</title>
<g id="a_node20"><a xlink:title=" ">
<polygon fill="#e0e0e0" stroke="#999999" points="1231.5,-129 1173.5,-129 1173.5,-110 1231.5,-110 1231.5,-129"/>
<text text-anchor="middle" x="1202.5" y="-117" font-family="Helvetica,sans-Serif" font-size="10.00">memory</text>
</a>
</g>
</g>
<!-- Node17&#45;&gt;Node20 -->
<g id="edge21" class="edge">
<title>Node17&#45;&gt;Node20</title>
<path fill="none" stroke="#63b8ff" d="M1169.94,-164.75C1175.39,-157.34 1183.36,-146.5 1190.06,-137.41"/>
<polygon fill="#63b8ff" stroke="#63b8ff" points="1193.07,-139.22 1196.18,-129.09 1187.43,-135.07 1193.07,-139.22"/>
</g>
<!-- Node17&#45;&gt;Node21 -->
<g id="edge22" class="edge">
<title>Node17&#45;&gt;Node21</title>
<path fill="none" stroke="#63b8ff" d="M1224.89,-164.96C1275.6,-157.33 1349.26,-144.91 1412.5,-129 1412.6,-128.97 1412.7,-128.95 1412.8,-128.92"/>
<polygon fill="#63b8ff" stroke="#63b8ff" points="1413.74,-132.3 1422.37,-126.16 1411.8,-125.57 1413.74,-132.3"/>
</g>
<!-- Node22 -->
<g id="node22" class="node">
<title>Node22</title>
<g id="a_node22"><a xlink:title=" ">
<polygon fill="#e0e0e0" stroke="#999999" points="1315,-129 1250,-129 1250,-110 1315,-110 1315,-129"/>
<text text-anchor="middle" x="1282.5" y="-117" font-family="Helvetica,sans-Serif" font-size="10.00">functional</text>
</a>
</g>
</g>
<!-- Node17&#45;&gt;Node22 -->
<g id="edge23" class="edge">
<title>Node17&#45;&gt;Node22</title>
<path fill="none" stroke="#63b8ff" d="M1182.62,-164.98C1201.85,-156.42 1231.73,-143.11 1253.81,-133.28"/>
<polygon fill="#63b8ff" stroke="#63b8ff" points="1255.32,-136.44 1263.03,-129.17 1252.47,-130.04 1255.32,-136.44"/>
</g>
<!-- Node23 -->
<g id="node23" class="node">
<title>Node23</title>
<g id="a_node23"><a xlink:href="cobs_8hpp.html" target="_top" xlink:title="COBS変換ライブラリ">
<polygon fill="white" stroke="#666666" points="1155.5,-129 1095.5,-129 1095.5,-110 1155.5,-110 1155.5,-129"/>
<text text-anchor="middle" x="1125.5" y="-117" font-family="Helvetica,sans-Serif" font-size="10.00">cobs.hpp</text>
</a>
</g>
</g>
<!-- Node17&#45;&gt;Node23 -->
<g id="edge24" class="edge">
<title>Node17&#45;&gt;Node23</title>
<path fill="none" stroke="#63b8ff" d="M1157.23,-164.75C1151.91,-157.34 1144.14,-146.5 1137.62,-137.41"/>
<polygon fill="#63b8ff" stroke="#63b8ff" points="1140.33,-135.18 1131.66,-129.09 1134.64,-139.26 1140.33,-135.18"/>
</g>
<!-- Node24 -->
<g id="node24" class="node">
<title>Node24</title>
<g id="a_node24"><a xlink:href="data__serializer_8hpp.html" target="_top" xlink:title="データとバイト列の変換ライブラリ">
<polygon fill="white" stroke="#666666" points="617.5,-129 507.5,-129 507.5,-110 617.5,-110 617.5,-129"/>
<text text-anchor="middle" x="562.5" y="-117" font-family="Helvetica,sans-Serif" font-size="10.00">data_serializer.hpp</text>
</a>
</g>
</g>
<!-- Node17&#45;&gt;Node24 -->
<g id="edge29" class="edge">
<title>Node17&#45;&gt;Node24</title>
<path fill="none" stroke="#63b8ff" d="M1081.82,-166.3C961.22,-155.66 737.91,-135.97 627.62,-126.24"/>
<polygon fill="#63b8ff" stroke="#63b8ff" points="627.89,-122.75 617.63,-125.36 627.28,-129.73 627.89,-122.75"/>
</g>
<!-- Node32 -->
<g id="node32" class="node">
<title>Node32</title>
<g id="a_node32"><a xlink:href="sender_8hpp.html" target="_top" xlink:title="シリアル通信で送るデータを登録">
<polygon fill="white" stroke="#666666" points="1404,-129 1333,-129 1333,-110 1404,-110 1404,-129"/>
<text text-anchor="middle" x="1368.5" y="-117" font-family="Helvetica,sans-Serif" font-size="10.00">sender.hpp</text>
</a>
</g>
</g>
<!-- Node17&#45;&gt;Node32 -->
<g id="edge44" class="edge">
<title>Node17&#45;&gt;Node32</title>
<path fill="none" stroke="#63b8ff" d="M1191.32,-164.98C1225.17,-155.71 1282.48,-140.85 1322.8,-130.89"/>
<polygon fill="#63b8ff" stroke="#63b8ff" points="1323.79,-134.26 1332.67,-128.47 1322.12,-127.46 1323.79,-134.26"/>
</g>
<!-- Node23&#45;&gt;Node11 -->
<g id="edge25" class="edge">
<title>Node23&#45;&gt;Node11</title>
<path fill="none" stroke="#63b8ff" d="M1098.19,-109.98C1069.65,-101.09 1024.67,-87.07 992.86,-77.15"/>
<polygon fill="#63b8ff" stroke="#63b8ff" points="993.62,-73.72 983.03,-74.08 991.53,-80.4 993.62,-73.72"/>
</g>
<!-- Node23&#45;&gt;Node14 -->
<g id="edge26" class="edge">
<title>Node23&#45;&gt;Node14</title>
<path fill="none" stroke="#63b8ff" d="M1125.56,-109.96C1125.2,-96.57 1122.57,-70.59 1108.5,-55 1086.9,-31.08 1051.06,-19.94 1024.72,-14.8"/>
<polygon fill="#63b8ff" stroke="#63b8ff" points="1025.25,-11.34 1014.8,-13.05 1024.04,-18.23 1025.25,-11.34"/>
</g>
<!-- Node23&#45;&gt;Node15 -->
<g id="edge28" class="edge">
<title>Node23&#45;&gt;Node15</title>
<path fill="none" stroke="#63b8ff" d="M1129.61,-109.88C1133.56,-101.09 1139.24,-86.94 1141.5,-74 1144.15,-58.78 1140.48,-41.57 1136.52,-28.91"/>
<polygon fill="#63b8ff" stroke="#63b8ff" points="1139.71,-27.41 1133.12,-19.11 1133.1,-29.71 1139.71,-27.41"/>
</g>
<!-- Node23&#45;&gt;Node19 -->
<g id="edge27" class="edge">
<title>Node23&#45;&gt;Node19</title>
<path fill="none" stroke="#63b8ff" d="M1116.91,-109.75C1109.34,-102.03 1098.12,-90.6 1088.99,-81.28"/>
<polygon fill="#63b8ff" stroke="#63b8ff" points="1091.43,-78.78 1081.93,-74.09 1086.43,-83.68 1091.43,-78.78"/>
</g>
<!-- Node24&#45;&gt;Node8 -->
<g id="edge30" class="edge">
<title>Node24&#45;&gt;Node8</title>
<path fill="none" stroke="#63b8ff" d="M507.13,-112.06C472.74,-106.14 428.73,-94.94 394.5,-74 375.43,-62.33 359.03,-42.35 348.78,-27.91"/>
<polygon fill="#63b8ff" stroke="#63b8ff" points="351.49,-25.67 342.97,-19.37 345.7,-29.6 351.49,-25.67"/>
</g>
<!-- Node24&#45;&gt;Node11 -->
<g id="edge37" class="edge">
<title>Node24&#45;&gt;Node11</title>
<path fill="none" stroke="#63b8ff" d="M617.56,-111.07C686.7,-101.75 805.55,-85.72 882.29,-75.37"/>
<polygon fill="#63b8ff" stroke="#63b8ff" points="882.92,-78.82 892.37,-74.01 881.99,-71.88 882.92,-78.82"/>
</g>
<!-- Node24&#45;&gt;Node12 -->
<g id="edge32" class="edge">
<title>Node24&#45;&gt;Node12</title>
<path fill="none" stroke="#63b8ff" d="M572.8,-109.82C589.39,-96.25 623.52,-70.02 656.5,-55 699.81,-35.28 753.55,-22.92 788.18,-16.36"/>
<polygon fill="#63b8ff" stroke="#63b8ff" points="789.07,-19.76 798.28,-14.51 787.81,-12.87 789.07,-19.76"/>
</g>
<!-- Node24&#45;&gt;Node13 -->
<g id="edge31" class="edge">
<title>Node24&#45;&gt;Node13</title>
<path fill="none" stroke="#63b8ff" d="M567.08,-109.66C576.28,-91.93 597.12,-51.73 609.26,-28.32"/>
<polygon fill="#63b8ff" stroke="#63b8ff" points="612.51,-29.65 614.01,-19.16 606.3,-26.42 612.51,-29.65"/>
</g>
<!-- Node25 -->
<g id="node25" class="node">
<title>Node25</title>
<g id="a_node25"><a xlink:title=" ">
<polygon fill="#e0e0e0" stroke="#999999" points="577,-19 508,-19 508,0 577,0 577,-19"/>
<text text-anchor="middle" x="542.5" y="-7" font-family="Helvetica,sans-Serif" font-size="10.00">type_traits</text>
</a>
</g>
</g>
<!-- Node24&#45;&gt;Node25 -->
<g id="edge33" class="edge">
<title>Node24&#45;&gt;Node25</title>
<path fill="none" stroke="#63b8ff" d="M560.86,-109.66C557.62,-92.17 550.33,-52.8 545.98,-29.27"/>
<polygon fill="#63b8ff" stroke="#63b8ff" points="549.37,-28.35 544.1,-19.16 542.48,-29.63 549.37,-28.35"/>
</g>
<!-- Node26 -->
<g id="node26" class="node">
<title>Node26</title>
<g id="a_node26"><a xlink:title=" ">
<polygon fill="#e0e0e0" stroke="#999999" points="715.5,-74 665.5,-74 665.5,-55 715.5,-55 715.5,-74"/>
<text text-anchor="middle" x="690.5" y="-62" font-family="Helvetica,sans-Serif" font-size="10.00">cstring</text>
</a>
</g>
</g>
<!-- Node24&#45;&gt;Node26 -->
<g id="edge34" class="edge">
<title>Node24&#45;&gt;Node26</title>
<path fill="none" stroke="#63b8ff" d="M583.07,-109.98C603.93,-101.34 636.47,-87.87 660.27,-78.02"/>
<polygon fill="#63b8ff" stroke="#63b8ff" points="661.66,-81.23 669.56,-74.17 658.98,-74.76 661.66,-81.23"/>
</g>
<!-- Node27 -->
<g id="node27" class="node">
<title>Node27</title>
<g id="a_node27"><a xlink:title=" ">
<polygon fill="#e0e0e0" stroke="#999999" points="797.5,-74 733.5,-74 733.5,-55 797.5,-55 797.5,-74"/>
<text text-anchor="middle" x="765.5" y="-62" font-family="Helvetica,sans-Serif" font-size="10.00">algorithm</text>
</a>
</g>
</g>
<!-- Node24&#45;&gt;Node27 -->
<g id="edge35" class="edge">
<title>Node24&#45;&gt;Node27</title>
<path fill="none" stroke="#63b8ff" d="M595.12,-109.98C629.99,-100.88 685.42,-86.41 723.53,-76.46"/>
<polygon fill="#63b8ff" stroke="#63b8ff" points="724.51,-79.82 733.3,-73.91 722.74,-73.05 724.51,-79.82"/>
</g>
<!-- Node28 -->
<g id="node28" class="node">
<title>Node28</title>
<g id="a_node28"><a xlink:title=" ">
<polygon fill="#e0e0e0" stroke="#999999" points="863.5,-74 815.5,-74 815.5,-55 863.5,-55 863.5,-74"/>
<text text-anchor="middle" x="839.5" y="-62" font-family="Helvetica,sans-Serif" font-size="10.00">mutex</text>
</a>
</g>
</g>
<!-- Node24&#45;&gt;Node28 -->
<g id="edge36" class="edge">
<title>Node24&#45;&gt;Node28</title>
<path fill="none" stroke="#63b8ff" d="M615.55,-109.95C662.9,-102.07 734.33,-89.55 805.38,-74.12"/>
<polygon fill="#63b8ff" stroke="#63b8ff" points="806.38,-77.48 815.4,-71.92 804.88,-70.64 806.38,-77.48"/>
</g>
<!-- Node29 -->
<g id="node29" class="node">
<title>Node29</title>
<g id="a_node29"><a xlink:href="serialize__type__info_8hpp.html" target="_top" xlink:title="DataSeializerで変換する型に関する情報">
<polygon fill="white" stroke="#666666" points="533.5,-74 403.5,-74 403.5,-55 533.5,-55 533.5,-74"/>
<text text-anchor="middle" x="468.5" y="-62" font-family="Helvetica,sans-Serif" font-size="10.00">serialize_type_info.hpp</text>
</a>
</g>
</g>
<!-- Node24&#45;&gt;Node29 -->
<g id="edge38" class="edge">
<title>Node24&#45;&gt;Node29</title>
<path fill="none" stroke="#63b8ff" d="M547.4,-109.98C532.68,-101.69 510.08,-88.94 492.83,-79.22"/>
<polygon fill="#63b8ff" stroke="#63b8ff" points="494.31,-76.03 483.88,-74.17 490.87,-82.13 494.31,-76.03"/>
</g>
<!-- Node29&#45;&gt;Node8 -->
<g id="edge43" class="edge">
<title>Node29&#45;&gt;Node8</title>
<path fill="none" stroke="#63b8ff" d="M447.45,-54.98C426.09,-46.34 392.8,-32.87 368.44,-23.02"/>
<polygon fill="#63b8ff" stroke="#63b8ff" points="369.51,-19.68 358.93,-19.17 366.89,-26.17 369.51,-19.68"/>
</g>
<!-- Node29&#45;&gt;Node13 -->
<g id="edge41" class="edge">
<title>Node29&#45;&gt;Node13</title>
<path fill="none" stroke="#63b8ff" d="M492.6,-54.98C517.68,-46.12 557.13,-32.18 585.18,-22.27"/>
<polygon fill="#63b8ff" stroke="#63b8ff" points="586.69,-25.45 594.95,-18.82 584.36,-18.85 586.69,-25.45"/>
</g>
<!-- Node29&#45;&gt;Node25 -->
<g id="edge39" class="edge">
<title>Node29&#45;&gt;Node25</title>
<path fill="none" stroke="#63b8ff" d="M480.39,-54.98C491.65,-46.92 508.79,-34.65 522.21,-25.03"/>
<polygon fill="#63b8ff" stroke="#63b8ff" points="524.3,-27.84 530.39,-19.17 520.23,-22.15 524.3,-27.84"/>
</g>
<!-- Node30 -->
<g id="node30" class="node">
<title>Node30</title>
<g id="a_node30"><a xlink:title=" ">
<polygon fill="#e0e0e0" stroke="#999999" points="431,-19 378,-19 378,0 431,0 431,-19"/>
<text text-anchor="middle" x="404.5" y="-7" font-family="Helvetica,sans-Serif" font-size="10.00">stdint.h</text>
</a>
</g>
</g>
<!-- Node29&#45;&gt;Node30 -->
<g id="edge40" class="edge">
<title>Node29&#45;&gt;Node30</title>
<path fill="none" stroke="#63b8ff" d="M458.22,-54.98C448.66,-47.07 434.22,-35.11 422.72,-25.58"/>
<polygon fill="#63b8ff" stroke="#63b8ff" points="424.9,-22.85 414.97,-19.17 420.44,-28.24 424.9,-22.85"/>
</g>
<!-- Node31 -->
<g id="node31" class="node">
<title>Node31</title>
<g id="a_node31"><a xlink:title=" ">
<polygon fill="#e0e0e0" stroke="#999999" points="490,-19 449,-19 449,0 490,0 490,-19"/>
<text text-anchor="middle" x="469.5" y="-7" font-family="Helvetica,sans-Serif" font-size="10.00">tuple</text>
</a>
</g>
</g>
<!-- Node29&#45;&gt;Node31 -->
<g id="edge42" class="edge">
<title>Node29&#45;&gt;Node31</title>
<path fill="none" stroke="#63b8ff" d="M468.67,-54.75C468.8,-47.8 468.98,-37.85 469.15,-29.13"/>
<polygon fill="#63b8ff" stroke="#63b8ff" points="472.65,-29.15 469.34,-19.09 465.65,-29.02 472.65,-29.15"/>
</g>
<!-- Node32&#45;&gt;Node17 -->
<g id="edge45" class="edge">
<title>Node32&#45;&gt;Node17</title>
<path fill="none" stroke="#63b8ff" d="M1340.43,-129.08C1307.17,-138.2 1251.47,-152.64 1211.38,-162.56"/>
<polygon fill="#63b8ff" stroke="#63b8ff" points="1210.43,-159.2 1201.55,-164.98 1212.1,-165.99 1210.43,-159.2"/>
</g>
</g>
</svg>
