<?xml version="1.0" encoding="UTF-8" standalone="no"?>
<!DOCTYPE svg PUBLIC "-//W3C//DTD SVG 1.1//EN"
 "http://www.w3.org/Graphics/SVG/1.1/DTD/svg11.dtd">
<!-- Generated by graphviz version 2.43.0 (0)
 -->
<!-- Title: roblab_mbed_lib/include/serial/mbed_uart_serial_io.hpp Pages: 1 -->
<svg width="282pt" height="214pt"
 viewBox="0.00 0.00 282.00 214.00" xmlns="http://www.w3.org/2000/svg" xmlns:xlink="http://www.w3.org/1999/xlink">
<g id="graph0" class="graph" transform="scale(1 1) rotate(0) translate(4 210)">
<title>roblab_mbed_lib/include/serial/mbed_uart_serial_io.hpp</title>
<!-- Node1 -->
<g id="node1" class="node">
<title>Node1</title>
<g id="a_node1"><a xlink:title=" ">
<polygon fill="#999999" stroke="#666666" points="182.5,-206 46.5,-206 46.5,-165 182.5,-165 182.5,-206"/>
<text text-anchor="start" x="54.5" y="-194" font-family="Helvetica,sans-Serif" font-size="10.00">roblab_mbed_lib/include</text>
<text text-anchor="start" x="54.5" y="-183" font-family="Helvetica,sans-Serif" font-size="10.00">/serial/mbed_uart_serial</text>
<text text-anchor="middle" x="114.5" y="-172" font-family="Helvetica,sans-Serif" font-size="10.00">_io.hpp</text>
</a>
</g>
</g>
<!-- Node2 -->
<g id="node2" class="node">
<title>Node2</title>
<g id="a_node2"><a xlink:title=" ">
<polygon fill="#e0e0e0" stroke="#999999" points="53,-129 0,-129 0,-110 53,-110 53,-129"/>
<text text-anchor="middle" x="26.5" y="-117" font-family="Helvetica,sans-Serif" font-size="10.00">mbed.h</text>
</a>
</g>
</g>
<!-- Node1&#45;&gt;Node2 -->
<g id="edge1" class="edge">
<title>Node1&#45;&gt;Node2</title>
<path fill="none" stroke="#63b8ff" d="M87.62,-164.95C74.44,-155.37 58.84,-144.02 46.69,-135.19"/>
<polygon fill="#63b8ff" stroke="#63b8ff" points="48.69,-132.31 38.55,-129.26 44.57,-137.97 48.69,-132.31"/>
</g>
<!-- Node3 -->
<g id="node3" class="node">
<title>Node3</title>
<g id="a_node3"><a xlink:href="i__serial__io_8hpp.html" target="_top" xlink:title=" ">
<polygon fill="white" stroke="#666666" points="158,-129 71,-129 71,-110 158,-110 158,-129"/>
<text text-anchor="middle" x="114.5" y="-117" font-family="Helvetica,sans-Serif" font-size="10.00">i_serial_io.hpp</text>
</a>
</g>
</g>
<!-- Node1&#45;&gt;Node3 -->
<g id="edge2" class="edge">
<title>Node1&#45;&gt;Node3</title>
<path fill="none" stroke="#63b8ff" d="M114.5,-164.95C114.5,-156.85 114.5,-147.5 114.5,-139.47"/>
<polygon fill="#63b8ff" stroke="#63b8ff" points="118,-139.26 114.5,-129.26 111,-139.26 118,-139.26"/>
</g>
<!-- Node4 -->
<g id="node4" class="node">
<title>Node4</title>
<g id="a_node4"><a xlink:href="byte__ring__buffer_8hpp.html" target="_top" xlink:title=" ">
<polygon fill="white" stroke="#666666" points="209.5,-74 91.5,-74 91.5,-55 209.5,-55 209.5,-74"/>
<text text-anchor="middle" x="150.5" y="-62" font-family="Helvetica,sans-Serif" font-size="10.00">byte_ring_buffer.hpp</text>
</a>
</g>
</g>
<!-- Node1&#45;&gt;Node4 -->
<g id="edge8" class="edge">
<title>Node1&#45;&gt;Node4</title>
<path fill="none" stroke="#63b8ff" d="M140.39,-164.98C150.92,-155.43 161.9,-142.97 167.5,-129 173.52,-113.97 167.65,-96.1 161.22,-83.16"/>
<polygon fill="#63b8ff" stroke="#63b8ff" points="164.26,-81.42 156.38,-74.34 158.12,-84.79 164.26,-81.42"/>
</g>
<!-- Node3&#45;&gt;Node4 -->
<g id="edge3" class="edge">
<title>Node3&#45;&gt;Node4</title>
<path fill="none" stroke="#63b8ff" d="M120.44,-109.75C125.48,-102.34 132.84,-91.5 139.01,-82.41"/>
<polygon fill="#63b8ff" stroke="#63b8ff" points="141.94,-84.33 144.67,-74.09 136.15,-80.39 141.94,-84.33"/>
</g>
<!-- Node5 -->
<g id="node5" class="node">
<title>Node5</title>
<g id="a_node5"><a xlink:title=" ">
<polygon fill="#e0e0e0" stroke="#999999" points="76.5,-19 26.5,-19 26.5,0 76.5,0 76.5,-19"/>
<text text-anchor="middle" x="51.5" y="-7" font-family="Helvetica,sans-Serif" font-size="10.00">cstdint</text>
</a>
</g>
</g>
<!-- Node4&#45;&gt;Node5 -->
<g id="edge4" class="edge">
<title>Node4&#45;&gt;Node5</title>
<path fill="none" stroke="#63b8ff" d="M134.59,-54.98C118.95,-46.61 94.84,-33.7 76.62,-23.95"/>
<polygon fill="#63b8ff" stroke="#63b8ff" points="78.16,-20.8 67.7,-19.17 74.86,-26.98 78.16,-20.8"/>
</g>
<!-- Node6 -->
<g id="node6" class="node">
<title>Node6</title>
<g id="a_node6"><a xlink:title=" ">
<polygon fill="#e0e0e0" stroke="#999999" points="142,-19 95,-19 95,0 142,0 142,-19"/>
<text text-anchor="middle" x="118.5" y="-7" font-family="Helvetica,sans-Serif" font-size="10.00">vector</text>
</a>
</g>
</g>
<!-- Node4&#45;&gt;Node6 -->
<g id="edge5" class="edge">
<title>Node4&#45;&gt;Node6</title>
<path fill="none" stroke="#63b8ff" d="M145.22,-54.75C140.79,-47.42 134.34,-36.73 128.88,-27.7"/>
<polygon fill="#63b8ff" stroke="#63b8ff" points="131.85,-25.84 123.69,-19.09 125.86,-29.46 131.85,-25.84"/>
</g>
<!-- Node7 -->
<g id="node7" class="node">
<title>Node7</title>
<g id="a_node7"><a xlink:title=" ">
<polygon fill="#e0e0e0" stroke="#999999" points="206.5,-19 160.5,-19 160.5,0 206.5,0 206.5,-19"/>
<text text-anchor="middle" x="183.5" y="-7" font-family="Helvetica,sans-Serif" font-size="10.00">cstdio</text>
</a>
</g>
</g>
<!-- Node4&#45;&gt;Node7 -->
<g id="edge6" class="edge">
<title>Node4&#45;&gt;Node7</title>
<path fill="none" stroke="#63b8ff" d="M155.95,-54.75C160.51,-47.42 167.17,-36.73 172.79,-27.7"/>
<polygon fill="#63b8ff" stroke="#63b8ff" points="175.84,-29.43 178.15,-19.09 169.9,-25.73 175.84,-29.43"/>
</g>
<!-- Node8 -->
<g id="node8" class="node">
<title>Node8</title>
<g id="a_node8"><a xlink:title=" ">
<polygon fill="#e0e0e0" stroke="#999999" points="274,-19 225,-19 225,0 274,0 274,-19"/>
<text text-anchor="middle" x="249.5" y="-7" font-family="Helvetica,sans-Serif" font-size="10.00">cstdlib</text>
</a>
</g>
</g>
<!-- Node4&#45;&gt;Node8 -->
<g id="edge7" class="edge">
<title>Node4&#45;&gt;Node8</title>
<path fill="none" stroke="#63b8ff" d="M166.41,-54.98C182.05,-46.61 206.16,-33.7 224.38,-23.95"/>
<polygon fill="#63b8ff" stroke="#63b8ff" points="226.14,-26.98 233.3,-19.17 222.84,-20.8 226.14,-26.98"/>
</g>
</g>
</svg>
