<?xml version="1.0" encoding="UTF-8" standalone="no"?>
<!DOCTYPE svg PUBLIC "-//W3C//DTD SVG 1.1//EN"
 "http://www.w3.org/Graphics/SVG/1.1/DTD/svg11.dtd">
<!-- Generated by graphviz version 2.43.0 (0)
 -->
<!-- Title: alps_core/lib_internal/alps_common_lib/include/alps_cmn/tool/motor_friction_analyzer.hpp Pages: 1 -->
<svg width="1124pt" height="313pt"
 viewBox="0.00 0.00 1124.00 313.00" xmlns="http://www.w3.org/2000/svg" xmlns:xlink="http://www.w3.org/1999/xlink">
<g id="graph0" class="graph" transform="scale(1 1) rotate(0) translate(4 309)">
<title>alps_core/lib_internal/alps_common_lib/include/alps_cmn/tool/motor_friction_analyzer.hpp</title>
<!-- Node1 -->
<g id="Node000001" class="node">
<title>Node1</title>
<g id="a_Node000001"><a xlink:title="モーター軸の摩擦力を計測するクラス">
<polygon fill="#999999" stroke="#666666" points="710.5,-305 550.5,-305 550.5,-253 710.5,-253 710.5,-305"/>
<text text-anchor="start" x="558.5" y="-293" font-family="Helvetica,sans-Serif" font-size="10.00">alps_core/lib_internal</text>
<text text-anchor="start" x="558.5" y="-282" font-family="Helvetica,sans-Serif" font-size="10.00">/alps_common_lib/include</text>
<text text-anchor="start" x="558.5" y="-271" font-family="Helvetica,sans-Serif" font-size="10.00">/alps_cmn/tool/motor_friction</text>
<text text-anchor="middle" x="630.5" y="-260" font-family="Helvetica,sans-Serif" font-size="10.00">_analyzer.hpp</text>
</a>
</g>
</g>
<!-- Node2 -->
<g id="Node000002" class="node">
<title>Node2</title>
<g id="a_Node000002"><a xlink:title=" ">
<polygon fill="#e0e0e0" stroke="#999999" points="47,-145.5 0,-145.5 0,-126.5 47,-126.5 47,-145.5"/>
<text text-anchor="middle" x="23.5" y="-133.5" font-family="Helvetica,sans-Serif" font-size="10.00">cmath</text>
</a>
</g>
</g>
<!-- Node1&#45;&gt;Node2 -->
<g id="edge1_Node000001_Node000002" class="edge">
<title>Node1&#45;&gt;Node2</title>
<g id="a_edge1_Node000001_Node000002"><a xlink:title=" ">
<path fill="none" stroke="#63b8ff" d="M550.37,-278.53C452.62,-276.78 283.71,-265.99 148.5,-217 106.61,-201.82 64.28,-170.65 41.22,-152.02"/>
<polygon fill="#63b8ff" stroke="#63b8ff" points="43.31,-149.2 33.36,-145.55 38.86,-154.61 43.31,-149.2"/>
</a>
</g>
</g>
<!-- Node3 -->
<g id="Node000003" class="node">
<title>Node3</title>
<g id="a_Node000003"><a xlink:href="i__motor_8hpp.html" target="_top" xlink:title=" ">
<polygon fill="white" stroke="#666666" points="178,-151 65,-151 65,-121 178,-121 178,-151"/>
<text text-anchor="start" x="73" y="-139" font-family="Helvetica,sans-Serif" font-size="10.00">alps_cmn/actuator/i</text>
<text text-anchor="middle" x="121.5" y="-128" font-family="Helvetica,sans-Serif" font-size="10.00">_motor.hpp</text>
</a>
</g>
</g>
<!-- Node1&#45;&gt;Node3 -->
<g id="edge2_Node000001_Node000003" class="edge">
<title>Node1&#45;&gt;Node3</title>
<g id="a_edge2_Node000001_Node000003"><a xlink:title=" ">
<path fill="none" stroke="#63b8ff" d="M550.2,-274.19C439.07,-267.72 245.21,-251.74 184.5,-217 161.4,-203.78 143.68,-178.44 133,-159.8"/>
<polygon fill="#63b8ff" stroke="#63b8ff" points="136.07,-158.12 128.2,-151.03 129.93,-161.48 136.07,-158.12"/>
</a>
</g>
</g>
<!-- Node4 -->
<g id="Node000004" class="node">
<title>Node4</title>
<g id="a_Node000004"><a xlink:href="friction__compensated__motor_8hpp.html" target="_top" xlink:title="モーターに対して摩擦補償を行うデコレーター">
<polygon fill="white" stroke="#666666" points="337,-217 194,-217 194,-187 337,-187 337,-217"/>
<text text-anchor="start" x="202" y="-205" font-family="Helvetica,sans-Serif" font-size="10.00">alps_cmn/control/friction</text>
<text text-anchor="middle" x="265.5" y="-194" font-family="Helvetica,sans-Serif" font-size="10.00">_compensated_motor.hpp</text>
</a>
</g>
</g>
<!-- Node1&#45;&gt;Node4 -->
<g id="edge3_Node000001_Node000004" class="edge">
<title>Node1&#45;&gt;Node4</title>
<g id="a_edge3_Node000001_Node000004"><a xlink:title=" ">
<path fill="none" stroke="#63b8ff" d="M550.4,-261.54C488.97,-248.92 404.67,-231.6 343.72,-219.07"/>
<polygon fill="#63b8ff" stroke="#63b8ff" points="344.26,-215.61 333.76,-217.03 342.85,-222.47 344.26,-215.61"/>
</a>
</g>
</g>
<!-- Node8 -->
<g id="Node000008" class="node">
<title>Node8</title>
<g id="a_Node000008"><a xlink:href="i__rotary__sensor_8hpp.html" target="_top" xlink:title=" ">
<polygon fill="white" stroke="#666666" points="335,-151 196,-151 196,-121 335,-121 335,-151"/>
<text text-anchor="start" x="204" y="-139" font-family="Helvetica,sans-Serif" font-size="10.00">alps_cmn/sensor/i_rotary</text>
<text text-anchor="middle" x="265.5" y="-128" font-family="Helvetica,sans-Serif" font-size="10.00">_sensor.hpp</text>
</a>
</g>
</g>
<!-- Node1&#45;&gt;Node8 -->
<g id="edge20_Node000001_Node000008" class="edge">
<title>Node1&#45;&gt;Node8</title>
<g id="a_edge20_Node000001_Node000008"><a xlink:title=" ">
<path fill="none" stroke="#63b8ff" d="M565.67,-252.95C492.6,-224.73 375.65,-179.55 311.43,-154.74"/>
<polygon fill="#63b8ff" stroke="#63b8ff" points="312.56,-151.43 301.97,-151.09 310.04,-157.96 312.56,-151.43"/>
</a>
</g>
</g>
<!-- Node9 -->
<g id="Node000009" class="node">
<title>Node9</title>
<g id="a_Node000009"><a xlink:href="low__pass__differentiator_8hpp.html" target="_top" xlink:title=" ">
<polygon fill="white" stroke="#666666" points="620.5,-217 486.5,-217 486.5,-187 620.5,-187 620.5,-217"/>
<text text-anchor="start" x="494.5" y="-205" font-family="Helvetica,sans-Serif" font-size="10.00">alps_cmn/control/low</text>
<text text-anchor="middle" x="553.5" y="-194" font-family="Helvetica,sans-Serif" font-size="10.00">_pass_differentiator.hpp</text>
</a>
</g>
</g>
<!-- Node1&#45;&gt;Node9 -->
<g id="edge11_Node000001_Node000009" class="edge">
<title>Node1&#45;&gt;Node9</title>
<g id="a_edge11_Node000001_Node000009"><a xlink:title=" ">
<path fill="none" stroke="#63b8ff" d="M604.43,-252.61C595.02,-243.45 584.51,-233.2 575.48,-224.41"/>
<polygon fill="#63b8ff" stroke="#63b8ff" points="577.92,-221.9 568.31,-217.43 573.03,-226.91 577.92,-221.9"/>
</a>
</g>
</g>
<!-- Node11 -->
<g id="Node000011" class="node">
<title>Node11</title>
<g id="a_Node000011"><a xlink:href="logging__macros_8hpp.html" target="_top" xlink:title=" ">
<polygon fill="white" stroke="#666666" points="966.5,-217 846.5,-217 846.5,-187 966.5,-187 966.5,-217"/>
<text text-anchor="start" x="854.5" y="-205" font-family="Helvetica,sans-Serif" font-size="10.00">alps_cmn/log/logging</text>
<text text-anchor="middle" x="906.5" y="-194" font-family="Helvetica,sans-Serif" font-size="10.00">_macros.hpp</text>
</a>
</g>
</g>
<!-- Node1&#45;&gt;Node11 -->
<g id="edge16_Node000001_Node000011" class="edge">
<title>Node1&#45;&gt;Node11</title>
<g id="a_edge16_Node000001_Node000011"><a xlink:title=" ">
<path fill="none" stroke="#63b8ff" d="M710.7,-256.21C753.55,-244.56 805.46,-230.46 845.07,-219.69"/>
<polygon fill="#63b8ff" stroke="#63b8ff" points="846.12,-223.03 854.86,-217.03 844.29,-216.28 846.12,-223.03"/>
</a>
</g>
</g>
<!-- Node13 -->
<g id="Node000013" class="node">
<title>Node13</title>
<g id="a_Node000013"><a xlink:title=" ">
<polygon fill="#e0e0e0" stroke="#999999" points="1050.5,-79.5 966.5,-79.5 966.5,-60.5 1050.5,-60.5 1050.5,-79.5"/>
<text text-anchor="middle" x="1008.5" y="-67.5" font-family="Helvetica,sans-Serif" font-size="10.00">etl/delegate.h</text>
</a>
</g>
</g>
<!-- Node1&#45;&gt;Node13 -->
<g id="edge26_Node000001_Node000013" class="edge">
<title>Node1&#45;&gt;Node13</title>
<g id="a_edge26_Node000001_Node000013"><a xlink:title=" ">
<path fill="none" stroke="#63b8ff" d="M710.87,-273.89C800.69,-267.61 938.42,-252.37 975.5,-217 1010.67,-183.45 1012.06,-121 1010.26,-89.78"/>
<polygon fill="#63b8ff" stroke="#63b8ff" points="1013.75,-89.51 1009.51,-79.8 1006.77,-90.03 1013.75,-89.51"/>
</a>
</g>
</g>
<!-- Node15 -->
<g id="Node000015" class="node">
<title>Node15</title>
<g id="a_Node000015"><a xlink:href="sleep_8hpp.html" target="_top" xlink:title="スリープ関数の定義">
<polygon fill="white" stroke="#666666" points="778,-211.5 639,-211.5 639,-192.5 778,-192.5 778,-211.5"/>
<text text-anchor="middle" x="708.5" y="-199.5" font-family="Helvetica,sans-Serif" font-size="10.00">alps_cmn/time/sleep.hpp</text>
</a>
</g>
</g>
<!-- Node1&#45;&gt;Node15 -->
<g id="edge21_Node000001_Node000015" class="edge">
<title>Node1&#45;&gt;Node15</title>
<g id="a_edge21_Node000001_Node000015"><a xlink:title=" ">
<path fill="none" stroke="#63b8ff" d="M656.91,-252.61C668.49,-241.48 681.72,-228.75 691.89,-218.97"/>
<polygon fill="#63b8ff" stroke="#63b8ff" points="694.51,-221.31 699.29,-211.85 689.66,-216.26 694.51,-221.31"/>
</a>
</g>
</g>
<!-- Node17 -->
<g id="Node000017" class="node">
<title>Node17</title>
<g id="a_Node000017"><a xlink:href="timeout__checker_8hpp.html" target="_top" xlink:title="タイムアウトを検知するクラス">
<polygon fill="white" stroke="#666666" points="860.5,-85 730.5,-85 730.5,-55 860.5,-55 860.5,-85"/>
<text text-anchor="start" x="738.5" y="-73" font-family="Helvetica,sans-Serif" font-size="10.00">alps_cmn/time/timeout</text>
<text text-anchor="middle" x="795.5" y="-62" font-family="Helvetica,sans-Serif" font-size="10.00">_checker.hpp</text>
</a>
</g>
</g>
<!-- Node1&#45;&gt;Node17 -->
<g id="edge24_Node000001_Node000017" class="edge">
<title>Node1&#45;&gt;Node17</title>
<g id="a_edge24_Node000001_Node000017"><a xlink:title=" ">
<path fill="none" stroke="#63b8ff" d="M710.53,-265.12C739.04,-256.37 768.52,-241.68 786.5,-217 812.59,-181.2 807.3,-126.4 801.29,-95.12"/>
<polygon fill="#63b8ff" stroke="#63b8ff" points="804.66,-94.17 799.18,-85.1 797.81,-95.61 804.66,-94.17"/>
</a>
</g>
</g>
<!-- Node18 -->
<g id="Node000018" class="node">
<title>Node18</title>
<g id="a_Node000018"><a xlink:title=" ">
<polygon fill="#e0e0e0" stroke="#999999" points="1116,-211.5 1035,-211.5 1035,-192.5 1116,-192.5 1116,-211.5"/>
<text text-anchor="middle" x="1075.5" y="-199.5" font-family="Helvetica,sans-Serif" font-size="10.00">etl/optional.h</text>
</a>
</g>
</g>
<!-- Node1&#45;&gt;Node18 -->
<g id="edge27_Node000001_Node000018" class="edge">
<title>Node1&#45;&gt;Node18</title>
<g id="a_edge27_Node000001_Node000018"><a xlink:title=" ">
<path fill="none" stroke="#63b8ff" d="M710.82,-267.69C789.95,-257 914.09,-238.81 1020.5,-217 1024.96,-216.08 1029.61,-215.04 1034.23,-213.95"/>
<polygon fill="#63b8ff" stroke="#63b8ff" points="1035.32,-217.29 1044.21,-211.51 1033.66,-210.49 1035.32,-217.29"/>
</a>
</g>
</g>
<!-- Node4&#45;&gt;Node2 -->
<g id="edge4_Node000004_Node000002" class="edge">
<title>Node4&#45;&gt;Node2</title>
<g id="a_edge4_Node000004_Node000002"><a xlink:title=" ">
<path fill="none" stroke="#63b8ff" d="M193.65,-187.22C152.67,-178.53 100.63,-166.11 55.5,-151 54.06,-150.52 52.6,-150 51.13,-149.45"/>
<polygon fill="#63b8ff" stroke="#63b8ff" points="52.14,-146.08 41.56,-145.57 49.51,-152.57 52.14,-146.08"/>
</a>
</g>
</g>
<!-- Node4&#45;&gt;Node3 -->
<g id="edge5_Node000004_Node000003" class="edge">
<title>Node4&#45;&gt;Node3</title>
<g id="a_edge5_Node000004_Node000003"><a xlink:title=" ">
<path fill="none" stroke="#63b8ff" d="M233.9,-186.95C212.89,-177.62 185.1,-165.27 162.41,-155.18"/>
<polygon fill="#63b8ff" stroke="#63b8ff" points="163.59,-151.88 153.03,-151.01 160.74,-158.27 163.59,-151.88"/>
</a>
</g>
</g>
<!-- Node5 -->
<g id="Node000005" class="node">
<title>Node5</title>
<g id="a_Node000005"><a xlink:href="differentiator_8hpp.html" target="_top" xlink:title="微分器ライブラリ">
<polygon fill="white" stroke="#666666" points="540,-145.5 353,-145.5 353,-126.5 540,-126.5 540,-145.5"/>
<text text-anchor="middle" x="446.5" y="-133.5" font-family="Helvetica,sans-Serif" font-size="10.00">alps_cmn/control/differentiator.hpp</text>
</a>
</g>
</g>
<!-- Node4&#45;&gt;Node5 -->
<g id="edge6_Node000004_Node000005" class="edge">
<title>Node4&#45;&gt;Node5</title>
<g id="a_edge6_Node000004_Node000005"><a xlink:title=" ">
<path fill="none" stroke="#63b8ff" d="M305.22,-186.95C337.38,-175.58 382.2,-159.74 412.67,-148.96"/>
<polygon fill="#63b8ff" stroke="#63b8ff" points="414.15,-152.15 422.41,-145.52 411.82,-145.55 414.15,-152.15"/>
</a>
</g>
</g>
<!-- Node4&#45;&gt;Node8 -->
<g id="edge10_Node000004_Node000008" class="edge">
<title>Node4&#45;&gt;Node8</title>
<g id="a_edge10_Node000004_Node000008"><a xlink:title=" ">
<path fill="none" stroke="#63b8ff" d="M265.5,-186.8C265.5,-179.34 265.5,-169.99 265.5,-161.41"/>
<polygon fill="#63b8ff" stroke="#63b8ff" points="269,-161.16 265.5,-151.16 262,-161.16 269,-161.16"/>
</a>
</g>
</g>
<!-- Node6 -->
<g id="Node000006" class="node">
<title>Node6</title>
<g id="a_Node000006"><a xlink:title=" ">
<polygon fill="#e0e0e0" stroke="#999999" points="689.5,-19 639.5,-19 639.5,0 689.5,0 689.5,-19"/>
<text text-anchor="middle" x="664.5" y="-7" font-family="Helvetica,sans-Serif" font-size="10.00">chrono</text>
</a>
</g>
</g>
<!-- Node5&#45;&gt;Node6 -->
<g id="edge7_Node000005_Node000006" class="edge">
<title>Node5&#45;&gt;Node6</title>
<g id="a_edge7_Node000005_Node000006"><a xlink:title=" ">
<path fill="none" stroke="#63b8ff" d="M446.81,-126.05C447.89,-109.46 452.66,-73.92 473.5,-55 496.05,-34.53 580.34,-20.94 629.08,-14.61"/>
<polygon fill="#63b8ff" stroke="#63b8ff" points="629.71,-18.06 639.19,-13.33 628.83,-11.11 629.71,-18.06"/>
</a>
</g>
</g>
<!-- Node7 -->
<g id="Node000007" class="node">
<title>Node7</title>
<g id="a_Node000007"><a xlink:href="duration_8hpp.html" target="_top" xlink:title="時間間隔の型エイリアス">
<polygon fill="white" stroke="#666666" points="636,-79.5 483,-79.5 483,-60.5 636,-60.5 636,-79.5"/>
<text text-anchor="middle" x="559.5" y="-67.5" font-family="Helvetica,sans-Serif" font-size="10.00">alps_cmn/time/duration.hpp</text>
</a>
</g>
</g>
<!-- Node5&#45;&gt;Node7 -->
<g id="edge8_Node000005_Node000007" class="edge">
<title>Node5&#45;&gt;Node7</title>
<g id="a_edge8_Node000005_Node000007"><a xlink:title=" ">
<path fill="none" stroke="#63b8ff" d="M461.74,-126.37C480.61,-115.68 512.98,-97.35 535.27,-84.72"/>
<polygon fill="#63b8ff" stroke="#63b8ff" points="537.16,-87.67 544.14,-79.7 533.71,-81.58 537.16,-87.67"/>
</a>
</g>
</g>
<!-- Node7&#45;&gt;Node6 -->
<g id="edge9_Node000007_Node000006" class="edge">
<title>Node7&#45;&gt;Node6</title>
<g id="a_edge9_Node000007_Node000006"><a xlink:title=" ">
<path fill="none" stroke="#63b8ff" d="M574.99,-60.37C592.13,-50.82 619.97,-35.31 640.06,-24.12"/>
<polygon fill="#63b8ff" stroke="#63b8ff" points="641.91,-27.09 648.94,-19.17 638.5,-20.98 641.91,-27.09"/>
</a>
</g>
</g>
<!-- Node9&#45;&gt;Node5 -->
<g id="edge12_Node000009_Node000005" class="edge">
<title>Node9&#45;&gt;Node5</title>
<g id="a_edge12_Node000009_Node000005"><a xlink:title=" ">
<path fill="none" stroke="#63b8ff" d="M530.02,-186.95C512,-176.18 487.26,-161.38 469.39,-150.69"/>
<polygon fill="#63b8ff" stroke="#63b8ff" points="471.12,-147.65 460.74,-145.52 467.53,-153.65 471.12,-147.65"/>
</a>
</g>
</g>
<!-- Node10 -->
<g id="Node000010" class="node">
<title>Node10</title>
<g id="a_Node000010"><a xlink:href="low__pass__filter_8hpp.html" target="_top" xlink:title="ローパスフィルタのクラス">
<polygon fill="white" stroke="#666666" points="677.5,-151 557.5,-151 557.5,-121 677.5,-121 677.5,-151"/>
<text text-anchor="start" x="565.5" y="-139" font-family="Helvetica,sans-Serif" font-size="10.00">alps_cmn/control/low</text>
<text text-anchor="middle" x="617.5" y="-128" font-family="Helvetica,sans-Serif" font-size="10.00">_pass_filter.hpp</text>
</a>
</g>
</g>
<!-- Node9&#45;&gt;Node10 -->
<g id="edge13_Node000009_Node000010" class="edge">
<title>Node9&#45;&gt;Node10</title>
<g id="a_edge13_Node000009_Node000010"><a xlink:title=" ">
<path fill="none" stroke="#63b8ff" d="M567.7,-186.8C576.07,-178.43 586.82,-167.68 596.19,-158.31"/>
<polygon fill="#63b8ff" stroke="#63b8ff" points="598.74,-160.71 603.34,-151.16 593.79,-155.76 598.74,-160.71"/>
</a>
</g>
</g>
<!-- Node10&#45;&gt;Node6 -->
<g id="edge14_Node000010_Node000006" class="edge">
<title>Node10&#45;&gt;Node6</title>
<g id="a_edge14_Node000010_Node000006"><a xlink:title=" ">
<path fill="none" stroke="#63b8ff" d="M626.21,-120.99C632.01,-111.19 639.47,-97.65 644.5,-85 651.83,-66.58 657.37,-44.54 660.74,-29.24"/>
<polygon fill="#63b8ff" stroke="#63b8ff" points="664.17,-29.94 662.81,-19.43 657.32,-28.5 664.17,-29.94"/>
</a>
</g>
</g>
<!-- Node10&#45;&gt;Node7 -->
<g id="edge15_Node000010_Node000007" class="edge">
<title>Node10&#45;&gt;Node7</title>
<g id="a_edge15_Node000010_Node000007"><a xlink:title=" ">
<path fill="none" stroke="#63b8ff" d="M604.63,-120.8C595.67,-110.92 583.71,-97.72 574.36,-87.39"/>
<polygon fill="#63b8ff" stroke="#63b8ff" points="576.82,-84.9 567.52,-79.84 571.64,-89.6 576.82,-84.9"/>
</a>
</g>
</g>
<!-- Node12 -->
<g id="Node000012" class="node">
<title>Node12</title>
<g id="a_Node000012"><a xlink:href="logger_8hpp.html" target="_top" xlink:title=" ">
<polygon fill="white" stroke="#666666" points="978,-145.5 843,-145.5 843,-126.5 978,-126.5 978,-145.5"/>
<text text-anchor="middle" x="910.5" y="-133.5" font-family="Helvetica,sans-Serif" font-size="10.00">alps_cmn/log/logger.hpp</text>
</a>
</g>
</g>
<!-- Node11&#45;&gt;Node12 -->
<g id="edge17_Node000011_Node000012" class="edge">
<title>Node11&#45;&gt;Node12</title>
<g id="a_edge17_Node000011_Node000012"><a xlink:title=" ">
<path fill="none" stroke="#63b8ff" d="M907.39,-186.8C907.96,-177.7 908.7,-165.79 909.32,-155.9"/>
<polygon fill="#63b8ff" stroke="#63b8ff" points="912.82,-156.04 909.95,-145.84 905.83,-155.61 912.82,-156.04"/>
</a>
</g>
</g>
<!-- Node12&#45;&gt;Node13 -->
<g id="edge18_Node000012_Node000013" class="edge">
<title>Node12&#45;&gt;Node13</title>
<g id="a_edge18_Node000012_Node000013"><a xlink:title=" ">
<path fill="none" stroke="#63b8ff" d="M923.72,-126.37C939.86,-115.82 967.41,-97.84 986.71,-85.23"/>
<polygon fill="#63b8ff" stroke="#63b8ff" points="988.72,-88.1 995.18,-79.7 984.89,-82.24 988.72,-88.1"/>
</a>
</g>
</g>
<!-- Node14 -->
<g id="Node000014" class="node">
<title>Node14</title>
<g id="a_Node000014"><a xlink:title=" ">
<polygon fill="#e0e0e0" stroke="#999999" points="948,-79.5 879,-79.5 879,-60.5 948,-60.5 948,-79.5"/>
<text text-anchor="middle" x="913.5" y="-67.5" font-family="Helvetica,sans-Serif" font-size="10.00">etl/string.h</text>
</a>
</g>
</g>
<!-- Node12&#45;&gt;Node14 -->
<g id="edge19_Node000012_Node000014" class="edge">
<title>Node12&#45;&gt;Node14</title>
<g id="a_edge19_Node000012_Node000014"><a xlink:title=" ">
<path fill="none" stroke="#63b8ff" d="M910.9,-126.37C911.34,-117.07 912.05,-101.98 912.61,-89.9"/>
<polygon fill="#63b8ff" stroke="#63b8ff" points="916.11,-90.06 913.08,-79.91 909.12,-89.73 916.11,-90.06"/>
</a>
</g>
</g>
<!-- Node15&#45;&gt;Node6 -->
<g id="edge22_Node000015_Node000006" class="edge">
<title>Node15&#45;&gt;Node6</title>
<g id="a_edge22_Node000015_Node000006"><a xlink:title=" ">
<path fill="none" stroke="#63b8ff" d="M706.5,-192.32C699.8,-163.31 678.08,-69.3 668.79,-29.06"/>
<polygon fill="#63b8ff" stroke="#63b8ff" points="672.18,-28.19 666.52,-19.23 665.36,-29.76 672.18,-28.19"/>
</a>
</g>
</g>
<!-- Node16 -->
<g id="Node000016" class="node">
<title>Node16</title>
<g id="a_Node000016"><a xlink:title=" ">
<polygon fill="#e0e0e0" stroke="#999999" points="781.5,-145.5 733.5,-145.5 733.5,-126.5 781.5,-126.5 781.5,-145.5"/>
<text text-anchor="middle" x="757.5" y="-133.5" font-family="Helvetica,sans-Serif" font-size="10.00">thread</text>
</a>
</g>
</g>
<!-- Node15&#45;&gt;Node16 -->
<g id="edge23_Node000015_Node000016" class="edge">
<title>Node15&#45;&gt;Node16</title>
<g id="a_edge23_Node000015_Node000016"><a xlink:title=" ">
<path fill="none" stroke="#63b8ff" d="M715.11,-192.37C722.59,-182.59 734.97,-166.42 744.43,-154.08"/>
<polygon fill="#63b8ff" stroke="#63b8ff" points="747.38,-155.97 750.68,-145.91 741.82,-151.72 747.38,-155.97"/>
</a>
</g>
</g>
<!-- Node17&#45;&gt;Node6 -->
<g id="edge25_Node000017_Node000006" class="edge">
<title>Node17&#45;&gt;Node6</title>
<g id="a_edge25_Node000017_Node000006"><a xlink:title=" ">
<path fill="none" stroke="#63b8ff" d="M764.12,-54.99C742.56,-45.36 714.15,-32.67 693.19,-23.31"/>
<polygon fill="#63b8ff" stroke="#63b8ff" points="694.4,-20.02 683.85,-19.14 691.55,-26.41 694.4,-20.02"/>
</a>
</g>
</g>
</g>
</svg>
