<?xml version="1.0" encoding="UTF-8" standalone="no"?>
<!DOCTYPE svg PUBLIC "-//W3C//DTD SVG 1.1//EN"
 "http://www.w3.org/Graphics/SVG/1.1/DTD/svg11.dtd">
<!-- Generated by graphviz version 2.43.0 (0)
 -->
<!-- Title: alps_common_lib/include/alps_cmn/control/motor_angle_controller.hpp Pages: 1 -->
<svg width="544pt" height="229pt"
 viewBox="0.00 0.00 544.00 229.00" xmlns="http://www.w3.org/2000/svg" xmlns:xlink="http://www.w3.org/1999/xlink">
<g id="graph0" class="graph" transform="scale(1 1) rotate(0) translate(4 225)">
<title>alps_common_lib/include/alps_cmn/control/motor_angle_controller.hpp</title>
<polygon fill="white" stroke="transparent" points="-4,4 -4,-225 540,-225 540,4 -4,4"/>
<!-- Node1 -->
<g id="node1" class="node">
<title>Node1</title>
<g id="a_node1"><a xlink:title=" ">
<polygon fill="#bfbfbf" stroke="black" points="182.5,-179.5 182.5,-220.5 322.5,-220.5 322.5,-179.5 182.5,-179.5"/>
<text text-anchor="start" x="190.5" y="-208.5" font-family="Helvetica,sans-Serif" font-size="10.00">alps_common_lib/include</text>
<text text-anchor="start" x="190.5" y="-197.5" font-family="Helvetica,sans-Serif" font-size="10.00">/alps_cmn/control/motor</text>
<text text-anchor="middle" x="252.5" y="-186.5" font-family="Helvetica,sans-Serif" font-size="10.00">_angle_controller.hpp</text>
</a>
</g>
</g>
<!-- Node2 -->
<g id="node2" class="node">
<title>Node2</title>
<g id="a_node2"><a xlink:href="i__motor_8hpp.html" target="_top" xlink:title=" ">
<polygon fill="white" stroke="black" points="52,-112.5 52,-142.5 165,-142.5 165,-112.5 52,-112.5"/>
<text text-anchor="start" x="60" y="-130.5" font-family="Helvetica,sans-Serif" font-size="10.00">alps_cmn/actuator/i</text>
<text text-anchor="middle" x="108.5" y="-119.5" font-family="Helvetica,sans-Serif" font-size="10.00">_motor.hpp</text>
</a>
</g>
</g>
<!-- Node1&#45;&gt;Node2 -->
<g id="edge1" class="edge">
<title>Node1&#45;&gt;Node2</title>
<path fill="none" stroke="midnightblue" d="M212.39,-179.36C191.84,-169.3 166.95,-157.12 146.69,-147.2"/>
<polygon fill="midnightblue" stroke="midnightblue" points="147.96,-143.92 137.44,-142.67 144.89,-150.21 147.96,-143.92"/>
</g>
<!-- Node3 -->
<g id="node3" class="node">
<title>Node3</title>
<g id="a_node3"><a xlink:href="pid_8hpp.html" target="_top" xlink:title=" ">
<polygon fill="white" stroke="black" points="183,-118 183,-137 322,-137 322,-118 183,-118"/>
<text text-anchor="middle" x="252.5" y="-125" font-family="Helvetica,sans-Serif" font-size="10.00">alps_cmn/control/pid.hpp</text>
</a>
</g>
</g>
<!-- Node1&#45;&gt;Node3 -->
<g id="edge2" class="edge">
<title>Node1&#45;&gt;Node3</title>
<path fill="none" stroke="midnightblue" d="M252.5,-179.36C252.5,-169.3 252.5,-157.1 252.5,-147.18"/>
<polygon fill="midnightblue" stroke="midnightblue" points="256,-147.17 252.5,-137.17 249,-147.17 256,-147.17"/>
</g>
<!-- Node9 -->
<g id="node9" class="node">
<title>Node9</title>
<g id="a_node9"><a xlink:href="i__rotary__sensor_8hpp.html" target="_top" xlink:title=" ">
<polygon fill="white" stroke="black" points="340,-112.5 340,-142.5 479,-142.5 479,-112.5 340,-112.5"/>
<text text-anchor="start" x="348" y="-130.5" font-family="Helvetica,sans-Serif" font-size="10.00">alps_cmn/sensor/i_rotary</text>
<text text-anchor="middle" x="409.5" y="-119.5" font-family="Helvetica,sans-Serif" font-size="10.00">_sensor.hpp</text>
</a>
</g>
</g>
<!-- Node1&#45;&gt;Node9 -->
<g id="edge12" class="edge">
<title>Node1&#45;&gt;Node9</title>
<path fill="none" stroke="midnightblue" d="M296.23,-179.36C318.94,-169.17 346.51,-156.79 368.76,-146.79"/>
<polygon fill="midnightblue" stroke="midnightblue" points="370.26,-149.96 377.94,-142.67 367.39,-143.57 370.26,-149.96"/>
</g>
<!-- Node4 -->
<g id="node4" class="node">
<title>Node4</title>
<g id="a_node4"><a xlink:title=" ">
<polygon fill="white" stroke="#bfbfbf" points="189.5,-0.5 189.5,-19.5 239.5,-19.5 239.5,-0.5 189.5,-0.5"/>
<text text-anchor="middle" x="214.5" y="-7.5" font-family="Helvetica,sans-Serif" font-size="10.00">chrono</text>
</a>
</g>
</g>
<!-- Node3&#45;&gt;Node4 -->
<g id="edge3" class="edge">
<title>Node3&#45;&gt;Node4</title>
<path fill="none" stroke="midnightblue" d="M249.64,-117.82C243.48,-99.09 228.83,-54.55 220.52,-29.29"/>
<polygon fill="midnightblue" stroke="midnightblue" points="223.84,-28.19 217.39,-19.78 217.19,-30.37 223.84,-28.19"/>
</g>
<!-- Node5 -->
<g id="node5" class="node">
<title>Node5</title>
<g id="a_node5"><a xlink:title=" ">
<polygon fill="white" stroke="#bfbfbf" points="299.5,-0.5 299.5,-19.5 343.5,-19.5 343.5,-0.5 299.5,-0.5"/>
<text text-anchor="middle" x="321.5" y="-7.5" font-family="Helvetica,sans-Serif" font-size="10.00">limits</text>
</a>
</g>
</g>
<!-- Node3&#45;&gt;Node5 -->
<g id="edge4" class="edge">
<title>Node3&#45;&gt;Node5</title>
<path fill="none" stroke="midnightblue" d="M253.27,-117.62C254.82,-103.6 259.3,-75.88 271.5,-56 278.68,-44.3 289.81,-33.86 299.75,-25.98"/>
<polygon fill="midnightblue" stroke="midnightblue" points="302.15,-28.56 308.05,-19.76 297.95,-22.96 302.15,-28.56"/>
</g>
<!-- Node6 -->
<g id="node6" class="node">
<title>Node6</title>
<g id="a_node6"><a xlink:href="differentiator_8hpp.html" target="_top" xlink:title="微分器ライブラリ">
<polygon fill="white" stroke="black" points="0,-56.5 0,-75.5 187,-75.5 187,-56.5 0,-56.5"/>
<text text-anchor="middle" x="93.5" y="-63.5" font-family="Helvetica,sans-Serif" font-size="10.00">alps_cmn/control/differentiator.hpp</text>
</a>
</g>
</g>
<!-- Node3&#45;&gt;Node6 -->
<g id="edge5" class="edge">
<title>Node3&#45;&gt;Node6</title>
<path fill="none" stroke="midnightblue" d="M229.72,-117.98C202.45,-107.77 156.59,-90.61 125.7,-79.05"/>
<polygon fill="midnightblue" stroke="midnightblue" points="126.83,-75.74 116.24,-75.51 124.38,-82.29 126.83,-75.74"/>
</g>
<!-- Node7 -->
<g id="node7" class="node">
<title>Node7</title>
<g id="a_node7"><a xlink:href="integrator_8hpp.html" target="_top" xlink:title="積分器ライブラリ">
<polygon fill="white" stroke="black" points="281,-56.5 281,-75.5 452,-75.5 452,-56.5 281,-56.5"/>
<text text-anchor="middle" x="366.5" y="-63.5" font-family="Helvetica,sans-Serif" font-size="10.00">alps_cmn/control/integrator.hpp</text>
</a>
</g>
</g>
<!-- Node3&#45;&gt;Node7 -->
<g id="edge7" class="edge">
<title>Node3&#45;&gt;Node7</title>
<path fill="none" stroke="midnightblue" d="M268.83,-117.98C287.71,-108.12 319.01,-91.79 341.08,-80.27"/>
<polygon fill="midnightblue" stroke="midnightblue" points="342.95,-83.24 350.2,-75.51 339.71,-77.03 342.95,-83.24"/>
</g>
<!-- Node8 -->
<g id="node8" class="node">
<title>Node8</title>
<g id="a_node8"><a xlink:href="algorithm_8hpp.html" target="_top" xlink:title=" ">
<polygon fill="white" stroke="black" points="383,-0.5 383,-19.5 536,-19.5 536,-0.5 383,-0.5"/>
<text text-anchor="middle" x="459.5" y="-7.5" font-family="Helvetica,sans-Serif" font-size="10.00">alps_cmn/util/algorithm.hpp</text>
</a>
</g>
</g>
<!-- Node3&#45;&gt;Node8 -->
<g id="edge11" class="edge">
<title>Node3&#45;&gt;Node8</title>
<path fill="none" stroke="midnightblue" d="M293.48,-117.95C352.83,-105.38 456.25,-82.67 461.5,-76 471.74,-62.99 469.59,-43.56 465.89,-29.33"/>
<polygon fill="midnightblue" stroke="midnightblue" points="469.2,-28.2 462.93,-19.66 462.51,-30.25 469.2,-28.2"/>
</g>
<!-- Node6&#45;&gt;Node4 -->
<g id="edge6" class="edge">
<title>Node6&#45;&gt;Node4</title>
<path fill="none" stroke="midnightblue" d="M112.67,-56.44C132.41,-47.64 163.39,-33.81 185.99,-23.72"/>
<polygon fill="midnightblue" stroke="midnightblue" points="187.71,-26.79 195.42,-19.52 184.86,-20.4 187.71,-26.79"/>
</g>
<!-- Node7&#45;&gt;Node4 -->
<g id="edge8" class="edge">
<title>Node7&#45;&gt;Node4</title>
<path fill="none" stroke="midnightblue" d="M342.42,-56.44C316.96,-47.4 276.61,-33.06 248.04,-22.92"/>
<polygon fill="midnightblue" stroke="midnightblue" points="249.07,-19.57 238.47,-19.52 246.72,-26.16 249.07,-19.57"/>
</g>
<!-- Node7&#45;&gt;Node5 -->
<g id="edge9" class="edge">
<title>Node7&#45;&gt;Node5</title>
<path fill="none" stroke="midnightblue" d="M359.07,-56.08C352.65,-48.38 343.19,-37.03 335.38,-27.65"/>
<polygon fill="midnightblue" stroke="midnightblue" points="337.88,-25.19 328.79,-19.75 332.51,-29.67 337.88,-25.19"/>
</g>
<!-- Node7&#45;&gt;Node8 -->
<g id="edge10" class="edge">
<title>Node7&#45;&gt;Node8</title>
<path fill="none" stroke="midnightblue" d="M381.44,-56.32C396.09,-47.82 418.63,-34.73 435.74,-24.8"/>
<polygon fill="midnightblue" stroke="midnightblue" points="437.7,-27.7 444.6,-19.65 434.19,-21.65 437.7,-27.7"/>
</g>
</g>
</svg>
