<?xml version="1.0" encoding="UTF-8" standalone="no"?>
<!DOCTYPE svg PUBLIC "-//W3C//DTD SVG 1.1//EN"
 "http://www.w3.org/Graphics/SVG/1.1/DTD/svg11.dtd">
<!-- Generated by graphviz version 2.43.0 (0)
 -->
<!-- Title: alps_core/lib_internal/alps_common_lib/include/alps_cmn/control/motor_angle_controller.hpp Pages: 1 -->
<svg width="806pt" height="368pt"
 viewBox="0.00 0.00 805.75 368.00" xmlns="http://www.w3.org/2000/svg" xmlns:xlink="http://www.w3.org/1999/xlink">
<g id="graph0" class="graph" transform="scale(1 1) rotate(0) translate(4 364)">
<title>alps_core/lib_internal/alps_common_lib/include/alps_cmn/control/motor_angle_controller.hpp</title>
<!-- Node1 -->
<g id="Node000001" class="node">
<title>Node1</title>
<g id="a_Node000001"><a xlink:title=" ">
<polygon fill="#999999" stroke="#666666" points="642.75,-360 499.75,-360 499.75,-308 642.75,-308 642.75,-360"/>
<text text-anchor="start" x="507.75" y="-348" font-family="Helvetica,sans-Serif" font-size="10.00">alps_core/lib_internal</text>
<text text-anchor="start" x="507.75" y="-337" font-family="Helvetica,sans-Serif" font-size="10.00">/alps_common_lib/include</text>
<text text-anchor="start" x="507.75" y="-326" font-family="Helvetica,sans-Serif" font-size="10.00">/alps_cmn/control/motor</text>
<text text-anchor="middle" x="571.25" y="-315" font-family="Helvetica,sans-Serif" font-size="10.00">_angle_controller.hpp</text>
</a>
</g>
</g>
<!-- Node2 -->
<g id="Node000002" class="node">
<title>Node2</title>
<g id="a_Node000002"><a xlink:href="i__motor_8hpp.html" target="_top" xlink:title=" ">
<polygon fill="white" stroke="#666666" points="483.75,-272 370.75,-272 370.75,-242 483.75,-242 483.75,-272"/>
<text text-anchor="start" x="378.75" y="-260" font-family="Helvetica,sans-Serif" font-size="10.00">alps_cmn/actuator/i</text>
<text text-anchor="middle" x="427.25" y="-249" font-family="Helvetica,sans-Serif" font-size="10.00">_motor.hpp</text>
</a>
</g>
</g>
<!-- Node1&#45;&gt;Node2 -->
<g id="edge1_Node000001_Node000002" class="edge">
<title>Node1&#45;&gt;Node2</title>
<g id="a_edge1_Node000001_Node000002"><a xlink:title=" ">
<path fill="none" stroke="#63b8ff" d="M522.9,-307.82C503.42,-297.67 481.34,-286.17 463.3,-276.78"/>
<polygon fill="#63b8ff" stroke="#63b8ff" points="464.76,-273.59 454.28,-272.08 461.53,-279.8 464.76,-273.59"/>
</a>
</g>
</g>
<!-- Node3 -->
<g id="Node000003" class="node">
<title>Node3</title>
<g id="a_Node000003"><a xlink:href="pid_8hpp.html" target="_top" xlink:title=" ">
<polygon fill="white" stroke="#666666" points="640.75,-266.5 501.75,-266.5 501.75,-247.5 640.75,-247.5 640.75,-266.5"/>
<text text-anchor="middle" x="571.25" y="-254.5" font-family="Helvetica,sans-Serif" font-size="10.00">alps_cmn/control/pid.hpp</text>
</a>
</g>
</g>
<!-- Node1&#45;&gt;Node3 -->
<g id="edge2_Node000001_Node000003" class="edge">
<title>Node1&#45;&gt;Node3</title>
<g id="a_edge2_Node000001_Node000003"><a xlink:title=" ">
<path fill="none" stroke="#63b8ff" d="M571.25,-307.61C571.25,-297.58 571.25,-286.25 571.25,-276.96"/>
<polygon fill="#63b8ff" stroke="#63b8ff" points="574.75,-276.85 571.25,-266.85 567.75,-276.85 574.75,-276.85"/>
</a>
</g>
</g>
<!-- Node15 -->
<g id="Node000015" class="node">
<title>Node15</title>
<g id="a_Node000015"><a xlink:href="i__rotary__sensor_8hpp.html" target="_top" xlink:title=" ">
<polygon fill="white" stroke="#666666" points="797.75,-272 658.75,-272 658.75,-242 797.75,-242 797.75,-272"/>
<text text-anchor="start" x="666.75" y="-260" font-family="Helvetica,sans-Serif" font-size="10.00">alps_cmn/sensor/i_rotary</text>
<text text-anchor="middle" x="728.25" y="-249" font-family="Helvetica,sans-Serif" font-size="10.00">_sensor.hpp</text>
</a>
</g>
</g>
<!-- Node1&#45;&gt;Node15 -->
<g id="edge24_Node000001_Node000015" class="edge">
<title>Node1&#45;&gt;Node15</title>
<g id="a_edge24_Node000001_Node000015"><a xlink:title=" ">
<path fill="none" stroke="#63b8ff" d="M623.96,-307.82C645.5,-297.53 669.94,-285.85 689.75,-276.39"/>
<polygon fill="#63b8ff" stroke="#63b8ff" points="691.27,-279.55 698.78,-272.08 688.25,-273.23 691.27,-279.55"/>
</a>
</g>
</g>
<!-- Node4 -->
<g id="Node000004" class="node">
<title>Node4</title>
<g id="a_Node000004"><a xlink:title=" ">
<polygon fill="#e0e0e0" stroke="#999999" points="202.25,-19 152.25,-19 152.25,0 202.25,0 202.25,-19"/>
<text text-anchor="middle" x="177.25" y="-7" font-family="Helvetica,sans-Serif" font-size="10.00">chrono</text>
</a>
</g>
</g>
<!-- Node3&#45;&gt;Node4 -->
<g id="edge3_Node000003_Node000004" class="edge">
<title>Node3&#45;&gt;Node4</title>
<g id="a_edge3_Node000003_Node000004"><a xlink:title=" ">
<path fill="none" stroke="#63b8ff" d="M526.79,-247.46C515.85,-245.51 504.14,-243.56 493.25,-242 384.23,-226.38 68.43,-232.24 8.25,-140 -30.23,-81.03 82.12,-38.12 142.14,-20.02"/>
<polygon fill="#63b8ff" stroke="#63b8ff" points="143.39,-23.3 152,-17.13 141.42,-16.58 143.39,-23.3"/>
</a>
</g>
</g>
<!-- Node5 -->
<g id="Node000005" class="node">
<title>Node5</title>
<g id="a_Node000005"><a xlink:title=" ">
<polygon fill="#e0e0e0" stroke="#999999" points="775.75,-200.5 728.75,-200.5 728.75,-181.5 775.75,-181.5 775.75,-200.5"/>
<text text-anchor="middle" x="752.25" y="-188.5" font-family="Helvetica,sans-Serif" font-size="10.00">cmath</text>
</a>
</g>
</g>
<!-- Node3&#45;&gt;Node5 -->
<g id="edge4_Node000003_Node000005" class="edge">
<title>Node3&#45;&gt;Node5</title>
<g id="a_edge4_Node000003_Node000005"><a xlink:title=" ">
<path fill="none" stroke="#63b8ff" d="M596.09,-247.45C624.65,-237.6 672.91,-220.84 714.25,-206 716.09,-205.34 717.97,-204.66 719.87,-203.97"/>
<polygon fill="#63b8ff" stroke="#63b8ff" points="721.17,-207.22 729.36,-200.5 718.77,-200.65 721.17,-207.22"/>
</a>
</g>
</g>
<!-- Node6 -->
<g id="Node000006" class="node">
<title>Node6</title>
<g id="a_Node000006"><a xlink:title=" ">
<polygon fill="#e0e0e0" stroke="#999999" points="652.25,-134.5 608.25,-134.5 608.25,-115.5 652.25,-115.5 652.25,-134.5"/>
<text text-anchor="middle" x="630.25" y="-122.5" font-family="Helvetica,sans-Serif" font-size="10.00">limits</text>
</a>
</g>
</g>
<!-- Node3&#45;&gt;Node6 -->
<g id="edge5_Node000003_Node000006" class="edge">
<title>Node3&#45;&gt;Node6</title>
<g id="a_edge5_Node000003_Node000006"><a xlink:title=" ">
<path fill="none" stroke="#63b8ff" d="M593.31,-247.47C610.38,-239.55 632.81,-225.96 643.25,-206 653.4,-186.59 646.4,-161.2 639.35,-144.28"/>
<polygon fill="#63b8ff" stroke="#63b8ff" points="642.44,-142.62 635.11,-134.97 636.07,-145.52 642.44,-142.62"/>
</a>
</g>
</g>
<!-- Node7 -->
<g id="Node000007" class="node">
<title>Node7</title>
<g id="a_Node000007"><a xlink:title=" ">
<polygon fill="#e0e0e0" stroke="#999999" points="717.75,-134.5 676.75,-134.5 676.75,-115.5 717.75,-115.5 717.75,-134.5"/>
<text text-anchor="middle" x="697.25" y="-122.5" font-family="Helvetica,sans-Serif" font-size="10.00">tuple</text>
</a>
</g>
</g>
<!-- Node3&#45;&gt;Node7 -->
<g id="edge6_Node000003_Node000007" class="edge">
<title>Node3&#45;&gt;Node7</title>
<g id="a_edge6_Node000003_Node000007"><a xlink:title=" ">
<path fill="none" stroke="#63b8ff" d="M594.4,-247.47C613.82,-239.34 641.19,-225.44 659.25,-206 675.8,-188.18 686.41,-161.84 692.1,-144.31"/>
<polygon fill="#63b8ff" stroke="#63b8ff" points="695.46,-145.28 695.01,-134.69 688.76,-143.25 695.46,-145.28"/>
</a>
</g>
</g>
<!-- Node8 -->
<g id="Node000008" class="node">
<title>Node8</title>
<g id="a_Node000008"><a xlink:href="integrator_8hpp.html" target="_top" xlink:title="積分器ライブラリ">
<polygon fill="white" stroke="#666666" points="490.75,-200.5 319.75,-200.5 319.75,-181.5 490.75,-181.5 490.75,-200.5"/>
<text text-anchor="middle" x="405.25" y="-188.5" font-family="Helvetica,sans-Serif" font-size="10.00">alps_cmn/control/integrator.hpp</text>
</a>
</g>
</g>
<!-- Node3&#45;&gt;Node8 -->
<g id="edge7_Node000003_Node000008" class="edge">
<title>Node3&#45;&gt;Node8</title>
<g id="a_edge7_Node000003_Node000008"><a xlink:title=" ">
<path fill="none" stroke="#63b8ff" d="M548.86,-247.37C520.07,-236.27 469.88,-216.92 437.11,-204.28"/>
<polygon fill="#63b8ff" stroke="#63b8ff" points="438.14,-200.93 427.55,-200.6 435.62,-207.46 438.14,-200.93"/>
</a>
</g>
</g>
<!-- Node11 -->
<g id="Node000011" class="node">
<title>Node11</title>
<g id="a_Node000011"><a xlink:href="low__pass__differentiator_8hpp.html" target="_top" xlink:title=" ">
<polygon fill="white" stroke="#666666" points="301.25,-206 167.25,-206 167.25,-176 301.25,-176 301.25,-206"/>
<text text-anchor="start" x="175.25" y="-194" font-family="Helvetica,sans-Serif" font-size="10.00">alps_cmn/control/low</text>
<text text-anchor="middle" x="234.25" y="-183" font-family="Helvetica,sans-Serif" font-size="10.00">_pass_differentiator.hpp</text>
</a>
</g>
</g>
<!-- Node3&#45;&gt;Node11 -->
<g id="edge13_Node000003_Node000011" class="edge">
<title>Node3&#45;&gt;Node11</title>
<g id="a_edge13_Node000003_Node000011"><a xlink:title=" ">
<path fill="none" stroke="#63b8ff" d="M526.15,-247.44C471.3,-237.02 377.84,-219.27 311.46,-206.66"/>
<polygon fill="#63b8ff" stroke="#63b8ff" points="311.94,-203.19 301.46,-204.76 310.63,-210.07 311.94,-203.19"/>
</a>
</g>
</g>
<!-- Node14 -->
<g id="Node000014" class="node">
<title>Node14</title>
<g id="a_Node000014"><a xlink:href="numeric__range_8hpp.html" target="_top" xlink:title="数値の範囲を扱うクラス">
<polygon fill="white" stroke="#666666" points="633.75,-206 508.75,-206 508.75,-176 633.75,-176 633.75,-206"/>
<text text-anchor="start" x="516.75" y="-194" font-family="Helvetica,sans-Serif" font-size="10.00">alps_cmn/util/numeric</text>
<text text-anchor="middle" x="571.25" y="-183" font-family="Helvetica,sans-Serif" font-size="10.00">_range.hpp</text>
</a>
</g>
</g>
<!-- Node3&#45;&gt;Node14 -->
<g id="edge20_Node000003_Node000014" class="edge">
<title>Node3&#45;&gt;Node14</title>
<g id="a_edge20_Node000003_Node000014"><a xlink:title=" ">
<path fill="none" stroke="#63b8ff" d="M571.25,-247.37C571.25,-239.49 571.25,-227.45 571.25,-216.6"/>
<polygon fill="#63b8ff" stroke="#63b8ff" points="574.75,-216.36 571.25,-206.36 567.75,-216.36 574.75,-216.36"/>
</a>
</g>
</g>
<!-- Node8&#45;&gt;Node4 -->
<g id="edge8_Node000008_Node000004" class="edge">
<title>Node8&#45;&gt;Node4</title>
<g id="a_edge8_Node000008_Node000004"><a xlink:title=" ">
<path fill="none" stroke="#63b8ff" d="M405.68,-181.24C406.33,-157.26 404.67,-90.05 368.25,-55 346.25,-33.83 261.34,-20.48 212.45,-14.39"/>
<polygon fill="#63b8ff" stroke="#63b8ff" points="212.66,-10.89 202.31,-13.16 211.82,-17.84 212.66,-10.89"/>
</a>
</g>
</g>
<!-- Node8&#45;&gt;Node6 -->
<g id="edge9_Node000008_Node000006" class="edge">
<title>Node8&#45;&gt;Node6</title>
<g id="a_edge9_Node000008_Node000006"><a xlink:title=" ">
<path fill="none" stroke="#63b8ff" d="M446.74,-181.48C486.44,-172.82 547.74,-158.12 599.25,-140 600.64,-139.51 602.06,-138.98 603.48,-138.43"/>
<polygon fill="#63b8ff" stroke="#63b8ff" points="604.89,-141.63 612.76,-134.53 602.18,-135.18 604.89,-141.63"/>
</a>
</g>
</g>
<!-- Node9 -->
<g id="Node000009" class="node">
<title>Node9</title>
<g id="a_Node000009"><a xlink:href="algorithm_8hpp.html" target="_top" xlink:title=" ">
<polygon fill="white" stroke="#666666" points="589.75,-134.5 436.75,-134.5 436.75,-115.5 589.75,-115.5 589.75,-134.5"/>
<text text-anchor="middle" x="513.25" y="-122.5" font-family="Helvetica,sans-Serif" font-size="10.00">alps_cmn/util/algorithm.hpp</text>
</a>
</g>
</g>
<!-- Node8&#45;&gt;Node9 -->
<g id="edge10_Node000008_Node000009" class="edge">
<title>Node8&#45;&gt;Node9</title>
<g id="a_edge10_Node000008_Node000009"><a xlink:title=" ">
<path fill="none" stroke="#63b8ff" d="M419.81,-181.37C437.77,-170.73 468.52,-152.51 489.81,-139.89"/>
<polygon fill="#63b8ff" stroke="#63b8ff" points="491.75,-142.81 498.57,-134.7 488.18,-136.79 491.75,-142.81"/>
</a>
</g>
</g>
<!-- Node10 -->
<g id="Node000010" class="node">
<title>Node10</title>
<g id="a_Node000010"><a xlink:href="duration_8hpp.html" target="_top" xlink:title="時間間隔の型エイリアス">
<polygon fill="white" stroke="#666666" points="358.75,-74 205.75,-74 205.75,-55 358.75,-55 358.75,-74"/>
<text text-anchor="middle" x="282.25" y="-62" font-family="Helvetica,sans-Serif" font-size="10.00">alps_cmn/time/duration.hpp</text>
</a>
</g>
</g>
<!-- Node8&#45;&gt;Node10 -->
<g id="edge11_Node000008_Node000010" class="edge">
<title>Node8&#45;&gt;Node10</title>
<g id="a_edge11_Node000008_Node000010"><a xlink:title=" ">
<path fill="none" stroke="#63b8ff" d="M401,-181.48C392.92,-165.9 374.12,-132.39 351.25,-110 338.67,-97.68 322.17,-86.89 308.46,-79.02"/>
<polygon fill="#63b8ff" stroke="#63b8ff" points="309.94,-75.84 299.49,-74.06 306.55,-81.97 309.94,-75.84"/>
</a>
</g>
</g>
<!-- Node10&#45;&gt;Node4 -->
<g id="edge12_Node000010_Node000004" class="edge">
<title>Node10&#45;&gt;Node4</title>
<g id="a_edge12_Node000010_Node000004"><a xlink:title=" ">
<path fill="none" stroke="#63b8ff" d="M265.38,-54.98C248.64,-46.54 222.75,-33.47 203.36,-23.68"/>
<polygon fill="#63b8ff" stroke="#63b8ff" points="204.93,-20.55 194.43,-19.17 201.78,-26.8 204.93,-20.55"/>
</a>
</g>
</g>
<!-- Node12 -->
<g id="Node000012" class="node">
<title>Node12</title>
<g id="a_Node000012"><a xlink:href="differentiator_8hpp.html" target="_top" xlink:title="微分器ライブラリ">
<polygon fill="white" stroke="#666666" points="204.75,-134.5 17.75,-134.5 17.75,-115.5 204.75,-115.5 204.75,-134.5"/>
<text text-anchor="middle" x="111.25" y="-122.5" font-family="Helvetica,sans-Serif" font-size="10.00">alps_cmn/control/differentiator.hpp</text>
</a>
</g>
</g>
<!-- Node11&#45;&gt;Node12 -->
<g id="edge14_Node000011_Node000012" class="edge">
<title>Node11&#45;&gt;Node12</title>
<g id="a_edge14_Node000011_Node000012"><a xlink:title=" ">
<path fill="none" stroke="#63b8ff" d="M207.26,-175.95C186.26,-165.03 157.32,-149.97 136.71,-139.25"/>
<polygon fill="#63b8ff" stroke="#63b8ff" points="138.1,-136.03 127.62,-134.52 134.87,-142.24 138.1,-136.03"/>
</a>
</g>
</g>
<!-- Node13 -->
<g id="Node000013" class="node">
<title>Node13</title>
<g id="a_Node000013"><a xlink:href="low__pass__filter_8hpp.html" target="_top" xlink:title="ローパスフィルタのクラス">
<polygon fill="white" stroke="#666666" points="342.25,-140 222.25,-140 222.25,-110 342.25,-110 342.25,-140"/>
<text text-anchor="start" x="230.25" y="-128" font-family="Helvetica,sans-Serif" font-size="10.00">alps_cmn/control/low</text>
<text text-anchor="middle" x="282.25" y="-117" font-family="Helvetica,sans-Serif" font-size="10.00">_pass_filter.hpp</text>
</a>
</g>
</g>
<!-- Node11&#45;&gt;Node13 -->
<g id="edge17_Node000011_Node000013" class="edge">
<title>Node11&#45;&gt;Node13</title>
<g id="a_edge17_Node000011_Node000013"><a xlink:title=" ">
<path fill="none" stroke="#63b8ff" d="M244.9,-175.8C250.93,-167.76 258.6,-157.53 265.43,-148.43"/>
<polygon fill="#63b8ff" stroke="#63b8ff" points="268.43,-150.26 271.63,-140.16 262.83,-146.06 268.43,-150.26"/>
</a>
</g>
</g>
<!-- Node12&#45;&gt;Node4 -->
<g id="edge15_Node000012_Node000004" class="edge">
<title>Node12&#45;&gt;Node4</title>
<g id="a_edge15_Node000012_Node000004"><a xlink:title=" ">
<path fill="none" stroke="#63b8ff" d="M116.21,-115.47C127.01,-96.9 152.82,-52.51 167.18,-27.82"/>
<polygon fill="#63b8ff" stroke="#63b8ff" points="170.23,-29.53 172.23,-19.13 164.18,-26.02 170.23,-29.53"/>
</a>
</g>
</g>
<!-- Node12&#45;&gt;Node10 -->
<g id="edge16_Node000012_Node000010" class="edge">
<title>Node12&#45;&gt;Node10</title>
<g id="a_edge16_Node000012_Node000010"><a xlink:title=" ">
<path fill="none" stroke="#63b8ff" d="M136.11,-115.49C165.49,-105.44 214.56,-88.66 247.64,-77.34"/>
<polygon fill="#63b8ff" stroke="#63b8ff" points="249.03,-80.57 257.35,-74.02 246.76,-73.94 249.03,-80.57"/>
</a>
</g>
</g>
<!-- Node13&#45;&gt;Node4 -->
<g id="edge18_Node000013_Node000004" class="edge">
<title>Node13&#45;&gt;Node4</title>
<g id="a_edge18_Node000013_Node000004"><a xlink:title=" ">
<path fill="none" stroke="#63b8ff" d="M244.78,-109.82C227.79,-101.68 208.76,-89.87 196.25,-74 186.12,-61.15 181.38,-42.98 179.17,-29.37"/>
<polygon fill="#63b8ff" stroke="#63b8ff" points="182.61,-28.69 177.84,-19.23 175.67,-29.6 182.61,-28.69"/>
</a>
</g>
</g>
<!-- Node13&#45;&gt;Node10 -->
<g id="edge19_Node000013_Node000010" class="edge">
<title>Node13&#45;&gt;Node10</title>
<g id="a_edge19_Node000013_Node000010"><a xlink:title=" ">
<path fill="none" stroke="#63b8ff" d="M282.25,-109.84C282.25,-102.21 282.25,-92.7 282.25,-84.45"/>
<polygon fill="#63b8ff" stroke="#63b8ff" points="285.75,-84.27 282.25,-74.27 278.75,-84.27 285.75,-84.27"/>
</a>
</g>
</g>
<!-- Node14&#45;&gt;Node6 -->
<g id="edge21_Node000014_Node000006" class="edge">
<title>Node14&#45;&gt;Node6</title>
<g id="a_edge21_Node000014_Node000006"><a xlink:title=" ">
<path fill="none" stroke="#63b8ff" d="M584.34,-175.8C593.45,-165.92 605.62,-152.72 615.14,-142.39"/>
<polygon fill="#63b8ff" stroke="#63b8ff" points="617.89,-144.57 622.1,-134.84 612.74,-139.82 617.89,-144.57"/>
</a>
</g>
</g>
<!-- Node14&#45;&gt;Node7 -->
<g id="edge22_Node000014_Node000007" class="edge">
<title>Node14&#45;&gt;Node7</title>
<g id="a_edge22_Node000014_Node000007"><a xlink:title=" ">
<path fill="none" stroke="#63b8ff" d="M598.9,-175.95C620.51,-164.98 650.33,-149.83 671.45,-139.11"/>
<polygon fill="#63b8ff" stroke="#63b8ff" points="673.15,-142.17 680.48,-134.52 669.98,-135.93 673.15,-142.17"/>
</a>
</g>
</g>
<!-- Node14&#45;&gt;Node9 -->
<g id="edge23_Node000014_Node000009" class="edge">
<title>Node14&#45;&gt;Node9</title>
<g id="a_edge23_Node000014_Node000009"><a xlink:title=" ">
<path fill="none" stroke="#63b8ff" d="M558.38,-175.8C549.42,-165.92 537.46,-152.72 528.1,-142.39"/>
<polygon fill="#63b8ff" stroke="#63b8ff" points="530.57,-139.9 521.26,-134.84 525.39,-144.6 530.57,-139.9"/>
</a>
</g>
</g>
</g>
</svg>
