<?xml version="1.0" encoding="UTF-8" standalone="no"?>
<!DOCTYPE svg PUBLIC "-//W3C//DTD SVG 1.1//EN"
 "http://www.w3.org/Graphics/SVG/1.1/DTD/svg11.dtd">
<!-- Generated by graphviz version 2.43.0 (0)
 -->
<!-- Title: alps_common_lib/include/alps_cmn/control/motor_angle_velocity_controller.hpp Pages: 1 -->
<svg width="776pt" height="423pt"
 viewBox="0.00 0.00 775.50 423.00" xmlns="http://www.w3.org/2000/svg" xmlns:xlink="http://www.w3.org/1999/xlink">
<g id="graph0" class="graph" transform="scale(1 1) rotate(0) translate(4 419)">
<title>alps_common_lib/include/alps_cmn/control/motor_angle_velocity_controller.hpp</title>
<!-- Node1 -->
<g id="node1" class="node">
<title>Node1</title>
<g id="a_node1"><a xlink:title=" ">
<polygon fill="#999999" stroke="#666666" points="623,-415 457,-415 457,-374 623,-374 623,-415"/>
<text text-anchor="start" x="465" y="-403" font-family="Helvetica,sans-Serif" font-size="10.00">alps_common_lib/include</text>
<text text-anchor="start" x="465" y="-392" font-family="Helvetica,sans-Serif" font-size="10.00">/alps_cmn/control/motor</text>
<text text-anchor="middle" x="540" y="-381" font-family="Helvetica,sans-Serif" font-size="10.00">_angle_velocity_controller.hpp</text>
</a>
</g>
</g>
<!-- Node2 -->
<g id="node2" class="node">
<title>Node2</title>
<g id="a_node2"><a xlink:href="i__motor_8hpp.html" target="_top" xlink:title=" ">
<polygon fill="white" stroke="#666666" points="414.5,-272 301.5,-272 301.5,-242 414.5,-242 414.5,-272"/>
<text text-anchor="start" x="309.5" y="-260" font-family="Helvetica,sans-Serif" font-size="10.00">alps_cmn/actuator/i</text>
<text text-anchor="middle" x="358" y="-249" font-family="Helvetica,sans-Serif" font-size="10.00">_motor.hpp</text>
</a>
</g>
</g>
<!-- Node1&#45;&gt;Node2 -->
<g id="edge1" class="edge">
<title>Node1&#45;&gt;Node2</title>
<path fill="none" stroke="#63b8ff" d="M456.76,-385.32C424.76,-377.9 390.73,-363.97 369,-338 356.18,-322.69 354.22,-299.65 355.01,-282.22"/>
<polygon fill="#63b8ff" stroke="#63b8ff" points="358.5,-282.45 355.78,-272.21 351.52,-281.92 358.5,-282.45"/>
</g>
<!-- Node3 -->
<g id="node3" class="node">
<title>Node3</title>
<g id="a_node3"><a xlink:href="motor__velocity__controller_8hpp.html" target="_top" xlink:title=" ">
<polygon fill="white" stroke="#666666" points="512,-338 378,-338 378,-308 512,-308 512,-338"/>
<text text-anchor="start" x="386" y="-326" font-family="Helvetica,sans-Serif" font-size="10.00">alps_cmn/control/motor</text>
<text text-anchor="middle" x="445" y="-315" font-family="Helvetica,sans-Serif" font-size="10.00">_velocity_controller.hpp</text>
</a>
</g>
</g>
<!-- Node1&#45;&gt;Node3 -->
<g id="edge2" class="edge">
<title>Node1&#45;&gt;Node3</title>
<path fill="none" stroke="#63b8ff" d="M513.28,-373.96C500.62,-364.69 485.5,-353.63 472.71,-344.27"/>
<polygon fill="#63b8ff" stroke="#63b8ff" points="474.43,-341.19 464.29,-338.11 470.3,-346.84 474.43,-341.19"/>
</g>
<!-- Node9 -->
<g id="node9" class="node">
<title>Node9</title>
<g id="a_node9"><a xlink:href="pid_8hpp.html" target="_top" xlink:title=" ">
<polygon fill="white" stroke="#666666" points="610.5,-266.5 471.5,-266.5 471.5,-247.5 610.5,-247.5 610.5,-266.5"/>
<text text-anchor="middle" x="541" y="-254.5" font-family="Helvetica,sans-Serif" font-size="10.00">alps_cmn/control/pid.hpp</text>
</a>
</g>
</g>
<!-- Node1&#45;&gt;Node9 -->
<g id="edge30" class="edge">
<title>Node1&#45;&gt;Node9</title>
<path fill="none" stroke="#63b8ff" d="M540.15,-373.8C540.34,-347.83 540.67,-302.45 540.86,-276.89"/>
<polygon fill="#63b8ff" stroke="#63b8ff" points="544.36,-276.71 540.94,-266.69 537.36,-276.66 544.36,-276.71"/>
</g>
<!-- Node15 -->
<g id="node15" class="node">
<title>Node15</title>
<g id="a_node15"><a xlink:href="i__rotary__sensor_8hpp.html" target="_top" xlink:title=" ">
<polygon fill="white" stroke="#666666" points="767.5,-272 628.5,-272 628.5,-242 767.5,-242 767.5,-272"/>
<text text-anchor="start" x="636.5" y="-260" font-family="Helvetica,sans-Serif" font-size="10.00">alps_cmn/sensor/i_rotary</text>
<text text-anchor="middle" x="698" y="-249" font-family="Helvetica,sans-Serif" font-size="10.00">_sensor.hpp</text>
</a>
</g>
</g>
<!-- Node1&#45;&gt;Node15 -->
<g id="edge31" class="edge">
<title>Node1&#45;&gt;Node15</title>
<path fill="none" stroke="#63b8ff" d="M623.21,-386.68C655.38,-379.5 689.17,-365.39 709,-338 720.75,-321.77 715.95,-298.72 709.42,-281.53"/>
<polygon fill="#63b8ff" stroke="#63b8ff" points="712.59,-280.04 705.48,-272.18 706.14,-282.75 712.59,-280.04"/>
</g>
<!-- Node16 -->
<g id="node16" class="node">
<title>Node16</title>
<g id="a_node16"><a xlink:href="motor__angle__controller_8hpp.html" target="_top" xlink:title=" ">
<polygon fill="white" stroke="#666666" points="700,-338 568,-338 568,-308 700,-308 700,-338"/>
<text text-anchor="start" x="576" y="-326" font-family="Helvetica,sans-Serif" font-size="10.00">alps_cmn/control/motor</text>
<text text-anchor="middle" x="634" y="-315" font-family="Helvetica,sans-Serif" font-size="10.00">_angle_controller.hpp</text>
</a>
</g>
</g>
<!-- Node1&#45;&gt;Node16 -->
<g id="edge26" class="edge">
<title>Node1&#45;&gt;Node16</title>
<path fill="none" stroke="#63b8ff" d="M566.43,-373.96C578.96,-364.69 593.92,-353.63 606.58,-344.27"/>
<polygon fill="#63b8ff" stroke="#63b8ff" points="608.95,-346.87 614.91,-338.11 604.79,-341.24 608.95,-346.87"/>
</g>
<!-- Node3&#45;&gt;Node2 -->
<g id="edge3" class="edge">
<title>Node3&#45;&gt;Node2</title>
<path fill="none" stroke="#63b8ff" d="M425.69,-307.8C413.87,-299.1 398.54,-287.82 385.46,-278.2"/>
<polygon fill="#63b8ff" stroke="#63b8ff" points="387.38,-275.27 377.25,-272.16 383.24,-280.91 387.38,-275.27"/>
</g>
<!-- Node4 -->
<g id="node4" class="node">
<title>Node4</title>
<g id="a_node4"><a xlink:href="low__pass__differentiator_8hpp.html" target="_top" xlink:title=" ">
<polygon fill="white" stroke="#666666" points="269.5,-206 134.5,-206 134.5,-176 269.5,-176 269.5,-206"/>
<text text-anchor="start" x="142.5" y="-194" font-family="Helvetica,sans-Serif" font-size="10.00">alps_cmn/control/low</text>
<text text-anchor="middle" x="202" y="-183" font-family="Helvetica,sans-Serif" font-size="10.00">_pass_differentiator.hpp</text>
</a>
</g>
</g>
<!-- Node3&#45;&gt;Node4 -->
<g id="edge4" class="edge">
<title>Node3&#45;&gt;Node4</title>
<path fill="none" stroke="#63b8ff" d="M445.25,-307.96C444.77,-290.05 441.12,-259.31 423,-242 417.61,-236.85 341.14,-220.27 279.64,-207.6"/>
<polygon fill="#63b8ff" stroke="#63b8ff" points="280.03,-204.11 269.53,-205.53 278.62,-210.97 280.03,-204.11"/>
</g>
<!-- Node3&#45;&gt;Node9 -->
<g id="edge12" class="edge">
<title>Node3&#45;&gt;Node9</title>
<path fill="none" stroke="#63b8ff" d="M466.31,-307.8C482.1,-297.27 503.54,-282.97 519.4,-272.4"/>
<polygon fill="#63b8ff" stroke="#63b8ff" points="521.63,-275.12 528.01,-266.66 517.75,-269.29 521.63,-275.12"/>
</g>
<!-- Node3&#45;&gt;Node15 -->
<g id="edge25" class="edge">
<title>Node3&#45;&gt;Node15</title>
<path fill="none" stroke="#63b8ff" d="M500.52,-307.95C539.49,-298.1 591.75,-284.88 632.72,-274.51"/>
<polygon fill="#63b8ff" stroke="#63b8ff" points="633.77,-277.86 642.61,-272.01 632.05,-271.07 633.77,-277.86"/>
</g>
<!-- Node5 -->
<g id="node5" class="node">
<title>Node5</title>
<g id="a_node5"><a xlink:href="differentiator_8hpp.html" target="_top" xlink:title="微分器ライブラリ">
<polygon fill="white" stroke="#666666" points="326,-134.5 138,-134.5 138,-115.5 326,-115.5 326,-134.5"/>
<text text-anchor="middle" x="232" y="-122.5" font-family="Helvetica,sans-Serif" font-size="10.00">alps_cmn/control/differentiator.hpp</text>
</a>
</g>
</g>
<!-- Node4&#45;&gt;Node5 -->
<g id="edge5" class="edge">
<title>Node4&#45;&gt;Node5</title>
<path fill="none" stroke="#63b8ff" d="M208.66,-175.8C213.06,-166.41 218.87,-154.02 223.59,-143.95"/>
<polygon fill="#63b8ff" stroke="#63b8ff" points="226.78,-145.38 227.85,-134.84 220.44,-142.41 226.78,-145.38"/>
</g>
<!-- Node8 -->
<g id="node8" class="node">
<title>Node8</title>
<g id="a_node8"><a xlink:href="low__pass__filter_8hpp.html" target="_top" xlink:title="ローパスフィルタのクラス">
<polygon fill="white" stroke="#666666" points="120,-140 0,-140 0,-110 120,-110 120,-140"/>
<text text-anchor="start" x="8" y="-128" font-family="Helvetica,sans-Serif" font-size="10.00">alps_cmn/control/low</text>
<text text-anchor="middle" x="60" y="-117" font-family="Helvetica,sans-Serif" font-size="10.00">_pass_filter.hpp</text>
</a>
</g>
</g>
<!-- Node4&#45;&gt;Node8 -->
<g id="edge9" class="edge">
<title>Node4&#45;&gt;Node8</title>
<path fill="none" stroke="#63b8ff" d="M170.84,-175.95C150.12,-166.62 122.71,-154.27 100.34,-144.18"/>
<polygon fill="#63b8ff" stroke="#63b8ff" points="101.64,-140.93 91.09,-140.01 98.77,-147.31 101.64,-140.93"/>
</g>
<!-- Node6 -->
<g id="node6" class="node">
<title>Node6</title>
<g id="a_node6"><a xlink:title=" ">
<polygon fill="#e0e0e0" stroke="#999999" points="312,-19 262,-19 262,0 312,0 312,-19"/>
<text text-anchor="middle" x="287" y="-7" font-family="Helvetica,sans-Serif" font-size="10.00">chrono</text>
</a>
</g>
</g>
<!-- Node5&#45;&gt;Node6 -->
<g id="edge6" class="edge">
<title>Node5&#45;&gt;Node6</title>
<path fill="none" stroke="#63b8ff" d="M222.61,-115.16C209.49,-101.68 188.58,-75.42 201,-55 212.11,-36.74 233.4,-25.64 252.02,-19.09"/>
<polygon fill="#63b8ff" stroke="#63b8ff" points="253.26,-22.37 261.72,-15.99 251.13,-15.7 253.26,-22.37"/>
</g>
<!-- Node7 -->
<g id="node7" class="node">
<title>Node7</title>
<g id="a_node7"><a xlink:href="duration_8hpp.html" target="_top" xlink:title="時間間隔の型エイリアス">
<polygon fill="white" stroke="#666666" points="363.5,-74 210.5,-74 210.5,-55 363.5,-55 363.5,-74"/>
<text text-anchor="middle" x="287" y="-62" font-family="Helvetica,sans-Serif" font-size="10.00">alps_cmn/time/duration.hpp</text>
</a>
</g>
</g>
<!-- Node5&#45;&gt;Node7 -->
<g id="edge7" class="edge">
<title>Node5&#45;&gt;Node7</title>
<path fill="none" stroke="#63b8ff" d="M240.12,-115.37C248.4,-106.55 261.47,-92.66 271.7,-81.77"/>
<polygon fill="#63b8ff" stroke="#63b8ff" points="274.55,-83.85 278.85,-74.17 269.45,-79.06 274.55,-83.85"/>
</g>
<!-- Node7&#45;&gt;Node6 -->
<g id="edge8" class="edge">
<title>Node7&#45;&gt;Node6</title>
<path fill="none" stroke="#63b8ff" d="M287,-54.75C287,-47.8 287,-37.85 287,-29.13"/>
<polygon fill="#63b8ff" stroke="#63b8ff" points="290.5,-29.09 287,-19.09 283.5,-29.09 290.5,-29.09"/>
</g>
<!-- Node8&#45;&gt;Node6 -->
<g id="edge10" class="edge">
<title>Node8&#45;&gt;Node6</title>
<path fill="none" stroke="#63b8ff" d="M86.83,-109.89C113.8,-95.78 156.62,-73.56 194,-55 215.98,-44.09 241.09,-32.1 259.67,-23.32"/>
<polygon fill="#63b8ff" stroke="#63b8ff" points="261.19,-26.47 268.75,-19.04 258.21,-20.14 261.19,-26.47"/>
</g>
<!-- Node8&#45;&gt;Node7 -->
<g id="edge11" class="edge">
<title>Node8&#45;&gt;Node7</title>
<path fill="none" stroke="#63b8ff" d="M114.37,-109.99C154.06,-99.76 207.12,-86.09 243.89,-76.61"/>
<polygon fill="#63b8ff" stroke="#63b8ff" points="245,-79.94 253.81,-74.05 243.25,-73.16 245,-79.94"/>
</g>
<!-- Node9&#45;&gt;Node4 -->
<g id="edge21" class="edge">
<title>Node9&#45;&gt;Node4</title>
<path fill="none" stroke="#63b8ff" d="M495.63,-247.44C440.46,-237.02 346.45,-219.27 279.67,-206.66"/>
<polygon fill="#63b8ff" stroke="#63b8ff" points="280.09,-203.18 269.61,-204.76 278.79,-210.06 280.09,-203.18"/>
</g>
<!-- Node9&#45;&gt;Node6 -->
<g id="edge13" class="edge">
<title>Node9&#45;&gt;Node6</title>
<path fill="none" stroke="#63b8ff" d="M580.19,-247.48C629.45,-236.38 708.62,-217.09 717,-206 725.04,-195.36 722.37,-188.2 717,-176 650.62,-25.1 412.44,-9.9 322.09,-9.71"/>
<polygon fill="#63b8ff" stroke="#63b8ff" points="322.06,-6.21 312.07,-9.75 322.09,-13.21 322.06,-6.21"/>
</g>
<!-- Node10 -->
<g id="node10" class="node">
<title>Node10</title>
<g id="a_node10"><a xlink:title=" ">
<polygon fill="#e0e0e0" stroke="#999999" points="707.5,-200.5 660.5,-200.5 660.5,-181.5 707.5,-181.5 707.5,-200.5"/>
<text text-anchor="middle" x="684" y="-188.5" font-family="Helvetica,sans-Serif" font-size="10.00">cmath</text>
</a>
</g>
</g>
<!-- Node9&#45;&gt;Node10 -->
<g id="edge14" class="edge">
<title>Node9&#45;&gt;Node10</title>
<path fill="none" stroke="#63b8ff" d="M560.29,-247.37C584.7,-236.44 626.97,-217.52 655.21,-204.88"/>
<polygon fill="#63b8ff" stroke="#63b8ff" points="656.87,-207.98 664.56,-200.7 654.01,-201.59 656.87,-207.98"/>
</g>
<!-- Node11 -->
<g id="node11" class="node">
<title>Node11</title>
<g id="a_node11"><a xlink:title=" ">
<polygon fill="#e0e0e0" stroke="#999999" points="636,-134.5 592,-134.5 592,-115.5 636,-115.5 636,-134.5"/>
<text text-anchor="middle" x="614" y="-122.5" font-family="Helvetica,sans-Serif" font-size="10.00">limits</text>
</a>
</g>
</g>
<!-- Node9&#45;&gt;Node11 -->
<g id="edge15" class="edge">
<title>Node9&#45;&gt;Node11</title>
<path fill="none" stroke="#63b8ff" d="M562.29,-247.48C579.09,-239.5 601.41,-225.81 612,-206 622.11,-187.09 620.76,-161.89 618.09,-144.87"/>
<polygon fill="#63b8ff" stroke="#63b8ff" points="621.44,-143.75 616.15,-134.57 614.56,-145.04 621.44,-143.75"/>
</g>
<!-- Node12 -->
<g id="node12" class="node">
<title>Node12</title>
<g id="a_node12"><a xlink:href="integrator_8hpp.html" target="_top" xlink:title="積分器ライブラリ">
<polygon fill="white" stroke="#666666" points="460,-200.5 288,-200.5 288,-181.5 460,-181.5 460,-200.5"/>
<text text-anchor="middle" x="374" y="-188.5" font-family="Helvetica,sans-Serif" font-size="10.00">alps_cmn/control/integrator.hpp</text>
</a>
</g>
</g>
<!-- Node9&#45;&gt;Node12 -->
<g id="edge16" class="edge">
<title>Node9&#45;&gt;Node12</title>
<path fill="none" stroke="#63b8ff" d="M518.48,-247.37C489.51,-236.27 439.02,-216.92 406.06,-204.28"/>
<polygon fill="#63b8ff" stroke="#63b8ff" points="407.02,-200.91 396.43,-200.6 404.52,-207.44 407.02,-200.91"/>
</g>
<!-- Node14 -->
<g id="node14" class="node">
<title>Node14</title>
<g id="a_node14"><a xlink:href="numeric__range_8hpp.html" target="_top" xlink:title="数値の範囲を扱うクラス">
<polygon fill="white" stroke="#666666" points="603.5,-206 478.5,-206 478.5,-176 603.5,-176 603.5,-206"/>
<text text-anchor="start" x="486.5" y="-194" font-family="Helvetica,sans-Serif" font-size="10.00">alps_cmn/util/numeric</text>
<text text-anchor="middle" x="541" y="-183" font-family="Helvetica,sans-Serif" font-size="10.00">_range.hpp</text>
</a>
</g>
</g>
<!-- Node9&#45;&gt;Node14 -->
<g id="edge22" class="edge">
<title>Node9&#45;&gt;Node14</title>
<path fill="none" stroke="#63b8ff" d="M541,-247.37C541,-239.49 541,-227.45 541,-216.6"/>
<polygon fill="#63b8ff" stroke="#63b8ff" points="544.5,-216.36 541,-206.36 537.5,-216.36 544.5,-216.36"/>
</g>
<!-- Node12&#45;&gt;Node6 -->
<g id="edge17" class="edge">
<title>Node12&#45;&gt;Node6</title>
<path fill="none" stroke="#63b8ff" d="M376.7,-181.27C383.18,-158.48 397.31,-96.12 372,-55 360.97,-37.08 340.14,-26.01 321.86,-19.4"/>
<polygon fill="#63b8ff" stroke="#63b8ff" points="322.91,-16.06 312.32,-16.25 320.72,-22.71 322.91,-16.06"/>
</g>
<!-- Node12&#45;&gt;Node7 -->
<g id="edge20" class="edge">
<title>Node12&#45;&gt;Node7</title>
<path fill="none" stroke="#63b8ff" d="M371.05,-181.49C365.5,-166.22 352.49,-133.58 335,-110 326.83,-98.99 315.7,-88.47 306.21,-80.43"/>
<polygon fill="#63b8ff" stroke="#63b8ff" points="308.37,-77.67 298.41,-74.05 303.94,-83.09 308.37,-77.67"/>
</g>
<!-- Node12&#45;&gt;Node11 -->
<g id="edge18" class="edge">
<title>Node12&#45;&gt;Node11</title>
<path fill="none" stroke="#63b8ff" d="M419.69,-181.44C462.27,-172.89 527.26,-158.39 582,-140 583.44,-139.52 584.9,-139 586.37,-138.45"/>
<polygon fill="#63b8ff" stroke="#63b8ff" points="587.99,-141.56 595.94,-134.56 585.36,-135.08 587.99,-141.56"/>
</g>
<!-- Node13 -->
<g id="node13" class="node">
<title>Node13</title>
<g id="a_node13"><a xlink:href="algorithm_8hpp.html" target="_top" xlink:title=" ">
<polygon fill="white" stroke="#666666" points="573.5,-134.5 420.5,-134.5 420.5,-115.5 573.5,-115.5 573.5,-134.5"/>
<text text-anchor="middle" x="497" y="-122.5" font-family="Helvetica,sans-Serif" font-size="10.00">alps_cmn/util/algorithm.hpp</text>
</a>
</g>
</g>
<!-- Node12&#45;&gt;Node13 -->
<g id="edge19" class="edge">
<title>Node12&#45;&gt;Node13</title>
<path fill="none" stroke="#63b8ff" d="M390.59,-181.37C411.31,-170.59 447,-152.02 471.28,-139.38"/>
<polygon fill="#63b8ff" stroke="#63b8ff" points="473.03,-142.42 480.28,-134.7 469.8,-136.21 473.03,-142.42"/>
</g>
<!-- Node14&#45;&gt;Node11 -->
<g id="edge23" class="edge">
<title>Node14&#45;&gt;Node11</title>
<path fill="none" stroke="#63b8ff" d="M557.2,-175.8C568.8,-165.62 584.42,-151.93 596.34,-141.48"/>
<polygon fill="#63b8ff" stroke="#63b8ff" points="598.7,-144.07 603.91,-134.84 594.09,-138.8 598.7,-144.07"/>
</g>
<!-- Node14&#45;&gt;Node13 -->
<g id="edge24" class="edge">
<title>Node14&#45;&gt;Node13</title>
<path fill="none" stroke="#63b8ff" d="M531.23,-175.8C524.64,-166.21 515.91,-153.5 508.91,-143.32"/>
<polygon fill="#63b8ff" stroke="#63b8ff" points="511.63,-141.1 503.08,-134.84 505.86,-145.07 511.63,-141.1"/>
</g>
<!-- Node16&#45;&gt;Node2 -->
<g id="edge27" class="edge">
<title>Node16&#45;&gt;Node2</title>
<path fill="none" stroke="#63b8ff" d="M573.43,-307.95C529.47,-297.76 470.01,-283.97 424.69,-273.46"/>
<polygon fill="#63b8ff" stroke="#63b8ff" points="425.19,-269.99 414.66,-271.14 423.61,-276.81 425.19,-269.99"/>
</g>
<!-- Node16&#45;&gt;Node9 -->
<g id="edge28" class="edge">
<title>Node16&#45;&gt;Node9</title>
<path fill="none" stroke="#63b8ff" d="M613.36,-307.8C598.06,-297.27 577.29,-282.97 561.92,-272.4"/>
<polygon fill="#63b8ff" stroke="#63b8ff" points="563.8,-269.44 553.58,-266.66 559.84,-275.21 563.8,-269.44"/>
</g>
<!-- Node16&#45;&gt;Node15 -->
<g id="edge29" class="edge">
<title>Node16&#45;&gt;Node15</title>
<path fill="none" stroke="#63b8ff" d="M648.2,-307.8C656.57,-299.43 667.32,-288.68 676.69,-279.31"/>
<polygon fill="#63b8ff" stroke="#63b8ff" points="679.24,-281.71 683.84,-272.16 674.29,-276.76 679.24,-281.71"/>
</g>
</g>
</svg>
