<?xml version="1.0" encoding="UTF-8" standalone="no"?>
<!DOCTYPE svg PUBLIC "-//W3C//DTD SVG 1.1//EN"
 "http://www.w3.org/Graphics/SVG/1.1/DTD/svg11.dtd">
<!-- Generated by graphviz version 2.43.0 (0)
 -->
<!-- Title: alps_common_lib/include/alps_cmn/control/motor_velocity_controller.hpp Pages: 1 -->
<svg width="785pt" height="296pt"
 viewBox="0.00 0.00 785.04 296.00" xmlns="http://www.w3.org/2000/svg" xmlns:xlink="http://www.w3.org/1999/xlink">
<g id="graph0" class="graph" transform="scale(1 1) rotate(0) translate(4 292)">
<title>alps_common_lib/include/alps_cmn/control/motor_velocity_controller.hpp</title>
<polygon fill="white" stroke="transparent" points="-4,4 -4,-292 781.04,-292 781.04,4 -4,4"/>
<!-- Node1 -->
<g id="node1" class="node">
<title>Node1</title>
<g id="a_node1"><a xlink:title=" ">
<polygon fill="#bfbfbf" stroke="black" points="464.04,-246.5 464.04,-287.5 604.04,-287.5 604.04,-246.5 464.04,-246.5"/>
<text text-anchor="start" x="472.04" y="-275.5" font-family="Helvetica,sans-Serif" font-size="10.00">alps_common_lib/include</text>
<text text-anchor="start" x="472.04" y="-264.5" font-family="Helvetica,sans-Serif" font-size="10.00">/alps_cmn/control/motor</text>
<text text-anchor="middle" x="534.04" y="-253.5" font-family="Helvetica,sans-Serif" font-size="10.00">_velocity_controller.hpp</text>
</a>
</g>
</g>
<!-- Node2 -->
<g id="node2" class="node">
<title>Node2</title>
<g id="a_node2"><a xlink:href="i__motor_8hpp.html" target="_top" xlink:title=" ">
<polygon fill="white" stroke="black" points="224.54,-179.5 224.54,-209.5 337.54,-209.5 337.54,-179.5 224.54,-179.5"/>
<text text-anchor="start" x="232.54" y="-197.5" font-family="Helvetica,sans-Serif" font-size="10.00">alps_cmn/actuator/i</text>
<text text-anchor="middle" x="281.04" y="-186.5" font-family="Helvetica,sans-Serif" font-size="10.00">_motor.hpp</text>
</a>
</g>
</g>
<!-- Node1&#45;&gt;Node2 -->
<g id="edge1" class="edge">
<title>Node1&#45;&gt;Node2</title>
<path fill="none" stroke="midnightblue" d="M463.91,-246.46C425.54,-235.77 378.48,-222.65 341.71,-212.41"/>
<polygon fill="midnightblue" stroke="midnightblue" points="342.2,-208.91 331.63,-209.6 340.33,-215.65 342.2,-208.91"/>
</g>
<!-- Node3 -->
<g id="node3" class="node">
<title>Node3</title>
<g id="a_node3"><a xlink:href="differentiator_8hpp.html" target="_top" xlink:title="微分器ライブラリ">
<polygon fill="white" stroke="black" points="452.54,-118 452.54,-137 639.54,-137 639.54,-118 452.54,-118"/>
<text text-anchor="middle" x="546.04" y="-125" font-family="Helvetica,sans-Serif" font-size="10.00">alps_cmn/control/differentiator.hpp</text>
</a>
</g>
</g>
<!-- Node1&#45;&gt;Node3 -->
<g id="edge2" class="edge">
<title>Node1&#45;&gt;Node3</title>
<path fill="none" stroke="midnightblue" d="M535.76,-246.3C538.08,-219.78 542.17,-172.94 544.43,-147.03"/>
<polygon fill="midnightblue" stroke="midnightblue" points="547.92,-147.3 545.3,-137.04 540.94,-146.7 547.92,-147.3"/>
</g>
<!-- Node6 -->
<g id="node6" class="node">
<title>Node6</title>
<g id="a_node6"><a xlink:href="low__pass__filter_8hpp.html" target="_top" xlink:title="ローパスフィルタのクラス">
<polygon fill="white" stroke="black" points="657.04,-112.5 657.04,-142.5 777.04,-142.5 777.04,-112.5 657.04,-112.5"/>
<text text-anchor="start" x="665.04" y="-130.5" font-family="Helvetica,sans-Serif" font-size="10.00">alps_cmn/control/low</text>
<text text-anchor="middle" x="717.04" y="-119.5" font-family="Helvetica,sans-Serif" font-size="10.00">_pass_filter.hpp</text>
</a>
</g>
</g>
<!-- Node1&#45;&gt;Node6 -->
<g id="edge6" class="edge">
<title>Node1&#45;&gt;Node6</title>
<path fill="none" stroke="midnightblue" d="M542.89,-246.21C552.5,-226.74 569.52,-197.34 592.04,-179 609.83,-164.52 632.31,-153.72 653.29,-145.92"/>
<polygon fill="midnightblue" stroke="midnightblue" points="654.56,-149.18 662.81,-142.54 652.21,-142.59 654.56,-149.18"/>
</g>
<!-- Node7 -->
<g id="node7" class="node">
<title>Node7</title>
<g id="a_node7"><a xlink:href="pid_8hpp.html" target="_top" xlink:title=" ">
<polygon fill="white" stroke="black" points="355.54,-185 355.54,-204 494.54,-204 494.54,-185 355.54,-185"/>
<text text-anchor="middle" x="425.04" y="-192" font-family="Helvetica,sans-Serif" font-size="10.00">alps_cmn/control/pid.hpp</text>
</a>
</g>
</g>
<!-- Node1&#45;&gt;Node7 -->
<g id="edge9" class="edge">
<title>Node1&#45;&gt;Node7</title>
<path fill="none" stroke="midnightblue" d="M503.68,-246.36C485.78,-234.78 463.52,-220.39 447.26,-209.87"/>
<polygon fill="midnightblue" stroke="midnightblue" points="448.75,-206.67 438.45,-204.17 444.95,-212.54 448.75,-206.67"/>
</g>
<!-- Node13 -->
<g id="node13" class="node">
<title>Node13</title>
<g id="a_node13"><a xlink:href="i__rotary__sensor_8hpp.html" target="_top" xlink:title=" ">
<polygon fill="white" stroke="black" points="600.54,-179.5 600.54,-209.5 739.54,-209.5 739.54,-179.5 600.54,-179.5"/>
<text text-anchor="start" x="608.54" y="-197.5" font-family="Helvetica,sans-Serif" font-size="10.00">alps_cmn/sensor/i_rotary</text>
<text text-anchor="middle" x="670.04" y="-186.5" font-family="Helvetica,sans-Serif" font-size="10.00">_sensor.hpp</text>
</a>
</g>
</g>
<!-- Node1&#45;&gt;Node13 -->
<g id="edge23" class="edge">
<title>Node1&#45;&gt;Node13</title>
<path fill="none" stroke="midnightblue" d="M571.93,-246.36C591.24,-236.35 614.63,-224.23 633.72,-214.33"/>
<polygon fill="midnightblue" stroke="midnightblue" points="635.44,-217.38 642.71,-209.67 632.22,-211.16 635.44,-217.38"/>
</g>
<!-- Node4 -->
<g id="node4" class="node">
<title>Node4</title>
<g id="a_node4"><a xlink:title=" ">
<polygon fill="white" stroke="#bfbfbf" points="438.04,-0.5 438.04,-19.5 488.04,-19.5 488.04,-0.5 438.04,-0.5"/>
<text text-anchor="middle" x="463.04" y="-7.5" font-family="Helvetica,sans-Serif" font-size="10.00">chrono</text>
</a>
</g>
</g>
<!-- Node3&#45;&gt;Node4 -->
<g id="edge3" class="edge">
<title>Node3&#45;&gt;Node4</title>
<path fill="none" stroke="midnightblue" d="M530.61,-117.85C516.31,-109.07 495.41,-94.2 483.04,-76 473.61,-62.11 468.49,-43.6 465.79,-29.88"/>
<polygon fill="midnightblue" stroke="midnightblue" points="469.19,-28.97 464.06,-19.7 462.29,-30.14 469.19,-28.97"/>
</g>
<!-- Node5 -->
<g id="node5" class="node">
<title>Node5</title>
<g id="a_node5"><a xlink:href="duration_8hpp.html" target="_top" xlink:title="時間間隔の型エイリアス">
<polygon fill="white" stroke="black" points="491.54,-56.5 491.54,-75.5 644.54,-75.5 644.54,-56.5 491.54,-56.5"/>
<text text-anchor="middle" x="568.04" y="-63.5" font-family="Helvetica,sans-Serif" font-size="10.00">alps_cmn/time/duration.hpp</text>
</a>
</g>
</g>
<!-- Node3&#45;&gt;Node5 -->
<g id="edge4" class="edge">
<title>Node3&#45;&gt;Node5</title>
<path fill="none" stroke="midnightblue" d="M549.2,-117.98C552.37,-109.4 557.35,-95.93 561.39,-84.98"/>
<polygon fill="midnightblue" stroke="midnightblue" points="564.71,-86.1 564.9,-75.51 558.15,-83.67 564.71,-86.1"/>
</g>
<!-- Node5&#45;&gt;Node4 -->
<g id="edge5" class="edge">
<title>Node5&#45;&gt;Node4</title>
<path fill="none" stroke="midnightblue" d="M551.17,-56.32C534.34,-47.66 508.24,-34.24 488.81,-24.25"/>
<polygon fill="midnightblue" stroke="midnightblue" points="490.37,-21.12 479.87,-19.65 487.16,-27.34 490.37,-21.12"/>
</g>
<!-- Node6&#45;&gt;Node4 -->
<g id="edge7" class="edge">
<title>Node6&#45;&gt;Node4</title>
<path fill="none" stroke="midnightblue" d="M708.23,-112.23C697.47,-96.05 677.75,-70.09 654.04,-56 605.12,-26.91 538.71,-16.62 498.47,-12.99"/>
<polygon fill="midnightblue" stroke="midnightblue" points="498.59,-9.49 488.34,-12.16 498.02,-16.46 498.59,-9.49"/>
</g>
<!-- Node6&#45;&gt;Node5 -->
<g id="edge8" class="edge">
<title>Node6&#45;&gt;Node5</title>
<path fill="none" stroke="midnightblue" d="M681.73,-112.4C656.62,-102.37 623.21,-89.03 599.11,-79.4"/>
<polygon fill="midnightblue" stroke="midnightblue" points="600.31,-76.12 589.72,-75.66 597.71,-82.62 600.31,-76.12"/>
</g>
<!-- Node7&#45;&gt;Node3 -->
<g id="edge13" class="edge">
<title>Node7&#45;&gt;Node3</title>
<path fill="none" stroke="midnightblue" d="M441.36,-184.73C461.86,-173.72 497.25,-154.71 521.14,-141.88"/>
<polygon fill="midnightblue" stroke="midnightblue" points="522.83,-144.94 529.98,-137.13 519.52,-138.78 522.83,-144.94"/>
</g>
<!-- Node7&#45;&gt;Node4 -->
<g id="edge10" class="edge">
<title>Node7&#45;&gt;Node4</title>
<path fill="none" stroke="midnightblue" d="M426.88,-184.7C432.73,-156.57 451.08,-68.46 459.16,-29.66"/>
<polygon fill="midnightblue" stroke="midnightblue" points="462.62,-30.22 461.23,-19.71 455.76,-28.79 462.62,-30.22"/>
</g>
<!-- Node7&#45;&gt;Node6 -->
<g id="edge19" class="edge">
<title>Node7&#45;&gt;Node6</title>
<path fill="none" stroke="midnightblue" d="M463.52,-184.94C510.05,-174.58 589.28,-156.94 646.8,-144.14"/>
<polygon fill="midnightblue" stroke="midnightblue" points="647.92,-147.47 656.92,-141.88 646.39,-140.64 647.92,-147.47"/>
</g>
<!-- Node8 -->
<g id="node8" class="node">
<title>Node8</title>
<g id="a_node8"><a xlink:title=" ">
<polygon fill="white" stroke="#bfbfbf" points="17.54,-118 17.54,-137 64.54,-137 64.54,-118 17.54,-118"/>
<text text-anchor="middle" x="41.04" y="-125" font-family="Helvetica,sans-Serif" font-size="10.00">cmath</text>
</a>
</g>
</g>
<!-- Node7&#45;&gt;Node8 -->
<g id="edge11" class="edge">
<title>Node7&#45;&gt;Node8</title>
<path fill="none" stroke="midnightblue" d="M381.39,-184.96C370.21,-182.9 358.2,-180.77 347.04,-179 226.17,-159.81 191.91,-175.94 74.04,-143 71.89,-142.4 69.69,-141.68 67.51,-140.89"/>
<polygon fill="midnightblue" stroke="midnightblue" points="68.76,-137.62 58.17,-137.12 66.14,-144.11 68.76,-137.62"/>
</g>
<!-- Node9 -->
<g id="node9" class="node">
<title>Node9</title>
<g id="a_node9"><a xlink:title=" ">
<polygon fill="white" stroke="#bfbfbf" points="123.04,-56.5 123.04,-75.5 167.04,-75.5 167.04,-56.5 123.04,-56.5"/>
<text text-anchor="middle" x="145.04" y="-63.5" font-family="Helvetica,sans-Serif" font-size="10.00">limits</text>
</a>
</g>
</g>
<!-- Node7&#45;&gt;Node9 -->
<g id="edge12" class="edge">
<title>Node7&#45;&gt;Node9</title>
<path fill="none" stroke="midnightblue" d="M382.64,-185C371.12,-182.86 358.63,-180.69 347.04,-179 272.08,-168.07 58.7,-199.33 8.04,-143 -25.92,-105.24 62.54,-82.13 112.91,-72.39"/>
<polygon fill="midnightblue" stroke="midnightblue" points="113.83,-75.78 123.02,-70.51 112.55,-68.9 113.83,-75.78"/>
</g>
<!-- Node10 -->
<g id="node10" class="node">
<title>Node10</title>
<g id="a_node10"><a xlink:href="integrator_8hpp.html" target="_top" xlink:title="積分器ライブラリ">
<polygon fill="white" stroke="black" points="225.54,-118 225.54,-137 396.54,-137 396.54,-118 225.54,-118"/>
<text text-anchor="middle" x="311.04" y="-125" font-family="Helvetica,sans-Serif" font-size="10.00">alps_cmn/control/integrator.hpp</text>
</a>
</g>
</g>
<!-- Node7&#45;&gt;Node10 -->
<g id="edge14" class="edge">
<title>Node7&#45;&gt;Node10</title>
<path fill="none" stroke="midnightblue" d="M409.67,-184.73C390.52,-173.82 357.61,-155.05 335.11,-142.22"/>
<polygon fill="midnightblue" stroke="midnightblue" points="336.6,-139.04 326.17,-137.13 333.13,-145.12 336.6,-139.04"/>
</g>
<!-- Node12 -->
<g id="node12" class="node">
<title>Node12</title>
<g id="a_node12"><a xlink:href="numeric__range_8hpp.html" target="_top" xlink:title="数値の範囲を扱うクラス">
<polygon fill="white" stroke="black" points="82.54,-112.5 82.54,-142.5 207.54,-142.5 207.54,-112.5 82.54,-112.5"/>
<text text-anchor="start" x="90.54" y="-130.5" font-family="Helvetica,sans-Serif" font-size="10.00">alps_cmn/util/numeric</text>
<text text-anchor="middle" x="145.04" y="-119.5" font-family="Helvetica,sans-Serif" font-size="10.00">_range.hpp</text>
</a>
</g>
</g>
<!-- Node7&#45;&gt;Node12 -->
<g id="edge20" class="edge">
<title>Node7&#45;&gt;Node12</title>
<path fill="none" stroke="midnightblue" d="M388.15,-184.94C344.39,-174.78 270.48,-157.62 215.62,-144.88"/>
<polygon fill="midnightblue" stroke="midnightblue" points="216.14,-141.41 205.61,-142.56 214.56,-148.23 216.14,-141.41"/>
</g>
<!-- Node10&#45;&gt;Node4 -->
<g id="edge15" class="edge">
<title>Node10&#45;&gt;Node4</title>
<path fill="none" stroke="midnightblue" d="M322.47,-117.82C348.22,-98.25 411.04,-50.52 443.26,-26.03"/>
<polygon fill="midnightblue" stroke="midnightblue" points="445.64,-28.62 451.49,-19.78 441.41,-23.05 445.64,-28.62"/>
</g>
<!-- Node10&#45;&gt;Node5 -->
<g id="edge18" class="edge">
<title>Node10&#45;&gt;Node5</title>
<path fill="none" stroke="midnightblue" d="M347.87,-117.98C393.57,-107.39 471.57,-89.34 521.41,-77.8"/>
<polygon fill="midnightblue" stroke="midnightblue" points="522.34,-81.17 531.29,-75.51 520.76,-74.35 522.34,-81.17"/>
</g>
<!-- Node10&#45;&gt;Node9 -->
<g id="edge16" class="edge">
<title>Node10&#45;&gt;Node9</title>
<path fill="none" stroke="midnightblue" d="M287.26,-117.98C258.17,-107.55 208.85,-89.87 176.61,-78.31"/>
<polygon fill="midnightblue" stroke="midnightblue" points="177.79,-75.02 167.19,-74.94 175.42,-81.61 177.79,-75.02"/>
</g>
<!-- Node11 -->
<g id="node11" class="node">
<title>Node11</title>
<g id="a_node11"><a xlink:href="algorithm_8hpp.html" target="_top" xlink:title=" ">
<polygon fill="white" stroke="black" points="190.54,-56.5 190.54,-75.5 343.54,-75.5 343.54,-56.5 190.54,-56.5"/>
<text text-anchor="middle" x="267.04" y="-63.5" font-family="Helvetica,sans-Serif" font-size="10.00">alps_cmn/util/algorithm.hpp</text>
</a>
</g>
</g>
<!-- Node10&#45;&gt;Node11 -->
<g id="edge17" class="edge">
<title>Node10&#45;&gt;Node11</title>
<path fill="none" stroke="midnightblue" d="M304.74,-117.98C298.14,-109.05 287.61,-94.81 279.35,-83.64"/>
<polygon fill="midnightblue" stroke="midnightblue" points="282.1,-81.47 273.34,-75.51 276.47,-85.63 282.1,-81.47"/>
</g>
<!-- Node12&#45;&gt;Node9 -->
<g id="edge21" class="edge">
<title>Node12&#45;&gt;Node9</title>
<path fill="none" stroke="midnightblue" d="M145.04,-112.4C145.04,-104.47 145.04,-94.46 145.04,-85.86"/>
<polygon fill="midnightblue" stroke="midnightblue" points="148.54,-85.66 145.04,-75.66 141.54,-85.66 148.54,-85.66"/>
</g>
<!-- Node12&#45;&gt;Node11 -->
<g id="edge22" class="edge">
<title>Node12&#45;&gt;Node11</title>
<path fill="none" stroke="midnightblue" d="M173.96,-112.4C194.06,-102.59 220.66,-89.62 240.28,-80.05"/>
<polygon fill="midnightblue" stroke="midnightblue" points="241.84,-83.19 249.29,-75.66 238.77,-76.9 241.84,-83.19"/>
</g>
</g>
</svg>
