<?xml version="1.0" encoding="UTF-8" standalone="no"?>
<!DOCTYPE svg PUBLIC "-//W3C//DTD SVG 1.1//EN"
 "http://www.w3.org/Graphics/SVG/1.1/DTD/svg11.dtd">
<!-- Generated by graphviz version 2.43.0 (0)
 -->
<!-- Title: alps_common_lib/include/alps_cmn/control/motor_velocity_controller.hpp Pages: 1 -->
<svg width="774pt" height="363pt"
 viewBox="0.00 0.00 773.50 363.00" xmlns="http://www.w3.org/2000/svg" xmlns:xlink="http://www.w3.org/1999/xlink">
<g id="graph0" class="graph" transform="scale(1 1) rotate(0) translate(4 359)">
<title>alps_common_lib/include/alps_cmn/control/motor_velocity_controller.hpp</title>
<polygon fill="white" stroke="transparent" points="-4,4 -4,-359 769.5,-359 769.5,4 -4,4"/>
<!-- Node1 -->
<g id="node1" class="node">
<title>Node1</title>
<g id="a_node1"><a xlink:title=" ">
<polygon fill="#bfbfbf" stroke="black" points="420,-313.5 420,-354.5 560,-354.5 560,-313.5 420,-313.5"/>
<text text-anchor="start" x="428" y="-342.5" font-family="Helvetica,sans-Serif" font-size="10.00">alps_common_lib/include</text>
<text text-anchor="start" x="428" y="-331.5" font-family="Helvetica,sans-Serif" font-size="10.00">/alps_cmn/control/motor</text>
<text text-anchor="middle" x="490" y="-320.5" font-family="Helvetica,sans-Serif" font-size="10.00">_velocity_controller.hpp</text>
</a>
</g>
</g>
<!-- Node2 -->
<g id="node2" class="node">
<title>Node2</title>
<g id="a_node2"><a xlink:href="i__motor_8hpp.html" target="_top" xlink:title=" ">
<polygon fill="white" stroke="black" points="299.5,-246.5 299.5,-276.5 412.5,-276.5 412.5,-246.5 299.5,-246.5"/>
<text text-anchor="start" x="307.5" y="-264.5" font-family="Helvetica,sans-Serif" font-size="10.00">alps_cmn/actuator/i</text>
<text text-anchor="middle" x="356" y="-253.5" font-family="Helvetica,sans-Serif" font-size="10.00">_motor.hpp</text>
</a>
</g>
</g>
<!-- Node1&#45;&gt;Node2 -->
<g id="edge1" class="edge">
<title>Node1&#45;&gt;Node2</title>
<path fill="none" stroke="midnightblue" d="M452.67,-313.36C433.64,-303.35 410.6,-291.23 391.79,-281.33"/>
<polygon fill="midnightblue" stroke="midnightblue" points="393.41,-278.23 382.93,-276.67 390.15,-284.42 393.41,-278.23"/>
</g>
<!-- Node3 -->
<g id="node3" class="node">
<title>Node3</title>
<g id="a_node3"><a xlink:href="low__pass__differentiator_8hpp.html" target="_top" xlink:title=" ">
<polygon fill="white" stroke="black" points="135,-179.5 135,-209.5 269,-209.5 269,-179.5 135,-179.5"/>
<text text-anchor="start" x="143" y="-197.5" font-family="Helvetica,sans-Serif" font-size="10.00">alps_cmn/control/low</text>
<text text-anchor="middle" x="202" y="-186.5" font-family="Helvetica,sans-Serif" font-size="10.00">_pass_differentiator.hpp</text>
</a>
</g>
</g>
<!-- Node1&#45;&gt;Node3 -->
<g id="edge2" class="edge">
<title>Node1&#45;&gt;Node3</title>
<path fill="none" stroke="midnightblue" d="M479.6,-313.17C468.02,-293.09 447.4,-262.68 421,-246 408.76,-238.27 337.11,-222.53 279.04,-210.66"/>
<polygon fill="midnightblue" stroke="midnightblue" points="279.61,-207.21 269.11,-208.65 278.22,-214.07 279.61,-207.21"/>
</g>
<!-- Node8 -->
<g id="node8" class="node">
<title>Node8</title>
<g id="a_node8"><a xlink:href="pid_8hpp.html" target="_top" xlink:title=" ">
<polygon fill="white" stroke="black" points="469.5,-252 469.5,-271 608.5,-271 608.5,-252 469.5,-252"/>
<text text-anchor="middle" x="539" y="-259" font-family="Helvetica,sans-Serif" font-size="10.00">alps_cmn/control/pid.hpp</text>
</a>
</g>
</g>
<!-- Node1&#45;&gt;Node8 -->
<g id="edge10" class="edge">
<title>Node1&#45;&gt;Node8</title>
<path fill="none" stroke="midnightblue" d="M503.65,-313.36C511.02,-302.76 520.03,-289.79 527.12,-279.6"/>
<polygon fill="midnightblue" stroke="midnightblue" points="530.14,-281.38 532.97,-271.17 524.39,-277.39 530.14,-281.38"/>
</g>
<!-- Node14 -->
<g id="node14" class="node">
<title>Node14</title>
<g id="a_node14"><a xlink:href="i__rotary__sensor_8hpp.html" target="_top" xlink:title=" ">
<polygon fill="white" stroke="black" points="626.5,-246.5 626.5,-276.5 765.5,-276.5 765.5,-246.5 626.5,-246.5"/>
<text text-anchor="start" x="634.5" y="-264.5" font-family="Helvetica,sans-Serif" font-size="10.00">alps_cmn/sensor/i_rotary</text>
<text text-anchor="middle" x="696" y="-253.5" font-family="Helvetica,sans-Serif" font-size="10.00">_sensor.hpp</text>
</a>
</g>
</g>
<!-- Node1&#45;&gt;Node14 -->
<g id="edge23" class="edge">
<title>Node1&#45;&gt;Node14</title>
<path fill="none" stroke="midnightblue" d="M547.11,-313.46C577.81,-302.95 615.35,-290.1 645.06,-279.93"/>
<polygon fill="midnightblue" stroke="midnightblue" points="646.48,-283.15 654.81,-276.6 644.21,-276.52 646.48,-283.15"/>
</g>
<!-- Node4 -->
<g id="node4" class="node">
<title>Node4</title>
<g id="a_node4"><a xlink:href="differentiator_8hpp.html" target="_top" xlink:title="微分器ライブラリ">
<polygon fill="white" stroke="black" points="138.5,-118 138.5,-137 325.5,-137 325.5,-118 138.5,-118"/>
<text text-anchor="middle" x="232" y="-125" font-family="Helvetica,sans-Serif" font-size="10.00">alps_cmn/control/differentiator.hpp</text>
</a>
</g>
</g>
<!-- Node3&#45;&gt;Node4 -->
<g id="edge3" class="edge">
<title>Node3&#45;&gt;Node4</title>
<path fill="none" stroke="midnightblue" d="M208.51,-179.4C212.96,-169.76 218.89,-156.91 223.68,-146.54"/>
<polygon fill="midnightblue" stroke="midnightblue" points="226.97,-147.74 227.99,-137.19 220.62,-144.81 226.97,-147.74"/>
</g>
<!-- Node7 -->
<g id="node7" class="node">
<title>Node7</title>
<g id="a_node7"><a xlink:href="low__pass__filter_8hpp.html" target="_top" xlink:title="ローパスフィルタのクラス">
<polygon fill="white" stroke="black" points="0,-112.5 0,-142.5 120,-142.5 120,-112.5 0,-112.5"/>
<text text-anchor="start" x="8" y="-130.5" font-family="Helvetica,sans-Serif" font-size="10.00">alps_cmn/control/low</text>
<text text-anchor="middle" x="60" y="-119.5" font-family="Helvetica,sans-Serif" font-size="10.00">_pass_filter.hpp</text>
</a>
</g>
</g>
<!-- Node3&#45;&gt;Node7 -->
<g id="edge7" class="edge">
<title>Node3&#45;&gt;Node7</title>
<path fill="none" stroke="midnightblue" d="M171.19,-179.4C150.35,-169.86 122.62,-157.16 100.07,-146.84"/>
<polygon fill="midnightblue" stroke="midnightblue" points="101.3,-143.56 90.75,-142.58 98.39,-149.92 101.3,-143.56"/>
</g>
<!-- Node5 -->
<g id="node5" class="node">
<title>Node5</title>
<g id="a_node5"><a xlink:title=" ">
<polygon fill="white" stroke="#bfbfbf" points="261,-0.5 261,-19.5 311,-19.5 311,-0.5 261,-0.5"/>
<text text-anchor="middle" x="286" y="-7.5" font-family="Helvetica,sans-Serif" font-size="10.00">chrono</text>
</a>
</g>
</g>
<!-- Node4&#45;&gt;Node5 -->
<g id="edge4" class="edge">
<title>Node4&#45;&gt;Node5</title>
<path fill="none" stroke="midnightblue" d="M222.79,-117.93C209.33,-104.32 187.19,-77.16 200,-56 211.1,-37.67 232.38,-26.45 251,-19.79"/>
<polygon fill="midnightblue" stroke="midnightblue" points="252.28,-23.06 260.71,-16.63 250.12,-16.4 252.28,-23.06"/>
</g>
<!-- Node6 -->
<g id="node6" class="node">
<title>Node6</title>
<g id="a_node6"><a xlink:href="duration_8hpp.html" target="_top" xlink:title="時間間隔の型エイリアス">
<polygon fill="white" stroke="black" points="209.5,-56.5 209.5,-75.5 362.5,-75.5 362.5,-56.5 209.5,-56.5"/>
<text text-anchor="middle" x="286" y="-63.5" font-family="Helvetica,sans-Serif" font-size="10.00">alps_cmn/time/duration.hpp</text>
</a>
</g>
</g>
<!-- Node4&#45;&gt;Node6 -->
<g id="edge5" class="edge">
<title>Node4&#45;&gt;Node6</title>
<path fill="none" stroke="midnightblue" d="M239.74,-117.98C248,-108.87 261.28,-94.24 271.49,-82.98"/>
<polygon fill="midnightblue" stroke="midnightblue" points="274.15,-85.27 278.28,-75.51 268.97,-80.56 274.15,-85.27"/>
</g>
<!-- Node6&#45;&gt;Node5 -->
<g id="edge6" class="edge">
<title>Node6&#45;&gt;Node5</title>
<path fill="none" stroke="midnightblue" d="M286,-56.08C286,-49.01 286,-38.86 286,-29.99"/>
<polygon fill="midnightblue" stroke="midnightblue" points="289.5,-29.75 286,-19.75 282.5,-29.75 289.5,-29.75"/>
</g>
<!-- Node7&#45;&gt;Node5 -->
<g id="edge8" class="edge">
<title>Node7&#45;&gt;Node5</title>
<path fill="none" stroke="midnightblue" d="M85.85,-112.44C112.54,-98 155.47,-75.02 193,-56 214.94,-44.88 240.05,-32.77 258.65,-23.91"/>
<polygon fill="midnightblue" stroke="midnightblue" points="260.19,-27.05 267.73,-19.6 257.19,-20.73 260.19,-27.05"/>
</g>
<!-- Node7&#45;&gt;Node6 -->
<g id="edge9" class="edge">
<title>Node7&#45;&gt;Node6</title>
<path fill="none" stroke="midnightblue" d="M113.27,-112.47C153.11,-101.99 206.86,-87.84 243.75,-78.12"/>
<polygon fill="midnightblue" stroke="midnightblue" points="244.91,-81.44 253.69,-75.51 243.13,-74.67 244.91,-81.44"/>
</g>
<!-- Node8&#45;&gt;Node3 -->
<g id="edge19" class="edge">
<title>Node8&#45;&gt;Node3</title>
<path fill="none" stroke="midnightblue" d="M494.6,-251.94C439.86,-241.38 345.9,-223.26 279.24,-210.4"/>
<polygon fill="midnightblue" stroke="midnightblue" points="279.68,-206.92 269.2,-208.46 278.36,-213.79 279.68,-206.92"/>
</g>
<!-- Node8&#45;&gt;Node5 -->
<g id="edge11" class="edge">
<title>Node8&#45;&gt;Node5</title>
<path fill="none" stroke="midnightblue" d="M577.77,-251.96C627.01,-240.74 706.61,-221.14 715,-210 723.29,-199 720.46,-191.65 715,-179 649.72,-27.63 411.51,-11.1 321.12,-10.41"/>
<polygon fill="midnightblue" stroke="midnightblue" points="321.1,-6.91 311.09,-10.39 321.09,-13.91 321.1,-6.91"/>
</g>
<!-- Node9 -->
<g id="node9" class="node">
<title>Node9</title>
<g id="a_node9"><a xlink:title=" ">
<polygon fill="white" stroke="#bfbfbf" points="658.5,-185 658.5,-204 705.5,-204 705.5,-185 658.5,-185"/>
<text text-anchor="middle" x="682" y="-192" font-family="Helvetica,sans-Serif" font-size="10.00">cmath</text>
</a>
</g>
</g>
<!-- Node8&#45;&gt;Node9 -->
<g id="edge12" class="edge">
<title>Node8&#45;&gt;Node9</title>
<path fill="none" stroke="midnightblue" d="M557.99,-251.87C582.46,-240.75 625.2,-221.32 653.56,-208.43"/>
<polygon fill="midnightblue" stroke="midnightblue" points="655.28,-211.49 662.93,-204.17 652.38,-205.12 655.28,-211.49"/>
</g>
<!-- Node10 -->
<g id="node10" class="node">
<title>Node10</title>
<g id="a_node10"><a xlink:title=" ">
<polygon fill="white" stroke="#bfbfbf" points="591,-118 591,-137 635,-137 635,-118 591,-118"/>
<text text-anchor="middle" x="613" y="-125" font-family="Helvetica,sans-Serif" font-size="10.00">limits</text>
</a>
</g>
</g>
<!-- Node8&#45;&gt;Node10 -->
<g id="edge13" class="edge">
<title>Node8&#45;&gt;Node10</title>
<path fill="none" stroke="midnightblue" d="M560.59,-251.92C577.63,-243.87 600.26,-230.05 611,-210 621.42,-190.56 619.89,-164.58 617.1,-147.23"/>
<polygon fill="midnightblue" stroke="midnightblue" points="620.51,-146.4 615.2,-137.23 613.63,-147.71 620.51,-146.4"/>
</g>
<!-- Node11 -->
<g id="node11" class="node">
<title>Node11</title>
<g id="a_node11"><a xlink:href="integrator_8hpp.html" target="_top" xlink:title="積分器ライブラリ">
<polygon fill="white" stroke="black" points="287.5,-185 287.5,-204 458.5,-204 458.5,-185 287.5,-185"/>
<text text-anchor="middle" x="373" y="-192" font-family="Helvetica,sans-Serif" font-size="10.00">alps_cmn/control/integrator.hpp</text>
</a>
</g>
</g>
<!-- Node8&#45;&gt;Node11 -->
<g id="edge14" class="edge">
<title>Node8&#45;&gt;Node11</title>
<path fill="none" stroke="midnightblue" d="M516.96,-251.87C488.1,-240.57 437.35,-220.7 404.46,-207.82"/>
<polygon fill="midnightblue" stroke="midnightblue" points="405.46,-204.45 394.87,-204.06 402.91,-210.97 405.46,-204.45"/>
</g>
<!-- Node13 -->
<g id="node13" class="node">
<title>Node13</title>
<g id="a_node13"><a xlink:href="numeric__range_8hpp.html" target="_top" xlink:title="数値の範囲を扱うクラス">
<polygon fill="white" stroke="black" points="476.5,-179.5 476.5,-209.5 601.5,-209.5 601.5,-179.5 476.5,-179.5"/>
<text text-anchor="start" x="484.5" y="-197.5" font-family="Helvetica,sans-Serif" font-size="10.00">alps_cmn/util/numeric</text>
<text text-anchor="middle" x="539" y="-186.5" font-family="Helvetica,sans-Serif" font-size="10.00">_range.hpp</text>
</a>
</g>
</g>
<!-- Node8&#45;&gt;Node13 -->
<g id="edge20" class="edge">
<title>Node8&#45;&gt;Node13</title>
<path fill="none" stroke="midnightblue" d="M539,-251.73C539,-243.54 539,-230.92 539,-219.71"/>
<polygon fill="midnightblue" stroke="midnightblue" points="542.5,-219.59 539,-209.59 535.5,-219.59 542.5,-219.59"/>
</g>
<!-- Node11&#45;&gt;Node5 -->
<g id="edge15" class="edge">
<title>Node11&#45;&gt;Node5</title>
<path fill="none" stroke="midnightblue" d="M375.64,-184.95C382.18,-162.04 396.8,-98.15 371,-56 359.99,-38.01 339.16,-26.82 320.87,-20.1"/>
<polygon fill="midnightblue" stroke="midnightblue" points="321.92,-16.76 311.33,-16.89 319.69,-23.39 321.92,-16.76"/>
</g>
<!-- Node11&#45;&gt;Node6 -->
<g id="edge18" class="edge">
<title>Node11&#45;&gt;Node6</title>
<path fill="none" stroke="midnightblue" d="M370.07,-184.84C364.56,-169.29 351.61,-136.05 334,-112 325.86,-100.88 314.73,-90.25 305.24,-82.11"/>
<polygon fill="midnightblue" stroke="midnightblue" points="307.37,-79.33 297.43,-75.65 302.91,-84.72 307.37,-79.33"/>
</g>
<!-- Node11&#45;&gt;Node10 -->
<g id="edge16" class="edge">
<title>Node11&#45;&gt;Node10</title>
<path fill="none" stroke="midnightblue" d="M419.85,-184.98C462.72,-176.53 527.58,-162.09 582,-143 583.62,-142.43 585.27,-141.81 586.92,-141.15"/>
<polygon fill="midnightblue" stroke="midnightblue" points="588.43,-144.31 596.2,-137.1 585.63,-137.89 588.43,-144.31"/>
</g>
<!-- Node12 -->
<g id="node12" class="node">
<title>Node12</title>
<g id="a_node12"><a xlink:href="algorithm_8hpp.html" target="_top" xlink:title=" ">
<polygon fill="white" stroke="black" points="419.5,-118 419.5,-137 572.5,-137 572.5,-118 419.5,-118"/>
<text text-anchor="middle" x="496" y="-125" font-family="Helvetica,sans-Serif" font-size="10.00">alps_cmn/util/algorithm.hpp</text>
</a>
</g>
</g>
<!-- Node11&#45;&gt;Node12 -->
<g id="edge17" class="edge">
<title>Node11&#45;&gt;Node12</title>
<path fill="none" stroke="midnightblue" d="M389.33,-184.87C410.1,-173.89 446.19,-154.82 470.57,-141.94"/>
<polygon fill="midnightblue" stroke="midnightblue" points="472.39,-144.93 479.6,-137.17 469.12,-138.75 472.39,-144.93"/>
</g>
<!-- Node13&#45;&gt;Node10 -->
<g id="edge21" class="edge">
<title>Node13&#45;&gt;Node10</title>
<path fill="none" stroke="midnightblue" d="M555.06,-179.4C566.94,-168.96 583.11,-154.75 595.36,-144"/>
<polygon fill="midnightblue" stroke="midnightblue" points="597.9,-146.42 603.1,-137.19 593.28,-141.16 597.9,-146.42"/>
</g>
<!-- Node13&#45;&gt;Node12 -->
<g id="edge22" class="edge">
<title>Node13&#45;&gt;Node12</title>
<path fill="none" stroke="midnightblue" d="M529.67,-179.4C523.1,-169.46 514.26,-156.11 507.29,-145.57"/>
<polygon fill="midnightblue" stroke="midnightblue" points="510.19,-143.6 501.75,-137.19 504.35,-147.47 510.19,-143.6"/>
</g>
</g>
</svg>
