<?xml version="1.0" encoding="UTF-8" standalone="no"?>
<!DOCTYPE svg PUBLIC "-//W3C//DTD SVG 1.1//EN"
 "http://www.w3.org/Graphics/SVG/1.1/DTD/svg11.dtd">
<!-- Generated by graphviz version 2.43.0 (0)
 -->
<!-- Title: alps_common_lib/include/alps_cmn/control/motor_angle_velocity_controller.hpp Pages: 1 -->
<svg width="550pt" height="296pt"
 viewBox="0.00 0.00 550.00 296.00" xmlns="http://www.w3.org/2000/svg" xmlns:xlink="http://www.w3.org/1999/xlink">
<g id="graph0" class="graph" transform="scale(1 1) rotate(0) translate(4 292)">
<title>alps_common_lib/include/alps_cmn/control/motor_angle_velocity_controller.hpp</title>
<polygon fill="white" stroke="transparent" points="-4,4 -4,-292 546,-292 546,4 -4,4"/>
<!-- Node1 -->
<g id="node1" class="node">
<title>Node1</title>
<g id="a_node1"><a xlink:title=" ">
<polygon fill="#bfbfbf" stroke="black" points="116,-246.5 116,-287.5 281,-287.5 281,-246.5 116,-246.5"/>
<text text-anchor="start" x="124" y="-275.5" font-family="Helvetica,sans-Serif" font-size="10.00">alps_common_lib/include</text>
<text text-anchor="start" x="124" y="-264.5" font-family="Helvetica,sans-Serif" font-size="10.00">/alps_cmn/control/motor</text>
<text text-anchor="middle" x="198.5" y="-253.5" font-family="Helvetica,sans-Serif" font-size="10.00">_angle_velocity_controller.hpp</text>
</a>
</g>
</g>
<!-- Node2 -->
<g id="node2" class="node">
<title>Node2</title>
<g id="a_node2"><a xlink:href="i__motor_8hpp.html" target="_top" xlink:title=" ">
<polygon fill="white" stroke="black" points="0,-112.5 0,-142.5 113,-142.5 113,-112.5 0,-112.5"/>
<text text-anchor="start" x="8" y="-130.5" font-family="Helvetica,sans-Serif" font-size="10.00">alps_cmn/actuator/i</text>
<text text-anchor="middle" x="56.5" y="-119.5" font-family="Helvetica,sans-Serif" font-size="10.00">_motor.hpp</text>
</a>
</g>
</g>
<!-- Node1&#45;&gt;Node2 -->
<g id="edge1" class="edge">
<title>Node1&#45;&gt;Node2</title>
<path fill="none" stroke="midnightblue" d="M126.98,-246.36C107.84,-237.98 88.81,-226.25 75.5,-210 62.31,-193.9 57.93,-170.29 56.64,-152.63"/>
<polygon fill="midnightblue" stroke="midnightblue" points="60.13,-152.34 56.17,-142.51 53.13,-152.66 60.13,-152.34"/>
</g>
<!-- Node3 -->
<g id="node3" class="node">
<title>Node3</title>
<g id="a_node3"><a xlink:href="motor__velocity__controller_8hpp.html" target="_top" xlink:title=" ">
<polygon fill="white" stroke="black" points="85,-179.5 85,-209.5 218,-209.5 218,-179.5 85,-179.5"/>
<text text-anchor="start" x="93" y="-197.5" font-family="Helvetica,sans-Serif" font-size="10.00">alps_cmn/control/motor</text>
<text text-anchor="middle" x="151.5" y="-186.5" font-family="Helvetica,sans-Serif" font-size="10.00">_velocity_controller.hpp</text>
</a>
</g>
</g>
<!-- Node1&#45;&gt;Node3 -->
<g id="edge2" class="edge">
<title>Node1&#45;&gt;Node3</title>
<path fill="none" stroke="midnightblue" d="M185.41,-246.36C179.62,-237.68 172.78,-227.42 166.77,-218.4"/>
<polygon fill="midnightblue" stroke="midnightblue" points="169.55,-216.27 161.09,-209.89 163.73,-220.15 169.55,-216.27"/>
</g>
<!-- Node6 -->
<g id="node6" class="node">
<title>Node6</title>
<g id="a_node6"><a xlink:href="pid_8hpp.html" target="_top" xlink:title=" ">
<polygon fill="white" stroke="black" points="170,-118 170,-137 309,-137 309,-118 170,-118"/>
<text text-anchor="middle" x="239.5" y="-125" font-family="Helvetica,sans-Serif" font-size="10.00">alps_cmn/control/pid.hpp</text>
</a>
</g>
</g>
<!-- Node1&#45;&gt;Node6 -->
<g id="edge16" class="edge">
<title>Node1&#45;&gt;Node6</title>
<path fill="none" stroke="midnightblue" d="M210.15,-246.41C215.89,-235.94 222.44,-222.63 226.5,-210 233.2,-189.16 236.53,-164.18 238.13,-147.41"/>
<polygon fill="midnightblue" stroke="midnightblue" points="241.63,-147.53 238.98,-137.27 234.66,-146.94 241.63,-147.53"/>
</g>
<!-- Node10 -->
<g id="node10" class="node">
<title>Node10</title>
<g id="a_node10"><a xlink:href="i__rotary__sensor_8hpp.html" target="_top" xlink:title=" ">
<polygon fill="white" stroke="black" points="327,-112.5 327,-142.5 466,-142.5 466,-112.5 327,-112.5"/>
<text text-anchor="start" x="335" y="-130.5" font-family="Helvetica,sans-Serif" font-size="10.00">alps_cmn/sensor/i_rotary</text>
<text text-anchor="middle" x="396.5" y="-119.5" font-family="Helvetica,sans-Serif" font-size="10.00">_sensor.hpp</text>
</a>
</g>
</g>
<!-- Node1&#45;&gt;Node10 -->
<g id="edge17" class="edge">
<title>Node1&#45;&gt;Node10</title>
<path fill="none" stroke="midnightblue" d="M226.87,-246.3C264.39,-220.24 330.15,-174.58 367.82,-148.42"/>
<polygon fill="midnightblue" stroke="midnightblue" points="370.09,-151.1 376.31,-142.52 366.1,-145.35 370.09,-151.1"/>
</g>
<!-- Node3&#45;&gt;Node2 -->
<g id="edge3" class="edge">
<title>Node3&#45;&gt;Node2</title>
<path fill="none" stroke="midnightblue" d="M130.89,-179.4C117.57,-170.28 100.04,-158.29 85.34,-148.24"/>
<polygon fill="midnightblue" stroke="midnightblue" points="87.3,-145.33 77.07,-142.58 83.35,-151.11 87.3,-145.33"/>
</g>
<!-- Node4 -->
<g id="node4" class="node">
<title>Node4</title>
<g id="a_node4"><a xlink:href="differentiator_8hpp.html" target="_top" xlink:title="微分器ライブラリ">
<polygon fill="white" stroke="black" points="6,-56.5 6,-75.5 193,-75.5 193,-56.5 6,-56.5"/>
<text text-anchor="middle" x="99.5" y="-63.5" font-family="Helvetica,sans-Serif" font-size="10.00">alps_cmn/control/differentiator.hpp</text>
</a>
</g>
</g>
<!-- Node3&#45;&gt;Node4 -->
<g id="edge4" class="edge">
<title>Node3&#45;&gt;Node4</title>
<path fill="none" stroke="midnightblue" d="M146.83,-179.49C141.26,-163.11 131.45,-135.29 121.5,-112 117.57,-102.79 112.72,-92.76 108.58,-84.51"/>
<polygon fill="midnightblue" stroke="midnightblue" points="111.64,-82.82 103.98,-75.51 105.41,-86 111.64,-82.82"/>
</g>
<!-- Node3&#45;&gt;Node6 -->
<g id="edge6" class="edge">
<title>Node3&#45;&gt;Node6</title>
<path fill="none" stroke="midnightblue" d="M170.59,-179.4C185.08,-168.7 204.93,-154.03 219.61,-143.19"/>
<polygon fill="midnightblue" stroke="midnightblue" points="222.02,-145.76 227.98,-137.01 217.86,-140.13 222.02,-145.76"/>
</g>
<!-- Node3&#45;&gt;Node10 -->
<g id="edge15" class="edge">
<title>Node3&#45;&gt;Node10</title>
<path fill="none" stroke="midnightblue" d="M204.36,-179.48C242.23,-169.43 293.39,-155.86 333.4,-145.24"/>
<polygon fill="midnightblue" stroke="midnightblue" points="334.54,-148.56 343.31,-142.61 332.75,-141.79 334.54,-148.56"/>
</g>
<!-- Node5 -->
<g id="node5" class="node">
<title>Node5</title>
<g id="a_node5"><a xlink:title=" ">
<polygon fill="white" stroke="#bfbfbf" points="195.5,-0.5 195.5,-19.5 245.5,-19.5 245.5,-0.5 195.5,-0.5"/>
<text text-anchor="middle" x="220.5" y="-7.5" font-family="Helvetica,sans-Serif" font-size="10.00">chrono</text>
</a>
</g>
</g>
<!-- Node4&#45;&gt;Node5 -->
<g id="edge5" class="edge">
<title>Node4&#45;&gt;Node5</title>
<path fill="none" stroke="midnightblue" d="M118.67,-56.44C138.41,-47.64 169.39,-33.81 191.99,-23.72"/>
<polygon fill="midnightblue" stroke="midnightblue" points="193.71,-26.79 201.42,-19.52 190.86,-20.4 193.71,-26.79"/>
</g>
<!-- Node6&#45;&gt;Node4 -->
<g id="edge9" class="edge">
<title>Node6&#45;&gt;Node4</title>
<path fill="none" stroke="midnightblue" d="M219.44,-117.98C195.74,-107.9 156.09,-91.05 128.92,-79.5"/>
<polygon fill="midnightblue" stroke="midnightblue" points="130.09,-76.2 119.52,-75.51 127.36,-82.64 130.09,-76.2"/>
</g>
<!-- Node6&#45;&gt;Node5 -->
<g id="edge7" class="edge">
<title>Node6&#45;&gt;Node5</title>
<path fill="none" stroke="midnightblue" d="M238.07,-117.82C235.02,-99.26 227.79,-55.34 223.62,-29.97"/>
<polygon fill="midnightblue" stroke="midnightblue" points="227.02,-29.08 221.94,-19.78 220.11,-30.22 227.02,-29.08"/>
</g>
<!-- Node7 -->
<g id="node7" class="node">
<title>Node7</title>
<g id="a_node7"><a xlink:title=" ">
<polygon fill="white" stroke="#bfbfbf" points="305.5,-0.5 305.5,-19.5 349.5,-19.5 349.5,-0.5 305.5,-0.5"/>
<text text-anchor="middle" x="327.5" y="-7.5" font-family="Helvetica,sans-Serif" font-size="10.00">limits</text>
</a>
</g>
</g>
<!-- Node6&#45;&gt;Node7 -->
<g id="edge8" class="edge">
<title>Node6&#45;&gt;Node7</title>
<path fill="none" stroke="midnightblue" d="M243.07,-117.68C248.98,-103.73 261.69,-76.11 277.5,-56 286.21,-44.92 297.81,-34.29 307.65,-26.14"/>
<polygon fill="midnightblue" stroke="midnightblue" points="310.11,-28.66 315.73,-19.68 305.73,-23.2 310.11,-28.66"/>
</g>
<!-- Node8 -->
<g id="node8" class="node">
<title>Node8</title>
<g id="a_node8"><a xlink:href="integrator_8hpp.html" target="_top" xlink:title="積分器ライブラリ">
<polygon fill="white" stroke="black" points="287,-56.5 287,-75.5 458,-75.5 458,-56.5 287,-56.5"/>
<text text-anchor="middle" x="372.5" y="-63.5" font-family="Helvetica,sans-Serif" font-size="10.00">alps_cmn/control/integrator.hpp</text>
</a>
</g>
</g>
<!-- Node6&#45;&gt;Node8 -->
<g id="edge10" class="edge">
<title>Node6&#45;&gt;Node8</title>
<path fill="none" stroke="midnightblue" d="M258.56,-117.98C280.97,-107.95 318.41,-91.2 344.21,-79.65"/>
<polygon fill="midnightblue" stroke="midnightblue" points="345.78,-82.79 353.48,-75.51 342.92,-76.4 345.78,-82.79"/>
</g>
<!-- Node9 -->
<g id="node9" class="node">
<title>Node9</title>
<g id="a_node9"><a xlink:href="algorithm_8hpp.html" target="_top" xlink:title=" ">
<polygon fill="white" stroke="black" points="389,-0.5 389,-19.5 542,-19.5 542,-0.5 389,-0.5"/>
<text text-anchor="middle" x="465.5" y="-7.5" font-family="Helvetica,sans-Serif" font-size="10.00">alps_cmn/util/algorithm.hpp</text>
</a>
</g>
</g>
<!-- Node6&#45;&gt;Node9 -->
<g id="edge14" class="edge">
<title>Node6&#45;&gt;Node9</title>
<path fill="none" stroke="midnightblue" d="M284.73,-117.98C349.54,-105.56 461.74,-83.17 467.5,-76 477.86,-63.09 475.7,-43.65 471.96,-29.39"/>
<polygon fill="midnightblue" stroke="midnightblue" points="475.26,-28.22 468.97,-19.69 468.57,-30.28 475.26,-28.22"/>
</g>
<!-- Node8&#45;&gt;Node5 -->
<g id="edge11" class="edge">
<title>Node8&#45;&gt;Node5</title>
<path fill="none" stroke="midnightblue" d="M348.42,-56.44C322.96,-47.4 282.61,-33.06 254.04,-22.92"/>
<polygon fill="midnightblue" stroke="midnightblue" points="255.07,-19.57 244.47,-19.52 252.72,-26.16 255.07,-19.57"/>
</g>
<!-- Node8&#45;&gt;Node7 -->
<g id="edge12" class="edge">
<title>Node8&#45;&gt;Node7</title>
<path fill="none" stroke="midnightblue" d="M365.07,-56.08C358.65,-48.38 349.19,-37.03 341.38,-27.65"/>
<polygon fill="midnightblue" stroke="midnightblue" points="343.88,-25.19 334.79,-19.75 338.51,-29.67 343.88,-25.19"/>
</g>
<!-- Node8&#45;&gt;Node9 -->
<g id="edge13" class="edge">
<title>Node8&#45;&gt;Node9</title>
<path fill="none" stroke="midnightblue" d="M387.44,-56.32C402.09,-47.82 424.63,-34.73 441.74,-24.8"/>
<polygon fill="midnightblue" stroke="midnightblue" points="443.7,-27.7 450.6,-19.65 440.19,-21.65 443.7,-27.7"/>
</g>
</g>
</svg>
