<?xml version="1.0" encoding="UTF-8" standalone="no"?>
<!DOCTYPE svg PUBLIC "-//W3C//DTD SVG 1.1//EN"
 "http://www.w3.org/Graphics/SVG/1.1/DTD/svg11.dtd">
<!-- Generated by graphviz version 2.43.0 (0)
 -->
<!-- Title: alps_core/lib_internal/alps_common_lib/include/alps_cmn/control/motor_velocity_controller.hpp Pages: 1 -->
<svg width="764pt" height="374pt"
 viewBox="0.00 0.00 764.08 374.00" xmlns="http://www.w3.org/2000/svg" xmlns:xlink="http://www.w3.org/1999/xlink">
<g id="graph0" class="graph" transform="scale(1 1) rotate(0) translate(4 370)">
<title>alps_core/lib_internal/alps_common_lib/include/alps_cmn/control/motor_velocity_controller.hpp</title>
<polygon fill="white" stroke="transparent" points="-4,4 -4,-370 760.08,-370 760.08,4 -4,4"/>
<!-- Node1 -->
<g id="node1" class="node">
<title>Node1</title>
<g id="a_node1"><a xlink:title=" ">
<polygon fill="#bfbfbf" stroke="black" points="404,-313.5 404,-365.5 547,-365.5 547,-313.5 404,-313.5"/>
<text text-anchor="start" x="412" y="-353.5" font-family="Helvetica,sans-Serif" font-size="10.00">alps_core/lib_internal</text>
<text text-anchor="start" x="412" y="-342.5" font-family="Helvetica,sans-Serif" font-size="10.00">/alps_common_lib/include</text>
<text text-anchor="start" x="412" y="-331.5" font-family="Helvetica,sans-Serif" font-size="10.00">/alps_cmn/control/motor</text>
<text text-anchor="middle" x="475.5" y="-320.5" font-family="Helvetica,sans-Serif" font-size="10.00">_velocity_controller.hpp</text>
</a>
</g>
</g>
<!-- Node2 -->
<g id="node2" class="node">
<title>Node2</title>
<g id="a_node2"><a xlink:href="i__motor_8hpp.html" target="_top" xlink:title=" ">
<polygon fill="white" stroke="black" points="285,-246.5 285,-276.5 398,-276.5 398,-246.5 285,-246.5"/>
<text text-anchor="start" x="293" y="-264.5" font-family="Helvetica,sans-Serif" font-size="10.00">alps_cmn/actuator/i</text>
<text text-anchor="middle" x="341.5" y="-253.5" font-family="Helvetica,sans-Serif" font-size="10.00">_motor.hpp</text>
</a>
</g>
</g>
<!-- Node1&#45;&gt;Node2 -->
<g id="edge1" class="edge">
<title>Node1&#45;&gt;Node2</title>
<path fill="none" stroke="midnightblue" d="M431.25,-313.4C413.11,-303.12 392.45,-291.4 375.53,-281.8"/>
<polygon fill="midnightblue" stroke="midnightblue" points="376.97,-278.6 366.55,-276.71 373.52,-284.68 376.97,-278.6"/>
</g>
<!-- Node3 -->
<g id="node3" class="node">
<title>Node3</title>
<g id="a_node3"><a xlink:href="low__pass__differentiator_8hpp.html" target="_top" xlink:title=" ">
<polygon fill="white" stroke="black" points="133.5,-179.5 133.5,-209.5 267.5,-209.5 267.5,-179.5 133.5,-179.5"/>
<text text-anchor="start" x="141.5" y="-197.5" font-family="Helvetica,sans-Serif" font-size="10.00">alps_cmn/control/low</text>
<text text-anchor="middle" x="200.5" y="-186.5" font-family="Helvetica,sans-Serif" font-size="10.00">_pass_differentiator.hpp</text>
</a>
</g>
</g>
<!-- Node1&#45;&gt;Node3 -->
<g id="edge2" class="edge">
<title>Node1&#45;&gt;Node3</title>
<path fill="none" stroke="midnightblue" d="M463.16,-313.43C451.45,-292.28 431.89,-262.82 406.5,-246 395.41,-238.65 331.2,-223.51 277.38,-211.71"/>
<polygon fill="midnightblue" stroke="midnightblue" points="277.98,-208.26 267.46,-209.55 276.49,-215.1 277.98,-208.26"/>
</g>
<!-- Node8 -->
<g id="node8" class="node">
<title>Node8</title>
<g id="a_node8"><a xlink:href="pid_8hpp.html" target="_top" xlink:title=" ">
<polygon fill="white" stroke="black" points="455,-252 455,-271 594,-271 594,-252 455,-252"/>
<text text-anchor="middle" x="524.5" y="-259" font-family="Helvetica,sans-Serif" font-size="10.00">alps_cmn/control/pid.hpp</text>
</a>
</g>
</g>
<!-- Node1&#45;&gt;Node8 -->
<g id="edge10" class="edge">
<title>Node1&#45;&gt;Node8</title>
<path fill="none" stroke="midnightblue" d="M491.82,-313.19C498.91,-302.2 507.03,-289.6 513.4,-279.72"/>
<polygon fill="midnightblue" stroke="midnightblue" points="516.41,-281.51 518.89,-271.21 510.52,-277.72 516.41,-281.51"/>
</g>
<!-- Node15 -->
<g id="node15" class="node">
<title>Node15</title>
<g id="a_node15"><a xlink:href="i__rotary__sensor_8hpp.html" target="_top" xlink:title=" ">
<polygon fill="white" stroke="black" points="612,-246.5 612,-276.5 751,-276.5 751,-246.5 612,-246.5"/>
<text text-anchor="start" x="620" y="-264.5" font-family="Helvetica,sans-Serif" font-size="10.00">alps_cmn/sensor/i_rotary</text>
<text text-anchor="middle" x="681.5" y="-253.5" font-family="Helvetica,sans-Serif" font-size="10.00">_sensor.hpp</text>
</a>
</g>
</g>
<!-- Node1&#45;&gt;Node15 -->
<g id="edge25" class="edge">
<title>Node1&#45;&gt;Node15</title>
<path fill="none" stroke="midnightblue" d="M543.52,-313.4C573.06,-302.51 606.95,-290 633.76,-280.11"/>
<polygon fill="midnightblue" stroke="midnightblue" points="635.12,-283.34 643.29,-276.6 632.7,-276.77 635.12,-283.34"/>
</g>
<!-- Node4 -->
<g id="node4" class="node">
<title>Node4</title>
<g id="a_node4"><a xlink:href="differentiator_8hpp.html" target="_top" xlink:title="微分器ライブラリ">
<polygon fill="white" stroke="black" points="0,-118 0,-137 187,-137 187,-118 0,-118"/>
<text text-anchor="middle" x="93.5" y="-125" font-family="Helvetica,sans-Serif" font-size="10.00">alps_cmn/control/differentiator.hpp</text>
</a>
</g>
</g>
<!-- Node3&#45;&gt;Node4 -->
<g id="edge3" class="edge">
<title>Node3&#45;&gt;Node4</title>
<path fill="none" stroke="midnightblue" d="M177.28,-179.4C159.17,-168.39 134.16,-153.2 116.19,-142.28"/>
<polygon fill="midnightblue" stroke="midnightblue" points="117.87,-139.21 107.5,-137.01 114.23,-145.19 117.87,-139.21"/>
</g>
<!-- Node7 -->
<g id="node7" class="node">
<title>Node7</title>
<g id="a_node7"><a xlink:href="low__pass__filter_8hpp.html" target="_top" xlink:title="ローパスフィルタのクラス">
<polygon fill="white" stroke="black" points="204.5,-112.5 204.5,-142.5 324.5,-142.5 324.5,-112.5 204.5,-112.5"/>
<text text-anchor="start" x="212.5" y="-130.5" font-family="Helvetica,sans-Serif" font-size="10.00">alps_cmn/control/low</text>
<text text-anchor="middle" x="264.5" y="-119.5" font-family="Helvetica,sans-Serif" font-size="10.00">_pass_filter.hpp</text>
</a>
</g>
</g>
<!-- Node3&#45;&gt;Node7 -->
<g id="edge7" class="edge">
<title>Node3&#45;&gt;Node7</title>
<path fill="none" stroke="midnightblue" d="M214.39,-179.4C222.86,-170.79 233.85,-159.63 243.39,-149.94"/>
<polygon fill="midnightblue" stroke="midnightblue" points="246.12,-152.16 250.64,-142.58 241.13,-147.25 246.12,-152.16"/>
</g>
<!-- Node5 -->
<g id="node5" class="node">
<title>Node5</title>
<g id="a_node5"><a xlink:title=" ">
<polygon fill="white" stroke="#bfbfbf" points="260.5,-0.5 260.5,-19.5 310.5,-19.5 310.5,-0.5 260.5,-0.5"/>
<text text-anchor="middle" x="285.5" y="-7.5" font-family="Helvetica,sans-Serif" font-size="10.00">chrono</text>
</a>
</g>
</g>
<!-- Node4&#45;&gt;Node5 -->
<g id="edge4" class="edge">
<title>Node4&#45;&gt;Node5</title>
<path fill="none" stroke="midnightblue" d="M104.37,-117.83C122.17,-103.85 158.91,-75.89 192.5,-56 213.13,-43.78 237.58,-32.05 256.23,-23.63"/>
<polygon fill="midnightblue" stroke="midnightblue" points="257.69,-26.81 265.4,-19.55 254.84,-20.42 257.69,-26.81"/>
</g>
<!-- Node6 -->
<g id="node6" class="node">
<title>Node6</title>
<g id="a_node6"><a xlink:href="duration_8hpp.html" target="_top" xlink:title="時間間隔の型エイリアス">
<polygon fill="white" stroke="black" points="209,-56.5 209,-75.5 362,-75.5 362,-56.5 209,-56.5"/>
<text text-anchor="middle" x="285.5" y="-63.5" font-family="Helvetica,sans-Serif" font-size="10.00">alps_cmn/time/duration.hpp</text>
</a>
</g>
</g>
<!-- Node4&#45;&gt;Node6 -->
<g id="edge5" class="edge">
<title>Node4&#45;&gt;Node6</title>
<path fill="none" stroke="midnightblue" d="M121.01,-117.98C154.37,-107.64 210.76,-90.16 248.06,-78.6"/>
<polygon fill="midnightblue" stroke="midnightblue" points="249.53,-81.81 258.04,-75.51 247.45,-75.13 249.53,-81.81"/>
</g>
<!-- Node6&#45;&gt;Node5 -->
<g id="edge6" class="edge">
<title>Node6&#45;&gt;Node5</title>
<path fill="none" stroke="midnightblue" d="M285.5,-56.08C285.5,-49.01 285.5,-38.86 285.5,-29.99"/>
<polygon fill="midnightblue" stroke="midnightblue" points="289,-29.75 285.5,-19.75 282,-29.75 289,-29.75"/>
</g>
<!-- Node7&#45;&gt;Node5 -->
<g id="edge8" class="edge">
<title>Node7&#45;&gt;Node5</title>
<path fill="none" stroke="midnightblue" d="M235.44,-112.29C212.44,-98.99 186.22,-77.93 199.5,-56 210.6,-37.67 231.88,-26.45 250.5,-19.79"/>
<polygon fill="midnightblue" stroke="midnightblue" points="251.78,-23.06 260.21,-16.63 249.62,-16.4 251.78,-23.06"/>
</g>
<!-- Node7&#45;&gt;Node6 -->
<g id="edge9" class="edge">
<title>Node7&#45;&gt;Node6</title>
<path fill="none" stroke="midnightblue" d="M269.48,-112.4C272.34,-104.29 275.97,-94.01 279.05,-85.28"/>
<polygon fill="midnightblue" stroke="midnightblue" points="282.42,-86.25 282.44,-75.66 275.82,-83.92 282.42,-86.25"/>
</g>
<!-- Node8&#45;&gt;Node3 -->
<g id="edge20" class="edge">
<title>Node8&#45;&gt;Node3</title>
<path fill="none" stroke="midnightblue" d="M481.81,-251.94C429.94,-241.53 341.45,-223.78 277.56,-210.96"/>
<polygon fill="midnightblue" stroke="midnightblue" points="278.01,-207.48 267.52,-208.95 276.64,-214.34 278.01,-207.48"/>
</g>
<!-- Node8&#45;&gt;Node5 -->
<g id="edge11" class="edge">
<title>Node8&#45;&gt;Node5</title>
<path fill="none" stroke="midnightblue" d="M571.63,-251.98C629.41,-241.09 721.02,-222.18 731.5,-210 759.96,-176.92 764.79,-146.05 737.5,-112 685.04,-46.53 417.77,-20.68 320.75,-13.37"/>
<polygon fill="midnightblue" stroke="midnightblue" points="320.8,-9.86 310.58,-12.62 320.29,-16.84 320.8,-9.86"/>
</g>
<!-- Node9 -->
<g id="node9" class="node">
<title>Node9</title>
<g id="a_node9"><a xlink:title=" ">
<polygon fill="white" stroke="#bfbfbf" points="475,-185 475,-204 522,-204 522,-185 475,-185"/>
<text text-anchor="middle" x="498.5" y="-192" font-family="Helvetica,sans-Serif" font-size="10.00">cmath</text>
</a>
</g>
</g>
<!-- Node8&#45;&gt;Node9 -->
<g id="edge12" class="edge">
<title>Node8&#45;&gt;Node9</title>
<path fill="none" stroke="midnightblue" d="M520.99,-251.73C517.1,-241.99 510.69,-225.98 505.71,-213.53"/>
<polygon fill="midnightblue" stroke="midnightblue" points="508.91,-212.11 501.95,-204.13 502.42,-214.71 508.91,-212.11"/>
</g>
<!-- Node10 -->
<g id="node10" class="node">
<title>Node10</title>
<g id="a_node10"><a xlink:title=" ">
<polygon fill="white" stroke="#bfbfbf" points="590.5,-118 590.5,-137 634.5,-137 634.5,-118 590.5,-118"/>
<text text-anchor="middle" x="612.5" y="-125" font-family="Helvetica,sans-Serif" font-size="10.00">limits</text>
</a>
</g>
</g>
<!-- Node8&#45;&gt;Node10 -->
<g id="edge13" class="edge">
<title>Node8&#45;&gt;Node10</title>
<path fill="none" stroke="midnightblue" d="M528.84,-251.63C536.48,-236.31 553.16,-204.14 570.5,-179 578.81,-166.95 589.35,-154.28 597.79,-144.65"/>
<polygon fill="midnightblue" stroke="midnightblue" points="600.52,-146.85 604.56,-137.06 595.29,-142.19 600.52,-146.85"/>
</g>
<!-- Node11 -->
<g id="node11" class="node">
<title>Node11</title>
<g id="a_node11"><a xlink:title=" ">
<polygon fill="white" stroke="#bfbfbf" points="687,-118 687,-137 728,-137 728,-118 687,-118"/>
<text text-anchor="middle" x="707.5" y="-125" font-family="Helvetica,sans-Serif" font-size="10.00">tuple</text>
</a>
</g>
</g>
<!-- Node8&#45;&gt;Node11 -->
<g id="edge14" class="edge">
<title>Node8&#45;&gt;Node11</title>
<path fill="none" stroke="midnightblue" d="M567.03,-251.98C619.94,-240.95 704.48,-221.75 713.5,-210 727.37,-191.94 721.49,-164.49 715.17,-146.52"/>
<polygon fill="midnightblue" stroke="midnightblue" points="718.43,-145.24 711.55,-137.18 711.9,-147.77 718.43,-145.24"/>
</g>
<!-- Node12 -->
<g id="node12" class="node">
<title>Node12</title>
<g id="a_node12"><a xlink:href="integrator_8hpp.html" target="_top" xlink:title="積分器ライブラリ">
<polygon fill="white" stroke="black" points="286,-185 286,-204 457,-204 457,-185 286,-185"/>
<text text-anchor="middle" x="371.5" y="-192" font-family="Helvetica,sans-Serif" font-size="10.00">alps_cmn/control/integrator.hpp</text>
</a>
</g>
</g>
<!-- Node8&#45;&gt;Node12 -->
<g id="edge15" class="edge">
<title>Node8&#45;&gt;Node12</title>
<path fill="none" stroke="midnightblue" d="M504.18,-251.87C477.78,-240.65 431.47,-220.98 401.14,-208.09"/>
<polygon fill="midnightblue" stroke="midnightblue" points="402.47,-204.86 391.9,-204.17 399.74,-211.3 402.47,-204.86"/>
</g>
<!-- Node14 -->
<g id="node14" class="node">
<title>Node14</title>
<g id="a_node14"><a xlink:href="numeric__range_8hpp.html" target="_top" xlink:title="数値の範囲を扱うクラス">
<polygon fill="white" stroke="black" points="579,-179.5 579,-209.5 704,-209.5 704,-179.5 579,-179.5"/>
<text text-anchor="start" x="587" y="-197.5" font-family="Helvetica,sans-Serif" font-size="10.00">alps_cmn/util/numeric</text>
<text text-anchor="middle" x="641.5" y="-186.5" font-family="Helvetica,sans-Serif" font-size="10.00">_range.hpp</text>
</a>
</g>
</g>
<!-- Node8&#45;&gt;Node14 -->
<g id="edge21" class="edge">
<title>Node8&#45;&gt;Node14</title>
<path fill="none" stroke="midnightblue" d="M540.28,-251.73C557.38,-242.23 585.2,-226.78 607.35,-214.47"/>
<polygon fill="midnightblue" stroke="midnightblue" points="609.1,-217.51 616.14,-209.59 605.7,-211.39 609.1,-217.51"/>
</g>
<!-- Node12&#45;&gt;Node5 -->
<g id="edge16" class="edge">
<title>Node12&#45;&gt;Node5</title>
<path fill="none" stroke="midnightblue" d="M374.22,-184.96C380.97,-162.07 396.14,-98.24 370.5,-56 359.56,-37.97 338.72,-26.78 320.42,-20.07"/>
<polygon fill="midnightblue" stroke="midnightblue" points="321.46,-16.72 310.87,-16.87 319.24,-23.36 321.46,-16.72"/>
</g>
<!-- Node12&#45;&gt;Node6 -->
<g id="edge19" class="edge">
<title>Node12&#45;&gt;Node6</title>
<path fill="none" stroke="midnightblue" d="M368.7,-184.83C363.41,-169.28 350.9,-136.02 333.5,-112 325.41,-100.84 314.29,-90.2 304.78,-82.08"/>
<polygon fill="midnightblue" stroke="midnightblue" points="306.91,-79.29 296.96,-75.63 302.45,-84.69 306.91,-79.29"/>
</g>
<!-- Node12&#45;&gt;Node10 -->
<g id="edge17" class="edge">
<title>Node12&#45;&gt;Node10</title>
<path fill="none" stroke="midnightblue" d="M418.99,-184.92C462.07,-176.48 527,-162.08 581.5,-143 583.12,-142.43 584.77,-141.81 586.42,-141.15"/>
<polygon fill="midnightblue" stroke="midnightblue" points="587.93,-144.31 595.7,-137.11 585.14,-137.89 587.93,-144.31"/>
</g>
<!-- Node13 -->
<g id="node13" class="node">
<title>Node13</title>
<g id="a_node13"><a xlink:href="algorithm_8hpp.html" target="_top" xlink:title=" ">
<polygon fill="white" stroke="black" points="419,-118 419,-137 572,-137 572,-118 419,-118"/>
<text text-anchor="middle" x="495.5" y="-125" font-family="Helvetica,sans-Serif" font-size="10.00">alps_cmn/util/algorithm.hpp</text>
</a>
</g>
</g>
<!-- Node12&#45;&gt;Node13 -->
<g id="edge18" class="edge">
<title>Node12&#45;&gt;Node13</title>
<path fill="none" stroke="midnightblue" d="M387.97,-184.87C408.9,-173.89 445.28,-154.82 469.86,-141.94"/>
<polygon fill="midnightblue" stroke="midnightblue" points="471.73,-144.91 478.97,-137.17 468.48,-138.71 471.73,-144.91"/>
</g>
<!-- Node14&#45;&gt;Node10 -->
<g id="edge22" class="edge">
<title>Node14&#45;&gt;Node10</title>
<path fill="none" stroke="midnightblue" d="M635.21,-179.4C630.91,-169.76 625.18,-156.91 620.55,-146.54"/>
<polygon fill="midnightblue" stroke="midnightblue" points="623.65,-144.9 616.38,-137.19 617.26,-147.75 623.65,-144.9"/>
</g>
<!-- Node14&#45;&gt;Node11 -->
<g id="edge23" class="edge">
<title>Node14&#45;&gt;Node11</title>
<path fill="none" stroke="midnightblue" d="M655.82,-179.4C666.32,-169.06 680.57,-155.02 691.45,-144.31"/>
<polygon fill="midnightblue" stroke="midnightblue" points="694,-146.71 698.67,-137.19 689.09,-141.72 694,-146.71"/>
</g>
<!-- Node14&#45;&gt;Node13 -->
<g id="edge24" class="edge">
<title>Node14&#45;&gt;Node13</title>
<path fill="none" stroke="midnightblue" d="M609.82,-179.4C584.2,-167.99 548.46,-152.08 523.8,-141.1"/>
<polygon fill="midnightblue" stroke="midnightblue" points="525.17,-137.88 514.61,-137.01 522.32,-144.27 525.17,-137.88"/>
</g>
</g>
</svg>
