<?xml version="1.0" encoding="UTF-8" standalone="no"?>
<!DOCTYPE svg PUBLIC "-//W3C//DTD SVG 1.1//EN"
 "http://www.w3.org/Graphics/SVG/1.1/DTD/svg11.dtd">
<!-- Generated by graphviz version 2.43.0 (0)
 -->
<!-- Title: alps_common_lib/include/alps_cmn/control/motor_angle_velocity_controller.hpp Pages: 1 -->
<svg width="679pt" height="307pt"
 viewBox="0.00 0.00 678.75 307.00" xmlns="http://www.w3.org/2000/svg" xmlns:xlink="http://www.w3.org/1999/xlink">
<g id="graph0" class="graph" transform="scale(1 1) rotate(0) translate(4 303)">
<title>alps_common_lib/include/alps_cmn/control/motor_angle_velocity_controller.hpp</title>
<polygon fill="white" stroke="transparent" points="-4,4 -4,-303 674.75,-303 674.75,4 -4,4"/>
<!-- Node1 -->
<g id="node1" class="node">
<title>Node1</title>
<g id="a_node1"><a xlink:title=" ">
<polygon fill="#bfbfbf" stroke="black" points="239.5,-257.5 239.5,-298.5 404.5,-298.5 404.5,-257.5 239.5,-257.5"/>
<text text-anchor="start" x="247.5" y="-286.5" font-family="Helvetica,sans-Serif" font-size="10.00">alps_common_lib/include</text>
<text text-anchor="start" x="247.5" y="-275.5" font-family="Helvetica,sans-Serif" font-size="10.00">/alps_cmn/control/motor</text>
<text text-anchor="middle" x="322" y="-264.5" font-family="Helvetica,sans-Serif" font-size="10.00">_angle_velocity_controller.hpp</text>
</a>
</g>
</g>
<!-- Node2 -->
<g id="node2" class="node">
<title>Node2</title>
<g id="a_node2"><a xlink:href="i__motor_8hpp.html" target="_top" xlink:title=" ">
<polygon fill="white" stroke="black" points="94.5,-123.5 94.5,-153.5 207.5,-153.5 207.5,-123.5 94.5,-123.5"/>
<text text-anchor="start" x="102.5" y="-141.5" font-family="Helvetica,sans-Serif" font-size="10.00">alps_cmn/actuator/i</text>
<text text-anchor="middle" x="151" y="-130.5" font-family="Helvetica,sans-Serif" font-size="10.00">_motor.hpp</text>
</a>
</g>
</g>
<!-- Node1&#45;&gt;Node2 -->
<g id="edge1" class="edge">
<title>Node1&#45;&gt;Node2</title>
<path fill="none" stroke="midnightblue" d="M260.07,-257.45C239.02,-248.68 216.44,-236.7 199,-221 181.27,-205.04 168.2,-180.94 160.22,-163.09"/>
<polygon fill="midnightblue" stroke="midnightblue" points="163.34,-161.49 156.21,-153.65 156.9,-164.22 163.34,-161.49"/>
</g>
<!-- Node3 -->
<g id="node3" class="node">
<title>Node3</title>
<g id="a_node3"><a xlink:href="motor__velocity__controller_8hpp.html" target="_top" xlink:title=" ">
<polygon fill="white" stroke="black" points="208.5,-190.5 208.5,-220.5 341.5,-220.5 341.5,-190.5 208.5,-190.5"/>
<text text-anchor="start" x="216.5" y="-208.5" font-family="Helvetica,sans-Serif" font-size="10.00">alps_cmn/control/motor</text>
<text text-anchor="middle" x="275" y="-197.5" font-family="Helvetica,sans-Serif" font-size="10.00">_velocity_controller.hpp</text>
</a>
</g>
</g>
<!-- Node1&#45;&gt;Node3 -->
<g id="edge2" class="edge">
<title>Node1&#45;&gt;Node3</title>
<path fill="none" stroke="midnightblue" d="M308.91,-257.36C303.12,-248.68 296.28,-238.42 290.27,-229.4"/>
<polygon fill="midnightblue" stroke="midnightblue" points="293.05,-227.27 284.59,-220.89 287.23,-231.15 293.05,-227.27"/>
</g>
<!-- Node7 -->
<g id="node7" class="node">
<title>Node7</title>
<g id="a_node7"><a xlink:href="pid_8hpp.html" target="_top" xlink:title=" ">
<polygon fill="white" stroke="black" points="302.5,-129 302.5,-148 441.5,-148 441.5,-129 302.5,-129"/>
<text text-anchor="middle" x="372" y="-136" font-family="Helvetica,sans-Serif" font-size="10.00">alps_cmn/control/pid.hpp</text>
</a>
</g>
</g>
<!-- Node1&#45;&gt;Node7 -->
<g id="edge19" class="edge">
<title>Node1&#45;&gt;Node7</title>
<path fill="none" stroke="midnightblue" d="M332.97,-257.48C338.59,-246.91 345.24,-233.5 350,-221 357.96,-200.08 364.26,-175.11 368.04,-158.37"/>
<polygon fill="midnightblue" stroke="midnightblue" points="371.53,-158.76 370.24,-148.25 364.69,-157.27 371.53,-158.76"/>
</g>
<!-- Node12 -->
<g id="node12" class="node">
<title>Node12</title>
<g id="a_node12"><a xlink:href="i__rotary__sensor_8hpp.html" target="_top" xlink:title=" ">
<polygon fill="white" stroke="black" points="459.5,-123.5 459.5,-153.5 598.5,-153.5 598.5,-123.5 459.5,-123.5"/>
<text text-anchor="start" x="467.5" y="-141.5" font-family="Helvetica,sans-Serif" font-size="10.00">alps_cmn/sensor/i_rotary</text>
<text text-anchor="middle" x="529" y="-130.5" font-family="Helvetica,sans-Serif" font-size="10.00">_sensor.hpp</text>
</a>
</g>
</g>
<!-- Node1&#45;&gt;Node12 -->
<g id="edge20" class="edge">
<title>Node1&#45;&gt;Node12</title>
<path fill="none" stroke="midnightblue" d="M351.66,-257.3C391.05,-231.13 460.21,-185.19 499.51,-159.09"/>
<polygon fill="midnightblue" stroke="midnightblue" points="501.5,-161.97 507.89,-153.52 497.63,-156.14 501.5,-161.97"/>
</g>
<!-- Node3&#45;&gt;Node2 -->
<g id="edge3" class="edge">
<title>Node3&#45;&gt;Node2</title>
<path fill="none" stroke="midnightblue" d="M248.09,-190.4C230.14,-180.98 206.33,-168.5 186.78,-158.26"/>
<polygon fill="midnightblue" stroke="midnightblue" points="188.34,-155.12 177.85,-153.58 185.09,-161.32 188.34,-155.12"/>
</g>
<!-- Node4 -->
<g id="node4" class="node">
<title>Node4</title>
<g id="a_node4"><a xlink:href="differentiator_8hpp.html" target="_top" xlink:title="微分器ライブラリ">
<polygon fill="white" stroke="black" points="138.5,-62 138.5,-81 325.5,-81 325.5,-62 138.5,-62"/>
<text text-anchor="middle" x="232" y="-69" font-family="Helvetica,sans-Serif" font-size="10.00">alps_cmn/control/differentiator.hpp</text>
</a>
</g>
</g>
<!-- Node3&#45;&gt;Node4 -->
<g id="edge4" class="edge">
<title>Node3&#45;&gt;Node4</title>
<path fill="none" stroke="midnightblue" d="M270.86,-190.3C266.05,-174 257.78,-146.46 250,-123 246.43,-112.22 242.17,-100.23 238.69,-90.65"/>
<polygon fill="midnightblue" stroke="midnightblue" points="241.9,-89.23 235.17,-81.04 235.32,-91.63 241.9,-89.23"/>
</g>
<!-- Node6 -->
<g id="node6" class="node">
<title>Node6</title>
<g id="a_node6"><a xlink:href="low__pass__filter_8hpp.html" target="_top" xlink:title="ローパスフィルタのクラス">
<polygon fill="white" stroke="black" points="0,-56.5 0,-86.5 120,-86.5 120,-56.5 0,-56.5"/>
<text text-anchor="start" x="8" y="-74.5" font-family="Helvetica,sans-Serif" font-size="10.00">alps_cmn/control/low</text>
<text text-anchor="middle" x="60" y="-63.5" font-family="Helvetica,sans-Serif" font-size="10.00">_pass_filter.hpp</text>
</a>
</g>
</g>
<!-- Node3&#45;&gt;Node6 -->
<g id="edge6" class="edge">
<title>Node3&#45;&gt;Node6</title>
<path fill="none" stroke="midnightblue" d="M268.28,-190.27C259.01,-172.1 240.58,-140.87 216,-123 201.06,-112.14 161.16,-99.31 125.46,-89.3"/>
<polygon fill="midnightblue" stroke="midnightblue" points="126.1,-85.84 115.53,-86.55 124.24,-92.59 126.1,-85.84"/>
</g>
<!-- Node3&#45;&gt;Node7 -->
<g id="edge8" class="edge">
<title>Node3&#45;&gt;Node7</title>
<path fill="none" stroke="midnightblue" d="M296.05,-190.4C312.31,-179.5 334.72,-164.48 350.98,-153.58"/>
<polygon fill="midnightblue" stroke="midnightblue" points="352.95,-156.48 359.3,-148.01 349.05,-150.67 352.95,-156.48"/>
</g>
<!-- Node3&#45;&gt;Node12 -->
<g id="edge18" class="edge">
<title>Node3&#45;&gt;Node12</title>
<path fill="none" stroke="midnightblue" d="M329.8,-190.48C369.23,-180.39 422.55,-166.74 464.1,-156.11"/>
<polygon fill="midnightblue" stroke="midnightblue" points="465.04,-159.48 473.86,-153.61 463.3,-152.7 465.04,-159.48"/>
</g>
<!-- Node5 -->
<g id="node5" class="node">
<title>Node5</title>
<g id="a_node5"><a xlink:title=" ">
<polygon fill="white" stroke="#bfbfbf" points="277,-0.5 277,-19.5 327,-19.5 327,-0.5 277,-0.5"/>
<text text-anchor="middle" x="302" y="-7.5" font-family="Helvetica,sans-Serif" font-size="10.00">chrono</text>
</a>
</g>
</g>
<!-- Node4&#45;&gt;Node5 -->
<g id="edge5" class="edge">
<title>Node4&#45;&gt;Node5</title>
<path fill="none" stroke="midnightblue" d="M242.03,-61.98C253.05,-52.61 270.96,-37.38 284.34,-26.01"/>
<polygon fill="midnightblue" stroke="midnightblue" points="286.64,-28.65 291.99,-19.51 282.1,-23.32 286.64,-28.65"/>
</g>
<!-- Node6&#45;&gt;Node5 -->
<g id="edge7" class="edge">
<title>Node6&#45;&gt;Node5</title>
<path fill="none" stroke="midnightblue" d="M117.04,-56.47C163.48,-45.06 227.55,-29.3 266.8,-19.65"/>
<polygon fill="midnightblue" stroke="midnightblue" points="267.83,-23.01 276.7,-17.22 266.16,-16.21 267.83,-23.01"/>
</g>
<!-- Node7&#45;&gt;Node4 -->
<g id="edge12" class="edge">
<title>Node7&#45;&gt;Node4</title>
<path fill="none" stroke="midnightblue" d="M353.41,-128.87C329.46,-117.75 287.61,-98.32 259.85,-85.43"/>
<polygon fill="midnightblue" stroke="midnightblue" points="261.21,-82.2 250.67,-81.17 258.26,-88.55 261.21,-82.2"/>
</g>
<!-- Node7&#45;&gt;Node5 -->
<g id="edge9" class="edge">
<title>Node7&#45;&gt;Node5</title>
<path fill="none" stroke="midnightblue" d="M368.51,-128.67C362.34,-113.43 348.77,-81.36 334,-56 328.33,-46.27 321.13,-35.99 314.99,-27.71"/>
<polygon fill="midnightblue" stroke="midnightblue" points="317.7,-25.5 308.87,-19.65 312.12,-29.73 317.7,-25.5"/>
</g>
<!-- Node8 -->
<g id="node8" class="node">
<title>Node8</title>
<g id="a_node8"><a xlink:title=" ">
<polygon fill="white" stroke="#bfbfbf" points="419.5,-62 419.5,-81 466.5,-81 466.5,-62 419.5,-62"/>
<text text-anchor="middle" x="443" y="-69" font-family="Helvetica,sans-Serif" font-size="10.00">cmath</text>
</a>
</g>
</g>
<!-- Node7&#45;&gt;Node8 -->
<g id="edge10" class="edge">
<title>Node7&#45;&gt;Node8</title>
<path fill="none" stroke="midnightblue" d="M381.58,-128.73C392.97,-118.31 412.19,-100.71 426.1,-87.97"/>
<polygon fill="midnightblue" stroke="midnightblue" points="428.56,-90.46 433.58,-81.13 423.84,-85.3 428.56,-90.46"/>
</g>
<!-- Node9 -->
<g id="node9" class="node">
<title>Node9</title>
<g id="a_node9"><a xlink:title=" ">
<polygon fill="white" stroke="#bfbfbf" points="605,-0.5 605,-19.5 649,-19.5 649,-0.5 605,-0.5"/>
<text text-anchor="middle" x="627" y="-7.5" font-family="Helvetica,sans-Serif" font-size="10.00">limits</text>
</a>
</g>
</g>
<!-- Node7&#45;&gt;Node9 -->
<g id="edge11" class="edge">
<title>Node7&#45;&gt;Node9</title>
<path fill="none" stroke="midnightblue" d="M417.93,-128.95C428.77,-126.97 440.29,-124.88 451,-123 498.49,-114.65 633.86,-123.82 665,-87 680.47,-68.71 661.02,-43.03 644.72,-26.71"/>
<polygon fill="midnightblue" stroke="midnightblue" points="646.81,-23.86 637.15,-19.52 641.99,-28.94 646.81,-23.86"/>
</g>
<!-- Node10 -->
<g id="node10" class="node">
<title>Node10</title>
<g id="a_node10"><a xlink:href="integrator_8hpp.html" target="_top" xlink:title="積分器ライブラリ">
<polygon fill="white" stroke="black" points="484.5,-62 484.5,-81 655.5,-81 655.5,-62 484.5,-62"/>
<text text-anchor="middle" x="570" y="-69" font-family="Helvetica,sans-Serif" font-size="10.00">alps_cmn/control/integrator.hpp</text>
</a>
</g>
</g>
<!-- Node7&#45;&gt;Node10 -->
<g id="edge13" class="edge">
<title>Node7&#45;&gt;Node10</title>
<path fill="none" stroke="midnightblue" d="M398.29,-128.87C433.23,-117.4 495.08,-97.09 534.24,-84.24"/>
<polygon fill="midnightblue" stroke="midnightblue" points="535.5,-87.51 543.91,-81.06 533.32,-80.86 535.5,-87.51"/>
</g>
<!-- Node11 -->
<g id="node11" class="node">
<title>Node11</title>
<g id="a_node11"><a xlink:href="algorithm_8hpp.html" target="_top" xlink:title=" ">
<polygon fill="white" stroke="black" points="364.5,-0.5 364.5,-19.5 517.5,-19.5 517.5,-0.5 364.5,-0.5"/>
<text text-anchor="middle" x="441" y="-7.5" font-family="Helvetica,sans-Serif" font-size="10.00">alps_cmn/util/algorithm.hpp</text>
</a>
</g>
</g>
<!-- Node7&#45;&gt;Node11 -->
<g id="edge17" class="edge">
<title>Node7&#45;&gt;Node11</title>
<path fill="none" stroke="midnightblue" d="M375.53,-128.7C381.76,-113.49 395.42,-81.47 410,-56 415.54,-46.33 422.52,-36.05 428.46,-27.77"/>
<polygon fill="midnightblue" stroke="midnightblue" points="431.29,-29.82 434.37,-19.68 425.64,-25.69 431.29,-29.82"/>
</g>
<!-- Node10&#45;&gt;Node5 -->
<g id="edge14" class="edge">
<title>Node10&#45;&gt;Node5</title>
<path fill="none" stroke="midnightblue" d="M531.6,-61.98C479.58,-50.43 387.44,-29.97 337.15,-18.8"/>
<polygon fill="midnightblue" stroke="midnightblue" points="337.61,-15.32 327.09,-16.57 336.09,-22.15 337.61,-15.32"/>
</g>
<!-- Node10&#45;&gt;Node9 -->
<g id="edge15" class="edge">
<title>Node10&#45;&gt;Node9</title>
<path fill="none" stroke="midnightblue" d="M578.17,-61.98C586.89,-52.87 600.9,-38.24 611.69,-26.98"/>
<polygon fill="midnightblue" stroke="midnightblue" points="614.46,-29.15 618.85,-19.51 609.4,-24.31 614.46,-29.15"/>
</g>
<!-- Node10&#45;&gt;Node11 -->
<g id="edge16" class="edge">
<title>Node10&#45;&gt;Node11</title>
<path fill="none" stroke="midnightblue" d="M551.52,-61.98C529.87,-51.99 493.79,-35.35 468.77,-23.81"/>
<polygon fill="midnightblue" stroke="midnightblue" points="469.99,-20.52 459.45,-19.51 467.06,-26.88 469.99,-20.52"/>
</g>
</g>
</svg>
