<?xml version="1.0" encoding="UTF-8" standalone="no"?>
<!DOCTYPE svg PUBLIC "-//W3C//DTD SVG 1.1//EN"
 "http://www.w3.org/Graphics/SVG/1.1/DTD/svg11.dtd">
<!-- Generated by graphviz version 2.43.0 (0)
 -->
<!-- Title: alps_common_lib/include/alps_cmn/control/motor_angle_velocity_controller.hpp Pages: 1 -->
<svg width="774pt" height="430pt"
 viewBox="0.00 0.00 773.50 430.00" xmlns="http://www.w3.org/2000/svg" xmlns:xlink="http://www.w3.org/1999/xlink">
<g id="graph0" class="graph" transform="scale(1 1) rotate(0) translate(4 426)">
<title>alps_common_lib/include/alps_cmn/control/motor_angle_velocity_controller.hpp</title>
<polygon fill="white" stroke="transparent" points="-4,4 -4,-426 769.5,-426 769.5,4 -4,4"/>
<!-- Node1 -->
<g id="node1" class="node">
<title>Node1</title>
<g id="a_node1"><a xlink:title=" ">
<polygon fill="#bfbfbf" stroke="black" points="455.5,-380.5 455.5,-421.5 620.5,-421.5 620.5,-380.5 455.5,-380.5"/>
<text text-anchor="start" x="463.5" y="-409.5" font-family="Helvetica,sans-Serif" font-size="10.00">alps_common_lib/include</text>
<text text-anchor="start" x="463.5" y="-398.5" font-family="Helvetica,sans-Serif" font-size="10.00">/alps_cmn/control/motor</text>
<text text-anchor="middle" x="538" y="-387.5" font-family="Helvetica,sans-Serif" font-size="10.00">_angle_velocity_controller.hpp</text>
</a>
</g>
</g>
<!-- Node2 -->
<g id="node2" class="node">
<title>Node2</title>
<g id="a_node2"><a xlink:href="i__motor_8hpp.html" target="_top" xlink:title=" ">
<polygon fill="white" stroke="black" points="299.5,-246.5 299.5,-276.5 412.5,-276.5 412.5,-246.5 299.5,-246.5"/>
<text text-anchor="start" x="307.5" y="-264.5" font-family="Helvetica,sans-Serif" font-size="10.00">alps_cmn/actuator/i</text>
<text text-anchor="middle" x="356" y="-253.5" font-family="Helvetica,sans-Serif" font-size="10.00">_motor.hpp</text>
</a>
</g>
</g>
<!-- Node1&#45;&gt;Node2 -->
<g id="edge1" class="edge">
<title>Node1&#45;&gt;Node2</title>
<path fill="none" stroke="midnightblue" d="M455.15,-391.7C423.02,-384.21 388.79,-370.17 367,-344 353.91,-328.28 352.03,-304.63 352.91,-286.85"/>
<polygon fill="midnightblue" stroke="midnightblue" points="356.41,-286.91 353.74,-276.66 349.44,-286.34 356.41,-286.91"/>
</g>
<!-- Node3 -->
<g id="node3" class="node">
<title>Node3</title>
<g id="a_node3"><a xlink:href="motor__velocity__controller_8hpp.html" target="_top" xlink:title=" ">
<polygon fill="white" stroke="black" points="376.5,-313.5 376.5,-343.5 509.5,-343.5 509.5,-313.5 376.5,-313.5"/>
<text text-anchor="start" x="384.5" y="-331.5" font-family="Helvetica,sans-Serif" font-size="10.00">alps_cmn/control/motor</text>
<text text-anchor="middle" x="443" y="-320.5" font-family="Helvetica,sans-Serif" font-size="10.00">_velocity_controller.hpp</text>
</a>
</g>
</g>
<!-- Node1&#45;&gt;Node3 -->
<g id="edge2" class="edge">
<title>Node1&#45;&gt;Node3</title>
<path fill="none" stroke="midnightblue" d="M511.54,-380.36C498.66,-370.8 483.19,-359.33 470.21,-349.69"/>
<polygon fill="midnightblue" stroke="midnightblue" points="472.21,-346.82 462.09,-343.67 468.04,-352.44 472.21,-346.82"/>
</g>
<!-- Node9 -->
<g id="node9" class="node">
<title>Node9</title>
<g id="a_node9"><a xlink:href="pid_8hpp.html" target="_top" xlink:title=" ">
<polygon fill="white" stroke="black" points="469.5,-252 469.5,-271 608.5,-271 608.5,-252 469.5,-252"/>
<text text-anchor="middle" x="539" y="-259" font-family="Helvetica,sans-Serif" font-size="10.00">alps_cmn/control/pid.hpp</text>
</a>
</g>
</g>
<!-- Node1&#45;&gt;Node9 -->
<g id="edge30" class="edge">
<title>Node1&#45;&gt;Node9</title>
<path fill="none" stroke="midnightblue" d="M538.14,-380.3C538.34,-353.9 538.67,-307.36 538.86,-281.38"/>
<polygon fill="midnightblue" stroke="midnightblue" points="542.36,-281.06 538.94,-271.04 535.37,-281.01 542.36,-281.06"/>
</g>
<!-- Node15 -->
<g id="node15" class="node">
<title>Node15</title>
<g id="a_node15"><a xlink:href="i__rotary__sensor_8hpp.html" target="_top" xlink:title=" ">
<polygon fill="white" stroke="black" points="626.5,-246.5 626.5,-276.5 765.5,-276.5 765.5,-246.5 626.5,-246.5"/>
<text text-anchor="start" x="634.5" y="-264.5" font-family="Helvetica,sans-Serif" font-size="10.00">alps_cmn/sensor/i_rotary</text>
<text text-anchor="middle" x="696" y="-253.5" font-family="Helvetica,sans-Serif" font-size="10.00">_sensor.hpp</text>
</a>
</g>
</g>
<!-- Node1&#45;&gt;Node15 -->
<g id="edge31" class="edge">
<title>Node1&#45;&gt;Node15</title>
<path fill="none" stroke="midnightblue" d="M620.78,-393.03C653.09,-385.78 687.1,-371.56 707,-344 719.02,-327.36 714.07,-303.7 707.42,-286.16"/>
<polygon fill="midnightblue" stroke="midnightblue" points="710.52,-284.5 703.42,-276.64 704.06,-287.21 710.52,-284.5"/>
</g>
<!-- Node16 -->
<g id="node16" class="node">
<title>Node16</title>
<g id="a_node16"><a xlink:href="motor__angle__controller_8hpp.html" target="_top" xlink:title=" ">
<polygon fill="white" stroke="black" points="566,-313.5 566,-343.5 698,-343.5 698,-313.5 566,-313.5"/>
<text text-anchor="start" x="574" y="-331.5" font-family="Helvetica,sans-Serif" font-size="10.00">alps_cmn/control/motor</text>
<text text-anchor="middle" x="632" y="-320.5" font-family="Helvetica,sans-Serif" font-size="10.00">_angle_controller.hpp</text>
</a>
</g>
</g>
<!-- Node1&#45;&gt;Node16 -->
<g id="edge26" class="edge">
<title>Node1&#45;&gt;Node16</title>
<path fill="none" stroke="midnightblue" d="M564.18,-380.36C576.93,-370.8 592.23,-359.33 605.07,-349.69"/>
<polygon fill="midnightblue" stroke="midnightblue" points="607.21,-352.47 613.11,-343.67 603.01,-346.87 607.21,-352.47"/>
</g>
<!-- Node3&#45;&gt;Node2 -->
<g id="edge3" class="edge">
<title>Node3&#45;&gt;Node2</title>
<path fill="none" stroke="midnightblue" d="M424.12,-313.4C412.15,-304.45 396.47,-292.74 383.17,-282.8"/>
<polygon fill="midnightblue" stroke="midnightblue" points="384.95,-279.76 374.84,-276.58 380.76,-285.37 384.95,-279.76"/>
</g>
<!-- Node4 -->
<g id="node4" class="node">
<title>Node4</title>
<g id="a_node4"><a xlink:href="low__pass__differentiator_8hpp.html" target="_top" xlink:title=" ">
<polygon fill="white" stroke="black" points="135,-179.5 135,-209.5 269,-209.5 269,-179.5 135,-179.5"/>
<text text-anchor="start" x="143" y="-197.5" font-family="Helvetica,sans-Serif" font-size="10.00">alps_cmn/control/low</text>
<text text-anchor="middle" x="202" y="-186.5" font-family="Helvetica,sans-Serif" font-size="10.00">_pass_differentiator.hpp</text>
</a>
</g>
</g>
<!-- Node3&#45;&gt;Node4 -->
<g id="edge4" class="edge">
<title>Node3&#45;&gt;Node4</title>
<path fill="none" stroke="midnightblue" d="M443.33,-313.22C442.93,-294.99 439.36,-263.7 421,-246 415.69,-240.88 340.13,-224.17 279.23,-211.36"/>
<polygon fill="midnightblue" stroke="midnightblue" points="279.72,-207.88 269.21,-209.26 278.28,-214.73 279.72,-207.88"/>
</g>
<!-- Node3&#45;&gt;Node9 -->
<g id="edge12" class="edge">
<title>Node3&#45;&gt;Node9</title>
<path fill="none" stroke="midnightblue" d="M463.83,-313.4C479.78,-302.6 501.7,-287.76 517.75,-276.89"/>
<polygon fill="midnightblue" stroke="midnightblue" points="520.12,-279.51 526.44,-271.01 516.19,-273.72 520.12,-279.51"/>
</g>
<!-- Node3&#45;&gt;Node15 -->
<g id="edge25" class="edge">
<title>Node3&#45;&gt;Node15</title>
<path fill="none" stroke="midnightblue" d="M497.59,-313.48C536.85,-303.39 589.97,-289.74 631.36,-279.11"/>
<polygon fill="midnightblue" stroke="midnightblue" points="632.26,-282.49 641.08,-276.61 630.52,-275.71 632.26,-282.49"/>
</g>
<!-- Node5 -->
<g id="node5" class="node">
<title>Node5</title>
<g id="a_node5"><a xlink:href="differentiator_8hpp.html" target="_top" xlink:title="微分器ライブラリ">
<polygon fill="white" stroke="black" points="138.5,-118 138.5,-137 325.5,-137 325.5,-118 138.5,-118"/>
<text text-anchor="middle" x="232" y="-125" font-family="Helvetica,sans-Serif" font-size="10.00">alps_cmn/control/differentiator.hpp</text>
</a>
</g>
</g>
<!-- Node4&#45;&gt;Node5 -->
<g id="edge5" class="edge">
<title>Node4&#45;&gt;Node5</title>
<path fill="none" stroke="midnightblue" d="M208.51,-179.4C212.96,-169.76 218.89,-156.91 223.68,-146.54"/>
<polygon fill="midnightblue" stroke="midnightblue" points="226.97,-147.74 227.99,-137.19 220.62,-144.81 226.97,-147.74"/>
</g>
<!-- Node8 -->
<g id="node8" class="node">
<title>Node8</title>
<g id="a_node8"><a xlink:href="low__pass__filter_8hpp.html" target="_top" xlink:title="ローパスフィルタのクラス">
<polygon fill="white" stroke="black" points="0,-112.5 0,-142.5 120,-142.5 120,-112.5 0,-112.5"/>
<text text-anchor="start" x="8" y="-130.5" font-family="Helvetica,sans-Serif" font-size="10.00">alps_cmn/control/low</text>
<text text-anchor="middle" x="60" y="-119.5" font-family="Helvetica,sans-Serif" font-size="10.00">_pass_filter.hpp</text>
</a>
</g>
</g>
<!-- Node4&#45;&gt;Node8 -->
<g id="edge9" class="edge">
<title>Node4&#45;&gt;Node8</title>
<path fill="none" stroke="midnightblue" d="M171.19,-179.4C150.35,-169.86 122.62,-157.16 100.07,-146.84"/>
<polygon fill="midnightblue" stroke="midnightblue" points="101.3,-143.56 90.75,-142.58 98.39,-149.92 101.3,-143.56"/>
</g>
<!-- Node6 -->
<g id="node6" class="node">
<title>Node6</title>
<g id="a_node6"><a xlink:title=" ">
<polygon fill="white" stroke="#bfbfbf" points="261,-0.5 261,-19.5 311,-19.5 311,-0.5 261,-0.5"/>
<text text-anchor="middle" x="286" y="-7.5" font-family="Helvetica,sans-Serif" font-size="10.00">chrono</text>
</a>
</g>
</g>
<!-- Node5&#45;&gt;Node6 -->
<g id="edge6" class="edge">
<title>Node5&#45;&gt;Node6</title>
<path fill="none" stroke="midnightblue" d="M222.79,-117.93C209.33,-104.32 187.19,-77.16 200,-56 211.1,-37.67 232.38,-26.45 251,-19.79"/>
<polygon fill="midnightblue" stroke="midnightblue" points="252.28,-23.06 260.71,-16.63 250.12,-16.4 252.28,-23.06"/>
</g>
<!-- Node7 -->
<g id="node7" class="node">
<title>Node7</title>
<g id="a_node7"><a xlink:href="duration_8hpp.html" target="_top" xlink:title="時間間隔の型エイリアス">
<polygon fill="white" stroke="black" points="209.5,-56.5 209.5,-75.5 362.5,-75.5 362.5,-56.5 209.5,-56.5"/>
<text text-anchor="middle" x="286" y="-63.5" font-family="Helvetica,sans-Serif" font-size="10.00">alps_cmn/time/duration.hpp</text>
</a>
</g>
</g>
<!-- Node5&#45;&gt;Node7 -->
<g id="edge7" class="edge">
<title>Node5&#45;&gt;Node7</title>
<path fill="none" stroke="midnightblue" d="M239.74,-117.98C248,-108.87 261.28,-94.24 271.49,-82.98"/>
<polygon fill="midnightblue" stroke="midnightblue" points="274.15,-85.27 278.28,-75.51 268.97,-80.56 274.15,-85.27"/>
</g>
<!-- Node7&#45;&gt;Node6 -->
<g id="edge8" class="edge">
<title>Node7&#45;&gt;Node6</title>
<path fill="none" stroke="midnightblue" d="M286,-56.08C286,-49.01 286,-38.86 286,-29.99"/>
<polygon fill="midnightblue" stroke="midnightblue" points="289.5,-29.75 286,-19.75 282.5,-29.75 289.5,-29.75"/>
</g>
<!-- Node8&#45;&gt;Node6 -->
<g id="edge10" class="edge">
<title>Node8&#45;&gt;Node6</title>
<path fill="none" stroke="midnightblue" d="M85.85,-112.44C112.54,-98 155.47,-75.02 193,-56 214.94,-44.88 240.05,-32.77 258.65,-23.91"/>
<polygon fill="midnightblue" stroke="midnightblue" points="260.19,-27.05 267.73,-19.6 257.19,-20.73 260.19,-27.05"/>
</g>
<!-- Node8&#45;&gt;Node7 -->
<g id="edge11" class="edge">
<title>Node8&#45;&gt;Node7</title>
<path fill="none" stroke="midnightblue" d="M113.27,-112.47C153.11,-101.99 206.86,-87.84 243.75,-78.12"/>
<polygon fill="midnightblue" stroke="midnightblue" points="244.91,-81.44 253.69,-75.51 243.13,-74.67 244.91,-81.44"/>
</g>
<!-- Node9&#45;&gt;Node4 -->
<g id="edge21" class="edge">
<title>Node9&#45;&gt;Node4</title>
<path fill="none" stroke="midnightblue" d="M494.6,-251.94C439.86,-241.38 345.9,-223.26 279.24,-210.4"/>
<polygon fill="midnightblue" stroke="midnightblue" points="279.68,-206.92 269.2,-208.46 278.36,-213.79 279.68,-206.92"/>
</g>
<!-- Node9&#45;&gt;Node6 -->
<g id="edge13" class="edge">
<title>Node9&#45;&gt;Node6</title>
<path fill="none" stroke="midnightblue" d="M577.77,-251.96C627.01,-240.74 706.61,-221.14 715,-210 723.29,-199 720.46,-191.65 715,-179 649.72,-27.63 411.51,-11.1 321.12,-10.41"/>
<polygon fill="midnightblue" stroke="midnightblue" points="321.1,-6.91 311.09,-10.39 321.09,-13.91 321.1,-6.91"/>
</g>
<!-- Node10 -->
<g id="node10" class="node">
<title>Node10</title>
<g id="a_node10"><a xlink:title=" ">
<polygon fill="white" stroke="#bfbfbf" points="658.5,-185 658.5,-204 705.5,-204 705.5,-185 658.5,-185"/>
<text text-anchor="middle" x="682" y="-192" font-family="Helvetica,sans-Serif" font-size="10.00">cmath</text>
</a>
</g>
</g>
<!-- Node9&#45;&gt;Node10 -->
<g id="edge14" class="edge">
<title>Node9&#45;&gt;Node10</title>
<path fill="none" stroke="midnightblue" d="M557.99,-251.87C582.46,-240.75 625.2,-221.32 653.56,-208.43"/>
<polygon fill="midnightblue" stroke="midnightblue" points="655.28,-211.49 662.93,-204.17 652.38,-205.12 655.28,-211.49"/>
</g>
<!-- Node11 -->
<g id="node11" class="node">
<title>Node11</title>
<g id="a_node11"><a xlink:title=" ">
<polygon fill="white" stroke="#bfbfbf" points="591,-118 591,-137 635,-137 635,-118 591,-118"/>
<text text-anchor="middle" x="613" y="-125" font-family="Helvetica,sans-Serif" font-size="10.00">limits</text>
</a>
</g>
</g>
<!-- Node9&#45;&gt;Node11 -->
<g id="edge15" class="edge">
<title>Node9&#45;&gt;Node11</title>
<path fill="none" stroke="midnightblue" d="M559.9,-251.97C576.7,-243.88 599.23,-229.97 610,-210 620.48,-190.58 619.31,-164.6 616.79,-147.24"/>
<polygon fill="midnightblue" stroke="midnightblue" points="620.21,-146.49 615.05,-137.24 613.32,-147.69 620.21,-146.49"/>
</g>
<!-- Node12 -->
<g id="node12" class="node">
<title>Node12</title>
<g id="a_node12"><a xlink:href="integrator_8hpp.html" target="_top" xlink:title="積分器ライブラリ">
<polygon fill="white" stroke="black" points="287.5,-185 287.5,-204 458.5,-204 458.5,-185 287.5,-185"/>
<text text-anchor="middle" x="373" y="-192" font-family="Helvetica,sans-Serif" font-size="10.00">alps_cmn/control/integrator.hpp</text>
</a>
</g>
</g>
<!-- Node9&#45;&gt;Node12 -->
<g id="edge16" class="edge">
<title>Node9&#45;&gt;Node12</title>
<path fill="none" stroke="midnightblue" d="M516.96,-251.87C488.1,-240.57 437.35,-220.7 404.46,-207.82"/>
<polygon fill="midnightblue" stroke="midnightblue" points="405.46,-204.45 394.87,-204.06 402.91,-210.97 405.46,-204.45"/>
</g>
<!-- Node14 -->
<g id="node14" class="node">
<title>Node14</title>
<g id="a_node14"><a xlink:href="numeric__range_8hpp.html" target="_top" xlink:title="数値の範囲を扱うクラス">
<polygon fill="white" stroke="black" points="476.5,-179.5 476.5,-209.5 601.5,-209.5 601.5,-179.5 476.5,-179.5"/>
<text text-anchor="start" x="484.5" y="-197.5" font-family="Helvetica,sans-Serif" font-size="10.00">alps_cmn/util/numeric</text>
<text text-anchor="middle" x="539" y="-186.5" font-family="Helvetica,sans-Serif" font-size="10.00">_range.hpp</text>
</a>
</g>
</g>
<!-- Node9&#45;&gt;Node14 -->
<g id="edge22" class="edge">
<title>Node9&#45;&gt;Node14</title>
<path fill="none" stroke="midnightblue" d="M539,-251.73C539,-243.54 539,-230.92 539,-219.71"/>
<polygon fill="midnightblue" stroke="midnightblue" points="542.5,-219.59 539,-209.59 535.5,-219.59 542.5,-219.59"/>
</g>
<!-- Node12&#45;&gt;Node6 -->
<g id="edge17" class="edge">
<title>Node12&#45;&gt;Node6</title>
<path fill="none" stroke="midnightblue" d="M375.64,-184.95C382.18,-162.04 396.8,-98.15 371,-56 359.99,-38.01 339.16,-26.82 320.87,-20.1"/>
<polygon fill="midnightblue" stroke="midnightblue" points="321.92,-16.76 311.33,-16.89 319.69,-23.39 321.92,-16.76"/>
</g>
<!-- Node12&#45;&gt;Node7 -->
<g id="edge20" class="edge">
<title>Node12&#45;&gt;Node7</title>
<path fill="none" stroke="midnightblue" d="M370.07,-184.84C364.56,-169.29 351.61,-136.05 334,-112 325.86,-100.88 314.73,-90.25 305.24,-82.11"/>
<polygon fill="midnightblue" stroke="midnightblue" points="307.37,-79.33 297.43,-75.65 302.91,-84.72 307.37,-79.33"/>
</g>
<!-- Node12&#45;&gt;Node11 -->
<g id="edge18" class="edge">
<title>Node12&#45;&gt;Node11</title>
<path fill="none" stroke="midnightblue" d="M418.74,-184.97C461.36,-176.41 526.37,-161.82 581,-143 582.67,-142.43 584.36,-141.8 586.06,-141.13"/>
<polygon fill="midnightblue" stroke="midnightblue" points="587.79,-144.2 595.63,-137.08 585.06,-137.76 587.79,-144.2"/>
</g>
<!-- Node13 -->
<g id="node13" class="node">
<title>Node13</title>
<g id="a_node13"><a xlink:href="algorithm_8hpp.html" target="_top" xlink:title=" ">
<polygon fill="white" stroke="black" points="419.5,-118 419.5,-137 572.5,-137 572.5,-118 419.5,-118"/>
<text text-anchor="middle" x="496" y="-125" font-family="Helvetica,sans-Serif" font-size="10.00">alps_cmn/util/algorithm.hpp</text>
</a>
</g>
</g>
<!-- Node12&#45;&gt;Node13 -->
<g id="edge19" class="edge">
<title>Node12&#45;&gt;Node13</title>
<path fill="none" stroke="midnightblue" d="M389.33,-184.87C410.1,-173.89 446.19,-154.82 470.57,-141.94"/>
<polygon fill="midnightblue" stroke="midnightblue" points="472.39,-144.93 479.6,-137.17 469.12,-138.75 472.39,-144.93"/>
</g>
<!-- Node14&#45;&gt;Node11 -->
<g id="edge23" class="edge">
<title>Node14&#45;&gt;Node11</title>
<path fill="none" stroke="midnightblue" d="M555.06,-179.4C566.94,-168.96 583.11,-154.75 595.36,-144"/>
<polygon fill="midnightblue" stroke="midnightblue" points="597.9,-146.42 603.1,-137.19 593.28,-141.16 597.9,-146.42"/>
</g>
<!-- Node14&#45;&gt;Node13 -->
<g id="edge24" class="edge">
<title>Node14&#45;&gt;Node13</title>
<path fill="none" stroke="midnightblue" d="M529.67,-179.4C523.1,-169.46 514.26,-156.11 507.29,-145.57"/>
<polygon fill="midnightblue" stroke="midnightblue" points="510.19,-143.6 501.75,-137.19 504.35,-147.47 510.19,-143.6"/>
</g>
<!-- Node16&#45;&gt;Node2 -->
<g id="edge27" class="edge">
<title>Node16&#45;&gt;Node2</title>
<path fill="none" stroke="midnightblue" d="M572.45,-313.48C528.31,-303.08 468.13,-288.91 422.43,-278.14"/>
<polygon fill="midnightblue" stroke="midnightblue" points="423.15,-274.72 412.61,-275.83 421.54,-281.53 423.15,-274.72"/>
</g>
<!-- Node16&#45;&gt;Node9 -->
<g id="edge28" class="edge">
<title>Node16&#45;&gt;Node9</title>
<path fill="none" stroke="midnightblue" d="M611.82,-313.4C596.37,-302.6 575.14,-287.76 559.58,-276.89"/>
<polygon fill="midnightblue" stroke="midnightblue" points="561.37,-273.87 551.17,-271.01 557.36,-279.6 561.37,-273.87"/>
</g>
<!-- Node16&#45;&gt;Node15 -->
<g id="edge29" class="edge">
<title>Node16&#45;&gt;Node15</title>
<path fill="none" stroke="midnightblue" d="M645.89,-313.4C654.36,-304.79 665.35,-293.63 674.89,-283.94"/>
<polygon fill="midnightblue" stroke="midnightblue" points="677.62,-286.16 682.14,-276.58 672.63,-281.25 677.62,-286.16"/>
</g>
</g>
</svg>
