<?xml version="1.0" encoding="UTF-8" standalone="no"?>
<!DOCTYPE svg PUBLIC "-//W3C//DTD SVG 1.1//EN"
 "http://www.w3.org/Graphics/SVG/1.1/DTD/svg11.dtd">
<!-- Generated by graphviz version 2.43.0 (0)
 -->
<!-- Title: alps_common_lib/include/alps_cmn/control/motor_angle_velocity_controller.hpp Pages: 1 -->
<svg width="819pt" height="430pt"
 viewBox="0.00 0.00 818.50 430.00" xmlns="http://www.w3.org/2000/svg" xmlns:xlink="http://www.w3.org/1999/xlink">
<g id="graph0" class="graph" transform="scale(1 1) rotate(0) translate(4 426)">
<title>alps_common_lib/include/alps_cmn/control/motor_angle_velocity_controller.hpp</title>
<polygon fill="white" stroke="transparent" points="-4,4 -4,-426 814.5,-426 814.5,4 -4,4"/>
<!-- Node1 -->
<g id="node1" class="node">
<title>Node1</title>
<g id="a_node1"><a xlink:title=" ">
<polygon fill="#bfbfbf" stroke="black" points="500.5,-380.5 500.5,-421.5 665.5,-421.5 665.5,-380.5 500.5,-380.5"/>
<text text-anchor="start" x="508.5" y="-409.5" font-family="Helvetica,sans-Serif" font-size="10.00">alps_common_lib/include</text>
<text text-anchor="start" x="508.5" y="-398.5" font-family="Helvetica,sans-Serif" font-size="10.00">/alps_cmn/control/motor</text>
<text text-anchor="middle" x="583" y="-387.5" font-family="Helvetica,sans-Serif" font-size="10.00">_angle_velocity_controller.hpp</text>
</a>
</g>
</g>
<!-- Node2 -->
<g id="node2" class="node">
<title>Node2</title>
<g id="a_node2"><a xlink:href="i__motor_8hpp.html" target="_top" xlink:title=" ">
<polygon fill="white" stroke="black" points="344.5,-246.5 344.5,-276.5 457.5,-276.5 457.5,-246.5 344.5,-246.5"/>
<text text-anchor="start" x="352.5" y="-264.5" font-family="Helvetica,sans-Serif" font-size="10.00">alps_cmn/actuator/i</text>
<text text-anchor="middle" x="401" y="-253.5" font-family="Helvetica,sans-Serif" font-size="10.00">_motor.hpp</text>
</a>
</g>
</g>
<!-- Node1&#45;&gt;Node2 -->
<g id="edge1" class="edge">
<title>Node1&#45;&gt;Node2</title>
<path fill="none" stroke="midnightblue" d="M500.15,-391.7C468.02,-384.21 433.79,-370.17 412,-344 398.91,-328.28 397.03,-304.63 397.91,-286.85"/>
<polygon fill="midnightblue" stroke="midnightblue" points="401.41,-286.91 398.74,-276.66 394.44,-286.34 401.41,-286.91"/>
</g>
<!-- Node3 -->
<g id="node3" class="node">
<title>Node3</title>
<g id="a_node3"><a xlink:href="motor__velocity__controller_8hpp.html" target="_top" xlink:title=" ">
<polygon fill="white" stroke="black" points="421.5,-313.5 421.5,-343.5 554.5,-343.5 554.5,-313.5 421.5,-313.5"/>
<text text-anchor="start" x="429.5" y="-331.5" font-family="Helvetica,sans-Serif" font-size="10.00">alps_cmn/control/motor</text>
<text text-anchor="middle" x="488" y="-320.5" font-family="Helvetica,sans-Serif" font-size="10.00">_velocity_controller.hpp</text>
</a>
</g>
</g>
<!-- Node1&#45;&gt;Node3 -->
<g id="edge2" class="edge">
<title>Node1&#45;&gt;Node3</title>
<path fill="none" stroke="midnightblue" d="M556.54,-380.36C543.66,-370.8 528.19,-359.33 515.21,-349.69"/>
<polygon fill="midnightblue" stroke="midnightblue" points="517.21,-346.82 507.09,-343.67 513.04,-352.44 517.21,-346.82"/>
</g>
<!-- Node9 -->
<g id="node9" class="node">
<title>Node9</title>
<g id="a_node9"><a xlink:href="pid_8hpp.html" target="_top" xlink:title=" ">
<polygon fill="white" stroke="black" points="514.5,-252 514.5,-271 653.5,-271 653.5,-252 514.5,-252"/>
<text text-anchor="middle" x="584" y="-259" font-family="Helvetica,sans-Serif" font-size="10.00">alps_cmn/control/pid.hpp</text>
</a>
</g>
</g>
<!-- Node1&#45;&gt;Node9 -->
<g id="edge31" class="edge">
<title>Node1&#45;&gt;Node9</title>
<path fill="none" stroke="midnightblue" d="M583.14,-380.3C583.34,-353.9 583.67,-307.36 583.86,-281.38"/>
<polygon fill="midnightblue" stroke="midnightblue" points="587.36,-281.06 583.94,-271.04 580.37,-281.01 587.36,-281.06"/>
</g>
<!-- Node16 -->
<g id="node16" class="node">
<title>Node16</title>
<g id="a_node16"><a xlink:href="i__rotary__sensor_8hpp.html" target="_top" xlink:title=" ">
<polygon fill="white" stroke="black" points="671.5,-246.5 671.5,-276.5 810.5,-276.5 810.5,-246.5 671.5,-246.5"/>
<text text-anchor="start" x="679.5" y="-264.5" font-family="Helvetica,sans-Serif" font-size="10.00">alps_cmn/sensor/i_rotary</text>
<text text-anchor="middle" x="741" y="-253.5" font-family="Helvetica,sans-Serif" font-size="10.00">_sensor.hpp</text>
</a>
</g>
</g>
<!-- Node1&#45;&gt;Node16 -->
<g id="edge32" class="edge">
<title>Node1&#45;&gt;Node16</title>
<path fill="none" stroke="midnightblue" d="M665.78,-393.03C698.09,-385.78 732.1,-371.56 752,-344 764.02,-327.36 759.07,-303.7 752.42,-286.16"/>
<polygon fill="midnightblue" stroke="midnightblue" points="755.52,-284.5 748.42,-276.64 749.06,-287.21 755.52,-284.5"/>
</g>
<!-- Node17 -->
<g id="node17" class="node">
<title>Node17</title>
<g id="a_node17"><a xlink:href="motor__angle__controller_8hpp.html" target="_top" xlink:title=" ">
<polygon fill="white" stroke="black" points="611,-313.5 611,-343.5 743,-343.5 743,-313.5 611,-313.5"/>
<text text-anchor="start" x="619" y="-331.5" font-family="Helvetica,sans-Serif" font-size="10.00">alps_cmn/control/motor</text>
<text text-anchor="middle" x="677" y="-320.5" font-family="Helvetica,sans-Serif" font-size="10.00">_angle_controller.hpp</text>
</a>
</g>
</g>
<!-- Node1&#45;&gt;Node17 -->
<g id="edge27" class="edge">
<title>Node1&#45;&gt;Node17</title>
<path fill="none" stroke="midnightblue" d="M609.18,-380.36C621.93,-370.8 637.23,-359.33 650.07,-349.69"/>
<polygon fill="midnightblue" stroke="midnightblue" points="652.21,-352.47 658.11,-343.67 648.01,-346.87 652.21,-352.47"/>
</g>
<!-- Node3&#45;&gt;Node2 -->
<g id="edge3" class="edge">
<title>Node3&#45;&gt;Node2</title>
<path fill="none" stroke="midnightblue" d="M469.12,-313.4C457.15,-304.45 441.47,-292.74 428.17,-282.8"/>
<polygon fill="midnightblue" stroke="midnightblue" points="429.95,-279.76 419.84,-276.58 425.76,-285.37 429.95,-279.76"/>
</g>
<!-- Node4 -->
<g id="node4" class="node">
<title>Node4</title>
<g id="a_node4"><a xlink:href="low__pass__differentiator_8hpp.html" target="_top" xlink:title=" ">
<polygon fill="white" stroke="black" points="135,-179.5 135,-209.5 269,-209.5 269,-179.5 135,-179.5"/>
<text text-anchor="start" x="143" y="-197.5" font-family="Helvetica,sans-Serif" font-size="10.00">alps_cmn/control/low</text>
<text text-anchor="middle" x="202" y="-186.5" font-family="Helvetica,sans-Serif" font-size="10.00">_pass_differentiator.hpp</text>
</a>
</g>
</g>
<!-- Node3&#45;&gt;Node4 -->
<g id="edge4" class="edge">
<title>Node3&#45;&gt;Node4</title>
<path fill="none" stroke="midnightblue" d="M488.43,-313.43C488.18,-295.13 484.8,-263.45 466,-246 465.89,-245.9 357.4,-225.17 279.55,-210.3"/>
<polygon fill="midnightblue" stroke="midnightblue" points="279.74,-206.78 269.26,-208.34 278.43,-213.65 279.74,-206.78"/>
</g>
<!-- Node3&#45;&gt;Node9 -->
<g id="edge12" class="edge">
<title>Node3&#45;&gt;Node9</title>
<path fill="none" stroke="midnightblue" d="M508.83,-313.4C524.78,-302.6 546.7,-287.76 562.75,-276.89"/>
<polygon fill="midnightblue" stroke="midnightblue" points="565.12,-279.51 571.44,-271.01 561.19,-273.72 565.12,-279.51"/>
</g>
<!-- Node3&#45;&gt;Node16 -->
<g id="edge26" class="edge">
<title>Node3&#45;&gt;Node16</title>
<path fill="none" stroke="midnightblue" d="M542.59,-313.48C581.85,-303.39 634.97,-289.74 676.36,-279.11"/>
<polygon fill="midnightblue" stroke="midnightblue" points="677.26,-282.49 686.08,-276.61 675.52,-275.71 677.26,-282.49"/>
</g>
<!-- Node5 -->
<g id="node5" class="node">
<title>Node5</title>
<g id="a_node5"><a xlink:href="differentiator_8hpp.html" target="_top" xlink:title="微分器ライブラリ">
<polygon fill="white" stroke="black" points="138.5,-118 138.5,-137 325.5,-137 325.5,-118 138.5,-118"/>
<text text-anchor="middle" x="232" y="-125" font-family="Helvetica,sans-Serif" font-size="10.00">alps_cmn/control/differentiator.hpp</text>
</a>
</g>
</g>
<!-- Node4&#45;&gt;Node5 -->
<g id="edge5" class="edge">
<title>Node4&#45;&gt;Node5</title>
<path fill="none" stroke="midnightblue" d="M208.51,-179.4C212.96,-169.76 218.89,-156.91 223.68,-146.54"/>
<polygon fill="midnightblue" stroke="midnightblue" points="226.97,-147.74 227.99,-137.19 220.62,-144.81 226.97,-147.74"/>
</g>
<!-- Node8 -->
<g id="node8" class="node">
<title>Node8</title>
<g id="a_node8"><a xlink:href="low__pass__filter_8hpp.html" target="_top" xlink:title="ローパスフィルタのクラス">
<polygon fill="white" stroke="black" points="0,-112.5 0,-142.5 120,-142.5 120,-112.5 0,-112.5"/>
<text text-anchor="start" x="8" y="-130.5" font-family="Helvetica,sans-Serif" font-size="10.00">alps_cmn/control/low</text>
<text text-anchor="middle" x="60" y="-119.5" font-family="Helvetica,sans-Serif" font-size="10.00">_pass_filter.hpp</text>
</a>
</g>
</g>
<!-- Node4&#45;&gt;Node8 -->
<g id="edge9" class="edge">
<title>Node4&#45;&gt;Node8</title>
<path fill="none" stroke="midnightblue" d="M171.19,-179.4C150.35,-169.86 122.62,-157.16 100.07,-146.84"/>
<polygon fill="midnightblue" stroke="midnightblue" points="101.3,-143.56 90.75,-142.58 98.39,-149.92 101.3,-143.56"/>
</g>
<!-- Node6 -->
<g id="node6" class="node">
<title>Node6</title>
<g id="a_node6"><a xlink:title=" ">
<polygon fill="white" stroke="#bfbfbf" points="261,-0.5 261,-19.5 311,-19.5 311,-0.5 261,-0.5"/>
<text text-anchor="middle" x="286" y="-7.5" font-family="Helvetica,sans-Serif" font-size="10.00">chrono</text>
</a>
</g>
</g>
<!-- Node5&#45;&gt;Node6 -->
<g id="edge6" class="edge">
<title>Node5&#45;&gt;Node6</title>
<path fill="none" stroke="midnightblue" d="M222.79,-117.93C209.33,-104.32 187.19,-77.16 200,-56 211.1,-37.67 232.38,-26.45 251,-19.79"/>
<polygon fill="midnightblue" stroke="midnightblue" points="252.28,-23.06 260.71,-16.63 250.12,-16.4 252.28,-23.06"/>
</g>
<!-- Node7 -->
<g id="node7" class="node">
<title>Node7</title>
<g id="a_node7"><a xlink:href="duration_8hpp.html" target="_top" xlink:title="時間間隔の型エイリアス">
<polygon fill="white" stroke="black" points="209.5,-56.5 209.5,-75.5 362.5,-75.5 362.5,-56.5 209.5,-56.5"/>
<text text-anchor="middle" x="286" y="-63.5" font-family="Helvetica,sans-Serif" font-size="10.00">alps_cmn/time/duration.hpp</text>
</a>
</g>
</g>
<!-- Node5&#45;&gt;Node7 -->
<g id="edge7" class="edge">
<title>Node5&#45;&gt;Node7</title>
<path fill="none" stroke="midnightblue" d="M239.74,-117.98C248,-108.87 261.28,-94.24 271.49,-82.98"/>
<polygon fill="midnightblue" stroke="midnightblue" points="274.15,-85.27 278.28,-75.51 268.97,-80.56 274.15,-85.27"/>
</g>
<!-- Node7&#45;&gt;Node6 -->
<g id="edge8" class="edge">
<title>Node7&#45;&gt;Node6</title>
<path fill="none" stroke="midnightblue" d="M286,-56.08C286,-49.01 286,-38.86 286,-29.99"/>
<polygon fill="midnightblue" stroke="midnightblue" points="289.5,-29.75 286,-19.75 282.5,-29.75 289.5,-29.75"/>
</g>
<!-- Node8&#45;&gt;Node6 -->
<g id="edge10" class="edge">
<title>Node8&#45;&gt;Node6</title>
<path fill="none" stroke="midnightblue" d="M85.85,-112.44C112.54,-98 155.47,-75.02 193,-56 214.94,-44.88 240.05,-32.77 258.65,-23.91"/>
<polygon fill="midnightblue" stroke="midnightblue" points="260.19,-27.05 267.73,-19.6 257.19,-20.73 260.19,-27.05"/>
</g>
<!-- Node8&#45;&gt;Node7 -->
<g id="edge11" class="edge">
<title>Node8&#45;&gt;Node7</title>
<path fill="none" stroke="midnightblue" d="M113.27,-112.47C153.11,-101.99 206.86,-87.84 243.75,-78.12"/>
<polygon fill="midnightblue" stroke="midnightblue" points="244.91,-81.44 253.69,-75.51 243.13,-74.67 244.91,-81.44"/>
</g>
<!-- Node9&#45;&gt;Node4 -->
<g id="edge22" class="edge">
<title>Node9&#45;&gt;Node4</title>
<path fill="none" stroke="midnightblue" d="M535.15,-251.98C523.63,-250 511.38,-247.91 500,-246 404.59,-230.03 378.12,-227.52 279.24,-210.19"/>
<polygon fill="midnightblue" stroke="midnightblue" points="279.57,-206.7 269.12,-208.41 278.36,-213.59 279.57,-206.7"/>
</g>
<!-- Node9&#45;&gt;Node6 -->
<g id="edge13" class="edge">
<title>Node9&#45;&gt;Node6</title>
<path fill="none" stroke="midnightblue" d="M626.75,-251.99C679.94,-240.98 764.92,-221.8 774,-210 782.4,-199.08 781.17,-190.76 774,-179 724.74,-98.19 424.49,-36.35 321.01,-17.2"/>
<polygon fill="midnightblue" stroke="midnightblue" points="321.53,-13.74 311.07,-15.38 320.27,-20.62 321.53,-13.74"/>
</g>
<!-- Node10 -->
<g id="node10" class="node">
<title>Node10</title>
<g id="a_node10"><a xlink:title=" ">
<polygon fill="white" stroke="#bfbfbf" points="658.5,-185 658.5,-204 705.5,-204 705.5,-185 658.5,-185"/>
<text text-anchor="middle" x="682" y="-192" font-family="Helvetica,sans-Serif" font-size="10.00">cmath</text>
</a>
</g>
</g>
<!-- Node9&#45;&gt;Node10 -->
<g id="edge14" class="edge">
<title>Node9&#45;&gt;Node10</title>
<path fill="none" stroke="midnightblue" d="M597.22,-251.73C613.45,-240.96 641.22,-222.55 660.53,-209.74"/>
<polygon fill="midnightblue" stroke="midnightblue" points="662.59,-212.57 668.99,-204.13 658.72,-206.74 662.59,-212.57"/>
</g>
<!-- Node11 -->
<g id="node11" class="node">
<title>Node11</title>
<g id="a_node11"><a xlink:title=" ">
<polygon fill="white" stroke="#bfbfbf" points="591,-118 591,-137 635,-137 635,-118 591,-118"/>
<text text-anchor="middle" x="613" y="-125" font-family="Helvetica,sans-Serif" font-size="10.00">limits</text>
</a>
</g>
</g>
<!-- Node9&#45;&gt;Node11 -->
<g id="edge15" class="edge">
<title>Node9&#45;&gt;Node11</title>
<path fill="none" stroke="midnightblue" d="M590.07,-251.68C596.38,-241.97 605.9,-225.64 610,-210 615.48,-189.08 615.49,-164.11 614.6,-147.37"/>
<polygon fill="midnightblue" stroke="midnightblue" points="618.09,-146.98 613.9,-137.25 611.1,-147.46 618.09,-146.98"/>
</g>
<!-- Node12 -->
<g id="node12" class="node">
<title>Node12</title>
<g id="a_node12"><a xlink:title=" ">
<polygon fill="white" stroke="#bfbfbf" points="723.5,-185 723.5,-204 764.5,-204 764.5,-185 723.5,-185"/>
<text text-anchor="middle" x="744" y="-192" font-family="Helvetica,sans-Serif" font-size="10.00">tuple</text>
</a>
</g>
</g>
<!-- Node9&#45;&gt;Node12 -->
<g id="edge16" class="edge">
<title>Node9&#45;&gt;Node12</title>
<path fill="none" stroke="midnightblue" d="M608.43,-251.88C634.95,-242.33 678.43,-226.15 715,-210 716.16,-209.49 717.34,-208.95 718.52,-208.41"/>
<polygon fill="midnightblue" stroke="midnightblue" points="720.07,-211.55 727.57,-204.06 717.04,-205.24 720.07,-211.55"/>
</g>
<!-- Node13 -->
<g id="node13" class="node">
<title>Node13</title>
<g id="a_node13"><a xlink:href="integrator_8hpp.html" target="_top" xlink:title="積分器ライブラリ">
<polygon fill="white" stroke="black" points="287.5,-185 287.5,-204 458.5,-204 458.5,-185 287.5,-185"/>
<text text-anchor="middle" x="373" y="-192" font-family="Helvetica,sans-Serif" font-size="10.00">alps_cmn/control/integrator.hpp</text>
</a>
</g>
</g>
<!-- Node9&#45;&gt;Node13 -->
<g id="edge17" class="edge">
<title>Node9&#45;&gt;Node13</title>
<path fill="none" stroke="midnightblue" d="M555.98,-251.87C518.59,-240.35 452.28,-219.92 410.58,-207.08"/>
<polygon fill="midnightblue" stroke="midnightblue" points="411.39,-203.66 400.8,-204.06 409.33,-210.35 411.39,-203.66"/>
</g>
<!-- Node15 -->
<g id="node15" class="node">
<title>Node15</title>
<g id="a_node15"><a xlink:href="numeric__range_8hpp.html" target="_top" xlink:title="数値の範囲を扱うクラス">
<polygon fill="white" stroke="black" points="476.5,-179.5 476.5,-209.5 601.5,-209.5 601.5,-179.5 476.5,-179.5"/>
<text text-anchor="start" x="484.5" y="-197.5" font-family="Helvetica,sans-Serif" font-size="10.00">alps_cmn/util/numeric</text>
<text text-anchor="middle" x="539" y="-186.5" font-family="Helvetica,sans-Serif" font-size="10.00">_range.hpp</text>
</a>
</g>
</g>
<!-- Node9&#45;&gt;Node15 -->
<g id="edge23" class="edge">
<title>Node9&#45;&gt;Node15</title>
<path fill="none" stroke="midnightblue" d="M577.93,-251.73C571.97,-243.12 562.61,-229.61 554.57,-217.99"/>
<polygon fill="midnightblue" stroke="midnightblue" points="557.32,-215.82 548.75,-209.59 551.57,-219.8 557.32,-215.82"/>
</g>
<!-- Node13&#45;&gt;Node6 -->
<g id="edge18" class="edge">
<title>Node13&#45;&gt;Node6</title>
<path fill="none" stroke="midnightblue" d="M375.64,-184.95C382.18,-162.04 396.8,-98.15 371,-56 359.99,-38.01 339.16,-26.82 320.87,-20.1"/>
<polygon fill="midnightblue" stroke="midnightblue" points="321.92,-16.76 311.33,-16.89 319.69,-23.39 321.92,-16.76"/>
</g>
<!-- Node13&#45;&gt;Node7 -->
<g id="edge21" class="edge">
<title>Node13&#45;&gt;Node7</title>
<path fill="none" stroke="midnightblue" d="M370.07,-184.84C364.56,-169.29 351.61,-136.05 334,-112 325.86,-100.88 314.73,-90.25 305.24,-82.11"/>
<polygon fill="midnightblue" stroke="midnightblue" points="307.37,-79.33 297.43,-75.65 302.91,-84.72 307.37,-79.33"/>
</g>
<!-- Node13&#45;&gt;Node11 -->
<g id="edge19" class="edge">
<title>Node13&#45;&gt;Node11</title>
<path fill="none" stroke="midnightblue" d="M418.74,-184.97C461.36,-176.41 526.37,-161.82 581,-143 582.67,-142.43 584.36,-141.8 586.06,-141.13"/>
<polygon fill="midnightblue" stroke="midnightblue" points="587.79,-144.2 595.63,-137.08 585.06,-137.76 587.79,-144.2"/>
</g>
<!-- Node14 -->
<g id="node14" class="node">
<title>Node14</title>
<g id="a_node14"><a xlink:href="algorithm_8hpp.html" target="_top" xlink:title=" ">
<polygon fill="white" stroke="black" points="419.5,-118 419.5,-137 572.5,-137 572.5,-118 419.5,-118"/>
<text text-anchor="middle" x="496" y="-125" font-family="Helvetica,sans-Serif" font-size="10.00">alps_cmn/util/algorithm.hpp</text>
</a>
</g>
</g>
<!-- Node13&#45;&gt;Node14 -->
<g id="edge20" class="edge">
<title>Node13&#45;&gt;Node14</title>
<path fill="none" stroke="midnightblue" d="M389.33,-184.87C410.1,-173.89 446.19,-154.82 470.57,-141.94"/>
<polygon fill="midnightblue" stroke="midnightblue" points="472.39,-144.93 479.6,-137.17 469.12,-138.75 472.39,-144.93"/>
</g>
<!-- Node15&#45;&gt;Node11 -->
<g id="edge24" class="edge">
<title>Node15&#45;&gt;Node11</title>
<path fill="none" stroke="midnightblue" d="M555.06,-179.4C566.94,-168.96 583.11,-154.75 595.36,-144"/>
<polygon fill="midnightblue" stroke="midnightblue" points="597.9,-146.42 603.1,-137.19 593.28,-141.16 597.9,-146.42"/>
</g>
<!-- Node15&#45;&gt;Node14 -->
<g id="edge25" class="edge">
<title>Node15&#45;&gt;Node14</title>
<path fill="none" stroke="midnightblue" d="M529.67,-179.4C523.1,-169.46 514.26,-156.11 507.29,-145.57"/>
<polygon fill="midnightblue" stroke="midnightblue" points="510.19,-143.6 501.75,-137.19 504.35,-147.47 510.19,-143.6"/>
</g>
<!-- Node17&#45;&gt;Node2 -->
<g id="edge28" class="edge">
<title>Node17&#45;&gt;Node2</title>
<path fill="none" stroke="midnightblue" d="M617.45,-313.48C573.31,-303.08 513.13,-288.91 467.43,-278.14"/>
<polygon fill="midnightblue" stroke="midnightblue" points="468.15,-274.72 457.61,-275.83 466.54,-281.53 468.15,-274.72"/>
</g>
<!-- Node17&#45;&gt;Node9 -->
<g id="edge29" class="edge">
<title>Node17&#45;&gt;Node9</title>
<path fill="none" stroke="midnightblue" d="M656.82,-313.4C641.37,-302.6 620.14,-287.76 604.58,-276.89"/>
<polygon fill="midnightblue" stroke="midnightblue" points="606.37,-273.87 596.17,-271.01 602.36,-279.6 606.37,-273.87"/>
</g>
<!-- Node17&#45;&gt;Node16 -->
<g id="edge30" class="edge">
<title>Node17&#45;&gt;Node16</title>
<path fill="none" stroke="midnightblue" d="M690.89,-313.4C699.36,-304.79 710.35,-293.63 719.89,-283.94"/>
<polygon fill="midnightblue" stroke="midnightblue" points="722.62,-286.16 727.14,-276.58 717.63,-281.25 722.62,-286.16"/>
</g>
</g>
</svg>
