<?xml version="1.0" encoding="UTF-8" standalone="no"?>
<!DOCTYPE svg PUBLIC "-//W3C//DTD SVG 1.1//EN"
 "http://www.w3.org/Graphics/SVG/1.1/DTD/svg11.dtd">
<!-- Generated by graphviz version 2.43.0 (0)
 -->
<!-- Title: alps_common_lib/include/alps_cmn/tool/motor_friction_analyzer.hpp Pages: 1 -->
<svg width="1126pt" height="302pt"
 viewBox="0.00 0.00 1126.00 302.00" xmlns="http://www.w3.org/2000/svg" xmlns:xlink="http://www.w3.org/1999/xlink">
<g id="graph0" class="graph" transform="scale(1 1) rotate(0) translate(4 298)">
<title>alps_common_lib/include/alps_cmn/tool/motor_friction_analyzer.hpp</title>
<!-- Node1 -->
<g id="node1" class="node">
<title>Node1</title>
<g id="a_node1"><a xlink:title="モーター軸の摩擦力を計測するクラス">
<polygon fill="#999999" stroke="#666666" points="712.5,-294 552.5,-294 552.5,-253 712.5,-253 712.5,-294"/>
<text text-anchor="start" x="560.5" y="-282" font-family="Helvetica,sans-Serif" font-size="10.00">alps_common_lib/include</text>
<text text-anchor="start" x="560.5" y="-271" font-family="Helvetica,sans-Serif" font-size="10.00">/alps_cmn/tool/motor_friction</text>
<text text-anchor="middle" x="632.5" y="-260" font-family="Helvetica,sans-Serif" font-size="10.00">_analyzer.hpp</text>
</a>
</g>
</g>
<!-- Node2 -->
<g id="node2" class="node">
<title>Node2</title>
<g id="a_node2"><a xlink:title=" ">
<polygon fill="#e0e0e0" stroke="#999999" points="47,-145.5 0,-145.5 0,-126.5 47,-126.5 47,-145.5"/>
<text text-anchor="middle" x="23.5" y="-133.5" font-family="Helvetica,sans-Serif" font-size="10.00">cmath</text>
</a>
</g>
</g>
<!-- Node1&#45;&gt;Node2 -->
<g id="edge1" class="edge">
<title>Node1&#45;&gt;Node2</title>
<path fill="none" stroke="#63b8ff" d="M552.25,-267.7C434.46,-259.92 220.92,-242.76 148.5,-217 106.53,-202.07 64.23,-170.81 41.19,-152.09"/>
<polygon fill="#63b8ff" stroke="#63b8ff" points="43.28,-149.28 33.35,-145.59 38.81,-154.67 43.28,-149.28"/>
</g>
<!-- Node3 -->
<g id="node3" class="node">
<title>Node3</title>
<g id="a_node3"><a xlink:href="i__motor_8hpp.html" target="_top" xlink:title=" ">
<polygon fill="white" stroke="#666666" points="178,-151 65,-151 65,-121 178,-121 178,-151"/>
<text text-anchor="start" x="73" y="-139" font-family="Helvetica,sans-Serif" font-size="10.00">alps_cmn/actuator/i</text>
<text text-anchor="middle" x="121.5" y="-128" font-family="Helvetica,sans-Serif" font-size="10.00">_motor.hpp</text>
</a>
</g>
</g>
<!-- Node1&#45;&gt;Node3 -->
<g id="edge2" class="edge">
<title>Node1&#45;&gt;Node3</title>
<path fill="none" stroke="#63b8ff" d="M552.34,-269.83C440.83,-264.9 245.68,-251.5 184.5,-217 161.32,-203.93 143.61,-178.56 132.96,-159.88"/>
<polygon fill="#63b8ff" stroke="#63b8ff" points="136.02,-158.19 128.17,-151.08 129.87,-161.53 136.02,-158.19"/>
</g>
<!-- Node4 -->
<g id="node4" class="node">
<title>Node4</title>
<g id="a_node4"><a xlink:href="friction__compensated__motor_8hpp.html" target="_top" xlink:title="モーターに対して摩擦補償を行うデコレーター">
<polygon fill="white" stroke="#666666" points="337,-217 194,-217 194,-187 337,-187 337,-217"/>
<text text-anchor="start" x="202" y="-205" font-family="Helvetica,sans-Serif" font-size="10.00">alps_cmn/control/friction</text>
<text text-anchor="middle" x="265.5" y="-194" font-family="Helvetica,sans-Serif" font-size="10.00">_compensated_motor.hpp</text>
</a>
</g>
</g>
<!-- Node1&#45;&gt;Node4 -->
<g id="edge3" class="edge">
<title>Node1&#45;&gt;Node4</title>
<path fill="none" stroke="#63b8ff" d="M552.41,-257.33C491.58,-245.81 408.23,-230.03 347.04,-218.44"/>
<polygon fill="#63b8ff" stroke="#63b8ff" points="347.51,-214.97 337.03,-216.55 346.21,-221.85 347.51,-214.97"/>
</g>
<!-- Node8 -->
<g id="node8" class="node">
<title>Node8</title>
<g id="a_node8"><a xlink:href="i__rotary__sensor_8hpp.html" target="_top" xlink:title=" ">
<polygon fill="white" stroke="#666666" points="335,-151 196,-151 196,-121 335,-121 335,-151"/>
<text text-anchor="start" x="204" y="-139" font-family="Helvetica,sans-Serif" font-size="10.00">alps_cmn/sensor/i_rotary</text>
<text text-anchor="middle" x="265.5" y="-128" font-family="Helvetica,sans-Serif" font-size="10.00">_sensor.hpp</text>
</a>
</g>
</g>
<!-- Node1&#45;&gt;Node8 -->
<g id="edge20" class="edge">
<title>Node1&#45;&gt;Node8</title>
<path fill="none" stroke="#63b8ff" d="M577.55,-252.9C548.14,-242.36 511.31,-229.07 478.5,-217 420.94,-195.82 354.86,-170.91 311.76,-154.58"/>
<polygon fill="#63b8ff" stroke="#63b8ff" points="312.98,-151.3 302.38,-151.02 310.49,-157.84 312.98,-151.3"/>
</g>
<!-- Node9 -->
<g id="node9" class="node">
<title>Node9</title>
<g id="a_node9"><a xlink:href="low__pass__differentiator_8hpp.html" target="_top" xlink:title=" ">
<polygon fill="white" stroke="#666666" points="623,-217 488,-217 488,-187 623,-187 623,-217"/>
<text text-anchor="start" x="496" y="-205" font-family="Helvetica,sans-Serif" font-size="10.00">alps_cmn/control/low</text>
<text text-anchor="middle" x="555.5" y="-194" font-family="Helvetica,sans-Serif" font-size="10.00">_pass_differentiator.hpp</text>
</a>
</g>
</g>
<!-- Node1&#45;&gt;Node9 -->
<g id="edge11" class="edge">
<title>Node1&#45;&gt;Node9</title>
<path fill="none" stroke="#63b8ff" d="M610.64,-252.77C600.68,-243.78 588.87,-233.12 578.75,-223.98"/>
<polygon fill="#63b8ff" stroke="#63b8ff" points="580.82,-221.14 571.05,-217.04 576.13,-226.34 580.82,-221.14"/>
</g>
<!-- Node11 -->
<g id="node11" class="node">
<title>Node11</title>
<g id="a_node11"><a xlink:href="logging__macros_8hpp.html" target="_top" xlink:title=" ">
<polygon fill="white" stroke="#666666" points="968.5,-217 848.5,-217 848.5,-187 968.5,-187 968.5,-217"/>
<text text-anchor="start" x="856.5" y="-205" font-family="Helvetica,sans-Serif" font-size="10.00">alps_cmn/log/logging</text>
<text text-anchor="middle" x="908.5" y="-194" font-family="Helvetica,sans-Serif" font-size="10.00">_macros.hpp</text>
</a>
</g>
</g>
<!-- Node1&#45;&gt;Node11 -->
<g id="edge16" class="edge">
<title>Node1&#45;&gt;Node11</title>
<path fill="none" stroke="#63b8ff" d="M710.12,-252.96C752.01,-242.41 803.14,-229.53 843.01,-219.49"/>
<polygon fill="#63b8ff" stroke="#63b8ff" points="844.04,-222.84 852.89,-217 842.34,-216.05 844.04,-222.84"/>
</g>
<!-- Node13 -->
<g id="node13" class="node">
<title>Node13</title>
<g id="a_node13"><a xlink:title=" ">
<polygon fill="#e0e0e0" stroke="#999999" points="1052.5,-79.5 968.5,-79.5 968.5,-60.5 1052.5,-60.5 1052.5,-79.5"/>
<text text-anchor="middle" x="1010.5" y="-67.5" font-family="Helvetica,sans-Serif" font-size="10.00">etl/delegate.h</text>
</a>
</g>
</g>
<!-- Node1&#45;&gt;Node13 -->
<g id="edge26" class="edge">
<title>Node1&#45;&gt;Node13</title>
<path fill="none" stroke="#63b8ff" d="M712.8,-269.74C802.57,-264.96 940.24,-251.99 977.5,-217 1012.93,-183.73 1014.2,-121.14 1012.32,-89.84"/>
<polygon fill="#63b8ff" stroke="#63b8ff" points="1015.81,-89.53 1011.54,-79.83 1008.83,-90.07 1015.81,-89.53"/>
</g>
<!-- Node15 -->
<g id="node15" class="node">
<title>Node15</title>
<g id="a_node15"><a xlink:href="sleep_8hpp.html" target="_top" xlink:title="スリープ関数の定義">
<polygon fill="white" stroke="#666666" points="780,-211.5 641,-211.5 641,-192.5 780,-192.5 780,-211.5"/>
<text text-anchor="middle" x="710.5" y="-199.5" font-family="Helvetica,sans-Serif" font-size="10.00">alps_cmn/time/sleep.hpp</text>
</a>
</g>
</g>
<!-- Node1&#45;&gt;Node15 -->
<g id="edge21" class="edge">
<title>Node1&#45;&gt;Node15</title>
<path fill="none" stroke="#63b8ff" d="M654.64,-252.77C666.82,-241.92 681.71,-228.65 693.06,-218.54"/>
<polygon fill="#63b8ff" stroke="#63b8ff" points="695.46,-221.09 700.6,-211.82 690.81,-215.86 695.46,-221.09"/>
</g>
<!-- Node17 -->
<g id="node17" class="node">
<title>Node17</title>
<g id="a_node17"><a xlink:href="timeout__checker_8hpp.html" target="_top" xlink:title="タイムアウトを検知するクラス">
<polygon fill="white" stroke="#666666" points="862.5,-85 732.5,-85 732.5,-55 862.5,-55 862.5,-85"/>
<text text-anchor="start" x="740.5" y="-73" font-family="Helvetica,sans-Serif" font-size="10.00">alps_cmn/time/timeout</text>
<text text-anchor="middle" x="797.5" y="-62" font-family="Helvetica,sans-Serif" font-size="10.00">_checker.hpp</text>
</a>
</g>
</g>
<!-- Node1&#45;&gt;Node17 -->
<g id="edge24" class="edge">
<title>Node1&#45;&gt;Node17</title>
<path fill="none" stroke="#63b8ff" d="M712.76,-262.41C741.12,-254.65 770.43,-241 788.5,-217 815.14,-181.61 809.66,-126.66 803.46,-95.24"/>
<polygon fill="#63b8ff" stroke="#63b8ff" points="806.81,-94.22 801.28,-85.18 799.97,-95.69 806.81,-94.22"/>
</g>
<!-- Node18 -->
<g id="node18" class="node">
<title>Node18</title>
<g id="a_node18"><a xlink:title=" ">
<polygon fill="#e0e0e0" stroke="#999999" points="1118,-211.5 1037,-211.5 1037,-192.5 1118,-192.5 1118,-211.5"/>
<text text-anchor="middle" x="1077.5" y="-199.5" font-family="Helvetica,sans-Serif" font-size="10.00">etl/optional.h</text>
</a>
</g>
</g>
<!-- Node1&#45;&gt;Node18 -->
<g id="edge27" class="edge">
<title>Node1&#45;&gt;Node18</title>
<path fill="none" stroke="#63b8ff" d="M712.85,-263.64C792,-254.3 916.16,-238.04 1022.5,-217 1027.15,-216.08 1031.99,-215.01 1036.79,-213.88"/>
<polygon fill="#63b8ff" stroke="#63b8ff" points="1037.63,-217.28 1046.51,-211.51 1035.97,-210.48 1037.63,-217.28"/>
</g>
<!-- Node4&#45;&gt;Node2 -->
<g id="edge4" class="edge">
<title>Node4&#45;&gt;Node2</title>
<path fill="none" stroke="#63b8ff" d="M193.65,-187.22C152.67,-178.53 100.63,-166.11 55.5,-151 54.06,-150.52 52.6,-150 51.13,-149.45"/>
<polygon fill="#63b8ff" stroke="#63b8ff" points="52.14,-146.08 41.56,-145.57 49.51,-152.57 52.14,-146.08"/>
</g>
<!-- Node4&#45;&gt;Node3 -->
<g id="edge5" class="edge">
<title>Node4&#45;&gt;Node3</title>
<path fill="none" stroke="#63b8ff" d="M233.9,-186.95C212.89,-177.62 185.1,-165.27 162.41,-155.18"/>
<polygon fill="#63b8ff" stroke="#63b8ff" points="163.59,-151.88 153.03,-151.01 160.74,-158.27 163.59,-151.88"/>
</g>
<!-- Node5 -->
<g id="node5" class="node">
<title>Node5</title>
<g id="a_node5"><a xlink:href="differentiator_8hpp.html" target="_top" xlink:title="微分器ライブラリ">
<polygon fill="white" stroke="#666666" points="541.5,-145.5 353.5,-145.5 353.5,-126.5 541.5,-126.5 541.5,-145.5"/>
<text text-anchor="middle" x="447.5" y="-133.5" font-family="Helvetica,sans-Serif" font-size="10.00">alps_cmn/control/differentiator.hpp</text>
</a>
</g>
</g>
<!-- Node4&#45;&gt;Node5 -->
<g id="edge6" class="edge">
<title>Node4&#45;&gt;Node5</title>
<path fill="none" stroke="#63b8ff" d="M305.44,-186.95C337.78,-175.58 382.84,-159.74 413.48,-148.96"/>
<polygon fill="#63b8ff" stroke="#63b8ff" points="415.01,-152.14 423.28,-145.52 412.68,-145.53 415.01,-152.14"/>
</g>
<!-- Node4&#45;&gt;Node8 -->
<g id="edge10" class="edge">
<title>Node4&#45;&gt;Node8</title>
<path fill="none" stroke="#63b8ff" d="M265.5,-186.8C265.5,-179.34 265.5,-169.99 265.5,-161.41"/>
<polygon fill="#63b8ff" stroke="#63b8ff" points="269,-161.16 265.5,-151.16 262,-161.16 269,-161.16"/>
</g>
<!-- Node6 -->
<g id="node6" class="node">
<title>Node6</title>
<g id="a_node6"><a xlink:title=" ">
<polygon fill="#e0e0e0" stroke="#999999" points="691.5,-19 641.5,-19 641.5,0 691.5,0 691.5,-19"/>
<text text-anchor="middle" x="666.5" y="-7" font-family="Helvetica,sans-Serif" font-size="10.00">chrono</text>
</a>
</g>
</g>
<!-- Node5&#45;&gt;Node6 -->
<g id="edge7" class="edge">
<title>Node5&#45;&gt;Node6</title>
<path fill="none" stroke="#63b8ff" d="M447.91,-126.3C449.18,-109.81 454.37,-73.97 475.5,-55 498.16,-34.66 582.4,-21.02 631.11,-14.64"/>
<polygon fill="#63b8ff" stroke="#63b8ff" points="631.74,-18.09 641.22,-13.36 630.86,-11.15 631.74,-18.09"/>
</g>
<!-- Node7 -->
<g id="node7" class="node">
<title>Node7</title>
<g id="a_node7"><a xlink:href="duration_8hpp.html" target="_top" xlink:title="時間間隔の型エイリアス">
<polygon fill="white" stroke="#666666" points="638,-79.5 485,-79.5 485,-60.5 638,-60.5 638,-79.5"/>
<text text-anchor="middle" x="561.5" y="-67.5" font-family="Helvetica,sans-Serif" font-size="10.00">alps_cmn/time/duration.hpp</text>
</a>
</g>
</g>
<!-- Node5&#45;&gt;Node7 -->
<g id="edge8" class="edge">
<title>Node5&#45;&gt;Node7</title>
<path fill="none" stroke="#63b8ff" d="M462.87,-126.37C481.91,-115.68 514.57,-97.35 537.06,-84.72"/>
<polygon fill="#63b8ff" stroke="#63b8ff" points="539,-87.65 546,-79.7 535.57,-81.54 539,-87.65"/>
</g>
<!-- Node7&#45;&gt;Node6 -->
<g id="edge9" class="edge">
<title>Node7&#45;&gt;Node6</title>
<path fill="none" stroke="#63b8ff" d="M576.99,-60.37C594.13,-50.82 621.97,-35.31 642.06,-24.12"/>
<polygon fill="#63b8ff" stroke="#63b8ff" points="643.91,-27.09 650.94,-19.17 640.5,-20.98 643.91,-27.09"/>
</g>
<!-- Node9&#45;&gt;Node5 -->
<g id="edge12" class="edge">
<title>Node9&#45;&gt;Node5</title>
<path fill="none" stroke="#63b8ff" d="M531.8,-186.95C513.61,-176.18 488.64,-161.38 470.6,-150.69"/>
<polygon fill="#63b8ff" stroke="#63b8ff" points="472.26,-147.6 461.87,-145.52 468.69,-153.63 472.26,-147.6"/>
</g>
<!-- Node10 -->
<g id="node10" class="node">
<title>Node10</title>
<g id="a_node10"><a xlink:href="low__pass__filter_8hpp.html" target="_top" xlink:title="ローパスフィルタのクラス">
<polygon fill="white" stroke="#666666" points="679.5,-151 559.5,-151 559.5,-121 679.5,-121 679.5,-151"/>
<text text-anchor="start" x="567.5" y="-139" font-family="Helvetica,sans-Serif" font-size="10.00">alps_cmn/control/low</text>
<text text-anchor="middle" x="619.5" y="-128" font-family="Helvetica,sans-Serif" font-size="10.00">_pass_filter.hpp</text>
</a>
</g>
</g>
<!-- Node9&#45;&gt;Node10 -->
<g id="edge13" class="edge">
<title>Node9&#45;&gt;Node10</title>
<path fill="none" stroke="#63b8ff" d="M569.7,-186.8C578.07,-178.43 588.82,-167.68 598.19,-158.31"/>
<polygon fill="#63b8ff" stroke="#63b8ff" points="600.74,-160.71 605.34,-151.16 595.79,-155.76 600.74,-160.71"/>
</g>
<!-- Node10&#45;&gt;Node6 -->
<g id="edge14" class="edge">
<title>Node10&#45;&gt;Node6</title>
<path fill="none" stroke="#63b8ff" d="M628.21,-120.99C634.01,-111.19 641.47,-97.65 646.5,-85 653.83,-66.58 659.37,-44.54 662.74,-29.24"/>
<polygon fill="#63b8ff" stroke="#63b8ff" points="666.17,-29.94 664.81,-19.43 659.32,-28.5 666.17,-29.94"/>
</g>
<!-- Node10&#45;&gt;Node7 -->
<g id="edge15" class="edge">
<title>Node10&#45;&gt;Node7</title>
<path fill="none" stroke="#63b8ff" d="M606.63,-120.8C597.67,-110.92 585.71,-97.72 576.36,-87.39"/>
<polygon fill="#63b8ff" stroke="#63b8ff" points="578.82,-84.9 569.52,-79.84 573.64,-89.6 578.82,-84.9"/>
</g>
<!-- Node12 -->
<g id="node12" class="node">
<title>Node12</title>
<g id="a_node12"><a xlink:href="logger_8hpp.html" target="_top" xlink:title=" ">
<polygon fill="white" stroke="#666666" points="980.5,-145.5 844.5,-145.5 844.5,-126.5 980.5,-126.5 980.5,-145.5"/>
<text text-anchor="middle" x="912.5" y="-133.5" font-family="Helvetica,sans-Serif" font-size="10.00">alps_cmn/log/logger.hpp</text>
</a>
</g>
</g>
<!-- Node11&#45;&gt;Node12 -->
<g id="edge17" class="edge">
<title>Node11&#45;&gt;Node12</title>
<path fill="none" stroke="#63b8ff" d="M909.39,-186.8C909.96,-177.7 910.7,-165.79 911.32,-155.9"/>
<polygon fill="#63b8ff" stroke="#63b8ff" points="914.82,-156.04 911.95,-145.84 907.83,-155.61 914.82,-156.04"/>
</g>
<!-- Node12&#45;&gt;Node13 -->
<g id="edge18" class="edge">
<title>Node12&#45;&gt;Node13</title>
<path fill="none" stroke="#63b8ff" d="M925.72,-126.37C941.86,-115.82 969.41,-97.84 988.71,-85.23"/>
<polygon fill="#63b8ff" stroke="#63b8ff" points="990.72,-88.1 997.18,-79.7 986.89,-82.24 990.72,-88.1"/>
</g>
<!-- Node14 -->
<g id="node14" class="node">
<title>Node14</title>
<g id="a_node14"><a xlink:title=" ">
<polygon fill="#e0e0e0" stroke="#999999" points="950,-79.5 881,-79.5 881,-60.5 950,-60.5 950,-79.5"/>
<text text-anchor="middle" x="915.5" y="-67.5" font-family="Helvetica,sans-Serif" font-size="10.00">etl/string.h</text>
</a>
</g>
</g>
<!-- Node12&#45;&gt;Node14 -->
<g id="edge19" class="edge">
<title>Node12&#45;&gt;Node14</title>
<path fill="none" stroke="#63b8ff" d="M912.9,-126.37C913.34,-117.07 914.05,-101.98 914.61,-89.9"/>
<polygon fill="#63b8ff" stroke="#63b8ff" points="918.11,-90.06 915.08,-79.91 911.12,-89.73 918.11,-90.06"/>
</g>
<!-- Node15&#45;&gt;Node6 -->
<g id="edge22" class="edge">
<title>Node15&#45;&gt;Node6</title>
<path fill="none" stroke="#63b8ff" d="M708.5,-192.32C701.8,-163.31 680.08,-69.3 670.79,-29.06"/>
<polygon fill="#63b8ff" stroke="#63b8ff" points="674.18,-28.19 668.52,-19.23 667.36,-29.76 674.18,-28.19"/>
</g>
<!-- Node16 -->
<g id="node16" class="node">
<title>Node16</title>
<g id="a_node16"><a xlink:title=" ">
<polygon fill="#e0e0e0" stroke="#999999" points="783.5,-145.5 735.5,-145.5 735.5,-126.5 783.5,-126.5 783.5,-145.5"/>
<text text-anchor="middle" x="759.5" y="-133.5" font-family="Helvetica,sans-Serif" font-size="10.00">thread</text>
</a>
</g>
</g>
<!-- Node15&#45;&gt;Node16 -->
<g id="edge23" class="edge">
<title>Node15&#45;&gt;Node16</title>
<path fill="none" stroke="#63b8ff" d="M717.11,-192.37C724.59,-182.59 736.97,-166.42 746.43,-154.08"/>
<polygon fill="#63b8ff" stroke="#63b8ff" points="749.38,-155.97 752.68,-145.91 743.82,-151.72 749.38,-155.97"/>
</g>
<!-- Node17&#45;&gt;Node6 -->
<g id="edge25" class="edge">
<title>Node17&#45;&gt;Node6</title>
<path fill="none" stroke="#63b8ff" d="M766.12,-54.99C744.56,-45.36 716.15,-32.67 695.19,-23.31"/>
<polygon fill="#63b8ff" stroke="#63b8ff" points="696.4,-20.02 685.85,-19.14 693.55,-26.41 696.4,-20.02"/>
</g>
</g>
</svg>
