<?xml version="1.0" encoding="UTF-8" standalone="no"?>
<!DOCTYPE svg PUBLIC "-//W3C//DTD SVG 1.1//EN"
 "http://www.w3.org/Graphics/SVG/1.1/DTD/svg11.dtd">
<!-- Generated by graphviz version 2.43.0 (0)
 -->
<!-- Title: alps_common_lib/include/alps_cmn/control/motor_angle_controller.hpp Pages: 1 -->
<svg width="806pt" height="363pt"
 viewBox="0.00 0.00 805.79 363.00" xmlns="http://www.w3.org/2000/svg" xmlns:xlink="http://www.w3.org/1999/xlink">
<g id="graph0" class="graph" transform="scale(1 1) rotate(0) translate(4 359)">
<title>alps_common_lib/include/alps_cmn/control/motor_angle_controller.hpp</title>
<polygon fill="white" stroke="transparent" points="-4,4 -4,-359 801.79,-359 801.79,4 -4,4"/>
<!-- Node1 -->
<g id="node1" class="node">
<title>Node1</title>
<g id="a_node1"><a xlink:title=" ">
<polygon fill="#bfbfbf" stroke="black" points="501.29,-313.5 501.29,-354.5 641.29,-354.5 641.29,-313.5 501.29,-313.5"/>
<text text-anchor="start" x="509.29" y="-342.5" font-family="Helvetica,sans-Serif" font-size="10.00">alps_common_lib/include</text>
<text text-anchor="start" x="509.29" y="-331.5" font-family="Helvetica,sans-Serif" font-size="10.00">/alps_cmn/control/motor</text>
<text text-anchor="middle" x="571.29" y="-320.5" font-family="Helvetica,sans-Serif" font-size="10.00">_angle_controller.hpp</text>
</a>
</g>
</g>
<!-- Node2 -->
<g id="node2" class="node">
<title>Node2</title>
<g id="a_node2"><a xlink:href="i__motor_8hpp.html" target="_top" xlink:title=" ">
<polygon fill="white" stroke="black" points="370.79,-246.5 370.79,-276.5 483.79,-276.5 483.79,-246.5 370.79,-246.5"/>
<text text-anchor="start" x="378.79" y="-264.5" font-family="Helvetica,sans-Serif" font-size="10.00">alps_cmn/actuator/i</text>
<text text-anchor="middle" x="427.29" y="-253.5" font-family="Helvetica,sans-Serif" font-size="10.00">_motor.hpp</text>
</a>
</g>
</g>
<!-- Node1&#45;&gt;Node2 -->
<g id="edge1" class="edge">
<title>Node1&#45;&gt;Node2</title>
<path fill="none" stroke="midnightblue" d="M531.18,-313.36C510.63,-303.3 485.74,-291.12 465.48,-281.2"/>
<polygon fill="midnightblue" stroke="midnightblue" points="466.76,-277.92 456.24,-276.67 463.68,-284.21 466.76,-277.92"/>
</g>
<!-- Node3 -->
<g id="node3" class="node">
<title>Node3</title>
<g id="a_node3"><a xlink:href="pid_8hpp.html" target="_top" xlink:title=" ">
<polygon fill="white" stroke="black" points="501.79,-252 501.79,-271 640.79,-271 640.79,-252 501.79,-252"/>
<text text-anchor="middle" x="571.29" y="-259" font-family="Helvetica,sans-Serif" font-size="10.00">alps_cmn/control/pid.hpp</text>
</a>
</g>
</g>
<!-- Node1&#45;&gt;Node3 -->
<g id="edge2" class="edge">
<title>Node1&#45;&gt;Node3</title>
<path fill="none" stroke="midnightblue" d="M571.29,-313.36C571.29,-303.3 571.29,-291.1 571.29,-281.18"/>
<polygon fill="midnightblue" stroke="midnightblue" points="574.79,-281.17 571.29,-271.17 567.79,-281.17 574.79,-281.17"/>
</g>
<!-- Node15 -->
<g id="node15" class="node">
<title>Node15</title>
<g id="a_node15"><a xlink:href="i__rotary__sensor_8hpp.html" target="_top" xlink:title=" ">
<polygon fill="white" stroke="black" points="658.79,-246.5 658.79,-276.5 797.79,-276.5 797.79,-246.5 658.79,-246.5"/>
<text text-anchor="start" x="666.79" y="-264.5" font-family="Helvetica,sans-Serif" font-size="10.00">alps_cmn/sensor/i_rotary</text>
<text text-anchor="middle" x="728.29" y="-253.5" font-family="Helvetica,sans-Serif" font-size="10.00">_sensor.hpp</text>
</a>
</g>
</g>
<!-- Node1&#45;&gt;Node15 -->
<g id="edge24" class="edge">
<title>Node1&#45;&gt;Node15</title>
<path fill="none" stroke="midnightblue" d="M615.03,-313.36C637.73,-303.17 665.3,-290.79 687.55,-280.79"/>
<polygon fill="midnightblue" stroke="midnightblue" points="689.05,-283.96 696.74,-276.67 686.18,-277.57 689.05,-283.96"/>
</g>
<!-- Node4 -->
<g id="node4" class="node">
<title>Node4</title>
<g id="a_node4"><a xlink:title=" ">
<polygon fill="white" stroke="#bfbfbf" points="152.29,-0.5 152.29,-19.5 202.29,-19.5 202.29,-0.5 152.29,-0.5"/>
<text text-anchor="middle" x="177.29" y="-7.5" font-family="Helvetica,sans-Serif" font-size="10.00">chrono</text>
</a>
</g>
</g>
<!-- Node3&#45;&gt;Node4 -->
<g id="edge3" class="edge">
<title>Node3&#45;&gt;Node4</title>
<path fill="none" stroke="midnightblue" d="M528.48,-251.93C517.07,-249.81 504.74,-247.68 493.29,-246 384.27,-230.03 68.25,-235.44 8.29,-143 -30.3,-83.5 82.1,-39.47 142.17,-20.82"/>
<polygon fill="midnightblue" stroke="midnightblue" points="143.46,-24.09 152.02,-17.84 141.44,-17.38 143.46,-24.09"/>
</g>
<!-- Node5 -->
<g id="node5" class="node">
<title>Node5</title>
<g id="a_node5"><a xlink:title=" ">
<polygon fill="white" stroke="#bfbfbf" points="728.79,-185 728.79,-204 775.79,-204 775.79,-185 728.79,-185"/>
<text text-anchor="middle" x="752.29" y="-192" font-family="Helvetica,sans-Serif" font-size="10.00">cmath</text>
</a>
</g>
</g>
<!-- Node3&#45;&gt;Node5 -->
<g id="edge4" class="edge">
<title>Node3&#45;&gt;Node5</title>
<path fill="none" stroke="midnightblue" d="M596.16,-251.93C624.74,-242.03 673.02,-225.16 714.29,-210 716.39,-209.23 718.55,-208.43 720.73,-207.61"/>
<polygon fill="midnightblue" stroke="midnightblue" points="722.1,-210.83 730.22,-204.03 719.63,-204.29 722.1,-210.83"/>
</g>
<!-- Node6 -->
<g id="node6" class="node">
<title>Node6</title>
<g id="a_node6"><a xlink:title=" ">
<polygon fill="white" stroke="#bfbfbf" points="608.29,-118 608.29,-137 652.29,-137 652.29,-118 608.29,-118"/>
<text text-anchor="middle" x="630.29" y="-125" font-family="Helvetica,sans-Serif" font-size="10.00">limits</text>
</a>
</g>
</g>
<!-- Node3&#45;&gt;Node6 -->
<g id="edge5" class="edge">
<title>Node3&#45;&gt;Node6</title>
<path fill="none" stroke="midnightblue" d="M593.01,-251.99C610.13,-243.98 632.8,-230.18 643.29,-210 653.69,-190 646.4,-163.8 639.23,-146.57"/>
<polygon fill="midnightblue" stroke="midnightblue" points="642.27,-144.8 634.94,-137.14 635.9,-147.69 642.27,-144.8"/>
</g>
<!-- Node7 -->
<g id="node7" class="node">
<title>Node7</title>
<g id="a_node7"><a xlink:title=" ">
<polygon fill="white" stroke="#bfbfbf" points="676.79,-118 676.79,-137 717.79,-137 717.79,-118 676.79,-118"/>
<text text-anchor="middle" x="697.29" y="-125" font-family="Helvetica,sans-Serif" font-size="10.00">tuple</text>
</a>
</g>
</g>
<!-- Node3&#45;&gt;Node7 -->
<g id="edge6" class="edge">
<title>Node3&#45;&gt;Node7</title>
<path fill="none" stroke="midnightblue" d="M594.48,-251.87C613.91,-243.64 641.3,-229.59 659.29,-210 676.09,-191.72 686.68,-164.71 692.29,-146.86"/>
<polygon fill="midnightblue" stroke="midnightblue" points="695.7,-147.68 695.16,-137.1 688.98,-145.71 695.7,-147.68"/>
</g>
<!-- Node8 -->
<g id="node8" class="node">
<title>Node8</title>
<g id="a_node8"><a xlink:href="integrator_8hpp.html" target="_top" xlink:title="積分器ライブラリ">
<polygon fill="white" stroke="black" points="319.79,-185 319.79,-204 490.79,-204 490.79,-185 319.79,-185"/>
<text text-anchor="middle" x="405.29" y="-192" font-family="Helvetica,sans-Serif" font-size="10.00">alps_cmn/control/integrator.hpp</text>
</a>
</g>
</g>
<!-- Node3&#45;&gt;Node8 -->
<g id="edge7" class="edge">
<title>Node3&#45;&gt;Node8</title>
<path fill="none" stroke="midnightblue" d="M549.25,-251.87C520.4,-240.57 469.64,-220.7 436.75,-207.82"/>
<polygon fill="midnightblue" stroke="midnightblue" points="437.75,-204.45 427.16,-204.06 435.2,-210.97 437.75,-204.45"/>
</g>
<!-- Node11 -->
<g id="node11" class="node">
<title>Node11</title>
<g id="a_node11"><a xlink:href="low__pass__differentiator_8hpp.html" target="_top" xlink:title=" ">
<polygon fill="white" stroke="black" points="167.29,-179.5 167.29,-209.5 301.29,-209.5 301.29,-179.5 167.29,-179.5"/>
<text text-anchor="start" x="175.29" y="-197.5" font-family="Helvetica,sans-Serif" font-size="10.00">alps_cmn/control/low</text>
<text text-anchor="middle" x="234.29" y="-186.5" font-family="Helvetica,sans-Serif" font-size="10.00">_pass_differentiator.hpp</text>
</a>
</g>
</g>
<!-- Node3&#45;&gt;Node11 -->
<g id="edge13" class="edge">
<title>Node3&#45;&gt;Node11</title>
<path fill="none" stroke="midnightblue" d="M526.89,-251.94C472.15,-241.38 378.2,-223.26 311.53,-210.4"/>
<polygon fill="midnightblue" stroke="midnightblue" points="311.97,-206.92 301.49,-208.46 310.65,-213.79 311.97,-206.92"/>
</g>
<!-- Node14 -->
<g id="node14" class="node">
<title>Node14</title>
<g id="a_node14"><a xlink:href="numeric__range_8hpp.html" target="_top" xlink:title="数値の範囲を扱うクラス">
<polygon fill="white" stroke="black" points="508.79,-179.5 508.79,-209.5 633.79,-209.5 633.79,-179.5 508.79,-179.5"/>
<text text-anchor="start" x="516.79" y="-197.5" font-family="Helvetica,sans-Serif" font-size="10.00">alps_cmn/util/numeric</text>
<text text-anchor="middle" x="571.29" y="-186.5" font-family="Helvetica,sans-Serif" font-size="10.00">_range.hpp</text>
</a>
</g>
</g>
<!-- Node3&#45;&gt;Node14 -->
<g id="edge20" class="edge">
<title>Node3&#45;&gt;Node14</title>
<path fill="none" stroke="midnightblue" d="M571.29,-251.73C571.29,-243.54 571.29,-230.92 571.29,-219.71"/>
<polygon fill="midnightblue" stroke="midnightblue" points="574.79,-219.59 571.29,-209.59 567.79,-219.59 574.79,-219.59"/>
</g>
<!-- Node8&#45;&gt;Node4 -->
<g id="edge8" class="edge">
<title>Node8&#45;&gt;Node4</title>
<path fill="none" stroke="midnightblue" d="M405.76,-184.93C406.58,-160.85 405.4,-91.95 368.29,-56 346.35,-34.74 261.42,-21.18 212.51,-14.97"/>
<polygon fill="midnightblue" stroke="midnightblue" points="212.72,-11.47 202.37,-13.72 211.87,-18.42 212.72,-11.47"/>
</g>
<!-- Node8&#45;&gt;Node6 -->
<g id="edge9" class="edge">
<title>Node8&#45;&gt;Node6</title>
<path fill="none" stroke="midnightblue" d="M447.21,-184.92C486.96,-176.24 548.05,-161.48 599.29,-143 600.91,-142.42 602.55,-141.78 604.2,-141.11"/>
<polygon fill="midnightblue" stroke="midnightblue" points="605.72,-144.27 613.47,-137.05 602.91,-137.86 605.72,-144.27"/>
</g>
<!-- Node9 -->
<g id="node9" class="node">
<title>Node9</title>
<g id="a_node9"><a xlink:href="algorithm_8hpp.html" target="_top" xlink:title=" ">
<polygon fill="white" stroke="black" points="436.79,-118 436.79,-137 589.79,-137 589.79,-118 436.79,-118"/>
<text text-anchor="middle" x="513.29" y="-125" font-family="Helvetica,sans-Serif" font-size="10.00">alps_cmn/util/algorithm.hpp</text>
</a>
</g>
</g>
<!-- Node8&#45;&gt;Node9 -->
<g id="edge10" class="edge">
<title>Node8&#45;&gt;Node9</title>
<path fill="none" stroke="midnightblue" d="M419.86,-184.73C437.91,-173.87 468.9,-155.22 490.21,-142.39"/>
<polygon fill="midnightblue" stroke="midnightblue" points="492.19,-145.28 498.96,-137.13 488.58,-139.29 492.19,-145.28"/>
</g>
<!-- Node10 -->
<g id="node10" class="node">
<title>Node10</title>
<g id="a_node10"><a xlink:href="duration_8hpp.html" target="_top" xlink:title="時間間隔の型エイリアス">
<polygon fill="white" stroke="black" points="205.79,-56.5 205.79,-75.5 358.79,-75.5 358.79,-56.5 205.79,-56.5"/>
<text text-anchor="middle" x="282.29" y="-63.5" font-family="Helvetica,sans-Serif" font-size="10.00">alps_cmn/time/duration.hpp</text>
</a>
</g>
</g>
<!-- Node8&#45;&gt;Node10 -->
<g id="edge11" class="edge">
<title>Node8&#45;&gt;Node10</title>
<path fill="none" stroke="midnightblue" d="M401.07,-184.82C393.03,-168.97 374.3,-134.84 351.29,-112 338.68,-99.47 322.04,-88.5 308.27,-80.53"/>
<polygon fill="midnightblue" stroke="midnightblue" points="309.71,-77.33 299.27,-75.51 306.3,-83.44 309.71,-77.33"/>
</g>
<!-- Node10&#45;&gt;Node4 -->
<g id="edge12" class="edge">
<title>Node10&#45;&gt;Node4</title>
<path fill="none" stroke="midnightblue" d="M265.42,-56.32C248.58,-47.66 222.49,-34.24 203.05,-24.25"/>
<polygon fill="midnightblue" stroke="midnightblue" points="204.61,-21.12 194.12,-19.65 201.41,-27.34 204.61,-21.12"/>
</g>
<!-- Node12 -->
<g id="node12" class="node">
<title>Node12</title>
<g id="a_node12"><a xlink:href="differentiator_8hpp.html" target="_top" xlink:title="微分器ライブラリ">
<polygon fill="white" stroke="black" points="17.79,-118 17.79,-137 204.79,-137 204.79,-118 17.79,-118"/>
<text text-anchor="middle" x="111.29" y="-125" font-family="Helvetica,sans-Serif" font-size="10.00">alps_cmn/control/differentiator.hpp</text>
</a>
</g>
</g>
<!-- Node11&#45;&gt;Node12 -->
<g id="edge14" class="edge">
<title>Node11&#45;&gt;Node12</title>
<path fill="none" stroke="midnightblue" d="M207.6,-179.4C186.4,-168.19 156.97,-152.64 136.24,-141.69"/>
<polygon fill="midnightblue" stroke="midnightblue" points="137.87,-138.58 127.39,-137.01 134.6,-144.77 137.87,-138.58"/>
</g>
<!-- Node13 -->
<g id="node13" class="node">
<title>Node13</title>
<g id="a_node13"><a xlink:href="low__pass__filter_8hpp.html" target="_top" xlink:title="ローパスフィルタのクラス">
<polygon fill="white" stroke="black" points="222.29,-112.5 222.29,-142.5 342.29,-142.5 342.29,-112.5 222.29,-112.5"/>
<text text-anchor="start" x="230.29" y="-130.5" font-family="Helvetica,sans-Serif" font-size="10.00">alps_cmn/control/low</text>
<text text-anchor="middle" x="282.29" y="-119.5" font-family="Helvetica,sans-Serif" font-size="10.00">_pass_filter.hpp</text>
</a>
</g>
</g>
<!-- Node11&#45;&gt;Node13 -->
<g id="edge17" class="edge">
<title>Node11&#45;&gt;Node13</title>
<path fill="none" stroke="midnightblue" d="M244.71,-179.4C250.87,-171.05 258.82,-160.29 265.82,-150.81"/>
<polygon fill="midnightblue" stroke="midnightblue" points="268.77,-152.7 271.9,-142.58 263.14,-148.54 268.77,-152.7"/>
</g>
<!-- Node12&#45;&gt;Node4 -->
<g id="edge15" class="edge">
<title>Node12&#45;&gt;Node4</title>
<path fill="none" stroke="midnightblue" d="M116.25,-117.82C127.05,-98.92 152.86,-53.75 167.22,-28.62"/>
<polygon fill="midnightblue" stroke="midnightblue" points="170.35,-30.2 172.27,-19.78 164.27,-26.73 170.35,-30.2"/>
</g>
<!-- Node12&#45;&gt;Node10 -->
<g id="edge16" class="edge">
<title>Node12&#45;&gt;Node10</title>
<path fill="none" stroke="midnightblue" d="M135.79,-117.98C165.25,-107.72 214.87,-90.46 248.09,-78.9"/>
<polygon fill="midnightblue" stroke="midnightblue" points="249.54,-82.1 257.84,-75.51 247.24,-75.49 249.54,-82.1"/>
</g>
<!-- Node13&#45;&gt;Node4 -->
<g id="edge18" class="edge">
<title>Node13&#45;&gt;Node4</title>
<path fill="none" stroke="midnightblue" d="M245.21,-112.34C228.11,-104.1 208.85,-92.11 196.29,-76 185.91,-62.68 181.2,-43.85 179.06,-29.88"/>
<polygon fill="midnightblue" stroke="midnightblue" points="182.53,-29.42 177.84,-19.92 175.58,-30.27 182.53,-29.42"/>
</g>
<!-- Node13&#45;&gt;Node10 -->
<g id="edge19" class="edge">
<title>Node13&#45;&gt;Node10</title>
<path fill="none" stroke="midnightblue" d="M282.29,-112.4C282.29,-104.47 282.29,-94.46 282.29,-85.86"/>
<polygon fill="midnightblue" stroke="midnightblue" points="285.79,-85.66 282.29,-75.66 278.79,-85.66 285.79,-85.66"/>
</g>
<!-- Node14&#45;&gt;Node6 -->
<g id="edge21" class="edge">
<title>Node14&#45;&gt;Node6</title>
<path fill="none" stroke="midnightblue" d="M584.09,-179.4C593.38,-169.16 605.97,-155.3 615.66,-144.62"/>
<polygon fill="midnightblue" stroke="midnightblue" points="618.27,-146.95 622.4,-137.19 613.09,-142.25 618.27,-146.95"/>
</g>
<!-- Node14&#45;&gt;Node7 -->
<g id="edge22" class="edge">
<title>Node14&#45;&gt;Node7</title>
<path fill="none" stroke="midnightblue" d="M598.63,-179.4C620.35,-168.19 650.5,-152.64 671.73,-141.69"/>
<polygon fill="midnightblue" stroke="midnightblue" points="673.52,-144.7 680.8,-137.01 670.31,-138.48 673.52,-144.7"/>
</g>
<!-- Node14&#45;&gt;Node9 -->
<g id="edge23" class="edge">
<title>Node14&#45;&gt;Node9</title>
<path fill="none" stroke="midnightblue" d="M558.71,-179.4C549.66,-169.26 537.44,-155.57 527.96,-144.94"/>
<polygon fill="midnightblue" stroke="midnightblue" points="530.32,-142.33 521.05,-137.19 525.1,-146.99 530.32,-142.33"/>
</g>
</g>
</svg>
