<?xml version="1.0" encoding="UTF-8" standalone="no"?>
<!DOCTYPE svg PUBLIC "-//W3C//DTD SVG 1.1//EN"
 "http://www.w3.org/Graphics/SVG/1.1/DTD/svg11.dtd">
<!-- Generated by graphviz version 2.43.0 (0)
 -->
<!-- Title: alps_common_lib/include/alps_cmn/control/motor_velocity_controller.hpp Pages: 1 -->
<svg width="550pt" height="229pt"
 viewBox="0.00 0.00 550.00 229.00" xmlns="http://www.w3.org/2000/svg" xmlns:xlink="http://www.w3.org/1999/xlink">
<g id="graph0" class="graph" transform="scale(1 1) rotate(0) translate(4 225)">
<title>alps_common_lib/include/alps_cmn/control/motor_velocity_controller.hpp</title>
<polygon fill="white" stroke="transparent" points="-4,4 -4,-225 546,-225 546,4 -4,4"/>
<!-- Node1 -->
<g id="node1" class="node">
<title>Node1</title>
<g id="a_node1"><a xlink:title=" ">
<polygon fill="#bfbfbf" stroke="black" points="120.5,-179.5 120.5,-220.5 260.5,-220.5 260.5,-179.5 120.5,-179.5"/>
<text text-anchor="start" x="128.5" y="-208.5" font-family="Helvetica,sans-Serif" font-size="10.00">alps_common_lib/include</text>
<text text-anchor="start" x="128.5" y="-197.5" font-family="Helvetica,sans-Serif" font-size="10.00">/alps_cmn/control/motor</text>
<text text-anchor="middle" x="190.5" y="-186.5" font-family="Helvetica,sans-Serif" font-size="10.00">_velocity_controller.hpp</text>
</a>
</g>
</g>
<!-- Node2 -->
<g id="node2" class="node">
<title>Node2</title>
<g id="a_node2"><a xlink:href="i__motor_8hpp.html" target="_top" xlink:title=" ">
<polygon fill="white" stroke="black" points="0,-112.5 0,-142.5 113,-142.5 113,-112.5 0,-112.5"/>
<text text-anchor="start" x="8" y="-130.5" font-family="Helvetica,sans-Serif" font-size="10.00">alps_cmn/actuator/i</text>
<text text-anchor="middle" x="56.5" y="-119.5" font-family="Helvetica,sans-Serif" font-size="10.00">_motor.hpp</text>
</a>
</g>
</g>
<!-- Node1&#45;&gt;Node2 -->
<g id="edge1" class="edge">
<title>Node1&#45;&gt;Node2</title>
<path fill="none" stroke="midnightblue" d="M153.17,-179.36C134.14,-169.35 111.1,-157.23 92.29,-147.33"/>
<polygon fill="midnightblue" stroke="midnightblue" points="93.91,-144.23 83.43,-142.67 90.65,-150.42 93.91,-144.23"/>
</g>
<!-- Node3 -->
<g id="node3" class="node">
<title>Node3</title>
<g id="a_node3"><a xlink:href="differentiator_8hpp.html" target="_top" xlink:title="微分器ライブラリ">
<polygon fill="white" stroke="black" points="6,-56.5 6,-75.5 193,-75.5 193,-56.5 6,-56.5"/>
<text text-anchor="middle" x="99.5" y="-63.5" font-family="Helvetica,sans-Serif" font-size="10.00">alps_cmn/control/differentiator.hpp</text>
</a>
</g>
</g>
<!-- Node1&#45;&gt;Node3 -->
<g id="edge2" class="edge">
<title>Node1&#45;&gt;Node3</title>
<path fill="none" stroke="midnightblue" d="M176.88,-179.24C159.03,-153.35 128.02,-108.37 111.19,-83.96"/>
<polygon fill="midnightblue" stroke="midnightblue" points="114.05,-81.93 105.49,-75.69 108.28,-85.91 114.05,-81.93"/>
</g>
<!-- Node5 -->
<g id="node5" class="node">
<title>Node5</title>
<g id="a_node5"><a xlink:href="pid_8hpp.html" target="_top" xlink:title=" ">
<polygon fill="white" stroke="black" points="170,-118 170,-137 309,-137 309,-118 170,-118"/>
<text text-anchor="middle" x="239.5" y="-125" font-family="Helvetica,sans-Serif" font-size="10.00">alps_cmn/control/pid.hpp</text>
</a>
</g>
</g>
<!-- Node1&#45;&gt;Node5 -->
<g id="edge4" class="edge">
<title>Node1&#45;&gt;Node5</title>
<path fill="none" stroke="midnightblue" d="M204.15,-179.36C211.52,-168.76 220.53,-155.79 227.62,-145.6"/>
<polygon fill="midnightblue" stroke="midnightblue" points="230.64,-147.38 233.47,-137.17 224.89,-143.39 230.64,-147.38"/>
</g>
<!-- Node9 -->
<g id="node9" class="node">
<title>Node9</title>
<g id="a_node9"><a xlink:href="i__rotary__sensor_8hpp.html" target="_top" xlink:title=" ">
<polygon fill="white" stroke="black" points="327,-112.5 327,-142.5 466,-142.5 466,-112.5 327,-112.5"/>
<text text-anchor="start" x="335" y="-130.5" font-family="Helvetica,sans-Serif" font-size="10.00">alps_cmn/sensor/i_rotary</text>
<text text-anchor="middle" x="396.5" y="-119.5" font-family="Helvetica,sans-Serif" font-size="10.00">_sensor.hpp</text>
</a>
</g>
</g>
<!-- Node1&#45;&gt;Node9 -->
<g id="edge13" class="edge">
<title>Node1&#45;&gt;Node9</title>
<path fill="none" stroke="midnightblue" d="M247.61,-179.46C278.31,-168.95 315.85,-156.1 345.56,-145.93"/>
<polygon fill="midnightblue" stroke="midnightblue" points="346.98,-149.15 355.31,-142.6 344.71,-142.52 346.98,-149.15"/>
</g>
<!-- Node4 -->
<g id="node4" class="node">
<title>Node4</title>
<g id="a_node4"><a xlink:title=" ">
<polygon fill="white" stroke="#bfbfbf" points="195.5,-0.5 195.5,-19.5 245.5,-19.5 245.5,-0.5 195.5,-0.5"/>
<text text-anchor="middle" x="220.5" y="-7.5" font-family="Helvetica,sans-Serif" font-size="10.00">chrono</text>
</a>
</g>
</g>
<!-- Node3&#45;&gt;Node4 -->
<g id="edge3" class="edge">
<title>Node3&#45;&gt;Node4</title>
<path fill="none" stroke="midnightblue" d="M118.67,-56.44C138.41,-47.64 169.39,-33.81 191.99,-23.72"/>
<polygon fill="midnightblue" stroke="midnightblue" points="193.71,-26.79 201.42,-19.52 190.86,-20.4 193.71,-26.79"/>
</g>
<!-- Node5&#45;&gt;Node3 -->
<g id="edge7" class="edge">
<title>Node5&#45;&gt;Node3</title>
<path fill="none" stroke="midnightblue" d="M219.44,-117.98C195.74,-107.9 156.09,-91.05 128.92,-79.5"/>
<polygon fill="midnightblue" stroke="midnightblue" points="130.09,-76.2 119.52,-75.51 127.36,-82.64 130.09,-76.2"/>
</g>
<!-- Node5&#45;&gt;Node4 -->
<g id="edge5" class="edge">
<title>Node5&#45;&gt;Node4</title>
<path fill="none" stroke="midnightblue" d="M238.07,-117.82C235.02,-99.26 227.79,-55.34 223.62,-29.97"/>
<polygon fill="midnightblue" stroke="midnightblue" points="227.02,-29.08 221.94,-19.78 220.11,-30.22 227.02,-29.08"/>
</g>
<!-- Node6 -->
<g id="node6" class="node">
<title>Node6</title>
<g id="a_node6"><a xlink:title=" ">
<polygon fill="white" stroke="#bfbfbf" points="305.5,-0.5 305.5,-19.5 349.5,-19.5 349.5,-0.5 305.5,-0.5"/>
<text text-anchor="middle" x="327.5" y="-7.5" font-family="Helvetica,sans-Serif" font-size="10.00">limits</text>
</a>
</g>
</g>
<!-- Node5&#45;&gt;Node6 -->
<g id="edge6" class="edge">
<title>Node5&#45;&gt;Node6</title>
<path fill="none" stroke="midnightblue" d="M243.07,-117.68C248.98,-103.73 261.69,-76.11 277.5,-56 286.21,-44.92 297.81,-34.29 307.65,-26.14"/>
<polygon fill="midnightblue" stroke="midnightblue" points="310.11,-28.66 315.73,-19.68 305.73,-23.2 310.11,-28.66"/>
</g>
<!-- Node7 -->
<g id="node7" class="node">
<title>Node7</title>
<g id="a_node7"><a xlink:href="integrator_8hpp.html" target="_top" xlink:title="積分器ライブラリ">
<polygon fill="white" stroke="black" points="287,-56.5 287,-75.5 458,-75.5 458,-56.5 287,-56.5"/>
<text text-anchor="middle" x="372.5" y="-63.5" font-family="Helvetica,sans-Serif" font-size="10.00">alps_cmn/control/integrator.hpp</text>
</a>
</g>
</g>
<!-- Node5&#45;&gt;Node7 -->
<g id="edge8" class="edge">
<title>Node5&#45;&gt;Node7</title>
<path fill="none" stroke="midnightblue" d="M258.56,-117.98C280.97,-107.95 318.41,-91.2 344.21,-79.65"/>
<polygon fill="midnightblue" stroke="midnightblue" points="345.78,-82.79 353.48,-75.51 342.92,-76.4 345.78,-82.79"/>
</g>
<!-- Node8 -->
<g id="node8" class="node">
<title>Node8</title>
<g id="a_node8"><a xlink:href="algorithm_8hpp.html" target="_top" xlink:title=" ">
<polygon fill="white" stroke="black" points="389,-0.5 389,-19.5 542,-19.5 542,-0.5 389,-0.5"/>
<text text-anchor="middle" x="465.5" y="-7.5" font-family="Helvetica,sans-Serif" font-size="10.00">alps_cmn/util/algorithm.hpp</text>
</a>
</g>
</g>
<!-- Node5&#45;&gt;Node8 -->
<g id="edge12" class="edge">
<title>Node5&#45;&gt;Node8</title>
<path fill="none" stroke="midnightblue" d="M284.73,-117.98C349.54,-105.56 461.74,-83.17 467.5,-76 477.86,-63.09 475.7,-43.65 471.96,-29.39"/>
<polygon fill="midnightblue" stroke="midnightblue" points="475.26,-28.22 468.97,-19.69 468.57,-30.28 475.26,-28.22"/>
</g>
<!-- Node7&#45;&gt;Node4 -->
<g id="edge9" class="edge">
<title>Node7&#45;&gt;Node4</title>
<path fill="none" stroke="midnightblue" d="M348.42,-56.44C322.96,-47.4 282.61,-33.06 254.04,-22.92"/>
<polygon fill="midnightblue" stroke="midnightblue" points="255.07,-19.57 244.47,-19.52 252.72,-26.16 255.07,-19.57"/>
</g>
<!-- Node7&#45;&gt;Node6 -->
<g id="edge10" class="edge">
<title>Node7&#45;&gt;Node6</title>
<path fill="none" stroke="midnightblue" d="M365.07,-56.08C358.65,-48.38 349.19,-37.03 341.38,-27.65"/>
<polygon fill="midnightblue" stroke="midnightblue" points="343.88,-25.19 334.79,-19.75 338.51,-29.67 343.88,-25.19"/>
</g>
<!-- Node7&#45;&gt;Node8 -->
<g id="edge11" class="edge">
<title>Node7&#45;&gt;Node8</title>
<path fill="none" stroke="midnightblue" d="M387.44,-56.32C402.09,-47.82 424.63,-34.73 441.74,-24.8"/>
<polygon fill="midnightblue" stroke="midnightblue" points="443.7,-27.7 450.6,-19.65 440.19,-21.65 443.7,-27.7"/>
</g>
</g>
</svg>
