<?xml version="1.0" encoding="UTF-8" standalone="no"?>
<!DOCTYPE svg PUBLIC "-//W3C//DTD SVG 1.1//EN"
 "http://www.w3.org/Graphics/SVG/1.1/DTD/svg11.dtd">
<!-- Generated by graphviz version 2.43.0 (0)
 -->
<!-- Title: alps_common_lib/include/alps_cmn/control/motor_angle_controller.hpp Pages: 1 -->
<svg width="794pt" height="363pt"
 viewBox="0.00 0.00 794.00 363.00" xmlns="http://www.w3.org/2000/svg" xmlns:xlink="http://www.w3.org/1999/xlink">
<g id="graph0" class="graph" transform="scale(1 1) rotate(0) translate(4 359)">
<title>alps_common_lib/include/alps_cmn/control/motor_angle_controller.hpp</title>
<polygon fill="white" stroke="transparent" points="-4,4 -4,-359 790,-359 790,4 -4,4"/>
<!-- Node1 -->
<g id="node1" class="node">
<title>Node1</title>
<g id="a_node1"><a xlink:title=" ">
<polygon fill="#bfbfbf" stroke="black" points="130.5,-313.5 130.5,-354.5 270.5,-354.5 270.5,-313.5 130.5,-313.5"/>
<text text-anchor="start" x="138.5" y="-342.5" font-family="Helvetica,sans-Serif" font-size="10.00">alps_common_lib/include</text>
<text text-anchor="start" x="138.5" y="-331.5" font-family="Helvetica,sans-Serif" font-size="10.00">/alps_cmn/control/motor</text>
<text text-anchor="middle" x="200.5" y="-320.5" font-family="Helvetica,sans-Serif" font-size="10.00">_angle_controller.hpp</text>
</a>
</g>
</g>
<!-- Node2 -->
<g id="node2" class="node">
<title>Node2</title>
<g id="a_node2"><a xlink:href="i__motor_8hpp.html" target="_top" xlink:title=" ">
<polygon fill="white" stroke="black" points="0,-246.5 0,-276.5 113,-276.5 113,-246.5 0,-246.5"/>
<text text-anchor="start" x="8" y="-264.5" font-family="Helvetica,sans-Serif" font-size="10.00">alps_cmn/actuator/i</text>
<text text-anchor="middle" x="56.5" y="-253.5" font-family="Helvetica,sans-Serif" font-size="10.00">_motor.hpp</text>
</a>
</g>
</g>
<!-- Node1&#45;&gt;Node2 -->
<g id="edge1" class="edge">
<title>Node1&#45;&gt;Node2</title>
<path fill="none" stroke="midnightblue" d="M160.39,-313.36C139.84,-303.3 114.95,-291.12 94.69,-281.2"/>
<polygon fill="midnightblue" stroke="midnightblue" points="95.96,-277.92 85.44,-276.67 92.89,-284.21 95.96,-277.92"/>
</g>
<!-- Node3 -->
<g id="node3" class="node">
<title>Node3</title>
<g id="a_node3"><a xlink:href="pid_8hpp.html" target="_top" xlink:title=" ">
<polygon fill="white" stroke="black" points="131,-252 131,-271 270,-271 270,-252 131,-252"/>
<text text-anchor="middle" x="200.5" y="-259" font-family="Helvetica,sans-Serif" font-size="10.00">alps_cmn/control/pid.hpp</text>
</a>
</g>
</g>
<!-- Node1&#45;&gt;Node3 -->
<g id="edge2" class="edge">
<title>Node1&#45;&gt;Node3</title>
<path fill="none" stroke="midnightblue" d="M200.5,-313.36C200.5,-303.3 200.5,-291.1 200.5,-281.18"/>
<polygon fill="midnightblue" stroke="midnightblue" points="204,-281.17 200.5,-271.17 197,-281.17 204,-281.17"/>
</g>
<!-- Node14 -->
<g id="node14" class="node">
<title>Node14</title>
<g id="a_node14"><a xlink:href="i__rotary__sensor_8hpp.html" target="_top" xlink:title=" ">
<polygon fill="white" stroke="black" points="288,-246.5 288,-276.5 427,-276.5 427,-246.5 288,-246.5"/>
<text text-anchor="start" x="296" y="-264.5" font-family="Helvetica,sans-Serif" font-size="10.00">alps_cmn/sensor/i_rotary</text>
<text text-anchor="middle" x="357.5" y="-253.5" font-family="Helvetica,sans-Serif" font-size="10.00">_sensor.hpp</text>
</a>
</g>
</g>
<!-- Node1&#45;&gt;Node14 -->
<g id="edge22" class="edge">
<title>Node1&#45;&gt;Node14</title>
<path fill="none" stroke="midnightblue" d="M244.23,-313.36C266.94,-303.17 294.51,-290.79 316.76,-280.79"/>
<polygon fill="midnightblue" stroke="midnightblue" points="318.26,-283.96 325.94,-276.67 315.39,-277.57 318.26,-283.96"/>
</g>
<!-- Node4 -->
<g id="node4" class="node">
<title>Node4</title>
<g id="a_node4"><a xlink:title=" ">
<polygon fill="white" stroke="#bfbfbf" points="474.5,-0.5 474.5,-19.5 524.5,-19.5 524.5,-0.5 474.5,-0.5"/>
<text text-anchor="middle" x="499.5" y="-7.5" font-family="Helvetica,sans-Serif" font-size="10.00">chrono</text>
</a>
</g>
</g>
<!-- Node3&#45;&gt;Node4 -->
<g id="edge3" class="edge">
<title>Node3&#45;&gt;Node4</title>
<path fill="none" stroke="midnightblue" d="M166.54,-251.97C131.91,-242.5 81.71,-226.38 70.5,-210 62.72,-198.63 65.04,-191.65 70.5,-179 135.78,-27.63 373.99,-11.1 464.38,-10.41"/>
<polygon fill="midnightblue" stroke="midnightblue" points="464.41,-13.91 474.41,-10.39 464.4,-6.91 464.41,-13.91"/>
</g>
<!-- Node5 -->
<g id="node5" class="node">
<title>Node5</title>
<g id="a_node5"><a xlink:title=" ">
<polygon fill="white" stroke="#bfbfbf" points="80,-185 80,-204 127,-204 127,-185 80,-185"/>
<text text-anchor="middle" x="103.5" y="-192" font-family="Helvetica,sans-Serif" font-size="10.00">cmath</text>
</a>
</g>
</g>
<!-- Node3&#45;&gt;Node5 -->
<g id="edge4" class="edge">
<title>Node3&#45;&gt;Node5</title>
<path fill="none" stroke="midnightblue" d="M187.42,-251.73C171.35,-240.96 143.87,-222.55 124.75,-209.74"/>
<polygon fill="midnightblue" stroke="midnightblue" points="126.63,-206.79 116.37,-204.13 122.73,-212.6 126.63,-206.79"/>
</g>
<!-- Node6 -->
<g id="node6" class="node">
<title>Node6</title>
<g id="a_node6"><a xlink:title=" ">
<polygon fill="white" stroke="#bfbfbf" points="150.5,-118 150.5,-137 194.5,-137 194.5,-118 150.5,-118"/>
<text text-anchor="middle" x="172.5" y="-125" font-family="Helvetica,sans-Serif" font-size="10.00">limits</text>
</a>
</g>
</g>
<!-- Node3&#45;&gt;Node6 -->
<g id="edge5" class="edge">
<title>Node3&#45;&gt;Node6</title>
<path fill="none" stroke="midnightblue" d="M194.39,-251.69C188.05,-241.99 178.5,-225.67 174.5,-210 169.15,-189.05 169.47,-164.09 170.6,-147.36"/>
<polygon fill="midnightblue" stroke="midnightblue" points="174.1,-147.5 171.45,-137.24 167.13,-146.91 174.1,-147.5"/>
</g>
<!-- Node7 -->
<g id="node7" class="node">
<title>Node7</title>
<g id="a_node7"><a xlink:href="integrator_8hpp.html" target="_top" xlink:title="積分器ライブラリ">
<polygon fill="white" stroke="black" points="327,-185 327,-204 498,-204 498,-185 327,-185"/>
<text text-anchor="middle" x="412.5" y="-192" font-family="Helvetica,sans-Serif" font-size="10.00">alps_cmn/control/integrator.hpp</text>
</a>
</g>
</g>
<!-- Node3&#45;&gt;Node7 -->
<g id="edge6" class="edge">
<title>Node3&#45;&gt;Node7</title>
<path fill="none" stroke="midnightblue" d="M228.65,-251.87C266.29,-240.33 333.13,-219.84 375.01,-207"/>
<polygon fill="midnightblue" stroke="midnightblue" points="376.03,-210.34 384.57,-204.06 373.98,-203.65 376.03,-210.34"/>
</g>
<!-- Node10 -->
<g id="node10" class="node">
<title>Node10</title>
<g id="a_node10"><a xlink:href="low__pass__differentiator_8hpp.html" target="_top" xlink:title=" ">
<polygon fill="white" stroke="black" points="516.5,-179.5 516.5,-209.5 650.5,-209.5 650.5,-179.5 516.5,-179.5"/>
<text text-anchor="start" x="524.5" y="-197.5" font-family="Helvetica,sans-Serif" font-size="10.00">alps_cmn/control/low</text>
<text text-anchor="middle" x="583.5" y="-186.5" font-family="Helvetica,sans-Serif" font-size="10.00">_pass_differentiator.hpp</text>
</a>
</g>
</g>
<!-- Node3&#45;&gt;Node10 -->
<g id="edge12" class="edge">
<title>Node3&#45;&gt;Node10</title>
<path fill="none" stroke="midnightblue" d="M245.42,-251.93C256.24,-249.93 267.78,-247.84 278.5,-246 376.45,-229.17 403.73,-227.58 506.18,-210.02"/>
<polygon fill="midnightblue" stroke="midnightblue" points="507.07,-213.42 516.33,-208.27 505.88,-206.52 507.07,-213.42"/>
</g>
<!-- Node13 -->
<g id="node13" class="node">
<title>Node13</title>
<g id="a_node13"><a xlink:href="numeric__range_8hpp.html" target="_top" xlink:title="数値の範囲を扱うクラス">
<polygon fill="white" stroke="black" points="184,-179.5 184,-209.5 309,-209.5 309,-179.5 184,-179.5"/>
<text text-anchor="start" x="192" y="-197.5" font-family="Helvetica,sans-Serif" font-size="10.00">alps_cmn/util/numeric</text>
<text text-anchor="middle" x="246.5" y="-186.5" font-family="Helvetica,sans-Serif" font-size="10.00">_range.hpp</text>
</a>
</g>
</g>
<!-- Node3&#45;&gt;Node13 -->
<g id="edge19" class="edge">
<title>Node3&#45;&gt;Node13</title>
<path fill="none" stroke="midnightblue" d="M206.7,-251.73C212.8,-243.12 222.36,-229.61 230.58,-217.99"/>
<polygon fill="midnightblue" stroke="midnightblue" points="233.61,-219.77 236.53,-209.59 227.9,-215.73 233.61,-219.77"/>
</g>
<!-- Node7&#45;&gt;Node4 -->
<g id="edge7" class="edge">
<title>Node7&#45;&gt;Node4</title>
<path fill="none" stroke="midnightblue" d="M409.77,-184.95C402.99,-162.05 387.76,-98.18 413.5,-56 424.66,-37.71 445.95,-26.49 464.55,-19.83"/>
<polygon fill="midnightblue" stroke="midnightblue" points="465.83,-23.09 474.25,-16.66 463.66,-16.44 465.83,-23.09"/>
</g>
<!-- Node7&#45;&gt;Node6 -->
<g id="edge8" class="edge">
<title>Node7&#45;&gt;Node6</title>
<path fill="none" stroke="midnightblue" d="M365.65,-184.98C322.78,-176.53 257.92,-162.09 203.5,-143 201.88,-142.43 200.23,-141.81 198.58,-141.15"/>
<polygon fill="midnightblue" stroke="midnightblue" points="199.87,-137.89 189.3,-137.1 197.07,-144.31 199.87,-137.89"/>
</g>
<!-- Node8 -->
<g id="node8" class="node">
<title>Node8</title>
<g id="a_node8"><a xlink:href="algorithm_8hpp.html" target="_top" xlink:title=" ">
<polygon fill="white" stroke="black" points="213,-118 213,-137 366,-137 366,-118 213,-118"/>
<text text-anchor="middle" x="289.5" y="-125" font-family="Helvetica,sans-Serif" font-size="10.00">alps_cmn/util/algorithm.hpp</text>
</a>
</g>
</g>
<!-- Node7&#45;&gt;Node8 -->
<g id="edge9" class="edge">
<title>Node7&#45;&gt;Node8</title>
<path fill="none" stroke="midnightblue" d="M396.17,-184.87C375.4,-173.89 339.31,-154.82 314.93,-141.94"/>
<polygon fill="midnightblue" stroke="midnightblue" points="316.38,-138.75 305.9,-137.17 313.11,-144.93 316.38,-138.75"/>
</g>
<!-- Node9 -->
<g id="node9" class="node">
<title>Node9</title>
<g id="a_node9"><a xlink:href="duration_8hpp.html" target="_top" xlink:title="時間間隔の型エイリアス">
<polygon fill="white" stroke="black" points="423,-56.5 423,-75.5 576,-75.5 576,-56.5 423,-56.5"/>
<text text-anchor="middle" x="499.5" y="-63.5" font-family="Helvetica,sans-Serif" font-size="10.00">alps_cmn/time/duration.hpp</text>
</a>
</g>
</g>
<!-- Node7&#45;&gt;Node9 -->
<g id="edge10" class="edge">
<title>Node7&#45;&gt;Node9</title>
<path fill="none" stroke="midnightblue" d="M415.43,-184.84C420.94,-169.29 433.89,-136.05 451.5,-112 459.64,-100.88 470.77,-90.25 480.26,-82.11"/>
<polygon fill="midnightblue" stroke="midnightblue" points="482.59,-84.72 488.07,-75.65 478.13,-79.33 482.59,-84.72"/>
</g>
<!-- Node9&#45;&gt;Node4 -->
<g id="edge11" class="edge">
<title>Node9&#45;&gt;Node4</title>
<path fill="none" stroke="midnightblue" d="M499.5,-56.08C499.5,-49.01 499.5,-38.86 499.5,-29.99"/>
<polygon fill="midnightblue" stroke="midnightblue" points="503,-29.75 499.5,-19.75 496,-29.75 503,-29.75"/>
</g>
<!-- Node11 -->
<g id="node11" class="node">
<title>Node11</title>
<g id="a_node11"><a xlink:href="differentiator_8hpp.html" target="_top" xlink:title="微分器ライブラリ">
<polygon fill="white" stroke="black" points="599,-118 599,-137 786,-137 786,-118 599,-118"/>
<text text-anchor="middle" x="692.5" y="-125" font-family="Helvetica,sans-Serif" font-size="10.00">alps_cmn/control/differentiator.hpp</text>
</a>
</g>
</g>
<!-- Node10&#45;&gt;Node11 -->
<g id="edge13" class="edge">
<title>Node10&#45;&gt;Node11</title>
<path fill="none" stroke="midnightblue" d="M607.15,-179.4C625.68,-168.34 651.31,-153.06 669.64,-142.13"/>
<polygon fill="midnightblue" stroke="midnightblue" points="671.44,-145.13 678.23,-137.01 667.85,-139.12 671.44,-145.13"/>
</g>
<!-- Node12 -->
<g id="node12" class="node">
<title>Node12</title>
<g id="a_node12"><a xlink:href="low__pass__filter_8hpp.html" target="_top" xlink:title="ローパスフィルタのクラス">
<polygon fill="white" stroke="black" points="460.5,-112.5 460.5,-142.5 580.5,-142.5 580.5,-112.5 460.5,-112.5"/>
<text text-anchor="start" x="468.5" y="-130.5" font-family="Helvetica,sans-Serif" font-size="10.00">alps_cmn/control/low</text>
<text text-anchor="middle" x="520.5" y="-119.5" font-family="Helvetica,sans-Serif" font-size="10.00">_pass_filter.hpp</text>
</a>
</g>
</g>
<!-- Node10&#45;&gt;Node12 -->
<g id="edge16" class="edge">
<title>Node10&#45;&gt;Node12</title>
<path fill="none" stroke="midnightblue" d="M569.83,-179.4C561.49,-170.79 550.67,-159.63 541.28,-149.94"/>
<polygon fill="midnightblue" stroke="midnightblue" points="543.62,-147.32 534.14,-142.58 538.59,-152.19 543.62,-147.32"/>
</g>
<!-- Node11&#45;&gt;Node4 -->
<g id="edge14" class="edge">
<title>Node11&#45;&gt;Node4</title>
<path fill="none" stroke="midnightblue" d="M682.84,-117.86C666.66,-103.68 632.67,-75.13 600.5,-56 578.66,-43.01 552.41,-31.43 532.15,-23.27"/>
<polygon fill="midnightblue" stroke="midnightblue" points="533.31,-19.96 522.72,-19.54 530.74,-26.47 533.31,-19.96"/>
</g>
<!-- Node11&#45;&gt;Node9 -->
<g id="edge15" class="edge">
<title>Node11&#45;&gt;Node9</title>
<path fill="none" stroke="midnightblue" d="M664.85,-117.98C631.31,-107.64 574.63,-90.16 537.13,-78.6"/>
<polygon fill="midnightblue" stroke="midnightblue" points="537.69,-75.11 527.1,-75.51 535.63,-81.8 537.69,-75.11"/>
</g>
<!-- Node12&#45;&gt;Node4 -->
<g id="edge17" class="edge">
<title>Node12&#45;&gt;Node4</title>
<path fill="none" stroke="midnightblue" d="M548.7,-112.49C571.47,-99.17 597.72,-77.95 584.5,-56 573.55,-37.81 552.51,-26.59 534.1,-19.9"/>
<polygon fill="midnightblue" stroke="midnightblue" points="535.1,-16.54 524.51,-16.72 532.9,-23.19 535.1,-16.54"/>
</g>
<!-- Node12&#45;&gt;Node9 -->
<g id="edge18" class="edge">
<title>Node12&#45;&gt;Node9</title>
<path fill="none" stroke="midnightblue" d="M515.52,-112.4C512.66,-104.29 509.03,-94.01 505.95,-85.28"/>
<polygon fill="midnightblue" stroke="midnightblue" points="509.18,-83.92 502.56,-75.66 502.58,-86.25 509.18,-83.92"/>
</g>
<!-- Node13&#45;&gt;Node6 -->
<g id="edge20" class="edge">
<title>Node13&#45;&gt;Node6</title>
<path fill="none" stroke="midnightblue" d="M230.44,-179.4C218.56,-168.96 202.39,-154.75 190.14,-144"/>
<polygon fill="midnightblue" stroke="midnightblue" points="192.22,-141.16 182.4,-137.19 187.6,-146.42 192.22,-141.16"/>
</g>
<!-- Node13&#45;&gt;Node8 -->
<g id="edge21" class="edge">
<title>Node13&#45;&gt;Node8</title>
<path fill="none" stroke="midnightblue" d="M255.83,-179.4C262.4,-169.46 271.24,-156.11 278.21,-145.57"/>
<polygon fill="midnightblue" stroke="midnightblue" points="281.15,-147.47 283.75,-137.19 275.31,-143.6 281.15,-147.47"/>
</g>
</g>
</svg>
