<?xml version="1.0" encoding="UTF-8" standalone="no"?>
<!DOCTYPE svg PUBLIC "-//W3C//DTD SVG 1.1//EN"
 "http://www.w3.org/Graphics/SVG/1.1/DTD/svg11.dtd">
<!-- Generated by graphviz version 2.43.0 (0)
 -->
<!-- Title: alps_core/lib_internal/alps_common_lib/include/alps_cmn/tool/motor_friction_analyzer.hpp Pages: 1 -->
<svg width="1124pt" height="318pt"
 viewBox="0.00 0.00 1124.00 318.00" xmlns="http://www.w3.org/2000/svg" xmlns:xlink="http://www.w3.org/1999/xlink">
<g id="graph0" class="graph" transform="scale(1 1) rotate(0) translate(4 314)">
<title>alps_core/lib_internal/alps_common_lib/include/alps_cmn/tool/motor_friction_analyzer.hpp</title>
<polygon fill="white" stroke="transparent" points="-4,4 -4,-314 1120,-314 1120,4 -4,4"/>
<!-- Node1 -->
<g id="node1" class="node">
<title>Node1</title>
<g id="a_node1"><a xlink:title="モーター軸の摩擦力を計測するクラス">
<polygon fill="#bfbfbf" stroke="black" points="550.5,-257.5 550.5,-309.5 710.5,-309.5 710.5,-257.5 550.5,-257.5"/>
<text text-anchor="start" x="558.5" y="-297.5" font-family="Helvetica,sans-Serif" font-size="10.00">alps_core/lib_internal</text>
<text text-anchor="start" x="558.5" y="-286.5" font-family="Helvetica,sans-Serif" font-size="10.00">/alps_common_lib/include</text>
<text text-anchor="start" x="558.5" y="-275.5" font-family="Helvetica,sans-Serif" font-size="10.00">/alps_cmn/tool/motor_friction</text>
<text text-anchor="middle" x="630.5" y="-264.5" font-family="Helvetica,sans-Serif" font-size="10.00">_analyzer.hpp</text>
</a>
</g>
</g>
<!-- Node2 -->
<g id="node2" class="node">
<title>Node2</title>
<g id="a_node2"><a xlink:title=" ">
<polygon fill="white" stroke="#bfbfbf" points="0,-129 0,-148 47,-148 47,-129 0,-129"/>
<text text-anchor="middle" x="23.5" y="-136" font-family="Helvetica,sans-Serif" font-size="10.00">cmath</text>
</a>
</g>
</g>
<!-- Node1&#45;&gt;Node2 -->
<g id="edge1" class="edge">
<title>Node1&#45;&gt;Node2</title>
<path fill="none" stroke="midnightblue" d="M550.29,-283.11C452.48,-281.44 283.5,-270.64 148.5,-221 106.46,-205.54 64.18,-173.78 41.17,-154.8"/>
<polygon fill="midnightblue" stroke="midnightblue" points="43.24,-151.97 33.33,-148.21 38.73,-157.32 43.24,-151.97"/>
</g>
<!-- Node3 -->
<g id="node3" class="node">
<title>Node3</title>
<g id="a_node3"><a xlink:href="i__motor_8hpp.html" target="_top" xlink:title=" ">
<polygon fill="white" stroke="black" points="65,-123.5 65,-153.5 178,-153.5 178,-123.5 65,-123.5"/>
<text text-anchor="start" x="73" y="-141.5" font-family="Helvetica,sans-Serif" font-size="10.00">alps_cmn/actuator/i</text>
<text text-anchor="middle" x="121.5" y="-130.5" font-family="Helvetica,sans-Serif" font-size="10.00">_motor.hpp</text>
</a>
</g>
</g>
<!-- Node1&#45;&gt;Node3 -->
<g id="edge2" class="edge">
<title>Node1&#45;&gt;Node3</title>
<path fill="none" stroke="midnightblue" d="M550.16,-278.67C438.97,-272.16 245.04,-256.06 184.5,-221 161.2,-207.51 143.51,-181.69 132.9,-162.72"/>
<polygon fill="midnightblue" stroke="midnightblue" points="135.93,-160.96 128.13,-153.78 129.75,-164.25 135.93,-160.96"/>
</g>
<!-- Node4 -->
<g id="node4" class="node">
<title>Node4</title>
<g id="a_node4"><a xlink:href="friction__compensated__motor_8hpp.html" target="_top" xlink:title="モーターに対して摩擦補償を行うデコレーター">
<polygon fill="white" stroke="black" points="194,-190.5 194,-220.5 337,-220.5 337,-190.5 194,-190.5"/>
<text text-anchor="start" x="202" y="-208.5" font-family="Helvetica,sans-Serif" font-size="10.00">alps_cmn/control/friction</text>
<text text-anchor="middle" x="265.5" y="-197.5" font-family="Helvetica,sans-Serif" font-size="10.00">_compensated_motor.hpp</text>
</a>
</g>
</g>
<!-- Node1&#45;&gt;Node4 -->
<g id="edge3" class="edge">
<title>Node1&#45;&gt;Node4</title>
<path fill="none" stroke="midnightblue" d="M550.4,-265.82C488.68,-252.97 403.85,-235.31 342.83,-222.6"/>
<polygon fill="midnightblue" stroke="midnightblue" points="343.37,-219.14 332.87,-220.53 341.95,-225.99 343.37,-219.14"/>
</g>
<!-- Node8 -->
<g id="node8" class="node">
<title>Node8</title>
<g id="a_node8"><a xlink:href="i__rotary__sensor_8hpp.html" target="_top" xlink:title=" ">
<polygon fill="white" stroke="black" points="196,-123.5 196,-153.5 335,-153.5 335,-123.5 196,-123.5"/>
<text text-anchor="start" x="204" y="-141.5" font-family="Helvetica,sans-Serif" font-size="10.00">alps_cmn/sensor/i_rotary</text>
<text text-anchor="middle" x="265.5" y="-130.5" font-family="Helvetica,sans-Serif" font-size="10.00">_sensor.hpp</text>
</a>
</g>
</g>
<!-- Node1&#45;&gt;Node8 -->
<g id="edge20" class="edge">
<title>Node1&#45;&gt;Node8</title>
<path fill="none" stroke="midnightblue" d="M566.5,-257.43C493.38,-228.78 375.55,-182.61 311.14,-157.38"/>
<polygon fill="midnightblue" stroke="midnightblue" points="312.25,-154.06 301.66,-153.67 309.69,-160.57 312.25,-154.06"/>
</g>
<!-- Node9 -->
<g id="node9" class="node">
<title>Node9</title>
<g id="a_node9"><a xlink:href="low__pass__differentiator_8hpp.html" target="_top" xlink:title=" ">
<polygon fill="white" stroke="black" points="486.5,-190.5 486.5,-220.5 620.5,-220.5 620.5,-190.5 486.5,-190.5"/>
<text text-anchor="start" x="494.5" y="-208.5" font-family="Helvetica,sans-Serif" font-size="10.00">alps_cmn/control/low</text>
<text text-anchor="middle" x="553.5" y="-197.5" font-family="Helvetica,sans-Serif" font-size="10.00">_pass_differentiator.hpp</text>
</a>
</g>
</g>
<!-- Node1&#45;&gt;Node9 -->
<g id="edge11" class="edge">
<title>Node1&#45;&gt;Node9</title>
<path fill="none" stroke="midnightblue" d="M604.86,-257.19C595.29,-247.75 584.52,-237.12 575.33,-228.04"/>
<polygon fill="midnightblue" stroke="midnightblue" points="577.61,-225.38 568.03,-220.85 572.69,-230.36 577.61,-225.38"/>
</g>
<!-- Node11 -->
<g id="node11" class="node">
<title>Node11</title>
<g id="a_node11"><a xlink:href="logging__macros_8hpp.html" target="_top" xlink:title=" ">
<polygon fill="white" stroke="black" points="846.5,-190.5 846.5,-220.5 966.5,-220.5 966.5,-190.5 846.5,-190.5"/>
<text text-anchor="start" x="854.5" y="-208.5" font-family="Helvetica,sans-Serif" font-size="10.00">alps_cmn/log/logging</text>
<text text-anchor="middle" x="906.5" y="-197.5" font-family="Helvetica,sans-Serif" font-size="10.00">_macros.hpp</text>
</a>
</g>
</g>
<!-- Node1&#45;&gt;Node11 -->
<g id="edge16" class="edge">
<title>Node1&#45;&gt;Node11</title>
<path fill="none" stroke="midnightblue" d="M710.7,-260.42C753.69,-248.58 805.82,-234.22 845.47,-223.3"/>
<polygon fill="midnightblue" stroke="midnightblue" points="846.56,-226.64 855.27,-220.61 844.7,-219.89 846.56,-226.64"/>
</g>
<!-- Node13 -->
<g id="node13" class="node">
<title>Node13</title>
<g id="a_node13"><a xlink:title=" ">
<polygon fill="white" stroke="#bfbfbf" points="966.5,-62 966.5,-81 1050.5,-81 1050.5,-62 966.5,-62"/>
<text text-anchor="middle" x="1008.5" y="-69" font-family="Helvetica,sans-Serif" font-size="10.00">etl/delegate.h</text>
</a>
</g>
</g>
<!-- Node1&#45;&gt;Node13 -->
<g id="edge26" class="edge">
<title>Node1&#45;&gt;Node13</title>
<path fill="none" stroke="midnightblue" d="M710.89,-278.29C800.74,-271.89 938.5,-256.47 975.5,-221 1011.33,-186.66 1012.34,-122.71 1010.34,-91.13"/>
<polygon fill="midnightblue" stroke="midnightblue" points="1013.82,-90.76 1009.53,-81.08 1006.85,-91.33 1013.82,-90.76"/>
</g>
<!-- Node15 -->
<g id="node15" class="node">
<title>Node15</title>
<g id="a_node15"><a xlink:href="sleep_8hpp.html" target="_top" xlink:title="スリープ関数の定義">
<polygon fill="white" stroke="black" points="639,-196 639,-215 778,-215 778,-196 639,-196"/>
<text text-anchor="middle" x="708.5" y="-203" font-family="Helvetica,sans-Serif" font-size="10.00">alps_cmn/time/sleep.hpp</text>
</a>
</g>
</g>
<!-- Node1&#45;&gt;Node15 -->
<g id="edge21" class="edge">
<title>Node1&#45;&gt;Node15</title>
<path fill="none" stroke="midnightblue" d="M656.47,-257.19C668.34,-245.63 682.02,-232.3 692.38,-222.21"/>
<polygon fill="midnightblue" stroke="midnightblue" points="694.84,-224.69 699.56,-215.21 689.96,-219.68 694.84,-224.69"/>
</g>
<!-- Node17 -->
<g id="node17" class="node">
<title>Node17</title>
<g id="a_node17"><a xlink:href="timeout__checker_8hpp.html" target="_top" xlink:title="タイムアウトを検知するクラス">
<polygon fill="white" stroke="black" points="730.5,-56.5 730.5,-86.5 860.5,-86.5 860.5,-56.5 730.5,-56.5"/>
<text text-anchor="start" x="738.5" y="-74.5" font-family="Helvetica,sans-Serif" font-size="10.00">alps_cmn/time/timeout</text>
<text text-anchor="middle" x="795.5" y="-63.5" font-family="Helvetica,sans-Serif" font-size="10.00">_checker.hpp</text>
</a>
</g>
</g>
<!-- Node1&#45;&gt;Node17 -->
<g id="edge24" class="edge">
<title>Node1&#45;&gt;Node17</title>
<path fill="none" stroke="midnightblue" d="M710.55,-269.37C739.07,-260.53 768.54,-245.74 786.5,-221 812.97,-184.54 807.54,-128.82 801.4,-97.02"/>
<polygon fill="midnightblue" stroke="midnightblue" points="804.74,-95.89 799.25,-86.83 797.89,-97.34 804.74,-95.89"/>
</g>
<!-- Node18 -->
<g id="node18" class="node">
<title>Node18</title>
<g id="a_node18"><a xlink:title=" ">
<polygon fill="white" stroke="#bfbfbf" points="1035,-196 1035,-215 1116,-215 1116,-196 1035,-196"/>
<text text-anchor="middle" x="1075.5" y="-203" font-family="Helvetica,sans-Serif" font-size="10.00">etl/optional.h</text>
</a>
</g>
</g>
<!-- Node1&#45;&gt;Node18 -->
<g id="edge27" class="edge">
<title>Node1&#45;&gt;Node18</title>
<path fill="none" stroke="midnightblue" d="M710.85,-272.25C790.01,-261.59 914.18,-243.34 1020.5,-221 1025.32,-219.99 1030.35,-218.82 1035.32,-217.59"/>
<polygon fill="midnightblue" stroke="midnightblue" points="1036.55,-220.89 1045.37,-215.03 1034.82,-214.11 1036.55,-220.89"/>
</g>
<!-- Node4&#45;&gt;Node2 -->
<g id="edge4" class="edge">
<title>Node4&#45;&gt;Node2</title>
<path fill="none" stroke="midnightblue" d="M193.58,-190.73C152.58,-182.01 100.54,-169.46 55.5,-154 53.83,-153.43 52.14,-152.8 50.44,-152.14"/>
<polygon fill="midnightblue" stroke="midnightblue" points="51.44,-148.76 40.86,-148.09 48.71,-155.21 51.44,-148.76"/>
</g>
<!-- Node4&#45;&gt;Node3 -->
<g id="edge5" class="edge">
<title>Node4&#45;&gt;Node3</title>
<path fill="none" stroke="midnightblue" d="M234.25,-190.4C213.03,-180.81 184.75,-168.05 161.82,-157.7"/>
<polygon fill="midnightblue" stroke="midnightblue" points="163.24,-154.5 152.68,-153.58 160.36,-160.88 163.24,-154.5"/>
</g>
<!-- Node5 -->
<g id="node5" class="node">
<title>Node5</title>
<g id="a_node5"><a xlink:href="differentiator_8hpp.html" target="_top" xlink:title="微分器ライブラリ">
<polygon fill="white" stroke="black" points="353,-129 353,-148 540,-148 540,-129 353,-129"/>
<text text-anchor="middle" x="446.5" y="-136" font-family="Helvetica,sans-Serif" font-size="10.00">alps_cmn/control/differentiator.hpp</text>
</a>
</g>
</g>
<!-- Node4&#45;&gt;Node5 -->
<g id="edge6" class="edge">
<title>Node4&#45;&gt;Node5</title>
<path fill="none" stroke="midnightblue" d="M304.77,-190.4C337.09,-178.79 382.41,-162.51 413.03,-151.52"/>
<polygon fill="midnightblue" stroke="midnightblue" points="414.58,-154.68 422.81,-148.01 412.22,-148.09 414.58,-154.68"/>
</g>
<!-- Node4&#45;&gt;Node8 -->
<g id="edge10" class="edge">
<title>Node4&#45;&gt;Node8</title>
<path fill="none" stroke="midnightblue" d="M265.5,-190.4C265.5,-182.64 265.5,-172.81 265.5,-163.86"/>
<polygon fill="midnightblue" stroke="midnightblue" points="269,-163.58 265.5,-153.58 262,-163.58 269,-163.58"/>
</g>
<!-- Node6 -->
<g id="node6" class="node">
<title>Node6</title>
<g id="a_node6"><a xlink:title=" ">
<polygon fill="white" stroke="#bfbfbf" points="639.5,-0.5 639.5,-19.5 689.5,-19.5 689.5,-0.5 639.5,-0.5"/>
<text text-anchor="middle" x="664.5" y="-7.5" font-family="Helvetica,sans-Serif" font-size="10.00">chrono</text>
</a>
</g>
</g>
<!-- Node5&#45;&gt;Node6 -->
<g id="edge7" class="edge">
<title>Node5&#45;&gt;Node6</title>
<path fill="none" stroke="midnightblue" d="M446.73,-128.91C447.66,-112.26 452.17,-75.52 473.5,-56 495.98,-35.43 580.29,-21.64 629.06,-15.19"/>
<polygon fill="midnightblue" stroke="midnightblue" points="629.71,-18.64 639.18,-13.89 628.82,-11.69 629.71,-18.64"/>
</g>
<!-- Node7 -->
<g id="node7" class="node">
<title>Node7</title>
<g id="a_node7"><a xlink:href="duration_8hpp.html" target="_top" xlink:title="時間間隔の型エイリアス">
<polygon fill="white" stroke="black" points="483,-62 483,-81 636,-81 636,-62 483,-62"/>
<text text-anchor="middle" x="559.5" y="-69" font-family="Helvetica,sans-Serif" font-size="10.00">alps_cmn/time/duration.hpp</text>
</a>
</g>
</g>
<!-- Node5&#45;&gt;Node7 -->
<g id="edge8" class="edge">
<title>Node5&#45;&gt;Node7</title>
<path fill="none" stroke="midnightblue" d="M461.74,-128.73C480.72,-117.82 513.35,-99.05 535.65,-86.22"/>
<polygon fill="midnightblue" stroke="midnightblue" points="537.58,-89.15 544.5,-81.13 534.09,-83.08 537.58,-89.15"/>
</g>
<!-- Node7&#45;&gt;Node6 -->
<g id="edge9" class="edge">
<title>Node7&#45;&gt;Node6</title>
<path fill="none" stroke="midnightblue" d="M574.54,-61.98C591.78,-52.21 620.24,-36.08 640.53,-24.58"/>
<polygon fill="midnightblue" stroke="midnightblue" points="642.51,-27.48 649.48,-19.51 639.06,-21.39 642.51,-27.48"/>
</g>
<!-- Node9&#45;&gt;Node5 -->
<g id="edge12" class="edge">
<title>Node9&#45;&gt;Node5</title>
<path fill="none" stroke="midnightblue" d="M530.28,-190.4C512.17,-179.39 487.16,-164.2 469.19,-153.28"/>
<polygon fill="midnightblue" stroke="midnightblue" points="470.87,-150.21 460.5,-148.01 467.23,-156.19 470.87,-150.21"/>
</g>
<!-- Node10 -->
<g id="node10" class="node">
<title>Node10</title>
<g id="a_node10"><a xlink:href="low__pass__filter_8hpp.html" target="_top" xlink:title="ローパスフィルタのクラス">
<polygon fill="white" stroke="black" points="557.5,-123.5 557.5,-153.5 677.5,-153.5 677.5,-123.5 557.5,-123.5"/>
<text text-anchor="start" x="565.5" y="-141.5" font-family="Helvetica,sans-Serif" font-size="10.00">alps_cmn/control/low</text>
<text text-anchor="middle" x="617.5" y="-130.5" font-family="Helvetica,sans-Serif" font-size="10.00">_pass_filter.hpp</text>
</a>
</g>
</g>
<!-- Node9&#45;&gt;Node10 -->
<g id="edge13" class="edge">
<title>Node9&#45;&gt;Node10</title>
<path fill="none" stroke="midnightblue" d="M567.39,-190.4C575.86,-181.79 586.85,-170.63 596.39,-160.94"/>
<polygon fill="midnightblue" stroke="midnightblue" points="599.12,-163.16 603.64,-153.58 594.13,-158.25 599.12,-163.16"/>
</g>
<!-- Node10&#45;&gt;Node6 -->
<g id="edge14" class="edge">
<title>Node10&#45;&gt;Node6</title>
<path fill="none" stroke="midnightblue" d="M626.23,-123.34C632.03,-113.45 639.49,-99.77 644.5,-87 651.96,-67.99 657.54,-45.23 660.88,-29.6"/>
<polygon fill="midnightblue" stroke="midnightblue" points="664.34,-30.14 662.91,-19.64 657.48,-28.74 664.34,-30.14"/>
</g>
<!-- Node10&#45;&gt;Node7 -->
<g id="edge15" class="edge">
<title>Node10&#45;&gt;Node7</title>
<path fill="none" stroke="midnightblue" d="M604.91,-123.4C595.87,-113.26 583.65,-99.57 574.17,-88.94"/>
<polygon fill="midnightblue" stroke="midnightblue" points="576.53,-86.33 567.26,-81.19 571.3,-90.99 576.53,-86.33"/>
</g>
<!-- Node12 -->
<g id="node12" class="node">
<title>Node12</title>
<g id="a_node12"><a xlink:href="logger_8hpp.html" target="_top" xlink:title=" ">
<polygon fill="white" stroke="black" points="843,-129 843,-148 978,-148 978,-129 843,-129"/>
<text text-anchor="middle" x="910.5" y="-136" font-family="Helvetica,sans-Serif" font-size="10.00">alps_cmn/log/logger.hpp</text>
</a>
</g>
</g>
<!-- Node11&#45;&gt;Node12 -->
<g id="edge17" class="edge">
<title>Node11&#45;&gt;Node12</title>
<path fill="none" stroke="midnightblue" d="M907.37,-190.4C907.95,-180.96 908.72,-168.45 909.35,-158.19"/>
<polygon fill="midnightblue" stroke="midnightblue" points="912.84,-158.39 909.96,-148.19 905.86,-157.96 912.84,-158.39"/>
</g>
<!-- Node12&#45;&gt;Node13 -->
<g id="edge18" class="edge">
<title>Node12&#45;&gt;Node13</title>
<path fill="none" stroke="midnightblue" d="M923.72,-128.73C939.95,-117.96 967.72,-99.55 987.03,-86.74"/>
<polygon fill="midnightblue" stroke="midnightblue" points="989.09,-89.57 995.49,-81.13 985.22,-83.74 989.09,-89.57"/>
</g>
<!-- Node14 -->
<g id="node14" class="node">
<title>Node14</title>
<g id="a_node14"><a xlink:title=" ">
<polygon fill="white" stroke="#bfbfbf" points="879,-62 879,-81 948,-81 948,-62 879,-62"/>
<text text-anchor="middle" x="913.5" y="-69" font-family="Helvetica,sans-Serif" font-size="10.00">etl/string.h</text>
</a>
</g>
</g>
<!-- Node12&#45;&gt;Node14 -->
<g id="edge19" class="edge">
<title>Node12&#45;&gt;Node14</title>
<path fill="none" stroke="midnightblue" d="M910.9,-128.73C911.35,-119.18 912.06,-103.62 912.63,-91.28"/>
<polygon fill="midnightblue" stroke="midnightblue" points="916.14,-91.28 913.1,-81.13 909.14,-90.96 916.14,-91.28"/>
</g>
<!-- Node15&#45;&gt;Node6 -->
<g id="edge22" class="edge">
<title>Node15&#45;&gt;Node6</title>
<path fill="none" stroke="midnightblue" d="M706.55,-195.94C699.91,-166.72 678.04,-70.56 668.74,-29.67"/>
<polygon fill="midnightblue" stroke="midnightblue" points="672.16,-28.88 666.53,-19.91 665.33,-30.43 672.16,-28.88"/>
</g>
<!-- Node16 -->
<g id="node16" class="node">
<title>Node16</title>
<g id="a_node16"><a xlink:title=" ">
<polygon fill="white" stroke="#bfbfbf" points="733.5,-129 733.5,-148 781.5,-148 781.5,-129 733.5,-129"/>
<text text-anchor="middle" x="757.5" y="-136" font-family="Helvetica,sans-Serif" font-size="10.00">thread</text>
</a>
</g>
</g>
<!-- Node15&#45;&gt;Node16 -->
<g id="edge23" class="edge">
<title>Node15&#45;&gt;Node16</title>
<path fill="none" stroke="midnightblue" d="M715.11,-195.73C722.68,-185.7 735.25,-169.01 744.74,-156.42"/>
<polygon fill="midnightblue" stroke="midnightblue" points="747.77,-158.22 751,-148.13 742.18,-154.01 747.77,-158.22"/>
</g>
<!-- Node17&#45;&gt;Node6 -->
<g id="edge25" class="edge">
<title>Node17&#45;&gt;Node6</title>
<path fill="none" stroke="midnightblue" d="M764.45,-56.4C742.77,-46.55 714.04,-33.5 692.95,-23.92"/>
<polygon fill="midnightblue" stroke="midnightblue" points="694.11,-20.61 683.56,-19.66 691.22,-26.98 694.11,-20.61"/>
</g>
</g>
</svg>
