<?xml version="1.0" encoding="UTF-8" standalone="no"?>
<!DOCTYPE svg PUBLIC "-//W3C//DTD SVG 1.1//EN"
 "http://www.w3.org/Graphics/SVG/1.1/DTD/svg11.dtd">
<!-- Generated by graphviz version 2.43.0 (0)
 -->
<!-- Title: alps_common_lib/include/alps_cmn/tool/motor_friction_analyzer.hpp Pages: 1 -->
<svg width="827pt" height="296pt"
 viewBox="0.00 0.00 826.50 296.00" xmlns="http://www.w3.org/2000/svg" xmlns:xlink="http://www.w3.org/1999/xlink">
<g id="graph0" class="graph" transform="scale(1 1) rotate(0) translate(4 292)">
<title>alps_common_lib/include/alps_cmn/tool/motor_friction_analyzer.hpp</title>
<polygon fill="white" stroke="transparent" points="-4,4 -4,-292 822.5,-292 822.5,4 -4,4"/>
<!-- Node1 -->
<g id="node1" class="node">
<title>Node1</title>
<g id="a_node1"><a xlink:title="モーター軸の摩擦力を計測するクラス">
<polygon fill="#bfbfbf" stroke="black" points="263.5,-246.5 263.5,-287.5 423.5,-287.5 423.5,-246.5 263.5,-246.5"/>
<text text-anchor="start" x="271.5" y="-275.5" font-family="Helvetica,sans-Serif" font-size="10.00">alps_common_lib/include</text>
<text text-anchor="start" x="271.5" y="-264.5" font-family="Helvetica,sans-Serif" font-size="10.00">/alps_cmn/tool/motor_friction</text>
<text text-anchor="middle" x="343.5" y="-253.5" font-family="Helvetica,sans-Serif" font-size="10.00">_analyzer.hpp</text>
</a>
</g>
</g>
<!-- Node2 -->
<g id="node2" class="node">
<title>Node2</title>
<g id="a_node2"><a xlink:title=" ">
<polygon fill="white" stroke="#bfbfbf" points="0,-118 0,-137 47,-137 47,-118 0,-118"/>
<text text-anchor="middle" x="23.5" y="-125" font-family="Helvetica,sans-Serif" font-size="10.00">cmath</text>
</a>
</g>
</g>
<!-- Node1&#45;&gt;Node2 -->
<g id="edge1" class="edge">
<title>Node1&#45;&gt;Node2</title>
<path fill="none" stroke="midnightblue" d="M263.47,-251.42C224.04,-242.49 176.5,-229.05 136.5,-210 99.46,-192.36 61.89,-162.31 40.76,-144.05"/>
<polygon fill="midnightblue" stroke="midnightblue" points="42.83,-141.2 33,-137.23 38.21,-146.46 42.83,-141.2"/>
</g>
<!-- Node3 -->
<g id="node3" class="node">
<title>Node3</title>
<g id="a_node3"><a xlink:href="i__motor_8hpp.html" target="_top" xlink:title=" ">
<polygon fill="white" stroke="black" points="65,-112.5 65,-142.5 178,-142.5 178,-112.5 65,-112.5"/>
<text text-anchor="start" x="73" y="-130.5" font-family="Helvetica,sans-Serif" font-size="10.00">alps_cmn/actuator/i</text>
<text text-anchor="middle" x="121.5" y="-119.5" font-family="Helvetica,sans-Serif" font-size="10.00">_motor.hpp</text>
</a>
</g>
</g>
<!-- Node1&#45;&gt;Node3 -->
<g id="edge2" class="edge">
<title>Node1&#45;&gt;Node3</title>
<path fill="none" stroke="midnightblue" d="M263.27,-255.47C229.12,-247.62 190.75,-233.91 162.5,-210 144.83,-195.05 133.98,-170.61 127.91,-152.39"/>
<polygon fill="midnightblue" stroke="midnightblue" points="131.23,-151.28 124.95,-142.75 124.54,-153.34 131.23,-151.28"/>
</g>
<!-- Node4 -->
<g id="node4" class="node">
<title>Node4</title>
<g id="a_node4"><a xlink:href="differentiator_8hpp.html" target="_top" xlink:title="微分器ライブラリ">
<polygon fill="white" stroke="black" points="353,-118 353,-137 540,-137 540,-118 353,-118"/>
<text text-anchor="middle" x="446.5" y="-125" font-family="Helvetica,sans-Serif" font-size="10.00">alps_cmn/control/differentiator.hpp</text>
</a>
</g>
</g>
<!-- Node1&#45;&gt;Node4 -->
<g id="edge3" class="edge">
<title>Node1&#45;&gt;Node4</title>
<path fill="none" stroke="midnightblue" d="M358.26,-246.3C378.57,-219.18 414.79,-170.83 433.9,-145.32"/>
<polygon fill="midnightblue" stroke="midnightblue" points="436.91,-147.14 440.1,-137.04 431.31,-142.94 436.91,-147.14"/>
</g>
<!-- Node7 -->
<g id="node7" class="node">
<title>Node7</title>
<g id="a_node7"><a xlink:href="friction__compensated__motor_8hpp.html" target="_top" xlink:title="モーターに対して摩擦補償を行うデコレーター">
<polygon fill="white" stroke="black" points="172,-179.5 172,-209.5 315,-209.5 315,-179.5 172,-179.5"/>
<text text-anchor="start" x="180" y="-197.5" font-family="Helvetica,sans-Serif" font-size="10.00">alps_cmn/control/friction</text>
<text text-anchor="middle" x="243.5" y="-186.5" font-family="Helvetica,sans-Serif" font-size="10.00">_compensated_motor.hpp</text>
</a>
</g>
</g>
<!-- Node1&#45;&gt;Node7 -->
<g id="edge7" class="edge">
<title>Node1&#45;&gt;Node7</title>
<path fill="none" stroke="midnightblue" d="M315.64,-246.36C302.09,-236.8 285.81,-225.33 272.14,-215.69"/>
<polygon fill="midnightblue" stroke="midnightblue" points="273.79,-212.57 263.6,-209.67 269.76,-218.29 273.79,-212.57"/>
</g>
<!-- Node8 -->
<g id="node8" class="node">
<title>Node8</title>
<g id="a_node8"><a xlink:href="i__rotary__sensor_8hpp.html" target="_top" xlink:title=" ">
<polygon fill="white" stroke="black" points="196,-112.5 196,-142.5 335,-142.5 335,-112.5 196,-112.5"/>
<text text-anchor="start" x="204" y="-130.5" font-family="Helvetica,sans-Serif" font-size="10.00">alps_cmn/sensor/i_rotary</text>
<text text-anchor="middle" x="265.5" y="-119.5" font-family="Helvetica,sans-Serif" font-size="10.00">_sensor.hpp</text>
</a>
</g>
</g>
<!-- Node1&#45;&gt;Node8 -->
<g id="edge16" class="edge">
<title>Node1&#45;&gt;Node8</title>
<path fill="none" stroke="midnightblue" d="M342.45,-246.39C340.7,-227.86 336.01,-199.87 323.5,-179 316.51,-167.34 305.91,-156.97 295.67,-148.71"/>
<polygon fill="midnightblue" stroke="midnightblue" points="297.69,-145.84 287.62,-142.55 293.44,-151.4 297.69,-145.84"/>
</g>
<!-- Node9 -->
<g id="node9" class="node">
<title>Node9</title>
<g id="a_node9"><a xlink:href="logging__macros_8hpp.html" target="_top" xlink:title=" ">
<polygon fill="white" stroke="black" points="662.5,-179.5 662.5,-209.5 782.5,-209.5 782.5,-179.5 662.5,-179.5"/>
<text text-anchor="start" x="670.5" y="-197.5" font-family="Helvetica,sans-Serif" font-size="10.00">alps_cmn/log/logging</text>
<text text-anchor="middle" x="722.5" y="-186.5" font-family="Helvetica,sans-Serif" font-size="10.00">_macros.hpp</text>
</a>
</g>
</g>
<!-- Node1&#45;&gt;Node9 -->
<g id="edge12" class="edge">
<title>Node1&#45;&gt;Node9</title>
<path fill="none" stroke="midnightblue" d="M423.63,-251.2C484.5,-239.95 570.28,-224.06 645.5,-210 647.81,-209.57 650.16,-209.13 652.54,-208.68"/>
<polygon fill="midnightblue" stroke="midnightblue" points="653.21,-212.12 662.39,-206.84 651.92,-205.24 653.21,-212.12"/>
</g>
<!-- Node13 -->
<g id="node13" class="node">
<title>Node13</title>
<g id="a_node13"><a xlink:href="sleep_8hpp.html" target="_top" xlink:title="スリープ関数の定義">
<polygon fill="white" stroke="black" points="498,-185 498,-204 637,-204 637,-185 498,-185"/>
<text text-anchor="middle" x="567.5" y="-192" font-family="Helvetica,sans-Serif" font-size="10.00">alps_cmn/time/sleep.hpp</text>
</a>
</g>
</g>
<!-- Node1&#45;&gt;Node13 -->
<g id="edge17" class="edge">
<title>Node1&#45;&gt;Node13</title>
<path fill="none" stroke="midnightblue" d="M405.6,-246.46C445.73,-233.83 496.6,-217.81 530.51,-207.14"/>
<polygon fill="midnightblue" stroke="midnightblue" points="531.96,-210.35 540.45,-204.01 529.86,-203.68 531.96,-210.35"/>
</g>
<!-- Node5 -->
<g id="node5" class="node">
<title>Node5</title>
<g id="a_node5"><a xlink:title=" ">
<polygon fill="white" stroke="#bfbfbf" points="504.5,-0.5 504.5,-19.5 554.5,-19.5 554.5,-0.5 504.5,-0.5"/>
<text text-anchor="middle" x="529.5" y="-7.5" font-family="Helvetica,sans-Serif" font-size="10.00">chrono</text>
</a>
</g>
</g>
<!-- Node4&#45;&gt;Node5 -->
<g id="edge4" class="edge">
<title>Node4&#45;&gt;Node5</title>
<path fill="none" stroke="midnightblue" d="M461.93,-117.85C476.24,-109.07 497.13,-94.2 509.5,-76 518.93,-62.11 524.06,-43.6 526.75,-29.88"/>
<polygon fill="midnightblue" stroke="midnightblue" points="530.26,-30.14 528.48,-19.7 523.36,-28.97 530.26,-30.14"/>
</g>
<!-- Node6 -->
<g id="node6" class="node">
<title>Node6</title>
<g id="a_node6"><a xlink:href="duration_8hpp.html" target="_top" xlink:title="時間間隔の型エイリアス">
<polygon fill="white" stroke="black" points="348,-56.5 348,-75.5 501,-75.5 501,-56.5 348,-56.5"/>
<text text-anchor="middle" x="424.5" y="-63.5" font-family="Helvetica,sans-Serif" font-size="10.00">alps_cmn/time/duration.hpp</text>
</a>
</g>
</g>
<!-- Node4&#45;&gt;Node6 -->
<g id="edge5" class="edge">
<title>Node4&#45;&gt;Node6</title>
<path fill="none" stroke="midnightblue" d="M443.35,-117.98C440.18,-109.4 435.2,-95.93 431.15,-84.98"/>
<polygon fill="midnightblue" stroke="midnightblue" points="434.4,-83.67 427.65,-75.51 427.83,-86.1 434.4,-83.67"/>
</g>
<!-- Node6&#45;&gt;Node5 -->
<g id="edge6" class="edge">
<title>Node6&#45;&gt;Node5</title>
<path fill="none" stroke="midnightblue" d="M441.37,-56.32C458.21,-47.66 484.31,-34.24 503.74,-24.25"/>
<polygon fill="midnightblue" stroke="midnightblue" points="505.38,-27.34 512.67,-19.65 502.18,-21.12 505.38,-27.34"/>
</g>
<!-- Node7&#45;&gt;Node2 -->
<g id="edge8" class="edge">
<title>Node7&#45;&gt;Node2</title>
<path fill="none" stroke="midnightblue" d="M180.91,-179.4C143.96,-170.41 96.54,-157.7 55.5,-143 53.84,-142.41 52.15,-141.76 50.46,-141.09"/>
<polygon fill="midnightblue" stroke="midnightblue" points="51.46,-137.71 40.89,-137 48.71,-144.15 51.46,-137.71"/>
</g>
<!-- Node7&#45;&gt;Node3 -->
<g id="edge9" class="edge">
<title>Node7&#45;&gt;Node3</title>
<path fill="none" stroke="midnightblue" d="M217.03,-179.4C199.44,-170.03 176.15,-157.62 156.96,-147.39"/>
<polygon fill="midnightblue" stroke="midnightblue" points="158.39,-144.19 147.92,-142.58 155.1,-150.37 158.39,-144.19"/>
</g>
<!-- Node7&#45;&gt;Node4 -->
<g id="edge10" class="edge">
<title>Node7&#45;&gt;Node4</title>
<path fill="none" stroke="midnightblue" d="M287.55,-179.4C324.27,-167.64 375.95,-151.09 410.3,-140.09"/>
<polygon fill="midnightblue" stroke="midnightblue" points="411.48,-143.39 419.93,-137.01 409.34,-136.72 411.48,-143.39"/>
</g>
<!-- Node7&#45;&gt;Node8 -->
<g id="edge11" class="edge">
<title>Node7&#45;&gt;Node8</title>
<path fill="none" stroke="midnightblue" d="M248.27,-179.4C250.95,-171.47 254.37,-161.38 257.45,-152.27"/>
<polygon fill="midnightblue" stroke="midnightblue" points="260.84,-153.17 260.74,-142.58 254.21,-150.93 260.84,-153.17"/>
</g>
<!-- Node10 -->
<g id="node10" class="node">
<title>Node10</title>
<g id="a_node10"><a xlink:href="logger_8hpp.html" target="_top" xlink:title=" ">
<polygon fill="white" stroke="black" points="662,-118 662,-137 797,-137 797,-118 662,-118"/>
<text text-anchor="middle" x="729.5" y="-125" font-family="Helvetica,sans-Serif" font-size="10.00">alps_cmn/log/logger.hpp</text>
</a>
</g>
</g>
<!-- Node9&#45;&gt;Node10 -->
<g id="edge13" class="edge">
<title>Node9&#45;&gt;Node10</title>
<path fill="none" stroke="midnightblue" d="M724.02,-179.4C725.03,-169.96 726.38,-157.45 727.49,-147.19"/>
<polygon fill="midnightblue" stroke="midnightblue" points="730.97,-147.51 728.56,-137.19 724.01,-146.76 730.97,-147.51"/>
</g>
<!-- Node11 -->
<g id="node11" class="node">
<title>Node11</title>
<g id="a_node11"><a xlink:title=" ">
<polygon fill="white" stroke="#bfbfbf" points="734.5,-56.5 734.5,-75.5 818.5,-75.5 818.5,-56.5 734.5,-56.5"/>
<text text-anchor="middle" x="776.5" y="-63.5" font-family="Helvetica,sans-Serif" font-size="10.00">etl/delegate.h</text>
</a>
</g>
</g>
<!-- Node10&#45;&gt;Node11 -->
<g id="edge14" class="edge">
<title>Node10&#45;&gt;Node11</title>
<path fill="none" stroke="midnightblue" d="M736.23,-117.98C743.28,-109.05 754.53,-94.81 763.35,-83.64"/>
<polygon fill="midnightblue" stroke="midnightblue" points="766.33,-85.53 769.78,-75.51 760.83,-81.19 766.33,-85.53"/>
</g>
<!-- Node12 -->
<g id="node12" class="node">
<title>Node12</title>
<g id="a_node12"><a xlink:title=" ">
<polygon fill="white" stroke="#bfbfbf" points="647,-56.5 647,-75.5 716,-75.5 716,-56.5 647,-56.5"/>
<text text-anchor="middle" x="681.5" y="-63.5" font-family="Helvetica,sans-Serif" font-size="10.00">etl/string.h</text>
</a>
</g>
</g>
<!-- Node10&#45;&gt;Node12 -->
<g id="edge15" class="edge">
<title>Node10&#45;&gt;Node12</title>
<path fill="none" stroke="midnightblue" d="M722.62,-117.98C715.35,-108.96 703.7,-94.52 694.66,-83.31"/>
<polygon fill="midnightblue" stroke="midnightblue" points="697.37,-81.09 688.36,-75.51 691.92,-85.49 697.37,-81.09"/>
</g>
<!-- Node13&#45;&gt;Node5 -->
<g id="edge18" class="edge">
<title>Node13&#45;&gt;Node5</title>
<path fill="none" stroke="midnightblue" d="M565.67,-184.7C559.81,-156.57 541.46,-68.46 533.38,-29.66"/>
<polygon fill="midnightblue" stroke="midnightblue" points="536.78,-28.79 531.31,-19.71 529.93,-30.22 536.78,-28.79"/>
</g>
<!-- Node14 -->
<g id="node14" class="node">
<title>Node14</title>
<g id="a_node14"><a xlink:title=" ">
<polygon fill="white" stroke="#bfbfbf" points="595.5,-118 595.5,-137 643.5,-137 643.5,-118 595.5,-118"/>
<text text-anchor="middle" x="619.5" y="-125" font-family="Helvetica,sans-Serif" font-size="10.00">thread</text>
</a>
</g>
</g>
<!-- Node13&#45;&gt;Node14 -->
<g id="edge19" class="edge">
<title>Node13&#45;&gt;Node14</title>
<path fill="none" stroke="midnightblue" d="M574.51,-184.73C582.62,-174.6 596.15,-157.69 606.26,-145.06"/>
<polygon fill="midnightblue" stroke="midnightblue" points="609.08,-147.12 612.6,-137.13 603.62,-142.75 609.08,-147.12"/>
</g>
</g>
</svg>
