<?xml version="1.0" encoding="UTF-8" standalone="no"?>
<!DOCTYPE svg PUBLIC "-//W3C//DTD SVG 1.1//EN"
 "http://www.w3.org/Graphics/SVG/1.1/DTD/svg11.dtd">
<!-- Generated by graphviz version 2.43.0 (0)
 -->
<!-- Title: alps_common_lib/include/alps_cmn/control/motor_angle_controller.hpp Pages: 1 -->
<svg width="796pt" height="357pt"
 viewBox="0.00 0.00 795.50 357.00" xmlns="http://www.w3.org/2000/svg" xmlns:xlink="http://www.w3.org/1999/xlink">
<g id="graph0" class="graph" transform="scale(1 1) rotate(0) translate(4 353)">
<title>alps_common_lib/include/alps_cmn/control/motor_angle_controller.hpp</title>
<!-- Node1 -->
<g id="node1" class="node">
<title>Node1</title>
<g id="a_node1"><a xlink:title=" ">
<polygon fill="#999999" stroke="#666666" points="270.5,-349 130.5,-349 130.5,-308 270.5,-308 270.5,-349"/>
<text text-anchor="start" x="138.5" y="-337" font-family="Helvetica,sans-Serif" font-size="10.00">alps_common_lib/include</text>
<text text-anchor="start" x="138.5" y="-326" font-family="Helvetica,sans-Serif" font-size="10.00">/alps_cmn/control/motor</text>
<text text-anchor="middle" x="200.5" y="-315" font-family="Helvetica,sans-Serif" font-size="10.00">_angle_controller.hpp</text>
</a>
</g>
</g>
<!-- Node2 -->
<g id="node2" class="node">
<title>Node2</title>
<g id="a_node2"><a xlink:href="i__motor_8hpp.html" target="_top" xlink:title=" ">
<polygon fill="white" stroke="#666666" points="113,-272 0,-272 0,-242 113,-242 113,-272"/>
<text text-anchor="start" x="8" y="-260" font-family="Helvetica,sans-Serif" font-size="10.00">alps_cmn/actuator/i</text>
<text text-anchor="middle" x="56.5" y="-249" font-family="Helvetica,sans-Serif" font-size="10.00">_motor.hpp</text>
</a>
</g>
</g>
<!-- Node1&#45;&gt;Node2 -->
<g id="edge1" class="edge">
<title>Node1&#45;&gt;Node2</title>
<path fill="none" stroke="#63b8ff" d="M160,-307.96C139.61,-298.11 115.01,-286.24 94.92,-276.54"/>
<polygon fill="#63b8ff" stroke="#63b8ff" points="96.27,-273.31 85.74,-272.11 93.23,-279.61 96.27,-273.31"/>
</g>
<!-- Node3 -->
<g id="node3" class="node">
<title>Node3</title>
<g id="a_node3"><a xlink:href="pid_8hpp.html" target="_top" xlink:title=" ">
<polygon fill="white" stroke="#666666" points="270,-266.5 131,-266.5 131,-247.5 270,-247.5 270,-266.5"/>
<text text-anchor="middle" x="200.5" y="-254.5" font-family="Helvetica,sans-Serif" font-size="10.00">alps_cmn/control/pid.hpp</text>
</a>
</g>
</g>
<!-- Node1&#45;&gt;Node3 -->
<g id="edge2" class="edge">
<title>Node1&#45;&gt;Node3</title>
<path fill="none" stroke="#63b8ff" d="M200.5,-307.77C200.5,-298.08 200.5,-286.46 200.5,-276.88"/>
<polygon fill="#63b8ff" stroke="#63b8ff" points="204,-276.82 200.5,-266.82 197,-276.82 204,-276.82"/>
</g>
<!-- Node14 -->
<g id="node14" class="node">
<title>Node14</title>
<g id="a_node14"><a xlink:href="i__rotary__sensor_8hpp.html" target="_top" xlink:title=" ">
<polygon fill="white" stroke="#666666" points="427,-272 288,-272 288,-242 427,-242 427,-272"/>
<text text-anchor="start" x="296" y="-260" font-family="Helvetica,sans-Serif" font-size="10.00">alps_cmn/sensor/i_rotary</text>
<text text-anchor="middle" x="357.5" y="-249" font-family="Helvetica,sans-Serif" font-size="10.00">_sensor.hpp</text>
</a>
</g>
</g>
<!-- Node1&#45;&gt;Node14 -->
<g id="edge22" class="edge">
<title>Node1&#45;&gt;Node14</title>
<path fill="none" stroke="#63b8ff" d="M244.65,-307.96C267.09,-298.02 294.19,-286.03 316.21,-276.28"/>
<polygon fill="#63b8ff" stroke="#63b8ff" points="317.89,-279.36 325.62,-272.11 315.06,-272.96 317.89,-279.36"/>
</g>
<!-- Node4 -->
<g id="node4" class="node">
<title>Node4</title>
<g id="a_node4"><a xlink:title=" ">
<polygon fill="#e0e0e0" stroke="#999999" points="525.5,-19 475.5,-19 475.5,0 525.5,0 525.5,-19"/>
<text text-anchor="middle" x="500.5" y="-7" font-family="Helvetica,sans-Serif" font-size="10.00">chrono</text>
</a>
</g>
</g>
<!-- Node3&#45;&gt;Node4 -->
<g id="edge3" class="edge">
<title>Node3&#45;&gt;Node4</title>
<path fill="none" stroke="#63b8ff" d="M165.91,-247.43C131.31,-238.07 81.66,-222.25 70.5,-206 62.95,-195.01 65.13,-188.2 70.5,-176 136.88,-25.1 375.06,-9.9 465.41,-9.71"/>
<polygon fill="#63b8ff" stroke="#63b8ff" points="465.41,-13.21 475.43,-9.75 465.44,-6.21 465.41,-13.21"/>
</g>
<!-- Node5 -->
<g id="node5" class="node">
<title>Node5</title>
<g id="a_node5"><a xlink:title=" ">
<polygon fill="#e0e0e0" stroke="#999999" points="127,-200.5 80,-200.5 80,-181.5 127,-181.5 127,-200.5"/>
<text text-anchor="middle" x="103.5" y="-188.5" font-family="Helvetica,sans-Serif" font-size="10.00">cmath</text>
</a>
</g>
</g>
<!-- Node3&#45;&gt;Node5 -->
<g id="edge4" class="edge">
<title>Node3&#45;&gt;Node5</title>
<path fill="none" stroke="#63b8ff" d="M187.42,-247.37C171.44,-236.82 144.17,-218.84 125.07,-206.23"/>
<polygon fill="#63b8ff" stroke="#63b8ff" points="126.96,-203.28 116.68,-200.7 123.1,-209.13 126.96,-203.28"/>
</g>
<!-- Node6 -->
<g id="node6" class="node">
<title>Node6</title>
<g id="a_node6"><a xlink:title=" ">
<polygon fill="#e0e0e0" stroke="#999999" points="195.5,-134.5 151.5,-134.5 151.5,-115.5 195.5,-115.5 195.5,-134.5"/>
<text text-anchor="middle" x="173.5" y="-122.5" font-family="Helvetica,sans-Serif" font-size="10.00">limits</text>
</a>
</g>
</g>
<!-- Node3&#45;&gt;Node6 -->
<g id="edge5" class="edge">
<title>Node3&#45;&gt;Node6</title>
<path fill="none" stroke="#63b8ff" d="M194.35,-247.3C187.98,-237.71 178.41,-221.56 174.5,-206 169.38,-185.62 169.96,-161.39 171.3,-144.98"/>
<polygon fill="#63b8ff" stroke="#63b8ff" points="174.82,-144.87 172.33,-134.57 167.86,-144.18 174.82,-144.87"/>
</g>
<!-- Node7 -->
<g id="node7" class="node">
<title>Node7</title>
<g id="a_node7"><a xlink:href="integrator_8hpp.html" target="_top" xlink:title="積分器ライブラリ">
<polygon fill="white" stroke="#666666" points="499.5,-200.5 327.5,-200.5 327.5,-181.5 499.5,-181.5 499.5,-200.5"/>
<text text-anchor="middle" x="413.5" y="-188.5" font-family="Helvetica,sans-Serif" font-size="10.00">alps_cmn/control/integrator.hpp</text>
</a>
</g>
</g>
<!-- Node3&#45;&gt;Node7 -->
<g id="edge6" class="edge">
<title>Node3&#45;&gt;Node7</title>
<path fill="none" stroke="#63b8ff" d="M229.23,-247.37C266.97,-236.03 333.36,-216.08 375.3,-203.48"/>
<polygon fill="#63b8ff" stroke="#63b8ff" points="376.32,-206.83 384.89,-200.6 374.31,-200.12 376.32,-206.83"/>
</g>
<!-- Node10 -->
<g id="node10" class="node">
<title>Node10</title>
<g id="a_node10"><a xlink:href="low__pass__differentiator_8hpp.html" target="_top" xlink:title=" ">
<polygon fill="white" stroke="#666666" points="653,-206 518,-206 518,-176 653,-176 653,-206"/>
<text text-anchor="start" x="526" y="-194" font-family="Helvetica,sans-Serif" font-size="10.00">alps_cmn/control/low</text>
<text text-anchor="middle" x="585.5" y="-183" font-family="Helvetica,sans-Serif" font-size="10.00">_pass_differentiator.hpp</text>
</a>
</g>
</g>
<!-- Node3&#45;&gt;Node10 -->
<g id="edge12" class="edge">
<title>Node3&#45;&gt;Node10</title>
<path fill="none" stroke="#63b8ff" d="M247.08,-247.46C257.42,-245.62 268.32,-243.71 278.5,-242 377.45,-225.38 404.84,-223.37 508.02,-206.05"/>
<polygon fill="#63b8ff" stroke="#63b8ff" points="508.63,-209.5 517.91,-204.39 507.47,-202.6 508.63,-209.5"/>
</g>
<!-- Node13 -->
<g id="node13" class="node">
<title>Node13</title>
<g id="a_node13"><a xlink:href="numeric__range_8hpp.html" target="_top" xlink:title="数値の範囲を扱うクラス">
<polygon fill="white" stroke="#666666" points="309,-206 184,-206 184,-176 309,-176 309,-206"/>
<text text-anchor="start" x="192" y="-194" font-family="Helvetica,sans-Serif" font-size="10.00">alps_cmn/util/numeric</text>
<text text-anchor="middle" x="246.5" y="-183" font-family="Helvetica,sans-Serif" font-size="10.00">_range.hpp</text>
</a>
</g>
</g>
<!-- Node3&#45;&gt;Node13 -->
<g id="edge19" class="edge">
<title>Node3&#45;&gt;Node13</title>
<path fill="none" stroke="#63b8ff" d="M206.7,-247.37C212.72,-238.99 222.12,-225.93 230.27,-214.59"/>
<polygon fill="#63b8ff" stroke="#63b8ff" points="233.18,-216.52 236.18,-206.36 227.5,-212.44 233.18,-216.52"/>
</g>
<!-- Node7&#45;&gt;Node4 -->
<g id="edge7" class="edge">
<title>Node7&#45;&gt;Node4</title>
<path fill="none" stroke="#63b8ff" d="M410.71,-181.27C403.99,-158.49 389.25,-96.15 414.5,-55 425.68,-36.78 446.97,-25.68 465.57,-19.13"/>
<polygon fill="#63b8ff" stroke="#63b8ff" points="466.81,-22.4 475.26,-16.02 464.67,-15.74 466.81,-22.4"/>
</g>
<!-- Node7&#45;&gt;Node6 -->
<g id="edge8" class="edge">
<title>Node7&#45;&gt;Node6</title>
<path fill="none" stroke="#63b8ff" d="M366.71,-181.45C323.87,-173 259.04,-158.65 204.5,-140 203.1,-139.52 201.68,-139 200.26,-138.46"/>
<polygon fill="#63b8ff" stroke="#63b8ff" points="201.55,-135.2 190.97,-134.59 198.85,-141.67 201.55,-135.2"/>
</g>
<!-- Node8 -->
<g id="node8" class="node">
<title>Node8</title>
<g id="a_node8"><a xlink:href="algorithm_8hpp.html" target="_top" xlink:title=" ">
<polygon fill="white" stroke="#666666" points="367,-134.5 214,-134.5 214,-115.5 367,-115.5 367,-134.5"/>
<text text-anchor="middle" x="290.5" y="-122.5" font-family="Helvetica,sans-Serif" font-size="10.00">alps_cmn/util/algorithm.hpp</text>
</a>
</g>
</g>
<!-- Node7&#45;&gt;Node8 -->
<g id="edge9" class="edge">
<title>Node7&#45;&gt;Node8</title>
<path fill="none" stroke="#63b8ff" d="M396.91,-181.37C376.19,-170.59 340.5,-152.02 316.22,-139.38"/>
<polygon fill="#63b8ff" stroke="#63b8ff" points="317.7,-136.21 307.22,-134.7 314.47,-142.42 317.7,-136.21"/>
</g>
<!-- Node9 -->
<g id="node9" class="node">
<title>Node9</title>
<g id="a_node9"><a xlink:href="duration_8hpp.html" target="_top" xlink:title="時間間隔の型エイリアス">
<polygon fill="white" stroke="#666666" points="577,-74 424,-74 424,-55 577,-55 577,-74"/>
<text text-anchor="middle" x="500.5" y="-62" font-family="Helvetica,sans-Serif" font-size="10.00">alps_cmn/time/duration.hpp</text>
</a>
</g>
</g>
<!-- Node7&#45;&gt;Node9 -->
<g id="edge10" class="edge">
<title>Node7&#45;&gt;Node9</title>
<path fill="none" stroke="#63b8ff" d="M416.45,-181.49C422,-166.22 435.01,-133.58 452.5,-110 460.67,-98.99 471.8,-88.47 481.29,-80.43"/>
<polygon fill="#63b8ff" stroke="#63b8ff" points="483.56,-83.09 489.09,-74.05 479.13,-77.67 483.56,-83.09"/>
</g>
<!-- Node9&#45;&gt;Node4 -->
<g id="edge11" class="edge">
<title>Node9&#45;&gt;Node4</title>
<path fill="none" stroke="#63b8ff" d="M500.5,-54.75C500.5,-47.8 500.5,-37.85 500.5,-29.13"/>
<polygon fill="#63b8ff" stroke="#63b8ff" points="504,-29.09 500.5,-19.09 497,-29.09 504,-29.09"/>
</g>
<!-- Node11 -->
<g id="node11" class="node">
<title>Node11</title>
<g id="a_node11"><a xlink:href="differentiator_8hpp.html" target="_top" xlink:title="微分器ライブラリ">
<polygon fill="white" stroke="#666666" points="787.5,-134.5 599.5,-134.5 599.5,-115.5 787.5,-115.5 787.5,-134.5"/>
<text text-anchor="middle" x="693.5" y="-122.5" font-family="Helvetica,sans-Serif" font-size="10.00">alps_cmn/control/differentiator.hpp</text>
</a>
</g>
</g>
<!-- Node10&#45;&gt;Node11 -->
<g id="edge13" class="edge">
<title>Node10&#45;&gt;Node11</title>
<path fill="none" stroke="#63b8ff" d="M609.2,-175.95C627.39,-165.18 652.36,-150.38 670.4,-139.69"/>
<polygon fill="#63b8ff" stroke="#63b8ff" points="672.31,-142.63 679.13,-134.52 668.74,-136.6 672.31,-142.63"/>
</g>
<!-- Node12 -->
<g id="node12" class="node">
<title>Node12</title>
<g id="a_node12"><a xlink:href="low__pass__filter_8hpp.html" target="_top" xlink:title="ローパスフィルタのクラス">
<polygon fill="white" stroke="#666666" points="581.5,-140 461.5,-140 461.5,-110 581.5,-110 581.5,-140"/>
<text text-anchor="start" x="469.5" y="-128" font-family="Helvetica,sans-Serif" font-size="10.00">alps_cmn/control/low</text>
<text text-anchor="middle" x="521.5" y="-117" font-family="Helvetica,sans-Serif" font-size="10.00">_pass_filter.hpp</text>
</a>
</g>
</g>
<!-- Node10&#45;&gt;Node12 -->
<g id="edge16" class="edge">
<title>Node10&#45;&gt;Node12</title>
<path fill="none" stroke="#63b8ff" d="M571.3,-175.8C562.93,-167.43 552.18,-156.68 542.81,-147.31"/>
<polygon fill="#63b8ff" stroke="#63b8ff" points="545.21,-144.76 535.66,-140.16 540.26,-149.71 545.21,-144.76"/>
</g>
<!-- Node11&#45;&gt;Node4 -->
<g id="edge14" class="edge">
<title>Node11&#45;&gt;Node4</title>
<path fill="none" stroke="#63b8ff" d="M683.55,-115.32C667.23,-101.38 633.38,-73.65 601.5,-55 579.75,-42.28 553.7,-30.89 533.5,-22.81"/>
<polygon fill="#63b8ff" stroke="#63b8ff" points="534.69,-19.52 524.1,-19.13 532.13,-26.04 534.69,-19.52"/>
</g>
<!-- Node11&#45;&gt;Node9 -->
<g id="edge15" class="edge">
<title>Node11&#45;&gt;Node9</title>
<path fill="none" stroke="#63b8ff" d="M665.44,-115.49C631.99,-105.36 575.94,-88.37 538.6,-77.05"/>
<polygon fill="#63b8ff" stroke="#63b8ff" points="539.18,-73.57 528.6,-74.02 537.15,-80.27 539.18,-73.57"/>
</g>
<!-- Node12&#45;&gt;Node4 -->
<g id="edge17" class="edge">
<title>Node12&#45;&gt;Node4</title>
<path fill="none" stroke="#63b8ff" d="M550.53,-109.87C573.06,-96.86 598.44,-76.39 585.5,-55 574.61,-37 553.77,-25.93 535.46,-19.33"/>
<polygon fill="#63b8ff" stroke="#63b8ff" points="536.49,-15.99 525.9,-16.2 534.31,-22.64 536.49,-15.99"/>
</g>
<!-- Node12&#45;&gt;Node9 -->
<g id="edge18" class="edge">
<title>Node12&#45;&gt;Node9</title>
<path fill="none" stroke="#63b8ff" d="M516.42,-109.84C513.62,-102.04 510.11,-92.27 507.1,-83.89"/>
<polygon fill="#63b8ff" stroke="#63b8ff" points="510.32,-82.5 503.65,-74.27 503.73,-84.86 510.32,-82.5"/>
</g>
<!-- Node13&#45;&gt;Node6 -->
<g id="edge20" class="edge">
<title>Node13&#45;&gt;Node6</title>
<path fill="none" stroke="#63b8ff" d="M230.3,-175.8C218.7,-165.62 203.08,-151.93 191.16,-141.48"/>
<polygon fill="#63b8ff" stroke="#63b8ff" points="193.41,-138.8 183.59,-134.84 188.8,-144.07 193.41,-138.8"/>
</g>
<!-- Node13&#45;&gt;Node8 -->
<g id="edge21" class="edge">
<title>Node13&#45;&gt;Node8</title>
<path fill="none" stroke="#63b8ff" d="M256.27,-175.8C262.86,-166.21 271.59,-153.5 278.59,-143.32"/>
<polygon fill="#63b8ff" stroke="#63b8ff" points="281.64,-145.07 284.42,-134.84 275.87,-141.1 281.64,-145.07"/>
</g>
</g>
</svg>
