<?xml version="1.0" encoding="UTF-8" standalone="no"?>
<!DOCTYPE svg PUBLIC "-//W3C//DTD SVG 1.1//EN"
 "http://www.w3.org/Graphics/SVG/1.1/DTD/svg11.dtd">
<!-- Generated by graphviz version 2.43.0 (0)
 -->
<!-- Title: alps_core/lib_internal/alps_common_lib/include/alps_cmn/control/moving_average.hpp Pages: 1 -->
<svg width="358pt" height="115pt"
 viewBox="0.00 0.00 358.00 115.00" xmlns="http://www.w3.org/2000/svg" xmlns:xlink="http://www.w3.org/1999/xlink">
<g id="graph0" class="graph" transform="scale(1 1) rotate(0) translate(4 111)">
<title>alps_core/lib_internal/alps_common_lib/include/alps_cmn/control/moving_average.hpp</title>
<!-- Node1 -->
<g id="Node000001" class="node">
<title>Node1</title>
<g id="a_Node000001"><a xlink:title=" ">
<polygon fill="#999999" stroke="#666666" points="216.5,-107 73.5,-107 73.5,-55 216.5,-55 216.5,-107"/>
<text text-anchor="start" x="81.5" y="-95" font-family="Helvetica,sans-Serif" font-size="10.00">alps_core/lib_internal</text>
<text text-anchor="start" x="81.5" y="-84" font-family="Helvetica,sans-Serif" font-size="10.00">/alps_common_lib/include</text>
<text text-anchor="start" x="81.5" y="-73" font-family="Helvetica,sans-Serif" font-size="10.00">/alps_cmn/control/moving</text>
<text text-anchor="middle" x="145" y="-62" font-family="Helvetica,sans-Serif" font-size="10.00">_average.hpp</text>
</a>
</g>
</g>
<!-- Node2 -->
<g id="Node000002" class="node">
<title>Node2</title>
<g id="a_Node000002"><a xlink:title=" ">
<polygon fill="#e0e0e0" stroke="#999999" points="50,-19 0,-19 0,0 50,0 50,-19"/>
<text text-anchor="middle" x="25" y="-7" font-family="Helvetica,sans-Serif" font-size="10.00">cstdint</text>
</a>
</g>
</g>
<!-- Node1&#45;&gt;Node2 -->
<g id="edge1_Node000001_Node000002" class="edge">
<title>Node1&#45;&gt;Node2</title>
<g id="a_edge1_Node000001_Node000002"><a xlink:title=" ">
<path fill="none" stroke="#63b8ff" d="M101.68,-54.91C83.78,-44.54 63.72,-32.93 48.61,-24.18"/>
<polygon fill="#63b8ff" stroke="#63b8ff" points="50.32,-21.12 39.91,-19.14 46.81,-27.18 50.32,-21.12"/>
</a>
</g>
</g>
<!-- Node3 -->
<g id="Node000003" class="node">
<title>Node3</title>
<g id="a_Node000003"><a xlink:href="algorithm_8hpp.html" target="_top" xlink:title=" ">
<polygon fill="white" stroke="#666666" points="221.5,-19 68.5,-19 68.5,0 221.5,0 221.5,-19"/>
<text text-anchor="middle" x="145" y="-7" font-family="Helvetica,sans-Serif" font-size="10.00">alps_cmn/util/algorithm.hpp</text>
</a>
</g>
</g>
<!-- Node1&#45;&gt;Node3 -->
<g id="edge2_Node000001_Node000003" class="edge">
<title>Node1&#45;&gt;Node3</title>
<g id="a_edge2_Node000001_Node000003"><a xlink:title=" ">
<path fill="none" stroke="#63b8ff" d="M145,-54.91C145,-46.55 145,-37.38 145,-29.55"/>
<polygon fill="#63b8ff" stroke="#63b8ff" points="148.5,-29.3 145,-19.3 141.5,-29.3 148.5,-29.3"/>
</a>
</g>
</g>
<!-- Node4 -->
<g id="Node000004" class="node">
<title>Node4</title>
<g id="a_Node000004"><a xlink:title=" ">
<polygon fill="#e0e0e0" stroke="#999999" points="350,-19 240,-19 240,0 350,0 350,-19"/>
<text text-anchor="middle" x="295" y="-7" font-family="Helvetica,sans-Serif" font-size="10.00">etl/circular_buffer.h</text>
</a>
</g>
</g>
<!-- Node1&#45;&gt;Node4 -->
<g id="edge3_Node000001_Node000004" class="edge">
<title>Node1&#45;&gt;Node4</title>
<g id="a_edge3_Node000001_Node000004"><a xlink:title=" ">
<path fill="none" stroke="#63b8ff" d="M199.15,-54.91C222.16,-44.25 248.02,-32.27 267.07,-23.44"/>
<polygon fill="#63b8ff" stroke="#63b8ff" points="268.76,-26.52 276.36,-19.14 265.82,-20.16 268.76,-26.52"/>
</a>
</g>
</g>
</g>
</svg>
