<?xml version="1.0" encoding="UTF-8" standalone="no"?>
<!DOCTYPE svg PUBLIC "-//W3C//DTD SVG 1.1//EN"
 "http://www.w3.org/Graphics/SVG/1.1/DTD/svg11.dtd">
<!-- Generated by graphviz version 2.43.0 (0)
 -->
<!-- Title: alps_common_lib/include/alps_cmn/util/numeric_range.hpp Pages: 1 -->
<svg width="457pt" height="284pt"
 viewBox="0.00 0.00 456.50 284.00" xmlns="http://www.w3.org/2000/svg" xmlns:xlink="http://www.w3.org/1999/xlink">
<g id="graph0" class="graph" transform="scale(1 1) rotate(0) translate(4 280)">
<title>alps_common_lib/include/alps_cmn/util/numeric_range.hpp</title>
<polygon fill="white" stroke="transparent" points="-4,4 -4,-280 452.5,-280 452.5,4 -4,4"/>
<!-- Node1 -->
<g id="node1" class="node">
<title>Node1</title>
<g id="a_node1"><a xlink:title="数値の範囲を扱うクラス">
<polygon fill="#bfbfbf" stroke="black" points="117.5,-234.5 117.5,-275.5 257.5,-275.5 257.5,-234.5 117.5,-234.5"/>
<text text-anchor="start" x="125.5" y="-263.5" font-family="Helvetica,sans-Serif" font-size="10.00">alps_common_lib/include</text>
<text text-anchor="start" x="125.5" y="-252.5" font-family="Helvetica,sans-Serif" font-size="10.00">/alps_cmn/util/numeric</text>
<text text-anchor="middle" x="187.5" y="-241.5" font-family="Helvetica,sans-Serif" font-size="10.00">_range.hpp</text>
</a>
</g>
</g>
<!-- Node2 -->
<g id="node2" class="node">
<title>Node2</title>
<g id="a_node2"><a xlink:href="output__change__limit__motor__decorator_8hpp.html" target="_top" xlink:title="出力変化制限を掛けるモーターデコレータ">
<polygon fill="white" stroke="black" points="0,-156.5 0,-197.5 191,-197.5 191,-156.5 0,-156.5"/>
<text text-anchor="start" x="8" y="-185.5" font-family="Helvetica,sans-Serif" font-size="10.00">alps_common_lib/include</text>
<text text-anchor="start" x="8" y="-174.5" font-family="Helvetica,sans-Serif" font-size="10.00">/alps_cmn/actuator/output</text>
<text text-anchor="middle" x="95.5" y="-163.5" font-family="Helvetica,sans-Serif" font-size="10.00">_change_limit_motor_decorator.hpp</text>
</a>
</g>
</g>
<!-- Node1&#45;&gt;Node2 -->
<g id="edge1" class="edge">
<title>Node1&#45;&gt;Node2</title>
<path fill="none" stroke="midnightblue" d="M155.76,-227.78C143.73,-217.84 130.26,-206.72 119.11,-197.51"/>
<polygon fill="midnightblue" stroke="midnightblue" points="153.87,-230.76 163.81,-234.43 158.33,-225.36 153.87,-230.76"/>
</g>
<!-- Node3 -->
<g id="node3" class="node">
<title>Node3</title>
<g id="a_node3"><a xlink:href="pid_8hpp.html" target="_top" xlink:title=" ">
<polygon fill="white" stroke="black" points="209.5,-162 209.5,-192 351.5,-192 351.5,-162 209.5,-162"/>
<text text-anchor="start" x="217.5" y="-180" font-family="Helvetica,sans-Serif" font-size="10.00">alps_common_lib/include</text>
<text text-anchor="middle" x="280.5" y="-169" font-family="Helvetica,sans-Serif" font-size="10.00">/alps_cmn/control/pid.hpp</text>
</a>
</g>
</g>
<!-- Node1&#45;&gt;Node3 -->
<g id="edge2" class="edge">
<title>Node1&#45;&gt;Node3</title>
<path fill="none" stroke="midnightblue" d="M219.33,-227.99C233.98,-216.02 250.8,-202.27 263.09,-192.23"/>
<polygon fill="midnightblue" stroke="midnightblue" points="216.98,-225.39 211.45,-234.43 221.41,-230.81 216.98,-225.39"/>
</g>
<!-- Node4 -->
<g id="node4" class="node">
<title>Node4</title>
<g id="a_node4"><a xlink:href="motor__angle__controller_8hpp.html" target="_top" xlink:title=" ">
<polygon fill="white" stroke="black" points="112.5,-78.5 112.5,-119.5 252.5,-119.5 252.5,-78.5 112.5,-78.5"/>
<text text-anchor="start" x="120.5" y="-107.5" font-family="Helvetica,sans-Serif" font-size="10.00">alps_common_lib/include</text>
<text text-anchor="start" x="120.5" y="-96.5" font-family="Helvetica,sans-Serif" font-size="10.00">/alps_cmn/control/motor</text>
<text text-anchor="middle" x="182.5" y="-85.5" font-family="Helvetica,sans-Serif" font-size="10.00">_angle_controller.hpp</text>
</a>
</g>
</g>
<!-- Node3&#45;&gt;Node4 -->
<g id="edge3" class="edge">
<title>Node3&#45;&gt;Node4</title>
<path fill="none" stroke="midnightblue" d="M254.05,-155.49C239.7,-144.36 222.06,-130.68 207.88,-119.68"/>
<polygon fill="midnightblue" stroke="midnightblue" points="252.02,-158.34 262.07,-161.7 256.31,-152.81 252.02,-158.34"/>
</g>
<!-- Node5 -->
<g id="node5" class="node">
<title>Node5</title>
<g id="a_node5"><a xlink:href="motor__angle__velocity__controller_8hpp.html" target="_top" xlink:title=" ">
<polygon fill="white" stroke="black" points="198,-0.5 198,-41.5 363,-41.5 363,-0.5 198,-0.5"/>
<text text-anchor="start" x="206" y="-29.5" font-family="Helvetica,sans-Serif" font-size="10.00">alps_common_lib/include</text>
<text text-anchor="start" x="206" y="-18.5" font-family="Helvetica,sans-Serif" font-size="10.00">/alps_cmn/control/motor</text>
<text text-anchor="middle" x="280.5" y="-7.5" font-family="Helvetica,sans-Serif" font-size="10.00">_angle_velocity_controller.hpp</text>
</a>
</g>
</g>
<!-- Node3&#45;&gt;Node5 -->
<g id="edge5" class="edge">
<title>Node3&#45;&gt;Node5</title>
<path fill="none" stroke="midnightblue" d="M280.5,-151.61C280.5,-121.17 280.5,-69.73 280.5,-41.68"/>
<polygon fill="midnightblue" stroke="midnightblue" points="277,-151.79 280.5,-161.79 284,-151.79 277,-151.79"/>
</g>
<!-- Node6 -->
<g id="node6" class="node">
<title>Node6</title>
<g id="a_node6"><a xlink:href="motor__velocity__controller_8hpp.html" target="_top" xlink:title=" ">
<polygon fill="white" stroke="black" points="308.5,-78.5 308.5,-119.5 448.5,-119.5 448.5,-78.5 308.5,-78.5"/>
<text text-anchor="start" x="316.5" y="-107.5" font-family="Helvetica,sans-Serif" font-size="10.00">alps_common_lib/include</text>
<text text-anchor="start" x="316.5" y="-96.5" font-family="Helvetica,sans-Serif" font-size="10.00">/alps_cmn/control/motor</text>
<text text-anchor="middle" x="378.5" y="-85.5" font-family="Helvetica,sans-Serif" font-size="10.00">_velocity_controller.hpp</text>
</a>
</g>
</g>
<!-- Node3&#45;&gt;Node6 -->
<g id="edge6" class="edge">
<title>Node3&#45;&gt;Node6</title>
<path fill="none" stroke="midnightblue" d="M306.95,-155.49C321.3,-144.36 338.94,-130.68 353.12,-119.68"/>
<polygon fill="midnightblue" stroke="midnightblue" points="304.69,-152.81 298.93,-161.7 308.98,-158.34 304.69,-152.81"/>
</g>
<!-- Node4&#45;&gt;Node5 -->
<g id="edge4" class="edge">
<title>Node4&#45;&gt;Node5</title>
<path fill="none" stroke="midnightblue" d="M215.94,-72.06C228.85,-62.06 243.36,-50.8 255.35,-41.51"/>
<polygon fill="midnightblue" stroke="midnightblue" points="213.49,-69.53 207.74,-78.43 217.78,-75.07 213.49,-69.53"/>
</g>
<!-- Node6&#45;&gt;Node5 -->
<g id="edge7" class="edge">
<title>Node6&#45;&gt;Node5</title>
<path fill="none" stroke="midnightblue" d="M345.06,-72.06C332.15,-62.06 317.64,-50.8 305.65,-41.51"/>
<polygon fill="midnightblue" stroke="midnightblue" points="343.22,-75.07 353.26,-78.43 347.51,-69.53 343.22,-75.07"/>
</g>
</g>
</svg>
