<?xml version="1.0" encoding="UTF-8" standalone="no"?>
<!DOCTYPE svg PUBLIC "-//W3C//DTD SVG 1.1//EN"
 "http://www.w3.org/Graphics/SVG/1.1/DTD/svg11.dtd">
<!-- Generated by graphviz version 2.43.0 (0)
 -->
<!-- Title: alps_core/lib_internal/alps_common_lib/include/alps_cmn/util/numeric_range.hpp Pages: 1 -->
<svg width="716pt" height="317pt"
 viewBox="0.00 0.00 715.50 317.00" xmlns="http://www.w3.org/2000/svg" xmlns:xlink="http://www.w3.org/1999/xlink">
<g id="graph0" class="graph" transform="scale(1 1) rotate(0) translate(4 313)">
<title>alps_core/lib_internal/alps_common_lib/include/alps_cmn/util/numeric_range.hpp</title>
<polygon fill="white" stroke="transparent" points="-4,4 -4,-313 711.5,-313 711.5,4 -4,4"/>
<!-- Node1 -->
<g id="node1" class="node">
<title>Node1</title>
<g id="a_node1"><a xlink:title="数値の範囲を扱うクラス">
<polygon fill="#bfbfbf" stroke="black" points="86.5,-267.5 86.5,-308.5 268.5,-308.5 268.5,-267.5 86.5,-267.5"/>
<text text-anchor="start" x="94.5" y="-296.5" font-family="Helvetica,sans-Serif" font-size="10.00">alps_core/lib_internal</text>
<text text-anchor="start" x="94.5" y="-285.5" font-family="Helvetica,sans-Serif" font-size="10.00">/alps_common_lib/include</text>
<text text-anchor="middle" x="177.5" y="-274.5" font-family="Helvetica,sans-Serif" font-size="10.00">/alps_cmn/util/numeric_range.hpp</text>
</a>
</g>
</g>
<!-- Node2 -->
<g id="node2" class="node">
<title>Node2</title>
<g id="a_node2"><a xlink:href="output__change__limit__motor__decorator_8hpp.html" target="_top" xlink:title="出力変化制限を掛けるモーターデコレータ">
<polygon fill="white" stroke="black" points="0,-89.5 0,-141.5 191,-141.5 191,-89.5 0,-89.5"/>
<text text-anchor="start" x="8" y="-129.5" font-family="Helvetica,sans-Serif" font-size="10.00">alps_core/lib_internal</text>
<text text-anchor="start" x="8" y="-118.5" font-family="Helvetica,sans-Serif" font-size="10.00">/alps_common_lib/include</text>
<text text-anchor="start" x="8" y="-107.5" font-family="Helvetica,sans-Serif" font-size="10.00">/alps_cmn/actuator/output</text>
<text text-anchor="middle" x="95.5" y="-96.5" font-family="Helvetica,sans-Serif" font-size="10.00">_change_limit_motor_decorator.hpp</text>
</a>
</g>
</g>
<!-- Node1&#45;&gt;Node2 -->
<g id="edge1" class="edge">
<title>Node1&#45;&gt;Node2</title>
<path fill="none" stroke="midnightblue" d="M125.24,-261.75C113.75,-253.6 103.07,-243.4 96.5,-231 81.79,-203.25 84.86,-166.14 89.36,-141.79"/>
<polygon fill="midnightblue" stroke="midnightblue" points="123.42,-264.74 133.69,-267.31 127.27,-258.89 123.42,-264.74"/>
</g>
<!-- Node3 -->
<g id="node3" class="node">
<title>Node3</title>
<g id="a_node3"><a xlink:href="change__rate__limiter_8hpp.html" target="_top" xlink:title="時間あたりの変化量に制限をかけるクラス">
<polygon fill="white" stroke="black" points="106,-178.5 106,-230.5 249,-230.5 249,-178.5 106,-178.5"/>
<text text-anchor="start" x="114" y="-218.5" font-family="Helvetica,sans-Serif" font-size="10.00">alps_core/lib_internal</text>
<text text-anchor="start" x="114" y="-207.5" font-family="Helvetica,sans-Serif" font-size="10.00">/alps_common_lib/include</text>
<text text-anchor="start" x="114" y="-196.5" font-family="Helvetica,sans-Serif" font-size="10.00">/alps_cmn/control/change</text>
<text text-anchor="middle" x="177.5" y="-185.5" font-family="Helvetica,sans-Serif" font-size="10.00">_rate_limiter.hpp</text>
</a>
</g>
</g>
<!-- Node1&#45;&gt;Node3 -->
<g id="edge2" class="edge">
<title>Node1&#45;&gt;Node3</title>
<path fill="none" stroke="midnightblue" d="M177.5,-257.12C177.5,-248.41 177.5,-238.99 177.5,-230.61"/>
<polygon fill="midnightblue" stroke="midnightblue" points="174,-257.27 177.5,-267.27 181,-257.27 174,-257.27"/>
</g>
<!-- Node4 -->
<g id="node4" class="node">
<title>Node4</title>
<g id="a_node4"><a xlink:href="pid_8hpp.html" target="_top" xlink:title=" ">
<polygon fill="white" stroke="black" points="267,-184 267,-225 410,-225 410,-184 267,-184"/>
<text text-anchor="start" x="275" y="-213" font-family="Helvetica,sans-Serif" font-size="10.00">alps_core/lib_internal</text>
<text text-anchor="start" x="275" y="-202" font-family="Helvetica,sans-Serif" font-size="10.00">/alps_common_lib/include</text>
<text text-anchor="middle" x="338.5" y="-191" font-family="Helvetica,sans-Serif" font-size="10.00">/alps_cmn/control/pid.hpp</text>
</a>
</g>
</g>
<!-- Node1&#45;&gt;Node4 -->
<g id="edge4" class="edge">
<title>Node1&#45;&gt;Node4</title>
<path fill="none" stroke="midnightblue" d="M225.29,-262.81C249.12,-250.75 277.56,-236.35 299.97,-225"/>
<polygon fill="midnightblue" stroke="midnightblue" points="223.4,-259.84 216.06,-267.48 226.57,-266.08 223.4,-259.84"/>
</g>
<!-- Node3&#45;&gt;Node2 -->
<g id="edge3" class="edge">
<title>Node3&#45;&gt;Node2</title>
<path fill="none" stroke="midnightblue" d="M146.67,-170.79C137.56,-161.13 127.74,-150.71 119.16,-141.61"/>
<polygon fill="midnightblue" stroke="midnightblue" points="144.38,-173.46 153.78,-178.34 149.47,-168.66 144.38,-173.46"/>
</g>
<!-- Node5 -->
<g id="node5" class="node">
<title>Node5</title>
<g id="a_node5"><a xlink:href="motor__angle__controller_8hpp.html" target="_top" xlink:title=" ">
<polygon fill="white" stroke="black" points="257,-89.5 257,-141.5 400,-141.5 400,-89.5 257,-89.5"/>
<text text-anchor="start" x="265" y="-129.5" font-family="Helvetica,sans-Serif" font-size="10.00">alps_core/lib_internal</text>
<text text-anchor="start" x="265" y="-118.5" font-family="Helvetica,sans-Serif" font-size="10.00">/alps_common_lib/include</text>
<text text-anchor="start" x="265" y="-107.5" font-family="Helvetica,sans-Serif" font-size="10.00">/alps_cmn/control/motor</text>
<text text-anchor="middle" x="328.5" y="-96.5" font-family="Helvetica,sans-Serif" font-size="10.00">_angle_controller.hpp</text>
</a>
</g>
</g>
<!-- Node4&#45;&gt;Node5 -->
<g id="edge5" class="edge">
<title>Node4&#45;&gt;Node5</title>
<path fill="none" stroke="midnightblue" d="M335.05,-173.51C333.86,-163.17 332.55,-151.71 331.41,-141.79"/>
<polygon fill="midnightblue" stroke="midnightblue" points="331.61,-174.22 336.23,-183.76 338.57,-173.42 331.61,-174.22"/>
</g>
<!-- Node6 -->
<g id="node6" class="node">
<title>Node6</title>
<g id="a_node6"><a xlink:href="motor__angle__velocity__controller_8hpp.html" target="_top" xlink:title=" ">
<polygon fill="white" stroke="black" points="146,-0.5 146,-52.5 311,-52.5 311,-0.5 146,-0.5"/>
<text text-anchor="start" x="154" y="-40.5" font-family="Helvetica,sans-Serif" font-size="10.00">alps_core/lib_internal</text>
<text text-anchor="start" x="154" y="-29.5" font-family="Helvetica,sans-Serif" font-size="10.00">/alps_common_lib/include</text>
<text text-anchor="start" x="154" y="-18.5" font-family="Helvetica,sans-Serif" font-size="10.00">/alps_cmn/control/motor</text>
<text text-anchor="middle" x="228.5" y="-7.5" font-family="Helvetica,sans-Serif" font-size="10.00">_angle_velocity_controller.hpp</text>
</a>
</g>
</g>
<!-- Node4&#45;&gt;Node6 -->
<g id="edge8" class="edge">
<title>Node4&#45;&gt;Node6</title>
<path fill="none" stroke="midnightblue" d="M286.35,-178.54C271.64,-169.07 257.05,-156.89 247.5,-142 230.2,-115.03 227.06,-77.4 227.16,-52.74"/>
<polygon fill="midnightblue" stroke="midnightblue" points="284.63,-181.59 294.99,-183.81 288.27,-175.61 284.63,-181.59"/>
</g>
<!-- Node8 -->
<g id="node8" class="node">
<title>Node8</title>
<g id="a_node8"><a xlink:href="motor__velocity__controller_8hpp.html" target="_top" xlink:title=" ">
<polygon fill="white" stroke="black" points="418,-89.5 418,-141.5 561,-141.5 561,-89.5 418,-89.5"/>
<text text-anchor="start" x="426" y="-129.5" font-family="Helvetica,sans-Serif" font-size="10.00">alps_core/lib_internal</text>
<text text-anchor="start" x="426" y="-118.5" font-family="Helvetica,sans-Serif" font-size="10.00">/alps_common_lib/include</text>
<text text-anchor="start" x="426" y="-107.5" font-family="Helvetica,sans-Serif" font-size="10.00">/alps_cmn/control/motor</text>
<text text-anchor="middle" x="489.5" y="-96.5" font-family="Helvetica,sans-Serif" font-size="10.00">_velocity_controller.hpp</text>
</a>
</g>
</g>
<!-- Node4&#45;&gt;Node8 -->
<g id="edge9" class="edge">
<title>Node4&#45;&gt;Node8</title>
<path fill="none" stroke="midnightblue" d="M381.1,-178.95C401.37,-167.28 425.57,-153.33 445.96,-141.58"/>
<polygon fill="midnightblue" stroke="midnightblue" points="379.3,-175.95 372.39,-183.98 382.8,-182.02 379.3,-175.95"/>
</g>
<!-- Node9 -->
<g id="node9" class="node">
<title>Node9</title>
<g id="a_node9"><a xlink:href="custom__type__param__conversion__rule_8hpp.html" target="_top" xlink:title=" ">
<polygon fill="white" stroke="black" points="523.5,-0.5 523.5,-52.5 707.5,-52.5 707.5,-0.5 523.5,-0.5"/>
<text text-anchor="start" x="531.5" y="-40.5" font-family="Helvetica,sans-Serif" font-size="10.00">alps_core/lib_internal</text>
<text text-anchor="start" x="531.5" y="-29.5" font-family="Helvetica,sans-Serif" font-size="10.00">/alps_ros2_lib/include</text>
<text text-anchor="start" x="531.5" y="-18.5" font-family="Helvetica,sans-Serif" font-size="10.00">/alps_ros2/type/custom</text>
<text text-anchor="middle" x="615.5" y="-7.5" font-family="Helvetica,sans-Serif" font-size="10.00">_type_param_conversion_rule.hpp</text>
</a>
</g>
</g>
<!-- Node4&#45;&gt;Node9 -->
<g id="edge13" class="edge">
<title>Node4&#45;&gt;Node9</title>
<path fill="none" stroke="midnightblue" d="M420.3,-199.92C469.15,-193.76 529.47,-178.55 570.5,-142 596.5,-118.84 607.63,-78.75 612.29,-52.69"/>
<polygon fill="midnightblue" stroke="midnightblue" points="419.6,-196.48 410.06,-201.11 420.4,-203.44 419.6,-196.48"/>
</g>
<!-- Node5&#45;&gt;Node6 -->
<g id="edge6" class="edge">
<title>Node5&#45;&gt;Node6</title>
<path fill="none" stroke="midnightblue" d="M291.89,-82.65C280.51,-72.75 268.13,-61.98 257.36,-52.61"/>
<polygon fill="midnightblue" stroke="midnightblue" points="289.73,-85.41 299.58,-89.34 294.33,-80.13 289.73,-85.41"/>
</g>
<!-- Node7 -->
<g id="node7" class="node">
<title>Node7</title>
<g id="a_node7"><a xlink:href="custom__type__topic__conversion__rule_8hpp.html" target="_top" xlink:title=" ">
<polygon fill="white" stroke="black" points="329.5,-0.5 329.5,-52.5 505.5,-52.5 505.5,-0.5 329.5,-0.5"/>
<text text-anchor="start" x="337.5" y="-40.5" font-family="Helvetica,sans-Serif" font-size="10.00">alps_core/lib_internal</text>
<text text-anchor="start" x="337.5" y="-29.5" font-family="Helvetica,sans-Serif" font-size="10.00">/alps_ros2_lib/include</text>
<text text-anchor="start" x="337.5" y="-18.5" font-family="Helvetica,sans-Serif" font-size="10.00">/alps_ros2/type/custom</text>
<text text-anchor="middle" x="417.5" y="-7.5" font-family="Helvetica,sans-Serif" font-size="10.00">_type_topic_conversion_rule.hpp</text>
</a>
</g>
</g>
<!-- Node5&#45;&gt;Node7 -->
<g id="edge7" class="edge">
<title>Node5&#45;&gt;Node7</title>
<path fill="none" stroke="midnightblue" d="M361.67,-82.08C371.63,-72.34 382.41,-61.8 391.82,-52.61"/>
<polygon fill="midnightblue" stroke="midnightblue" points="358.95,-79.84 354.24,-89.34 363.84,-84.85 358.95,-79.84"/>
</g>
<!-- Node8&#45;&gt;Node6 -->
<g id="edge10" class="edge">
<title>Node8&#45;&gt;Node6</title>
<path fill="none" stroke="midnightblue" d="M408.11,-87.37C374.74,-76.25 336.35,-63.45 303.65,-52.55"/>
<polygon fill="midnightblue" stroke="midnightblue" points="407.24,-90.77 417.84,-90.61 409.46,-84.13 407.24,-90.77"/>
</g>
<!-- Node8&#45;&gt;Node7 -->
<g id="edge12" class="edge">
<title>Node8&#45;&gt;Node7</title>
<path fill="none" stroke="midnightblue" d="M462.19,-81.5C454.26,-71.92 445.74,-61.62 438.28,-52.61"/>
<polygon fill="midnightblue" stroke="midnightblue" points="459.6,-83.86 468.67,-89.34 465,-79.4 459.6,-83.86"/>
</g>
<!-- Node8&#45;&gt;Node9 -->
<g id="edge11" class="edge">
<title>Node8&#45;&gt;Node9</title>
<path fill="none" stroke="midnightblue" d="M534.39,-83.5C549.07,-73.37 565.17,-62.25 579.14,-52.61"/>
<polygon fill="midnightblue" stroke="midnightblue" points="532.18,-80.77 525.94,-89.34 536.16,-86.53 532.18,-80.77"/>
</g>
</g>
</svg>
