<?xml version="1.0" encoding="UTF-8" standalone="no"?>
<!DOCTYPE svg PUBLIC "-//W3C//DTD SVG 1.1//EN"
 "http://www.w3.org/Graphics/SVG/1.1/DTD/svg11.dtd">
<!-- Generated by graphviz version 2.43.0 (0)
 -->
<!-- Title: alps_common_lib/include/alps_cmn/util/numeric_range.hpp Pages: 1 -->
<svg width="931pt" height="295pt"
 viewBox="0.00 0.00 931.00 295.00" xmlns="http://www.w3.org/2000/svg" xmlns:xlink="http://www.w3.org/1999/xlink">
<g id="graph0" class="graph" transform="scale(1 1) rotate(0) translate(4 291)">
<title>alps_common_lib/include/alps_cmn/util/numeric_range.hpp</title>
<polygon fill="white" stroke="transparent" points="-4,4 -4,-291 927,-291 927,4 -4,4"/>
<!-- Node1 -->
<g id="node1" class="node">
<title>Node1</title>
<g id="a_node1"><a xlink:title="数値の範囲を扱うクラス">
<polygon fill="#bfbfbf" stroke="black" points="124.5,-245.5 124.5,-286.5 264.5,-286.5 264.5,-245.5 124.5,-245.5"/>
<text text-anchor="start" x="132.5" y="-274.5" font-family="Helvetica,sans-Serif" font-size="10.00">alps_common_lib/include</text>
<text text-anchor="start" x="132.5" y="-263.5" font-family="Helvetica,sans-Serif" font-size="10.00">/alps_cmn/util/numeric</text>
<text text-anchor="middle" x="194.5" y="-252.5" font-family="Helvetica,sans-Serif" font-size="10.00">_range.hpp</text>
</a>
</g>
</g>
<!-- Node2 -->
<g id="node2" class="node">
<title>Node2</title>
<g id="a_node2"><a xlink:href="output__change__limit__motor__decorator_8hpp.html" target="_top" xlink:title="出力変化制限を掛けるモーターデコレータ">
<polygon fill="white" stroke="black" points="0,-89.5 0,-130.5 191,-130.5 191,-89.5 0,-89.5"/>
<text text-anchor="start" x="8" y="-118.5" font-family="Helvetica,sans-Serif" font-size="10.00">alps_common_lib/include</text>
<text text-anchor="start" x="8" y="-107.5" font-family="Helvetica,sans-Serif" font-size="10.00">/alps_cmn/actuator/output</text>
<text text-anchor="middle" x="95.5" y="-96.5" font-family="Helvetica,sans-Serif" font-size="10.00">_change_limit_motor_decorator.hpp</text>
</a>
</g>
</g>
<!-- Node1&#45;&gt;Node2 -->
<g id="edge1" class="edge">
<title>Node1&#45;&gt;Node2</title>
<path fill="none" stroke="midnightblue" d="M145.73,-239.69C133.88,-231.39 122.37,-221.13 114.5,-209 99.02,-185.16 95.58,-151.65 95.1,-130.64"/>
<polygon fill="midnightblue" stroke="midnightblue" points="144.09,-242.8 154.37,-245.38 147.94,-236.95 144.09,-242.8"/>
</g>
<!-- Node3 -->
<g id="node3" class="node">
<title>Node3</title>
<g id="a_node3"><a xlink:href="change__rate__limiter_8hpp.html" target="_top" xlink:title="時間あたりの変化量に制限をかけるクラス">
<polygon fill="white" stroke="black" points="124,-167.5 124,-208.5 265,-208.5 265,-167.5 124,-167.5"/>
<text text-anchor="start" x="132" y="-196.5" font-family="Helvetica,sans-Serif" font-size="10.00">alps_common_lib/include</text>
<text text-anchor="start" x="132" y="-185.5" font-family="Helvetica,sans-Serif" font-size="10.00">/alps_cmn/control/change</text>
<text text-anchor="middle" x="194.5" y="-174.5" font-family="Helvetica,sans-Serif" font-size="10.00">_rate_limiter.hpp</text>
</a>
</g>
</g>
<!-- Node1&#45;&gt;Node3 -->
<g id="edge2" class="edge">
<title>Node1&#45;&gt;Node3</title>
<path fill="none" stroke="midnightblue" d="M194.5,-235.3C194.5,-226.3 194.5,-216.65 194.5,-208.51"/>
<polygon fill="midnightblue" stroke="midnightblue" points="191,-235.43 194.5,-245.43 198,-235.43 191,-235.43"/>
</g>
<!-- Node4 -->
<g id="node4" class="node">
<title>Node4</title>
<g id="a_node4"><a xlink:href="pid_8hpp.html" target="_top" xlink:title=" ">
<polygon fill="white" stroke="black" points="306.5,-173 306.5,-203 448.5,-203 448.5,-173 306.5,-173"/>
<text text-anchor="start" x="314.5" y="-191" font-family="Helvetica,sans-Serif" font-size="10.00">alps_common_lib/include</text>
<text text-anchor="middle" x="377.5" y="-180" font-family="Helvetica,sans-Serif" font-size="10.00">/alps_cmn/control/pid.hpp</text>
</a>
</g>
</g>
<!-- Node1&#45;&gt;Node4 -->
<g id="edge4" class="edge">
<title>Node1&#45;&gt;Node4</title>
<path fill="none" stroke="midnightblue" d="M251.22,-241.45C281.46,-228.89 317.66,-213.85 343.53,-203.11"/>
<polygon fill="midnightblue" stroke="midnightblue" points="249.52,-238.36 241.63,-245.43 252.2,-244.82 249.52,-238.36"/>
</g>
<!-- Node3&#45;&gt;Node2 -->
<g id="edge3" class="edge">
<title>Node3&#45;&gt;Node2</title>
<path fill="none" stroke="midnightblue" d="M160.72,-161.06C147.68,-151.06 133.02,-139.8 120.91,-130.51"/>
<polygon fill="midnightblue" stroke="midnightblue" points="158.94,-164.11 169.01,-167.43 163.2,-158.56 158.94,-164.11"/>
</g>
<!-- Node5 -->
<g id="node5" class="node">
<title>Node5</title>
<g id="a_node5"><a xlink:href="motor__angle__controller_8hpp.html" target="_top" xlink:title=" ">
<polygon fill="white" stroke="black" points="209.5,-89.5 209.5,-130.5 349.5,-130.5 349.5,-89.5 209.5,-89.5"/>
<text text-anchor="start" x="217.5" y="-118.5" font-family="Helvetica,sans-Serif" font-size="10.00">alps_common_lib/include</text>
<text text-anchor="start" x="217.5" y="-107.5" font-family="Helvetica,sans-Serif" font-size="10.00">/alps_cmn/control/motor</text>
<text text-anchor="middle" x="279.5" y="-96.5" font-family="Helvetica,sans-Serif" font-size="10.00">_angle_controller.hpp</text>
</a>
</g>
</g>
<!-- Node4&#45;&gt;Node5 -->
<g id="edge5" class="edge">
<title>Node4&#45;&gt;Node5</title>
<path fill="none" stroke="midnightblue" d="M351.05,-166.49C336.7,-155.36 319.06,-141.68 304.88,-130.68"/>
<polygon fill="midnightblue" stroke="midnightblue" points="349.02,-169.34 359.07,-172.7 353.31,-163.81 349.02,-169.34"/>
</g>
<!-- Node6 -->
<g id="node6" class="node">
<title>Node6</title>
<g id="a_node6"><a xlink:href="motor__angle__velocity__controller_8hpp.html" target="_top" xlink:title=" ">
<polygon fill="white" stroke="black" points="197,-6 197,-47 362,-47 362,-6 197,-6"/>
<text text-anchor="start" x="205" y="-35" font-family="Helvetica,sans-Serif" font-size="10.00">alps_common_lib/include</text>
<text text-anchor="start" x="205" y="-24" font-family="Helvetica,sans-Serif" font-size="10.00">/alps_cmn/control/motor</text>
<text text-anchor="middle" x="279.5" y="-13" font-family="Helvetica,sans-Serif" font-size="10.00">_angle_velocity_controller.hpp</text>
</a>
</g>
</g>
<!-- Node4&#45;&gt;Node6 -->
<g id="edge7" class="edge">
<title>Node4&#45;&gt;Node6</title>
<path fill="none" stroke="midnightblue" d="M377.47,-162.91C376.42,-141.96 372.32,-111.52 358.5,-89 347.95,-71.82 330.75,-57.58 315.08,-47.14"/>
<polygon fill="midnightblue" stroke="midnightblue" points="373.97,-163.02 377.78,-172.91 380.97,-162.81 373.97,-163.02"/>
</g>
<!-- Node7 -->
<g id="node7" class="node">
<title>Node7</title>
<g id="a_node7"><a xlink:href="motor__velocity__controller_8hpp.html" target="_top" xlink:title=" ">
<polygon fill="white" stroke="black" points="405.5,-89.5 405.5,-130.5 545.5,-130.5 545.5,-89.5 405.5,-89.5"/>
<text text-anchor="start" x="413.5" y="-118.5" font-family="Helvetica,sans-Serif" font-size="10.00">alps_common_lib/include</text>
<text text-anchor="start" x="413.5" y="-107.5" font-family="Helvetica,sans-Serif" font-size="10.00">/alps_cmn/control/motor</text>
<text text-anchor="middle" x="475.5" y="-96.5" font-family="Helvetica,sans-Serif" font-size="10.00">_velocity_controller.hpp</text>
</a>
</g>
</g>
<!-- Node4&#45;&gt;Node7 -->
<g id="edge8" class="edge">
<title>Node4&#45;&gt;Node7</title>
<path fill="none" stroke="midnightblue" d="M403.95,-166.49C418.3,-155.36 435.94,-141.68 450.12,-130.68"/>
<polygon fill="midnightblue" stroke="midnightblue" points="401.69,-163.81 395.93,-172.7 405.98,-169.34 401.69,-163.81"/>
</g>
<!-- Node10 -->
<g id="node10" class="node">
<title>Node10</title>
<g id="a_node10"><a xlink:href="custom__type__param__conversion__rule_8hpp.html" target="_top" xlink:title=" ">
<polygon fill="white" stroke="black" points="784,-0.5 784,-52.5 923,-52.5 923,-0.5 784,-0.5"/>
<text text-anchor="start" x="792" y="-40.5" font-family="Helvetica,sans-Serif" font-size="10.00">alps_ros2_lib/include</text>
<text text-anchor="start" x="792" y="-29.5" font-family="Helvetica,sans-Serif" font-size="10.00">/alps_ros2/util/custom</text>
<text text-anchor="start" x="792" y="-18.5" font-family="Helvetica,sans-Serif" font-size="10.00">_type_param_conversion</text>
<text text-anchor="middle" x="853.5" y="-7.5" font-family="Helvetica,sans-Serif" font-size="10.00">_rule.hpp</text>
</a>
</g>
</g>
<!-- Node4&#45;&gt;Node10 -->
<g id="edge13" class="edge">
<title>Node4&#45;&gt;Node10</title>
<path fill="none" stroke="midnightblue" d="M432.64,-169.97C467.63,-159.07 513.81,-144.48 554.5,-131 633.37,-104.88 723.42,-73.49 783.9,-52.18"/>
<polygon fill="midnightblue" stroke="midnightblue" points="431.59,-166.63 423.08,-172.95 433.67,-173.32 431.59,-166.63"/>
</g>
<!-- Node5&#45;&gt;Node6 -->
<g id="edge6" class="edge">
<title>Node5&#45;&gt;Node6</title>
<path fill="none" stroke="midnightblue" d="M279.5,-79.06C279.5,-68.38 279.5,-56.63 279.5,-47.05"/>
<polygon fill="midnightblue" stroke="midnightblue" points="276,-79.27 279.5,-89.27 283,-79.27 276,-79.27"/>
</g>
<!-- Node7&#45;&gt;Node6 -->
<g id="edge10" class="edge">
<title>Node7&#45;&gt;Node6</title>
<path fill="none" stroke="midnightblue" d="M419.24,-85.61C389.85,-73.39 354.29,-58.6 326.4,-47"/>
<polygon fill="midnightblue" stroke="midnightblue" points="417.98,-88.87 428.55,-89.48 420.66,-82.41 417.98,-88.87"/>
</g>
<!-- Node8 -->
<g id="node8" class="node">
<title>Node8</title>
<g id="a_node8"><a xlink:href="custom__type__serialize__rule_8hpp.html" target="_top" xlink:title="カスタム型のシリアライズ規則を定義する">
<polygon fill="white" stroke="black" points="380.5,-6 380.5,-47 554.5,-47 554.5,-6 380.5,-6"/>
<text text-anchor="start" x="388.5" y="-35" font-family="Helvetica,sans-Serif" font-size="10.00">alps_common_lib/include</text>
<text text-anchor="start" x="388.5" y="-24" font-family="Helvetica,sans-Serif" font-size="10.00">/alps_cmn/communication</text>
<text text-anchor="middle" x="467.5" y="-13" font-family="Helvetica,sans-Serif" font-size="10.00">/custom_type_serialize_rule.hpp</text>
</a>
</g>
</g>
<!-- Node7&#45;&gt;Node8 -->
<g id="edge9" class="edge">
<title>Node7&#45;&gt;Node8</title>
<path fill="none" stroke="midnightblue" d="M472.56,-79.06C471.51,-68.38 470.36,-56.63 469.42,-47.05"/>
<polygon fill="midnightblue" stroke="midnightblue" points="469.1,-79.66 473.56,-89.27 476.07,-78.98 469.1,-79.66"/>
</g>
<!-- Node9 -->
<g id="node9" class="node">
<title>Node9</title>
<g id="a_node9"><a xlink:href="custom__type__can__topic__conversion__rule_8hpp.html" target="_top" xlink:title=" ">
<polygon fill="white" stroke="black" points="573,-0.5 573,-52.5 766,-52.5 766,-0.5 573,-0.5"/>
<text text-anchor="start" x="581" y="-40.5" font-family="Helvetica,sans-Serif" font-size="10.00">alps_ros2_lib/include</text>
<text text-anchor="start" x="581" y="-29.5" font-family="Helvetica,sans-Serif" font-size="10.00">/alps_ros2/communication</text>
<text text-anchor="start" x="581" y="-18.5" font-family="Helvetica,sans-Serif" font-size="10.00">/custom_type_can_topic_conversion</text>
<text text-anchor="middle" x="669.5" y="-7.5" font-family="Helvetica,sans-Serif" font-size="10.00">_rule.hpp</text>
</a>
</g>
</g>
<!-- Node7&#45;&gt;Node9 -->
<g id="edge11" class="edge">
<title>Node7&#45;&gt;Node9</title>
<path fill="none" stroke="midnightblue" d="M531.49,-85.48C556.03,-75.17 584.86,-63.06 609.81,-52.58"/>
<polygon fill="midnightblue" stroke="midnightblue" points="529.83,-82.38 521.97,-89.48 532.54,-88.83 529.83,-82.38"/>
</g>
<!-- Node7&#45;&gt;Node10 -->
<g id="edge12" class="edge">
<title>Node7&#45;&gt;Node10</title>
<path fill="none" stroke="midnightblue" d="M555.7,-96.97C616.48,-87.15 701.83,-71.83 775.5,-53 778.26,-52.29 781.07,-51.54 783.89,-50.76"/>
<polygon fill="midnightblue" stroke="midnightblue" points="555.1,-93.52 545.78,-98.56 556.21,-100.43 555.1,-93.52"/>
</g>
</g>
</svg>
