<?xml version="1.0" encoding="UTF-8" standalone="no"?>
<!DOCTYPE svg PUBLIC "-//W3C//DTD SVG 1.1//EN"
 "http://www.w3.org/Graphics/SVG/1.1/DTD/svg11.dtd">
<!-- Generated by graphviz version 2.43.0 (0)
 -->
<!-- Title: alps_core/lib_internal/alps_common_lib/include/alps_cmn/robot/odometory.hpp Pages: 1 -->
<svg width="463pt" height="218pt"
 viewBox="0.00 0.00 462.50 218.00" xmlns="http://www.w3.org/2000/svg" xmlns:xlink="http://www.w3.org/1999/xlink">
<g id="graph0" class="graph" transform="scale(1 1) rotate(0) translate(4 214)">
<title>alps_core/lib_internal/alps_common_lib/include/alps_cmn/robot/odometory.hpp</title>
<polygon fill="white" stroke="transparent" points="-4,4 -4,-214 458.5,-214 458.5,4 -4,4"/>
<!-- Node1 -->
<g id="node1" class="node">
<title>Node1</title>
<g id="a_node1"><a xlink:title="オドメトリ計算クラス">
<polygon fill="#bfbfbf" stroke="black" points="0,-168.5 0,-209.5 170,-209.5 170,-168.5 0,-168.5"/>
<text text-anchor="start" x="8" y="-197.5" font-family="Helvetica,sans-Serif" font-size="10.00">alps_core/lib_internal</text>
<text text-anchor="start" x="8" y="-186.5" font-family="Helvetica,sans-Serif" font-size="10.00">/alps_common_lib/include</text>
<text text-anchor="middle" x="85" y="-175.5" font-family="Helvetica,sans-Serif" font-size="10.00">/alps_cmn/robot/odometory.hpp</text>
</a>
</g>
</g>
<!-- Node2 -->
<g id="node2" class="node">
<title>Node2</title>
<g id="a_node2"><a xlink:title=" ">
<polygon fill="white" stroke="#bfbfbf" points="2,-112.5 2,-131.5 44,-131.5 44,-112.5 2,-112.5"/>
<text text-anchor="middle" x="23" y="-119.5" font-family="Helvetica,sans-Serif" font-size="10.00">array</text>
</a>
</g>
</g>
<!-- Node1&#45;&gt;Node2 -->
<g id="edge1" class="edge">
<title>Node1&#45;&gt;Node2</title>
<path fill="none" stroke="midnightblue" d="M66.4,-168.5C57.44,-159.11 46.83,-147.98 38.34,-139.08"/>
<polygon fill="midnightblue" stroke="midnightblue" points="40.69,-136.47 31.25,-131.65 35.62,-141.3 40.69,-136.47"/>
</g>
<!-- Node3 -->
<g id="node3" class="node">
<title>Node3</title>
<g id="a_node3"><a xlink:href="integrator_8hpp.html" target="_top" xlink:title="積分器ライブラリ">
<polygon fill="white" stroke="black" points="62.5,-112.5 62.5,-131.5 233.5,-131.5 233.5,-112.5 62.5,-112.5"/>
<text text-anchor="middle" x="148" y="-119.5" font-family="Helvetica,sans-Serif" font-size="10.00">alps_cmn/control/integrator.hpp</text>
</a>
</g>
</g>
<!-- Node1&#45;&gt;Node3 -->
<g id="edge2" class="edge">
<title>Node1&#45;&gt;Node3</title>
<path fill="none" stroke="midnightblue" d="M103.9,-168.5C113,-159.11 123.79,-147.98 132.41,-139.08"/>
<polygon fill="midnightblue" stroke="midnightblue" points="135.17,-141.27 139.61,-131.65 130.14,-136.4 135.17,-141.27"/>
</g>
<!-- Node4 -->
<g id="node4" class="node">
<title>Node4</title>
<g id="a_node4"><a xlink:title=" ">
<polygon fill="white" stroke="#bfbfbf" points="184,-0.5 184,-19.5 234,-19.5 234,-0.5 184,-0.5"/>
<text text-anchor="middle" x="209" y="-7.5" font-family="Helvetica,sans-Serif" font-size="10.00">chrono</text>
</a>
</g>
</g>
<!-- Node3&#45;&gt;Node4 -->
<g id="edge3" class="edge">
<title>Node3&#45;&gt;Node4</title>
<path fill="none" stroke="midnightblue" d="M117.17,-112.48C84.4,-101.84 39.76,-81.87 59,-56 85.18,-20.81 137.93,-12.1 173.36,-10.47"/>
<polygon fill="midnightblue" stroke="midnightblue" points="173.86,-13.96 183.76,-10.17 173.66,-6.96 173.86,-13.96"/>
</g>
<!-- Node5 -->
<g id="node5" class="node">
<title>Node5</title>
<g id="a_node5"><a xlink:title=" ">
<polygon fill="white" stroke="#bfbfbf" points="68,-56.5 68,-75.5 112,-75.5 112,-56.5 68,-56.5"/>
<text text-anchor="middle" x="90" y="-63.5" font-family="Helvetica,sans-Serif" font-size="10.00">limits</text>
</a>
</g>
</g>
<!-- Node3&#45;&gt;Node5 -->
<g id="edge4" class="edge">
<title>Node3&#45;&gt;Node5</title>
<path fill="none" stroke="midnightblue" d="M138.68,-112.32C130.11,-104.34 117.19,-92.31 106.81,-82.65"/>
<polygon fill="midnightblue" stroke="midnightblue" points="109.19,-80.09 99.49,-75.83 104.42,-85.21 109.19,-80.09"/>
</g>
<!-- Node6 -->
<g id="node6" class="node">
<title>Node6</title>
<g id="a_node6"><a xlink:href="algorithm_8hpp.html" target="_top" xlink:title=" ">
<polygon fill="white" stroke="black" points="130.5,-56.5 130.5,-75.5 283.5,-75.5 283.5,-56.5 130.5,-56.5"/>
<text text-anchor="middle" x="207" y="-63.5" font-family="Helvetica,sans-Serif" font-size="10.00">alps_cmn/util/algorithm.hpp</text>
</a>
</g>
</g>
<!-- Node3&#45;&gt;Node6 -->
<g id="edge5" class="edge">
<title>Node3&#45;&gt;Node6</title>
<path fill="none" stroke="midnightblue" d="M157.48,-112.32C166.2,-104.34 179.34,-92.31 189.9,-82.65"/>
<polygon fill="midnightblue" stroke="midnightblue" points="192.33,-85.17 197.35,-75.83 187.61,-80 192.33,-85.17"/>
</g>
<!-- Node7 -->
<g id="node7" class="node">
<title>Node7</title>
<g id="a_node7"><a xlink:href="duration_8hpp.html" target="_top" xlink:title="時間間隔の型エイリアス">
<polygon fill="white" stroke="black" points="301.5,-56.5 301.5,-75.5 454.5,-75.5 454.5,-56.5 301.5,-56.5"/>
<text text-anchor="middle" x="378" y="-63.5" font-family="Helvetica,sans-Serif" font-size="10.00">alps_cmn/time/duration.hpp</text>
</a>
</g>
</g>
<!-- Node3&#45;&gt;Node7 -->
<g id="edge6" class="edge">
<title>Node3&#45;&gt;Node7</title>
<path fill="none" stroke="midnightblue" d="M184.44,-112.44C224.4,-103.06 288.59,-87.99 331.98,-77.8"/>
<polygon fill="midnightblue" stroke="midnightblue" points="332.79,-81.21 341.73,-75.52 331.19,-74.39 332.79,-81.21"/>
</g>
<!-- Node7&#45;&gt;Node4 -->
<g id="edge7" class="edge">
<title>Node7&#45;&gt;Node4</title>
<path fill="none" stroke="midnightblue" d="M351.22,-56.44C322.16,-47.16 275.66,-32.3 243.79,-22.12"/>
<polygon fill="midnightblue" stroke="midnightblue" points="244.59,-18.7 234,-18.99 242.46,-25.37 244.59,-18.7"/>
</g>
</g>
</svg>
