<?xml version="1.0" encoding="UTF-8" standalone="no"?>
<!DOCTYPE svg PUBLIC "-//W3C//DTD SVG 1.1//EN"
 "http://www.w3.org/Graphics/SVG/1.1/DTD/svg11.dtd">
<!-- Generated by graphviz version 2.43.0 (0)
 -->
<!-- Title: alps_common_lib/include/alps_cmn/robotics/odometory.hpp Pages: 1 -->
<svg width="470pt" height="207pt"
 viewBox="0.00 0.00 469.50 207.00" xmlns="http://www.w3.org/2000/svg" xmlns:xlink="http://www.w3.org/1999/xlink">
<g id="graph0" class="graph" transform="scale(1 1) rotate(0) translate(4 203)">
<title>alps_common_lib/include/alps_cmn/robotics/odometory.hpp</title>
<polygon fill="white" stroke="transparent" points="-4,4 -4,-203 465.5,-203 465.5,4 -4,4"/>
<!-- Node1 -->
<g id="node1" class="node">
<title>Node1</title>
<g id="a_node1"><a xlink:title="オドメトリ計算クラス">
<polygon fill="#bfbfbf" stroke="black" points="0,-168.5 0,-198.5 184,-198.5 184,-168.5 0,-168.5"/>
<text text-anchor="start" x="8" y="-186.5" font-family="Helvetica,sans-Serif" font-size="10.00">alps_common_lib/include</text>
<text text-anchor="middle" x="92" y="-175.5" font-family="Helvetica,sans-Serif" font-size="10.00">/alps_cmn/robotics/odometory.hpp</text>
</a>
</g>
</g>
<!-- Node2 -->
<g id="node2" class="node">
<title>Node2</title>
<g id="a_node2"><a xlink:title=" ">
<polygon fill="white" stroke="#bfbfbf" points="9,-112.5 9,-131.5 51,-131.5 51,-112.5 9,-112.5"/>
<text text-anchor="middle" x="30" y="-119.5" font-family="Helvetica,sans-Serif" font-size="10.00">array</text>
</a>
</g>
</g>
<!-- Node1&#45;&gt;Node2 -->
<g id="edge1" class="edge">
<title>Node1&#45;&gt;Node2</title>
<path fill="none" stroke="midnightblue" d="M77.31,-168.4C68.02,-159.49 56,-147.95 46.4,-138.74"/>
<polygon fill="midnightblue" stroke="midnightblue" points="48.66,-136.06 39.02,-131.66 43.81,-141.11 48.66,-136.06"/>
</g>
<!-- Node3 -->
<g id="node3" class="node">
<title>Node3</title>
<g id="a_node3"><a xlink:href="integrator_8hpp.html" target="_top" xlink:title="積分器ライブラリ">
<polygon fill="white" stroke="black" points="69.5,-112.5 69.5,-131.5 240.5,-131.5 240.5,-112.5 69.5,-112.5"/>
<text text-anchor="middle" x="155" y="-119.5" font-family="Helvetica,sans-Serif" font-size="10.00">alps_cmn/control/integrator.hpp</text>
</a>
</g>
</g>
<!-- Node1&#45;&gt;Node3 -->
<g id="edge2" class="edge">
<title>Node1&#45;&gt;Node3</title>
<path fill="none" stroke="midnightblue" d="M106.93,-168.4C116.37,-159.49 128.58,-147.95 138.33,-138.74"/>
<polygon fill="midnightblue" stroke="midnightblue" points="140.97,-141.07 145.83,-131.66 136.16,-135.98 140.97,-141.07"/>
</g>
<!-- Node4 -->
<g id="node4" class="node">
<title>Node4</title>
<g id="a_node4"><a xlink:title=" ">
<polygon fill="white" stroke="#bfbfbf" points="191,-0.5 191,-19.5 241,-19.5 241,-0.5 191,-0.5"/>
<text text-anchor="middle" x="216" y="-7.5" font-family="Helvetica,sans-Serif" font-size="10.00">chrono</text>
</a>
</g>
</g>
<!-- Node3&#45;&gt;Node4 -->
<g id="edge3" class="edge">
<title>Node3&#45;&gt;Node4</title>
<path fill="none" stroke="midnightblue" d="M124.17,-112.48C91.4,-101.84 46.76,-81.87 66,-56 92.18,-20.81 144.93,-12.1 180.36,-10.47"/>
<polygon fill="midnightblue" stroke="midnightblue" points="180.86,-13.96 190.76,-10.17 180.66,-6.96 180.86,-13.96"/>
</g>
<!-- Node5 -->
<g id="node5" class="node">
<title>Node5</title>
<g id="a_node5"><a xlink:title=" ">
<polygon fill="white" stroke="#bfbfbf" points="75,-56.5 75,-75.5 119,-75.5 119,-56.5 75,-56.5"/>
<text text-anchor="middle" x="97" y="-63.5" font-family="Helvetica,sans-Serif" font-size="10.00">limits</text>
</a>
</g>
</g>
<!-- Node3&#45;&gt;Node5 -->
<g id="edge4" class="edge">
<title>Node3&#45;&gt;Node5</title>
<path fill="none" stroke="midnightblue" d="M145.68,-112.32C137.11,-104.34 124.19,-92.31 113.81,-82.65"/>
<polygon fill="midnightblue" stroke="midnightblue" points="116.19,-80.09 106.49,-75.83 111.42,-85.21 116.19,-80.09"/>
</g>
<!-- Node6 -->
<g id="node6" class="node">
<title>Node6</title>
<g id="a_node6"><a xlink:href="algorithm_8hpp.html" target="_top" xlink:title=" ">
<polygon fill="white" stroke="black" points="137.5,-56.5 137.5,-75.5 290.5,-75.5 290.5,-56.5 137.5,-56.5"/>
<text text-anchor="middle" x="214" y="-63.5" font-family="Helvetica,sans-Serif" font-size="10.00">alps_cmn/util/algorithm.hpp</text>
</a>
</g>
</g>
<!-- Node3&#45;&gt;Node6 -->
<g id="edge5" class="edge">
<title>Node3&#45;&gt;Node6</title>
<path fill="none" stroke="midnightblue" d="M164.48,-112.32C173.2,-104.34 186.34,-92.31 196.9,-82.65"/>
<polygon fill="midnightblue" stroke="midnightblue" points="199.33,-85.17 204.35,-75.83 194.61,-80 199.33,-85.17"/>
</g>
<!-- Node7 -->
<g id="node7" class="node">
<title>Node7</title>
<g id="a_node7"><a xlink:href="duration_8hpp.html" target="_top" xlink:title="時間間隔の型エイリアス">
<polygon fill="white" stroke="black" points="308.5,-56.5 308.5,-75.5 461.5,-75.5 461.5,-56.5 308.5,-56.5"/>
<text text-anchor="middle" x="385" y="-63.5" font-family="Helvetica,sans-Serif" font-size="10.00">alps_cmn/time/duration.hpp</text>
</a>
</g>
</g>
<!-- Node3&#45;&gt;Node7 -->
<g id="edge6" class="edge">
<title>Node3&#45;&gt;Node7</title>
<path fill="none" stroke="midnightblue" d="M191.44,-112.44C231.4,-103.06 295.59,-87.99 338.98,-77.8"/>
<polygon fill="midnightblue" stroke="midnightblue" points="339.79,-81.21 348.73,-75.52 338.19,-74.39 339.79,-81.21"/>
</g>
<!-- Node7&#45;&gt;Node4 -->
<g id="edge7" class="edge">
<title>Node7&#45;&gt;Node4</title>
<path fill="none" stroke="midnightblue" d="M358.22,-56.44C329.16,-47.16 282.66,-32.3 250.79,-22.12"/>
<polygon fill="midnightblue" stroke="midnightblue" points="251.59,-18.7 241,-18.99 249.46,-25.37 251.59,-18.7"/>
</g>
</g>
</svg>
