<?xml version="1.0" encoding="UTF-8" standalone="no"?>
<!DOCTYPE svg PUBLIC "-//W3C//DTD SVG 1.1//EN"
 "http://www.w3.org/Graphics/SVG/1.1/DTD/svg11.dtd">
<!-- Generated by graphviz version 2.43.0 (0)
 -->
<!-- Title: alps_core/lib_internal/alps_common_lib/include/alps_cmn/communication/odrive_can_simple_messages.hpp Pages: 1 -->
<svg width="230pt" height="324pt"
 viewBox="0.00 0.00 229.50 324.00" xmlns="http://www.w3.org/2000/svg" xmlns:xlink="http://www.w3.org/1999/xlink">
<g id="graph0" class="graph" transform="scale(1 1) rotate(0) translate(4 320)">
<title>alps_core/lib_internal/alps_common_lib/include/alps_cmn/communication/odrive_can_simple_messages.hpp</title>
<!-- Node1 -->
<g id="Node000001" class="node">
<title>Node1</title>
<g id="a_Node000001"><a xlink:title=" ">
<polygon fill="#999999" stroke="#666666" points="187,-316 0,-316 0,-264 187,-264 187,-316"/>
<text text-anchor="start" x="8" y="-304" font-family="Helvetica,sans-Serif" font-size="10.00">alps_core/lib_internal</text>
<text text-anchor="start" x="8" y="-293" font-family="Helvetica,sans-Serif" font-size="10.00">/alps_common_lib/include</text>
<text text-anchor="start" x="8" y="-282" font-family="Helvetica,sans-Serif" font-size="10.00">/alps_cmn/communication</text>
<text text-anchor="middle" x="93.5" y="-271" font-family="Helvetica,sans-Serif" font-size="10.00">/odrive_can_simple_messages.hpp</text>
</a>
</g>
</g>
<!-- Node2 -->
<g id="Node000002" class="node">
<title>Node2</title>
<g id="a_Node000002"><a xlink:href="odrive__can_8h.html" target="_top" xlink:title=" ">
<polygon fill="white" stroke="#666666" points="166,-228 21,-228 21,-176 166,-176 166,-228"/>
<text text-anchor="start" x="29" y="-216" font-family="Helvetica,sans-Serif" font-size="10.00">alps_core/lib_internal</text>
<text text-anchor="start" x="29" y="-205" font-family="Helvetica,sans-Serif" font-size="10.00">/alps_common_lib/include</text>
<text text-anchor="start" x="29" y="-194" font-family="Helvetica,sans-Serif" font-size="10.00">/alps_cmn/communication</text>
<text text-anchor="middle" x="93.5" y="-183" font-family="Helvetica,sans-Serif" font-size="10.00">/odrive_can.h</text>
</a>
</g>
</g>
<!-- Node1&#45;&gt;Node2 -->
<g id="edge1_Node000001_Node000002" class="edge">
<title>Node1&#45;&gt;Node2</title>
<g id="a_edge1_Node000001_Node000002"><a xlink:title=" ">
<path fill="none" stroke="#63b8ff" d="M93.5,-253.56C93.5,-245.04 93.5,-236.1 93.5,-228.16"/>
<polygon fill="#63b8ff" stroke="#63b8ff" points="90,-253.66 93.5,-263.66 97,-253.66 90,-253.66"/>
</a>
</g>
</g>
<!-- Node3 -->
<g id="Node000003" class="node">
<title>Node3</title>
<g id="a_Node000003"><a xlink:href="odrive__can__func_8hpp.html" target="_top" xlink:title=" ">
<polygon fill="white" stroke="#666666" points="168.5,-52 18.5,-52 18.5,0 168.5,0 168.5,-52"/>
<text text-anchor="start" x="26.5" y="-40" font-family="Helvetica,sans-Serif" font-size="10.00">alps_core/lib_internal</text>
<text text-anchor="start" x="26.5" y="-29" font-family="Helvetica,sans-Serif" font-size="10.00">/alps_mbed_lib/include</text>
<text text-anchor="start" x="26.5" y="-18" font-family="Helvetica,sans-Serif" font-size="10.00">/alps_mbed/actuator/odrive</text>
<text text-anchor="middle" x="93.5" y="-7" font-family="Helvetica,sans-Serif" font-size="10.00">_can_func.hpp</text>
</a>
</g>
</g>
<!-- Node2&#45;&gt;Node3 -->
<g id="edge2_Node000002_Node000003" class="edge">
<title>Node2&#45;&gt;Node3</title>
<g id="a_edge2_Node000002_Node000003"><a xlink:title=" ">
<path fill="none" stroke="#63b8ff" d="M71.26,-166.93C66.83,-158.46 62.82,-149.17 60.5,-140 54.83,-117.6 54.83,-110.4 60.5,-88 63.66,-75.51 69.95,-62.8 76.19,-52.25"/>
<polygon fill="#63b8ff" stroke="#63b8ff" points="68.26,-168.73 76.19,-175.75 74.37,-165.32 68.26,-168.73"/>
</a>
</g>
</g>
<!-- Node4 -->
<g id="Node000004" class="node">
<title>Node4</title>
<g id="a_Node000004"><a xlink:href="odrive__can__mbed_8hpp.html" target="_top" xlink:title=" ">
<polygon fill="white" stroke="#666666" points="221.5,-140 69.5,-140 69.5,-88 221.5,-88 221.5,-140"/>
<text text-anchor="start" x="77.5" y="-128" font-family="Helvetica,sans-Serif" font-size="10.00">alps_core/lib_internal</text>
<text text-anchor="start" x="77.5" y="-117" font-family="Helvetica,sans-Serif" font-size="10.00">/alps_mbed_lib/include</text>
<text text-anchor="start" x="77.5" y="-106" font-family="Helvetica,sans-Serif" font-size="10.00">/alps_mbed/communication</text>
<text text-anchor="middle" x="145.5" y="-95" font-family="Helvetica,sans-Serif" font-size="10.00">/odrive_can_mbed.hpp</text>
</a>
</g>
</g>
<!-- Node2&#45;&gt;Node4 -->
<g id="edge3_Node000002_Node000004" class="edge">
<title>Node2&#45;&gt;Node4</title>
<g id="a_edge3_Node000002_Node000004"><a xlink:title=" ">
<path fill="none" stroke="#63b8ff" d="M114.08,-166.96C119.49,-158.02 125.22,-148.54 130.29,-140.16"/>
<polygon fill="#63b8ff" stroke="#63b8ff" points="111,-165.29 108.82,-175.66 116.99,-168.92 111,-165.29"/>
</a>
</g>
</g>
<!-- Node4&#45;&gt;Node3 -->
<g id="edge4_Node000004_Node000003" class="edge">
<title>Node4&#45;&gt;Node3</title>
<g id="a_edge4_Node000004_Node000003"><a xlink:title=" ">
<path fill="none" stroke="#63b8ff" d="M124.92,-78.96C119.51,-70.02 113.78,-60.54 108.71,-52.16"/>
<polygon fill="#63b8ff" stroke="#63b8ff" points="122.01,-80.92 130.18,-87.66 128,-77.29 122.01,-80.92"/>
</a>
</g>
</g>
</g>
</svg>
