<?xml version="1.0" encoding="UTF-8" standalone="no"?>
<!DOCTYPE svg PUBLIC "-//W3C//DTD SVG 1.1//EN"
 "http://www.w3.org/Graphics/SVG/1.1/DTD/svg11.dtd">
<!-- Generated by graphviz version 2.43.0 (0)
 -->
<!-- Title: alps_core/lib_internal/alps_mbed_lib/include/alps_mbed/communication/odrive_can_mbed.hpp Pages: 1 -->
<svg width="550pt" height="302pt"
 viewBox="0.00 0.00 549.50 302.00" xmlns="http://www.w3.org/2000/svg" xmlns:xlink="http://www.w3.org/1999/xlink">
<g id="graph0" class="graph" transform="scale(1 1) rotate(0) translate(4 298)">
<title>alps_core/lib_internal/alps_mbed_lib/include/alps_mbed/communication/odrive_can_mbed.hpp</title>
<!-- Node1 -->
<g id="Node000001" class="node">
<title>Node1</title>
<g id="a_Node000001"><a xlink:title=" ">
<polygon fill="#999999" stroke="#666666" points="462.5,-294 310.5,-294 310.5,-242 462.5,-242 462.5,-294"/>
<text text-anchor="start" x="318.5" y="-282" font-family="Helvetica,sans-Serif" font-size="10.00">alps_core/lib_internal</text>
<text text-anchor="start" x="318.5" y="-271" font-family="Helvetica,sans-Serif" font-size="10.00">/alps_mbed_lib/include</text>
<text text-anchor="start" x="318.5" y="-260" font-family="Helvetica,sans-Serif" font-size="10.00">/alps_mbed/communication</text>
<text text-anchor="middle" x="386.5" y="-249" font-family="Helvetica,sans-Serif" font-size="10.00">/odrive_can_mbed.hpp</text>
</a>
</g>
</g>
<!-- Node2 -->
<g id="Node000002" class="node">
<title>Node2</title>
<g id="a_Node000002"><a xlink:href="odrive__can_8h.html" target="_top" xlink:title=" ">
<polygon fill="white" stroke="#666666" points="332.5,-206 190.5,-206 190.5,-176 332.5,-176 332.5,-206"/>
<text text-anchor="start" x="198.5" y="-194" font-family="Helvetica,sans-Serif" font-size="10.00">alps_cmn/communication</text>
<text text-anchor="middle" x="261.5" y="-183" font-family="Helvetica,sans-Serif" font-size="10.00">/odrive_can.h</text>
</a>
</g>
</g>
<!-- Node1&#45;&gt;Node2 -->
<g id="edge1_Node000001_Node000002" class="edge">
<title>Node1&#45;&gt;Node2</title>
<g id="a_edge1_Node000001_Node000002"><a xlink:title=" ">
<path fill="none" stroke="#63b8ff" d="M344.53,-241.82C327.93,-231.86 309.15,-220.59 293.66,-211.3"/>
<polygon fill="#63b8ff" stroke="#63b8ff" points="295.34,-208.22 284.96,-206.08 291.74,-214.22 295.34,-208.22"/>
</a>
</g>
</g>
<!-- Node13 -->
<g id="Node000013" class="node">
<title>Node13</title>
<g id="a_Node000013"><a xlink:title=" ">
<polygon fill="#e0e0e0" stroke="#999999" points="422,-200.5 351,-200.5 351,-181.5 422,-181.5 422,-200.5"/>
<text text-anchor="middle" x="386.5" y="-188.5" font-family="Helvetica,sans-Serif" font-size="10.00">etl/vector.h</text>
</a>
</g>
</g>
<!-- Node1&#45;&gt;Node13 -->
<g id="edge14_Node000001_Node000013" class="edge">
<title>Node1&#45;&gt;Node13</title>
<g id="a_edge14_Node000001_Node000013"><a xlink:title=" ">
<path fill="none" stroke="#63b8ff" d="M386.5,-241.61C386.5,-231.58 386.5,-220.25 386.5,-210.96"/>
<polygon fill="#63b8ff" stroke="#63b8ff" points="390,-210.85 386.5,-200.85 383,-210.85 390,-210.85"/>
</a>
</g>
</g>
<!-- Node14 -->
<g id="Node000014" class="node">
<title>Node14</title>
<g id="a_Node000014"><a xlink:title=" ">
<polygon fill="#e0e0e0" stroke="#999999" points="493,-200.5 440,-200.5 440,-181.5 493,-181.5 493,-200.5"/>
<text text-anchor="middle" x="466.5" y="-188.5" font-family="Helvetica,sans-Serif" font-size="10.00">mbed.h</text>
</a>
</g>
</g>
<!-- Node1&#45;&gt;Node14 -->
<g id="edge15_Node000001_Node000014" class="edge">
<title>Node1&#45;&gt;Node14</title>
<g id="a_edge15_Node000001_Node000014"><a xlink:title=" ">
<path fill="none" stroke="#63b8ff" d="M413.58,-241.61C425.46,-230.48 439.04,-217.75 449.46,-207.97"/>
<polygon fill="#63b8ff" stroke="#63b8ff" points="452.16,-210.24 457.06,-200.85 447.37,-205.14 452.16,-210.24"/>
</a>
</g>
</g>
<!-- Node3 -->
<g id="Node000003" class="node">
<title>Node3</title>
<g id="a_Node000003"><a xlink:href="odrive__enums_8h.html" target="_top" xlink:title=" ">
<polygon fill="white" stroke="#666666" points="95,-134.5 0,-134.5 0,-115.5 95,-115.5 95,-134.5"/>
<text text-anchor="middle" x="47.5" y="-122.5" font-family="Helvetica,sans-Serif" font-size="10.00">odrive_enums.h</text>
</a>
</g>
</g>
<!-- Node2&#45;&gt;Node3 -->
<g id="edge2_Node000002_Node000003" class="edge">
<title>Node2&#45;&gt;Node3</title>
<g id="a_edge2_Node000002_Node000003"><a xlink:title=" ">
<path fill="none" stroke="#63b8ff" d="M214.54,-175.95C175.85,-164.38 121.68,-148.18 85.64,-137.41"/>
<polygon fill="#63b8ff" stroke="#63b8ff" points="86.56,-134.03 75.98,-134.52 84.56,-140.74 86.56,-134.03"/>
</a>
</g>
</g>
<!-- Node4 -->
<g id="Node000004" class="node">
<title>Node4</title>
<g id="a_Node000004"><a xlink:href="logging__macros_8hpp.html" target="_top" xlink:title=" ">
<polygon fill="white" stroke="#666666" points="233.5,-140 113.5,-140 113.5,-110 233.5,-110 233.5,-140"/>
<text text-anchor="start" x="121.5" y="-128" font-family="Helvetica,sans-Serif" font-size="10.00">alps_cmn/log/logging</text>
<text text-anchor="middle" x="173.5" y="-117" font-family="Helvetica,sans-Serif" font-size="10.00">_macros.hpp</text>
</a>
</g>
</g>
<!-- Node2&#45;&gt;Node4 -->
<g id="edge3_Node000002_Node000004" class="edge">
<title>Node2&#45;&gt;Node4</title>
<g id="a_edge3_Node000002_Node000004"><a xlink:title=" ">
<path fill="none" stroke="#63b8ff" d="M241.97,-175.8C230.01,-167.1 214.51,-155.82 201.28,-146.2"/>
<polygon fill="#63b8ff" stroke="#63b8ff" points="203.12,-143.22 192.98,-140.16 199,-148.88 203.12,-143.22"/>
</a>
</g>
</g>
<!-- Node8 -->
<g id="Node000008" class="node">
<title>Node8</title>
<g id="a_Node000008"><a xlink:href="odrive__can__helpers_8hpp.html" target="_top" xlink:title=" ">
<polygon fill="white" stroke="#666666" points="372.5,-74 240.5,-74 240.5,-55 372.5,-55 372.5,-74"/>
<text text-anchor="middle" x="306.5" y="-62" font-family="Helvetica,sans-Serif" font-size="10.00">odrive_can_helpers.hpp</text>
</a>
</g>
</g>
<!-- Node2&#45;&gt;Node8 -->
<g id="edge7_Node000002_Node000008" class="edge">
<title>Node2&#45;&gt;Node8</title>
<g id="a_edge7_Node000002_Node000008"><a xlink:title=" ">
<path fill="none" stroke="#63b8ff" d="M263.58,-175.74C266.25,-159.43 271.64,-132.13 280.5,-110 284.28,-100.57 289.82,-90.75 294.82,-82.74"/>
<polygon fill="#63b8ff" stroke="#63b8ff" points="297.79,-84.59 300.3,-74.3 291.92,-80.78 297.79,-84.59"/>
</a>
</g>
</g>
<!-- Node11 -->
<g id="Node000011" class="node">
<title>Node11</title>
<g id="a_Node000011"><a xlink:href="odrive__can__simple__messages_8hpp.html" target="_top" xlink:title=" ">
<polygon fill="white" stroke="#666666" points="473.5,-134.5 289.5,-134.5 289.5,-115.5 473.5,-115.5 473.5,-134.5"/>
<text text-anchor="middle" x="381.5" y="-122.5" font-family="Helvetica,sans-Serif" font-size="10.00">odrive_can_simple_messages.hpp</text>
</a>
</g>
</g>
<!-- Node2&#45;&gt;Node11 -->
<g id="edge10_Node000002_Node000011" class="edge">
<title>Node2&#45;&gt;Node11</title>
<g id="a_edge10_Node000002_Node000011"><a xlink:title=" ">
<path fill="none" stroke="#63b8ff" d="M287.83,-175.95C308.32,-165.03 336.56,-149.97 356.66,-139.25"/>
<polygon fill="#63b8ff" stroke="#63b8ff" points="358.35,-142.31 365.53,-134.52 355.06,-136.14 358.35,-142.31"/>
</a>
</g>
</g>
<!-- Node12 -->
<g id="Node000012" class="node">
<title>Node12</title>
<g id="a_Node000012"><a xlink:title=" ">
<polygon fill="#e0e0e0" stroke="#999999" points="541.5,-134.5 491.5,-134.5 491.5,-115.5 541.5,-115.5 541.5,-134.5"/>
<text text-anchor="middle" x="516.5" y="-122.5" font-family="Helvetica,sans-Serif" font-size="10.00">chrono</text>
</a>
</g>
</g>
<!-- Node2&#45;&gt;Node12 -->
<g id="edge13_Node000002_Node000012" class="edge">
<title>Node2&#45;&gt;Node12</title>
<g id="a_edge13_Node000002_Node000012"><a xlink:title=" ">
<path fill="none" stroke="#63b8ff" d="M332.98,-177C376.65,-168.28 433.37,-155.55 482.5,-140 484.17,-139.47 485.88,-138.89 487.59,-138.28"/>
<polygon fill="#63b8ff" stroke="#63b8ff" points="489.2,-141.41 497.29,-134.57 486.7,-134.88 489.2,-141.41"/>
</a>
</g>
</g>
<!-- Node5 -->
<g id="Node000005" class="node">
<title>Node5</title>
<g id="a_Node000005"><a xlink:href="logger_8hpp.html" target="_top" xlink:title=" ">
<polygon fill="white" stroke="#666666" points="222,-74 87,-74 87,-55 222,-55 222,-74"/>
<text text-anchor="middle" x="154.5" y="-62" font-family="Helvetica,sans-Serif" font-size="10.00">alps_cmn/log/logger.hpp</text>
</a>
</g>
</g>
<!-- Node4&#45;&gt;Node5 -->
<g id="edge4_Node000004_Node000005" class="edge">
<title>Node4&#45;&gt;Node5</title>
<g id="a_edge4_Node000004_Node000005"><a xlink:title=" ">
<path fill="none" stroke="#63b8ff" d="M168.9,-109.84C166.37,-102.04 163.19,-92.27 160.47,-83.89"/>
<polygon fill="#63b8ff" stroke="#63b8ff" points="163.76,-82.7 157.35,-74.27 157.11,-84.86 163.76,-82.7"/>
</a>
</g>
</g>
<!-- Node6 -->
<g id="Node000006" class="node">
<title>Node6</title>
<g id="a_Node000006"><a xlink:title=" ">
<polygon fill="#e0e0e0" stroke="#999999" points="138.5,-19 54.5,-19 54.5,0 138.5,0 138.5,-19"/>
<text text-anchor="middle" x="96.5" y="-7" font-family="Helvetica,sans-Serif" font-size="10.00">etl/delegate.h</text>
</a>
</g>
</g>
<!-- Node5&#45;&gt;Node6 -->
<g id="edge5_Node000005_Node000006" class="edge">
<title>Node5&#45;&gt;Node6</title>
<g id="a_edge5_Node000005_Node000006"><a xlink:title=" ">
<path fill="none" stroke="#63b8ff" d="M145.18,-54.98C136.69,-47.23 123.94,-35.58 113.62,-26.14"/>
<polygon fill="#63b8ff" stroke="#63b8ff" points="115.73,-23.33 105.99,-19.17 111.01,-28.5 115.73,-23.33"/>
</a>
</g>
</g>
<!-- Node7 -->
<g id="Node000007" class="node">
<title>Node7</title>
<g id="a_Node000007"><a xlink:title=" ">
<polygon fill="#e0e0e0" stroke="#999999" points="226,-19 157,-19 157,0 226,0 226,-19"/>
<text text-anchor="middle" x="191.5" y="-7" font-family="Helvetica,sans-Serif" font-size="10.00">etl/string.h</text>
</a>
</g>
</g>
<!-- Node5&#45;&gt;Node7 -->
<g id="edge6_Node000005_Node000007" class="edge">
<title>Node5&#45;&gt;Node7</title>
<g id="a_edge6_Node000005_Node000007"><a xlink:title=" ">
<path fill="none" stroke="#63b8ff" d="M160.61,-54.75C165.78,-47.34 173.35,-36.5 179.69,-27.41"/>
<polygon fill="#63b8ff" stroke="#63b8ff" points="182.65,-29.29 185.5,-19.09 176.91,-25.29 182.65,-29.29"/>
</a>
</g>
</g>
<!-- Node9 -->
<g id="Node000009" class="node">
<title>Node9</title>
<g id="a_Node000009"><a xlink:title=" ">
<polygon fill="#e0e0e0" stroke="#999999" points="415,-19 362,-19 362,0 415,0 415,-19"/>
<text text-anchor="middle" x="388.5" y="-7" font-family="Helvetica,sans-Serif" font-size="10.00">stdint.h</text>
</a>
</g>
</g>
<!-- Node8&#45;&gt;Node9 -->
<g id="edge8_Node000008_Node000009" class="edge">
<title>Node8&#45;&gt;Node9</title>
<g id="a_edge8_Node000008_Node000009"><a xlink:title=" ">
<path fill="none" stroke="#63b8ff" d="M319.67,-54.98C332.27,-46.84 351.5,-34.41 366.44,-24.76"/>
<polygon fill="#63b8ff" stroke="#63b8ff" points="368.59,-27.54 375.09,-19.17 364.79,-21.66 368.59,-27.54"/>
</a>
</g>
</g>
<!-- Node10 -->
<g id="Node000010" class="node">
<title>Node10</title>
<g id="a_Node000010"><a xlink:title=" ">
<polygon fill="#e0e0e0" stroke="#999999" points="333,-19 280,-19 280,0 333,0 333,-19"/>
<text text-anchor="middle" x="306.5" y="-7" font-family="Helvetica,sans-Serif" font-size="10.00">string.h</text>
</a>
</g>
</g>
<!-- Node8&#45;&gt;Node10 -->
<g id="edge9_Node000008_Node000010" class="edge">
<title>Node8&#45;&gt;Node10</title>
<g id="a_edge9_Node000008_Node000010"><a xlink:title=" ">
<path fill="none" stroke="#63b8ff" d="M306.5,-54.75C306.5,-47.8 306.5,-37.85 306.5,-29.13"/>
<polygon fill="#63b8ff" stroke="#63b8ff" points="310,-29.09 306.5,-19.09 303,-29.09 310,-29.09"/>
</a>
</g>
</g>
<!-- Node11&#45;&gt;Node8 -->
<g id="edge12_Node000011_Node000008" class="edge">
<title>Node11&#45;&gt;Node8</title>
<g id="a_edge12_Node000011_Node000008"><a xlink:title=" ">
<path fill="none" stroke="#63b8ff" d="M370.43,-115.37C358.69,-106.21 339.91,-91.56 325.74,-80.51"/>
<polygon fill="#63b8ff" stroke="#63b8ff" points="327.65,-77.56 317.61,-74.17 323.34,-83.08 327.65,-77.56"/>
</a>
</g>
</g>
<!-- Node11&#45;&gt;Node9 -->
<g id="edge11_Node000011_Node000009" class="edge">
<title>Node11&#45;&gt;Node9</title>
<g id="a_edge11_Node000011_Node000009"><a xlink:title=" ">
<path fill="none" stroke="#63b8ff" d="M382.03,-115.47C383.15,-97.23 385.81,-54.07 387.35,-29.14"/>
<polygon fill="#63b8ff" stroke="#63b8ff" points="390.85,-29.33 387.97,-19.13 383.86,-28.9 390.85,-29.33"/>
</a>
</g>
</g>
</g>
</svg>
