<?xml version="1.0" encoding="UTF-8" standalone="no"?>
<!DOCTYPE svg PUBLIC "-//W3C//DTD SVG 1.1//EN"
 "http://www.w3.org/Graphics/SVG/1.1/DTD/svg11.dtd">
<!-- Generated by graphviz version 2.43.0 (0)
 -->
<!-- Title: alps_core/lib_internal/alps_mbed_lib/include/alps_mbed/actuator/odrive_can_func.hpp Pages: 1 -->
<svg width="621pt" height="368pt"
 viewBox="0.00 0.00 621.17 368.00" xmlns="http://www.w3.org/2000/svg" xmlns:xlink="http://www.w3.org/1999/xlink">
<g id="graph0" class="graph" transform="scale(1 1) rotate(0) translate(4 364)">
<title>alps_core/lib_internal/alps_mbed_lib/include/alps_mbed/actuator/odrive_can_func.hpp</title>
<!-- Node1 -->
<g id="Node000001" class="node">
<title>Node1</title>
<g id="a_Node000001"><a xlink:title=" ">
<polygon fill="#999999" stroke="#666666" points="563.5,-360 413.5,-360 413.5,-308 563.5,-308 563.5,-360"/>
<text text-anchor="start" x="421.5" y="-348" font-family="Helvetica,sans-Serif" font-size="10.00">alps_core/lib_internal</text>
<text text-anchor="start" x="421.5" y="-337" font-family="Helvetica,sans-Serif" font-size="10.00">/alps_mbed_lib/include</text>
<text text-anchor="start" x="421.5" y="-326" font-family="Helvetica,sans-Serif" font-size="10.00">/alps_mbed/actuator/odrive</text>
<text text-anchor="middle" x="488.5" y="-315" font-family="Helvetica,sans-Serif" font-size="10.00">_can_func.hpp</text>
</a>
</g>
</g>
<!-- Node2 -->
<g id="Node000002" class="node">
<title>Node2</title>
<g id="a_Node000002"><a xlink:href="odrive__can_8h.html" target="_top" xlink:title=" ">
<polygon fill="white" stroke="#666666" points="332.5,-206 190.5,-206 190.5,-176 332.5,-176 332.5,-206"/>
<text text-anchor="start" x="198.5" y="-194" font-family="Helvetica,sans-Serif" font-size="10.00">alps_cmn/communication</text>
<text text-anchor="middle" x="261.5" y="-183" font-family="Helvetica,sans-Serif" font-size="10.00">/odrive_can.h</text>
</a>
</g>
</g>
<!-- Node1&#45;&gt;Node2 -->
<g id="edge1_Node000001_Node000002" class="edge">
<title>Node1&#45;&gt;Node2</title>
<g id="a_edge1_Node000001_Node000002"><a xlink:title=" ">
<path fill="none" stroke="#63b8ff" d="M413.42,-323.25C353.22,-313.7 275.73,-296.94 256.5,-272 244.4,-256.3 247.31,-233.31 252.28,-215.99"/>
<polygon fill="#63b8ff" stroke="#63b8ff" points="255.74,-216.66 255.52,-206.06 249.09,-214.48 255.74,-216.66"/>
</a>
</g>
</g>
<!-- Node12 -->
<g id="Node000012" class="node">
<title>Node12</title>
<g id="a_Node000012"><a xlink:title=" ">
<polygon fill="#e0e0e0" stroke="#999999" points="541.5,-134.5 491.5,-134.5 491.5,-115.5 541.5,-115.5 541.5,-134.5"/>
<text text-anchor="middle" x="516.5" y="-122.5" font-family="Helvetica,sans-Serif" font-size="10.00">chrono</text>
</a>
</g>
</g>
<!-- Node1&#45;&gt;Node12 -->
<g id="edge21_Node000001_Node000012" class="edge">
<title>Node1&#45;&gt;Node12</title>
<g id="a_edge21_Node000001_Node000012"><a xlink:title=" ">
<path fill="none" stroke="#63b8ff" d="M544.13,-307.89C559.93,-298.53 575.96,-286.56 587.5,-272 606.7,-247.77 604.55,-236.52 609.5,-206 611.64,-192.84 616.34,-187.44 609.5,-176 596.92,-154.95 572.08,-142.24 551.24,-134.91"/>
<polygon fill="#63b8ff" stroke="#63b8ff" points="552.29,-131.57 541.7,-131.82 550.13,-138.23 552.29,-131.57"/>
</a>
</g>
</g>
<!-- Node13 -->
<g id="Node000013" class="node">
<title>Node13</title>
<g id="a_Node000013"><a xlink:href="odrive__can__mbed_8hpp.html" target="_top" xlink:title=" ">
<polygon fill="white" stroke="#666666" points="563,-272 414,-272 414,-242 563,-242 563,-272"/>
<text text-anchor="start" x="422" y="-260" font-family="Helvetica,sans-Serif" font-size="10.00">alps_mbed/communication</text>
<text text-anchor="middle" x="488.5" y="-249" font-family="Helvetica,sans-Serif" font-size="10.00">/odrive_can_mbed.hpp</text>
</a>
</g>
</g>
<!-- Node1&#45;&gt;Node13 -->
<g id="edge14_Node000001_Node000013" class="edge">
<title>Node1&#45;&gt;Node13</title>
<g id="a_edge14_Node000001_Node000013"><a xlink:title=" ">
<path fill="none" stroke="#63b8ff" d="M488.5,-307.61C488.5,-299.54 488.5,-290.64 488.5,-282.63"/>
<polygon fill="#63b8ff" stroke="#63b8ff" points="492,-282.43 488.5,-272.43 485,-282.43 492,-282.43"/>
</a>
</g>
</g>
<!-- Node14 -->
<g id="Node000014" class="node">
<title>Node14</title>
<g id="a_Node000014"><a xlink:title=" ">
<polygon fill="#e0e0e0" stroke="#999999" points="600,-200.5 529,-200.5 529,-181.5 600,-181.5 600,-200.5"/>
<text text-anchor="middle" x="564.5" y="-188.5" font-family="Helvetica,sans-Serif" font-size="10.00">etl/vector.h</text>
</a>
</g>
</g>
<!-- Node1&#45;&gt;Node14 -->
<g id="edge18_Node000001_Node000014" class="edge">
<title>Node1&#45;&gt;Node14</title>
<g id="a_edge18_Node000001_Node000014"><a xlink:title=" ">
<path fill="none" stroke="#63b8ff" d="M538.34,-307.74C551.54,-298.42 564.15,-286.52 571.5,-272 581.21,-252.82 576.68,-227.71 571.54,-210.78"/>
<polygon fill="#63b8ff" stroke="#63b8ff" points="574.75,-209.33 568.22,-200.98 568.12,-211.58 574.75,-209.33"/>
</a>
</g>
</g>
<!-- Node16 -->
<g id="Node000016" class="node">
<title>Node16</title>
<g id="a_Node000016"><a xlink:href="timeout__checker_8hpp.html" target="_top" xlink:title="タイムアウトを検知するクラス">
<polygon fill="white" stroke="#666666" points="395.5,-272 265.5,-272 265.5,-242 395.5,-242 395.5,-272"/>
<text text-anchor="start" x="273.5" y="-260" font-family="Helvetica,sans-Serif" font-size="10.00">alps_cmn/time/timeout</text>
<text text-anchor="middle" x="330.5" y="-249" font-family="Helvetica,sans-Serif" font-size="10.00">_checker.hpp</text>
</a>
</g>
</g>
<!-- Node1&#45;&gt;Node16 -->
<g id="edge19_Node000001_Node000016" class="edge">
<title>Node1&#45;&gt;Node16</title>
<g id="a_edge19_Node000001_Node000016"><a xlink:title=" ">
<path fill="none" stroke="#63b8ff" d="M435.45,-307.82C413.78,-297.53 389.18,-285.85 369.24,-276.39"/>
<polygon fill="#63b8ff" stroke="#63b8ff" points="370.69,-273.2 360.15,-272.08 367.69,-279.53 370.69,-273.2"/>
</a>
</g>
</g>
<!-- Node3 -->
<g id="Node000003" class="node">
<title>Node3</title>
<g id="a_Node000003"><a xlink:href="odrive__enums_8h.html" target="_top" xlink:title=" ">
<polygon fill="white" stroke="#666666" points="95,-134.5 0,-134.5 0,-115.5 95,-115.5 95,-134.5"/>
<text text-anchor="middle" x="47.5" y="-122.5" font-family="Helvetica,sans-Serif" font-size="10.00">odrive_enums.h</text>
</a>
</g>
</g>
<!-- Node2&#45;&gt;Node3 -->
<g id="edge2_Node000002_Node000003" class="edge">
<title>Node2&#45;&gt;Node3</title>
<g id="a_edge2_Node000002_Node000003"><a xlink:title=" ">
<path fill="none" stroke="#63b8ff" d="M214.54,-175.95C175.85,-164.38 121.68,-148.18 85.64,-137.41"/>
<polygon fill="#63b8ff" stroke="#63b8ff" points="86.56,-134.03 75.98,-134.52 84.56,-140.74 86.56,-134.03"/>
</a>
</g>
</g>
<!-- Node4 -->
<g id="Node000004" class="node">
<title>Node4</title>
<g id="a_Node000004"><a xlink:href="logging__macros_8hpp.html" target="_top" xlink:title=" ">
<polygon fill="white" stroke="#666666" points="233.5,-140 113.5,-140 113.5,-110 233.5,-110 233.5,-140"/>
<text text-anchor="start" x="121.5" y="-128" font-family="Helvetica,sans-Serif" font-size="10.00">alps_cmn/log/logging</text>
<text text-anchor="middle" x="173.5" y="-117" font-family="Helvetica,sans-Serif" font-size="10.00">_macros.hpp</text>
</a>
</g>
</g>
<!-- Node2&#45;&gt;Node4 -->
<g id="edge3_Node000002_Node000004" class="edge">
<title>Node2&#45;&gt;Node4</title>
<g id="a_edge3_Node000002_Node000004"><a xlink:title=" ">
<path fill="none" stroke="#63b8ff" d="M241.97,-175.8C230.01,-167.1 214.51,-155.82 201.28,-146.2"/>
<polygon fill="#63b8ff" stroke="#63b8ff" points="203.12,-143.22 192.98,-140.16 199,-148.88 203.12,-143.22"/>
</a>
</g>
</g>
<!-- Node8 -->
<g id="Node000008" class="node">
<title>Node8</title>
<g id="a_Node000008"><a xlink:href="odrive__can__helpers_8hpp.html" target="_top" xlink:title=" ">
<polygon fill="white" stroke="#666666" points="372.5,-74 240.5,-74 240.5,-55 372.5,-55 372.5,-74"/>
<text text-anchor="middle" x="306.5" y="-62" font-family="Helvetica,sans-Serif" font-size="10.00">odrive_can_helpers.hpp</text>
</a>
</g>
</g>
<!-- Node2&#45;&gt;Node8 -->
<g id="edge7_Node000002_Node000008" class="edge">
<title>Node2&#45;&gt;Node8</title>
<g id="a_edge7_Node000002_Node000008"><a xlink:title=" ">
<path fill="none" stroke="#63b8ff" d="M263.58,-175.74C266.25,-159.43 271.64,-132.13 280.5,-110 284.28,-100.57 289.82,-90.75 294.82,-82.74"/>
<polygon fill="#63b8ff" stroke="#63b8ff" points="297.79,-84.59 300.3,-74.3 291.92,-80.78 297.79,-84.59"/>
</a>
</g>
</g>
<!-- Node11 -->
<g id="Node000011" class="node">
<title>Node11</title>
<g id="a_Node000011"><a xlink:href="odrive__can__simple__messages_8hpp.html" target="_top" xlink:title=" ">
<polygon fill="white" stroke="#666666" points="473.5,-134.5 289.5,-134.5 289.5,-115.5 473.5,-115.5 473.5,-134.5"/>
<text text-anchor="middle" x="381.5" y="-122.5" font-family="Helvetica,sans-Serif" font-size="10.00">odrive_can_simple_messages.hpp</text>
</a>
</g>
</g>
<!-- Node2&#45;&gt;Node11 -->
<g id="edge10_Node000002_Node000011" class="edge">
<title>Node2&#45;&gt;Node11</title>
<g id="a_edge10_Node000002_Node000011"><a xlink:title=" ">
<path fill="none" stroke="#63b8ff" d="M287.83,-175.95C308.32,-165.03 336.56,-149.97 356.66,-139.25"/>
<polygon fill="#63b8ff" stroke="#63b8ff" points="358.35,-142.31 365.53,-134.52 355.06,-136.14 358.35,-142.31"/>
</a>
</g>
</g>
<!-- Node2&#45;&gt;Node12 -->
<g id="edge13_Node000002_Node000012" class="edge">
<title>Node2&#45;&gt;Node12</title>
<g id="a_edge13_Node000002_Node000012"><a xlink:title=" ">
<path fill="none" stroke="#63b8ff" d="M332.98,-177C376.65,-168.28 433.37,-155.55 482.5,-140 484.17,-139.47 485.88,-138.89 487.59,-138.28"/>
<polygon fill="#63b8ff" stroke="#63b8ff" points="489.2,-141.41 497.29,-134.57 486.7,-134.88 489.2,-141.41"/>
</a>
</g>
</g>
<!-- Node5 -->
<g id="Node000005" class="node">
<title>Node5</title>
<g id="a_Node000005"><a xlink:href="logger_8hpp.html" target="_top" xlink:title=" ">
<polygon fill="white" stroke="#666666" points="222,-74 87,-74 87,-55 222,-55 222,-74"/>
<text text-anchor="middle" x="154.5" y="-62" font-family="Helvetica,sans-Serif" font-size="10.00">alps_cmn/log/logger.hpp</text>
</a>
</g>
</g>
<!-- Node4&#45;&gt;Node5 -->
<g id="edge4_Node000004_Node000005" class="edge">
<title>Node4&#45;&gt;Node5</title>
<g id="a_edge4_Node000004_Node000005"><a xlink:title=" ">
<path fill="none" stroke="#63b8ff" d="M168.9,-109.84C166.37,-102.04 163.19,-92.27 160.47,-83.89"/>
<polygon fill="#63b8ff" stroke="#63b8ff" points="163.76,-82.7 157.35,-74.27 157.11,-84.86 163.76,-82.7"/>
</a>
</g>
</g>
<!-- Node6 -->
<g id="Node000006" class="node">
<title>Node6</title>
<g id="a_Node000006"><a xlink:title=" ">
<polygon fill="#e0e0e0" stroke="#999999" points="138.5,-19 54.5,-19 54.5,0 138.5,0 138.5,-19"/>
<text text-anchor="middle" x="96.5" y="-7" font-family="Helvetica,sans-Serif" font-size="10.00">etl/delegate.h</text>
</a>
</g>
</g>
<!-- Node5&#45;&gt;Node6 -->
<g id="edge5_Node000005_Node000006" class="edge">
<title>Node5&#45;&gt;Node6</title>
<g id="a_edge5_Node000005_Node000006"><a xlink:title=" ">
<path fill="none" stroke="#63b8ff" d="M145.18,-54.98C136.69,-47.23 123.94,-35.58 113.62,-26.14"/>
<polygon fill="#63b8ff" stroke="#63b8ff" points="115.73,-23.33 105.99,-19.17 111.01,-28.5 115.73,-23.33"/>
</a>
</g>
</g>
<!-- Node7 -->
<g id="Node000007" class="node">
<title>Node7</title>
<g id="a_Node000007"><a xlink:title=" ">
<polygon fill="#e0e0e0" stroke="#999999" points="226,-19 157,-19 157,0 226,0 226,-19"/>
<text text-anchor="middle" x="191.5" y="-7" font-family="Helvetica,sans-Serif" font-size="10.00">etl/string.h</text>
</a>
</g>
</g>
<!-- Node5&#45;&gt;Node7 -->
<g id="edge6_Node000005_Node000007" class="edge">
<title>Node5&#45;&gt;Node7</title>
<g id="a_edge6_Node000005_Node000007"><a xlink:title=" ">
<path fill="none" stroke="#63b8ff" d="M160.61,-54.75C165.78,-47.34 173.35,-36.5 179.69,-27.41"/>
<polygon fill="#63b8ff" stroke="#63b8ff" points="182.65,-29.29 185.5,-19.09 176.91,-25.29 182.65,-29.29"/>
</a>
</g>
</g>
<!-- Node9 -->
<g id="Node000009" class="node">
<title>Node9</title>
<g id="a_Node000009"><a xlink:title=" ">
<polygon fill="#e0e0e0" stroke="#999999" points="415,-19 362,-19 362,0 415,0 415,-19"/>
<text text-anchor="middle" x="388.5" y="-7" font-family="Helvetica,sans-Serif" font-size="10.00">stdint.h</text>
</a>
</g>
</g>
<!-- Node8&#45;&gt;Node9 -->
<g id="edge8_Node000008_Node000009" class="edge">
<title>Node8&#45;&gt;Node9</title>
<g id="a_edge8_Node000008_Node000009"><a xlink:title=" ">
<path fill="none" stroke="#63b8ff" d="M319.67,-54.98C332.27,-46.84 351.5,-34.41 366.44,-24.76"/>
<polygon fill="#63b8ff" stroke="#63b8ff" points="368.59,-27.54 375.09,-19.17 364.79,-21.66 368.59,-27.54"/>
</a>
</g>
</g>
<!-- Node10 -->
<g id="Node000010" class="node">
<title>Node10</title>
<g id="a_Node000010"><a xlink:title=" ">
<polygon fill="#e0e0e0" stroke="#999999" points="333,-19 280,-19 280,0 333,0 333,-19"/>
<text text-anchor="middle" x="306.5" y="-7" font-family="Helvetica,sans-Serif" font-size="10.00">string.h</text>
</a>
</g>
</g>
<!-- Node8&#45;&gt;Node10 -->
<g id="edge9_Node000008_Node000010" class="edge">
<title>Node8&#45;&gt;Node10</title>
<g id="a_edge9_Node000008_Node000010"><a xlink:title=" ">
<path fill="none" stroke="#63b8ff" d="M306.5,-54.75C306.5,-47.8 306.5,-37.85 306.5,-29.13"/>
<polygon fill="#63b8ff" stroke="#63b8ff" points="310,-29.09 306.5,-19.09 303,-29.09 310,-29.09"/>
</a>
</g>
</g>
<!-- Node11&#45;&gt;Node8 -->
<g id="edge12_Node000011_Node000008" class="edge">
<title>Node11&#45;&gt;Node8</title>
<g id="a_edge12_Node000011_Node000008"><a xlink:title=" ">
<path fill="none" stroke="#63b8ff" d="M370.43,-115.37C358.69,-106.21 339.91,-91.56 325.74,-80.51"/>
<polygon fill="#63b8ff" stroke="#63b8ff" points="327.65,-77.56 317.61,-74.17 323.34,-83.08 327.65,-77.56"/>
</a>
</g>
</g>
<!-- Node11&#45;&gt;Node9 -->
<g id="edge11_Node000011_Node000009" class="edge">
<title>Node11&#45;&gt;Node9</title>
<g id="a_edge11_Node000011_Node000009"><a xlink:title=" ">
<path fill="none" stroke="#63b8ff" d="M382.03,-115.47C383.15,-97.23 385.81,-54.07 387.35,-29.14"/>
<polygon fill="#63b8ff" stroke="#63b8ff" points="390.85,-29.33 387.97,-19.13 383.86,-28.9 390.85,-29.33"/>
</a>
</g>
</g>
<!-- Node13&#45;&gt;Node2 -->
<g id="edge15_Node000013_Node000002" class="edge">
<title>Node13&#45;&gt;Node2</title>
<g id="a_edge15_Node000013_Node000002"><a xlink:title=" ">
<path fill="none" stroke="#63b8ff" d="M438.68,-241.95C404.09,-232.2 357.82,-219.16 321.24,-208.84"/>
<polygon fill="#63b8ff" stroke="#63b8ff" points="321.77,-205.36 311.2,-206.01 319.87,-212.09 321.77,-205.36"/>
</a>
</g>
</g>
<!-- Node13&#45;&gt;Node14 -->
<g id="edge16_Node000013_Node000014" class="edge">
<title>Node13&#45;&gt;Node14</title>
<g id="a_edge16_Node000013_Node000014"><a xlink:title=" ">
<path fill="none" stroke="#63b8ff" d="M505.37,-241.8C517.45,-231.62 533.71,-217.93 546.12,-207.48"/>
<polygon fill="#63b8ff" stroke="#63b8ff" points="548.6,-209.96 554,-200.84 544.09,-204.61 548.6,-209.96"/>
</a>
</g>
</g>
<!-- Node15 -->
<g id="Node000015" class="node">
<title>Node15</title>
<g id="a_Node000015"><a xlink:title=" ">
<polygon fill="#e0e0e0" stroke="#999999" points="511,-200.5 458,-200.5 458,-181.5 511,-181.5 511,-200.5"/>
<text text-anchor="middle" x="484.5" y="-188.5" font-family="Helvetica,sans-Serif" font-size="10.00">mbed.h</text>
</a>
</g>
</g>
<!-- Node13&#45;&gt;Node15 -->
<g id="edge17_Node000013_Node000015" class="edge">
<title>Node13&#45;&gt;Node15</title>
<g id="a_edge17_Node000013_Node000015"><a xlink:title=" ">
<path fill="none" stroke="#63b8ff" d="M487.61,-241.8C487.04,-232.7 486.3,-220.79 485.68,-210.9"/>
<polygon fill="#63b8ff" stroke="#63b8ff" points="489.17,-210.61 485.05,-200.84 482.18,-211.04 489.17,-210.61"/>
</a>
</g>
</g>
<!-- Node16&#45;&gt;Node12 -->
<g id="edge20_Node000016_Node000012" class="edge">
<title>Node16&#45;&gt;Node12</title>
<g id="a_edge20_Node000016_Node000012"><a xlink:title=" ">
<path fill="none" stroke="#63b8ff" d="M350.76,-241.84C386.35,-216.97 459.72,-165.69 495.69,-140.55"/>
<polygon fill="#63b8ff" stroke="#63b8ff" points="497.79,-143.35 503.98,-134.75 493.78,-137.61 497.79,-143.35"/>
</a>
</g>
</g>
</g>
</svg>
