<?xml version="1.0" encoding="UTF-8" standalone="no"?>
<!DOCTYPE svg PUBLIC "-//W3C//DTD SVG 1.1//EN"
 "http://www.w3.org/Graphics/SVG/1.1/DTD/svg11.dtd">
<!-- Generated by graphviz version 2.43.0 (0)
 -->
<!-- Title: alps_core/lib_internal/alps_common_lib/include/alps_cmn/time/one_shot_polling_timer.hpp Pages: 1 -->
<svg width="252pt" height="184pt"
 viewBox="0.00 0.00 252.32 184.00" xmlns="http://www.w3.org/2000/svg" xmlns:xlink="http://www.w3.org/1999/xlink">
<g id="graph0" class="graph" transform="scale(1 1) rotate(0) translate(4 180)">
<title>alps_core/lib_internal/alps_common_lib/include/alps_cmn/time/one_shot_polling_timer.hpp</title>
<polygon fill="white" stroke="transparent" points="-4,4 -4,-180 248.32,-180 248.32,4 -4,4"/>
<!-- Node1 -->
<g id="node1" class="node">
<title>Node1</title>
<g id="a_node1"><a xlink:title="1回だけ実行するポーリングタイマー">
<polygon fill="#bfbfbf" stroke="black" points="5.82,-123.5 5.82,-175.5 148.82,-175.5 148.82,-123.5 5.82,-123.5"/>
<text text-anchor="start" x="13.82" y="-163.5" font-family="Helvetica,sans-Serif" font-size="10.00">alps_core/lib_internal</text>
<text text-anchor="start" x="13.82" y="-152.5" font-family="Helvetica,sans-Serif" font-size="10.00">/alps_common_lib/include</text>
<text text-anchor="start" x="13.82" y="-141.5" font-family="Helvetica,sans-Serif" font-size="10.00">/alps_cmn/time/one_shot</text>
<text text-anchor="middle" x="77.32" y="-130.5" font-family="Helvetica,sans-Serif" font-size="10.00">_polling_timer.hpp</text>
</a>
</g>
</g>
<!-- Node2 -->
<g id="node2" class="node">
<title>Node2</title>
<g id="a_node2"><a xlink:title=" ">
<polygon fill="white" stroke="#bfbfbf" points="5.32,-0.5 5.32,-19.5 55.32,-19.5 55.32,-0.5 5.32,-0.5"/>
<text text-anchor="middle" x="30.32" y="-7.5" font-family="Helvetica,sans-Serif" font-size="10.00">chrono</text>
</a>
</g>
</g>
<!-- Node1&#45;&gt;Node2 -->
<g id="edge1" class="edge">
<title>Node1&#45;&gt;Node2</title>
<path fill="none" stroke="midnightblue" d="M34.72,-123.47C22.24,-113.8 10.13,-101.52 3.32,-87 -5.92,-67.29 6.02,-43.49 16.83,-27.83"/>
<polygon fill="midnightblue" stroke="midnightblue" points="19.75,-29.77 22.89,-19.65 14.12,-25.6 19.75,-29.77"/>
</g>
<!-- Node3 -->
<g id="node3" class="node">
<title>Node3</title>
<g id="a_node3"><a xlink:href="timeout__checker_8hpp.html" target="_top" xlink:title="タイムアウトを検知するクラス">
<polygon fill="white" stroke="black" points="12.32,-56.5 12.32,-86.5 142.32,-86.5 142.32,-56.5 12.32,-56.5"/>
<text text-anchor="start" x="20.32" y="-74.5" font-family="Helvetica,sans-Serif" font-size="10.00">alps_cmn/time/timeout</text>
<text text-anchor="middle" x="77.32" y="-63.5" font-family="Helvetica,sans-Serif" font-size="10.00">_checker.hpp</text>
</a>
</g>
</g>
<!-- Node1&#45;&gt;Node3 -->
<g id="edge2" class="edge">
<title>Node1&#45;&gt;Node3</title>
<path fill="none" stroke="midnightblue" d="M77.32,-123.19C77.32,-114.79 77.32,-105.44 77.32,-97.09"/>
<polygon fill="midnightblue" stroke="midnightblue" points="80.82,-96.85 77.32,-86.85 73.82,-96.85 80.82,-96.85"/>
</g>
<!-- Node4 -->
<g id="node4" class="node">
<title>Node4</title>
<g id="a_node4"><a xlink:title=" ">
<polygon fill="white" stroke="#bfbfbf" points="160.32,-62 160.32,-81 244.32,-81 244.32,-62 160.32,-62"/>
<text text-anchor="middle" x="202.32" y="-69" font-family="Helvetica,sans-Serif" font-size="10.00">etl/delegate.h</text>
</a>
</g>
</g>
<!-- Node1&#45;&gt;Node4 -->
<g id="edge4" class="edge">
<title>Node1&#45;&gt;Node4</title>
<path fill="none" stroke="midnightblue" d="M118.6,-123.4C138.88,-111.07 162.54,-96.69 179.53,-86.36"/>
<polygon fill="midnightblue" stroke="midnightblue" points="181.49,-89.26 188.21,-81.08 177.85,-83.28 181.49,-89.26"/>
</g>
<!-- Node3&#45;&gt;Node2 -->
<g id="edge3" class="edge">
<title>Node3&#45;&gt;Node2</title>
<path fill="none" stroke="midnightblue" d="M66.18,-56.4C59.35,-47.75 50.58,-36.64 43.42,-27.58"/>
<polygon fill="midnightblue" stroke="midnightblue" points="46.11,-25.34 37.16,-19.66 40.61,-29.67 46.11,-25.34"/>
</g>
</g>
</svg>
