<?xml version="1.0" encoding="UTF-8" standalone="no"?>
<!DOCTYPE svg PUBLIC "-//W3C//DTD SVG 1.1//EN"
 "http://www.w3.org/Graphics/SVG/1.1/DTD/svg11.dtd">
<!-- Generated by graphviz version 2.43.0 (0)
 -->
<!-- Title: alps_core/lib_internal/alps_common_lib/include/alps_cmn/actuator/output_change_limit_motor_decorator.hpp Pages: 1 -->
<svg width="527pt" height="251pt"
 viewBox="0.00 0.00 527.00 251.00" xmlns="http://www.w3.org/2000/svg" xmlns:xlink="http://www.w3.org/1999/xlink">
<g id="graph0" class="graph" transform="scale(1 1) rotate(0) translate(4 247)">
<title>alps_core/lib_internal/alps_common_lib/include/alps_cmn/actuator/output_change_limit_motor_decorator.hpp</title>
<polygon fill="white" stroke="transparent" points="-4,4 -4,-247 523,-247 523,4 -4,4"/>
<!-- Node1 -->
<g id="node1" class="node">
<title>Node1</title>
<g id="a_node1"><a xlink:title="出力変化制限を掛けるモーターデコレータ">
<polygon fill="#bfbfbf" stroke="black" points="153,-190.5 153,-242.5 344,-242.5 344,-190.5 153,-190.5"/>
<text text-anchor="start" x="161" y="-230.5" font-family="Helvetica,sans-Serif" font-size="10.00">alps_core/lib_internal</text>
<text text-anchor="start" x="161" y="-219.5" font-family="Helvetica,sans-Serif" font-size="10.00">/alps_common_lib/include</text>
<text text-anchor="start" x="161" y="-208.5" font-family="Helvetica,sans-Serif" font-size="10.00">/alps_cmn/actuator/output</text>
<text text-anchor="middle" x="248.5" y="-197.5" font-family="Helvetica,sans-Serif" font-size="10.00">_change_limit_motor_decorator.hpp</text>
</a>
</g>
</g>
<!-- Node2 -->
<g id="node2" class="node">
<title>Node2</title>
<g id="a_node2"><a xlink:href="i__motor_8hpp.html" target="_top" xlink:title=" ">
<polygon fill="white" stroke="black" points="0,-123.5 0,-153.5 113,-153.5 113,-123.5 0,-123.5"/>
<text text-anchor="start" x="8" y="-141.5" font-family="Helvetica,sans-Serif" font-size="10.00">alps_cmn/actuator/i</text>
<text text-anchor="middle" x="56.5" y="-130.5" font-family="Helvetica,sans-Serif" font-size="10.00">_motor.hpp</text>
</a>
</g>
</g>
<!-- Node1&#45;&gt;Node2 -->
<g id="edge1" class="edge">
<title>Node1&#45;&gt;Node2</title>
<path fill="none" stroke="midnightblue" d="M185.1,-190.4C157.81,-179.6 126.53,-167.22 101.66,-157.37"/>
<polygon fill="midnightblue" stroke="midnightblue" points="102.7,-154.02 92.11,-153.6 100.12,-160.53 102.7,-154.02"/>
</g>
<!-- Node3 -->
<g id="node3" class="node">
<title>Node3</title>
<g id="a_node3"><a xlink:href="change__rate__limiter_8hpp.html" target="_top" xlink:title="時間あたりの変化量に制限をかけるクラス">
<polygon fill="white" stroke="black" points="131.5,-123.5 131.5,-153.5 269.5,-153.5 269.5,-123.5 131.5,-123.5"/>
<text text-anchor="start" x="139.5" y="-141.5" font-family="Helvetica,sans-Serif" font-size="10.00">alps_cmn/control/change</text>
<text text-anchor="middle" x="200.5" y="-130.5" font-family="Helvetica,sans-Serif" font-size="10.00">_rate_limiter.hpp</text>
</a>
</g>
</g>
<!-- Node1&#45;&gt;Node3 -->
<g id="edge2" class="edge">
<title>Node1&#45;&gt;Node3</title>
<path fill="none" stroke="midnightblue" d="M232.52,-190.19C226.85,-181.22 220.51,-171.18 214.97,-162.42"/>
<polygon fill="midnightblue" stroke="midnightblue" points="217.86,-160.43 209.56,-153.85 211.94,-164.17 217.86,-160.43"/>
</g>
<!-- Node6 -->
<g id="node6" class="node">
<title>Node6</title>
<g id="a_node6"><a xlink:href="numeric__range_8hpp.html" target="_top" xlink:title="数値の範囲を扱うクラス">
<polygon fill="white" stroke="black" points="265,-56.5 265,-86.5 390,-86.5 390,-56.5 265,-56.5"/>
<text text-anchor="start" x="273" y="-74.5" font-family="Helvetica,sans-Serif" font-size="10.00">alps_cmn/util/numeric</text>
<text text-anchor="middle" x="327.5" y="-63.5" font-family="Helvetica,sans-Serif" font-size="10.00">_range.hpp</text>
</a>
</g>
</g>
<!-- Node1&#45;&gt;Node6 -->
<g id="edge10" class="edge">
<title>Node1&#45;&gt;Node6</title>
<path fill="none" stroke="midnightblue" d="M262.44,-190.26C277.28,-163.41 300.54,-121.31 314.85,-95.39"/>
<polygon fill="midnightblue" stroke="midnightblue" points="317.92,-97.08 319.69,-86.63 311.79,-93.69 317.92,-97.08"/>
</g>
<!-- Node10 -->
<g id="node10" class="node">
<title>Node10</title>
<g id="a_node10"><a xlink:title=" ">
<polygon fill="white" stroke="#bfbfbf" points="325.5,-129 325.5,-148 409.5,-148 409.5,-129 325.5,-129"/>
<text text-anchor="middle" x="367.5" y="-136" font-family="Helvetica,sans-Serif" font-size="10.00">etl/delegate.h</text>
</a>
</g>
</g>
<!-- Node1&#45;&gt;Node10 -->
<g id="edge11" class="edge">
<title>Node1&#45;&gt;Node10</title>
<path fill="none" stroke="midnightblue" d="M287.79,-190.4C306.92,-178.19 329.21,-163.95 345.35,-153.65"/>
<polygon fill="midnightblue" stroke="midnightblue" points="347.52,-156.41 354.07,-148.08 343.76,-150.51 347.52,-156.41"/>
</g>
<!-- Node4 -->
<g id="node4" class="node">
<title>Node4</title>
<g id="a_node4"><a xlink:title=" ">
<polygon fill="white" stroke="#bfbfbf" points="93.5,-0.5 93.5,-19.5 143.5,-19.5 143.5,-0.5 93.5,-0.5"/>
<text text-anchor="middle" x="118.5" y="-7.5" font-family="Helvetica,sans-Serif" font-size="10.00">chrono</text>
</a>
</g>
</g>
<!-- Node3&#45;&gt;Node4 -->
<g id="edge3" class="edge">
<title>Node3&#45;&gt;Node4</title>
<path fill="none" stroke="midnightblue" d="M134.14,-123.41C114.86,-115.91 95.94,-104.45 84.5,-87 71.95,-67.85 87.95,-43.3 101.97,-27.37"/>
<polygon fill="midnightblue" stroke="midnightblue" points="104.68,-29.59 108.96,-19.9 99.57,-24.81 104.68,-29.59"/>
</g>
<!-- Node5 -->
<g id="node5" class="node">
<title>Node5</title>
<g id="a_node5"><a xlink:href="duration_8hpp.html" target="_top" xlink:title="時間間隔の型エイリアス">
<polygon fill="white" stroke="black" points="94,-62 94,-81 247,-81 247,-62 94,-62"/>
<text text-anchor="middle" x="170.5" y="-69" font-family="Helvetica,sans-Serif" font-size="10.00">alps_cmn/time/duration.hpp</text>
</a>
</g>
</g>
<!-- Node3&#45;&gt;Node5 -->
<g id="edge4" class="edge">
<title>Node3&#45;&gt;Node5</title>
<path fill="none" stroke="midnightblue" d="M193.99,-123.4C189.54,-113.76 183.61,-100.91 178.82,-90.54"/>
<polygon fill="midnightblue" stroke="midnightblue" points="181.88,-88.81 174.51,-81.19 175.53,-91.74 181.88,-88.81"/>
</g>
<!-- Node3&#45;&gt;Node6 -->
<g id="edge6" class="edge">
<title>Node3&#45;&gt;Node6</title>
<path fill="none" stroke="midnightblue" d="M228.06,-123.4C246.45,-113.98 270.83,-101.5 290.85,-91.26"/>
<polygon fill="midnightblue" stroke="midnightblue" points="292.69,-94.25 300,-86.58 289.5,-88.02 292.69,-94.25"/>
</g>
<!-- Node5&#45;&gt;Node4 -->
<g id="edge5" class="edge">
<title>Node5&#45;&gt;Node4</title>
<path fill="none" stroke="midnightblue" d="M163.05,-61.98C155.17,-52.96 142.56,-38.52 132.76,-27.31"/>
<polygon fill="midnightblue" stroke="midnightblue" points="135.15,-24.74 125.94,-19.51 129.88,-29.34 135.15,-24.74"/>
</g>
<!-- Node7 -->
<g id="node7" class="node">
<title>Node7</title>
<g id="a_node7"><a xlink:title=" ">
<polygon fill="white" stroke="#bfbfbf" points="244.5,-0.5 244.5,-19.5 288.5,-19.5 288.5,-0.5 244.5,-0.5"/>
<text text-anchor="middle" x="266.5" y="-7.5" font-family="Helvetica,sans-Serif" font-size="10.00">limits</text>
</a>
</g>
</g>
<!-- Node6&#45;&gt;Node7 -->
<g id="edge7" class="edge">
<title>Node6&#45;&gt;Node7</title>
<path fill="none" stroke="midnightblue" d="M313.04,-56.4C303.91,-47.49 292.08,-35.95 282.64,-26.74"/>
<polygon fill="midnightblue" stroke="midnightblue" points="284.98,-24.13 275.38,-19.66 280.09,-29.15 284.98,-24.13"/>
</g>
<!-- Node8 -->
<g id="node8" class="node">
<title>Node8</title>
<g id="a_node8"><a xlink:title=" ">
<polygon fill="white" stroke="#bfbfbf" points="307,-0.5 307,-19.5 348,-19.5 348,-0.5 307,-0.5"/>
<text text-anchor="middle" x="327.5" y="-7.5" font-family="Helvetica,sans-Serif" font-size="10.00">tuple</text>
</a>
</g>
</g>
<!-- Node6&#45;&gt;Node8 -->
<g id="edge8" class="edge">
<title>Node6&#45;&gt;Node8</title>
<path fill="none" stroke="midnightblue" d="M327.5,-56.4C327.5,-48.47 327.5,-38.46 327.5,-29.86"/>
<polygon fill="midnightblue" stroke="midnightblue" points="331,-29.66 327.5,-19.66 324,-29.66 331,-29.66"/>
</g>
<!-- Node9 -->
<g id="node9" class="node">
<title>Node9</title>
<g id="a_node9"><a xlink:href="algorithm_8hpp.html" target="_top" xlink:title=" ">
<polygon fill="white" stroke="black" points="366,-0.5 366,-19.5 519,-19.5 519,-0.5 366,-0.5"/>
<text text-anchor="middle" x="442.5" y="-7.5" font-family="Helvetica,sans-Serif" font-size="10.00">alps_cmn/util/algorithm.hpp</text>
</a>
</g>
</g>
<!-- Node6&#45;&gt;Node9 -->
<g id="edge9" class="edge">
<title>Node6&#45;&gt;Node9</title>
<path fill="none" stroke="midnightblue" d="M354.75,-56.4C373.53,-46.68 398.33,-33.86 416.77,-24.31"/>
<polygon fill="midnightblue" stroke="midnightblue" points="418.49,-27.36 425.77,-19.66 415.28,-21.14 418.49,-27.36"/>
</g>
</g>
</svg>
