<?xml version="1.0" encoding="UTF-8" standalone="no"?>
<!DOCTYPE svg PUBLIC "-//W3C//DTD SVG 1.1//EN"
 "http://www.w3.org/Graphics/SVG/1.1/DTD/svg11.dtd">
<!-- Generated by graphviz version 2.43.0 (0)
 -->
<!-- Title: alps_common_lib/include/alps_cmn/actuator/output_change_limit_motor_decorator.hpp Pages: 1 -->
<svg width="444pt" height="240pt"
 viewBox="0.00 0.00 444.00 240.00" xmlns="http://www.w3.org/2000/svg" xmlns:xlink="http://www.w3.org/1999/xlink">
<g id="graph0" class="graph" transform="scale(1 1) rotate(0) translate(4 236)">
<title>alps_common_lib/include/alps_cmn/actuator/output_change_limit_motor_decorator.hpp</title>
<polygon fill="white" stroke="transparent" points="-4,4 -4,-236 440,-236 440,4 -4,4"/>
<!-- Node1 -->
<g id="node1" class="node">
<title>Node1</title>
<g id="a_node1"><a xlink:title="出力変化制限を掛けるモーターデコレータ">
<polygon fill="#bfbfbf" stroke="black" points="153,-190.5 153,-231.5 344,-231.5 344,-190.5 153,-190.5"/>
<text text-anchor="start" x="161" y="-219.5" font-family="Helvetica,sans-Serif" font-size="10.00">alps_common_lib/include</text>
<text text-anchor="start" x="161" y="-208.5" font-family="Helvetica,sans-Serif" font-size="10.00">/alps_cmn/actuator/output</text>
<text text-anchor="middle" x="248.5" y="-197.5" font-family="Helvetica,sans-Serif" font-size="10.00">_change_limit_motor_decorator.hpp</text>
</a>
</g>
</g>
<!-- Node2 -->
<g id="node2" class="node">
<title>Node2</title>
<g id="a_node2"><a xlink:href="i__motor_8hpp.html" target="_top" xlink:title=" ">
<polygon fill="white" stroke="black" points="0,-123.5 0,-153.5 113,-153.5 113,-123.5 0,-123.5"/>
<text text-anchor="start" x="8" y="-141.5" font-family="Helvetica,sans-Serif" font-size="10.00">alps_cmn/actuator/i</text>
<text text-anchor="middle" x="56.5" y="-130.5" font-family="Helvetica,sans-Serif" font-size="10.00">_motor.hpp</text>
</a>
</g>
</g>
<!-- Node1&#45;&gt;Node2 -->
<g id="edge1" class="edge">
<title>Node1&#45;&gt;Node2</title>
<path fill="none" stroke="midnightblue" d="M195.27,-190.46C166.78,-179.99 131.97,-167.21 104.34,-157.07"/>
<polygon fill="midnightblue" stroke="midnightblue" points="105.48,-153.76 94.89,-153.6 103.07,-160.33 105.48,-153.76"/>
</g>
<!-- Node3 -->
<g id="node3" class="node">
<title>Node3</title>
<g id="a_node3"><a xlink:href="change__rate__limiter_8hpp.html" target="_top" xlink:title="時間あたりの変化量に制限をかけるクラス">
<polygon fill="white" stroke="black" points="131.5,-123.5 131.5,-153.5 269.5,-153.5 269.5,-123.5 131.5,-123.5"/>
<text text-anchor="start" x="139.5" y="-141.5" font-family="Helvetica,sans-Serif" font-size="10.00">alps_cmn/control/change</text>
<text text-anchor="middle" x="200.5" y="-130.5" font-family="Helvetica,sans-Serif" font-size="10.00">_rate_limiter.hpp</text>
</a>
</g>
</g>
<!-- Node1&#45;&gt;Node3 -->
<g id="edge2" class="edge">
<title>Node1&#45;&gt;Node3</title>
<path fill="none" stroke="midnightblue" d="M235.13,-190.36C229.22,-181.68 222.24,-171.42 216.09,-162.4"/>
<polygon fill="midnightblue" stroke="midnightblue" points="218.82,-160.19 210.3,-153.89 213.03,-164.13 218.82,-160.19"/>
</g>
<!-- Node6 -->
<g id="node6" class="node">
<title>Node6</title>
<g id="a_node6"><a xlink:href="numeric__range_8hpp.html" target="_top" xlink:title="数値の範囲を扱うクラス">
<polygon fill="white" stroke="black" points="265,-56.5 265,-86.5 390,-86.5 390,-56.5 265,-56.5"/>
<text text-anchor="start" x="273" y="-74.5" font-family="Helvetica,sans-Serif" font-size="10.00">alps_cmn/util/numeric</text>
<text text-anchor="middle" x="327.5" y="-63.5" font-family="Helvetica,sans-Serif" font-size="10.00">_range.hpp</text>
</a>
</g>
</g>
<!-- Node1&#45;&gt;Node6 -->
<g id="edge9" class="edge">
<title>Node1&#45;&gt;Node6</title>
<path fill="none" stroke="midnightblue" d="M259.82,-190.3C274.18,-165.3 298.92,-122.25 314.18,-95.69"/>
<polygon fill="midnightblue" stroke="midnightblue" points="317.39,-97.13 319.33,-86.72 311.32,-93.64 317.39,-97.13"/>
</g>
<!-- Node9 -->
<g id="node9" class="node">
<title>Node9</title>
<g id="a_node9"><a xlink:title=" ">
<polygon fill="white" stroke="#bfbfbf" points="325.5,-129 325.5,-148 409.5,-148 409.5,-129 325.5,-129"/>
<text text-anchor="middle" x="367.5" y="-136" font-family="Helvetica,sans-Serif" font-size="10.00">etl/delegate.h</text>
</a>
</g>
</g>
<!-- Node1&#45;&gt;Node9 -->
<g id="edge10" class="edge">
<title>Node1&#45;&gt;Node9</title>
<path fill="none" stroke="midnightblue" d="M281.65,-190.36C301.56,-178.57 326.41,-163.85 344.24,-153.28"/>
<polygon fill="midnightblue" stroke="midnightblue" points="346.04,-156.28 352.86,-148.17 342.47,-150.26 346.04,-156.28"/>
</g>
<!-- Node4 -->
<g id="node4" class="node">
<title>Node4</title>
<g id="a_node4"><a xlink:title=" ">
<polygon fill="white" stroke="#bfbfbf" points="112.5,-0.5 112.5,-19.5 162.5,-19.5 162.5,-0.5 112.5,-0.5"/>
<text text-anchor="middle" x="137.5" y="-7.5" font-family="Helvetica,sans-Serif" font-size="10.00">chrono</text>
</a>
</g>
</g>
<!-- Node3&#45;&gt;Node4 -->
<g id="edge3" class="edge">
<title>Node3&#45;&gt;Node4</title>
<path fill="none" stroke="midnightblue" d="M134.14,-123.41C114.86,-115.91 95.94,-104.45 84.5,-87 76.95,-75.48 78.71,-68.5 84.5,-56 90.42,-43.21 101.97,-32.72 112.78,-25.1"/>
<polygon fill="midnightblue" stroke="midnightblue" points="114.71,-28.02 121.17,-19.61 110.88,-22.16 114.71,-28.02"/>
</g>
<!-- Node5 -->
<g id="node5" class="node">
<title>Node5</title>
<g id="a_node5"><a xlink:href="duration_8hpp.html" target="_top" xlink:title="時間間隔の型エイリアス">
<polygon fill="white" stroke="black" points="94,-62 94,-81 247,-81 247,-62 94,-62"/>
<text text-anchor="middle" x="170.5" y="-69" font-family="Helvetica,sans-Serif" font-size="10.00">alps_cmn/time/duration.hpp</text>
</a>
</g>
</g>
<!-- Node3&#45;&gt;Node5 -->
<g id="edge4" class="edge">
<title>Node3&#45;&gt;Node5</title>
<path fill="none" stroke="midnightblue" d="M193.99,-123.4C189.54,-113.76 183.61,-100.91 178.82,-90.54"/>
<polygon fill="midnightblue" stroke="midnightblue" points="181.88,-88.81 174.51,-81.19 175.53,-91.74 181.88,-88.81"/>
</g>
<!-- Node3&#45;&gt;Node6 -->
<g id="edge6" class="edge">
<title>Node3&#45;&gt;Node6</title>
<path fill="none" stroke="midnightblue" d="M228.06,-123.4C246.45,-113.98 270.83,-101.5 290.85,-91.26"/>
<polygon fill="midnightblue" stroke="midnightblue" points="292.69,-94.25 300,-86.58 289.5,-88.02 292.69,-94.25"/>
</g>
<!-- Node5&#45;&gt;Node4 -->
<g id="edge5" class="edge">
<title>Node5&#45;&gt;Node4</title>
<path fill="none" stroke="midnightblue" d="M165.77,-61.98C160.92,-53.23 153.23,-39.37 147.1,-28.31"/>
<polygon fill="midnightblue" stroke="midnightblue" points="150.13,-26.56 142.22,-19.51 144.01,-29.95 150.13,-26.56"/>
</g>
<!-- Node7 -->
<g id="node7" class="node">
<title>Node7</title>
<g id="a_node7"><a xlink:title=" ">
<polygon fill="white" stroke="#bfbfbf" points="220.5,-0.5 220.5,-19.5 264.5,-19.5 264.5,-0.5 220.5,-0.5"/>
<text text-anchor="middle" x="242.5" y="-7.5" font-family="Helvetica,sans-Serif" font-size="10.00">limits</text>
</a>
</g>
</g>
<!-- Node6&#45;&gt;Node7 -->
<g id="edge7" class="edge">
<title>Node6&#45;&gt;Node7</title>
<path fill="none" stroke="midnightblue" d="M307.36,-56.4C294.11,-47.13 276.82,-35.03 263.42,-25.65"/>
<polygon fill="midnightblue" stroke="midnightblue" points="265.07,-22.53 254.87,-19.66 261.05,-28.26 265.07,-22.53"/>
</g>
<!-- Node8 -->
<g id="node8" class="node">
<title>Node8</title>
<g id="a_node8"><a xlink:href="algorithm_8hpp.html" target="_top" xlink:title=" ">
<polygon fill="white" stroke="black" points="283,-0.5 283,-19.5 436,-19.5 436,-0.5 283,-0.5"/>
<text text-anchor="middle" x="359.5" y="-7.5" font-family="Helvetica,sans-Serif" font-size="10.00">alps_cmn/util/algorithm.hpp</text>
</a>
</g>
</g>
<!-- Node6&#45;&gt;Node8 -->
<g id="edge8" class="edge">
<title>Node6&#45;&gt;Node8</title>
<path fill="none" stroke="midnightblue" d="M335.08,-56.4C339.54,-48.11 345.22,-37.55 349.98,-28.71"/>
<polygon fill="midnightblue" stroke="midnightblue" points="353.19,-30.12 354.84,-19.66 347.02,-26.81 353.19,-30.12"/>
</g>
</g>
</svg>
