<?xml version="1.0" encoding="UTF-8" standalone="no"?>
<!DOCTYPE svg PUBLIC "-//W3C//DTD SVG 1.1//EN"
 "http://www.w3.org/Graphics/SVG/1.1/DTD/svg11.dtd">
<!-- Generated by graphviz version 2.43.0 (0)
 -->
<!-- Title: alps_core/lib_internal/alps_ros2_lib/include/alps_ros2/type/param_converter.hpp Pages: 1 -->
<svg width="811pt" height="170pt"
 viewBox="0.00 0.00 811.00 170.00" xmlns="http://www.w3.org/2000/svg" xmlns:xlink="http://www.w3.org/1999/xlink">
<g id="graph0" class="graph" transform="scale(1 1) rotate(0) translate(4 166)">
<title>alps_core/lib_internal/alps_ros2_lib/include/alps_ros2/type/param_converter.hpp</title>
<!-- Node1 -->
<g id="Node000001" class="node">
<title>Node1</title>
<g id="a_Node000001"><a xlink:title="ROS2パラメータと値の変換ライブラリ">
<polygon fill="#999999" stroke="#666666" points="513.5,-162 316.5,-162 316.5,-121 513.5,-121 513.5,-162"/>
<text text-anchor="start" x="324.5" y="-150" font-family="Helvetica,sans-Serif" font-size="10.00">alps_core/lib_internal</text>
<text text-anchor="start" x="324.5" y="-139" font-family="Helvetica,sans-Serif" font-size="10.00">/alps_ros2_lib/include</text>
<text text-anchor="middle" x="415" y="-128" font-family="Helvetica,sans-Serif" font-size="10.00">/alps_ros2/type/param_converter.hpp</text>
</a>
</g>
</g>
<!-- Node2 -->
<g id="Node000002" class="node">
<title>Node2</title>
<g id="a_Node000002"><a xlink:href="tuple__traits_8hpp.html" target="_top" xlink:title="タプル関係の型特性">
<polygon fill="white" stroke="#666666" points="179,-85 63,-85 63,-55 179,-55 179,-85"/>
<text text-anchor="start" x="71" y="-73" font-family="Helvetica,sans-Serif" font-size="10.00">alps_cmn/type/tuple</text>
<text text-anchor="middle" x="121" y="-62" font-family="Helvetica,sans-Serif" font-size="10.00">_traits.hpp</text>
</a>
</g>
</g>
<!-- Node1&#45;&gt;Node2 -->
<g id="edge1_Node000001_Node000002" class="edge">
<title>Node1&#45;&gt;Node2</title>
<g id="a_edge1_Node000001_Node000002"><a xlink:title=" ">
<path fill="none" stroke="#63b8ff" d="M332.32,-120.96C287.1,-110.27 231.76,-97.18 189.06,-87.09"/>
<polygon fill="#63b8ff" stroke="#63b8ff" points="189.86,-83.68 179.32,-84.79 188.25,-90.49 189.86,-83.68"/>
</a>
</g>
</g>
<!-- Node6 -->
<g id="Node000006" class="node">
<title>Node6</title>
<g id="a_Node000006"><a xlink:href="param__map_8hpp.html" target="_top" xlink:title=" ">
<polygon fill="white" stroke="#666666" points="318,-85 202,-85 202,-55 318,-55 318,-85"/>
<text text-anchor="start" x="210" y="-73" font-family="Helvetica,sans-Serif" font-size="10.00">alps_ros2/util/param</text>
<text text-anchor="middle" x="260" y="-62" font-family="Helvetica,sans-Serif" font-size="10.00">_map.hpp</text>
</a>
</g>
</g>
<!-- Node1&#45;&gt;Node6 -->
<g id="edge5_Node000001_Node000006" class="edge">
<title>Node1&#45;&gt;Node6</title>
<g id="a_edge5_Node000001_Node000006"><a xlink:title=" ">
<path fill="none" stroke="#63b8ff" d="M371.41,-120.96C349.26,-111.02 322.5,-99.03 300.76,-89.28"/>
<polygon fill="#63b8ff" stroke="#63b8ff" points="302.03,-86.01 291.47,-85.11 299.17,-92.4 302.03,-86.01"/>
</a>
</g>
</g>
<!-- Node10 -->
<g id="Node000010" class="node">
<title>Node10</title>
<g id="a_Node000010"><a xlink:title=" ">
<polygon fill="#e0e0e0" stroke="#999999" points="405.5,-79.5 336.5,-79.5 336.5,-60.5 405.5,-60.5 405.5,-79.5"/>
<text text-anchor="middle" x="371" y="-67.5" font-family="Helvetica,sans-Serif" font-size="10.00">etl/string.h</text>
</a>
</g>
</g>
<!-- Node1&#45;&gt;Node10 -->
<g id="edge9_Node000001_Node000010" class="edge">
<title>Node1&#45;&gt;Node10</title>
<g id="a_edge9_Node000001_Node000010"><a xlink:title=" ">
<path fill="none" stroke="#63b8ff" d="M402.51,-120.77C396.04,-110.55 388.21,-98.19 381.98,-88.34"/>
<polygon fill="#63b8ff" stroke="#63b8ff" points="384.89,-86.4 376.58,-79.82 378.98,-90.14 384.89,-86.4"/>
</a>
</g>
</g>
<!-- Node11 -->
<g id="Node000011" class="node">
<title>Node11</title>
<g id="a_Node000011"><a xlink:title=" ">
<polygon fill="#e0e0e0" stroke="#999999" points="494.5,-79.5 423.5,-79.5 423.5,-60.5 494.5,-60.5 494.5,-79.5"/>
<text text-anchor="middle" x="459" y="-67.5" font-family="Helvetica,sans-Serif" font-size="10.00">etl/vector.h</text>
</a>
</g>
</g>
<!-- Node1&#45;&gt;Node11 -->
<g id="edge10_Node000001_Node000011" class="edge">
<title>Node1&#45;&gt;Node11</title>
<g id="a_edge10_Node000001_Node000011"><a xlink:title=" ">
<path fill="none" stroke="#63b8ff" d="M427.49,-120.77C433.96,-110.55 441.79,-98.19 448.02,-88.34"/>
<polygon fill="#63b8ff" stroke="#63b8ff" points="451.02,-90.14 453.42,-79.82 445.11,-86.4 451.02,-90.14"/>
</a>
</g>
</g>
<!-- Node12 -->
<g id="Node000012" class="node">
<title>Node12</title>
<g id="a_Node000012"><a xlink:title=" ">
<polygon fill="#e0e0e0" stroke="#999999" points="679.5,-79.5 512.5,-79.5 512.5,-60.5 679.5,-60.5 679.5,-79.5"/>
<text text-anchor="middle" x="596" y="-67.5" font-family="Helvetica,sans-Serif" font-size="10.00">magic_enum/magic_enum.hpp</text>
</a>
</g>
</g>
<!-- Node1&#45;&gt;Node12 -->
<g id="edge11_Node000001_Node000012" class="edge">
<title>Node1&#45;&gt;Node12</title>
<g id="a_edge11_Node000001_Node000012"><a xlink:title=" ">
<path fill="none" stroke="#63b8ff" d="M465.9,-120.96C497.56,-108.8 537.28,-93.55 564.45,-83.11"/>
<polygon fill="#63b8ff" stroke="#63b8ff" points="565.77,-86.36 573.85,-79.5 563.26,-79.82 565.77,-86.36"/>
</a>
</g>
</g>
<!-- Node13 -->
<g id="Node000013" class="node">
<title>Node13</title>
<g id="a_Node000013"><a xlink:title=" ">
<polygon fill="#e0e0e0" stroke="#999999" points="803,-79.5 697,-79.5 697,-60.5 803,-60.5 803,-79.5"/>
<text text-anchor="middle" x="750" y="-67.5" font-family="Helvetica,sans-Serif" font-size="10.00">rclcpp/logging.hpp</text>
</a>
</g>
</g>
<!-- Node1&#45;&gt;Node13 -->
<g id="edge12_Node000001_Node000013" class="edge">
<title>Node1&#45;&gt;Node13</title>
<g id="a_edge12_Node000001_Node000013"><a xlink:title=" ">
<path fill="none" stroke="#63b8ff" d="M513.73,-121.14C565.91,-110.75 631,-97.53 689,-85 693.73,-83.98 698.66,-82.89 703.58,-81.79"/>
<polygon fill="#63b8ff" stroke="#63b8ff" points="704.6,-85.14 713.58,-79.52 703.06,-78.31 704.6,-85.14"/>
</a>
</g>
</g>
<!-- Node3 -->
<g id="Node000003" class="node">
<title>Node3</title>
<g id="a_Node000003"><a xlink:title=" ">
<polygon fill="#e0e0e0" stroke="#999999" points="44,-19 0,-19 0,0 44,0 44,-19"/>
<text text-anchor="middle" x="22" y="-7" font-family="Helvetica,sans-Serif" font-size="10.00">string</text>
</a>
</g>
</g>
<!-- Node2&#45;&gt;Node3 -->
<g id="edge2_Node000002_Node000003" class="edge">
<title>Node2&#45;&gt;Node3</title>
<g id="a_edge2_Node000002_Node000003"><a xlink:title=" ">
<path fill="none" stroke="#63b8ff" d="M97.29,-54.99C81.65,-45.75 61.26,-33.7 45.64,-24.47"/>
<polygon fill="#63b8ff" stroke="#63b8ff" points="47.01,-21.21 36.62,-19.14 43.45,-27.24 47.01,-21.21"/>
</a>
</g>
</g>
<!-- Node4 -->
<g id="Node000004" class="node">
<title>Node4</title>
<g id="a_Node000004"><a xlink:title=" ">
<polygon fill="#e0e0e0" stroke="#999999" points="103.5,-19 62.5,-19 62.5,0 103.5,0 103.5,-19"/>
<text text-anchor="middle" x="83" y="-7" font-family="Helvetica,sans-Serif" font-size="10.00">tuple</text>
</a>
</g>
</g>
<!-- Node2&#45;&gt;Node4 -->
<g id="edge3_Node000002_Node000004" class="edge">
<title>Node2&#45;&gt;Node4</title>
<g id="a_edge3_Node000002_Node000004"><a xlink:title=" ">
<path fill="none" stroke="#63b8ff" d="M111.8,-54.84C106.51,-46.69 99.82,-36.4 94.22,-27.78"/>
<polygon fill="#63b8ff" stroke="#63b8ff" points="97.08,-25.75 88.69,-19.27 91.21,-29.56 97.08,-25.75"/>
</a>
</g>
</g>
<!-- Node5 -->
<g id="Node000005" class="node">
<title>Node5</title>
<g id="a_Node000005"><a xlink:title=" ">
<polygon fill="#e0e0e0" stroke="#999999" points="190.5,-19 121.5,-19 121.5,0 190.5,0 190.5,-19"/>
<text text-anchor="middle" x="156" y="-7" font-family="Helvetica,sans-Serif" font-size="10.00">type_traits</text>
</a>
</g>
</g>
<!-- Node2&#45;&gt;Node5 -->
<g id="edge4_Node000002_Node000005" class="edge">
<title>Node2&#45;&gt;Node5</title>
<g id="a_edge4_Node000002_Node000005"><a xlink:title=" ">
<path fill="none" stroke="#63b8ff" d="M129.47,-54.84C134.29,-46.78 140.37,-36.62 145.5,-28.06"/>
<polygon fill="#63b8ff" stroke="#63b8ff" points="148.62,-29.64 150.76,-19.27 142.62,-26.05 148.62,-29.64"/>
</a>
</g>
</g>
<!-- Node7 -->
<g id="Node000007" class="node">
<title>Node7</title>
<g id="a_Node000007"><a xlink:title=" ">
<polygon fill="#e0e0e0" stroke="#999999" points="247,-19 209,-19 209,0 247,0 247,-19"/>
<text text-anchor="middle" x="228" y="-7" font-family="Helvetica,sans-Serif" font-size="10.00">map</text>
</a>
</g>
</g>
<!-- Node6&#45;&gt;Node7 -->
<g id="edge6_Node000006_Node000007" class="edge">
<title>Node6&#45;&gt;Node7</title>
<g id="a_edge6_Node000006_Node000007"><a xlink:title=" ">
<path fill="none" stroke="#63b8ff" d="M252.25,-54.84C247.85,-46.78 242.29,-36.62 237.6,-28.06"/>
<polygon fill="#63b8ff" stroke="#63b8ff" points="240.66,-26.36 232.8,-19.27 234.52,-29.72 240.66,-26.36"/>
</a>
</g>
</g>
<!-- Node8 -->
<g id="Node000008" class="node">
<title>Node8</title>
<g id="a_Node000008"><a xlink:title=" ">
<polygon fill="#e0e0e0" stroke="#999999" points="321,-19 265,-19 265,0 321,0 321,-19"/>
<text text-anchor="middle" x="293" y="-7" font-family="Helvetica,sans-Serif" font-size="10.00">optional</text>
</a>
</g>
</g>
<!-- Node6&#45;&gt;Node8 -->
<g id="edge7_Node000006_Node000008" class="edge">
<title>Node6&#45;&gt;Node8</title>
<g id="a_edge7_Node000006_Node000008"><a xlink:title=" ">
<path fill="none" stroke="#63b8ff" d="M267.99,-54.84C272.53,-46.78 278.27,-36.62 283.1,-28.06"/>
<polygon fill="#63b8ff" stroke="#63b8ff" points="286.19,-29.7 288.06,-19.27 280.09,-26.26 286.19,-29.7"/>
</a>
</g>
</g>
<!-- Node9 -->
<g id="Node000009" class="node">
<title>Node9</title>
<g id="a_Node000009"><a xlink:title=" ">
<polygon fill="#e0e0e0" stroke="#999999" points="459,-19 339,-19 339,0 459,0 459,-19"/>
<text text-anchor="middle" x="399" y="-7" font-family="Helvetica,sans-Serif" font-size="10.00">rclcpp/parameter.hpp</text>
</a>
</g>
</g>
<!-- Node6&#45;&gt;Node9 -->
<g id="edge8_Node000006_Node000009" class="edge">
<title>Node6&#45;&gt;Node9</title>
<g id="a_edge8_Node000006_Node000009"><a xlink:title=" ">
<path fill="none" stroke="#63b8ff" d="M293.29,-54.99C316.38,-45.27 346.87,-32.44 369.16,-23.06"/>
<polygon fill="#63b8ff" stroke="#63b8ff" points="370.61,-26.24 378.47,-19.14 367.9,-19.79 370.61,-26.24"/>
</a>
</g>
</g>
</g>
</svg>
