<?xml version="1.0" encoding="UTF-8" standalone="no"?>
<!DOCTYPE svg PUBLIC "-//W3C//DTD SVG 1.1//EN"
 "http://www.w3.org/Graphics/SVG/1.1/DTD/svg11.dtd">
<!-- Generated by graphviz version 2.43.0 (0)
 -->
<!-- Title: alps_ros2_lib/include/alps_ros2/util/param_converter.hpp Pages: 1 -->
<svg width="512pt" height="173pt"
 viewBox="0.00 0.00 511.50 173.00" xmlns="http://www.w3.org/2000/svg" xmlns:xlink="http://www.w3.org/1999/xlink">
<g id="graph0" class="graph" transform="scale(1 1) rotate(0) translate(4 169)">
<title>alps_ros2_lib/include/alps_ros2/util/param_converter.hpp</title>
<polygon fill="white" stroke="transparent" points="-4,4 -4,-169 507.5,-169 507.5,4 -4,4"/>
<!-- Node1 -->
<g id="node1" class="node">
<title>Node1</title>
<g id="a_node1"><a xlink:title="ROS2パラメータと値の変換ライブラリ">
<polygon fill="#bfbfbf" stroke="black" points="179.5,-123.5 179.5,-164.5 298.5,-164.5 298.5,-123.5 179.5,-123.5"/>
<text text-anchor="start" x="187.5" y="-152.5" font-family="Helvetica,sans-Serif" font-size="10.00">alps_ros2_lib/include</text>
<text text-anchor="start" x="187.5" y="-141.5" font-family="Helvetica,sans-Serif" font-size="10.00">/alps_ros2/util/param</text>
<text text-anchor="middle" x="239" y="-130.5" font-family="Helvetica,sans-Serif" font-size="10.00">_converter.hpp</text>
</a>
</g>
</g>
<!-- Node2 -->
<g id="node2" class="node">
<title>Node2</title>
<g id="a_node2"><a xlink:href="param__map_8hpp.html" target="_top" xlink:title=" ">
<polygon fill="white" stroke="black" points="26,-56.5 26,-86.5 142,-86.5 142,-56.5 26,-56.5"/>
<text text-anchor="start" x="34" y="-74.5" font-family="Helvetica,sans-Serif" font-size="10.00">alps_ros2/util/param</text>
<text text-anchor="middle" x="84" y="-63.5" font-family="Helvetica,sans-Serif" font-size="10.00">_map.hpp</text>
</a>
</g>
</g>
<!-- Node1&#45;&gt;Node2 -->
<g id="edge1" class="edge">
<title>Node1&#45;&gt;Node2</title>
<path fill="none" stroke="midnightblue" d="M195.82,-123.36C173.51,-113.21 146.43,-100.9 124.51,-90.93"/>
<polygon fill="midnightblue" stroke="midnightblue" points="125.71,-87.62 115.15,-86.67 122.81,-94 125.71,-87.62"/>
</g>
<!-- Node6 -->
<g id="node6" class="node">
<title>Node6</title>
<g id="a_node6"><a xlink:title=" ">
<polygon fill="white" stroke="#bfbfbf" points="160.5,-62 160.5,-81 229.5,-81 229.5,-62 160.5,-62"/>
<text text-anchor="middle" x="195" y="-69" font-family="Helvetica,sans-Serif" font-size="10.00">etl/string.h</text>
</a>
</g>
</g>
<!-- Node1&#45;&gt;Node6 -->
<g id="edge5" class="edge">
<title>Node1&#45;&gt;Node6</title>
<path fill="none" stroke="midnightblue" d="M226.74,-123.36C220.19,-112.86 212.2,-100.05 205.87,-89.91"/>
<polygon fill="midnightblue" stroke="midnightblue" points="208.68,-87.8 200.41,-81.17 202.74,-91.51 208.68,-87.8"/>
</g>
<!-- Node7 -->
<g id="node7" class="node">
<title>Node7</title>
<g id="a_node7"><a xlink:title=" ">
<polygon fill="white" stroke="#bfbfbf" points="247.5,-62 247.5,-81 318.5,-81 318.5,-62 247.5,-62"/>
<text text-anchor="middle" x="283" y="-69" font-family="Helvetica,sans-Serif" font-size="10.00">etl/vector.h</text>
</a>
</g>
</g>
<!-- Node1&#45;&gt;Node7 -->
<g id="edge6" class="edge">
<title>Node1&#45;&gt;Node7</title>
<path fill="none" stroke="midnightblue" d="M251.26,-123.36C257.81,-112.86 265.8,-100.05 272.13,-89.91"/>
<polygon fill="midnightblue" stroke="midnightblue" points="275.26,-91.51 277.59,-81.17 269.32,-87.8 275.26,-91.51"/>
</g>
<!-- Node8 -->
<g id="node8" class="node">
<title>Node8</title>
<g id="a_node8"><a xlink:title=" ">
<polygon fill="white" stroke="#bfbfbf" points="336.5,-62 336.5,-81 503.5,-81 503.5,-62 336.5,-62"/>
<text text-anchor="middle" x="420" y="-69" font-family="Helvetica,sans-Serif" font-size="10.00">magic_enum/magic_enum.hpp</text>
</a>
</g>
</g>
<!-- Node1&#45;&gt;Node8 -->
<g id="edge7" class="edge">
<title>Node1&#45;&gt;Node8</title>
<path fill="none" stroke="midnightblue" d="M289.42,-123.36C321.09,-111.02 360.98,-95.49 388.28,-84.85"/>
<polygon fill="midnightblue" stroke="midnightblue" points="389.68,-88.06 397.73,-81.17 387.14,-81.54 389.68,-88.06"/>
</g>
<!-- Node3 -->
<g id="node3" class="node">
<title>Node3</title>
<g id="a_node3"><a xlink:title=" ">
<polygon fill="white" stroke="#bfbfbf" points="0,-0.5 0,-19.5 38,-19.5 38,-0.5 0,-0.5"/>
<text text-anchor="middle" x="19" y="-7.5" font-family="Helvetica,sans-Serif" font-size="10.00">map</text>
</a>
</g>
</g>
<!-- Node2&#45;&gt;Node3 -->
<g id="edge2" class="edge">
<title>Node2&#45;&gt;Node3</title>
<path fill="none" stroke="midnightblue" d="M68.6,-56.4C58.76,-47.4 46.01,-35.72 35.89,-26.47"/>
<polygon fill="midnightblue" stroke="midnightblue" points="38.2,-23.83 28.46,-19.66 33.47,-28.99 38.2,-23.83"/>
</g>
<!-- Node4 -->
<g id="node4" class="node">
<title>Node4</title>
<g id="a_node4"><a xlink:title=" ">
<polygon fill="white" stroke="#bfbfbf" points="56,-0.5 56,-19.5 112,-19.5 112,-0.5 56,-0.5"/>
<text text-anchor="middle" x="84" y="-7.5" font-family="Helvetica,sans-Serif" font-size="10.00">optional</text>
</a>
</g>
</g>
<!-- Node2&#45;&gt;Node4 -->
<g id="edge3" class="edge">
<title>Node2&#45;&gt;Node4</title>
<path fill="none" stroke="midnightblue" d="M84,-56.4C84,-48.47 84,-38.46 84,-29.86"/>
<polygon fill="midnightblue" stroke="midnightblue" points="87.5,-29.66 84,-19.66 80.5,-29.66 87.5,-29.66"/>
</g>
<!-- Node5 -->
<g id="node5" class="node">
<title>Node5</title>
<g id="a_node5"><a xlink:title=" ">
<polygon fill="white" stroke="#bfbfbf" points="130,-0.5 130,-19.5 250,-19.5 250,-0.5 130,-0.5"/>
<text text-anchor="middle" x="190" y="-7.5" font-family="Helvetica,sans-Serif" font-size="10.00">rclcpp/parameter.hpp</text>
</a>
</g>
</g>
<!-- Node2&#45;&gt;Node5 -->
<g id="edge4" class="edge">
<title>Node2&#45;&gt;Node5</title>
<path fill="none" stroke="midnightblue" d="M109.12,-56.4C126.27,-46.77 148.86,-34.09 165.81,-24.58"/>
<polygon fill="midnightblue" stroke="midnightblue" points="167.57,-27.6 174.58,-19.66 164.14,-21.5 167.57,-27.6"/>
</g>
</g>
</svg>
