<?xml version="1.0" encoding="UTF-8" standalone="no"?>
<!DOCTYPE svg PUBLIC "-//W3C//DTD SVG 1.1//EN"
 "http://www.w3.org/Graphics/SVG/1.1/DTD/svg11.dtd">
<!-- Generated by graphviz version 2.43.0 (0)
 -->
<!-- Title: roblab_mbed_lib/include/serial/pc_serial_connection.hpp Pages: 1 -->
<svg width="985pt" height="258pt"
 viewBox="0.00 0.00 984.50 258.00" xmlns="http://www.w3.org/2000/svg" xmlns:xlink="http://www.w3.org/1999/xlink">
<g id="graph0" class="graph" transform="scale(1 1) rotate(0) translate(4 254)">
<title>roblab_mbed_lib/include/serial/pc_serial_connection.hpp</title>
<!-- Node1 -->
<g id="node1" class="node">
<title>Node1</title>
<g id="a_node1"><a xlink:title=" ">
<polygon fill="#999999" stroke="#666666" points="452,-250 279,-250 279,-220 452,-220 452,-250"/>
<text text-anchor="start" x="287" y="-238" font-family="Helvetica,sans-Serif" font-size="10.00">roblab_mbed_lib/include</text>
<text text-anchor="middle" x="365.5" y="-227" font-family="Helvetica,sans-Serif" font-size="10.00">/serial/pc_serial_connection.hpp</text>
</a>
</g>
</g>
<!-- Node2 -->
<g id="node2" class="node">
<title>Node2</title>
<g id="a_node2"><a xlink:href="mbed__uart__serial__io_8hpp.html" target="_top" xlink:title=" ">
<polygon fill="white" stroke="#666666" points="302,-184 165,-184 165,-165 302,-165 302,-184"/>
<text text-anchor="middle" x="233.5" y="-172" font-family="Helvetica,sans-Serif" font-size="10.00">mbed_uart_serial_io.hpp</text>
</a>
</g>
</g>
<!-- Node1&#45;&gt;Node2 -->
<g id="edge1" class="edge">
<title>Node1&#45;&gt;Node2</title>
<path fill="none" stroke="#63b8ff" d="M333.88,-219.99C312.15,-210.36 283.53,-197.67 262.41,-188.31"/>
<polygon fill="#63b8ff" stroke="#63b8ff" points="263.55,-184.99 252.99,-184.14 260.72,-191.39 263.55,-184.99"/>
</g>
<!-- Node10 -->
<g id="node10" class="node">
<title>Node10</title>
<g id="a_node10"><a xlink:href="id__packet__manager_8hpp.html" target="_top" xlink:title=" ">
<polygon fill="white" stroke="#666666" points="601,-184 468,-184 468,-165 601,-165 601,-184"/>
<text text-anchor="middle" x="534.5" y="-172" font-family="Helvetica,sans-Serif" font-size="10.00">id_packet_manager.hpp</text>
</a>
</g>
</g>
<!-- Node1&#45;&gt;Node10 -->
<g id="edge10" class="edge">
<title>Node1&#45;&gt;Node10</title>
<path fill="none" stroke="#63b8ff" d="M405.98,-219.99C434.68,-210.05 472.78,-196.86 500.03,-187.43"/>
<polygon fill="#63b8ff" stroke="#63b8ff" points="501.24,-190.72 509.54,-184.14 498.95,-184.1 501.24,-190.72"/>
</g>
<!-- Node3 -->
<g id="node3" class="node">
<title>Node3</title>
<g id="a_node3"><a xlink:title=" ">
<polygon fill="#e0e0e0" stroke="#999999" points="53,-129 0,-129 0,-110 53,-110 53,-129"/>
<text text-anchor="middle" x="26.5" y="-117" font-family="Helvetica,sans-Serif" font-size="10.00">mbed.h</text>
</a>
</g>
</g>
<!-- Node2&#45;&gt;Node3 -->
<g id="edge2" class="edge">
<title>Node2&#45;&gt;Node3</title>
<path fill="none" stroke="#63b8ff" d="M200.24,-164.98C162.68,-155.37 101.76,-139.77 62.94,-129.83"/>
<polygon fill="#63b8ff" stroke="#63b8ff" points="63.65,-126.4 53.09,-127.31 61.91,-133.18 63.65,-126.4"/>
</g>
<!-- Node4 -->
<g id="node4" class="node">
<title>Node4</title>
<g id="a_node4"><a xlink:href="i__serial__io_8hpp.html" target="_top" xlink:title=" ">
<polygon fill="white" stroke="#666666" points="313,-129 226,-129 226,-110 313,-110 313,-129"/>
<text text-anchor="middle" x="269.5" y="-117" font-family="Helvetica,sans-Serif" font-size="10.00">i_serial_io.hpp</text>
</a>
</g>
</g>
<!-- Node2&#45;&gt;Node4 -->
<g id="edge3" class="edge">
<title>Node2&#45;&gt;Node4</title>
<path fill="none" stroke="#63b8ff" d="M239.44,-164.75C244.48,-157.34 251.84,-146.5 258.01,-137.41"/>
<polygon fill="#63b8ff" stroke="#63b8ff" points="260.94,-139.33 263.67,-129.09 255.15,-135.39 260.94,-139.33"/>
</g>
<!-- Node5 -->
<g id="node5" class="node">
<title>Node5</title>
<g id="a_node5"><a xlink:href="byte__ring__buffer_8hpp.html" target="_top" xlink:title=" ">
<polygon fill="white" stroke="#666666" points="326.5,-74 208.5,-74 208.5,-55 326.5,-55 326.5,-74"/>
<text text-anchor="middle" x="267.5" y="-62" font-family="Helvetica,sans-Serif" font-size="10.00">byte_ring_buffer.hpp</text>
</a>
</g>
</g>
<!-- Node2&#45;&gt;Node5 -->
<g id="edge9" class="edge">
<title>Node2&#45;&gt;Node5</title>
<path fill="none" stroke="#63b8ff" d="M227.65,-164.98C219.86,-152.5 208,-128.7 216.5,-110 222.12,-97.63 233.07,-87.36 243.39,-79.81"/>
<polygon fill="#63b8ff" stroke="#63b8ff" points="245.46,-82.63 251.77,-74.12 241.53,-76.84 245.46,-82.63"/>
</g>
<!-- Node4&#45;&gt;Node5 -->
<g id="edge4" class="edge">
<title>Node4&#45;&gt;Node5</title>
<path fill="none" stroke="#63b8ff" d="M269.17,-109.75C268.91,-102.8 268.53,-92.85 268.2,-84.13"/>
<polygon fill="#63b8ff" stroke="#63b8ff" points="271.7,-83.95 267.82,-74.09 264.7,-84.21 271.7,-83.95"/>
</g>
<!-- Node6 -->
<g id="node6" class="node">
<title>Node6</title>
<g id="a_node6"><a xlink:title=" ">
<polygon fill="#e0e0e0" stroke="#999999" points="377.5,-19 327.5,-19 327.5,0 377.5,0 377.5,-19"/>
<text text-anchor="middle" x="352.5" y="-7" font-family="Helvetica,sans-Serif" font-size="10.00">cstdint</text>
</a>
</g>
</g>
<!-- Node5&#45;&gt;Node6 -->
<g id="edge5" class="edge">
<title>Node5&#45;&gt;Node6</title>
<path fill="none" stroke="#63b8ff" d="M281.16,-54.98C294.34,-46.77 314.53,-34.18 330.07,-24.49"/>
<polygon fill="#63b8ff" stroke="#63b8ff" points="331.96,-27.43 338.59,-19.17 328.26,-21.49 331.96,-27.43"/>
</g>
<!-- Node7 -->
<g id="node7" class="node">
<title>Node7</title>
<g id="a_node7"><a xlink:title=" ">
<polygon fill="#e0e0e0" stroke="#999999" points="697,-19 650,-19 650,0 697,0 697,-19"/>
<text text-anchor="middle" x="673.5" y="-7" font-family="Helvetica,sans-Serif" font-size="10.00">vector</text>
</a>
</g>
</g>
<!-- Node5&#45;&gt;Node7 -->
<g id="edge6" class="edge">
<title>Node5&#45;&gt;Node7</title>
<path fill="none" stroke="#63b8ff" d="M326.54,-55.79C412.75,-44.54 570.35,-23.96 639.48,-14.94"/>
<polygon fill="#63b8ff" stroke="#63b8ff" points="640.32,-18.36 649.79,-13.6 639.42,-11.42 640.32,-18.36"/>
</g>
<!-- Node8 -->
<g id="node8" class="node">
<title>Node8</title>
<g id="a_node8"><a xlink:title=" ">
<polygon fill="#e0e0e0" stroke="#999999" points="258.5,-19 212.5,-19 212.5,0 258.5,0 258.5,-19"/>
<text text-anchor="middle" x="235.5" y="-7" font-family="Helvetica,sans-Serif" font-size="10.00">cstdio</text>
</a>
</g>
</g>
<!-- Node5&#45;&gt;Node8 -->
<g id="edge7" class="edge">
<title>Node5&#45;&gt;Node8</title>
<path fill="none" stroke="#63b8ff" d="M262.22,-54.75C257.79,-47.42 251.34,-36.73 245.88,-27.7"/>
<polygon fill="#63b8ff" stroke="#63b8ff" points="248.85,-25.84 240.69,-19.09 242.86,-29.46 248.85,-25.84"/>
</g>
<!-- Node9 -->
<g id="node9" class="node">
<title>Node9</title>
<g id="a_node9"><a xlink:title=" ">
<polygon fill="#e0e0e0" stroke="#999999" points="178,-19 129,-19 129,0 178,0 178,-19"/>
<text text-anchor="middle" x="153.5" y="-7" font-family="Helvetica,sans-Serif" font-size="10.00">cstdlib</text>
</a>
</g>
</g>
<!-- Node5&#45;&gt;Node9 -->
<g id="edge8" class="edge">
<title>Node5&#45;&gt;Node9</title>
<path fill="none" stroke="#63b8ff" d="M249.18,-54.98C230.84,-46.46 202.39,-33.23 181.27,-23.41"/>
<polygon fill="#63b8ff" stroke="#63b8ff" points="182.69,-20.21 172.15,-19.17 179.74,-26.56 182.69,-20.21"/>
</g>
<!-- Node11 -->
<g id="node11" class="node">
<title>Node11</title>
<g id="a_node11"><a xlink:title=" ">
<polygon fill="#e0e0e0" stroke="#999999" points="976.5,-19 932.5,-19 932.5,0 976.5,0 976.5,-19"/>
<text text-anchor="middle" x="954.5" y="-7" font-family="Helvetica,sans-Serif" font-size="10.00">string</text>
</a>
</g>
</g>
<!-- Node10&#45;&gt;Node11 -->
<g id="edge11" class="edge">
<title>Node10&#45;&gt;Node11</title>
<path fill="none" stroke="#63b8ff" d="M601.22,-169.62C683.12,-163.96 816.55,-151.58 860.5,-129 903.37,-106.98 933.09,-55.62 946.48,-28.31"/>
<polygon fill="#63b8ff" stroke="#63b8ff" points="949.7,-29.67 950.8,-19.13 943.37,-26.69 949.7,-29.67"/>
</g>
<!-- Node12 -->
<g id="node12" class="node">
<title>Node12</title>
<g id="a_node12"><a xlink:title=" ">
<polygon fill="#e0e0e0" stroke="#999999" points="424,-129 331,-129 331,-110 424,-110 424,-129"/>
<text text-anchor="middle" x="377.5" y="-117" font-family="Helvetica,sans-Serif" font-size="10.00">unordered_map</text>
</a>
</g>
</g>
<!-- Node10&#45;&gt;Node12 -->
<g id="edge12" class="edge">
<title>Node10&#45;&gt;Node12</title>
<path fill="none" stroke="#63b8ff" d="M509.28,-164.98C483.14,-156.16 442.1,-142.31 412.77,-132.41"/>
<polygon fill="#63b8ff" stroke="#63b8ff" points="413.52,-128.96 402.92,-129.08 411.28,-135.6 413.52,-128.96"/>
</g>
<!-- Node13 -->
<g id="node13" class="node">
<title>Node13</title>
<g id="a_node13"><a xlink:title=" ">
<polygon fill="#e0e0e0" stroke="#999999" points="110.5,-74 58.5,-74 58.5,-55 110.5,-55 110.5,-74"/>
<text text-anchor="middle" x="84.5" y="-62" font-family="Helvetica,sans-Serif" font-size="10.00">cassert</text>
</a>
</g>
</g>
<!-- Node10&#45;&gt;Node13 -->
<g id="edge13" class="edge">
<title>Node10&#45;&gt;Node13</title>
<path fill="none" stroke="#63b8ff" d="M467.81,-170.82C353,-165.61 127.68,-152.5 100.5,-129 87.88,-118.08 84.47,-98.81 83.86,-84.36"/>
<polygon fill="#63b8ff" stroke="#63b8ff" points="87.36,-84.04 83.85,-74.04 80.36,-84.05 87.36,-84.04"/>
</g>
<!-- Node14 -->
<g id="node14" class="node">
<title>Node14</title>
<g id="a_node14"><a xlink:title=" ">
<polygon fill="#e0e0e0" stroke="#999999" points="500.5,-129 442.5,-129 442.5,-110 500.5,-110 500.5,-129"/>
<text text-anchor="middle" x="471.5" y="-117" font-family="Helvetica,sans-Serif" font-size="10.00">memory</text>
</a>
</g>
</g>
<!-- Node10&#45;&gt;Node14 -->
<g id="edge14" class="edge">
<title>Node10&#45;&gt;Node14</title>
<path fill="none" stroke="#63b8ff" d="M524.38,-164.98C515.06,-157.15 501.03,-145.34 489.76,-135.86"/>
<polygon fill="#63b8ff" stroke="#63b8ff" points="491.71,-132.93 481.81,-129.17 487.21,-138.29 491.71,-132.93"/>
</g>
<!-- Node15 -->
<g id="node15" class="node">
<title>Node15</title>
<g id="a_node15"><a xlink:title=" ">
<polygon fill="#e0e0e0" stroke="#999999" points="550.5,-129 518.5,-129 518.5,-110 550.5,-110 550.5,-129"/>
<text text-anchor="middle" x="534.5" y="-117" font-family="Helvetica,sans-Serif" font-size="10.00">list</text>
</a>
</g>
</g>
<!-- Node10&#45;&gt;Node15 -->
<g id="edge15" class="edge">
<title>Node10&#45;&gt;Node15</title>
<path fill="none" stroke="#63b8ff" d="M534.5,-164.75C534.5,-157.8 534.5,-147.85 534.5,-139.13"/>
<polygon fill="#63b8ff" stroke="#63b8ff" points="538,-139.09 534.5,-129.09 531,-139.09 538,-139.09"/>
</g>
<!-- Node16 -->
<g id="node16" class="node">
<title>Node16</title>
<g id="a_node16"><a xlink:title=" ">
<polygon fill="#e0e0e0" stroke="#999999" points="634,-129 569,-129 569,-110 634,-110 634,-129"/>
<text text-anchor="middle" x="601.5" y="-117" font-family="Helvetica,sans-Serif" font-size="10.00">functional</text>
</a>
</g>
</g>
<!-- Node10&#45;&gt;Node16 -->
<g id="edge16" class="edge">
<title>Node10&#45;&gt;Node16</title>
<path fill="none" stroke="#63b8ff" d="M545.26,-164.98C555.27,-157.07 570.39,-145.11 582.43,-135.58"/>
<polygon fill="#63b8ff" stroke="#63b8ff" points="584.87,-138.12 590.54,-129.17 580.53,-132.63 584.87,-138.12"/>
</g>
<!-- Node17 -->
<g id="node17" class="node">
<title>Node17</title>
<g id="a_node17"><a xlink:href="cobs_8hpp.html" target="_top" xlink:title=" ">
<polygon fill="white" stroke="#666666" points="169.5,-129 109.5,-129 109.5,-110 169.5,-110 169.5,-129"/>
<text text-anchor="middle" x="139.5" y="-117" font-family="Helvetica,sans-Serif" font-size="10.00">cobs.hpp</text>
</a>
</g>
</g>
<!-- Node10&#45;&gt;Node17 -->
<g id="edge17" class="edge">
<title>Node10&#45;&gt;Node17</title>
<path fill="none" stroke="#63b8ff" d="M471.04,-164.98C388.89,-153.96 248.18,-135.08 179.53,-125.87"/>
<polygon fill="#63b8ff" stroke="#63b8ff" points="179.92,-122.39 169.54,-124.53 178.99,-129.33 179.92,-122.39"/>
</g>
<!-- Node18 -->
<g id="node18" class="node">
<title>Node18</title>
<g id="a_node18"><a xlink:href="data__serializer_8hpp.html" target="_top" xlink:title=" ">
<polygon fill="white" stroke="#666666" points="851.5,-129 741.5,-129 741.5,-110 851.5,-110 851.5,-129"/>
<text text-anchor="middle" x="796.5" y="-117" font-family="Helvetica,sans-Serif" font-size="10.00">data_serializer.hpp</text>
</a>
</g>
</g>
<!-- Node10&#45;&gt;Node18 -->
<g id="edge22" class="edge">
<title>Node10&#45;&gt;Node18</title>
<path fill="none" stroke="#63b8ff" d="M576.59,-164.98C622.2,-155.76 695.02,-141.03 744.25,-131.07"/>
<polygon fill="#63b8ff" stroke="#63b8ff" points="744.97,-134.5 754.08,-129.08 743.58,-127.63 744.97,-134.5"/>
</g>
<!-- Node26 -->
<g id="node26" class="node">
<title>Node26</title>
<g id="a_node26"><a xlink:href="sender_8hpp.html" target="_top" xlink:title=" ">
<polygon fill="white" stroke="#666666" points="723,-129 652,-129 652,-110 723,-110 723,-129"/>
<text text-anchor="middle" x="687.5" y="-117" font-family="Helvetica,sans-Serif" font-size="10.00">sender.hpp</text>
</a>
</g>
</g>
<!-- Node10&#45;&gt;Node26 -->
<g id="edge37" class="edge">
<title>Node10&#45;&gt;Node26</title>
<path fill="none" stroke="#63b8ff" d="M553.97,-164.98C577.59,-156.13 617.62,-142.19 647.78,-132.28"/>
<polygon fill="#63b8ff" stroke="#63b8ff" points="649.17,-135.51 657.6,-129.08 647,-128.85 649.17,-135.51"/>
</g>
<!-- Node17&#45;&gt;Node5 -->
<g id="edge18" class="edge">
<title>Node17&#45;&gt;Node5</title>
<path fill="none" stroke="#63b8ff" d="M160.07,-109.98C180.93,-101.34 213.47,-87.87 237.27,-78.02"/>
<polygon fill="#63b8ff" stroke="#63b8ff" points="238.66,-81.23 246.56,-74.17 235.98,-74.76 238.66,-81.23"/>
</g>
<!-- Node17&#45;&gt;Node8 -->
<g id="edge19" class="edge">
<title>Node17&#45;&gt;Node8</title>
<path fill="none" stroke="#63b8ff" d="M147.36,-109.66C163.47,-91.54 200.47,-49.91 221.04,-26.77"/>
<polygon fill="#63b8ff" stroke="#63b8ff" points="223.78,-28.96 227.8,-19.16 218.54,-24.31 223.78,-28.96"/>
</g>
<!-- Node17&#45;&gt;Node9 -->
<g id="edge21" class="edge">
<title>Node17&#45;&gt;Node9</title>
<path fill="none" stroke="#63b8ff" d="M140.65,-109.66C142.91,-92.17 148.02,-52.8 151.07,-29.27"/>
<polygon fill="#63b8ff" stroke="#63b8ff" points="154.56,-29.53 152.38,-19.16 147.62,-28.63 154.56,-29.53"/>
</g>
<!-- Node17&#45;&gt;Node13 -->
<g id="edge20" class="edge">
<title>Node17&#45;&gt;Node13</title>
<path fill="none" stroke="#63b8ff" d="M130.42,-109.75C122.41,-102.03 110.54,-90.6 100.88,-81.28"/>
<polygon fill="#63b8ff" stroke="#63b8ff" points="103.04,-78.51 93.41,-74.09 98.19,-83.55 103.04,-78.51"/>
</g>
<!-- Node18&#45;&gt;Node5 -->
<g id="edge30" class="edge">
<title>Node18&#45;&gt;Node5</title>
<path fill="none" stroke="#63b8ff" d="M741.36,-111.05C738.36,-110.68 735.4,-110.33 732.5,-110 592.27,-93.98 427.79,-79.18 336.84,-71.34"/>
<polygon fill="#63b8ff" stroke="#63b8ff" points="336.93,-67.83 326.66,-70.46 336.33,-74.81 336.93,-67.83"/>
</g>
<!-- Node18&#45;&gt;Node6 -->
<g id="edge25" class="edge">
<title>Node18&#45;&gt;Node6</title>
<path fill="none" stroke="#63b8ff" d="M741.15,-111.12C648.5,-98.75 471.72,-75.06 468.5,-74 432.85,-62.27 395.43,-39.63 373.03,-24.79"/>
<polygon fill="#63b8ff" stroke="#63b8ff" points="374.92,-21.85 364.68,-19.15 371.01,-27.65 374.92,-21.85"/>
</g>
<!-- Node18&#45;&gt;Node7 -->
<g id="edge24" class="edge">
<title>Node18&#45;&gt;Node7</title>
<path fill="none" stroke="#63b8ff" d="M778.21,-109.94C762.42,-102 739.52,-89.15 722.5,-74 707.12,-60.31 693.16,-41.25 684.11,-27.59"/>
<polygon fill="#63b8ff" stroke="#63b8ff" points="687.02,-25.65 678.67,-19.13 681.13,-29.43 687.02,-25.65"/>
</g>
<!-- Node18&#45;&gt;Node11 -->
<g id="edge23" class="edge">
<title>Node18&#45;&gt;Node11</title>
<path fill="none" stroke="#63b8ff" d="M818.48,-109.98C837.58,-102.07 865.54,-89.24 887.5,-74 907.34,-60.23 927.05,-40.66 939.89,-26.9"/>
<polygon fill="#63b8ff" stroke="#63b8ff" points="942.78,-28.92 946.95,-19.18 937.62,-24.2 942.78,-28.92"/>
</g>
<!-- Node19 -->
<g id="node19" class="node">
<title>Node19</title>
<g id="a_node19"><a xlink:title=" ">
<polygon fill="#e0e0e0" stroke="#999999" points="914,-19 845,-19 845,0 914,0 914,-19"/>
<text text-anchor="middle" x="879.5" y="-7" font-family="Helvetica,sans-Serif" font-size="10.00">type_traits</text>
</a>
</g>
</g>
<!-- Node18&#45;&gt;Node19 -->
<g id="edge26" class="edge">
<title>Node18&#45;&gt;Node19</title>
<path fill="none" stroke="#63b8ff" d="M821.53,-110C838.16,-103 858.99,-91.37 870.5,-74 879.24,-60.8 881.05,-42.68 880.93,-29.17"/>
<polygon fill="#63b8ff" stroke="#63b8ff" points="884.42,-28.95 880.48,-19.12 877.43,-29.26 884.42,-28.95"/>
</g>
<!-- Node20 -->
<g id="node20" class="node">
<title>Node20</title>
<g id="a_node20"><a xlink:title=" ">
<polygon fill="#e0e0e0" stroke="#999999" points="527.5,-74 477.5,-74 477.5,-55 527.5,-55 527.5,-74"/>
<text text-anchor="middle" x="502.5" y="-62" font-family="Helvetica,sans-Serif" font-size="10.00">cstring</text>
</a>
</g>
</g>
<!-- Node18&#45;&gt;Node20 -->
<g id="edge27" class="edge">
<title>Node18&#45;&gt;Node20</title>
<path fill="none" stroke="#63b8ff" d="M741.49,-110.32C690.98,-102.53 613.84,-89.93 537.92,-74.17"/>
<polygon fill="#63b8ff" stroke="#63b8ff" points="538.21,-70.65 527.7,-72.03 536.77,-77.5 538.21,-70.65"/>
</g>
<!-- Node21 -->
<g id="node21" class="node">
<title>Node21</title>
<g id="a_node21"><a xlink:title=" ">
<polygon fill="#e0e0e0" stroke="#999999" points="609.5,-74 545.5,-74 545.5,-55 609.5,-55 609.5,-74"/>
<text text-anchor="middle" x="577.5" y="-62" font-family="Helvetica,sans-Serif" font-size="10.00">algorithm</text>
</a>
</g>
</g>
<!-- Node18&#45;&gt;Node21 -->
<g id="edge28" class="edge">
<title>Node18&#45;&gt;Node21</title>
<path fill="none" stroke="#63b8ff" d="M761.31,-109.98C722.67,-100.63 660.63,-85.62 619.47,-75.66"/>
<polygon fill="#63b8ff" stroke="#63b8ff" points="620.29,-72.25 609.74,-73.3 618.64,-79.06 620.29,-72.25"/>
</g>
<!-- Node22 -->
<g id="node22" class="node">
<title>Node22</title>
<g id="a_node22"><a xlink:title=" ">
<polygon fill="#e0e0e0" stroke="#999999" points="675.5,-74 627.5,-74 627.5,-55 675.5,-55 675.5,-74"/>
<text text-anchor="middle" x="651.5" y="-62" font-family="Helvetica,sans-Serif" font-size="10.00">mutex</text>
</a>
</g>
</g>
<!-- Node18&#45;&gt;Node22 -->
<g id="edge29" class="edge">
<title>Node18&#45;&gt;Node22</title>
<path fill="none" stroke="#63b8ff" d="M773.2,-109.98C749.25,-101.23 711.72,-87.51 684.67,-77.62"/>
<polygon fill="#63b8ff" stroke="#63b8ff" points="685.81,-74.32 675.22,-74.17 683.41,-80.89 685.81,-74.32"/>
</g>
<!-- Node23 -->
<g id="node23" class="node">
<title>Node23</title>
<g id="a_node23"><a xlink:href="serialize__type__info_8hpp.html" target="_top" xlink:title=" ">
<polygon fill="white" stroke="#666666" points="861.5,-74 731.5,-74 731.5,-55 861.5,-55 861.5,-74"/>
<text text-anchor="middle" x="796.5" y="-62" font-family="Helvetica,sans-Serif" font-size="10.00">serialize_type_info.hpp</text>
</a>
</g>
</g>
<!-- Node18&#45;&gt;Node23 -->
<g id="edge31" class="edge">
<title>Node18&#45;&gt;Node23</title>
<path fill="none" stroke="#63b8ff" d="M796.5,-109.75C796.5,-102.8 796.5,-92.85 796.5,-84.13"/>
<polygon fill="#63b8ff" stroke="#63b8ff" points="800,-84.09 796.5,-74.09 793,-84.09 800,-84.09"/>
</g>
<!-- Node23&#45;&gt;Node7 -->
<g id="edge34" class="edge">
<title>Node23&#45;&gt;Node7</title>
<path fill="none" stroke="#63b8ff" d="M776.74,-54.98C756.77,-46.38 725.7,-32.99 702.85,-23.15"/>
<polygon fill="#63b8ff" stroke="#63b8ff" points="704.19,-19.91 693.62,-19.17 701.42,-26.34 704.19,-19.91"/>
</g>
<!-- Node23&#45;&gt;Node11 -->
<g id="edge36" class="edge">
<title>Node23&#45;&gt;Node11</title>
<path fill="none" stroke="#63b8ff" d="M821.89,-54.98C849.27,-45.8 892.94,-31.15 922.62,-21.19"/>
<polygon fill="#63b8ff" stroke="#63b8ff" points="924.12,-24.38 932.49,-17.88 921.9,-17.74 924.12,-24.38"/>
</g>
<!-- Node23&#45;&gt;Node19 -->
<g id="edge32" class="edge">
<title>Node23&#45;&gt;Node19</title>
<path fill="none" stroke="#63b8ff" d="M809.84,-54.98C822.59,-46.84 842.05,-34.41 857.17,-24.76"/>
<polygon fill="#63b8ff" stroke="#63b8ff" points="859.38,-27.5 865.92,-19.17 855.61,-21.6 859.38,-27.5"/>
</g>
<!-- Node24 -->
<g id="node24" class="node">
<title>Node24</title>
<g id="a_node24"><a xlink:title=" ">
<polygon fill="#e0e0e0" stroke="#999999" points="768,-19 715,-19 715,0 768,0 768,-19"/>
<text text-anchor="middle" x="741.5" y="-7" font-family="Helvetica,sans-Serif" font-size="10.00">stdint.h</text>
</a>
</g>
</g>
<!-- Node23&#45;&gt;Node24 -->
<g id="edge33" class="edge">
<title>Node23&#45;&gt;Node24</title>
<path fill="none" stroke="#63b8ff" d="M787.42,-54.75C779.41,-47.03 767.54,-35.6 757.88,-26.28"/>
<polygon fill="#63b8ff" stroke="#63b8ff" points="760.04,-23.51 750.41,-19.09 755.19,-28.55 760.04,-23.51"/>
</g>
<!-- Node25 -->
<g id="node25" class="node">
<title>Node25</title>
<g id="a_node25"><a xlink:title=" ">
<polygon fill="#e0e0e0" stroke="#999999" points="827,-19 786,-19 786,0 827,0 827,-19"/>
<text text-anchor="middle" x="806.5" y="-7" font-family="Helvetica,sans-Serif" font-size="10.00">tuple</text>
</a>
</g>
</g>
<!-- Node23&#45;&gt;Node25 -->
<g id="edge35" class="edge">
<title>Node23&#45;&gt;Node25</title>
<path fill="none" stroke="#63b8ff" d="M798.15,-54.75C799.46,-47.8 801.34,-37.85 802.98,-29.13"/>
<polygon fill="#63b8ff" stroke="#63b8ff" points="806.46,-29.56 804.88,-19.09 799.59,-28.27 806.46,-29.56"/>
</g>
<!-- Node26&#45;&gt;Node10 -->
<g id="edge38" class="edge">
<title>Node26&#45;&gt;Node10</title>
<path fill="none" stroke="#63b8ff" d="M667.62,-129.17C643.88,-138.06 603.98,-151.95 573.96,-161.81"/>
<polygon fill="#63b8ff" stroke="#63b8ff" points="572.62,-158.56 564.2,-164.98 574.79,-165.22 572.62,-158.56"/>
</g>
</g>
</svg>
