<?xml version="1.0" encoding="UTF-8" standalone="no"?>
<!DOCTYPE svg PUBLIC "-//W3C//DTD SVG 1.1//EN"
 "http://www.w3.org/Graphics/SVG/1.1/DTD/svg11.dtd">
<!-- Generated by graphviz version 2.43.0 (0)
 -->
<!-- Title: roblab_mbed_lib/include/serial/pc_serial_connection.hpp Pages: 1 -->
<svg width="1015pt" height="258pt"
 viewBox="0.00 0.00 1014.50 258.00" xmlns="http://www.w3.org/2000/svg" xmlns:xlink="http://www.w3.org/1999/xlink">
<g id="graph0" class="graph" transform="scale(1 1) rotate(0) translate(4 254)">
<title>roblab_mbed_lib/include/serial/pc_serial_connection.hpp</title>
<!-- Node1 -->
<g id="node1" class="node">
<title>Node1</title>
<g id="a_node1"><a xlink:title="パソコンと接続してパケット通信を行うライブラリ">
<polygon fill="#999999" stroke="#666666" points="468,-250 295,-250 295,-220 468,-220 468,-250"/>
<text text-anchor="start" x="303" y="-238" font-family="Helvetica,sans-Serif" font-size="10.00">roblab_mbed_lib/include</text>
<text text-anchor="middle" x="381.5" y="-227" font-family="Helvetica,sans-Serif" font-size="10.00">/serial/pc_serial_connection.hpp</text>
</a>
</g>
</g>
<!-- Node2 -->
<g id="node2" class="node">
<title>Node2</title>
<g id="a_node2"><a xlink:href="mbed__uart__serial__io_8hpp.html" target="_top" xlink:title="mbedのUart通信IOライブラリ">
<polygon fill="white" stroke="#666666" points="310,-184 173,-184 173,-165 310,-165 310,-184"/>
<text text-anchor="middle" x="241.5" y="-172" font-family="Helvetica,sans-Serif" font-size="10.00">mbed_uart_serial_io.hpp</text>
</a>
</g>
</g>
<!-- Node1&#45;&gt;Node2 -->
<g id="edge1" class="edge">
<title>Node1&#45;&gt;Node2</title>
<path fill="none" stroke="#63b8ff" d="M347.97,-219.99C324.71,-210.27 294.01,-197.44 271.55,-188.06"/>
<polygon fill="#63b8ff" stroke="#63b8ff" points="272.75,-184.77 262.18,-184.14 270.05,-191.22 272.75,-184.77"/>
</g>
<!-- Node10 -->
<g id="node10" class="node">
<title>Node10</title>
<g id="a_node10"><a xlink:href="id__packet__manager_8hpp.html" target="_top" xlink:title="ID付きパケットデータを管理">
<polygon fill="white" stroke="#666666" points="646,-184 483,-184 483,-165 646,-165 646,-184"/>
<text text-anchor="middle" x="564.5" y="-172" font-family="Helvetica,sans-Serif" font-size="10.00">serial/id_packet_manager.hpp</text>
</a>
</g>
</g>
<!-- Node1&#45;&gt;Node10 -->
<g id="edge10" class="edge">
<title>Node1&#45;&gt;Node10</title>
<path fill="none" stroke="#63b8ff" d="M425.33,-219.99C456.64,-209.98 498.28,-196.67 527.83,-187.22"/>
<polygon fill="#63b8ff" stroke="#63b8ff" points="529.28,-190.43 537.74,-184.05 527.15,-183.76 529.28,-190.43"/>
</g>
<!-- Node3 -->
<g id="node3" class="node">
<title>Node3</title>
<g id="a_node3"><a xlink:title=" ">
<polygon fill="#e0e0e0" stroke="#999999" points="53,-129 0,-129 0,-110 53,-110 53,-129"/>
<text text-anchor="middle" x="26.5" y="-117" font-family="Helvetica,sans-Serif" font-size="10.00">mbed.h</text>
</a>
</g>
</g>
<!-- Node2&#45;&gt;Node3 -->
<g id="edge2" class="edge">
<title>Node2&#45;&gt;Node3</title>
<path fill="none" stroke="#63b8ff" d="M206.96,-164.98C167.54,-155.27 103.33,-139.44 63.08,-129.52"/>
<polygon fill="#63b8ff" stroke="#63b8ff" points="63.7,-126.06 53.15,-127.07 62.02,-132.86 63.7,-126.06"/>
</g>
<!-- Node4 -->
<g id="node4" class="node">
<title>Node4</title>
<g id="a_node4"><a xlink:href="i__serial__io_8hpp.html" target="_top" xlink:title="シリアル通信IO抽象クラス">
<polygon fill="white" stroke="#666666" points="343,-129 226,-129 226,-110 343,-110 343,-129"/>
<text text-anchor="middle" x="284.5" y="-117" font-family="Helvetica,sans-Serif" font-size="10.00">serial/i_serial_io.hpp</text>
</a>
</g>
</g>
<!-- Node2&#45;&gt;Node4 -->
<g id="edge3" class="edge">
<title>Node2&#45;&gt;Node4</title>
<path fill="none" stroke="#63b8ff" d="M248.6,-164.75C254.67,-157.26 263.59,-146.28 271.01,-137.13"/>
<polygon fill="#63b8ff" stroke="#63b8ff" points="273.95,-139.06 277.53,-129.09 268.51,-134.65 273.95,-139.06"/>
</g>
<!-- Node5 -->
<g id="node5" class="node">
<title>Node5</title>
<g id="a_node5"><a xlink:href="byte__ring__buffer_8hpp.html" target="_top" xlink:title="シリアル通信用リングバッファー">
<polygon fill="white" stroke="#666666" points="333.5,-74 215.5,-74 215.5,-55 333.5,-55 333.5,-74"/>
<text text-anchor="middle" x="274.5" y="-62" font-family="Helvetica,sans-Serif" font-size="10.00">byte_ring_buffer.hpp</text>
</a>
</g>
</g>
<!-- Node2&#45;&gt;Node5 -->
<g id="edge9" class="edge">
<title>Node2&#45;&gt;Node5</title>
<path fill="none" stroke="#63b8ff" d="M233.35,-164.67C222.9,-152.23 207.17,-128.91 216.5,-110 222.99,-96.85 235.43,-86.5 247.14,-79.11"/>
<polygon fill="#63b8ff" stroke="#63b8ff" points="248.96,-82.1 255.83,-74.03 245.43,-76.05 248.96,-82.1"/>
</g>
<!-- Node4&#45;&gt;Node5 -->
<g id="edge4" class="edge">
<title>Node4&#45;&gt;Node5</title>
<path fill="none" stroke="#63b8ff" d="M282.85,-109.75C281.54,-102.8 279.66,-92.85 278.02,-84.13"/>
<polygon fill="#63b8ff" stroke="#63b8ff" points="281.41,-83.27 276.12,-74.09 274.54,-84.56 281.41,-83.27"/>
</g>
<!-- Node6 -->
<g id="node6" class="node">
<title>Node6</title>
<g id="a_node6"><a xlink:title=" ">
<polygon fill="#e0e0e0" stroke="#999999" points="386.5,-19 336.5,-19 336.5,0 386.5,0 386.5,-19"/>
<text text-anchor="middle" x="361.5" y="-7" font-family="Helvetica,sans-Serif" font-size="10.00">cstdint</text>
</a>
</g>
</g>
<!-- Node5&#45;&gt;Node6 -->
<g id="edge5" class="edge">
<title>Node5&#45;&gt;Node6</title>
<path fill="none" stroke="#63b8ff" d="M288.48,-54.98C301.97,-46.77 322.63,-34.18 338.54,-24.49"/>
<polygon fill="#63b8ff" stroke="#63b8ff" points="340.55,-27.36 347.27,-19.17 336.91,-21.38 340.55,-27.36"/>
</g>
<!-- Node7 -->
<g id="node7" class="node">
<title>Node7</title>
<g id="a_node7"><a xlink:title=" ">
<polygon fill="#e0e0e0" stroke="#999999" points="727,-19 680,-19 680,0 727,0 727,-19"/>
<text text-anchor="middle" x="703.5" y="-7" font-family="Helvetica,sans-Serif" font-size="10.00">vector</text>
</a>
</g>
</g>
<!-- Node5&#45;&gt;Node7 -->
<g id="edge6" class="edge">
<title>Node5&#45;&gt;Node7</title>
<path fill="none" stroke="#63b8ff" d="M333.7,-56.19C425.06,-44.9 597.42,-23.61 669.97,-14.64"/>
<polygon fill="#63b8ff" stroke="#63b8ff" points="670.43,-18.11 679.93,-13.41 669.58,-11.16 670.43,-18.11"/>
</g>
<!-- Node8 -->
<g id="node8" class="node">
<title>Node8</title>
<g id="a_node8"><a xlink:title=" ">
<polygon fill="#e0e0e0" stroke="#999999" points="258.5,-19 212.5,-19 212.5,0 258.5,0 258.5,-19"/>
<text text-anchor="middle" x="235.5" y="-7" font-family="Helvetica,sans-Serif" font-size="10.00">cstdio</text>
</a>
</g>
</g>
<!-- Node5&#45;&gt;Node8 -->
<g id="edge7" class="edge">
<title>Node5&#45;&gt;Node8</title>
<path fill="none" stroke="#63b8ff" d="M268.06,-54.75C262.61,-47.34 254.64,-36.5 247.94,-27.41"/>
<polygon fill="#63b8ff" stroke="#63b8ff" points="250.57,-25.07 241.82,-19.09 244.93,-29.22 250.57,-25.07"/>
</g>
<!-- Node9 -->
<g id="node9" class="node">
<title>Node9</title>
<g id="a_node9"><a xlink:title=" ">
<polygon fill="#e0e0e0" stroke="#999999" points="174,-19 125,-19 125,0 174,0 174,-19"/>
<text text-anchor="middle" x="149.5" y="-7" font-family="Helvetica,sans-Serif" font-size="10.00">cstdlib</text>
</a>
</g>
</g>
<!-- Node5&#45;&gt;Node9 -->
<g id="edge8" class="edge">
<title>Node5&#45;&gt;Node9</title>
<path fill="none" stroke="#63b8ff" d="M254.42,-54.98C234.13,-46.38 202.54,-32.99 179.33,-23.15"/>
<polygon fill="#63b8ff" stroke="#63b8ff" points="180.52,-19.85 169.95,-19.17 177.79,-26.3 180.52,-19.85"/>
</g>
<!-- Node11 -->
<g id="node11" class="node">
<title>Node11</title>
<g id="a_node11"><a xlink:title=" ">
<polygon fill="#e0e0e0" stroke="#999999" points="1006.5,-19 962.5,-19 962.5,0 1006.5,0 1006.5,-19"/>
<text text-anchor="middle" x="984.5" y="-7" font-family="Helvetica,sans-Serif" font-size="10.00">string</text>
</a>
</g>
</g>
<!-- Node10&#45;&gt;Node11 -->
<g id="edge11" class="edge">
<title>Node10&#45;&gt;Node11</title>
<path fill="none" stroke="#63b8ff" d="M646.29,-168.54C728.62,-162.46 849.15,-150.24 890.5,-129 933.37,-106.98 963.09,-55.62 976.48,-28.31"/>
<polygon fill="#63b8ff" stroke="#63b8ff" points="979.7,-29.67 980.8,-19.13 973.37,-26.69 979.7,-29.67"/>
</g>
<!-- Node12 -->
<g id="node12" class="node">
<title>Node12</title>
<g id="a_node12"><a xlink:title=" ">
<polygon fill="#e0e0e0" stroke="#999999" points="454,-129 361,-129 361,-110 454,-110 454,-129"/>
<text text-anchor="middle" x="407.5" y="-117" font-family="Helvetica,sans-Serif" font-size="10.00">unordered_map</text>
</a>
</g>
</g>
<!-- Node10&#45;&gt;Node12 -->
<g id="edge12" class="edge">
<title>Node10&#45;&gt;Node12</title>
<path fill="none" stroke="#63b8ff" d="M539.28,-164.98C513.14,-156.16 472.1,-142.31 442.77,-132.41"/>
<polygon fill="#63b8ff" stroke="#63b8ff" points="443.52,-128.96 432.92,-129.08 441.28,-135.6 443.52,-128.96"/>
</g>
<!-- Node13 -->
<g id="node13" class="node">
<title>Node13</title>
<g id="a_node13"><a xlink:title=" ">
<polygon fill="#e0e0e0" stroke="#999999" points="111.5,-74 59.5,-74 59.5,-55 111.5,-55 111.5,-74"/>
<text text-anchor="middle" x="85.5" y="-62" font-family="Helvetica,sans-Serif" font-size="10.00">cassert</text>
</a>
</g>
</g>
<!-- Node10&#45;&gt;Node13 -->
<g id="edge13" class="edge">
<title>Node10&#45;&gt;Node13</title>
<path fill="none" stroke="#63b8ff" d="M482.97,-170.78C357.53,-165.84 128.65,-153.55 100.5,-129 87.97,-118.07 84.88,-98.8 84.52,-84.35"/>
<polygon fill="#63b8ff" stroke="#63b8ff" points="88.02,-84.1 84.69,-74.04 81.02,-83.98 88.02,-84.1"/>
</g>
<!-- Node14 -->
<g id="node14" class="node">
<title>Node14</title>
<g id="a_node14"><a xlink:title=" ">
<polygon fill="#e0e0e0" stroke="#999999" points="530.5,-129 472.5,-129 472.5,-110 530.5,-110 530.5,-129"/>
<text text-anchor="middle" x="501.5" y="-117" font-family="Helvetica,sans-Serif" font-size="10.00">memory</text>
</a>
</g>
</g>
<!-- Node10&#45;&gt;Node14 -->
<g id="edge14" class="edge">
<title>Node10&#45;&gt;Node14</title>
<path fill="none" stroke="#63b8ff" d="M554.38,-164.98C545.06,-157.15 531.03,-145.34 519.76,-135.86"/>
<polygon fill="#63b8ff" stroke="#63b8ff" points="521.71,-132.93 511.81,-129.17 517.21,-138.29 521.71,-132.93"/>
</g>
<!-- Node15 -->
<g id="node15" class="node">
<title>Node15</title>
<g id="a_node15"><a xlink:title=" ">
<polygon fill="#e0e0e0" stroke="#999999" points="580.5,-129 548.5,-129 548.5,-110 580.5,-110 580.5,-129"/>
<text text-anchor="middle" x="564.5" y="-117" font-family="Helvetica,sans-Serif" font-size="10.00">list</text>
</a>
</g>
</g>
<!-- Node10&#45;&gt;Node15 -->
<g id="edge15" class="edge">
<title>Node10&#45;&gt;Node15</title>
<path fill="none" stroke="#63b8ff" d="M564.5,-164.75C564.5,-157.8 564.5,-147.85 564.5,-139.13"/>
<polygon fill="#63b8ff" stroke="#63b8ff" points="568,-139.09 564.5,-129.09 561,-139.09 568,-139.09"/>
</g>
<!-- Node16 -->
<g id="node16" class="node">
<title>Node16</title>
<g id="a_node16"><a xlink:title=" ">
<polygon fill="#e0e0e0" stroke="#999999" points="664,-129 599,-129 599,-110 664,-110 664,-129"/>
<text text-anchor="middle" x="631.5" y="-117" font-family="Helvetica,sans-Serif" font-size="10.00">functional</text>
</a>
</g>
</g>
<!-- Node10&#45;&gt;Node16 -->
<g id="edge16" class="edge">
<title>Node10&#45;&gt;Node16</title>
<path fill="none" stroke="#63b8ff" d="M575.26,-164.98C585.27,-157.07 600.39,-145.11 612.43,-135.58"/>
<polygon fill="#63b8ff" stroke="#63b8ff" points="614.87,-138.12 620.54,-129.17 610.53,-132.63 614.87,-138.12"/>
</g>
<!-- Node17 -->
<g id="node17" class="node">
<title>Node17</title>
<g id="a_node17"><a xlink:href="cobs_8hpp.html" target="_top" xlink:title="COBS変換ライブラリ">
<polygon fill="white" stroke="#666666" points="169.5,-129 109.5,-129 109.5,-110 169.5,-110 169.5,-129"/>
<text text-anchor="middle" x="139.5" y="-117" font-family="Helvetica,sans-Serif" font-size="10.00">cobs.hpp</text>
</a>
</g>
</g>
<!-- Node10&#45;&gt;Node17 -->
<g id="edge17" class="edge">
<title>Node10&#45;&gt;Node17</title>
<path fill="none" stroke="#63b8ff" d="M496.22,-164.98C406.65,-153.81 252.35,-134.57 179.63,-125.5"/>
<polygon fill="#63b8ff" stroke="#63b8ff" points="179.87,-122.01 169.51,-124.24 179,-128.95 179.87,-122.01"/>
</g>
<!-- Node18 -->
<g id="node18" class="node">
<title>Node18</title>
<g id="a_node18"><a xlink:href="data__serializer_8hpp.html" target="_top" xlink:title="データとバイト列の変換ライブラリ">
<polygon fill="white" stroke="#666666" points="881.5,-129 771.5,-129 771.5,-110 881.5,-110 881.5,-129"/>
<text text-anchor="middle" x="826.5" y="-117" font-family="Helvetica,sans-Serif" font-size="10.00">data_serializer.hpp</text>
</a>
</g>
</g>
<!-- Node10&#45;&gt;Node18 -->
<g id="edge22" class="edge">
<title>Node10&#45;&gt;Node18</title>
<path fill="none" stroke="#63b8ff" d="M606.59,-164.98C652.2,-155.76 725.02,-141.03 774.25,-131.07"/>
<polygon fill="#63b8ff" stroke="#63b8ff" points="774.97,-134.5 784.08,-129.08 773.58,-127.63 774.97,-134.5"/>
</g>
<!-- Node26 -->
<g id="node26" class="node">
<title>Node26</title>
<g id="a_node26"><a xlink:href="sender_8hpp.html" target="_top" xlink:title="シリアル通信で送るデータを登録">
<polygon fill="white" stroke="#666666" points="753,-129 682,-129 682,-110 753,-110 753,-129"/>
<text text-anchor="middle" x="717.5" y="-117" font-family="Helvetica,sans-Serif" font-size="10.00">sender.hpp</text>
</a>
</g>
</g>
<!-- Node10&#45;&gt;Node26 -->
<g id="edge37" class="edge">
<title>Node10&#45;&gt;Node26</title>
<path fill="none" stroke="#63b8ff" d="M583.97,-164.98C607.59,-156.13 647.62,-142.19 677.78,-132.28"/>
<polygon fill="#63b8ff" stroke="#63b8ff" points="679.17,-135.51 687.6,-129.08 677,-128.85 679.17,-135.51"/>
</g>
<!-- Node17&#45;&gt;Node5 -->
<g id="edge18" class="edge">
<title>Node17&#45;&gt;Node5</title>
<path fill="none" stroke="#63b8ff" d="M161.19,-109.98C183.3,-101.3 217.82,-87.75 242.95,-77.88"/>
<polygon fill="#63b8ff" stroke="#63b8ff" points="244.39,-81.08 252.42,-74.17 241.83,-74.57 244.39,-81.08"/>
</g>
<!-- Node17&#45;&gt;Node8 -->
<g id="edge19" class="edge">
<title>Node17&#45;&gt;Node8</title>
<path fill="none" stroke="#63b8ff" d="M147.36,-109.66C163.47,-91.54 200.47,-49.91 221.04,-26.77"/>
<polygon fill="#63b8ff" stroke="#63b8ff" points="223.78,-28.96 227.8,-19.16 218.54,-24.31 223.78,-28.96"/>
</g>
<!-- Node17&#45;&gt;Node9 -->
<g id="edge21" class="edge">
<title>Node17&#45;&gt;Node9</title>
<path fill="none" stroke="#63b8ff" d="M140.32,-109.66C141.94,-92.17 145.58,-52.8 147.76,-29.27"/>
<polygon fill="#63b8ff" stroke="#63b8ff" points="151.26,-29.44 148.7,-19.16 144.29,-28.79 151.26,-29.44"/>
</g>
<!-- Node17&#45;&gt;Node13 -->
<g id="edge20" class="edge">
<title>Node17&#45;&gt;Node13</title>
<path fill="none" stroke="#63b8ff" d="M130.58,-109.75C122.72,-102.03 111.07,-90.6 101.58,-81.28"/>
<polygon fill="#63b8ff" stroke="#63b8ff" points="103.84,-78.6 94.25,-74.09 98.94,-83.59 103.84,-78.6"/>
</g>
<!-- Node18&#45;&gt;Node5 -->
<g id="edge30" class="edge">
<title>Node18&#45;&gt;Node5</title>
<path fill="none" stroke="#63b8ff" d="M771.36,-111.03C768.36,-110.67 765.4,-110.32 762.5,-110 613.42,-93.31 438.2,-78.5 343.57,-70.9"/>
<polygon fill="#63b8ff" stroke="#63b8ff" points="343.79,-67.41 333.55,-70.1 343.24,-74.38 343.79,-67.41"/>
</g>
<!-- Node18&#45;&gt;Node6 -->
<g id="edge25" class="edge">
<title>Node18&#45;&gt;Node6</title>
<path fill="none" stroke="#63b8ff" d="M771.16,-111.1C678.52,-98.69 501.75,-74.95 498.5,-74 456.82,-61.81 411.71,-38.81 385.07,-24.09"/>
<polygon fill="#63b8ff" stroke="#63b8ff" points="386.56,-20.92 376.13,-19.08 383.14,-27.02 386.56,-20.92"/>
</g>
<!-- Node18&#45;&gt;Node7 -->
<g id="edge24" class="edge">
<title>Node18&#45;&gt;Node7</title>
<path fill="none" stroke="#63b8ff" d="M808.21,-109.94C792.42,-102 769.52,-89.15 752.5,-74 737.12,-60.31 723.16,-41.25 714.11,-27.59"/>
<polygon fill="#63b8ff" stroke="#63b8ff" points="717.02,-25.65 708.67,-19.13 711.13,-29.43 717.02,-25.65"/>
</g>
<!-- Node18&#45;&gt;Node11 -->
<g id="edge23" class="edge">
<title>Node18&#45;&gt;Node11</title>
<path fill="none" stroke="#63b8ff" d="M848.48,-109.98C867.58,-102.07 895.54,-89.24 917.5,-74 937.34,-60.23 957.05,-40.66 969.89,-26.9"/>
<polygon fill="#63b8ff" stroke="#63b8ff" points="972.78,-28.92 976.95,-19.18 967.62,-24.2 972.78,-28.92"/>
</g>
<!-- Node19 -->
<g id="node19" class="node">
<title>Node19</title>
<g id="a_node19"><a xlink:title=" ">
<polygon fill="#e0e0e0" stroke="#999999" points="944,-19 875,-19 875,0 944,0 944,-19"/>
<text text-anchor="middle" x="909.5" y="-7" font-family="Helvetica,sans-Serif" font-size="10.00">type_traits</text>
</a>
</g>
</g>
<!-- Node18&#45;&gt;Node19 -->
<g id="edge26" class="edge">
<title>Node18&#45;&gt;Node19</title>
<path fill="none" stroke="#63b8ff" d="M851.53,-110C868.16,-103 888.99,-91.37 900.5,-74 909.24,-60.8 911.05,-42.68 910.93,-29.17"/>
<polygon fill="#63b8ff" stroke="#63b8ff" points="914.42,-28.95 910.48,-19.12 907.43,-29.26 914.42,-28.95"/>
</g>
<!-- Node20 -->
<g id="node20" class="node">
<title>Node20</title>
<g id="a_node20"><a xlink:title=" ">
<polygon fill="#e0e0e0" stroke="#999999" points="557.5,-74 507.5,-74 507.5,-55 557.5,-55 557.5,-74"/>
<text text-anchor="middle" x="532.5" y="-62" font-family="Helvetica,sans-Serif" font-size="10.00">cstring</text>
</a>
</g>
</g>
<!-- Node18&#45;&gt;Node20 -->
<g id="edge27" class="edge">
<title>Node18&#45;&gt;Node20</title>
<path fill="none" stroke="#63b8ff" d="M771.49,-110.32C720.98,-102.53 643.84,-89.93 567.92,-74.17"/>
<polygon fill="#63b8ff" stroke="#63b8ff" points="568.21,-70.65 557.7,-72.03 566.77,-77.5 568.21,-70.65"/>
</g>
<!-- Node21 -->
<g id="node21" class="node">
<title>Node21</title>
<g id="a_node21"><a xlink:title=" ">
<polygon fill="#e0e0e0" stroke="#999999" points="639.5,-74 575.5,-74 575.5,-55 639.5,-55 639.5,-74"/>
<text text-anchor="middle" x="607.5" y="-62" font-family="Helvetica,sans-Serif" font-size="10.00">algorithm</text>
</a>
</g>
</g>
<!-- Node18&#45;&gt;Node21 -->
<g id="edge28" class="edge">
<title>Node18&#45;&gt;Node21</title>
<path fill="none" stroke="#63b8ff" d="M791.31,-109.98C752.67,-100.63 690.63,-85.62 649.47,-75.66"/>
<polygon fill="#63b8ff" stroke="#63b8ff" points="650.29,-72.25 639.74,-73.3 648.64,-79.06 650.29,-72.25"/>
</g>
<!-- Node22 -->
<g id="node22" class="node">
<title>Node22</title>
<g id="a_node22"><a xlink:title=" ">
<polygon fill="#e0e0e0" stroke="#999999" points="705.5,-74 657.5,-74 657.5,-55 705.5,-55 705.5,-74"/>
<text text-anchor="middle" x="681.5" y="-62" font-family="Helvetica,sans-Serif" font-size="10.00">mutex</text>
</a>
</g>
</g>
<!-- Node18&#45;&gt;Node22 -->
<g id="edge29" class="edge">
<title>Node18&#45;&gt;Node22</title>
<path fill="none" stroke="#63b8ff" d="M803.2,-109.98C779.25,-101.23 741.72,-87.51 714.67,-77.62"/>
<polygon fill="#63b8ff" stroke="#63b8ff" points="715.81,-74.32 705.22,-74.17 713.41,-80.89 715.81,-74.32"/>
</g>
<!-- Node23 -->
<g id="node23" class="node">
<title>Node23</title>
<g id="a_node23"><a xlink:href="serialize__type__info_8hpp.html" target="_top" xlink:title="DataSeializerで変換する型に関する情報">
<polygon fill="white" stroke="#666666" points="891.5,-74 761.5,-74 761.5,-55 891.5,-55 891.5,-74"/>
<text text-anchor="middle" x="826.5" y="-62" font-family="Helvetica,sans-Serif" font-size="10.00">serialize_type_info.hpp</text>
</a>
</g>
</g>
<!-- Node18&#45;&gt;Node23 -->
<g id="edge31" class="edge">
<title>Node18&#45;&gt;Node23</title>
<path fill="none" stroke="#63b8ff" d="M826.5,-109.75C826.5,-102.8 826.5,-92.85 826.5,-84.13"/>
<polygon fill="#63b8ff" stroke="#63b8ff" points="830,-84.09 826.5,-74.09 823,-84.09 830,-84.09"/>
</g>
<!-- Node23&#45;&gt;Node7 -->
<g id="edge34" class="edge">
<title>Node23&#45;&gt;Node7</title>
<path fill="none" stroke="#63b8ff" d="M806.74,-54.98C786.77,-46.38 755.7,-32.99 732.85,-23.15"/>
<polygon fill="#63b8ff" stroke="#63b8ff" points="734.19,-19.91 723.62,-19.17 731.42,-26.34 734.19,-19.91"/>
</g>
<!-- Node23&#45;&gt;Node11 -->
<g id="edge36" class="edge">
<title>Node23&#45;&gt;Node11</title>
<path fill="none" stroke="#63b8ff" d="M851.89,-54.98C879.27,-45.8 922.94,-31.15 952.62,-21.19"/>
<polygon fill="#63b8ff" stroke="#63b8ff" points="954.12,-24.38 962.49,-17.88 951.9,-17.74 954.12,-24.38"/>
</g>
<!-- Node23&#45;&gt;Node19 -->
<g id="edge32" class="edge">
<title>Node23&#45;&gt;Node19</title>
<path fill="none" stroke="#63b8ff" d="M839.84,-54.98C852.59,-46.84 872.05,-34.41 887.17,-24.76"/>
<polygon fill="#63b8ff" stroke="#63b8ff" points="889.38,-27.5 895.92,-19.17 885.61,-21.6 889.38,-27.5"/>
</g>
<!-- Node24 -->
<g id="node24" class="node">
<title>Node24</title>
<g id="a_node24"><a xlink:title=" ">
<polygon fill="#e0e0e0" stroke="#999999" points="798,-19 745,-19 745,0 798,0 798,-19"/>
<text text-anchor="middle" x="771.5" y="-7" font-family="Helvetica,sans-Serif" font-size="10.00">stdint.h</text>
</a>
</g>
</g>
<!-- Node23&#45;&gt;Node24 -->
<g id="edge33" class="edge">
<title>Node23&#45;&gt;Node24</title>
<path fill="none" stroke="#63b8ff" d="M817.42,-54.75C809.41,-47.03 797.54,-35.6 787.88,-26.28"/>
<polygon fill="#63b8ff" stroke="#63b8ff" points="790.04,-23.51 780.41,-19.09 785.19,-28.55 790.04,-23.51"/>
</g>
<!-- Node25 -->
<g id="node25" class="node">
<title>Node25</title>
<g id="a_node25"><a xlink:title=" ">
<polygon fill="#e0e0e0" stroke="#999999" points="857,-19 816,-19 816,0 857,0 857,-19"/>
<text text-anchor="middle" x="836.5" y="-7" font-family="Helvetica,sans-Serif" font-size="10.00">tuple</text>
</a>
</g>
</g>
<!-- Node23&#45;&gt;Node25 -->
<g id="edge35" class="edge">
<title>Node23&#45;&gt;Node25</title>
<path fill="none" stroke="#63b8ff" d="M828.15,-54.75C829.46,-47.8 831.34,-37.85 832.98,-29.13"/>
<polygon fill="#63b8ff" stroke="#63b8ff" points="836.46,-29.56 834.88,-19.09 829.59,-28.27 836.46,-29.56"/>
</g>
<!-- Node26&#45;&gt;Node10 -->
<g id="edge38" class="edge">
<title>Node26&#45;&gt;Node10</title>
<path fill="none" stroke="#63b8ff" d="M697.62,-129.17C673.88,-138.06 633.98,-151.95 603.96,-161.81"/>
<polygon fill="#63b8ff" stroke="#63b8ff" points="602.62,-158.56 594.2,-164.98 604.79,-165.22 602.62,-158.56"/>
</g>
</g>
</svg>
