<?xml version="1.0" encoding="UTF-8" standalone="no"?>
<!DOCTYPE svg PUBLIC "-//W3C//DTD SVG 1.1//EN"
 "http://www.w3.org/Graphics/SVG/1.1/DTD/svg11.dtd">
<!-- Generated by graphviz version 2.43.0 (0)
 -->
<!-- Title: roblab_mbed_lib/include/roblab_mbed/serial/pc_uart_connection.hpp Pages: 1 -->
<svg width="1151pt" height="302pt"
 viewBox="0.00 0.00 1150.50 302.00" xmlns="http://www.w3.org/2000/svg" xmlns:xlink="http://www.w3.org/1999/xlink">
<g id="graph0" class="graph" transform="scale(1 1) rotate(0) translate(4 298)">
<title>roblab_mbed_lib/include/roblab_mbed/serial/pc_uart_connection.hpp</title>
<!-- Node1 -->
<g id="node1" class="node">
<title>Node1</title>
<g id="a_node1"><a xlink:title="パソコンと接続してパケット通信を行うライブラリ">
<polygon fill="#999999" stroke="#666666" points="674.5,-294 538.5,-294 538.5,-253 674.5,-253 674.5,-294"/>
<text text-anchor="start" x="546.5" y="-282" font-family="Helvetica,sans-Serif" font-size="10.00">roblab_mbed_lib/include</text>
<text text-anchor="start" x="546.5" y="-271" font-family="Helvetica,sans-Serif" font-size="10.00">/roblab_mbed/serial/pc</text>
<text text-anchor="middle" x="606.5" y="-260" font-family="Helvetica,sans-Serif" font-size="10.00">_uart_connection.hpp</text>
</a>
</g>
</g>
<!-- Node2 -->
<g id="node2" class="node">
<title>Node2</title>
<g id="a_node2"><a xlink:href="uart__io_8hpp.html" target="_top" xlink:title="mbedのUart通信IOライブラリ">
<polygon fill="white" stroke="#666666" points="364.5,-217 254.5,-217 254.5,-187 364.5,-187 364.5,-217"/>
<text text-anchor="start" x="262.5" y="-205" font-family="Helvetica,sans-Serif" font-size="10.00">roblab_mbed/serial</text>
<text text-anchor="middle" x="309.5" y="-194" font-family="Helvetica,sans-Serif" font-size="10.00">/uart_io.hpp</text>
</a>
</g>
</g>
<!-- Node1&#45;&gt;Node2 -->
<g id="edge1" class="edge">
<title>Node1&#45;&gt;Node2</title>
<path fill="none" stroke="#63b8ff" d="M538.36,-256.56C489.17,-245.05 423.15,-229.6 374.66,-218.25"/>
<polygon fill="#63b8ff" stroke="#63b8ff" points="375.44,-214.84 364.9,-215.96 373.84,-221.65 375.44,-214.84"/>
</g>
<!-- Node10 -->
<g id="node10" class="node">
<title>Node10</title>
<g id="a_node10"><a xlink:href="id__packet__manager_8hpp.html" target="_top" xlink:title="ID付きパケットデータを管理">
<polygon fill="white" stroke="#666666" points="674.5,-217 538.5,-217 538.5,-187 674.5,-187 674.5,-217"/>
<text text-anchor="start" x="546.5" y="-205" font-family="Helvetica,sans-Serif" font-size="10.00">roblab_common/serial</text>
<text text-anchor="middle" x="606.5" y="-194" font-family="Helvetica,sans-Serif" font-size="10.00">/id_packet_manager.hpp</text>
</a>
</g>
</g>
<!-- Node1&#45;&gt;Node10 -->
<g id="edge10" class="edge">
<title>Node1&#45;&gt;Node10</title>
<path fill="none" stroke="#63b8ff" d="M606.5,-252.77C606.5,-244.85 606.5,-235.63 606.5,-227.3"/>
<polygon fill="#63b8ff" stroke="#63b8ff" points="610,-227.04 606.5,-217.04 603,-227.04 610,-227.04"/>
</g>
<!-- Node27 -->
<g id="node27" class="node">
<title>Node27</title>
<g id="a_node27"><a xlink:title=" ">
<polygon fill="#e0e0e0" stroke="#999999" points="730.5,-211.5 692.5,-211.5 692.5,-192.5 730.5,-192.5 730.5,-211.5"/>
<text text-anchor="middle" x="711.5" y="-199.5" font-family="Helvetica,sans-Serif" font-size="10.00">map</text>
</a>
</g>
</g>
<!-- Node1&#45;&gt;Node27 -->
<g id="edge40" class="edge">
<title>Node1&#45;&gt;Node27</title>
<path fill="none" stroke="#63b8ff" d="M636.03,-252.96C653.27,-241.54 674.62,-227.41 690.21,-217.09"/>
<polygon fill="#63b8ff" stroke="#63b8ff" points="692.25,-219.94 698.65,-211.5 688.38,-214.1 692.25,-219.94"/>
</g>
<!-- Node3 -->
<g id="node3" class="node">
<title>Node3</title>
<g id="a_node3"><a xlink:title=" ">
<polygon fill="#e0e0e0" stroke="#999999" points="53,-145.5 0,-145.5 0,-126.5 53,-126.5 53,-145.5"/>
<text text-anchor="middle" x="26.5" y="-133.5" font-family="Helvetica,sans-Serif" font-size="10.00">mbed.h</text>
</a>
</g>
</g>
<!-- Node2&#45;&gt;Node3 -->
<g id="edge2" class="edge">
<title>Node2&#45;&gt;Node3</title>
<path fill="none" stroke="#63b8ff" d="M254.25,-191.62C204.9,-182.76 130.82,-168.28 67.5,-151 64.87,-150.28 62.16,-149.49 59.45,-148.65"/>
<polygon fill="#63b8ff" stroke="#63b8ff" points="60.35,-145.26 49.76,-145.51 58.19,-151.92 60.35,-145.26"/>
</g>
<!-- Node4 -->
<g id="node4" class="node">
<title>Node4</title>
<g id="a_node4"><a xlink:href="i__uart__io_8hpp.html" target="_top" xlink:title=" ">
<polygon fill="white" stroke="#666666" points="417,-151 292,-151 292,-121 417,-121 417,-151"/>
<text text-anchor="start" x="300" y="-139" font-family="Helvetica,sans-Serif" font-size="10.00">roblab_common/serial</text>
<text text-anchor="middle" x="354.5" y="-128" font-family="Helvetica,sans-Serif" font-size="10.00">/i_uart_io.hpp</text>
</a>
</g>
</g>
<!-- Node2&#45;&gt;Node4 -->
<g id="edge3" class="edge">
<title>Node2&#45;&gt;Node4</title>
<path fill="none" stroke="#63b8ff" d="M319.49,-186.8C325.14,-178.76 332.33,-168.53 338.73,-159.43"/>
<polygon fill="#63b8ff" stroke="#63b8ff" points="341.65,-161.36 344.54,-151.16 335.93,-157.33 341.65,-161.36"/>
</g>
<!-- Node5 -->
<g id="node5" class="node">
<title>Node5</title>
<g id="a_node5"><a xlink:href="byte__ring__buffer_8hpp.html" target="_top" xlink:title="シリアル通信用リングバッファー">
<polygon fill="white" stroke="#666666" points="414,-85 289,-85 289,-55 414,-55 414,-85"/>
<text text-anchor="start" x="297" y="-73" font-family="Helvetica,sans-Serif" font-size="10.00">roblab_common/serial</text>
<text text-anchor="middle" x="351.5" y="-62" font-family="Helvetica,sans-Serif" font-size="10.00">/byte_ring_buffer.hpp</text>
</a>
</g>
</g>
<!-- Node2&#45;&gt;Node5 -->
<g id="edge9" class="edge">
<title>Node2&#45;&gt;Node5</title>
<path fill="none" stroke="#63b8ff" d="M298.15,-186.92C286.43,-170.53 271.31,-142.94 282.5,-121 288.88,-108.5 300,-98.41 311.47,-90.64"/>
<polygon fill="#63b8ff" stroke="#63b8ff" points="313.62,-93.43 320.24,-85.16 309.91,-87.49 313.62,-93.43"/>
</g>
<!-- Node4&#45;&gt;Node5 -->
<g id="edge4" class="edge">
<title>Node4&#45;&gt;Node5</title>
<path fill="none" stroke="#63b8ff" d="M353.83,-120.8C353.48,-113.34 353.05,-103.99 352.64,-95.41"/>
<polygon fill="#63b8ff" stroke="#63b8ff" points="356.13,-94.99 352.16,-85.16 349.14,-95.32 356.13,-94.99"/>
</g>
<!-- Node6 -->
<g id="node6" class="node">
<title>Node6</title>
<g id="a_node6"><a xlink:title=" ">
<polygon fill="#e0e0e0" stroke="#999999" points="464.5,-19 414.5,-19 414.5,0 464.5,0 464.5,-19"/>
<text text-anchor="middle" x="439.5" y="-7" font-family="Helvetica,sans-Serif" font-size="10.00">cstdint</text>
</a>
</g>
</g>
<!-- Node5&#45;&gt;Node6 -->
<g id="edge5" class="edge">
<title>Node5&#45;&gt;Node6</title>
<path fill="none" stroke="#63b8ff" d="M372.8,-54.84C386.57,-45.68 404.43,-33.82 418.2,-24.66"/>
<polygon fill="#63b8ff" stroke="#63b8ff" points="420.18,-27.55 426.57,-19.09 416.31,-21.72 420.18,-27.55"/>
</g>
<!-- Node7 -->
<g id="node7" class="node">
<title>Node7</title>
<g id="a_node7"><a xlink:title=" ">
<polygon fill="#e0e0e0" stroke="#999999" points="863,-19 816,-19 816,0 863,0 863,-19"/>
<text text-anchor="middle" x="839.5" y="-7" font-family="Helvetica,sans-Serif" font-size="10.00">vector</text>
</a>
</g>
</g>
<!-- Node5&#45;&gt;Node7 -->
<g id="edge6" class="edge">
<title>Node5&#45;&gt;Node7</title>
<path fill="none" stroke="#63b8ff" d="M414.3,-61.47C518.76,-48.95 724.72,-24.26 805.68,-14.55"/>
<polygon fill="#63b8ff" stroke="#63b8ff" points="806.3,-18.01 815.81,-13.34 805.46,-11.06 806.3,-18.01"/>
</g>
<!-- Node8 -->
<g id="node8" class="node">
<title>Node8</title>
<g id="a_node8"><a xlink:title=" ">
<polygon fill="#e0e0e0" stroke="#999999" points="322.5,-19 276.5,-19 276.5,0 322.5,0 322.5,-19"/>
<text text-anchor="middle" x="299.5" y="-7" font-family="Helvetica,sans-Serif" font-size="10.00">cstdio</text>
</a>
</g>
</g>
<!-- Node5&#45;&gt;Node8 -->
<g id="edge7" class="edge">
<title>Node5&#45;&gt;Node8</title>
<path fill="none" stroke="#63b8ff" d="M338.91,-54.84C331.44,-46.43 321.94,-35.74 314.13,-26.96"/>
<polygon fill="#63b8ff" stroke="#63b8ff" points="316.55,-24.41 307.29,-19.27 311.32,-29.07 316.55,-24.41"/>
</g>
<!-- Node9 -->
<g id="node9" class="node">
<title>Node9</title>
<g id="a_node9"><a xlink:title=" ">
<polygon fill="#e0e0e0" stroke="#999999" points="252,-19 203,-19 203,0 252,0 252,-19"/>
<text text-anchor="middle" x="227.5" y="-7" font-family="Helvetica,sans-Serif" font-size="10.00">cstdlib</text>
</a>
</g>
</g>
<!-- Node5&#45;&gt;Node9 -->
<g id="edge8" class="edge">
<title>Node5&#45;&gt;Node9</title>
<path fill="none" stroke="#63b8ff" d="M321.8,-54.99C301.48,-45.4 274.74,-32.79 254.92,-23.44"/>
<polygon fill="#63b8ff" stroke="#63b8ff" points="256.35,-20.24 245.81,-19.14 253.36,-26.57 256.35,-20.24"/>
</g>
<!-- Node10&#45;&gt;Node4 -->
<g id="edge39" class="edge">
<title>Node10&#45;&gt;Node4</title>
<path fill="none" stroke="#63b8ff" d="M551.2,-186.95C512.38,-177.1 460.33,-163.88 419.52,-153.51"/>
<polygon fill="#63b8ff" stroke="#63b8ff" points="420.23,-150.08 409.67,-151.01 418.5,-156.87 420.23,-150.08"/>
</g>
<!-- Node11 -->
<g id="node11" class="node">
<title>Node11</title>
<g id="a_node11"><a xlink:title=" ">
<polygon fill="#e0e0e0" stroke="#999999" points="1142.5,-19 1098.5,-19 1098.5,0 1142.5,0 1142.5,-19"/>
<text text-anchor="middle" x="1120.5" y="-7" font-family="Helvetica,sans-Serif" font-size="10.00">string</text>
</a>
</g>
</g>
<!-- Node10&#45;&gt;Node11 -->
<g id="edge11" class="edge">
<title>Node10&#45;&gt;Node11</title>
<path fill="none" stroke="#63b8ff" d="M674.89,-188.28C677.8,-187.83 680.68,-187.4 683.5,-187 760.91,-176 965.36,-189.34 1033.5,-151 1080.69,-124.45 1105.59,-60.67 1115.41,-29"/>
<polygon fill="#63b8ff" stroke="#63b8ff" points="1118.82,-29.83 1118.27,-19.25 1112.1,-27.86 1118.82,-29.83"/>
</g>
<!-- Node12 -->
<g id="node12" class="node">
<title>Node12</title>
<g id="a_node12"><a xlink:title=" ">
<polygon fill="#e0e0e0" stroke="#999999" points="528,-145.5 435,-145.5 435,-126.5 528,-126.5 528,-145.5"/>
<text text-anchor="middle" x="481.5" y="-133.5" font-family="Helvetica,sans-Serif" font-size="10.00">unordered_map</text>
</a>
</g>
</g>
<!-- Node10&#45;&gt;Node12 -->
<g id="edge12" class="edge">
<title>Node10&#45;&gt;Node12</title>
<path fill="none" stroke="#63b8ff" d="M579.07,-186.95C557.63,-175.98 528.05,-160.83 507.1,-150.11"/>
<polygon fill="#63b8ff" stroke="#63b8ff" points="508.63,-146.96 498.14,-145.52 505.44,-153.19 508.63,-146.96"/>
</g>
<!-- Node13 -->
<g id="node13" class="node">
<title>Node13</title>
<g id="a_node13"><a xlink:title=" ">
<polygon fill="#e0e0e0" stroke="#999999" points="128.5,-79.5 76.5,-79.5 76.5,-60.5 128.5,-60.5 128.5,-79.5"/>
<text text-anchor="middle" x="102.5" y="-67.5" font-family="Helvetica,sans-Serif" font-size="10.00">cassert</text>
</a>
</g>
</g>
<!-- Node10&#45;&gt;Node13 -->
<g id="edge13" class="edge">
<title>Node10&#45;&gt;Node13</title>
<path fill="none" stroke="#63b8ff" d="M538.28,-196.67C403.55,-187.8 115.01,-167.02 100.5,-151 85.6,-134.55 90.07,-107.48 95.54,-89.45"/>
<polygon fill="#63b8ff" stroke="#63b8ff" points="98.92,-90.39 98.83,-79.79 92.29,-88.13 98.92,-90.39"/>
</g>
<!-- Node14 -->
<g id="node14" class="node">
<title>Node14</title>
<g id="a_node14"><a xlink:title=" ">
<polygon fill="#e0e0e0" stroke="#999999" points="604.5,-145.5 546.5,-145.5 546.5,-126.5 604.5,-126.5 604.5,-145.5"/>
<text text-anchor="middle" x="575.5" y="-133.5" font-family="Helvetica,sans-Serif" font-size="10.00">memory</text>
</a>
</g>
</g>
<!-- Node10&#45;&gt;Node14 -->
<g id="edge14" class="edge">
<title>Node10&#45;&gt;Node14</title>
<path fill="none" stroke="#63b8ff" d="M599.62,-186.8C595.07,-177.41 589.07,-165.02 584.19,-154.95"/>
<polygon fill="#63b8ff" stroke="#63b8ff" points="587.29,-153.32 579.78,-145.84 580.99,-156.37 587.29,-153.32"/>
</g>
<!-- Node15 -->
<g id="node15" class="node">
<title>Node15</title>
<g id="a_node15"><a xlink:title=" ">
<polygon fill="#e0e0e0" stroke="#999999" points="654.5,-145.5 622.5,-145.5 622.5,-126.5 654.5,-126.5 654.5,-145.5"/>
<text text-anchor="middle" x="638.5" y="-133.5" font-family="Helvetica,sans-Serif" font-size="10.00">list</text>
</a>
</g>
</g>
<!-- Node10&#45;&gt;Node15 -->
<g id="edge15" class="edge">
<title>Node10&#45;&gt;Node15</title>
<path fill="none" stroke="#63b8ff" d="M613.6,-186.8C618.3,-177.41 624.49,-165.02 629.53,-154.95"/>
<polygon fill="#63b8ff" stroke="#63b8ff" points="632.74,-156.35 634.08,-145.84 626.48,-153.22 632.74,-156.35"/>
</g>
<!-- Node16 -->
<g id="node16" class="node">
<title>Node16</title>
<g id="a_node16"><a xlink:title=" ">
<polygon fill="#e0e0e0" stroke="#999999" points="738,-145.5 673,-145.5 673,-126.5 738,-126.5 738,-145.5"/>
<text text-anchor="middle" x="705.5" y="-133.5" font-family="Helvetica,sans-Serif" font-size="10.00">functional</text>
</a>
</g>
</g>
<!-- Node10&#45;&gt;Node16 -->
<g id="edge16" class="edge">
<title>Node10&#45;&gt;Node16</title>
<path fill="none" stroke="#63b8ff" d="M628.47,-186.8C644.91,-176.17 667.29,-161.7 683.69,-151.1"/>
<polygon fill="#63b8ff" stroke="#63b8ff" points="685.61,-154.03 692.11,-145.66 681.81,-148.15 685.61,-154.03"/>
</g>
<!-- Node17 -->
<g id="node17" class="node">
<title>Node17</title>
<g id="a_node17"><a xlink:href="cobs_8hpp.html" target="_top" xlink:title="COBS変換ライブラリ">
<polygon fill="white" stroke="#666666" points="235,-151 110,-151 110,-121 235,-121 235,-151"/>
<text text-anchor="start" x="118" y="-139" font-family="Helvetica,sans-Serif" font-size="10.00">roblab_common/serial</text>
<text text-anchor="middle" x="172.5" y="-128" font-family="Helvetica,sans-Serif" font-size="10.00">/cobs.hpp</text>
</a>
</g>
</g>
<!-- Node10&#45;&gt;Node17 -->
<g id="edge17" class="edge">
<title>Node10&#45;&gt;Node17</title>
<path fill="none" stroke="#63b8ff" d="M538.21,-190.93C458.43,-179.16 326.98,-159.78 245.31,-147.74"/>
<polygon fill="#63b8ff" stroke="#63b8ff" points="245.52,-144.23 235.11,-146.23 244.49,-151.15 245.52,-144.23"/>
</g>
<!-- Node18 -->
<g id="node18" class="node">
<title>Node18</title>
<g id="a_node18"><a xlink:href="data__serializer_8hpp.html" target="_top" xlink:title="データとバイト列の変換ライブラリ">
<polygon fill="white" stroke="#666666" points="1024,-151 899,-151 899,-121 1024,-121 1024,-151"/>
<text text-anchor="start" x="907" y="-139" font-family="Helvetica,sans-Serif" font-size="10.00">roblab_common/serial</text>
<text text-anchor="middle" x="961.5" y="-128" font-family="Helvetica,sans-Serif" font-size="10.00">/data_serializer.hpp</text>
</a>
</g>
</g>
<!-- Node10&#45;&gt;Node18 -->
<g id="edge22" class="edge">
<title>Node10&#45;&gt;Node18</title>
<path fill="none" stroke="#63b8ff" d="M674.52,-188.6C677.55,-188.06 680.56,-187.52 683.5,-187 772.3,-171.21 797.02,-168.23 888.79,-151.3"/>
<polygon fill="#63b8ff" stroke="#63b8ff" points="889.6,-154.71 898.79,-149.44 888.32,-147.82 889.6,-154.71"/>
</g>
<!-- Node26 -->
<g id="node26" class="node">
<title>Node26</title>
<g id="a_node26"><a xlink:href="sender_8hpp.html" target="_top" xlink:title="シリアル通信で送るデータを登録">
<polygon fill="white" stroke="#666666" points="881,-151 756,-151 756,-121 881,-121 881,-151"/>
<text text-anchor="start" x="764" y="-139" font-family="Helvetica,sans-Serif" font-size="10.00">roblab_common/serial</text>
<text text-anchor="middle" x="818.5" y="-128" font-family="Helvetica,sans-Serif" font-size="10.00">/sender.hpp</text>
</a>
</g>
</g>
<!-- Node10&#45;&gt;Node26 -->
<g id="edge37" class="edge">
<title>Node10&#45;&gt;Node26</title>
<path fill="none" stroke="#63b8ff" d="M647.32,-186.95C678.35,-177.2 721.45,-164.16 756.68,-153.84"/>
<polygon fill="#63b8ff" stroke="#63b8ff" points="757.77,-157.17 766.39,-151.01 755.81,-150.45 757.77,-157.17"/>
</g>
<!-- Node17&#45;&gt;Node5 -->
<g id="edge18" class="edge">
<title>Node17&#45;&gt;Node5</title>
<path fill="none" stroke="#63b8ff" d="M211.78,-120.95C238.48,-111.41 273.99,-98.71 302.53,-88.51"/>
<polygon fill="#63b8ff" stroke="#63b8ff" points="304.07,-91.67 312.31,-85.01 301.71,-85.08 304.07,-91.67"/>
</g>
<!-- Node17&#45;&gt;Node8 -->
<g id="edge19" class="edge">
<title>Node17&#45;&gt;Node8</title>
<path fill="none" stroke="#63b8ff" d="M187.07,-120.72C211.06,-97.2 258.68,-50.52 283.54,-26.14"/>
<polygon fill="#63b8ff" stroke="#63b8ff" points="286.07,-28.57 290.76,-19.07 281.17,-23.57 286.07,-28.57"/>
</g>
<!-- Node17&#45;&gt;Node9 -->
<g id="edge21" class="edge">
<title>Node17&#45;&gt;Node9</title>
<path fill="none" stroke="#63b8ff" d="M178.81,-120.72C188.88,-97.92 208.58,-53.33 219.58,-28.42"/>
<polygon fill="#63b8ff" stroke="#63b8ff" points="222.87,-29.63 223.71,-19.07 216.47,-26.8 222.87,-29.63"/>
</g>
<!-- Node17&#45;&gt;Node13 -->
<g id="edge20" class="edge">
<title>Node17&#45;&gt;Node13</title>
<path fill="none" stroke="#63b8ff" d="M156.96,-120.8C145.94,-110.72 131.15,-97.19 119.76,-86.78"/>
<polygon fill="#63b8ff" stroke="#63b8ff" points="121.92,-84.01 112.17,-79.84 117.19,-89.18 121.92,-84.01"/>
</g>
<!-- Node18&#45;&gt;Node5 -->
<g id="edge30" class="edge">
<title>Node18&#45;&gt;Node5</title>
<path fill="none" stroke="#63b8ff" d="M898.84,-122.28C896.03,-121.83 893.24,-121.4 890.5,-121 845.53,-114.5 560.85,-89.28 424.34,-77.34"/>
<polygon fill="#63b8ff" stroke="#63b8ff" points="424.64,-73.85 414.37,-76.47 424.03,-80.83 424.64,-73.85"/>
</g>
<!-- Node18&#45;&gt;Node6 -->
<g id="edge25" class="edge">
<title>Node18&#45;&gt;Node6</title>
<path fill="none" stroke="#63b8ff" d="M898.82,-122.44C896.01,-121.94 893.23,-121.46 890.5,-121 775.89,-101.75 743.99,-114.22 631.5,-85 570.92,-69.27 503.42,-40.22 466.79,-23.42"/>
<polygon fill="#63b8ff" stroke="#63b8ff" points="467.85,-20.05 457.3,-19.03 464.91,-26.41 467.85,-20.05"/>
</g>
<!-- Node18&#45;&gt;Node7 -->
<g id="edge24" class="edge">
<title>Node18&#45;&gt;Node7</title>
<path fill="none" stroke="#63b8ff" d="M934.85,-120.96C919.53,-112.04 900.59,-99.45 886.5,-85 870.03,-68.11 856.35,-44.54 848.07,-28.46"/>
<polygon fill="#63b8ff" stroke="#63b8ff" points="851.02,-26.52 843.44,-19.12 844.75,-29.63 851.02,-26.52"/>
</g>
<!-- Node18&#45;&gt;Node11 -->
<g id="edge23" class="edge">
<title>Node18&#45;&gt;Node11</title>
<path fill="none" stroke="#63b8ff" d="M995.05,-120.83C1013.84,-112.02 1037.12,-99.6 1055.5,-85 1076.63,-68.22 1096.31,-43.97 1108.36,-27.74"/>
<polygon fill="#63b8ff" stroke="#63b8ff" points="1111.49,-29.38 1114.53,-19.23 1105.83,-25.27 1111.49,-29.38"/>
</g>
<!-- Node19 -->
<g id="node19" class="node">
<title>Node19</title>
<g id="a_node19"><a xlink:title=" ">
<polygon fill="#e0e0e0" stroke="#999999" points="1080,-19 1011,-19 1011,0 1080,0 1080,-19"/>
<text text-anchor="middle" x="1045.5" y="-7" font-family="Helvetica,sans-Serif" font-size="10.00">type_traits</text>
</a>
</g>
</g>
<!-- Node18&#45;&gt;Node19 -->
<g id="edge26" class="edge">
<title>Node18&#45;&gt;Node19</title>
<path fill="none" stroke="#63b8ff" d="M995.48,-120.94C1010.89,-112.77 1027.79,-100.91 1037.5,-85 1047.75,-68.2 1048.68,-45.24 1047.73,-29.27"/>
<polygon fill="#63b8ff" stroke="#63b8ff" points="1051.19,-28.7 1046.8,-19.06 1044.22,-29.33 1051.19,-28.7"/>
</g>
<!-- Node20 -->
<g id="node20" class="node">
<title>Node20</title>
<g id="a_node20"><a xlink:title=" ">
<polygon fill="#e0e0e0" stroke="#999999" points="690.5,-79.5 640.5,-79.5 640.5,-60.5 690.5,-60.5 690.5,-79.5"/>
<text text-anchor="middle" x="665.5" y="-67.5" font-family="Helvetica,sans-Serif" font-size="10.00">cstring</text>
</a>
</g>
</g>
<!-- Node18&#45;&gt;Node20 -->
<g id="edge27" class="edge">
<title>Node18&#45;&gt;Node20</title>
<path fill="none" stroke="#63b8ff" d="M898.79,-122.6C895.99,-122.06 893.21,-121.52 890.5,-121 805.68,-104.64 782.31,-109.57 699.5,-85 697.62,-84.44 695.7,-83.82 693.78,-83.15"/>
<polygon fill="#63b8ff" stroke="#63b8ff" points="694.91,-79.83 684.31,-79.55 692.42,-86.37 694.91,-79.83"/>
</g>
<!-- Node21 -->
<g id="node21" class="node">
<title>Node21</title>
<g id="a_node21"><a xlink:title=" ">
<polygon fill="#e0e0e0" stroke="#999999" points="772.5,-79.5 708.5,-79.5 708.5,-60.5 772.5,-60.5 772.5,-79.5"/>
<text text-anchor="middle" x="740.5" y="-67.5" font-family="Helvetica,sans-Serif" font-size="10.00">algorithm</text>
</a>
</g>
</g>
<!-- Node18&#45;&gt;Node21 -->
<g id="edge28" class="edge">
<title>Node18&#45;&gt;Node21</title>
<path fill="none" stroke="#63b8ff" d="M907.7,-120.93C871.81,-111.33 823.64,-98.04 781.5,-85 779.2,-84.29 776.83,-83.53 774.44,-82.76"/>
<polygon fill="#63b8ff" stroke="#63b8ff" points="775.3,-79.36 764.71,-79.53 773.09,-86 775.3,-79.36"/>
</g>
<!-- Node22 -->
<g id="node22" class="node">
<title>Node22</title>
<g id="a_node22"><a xlink:title=" ">
<polygon fill="#e0e0e0" stroke="#999999" points="838.5,-79.5 790.5,-79.5 790.5,-60.5 838.5,-60.5 838.5,-79.5"/>
<text text-anchor="middle" x="814.5" y="-67.5" font-family="Helvetica,sans-Serif" font-size="10.00">mutex</text>
</a>
</g>
</g>
<!-- Node18&#45;&gt;Node22 -->
<g id="edge29" class="edge">
<title>Node18&#45;&gt;Node22</title>
<path fill="none" stroke="#63b8ff" d="M929.24,-120.95C903.57,-109.78 867.99,-94.29 843.28,-83.53"/>
<polygon fill="#63b8ff" stroke="#63b8ff" points="844.63,-80.3 834.06,-79.52 841.83,-86.72 844.63,-80.3"/>
</g>
<!-- Node23 -->
<g id="node23" class="node">
<title>Node23</title>
<g id="a_node23"><a xlink:href="serialize__type__info_8hpp.html" target="_top" xlink:title="DataSeializerで変換する型に関する情報">
<polygon fill="white" stroke="#666666" points="1028,-85 895,-85 895,-55 1028,-55 1028,-85"/>
<text text-anchor="start" x="903" y="-73" font-family="Helvetica,sans-Serif" font-size="10.00">roblab_common/serial</text>
<text text-anchor="middle" x="961.5" y="-62" font-family="Helvetica,sans-Serif" font-size="10.00">/serialize_type_info.hpp</text>
</a>
</g>
</g>
<!-- Node18&#45;&gt;Node23 -->
<g id="edge31" class="edge">
<title>Node18&#45;&gt;Node23</title>
<path fill="none" stroke="#63b8ff" d="M961.5,-120.8C961.5,-113.34 961.5,-103.99 961.5,-95.41"/>
<polygon fill="#63b8ff" stroke="#63b8ff" points="965,-95.16 961.5,-85.16 958,-95.16 965,-95.16"/>
</g>
<!-- Node23&#45;&gt;Node7 -->
<g id="edge34" class="edge">
<title>Node23&#45;&gt;Node7</title>
<path fill="none" stroke="#63b8ff" d="M932.28,-54.99C912.38,-45.45 886.22,-32.9 866.75,-23.57"/>
<polygon fill="#63b8ff" stroke="#63b8ff" points="868.05,-20.31 857.52,-19.14 865.02,-26.62 868.05,-20.31"/>
</g>
<!-- Node23&#45;&gt;Node11 -->
<g id="edge36" class="edge">
<title>Node23&#45;&gt;Node11</title>
<path fill="none" stroke="#63b8ff" d="M999.58,-54.99C1026.84,-44.96 1063.1,-31.62 1088.78,-22.17"/>
<polygon fill="#63b8ff" stroke="#63b8ff" points="1090.23,-25.37 1098.4,-18.63 1087.81,-18.8 1090.23,-25.37"/>
</g>
<!-- Node23&#45;&gt;Node19 -->
<g id="edge32" class="edge">
<title>Node23&#45;&gt;Node19</title>
<path fill="none" stroke="#63b8ff" d="M981.83,-54.84C994.77,-45.83 1011.49,-34.18 1024.55,-25.09"/>
<polygon fill="#63b8ff" stroke="#63b8ff" points="1026.71,-27.85 1032.91,-19.27 1022.71,-22.11 1026.71,-27.85"/>
</g>
<!-- Node24 -->
<g id="node24" class="node">
<title>Node24</title>
<g id="a_node24"><a xlink:title=" ">
<polygon fill="#e0e0e0" stroke="#999999" points="934,-19 881,-19 881,0 934,0 934,-19"/>
<text text-anchor="middle" x="907.5" y="-7" font-family="Helvetica,sans-Serif" font-size="10.00">stdint.h</text>
</a>
</g>
</g>
<!-- Node23&#45;&gt;Node24 -->
<g id="edge33" class="edge">
<title>Node23&#45;&gt;Node24</title>
<path fill="none" stroke="#63b8ff" d="M948.43,-54.84C940.59,-46.35 930.59,-35.52 922.44,-26.69"/>
<polygon fill="#63b8ff" stroke="#63b8ff" points="924.95,-24.24 915.59,-19.27 919.8,-28.99 924.95,-24.24"/>
</g>
<!-- Node25 -->
<g id="node25" class="node">
<title>Node25</title>
<g id="a_node25"><a xlink:title=" ">
<polygon fill="#e0e0e0" stroke="#999999" points="993,-19 952,-19 952,0 993,0 993,-19"/>
<text text-anchor="middle" x="972.5" y="-7" font-family="Helvetica,sans-Serif" font-size="10.00">tuple</text>
</a>
</g>
</g>
<!-- Node23&#45;&gt;Node25 -->
<g id="edge35" class="edge">
<title>Node23&#45;&gt;Node25</title>
<path fill="none" stroke="#63b8ff" d="M964.16,-54.84C965.61,-47.13 967.43,-37.49 968.99,-29.17"/>
<polygon fill="#63b8ff" stroke="#63b8ff" points="972.44,-29.74 970.85,-19.27 965.56,-28.45 972.44,-29.74"/>
</g>
<!-- Node26&#45;&gt;Node10 -->
<g id="edge38" class="edge">
<title>Node26&#45;&gt;Node10</title>
<path fill="none" stroke="#63b8ff" d="M777.78,-151.01C746.78,-160.76 703.68,-173.8 668.44,-184.12"/>
<polygon fill="#63b8ff" stroke="#63b8ff" points="667.34,-180.8 658.72,-186.95 669.3,-187.52 667.34,-180.8"/>
</g>
</g>
</svg>
