<?xml version="1.0" encoding="UTF-8" standalone="no"?>
<!DOCTYPE svg PUBLIC "-//W3C//DTD SVG 1.1//EN"
 "http://www.w3.org/Graphics/SVG/1.1/DTD/svg11.dtd">
<!-- Generated by graphviz version 2.43.0 (0)
 -->
<!-- Title: alps_mbed_lib/include/alps_mbed/communication/pc_uart_connection.hpp Pages: 1 -->
<svg width="1212pt" height="302pt"
 viewBox="0.00 0.00 1211.50 302.00" xmlns="http://www.w3.org/2000/svg" xmlns:xlink="http://www.w3.org/1999/xlink">
<g id="graph0" class="graph" transform="scale(1 1) rotate(0) translate(4 298)">
<title>alps_mbed_lib/include/alps_mbed/communication/pc_uart_connection.hpp</title>
<!-- Node1 -->
<g id="node1" class="node">
<title>Node1</title>
<g id="a_node1"><a xlink:title="パソコンと接続してパケット通信を行うライブラリ">
<polygon fill="#999999" stroke="#666666" points="715.5,-294 563.5,-294 563.5,-253 715.5,-253 715.5,-294"/>
<text text-anchor="start" x="571.5" y="-282" font-family="Helvetica,sans-Serif" font-size="10.00">alps_mbed_lib/include</text>
<text text-anchor="start" x="571.5" y="-271" font-family="Helvetica,sans-Serif" font-size="10.00">/alps_mbed/communication</text>
<text text-anchor="middle" x="639.5" y="-260" font-family="Helvetica,sans-Serif" font-size="10.00">/pc_uart_connection.hpp</text>
</a>
</g>
</g>
<!-- Node2 -->
<g id="node2" class="node">
<title>Node2</title>
<g id="a_node2"><a xlink:href="uart__io_8hpp.html" target="_top" xlink:title="mbedのUart通信IOライブラリ">
<polygon fill="white" stroke="#666666" points="404,-217 255,-217 255,-187 404,-187 404,-217"/>
<text text-anchor="start" x="263" y="-205" font-family="Helvetica,sans-Serif" font-size="10.00">alps_mbed/communication</text>
<text text-anchor="middle" x="329.5" y="-194" font-family="Helvetica,sans-Serif" font-size="10.00">/uart_io.hpp</text>
</a>
</g>
</g>
<!-- Node1&#45;&gt;Node2 -->
<g id="edge1" class="edge">
<title>Node1&#45;&gt;Node2</title>
<path fill="none" stroke="#63b8ff" d="M563.27,-255.41C514.04,-244.37 450.38,-230.1 401.93,-219.24"/>
<polygon fill="#63b8ff" stroke="#63b8ff" points="402.66,-215.82 392.14,-217.04 401.13,-222.65 402.66,-215.82"/>
</g>
<!-- Node10 -->
<g id="node10" class="node">
<title>Node10</title>
<g id="a_node10"><a xlink:href="id__packet__manager_8hpp.html" target="_top" xlink:title="ID付きパケットデータを管理">
<polygon fill="white" stroke="#666666" points="710.5,-217 568.5,-217 568.5,-187 710.5,-187 710.5,-217"/>
<text text-anchor="start" x="576.5" y="-205" font-family="Helvetica,sans-Serif" font-size="10.00">alps_cmn/communication</text>
<text text-anchor="middle" x="639.5" y="-194" font-family="Helvetica,sans-Serif" font-size="10.00">/id_packet_manager.hpp</text>
</a>
</g>
</g>
<!-- Node1&#45;&gt;Node10 -->
<g id="edge10" class="edge">
<title>Node1&#45;&gt;Node10</title>
<path fill="none" stroke="#63b8ff" d="M639.5,-252.77C639.5,-244.85 639.5,-235.63 639.5,-227.3"/>
<polygon fill="#63b8ff" stroke="#63b8ff" points="643,-227.04 639.5,-217.04 636,-227.04 643,-227.04"/>
</g>
<!-- Node27 -->
<g id="node27" class="node">
<title>Node27</title>
<g id="a_node27"><a xlink:title=" ">
<polygon fill="#e0e0e0" stroke="#999999" points="766.5,-211.5 728.5,-211.5 728.5,-192.5 766.5,-192.5 766.5,-211.5"/>
<text text-anchor="middle" x="747.5" y="-199.5" font-family="Helvetica,sans-Serif" font-size="10.00">map</text>
</a>
</g>
</g>
<!-- Node1&#45;&gt;Node27 -->
<g id="edge40" class="edge">
<title>Node1&#45;&gt;Node27</title>
<path fill="none" stroke="#63b8ff" d="M669.87,-252.96C687.6,-241.54 709.57,-227.41 725.61,-217.09"/>
<polygon fill="#63b8ff" stroke="#63b8ff" points="727.77,-219.86 734.29,-211.5 723.98,-213.97 727.77,-219.86"/>
</g>
<!-- Node3 -->
<g id="node3" class="node">
<title>Node3</title>
<g id="a_node3"><a xlink:title=" ">
<polygon fill="#e0e0e0" stroke="#999999" points="53,-145.5 0,-145.5 0,-126.5 53,-126.5 53,-145.5"/>
<text text-anchor="middle" x="26.5" y="-133.5" font-family="Helvetica,sans-Serif" font-size="10.00">mbed.h</text>
</a>
</g>
</g>
<!-- Node2&#45;&gt;Node3 -->
<g id="edge2" class="edge">
<title>Node2&#45;&gt;Node3</title>
<path fill="none" stroke="#63b8ff" d="M254.9,-189.63C202.13,-180.89 129.95,-167.53 67.5,-151 64.86,-150.3 62.15,-149.52 59.44,-148.69"/>
<polygon fill="#63b8ff" stroke="#63b8ff" points="60.33,-145.31 49.74,-145.57 58.19,-151.97 60.33,-145.31"/>
</g>
<!-- Node4 -->
<g id="node4" class="node">
<title>Node4</title>
<g id="a_node4"><a xlink:href="i__uart__io_8hpp.html" target="_top" xlink:title=" ">
<polygon fill="white" stroke="#666666" points="449.5,-151 307.5,-151 307.5,-121 449.5,-121 449.5,-151"/>
<text text-anchor="start" x="315.5" y="-139" font-family="Helvetica,sans-Serif" font-size="10.00">alps_cmn/communication</text>
<text text-anchor="middle" x="378.5" y="-128" font-family="Helvetica,sans-Serif" font-size="10.00">/i_uart_io.hpp</text>
</a>
</g>
</g>
<!-- Node2&#45;&gt;Node4 -->
<g id="edge3" class="edge">
<title>Node2&#45;&gt;Node4</title>
<path fill="none" stroke="#63b8ff" d="M340.37,-186.8C346.59,-178.68 354.52,-168.31 361.54,-159.15"/>
<polygon fill="#63b8ff" stroke="#63b8ff" points="364.36,-161.23 367.66,-151.16 358.8,-156.98 364.36,-161.23"/>
</g>
<!-- Node5 -->
<g id="node5" class="node">
<title>Node5</title>
<g id="a_node5"><a xlink:href="byte__ring__buffer_8hpp.html" target="_top" xlink:title="シリアル通信用リングバッファー">
<polygon fill="white" stroke="#666666" points="445.5,-85 303.5,-85 303.5,-55 445.5,-55 445.5,-85"/>
<text text-anchor="start" x="311.5" y="-73" font-family="Helvetica,sans-Serif" font-size="10.00">alps_cmn/communication</text>
<text text-anchor="middle" x="374.5" y="-62" font-family="Helvetica,sans-Serif" font-size="10.00">/byte_ring_buffer.hpp</text>
</a>
</g>
</g>
<!-- Node2&#45;&gt;Node5 -->
<g id="edge9" class="edge">
<title>Node2&#45;&gt;Node5</title>
<path fill="none" stroke="#63b8ff" d="M316.82,-186.95C303.69,-170.6 286.63,-143.03 298.5,-121 305.5,-108.02 317.49,-97.86 329.92,-90.19"/>
<polygon fill="#63b8ff" stroke="#63b8ff" points="332.01,-93.02 338.97,-85.04 328.55,-86.94 332.01,-93.02"/>
</g>
<!-- Node4&#45;&gt;Node5 -->
<g id="edge4" class="edge">
<title>Node4&#45;&gt;Node5</title>
<path fill="none" stroke="#63b8ff" d="M377.61,-120.8C377.15,-113.34 376.56,-103.99 376.03,-95.41"/>
<polygon fill="#63b8ff" stroke="#63b8ff" points="379.5,-94.93 375.39,-85.16 372.52,-95.36 379.5,-94.93"/>
</g>
<!-- Node6 -->
<g id="node6" class="node">
<title>Node6</title>
<g id="a_node6"><a xlink:title=" ">
<polygon fill="#e0e0e0" stroke="#999999" points="497.5,-19 447.5,-19 447.5,0 497.5,0 497.5,-19"/>
<text text-anchor="middle" x="472.5" y="-7" font-family="Helvetica,sans-Serif" font-size="10.00">cstdint</text>
</a>
</g>
</g>
<!-- Node5&#45;&gt;Node6 -->
<g id="edge5" class="edge">
<title>Node5&#45;&gt;Node6</title>
<path fill="none" stroke="#63b8ff" d="M398.22,-54.84C413.7,-45.6 433.82,-33.59 449.21,-24.4"/>
<polygon fill="#63b8ff" stroke="#63b8ff" points="451.31,-27.23 458.1,-19.09 447.72,-21.21 451.31,-27.23"/>
</g>
<!-- Node7 -->
<g id="node7" class="node">
<title>Node7</title>
<g id="a_node7"><a xlink:title=" ">
<polygon fill="#e0e0e0" stroke="#999999" points="924,-19 877,-19 877,0 924,0 924,-19"/>
<text text-anchor="middle" x="900.5" y="-7" font-family="Helvetica,sans-Serif" font-size="10.00">vector</text>
</a>
</g>
</g>
<!-- Node5&#45;&gt;Node7 -->
<g id="edge6" class="edge">
<title>Node5&#45;&gt;Node7</title>
<path fill="none" stroke="#63b8ff" d="M445.71,-61.08C560.64,-48.3 782.64,-23.61 866.93,-14.23"/>
<polygon fill="#63b8ff" stroke="#63b8ff" points="867.42,-17.7 876.97,-13.12 866.64,-10.74 867.42,-17.7"/>
</g>
<!-- Node8 -->
<g id="node8" class="node">
<title>Node8</title>
<g id="a_node8"><a xlink:title=" ">
<polygon fill="#e0e0e0" stroke="#999999" points="339.5,-19 293.5,-19 293.5,0 339.5,0 339.5,-19"/>
<text text-anchor="middle" x="316.5" y="-7" font-family="Helvetica,sans-Serif" font-size="10.00">cstdio</text>
</a>
</g>
</g>
<!-- Node5&#45;&gt;Node8 -->
<g id="edge7" class="edge">
<title>Node5&#45;&gt;Node8</title>
<path fill="none" stroke="#63b8ff" d="M360.46,-54.84C351.95,-46.26 341.09,-35.3 332.28,-26.42"/>
<polygon fill="#63b8ff" stroke="#63b8ff" points="334.72,-23.9 325.19,-19.27 329.75,-28.83 334.72,-23.9"/>
</g>
<!-- Node9 -->
<g id="node9" class="node">
<title>Node9</title>
<g id="a_node9"><a xlink:title=" ">
<polygon fill="#e0e0e0" stroke="#999999" points="267,-19 218,-19 218,0 267,0 267,-19"/>
<text text-anchor="middle" x="242.5" y="-7" font-family="Helvetica,sans-Serif" font-size="10.00">cstdlib</text>
</a>
</g>
</g>
<!-- Node5&#45;&gt;Node9 -->
<g id="edge8" class="edge">
<title>Node5&#45;&gt;Node9</title>
<path fill="none" stroke="#63b8ff" d="M342.88,-54.99C321.15,-45.36 292.53,-32.67 271.41,-23.31"/>
<polygon fill="#63b8ff" stroke="#63b8ff" points="272.55,-19.99 261.99,-19.14 269.72,-26.39 272.55,-19.99"/>
</g>
<!-- Node10&#45;&gt;Node4 -->
<g id="edge39" class="edge">
<title>Node10&#45;&gt;Node4</title>
<path fill="none" stroke="#63b8ff" d="M582.22,-186.95C541.94,-177.08 487.88,-163.82 445.58,-153.45"/>
<polygon fill="#63b8ff" stroke="#63b8ff" points="446.19,-149.99 435.64,-151.01 444.52,-156.79 446.19,-149.99"/>
</g>
<!-- Node11 -->
<g id="node11" class="node">
<title>Node11</title>
<g id="a_node11"><a xlink:title=" ">
<polygon fill="#e0e0e0" stroke="#999999" points="1203.5,-19 1159.5,-19 1159.5,0 1203.5,0 1203.5,-19"/>
<text text-anchor="middle" x="1181.5" y="-7" font-family="Helvetica,sans-Serif" font-size="10.00">string</text>
</a>
</g>
</g>
<!-- Node10&#45;&gt;Node11 -->
<g id="edge11" class="edge">
<title>Node10&#45;&gt;Node11</title>
<path fill="none" stroke="#63b8ff" d="M710.55,-188.27C713.57,-187.82 716.57,-187.39 719.5,-187 803.78,-175.66 1026.83,-193.48 1100.5,-151 1146.54,-124.45 1168.72,-60.68 1177.2,-29"/>
<polygon fill="#63b8ff" stroke="#63b8ff" points="1180.61,-29.8 1179.64,-19.25 1173.82,-28.1 1180.61,-29.8"/>
</g>
<!-- Node12 -->
<g id="node12" class="node">
<title>Node12</title>
<g id="a_node12"><a xlink:title=" ">
<polygon fill="#e0e0e0" stroke="#999999" points="561,-145.5 468,-145.5 468,-126.5 561,-126.5 561,-145.5"/>
<text text-anchor="middle" x="514.5" y="-133.5" font-family="Helvetica,sans-Serif" font-size="10.00">unordered_map</text>
</a>
</g>
</g>
<!-- Node10&#45;&gt;Node12 -->
<g id="edge12" class="edge">
<title>Node10&#45;&gt;Node12</title>
<path fill="none" stroke="#63b8ff" d="M612.07,-186.95C590.63,-175.98 561.05,-160.83 540.1,-150.11"/>
<polygon fill="#63b8ff" stroke="#63b8ff" points="541.63,-146.96 531.14,-145.52 538.44,-153.19 541.63,-146.96"/>
</g>
<!-- Node13 -->
<g id="node13" class="node">
<title>Node13</title>
<g id="a_node13"><a xlink:title=" ">
<polygon fill="#e0e0e0" stroke="#999999" points="132.5,-79.5 80.5,-79.5 80.5,-60.5 132.5,-60.5 132.5,-79.5"/>
<text text-anchor="middle" x="106.5" y="-67.5" font-family="Helvetica,sans-Serif" font-size="10.00">cassert</text>
</a>
</g>
</g>
<!-- Node10&#45;&gt;Node13 -->
<g id="edge13" class="edge">
<title>Node10&#45;&gt;Node13</title>
<path fill="none" stroke="#63b8ff" d="M568.48,-196.93C425.69,-188.41 116.06,-168.07 100.5,-151 85.44,-134.48 91.62,-107.23 98.33,-89.2"/>
<polygon fill="#63b8ff" stroke="#63b8ff" points="101.63,-90.37 102.18,-79.79 95.15,-87.72 101.63,-90.37"/>
</g>
<!-- Node14 -->
<g id="node14" class="node">
<title>Node14</title>
<g id="a_node14"><a xlink:title=" ">
<polygon fill="#e0e0e0" stroke="#999999" points="637.5,-145.5 579.5,-145.5 579.5,-126.5 637.5,-126.5 637.5,-145.5"/>
<text text-anchor="middle" x="608.5" y="-133.5" font-family="Helvetica,sans-Serif" font-size="10.00">memory</text>
</a>
</g>
</g>
<!-- Node10&#45;&gt;Node14 -->
<g id="edge14" class="edge">
<title>Node10&#45;&gt;Node14</title>
<path fill="none" stroke="#63b8ff" d="M632.62,-186.8C628.07,-177.41 622.07,-165.02 617.19,-154.95"/>
<polygon fill="#63b8ff" stroke="#63b8ff" points="620.29,-153.32 612.78,-145.84 613.99,-156.37 620.29,-153.32"/>
</g>
<!-- Node15 -->
<g id="node15" class="node">
<title>Node15</title>
<g id="a_node15"><a xlink:title=" ">
<polygon fill="#e0e0e0" stroke="#999999" points="687.5,-145.5 655.5,-145.5 655.5,-126.5 687.5,-126.5 687.5,-145.5"/>
<text text-anchor="middle" x="671.5" y="-133.5" font-family="Helvetica,sans-Serif" font-size="10.00">list</text>
</a>
</g>
</g>
<!-- Node10&#45;&gt;Node15 -->
<g id="edge15" class="edge">
<title>Node10&#45;&gt;Node15</title>
<path fill="none" stroke="#63b8ff" d="M646.6,-186.8C651.3,-177.41 657.49,-165.02 662.53,-154.95"/>
<polygon fill="#63b8ff" stroke="#63b8ff" points="665.74,-156.35 667.08,-145.84 659.48,-153.22 665.74,-156.35"/>
</g>
<!-- Node16 -->
<g id="node16" class="node">
<title>Node16</title>
<g id="a_node16"><a xlink:title=" ">
<polygon fill="#e0e0e0" stroke="#999999" points="771,-145.5 706,-145.5 706,-126.5 771,-126.5 771,-145.5"/>
<text text-anchor="middle" x="738.5" y="-133.5" font-family="Helvetica,sans-Serif" font-size="10.00">functional</text>
</a>
</g>
</g>
<!-- Node10&#45;&gt;Node16 -->
<g id="edge16" class="edge">
<title>Node10&#45;&gt;Node16</title>
<path fill="none" stroke="#63b8ff" d="M661.47,-186.8C677.91,-176.17 700.29,-161.7 716.69,-151.1"/>
<polygon fill="#63b8ff" stroke="#63b8ff" points="718.61,-154.03 725.11,-145.66 714.81,-148.15 718.61,-154.03"/>
</g>
<!-- Node17 -->
<g id="node17" class="node">
<title>Node17</title>
<g id="a_node17"><a xlink:href="cobs_8hpp.html" target="_top" xlink:title="COBS変換ライブラリ">
<polygon fill="white" stroke="#666666" points="251.5,-151 109.5,-151 109.5,-121 251.5,-121 251.5,-151"/>
<text text-anchor="start" x="117.5" y="-139" font-family="Helvetica,sans-Serif" font-size="10.00">alps_cmn/communication</text>
<text text-anchor="middle" x="180.5" y="-128" font-family="Helvetica,sans-Serif" font-size="10.00">/cobs.hpp</text>
</a>
</g>
</g>
<!-- Node10&#45;&gt;Node17 -->
<g id="edge17" class="edge">
<title>Node10&#45;&gt;Node17</title>
<path fill="none" stroke="#63b8ff" d="M568.28,-191.07C485.33,-179.5 348.57,-160.43 261.59,-148.31"/>
<polygon fill="#63b8ff" stroke="#63b8ff" points="261.89,-144.82 251.5,-146.9 260.93,-151.75 261.89,-144.82"/>
</g>
<!-- Node18 -->
<g id="node18" class="node">
<title>Node18</title>
<g id="a_node18"><a xlink:href="data__serializer_8hpp.html" target="_top" xlink:title="データとバイト列の変換ライブラリ">
<polygon fill="white" stroke="#666666" points="1091.5,-151 949.5,-151 949.5,-121 1091.5,-121 1091.5,-151"/>
<text text-anchor="start" x="957.5" y="-139" font-family="Helvetica,sans-Serif" font-size="10.00">alps_cmn/communication</text>
<text text-anchor="middle" x="1020.5" y="-128" font-family="Helvetica,sans-Serif" font-size="10.00">/data_serializer.hpp</text>
</a>
</g>
</g>
<!-- Node10&#45;&gt;Node18 -->
<g id="edge22" class="edge">
<title>Node10&#45;&gt;Node18</title>
<path fill="none" stroke="#63b8ff" d="M710.59,-188.51C713.6,-188 716.58,-187.49 719.5,-187 814.46,-170.96 840.7,-167.78 939.31,-151.19"/>
<polygon fill="#63b8ff" stroke="#63b8ff" points="940.13,-154.6 949.41,-149.49 938.96,-147.7 940.13,-154.6"/>
</g>
<!-- Node26 -->
<g id="node26" class="node">
<title>Node26</title>
<g id="a_node26"><a xlink:href="sender_8hpp.html" target="_top" xlink:title="シリアル通信で送るデータを登録">
<polygon fill="white" stroke="#666666" points="931.5,-151 789.5,-151 789.5,-121 931.5,-121 931.5,-151"/>
<text text-anchor="start" x="797.5" y="-139" font-family="Helvetica,sans-Serif" font-size="10.00">alps_cmn/communication</text>
<text text-anchor="middle" x="860.5" y="-128" font-family="Helvetica,sans-Serif" font-size="10.00">/sender.hpp</text>
</a>
</g>
</g>
<!-- Node10&#45;&gt;Node26 -->
<g id="edge37" class="edge">
<title>Node10&#45;&gt;Node26</title>
<path fill="none" stroke="#63b8ff" d="M682.3,-186.95C714.84,-177.16 760.02,-164.05 796.78,-153.71"/>
<polygon fill="#63b8ff" stroke="#63b8ff" points="797.73,-157.08 806.42,-151.01 795.85,-150.34 797.73,-157.08"/>
</g>
<!-- Node17&#45;&gt;Node5 -->
<g id="edge18" class="edge">
<title>Node17&#45;&gt;Node5</title>
<path fill="none" stroke="#63b8ff" d="M223.07,-120.95C252.26,-111.33 291.17,-98.49 322.24,-88.24"/>
<polygon fill="#63b8ff" stroke="#63b8ff" points="323.63,-91.47 332.03,-85.01 321.43,-84.82 323.63,-91.47"/>
</g>
<!-- Node17&#45;&gt;Node8 -->
<g id="edge19" class="edge">
<title>Node17&#45;&gt;Node8</title>
<path fill="none" stroke="#63b8ff" d="M195.84,-120.96C221.52,-97.45 273.04,-50.29 299.68,-25.9"/>
<polygon fill="#63b8ff" stroke="#63b8ff" points="302.08,-28.44 307.1,-19.11 297.36,-23.28 302.08,-28.44"/>
</g>
<!-- Node17&#45;&gt;Node9 -->
<g id="edge21" class="edge">
<title>Node17&#45;&gt;Node9</title>
<path fill="none" stroke="#63b8ff" d="M187.61,-120.72C199.02,-97.81 221.37,-52.93 233.74,-28.09"/>
<polygon fill="#63b8ff" stroke="#63b8ff" points="236.91,-29.58 238.23,-19.07 230.64,-26.46 236.91,-29.58"/>
</g>
<!-- Node17&#45;&gt;Node13 -->
<g id="edge20" class="edge">
<title>Node17&#45;&gt;Node13</title>
<path fill="none" stroke="#63b8ff" d="M164.08,-120.8C152.31,-110.62 136.48,-96.93 124.4,-86.48"/>
<polygon fill="#63b8ff" stroke="#63b8ff" points="126.58,-83.74 116.73,-79.84 122,-89.03 126.58,-83.74"/>
</g>
<!-- Node18&#45;&gt;Node5 -->
<g id="edge30" class="edge">
<title>Node18&#45;&gt;Node5</title>
<path fill="none" stroke="#63b8ff" d="M949.45,-122.24C946.43,-121.8 943.44,-121.39 940.5,-121 849.05,-108.98 589.19,-87.84 455.75,-77.32"/>
<polygon fill="#63b8ff" stroke="#63b8ff" points="455.83,-73.81 445.59,-76.52 455.28,-80.79 455.83,-73.81"/>
</g>
<!-- Node18&#45;&gt;Node6 -->
<g id="edge25" class="edge">
<title>Node18&#45;&gt;Node6</title>
<path fill="none" stroke="#63b8ff" d="M949.42,-122.44C946.41,-121.94 943.42,-121.46 940.5,-121 827.89,-103.17 797.31,-111.87 686.5,-85 619.04,-68.64 542.91,-39.44 502.11,-22.87"/>
<polygon fill="#63b8ff" stroke="#63b8ff" points="503.34,-19.59 492.76,-19.04 500.69,-26.07 503.34,-19.59"/>
</g>
<!-- Node18&#45;&gt;Node7 -->
<g id="edge24" class="edge">
<title>Node18&#45;&gt;Node7</title>
<path fill="none" stroke="#63b8ff" d="M990.09,-120.86C973.89,-112.22 954.49,-99.95 940.5,-85 925.03,-68.47 913.68,-44.82 907.1,-28.63"/>
<polygon fill="#63b8ff" stroke="#63b8ff" points="910.34,-27.28 903.47,-19.21 903.81,-29.8 910.34,-27.28"/>
</g>
<!-- Node18&#45;&gt;Node11 -->
<g id="edge23" class="edge">
<title>Node18&#45;&gt;Node11</title>
<path fill="none" stroke="#63b8ff" d="M1056.06,-120.98C1075.61,-112.3 1099.64,-99.95 1118.5,-85 1139.36,-68.46 1158.35,-44.15 1169.91,-27.85"/>
<polygon fill="#63b8ff" stroke="#63b8ff" points="1173.01,-29.51 1175.81,-19.29 1167.25,-25.53 1173.01,-29.51"/>
</g>
<!-- Node19 -->
<g id="node19" class="node">
<title>Node19</title>
<g id="a_node19"><a xlink:title=" ">
<polygon fill="#e0e0e0" stroke="#999999" points="1141,-19 1072,-19 1072,0 1141,0 1141,-19"/>
<text text-anchor="middle" x="1106.5" y="-7" font-family="Helvetica,sans-Serif" font-size="10.00">type_traits</text>
</a>
</g>
</g>
<!-- Node18&#45;&gt;Node19 -->
<g id="edge26" class="edge">
<title>Node18&#45;&gt;Node19</title>
<path fill="none" stroke="#63b8ff" d="M1057.67,-120.85C1073.58,-112.82 1090.71,-101.09 1100.5,-85 1110.7,-68.23 1110.94,-45.26 1109.43,-29.28"/>
<polygon fill="#63b8ff" stroke="#63b8ff" points="1112.86,-28.55 1108.14,-19.06 1105.92,-29.42 1112.86,-28.55"/>
</g>
<!-- Node20 -->
<g id="node20" class="node">
<title>Node20</title>
<g id="a_node20"><a xlink:title=" ">
<polygon fill="#e0e0e0" stroke="#999999" points="745.5,-79.5 695.5,-79.5 695.5,-60.5 745.5,-60.5 745.5,-79.5"/>
<text text-anchor="middle" x="720.5" y="-67.5" font-family="Helvetica,sans-Serif" font-size="10.00">cstring</text>
</a>
</g>
</g>
<!-- Node18&#45;&gt;Node20 -->
<g id="edge27" class="edge">
<title>Node18&#45;&gt;Node20</title>
<path fill="none" stroke="#63b8ff" d="M949.29,-122.39C876.94,-109.46 772.97,-90.48 754.5,-85 752.62,-84.44 750.7,-83.82 748.78,-83.15"/>
<polygon fill="#63b8ff" stroke="#63b8ff" points="749.91,-79.83 739.31,-79.55 747.42,-86.37 749.91,-79.83"/>
</g>
<!-- Node21 -->
<g id="node21" class="node">
<title>Node21</title>
<g id="a_node21"><a xlink:title=" ">
<polygon fill="#e0e0e0" stroke="#999999" points="827.5,-79.5 763.5,-79.5 763.5,-60.5 827.5,-60.5 827.5,-79.5"/>
<text text-anchor="middle" x="795.5" y="-67.5" font-family="Helvetica,sans-Serif" font-size="10.00">algorithm</text>
</a>
</g>
</g>
<!-- Node18&#45;&gt;Node21 -->
<g id="edge28" class="edge">
<title>Node18&#45;&gt;Node21</title>
<path fill="none" stroke="#63b8ff" d="M965.08,-120.93C928.42,-111.37 879.39,-98.13 836.5,-85 834.19,-84.29 831.82,-83.54 829.44,-82.78"/>
<polygon fill="#63b8ff" stroke="#63b8ff" points="830.29,-79.37 819.7,-79.55 828.09,-86.02 830.29,-79.37"/>
</g>
<!-- Node22 -->
<g id="node22" class="node">
<title>Node22</title>
<g id="a_node22"><a xlink:title=" ">
<polygon fill="#e0e0e0" stroke="#999999" points="893.5,-79.5 845.5,-79.5 845.5,-60.5 893.5,-60.5 893.5,-79.5"/>
<text text-anchor="middle" x="869.5" y="-67.5" font-family="Helvetica,sans-Serif" font-size="10.00">mutex</text>
</a>
</g>
</g>
<!-- Node18&#45;&gt;Node22 -->
<g id="edge29" class="edge">
<title>Node18&#45;&gt;Node22</title>
<path fill="none" stroke="#63b8ff" d="M987.36,-120.95C961,-109.78 924.44,-94.29 899.06,-83.53"/>
<polygon fill="#63b8ff" stroke="#63b8ff" points="900.17,-80.2 889.6,-79.52 897.44,-86.64 900.17,-80.2"/>
</g>
<!-- Node23 -->
<g id="node23" class="node">
<title>Node23</title>
<g id="a_node23"><a xlink:href="serialize__type__info_8hpp.html" target="_top" xlink:title="DataSeializerで変換する型に関する情報">
<polygon fill="white" stroke="#666666" points="1091.5,-85 949.5,-85 949.5,-55 1091.5,-55 1091.5,-85"/>
<text text-anchor="start" x="957.5" y="-73" font-family="Helvetica,sans-Serif" font-size="10.00">alps_cmn/communication</text>
<text text-anchor="middle" x="1020.5" y="-62" font-family="Helvetica,sans-Serif" font-size="10.00">/serialize_type_info.hpp</text>
</a>
</g>
</g>
<!-- Node18&#45;&gt;Node23 -->
<g id="edge31" class="edge">
<title>Node18&#45;&gt;Node23</title>
<path fill="none" stroke="#63b8ff" d="M1020.5,-120.8C1020.5,-113.34 1020.5,-103.99 1020.5,-95.41"/>
<polygon fill="#63b8ff" stroke="#63b8ff" points="1024,-95.16 1020.5,-85.16 1017,-95.16 1024,-95.16"/>
</g>
<!-- Node23&#45;&gt;Node7 -->
<g id="edge34" class="edge">
<title>Node23&#45;&gt;Node7</title>
<path fill="none" stroke="#63b8ff" d="M991.76,-54.99C972.18,-45.45 946.45,-32.9 927.3,-23.57"/>
<polygon fill="#63b8ff" stroke="#63b8ff" points="928.74,-20.38 918.22,-19.14 925.68,-26.67 928.74,-20.38"/>
</g>
<!-- Node23&#45;&gt;Node11 -->
<g id="edge36" class="edge">
<title>Node23&#45;&gt;Node11</title>
<path fill="none" stroke="#63b8ff" d="M1059.06,-54.99C1086.78,-44.92 1123.7,-31.5 1149.72,-22.05"/>
<polygon fill="#63b8ff" stroke="#63b8ff" points="1150.92,-25.34 1159.12,-18.63 1148.53,-18.76 1150.92,-25.34"/>
</g>
<!-- Node23&#45;&gt;Node19 -->
<g id="edge32" class="edge">
<title>Node23&#45;&gt;Node19</title>
<path fill="none" stroke="#63b8ff" d="M1041.32,-54.84C1054.65,-45.77 1071.89,-34.04 1085.29,-24.92"/>
<polygon fill="#63b8ff" stroke="#63b8ff" points="1087.57,-27.61 1093.87,-19.09 1083.63,-21.83 1087.57,-27.61"/>
</g>
<!-- Node24 -->
<g id="node24" class="node">
<title>Node24</title>
<g id="a_node24"><a xlink:title=" ">
<polygon fill="#e0e0e0" stroke="#999999" points="995,-19 942,-19 942,0 995,0 995,-19"/>
<text text-anchor="middle" x="968.5" y="-7" font-family="Helvetica,sans-Serif" font-size="10.00">stdint.h</text>
</a>
</g>
</g>
<!-- Node23&#45;&gt;Node24 -->
<g id="edge33" class="edge">
<title>Node23&#45;&gt;Node24</title>
<path fill="none" stroke="#63b8ff" d="M1007.91,-54.84C1000.44,-46.43 990.94,-35.74 983.13,-26.96"/>
<polygon fill="#63b8ff" stroke="#63b8ff" points="985.55,-24.41 976.29,-19.27 980.32,-29.07 985.55,-24.41"/>
</g>
<!-- Node25 -->
<g id="node25" class="node">
<title>Node25</title>
<g id="a_node25"><a xlink:title=" ">
<polygon fill="#e0e0e0" stroke="#999999" points="1054,-19 1013,-19 1013,0 1054,0 1054,-19"/>
<text text-anchor="middle" x="1033.5" y="-7" font-family="Helvetica,sans-Serif" font-size="10.00">tuple</text>
</a>
</g>
</g>
<!-- Node23&#45;&gt;Node25 -->
<g id="edge35" class="edge">
<title>Node23&#45;&gt;Node25</title>
<path fill="none" stroke="#63b8ff" d="M1023.65,-54.84C1025.36,-47.13 1027.5,-37.49 1029.35,-29.17"/>
<polygon fill="#63b8ff" stroke="#63b8ff" points="1032.8,-29.79 1031.55,-19.27 1025.97,-28.27 1032.8,-29.79"/>
</g>
<!-- Node26&#45;&gt;Node10 -->
<g id="edge38" class="edge">
<title>Node26&#45;&gt;Node10</title>
<path fill="none" stroke="#63b8ff" d="M817.81,-151.01C785.3,-160.8 740.12,-173.91 703.34,-184.25"/>
<polygon fill="#63b8ff" stroke="#63b8ff" points="702.38,-180.89 693.7,-186.95 704.27,-187.63 702.38,-180.89"/>
</g>
</g>
</svg>
