<?xml version="1.0" encoding="UTF-8" standalone="no"?>
<!DOCTYPE svg PUBLIC "-//W3C//DTD SVG 1.1//EN"
 "http://www.w3.org/Graphics/SVG/1.1/DTD/svg11.dtd">
<!-- Generated by graphviz version 2.43.0 (0)
 -->
<!-- Title: alps_common_lib/include/alps_cmn/math/pi.hpp Pages: 1 -->
<svg width="397pt" height="269pt"
 viewBox="0.00 0.00 397.00 269.00" xmlns="http://www.w3.org/2000/svg" xmlns:xlink="http://www.w3.org/1999/xlink">
<g id="graph0" class="graph" transform="scale(1 1) rotate(0) translate(4 265)">
<title>alps_common_lib/include/alps_cmn/math/pi.hpp</title>
<!-- Node1 -->
<g id="node1" class="node">
<title>Node1</title>
<g id="a_node1"><a xlink:title=" ">
<polygon fill="#999999" stroke="#666666" points="273,-261 133,-261 133,-231 273,-231 273,-261"/>
<text text-anchor="start" x="141" y="-249" font-family="Helvetica,sans-Serif" font-size="10.00">alps_common_lib/include</text>
<text text-anchor="middle" x="203" y="-238" font-family="Helvetica,sans-Serif" font-size="10.00">/alps_cmn/math/pi.hpp</text>
</a>
</g>
</g>
<!-- Node2 -->
<g id="node2" class="node">
<title>Node2</title>
<g id="a_node2"><a xlink:href="angle__conversion_8hpp.html" target="_top" xlink:title=" ">
<polygon fill="white" stroke="#666666" points="204,-189.5 0,-189.5 0,-159.5 204,-159.5 204,-189.5"/>
<text text-anchor="start" x="8" y="-177.5" font-family="Helvetica,sans-Serif" font-size="10.00">alps_common_lib/include</text>
<text text-anchor="middle" x="102" y="-166.5" font-family="Helvetica,sans-Serif" font-size="10.00">/alps_cmn/math/angle_conversion.hpp</text>
</a>
</g>
</g>
<!-- Node1&#45;&gt;Node2 -->
<g id="edge1" class="edge">
<title>Node1&#45;&gt;Node2</title>
<path fill="none" stroke="#63b8ff" d="M174.31,-225.25C157.75,-213.86 137.32,-199.81 122.41,-189.54"/>
<polygon fill="#63b8ff" stroke="#63b8ff" points="172.34,-228.15 182.56,-230.94 176.31,-222.38 172.34,-228.15"/>
</g>
<!-- Node5 -->
<g id="node5" class="node">
<title>Node5</title>
<g id="a_node5"><a xlink:href="alps__common__lib_2include_2alps__cmn_2sensor_2incremental__encoder_8hpp.html" target="_top" xlink:title=" ">
<polygon fill="white" stroke="#666666" points="385.5,-195 222.5,-195 222.5,-154 385.5,-154 385.5,-195"/>
<text text-anchor="start" x="230.5" y="-183" font-family="Helvetica,sans-Serif" font-size="10.00">alps_common_lib/include</text>
<text text-anchor="start" x="230.5" y="-172" font-family="Helvetica,sans-Serif" font-size="10.00">/alps_cmn/sensor/incremental</text>
<text text-anchor="middle" x="304" y="-161" font-family="Helvetica,sans-Serif" font-size="10.00">_encoder.hpp</text>
</a>
</g>
</g>
<!-- Node1&#45;&gt;Node5 -->
<g id="edge4" class="edge">
<title>Node1&#45;&gt;Node5</title>
<path fill="none" stroke="#63b8ff" d="M232,-225.04C245.68,-215.63 261.95,-204.44 275.56,-195.07"/>
<polygon fill="#63b8ff" stroke="#63b8ff" points="229.69,-222.38 223.44,-230.94 233.66,-228.15 229.69,-222.38"/>
</g>
<!-- Node3 -->
<g id="node3" class="node">
<title>Node3</title>
<g id="a_node3"><a xlink:href="alps__common__lib_2include_2alps__cmn_2actuator_2servo__motor_8hpp.html" target="_top" xlink:title=" ">
<polygon fill="white" stroke="#666666" points="172,-118 32,-118 32,-77 172,-77 172,-118"/>
<text text-anchor="start" x="40" y="-106" font-family="Helvetica,sans-Serif" font-size="10.00">alps_common_lib/include</text>
<text text-anchor="start" x="40" y="-95" font-family="Helvetica,sans-Serif" font-size="10.00">/alps_cmn/actuator/servo</text>
<text text-anchor="middle" x="102" y="-84" font-family="Helvetica,sans-Serif" font-size="10.00">_motor.hpp</text>
</a>
</g>
</g>
<!-- Node2&#45;&gt;Node3 -->
<g id="edge2" class="edge">
<title>Node2&#45;&gt;Node3</title>
<path fill="none" stroke="#63b8ff" d="M102,-149.23C102,-139.2 102,-127.71 102,-118.2"/>
<polygon fill="#63b8ff" stroke="#63b8ff" points="98.5,-149.39 102,-159.39 105.5,-149.39 98.5,-149.39"/>
</g>
<!-- Node4 -->
<g id="node4" class="node">
<title>Node4</title>
<g id="a_node4"><a xlink:href="alps__mbed__lib_2include_2alps__mbed_2actuator_2servo__motor_8hpp.html" target="_top" xlink:title=" ">
<polygon fill="white" stroke="#666666" points="175,-41 29,-41 29,0 175,0 175,-41"/>
<text text-anchor="start" x="37" y="-29" font-family="Helvetica,sans-Serif" font-size="10.00">alps_mbed_lib/include</text>
<text text-anchor="start" x="37" y="-18" font-family="Helvetica,sans-Serif" font-size="10.00">/alps_mbed/actuator/servo</text>
<text text-anchor="middle" x="102" y="-7" font-family="Helvetica,sans-Serif" font-size="10.00">_motor.hpp</text>
</a>
</g>
</g>
<!-- Node3&#45;&gt;Node4 -->
<g id="edge3" class="edge">
<title>Node3&#45;&gt;Node4</title>
<path fill="none" stroke="#63b8ff" d="M102,-66.69C102,-58.08 102,-48.9 102,-41.07"/>
<polygon fill="#63b8ff" stroke="#63b8ff" points="98.5,-66.79 102,-76.79 105.5,-66.79 98.5,-66.79"/>
</g>
<!-- Node6 -->
<g id="node6" class="node">
<title>Node6</title>
<g id="a_node6"><a xlink:href="alps__mbed__lib_2include_2alps__mbed_2sensor_2incremental__encoder_8hpp.html" target="_top" xlink:title=" ">
<polygon fill="white" stroke="#666666" points="389,-118 219,-118 219,-77 389,-77 389,-118"/>
<text text-anchor="start" x="227" y="-106" font-family="Helvetica,sans-Serif" font-size="10.00">alps_mbed_lib/include</text>
<text text-anchor="start" x="227" y="-95" font-family="Helvetica,sans-Serif" font-size="10.00">/alps_mbed/sensor/incremental</text>
<text text-anchor="middle" x="304" y="-84" font-family="Helvetica,sans-Serif" font-size="10.00">_encoder.hpp</text>
</a>
</g>
</g>
<!-- Node5&#45;&gt;Node6 -->
<g id="edge5" class="edge">
<title>Node5&#45;&gt;Node6</title>
<path fill="none" stroke="#63b8ff" d="M304,-143.69C304,-135.08 304,-125.9 304,-118.07"/>
<polygon fill="#63b8ff" stroke="#63b8ff" points="300.5,-143.79 304,-153.79 307.5,-143.79 300.5,-143.79"/>
</g>
</g>
</svg>
