<?xml version="1.0" encoding="UTF-8" standalone="no"?>
<!DOCTYPE svg PUBLIC "-//W3C//DTD SVG 1.1//EN"
 "http://www.w3.org/Graphics/SVG/1.1/DTD/svg11.dtd">
<!-- Generated by graphviz version 2.43.0 (0)
 -->
<!-- Title: alps_common_lib/include/alps_cmn/control/pid.hpp Pages: 1 -->
<svg width="542pt" height="151pt"
 viewBox="0.00 0.00 541.65 151.00" xmlns="http://www.w3.org/2000/svg" xmlns:xlink="http://www.w3.org/1999/xlink">
<g id="graph0" class="graph" transform="scale(1 1) rotate(0) translate(4 147)">
<title>alps_common_lib/include/alps_cmn/control/pid.hpp</title>
<polygon fill="white" stroke="transparent" points="-4,4 -4,-147 537.65,-147 537.65,4 -4,4"/>
<!-- Node1 -->
<g id="node1" class="node">
<title>Node1</title>
<g id="a_node1"><a xlink:title=" ">
<polygon fill="#bfbfbf" stroke="black" points="292.15,-112.5 292.15,-142.5 434.15,-142.5 434.15,-112.5 292.15,-112.5"/>
<text text-anchor="start" x="300.15" y="-130.5" font-family="Helvetica,sans-Serif" font-size="10.00">alps_common_lib/include</text>
<text text-anchor="middle" x="363.15" y="-119.5" font-family="Helvetica,sans-Serif" font-size="10.00">/alps_cmn/control/pid.hpp</text>
</a>
</g>
</g>
<!-- Node2 -->
<g id="node2" class="node">
<title>Node2</title>
<g id="a_node2"><a xlink:title=" ">
<polygon fill="white" stroke="#bfbfbf" points="84.15,-0.5 84.15,-19.5 134.15,-19.5 134.15,-0.5 84.15,-0.5"/>
<text text-anchor="middle" x="109.15" y="-7.5" font-family="Helvetica,sans-Serif" font-size="10.00">chrono</text>
</a>
</g>
</g>
<!-- Node1&#45;&gt;Node2 -->
<g id="edge1" class="edge">
<title>Node1&#45;&gt;Node2</title>
<path fill="none" stroke="midnightblue" d="M292.12,-126.99C198.79,-125.93 42.42,-117.77 6.15,-76 -17.4,-48.89 35.62,-29.14 73.99,-18.92"/>
<polygon fill="midnightblue" stroke="midnightblue" points="75.03,-22.27 83.86,-16.41 73.3,-15.48 75.03,-22.27"/>
</g>
<!-- Node3 -->
<g id="node3" class="node">
<title>Node3</title>
<g id="a_node3"><a xlink:title=" ">
<polygon fill="white" stroke="#bfbfbf" points="486.65,-56.5 486.65,-75.5 533.65,-75.5 533.65,-56.5 486.65,-56.5"/>
<text text-anchor="middle" x="510.15" y="-63.5" font-family="Helvetica,sans-Serif" font-size="10.00">cmath</text>
</a>
</g>
</g>
<!-- Node1&#45;&gt;Node3 -->
<g id="edge2" class="edge">
<title>Node1&#45;&gt;Node3</title>
<path fill="none" stroke="midnightblue" d="M397.98,-112.4C422.65,-102.42 455.43,-89.15 479.18,-79.53"/>
<polygon fill="midnightblue" stroke="midnightblue" points="480.8,-82.65 488.76,-75.66 478.18,-76.17 480.8,-82.65"/>
</g>
<!-- Node4 -->
<g id="node4" class="node">
<title>Node4</title>
<g id="a_node4"><a xlink:title=" ">
<polygon fill="white" stroke="#bfbfbf" points="293.15,-0.5 293.15,-19.5 337.15,-19.5 337.15,-0.5 293.15,-0.5"/>
<text text-anchor="middle" x="315.15" y="-7.5" font-family="Helvetica,sans-Serif" font-size="10.00">limits</text>
</a>
</g>
</g>
<!-- Node1&#45;&gt;Node4 -->
<g id="edge3" class="edge">
<title>Node1&#45;&gt;Node4</title>
<path fill="none" stroke="midnightblue" d="M379.75,-112.49C394.72,-98.1 412.74,-75.15 401.15,-56 389.41,-36.6 366.25,-25.17 346.92,-18.68"/>
<polygon fill="midnightblue" stroke="midnightblue" points="347.83,-15.3 337.25,-15.72 345.79,-21.99 347.83,-15.3"/>
</g>
<!-- Node5 -->
<g id="node5" class="node">
<title>Node5</title>
<g id="a_node5"><a xlink:href="differentiator_8hpp.html" target="_top" xlink:title="微分器ライブラリ">
<polygon fill="white" stroke="black" points="15.65,-56.5 15.65,-75.5 202.65,-75.5 202.65,-56.5 15.65,-56.5"/>
<text text-anchor="middle" x="109.15" y="-63.5" font-family="Helvetica,sans-Serif" font-size="10.00">alps_cmn/control/differentiator.hpp</text>
</a>
</g>
</g>
<!-- Node1&#45;&gt;Node5 -->
<g id="edge4" class="edge">
<title>Node1&#45;&gt;Node5</title>
<path fill="none" stroke="midnightblue" d="M303.27,-112.47C258.02,-101.87 196.81,-87.53 155.3,-77.81"/>
<polygon fill="midnightblue" stroke="midnightblue" points="156,-74.38 145.46,-75.51 154.4,-81.19 156,-74.38"/>
</g>
<!-- Node6 -->
<g id="node6" class="node">
<title>Node6</title>
<g id="a_node6"><a xlink:href="integrator_8hpp.html" target="_top" xlink:title="積分器ライブラリ">
<polygon fill="white" stroke="black" points="220.65,-56.5 220.65,-75.5 391.65,-75.5 391.65,-56.5 220.65,-56.5"/>
<text text-anchor="middle" x="306.15" y="-63.5" font-family="Helvetica,sans-Serif" font-size="10.00">alps_cmn/control/integrator.hpp</text>
</a>
</g>
</g>
<!-- Node1&#45;&gt;Node6 -->
<g id="edge6" class="edge">
<title>Node1&#45;&gt;Node6</title>
<path fill="none" stroke="midnightblue" d="M349.64,-112.4C341.19,-103.58 330.27,-92.18 321.49,-83.02"/>
<polygon fill="midnightblue" stroke="midnightblue" points="323.89,-80.46 314.44,-75.66 318.83,-85.3 323.89,-80.46"/>
</g>
<!-- Node7 -->
<g id="node7" class="node">
<title>Node7</title>
<g id="a_node7"><a xlink:href="algorithm_8hpp.html" target="_top" xlink:title=" ">
<polygon fill="white" stroke="black" points="372.65,-0.5 372.65,-19.5 525.65,-19.5 525.65,-0.5 372.65,-0.5"/>
<text text-anchor="middle" x="449.15" y="-7.5" font-family="Helvetica,sans-Serif" font-size="10.00">alps_cmn/util/algorithm.hpp</text>
</a>
</g>
</g>
<!-- Node1&#45;&gt;Node7 -->
<g id="edge10" class="edge">
<title>Node1&#45;&gt;Node7</title>
<path fill="none" stroke="midnightblue" d="M380.86,-112.33C391.94,-102.86 405.98,-89.66 416.15,-76 427,-61.42 436.06,-42.74 441.92,-29.15"/>
<polygon fill="midnightblue" stroke="midnightblue" points="445.32,-30.1 445.92,-19.52 438.85,-27.42 445.32,-30.1"/>
</g>
<!-- Node5&#45;&gt;Node2 -->
<g id="edge5" class="edge">
<title>Node5&#45;&gt;Node2</title>
<path fill="none" stroke="midnightblue" d="M109.15,-56.08C109.15,-49.01 109.15,-38.86 109.15,-29.99"/>
<polygon fill="midnightblue" stroke="midnightblue" points="112.65,-29.75 109.15,-19.75 105.65,-29.75 112.65,-29.75"/>
</g>
<!-- Node6&#45;&gt;Node2 -->
<g id="edge7" class="edge">
<title>Node6&#45;&gt;Node2</title>
<path fill="none" stroke="midnightblue" d="M274.93,-56.44C239.33,-46.68 181.26,-30.77 144.15,-20.6"/>
<polygon fill="midnightblue" stroke="midnightblue" points="144.85,-17.16 134.28,-17.89 143,-23.91 144.85,-17.16"/>
</g>
<!-- Node6&#45;&gt;Node4 -->
<g id="edge8" class="edge">
<title>Node6&#45;&gt;Node4</title>
<path fill="none" stroke="midnightblue" d="M307.63,-56.08C308.83,-48.93 310.54,-38.64 312.03,-29.69"/>
<polygon fill="midnightblue" stroke="midnightblue" points="315.5,-30.19 313.69,-19.75 308.59,-29.04 315.5,-30.19"/>
</g>
<!-- Node6&#45;&gt;Node7 -->
<g id="edge9" class="edge">
<title>Node6&#45;&gt;Node7</title>
<path fill="none" stroke="midnightblue" d="M328.81,-56.44C352.55,-47.48 390.06,-33.31 416.89,-23.18"/>
<polygon fill="midnightblue" stroke="midnightblue" points="418.48,-26.32 426.59,-19.52 416,-19.77 418.48,-26.32"/>
</g>
</g>
</svg>
