<?xml version="1.0" encoding="UTF-8" standalone="no"?>
<!DOCTYPE svg PUBLIC "-//W3C//DTD SVG 1.1//EN"
 "http://www.w3.org/Graphics/SVG/1.1/DTD/svg11.dtd">
<!-- Generated by graphviz version 2.43.0 (0)
 -->
<!-- Title: alps_common_lib/include/alps_cmn/control/pid.hpp Pages: 1 -->
<svg width="729pt" height="285pt"
 viewBox="0.00 0.00 728.75 285.00" xmlns="http://www.w3.org/2000/svg" xmlns:xlink="http://www.w3.org/1999/xlink">
<g id="graph0" class="graph" transform="scale(1 1) rotate(0) translate(4 281)">
<title>alps_common_lib/include/alps_cmn/control/pid.hpp</title>
<polygon fill="white" stroke="transparent" points="-4,4 -4,-281 724.75,-281 724.75,4 -4,4"/>
<!-- Node1 -->
<g id="node1" class="node">
<title>Node1</title>
<g id="a_node1"><a xlink:title=" ">
<polygon fill="#bfbfbf" stroke="black" points="64.25,-246.5 64.25,-276.5 206.25,-276.5 206.25,-246.5 64.25,-246.5"/>
<text text-anchor="start" x="72.25" y="-264.5" font-family="Helvetica,sans-Serif" font-size="10.00">alps_common_lib/include</text>
<text text-anchor="middle" x="135.25" y="-253.5" font-family="Helvetica,sans-Serif" font-size="10.00">/alps_cmn/control/pid.hpp</text>
</a>
</g>
</g>
<!-- Node2 -->
<g id="node2" class="node">
<title>Node2</title>
<g id="a_node2"><a xlink:title=" ">
<polygon fill="white" stroke="#bfbfbf" points="409.25,-0.5 409.25,-19.5 459.25,-19.5 459.25,-0.5 409.25,-0.5"/>
<text text-anchor="middle" x="434.25" y="-7.5" font-family="Helvetica,sans-Serif" font-size="10.00">chrono</text>
</a>
</g>
</g>
<!-- Node1&#45;&gt;Node2 -->
<g id="edge1" class="edge">
<title>Node1&#45;&gt;Node2</title>
<path fill="none" stroke="midnightblue" d="M64.16,-249.25C41.53,-241.94 18.86,-229.88 5.25,-210 -2.53,-198.63 -0.2,-191.65 5.25,-179 70.54,-27.63 308.74,-11.1 399.14,-10.41"/>
<polygon fill="midnightblue" stroke="midnightblue" points="399.17,-13.91 409.16,-10.39 399.16,-6.91 399.17,-13.91"/>
</g>
<!-- Node3 -->
<g id="node3" class="node">
<title>Node3</title>
<g id="a_node3"><a xlink:title=" ">
<polygon fill="white" stroke="#bfbfbf" points="14.75,-185 14.75,-204 61.75,-204 61.75,-185 14.75,-185"/>
<text text-anchor="middle" x="38.25" y="-192" font-family="Helvetica,sans-Serif" font-size="10.00">cmath</text>
</a>
</g>
</g>
<!-- Node1&#45;&gt;Node3 -->
<g id="edge2" class="edge">
<title>Node1&#45;&gt;Node3</title>
<path fill="none" stroke="midnightblue" d="M114.21,-246.4C97.94,-235.5 75.53,-220.48 59.27,-209.58"/>
<polygon fill="midnightblue" stroke="midnightblue" points="61.21,-206.67 50.95,-204.01 57.31,-212.48 61.21,-206.67"/>
</g>
<!-- Node4 -->
<g id="node4" class="node">
<title>Node4</title>
<g id="a_node4"><a xlink:title=" ">
<polygon fill="white" stroke="#bfbfbf" points="85.25,-118 85.25,-137 129.25,-137 129.25,-118 85.25,-118"/>
<text text-anchor="middle" x="107.25" y="-125" font-family="Helvetica,sans-Serif" font-size="10.00">limits</text>
</a>
</g>
</g>
<!-- Node1&#45;&gt;Node4 -->
<g id="edge3" class="edge">
<title>Node1&#45;&gt;Node4</title>
<path fill="none" stroke="midnightblue" d="M125.66,-246.18C119.7,-236.43 112.57,-222.99 109.25,-210 103.91,-189.05 104.23,-164.09 105.36,-147.36"/>
<polygon fill="midnightblue" stroke="midnightblue" points="108.86,-147.5 106.21,-137.24 101.88,-146.91 108.86,-147.5"/>
</g>
<!-- Node5 -->
<g id="node5" class="node">
<title>Node5</title>
<g id="a_node5"><a xlink:href="integrator_8hpp.html" target="_top" xlink:title="積分器ライブラリ">
<polygon fill="white" stroke="black" points="261.75,-185 261.75,-204 432.75,-204 432.75,-185 261.75,-185"/>
<text text-anchor="middle" x="347.25" y="-192" font-family="Helvetica,sans-Serif" font-size="10.00">alps_cmn/control/integrator.hpp</text>
</a>
</g>
</g>
<!-- Node1&#45;&gt;Node5 -->
<g id="edge4" class="edge">
<title>Node1&#45;&gt;Node5</title>
<path fill="none" stroke="midnightblue" d="M180.99,-246.48C219.49,-234.67 273.87,-218 309.82,-206.98"/>
<polygon fill="midnightblue" stroke="midnightblue" points="310.9,-210.31 319.44,-204.03 308.85,-203.61 310.9,-210.31"/>
</g>
<!-- Node8 -->
<g id="node8" class="node">
<title>Node8</title>
<g id="a_node8"><a xlink:href="low__pass__differentiator_8hpp.html" target="_top" xlink:title=" ">
<polygon fill="white" stroke="black" points="451.25,-179.5 451.25,-209.5 585.25,-209.5 585.25,-179.5 451.25,-179.5"/>
<text text-anchor="start" x="459.25" y="-197.5" font-family="Helvetica,sans-Serif" font-size="10.00">alps_cmn/control/low</text>
<text text-anchor="middle" x="518.25" y="-186.5" font-family="Helvetica,sans-Serif" font-size="10.00">_pass_differentiator.hpp</text>
</a>
</g>
</g>
<!-- Node1&#45;&gt;Node8 -->
<g id="edge10" class="edge">
<title>Node1&#45;&gt;Node8</title>
<path fill="none" stroke="midnightblue" d="M206.44,-249.22C266.2,-239.64 354.11,-225.3 441.03,-210.01"/>
<polygon fill="midnightblue" stroke="midnightblue" points="441.84,-213.43 451.08,-208.24 440.62,-206.53 441.84,-213.43"/>
</g>
<!-- Node11 -->
<g id="node11" class="node">
<title>Node11</title>
<g id="a_node11"><a xlink:href="numeric__range_8hpp.html" target="_top" xlink:title="数値の範囲を扱うクラス">
<polygon fill="white" stroke="black" points="118.75,-179.5 118.75,-209.5 243.75,-209.5 243.75,-179.5 118.75,-179.5"/>
<text text-anchor="start" x="126.75" y="-197.5" font-family="Helvetica,sans-Serif" font-size="10.00">alps_cmn/util/numeric</text>
<text text-anchor="middle" x="181.25" y="-186.5" font-family="Helvetica,sans-Serif" font-size="10.00">_range.hpp</text>
</a>
</g>
</g>
<!-- Node1&#45;&gt;Node11 -->
<g id="edge17" class="edge">
<title>Node1&#45;&gt;Node11</title>
<path fill="none" stroke="midnightblue" d="M145.24,-246.4C151.14,-238.05 158.76,-227.29 165.47,-217.81"/>
<polygon fill="midnightblue" stroke="midnightblue" points="168.37,-219.76 171.29,-209.58 162.66,-215.72 168.37,-219.76"/>
</g>
<!-- Node5&#45;&gt;Node2 -->
<g id="edge5" class="edge">
<title>Node5&#45;&gt;Node2</title>
<path fill="none" stroke="midnightblue" d="M344.52,-184.95C337.75,-162.05 322.51,-98.18 348.25,-56 359.42,-37.71 380.71,-26.49 399.31,-19.83"/>
<polygon fill="midnightblue" stroke="midnightblue" points="400.58,-23.09 409,-16.66 398.41,-16.44 400.58,-23.09"/>
</g>
<!-- Node5&#45;&gt;Node4 -->
<g id="edge6" class="edge">
<title>Node5&#45;&gt;Node4</title>
<path fill="none" stroke="midnightblue" d="M300.41,-184.98C257.54,-176.53 192.68,-162.09 138.25,-143 136.64,-142.43 134.99,-141.81 133.34,-141.15"/>
<polygon fill="midnightblue" stroke="midnightblue" points="134.62,-137.89 124.05,-137.1 131.82,-144.31 134.62,-137.89"/>
</g>
<!-- Node6 -->
<g id="node6" class="node">
<title>Node6</title>
<g id="a_node6"><a xlink:href="algorithm_8hpp.html" target="_top" xlink:title=" ">
<polygon fill="white" stroke="black" points="147.75,-118 147.75,-137 300.75,-137 300.75,-118 147.75,-118"/>
<text text-anchor="middle" x="224.25" y="-125" font-family="Helvetica,sans-Serif" font-size="10.00">alps_cmn/util/algorithm.hpp</text>
</a>
</g>
</g>
<!-- Node5&#45;&gt;Node6 -->
<g id="edge7" class="edge">
<title>Node5&#45;&gt;Node6</title>
<path fill="none" stroke="midnightblue" d="M330.92,-184.87C310.15,-173.89 274.07,-154.82 249.68,-141.94"/>
<polygon fill="midnightblue" stroke="midnightblue" points="251.13,-138.75 240.66,-137.17 247.86,-144.93 251.13,-138.75"/>
</g>
<!-- Node7 -->
<g id="node7" class="node">
<title>Node7</title>
<g id="a_node7"><a xlink:href="duration_8hpp.html" target="_top" xlink:title="時間間隔の型エイリアス">
<polygon fill="white" stroke="black" points="357.75,-56.5 357.75,-75.5 510.75,-75.5 510.75,-56.5 357.75,-56.5"/>
<text text-anchor="middle" x="434.25" y="-63.5" font-family="Helvetica,sans-Serif" font-size="10.00">alps_cmn/time/duration.hpp</text>
</a>
</g>
</g>
<!-- Node5&#45;&gt;Node7 -->
<g id="edge8" class="edge">
<title>Node5&#45;&gt;Node7</title>
<path fill="none" stroke="midnightblue" d="M350.18,-184.84C355.69,-169.29 368.65,-136.05 386.25,-112 394.4,-100.88 405.53,-90.25 415.02,-82.11"/>
<polygon fill="midnightblue" stroke="midnightblue" points="417.35,-84.72 422.82,-75.65 412.89,-79.33 417.35,-84.72"/>
</g>
<!-- Node7&#45;&gt;Node2 -->
<g id="edge9" class="edge">
<title>Node7&#45;&gt;Node2</title>
<path fill="none" stroke="midnightblue" d="M434.25,-56.08C434.25,-49.01 434.25,-38.86 434.25,-29.99"/>
<polygon fill="midnightblue" stroke="midnightblue" points="437.75,-29.75 434.25,-19.75 430.75,-29.75 437.75,-29.75"/>
</g>
<!-- Node9 -->
<g id="node9" class="node">
<title>Node9</title>
<g id="a_node9"><a xlink:href="differentiator_8hpp.html" target="_top" xlink:title="微分器ライブラリ">
<polygon fill="white" stroke="black" points="533.75,-118 533.75,-137 720.75,-137 720.75,-118 533.75,-118"/>
<text text-anchor="middle" x="627.25" y="-125" font-family="Helvetica,sans-Serif" font-size="10.00">alps_cmn/control/differentiator.hpp</text>
</a>
</g>
</g>
<!-- Node8&#45;&gt;Node9 -->
<g id="edge11" class="edge">
<title>Node8&#45;&gt;Node9</title>
<path fill="none" stroke="midnightblue" d="M541.91,-179.4C560.44,-168.34 586.07,-153.06 604.39,-142.13"/>
<polygon fill="midnightblue" stroke="midnightblue" points="606.19,-145.13 612.99,-137.01 602.61,-139.12 606.19,-145.13"/>
</g>
<!-- Node10 -->
<g id="node10" class="node">
<title>Node10</title>
<g id="a_node10"><a xlink:href="low__pass__filter_8hpp.html" target="_top" xlink:title="ローパスフィルタのクラス">
<polygon fill="white" stroke="black" points="395.25,-112.5 395.25,-142.5 515.25,-142.5 515.25,-112.5 395.25,-112.5"/>
<text text-anchor="start" x="403.25" y="-130.5" font-family="Helvetica,sans-Serif" font-size="10.00">alps_cmn/control/low</text>
<text text-anchor="middle" x="455.25" y="-119.5" font-family="Helvetica,sans-Serif" font-size="10.00">_pass_filter.hpp</text>
</a>
</g>
</g>
<!-- Node8&#45;&gt;Node10 -->
<g id="edge14" class="edge">
<title>Node8&#45;&gt;Node10</title>
<path fill="none" stroke="midnightblue" d="M504.58,-179.4C496.25,-170.79 485.42,-159.63 476.04,-149.94"/>
<polygon fill="midnightblue" stroke="midnightblue" points="478.37,-147.32 468.9,-142.58 473.34,-152.19 478.37,-147.32"/>
</g>
<!-- Node9&#45;&gt;Node2 -->
<g id="edge12" class="edge">
<title>Node9&#45;&gt;Node2</title>
<path fill="none" stroke="midnightblue" d="M617.6,-117.86C601.41,-103.68 567.42,-75.13 535.25,-56 513.42,-43.01 487.17,-31.43 466.9,-23.27"/>
<polygon fill="midnightblue" stroke="midnightblue" points="468.06,-19.96 457.48,-19.54 465.49,-26.47 468.06,-19.96"/>
</g>
<!-- Node9&#45;&gt;Node7 -->
<g id="edge13" class="edge">
<title>Node9&#45;&gt;Node7</title>
<path fill="none" stroke="midnightblue" d="M599.6,-117.98C566.07,-107.64 509.38,-90.16 471.89,-78.6"/>
<polygon fill="midnightblue" stroke="midnightblue" points="472.44,-75.11 461.86,-75.51 470.38,-81.8 472.44,-75.11"/>
</g>
<!-- Node10&#45;&gt;Node2 -->
<g id="edge15" class="edge">
<title>Node10&#45;&gt;Node2</title>
<path fill="none" stroke="midnightblue" d="M483.45,-112.49C506.22,-99.17 532.47,-77.95 519.25,-56 508.3,-37.81 487.26,-26.59 468.86,-19.9"/>
<polygon fill="midnightblue" stroke="midnightblue" points="469.85,-16.54 459.26,-16.72 467.65,-23.19 469.85,-16.54"/>
</g>
<!-- Node10&#45;&gt;Node7 -->
<g id="edge16" class="edge">
<title>Node10&#45;&gt;Node7</title>
<path fill="none" stroke="midnightblue" d="M450.28,-112.4C447.42,-104.29 443.79,-94.01 440.71,-85.28"/>
<polygon fill="midnightblue" stroke="midnightblue" points="443.94,-83.92 437.31,-75.66 437.34,-86.25 443.94,-83.92"/>
</g>
<!-- Node11&#45;&gt;Node4 -->
<g id="edge18" class="edge">
<title>Node11&#45;&gt;Node4</title>
<path fill="none" stroke="midnightblue" d="M165.2,-179.4C153.32,-168.96 137.14,-154.75 124.9,-144"/>
<polygon fill="midnightblue" stroke="midnightblue" points="126.98,-141.16 117.15,-137.19 122.36,-146.42 126.98,-141.16"/>
</g>
<!-- Node11&#45;&gt;Node6 -->
<g id="edge19" class="edge">
<title>Node11&#45;&gt;Node6</title>
<path fill="none" stroke="midnightblue" d="M190.59,-179.4C197.16,-169.46 205.99,-156.11 212.96,-145.57"/>
<polygon fill="midnightblue" stroke="midnightblue" points="215.9,-147.47 218.5,-137.19 210.07,-143.6 215.9,-147.47"/>
</g>
</g>
</svg>
