<?xml version="1.0" encoding="UTF-8" standalone="no"?>
<!DOCTYPE svg PUBLIC "-//W3C//DTD SVG 1.1//EN"
 "http://www.w3.org/Graphics/SVG/1.1/DTD/svg11.dtd">
<!-- Generated by graphviz version 2.43.0 (0)
 -->
<!-- Title: alps_common_lib/include/alps_cmn/control/pid.hpp Pages: 1 -->
<svg width="366pt" height="93pt"
 viewBox="0.00 0.00 365.50 93.00" xmlns="http://www.w3.org/2000/svg" xmlns:xlink="http://www.w3.org/1999/xlink">
<g id="graph0" class="graph" transform="scale(1 1) rotate(0) translate(4 89)">
<title>alps_common_lib/include/alps_cmn/control/pid.hpp</title>
<!-- Node1 -->
<g id="node1" class="node">
<title>Node1</title>
<g id="a_node1"><a xlink:title=" ">
<polygon fill="#999999" stroke="#666666" points="254,-85 112,-85 112,-55 254,-55 254,-85"/>
<text text-anchor="start" x="120" y="-73" font-family="Helvetica,sans-Serif" font-size="10.00">alps_common_lib/include</text>
<text text-anchor="middle" x="183" y="-62" font-family="Helvetica,sans-Serif" font-size="10.00">/alps_cmn/control/pid.hpp</text>
</a>
</g>
</g>
<!-- Node2 -->
<g id="node2" class="node">
<title>Node2</title>
<g id="a_node2"><a xlink:href="differential_8hpp.html" target="_top" xlink:title=" ">
<polygon fill="white" stroke="#666666" points="178,-19 0,-19 0,0 178,0 178,-19"/>
<text text-anchor="middle" x="89" y="-7" font-family="Helvetica,sans-Serif" font-size="10.00">alps_cmn/control/differential.hpp</text>
</a>
</g>
</g>
<!-- Node1&#45;&gt;Node2 -->
<g id="edge1" class="edge">
<title>Node1&#45;&gt;Node2</title>
<path fill="none" stroke="#63b8ff" d="M160.25,-54.84C145.4,-45.6 126.1,-33.59 111.34,-24.4"/>
<polygon fill="#63b8ff" stroke="#63b8ff" points="113.15,-21.41 102.81,-19.09 109.45,-27.35 113.15,-21.41"/>
</g>
<!-- Node3 -->
<g id="node3" class="node">
<title>Node3</title>
<g id="a_node3"><a xlink:href="integral_8hpp.html" target="_top" xlink:title=" ">
<polygon fill="white" stroke="#666666" points="357.5,-19 196.5,-19 196.5,0 357.5,0 357.5,-19"/>
<text text-anchor="middle" x="277" y="-7" font-family="Helvetica,sans-Serif" font-size="10.00">alps_cmn/control/integral.hpp</text>
</a>
</g>
</g>
<!-- Node1&#45;&gt;Node3 -->
<g id="edge2" class="edge">
<title>Node1&#45;&gt;Node3</title>
<path fill="none" stroke="#63b8ff" d="M205.75,-54.84C220.6,-45.6 239.9,-33.59 254.66,-24.4"/>
<polygon fill="#63b8ff" stroke="#63b8ff" points="256.55,-27.35 263.19,-19.09 252.85,-21.41 256.55,-27.35"/>
</g>
</g>
</svg>
