<?xml version="1.0" encoding="UTF-8" standalone="no"?>
<!DOCTYPE svg PUBLIC "-//W3C//DTD SVG 1.1//EN"
 "http://www.w3.org/Graphics/SVG/1.1/DTD/svg11.dtd">
<!-- Generated by graphviz version 2.43.0 (0)
 -->
<!-- Title: alps_core/lib_internal/alps_common_lib/include/alps_cmn/control/pid.hpp Pages: 1 -->
<svg width="784pt" height="291pt"
 viewBox="0.00 0.00 783.75 291.00" xmlns="http://www.w3.org/2000/svg" xmlns:xlink="http://www.w3.org/1999/xlink">
<g id="graph0" class="graph" transform="scale(1 1) rotate(0) translate(4 287)">
<title>alps_core/lib_internal/alps_common_lib/include/alps_cmn/control/pid.hpp</title>
<!-- Node1 -->
<g id="Node000001" class="node">
<title>Node1</title>
<g id="a_Node000001"><a xlink:title=" ">
<polygon fill="#999999" stroke="#666666" points="642.75,-283 499.75,-283 499.75,-242 642.75,-242 642.75,-283"/>
<text text-anchor="start" x="507.75" y="-271" font-family="Helvetica,sans-Serif" font-size="10.00">alps_core/lib_internal</text>
<text text-anchor="start" x="507.75" y="-260" font-family="Helvetica,sans-Serif" font-size="10.00">/alps_common_lib/include</text>
<text text-anchor="middle" x="571.25" y="-249" font-family="Helvetica,sans-Serif" font-size="10.00">/alps_cmn/control/pid.hpp</text>
</a>
</g>
</g>
<!-- Node2 -->
<g id="Node000002" class="node">
<title>Node2</title>
<g id="a_Node000002"><a xlink:title=" ">
<polygon fill="#e0e0e0" stroke="#999999" points="202.25,-19 152.25,-19 152.25,0 202.25,0 202.25,-19"/>
<text text-anchor="middle" x="177.25" y="-7" font-family="Helvetica,sans-Serif" font-size="10.00">chrono</text>
</a>
</g>
</g>
<!-- Node1&#45;&gt;Node2 -->
<g id="edge1_Node000001_Node000002" class="edge">
<title>Node1&#45;&gt;Node2</title>
<g id="a_edge1_Node000001_Node000002"><a xlink:title=" ">
<path fill="none" stroke="#63b8ff" d="M499.66,-258C360.3,-249.41 61.53,-221.65 8.25,-140 -30.23,-81.03 82.12,-38.12 142.14,-20.02"/>
<polygon fill="#63b8ff" stroke="#63b8ff" points="143.39,-23.3 152,-17.13 141.42,-16.58 143.39,-23.3"/>
</a>
</g>
</g>
<!-- Node3 -->
<g id="Node000003" class="node">
<title>Node3</title>
<g id="a_Node000003"><a xlink:title=" ">
<polygon fill="#e0e0e0" stroke="#999999" points="775.75,-200.5 728.75,-200.5 728.75,-181.5 775.75,-181.5 775.75,-200.5"/>
<text text-anchor="middle" x="752.25" y="-188.5" font-family="Helvetica,sans-Serif" font-size="10.00">cmath</text>
</a>
</g>
</g>
<!-- Node1&#45;&gt;Node3 -->
<g id="edge2_Node000001_Node000003" class="edge">
<title>Node1&#45;&gt;Node3</title>
<g id="a_edge2_Node000001_Node000003"><a xlink:title=" ">
<path fill="none" stroke="#63b8ff" d="M622.15,-241.96C653.81,-229.8 693.53,-214.55 720.7,-204.11"/>
<polygon fill="#63b8ff" stroke="#63b8ff" points="722.02,-207.36 730.1,-200.5 719.51,-200.82 722.02,-207.36"/>
</a>
</g>
</g>
<!-- Node4 -->
<g id="Node000004" class="node">
<title>Node4</title>
<g id="a_Node000004"><a xlink:title=" ">
<polygon fill="#e0e0e0" stroke="#999999" points="652.25,-134.5 608.25,-134.5 608.25,-115.5 652.25,-115.5 652.25,-134.5"/>
<text text-anchor="middle" x="630.25" y="-122.5" font-family="Helvetica,sans-Serif" font-size="10.00">limits</text>
</a>
</g>
</g>
<!-- Node1&#45;&gt;Node4 -->
<g id="edge3_Node000001_Node000004" class="edge">
<title>Node1&#45;&gt;Node4</title>
<g id="a_edge3_Node000001_Node000004"><a xlink:title=" ">
<path fill="none" stroke="#63b8ff" d="M609.21,-241.87C622.51,-232.88 635.94,-220.87 643.25,-206 652.92,-186.34 646.02,-161.01 639.13,-144.17"/>
<polygon fill="#63b8ff" stroke="#63b8ff" points="642.26,-142.61 634.98,-134.91 635.87,-145.47 642.26,-142.61"/>
</a>
</g>
</g>
<!-- Node5 -->
<g id="Node000005" class="node">
<title>Node5</title>
<g id="a_Node000005"><a xlink:title=" ">
<polygon fill="#e0e0e0" stroke="#999999" points="717.75,-134.5 676.75,-134.5 676.75,-115.5 717.75,-115.5 717.75,-134.5"/>
<text text-anchor="middle" x="697.25" y="-122.5" font-family="Helvetica,sans-Serif" font-size="10.00">tuple</text>
</a>
</g>
</g>
<!-- Node1&#45;&gt;Node5 -->
<g id="edge4_Node000001_Node000005" class="edge">
<title>Node1&#45;&gt;Node5</title>
<g id="a_edge4_Node000001_Node000005"><a xlink:title=" ">
<path fill="none" stroke="#63b8ff" d="M612.5,-241.93C628.62,-232.75 646.3,-220.59 659.25,-206 675.39,-187.81 686.09,-161.56 691.91,-144.15"/>
<polygon fill="#63b8ff" stroke="#63b8ff" points="695.25,-145.19 694.91,-134.6 688.58,-143.1 695.25,-145.19"/>
</a>
</g>
</g>
<!-- Node6 -->
<g id="Node000006" class="node">
<title>Node6</title>
<g id="a_Node000006"><a xlink:href="integrator_8hpp.html" target="_top" xlink:title="積分器ライブラリ">
<polygon fill="white" stroke="#666666" points="490.75,-200.5 319.75,-200.5 319.75,-181.5 490.75,-181.5 490.75,-200.5"/>
<text text-anchor="middle" x="405.25" y="-188.5" font-family="Helvetica,sans-Serif" font-size="10.00">alps_cmn/control/integrator.hpp</text>
</a>
</g>
</g>
<!-- Node1&#45;&gt;Node6 -->
<g id="edge5_Node000001_Node000006" class="edge">
<title>Node1&#45;&gt;Node6</title>
<g id="a_edge5_Node000001_Node000006"><a xlink:title=" ">
<path fill="none" stroke="#63b8ff" d="M524.57,-241.96C495.78,-229.9 459.74,-214.81 434.84,-204.39"/>
<polygon fill="#63b8ff" stroke="#63b8ff" points="436.14,-201.14 425.56,-200.5 433.43,-207.59 436.14,-201.14"/>
</a>
</g>
</g>
<!-- Node9 -->
<g id="Node000009" class="node">
<title>Node9</title>
<g id="a_Node000009"><a xlink:href="low__pass__differentiator_8hpp.html" target="_top" xlink:title=" ">
<polygon fill="white" stroke="#666666" points="301.25,-206 167.25,-206 167.25,-176 301.25,-176 301.25,-206"/>
<text text-anchor="start" x="175.25" y="-194" font-family="Helvetica,sans-Serif" font-size="10.00">alps_cmn/control/low</text>
<text text-anchor="middle" x="234.25" y="-183" font-family="Helvetica,sans-Serif" font-size="10.00">_pass_differentiator.hpp</text>
</a>
</g>
</g>
<!-- Node1&#45;&gt;Node9 -->
<g id="edge11_Node000001_Node000009" class="edge">
<title>Node1&#45;&gt;Node9</title>
<g id="a_edge11_Node000001_Node000009"><a xlink:title=" ">
<path fill="none" stroke="#63b8ff" d="M499.37,-246.68C444.11,-235.28 367.92,-219.57 311.39,-207.91"/>
<polygon fill="#63b8ff" stroke="#63b8ff" points="311.93,-204.45 301.43,-205.86 310.52,-211.3 311.93,-204.45"/>
</a>
</g>
</g>
<!-- Node12 -->
<g id="Node000012" class="node">
<title>Node12</title>
<g id="a_Node000012"><a xlink:href="numeric__range_8hpp.html" target="_top" xlink:title="数値の範囲を扱うクラス">
<polygon fill="white" stroke="#666666" points="633.75,-206 508.75,-206 508.75,-176 633.75,-176 633.75,-206"/>
<text text-anchor="start" x="516.75" y="-194" font-family="Helvetica,sans-Serif" font-size="10.00">alps_cmn/util/numeric</text>
<text text-anchor="middle" x="571.25" y="-183" font-family="Helvetica,sans-Serif" font-size="10.00">_range.hpp</text>
</a>
</g>
</g>
<!-- Node1&#45;&gt;Node12 -->
<g id="edge18_Node000001_Node000012" class="edge">
<title>Node1&#45;&gt;Node12</title>
<g id="a_edge18_Node000001_Node000012"><a xlink:title=" ">
<path fill="none" stroke="#63b8ff" d="M571.25,-241.77C571.25,-233.85 571.25,-224.63 571.25,-216.3"/>
<polygon fill="#63b8ff" stroke="#63b8ff" points="574.75,-216.04 571.25,-206.04 567.75,-216.04 574.75,-216.04"/>
</a>
</g>
</g>
<!-- Node6&#45;&gt;Node2 -->
<g id="edge6_Node000006_Node000002" class="edge">
<title>Node6&#45;&gt;Node2</title>
<g id="a_edge6_Node000006_Node000002"><a xlink:title=" ">
<path fill="none" stroke="#63b8ff" d="M405.68,-181.24C406.33,-157.26 404.67,-90.05 368.25,-55 346.25,-33.83 261.34,-20.48 212.45,-14.39"/>
<polygon fill="#63b8ff" stroke="#63b8ff" points="212.66,-10.89 202.31,-13.16 211.82,-17.84 212.66,-10.89"/>
</a>
</g>
</g>
<!-- Node6&#45;&gt;Node4 -->
<g id="edge7_Node000006_Node000004" class="edge">
<title>Node6&#45;&gt;Node4</title>
<g id="a_edge7_Node000006_Node000004"><a xlink:title=" ">
<path fill="none" stroke="#63b8ff" d="M446.74,-181.48C486.44,-172.82 547.74,-158.12 599.25,-140 600.64,-139.51 602.06,-138.98 603.48,-138.43"/>
<polygon fill="#63b8ff" stroke="#63b8ff" points="604.89,-141.63 612.76,-134.53 602.18,-135.18 604.89,-141.63"/>
</a>
</g>
</g>
<!-- Node7 -->
<g id="Node000007" class="node">
<title>Node7</title>
<g id="a_Node000007"><a xlink:href="algorithm_8hpp.html" target="_top" xlink:title=" ">
<polygon fill="white" stroke="#666666" points="589.75,-134.5 436.75,-134.5 436.75,-115.5 589.75,-115.5 589.75,-134.5"/>
<text text-anchor="middle" x="513.25" y="-122.5" font-family="Helvetica,sans-Serif" font-size="10.00">alps_cmn/util/algorithm.hpp</text>
</a>
</g>
</g>
<!-- Node6&#45;&gt;Node7 -->
<g id="edge8_Node000006_Node000007" class="edge">
<title>Node6&#45;&gt;Node7</title>
<g id="a_edge8_Node000006_Node000007"><a xlink:title=" ">
<path fill="none" stroke="#63b8ff" d="M419.81,-181.37C437.77,-170.73 468.52,-152.51 489.81,-139.89"/>
<polygon fill="#63b8ff" stroke="#63b8ff" points="491.75,-142.81 498.57,-134.7 488.18,-136.79 491.75,-142.81"/>
</a>
</g>
</g>
<!-- Node8 -->
<g id="Node000008" class="node">
<title>Node8</title>
<g id="a_Node000008"><a xlink:href="duration_8hpp.html" target="_top" xlink:title="時間間隔の型エイリアス">
<polygon fill="white" stroke="#666666" points="358.75,-74 205.75,-74 205.75,-55 358.75,-55 358.75,-74"/>
<text text-anchor="middle" x="282.25" y="-62" font-family="Helvetica,sans-Serif" font-size="10.00">alps_cmn/time/duration.hpp</text>
</a>
</g>
</g>
<!-- Node6&#45;&gt;Node8 -->
<g id="edge9_Node000006_Node000008" class="edge">
<title>Node6&#45;&gt;Node8</title>
<g id="a_edge9_Node000006_Node000008"><a xlink:title=" ">
<path fill="none" stroke="#63b8ff" d="M401,-181.48C392.92,-165.9 374.12,-132.39 351.25,-110 338.67,-97.68 322.17,-86.89 308.46,-79.02"/>
<polygon fill="#63b8ff" stroke="#63b8ff" points="309.94,-75.84 299.49,-74.06 306.55,-81.97 309.94,-75.84"/>
</a>
</g>
</g>
<!-- Node8&#45;&gt;Node2 -->
<g id="edge10_Node000008_Node000002" class="edge">
<title>Node8&#45;&gt;Node2</title>
<g id="a_edge10_Node000008_Node000002"><a xlink:title=" ">
<path fill="none" stroke="#63b8ff" d="M265.38,-54.98C248.64,-46.54 222.75,-33.47 203.36,-23.68"/>
<polygon fill="#63b8ff" stroke="#63b8ff" points="204.93,-20.55 194.43,-19.17 201.78,-26.8 204.93,-20.55"/>
</a>
</g>
</g>
<!-- Node10 -->
<g id="Node000010" class="node">
<title>Node10</title>
<g id="a_Node000010"><a xlink:href="differentiator_8hpp.html" target="_top" xlink:title="微分器ライブラリ">
<polygon fill="white" stroke="#666666" points="204.75,-134.5 17.75,-134.5 17.75,-115.5 204.75,-115.5 204.75,-134.5"/>
<text text-anchor="middle" x="111.25" y="-122.5" font-family="Helvetica,sans-Serif" font-size="10.00">alps_cmn/control/differentiator.hpp</text>
</a>
</g>
</g>
<!-- Node9&#45;&gt;Node10 -->
<g id="edge12_Node000009_Node000010" class="edge">
<title>Node9&#45;&gt;Node10</title>
<g id="a_edge12_Node000009_Node000010"><a xlink:title=" ">
<path fill="none" stroke="#63b8ff" d="M207.26,-175.95C186.26,-165.03 157.32,-149.97 136.71,-139.25"/>
<polygon fill="#63b8ff" stroke="#63b8ff" points="138.1,-136.03 127.62,-134.52 134.87,-142.24 138.1,-136.03"/>
</a>
</g>
</g>
<!-- Node11 -->
<g id="Node000011" class="node">
<title>Node11</title>
<g id="a_Node000011"><a xlink:href="low__pass__filter_8hpp.html" target="_top" xlink:title="ローパスフィルタのクラス">
<polygon fill="white" stroke="#666666" points="342.25,-140 222.25,-140 222.25,-110 342.25,-110 342.25,-140"/>
<text text-anchor="start" x="230.25" y="-128" font-family="Helvetica,sans-Serif" font-size="10.00">alps_cmn/control/low</text>
<text text-anchor="middle" x="282.25" y="-117" font-family="Helvetica,sans-Serif" font-size="10.00">_pass_filter.hpp</text>
</a>
</g>
</g>
<!-- Node9&#45;&gt;Node11 -->
<g id="edge15_Node000009_Node000011" class="edge">
<title>Node9&#45;&gt;Node11</title>
<g id="a_edge15_Node000009_Node000011"><a xlink:title=" ">
<path fill="none" stroke="#63b8ff" d="M244.9,-175.8C250.93,-167.76 258.6,-157.53 265.43,-148.43"/>
<polygon fill="#63b8ff" stroke="#63b8ff" points="268.43,-150.26 271.63,-140.16 262.83,-146.06 268.43,-150.26"/>
</a>
</g>
</g>
<!-- Node10&#45;&gt;Node2 -->
<g id="edge13_Node000010_Node000002" class="edge">
<title>Node10&#45;&gt;Node2</title>
<g id="a_edge13_Node000010_Node000002"><a xlink:title=" ">
<path fill="none" stroke="#63b8ff" d="M116.21,-115.47C127.01,-96.9 152.82,-52.51 167.18,-27.82"/>
<polygon fill="#63b8ff" stroke="#63b8ff" points="170.23,-29.53 172.23,-19.13 164.18,-26.02 170.23,-29.53"/>
</a>
</g>
</g>
<!-- Node10&#45;&gt;Node8 -->
<g id="edge14_Node000010_Node000008" class="edge">
<title>Node10&#45;&gt;Node8</title>
<g id="a_edge14_Node000010_Node000008"><a xlink:title=" ">
<path fill="none" stroke="#63b8ff" d="M136.11,-115.49C165.49,-105.44 214.56,-88.66 247.64,-77.34"/>
<polygon fill="#63b8ff" stroke="#63b8ff" points="249.03,-80.57 257.35,-74.02 246.76,-73.94 249.03,-80.57"/>
</a>
</g>
</g>
<!-- Node11&#45;&gt;Node2 -->
<g id="edge16_Node000011_Node000002" class="edge">
<title>Node11&#45;&gt;Node2</title>
<g id="a_edge16_Node000011_Node000002"><a xlink:title=" ">
<path fill="none" stroke="#63b8ff" d="M244.78,-109.82C227.79,-101.68 208.76,-89.87 196.25,-74 186.12,-61.15 181.38,-42.98 179.17,-29.37"/>
<polygon fill="#63b8ff" stroke="#63b8ff" points="182.61,-28.69 177.84,-19.23 175.67,-29.6 182.61,-28.69"/>
</a>
</g>
</g>
<!-- Node11&#45;&gt;Node8 -->
<g id="edge17_Node000011_Node000008" class="edge">
<title>Node11&#45;&gt;Node8</title>
<g id="a_edge17_Node000011_Node000008"><a xlink:title=" ">
<path fill="none" stroke="#63b8ff" d="M282.25,-109.84C282.25,-102.21 282.25,-92.7 282.25,-84.45"/>
<polygon fill="#63b8ff" stroke="#63b8ff" points="285.75,-84.27 282.25,-74.27 278.75,-84.27 285.75,-84.27"/>
</a>
</g>
</g>
<!-- Node12&#45;&gt;Node4 -->
<g id="edge19_Node000012_Node000004" class="edge">
<title>Node12&#45;&gt;Node4</title>
<g id="a_edge19_Node000012_Node000004"><a xlink:title=" ">
<path fill="none" stroke="#63b8ff" d="M584.34,-175.8C593.45,-165.92 605.62,-152.72 615.14,-142.39"/>
<polygon fill="#63b8ff" stroke="#63b8ff" points="617.89,-144.57 622.1,-134.84 612.74,-139.82 617.89,-144.57"/>
</a>
</g>
</g>
<!-- Node12&#45;&gt;Node5 -->
<g id="edge20_Node000012_Node000005" class="edge">
<title>Node12&#45;&gt;Node5</title>
<g id="a_edge20_Node000012_Node000005"><a xlink:title=" ">
<path fill="none" stroke="#63b8ff" d="M598.9,-175.95C620.51,-164.98 650.33,-149.83 671.45,-139.11"/>
<polygon fill="#63b8ff" stroke="#63b8ff" points="673.15,-142.17 680.48,-134.52 669.98,-135.93 673.15,-142.17"/>
</a>
</g>
</g>
<!-- Node12&#45;&gt;Node7 -->
<g id="edge21_Node000012_Node000007" class="edge">
<title>Node12&#45;&gt;Node7</title>
<g id="a_edge21_Node000012_Node000007"><a xlink:title=" ">
<path fill="none" stroke="#63b8ff" d="M558.38,-175.8C549.42,-165.92 537.46,-152.72 528.1,-142.39"/>
<polygon fill="#63b8ff" stroke="#63b8ff" points="530.57,-139.9 521.26,-134.84 525.39,-144.6 530.57,-139.9"/>
</a>
</g>
</g>
</g>
</svg>
