<?xml version="1.0" encoding="UTF-8" standalone="no"?>
<!DOCTYPE svg PUBLIC "-//W3C//DTD SVG 1.1//EN"
 "http://www.w3.org/Graphics/SVG/1.1/DTD/svg11.dtd">
<!-- Generated by graphviz version 2.43.0 (0)
 -->
<!-- Title: alps_common_lib/include/alps_cmn/control/pid.hpp Pages: 1 -->
<svg width="730pt" height="280pt"
 viewBox="0.00 0.00 730.12 280.00" xmlns="http://www.w3.org/2000/svg" xmlns:xlink="http://www.w3.org/1999/xlink">
<g id="graph0" class="graph" transform="scale(1 1) rotate(0) translate(4 276)">
<title>alps_common_lib/include/alps_cmn/control/pid.hpp</title>
<!-- Node1 -->
<g id="node1" class="node">
<title>Node1</title>
<g id="a_node1"><a xlink:title=" ">
<polygon fill="#999999" stroke="#666666" points="206.12,-272 64.12,-272 64.12,-242 206.12,-242 206.12,-272"/>
<text text-anchor="start" x="72.12" y="-260" font-family="Helvetica,sans-Serif" font-size="10.00">alps_common_lib/include</text>
<text text-anchor="middle" x="135.12" y="-249" font-family="Helvetica,sans-Serif" font-size="10.00">/alps_cmn/control/pid.hpp</text>
</a>
</g>
</g>
<!-- Node2 -->
<g id="node2" class="node">
<title>Node2</title>
<g id="a_node2"><a xlink:title=" ">
<polygon fill="#e0e0e0" stroke="#999999" points="460.12,-19 410.12,-19 410.12,0 460.12,0 460.12,-19"/>
<text text-anchor="middle" x="435.12" y="-7" font-family="Helvetica,sans-Serif" font-size="10.00">chrono</text>
</a>
</g>
</g>
<!-- Node1&#45;&gt;Node2 -->
<g id="edge1" class="edge">
<title>Node1&#45;&gt;Node2</title>
<path fill="none" stroke="#63b8ff" d="M64.04,-245.02C41.41,-237.8 18.74,-225.83 5.12,-206 -2.43,-195.01 -0.25,-188.2 5.12,-176 71.5,-25.1 309.68,-9.9 400.03,-9.71"/>
<polygon fill="#63b8ff" stroke="#63b8ff" points="400.03,-13.21 410.04,-9.75 400.06,-6.21 400.03,-13.21"/>
</g>
<!-- Node3 -->
<g id="node3" class="node">
<title>Node3</title>
<g id="a_node3"><a xlink:title=" ">
<polygon fill="#e0e0e0" stroke="#999999" points="61.62,-200.5 14.62,-200.5 14.62,-181.5 61.62,-181.5 61.62,-200.5"/>
<text text-anchor="middle" x="38.12" y="-188.5" font-family="Helvetica,sans-Serif" font-size="10.00">cmath</text>
</a>
</g>
</g>
<!-- Node1&#45;&gt;Node3 -->
<g id="edge2" class="edge">
<title>Node1&#45;&gt;Node3</title>
<path fill="none" stroke="#63b8ff" d="M113.59,-241.8C97.63,-231.27 75.96,-216.97 59.94,-206.4"/>
<polygon fill="#63b8ff" stroke="#63b8ff" points="61.51,-203.24 51.24,-200.66 57.66,-209.09 61.51,-203.24"/>
</g>
<!-- Node4 -->
<g id="node4" class="node">
<title>Node4</title>
<g id="a_node4"><a xlink:title=" ">
<polygon fill="#e0e0e0" stroke="#999999" points="130.12,-134.5 86.12,-134.5 86.12,-115.5 130.12,-115.5 130.12,-134.5"/>
<text text-anchor="middle" x="108.12" y="-122.5" font-family="Helvetica,sans-Serif" font-size="10.00">limits</text>
</a>
</g>
</g>
<!-- Node1&#45;&gt;Node4 -->
<g id="edge3" class="edge">
<title>Node1&#45;&gt;Node4</title>
<path fill="none" stroke="#63b8ff" d="M125.47,-241.85C119.49,-232.21 112.36,-218.91 109.12,-206 104,-185.62 104.58,-161.39 105.91,-144.98"/>
<polygon fill="#63b8ff" stroke="#63b8ff" points="109.44,-144.87 106.94,-134.57 102.47,-144.18 109.44,-144.87"/>
</g>
<!-- Node5 -->
<g id="node5" class="node">
<title>Node5</title>
<g id="a_node5"><a xlink:href="integrator_8hpp.html" target="_top" xlink:title="積分器ライブラリ">
<polygon fill="white" stroke="#666666" points="434.12,-200.5 262.12,-200.5 262.12,-181.5 434.12,-181.5 434.12,-200.5"/>
<text text-anchor="middle" x="348.12" y="-188.5" font-family="Helvetica,sans-Serif" font-size="10.00">alps_cmn/control/integrator.hpp</text>
</a>
</g>
</g>
<!-- Node1&#45;&gt;Node5 -->
<g id="edge4" class="edge">
<title>Node1&#45;&gt;Node5</title>
<path fill="none" stroke="#63b8ff" d="M181.86,-241.95C220.37,-230.38 274.28,-214.18 310.16,-203.41"/>
<polygon fill="#63b8ff" stroke="#63b8ff" points="311.2,-206.75 319.77,-200.52 309.19,-200.04 311.2,-206.75"/>
</g>
<!-- Node8 -->
<g id="node8" class="node">
<title>Node8</title>
<g id="a_node8"><a xlink:href="low__pass__differentiator_8hpp.html" target="_top" xlink:title=" ">
<polygon fill="white" stroke="#666666" points="587.62,-206 452.62,-206 452.62,-176 587.62,-176 587.62,-206"/>
<text text-anchor="start" x="460.62" y="-194" font-family="Helvetica,sans-Serif" font-size="10.00">alps_cmn/control/low</text>
<text text-anchor="middle" x="520.12" y="-183" font-family="Helvetica,sans-Serif" font-size="10.00">_pass_differentiator.hpp</text>
</a>
</g>
</g>
<!-- Node1&#45;&gt;Node8 -->
<g id="edge10" class="edge">
<title>Node1&#45;&gt;Node8</title>
<path fill="none" stroke="#63b8ff" d="M206.13,-244.86C266.28,-235.34 355.08,-221.07 442.43,-206.1"/>
<polygon fill="#63b8ff" stroke="#63b8ff" points="443.26,-209.51 452.52,-204.36 442.07,-202.61 443.26,-209.51"/>
</g>
<!-- Node11 -->
<g id="node11" class="node">
<title>Node11</title>
<g id="a_node11"><a xlink:href="numeric__range_8hpp.html" target="_top" xlink:title="数値の範囲を扱うクラス">
<polygon fill="white" stroke="#666666" points="243.62,-206 118.62,-206 118.62,-176 243.62,-176 243.62,-206"/>
<text text-anchor="start" x="126.62" y="-194" font-family="Helvetica,sans-Serif" font-size="10.00">alps_cmn/util/numeric</text>
<text text-anchor="middle" x="181.12" y="-183" font-family="Helvetica,sans-Serif" font-size="10.00">_range.hpp</text>
</a>
</g>
</g>
<!-- Node1&#45;&gt;Node11 -->
<g id="edge17" class="edge">
<title>Node1&#45;&gt;Node11</title>
<path fill="none" stroke="#63b8ff" d="M145.33,-241.8C151.1,-233.76 158.46,-223.53 165,-214.43"/>
<polygon fill="#63b8ff" stroke="#63b8ff" points="167.94,-216.33 170.94,-206.16 162.26,-212.24 167.94,-216.33"/>
</g>
<!-- Node5&#45;&gt;Node2 -->
<g id="edge5" class="edge">
<title>Node5&#45;&gt;Node2</title>
<path fill="none" stroke="#63b8ff" d="M345.33,-181.27C338.61,-158.49 323.87,-96.15 349.12,-55 360.3,-36.78 381.58,-25.68 400.18,-19.13"/>
<polygon fill="#63b8ff" stroke="#63b8ff" points="401.42,-22.4 409.88,-16.02 399.29,-15.74 401.42,-22.4"/>
</g>
<!-- Node5&#45;&gt;Node4 -->
<g id="edge6" class="edge">
<title>Node5&#45;&gt;Node4</title>
<path fill="none" stroke="#63b8ff" d="M301.33,-181.45C258.49,-173 193.66,-158.65 139.12,-140 137.72,-139.52 136.3,-139 134.88,-138.46"/>
<polygon fill="#63b8ff" stroke="#63b8ff" points="136.16,-135.2 125.59,-134.59 133.47,-141.67 136.16,-135.2"/>
</g>
<!-- Node6 -->
<g id="node6" class="node">
<title>Node6</title>
<g id="a_node6"><a xlink:href="algorithm_8hpp.html" target="_top" xlink:title=" ">
<polygon fill="white" stroke="#666666" points="301.62,-134.5 148.62,-134.5 148.62,-115.5 301.62,-115.5 301.62,-134.5"/>
<text text-anchor="middle" x="225.12" y="-122.5" font-family="Helvetica,sans-Serif" font-size="10.00">alps_cmn/util/algorithm.hpp</text>
</a>
</g>
</g>
<!-- Node5&#45;&gt;Node6 -->
<g id="edge7" class="edge">
<title>Node5&#45;&gt;Node6</title>
<path fill="none" stroke="#63b8ff" d="M331.53,-181.37C310.8,-170.59 275.12,-152.02 250.84,-139.38"/>
<polygon fill="#63b8ff" stroke="#63b8ff" points="252.32,-136.21 241.83,-134.7 249.09,-142.42 252.32,-136.21"/>
</g>
<!-- Node7 -->
<g id="node7" class="node">
<title>Node7</title>
<g id="a_node7"><a xlink:href="duration_8hpp.html" target="_top" xlink:title="時間間隔の型エイリアス">
<polygon fill="white" stroke="#666666" points="511.62,-74 358.62,-74 358.62,-55 511.62,-55 511.62,-74"/>
<text text-anchor="middle" x="435.12" y="-62" font-family="Helvetica,sans-Serif" font-size="10.00">alps_cmn/time/duration.hpp</text>
</a>
</g>
</g>
<!-- Node5&#45;&gt;Node7 -->
<g id="edge8" class="edge">
<title>Node5&#45;&gt;Node7</title>
<path fill="none" stroke="#63b8ff" d="M351.07,-181.49C356.61,-166.22 369.62,-133.58 387.12,-110 395.29,-98.99 406.42,-88.47 415.9,-80.43"/>
<polygon fill="#63b8ff" stroke="#63b8ff" points="418.18,-83.09 423.7,-74.05 413.75,-77.67 418.18,-83.09"/>
</g>
<!-- Node7&#45;&gt;Node2 -->
<g id="edge9" class="edge">
<title>Node7&#45;&gt;Node2</title>
<path fill="none" stroke="#63b8ff" d="M435.12,-54.75C435.12,-47.8 435.12,-37.85 435.12,-29.13"/>
<polygon fill="#63b8ff" stroke="#63b8ff" points="438.62,-29.09 435.12,-19.09 431.62,-29.09 438.62,-29.09"/>
</g>
<!-- Node9 -->
<g id="node9" class="node">
<title>Node9</title>
<g id="a_node9"><a xlink:href="differentiator_8hpp.html" target="_top" xlink:title="微分器ライブラリ">
<polygon fill="white" stroke="#666666" points="722.12,-134.5 534.12,-134.5 534.12,-115.5 722.12,-115.5 722.12,-134.5"/>
<text text-anchor="middle" x="628.12" y="-122.5" font-family="Helvetica,sans-Serif" font-size="10.00">alps_cmn/control/differentiator.hpp</text>
</a>
</g>
</g>
<!-- Node8&#45;&gt;Node9 -->
<g id="edge11" class="edge">
<title>Node8&#45;&gt;Node9</title>
<path fill="none" stroke="#63b8ff" d="M543.82,-175.95C562.01,-165.18 586.98,-150.38 605.02,-139.69"/>
<polygon fill="#63b8ff" stroke="#63b8ff" points="606.92,-142.63 613.74,-134.52 603.36,-136.6 606.92,-142.63"/>
</g>
<!-- Node10 -->
<g id="node10" class="node">
<title>Node10</title>
<g id="a_node10"><a xlink:href="low__pass__filter_8hpp.html" target="_top" xlink:title="ローパスフィルタのクラス">
<polygon fill="white" stroke="#666666" points="516.12,-140 396.12,-140 396.12,-110 516.12,-110 516.12,-140"/>
<text text-anchor="start" x="404.12" y="-128" font-family="Helvetica,sans-Serif" font-size="10.00">alps_cmn/control/low</text>
<text text-anchor="middle" x="456.12" y="-117" font-family="Helvetica,sans-Serif" font-size="10.00">_pass_filter.hpp</text>
</a>
</g>
</g>
<!-- Node8&#45;&gt;Node10 -->
<g id="edge14" class="edge">
<title>Node8&#45;&gt;Node10</title>
<path fill="none" stroke="#63b8ff" d="M505.91,-175.8C497.54,-167.43 486.79,-156.68 477.43,-147.31"/>
<polygon fill="#63b8ff" stroke="#63b8ff" points="479.83,-144.76 470.28,-140.16 474.88,-149.71 479.83,-144.76"/>
</g>
<!-- Node9&#45;&gt;Node2 -->
<g id="edge12" class="edge">
<title>Node9&#45;&gt;Node2</title>
<path fill="none" stroke="#63b8ff" d="M618.17,-115.32C601.85,-101.38 568,-73.65 536.12,-55 514.37,-42.28 488.32,-30.89 468.12,-22.81"/>
<polygon fill="#63b8ff" stroke="#63b8ff" points="469.31,-19.52 458.72,-19.13 466.75,-26.04 469.31,-19.52"/>
</g>
<!-- Node9&#45;&gt;Node7 -->
<g id="edge13" class="edge">
<title>Node9&#45;&gt;Node7</title>
<path fill="none" stroke="#63b8ff" d="M600.05,-115.49C566.61,-105.36 510.56,-88.37 473.22,-77.05"/>
<polygon fill="#63b8ff" stroke="#63b8ff" points="473.8,-73.57 463.21,-74.02 471.77,-80.27 473.8,-73.57"/>
</g>
<!-- Node10&#45;&gt;Node2 -->
<g id="edge15" class="edge">
<title>Node10&#45;&gt;Node2</title>
<path fill="none" stroke="#63b8ff" d="M485.15,-109.87C507.67,-96.86 533.06,-76.39 520.12,-55 509.22,-37 488.39,-25.93 470.07,-19.33"/>
<polygon fill="#63b8ff" stroke="#63b8ff" points="471.11,-15.99 460.52,-16.2 468.93,-22.64 471.11,-15.99"/>
</g>
<!-- Node10&#45;&gt;Node7 -->
<g id="edge16" class="edge">
<title>Node10&#45;&gt;Node7</title>
<path fill="none" stroke="#63b8ff" d="M451.03,-109.84C448.23,-102.04 444.73,-92.27 441.72,-83.89"/>
<polygon fill="#63b8ff" stroke="#63b8ff" points="444.94,-82.5 438.26,-74.27 438.35,-84.86 444.94,-82.5"/>
</g>
<!-- Node11&#45;&gt;Node4 -->
<g id="edge18" class="edge">
<title>Node11&#45;&gt;Node4</title>
<path fill="none" stroke="#63b8ff" d="M164.92,-175.8C153.31,-165.62 137.69,-151.93 125.77,-141.48"/>
<polygon fill="#63b8ff" stroke="#63b8ff" points="128.03,-138.8 118.2,-134.84 123.42,-144.07 128.03,-138.8"/>
</g>
<!-- Node11&#45;&gt;Node6 -->
<g id="edge19" class="edge">
<title>Node11&#45;&gt;Node6</title>
<path fill="none" stroke="#63b8ff" d="M190.88,-175.8C197.47,-166.21 206.21,-153.5 213.21,-143.32"/>
<polygon fill="#63b8ff" stroke="#63b8ff" points="216.25,-145.07 219.04,-134.84 210.49,-141.1 216.25,-145.07"/>
</g>
</g>
</svg>
