<?xml version="1.0" encoding="UTF-8" standalone="no"?>
<!DOCTYPE svg PUBLIC "-//W3C//DTD SVG 1.1//EN"
 "http://www.w3.org/Graphics/SVG/1.1/DTD/svg11.dtd">
<!-- Generated by graphviz version 2.43.0 (0)
 -->
<!-- Title: roblab_ros_lib/include/serial/posix_serial_io.hpp Pages: 1 -->
<svg width="199pt" height="170pt"
 viewBox="0.00 0.00 199.00 170.00" xmlns="http://www.w3.org/2000/svg" xmlns:xlink="http://www.w3.org/1999/xlink">
<g id="graph0" class="graph" transform="scale(1 1) rotate(0) translate(4 166)">
<title>roblab_ros_lib/include/serial/posix_serial_io.hpp</title>
<!-- Node1 -->
<g id="node1" class="node">
<title>Node1</title>
<g id="a_node1"><a xlink:title="Ubuntuシリアル通信IOライブラリ">
<polygon fill="#999999" stroke="#666666" points="167,-162 24,-162 24,-132 167,-132 167,-162"/>
<text text-anchor="start" x="32" y="-150" font-family="Helvetica,sans-Serif" font-size="10.00">roblab_ros_lib/include</text>
<text text-anchor="middle" x="95.5" y="-139" font-family="Helvetica,sans-Serif" font-size="10.00">/serial/posix_serial_io.hpp</text>
</a>
</g>
</g>
<!-- Node2 -->
<g id="node2" class="node">
<title>Node2</title>
<g id="a_node2"><a xlink:href="mbed__single__connection_8hpp.html" target="_top" xlink:title="1個のmbedとシリアル通信">
<polygon fill="white" stroke="#666666" points="191,-96 0,-96 0,-66 191,-66 191,-96"/>
<text text-anchor="start" x="8" y="-84" font-family="Helvetica,sans-Serif" font-size="10.00">roblab_ros_lib/include</text>
<text text-anchor="middle" x="95.5" y="-73" font-family="Helvetica,sans-Serif" font-size="10.00">/serial/mbed_single_connection.hpp</text>
</a>
</g>
</g>
<!-- Node1&#45;&gt;Node2 -->
<g id="edge1" class="edge">
<title>Node1&#45;&gt;Node2</title>
<path fill="none" stroke="#63b8ff" d="M95.5,-121.54C95.5,-112.96 95.5,-103.61 95.5,-96.16"/>
<polygon fill="#63b8ff" stroke="#63b8ff" points="92,-121.8 95.5,-131.8 99,-121.8 92,-121.8"/>
</g>
<!-- Node3 -->
<g id="node3" class="node">
<title>Node3</title>
<g id="a_node3"><a xlink:href="mbed__multi__connection_8hpp.html" target="_top" xlink:title="複数のMbedとシリアル通信を行うライブラリ">
<polygon fill="white" stroke="#666666" points="189.5,-30 1.5,-30 1.5,0 189.5,0 189.5,-30"/>
<text text-anchor="start" x="9.5" y="-18" font-family="Helvetica,sans-Serif" font-size="10.00">roblab_ros_lib/include</text>
<text text-anchor="middle" x="95.5" y="-7" font-family="Helvetica,sans-Serif" font-size="10.00">/serial/mbed_multi_connection.hpp</text>
</a>
</g>
</g>
<!-- Node2&#45;&gt;Node3 -->
<g id="edge2" class="edge">
<title>Node2&#45;&gt;Node3</title>
<path fill="none" stroke="#63b8ff" d="M95.5,-55.54C95.5,-46.96 95.5,-37.61 95.5,-30.16"/>
<polygon fill="#63b8ff" stroke="#63b8ff" points="92,-55.8 95.5,-65.8 99,-55.8 92,-55.8"/>
</g>
</g>
</svg>
