<?xml version="1.0" encoding="UTF-8" standalone="no"?>
<!DOCTYPE svg PUBLIC "-//W3C//DTD SVG 1.1//EN"
 "http://www.w3.org/Graphics/SVG/1.1/DTD/svg11.dtd">
<!-- Generated by graphviz version 2.43.0 (0)
 -->
<!-- Title: roblab_ros_lib/include/serial/posix_serial_io.hpp Pages: 1 -->
<svg width="672pt" height="203pt"
 viewBox="0.00 0.00 672.00 203.00" xmlns="http://www.w3.org/2000/svg" xmlns:xlink="http://www.w3.org/1999/xlink">
<g id="graph0" class="graph" transform="scale(1 1) rotate(0) translate(4 199)">
<title>roblab_ros_lib/include/serial/posix_serial_io.hpp</title>
<!-- Node1 -->
<g id="node1" class="node">
<title>Node1</title>
<g id="a_node1"><a xlink:title="Ubuntuシリアル通信IOライブラリ">
<polygon fill="#999999" stroke="#666666" points="383,-195 240,-195 240,-165 383,-165 383,-195"/>
<text text-anchor="start" x="248" y="-183" font-family="Helvetica,sans-Serif" font-size="10.00">roblab_ros_lib/include</text>
<text text-anchor="middle" x="311.5" y="-172" font-family="Helvetica,sans-Serif" font-size="10.00">/serial/posix_serial_io.hpp</text>
</a>
</g>
</g>
<!-- Node2 -->
<g id="node2" class="node">
<title>Node2</title>
<g id="a_node2"><a xlink:title=" ">
<polygon fill="#e0e0e0" stroke="#999999" points="47,-129 0,-129 0,-110 47,-110 47,-129"/>
<text text-anchor="middle" x="23.5" y="-117" font-family="Helvetica,sans-Serif" font-size="10.00">fcntl.h</text>
</a>
</g>
</g>
<!-- Node1&#45;&gt;Node2 -->
<g id="edge1" class="edge">
<title>Node1&#45;&gt;Node2</title>
<path fill="none" stroke="#63b8ff" d="M239.82,-166.1C190.99,-157.05 124.66,-144.23 57.21,-129.05"/>
<polygon fill="#63b8ff" stroke="#63b8ff" points="57.78,-125.59 47.25,-126.8 56.23,-132.42 57.78,-125.59"/>
</g>
<!-- Node3 -->
<g id="node3" class="node">
<title>Node3</title>
<g id="a_node3"><a xlink:title=" ">
<polygon fill="#e0e0e0" stroke="#999999" points="116,-129 65,-129 65,-110 116,-110 116,-129"/>
<text text-anchor="middle" x="90.5" y="-117" font-family="Helvetica,sans-Serif" font-size="10.00">errno.h</text>
</a>
</g>
</g>
<!-- Node1&#45;&gt;Node3 -->
<g id="edge2" class="edge">
<title>Node1&#45;&gt;Node3</title>
<path fill="none" stroke="#63b8ff" d="M258.56,-164.99C217.54,-154.13 161.82,-139.38 126.01,-129.9"/>
<polygon fill="#63b8ff" stroke="#63b8ff" points="126.58,-126.43 116.02,-127.25 124.79,-133.2 126.58,-126.43"/>
</g>
<!-- Node4 -->
<g id="node4" class="node">
<title>Node4</title>
<g id="a_node4"><a xlink:title=" ">
<polygon fill="#e0e0e0" stroke="#999999" points="197,-129 134,-129 134,-110 197,-110 197,-129"/>
<text text-anchor="middle" x="165.5" y="-117" font-family="Helvetica,sans-Serif" font-size="10.00">termios.h</text>
</a>
</g>
</g>
<!-- Node1&#45;&gt;Node4 -->
<g id="edge3" class="edge">
<title>Node1&#45;&gt;Node4</title>
<path fill="none" stroke="#63b8ff" d="M276.53,-164.99C252.17,-155.23 219.97,-142.33 196.53,-132.93"/>
<polygon fill="#63b8ff" stroke="#63b8ff" points="197.65,-129.61 187.06,-129.14 195.04,-136.11 197.65,-129.61"/>
</g>
<!-- Node5 -->
<g id="node5" class="node">
<title>Node5</title>
<g id="a_node5"><a xlink:title=" ">
<polygon fill="#e0e0e0" stroke="#999999" points="271.5,-129 215.5,-129 215.5,-110 271.5,-110 271.5,-129"/>
<text text-anchor="middle" x="243.5" y="-117" font-family="Helvetica,sans-Serif" font-size="10.00">unistd.h</text>
</a>
</g>
</g>
<!-- Node1&#45;&gt;Node5 -->
<g id="edge4" class="edge">
<title>Node1&#45;&gt;Node5</title>
<path fill="none" stroke="#63b8ff" d="M295.04,-164.84C284.87,-156.09 271.81,-144.85 261.38,-135.88"/>
<polygon fill="#63b8ff" stroke="#63b8ff" points="263.55,-133.13 253.69,-129.27 258.99,-138.44 263.55,-133.13"/>
</g>
<!-- Node6 -->
<g id="node6" class="node">
<title>Node6</title>
<g id="a_node6"><a xlink:title=" ">
<polygon fill="#e0e0e0" stroke="#999999" points="333.5,-129 289.5,-129 289.5,-110 333.5,-110 333.5,-129"/>
<text text-anchor="middle" x="311.5" y="-117" font-family="Helvetica,sans-Serif" font-size="10.00">string</text>
</a>
</g>
</g>
<!-- Node1&#45;&gt;Node6 -->
<g id="edge5" class="edge">
<title>Node1&#45;&gt;Node6</title>
<path fill="none" stroke="#63b8ff" d="M311.5,-164.84C311.5,-157.21 311.5,-147.7 311.5,-139.45"/>
<polygon fill="#63b8ff" stroke="#63b8ff" points="315,-139.27 311.5,-129.27 308,-139.27 315,-139.27"/>
</g>
<!-- Node7 -->
<g id="node7" class="node">
<title>Node7</title>
<g id="a_node7"><a xlink:title=" ">
<polygon fill="#e0e0e0" stroke="#999999" points="401.5,-129 351.5,-129 351.5,-110 401.5,-110 401.5,-129"/>
<text text-anchor="middle" x="376.5" y="-117" font-family="Helvetica,sans-Serif" font-size="10.00">chrono</text>
</a>
</g>
</g>
<!-- Node1&#45;&gt;Node7 -->
<g id="edge6" class="edge">
<title>Node1&#45;&gt;Node7</title>
<path fill="none" stroke="#63b8ff" d="M327.23,-164.84C336.86,-156.17 349.19,-145.08 359.11,-136.15"/>
<polygon fill="#63b8ff" stroke="#63b8ff" points="361.67,-138.56 366.76,-129.27 356.99,-133.35 361.67,-138.56"/>
</g>
<!-- Node8 -->
<g id="node8" class="node">
<title>Node8</title>
<g id="a_node8"><a xlink:title=" ">
<polygon fill="#e0e0e0" stroke="#999999" points="469.5,-129 419.5,-129 419.5,-110 469.5,-110 469.5,-129"/>
<text text-anchor="middle" x="444.5" y="-117" font-family="Helvetica,sans-Serif" font-size="10.00">stdio.h</text>
</a>
</g>
</g>
<!-- Node1&#45;&gt;Node8 -->
<g id="edge7" class="edge">
<title>Node1&#45;&gt;Node8</title>
<path fill="none" stroke="#63b8ff" d="M343.36,-164.99C365.35,-155.31 394.35,-142.56 415.66,-133.18"/>
<polygon fill="#63b8ff" stroke="#63b8ff" points="417.11,-136.37 424.86,-129.14 414.3,-129.96 417.11,-136.37"/>
</g>
<!-- Node9 -->
<g id="node9" class="node">
<title>Node9</title>
<g id="a_node9"><a xlink:href="byte__ring__buffer_8hpp.html" target="_top" xlink:title="シリアル通信用リングバッファー">
<polygon fill="white" stroke="#666666" points="614.5,-74 466.5,-74 466.5,-55 614.5,-55 614.5,-74"/>
<text text-anchor="middle" x="540.5" y="-62" font-family="Helvetica,sans-Serif" font-size="10.00">serial/byte_ring_buffer.hpp</text>
</a>
</g>
</g>
<!-- Node1&#45;&gt;Node9 -->
<g id="edge8" class="edge">
<title>Node1&#45;&gt;Node9</title>
<path fill="none" stroke="#63b8ff" d="M383.05,-165.99C413.91,-158.31 449.5,-146.55 478.5,-129 498.59,-116.85 516.73,-96.66 528.12,-82.32"/>
<polygon fill="#63b8ff" stroke="#63b8ff" points="530.99,-84.33 534.3,-74.26 525.44,-80.06 530.99,-84.33"/>
</g>
<!-- Node14 -->
<g id="node14" class="node">
<title>Node14</title>
<g id="a_node14"><a xlink:href="i__serial__io_8hpp.html" target="_top" xlink:title="シリアル通信IO抽象クラス">
<polygon fill="white" stroke="#666666" points="643,-129 526,-129 526,-110 643,-110 643,-129"/>
<text text-anchor="middle" x="584.5" y="-117" font-family="Helvetica,sans-Serif" font-size="10.00">serial/i_serial_io.hpp</text>
</a>
</g>
</g>
<!-- Node1&#45;&gt;Node14 -->
<g id="edge13" class="edge">
<title>Node1&#45;&gt;Node14</title>
<path fill="none" stroke="#63b8ff" d="M376.89,-164.99C425.33,-154.61 490.35,-140.68 534.63,-131.19"/>
<polygon fill="#63b8ff" stroke="#63b8ff" points="535.54,-134.57 544.58,-129.05 534.07,-127.73 535.54,-134.57"/>
</g>
<!-- Node10 -->
<g id="node10" class="node">
<title>Node10</title>
<g id="a_node10"><a xlink:title=" ">
<polygon fill="#e0e0e0" stroke="#999999" points="466.5,-19 416.5,-19 416.5,0 466.5,0 466.5,-19"/>
<text text-anchor="middle" x="441.5" y="-7" font-family="Helvetica,sans-Serif" font-size="10.00">cstdint</text>
</a>
</g>
</g>
<!-- Node9&#45;&gt;Node10 -->
<g id="edge9" class="edge">
<title>Node9&#45;&gt;Node10</title>
<path fill="none" stroke="#63b8ff" d="M524.59,-54.98C508.95,-46.61 484.84,-33.7 466.62,-23.95"/>
<polygon fill="#63b8ff" stroke="#63b8ff" points="468.16,-20.8 457.7,-19.17 464.86,-26.98 468.16,-20.8"/>
</g>
<!-- Node11 -->
<g id="node11" class="node">
<title>Node11</title>
<g id="a_node11"><a xlink:title=" ">
<polygon fill="#e0e0e0" stroke="#999999" points="532,-19 485,-19 485,0 532,0 532,-19"/>
<text text-anchor="middle" x="508.5" y="-7" font-family="Helvetica,sans-Serif" font-size="10.00">vector</text>
</a>
</g>
</g>
<!-- Node9&#45;&gt;Node11 -->
<g id="edge10" class="edge">
<title>Node9&#45;&gt;Node11</title>
<path fill="none" stroke="#63b8ff" d="M535.22,-54.75C530.79,-47.42 524.34,-36.73 518.88,-27.7"/>
<polygon fill="#63b8ff" stroke="#63b8ff" points="521.85,-25.84 513.69,-19.09 515.86,-29.46 521.85,-25.84"/>
</g>
<!-- Node12 -->
<g id="node12" class="node">
<title>Node12</title>
<g id="a_node12"><a xlink:title=" ">
<polygon fill="#e0e0e0" stroke="#999999" points="596.5,-19 550.5,-19 550.5,0 596.5,0 596.5,-19"/>
<text text-anchor="middle" x="573.5" y="-7" font-family="Helvetica,sans-Serif" font-size="10.00">cstdio</text>
</a>
</g>
</g>
<!-- Node9&#45;&gt;Node12 -->
<g id="edge11" class="edge">
<title>Node9&#45;&gt;Node12</title>
<path fill="none" stroke="#63b8ff" d="M545.95,-54.75C550.51,-47.42 557.17,-36.73 562.79,-27.7"/>
<polygon fill="#63b8ff" stroke="#63b8ff" points="565.84,-29.43 568.15,-19.09 559.9,-25.73 565.84,-29.43"/>
</g>
<!-- Node13 -->
<g id="node13" class="node">
<title>Node13</title>
<g id="a_node13"><a xlink:title=" ">
<polygon fill="#e0e0e0" stroke="#999999" points="664,-19 615,-19 615,0 664,0 664,-19"/>
<text text-anchor="middle" x="639.5" y="-7" font-family="Helvetica,sans-Serif" font-size="10.00">cstdlib</text>
</a>
</g>
</g>
<!-- Node9&#45;&gt;Node13 -->
<g id="edge12" class="edge">
<title>Node9&#45;&gt;Node13</title>
<path fill="none" stroke="#63b8ff" d="M556.41,-54.98C572.05,-46.61 596.16,-33.7 614.38,-23.95"/>
<polygon fill="#63b8ff" stroke="#63b8ff" points="616.14,-26.98 623.3,-19.17 612.84,-20.8 616.14,-26.98"/>
</g>
<!-- Node14&#45;&gt;Node9 -->
<g id="edge14" class="edge">
<title>Node14&#45;&gt;Node9</title>
<path fill="none" stroke="#63b8ff" d="M577.23,-109.75C570.96,-102.18 561.71,-91.05 554.07,-81.84"/>
<polygon fill="#63b8ff" stroke="#63b8ff" points="556.71,-79.55 547.63,-74.09 551.33,-84.02 556.71,-79.55"/>
</g>
</g>
</svg>
