<?xml version="1.0" encoding="UTF-8" standalone="no"?>
<!DOCTYPE svg PUBLIC "-//W3C//DTD SVG 1.1//EN"
 "http://www.w3.org/Graphics/SVG/1.1/DTD/svg11.dtd">
<!-- Generated by graphviz version 2.43.0 (0)
 -->
<!-- Title: roblab_ros_lib/include/posix_serial_io.hpp Pages: 1 -->
<svg width="202pt" height="170pt"
 viewBox="0.00 0.00 202.00 170.00" xmlns="http://www.w3.org/2000/svg" xmlns:xlink="http://www.w3.org/1999/xlink">
<g id="graph0" class="graph" transform="scale(1 1) rotate(0) translate(4 166)">
<title>roblab_ros_lib/include/posix_serial_io.hpp</title>
<!-- Node1 -->
<g id="node1" class="node">
<title>Node1</title>
<g id="a_node1"><a xlink:title="Ubuntuシリアル通信IOライブラリ">
<polygon fill="#999999" stroke="#666666" points="158.5,-162 35.5,-162 35.5,-132 158.5,-132 158.5,-162"/>
<text text-anchor="start" x="43.5" y="-150" font-family="Helvetica,sans-Serif" font-size="10.00">roblab_ros_lib/include</text>
<text text-anchor="middle" x="97" y="-139" font-family="Helvetica,sans-Serif" font-size="10.00">/posix_serial_io.hpp</text>
</a>
</g>
</g>
<!-- Node2 -->
<g id="node2" class="node">
<title>Node2</title>
<g id="a_node2"><a xlink:href="mbed__single__serial__connection_8hpp.html" target="_top" xlink:title="1個のmbedとシリアル通信">
<polygon fill="white" stroke="#666666" points="194,-96 0,-96 0,-66 194,-66 194,-96"/>
<text text-anchor="start" x="8" y="-84" font-family="Helvetica,sans-Serif" font-size="10.00">roblab_ros_lib/include</text>
<text text-anchor="middle" x="97" y="-73" font-family="Helvetica,sans-Serif" font-size="10.00">/mbed_single_serial_connection.hpp</text>
</a>
</g>
</g>
<!-- Node1&#45;&gt;Node2 -->
<g id="edge1" class="edge">
<title>Node1&#45;&gt;Node2</title>
<path fill="none" stroke="#63b8ff" d="M97,-121.54C97,-112.96 97,-103.61 97,-96.16"/>
<polygon fill="#63b8ff" stroke="#63b8ff" points="93.5,-121.8 97,-131.8 100.5,-121.8 93.5,-121.8"/>
</g>
<!-- Node3 -->
<g id="node3" class="node">
<title>Node3</title>
<g id="a_node3"><a xlink:href="mbed__multi__serial__connection_8hpp.html" target="_top" xlink:title="複数のMbedとシリアル通信を行うライブラリ">
<polygon fill="white" stroke="#666666" points="192,-30 2,-30 2,0 192,0 192,-30"/>
<text text-anchor="start" x="10" y="-18" font-family="Helvetica,sans-Serif" font-size="10.00">roblab_ros_lib/include</text>
<text text-anchor="middle" x="97" y="-7" font-family="Helvetica,sans-Serif" font-size="10.00">/mbed_multi_serial_connection.hpp</text>
</a>
</g>
</g>
<!-- Node2&#45;&gt;Node3 -->
<g id="edge2" class="edge">
<title>Node2&#45;&gt;Node3</title>
<path fill="none" stroke="#63b8ff" d="M97,-55.54C97,-46.96 97,-37.61 97,-30.16"/>
<polygon fill="#63b8ff" stroke="#63b8ff" points="93.5,-55.8 97,-65.8 100.5,-55.8 93.5,-55.8"/>
</g>
</g>
</svg>
