<?xml version="1.0" encoding="UTF-8" standalone="no"?>
<!DOCTYPE svg PUBLIC "-//W3C//DTD SVG 1.1//EN"
 "http://www.w3.org/Graphics/SVG/1.1/DTD/svg11.dtd">
<!-- Generated by graphviz version 2.43.0 (0)
 -->
<!-- Title: alps_core/lib_internal/alps_common_lib/include/alps_cmn/sensor/potentiometer.hpp Pages: 1 -->
<svg width="612pt" height="229pt"
 viewBox="0.00 0.00 612.15 229.00" xmlns="http://www.w3.org/2000/svg" xmlns:xlink="http://www.w3.org/1999/xlink">
<g id="graph0" class="graph" transform="scale(1 1) rotate(0) translate(4 225)">
<title>alps_core/lib_internal/alps_common_lib/include/alps_cmn/sensor/potentiometer.hpp</title>
<polygon fill="white" stroke="transparent" points="-4,4 -4,-225 608.15,-225 608.15,4 -4,4"/>
<!-- Node1 -->
<g id="node1" class="node">
<title>Node1</title>
<g id="a_node1"><a xlink:title="ポテンショメータのクラス">
<polygon fill="#bfbfbf" stroke="black" points="165.15,-179.5 165.15,-220.5 359.15,-220.5 359.15,-179.5 165.15,-179.5"/>
<text text-anchor="start" x="173.15" y="-208.5" font-family="Helvetica,sans-Serif" font-size="10.00">alps_core/lib_internal</text>
<text text-anchor="start" x="173.15" y="-197.5" font-family="Helvetica,sans-Serif" font-size="10.00">/alps_common_lib/include</text>
<text text-anchor="middle" x="262.15" y="-186.5" font-family="Helvetica,sans-Serif" font-size="10.00">/alps_cmn/sensor/potentiometer.hpp</text>
</a>
</g>
</g>
<!-- Node2 -->
<g id="node2" class="node">
<title>Node2</title>
<g id="a_node2"><a xlink:title=" ">
<polygon fill="white" stroke="#bfbfbf" points="21.15,-0.5 21.15,-19.5 71.15,-19.5 71.15,-0.5 21.15,-0.5"/>
<text text-anchor="middle" x="46.15" y="-7.5" font-family="Helvetica,sans-Serif" font-size="10.00">chrono</text>
</a>
</g>
</g>
<!-- Node1&#45;&gt;Node2 -->
<g id="edge1" class="edge">
<title>Node1&#45;&gt;Node2</title>
<path fill="none" stroke="midnightblue" d="M164.95,-189.77C102.88,-181.64 30.55,-167.21 11.15,-143 -16.29,-108.76 14.24,-55.04 33.26,-27.9"/>
<polygon fill="midnightblue" stroke="midnightblue" points="36.11,-29.92 39.17,-19.78 30.45,-25.8 36.11,-29.92"/>
</g>
<!-- Node3 -->
<g id="node3" class="node">
<title>Node3</title>
<g id="a_node3"><a xlink:href="low__pass__filter_8hpp.html" target="_top" xlink:title="ローパスフィルタのクラス">
<polygon fill="white" stroke="black" points="20.15,-112.5 20.15,-142.5 140.15,-142.5 140.15,-112.5 20.15,-112.5"/>
<text text-anchor="start" x="28.15" y="-130.5" font-family="Helvetica,sans-Serif" font-size="10.00">alps_cmn/control/low</text>
<text text-anchor="middle" x="80.15" y="-119.5" font-family="Helvetica,sans-Serif" font-size="10.00">_pass_filter.hpp</text>
</a>
</g>
</g>
<!-- Node1&#45;&gt;Node3 -->
<g id="edge2" class="edge">
<title>Node1&#45;&gt;Node3</title>
<path fill="none" stroke="midnightblue" d="M211.45,-179.36C184.68,-168.99 152.09,-156.37 126.07,-146.29"/>
<polygon fill="midnightblue" stroke="midnightblue" points="127.03,-142.91 116.44,-142.56 124.5,-149.44 127.03,-142.91"/>
</g>
<!-- Node4 -->
<g id="node4" class="node">
<title>Node4</title>
<g id="a_node4"><a xlink:href="duration_8hpp.html" target="_top" xlink:title="時間間隔の型エイリアス">
<polygon fill="white" stroke="black" points="74.65,-56.5 74.65,-75.5 227.65,-75.5 227.65,-56.5 74.65,-56.5"/>
<text text-anchor="middle" x="151.15" y="-63.5" font-family="Helvetica,sans-Serif" font-size="10.00">alps_cmn/time/duration.hpp</text>
</a>
</g>
</g>
<!-- Node1&#45;&gt;Node4 -->
<g id="edge8" class="edge">
<title>Node1&#45;&gt;Node4</title>
<path fill="none" stroke="midnightblue" d="M229.49,-179.27C215.48,-169.62 199.71,-157.06 188.15,-143 173.78,-125.52 163.29,-101.52 157.23,-85.2"/>
<polygon fill="midnightblue" stroke="midnightblue" points="160.51,-83.99 153.88,-75.73 153.91,-86.32 160.51,-83.99"/>
</g>
<!-- Node5 -->
<g id="node5" class="node">
<title>Node5</title>
<g id="a_node5"><a xlink:href="i__analog__in_8hpp.html" target="_top" xlink:title="アナログ入力インタフェース">
<polygon fill="white" stroke="black" points="196.65,-112.5 196.65,-142.5 327.65,-142.5 327.65,-112.5 196.65,-112.5"/>
<text text-anchor="start" x="204.65" y="-130.5" font-family="Helvetica,sans-Serif" font-size="10.00">alps_cmn/gpio/i_analog</text>
<text text-anchor="middle" x="262.15" y="-119.5" font-family="Helvetica,sans-Serif" font-size="10.00">_in.hpp</text>
</a>
</g>
</g>
<!-- Node1&#45;&gt;Node5 -->
<g id="edge6" class="edge">
<title>Node1&#45;&gt;Node5</title>
<path fill="none" stroke="midnightblue" d="M262.15,-179.36C262.15,-171.23 262.15,-161.7 262.15,-153.11"/>
<polygon fill="midnightblue" stroke="midnightblue" points="265.65,-152.89 262.15,-142.89 258.65,-152.89 265.65,-152.89"/>
</g>
<!-- Node6 -->
<g id="node6" class="node">
<title>Node6</title>
<g id="a_node6"><a xlink:href="i__rotary__sensor_8hpp.html" target="_top" xlink:title=" ">
<polygon fill="white" stroke="black" points="345.65,-112.5 345.65,-142.5 484.65,-142.5 484.65,-112.5 345.65,-112.5"/>
<text text-anchor="start" x="353.65" y="-130.5" font-family="Helvetica,sans-Serif" font-size="10.00">alps_cmn/sensor/i_rotary</text>
<text text-anchor="middle" x="415.15" y="-119.5" font-family="Helvetica,sans-Serif" font-size="10.00">_sensor.hpp</text>
</a>
</g>
</g>
<!-- Node1&#45;&gt;Node6 -->
<g id="edge7" class="edge">
<title>Node1&#45;&gt;Node6</title>
<path fill="none" stroke="midnightblue" d="M304.77,-179.36C326.79,-169.21 353.52,-156.9 375.16,-146.93"/>
<polygon fill="midnightblue" stroke="midnightblue" points="376.78,-150.03 384.4,-142.67 373.85,-143.68 376.78,-150.03"/>
</g>
<!-- Node7 -->
<g id="node7" class="node">
<title>Node7</title>
<g id="a_node7"><a xlink:title=" ">
<polygon fill="white" stroke="#bfbfbf" points="502.65,-118 502.65,-137 543.65,-137 543.65,-118 502.65,-118"/>
<text text-anchor="middle" x="523.15" y="-125" font-family="Helvetica,sans-Serif" font-size="10.00">tuple</text>
</a>
</g>
</g>
<!-- Node1&#45;&gt;Node7 -->
<g id="edge9" class="edge">
<title>Node1&#45;&gt;Node7</title>
<path fill="none" stroke="midnightblue" d="M359.26,-180.71C401.37,-171.46 450.85,-158.82 494.15,-143 495.54,-142.49 496.94,-141.94 498.35,-141.35"/>
<polygon fill="midnightblue" stroke="midnightblue" points="499.86,-144.51 507.48,-137.14 496.93,-138.15 499.86,-144.51"/>
</g>
<!-- Node8 -->
<g id="node8" class="node">
<title>Node8</title>
<g id="a_node8"><a xlink:title=" ">
<polygon fill="white" stroke="#bfbfbf" points="562.15,-118 562.15,-137 604.15,-137 604.15,-118 562.15,-118"/>
<text text-anchor="middle" x="583.15" y="-125" font-family="Helvetica,sans-Serif" font-size="10.00">array</text>
</a>
</g>
</g>
<!-- Node1&#45;&gt;Node8 -->
<g id="edge10" class="edge">
<title>Node1&#45;&gt;Node8</title>
<path fill="none" stroke="midnightblue" d="M359.43,-186.75C416.75,-177.94 490.15,-163.89 553.15,-143 554.77,-142.46 556.42,-141.85 558.06,-141.2"/>
<polygon fill="midnightblue" stroke="midnightblue" points="559.55,-144.37 567.28,-137.12 556.72,-137.97 559.55,-144.37"/>
</g>
<!-- Node3&#45;&gt;Node2 -->
<g id="edge3" class="edge">
<title>Node3&#45;&gt;Node2</title>
<path fill="none" stroke="midnightblue" d="M75.98,-112.34C69.82,-91.43 58.31,-52.31 51.53,-29.27"/>
<polygon fill="midnightblue" stroke="midnightblue" points="54.88,-28.27 48.7,-19.67 48.17,-30.25 54.88,-28.27"/>
</g>
<!-- Node3&#45;&gt;Node4 -->
<g id="edge4" class="edge">
<title>Node3&#45;&gt;Node4</title>
<path fill="none" stroke="midnightblue" d="M96.97,-112.4C107.82,-103.31 121.92,-91.49 133.02,-82.19"/>
<polygon fill="midnightblue" stroke="midnightblue" points="135.4,-84.76 140.82,-75.66 130.9,-79.4 135.4,-84.76"/>
</g>
<!-- Node4&#45;&gt;Node2 -->
<g id="edge5" class="edge">
<title>Node4&#45;&gt;Node2</title>
<path fill="none" stroke="midnightblue" d="M134.28,-56.32C117.44,-47.66 91.34,-34.24 71.91,-24.25"/>
<polygon fill="midnightblue" stroke="midnightblue" points="73.47,-21.12 62.98,-19.65 70.27,-27.34 73.47,-21.12"/>
</g>
</g>
</svg>
