<?xml version="1.0" encoding="UTF-8" standalone="no"?>
<!DOCTYPE svg PUBLIC "-//W3C//DTD SVG 1.1//EN"
 "http://www.w3.org/Graphics/SVG/1.1/DTD/svg11.dtd">
<!-- Generated by graphviz version 2.43.0 (0)
 -->
<!-- Title: alps_core/lib_internal/alps_common_lib/include/alps_cmn/sensor/potentiometer.hpp Pages: 1 -->
<svg width="612pt" height="225pt"
 viewBox="0.00 0.00 611.90 225.00" xmlns="http://www.w3.org/2000/svg" xmlns:xlink="http://www.w3.org/1999/xlink">
<g id="graph0" class="graph" transform="scale(1 1) rotate(0) translate(4 221)">
<title>alps_core/lib_internal/alps_common_lib/include/alps_cmn/sensor/potentiometer.hpp</title>
<!-- Node1 -->
<g id="Node000001" class="node">
<title>Node1</title>
<g id="a_Node000001"><a xlink:title="ポテンショメータのクラス">
<polygon fill="#999999" stroke="#666666" points="358.9,-217 164.9,-217 164.9,-176 358.9,-176 358.9,-217"/>
<text text-anchor="start" x="172.9" y="-205" font-family="Helvetica,sans-Serif" font-size="10.00">alps_core/lib_internal</text>
<text text-anchor="start" x="172.9" y="-194" font-family="Helvetica,sans-Serif" font-size="10.00">/alps_common_lib/include</text>
<text text-anchor="middle" x="261.9" y="-183" font-family="Helvetica,sans-Serif" font-size="10.00">/alps_cmn/sensor/potentiometer.hpp</text>
</a>
</g>
</g>
<!-- Node2 -->
<g id="Node000002" class="node">
<title>Node2</title>
<g id="a_Node000002"><a xlink:title=" ">
<polygon fill="#e0e0e0" stroke="#999999" points="70.9,-19 20.9,-19 20.9,0 70.9,0 70.9,-19"/>
<text text-anchor="middle" x="45.9" y="-7" font-family="Helvetica,sans-Serif" font-size="10.00">chrono</text>
</a>
</g>
</g>
<!-- Node1&#45;&gt;Node2 -->
<g id="edge1_Node000001_Node000002" class="edge">
<title>Node1&#45;&gt;Node2</title>
<g id="a_edge1_Node000001_Node000002"><a xlink:title=" ">
<path fill="none" stroke="#63b8ff" d="M164.71,-186.47C102.65,-178.47 30.32,-164.18 10.9,-140 -15.97,-106.54 13.98,-54.15 32.87,-27.42"/>
<polygon fill="#63b8ff" stroke="#63b8ff" points="35.87,-29.24 38.98,-19.11 30.23,-25.09 35.87,-29.24"/>
</a>
</g>
</g>
<!-- Node3 -->
<g id="Node000003" class="node">
<title>Node3</title>
<g id="a_Node000003"><a xlink:href="low__pass__filter_8hpp.html" target="_top" xlink:title="ローパスフィルタのクラス">
<polygon fill="white" stroke="#666666" points="139.9,-140 19.9,-140 19.9,-110 139.9,-110 139.9,-140"/>
<text text-anchor="start" x="27.9" y="-128" font-family="Helvetica,sans-Serif" font-size="10.00">alps_cmn/control/low</text>
<text text-anchor="middle" x="79.9" y="-117" font-family="Helvetica,sans-Serif" font-size="10.00">_pass_filter.hpp</text>
</a>
</g>
</g>
<!-- Node1&#45;&gt;Node3 -->
<g id="edge2_Node000001_Node000003" class="edge">
<title>Node1&#45;&gt;Node3</title>
<g id="a_edge2_Node000001_Node000003"><a xlink:title=" ">
<path fill="none" stroke="#63b8ff" d="M210.72,-175.96C184.15,-165.81 151.94,-153.51 126.12,-143.65"/>
<polygon fill="#63b8ff" stroke="#63b8ff" points="127.16,-140.3 116.57,-140 124.66,-146.84 127.16,-140.3"/>
</a>
</g>
</g>
<!-- Node4 -->
<g id="Node000004" class="node">
<title>Node4</title>
<g id="a_Node000004"><a xlink:href="duration_8hpp.html" target="_top" xlink:title="時間間隔の型エイリアス">
<polygon fill="white" stroke="#666666" points="227.4,-74 74.4,-74 74.4,-55 227.4,-55 227.4,-74"/>
<text text-anchor="middle" x="150.9" y="-62" font-family="Helvetica,sans-Serif" font-size="10.00">alps_cmn/time/duration.hpp</text>
</a>
</g>
</g>
<!-- Node1&#45;&gt;Node4 -->
<g id="edge8_Node000001_Node000004" class="edge">
<title>Node1&#45;&gt;Node4</title>
<g id="a_edge8_Node000001_Node000004"><a xlink:title=" ">
<path fill="none" stroke="#63b8ff" d="M229.29,-175.95C215.29,-166.4 199.51,-153.95 187.9,-140 173.79,-123.05 163.34,-99.8 157.21,-83.81"/>
<polygon fill="#63b8ff" stroke="#63b8ff" points="160.38,-82.26 153.67,-74.06 153.8,-84.65 160.38,-82.26"/>
</a>
</g>
</g>
<!-- Node5 -->
<g id="Node000005" class="node">
<title>Node5</title>
<g id="a_Node000005"><a xlink:href="i__analog__in_8hpp.html" target="_top" xlink:title="アナログ入力インタフェース">
<polygon fill="white" stroke="#666666" points="327.4,-140 196.4,-140 196.4,-110 327.4,-110 327.4,-140"/>
<text text-anchor="start" x="204.4" y="-128" font-family="Helvetica,sans-Serif" font-size="10.00">alps_cmn/gpio/i_analog</text>
<text text-anchor="middle" x="261.9" y="-117" font-family="Helvetica,sans-Serif" font-size="10.00">_in.hpp</text>
</a>
</g>
</g>
<!-- Node1&#45;&gt;Node5 -->
<g id="edge6_Node000001_Node000005" class="edge">
<title>Node1&#45;&gt;Node5</title>
<g id="a_edge6_Node000001_Node000005"><a xlink:title=" ">
<path fill="none" stroke="#63b8ff" d="M261.9,-175.77C261.9,-167.85 261.9,-158.63 261.9,-150.3"/>
<polygon fill="#63b8ff" stroke="#63b8ff" points="265.4,-150.04 261.9,-140.04 258.4,-150.04 265.4,-150.04"/>
</a>
</g>
</g>
<!-- Node6 -->
<g id="Node000006" class="node">
<title>Node6</title>
<g id="a_Node000006"><a xlink:href="i__rotary__sensor_8hpp.html" target="_top" xlink:title=" ">
<polygon fill="white" stroke="#666666" points="484.4,-140 345.4,-140 345.4,-110 484.4,-110 484.4,-140"/>
<text text-anchor="start" x="353.4" y="-128" font-family="Helvetica,sans-Serif" font-size="10.00">alps_cmn/sensor/i_rotary</text>
<text text-anchor="middle" x="414.9" y="-117" font-family="Helvetica,sans-Serif" font-size="10.00">_sensor.hpp</text>
</a>
</g>
</g>
<!-- Node1&#45;&gt;Node6 -->
<g id="edge7_Node000001_Node000006" class="edge">
<title>Node1&#45;&gt;Node6</title>
<g id="a_edge7_Node000001_Node000006"><a xlink:title=" ">
<path fill="none" stroke="#63b8ff" d="M304.92,-175.96C326.79,-166.02 353.2,-154.03 374.66,-144.28"/>
<polygon fill="#63b8ff" stroke="#63b8ff" points="376.17,-147.44 383.83,-140.11 373.28,-141.06 376.17,-147.44"/>
</a>
</g>
</g>
<!-- Node7 -->
<g id="Node000007" class="node">
<title>Node7</title>
<g id="a_Node000007"><a xlink:title=" ">
<polygon fill="#e0e0e0" stroke="#999999" points="543.4,-134.5 502.4,-134.5 502.4,-115.5 543.4,-115.5 543.4,-134.5"/>
<text text-anchor="middle" x="522.9" y="-122.5" font-family="Helvetica,sans-Serif" font-size="10.00">tuple</text>
</a>
</g>
</g>
<!-- Node1&#45;&gt;Node7 -->
<g id="edge9_Node000001_Node000007" class="edge">
<title>Node1&#45;&gt;Node7</title>
<g id="a_edge9_Node000001_Node000007"><a xlink:title=" ">
<path fill="none" stroke="#63b8ff" d="M358.91,-177.17C401,-167.97 450.5,-155.46 493.9,-140 494.95,-139.62 496.02,-139.22 497.09,-138.8"/>
<polygon fill="#63b8ff" stroke="#63b8ff" points="498.85,-141.85 506.6,-134.62 496.04,-135.44 498.85,-141.85"/>
</a>
</g>
</g>
<!-- Node8 -->
<g id="Node000008" class="node">
<title>Node8</title>
<g id="a_Node000008"><a xlink:title=" ">
<polygon fill="#e0e0e0" stroke="#999999" points="603.9,-134.5 561.9,-134.5 561.9,-115.5 603.9,-115.5 603.9,-134.5"/>
<text text-anchor="middle" x="582.9" y="-122.5" font-family="Helvetica,sans-Serif" font-size="10.00">array</text>
</a>
</g>
</g>
<!-- Node1&#45;&gt;Node8 -->
<g id="edge10_Node000001_Node000008" class="edge">
<title>Node1&#45;&gt;Node8</title>
<g id="a_edge10_Node000001_Node000008"><a xlink:title=" ">
<path fill="none" stroke="#63b8ff" d="M359.08,-183.14C416.37,-174.33 489.77,-160.4 552.9,-140 554.3,-139.55 555.72,-139.04 557.14,-138.51"/>
<polygon fill="#63b8ff" stroke="#63b8ff" points="558.53,-141.72 566.38,-134.6 555.8,-135.27 558.53,-141.72"/>
</a>
</g>
</g>
<!-- Node3&#45;&gt;Node2 -->
<g id="edge3_Node000003_Node000002" class="edge">
<title>Node3&#45;&gt;Node2</title>
<g id="a_edge3_Node000003_Node000002"><a xlink:title=" ">
<path fill="none" stroke="#63b8ff" d="M75.59,-109.63C69.45,-89.12 58.17,-51.47 51.42,-28.93"/>
<polygon fill="#63b8ff" stroke="#63b8ff" points="54.74,-27.8 48.51,-19.23 48.03,-29.81 54.74,-27.8"/>
</a>
</g>
</g>
<!-- Node3&#45;&gt;Node4 -->
<g id="edge4_Node000003_Node000004" class="edge">
<title>Node3&#45;&gt;Node4</title>
<g id="a_edge4_Node000003_Node000004"><a xlink:title=" ">
<path fill="none" stroke="#63b8ff" d="M97.09,-109.84C107.71,-101.09 121.34,-89.85 132.23,-80.88"/>
<polygon fill="#63b8ff" stroke="#63b8ff" points="134.77,-83.33 140.26,-74.27 130.32,-77.92 134.77,-83.33"/>
</a>
</g>
</g>
<!-- Node4&#45;&gt;Node2 -->
<g id="edge5_Node000004_Node000002" class="edge">
<title>Node4&#45;&gt;Node2</title>
<g id="a_edge5_Node000004_Node000002"><a xlink:title=" ">
<path fill="none" stroke="#63b8ff" d="M134.03,-54.98C117.29,-46.54 91.4,-33.47 72.01,-23.68"/>
<polygon fill="#63b8ff" stroke="#63b8ff" points="73.58,-20.55 63.08,-19.17 70.43,-26.8 73.58,-20.55"/>
</a>
</g>
</g>
</g>
</svg>
