<?xml version="1.0" encoding="UTF-8" standalone="no"?>
<!DOCTYPE svg PUBLIC "-//W3C//DTD SVG 1.1//EN"
 "http://www.w3.org/Graphics/SVG/1.1/DTD/svg11.dtd">
<!-- Generated by graphviz version 2.43.0 (0)
 -->
<!-- Title: alps_common_lib/include/alps_cmn/sensor/potentiometer.hpp Pages: 1 -->
<svg width="612pt" height="218pt"
 viewBox="0.00 0.00 612.34 218.00" xmlns="http://www.w3.org/2000/svg" xmlns:xlink="http://www.w3.org/1999/xlink">
<g id="graph0" class="graph" transform="scale(1 1) rotate(0) translate(4 214)">
<title>alps_common_lib/include/alps_cmn/sensor/potentiometer.hpp</title>
<polygon fill="white" stroke="transparent" points="-4,4 -4,-214 608.34,-214 608.34,4 -4,4"/>
<!-- Node1 -->
<g id="node1" class="node">
<title>Node1</title>
<g id="a_node1"><a xlink:title="ポテンショメータのクラス">
<polygon fill="#bfbfbf" stroke="black" points="165.34,-179.5 165.34,-209.5 359.34,-209.5 359.34,-179.5 165.34,-179.5"/>
<text text-anchor="start" x="173.34" y="-197.5" font-family="Helvetica,sans-Serif" font-size="10.00">alps_common_lib/include</text>
<text text-anchor="middle" x="262.34" y="-186.5" font-family="Helvetica,sans-Serif" font-size="10.00">/alps_cmn/sensor/potentiometer.hpp</text>
</a>
</g>
</g>
<!-- Node2 -->
<g id="node2" class="node">
<title>Node2</title>
<g id="a_node2"><a xlink:title=" ">
<polygon fill="white" stroke="#bfbfbf" points="21.34,-0.5 21.34,-19.5 71.34,-19.5 71.34,-0.5 21.34,-0.5"/>
<text text-anchor="middle" x="46.34" y="-7.5" font-family="Helvetica,sans-Serif" font-size="10.00">chrono</text>
</a>
</g>
</g>
<!-- Node1&#45;&gt;Node2 -->
<g id="edge1" class="edge">
<title>Node1&#45;&gt;Node2</title>
<path fill="none" stroke="midnightblue" d="M165.25,-186.47C103.23,-179.74 30.92,-166.9 11.34,-143 -16.46,-109.05 14.23,-55.2 33.37,-27.96"/>
<polygon fill="midnightblue" stroke="midnightblue" points="36.25,-29.96 39.32,-19.81 30.6,-25.83 36.25,-29.96"/>
</g>
<!-- Node3 -->
<g id="node3" class="node">
<title>Node3</title>
<g id="a_node3"><a xlink:href="low__pass__filter_8hpp.html" target="_top" xlink:title="ローパスフィルタのクラス">
<polygon fill="white" stroke="black" points="20.34,-112.5 20.34,-142.5 140.34,-142.5 140.34,-112.5 20.34,-112.5"/>
<text text-anchor="start" x="28.34" y="-130.5" font-family="Helvetica,sans-Serif" font-size="10.00">alps_cmn/control/low</text>
<text text-anchor="middle" x="80.34" y="-119.5" font-family="Helvetica,sans-Serif" font-size="10.00">_pass_filter.hpp</text>
</a>
</g>
</g>
<!-- Node1&#45;&gt;Node3 -->
<g id="edge2" class="edge">
<title>Node1&#45;&gt;Node3</title>
<path fill="none" stroke="midnightblue" d="M222.85,-179.4C195.43,-169.6 158.69,-156.48 129.39,-146.02"/>
<polygon fill="midnightblue" stroke="midnightblue" points="130.35,-142.64 119.76,-142.58 128,-149.24 130.35,-142.64"/>
</g>
<!-- Node4 -->
<g id="node4" class="node">
<title>Node4</title>
<g id="a_node4"><a xlink:href="duration_8hpp.html" target="_top" xlink:title="時間間隔の型エイリアス">
<polygon fill="white" stroke="black" points="74.84,-56.5 74.84,-75.5 227.84,-75.5 227.84,-56.5 74.84,-56.5"/>
<text text-anchor="middle" x="151.34" y="-63.5" font-family="Helvetica,sans-Serif" font-size="10.00">alps_cmn/time/duration.hpp</text>
</a>
</g>
</g>
<!-- Node1&#45;&gt;Node4 -->
<g id="edge8" class="edge">
<title>Node1&#45;&gt;Node4</title>
<path fill="none" stroke="midnightblue" d="M234.75,-179.34C219.57,-170.49 201.26,-157.95 188.34,-143 173.55,-125.87 163.15,-101.8 157.22,-85.37"/>
<polygon fill="midnightblue" stroke="midnightblue" points="160.51,-84.16 153.97,-75.82 153.88,-86.41 160.51,-84.16"/>
</g>
<!-- Node5 -->
<g id="node5" class="node">
<title>Node5</title>
<g id="a_node5"><a xlink:href="i__analog__in_8hpp.html" target="_top" xlink:title="アナログ入力インタフェース">
<polygon fill="white" stroke="black" points="196.84,-112.5 196.84,-142.5 327.84,-142.5 327.84,-112.5 196.84,-112.5"/>
<text text-anchor="start" x="204.84" y="-130.5" font-family="Helvetica,sans-Serif" font-size="10.00">alps_cmn/gpio/i_analog</text>
<text text-anchor="middle" x="262.34" y="-119.5" font-family="Helvetica,sans-Serif" font-size="10.00">_in.hpp</text>
</a>
</g>
</g>
<!-- Node1&#45;&gt;Node5 -->
<g id="edge6" class="edge">
<title>Node1&#45;&gt;Node5</title>
<path fill="none" stroke="midnightblue" d="M262.34,-179.4C262.34,-171.64 262.34,-161.81 262.34,-152.86"/>
<polygon fill="midnightblue" stroke="midnightblue" points="265.84,-152.58 262.34,-142.58 258.84,-152.58 265.84,-152.58"/>
</g>
<!-- Node6 -->
<g id="node6" class="node">
<title>Node6</title>
<g id="a_node6"><a xlink:href="i__rotary__sensor_8hpp.html" target="_top" xlink:title=" ">
<polygon fill="white" stroke="black" points="345.84,-112.5 345.84,-142.5 484.84,-142.5 484.84,-112.5 345.84,-112.5"/>
<text text-anchor="start" x="353.84" y="-130.5" font-family="Helvetica,sans-Serif" font-size="10.00">alps_cmn/sensor/i_rotary</text>
<text text-anchor="middle" x="415.34" y="-119.5" font-family="Helvetica,sans-Serif" font-size="10.00">_sensor.hpp</text>
</a>
</g>
</g>
<!-- Node1&#45;&gt;Node6 -->
<g id="edge7" class="edge">
<title>Node1&#45;&gt;Node6</title>
<path fill="none" stroke="midnightblue" d="M295.54,-179.4C318.2,-169.77 348.41,-156.94 372.82,-146.56"/>
<polygon fill="midnightblue" stroke="midnightblue" points="374.37,-149.71 382.21,-142.58 371.64,-143.27 374.37,-149.71"/>
</g>
<!-- Node7 -->
<g id="node7" class="node">
<title>Node7</title>
<g id="a_node7"><a xlink:title=" ">
<polygon fill="white" stroke="#bfbfbf" points="502.84,-118 502.84,-137 543.84,-137 543.84,-118 502.84,-118"/>
<text text-anchor="middle" x="523.34" y="-125" font-family="Helvetica,sans-Serif" font-size="10.00">tuple</text>
</a>
</g>
</g>
<!-- Node1&#45;&gt;Node7 -->
<g id="edge9" class="edge">
<title>Node1&#45;&gt;Node7</title>
<path fill="none" stroke="midnightblue" d="M351.64,-179.45C395.37,-171.22 448.37,-159.21 494.34,-143 495.77,-142.5 497.22,-141.94 498.66,-141.35"/>
<polygon fill="midnightblue" stroke="midnightblue" points="500.37,-144.41 508,-137.06 497.45,-138.05 500.37,-144.41"/>
</g>
<!-- Node8 -->
<g id="node8" class="node">
<title>Node8</title>
<g id="a_node8"><a xlink:title=" ">
<polygon fill="white" stroke="#bfbfbf" points="562.34,-118 562.34,-137 604.34,-137 604.34,-118 562.34,-118"/>
<text text-anchor="middle" x="583.34" y="-125" font-family="Helvetica,sans-Serif" font-size="10.00">array</text>
</a>
</g>
</g>
<!-- Node1&#45;&gt;Node8 -->
<g id="edge10" class="edge">
<title>Node1&#45;&gt;Node8</title>
<path fill="none" stroke="midnightblue" d="M359.64,-183.49C416.97,-175.91 490.37,-163.24 553.34,-143 555.01,-142.46 556.7,-141.85 558.39,-141.19"/>
<polygon fill="midnightblue" stroke="midnightblue" points="560.07,-144.27 567.8,-137.02 557.24,-137.87 560.07,-144.27"/>
</g>
<!-- Node3&#45;&gt;Node2 -->
<g id="edge3" class="edge">
<title>Node3&#45;&gt;Node2</title>
<path fill="none" stroke="midnightblue" d="M76.17,-112.34C70.02,-91.43 58.5,-52.31 51.72,-29.27"/>
<polygon fill="midnightblue" stroke="midnightblue" points="55.08,-28.27 48.9,-19.67 48.36,-30.25 55.08,-28.27"/>
</g>
<!-- Node3&#45;&gt;Node4 -->
<g id="edge4" class="edge">
<title>Node3&#45;&gt;Node4</title>
<path fill="none" stroke="midnightblue" d="M97.17,-112.4C108.02,-103.31 122.12,-91.49 133.22,-82.19"/>
<polygon fill="midnightblue" stroke="midnightblue" points="135.6,-84.76 141.01,-75.66 131.1,-79.4 135.6,-84.76"/>
</g>
<!-- Node4&#45;&gt;Node2 -->
<g id="edge5" class="edge">
<title>Node4&#45;&gt;Node2</title>
<path fill="none" stroke="midnightblue" d="M134.47,-56.32C117.64,-47.66 91.54,-34.24 72.11,-24.25"/>
<polygon fill="midnightblue" stroke="midnightblue" points="73.67,-21.12 63.17,-19.65 70.46,-27.34 73.67,-21.12"/>
</g>
</g>
</svg>
