<?xml version="1.0" encoding="UTF-8" standalone="no"?>
<!DOCTYPE svg PUBLIC "-//W3C//DTD SVG 1.1//EN"
 "http://www.w3.org/Graphics/SVG/1.1/DTD/svg11.dtd">
<!-- Generated by graphviz version 2.43.0 (0)
 -->
<!-- Title: alps_common_lib/include/alps_cmn/sensor/potentiometer.hpp Pages: 1 -->
<svg width="492pt" height="218pt"
 viewBox="0.00 0.00 491.77 218.00" xmlns="http://www.w3.org/2000/svg" xmlns:xlink="http://www.w3.org/1999/xlink">
<g id="graph0" class="graph" transform="scale(1 1) rotate(0) translate(4 214)">
<title>alps_common_lib/include/alps_cmn/sensor/potentiometer.hpp</title>
<polygon fill="white" stroke="transparent" points="-4,4 -4,-214 487.77,-214 487.77,4 -4,4"/>
<!-- Node1 -->
<g id="node1" class="node">
<title>Node1</title>
<g id="a_node1"><a xlink:title="ポテンショメータのクラス">
<polygon fill="#bfbfbf" stroke="black" points="70.27,-179.5 70.27,-209.5 264.27,-209.5 264.27,-179.5 70.27,-179.5"/>
<text text-anchor="start" x="78.27" y="-197.5" font-family="Helvetica,sans-Serif" font-size="10.00">alps_common_lib/include</text>
<text text-anchor="middle" x="167.27" y="-186.5" font-family="Helvetica,sans-Serif" font-size="10.00">/alps_cmn/sensor/potentiometer.hpp</text>
</a>
</g>
</g>
<!-- Node2 -->
<g id="node2" class="node">
<title>Node2</title>
<g id="a_node2"><a xlink:title=" ">
<polygon fill="white" stroke="#bfbfbf" points="20.27,-0.5 20.27,-19.5 70.27,-19.5 70.27,-0.5 20.27,-0.5"/>
<text text-anchor="middle" x="45.27" y="-7.5" font-family="Helvetica,sans-Serif" font-size="10.00">chrono</text>
</a>
</g>
</g>
<!-- Node1&#45;&gt;Node2 -->
<g id="edge1" class="edge">
<title>Node1&#45;&gt;Node2</title>
<path fill="none" stroke="midnightblue" d="M69.89,-182.33C46.73,-174.84 24.6,-162.67 10.27,-143 -15.46,-107.69 13.99,-54.82 32.51,-27.97"/>
<polygon fill="midnightblue" stroke="midnightblue" points="35.51,-29.79 38.49,-19.62 29.82,-25.71 35.51,-29.79"/>
</g>
<!-- Node3 -->
<g id="node3" class="node">
<title>Node3</title>
<g id="a_node3"><a xlink:href="low__pass__filter_8hpp.html" target="_top" xlink:title="ローパスフィルタのクラス">
<polygon fill="white" stroke="black" points="19.27,-112.5 19.27,-142.5 139.27,-142.5 139.27,-112.5 19.27,-112.5"/>
<text text-anchor="start" x="27.27" y="-130.5" font-family="Helvetica,sans-Serif" font-size="10.00">alps_cmn/control/low</text>
<text text-anchor="middle" x="79.27" y="-119.5" font-family="Helvetica,sans-Serif" font-size="10.00">_pass_filter.hpp</text>
</a>
</g>
</g>
<!-- Node1&#45;&gt;Node3 -->
<g id="edge2" class="edge">
<title>Node1&#45;&gt;Node3</title>
<path fill="none" stroke="midnightblue" d="M148.18,-179.4C135.95,-170.37 119.9,-158.51 106.37,-148.52"/>
<polygon fill="midnightblue" stroke="midnightblue" points="108.45,-145.7 98.33,-142.58 104.29,-151.33 108.45,-145.7"/>
</g>
<!-- Node4 -->
<g id="node4" class="node">
<title>Node4</title>
<g id="a_node4"><a xlink:href="duration_8hpp.html" target="_top" xlink:title="時間間隔の型エイリアス">
<polygon fill="white" stroke="black" points="73.77,-56.5 73.77,-75.5 226.77,-75.5 226.77,-56.5 73.77,-56.5"/>
<text text-anchor="middle" x="150.27" y="-63.5" font-family="Helvetica,sans-Serif" font-size="10.00">alps_cmn/time/duration.hpp</text>
</a>
</g>
</g>
<!-- Node1&#45;&gt;Node4 -->
<g id="edge8" class="edge">
<title>Node1&#45;&gt;Node4</title>
<path fill="none" stroke="midnightblue" d="M165.39,-179.48C162.31,-156.62 156.22,-111.3 152.78,-85.71"/>
<polygon fill="midnightblue" stroke="midnightblue" points="156.25,-85.23 151.45,-75.79 149.31,-86.17 156.25,-85.23"/>
</g>
<!-- Node5 -->
<g id="node5" class="node">
<title>Node5</title>
<g id="a_node5"><a xlink:href="i__analog__in_8hpp.html" target="_top" xlink:title="アナログ入力インタフェース">
<polygon fill="white" stroke="black" points="195.77,-112.5 195.77,-142.5 326.77,-142.5 326.77,-112.5 195.77,-112.5"/>
<text text-anchor="start" x="203.77" y="-130.5" font-family="Helvetica,sans-Serif" font-size="10.00">alps_cmn/gpio/i_analog</text>
<text text-anchor="middle" x="261.27" y="-119.5" font-family="Helvetica,sans-Serif" font-size="10.00">_in.hpp</text>
</a>
</g>
</g>
<!-- Node1&#45;&gt;Node5 -->
<g id="edge6" class="edge">
<title>Node1&#45;&gt;Node5</title>
<path fill="none" stroke="midnightblue" d="M187.67,-179.4C200.72,-170.37 217.86,-158.51 232.32,-148.52"/>
<polygon fill="midnightblue" stroke="midnightblue" points="234.68,-151.14 240.91,-142.58 230.7,-145.39 234.68,-151.14"/>
</g>
<!-- Node6 -->
<g id="node6" class="node">
<title>Node6</title>
<g id="a_node6"><a xlink:href="i__rotary__sensor_8hpp.html" target="_top" xlink:title=" ">
<polygon fill="white" stroke="black" points="344.77,-112.5 344.77,-142.5 483.77,-142.5 483.77,-112.5 344.77,-112.5"/>
<text text-anchor="start" x="352.77" y="-130.5" font-family="Helvetica,sans-Serif" font-size="10.00">alps_cmn/sensor/i_rotary</text>
<text text-anchor="middle" x="414.27" y="-119.5" font-family="Helvetica,sans-Serif" font-size="10.00">_sensor.hpp</text>
</a>
</g>
</g>
<!-- Node1&#45;&gt;Node6 -->
<g id="edge7" class="edge">
<title>Node1&#45;&gt;Node6</title>
<path fill="none" stroke="midnightblue" d="M220.56,-179.48C258.82,-169.41 310.53,-155.8 350.91,-145.17"/>
<polygon fill="midnightblue" stroke="midnightblue" points="351.87,-148.54 360.65,-142.61 350.09,-141.77 351.87,-148.54"/>
</g>
<!-- Node3&#45;&gt;Node2 -->
<g id="edge3" class="edge">
<title>Node3&#45;&gt;Node2</title>
<path fill="none" stroke="midnightblue" d="M75.1,-112.34C68.95,-91.43 57.43,-52.31 50.65,-29.27"/>
<polygon fill="midnightblue" stroke="midnightblue" points="54,-28.27 47.82,-19.67 47.29,-30.25 54,-28.27"/>
</g>
<!-- Node3&#45;&gt;Node4 -->
<g id="edge4" class="edge">
<title>Node3&#45;&gt;Node4</title>
<path fill="none" stroke="midnightblue" d="M96.1,-112.4C106.94,-103.31 121.05,-91.49 132.14,-82.19"/>
<polygon fill="midnightblue" stroke="midnightblue" points="134.52,-84.76 139.94,-75.66 130.03,-79.4 134.52,-84.76"/>
</g>
<!-- Node4&#45;&gt;Node2 -->
<g id="edge5" class="edge">
<title>Node4&#45;&gt;Node2</title>
<path fill="none" stroke="midnightblue" d="M133.4,-56.32C116.56,-47.66 90.46,-34.24 71.03,-24.25"/>
<polygon fill="midnightblue" stroke="midnightblue" points="72.59,-21.12 62.1,-19.65 69.39,-27.34 72.59,-21.12"/>
</g>
</g>
</svg>
