<?xml version="1.0" encoding="UTF-8" standalone="no"?>
<!DOCTYPE svg PUBLIC "-//W3C//DTD SVG 1.1//EN"
 "http://www.w3.org/Graphics/SVG/1.1/DTD/svg11.dtd">
<!-- Generated by graphviz version 2.43.0 (0)
 -->
<!-- Title: alps_mbed_lib/include/alps_mbed/gpio/pwm_out.hpp Pages: 1 -->
<svg width="224pt" height="162pt"
 viewBox="0.00 0.00 223.50 162.00" xmlns="http://www.w3.org/2000/svg" xmlns:xlink="http://www.w3.org/1999/xlink">
<g id="graph0" class="graph" transform="scale(1 1) rotate(0) translate(4 158)">
<title>alps_mbed_lib/include/alps_mbed/gpio/pwm_out.hpp</title>
<polygon fill="white" stroke="transparent" points="-4,4 -4,-158 219.5,-158 219.5,4 -4,4"/>
<!-- Node1 -->
<g id="node1" class="node">
<title>Node1</title>
<g id="a_node1"><a xlink:title="PWM出力ピン">
<polygon fill="#bfbfbf" stroke="black" points="0,-123.5 0,-153.5 166,-153.5 166,-123.5 0,-123.5"/>
<text text-anchor="start" x="8" y="-141.5" font-family="Helvetica,sans-Serif" font-size="10.00">alps_mbed_lib/include</text>
<text text-anchor="middle" x="83" y="-130.5" font-family="Helvetica,sans-Serif" font-size="10.00">/alps_mbed/gpio/pwm_out.hpp</text>
</a>
</g>
</g>
<!-- Node2 -->
<g id="node2" class="node">
<title>Node2</title>
<g id="a_node2"><a xlink:title=" ">
<polygon fill="white" stroke="#bfbfbf" points="13,-0.5 13,-19.5 63,-19.5 63,-0.5 13,-0.5"/>
<text text-anchor="middle" x="38" y="-7.5" font-family="Helvetica,sans-Serif" font-size="10.00">chrono</text>
</a>
</g>
</g>
<!-- Node1&#45;&gt;Node2 -->
<g id="edge1" class="edge">
<title>Node1&#45;&gt;Node2</title>
<path fill="none" stroke="midnightblue" d="M51.66,-123.44C37.08,-115.11 21.19,-103.01 13,-87 3.16,-67.77 14.5,-43.87 24.91,-28.06"/>
<polygon fill="midnightblue" stroke="midnightblue" points="27.85,-29.96 30.78,-19.78 22.14,-25.92 27.85,-29.96"/>
</g>
<!-- Node3 -->
<g id="node3" class="node">
<title>Node3</title>
<g id="a_node3"><a xlink:href="i__pwm__out_8hpp.html" target="_top" xlink:title="PWM出力を行うインタフェース">
<polygon fill="white" stroke="black" points="22,-56.5 22,-86.5 144,-86.5 144,-56.5 22,-56.5"/>
<text text-anchor="start" x="30" y="-74.5" font-family="Helvetica,sans-Serif" font-size="10.00">alps_cmn/gpio/i_pwm</text>
<text text-anchor="middle" x="83" y="-63.5" font-family="Helvetica,sans-Serif" font-size="10.00">_out.hpp</text>
</a>
</g>
</g>
<!-- Node1&#45;&gt;Node3 -->
<g id="edge2" class="edge">
<title>Node1&#45;&gt;Node3</title>
<path fill="none" stroke="midnightblue" d="M83,-123.4C83,-115.64 83,-105.81 83,-96.86"/>
<polygon fill="midnightblue" stroke="midnightblue" points="86.5,-96.58 83,-86.58 79.5,-96.58 86.5,-96.58"/>
</g>
<!-- Node4 -->
<g id="node4" class="node">
<title>Node4</title>
<g id="a_node4"><a xlink:title=" ">
<polygon fill="white" stroke="#bfbfbf" points="162.5,-62 162.5,-81 215.5,-81 215.5,-62 162.5,-62"/>
<text text-anchor="middle" x="189" y="-69" font-family="Helvetica,sans-Serif" font-size="10.00">mbed.h</text>
</a>
</g>
</g>
<!-- Node1&#45;&gt;Node4 -->
<g id="edge4" class="edge">
<title>Node1&#45;&gt;Node4</title>
<path fill="none" stroke="midnightblue" d="M106,-123.4C123.94,-112.39 148.72,-97.2 166.52,-86.28"/>
<polygon fill="midnightblue" stroke="midnightblue" points="168.43,-89.22 175.13,-81.01 164.77,-83.25 168.43,-89.22"/>
</g>
<!-- Node3&#45;&gt;Node2 -->
<g id="edge3" class="edge">
<title>Node3&#45;&gt;Node2</title>
<path fill="none" stroke="midnightblue" d="M72.34,-56.4C65.86,-47.84 57.57,-36.87 50.75,-27.86"/>
<polygon fill="midnightblue" stroke="midnightblue" points="53.37,-25.52 44.55,-19.66 47.79,-29.74 53.37,-25.52"/>
</g>
</g>
</svg>
