<?xml version="1.0" encoding="UTF-8" standalone="no"?>
<!DOCTYPE svg PUBLIC "-//W3C//DTD SVG 1.1//EN"
 "http://www.w3.org/Graphics/SVG/1.1/DTD/svg11.dtd">
<!-- Generated by graphviz version 2.43.0 (0)
 -->
<!-- Title: alps_core/lib_internal/alps_mbed_lib/include/alps_mbed/gpio/pwm_out.hpp Pages: 1 -->
<svg width="224pt" height="170pt"
 viewBox="0.00 0.00 223.50 170.00" xmlns="http://www.w3.org/2000/svg" xmlns:xlink="http://www.w3.org/1999/xlink">
<g id="graph0" class="graph" transform="scale(1 1) rotate(0) translate(4 166)">
<title>alps_core/lib_internal/alps_mbed_lib/include/alps_mbed/gpio/pwm_out.hpp</title>
<!-- Node1 -->
<g id="Node000001" class="node">
<title>Node1</title>
<g id="a_Node000001"><a xlink:title="PWM出力ピン">
<polygon fill="#999999" stroke="#666666" points="166,-162 0,-162 0,-121 166,-121 166,-162"/>
<text text-anchor="start" x="8" y="-150" font-family="Helvetica,sans-Serif" font-size="10.00">alps_core/lib_internal</text>
<text text-anchor="start" x="8" y="-139" font-family="Helvetica,sans-Serif" font-size="10.00">/alps_mbed_lib/include</text>
<text text-anchor="middle" x="83" y="-128" font-family="Helvetica,sans-Serif" font-size="10.00">/alps_mbed/gpio/pwm_out.hpp</text>
</a>
</g>
</g>
<!-- Node2 -->
<g id="Node000002" class="node">
<title>Node2</title>
<g id="a_Node000002"><a xlink:title=" ">
<polygon fill="#e0e0e0" stroke="#999999" points="63,-19 13,-19 13,0 63,0 63,-19"/>
<text text-anchor="middle" x="38" y="-7" font-family="Helvetica,sans-Serif" font-size="10.00">chrono</text>
</a>
</g>
</g>
<!-- Node1&#45;&gt;Node2 -->
<g id="edge1_Node000001_Node000002" class="edge">
<title>Node1&#45;&gt;Node2</title>
<g id="a_edge1_Node000001_Node000002"><a xlink:title=" ">
<path fill="none" stroke="#63b8ff" d="M46.43,-120.91C33.38,-111.86 20.15,-99.8 13,-85 3.86,-66.08 14.77,-42.96 24.91,-27.54"/>
<polygon fill="#63b8ff" stroke="#63b8ff" points="28.01,-29.22 30.94,-19.04 22.3,-25.17 28.01,-29.22"/>
</a>
</g>
</g>
<!-- Node3 -->
<g id="Node000003" class="node">
<title>Node3</title>
<g id="a_Node000003"><a xlink:href="i__pwm__out_8hpp.html" target="_top" xlink:title="PWM出力を行うインタフェース">
<polygon fill="white" stroke="#666666" points="144,-85 22,-85 22,-55 144,-55 144,-85"/>
<text text-anchor="start" x="30" y="-73" font-family="Helvetica,sans-Serif" font-size="10.00">alps_cmn/gpio/i_pwm</text>
<text text-anchor="middle" x="83" y="-62" font-family="Helvetica,sans-Serif" font-size="10.00">_out.hpp</text>
</a>
</g>
</g>
<!-- Node1&#45;&gt;Node3 -->
<g id="edge2_Node000001_Node000003" class="edge">
<title>Node1&#45;&gt;Node3</title>
<g id="a_edge2_Node000001_Node000003"><a xlink:title=" ">
<path fill="none" stroke="#63b8ff" d="M83,-120.77C83,-112.85 83,-103.63 83,-95.3"/>
<polygon fill="#63b8ff" stroke="#63b8ff" points="86.5,-95.04 83,-85.04 79.5,-95.04 86.5,-95.04"/>
</a>
</g>
</g>
<!-- Node4 -->
<g id="Node000004" class="node">
<title>Node4</title>
<g id="a_Node000004"><a xlink:title=" ">
<polygon fill="#e0e0e0" stroke="#999999" points="215.5,-79.5 162.5,-79.5 162.5,-60.5 215.5,-60.5 215.5,-79.5"/>
<text text-anchor="middle" x="189" y="-67.5" font-family="Helvetica,sans-Serif" font-size="10.00">mbed.h</text>
</a>
</g>
</g>
<!-- Node1&#45;&gt;Node4 -->
<g id="edge4_Node000001_Node000004" class="edge">
<title>Node1&#45;&gt;Node4</title>
<g id="a_edge4_Node000001_Node000004"><a xlink:title=" ">
<path fill="none" stroke="#63b8ff" d="M112.81,-120.96C130.21,-109.54 151.77,-95.41 167.51,-85.09"/>
<polygon fill="#63b8ff" stroke="#63b8ff" points="169.59,-87.91 176.03,-79.5 165.75,-82.06 169.59,-87.91"/>
</a>
</g>
</g>
<!-- Node3&#45;&gt;Node2 -->
<g id="edge3_Node000003_Node000002" class="edge">
<title>Node3&#45;&gt;Node2</title>
<g id="a_edge3_Node000003_Node000002"><a xlink:title=" ">
<path fill="none" stroke="#63b8ff" d="M72.11,-54.84C65.71,-46.52 57.58,-35.96 50.87,-27.23"/>
<polygon fill="#63b8ff" stroke="#63b8ff" points="53.61,-25.06 44.74,-19.27 48.07,-29.33 53.61,-25.06"/>
</a>
</g>
</g>
</g>
</svg>
