<?xml version="1.0" encoding="UTF-8" standalone="no"?>
<!DOCTYPE svg PUBLIC "-//W3C//DTD SVG 1.1//EN"
 "http://www.w3.org/Graphics/SVG/1.1/DTD/svg11.dtd">
<!-- Generated by graphviz version 2.43.0 (0)
 -->
<!-- Title: alps_core/lib_internal/alps_mbed_lib/include/alps_mbed/time/rate_sleeper.hpp Pages: 1 -->
<svg width="274pt" height="106pt"
 viewBox="0.00 0.00 273.50 106.00" xmlns="http://www.w3.org/2000/svg" xmlns:xlink="http://www.w3.org/1999/xlink">
<g id="graph0" class="graph" transform="scale(1 1) rotate(0) translate(4 102)">
<title>alps_core/lib_internal/alps_mbed_lib/include/alps_mbed/time/rate_sleeper.hpp</title>
<polygon fill="white" stroke="transparent" points="-4,4 -4,-102 269.5,-102 269.5,4 -4,4"/>
<!-- Node1 -->
<g id="node1" class="node">
<title>Node1</title>
<g id="a_node1"><a xlink:title="マイコンの実行周期を安定させるためのSleep関数を提供">
<polygon fill="#bfbfbf" stroke="black" points="16,-56.5 16,-97.5 198,-97.5 198,-56.5 16,-56.5"/>
<text text-anchor="start" x="24" y="-85.5" font-family="Helvetica,sans-Serif" font-size="10.00">alps_core/lib_internal</text>
<text text-anchor="start" x="24" y="-74.5" font-family="Helvetica,sans-Serif" font-size="10.00">/alps_mbed_lib/include</text>
<text text-anchor="middle" x="107" y="-63.5" font-family="Helvetica,sans-Serif" font-size="10.00">/alps_mbed/time/rate_sleeper.hpp</text>
</a>
</g>
</g>
<!-- Node2 -->
<g id="node2" class="node">
<title>Node2</title>
<g id="a_node2"><a xlink:title=" ">
<polygon fill="white" stroke="#bfbfbf" points="0,-0.5 0,-19.5 50,-19.5 50,-0.5 0,-0.5"/>
<text text-anchor="middle" x="25" y="-7.5" font-family="Helvetica,sans-Serif" font-size="10.00">chrono</text>
</a>
</g>
</g>
<!-- Node1&#45;&gt;Node2 -->
<g id="edge1" class="edge">
<title>Node1&#45;&gt;Node2</title>
<path fill="none" stroke="midnightblue" d="M82.4,-56.5C70.07,-46.72 55.37,-35.07 43.93,-26.01"/>
<polygon fill="midnightblue" stroke="midnightblue" points="45.93,-23.12 35.92,-19.65 41.58,-28.61 45.93,-23.12"/>
</g>
<!-- Node3 -->
<g id="node3" class="node">
<title>Node3</title>
<g id="a_node3"><a xlink:title=" ">
<polygon fill="white" stroke="#bfbfbf" points="68,-0.5 68,-19.5 146,-19.5 146,-0.5 68,-0.5"/>
<text text-anchor="middle" x="107" y="-7.5" font-family="Helvetica,sans-Serif" font-size="10.00">rtos/Kernel.h</text>
</a>
</g>
</g>
<!-- Node1&#45;&gt;Node3 -->
<g id="edge2" class="edge">
<title>Node1&#45;&gt;Node3</title>
<path fill="none" stroke="midnightblue" d="M107,-56.5C107,-48.07 107,-38.24 107,-29.87"/>
<polygon fill="midnightblue" stroke="midnightblue" points="110.5,-29.65 107,-19.65 103.5,-29.65 110.5,-29.65"/>
</g>
<!-- Node4 -->
<g id="node4" class="node">
<title>Node4</title>
<g id="a_node4"><a xlink:title=" ">
<polygon fill="white" stroke="#bfbfbf" points="164.5,-0.5 164.5,-19.5 265.5,-19.5 265.5,-0.5 164.5,-0.5"/>
<text text-anchor="middle" x="215" y="-7.5" font-family="Helvetica,sans-Serif" font-size="10.00">rtos/ThisThread.h</text>
</a>
</g>
</g>
<!-- Node1&#45;&gt;Node4 -->
<g id="edge3" class="edge">
<title>Node1&#45;&gt;Node4</title>
<path fill="none" stroke="midnightblue" d="M139.4,-56.5C156.28,-46.34 176.53,-34.16 191.82,-24.95"/>
<polygon fill="midnightblue" stroke="midnightblue" points="193.86,-27.81 200.62,-19.65 190.25,-21.81 193.86,-27.81"/>
</g>
</g>
</svg>
