<?xml version="1.0" encoding="UTF-8" standalone="no"?>
<!DOCTYPE svg PUBLIC "-//W3C//DTD SVG 1.1//EN"
 "http://www.w3.org/Graphics/SVG/1.1/DTD/svg11.dtd">
<!-- Generated by graphviz version 2.43.0 (0)
 -->
<!-- Title: alps_common_lib/include/alps_cmn/actuator/robomas_motors_can_controller.hpp Pages: 1 -->
<svg width="1295pt" height="368pt"
 viewBox="0.00 0.00 1294.69 368.00" xmlns="http://www.w3.org/2000/svg" xmlns:xlink="http://www.w3.org/1999/xlink">
<g id="graph0" class="graph" transform="scale(1 1) rotate(0) translate(4 364)">
<title>alps_common_lib/include/alps_cmn/actuator/robomas_motors_can_controller.hpp</title>
<!-- Node1 -->
<g id="node1" class="node">
<title>Node1</title>
<g id="a_node1"><a xlink:title=" ">
<polygon fill="#999999" stroke="#666666" points="1184.19,-360 1029.19,-360 1029.19,-319 1184.19,-319 1184.19,-360"/>
<text text-anchor="start" x="1037.19" y="-348" font-family="Helvetica,sans-Serif" font-size="10.00">alps_common_lib/include</text>
<text text-anchor="start" x="1037.19" y="-337" font-family="Helvetica,sans-Serif" font-size="10.00">/alps_cmn/actuator/robomas</text>
<text text-anchor="middle" x="1106.69" y="-326" font-family="Helvetica,sans-Serif" font-size="10.00">_motors_can_controller.hpp</text>
</a>
</g>
</g>
<!-- Node2 -->
<g id="node2" class="node">
<title>Node2</title>
<g id="a_node2"><a xlink:href="robomas__motor_8hpp.html" target="_top" xlink:title="ロボマスモータのライブラリ">
<polygon fill="white" stroke="#666666" points="1286.69,-283 1134.69,-283 1134.69,-253 1286.69,-253 1286.69,-283"/>
<text text-anchor="start" x="1142.69" y="-271" font-family="Helvetica,sans-Serif" font-size="10.00">alps_cmn/actuator/robomas</text>
<text text-anchor="middle" x="1210.69" y="-260" font-family="Helvetica,sans-Serif" font-size="10.00">_motor.hpp</text>
</a>
</g>
</g>
<!-- Node1&#45;&gt;Node2 -->
<g id="edge1" class="edge">
<title>Node1&#45;&gt;Node2</title>
<path fill="none" stroke="#63b8ff" d="M1135.94,-318.96C1150.07,-309.51 1166.99,-298.2 1181.16,-288.74"/>
<polygon fill="#63b8ff" stroke="#63b8ff" points="1183.21,-291.58 1189.57,-283.11 1179.32,-285.76 1183.21,-291.58"/>
</g>
<!-- Node6 -->
<g id="node6" class="node">
<title>Node6</title>
<g id="a_node6"><a xlink:href="can__typed__data__transceiver_8hpp.html" target="_top" xlink:title="CAN通信で型付けされたデータの送受信を行うライブラリ">
<polygon fill="white" stroke="#666666" points="1020.69,-283 842.69,-283 842.69,-253 1020.69,-253 1020.69,-283"/>
<text text-anchor="start" x="850.69" y="-271" font-family="Helvetica,sans-Serif" font-size="10.00">alps_cmn/communication</text>
<text text-anchor="middle" x="931.69" y="-260" font-family="Helvetica,sans-Serif" font-size="10.00">/can_typed_data_transceiver.hpp</text>
</a>
</g>
</g>
<!-- Node1&#45;&gt;Node6 -->
<g id="edge5" class="edge">
<title>Node1&#45;&gt;Node6</title>
<path fill="none" stroke="#63b8ff" d="M1057.48,-318.96C1032.04,-308.85 1001.23,-296.62 976.47,-286.78"/>
<polygon fill="#63b8ff" stroke="#63b8ff" points="977.54,-283.44 966.95,-283 974.96,-289.95 977.54,-283.44"/>
</g>
<!-- Node10 -->
<g id="node10" class="node">
<title>Node10</title>
<g id="a_node10"><a xlink:title=" ">
<polygon fill="#e0e0e0" stroke="#999999" points="1182.69,-145.5 1064.69,-145.5 1064.69,-126.5 1182.69,-126.5 1182.69,-145.5"/>
<text text-anchor="middle" x="1123.69" y="-133.5" font-family="Helvetica,sans-Serif" font-size="10.00">etl/unordered_map.h</text>
</a>
</g>
</g>
<!-- Node1&#45;&gt;Node10 -->
<g id="edge32" class="edge">
<title>Node1&#45;&gt;Node10</title>
<path fill="none" stroke="#63b8ff" d="M1108.35,-318.81C1111.63,-280.04 1118.86,-194.26 1122.09,-156.03"/>
<polygon fill="#63b8ff" stroke="#63b8ff" points="1125.6,-156.05 1122.95,-145.8 1118.62,-155.47 1125.6,-156.05"/>
</g>
<!-- Node3 -->
<g id="node3" class="node">
<title>Node3</title>
<g id="a_node3"><a xlink:href="can__data__frame_8hpp.html" target="_top" xlink:title="CANフレームを表す構造体">
<polygon fill="white" stroke="#666666" points="908.69,-85 766.69,-85 766.69,-55 908.69,-55 908.69,-85"/>
<text text-anchor="start" x="774.69" y="-73" font-family="Helvetica,sans-Serif" font-size="10.00">alps_cmn/communication</text>
<text text-anchor="middle" x="837.69" y="-62" font-family="Helvetica,sans-Serif" font-size="10.00">/can_data_frame.hpp</text>
</a>
</g>
</g>
<!-- Node2&#45;&gt;Node3 -->
<g id="edge2" class="edge">
<title>Node2&#45;&gt;Node3</title>
<path fill="none" stroke="#63b8ff" d="M1213.86,-252.57C1219.35,-223.28 1226.93,-156.62 1191.69,-121 1154.72,-83.62 1011.67,-73.82 919.12,-71.46"/>
<polygon fill="#63b8ff" stroke="#63b8ff" points="919.01,-67.96 908.94,-71.23 918.85,-74.96 919.01,-67.96"/>
</g>
<!-- Node4 -->
<g id="node4" class="node">
<title>Node4</title>
<g id="a_node4"><a xlink:title=" ">
<polygon fill="#e0e0e0" stroke="#999999" points="636.19,-19 583.19,-19 583.19,0 636.19,0 636.19,-19"/>
<text text-anchor="middle" x="609.69" y="-7" font-family="Helvetica,sans-Serif" font-size="10.00">stdint.h</text>
</a>
</g>
</g>
<!-- Node3&#45;&gt;Node4 -->
<g id="edge3" class="edge">
<title>Node3&#45;&gt;Node4</title>
<path fill="none" stroke="#63b8ff" d="M783.08,-54.99C740.69,-44.11 683.11,-29.34 646.16,-19.86"/>
<polygon fill="#63b8ff" stroke="#63b8ff" points="646.88,-16.43 636.32,-17.33 645.14,-23.21 646.88,-16.43"/>
</g>
<!-- Node5 -->
<g id="node5" class="node">
<title>Node5</title>
<g id="a_node5"><a xlink:title=" ">
<polygon fill="#e0e0e0" stroke="#999999" points="746.69,-19 674.69,-19 674.69,0 746.69,0 746.69,-19"/>
<text text-anchor="middle" x="710.69" y="-7" font-family="Helvetica,sans-Serif" font-size="10.00">etl/vector.h</text>
</a>
</g>
</g>
<!-- Node3&#45;&gt;Node5 -->
<g id="edge4" class="edge">
<title>Node3&#45;&gt;Node5</title>
<path fill="none" stroke="#63b8ff" d="M807.27,-54.99C786.46,-45.4 759.08,-32.79 738.78,-23.44"/>
<polygon fill="#63b8ff" stroke="#63b8ff" points="740,-20.14 729.45,-19.14 737.07,-26.5 740,-20.14"/>
</g>
<!-- Node7 -->
<g id="node7" class="node">
<title>Node7</title>
<g id="a_node7"><a xlink:href="can__callback__handler_8hpp.html" target="_top" xlink:title="CANデータフレームをコールバックで処理するためのライブラリ">
<polygon fill="white" stroke="#666666" points="1040.69,-217 894.69,-217 894.69,-187 1040.69,-187 1040.69,-217"/>
<text text-anchor="start" x="902.69" y="-205" font-family="Helvetica,sans-Serif" font-size="10.00">alps_cmn/communication</text>
<text text-anchor="middle" x="967.69" y="-194" font-family="Helvetica,sans-Serif" font-size="10.00">/can_callback_handler.hpp</text>
</a>
</g>
</g>
<!-- Node6&#45;&gt;Node7 -->
<g id="edge6" class="edge">
<title>Node6&#45;&gt;Node7</title>
<path fill="none" stroke="#63b8ff" d="M939.68,-252.8C944.11,-244.92 949.72,-234.95 954.76,-225.99"/>
<polygon fill="#63b8ff" stroke="#63b8ff" points="957.87,-227.6 959.73,-217.16 951.77,-224.16 957.87,-227.6"/>
</g>
<!-- Node11 -->
<g id="node11" class="node">
<title>Node11</title>
<g id="a_node11"><a xlink:href="cobs_8hpp.html" target="_top" xlink:title="COBS変換ライブラリ">
<polygon fill="white" stroke="#666666" points="731.69,-217 589.69,-217 589.69,-187 731.69,-187 731.69,-217"/>
<text text-anchor="start" x="597.69" y="-205" font-family="Helvetica,sans-Serif" font-size="10.00">alps_cmn/communication</text>
<text text-anchor="middle" x="660.69" y="-194" font-family="Helvetica,sans-Serif" font-size="10.00">/cobs.hpp</text>
</a>
</g>
</g>
<!-- Node6&#45;&gt;Node11 -->
<g id="edge11" class="edge">
<title>Node6&#45;&gt;Node11</title>
<path fill="none" stroke="#63b8ff" d="M872.22,-252.95C830.21,-243.03 773.79,-229.71 729.79,-219.32"/>
<polygon fill="#63b8ff" stroke="#63b8ff" points="730.56,-215.9 720.03,-217.01 728.95,-222.72 730.56,-215.9"/>
</g>
<!-- Node17 -->
<g id="node17" class="node">
<title>Node17</title>
<g id="a_node17"><a xlink:href="data__serializer_8hpp.html" target="_top" xlink:title="データとバイト列の変換ライブラリ">
<polygon fill="white" stroke="#666666" points="271.69,-217 129.69,-217 129.69,-187 271.69,-187 271.69,-217"/>
<text text-anchor="start" x="137.69" y="-205" font-family="Helvetica,sans-Serif" font-size="10.00">alps_cmn/communication</text>
<text text-anchor="middle" x="200.69" y="-194" font-family="Helvetica,sans-Serif" font-size="10.00">/data_serializer.hpp</text>
</a>
</g>
</g>
<!-- Node6&#45;&gt;Node17 -->
<g id="edge17" class="edge">
<title>Node6&#45;&gt;Node17</title>
<path fill="none" stroke="#63b8ff" d="M842.42,-259.18C699.09,-246.64 419.76,-222.18 281.8,-210.1"/>
<polygon fill="#63b8ff" stroke="#63b8ff" points="281.98,-206.6 271.71,-209.22 281.36,-213.58 281.98,-206.6"/>
</g>
<!-- Node8 -->
<g id="node8" class="node">
<title>Node8</title>
<g id="a_node8"><a xlink:href="i__can__io_8hpp.html" target="_top" xlink:title=" ">
<polygon fill="white" stroke="#666666" points="944.69,-151 802.69,-151 802.69,-121 944.69,-121 944.69,-151"/>
<text text-anchor="start" x="810.69" y="-139" font-family="Helvetica,sans-Serif" font-size="10.00">alps_cmn/communication</text>
<text text-anchor="middle" x="873.69" y="-128" font-family="Helvetica,sans-Serif" font-size="10.00">/i_can_io.hpp</text>
</a>
</g>
</g>
<!-- Node7&#45;&gt;Node8 -->
<g id="edge7" class="edge">
<title>Node7&#45;&gt;Node8</title>
<path fill="none" stroke="#63b8ff" d="M946.83,-186.8C933.93,-178.01 917.18,-166.61 902.96,-156.93"/>
<polygon fill="#63b8ff" stroke="#63b8ff" points="904.73,-153.9 894.5,-151.16 900.79,-159.69 904.73,-153.9"/>
</g>
<!-- Node9 -->
<g id="node9" class="node">
<title>Node9</title>
<g id="a_node9"><a xlink:title=" ">
<polygon fill="#e0e0e0" stroke="#999999" points="1046.69,-145.5 962.69,-145.5 962.69,-126.5 1046.69,-126.5 1046.69,-145.5"/>
<text text-anchor="middle" x="1004.69" y="-133.5" font-family="Helvetica,sans-Serif" font-size="10.00">etl/delegate.h</text>
</a>
</g>
</g>
<!-- Node7&#45;&gt;Node9 -->
<g id="edge9" class="edge">
<title>Node7&#45;&gt;Node9</title>
<path fill="none" stroke="#63b8ff" d="M975.9,-186.8C981.39,-177.31 988.65,-164.76 994.5,-154.63"/>
<polygon fill="#63b8ff" stroke="#63b8ff" points="997.61,-156.25 999.58,-145.84 991.55,-152.75 997.61,-156.25"/>
</g>
<!-- Node7&#45;&gt;Node10 -->
<g id="edge10" class="edge">
<title>Node7&#45;&gt;Node10</title>
<path fill="none" stroke="#63b8ff" d="M1001.93,-186.95C1029.29,-175.73 1067.27,-160.15 1093.5,-149.39"/>
<polygon fill="#63b8ff" stroke="#63b8ff" points="1095.01,-152.55 1102.93,-145.52 1092.35,-146.07 1095.01,-152.55"/>
</g>
<!-- Node8&#45;&gt;Node3 -->
<g id="edge8" class="edge">
<title>Node8&#45;&gt;Node3</title>
<path fill="none" stroke="#63b8ff" d="M865.7,-120.8C861.28,-112.92 855.66,-102.95 850.63,-93.99"/>
<polygon fill="#63b8ff" stroke="#63b8ff" points="853.61,-92.16 845.66,-85.16 847.51,-95.6 853.61,-92.16"/>
</g>
<!-- Node12 -->
<g id="node12" class="node">
<title>Node12</title>
<g id="a_node12"><a xlink:title=" ">
<polygon fill="#e0e0e0" stroke="#999999" points="652.69,-145.5 600.69,-145.5 600.69,-126.5 652.69,-126.5 652.69,-145.5"/>
<text text-anchor="middle" x="626.69" y="-133.5" font-family="Helvetica,sans-Serif" font-size="10.00">cassert</text>
</a>
</g>
</g>
<!-- Node11&#45;&gt;Node12 -->
<g id="edge12" class="edge">
<title>Node11&#45;&gt;Node12</title>
<path fill="none" stroke="#63b8ff" d="M653.15,-186.8C648.16,-177.41 641.58,-165.02 636.23,-154.95"/>
<polygon fill="#63b8ff" stroke="#63b8ff" points="639.17,-153.03 631.39,-145.84 632.99,-156.32 639.17,-153.03"/>
</g>
<!-- Node13 -->
<g id="node13" class="node">
<title>Node13</title>
<g id="a_node13"><a xlink:title=" ">
<polygon fill="#e0e0e0" stroke="#999999" points="452.69,-145.5 402.69,-145.5 402.69,-126.5 452.69,-126.5 452.69,-145.5"/>
<text text-anchor="middle" x="427.69" y="-133.5" font-family="Helvetica,sans-Serif" font-size="10.00">cstdint</text>
</a>
</g>
</g>
<!-- Node11&#45;&gt;Node13 -->
<g id="edge13" class="edge">
<title>Node11&#45;&gt;Node13</title>
<path fill="none" stroke="#63b8ff" d="M594.58,-186.91C555.53,-177.97 505.34,-165.38 461.69,-151 460.07,-150.46 458.41,-149.89 456.74,-149.28"/>
<polygon fill="#63b8ff" stroke="#63b8ff" points="457.88,-145.97 447.29,-145.63 455.36,-152.5 457.88,-145.97"/>
</g>
<!-- Node14 -->
<g id="node14" class="node">
<title>Node14</title>
<g id="a_node14"><a xlink:title=" ">
<polygon fill="#e0e0e0" stroke="#999999" points="716.69,-145.5 670.69,-145.5 670.69,-126.5 716.69,-126.5 716.69,-145.5"/>
<text text-anchor="middle" x="693.69" y="-133.5" font-family="Helvetica,sans-Serif" font-size="10.00">cstdio</text>
</a>
</g>
</g>
<!-- Node11&#45;&gt;Node14 -->
<g id="edge14" class="edge">
<title>Node11&#45;&gt;Node14</title>
<path fill="none" stroke="#63b8ff" d="M668.02,-186.8C672.86,-177.41 679.25,-165.02 684.44,-154.95"/>
<polygon fill="#63b8ff" stroke="#63b8ff" points="687.66,-156.34 689.13,-145.84 681.44,-153.13 687.66,-156.34"/>
</g>
<!-- Node15 -->
<g id="node15" class="node">
<title>Node15</title>
<g id="a_node15"><a xlink:title=" ">
<polygon fill="#e0e0e0" stroke="#999999" points="784.19,-145.5 735.19,-145.5 735.19,-126.5 784.19,-126.5 784.19,-145.5"/>
<text text-anchor="middle" x="759.69" y="-133.5" font-family="Helvetica,sans-Serif" font-size="10.00">cstdlib</text>
</a>
</g>
</g>
<!-- Node11&#45;&gt;Node15 -->
<g id="edge15" class="edge">
<title>Node11&#45;&gt;Node15</title>
<path fill="none" stroke="#63b8ff" d="M682.66,-186.8C699.1,-176.17 721.48,-161.7 737.88,-151.1"/>
<polygon fill="#63b8ff" stroke="#63b8ff" points="739.8,-154.03 746.3,-145.66 736,-148.15 739.8,-154.03"/>
</g>
<!-- Node16 -->
<g id="node16" class="node">
<title>Node16</title>
<g id="a_node16"><a xlink:title=" ">
<polygon fill="#e0e0e0" stroke="#999999" points="582.69,-145.5 470.69,-145.5 470.69,-126.5 582.69,-126.5 582.69,-145.5"/>
<text text-anchor="middle" x="526.69" y="-133.5" font-family="Helvetica,sans-Serif" font-size="10.00">etl/circular_buffer.h</text>
</a>
</g>
</g>
<!-- Node11&#45;&gt;Node16 -->
<g id="edge16" class="edge">
<title>Node11&#45;&gt;Node16</title>
<path fill="none" stroke="#63b8ff" d="M631.29,-186.95C608.2,-175.93 576.31,-160.7 553.83,-149.96"/>
<polygon fill="#63b8ff" stroke="#63b8ff" points="555.06,-146.67 544.53,-145.52 552.04,-152.99 555.06,-146.67"/>
</g>
<!-- Node17&#45;&gt;Node13 -->
<g id="edge20" class="edge">
<title>Node17&#45;&gt;Node13</title>
<path fill="none" stroke="#63b8ff" d="M263.91,-186.94C301.91,-177.91 351.01,-165.24 393.69,-151 395.32,-150.46 396.97,-149.88 398.64,-149.27"/>
<polygon fill="#63b8ff" stroke="#63b8ff" points="400.03,-152.48 408.09,-145.61 397.5,-145.96 400.03,-152.48"/>
</g>
<!-- Node17&#45;&gt;Node16 -->
<g id="edge31" class="edge">
<title>Node17&#45;&gt;Node16</title>
<path fill="none" stroke="#63b8ff" d="M271.95,-187.8C324.47,-177.97 397.61,-164.04 461.69,-151 467,-149.92 472.54,-148.77 478.05,-147.6"/>
<polygon fill="#63b8ff" stroke="#63b8ff" points="478.83,-151.02 487.88,-145.51 477.37,-144.17 478.83,-151.02"/>
</g>
<!-- Node18 -->
<g id="node18" class="node">
<title>Node18</title>
<g id="a_node18"><a xlink:title=" ">
<polygon fill="#e0e0e0" stroke="#999999" points="90.69,-145.5 26.69,-145.5 26.69,-126.5 90.69,-126.5 90.69,-145.5"/>
<text text-anchor="middle" x="58.69" y="-133.5" font-family="Helvetica,sans-Serif" font-size="10.00">algorithm</text>
</a>
</g>
</g>
<!-- Node17&#45;&gt;Node18 -->
<g id="edge18" class="edge">
<title>Node17&#45;&gt;Node18</title>
<path fill="none" stroke="#63b8ff" d="M169.53,-186.95C144.85,-175.83 110.67,-160.42 86.81,-149.67"/>
<polygon fill="#63b8ff" stroke="#63b8ff" points="88.15,-146.44 77.59,-145.52 85.27,-152.82 88.15,-146.44"/>
</g>
<!-- Node19 -->
<g id="node19" class="node">
<title>Node19</title>
<g id="a_node19"><a xlink:title=" ">
<polygon fill="#e0e0e0" stroke="#999999" points="50.69,-79.5 8.69,-79.5 8.69,-60.5 50.69,-60.5 50.69,-79.5"/>
<text text-anchor="middle" x="29.69" y="-67.5" font-family="Helvetica,sans-Serif" font-size="10.00">array</text>
</a>
</g>
</g>
<!-- Node17&#45;&gt;Node19 -->
<g id="edge19" class="edge">
<title>Node17&#45;&gt;Node19</title>
<path fill="none" stroke="#63b8ff" d="M129.57,-191.86C80.67,-183.95 21.93,-170.66 6.69,-151 -7.57,-132.59 5.24,-105.66 16.69,-88.23"/>
<polygon fill="#63b8ff" stroke="#63b8ff" points="19.84,-89.83 22.73,-79.63 14.11,-85.8 19.84,-89.83"/>
</g>
<!-- Node20 -->
<g id="node20" class="node">
<title>Node20</title>
<g id="a_node20"><a xlink:title=" ">
<polygon fill="#e0e0e0" stroke="#999999" points="158.69,-145.5 108.69,-145.5 108.69,-126.5 158.69,-126.5 158.69,-145.5"/>
<text text-anchor="middle" x="133.69" y="-133.5" font-family="Helvetica,sans-Serif" font-size="10.00">cstring</text>
</a>
</g>
</g>
<!-- Node17&#45;&gt;Node20 -->
<g id="edge21" class="edge">
<title>Node17&#45;&gt;Node20</title>
<path fill="none" stroke="#63b8ff" d="M185.82,-186.8C175.28,-176.72 161.12,-163.19 150.21,-152.78"/>
<polygon fill="#63b8ff" stroke="#63b8ff" points="152.6,-150.22 142.95,-145.84 147.77,-155.28 152.6,-150.22"/>
</g>
<!-- Node21 -->
<g id="node21" class="node">
<title>Node21</title>
<g id="a_node21"><a xlink:title=" ">
<polygon fill="#e0e0e0" stroke="#999999" points="224.69,-145.5 176.69,-145.5 176.69,-126.5 224.69,-126.5 224.69,-145.5"/>
<text text-anchor="middle" x="200.69" y="-133.5" font-family="Helvetica,sans-Serif" font-size="10.00">mutex</text>
</a>
</g>
</g>
<!-- Node17&#45;&gt;Node21 -->
<g id="edge22" class="edge">
<title>Node17&#45;&gt;Node21</title>
<path fill="none" stroke="#63b8ff" d="M200.69,-186.8C200.69,-177.7 200.69,-165.79 200.69,-155.9"/>
<polygon fill="#63b8ff" stroke="#63b8ff" points="204.19,-155.84 200.69,-145.84 197.19,-155.84 204.19,-155.84"/>
</g>
<!-- Node22 -->
<g id="node22" class="node">
<title>Node22</title>
<g id="a_node22"><a xlink:title=" ">
<polygon fill="#e0e0e0" stroke="#999999" points="204.19,-79.5 135.19,-79.5 135.19,-60.5 204.19,-60.5 204.19,-79.5"/>
<text text-anchor="middle" x="169.69" y="-67.5" font-family="Helvetica,sans-Serif" font-size="10.00">type_traits</text>
</a>
</g>
</g>
<!-- Node17&#45;&gt;Node22 -->
<g id="edge23" class="edge">
<title>Node17&#45;&gt;Node22</title>
<path fill="none" stroke="#63b8ff" d="M129.66,-190.62C84.34,-182.37 31.58,-169.19 17.69,-151 -14.16,-109.27 69.67,-87.1 125.15,-77.33"/>
<polygon fill="#63b8ff" stroke="#63b8ff" points="125.86,-80.75 135.14,-75.64 124.7,-73.85 125.86,-80.75"/>
</g>
<!-- Node23 -->
<g id="node23" class="node">
<title>Node23</title>
<g id="a_node23"><a xlink:href="serialize__type__info_8hpp.html" target="_top" xlink:title="DataSeializerで変換する型に関する情報">
<polygon fill="white" stroke="#666666" points="384.69,-151 242.69,-151 242.69,-121 384.69,-121 384.69,-151"/>
<text text-anchor="start" x="250.69" y="-139" font-family="Helvetica,sans-Serif" font-size="10.00">alps_cmn/communication</text>
<text text-anchor="middle" x="313.69" y="-128" font-family="Helvetica,sans-Serif" font-size="10.00">/serialize_type_info.hpp</text>
</a>
</g>
</g>
<!-- Node17&#45;&gt;Node23 -->
<g id="edge24" class="edge">
<title>Node17&#45;&gt;Node23</title>
<path fill="none" stroke="#63b8ff" d="M225.49,-186.95C241.54,-177.87 262.62,-165.93 280.15,-156"/>
<polygon fill="#63b8ff" stroke="#63b8ff" points="281.98,-158.99 288.95,-151.01 278.53,-152.9 281.98,-158.99"/>
</g>
<!-- Node23&#45;&gt;Node4 -->
<g id="edge25" class="edge">
<title>Node23&#45;&gt;Node4</title>
<path fill="none" stroke="#63b8ff" d="M347.07,-120.96C405.27,-96.48 524.38,-46.38 579.93,-23.02"/>
<polygon fill="#63b8ff" stroke="#63b8ff" points="581.36,-26.21 589.22,-19.11 578.65,-19.76 581.36,-26.21"/>
</g>
<!-- Node23&#45;&gt;Node5 -->
<g id="edge30" class="edge">
<title>Node23&#45;&gt;Node5</title>
<path fill="none" stroke="#63b8ff" d="M361.35,-120.91C394.57,-111.03 439.9,-97.41 479.69,-85 549.07,-63.37 629.81,-37.07 675.11,-22.21"/>
<polygon fill="#63b8ff" stroke="#63b8ff" points="676.35,-25.49 684.76,-19.04 674.17,-18.84 676.35,-25.49"/>
</g>
<!-- Node23&#45;&gt;Node19 -->
<g id="edge26" class="edge">
<title>Node23&#45;&gt;Node19</title>
<path fill="none" stroke="#63b8ff" d="M251.37,-120.95C192.44,-107.68 106.45,-88.3 60.83,-78.02"/>
<polygon fill="#63b8ff" stroke="#63b8ff" points="61.45,-74.57 50.93,-75.79 59.92,-81.4 61.45,-74.57"/>
</g>
<!-- Node23&#45;&gt;Node22 -->
<g id="edge28" class="edge">
<title>Node23&#45;&gt;Node22</title>
<path fill="none" stroke="#63b8ff" d="M282.09,-120.95C257.06,-109.83 222.4,-94.42 198.21,-83.67"/>
<polygon fill="#63b8ff" stroke="#63b8ff" points="199.42,-80.38 188.86,-79.52 196.57,-86.78 199.42,-80.38"/>
</g>
<!-- Node24 -->
<g id="node24" class="node">
<title>Node24</title>
<g id="a_node24"><a xlink:title=" ">
<polygon fill="#e0e0e0" stroke="#999999" points="296.19,-79.5 255.19,-79.5 255.19,-60.5 296.19,-60.5 296.19,-79.5"/>
<text text-anchor="middle" x="275.69" y="-67.5" font-family="Helvetica,sans-Serif" font-size="10.00">tuple</text>
</a>
</g>
</g>
<!-- Node23&#45;&gt;Node24 -->
<g id="edge27" class="edge">
<title>Node23&#45;&gt;Node24</title>
<path fill="none" stroke="#63b8ff" d="M305.26,-120.8C299.63,-111.31 292.17,-98.76 286.16,-88.63"/>
<polygon fill="#63b8ff" stroke="#63b8ff" points="289.06,-86.66 280.94,-79.84 283.04,-90.23 289.06,-86.66"/>
</g>
<!-- Node25 -->
<g id="node25" class="node">
<title>Node25</title>
<g id="a_node25"><a xlink:title=" ">
<polygon fill="#e0e0e0" stroke="#999999" points="383.19,-79.5 314.19,-79.5 314.19,-60.5 383.19,-60.5 383.19,-79.5"/>
<text text-anchor="middle" x="348.69" y="-67.5" font-family="Helvetica,sans-Serif" font-size="10.00">etl/string.h</text>
</a>
</g>
</g>
<!-- Node23&#45;&gt;Node25 -->
<g id="edge29" class="edge">
<title>Node23&#45;&gt;Node25</title>
<path fill="none" stroke="#63b8ff" d="M321.46,-120.8C326.65,-111.31 333.51,-98.76 339.05,-88.63"/>
<polygon fill="#63b8ff" stroke="#63b8ff" points="342.13,-90.3 343.86,-79.84 335.99,-86.94 342.13,-90.3"/>
</g>
</g>
</svg>
