<?xml version="1.0" encoding="UTF-8" standalone="no"?>
<!DOCTYPE svg PUBLIC "-//W3C//DTD SVG 1.1//EN"
 "http://www.w3.org/Graphics/SVG/1.1/DTD/svg11.dtd">
<!-- Generated by graphviz version 2.43.0 (0)
 -->
<!-- Title: alps_common_lib/include/alps_cmn/actuator/robomas_motor.hpp Pages: 1 -->
<svg width="2122pt" height="374pt"
 viewBox="0.00 0.00 2121.78 374.00" xmlns="http://www.w3.org/2000/svg" xmlns:xlink="http://www.w3.org/1999/xlink">
<g id="graph0" class="graph" transform="scale(1 1) rotate(0) translate(4 370)">
<title>alps_common_lib/include/alps_cmn/actuator/robomas_motor.hpp</title>
<polygon fill="white" stroke="transparent" points="-4,4 -4,-370 2117.78,-370 2117.78,4 -4,4"/>
<!-- Node1 -->
<g id="node1" class="node">
<title>Node1</title>
<g id="a_node1"><a xlink:title="ロボマスモータのライブラリ">
<polygon fill="#bfbfbf" stroke="black" points="1308.78,-324.5 1308.78,-365.5 1463.78,-365.5 1463.78,-324.5 1308.78,-324.5"/>
<text text-anchor="start" x="1316.78" y="-353.5" font-family="Helvetica,sans-Serif" font-size="10.00">alps_common_lib/include</text>
<text text-anchor="start" x="1316.78" y="-342.5" font-family="Helvetica,sans-Serif" font-size="10.00">/alps_cmn/actuator/robomas</text>
<text text-anchor="middle" x="1386.28" y="-331.5" font-family="Helvetica,sans-Serif" font-size="10.00">_motor.hpp</text>
</a>
</g>
</g>
<!-- Node2 -->
<g id="node2" class="node">
<title>Node2</title>
<g id="a_node2"><a xlink:title=" ">
<polygon fill="white" stroke="#bfbfbf" points="402.28,-62 402.28,-81 444.28,-81 444.28,-62 402.28,-62"/>
<text text-anchor="middle" x="423.28" y="-69" font-family="Helvetica,sans-Serif" font-size="10.00">array</text>
</a>
</g>
</g>
<!-- Node1&#45;&gt;Node2 -->
<g id="edge1" class="edge">
<title>Node1&#45;&gt;Node2</title>
<path fill="none" stroke="midnightblue" d="M1308.41,-339.88C1072.01,-326.82 365.31,-283.45 144.28,-221 78.67,-202.46 42.46,-211.79 6.28,-154 -1.03,-142.32 -2.86,-133.31 6.28,-123 31.84,-94.16 299.5,-78.52 392.02,-73.94"/>
<polygon fill="midnightblue" stroke="midnightblue" points="392.35,-77.43 402.17,-73.45 392.01,-70.44 392.35,-77.43"/>
</g>
<!-- Node3 -->
<g id="node3" class="node">
<title>Node3</title>
<g id="a_node3"><a xlink:href="i__motor_8hpp.html" target="_top" xlink:title=" ">
<polygon fill="white" stroke="black" points="1372.78,-257.5 1372.78,-287.5 1485.78,-287.5 1485.78,-257.5 1372.78,-257.5"/>
<text text-anchor="start" x="1380.78" y="-275.5" font-family="Helvetica,sans-Serif" font-size="10.00">alps_cmn/actuator/i</text>
<text text-anchor="middle" x="1429.28" y="-264.5" font-family="Helvetica,sans-Serif" font-size="10.00">_motor.hpp</text>
</a>
</g>
</g>
<!-- Node1&#45;&gt;Node3 -->
<g id="edge2" class="edge">
<title>Node1&#45;&gt;Node3</title>
<path fill="none" stroke="midnightblue" d="M1398.26,-324.36C1403.5,-315.77 1409.68,-305.64 1415.14,-296.68"/>
<polygon fill="midnightblue" stroke="midnightblue" points="1418.29,-298.25 1420.5,-287.89 1412.31,-294.61 1418.29,-298.25"/>
</g>
<!-- Node4 -->
<g id="node4" class="node">
<title>Node4</title>
<g id="a_node4"><a xlink:href="can__typed__data__transceiver_8hpp.html" target="_top" xlink:title="CAN通信で型付けされたデータの送受信を行うライブラリ">
<polygon fill="white" stroke="black" points="889.78,-257.5 889.78,-287.5 1066.78,-287.5 1066.78,-257.5 889.78,-257.5"/>
<text text-anchor="start" x="897.78" y="-275.5" font-family="Helvetica,sans-Serif" font-size="10.00">alps_cmn/communication</text>
<text text-anchor="middle" x="978.28" y="-264.5" font-family="Helvetica,sans-Serif" font-size="10.00">/can_typed_data_transceiver.hpp</text>
</a>
</g>
</g>
<!-- Node1&#45;&gt;Node4 -->
<g id="edge3" class="edge">
<title>Node1&#45;&gt;Node4</title>
<path fill="none" stroke="midnightblue" d="M1308.58,-330.57C1240.46,-318.8 1141.36,-301.68 1069.49,-289.26"/>
<polygon fill="midnightblue" stroke="midnightblue" points="1069.99,-285.79 1059.54,-287.54 1068.8,-292.69 1069.99,-285.79"/>
</g>
<!-- Node10 -->
<g id="node10" class="node">
<title>Node10</title>
<g id="a_node10"><a xlink:title=" ">
<polygon fill="white" stroke="#bfbfbf" points="1147.28,-62 1147.28,-81 1231.28,-81 1231.28,-62 1147.28,-62"/>
<text text-anchor="middle" x="1189.28" y="-69" font-family="Helvetica,sans-Serif" font-size="10.00">etl/delegate.h</text>
</a>
</g>
</g>
<!-- Node1&#45;&gt;Node10 -->
<g id="edge42" class="edge">
<title>Node1&#45;&gt;Node10</title>
<path fill="none" stroke="midnightblue" d="M1377.19,-324.45C1372.63,-313.87 1367.43,-300.46 1364.28,-288 1346.19,-216.38 1391.2,-180.06 1344.28,-123 1319.33,-92.66 1275.87,-80.37 1241.31,-75.48"/>
<polygon fill="midnightblue" stroke="midnightblue" points="1241.72,-72.01 1231.36,-74.24 1240.85,-78.95 1241.72,-72.01"/>
</g>
<!-- Node11 -->
<g id="node11" class="node">
<title>Node11</title>
<g id="a_node11"><a xlink:title=" ">
<polygon fill="white" stroke="#bfbfbf" points="1217.28,-129 1217.28,-148 1335.28,-148 1335.28,-129 1217.28,-129"/>
<text text-anchor="middle" x="1276.28" y="-136" font-family="Helvetica,sans-Serif" font-size="10.00">etl/unordered_map.h</text>
</a>
</g>
</g>
<!-- Node1&#45;&gt;Node11 -->
<g id="edge43" class="edge">
<title>Node1&#45;&gt;Node11</title>
<path fill="none" stroke="midnightblue" d="M1362.33,-324.4C1351.36,-314.43 1338.92,-301.57 1330.28,-288 1303.22,-245.51 1287.2,-187.57 1280.3,-158.21"/>
<polygon fill="midnightblue" stroke="midnightblue" points="1283.64,-157.12 1278.03,-148.13 1276.81,-158.65 1283.64,-157.12"/>
</g>
<!-- Node26 -->
<g id="node26" class="node">
<title>Node26</title>
<g id="a_node26"><a xlink:href="logging__macros_8hpp.html" target="_top" xlink:title=" ">
<polygon fill="white" stroke="black" points="1069.28,-190.5 1069.28,-220.5 1189.28,-220.5 1189.28,-190.5 1069.28,-190.5"/>
<text text-anchor="start" x="1077.28" y="-208.5" font-family="Helvetica,sans-Serif" font-size="10.00">alps_cmn/log/logging</text>
<text text-anchor="middle" x="1129.28" y="-197.5" font-family="Helvetica,sans-Serif" font-size="10.00">_macros.hpp</text>
</a>
</g>
</g>
<!-- Node1&#45;&gt;Node26 -->
<g id="edge36" class="edge">
<title>Node1&#45;&gt;Node26</title>
<path fill="none" stroke="midnightblue" d="M1342.68,-324.41C1320.22,-314.05 1292.53,-300.83 1268.28,-288 1230.58,-268.05 1188.47,-242.95 1160.58,-225.91"/>
<polygon fill="midnightblue" stroke="midnightblue" points="1162.41,-222.92 1152.05,-220.68 1158.75,-228.89 1162.41,-222.92"/>
</g>
<!-- Node28 -->
<g id="node28" class="node">
<title>Node28</title>
<g id="a_node28"><a xlink:href="i__rotary__sensor_8hpp.html" target="_top" xlink:title=" ">
<polygon fill="white" stroke="black" points="1503.78,-257.5 1503.78,-287.5 1642.78,-287.5 1642.78,-257.5 1503.78,-257.5"/>
<text text-anchor="start" x="1511.78" y="-275.5" font-family="Helvetica,sans-Serif" font-size="10.00">alps_cmn/sensor/i_rotary</text>
<text text-anchor="middle" x="1573.28" y="-264.5" font-family="Helvetica,sans-Serif" font-size="10.00">_sensor.hpp</text>
</a>
</g>
</g>
<!-- Node1&#45;&gt;Node28 -->
<g id="edge37" class="edge">
<title>Node1&#45;&gt;Node28</title>
<path fill="none" stroke="midnightblue" d="M1438.37,-324.36C1466,-313.95 1499.66,-301.25 1526.45,-291.15"/>
<polygon fill="midnightblue" stroke="midnightblue" points="1527.87,-294.36 1535.99,-287.56 1525.4,-287.81 1527.87,-294.36"/>
</g>
<!-- Node29 -->
<g id="node29" class="node">
<title>Node29</title>
<g id="a_node29"><a xlink:href="timeout__checker_8hpp.html" target="_top" xlink:title="タイムアウトを検知するクラス">
<polygon fill="white" stroke="black" points="1661.28,-257.5 1661.28,-287.5 1791.28,-287.5 1791.28,-257.5 1661.28,-257.5"/>
<text text-anchor="start" x="1669.28" y="-275.5" font-family="Helvetica,sans-Serif" font-size="10.00">alps_cmn/time/timeout</text>
<text text-anchor="middle" x="1726.28" y="-264.5" font-family="Helvetica,sans-Serif" font-size="10.00">_checker.hpp</text>
</a>
</g>
</g>
<!-- Node1&#45;&gt;Node29 -->
<g id="edge38" class="edge">
<title>Node1&#45;&gt;Node29</title>
<path fill="none" stroke="midnightblue" d="M1463.86,-327.91C1520.07,-316.26 1595.64,-300.59 1651.25,-289.06"/>
<polygon fill="midnightblue" stroke="midnightblue" points="1651.96,-292.49 1661.04,-287.03 1650.54,-285.63 1651.96,-292.49"/>
</g>
<!-- Node31 -->
<g id="node31" class="node">
<title>Node31</title>
<g id="a_node31"><a xlink:href="algorithm_8hpp.html" target="_top" xlink:title=" ">
<polygon fill="white" stroke="black" points="1809.78,-263 1809.78,-282 1962.78,-282 1962.78,-263 1809.78,-263"/>
<text text-anchor="middle" x="1886.28" y="-270" font-family="Helvetica,sans-Serif" font-size="10.00">alps_cmn/util/algorithm.hpp</text>
</a>
</g>
</g>
<!-- Node1&#45;&gt;Node31 -->
<g id="edge40" class="edge">
<title>Node1&#45;&gt;Node31</title>
<path fill="none" stroke="midnightblue" d="M1463.84,-334.28C1547.1,-323.66 1683.22,-305.78 1800.28,-288 1808.98,-286.68 1818.17,-285.21 1827.17,-283.73"/>
<polygon fill="midnightblue" stroke="midnightblue" points="1827.92,-287.15 1837.21,-282.06 1826.77,-280.25 1827.92,-287.15"/>
</g>
<!-- Node32 -->
<g id="node32" class="node">
<title>Node32</title>
<g id="a_node32"><a xlink:href="angle_8hpp.html" target="_top" xlink:title=" ">
<polygon fill="white" stroke="black" points="1980.78,-263 1980.78,-282 2113.78,-282 2113.78,-263 1980.78,-263"/>
<text text-anchor="middle" x="2047.28" y="-270" font-family="Helvetica,sans-Serif" font-size="10.00">alps_cmn/util/angle.hpp</text>
</a>
</g>
</g>
<!-- Node1&#45;&gt;Node32 -->
<g id="edge41" class="edge">
<title>Node1&#45;&gt;Node32</title>
<path fill="none" stroke="midnightblue" d="M1463.82,-338.96C1576.26,-331.12 1790.96,-314.13 1972.28,-288 1980.31,-286.84 1988.78,-285.41 1997.02,-283.9"/>
<polygon fill="midnightblue" stroke="midnightblue" points="1997.74,-287.33 2006.92,-282.04 1996.45,-280.45 1997.74,-287.33"/>
</g>
<!-- Node5 -->
<g id="node5" class="node">
<title>Node5</title>
<g id="a_node5"><a xlink:href="can__callback__handler_8hpp.html" target="_top" xlink:title="CANデータフレームをコールバックで処理するためのライブラリ">
<polygon fill="white" stroke="black" points="905.78,-190.5 905.78,-220.5 1050.78,-220.5 1050.78,-190.5 905.78,-190.5"/>
<text text-anchor="start" x="913.78" y="-208.5" font-family="Helvetica,sans-Serif" font-size="10.00">alps_cmn/communication</text>
<text text-anchor="middle" x="978.28" y="-197.5" font-family="Helvetica,sans-Serif" font-size="10.00">/can_callback_handler.hpp</text>
</a>
</g>
</g>
<!-- Node4&#45;&gt;Node5 -->
<g id="edge4" class="edge">
<title>Node4&#45;&gt;Node5</title>
<path fill="none" stroke="midnightblue" d="M978.28,-257.4C978.28,-249.64 978.28,-239.81 978.28,-230.86"/>
<polygon fill="midnightblue" stroke="midnightblue" points="981.78,-230.58 978.28,-220.58 974.78,-230.58 981.78,-230.58"/>
</g>
<!-- Node12 -->
<g id="node12" class="node">
<title>Node12</title>
<g id="a_node12"><a xlink:href="cobs_8hpp.html" target="_top" xlink:title="COBS変換ライブラリ">
<polygon fill="white" stroke="black" points="153.28,-190.5 153.28,-220.5 295.28,-220.5 295.28,-190.5 153.28,-190.5"/>
<text text-anchor="start" x="161.28" y="-208.5" font-family="Helvetica,sans-Serif" font-size="10.00">alps_cmn/communication</text>
<text text-anchor="middle" x="224.28" y="-197.5" font-family="Helvetica,sans-Serif" font-size="10.00">/cobs.hpp</text>
</a>
</g>
</g>
<!-- Node4&#45;&gt;Node12 -->
<g id="edge11" class="edge">
<title>Node4&#45;&gt;Node12</title>
<path fill="none" stroke="midnightblue" d="M889.57,-263.85C741.88,-251.12 447.77,-225.77 305.33,-213.49"/>
<polygon fill="midnightblue" stroke="midnightblue" points="305.6,-210 295.34,-212.63 305,-216.97 305.6,-210"/>
</g>
<!-- Node18 -->
<g id="node18" class="node">
<title>Node18</title>
<g id="a_node18"><a xlink:href="data__serializer_8hpp.html" target="_top" xlink:title="データとバイト列の変換ライブラリ">
<polygon fill="white" stroke="black" points="517.28,-190.5 517.28,-220.5 659.28,-220.5 659.28,-190.5 517.28,-190.5"/>
<text text-anchor="start" x="525.28" y="-208.5" font-family="Helvetica,sans-Serif" font-size="10.00">alps_cmn/communication</text>
<text text-anchor="middle" x="588.28" y="-197.5" font-family="Helvetica,sans-Serif" font-size="10.00">/data_serializer.hpp</text>
</a>
</g>
</g>
<!-- Node4&#45;&gt;Node18 -->
<g id="edge17" class="edge">
<title>Node4&#45;&gt;Node18</title>
<path fill="none" stroke="midnightblue" d="M894.14,-257.48C827.58,-246.38 735.22,-230.99 669.44,-220.03"/>
<polygon fill="midnightblue" stroke="midnightblue" points="669.97,-216.57 659.53,-218.37 668.82,-223.47 669.97,-216.57"/>
</g>
<!-- Node4&#45;&gt;Node26 -->
<g id="edge32" class="edge">
<title>Node4&#45;&gt;Node26</title>
<path fill="none" stroke="midnightblue" d="M1011.05,-257.4C1033.41,-247.77 1063.22,-234.94 1087.32,-224.56"/>
<polygon fill="midnightblue" stroke="midnightblue" points="1088.78,-227.75 1096.58,-220.58 1086.01,-221.32 1088.78,-227.75"/>
</g>
<!-- Node6 -->
<g id="node6" class="node">
<title>Node6</title>
<g id="a_node6"><a xlink:href="i__can__io_8hpp.html" target="_top" xlink:title=" ">
<polygon fill="white" stroke="black" points="865.28,-123.5 865.28,-153.5 1007.28,-153.5 1007.28,-123.5 865.28,-123.5"/>
<text text-anchor="start" x="873.28" y="-141.5" font-family="Helvetica,sans-Serif" font-size="10.00">alps_cmn/communication</text>
<text text-anchor="middle" x="936.28" y="-130.5" font-family="Helvetica,sans-Serif" font-size="10.00">/i_can_io.hpp</text>
</a>
</g>
</g>
<!-- Node5&#45;&gt;Node6 -->
<g id="edge5" class="edge">
<title>Node5&#45;&gt;Node6</title>
<path fill="none" stroke="midnightblue" d="M969.17,-190.4C963.83,-182.13 956.96,-171.51 950.89,-162.1"/>
<polygon fill="midnightblue" stroke="midnightblue" points="953.75,-160.08 945.38,-153.58 947.87,-163.88 953.75,-160.08"/>
</g>
<!-- Node5&#45;&gt;Node10 -->
<g id="edge9" class="edge">
<title>Node5&#45;&gt;Node10</title>
<path fill="none" stroke="midnightblue" d="M1044.51,-190.47C1096.03,-178.99 1160.25,-163.19 1169.28,-154 1185.6,-137.39 1189.34,-109.75 1189.84,-91.33"/>
<polygon fill="midnightblue" stroke="midnightblue" points="1193.34,-91.23 1189.83,-81.23 1186.34,-91.24 1193.34,-91.23"/>
</g>
<!-- Node5&#45;&gt;Node11 -->
<g id="edge10" class="edge">
<title>Node5&#45;&gt;Node11</title>
<path fill="none" stroke="midnightblue" d="M1042.58,-190.48C1097.96,-178.4 1176.73,-161.21 1227.18,-150.21"/>
<polygon fill="midnightblue" stroke="midnightblue" points="1228.16,-153.58 1237.18,-148.03 1226.67,-146.74 1228.16,-153.58"/>
</g>
<!-- Node7 -->
<g id="node7" class="node">
<title>Node7</title>
<g id="a_node7"><a xlink:href="can__data__frame_8hpp.html" target="_top" xlink:title="CANフレームを表す構造体">
<polygon fill="white" stroke="black" points="852.28,-56.5 852.28,-86.5 994.28,-86.5 994.28,-56.5 852.28,-56.5"/>
<text text-anchor="start" x="860.28" y="-74.5" font-family="Helvetica,sans-Serif" font-size="10.00">alps_cmn/communication</text>
<text text-anchor="middle" x="923.28" y="-63.5" font-family="Helvetica,sans-Serif" font-size="10.00">/can_data_frame.hpp</text>
</a>
</g>
</g>
<!-- Node6&#45;&gt;Node7 -->
<g id="edge6" class="edge">
<title>Node6&#45;&gt;Node7</title>
<path fill="none" stroke="midnightblue" d="M933.46,-123.4C931.89,-115.56 929.9,-105.6 928.1,-96.57"/>
<polygon fill="midnightblue" stroke="midnightblue" points="931.49,-95.7 926.1,-86.58 924.63,-97.07 931.49,-95.7"/>
</g>
<!-- Node8 -->
<g id="node8" class="node">
<title>Node8</title>
<g id="a_node8"><a xlink:title=" ">
<polygon fill="white" stroke="#bfbfbf" points="670.78,-0.5 670.78,-19.5 723.78,-19.5 723.78,-0.5 670.78,-0.5"/>
<text text-anchor="middle" x="697.28" y="-7.5" font-family="Helvetica,sans-Serif" font-size="10.00">stdint.h</text>
</a>
</g>
</g>
<!-- Node7&#45;&gt;Node8 -->
<g id="edge7" class="edge">
<title>Node7&#45;&gt;Node8</title>
<path fill="none" stroke="midnightblue" d="M870.01,-56.47C828.02,-45.42 770.59,-30.3 733.71,-20.59"/>
<polygon fill="midnightblue" stroke="midnightblue" points="734.45,-17.17 723.89,-18 732.67,-23.93 734.45,-17.17"/>
</g>
<!-- Node9 -->
<g id="node9" class="node">
<title>Node9</title>
<g id="a_node9"><a xlink:title=" ">
<polygon fill="white" stroke="#bfbfbf" points="750.78,-0.5 750.78,-19.5 821.78,-19.5 821.78,-0.5 750.78,-0.5"/>
<text text-anchor="middle" x="786.28" y="-7.5" font-family="Helvetica,sans-Serif" font-size="10.00">etl/vector.h</text>
</a>
</g>
</g>
<!-- Node7&#45;&gt;Node9 -->
<g id="edge8" class="edge">
<title>Node7&#45;&gt;Node9</title>
<path fill="none" stroke="midnightblue" d="M890.82,-56.4C867.93,-46.46 837.55,-33.26 815.44,-23.66"/>
<polygon fill="midnightblue" stroke="midnightblue" points="816.78,-20.43 806.22,-19.66 814,-26.85 816.78,-20.43"/>
</g>
<!-- Node13 -->
<g id="node13" class="node">
<title>Node13</title>
<g id="a_node13"><a xlink:title=" ">
<polygon fill="white" stroke="#bfbfbf" points="83.28,-129 83.28,-148 135.28,-148 135.28,-129 83.28,-129"/>
<text text-anchor="middle" x="109.28" y="-136" font-family="Helvetica,sans-Serif" font-size="10.00">cassert</text>
</a>
</g>
</g>
<!-- Node12&#45;&gt;Node13 -->
<g id="edge12" class="edge">
<title>Node12&#45;&gt;Node13</title>
<path fill="none" stroke="midnightblue" d="M199.33,-190.4C179.69,-179.29 152.49,-163.92 133.14,-152.98"/>
<polygon fill="midnightblue" stroke="midnightblue" points="134.76,-149.88 124.33,-148.01 131.32,-155.97 134.76,-149.88"/>
</g>
<!-- Node14 -->
<g id="node14" class="node">
<title>Node14</title>
<g id="a_node14"><a xlink:title=" ">
<polygon fill="white" stroke="#bfbfbf" points="345.28,-129 345.28,-148 395.28,-148 395.28,-129 345.28,-129"/>
<text text-anchor="middle" x="370.28" y="-136" font-family="Helvetica,sans-Serif" font-size="10.00">cstdint</text>
</a>
</g>
</g>
<!-- Node12&#45;&gt;Node14 -->
<g id="edge13" class="edge">
<title>Node12&#45;&gt;Node14</title>
<path fill="none" stroke="midnightblue" d="M255.96,-190.4C281.58,-178.99 317.32,-163.08 341.99,-152.1"/>
<polygon fill="midnightblue" stroke="midnightblue" points="343.46,-155.27 351.17,-148.01 340.62,-148.88 343.46,-155.27"/>
</g>
<!-- Node15 -->
<g id="node15" class="node">
<title>Node15</title>
<g id="a_node15"><a xlink:title=" ">
<polygon fill="white" stroke="#bfbfbf" points="153.28,-129 153.28,-148 199.28,-148 199.28,-129 153.28,-129"/>
<text text-anchor="middle" x="176.28" y="-136" font-family="Helvetica,sans-Serif" font-size="10.00">cstdio</text>
</a>
</g>
</g>
<!-- Node12&#45;&gt;Node15 -->
<g id="edge14" class="edge">
<title>Node12&#45;&gt;Node15</title>
<path fill="none" stroke="midnightblue" d="M213.87,-190.4C206.46,-180.36 196.47,-166.84 188.65,-156.25"/>
<polygon fill="midnightblue" stroke="midnightblue" points="191.46,-154.16 182.7,-148.19 185.83,-158.32 191.46,-154.16"/>
</g>
<!-- Node16 -->
<g id="node16" class="node">
<title>Node16</title>
<g id="a_node16"><a xlink:title=" ">
<polygon fill="white" stroke="#bfbfbf" points="15.78,-129 15.78,-148 64.78,-148 64.78,-129 15.78,-129"/>
<text text-anchor="middle" x="40.28" y="-136" font-family="Helvetica,sans-Serif" font-size="10.00">cstdlib</text>
</a>
</g>
</g>
<!-- Node12&#45;&gt;Node16 -->
<g id="edge15" class="edge">
<title>Node12&#45;&gt;Node16</title>
<path fill="none" stroke="midnightblue" d="M179.66,-190.49C149.65,-180.82 109.33,-167.35 74.28,-154 72.63,-153.37 70.95,-152.71 69.25,-152.03"/>
<polygon fill="midnightblue" stroke="midnightblue" points="70.17,-148.63 59.59,-148.05 67.5,-155.1 70.17,-148.63"/>
</g>
<!-- Node17 -->
<g id="node17" class="node">
<title>Node17</title>
<g id="a_node17"><a xlink:title=" ">
<polygon fill="white" stroke="#bfbfbf" points="217.28,-129 217.28,-148 327.28,-148 327.28,-129 217.28,-129"/>
<text text-anchor="middle" x="272.28" y="-136" font-family="Helvetica,sans-Serif" font-size="10.00">etl/circular_buffer.h</text>
</a>
</g>
</g>
<!-- Node12&#45;&gt;Node17 -->
<g id="edge16" class="edge">
<title>Node12&#45;&gt;Node17</title>
<path fill="none" stroke="midnightblue" d="M234.7,-190.4C242.11,-180.36 252.09,-166.84 259.91,-156.25"/>
<polygon fill="midnightblue" stroke="midnightblue" points="262.74,-158.32 265.86,-148.19 257.11,-154.16 262.74,-158.32"/>
</g>
<!-- Node18&#45;&gt;Node2 -->
<g id="edge19" class="edge">
<title>Node18&#45;&gt;Node2</title>
<path fill="none" stroke="midnightblue" d="M517,-194.76C490.15,-187.64 461.49,-175.32 442.28,-154 426.89,-136.92 423.27,-109.81 422.75,-91.6"/>
<polygon fill="midnightblue" stroke="midnightblue" points="426.25,-91.35 422.75,-81.35 419.25,-91.35 426.25,-91.35"/>
</g>
<!-- Node18&#45;&gt;Node14 -->
<g id="edge20" class="edge">
<title>Node18&#45;&gt;Node14</title>
<path fill="none" stroke="midnightblue" d="M534.29,-190.49C498.59,-180.93 450.88,-167.57 409.28,-154 406.88,-153.22 404.4,-152.37 401.92,-151.51"/>
<polygon fill="midnightblue" stroke="midnightblue" points="403.04,-148.19 392.45,-148.09 400.67,-154.78 403.04,-148.19"/>
</g>
<!-- Node18&#45;&gt;Node17 -->
<g id="edge31" class="edge">
<title>Node18&#45;&gt;Node17</title>
<path fill="none" stroke="midnightblue" d="M517.04,-190.72C466.52,-180.82 397.16,-166.99 336.28,-154 330.78,-152.83 325.02,-151.57 319.31,-150.3"/>
<polygon fill="midnightblue" stroke="midnightblue" points="319.66,-146.79 309.14,-148.02 318.13,-153.62 319.66,-146.79"/>
</g>
<!-- Node19 -->
<g id="node19" class="node">
<title>Node19</title>
<g id="a_node19"><a xlink:title=" ">
<polygon fill="white" stroke="#bfbfbf" points="677.28,-129 677.28,-148 741.28,-148 741.28,-129 677.28,-129"/>
<text text-anchor="middle" x="709.28" y="-136" font-family="Helvetica,sans-Serif" font-size="10.00">algorithm</text>
</a>
</g>
</g>
<!-- Node18&#45;&gt;Node19 -->
<g id="edge18" class="edge">
<title>Node18&#45;&gt;Node19</title>
<path fill="none" stroke="midnightblue" d="M614.54,-190.4C635.3,-179.24 664.08,-163.78 684.46,-152.83"/>
<polygon fill="midnightblue" stroke="midnightblue" points="686.29,-155.82 693.45,-148.01 682.98,-149.66 686.29,-155.82"/>
</g>
<!-- Node20 -->
<g id="node20" class="node">
<title>Node20</title>
<g id="a_node20"><a xlink:title=" ">
<polygon fill="white" stroke="#bfbfbf" points="759.28,-129 759.28,-148 809.28,-148 809.28,-129 759.28,-129"/>
<text text-anchor="middle" x="784.28" y="-136" font-family="Helvetica,sans-Serif" font-size="10.00">cstring</text>
</a>
</g>
</g>
<!-- Node18&#45;&gt;Node20 -->
<g id="edge21" class="edge">
<title>Node18&#45;&gt;Node20</title>
<path fill="none" stroke="midnightblue" d="M637.99,-190.42C670.27,-180.93 713.1,-167.69 750.28,-154 751.94,-153.39 753.63,-152.74 755.33,-152.08"/>
<polygon fill="midnightblue" stroke="midnightblue" points="757.07,-155.15 765,-148.12 754.42,-148.67 757.07,-155.15"/>
</g>
<!-- Node21 -->
<g id="node21" class="node">
<title>Node21</title>
<g id="a_node21"><a xlink:title=" ">
<polygon fill="white" stroke="#bfbfbf" points="451.28,-129 451.28,-148 499.28,-148 499.28,-129 451.28,-129"/>
<text text-anchor="middle" x="475.28" y="-136" font-family="Helvetica,sans-Serif" font-size="10.00">mutex</text>
</a>
</g>
</g>
<!-- Node18&#45;&gt;Node21 -->
<g id="edge22" class="edge">
<title>Node18&#45;&gt;Node21</title>
<path fill="none" stroke="midnightblue" d="M563.76,-190.4C544.55,-179.34 517.98,-164.06 498.98,-153.13"/>
<polygon fill="midnightblue" stroke="midnightblue" points="500.49,-149.96 490.07,-148.01 496.99,-156.03 500.49,-149.96"/>
</g>
<!-- Node22 -->
<g id="node22" class="node">
<title>Node22</title>
<g id="a_node22"><a xlink:title=" ">
<polygon fill="white" stroke="#bfbfbf" points="677.78,-62 677.78,-81 746.78,-81 746.78,-62 677.78,-62"/>
<text text-anchor="middle" x="712.28" y="-69" font-family="Helvetica,sans-Serif" font-size="10.00">type_traits</text>
</a>
</g>
</g>
<!-- Node18&#45;&gt;Node22 -->
<g id="edge23" class="edge">
<title>Node18&#45;&gt;Node22</title>
<path fill="none" stroke="midnightblue" d="M659.33,-198.52C719.33,-191.82 798.55,-178.53 818.28,-154 826.92,-143.26 825.64,-134.65 818.28,-123 810.08,-110.01 774.79,-94.81 747.15,-84.51"/>
<polygon fill="midnightblue" stroke="midnightblue" points="748.35,-81.22 737.75,-81.08 745.95,-87.79 748.35,-81.22"/>
</g>
<!-- Node23 -->
<g id="node23" class="node">
<title>Node23</title>
<g id="a_node23"><a xlink:href="serialize__type__info_8hpp.html" target="_top" xlink:title="DataSeializerで変換する型に関する情報">
<polygon fill="white" stroke="black" points="517.28,-123.5 517.28,-153.5 659.28,-153.5 659.28,-123.5 517.28,-123.5"/>
<text text-anchor="start" x="525.28" y="-141.5" font-family="Helvetica,sans-Serif" font-size="10.00">alps_cmn/communication</text>
<text text-anchor="middle" x="588.28" y="-130.5" font-family="Helvetica,sans-Serif" font-size="10.00">/serialize_type_info.hpp</text>
</a>
</g>
</g>
<!-- Node18&#45;&gt;Node23 -->
<g id="edge24" class="edge">
<title>Node18&#45;&gt;Node23</title>
<path fill="none" stroke="midnightblue" d="M588.28,-190.4C588.28,-182.64 588.28,-172.81 588.28,-163.86"/>
<polygon fill="midnightblue" stroke="midnightblue" points="591.78,-163.58 588.28,-153.58 584.78,-163.58 591.78,-163.58"/>
</g>
<!-- Node23&#45;&gt;Node2 -->
<g id="edge26" class="edge">
<title>Node23&#45;&gt;Node2</title>
<path fill="none" stroke="midnightblue" d="M552.48,-123.4C523.1,-111.82 481.95,-95.61 454.04,-84.62"/>
<polygon fill="midnightblue" stroke="midnightblue" points="454.99,-81.23 444.41,-80.82 452.43,-87.74 454.99,-81.23"/>
</g>
<!-- Node23&#45;&gt;Node8 -->
<g id="edge25" class="edge">
<title>Node23&#45;&gt;Node8</title>
<path fill="none" stroke="midnightblue" d="M578.92,-123.2C568.82,-105.8 555.98,-76.24 570.28,-56 590.57,-27.29 630.8,-16.78 660.57,-13"/>
<polygon fill="midnightblue" stroke="midnightblue" points="661.05,-16.47 670.62,-11.92 660.3,-9.51 661.05,-16.47"/>
</g>
<!-- Node23&#45;&gt;Node9 -->
<g id="edge30" class="edge">
<title>Node23&#45;&gt;Node9</title>
<path fill="none" stroke="midnightblue" d="M599.01,-123.28C613.14,-105.4 639.58,-74.78 668.28,-56 691.24,-40.98 719.94,-29.89 743.29,-22.48"/>
<polygon fill="midnightblue" stroke="midnightblue" points="744.4,-25.8 752.94,-19.53 742.35,-19.11 744.4,-25.8"/>
</g>
<!-- Node23&#45;&gt;Node22 -->
<g id="edge28" class="edge">
<title>Node23&#45;&gt;Node22</title>
<path fill="none" stroke="midnightblue" d="M615.19,-123.4C636.56,-112.19 666.23,-96.64 687.13,-85.69"/>
<polygon fill="midnightblue" stroke="midnightblue" points="688.82,-88.75 696.05,-81.01 685.57,-82.55 688.82,-88.75"/>
</g>
<!-- Node24 -->
<g id="node24" class="node">
<title>Node24</title>
<g id="a_node24"><a xlink:title=" ">
<polygon fill="white" stroke="#bfbfbf" points="579.78,-62 579.78,-81 620.78,-81 620.78,-62 579.78,-62"/>
<text text-anchor="middle" x="600.28" y="-69" font-family="Helvetica,sans-Serif" font-size="10.00">tuple</text>
</a>
</g>
</g>
<!-- Node23&#45;&gt;Node24 -->
<g id="edge27" class="edge">
<title>Node23&#45;&gt;Node24</title>
<path fill="none" stroke="midnightblue" d="M590.89,-123.4C592.63,-113.96 594.94,-101.45 596.83,-91.19"/>
<polygon fill="midnightblue" stroke="midnightblue" points="600.3,-91.66 598.68,-81.19 593.42,-90.39 600.3,-91.66"/>
</g>
<!-- Node25 -->
<g id="node25" class="node">
<title>Node25</title>
<g id="a_node25"><a xlink:title=" ">
<polygon fill="white" stroke="#bfbfbf" points="764.78,-62 764.78,-81 833.78,-81 833.78,-62 764.78,-62"/>
<text text-anchor="middle" x="799.28" y="-69" font-family="Helvetica,sans-Serif" font-size="10.00">etl/string.h</text>
</a>
</g>
</g>
<!-- Node23&#45;&gt;Node25 -->
<g id="edge29" class="edge">
<title>Node23&#45;&gt;Node25</title>
<path fill="none" stroke="midnightblue" d="M635.89,-123.44C669.35,-113.48 715.14,-99.68 755.28,-87 758.18,-86.08 761.18,-85.12 764.19,-84.15"/>
<polygon fill="midnightblue" stroke="midnightblue" points="765.3,-87.47 773.72,-81.04 763.13,-80.81 765.3,-87.47"/>
</g>
<!-- Node27 -->
<g id="node27" class="node">
<title>Node27</title>
<g id="a_node27"><a xlink:href="logger_8hpp.html" target="_top" xlink:title=" ">
<polygon fill="white" stroke="black" points="1025.78,-129 1025.78,-148 1160.78,-148 1160.78,-129 1025.78,-129"/>
<text text-anchor="middle" x="1093.28" y="-136" font-family="Helvetica,sans-Serif" font-size="10.00">alps_cmn/log/logger.hpp</text>
</a>
</g>
</g>
<!-- Node26&#45;&gt;Node27 -->
<g id="edge33" class="edge">
<title>Node26&#45;&gt;Node27</title>
<path fill="none" stroke="midnightblue" d="M1121.47,-190.4C1116.08,-180.66 1108.87,-167.65 1103.09,-157.21"/>
<polygon fill="midnightblue" stroke="midnightblue" points="1106.01,-155.25 1098.1,-148.19 1099.88,-158.64 1106.01,-155.25"/>
</g>
<!-- Node27&#45;&gt;Node10 -->
<g id="edge34" class="edge">
<title>Node27&#45;&gt;Node10</title>
<path fill="none" stroke="midnightblue" d="M1106.23,-128.73C1122.14,-117.96 1149.33,-99.55 1168.25,-86.74"/>
<polygon fill="midnightblue" stroke="midnightblue" points="1170.22,-89.63 1176.54,-81.13 1166.3,-83.84 1170.22,-89.63"/>
</g>
<!-- Node27&#45;&gt;Node25 -->
<g id="edge35" class="edge">
<title>Node27&#45;&gt;Node25</title>
<path fill="none" stroke="midnightblue" d="M1047.64,-128.96C986.47,-117.39 881.22,-97.04 843.28,-87 840.09,-86.16 836.8,-85.21 833.51,-84.22"/>
<polygon fill="midnightblue" stroke="midnightblue" points="834.39,-80.82 823.8,-81.15 832.28,-87.5 834.39,-80.82"/>
</g>
<!-- Node30 -->
<g id="node30" class="node">
<title>Node30</title>
<g id="a_node30"><a xlink:title=" ">
<polygon fill="white" stroke="#bfbfbf" points="1701.28,-196 1701.28,-215 1751.28,-215 1751.28,-196 1701.28,-196"/>
<text text-anchor="middle" x="1726.28" y="-203" font-family="Helvetica,sans-Serif" font-size="10.00">chrono</text>
</a>
</g>
</g>
<!-- Node29&#45;&gt;Node30 -->
<g id="edge39" class="edge">
<title>Node29&#45;&gt;Node30</title>
<path fill="none" stroke="midnightblue" d="M1726.28,-257.4C1726.28,-248.06 1726.28,-235.71 1726.28,-225.52"/>
<polygon fill="midnightblue" stroke="midnightblue" points="1729.78,-225.19 1726.28,-215.19 1722.78,-225.19 1729.78,-225.19"/>
</g>
</g>
</svg>
