<?xml version="1.0" encoding="UTF-8" standalone="no"?>
<!DOCTYPE svg PUBLIC "-//W3C//DTD SVG 1.1//EN"
 "http://www.w3.org/Graphics/SVG/1.1/DTD/svg11.dtd">
<!-- Generated by graphviz version 2.43.0 (0)
 -->
<!-- Title: alps_common_lib/include/alps_cmn/actuator/robomas_motors_can_port.hpp Pages: 1 -->
<svg width="1468pt" height="374pt"
 viewBox="0.00 0.00 1468.00 374.00" xmlns="http://www.w3.org/2000/svg" xmlns:xlink="http://www.w3.org/1999/xlink">
<g id="graph0" class="graph" transform="scale(1 1) rotate(0) translate(4 370)">
<title>alps_common_lib/include/alps_cmn/actuator/robomas_motors_can_port.hpp</title>
<polygon fill="white" stroke="transparent" points="-4,4 -4,-370 1464,-370 1464,4 -4,4"/>
<!-- Node1 -->
<g id="node1" class="node">
<title>Node1</title>
<g id="a_node1"><a xlink:title=" ">
<polygon fill="#bfbfbf" stroke="black" points="423,-324.5 423,-365.5 578,-365.5 578,-324.5 423,-324.5"/>
<text text-anchor="start" x="431" y="-353.5" font-family="Helvetica,sans-Serif" font-size="10.00">alps_common_lib/include</text>
<text text-anchor="start" x="431" y="-342.5" font-family="Helvetica,sans-Serif" font-size="10.00">/alps_cmn/actuator/robomas</text>
<text text-anchor="middle" x="500.5" y="-331.5" font-family="Helvetica,sans-Serif" font-size="10.00">_motors_can_port.hpp</text>
</a>
</g>
</g>
<!-- Node2 -->
<g id="node2" class="node">
<title>Node2</title>
<g id="a_node2"><a xlink:href="robomas__motor_8hpp.html" target="_top" xlink:title="ロボマスモータのライブラリ">
<polygon fill="white" stroke="black" points="114.5,-257.5 114.5,-287.5 266.5,-287.5 266.5,-257.5 114.5,-257.5"/>
<text text-anchor="start" x="122.5" y="-275.5" font-family="Helvetica,sans-Serif" font-size="10.00">alps_cmn/actuator/robomas</text>
<text text-anchor="middle" x="190.5" y="-264.5" font-family="Helvetica,sans-Serif" font-size="10.00">_motor.hpp</text>
</a>
</g>
</g>
<!-- Node1&#45;&gt;Node2 -->
<g id="edge1" class="edge">
<title>Node1&#45;&gt;Node2</title>
<path fill="none" stroke="midnightblue" d="M422.67,-326.3C373.45,-315.11 310.27,-300.74 262.26,-289.82"/>
<polygon fill="midnightblue" stroke="midnightblue" points="262.78,-286.35 252.25,-287.54 261.23,-293.17 262.78,-286.35"/>
</g>
<!-- Node8 -->
<g id="node8" class="node">
<title>Node8</title>
<g id="a_node8"><a xlink:href="can__typed__data__transceiver_8hpp.html" target="_top" xlink:title="CAN通信で型付けされたデータの送受信を行うライブラリ">
<polygon fill="white" stroke="black" points="550,-257.5 550,-287.5 727,-287.5 727,-257.5 550,-257.5"/>
<text text-anchor="start" x="558" y="-275.5" font-family="Helvetica,sans-Serif" font-size="10.00">alps_cmn/communication</text>
<text text-anchor="middle" x="638.5" y="-264.5" font-family="Helvetica,sans-Serif" font-size="10.00">/can_typed_data_transceiver.hpp</text>
</a>
</g>
</g>
<!-- Node1&#45;&gt;Node8 -->
<g id="edge7" class="edge">
<title>Node1&#45;&gt;Node8</title>
<path fill="none" stroke="midnightblue" d="M538.94,-324.36C558.54,-314.35 582.27,-302.23 601.64,-292.33"/>
<polygon fill="midnightblue" stroke="midnightblue" points="603.45,-295.34 610.76,-287.67 600.27,-289.1 603.45,-295.34"/>
</g>
<!-- Node12 -->
<g id="node12" class="node">
<title>Node12</title>
<g id="a_node12"><a xlink:title=" ">
<polygon fill="white" stroke="#bfbfbf" points="431.5,-129 431.5,-148 549.5,-148 549.5,-129 431.5,-129"/>
<text text-anchor="middle" x="490.5" y="-136" font-family="Helvetica,sans-Serif" font-size="10.00">etl/unordered_map.h</text>
</a>
</g>
</g>
<!-- Node1&#45;&gt;Node12 -->
<g id="edge34" class="edge">
<title>Node1&#45;&gt;Node12</title>
<path fill="none" stroke="midnightblue" d="M499.54,-324.39C497.62,-285.07 493.31,-197.06 491.42,-158.36"/>
<polygon fill="midnightblue" stroke="midnightblue" points="494.9,-157.86 490.92,-148.04 487.91,-158.2 494.9,-157.86"/>
</g>
<!-- Node3 -->
<g id="node3" class="node">
<title>Node3</title>
<g id="a_node3"><a xlink:href="i__motor_8hpp.html" target="_top" xlink:title=" ">
<polygon fill="white" stroke="black" points="0,-190.5 0,-220.5 113,-220.5 113,-190.5 0,-190.5"/>
<text text-anchor="start" x="8" y="-208.5" font-family="Helvetica,sans-Serif" font-size="10.00">alps_cmn/actuator/i</text>
<text text-anchor="middle" x="56.5" y="-197.5" font-family="Helvetica,sans-Serif" font-size="10.00">_motor.hpp</text>
</a>
</g>
</g>
<!-- Node2&#45;&gt;Node3 -->
<g id="edge2" class="edge">
<title>Node2&#45;&gt;Node3</title>
<path fill="none" stroke="midnightblue" d="M161.42,-257.4C141.85,-247.9 115.82,-235.28 94.59,-224.98"/>
<polygon fill="midnightblue" stroke="midnightblue" points="96.04,-221.79 85.52,-220.58 92.99,-228.09 96.04,-221.79"/>
</g>
<!-- Node4 -->
<g id="node4" class="node">
<title>Node4</title>
<g id="a_node4"><a xlink:href="can__data__frame_8hpp.html" target="_top" xlink:title="CANフレームを表す構造体">
<polygon fill="white" stroke="black" points="558.5,-56.5 558.5,-86.5 700.5,-86.5 700.5,-56.5 558.5,-56.5"/>
<text text-anchor="start" x="566.5" y="-74.5" font-family="Helvetica,sans-Serif" font-size="10.00">alps_cmn/communication</text>
<text text-anchor="middle" x="629.5" y="-63.5" font-family="Helvetica,sans-Serif" font-size="10.00">/can_data_frame.hpp</text>
</a>
</g>
</g>
<!-- Node2&#45;&gt;Node4 -->
<g id="edge3" class="edge">
<title>Node2&#45;&gt;Node4</title>
<path fill="none" stroke="midnightblue" d="M179.33,-257.43C172.41,-247.79 164.17,-234.37 160.5,-221 148.97,-179 131.4,-155.41 160.5,-123 185.87,-94.75 420.67,-80.93 548.11,-75.45"/>
<polygon fill="midnightblue" stroke="midnightblue" points="548.38,-78.95 558.22,-75.03 548.08,-71.95 548.38,-78.95"/>
</g>
<!-- Node7 -->
<g id="node7" class="node">
<title>Node7</title>
<g id="a_node7"><a xlink:href="i__rotary__sensor_8hpp.html" target="_top" xlink:title=" ">
<polygon fill="white" stroke="black" points="170,-190.5 170,-220.5 309,-220.5 309,-190.5 170,-190.5"/>
<text text-anchor="start" x="178" y="-208.5" font-family="Helvetica,sans-Serif" font-size="10.00">alps_cmn/sensor/i_rotary</text>
<text text-anchor="middle" x="239.5" y="-197.5" font-family="Helvetica,sans-Serif" font-size="10.00">_sensor.hpp</text>
</a>
</g>
</g>
<!-- Node2&#45;&gt;Node7 -->
<g id="edge6" class="edge">
<title>Node2&#45;&gt;Node7</title>
<path fill="none" stroke="midnightblue" d="M201.13,-257.4C207.42,-249.05 215.54,-238.29 222.68,-228.81"/>
<polygon fill="midnightblue" stroke="midnightblue" points="225.66,-230.67 228.89,-220.58 220.07,-226.45 225.66,-230.67"/>
</g>
<!-- Node5 -->
<g id="node5" class="node">
<title>Node5</title>
<g id="a_node5"><a xlink:title=" ">
<polygon fill="white" stroke="#bfbfbf" points="729,-0.5 729,-19.5 782,-19.5 782,-0.5 729,-0.5"/>
<text text-anchor="middle" x="755.5" y="-7.5" font-family="Helvetica,sans-Serif" font-size="10.00">stdint.h</text>
</a>
</g>
</g>
<!-- Node4&#45;&gt;Node5 -->
<g id="edge4" class="edge">
<title>Node4&#45;&gt;Node5</title>
<path fill="none" stroke="midnightblue" d="M659.36,-56.4C680.12,-46.59 707.6,-33.62 727.86,-24.05"/>
<polygon fill="midnightblue" stroke="midnightblue" points="729.62,-27.09 737.17,-19.66 726.63,-20.76 729.62,-27.09"/>
</g>
<!-- Node6 -->
<g id="node6" class="node">
<title>Node6</title>
<g id="a_node6"><a xlink:title=" ">
<polygon fill="white" stroke="#bfbfbf" points="863,-0.5 863,-19.5 934,-19.5 934,-0.5 863,-0.5"/>
<text text-anchor="middle" x="898.5" y="-7.5" font-family="Helvetica,sans-Serif" font-size="10.00">etl/vector.h</text>
</a>
</g>
</g>
<!-- Node4&#45;&gt;Node6 -->
<g id="edge5" class="edge">
<title>Node4&#45;&gt;Node6</title>
<path fill="none" stroke="midnightblue" d="M692.91,-56.47C742.05,-45.61 808.95,-30.81 852.91,-21.08"/>
<polygon fill="midnightblue" stroke="midnightblue" points="853.74,-24.49 862.74,-18.91 852.22,-17.65 853.74,-24.49"/>
</g>
<!-- Node9 -->
<g id="node9" class="node">
<title>Node9</title>
<g id="a_node9"><a xlink:href="can__callback__handler_8hpp.html" target="_top" xlink:title="CANデータフレームをコールバックで処理するためのライブラリ">
<polygon fill="white" stroke="black" points="327,-190.5 327,-220.5 472,-220.5 472,-190.5 327,-190.5"/>
<text text-anchor="start" x="335" y="-208.5" font-family="Helvetica,sans-Serif" font-size="10.00">alps_cmn/communication</text>
<text text-anchor="middle" x="399.5" y="-197.5" font-family="Helvetica,sans-Serif" font-size="10.00">/can_callback_handler.hpp</text>
</a>
</g>
</g>
<!-- Node8&#45;&gt;Node9 -->
<g id="edge8" class="edge">
<title>Node8&#45;&gt;Node9</title>
<path fill="none" stroke="midnightblue" d="M586.93,-257.48C550,-247.43 500.09,-233.86 461.06,-223.24"/>
<polygon fill="midnightblue" stroke="midnightblue" points="461.95,-219.86 451.38,-220.61 460.12,-226.61 461.95,-219.86"/>
</g>
<!-- Node13 -->
<g id="node13" class="node">
<title>Node13</title>
<g id="a_node13"><a xlink:href="cobs_8hpp.html" target="_top" xlink:title="COBS変換ライブラリ">
<polygon fill="white" stroke="black" points="622.5,-190.5 622.5,-220.5 764.5,-220.5 764.5,-190.5 622.5,-190.5"/>
<text text-anchor="start" x="630.5" y="-208.5" font-family="Helvetica,sans-Serif" font-size="10.00">alps_cmn/communication</text>
<text text-anchor="middle" x="693.5" y="-197.5" font-family="Helvetica,sans-Serif" font-size="10.00">/cobs.hpp</text>
</a>
</g>
</g>
<!-- Node8&#45;&gt;Node13 -->
<g id="edge13" class="edge">
<title>Node8&#45;&gt;Node13</title>
<path fill="none" stroke="midnightblue" d="M650.43,-257.4C657.64,-248.88 666.98,-237.85 675.11,-228.23"/>
<polygon fill="midnightblue" stroke="midnightblue" points="677.8,-230.47 681.59,-220.58 672.46,-225.95 677.8,-230.47"/>
</g>
<!-- Node19 -->
<g id="node19" class="node">
<title>Node19</title>
<g id="a_node19"><a xlink:href="data__serializer_8hpp.html" target="_top" xlink:title="データとバイト列の変換ライブラリ">
<polygon fill="white" stroke="black" points="986.5,-190.5 986.5,-220.5 1128.5,-220.5 1128.5,-190.5 986.5,-190.5"/>
<text text-anchor="start" x="994.5" y="-208.5" font-family="Helvetica,sans-Serif" font-size="10.00">alps_cmn/communication</text>
<text text-anchor="middle" x="1057.5" y="-197.5" font-family="Helvetica,sans-Serif" font-size="10.00">/data_serializer.hpp</text>
</a>
</g>
</g>
<!-- Node8&#45;&gt;Node19 -->
<g id="edge19" class="edge">
<title>Node8&#45;&gt;Node19</title>
<path fill="none" stroke="midnightblue" d="M727.1,-257.75C800.7,-246.34 904.55,-230.23 976.07,-219.13"/>
<polygon fill="midnightblue" stroke="midnightblue" points="977.04,-222.52 986.39,-217.53 975.97,-215.61 977.04,-222.52"/>
</g>
<!-- Node10 -->
<g id="node10" class="node">
<title>Node10</title>
<g id="a_node10"><a xlink:href="i__can__io_8hpp.html" target="_top" xlink:title=" ">
<polygon fill="white" stroke="black" points="169.5,-123.5 169.5,-153.5 311.5,-153.5 311.5,-123.5 169.5,-123.5"/>
<text text-anchor="start" x="177.5" y="-141.5" font-family="Helvetica,sans-Serif" font-size="10.00">alps_cmn/communication</text>
<text text-anchor="middle" x="240.5" y="-130.5" font-family="Helvetica,sans-Serif" font-size="10.00">/i_can_io.hpp</text>
</a>
</g>
</g>
<!-- Node9&#45;&gt;Node10 -->
<g id="edge9" class="edge">
<title>Node9&#45;&gt;Node10</title>
<path fill="none" stroke="midnightblue" d="M365,-190.4C341.35,-180.73 309.78,-167.82 284.35,-157.43"/>
<polygon fill="midnightblue" stroke="midnightblue" points="285.51,-154.12 274.93,-153.58 282.87,-160.6 285.51,-154.12"/>
</g>
<!-- Node11 -->
<g id="node11" class="node">
<title>Node11</title>
<g id="a_node11"><a xlink:title=" ">
<polygon fill="white" stroke="#bfbfbf" points="329.5,-129 329.5,-148 413.5,-148 413.5,-129 329.5,-129"/>
<text text-anchor="middle" x="371.5" y="-136" font-family="Helvetica,sans-Serif" font-size="10.00">etl/delegate.h</text>
</a>
</g>
</g>
<!-- Node9&#45;&gt;Node11 -->
<g id="edge11" class="edge">
<title>Node9&#45;&gt;Node11</title>
<path fill="none" stroke="midnightblue" d="M393.42,-190.4C389.27,-180.76 383.74,-167.91 379.27,-157.54"/>
<polygon fill="midnightblue" stroke="midnightblue" points="382.42,-155.99 375.25,-148.19 375.99,-158.76 382.42,-155.99"/>
</g>
<!-- Node9&#45;&gt;Node12 -->
<g id="edge12" class="edge">
<title>Node9&#45;&gt;Node12</title>
<path fill="none" stroke="midnightblue" d="M419.25,-190.4C434.36,-179.6 455.14,-164.76 470.36,-153.89"/>
<polygon fill="midnightblue" stroke="midnightblue" points="472.49,-156.67 478.59,-148.01 468.42,-150.97 472.49,-156.67"/>
</g>
<!-- Node10&#45;&gt;Node4 -->
<g id="edge10" class="edge">
<title>Node10&#45;&gt;Node4</title>
<path fill="none" stroke="midnightblue" d="M311.59,-124.55C314.6,-124.02 317.58,-123.5 320.5,-123 397.63,-109.71 485.75,-95.39 548.09,-85.41"/>
<polygon fill="midnightblue" stroke="midnightblue" points="548.94,-88.82 558.26,-83.78 547.83,-81.91 548.94,-88.82"/>
</g>
<!-- Node14 -->
<g id="node14" class="node">
<title>Node14</title>
<g id="a_node14"><a xlink:title=" ">
<polygon fill="white" stroke="#bfbfbf" points="567.5,-129 567.5,-148 619.5,-148 619.5,-129 567.5,-129"/>
<text text-anchor="middle" x="593.5" y="-136" font-family="Helvetica,sans-Serif" font-size="10.00">cassert</text>
</a>
</g>
</g>
<!-- Node13&#45;&gt;Node14 -->
<g id="edge14" class="edge">
<title>Node13&#45;&gt;Node14</title>
<path fill="none" stroke="midnightblue" d="M671.8,-190.4C655.03,-179.5 631.93,-164.48 615.17,-153.58"/>
<polygon fill="midnightblue" stroke="midnightblue" points="616.88,-150.52 606.59,-148.01 613.06,-156.39 616.88,-150.52"/>
</g>
<!-- Node15 -->
<g id="node15" class="node">
<title>Node15</title>
<g id="a_node15"><a xlink:title=" ">
<polygon fill="white" stroke="#bfbfbf" points="769.5,-129 769.5,-148 819.5,-148 819.5,-129 769.5,-129"/>
<text text-anchor="middle" x="794.5" y="-136" font-family="Helvetica,sans-Serif" font-size="10.00">cstdint</text>
</a>
</g>
</g>
<!-- Node13&#45;&gt;Node15 -->
<g id="edge15" class="edge">
<title>Node13&#45;&gt;Node15</title>
<path fill="none" stroke="midnightblue" d="M715.42,-190.4C732.35,-179.5 755.69,-164.48 772.62,-153.58"/>
<polygon fill="midnightblue" stroke="midnightblue" points="774.77,-156.36 781.28,-148.01 770.98,-150.48 774.77,-156.36"/>
</g>
<!-- Node16 -->
<g id="node16" class="node">
<title>Node16</title>
<g id="a_node16"><a xlink:title=" ">
<polygon fill="white" stroke="#bfbfbf" points="637.5,-129 637.5,-148 683.5,-148 683.5,-129 637.5,-129"/>
<text text-anchor="middle" x="660.5" y="-136" font-family="Helvetica,sans-Serif" font-size="10.00">cstdio</text>
</a>
</g>
</g>
<!-- Node13&#45;&gt;Node16 -->
<g id="edge16" class="edge">
<title>Node13&#45;&gt;Node16</title>
<path fill="none" stroke="midnightblue" d="M686.34,-190.4C681.4,-180.66 674.79,-167.65 669.49,-157.21"/>
<polygon fill="midnightblue" stroke="midnightblue" points="672.56,-155.53 664.91,-148.19 666.32,-158.7 672.56,-155.53"/>
</g>
<!-- Node17 -->
<g id="node17" class="node">
<title>Node17</title>
<g id="a_node17"><a xlink:title=" ">
<polygon fill="white" stroke="#bfbfbf" points="702,-129 702,-148 751,-148 751,-129 702,-129"/>
<text text-anchor="middle" x="726.5" y="-136" font-family="Helvetica,sans-Serif" font-size="10.00">cstdlib</text>
</a>
</g>
</g>
<!-- Node13&#45;&gt;Node17 -->
<g id="edge17" class="edge">
<title>Node13&#45;&gt;Node17</title>
<path fill="none" stroke="midnightblue" d="M700.66,-190.4C705.6,-180.66 712.21,-167.65 717.51,-157.21"/>
<polygon fill="midnightblue" stroke="midnightblue" points="720.68,-158.7 722.09,-148.19 714.44,-155.53 720.68,-158.7"/>
</g>
<!-- Node18 -->
<g id="node18" class="node">
<title>Node18</title>
<g id="a_node18"><a xlink:title=" ">
<polygon fill="white" stroke="#bfbfbf" points="837.5,-129 837.5,-148 947.5,-148 947.5,-129 837.5,-129"/>
<text text-anchor="middle" x="892.5" y="-136" font-family="Helvetica,sans-Serif" font-size="10.00">etl/circular_buffer.h</text>
</a>
</g>
</g>
<!-- Node13&#45;&gt;Node18 -->
<g id="edge18" class="edge">
<title>Node13&#45;&gt;Node18</title>
<path fill="none" stroke="midnightblue" d="M736.68,-190.4C772.52,-178.69 822.91,-162.23 856.58,-151.23"/>
<polygon fill="midnightblue" stroke="midnightblue" points="858.04,-154.44 866.46,-148.01 855.86,-147.78 858.04,-154.44"/>
</g>
<!-- Node19&#45;&gt;Node15 -->
<g id="edge22" class="edge">
<title>Node19&#45;&gt;Node15</title>
<path fill="none" stroke="midnightblue" d="M986.44,-192.37C940.76,-183.7 880.45,-170.65 828.5,-154 826.58,-153.38 824.61,-152.7 822.64,-151.97"/>
<polygon fill="midnightblue" stroke="midnightblue" points="823.55,-148.57 812.97,-148.11 820.96,-155.07 823.55,-148.57"/>
</g>
<!-- Node19&#45;&gt;Node18 -->
<g id="edge33" class="edge">
<title>Node19&#45;&gt;Node18</title>
<path fill="none" stroke="midnightblue" d="M1021.7,-190.4C992.49,-178.89 951.64,-162.8 923.74,-151.81"/>
<polygon fill="midnightblue" stroke="midnightblue" points="924.68,-148.42 914.09,-148.01 922.12,-154.93 924.68,-148.42"/>
</g>
<!-- Node20 -->
<g id="node20" class="node">
<title>Node20</title>
<g id="a_node20"><a xlink:title=" ">
<polygon fill="white" stroke="#bfbfbf" points="965.5,-129 965.5,-148 1029.5,-148 1029.5,-129 965.5,-129"/>
<text text-anchor="middle" x="997.5" y="-136" font-family="Helvetica,sans-Serif" font-size="10.00">algorithm</text>
</a>
</g>
</g>
<!-- Node19&#45;&gt;Node20 -->
<g id="edge20" class="edge">
<title>Node19&#45;&gt;Node20</title>
<path fill="none" stroke="midnightblue" d="M1044.48,-190.4C1035.03,-180.16 1022.23,-166.3 1012.38,-155.62"/>
<polygon fill="midnightblue" stroke="midnightblue" points="1014.88,-153.17 1005.53,-148.19 1009.74,-157.92 1014.88,-153.17"/>
</g>
<!-- Node21 -->
<g id="node21" class="node">
<title>Node21</title>
<g id="a_node21"><a xlink:title=" ">
<polygon fill="white" stroke="#bfbfbf" points="1071.5,-62 1071.5,-81 1113.5,-81 1113.5,-62 1071.5,-62"/>
<text text-anchor="middle" x="1092.5" y="-69" font-family="Helvetica,sans-Serif" font-size="10.00">array</text>
</a>
</g>
</g>
<!-- Node19&#45;&gt;Node21 -->
<g id="edge21" class="edge">
<title>Node19&#45;&gt;Node21</title>
<path fill="none" stroke="midnightblue" d="M1060.46,-190.28C1063.95,-173.95 1070.08,-146.4 1076.5,-123 1079.47,-112.17 1083.25,-100.19 1086.38,-90.62"/>
<polygon fill="midnightblue" stroke="midnightblue" points="1089.74,-91.61 1089.58,-81.02 1083.1,-89.4 1089.74,-91.61"/>
</g>
<!-- Node22 -->
<g id="node22" class="node">
<title>Node22</title>
<g id="a_node22"><a xlink:title=" ">
<polygon fill="white" stroke="#bfbfbf" points="1085.5,-129 1085.5,-148 1135.5,-148 1135.5,-129 1085.5,-129"/>
<text text-anchor="middle" x="1110.5" y="-136" font-family="Helvetica,sans-Serif" font-size="10.00">cstring</text>
</a>
</g>
</g>
<!-- Node19&#45;&gt;Node22 -->
<g id="edge23" class="edge">
<title>Node19&#45;&gt;Node22</title>
<path fill="none" stroke="midnightblue" d="M1069,-190.4C1077.18,-180.36 1088.21,-166.84 1096.84,-156.25"/>
<polygon fill="midnightblue" stroke="midnightblue" points="1099.8,-158.16 1103.41,-148.19 1094.38,-153.73 1099.8,-158.16"/>
</g>
<!-- Node23 -->
<g id="node23" class="node">
<title>Node23</title>
<g id="a_node23"><a xlink:title=" ">
<polygon fill="white" stroke="#bfbfbf" points="1153.5,-129 1153.5,-148 1201.5,-148 1201.5,-129 1153.5,-129"/>
<text text-anchor="middle" x="1177.5" y="-136" font-family="Helvetica,sans-Serif" font-size="10.00">mutex</text>
</a>
</g>
</g>
<!-- Node19&#45;&gt;Node23 -->
<g id="edge24" class="edge">
<title>Node19&#45;&gt;Node23</title>
<path fill="none" stroke="midnightblue" d="M1083.54,-190.4C1104.13,-179.24 1132.67,-163.78 1152.88,-152.83"/>
<polygon fill="midnightblue" stroke="midnightblue" points="1154.67,-155.85 1161.79,-148.01 1151.33,-149.69 1154.67,-155.85"/>
</g>
<!-- Node24 -->
<g id="node24" class="node">
<title>Node24</title>
<g id="a_node24"><a xlink:title=" ">
<polygon fill="white" stroke="#bfbfbf" points="1168,-62 1168,-81 1237,-81 1237,-62 1168,-62"/>
<text text-anchor="middle" x="1202.5" y="-69" font-family="Helvetica,sans-Serif" font-size="10.00">type_traits</text>
</a>
</g>
</g>
<!-- Node19&#45;&gt;Node24 -->
<g id="edge25" class="edge">
<title>Node19&#45;&gt;Node24</title>
<path fill="none" stroke="midnightblue" d="M1128.86,-199.06C1159.15,-192.79 1191.73,-179.95 1210.5,-154 1223.87,-135.51 1217.33,-108.17 1210.59,-90.34"/>
<polygon fill="midnightblue" stroke="midnightblue" points="1213.82,-88.98 1206.75,-81.09 1207.35,-91.66 1213.82,-88.98"/>
</g>
<!-- Node25 -->
<g id="node25" class="node">
<title>Node25</title>
<g id="a_node25"><a xlink:href="serialize__type__info_8hpp.html" target="_top" xlink:title="DataSeializerで変換する型に関する情報">
<polygon fill="white" stroke="black" points="1257.5,-123.5 1257.5,-153.5 1399.5,-153.5 1399.5,-123.5 1257.5,-123.5"/>
<text text-anchor="start" x="1265.5" y="-141.5" font-family="Helvetica,sans-Serif" font-size="10.00">alps_cmn/communication</text>
<text text-anchor="middle" x="1328.5" y="-130.5" font-family="Helvetica,sans-Serif" font-size="10.00">/serialize_type_info.hpp</text>
</a>
</g>
</g>
<!-- Node19&#45;&gt;Node25 -->
<g id="edge26" class="edge">
<title>Node19&#45;&gt;Node25</title>
<path fill="none" stroke="midnightblue" d="M1115.97,-190.48C1158.21,-180.34 1215.4,-166.63 1259.82,-155.97"/>
<polygon fill="midnightblue" stroke="midnightblue" points="1260.76,-159.35 1269.67,-153.61 1259.13,-152.54 1260.76,-159.35"/>
</g>
<!-- Node25&#45;&gt;Node5 -->
<g id="edge27" class="edge">
<title>Node25&#45;&gt;Node5</title>
<path fill="none" stroke="midnightblue" d="M1314.77,-123.36C1292.55,-100.56 1250.75,-57.98 1246.5,-56 1167.04,-18.9 940.83,-28.01 853.5,-20 833.21,-18.14 810.56,-16.06 792.14,-14.37"/>
<polygon fill="midnightblue" stroke="midnightblue" points="792.4,-10.88 782.12,-13.45 791.76,-17.85 792.4,-10.88"/>
</g>
<!-- Node25&#45;&gt;Node6 -->
<g id="edge32" class="edge">
<title>Node25&#45;&gt;Node6</title>
<path fill="none" stroke="midnightblue" d="M1324.29,-123.22C1317.92,-104.38 1303.91,-71.77 1279.5,-56 1225.01,-20.8 1032.86,-13.11 944.09,-11.45"/>
<polygon fill="midnightblue" stroke="midnightblue" points="944.1,-7.95 934.04,-11.28 943.98,-14.95 944.1,-7.95"/>
</g>
<!-- Node25&#45;&gt;Node21 -->
<g id="edge28" class="edge">
<title>Node25&#45;&gt;Node21</title>
<path fill="none" stroke="midnightblue" d="M1277.58,-123.48C1230.69,-110.56 1162.63,-91.81 1123.44,-81.02"/>
<polygon fill="midnightblue" stroke="midnightblue" points="1124.23,-77.61 1113.66,-78.33 1122.37,-84.36 1124.23,-77.61"/>
</g>
<!-- Node25&#45;&gt;Node24 -->
<g id="edge30" class="edge">
<title>Node25&#45;&gt;Node24</title>
<path fill="none" stroke="midnightblue" d="M1301.16,-123.4C1279.44,-112.19 1249.3,-96.64 1228.06,-85.69"/>
<polygon fill="midnightblue" stroke="midnightblue" points="1229.48,-82.48 1218.99,-81.01 1226.27,-88.7 1229.48,-82.48"/>
</g>
<!-- Node26 -->
<g id="node26" class="node">
<title>Node26</title>
<g id="a_node26"><a xlink:title=" ">
<polygon fill="white" stroke="#bfbfbf" points="1332,-62 1332,-81 1373,-81 1373,-62 1332,-62"/>
<text text-anchor="middle" x="1352.5" y="-69" font-family="Helvetica,sans-Serif" font-size="10.00">tuple</text>
</a>
</g>
</g>
<!-- Node25&#45;&gt;Node26 -->
<g id="edge29" class="edge">
<title>Node25&#45;&gt;Node26</title>
<path fill="none" stroke="midnightblue" d="M1333.71,-123.4C1337.23,-113.86 1341.91,-101.18 1345.72,-90.86"/>
<polygon fill="midnightblue" stroke="midnightblue" points="1349.11,-91.79 1349.29,-81.19 1342.54,-89.36 1349.11,-91.79"/>
</g>
<!-- Node27 -->
<g id="node27" class="node">
<title>Node27</title>
<g id="a_node27"><a xlink:title=" ">
<polygon fill="white" stroke="#bfbfbf" points="1391,-62 1391,-81 1460,-81 1460,-62 1391,-62"/>
<text text-anchor="middle" x="1425.5" y="-69" font-family="Helvetica,sans-Serif" font-size="10.00">etl/string.h</text>
</a>
</g>
</g>
<!-- Node25&#45;&gt;Node27 -->
<g id="edge31" class="edge">
<title>Node25&#45;&gt;Node27</title>
<path fill="none" stroke="midnightblue" d="M1349.55,-123.4C1365.81,-112.5 1388.22,-97.48 1404.48,-86.58"/>
<polygon fill="midnightblue" stroke="midnightblue" points="1406.45,-89.48 1412.8,-81.01 1402.55,-83.67 1406.45,-89.48"/>
</g>
</g>
</svg>
