<?xml version="1.0" encoding="UTF-8" standalone="no"?>
<!DOCTYPE svg PUBLIC "-//W3C//DTD SVG 1.1//EN"
 "http://www.w3.org/Graphics/SVG/1.1/DTD/svg11.dtd">
<!-- Generated by graphviz version 2.43.0 (0)
 -->
<!-- Title: alps_common_lib/include/alps_cmn/actuator/robomas_motors_can_controller.hpp Pages: 1 -->
<svg width="1470pt" height="368pt"
 viewBox="0.00 0.00 1470.00 368.00" xmlns="http://www.w3.org/2000/svg" xmlns:xlink="http://www.w3.org/1999/xlink">
<g id="graph0" class="graph" transform="scale(1 1) rotate(0) translate(4 364)">
<title>alps_common_lib/include/alps_cmn/actuator/robomas_motors_can_controller.hpp</title>
<!-- Node1 -->
<g id="node1" class="node">
<title>Node1</title>
<g id="a_node1"><a xlink:title=" ">
<polygon fill="#999999" stroke="#666666" points="579,-360 424,-360 424,-319 579,-319 579,-360"/>
<text text-anchor="start" x="432" y="-348" font-family="Helvetica,sans-Serif" font-size="10.00">alps_common_lib/include</text>
<text text-anchor="start" x="432" y="-337" font-family="Helvetica,sans-Serif" font-size="10.00">/alps_cmn/actuator/robomas</text>
<text text-anchor="middle" x="501.5" y="-326" font-family="Helvetica,sans-Serif" font-size="10.00">_motors_can_controller.hpp</text>
</a>
</g>
</g>
<!-- Node2 -->
<g id="node2" class="node">
<title>Node2</title>
<g id="a_node2"><a xlink:href="robomas__motor_8hpp.html" target="_top" xlink:title="ロボマスモータのライブラリ">
<polygon fill="white" stroke="#666666" points="266.5,-283 114.5,-283 114.5,-253 266.5,-253 266.5,-283"/>
<text text-anchor="start" x="122.5" y="-271" font-family="Helvetica,sans-Serif" font-size="10.00">alps_cmn/actuator/robomas</text>
<text text-anchor="middle" x="190.5" y="-260" font-family="Helvetica,sans-Serif" font-size="10.00">_motor.hpp</text>
</a>
</g>
</g>
<!-- Node1&#45;&gt;Node2 -->
<g id="edge1" class="edge">
<title>Node1&#45;&gt;Node2</title>
<path fill="none" stroke="#63b8ff" d="M423.82,-321.14C374.69,-310.16 311.6,-296.06 263.41,-285.29"/>
<polygon fill="#63b8ff" stroke="#63b8ff" points="263.89,-281.81 253.36,-283.05 262.36,-288.65 263.89,-281.81"/>
</g>
<!-- Node8 -->
<g id="node8" class="node">
<title>Node8</title>
<g id="a_node8"><a xlink:href="can__typed__data__transceiver_8hpp.html" target="_top" xlink:title="CAN通信で型付けされたデータの送受信を行うライブラリ">
<polygon fill="white" stroke="#666666" points="728.5,-283 550.5,-283 550.5,-253 728.5,-253 728.5,-283"/>
<text text-anchor="start" x="558.5" y="-271" font-family="Helvetica,sans-Serif" font-size="10.00">alps_cmn/communication</text>
<text text-anchor="middle" x="639.5" y="-260" font-family="Helvetica,sans-Serif" font-size="10.00">/can_typed_data_transceiver.hpp</text>
</a>
</g>
</g>
<!-- Node1&#45;&gt;Node8 -->
<g id="edge7" class="edge">
<title>Node1&#45;&gt;Node8</title>
<path fill="none" stroke="#63b8ff" d="M540.31,-318.96C559.76,-309.16 583.21,-297.35 602.42,-287.67"/>
<polygon fill="#63b8ff" stroke="#63b8ff" points="604.12,-290.74 611.48,-283.11 600.97,-284.48 604.12,-290.74"/>
</g>
<!-- Node12 -->
<g id="node12" class="node">
<title>Node12</title>
<g id="a_node12"><a xlink:title=" ">
<polygon fill="#e0e0e0" stroke="#999999" points="549.5,-145.5 431.5,-145.5 431.5,-126.5 549.5,-126.5 549.5,-145.5"/>
<text text-anchor="middle" x="490.5" y="-133.5" font-family="Helvetica,sans-Serif" font-size="10.00">etl/unordered_map.h</text>
</a>
</g>
</g>
<!-- Node1&#45;&gt;Node12 -->
<g id="edge34" class="edge">
<title>Node1&#45;&gt;Node12</title>
<path fill="none" stroke="#63b8ff" d="M500.43,-318.81C498.31,-280.04 493.63,-194.26 491.54,-156.03"/>
<polygon fill="#63b8ff" stroke="#63b8ff" points="495.02,-155.59 490.98,-145.8 488.03,-155.97 495.02,-155.59"/>
</g>
<!-- Node3 -->
<g id="node3" class="node">
<title>Node3</title>
<g id="a_node3"><a xlink:href="i__motor_8hpp.html" target="_top" xlink:title=" ">
<polygon fill="white" stroke="#666666" points="113,-217 0,-217 0,-187 113,-187 113,-217"/>
<text text-anchor="start" x="8" y="-205" font-family="Helvetica,sans-Serif" font-size="10.00">alps_cmn/actuator/i</text>
<text text-anchor="middle" x="56.5" y="-194" font-family="Helvetica,sans-Serif" font-size="10.00">_motor.hpp</text>
</a>
</g>
</g>
<!-- Node2&#45;&gt;Node3 -->
<g id="edge2" class="edge">
<title>Node2&#45;&gt;Node3</title>
<path fill="none" stroke="#63b8ff" d="M161.09,-252.95C141.72,-243.7 116.14,-231.49 95.13,-221.45"/>
<polygon fill="#63b8ff" stroke="#63b8ff" points="96.37,-218.16 85.84,-217.01 93.35,-224.48 96.37,-218.16"/>
</g>
<!-- Node4 -->
<g id="node4" class="node">
<title>Node4</title>
<g id="a_node4"><a xlink:href="can__data__frame_8hpp.html" target="_top" xlink:title="CANフレームを表す構造体">
<polygon fill="white" stroke="#666666" points="701.5,-85 559.5,-85 559.5,-55 701.5,-55 701.5,-85"/>
<text text-anchor="start" x="567.5" y="-73" font-family="Helvetica,sans-Serif" font-size="10.00">alps_cmn/communication</text>
<text text-anchor="middle" x="630.5" y="-62" font-family="Helvetica,sans-Serif" font-size="10.00">/can_data_frame.hpp</text>
</a>
</g>
</g>
<!-- Node2&#45;&gt;Node4 -->
<g id="edge3" class="edge">
<title>Node2&#45;&gt;Node4</title>
<path fill="none" stroke="#63b8ff" d="M179.02,-252.66C172.17,-243.16 164.12,-230.07 160.5,-217 149.11,-175.88 131.97,-152.73 160.5,-121 185.94,-92.71 421.23,-79.17 548.94,-73.85"/>
<polygon fill="#63b8ff" stroke="#63b8ff" points="549.22,-77.34 559.07,-73.44 548.94,-70.35 549.22,-77.34"/>
</g>
<!-- Node7 -->
<g id="node7" class="node">
<title>Node7</title>
<g id="a_node7"><a xlink:href="i__rotary__sensor_8hpp.html" target="_top" xlink:title=" ">
<polygon fill="white" stroke="#666666" points="309,-217 170,-217 170,-187 309,-187 309,-217"/>
<text text-anchor="start" x="178" y="-205" font-family="Helvetica,sans-Serif" font-size="10.00">alps_cmn/sensor/i_rotary</text>
<text text-anchor="middle" x="239.5" y="-194" font-family="Helvetica,sans-Serif" font-size="10.00">_sensor.hpp</text>
</a>
</g>
</g>
<!-- Node2&#45;&gt;Node7 -->
<g id="edge6" class="edge">
<title>Node2&#45;&gt;Node7</title>
<path fill="none" stroke="#63b8ff" d="M201.37,-252.8C207.59,-244.68 215.52,-234.31 222.54,-225.15"/>
<polygon fill="#63b8ff" stroke="#63b8ff" points="225.36,-227.23 228.66,-217.16 219.8,-222.98 225.36,-227.23"/>
</g>
<!-- Node5 -->
<g id="node5" class="node">
<title>Node5</title>
<g id="a_node5"><a xlink:title=" ">
<polygon fill="#e0e0e0" stroke="#999999" points="782,-19 729,-19 729,0 782,0 782,-19"/>
<text text-anchor="middle" x="755.5" y="-7" font-family="Helvetica,sans-Serif" font-size="10.00">stdint.h</text>
</a>
</g>
</g>
<!-- Node4&#45;&gt;Node5 -->
<g id="edge4" class="edge">
<title>Node4&#45;&gt;Node5</title>
<path fill="none" stroke="#63b8ff" d="M660.44,-54.99C680.92,-45.4 707.88,-32.79 727.85,-23.44"/>
<polygon fill="#63b8ff" stroke="#63b8ff" points="729.47,-26.55 737.04,-19.14 726.5,-20.21 729.47,-26.55"/>
</g>
<!-- Node6 -->
<g id="node6" class="node">
<title>Node6</title>
<g id="a_node6"><a xlink:title=" ">
<polygon fill="#e0e0e0" stroke="#999999" points="935.5,-19 863.5,-19 863.5,0 935.5,0 935.5,-19"/>
<text text-anchor="middle" x="899.5" y="-7" font-family="Helvetica,sans-Serif" font-size="10.00">etl/vector.h</text>
</a>
</g>
</g>
<!-- Node4&#45;&gt;Node6 -->
<g id="edge5" class="edge">
<title>Node4&#45;&gt;Node6</title>
<path fill="none" stroke="#63b8ff" d="M694.93,-54.99C743.82,-44.36 809.83,-30 853.49,-20.51"/>
<polygon fill="#63b8ff" stroke="#63b8ff" points="854.24,-23.93 863.26,-18.38 852.75,-17.09 854.24,-23.93"/>
</g>
<!-- Node9 -->
<g id="node9" class="node">
<title>Node9</title>
<g id="a_node9"><a xlink:href="can__callback__handler_8hpp.html" target="_top" xlink:title="CANデータフレームをコールバックで処理するためのライブラリ">
<polygon fill="white" stroke="#666666" points="473.5,-217 327.5,-217 327.5,-187 473.5,-187 473.5,-217"/>
<text text-anchor="start" x="335.5" y="-205" font-family="Helvetica,sans-Serif" font-size="10.00">alps_cmn/communication</text>
<text text-anchor="middle" x="400.5" y="-194" font-family="Helvetica,sans-Serif" font-size="10.00">/can_callback_handler.hpp</text>
</a>
</g>
</g>
<!-- Node8&#45;&gt;Node9 -->
<g id="edge8" class="edge">
<title>Node8&#45;&gt;Node9</title>
<path fill="none" stroke="#63b8ff" d="M587.05,-252.95C550.47,-243.16 501.5,-230.05 462.91,-219.71"/>
<polygon fill="#63b8ff" stroke="#63b8ff" points="463.39,-216.22 452.83,-217.01 461.58,-222.98 463.39,-216.22"/>
</g>
<!-- Node13 -->
<g id="node13" class="node">
<title>Node13</title>
<g id="a_node13"><a xlink:href="cobs_8hpp.html" target="_top" xlink:title="COBS変換ライブラリ">
<polygon fill="white" stroke="#666666" points="764.5,-217 622.5,-217 622.5,-187 764.5,-187 764.5,-217"/>
<text text-anchor="start" x="630.5" y="-205" font-family="Helvetica,sans-Serif" font-size="10.00">alps_cmn/communication</text>
<text text-anchor="middle" x="693.5" y="-194" font-family="Helvetica,sans-Serif" font-size="10.00">/cobs.hpp</text>
</a>
</g>
</g>
<!-- Node8&#45;&gt;Node13 -->
<g id="edge13" class="edge">
<title>Node8&#45;&gt;Node13</title>
<path fill="none" stroke="#63b8ff" d="M651.48,-252.8C658.41,-244.59 667.26,-234.1 675.05,-224.87"/>
<polygon fill="#63b8ff" stroke="#63b8ff" points="677.78,-227.06 681.55,-217.16 672.43,-222.55 677.78,-227.06"/>
</g>
<!-- Node19 -->
<g id="node19" class="node">
<title>Node19</title>
<g id="a_node19"><a xlink:href="data__serializer_8hpp.html" target="_top" xlink:title="データとバイト列の変換ライブラリ">
<polygon fill="white" stroke="#666666" points="1130.5,-217 988.5,-217 988.5,-187 1130.5,-187 1130.5,-217"/>
<text text-anchor="start" x="996.5" y="-205" font-family="Helvetica,sans-Serif" font-size="10.00">alps_cmn/communication</text>
<text text-anchor="middle" x="1059.5" y="-194" font-family="Helvetica,sans-Serif" font-size="10.00">/data_serializer.hpp</text>
</a>
</g>
</g>
<!-- Node8&#45;&gt;Node19 -->
<g id="edge19" class="edge">
<title>Node8&#45;&gt;Node19</title>
<path fill="none" stroke="#63b8ff" d="M728.57,-253.43C802.36,-242.18 906.36,-226.34 977.98,-215.42"/>
<polygon fill="#63b8ff" stroke="#63b8ff" points="978.95,-218.82 988.3,-213.85 977.89,-211.9 978.95,-218.82"/>
</g>
<!-- Node10 -->
<g id="node10" class="node">
<title>Node10</title>
<g id="a_node10"><a xlink:href="i__can__io_8hpp.html" target="_top" xlink:title=" ">
<polygon fill="white" stroke="#666666" points="311.5,-151 169.5,-151 169.5,-121 311.5,-121 311.5,-151"/>
<text text-anchor="start" x="177.5" y="-139" font-family="Helvetica,sans-Serif" font-size="10.00">alps_cmn/communication</text>
<text text-anchor="middle" x="240.5" y="-128" font-family="Helvetica,sans-Serif" font-size="10.00">/i_can_io.hpp</text>
</a>
</g>
</g>
<!-- Node9&#45;&gt;Node10 -->
<g id="edge9" class="edge">
<title>Node9&#45;&gt;Node10</title>
<path fill="none" stroke="#63b8ff" d="M365.39,-186.95C341.73,-177.49 310.34,-164.93 284.94,-154.78"/>
<polygon fill="#63b8ff" stroke="#63b8ff" points="286.12,-151.48 275.53,-151.01 283.52,-157.98 286.12,-151.48"/>
</g>
<!-- Node11 -->
<g id="node11" class="node">
<title>Node11</title>
<g id="a_node11"><a xlink:title=" ">
<polygon fill="#e0e0e0" stroke="#999999" points="413.5,-145.5 329.5,-145.5 329.5,-126.5 413.5,-126.5 413.5,-145.5"/>
<text text-anchor="middle" x="371.5" y="-133.5" font-family="Helvetica,sans-Serif" font-size="10.00">etl/delegate.h</text>
</a>
</g>
</g>
<!-- Node9&#45;&gt;Node11 -->
<g id="edge11" class="edge">
<title>Node9&#45;&gt;Node11</title>
<path fill="none" stroke="#63b8ff" d="M394.06,-186.8C389.85,-177.5 384.31,-165.27 379.77,-155.26"/>
<polygon fill="#63b8ff" stroke="#63b8ff" points="382.82,-153.51 375.51,-145.84 376.45,-156.4 382.82,-153.51"/>
</g>
<!-- Node9&#45;&gt;Node12 -->
<g id="edge12" class="edge">
<title>Node9&#45;&gt;Node12</title>
<path fill="none" stroke="#63b8ff" d="M420.47,-186.8C435.14,-176.37 455.01,-162.24 469.84,-151.69"/>
<polygon fill="#63b8ff" stroke="#63b8ff" points="472.2,-154.31 478.32,-145.66 468.15,-148.6 472.2,-154.31"/>
</g>
<!-- Node10&#45;&gt;Node4 -->
<g id="edge10" class="edge">
<title>Node10&#45;&gt;Node4</title>
<path fill="none" stroke="#63b8ff" d="M311.59,-122.51C314.6,-122 317.58,-121.49 320.5,-121 398.03,-107.96 486.6,-93.75 549.15,-83.82"/>
<polygon fill="#63b8ff" stroke="#63b8ff" points="550.02,-87.22 559.35,-82.2 548.93,-80.31 550.02,-87.22"/>
</g>
<!-- Node14 -->
<g id="node14" class="node">
<title>Node14</title>
<g id="a_node14"><a xlink:title=" ">
<polygon fill="#e0e0e0" stroke="#999999" points="619.5,-145.5 567.5,-145.5 567.5,-126.5 619.5,-126.5 619.5,-145.5"/>
<text text-anchor="middle" x="593.5" y="-133.5" font-family="Helvetica,sans-Serif" font-size="10.00">cassert</text>
</a>
</g>
</g>
<!-- Node13&#45;&gt;Node14 -->
<g id="edge14" class="edge">
<title>Node13&#45;&gt;Node14</title>
<path fill="none" stroke="#63b8ff" d="M671.31,-186.8C654.7,-176.17 632.1,-161.7 615.53,-151.1"/>
<polygon fill="#63b8ff" stroke="#63b8ff" points="617.34,-148.1 607.03,-145.66 613.56,-154 617.34,-148.1"/>
</g>
<!-- Node15 -->
<g id="node15" class="node">
<title>Node15</title>
<g id="a_node15"><a xlink:title=" ">
<polygon fill="#e0e0e0" stroke="#999999" points="819.5,-145.5 769.5,-145.5 769.5,-126.5 819.5,-126.5 819.5,-145.5"/>
<text text-anchor="middle" x="794.5" y="-133.5" font-family="Helvetica,sans-Serif" font-size="10.00">cstdint</text>
</a>
</g>
</g>
<!-- Node13&#45;&gt;Node15 -->
<g id="edge15" class="edge">
<title>Node13&#45;&gt;Node15</title>
<path fill="none" stroke="#63b8ff" d="M715.92,-186.8C732.69,-176.17 755.51,-161.7 772.25,-151.1"/>
<polygon fill="#63b8ff" stroke="#63b8ff" points="774.26,-153.97 780.84,-145.66 770.52,-148.05 774.26,-153.97"/>
</g>
<!-- Node16 -->
<g id="node16" class="node">
<title>Node16</title>
<g id="a_node16"><a xlink:title=" ">
<polygon fill="#e0e0e0" stroke="#999999" points="683.5,-145.5 637.5,-145.5 637.5,-126.5 683.5,-126.5 683.5,-145.5"/>
<text text-anchor="middle" x="660.5" y="-133.5" font-family="Helvetica,sans-Serif" font-size="10.00">cstdio</text>
</a>
</g>
</g>
<!-- Node13&#45;&gt;Node16 -->
<g id="edge16" class="edge">
<title>Node13&#45;&gt;Node16</title>
<path fill="none" stroke="#63b8ff" d="M686.18,-186.8C681.33,-177.41 674.95,-165.02 669.75,-154.95"/>
<polygon fill="#63b8ff" stroke="#63b8ff" points="672.75,-153.13 665.06,-145.84 666.53,-156.34 672.75,-153.13"/>
</g>
<!-- Node17 -->
<g id="node17" class="node">
<title>Node17</title>
<g id="a_node17"><a xlink:title=" ">
<polygon fill="#e0e0e0" stroke="#999999" points="751,-145.5 702,-145.5 702,-126.5 751,-126.5 751,-145.5"/>
<text text-anchor="middle" x="726.5" y="-133.5" font-family="Helvetica,sans-Serif" font-size="10.00">cstdlib</text>
</a>
</g>
</g>
<!-- Node13&#45;&gt;Node17 -->
<g id="edge17" class="edge">
<title>Node13&#45;&gt;Node17</title>
<path fill="none" stroke="#63b8ff" d="M700.82,-186.8C705.67,-177.41 712.05,-165.02 717.25,-154.95"/>
<polygon fill="#63b8ff" stroke="#63b8ff" points="720.47,-156.34 721.94,-145.84 714.25,-153.13 720.47,-156.34"/>
</g>
<!-- Node18 -->
<g id="node18" class="node">
<title>Node18</title>
<g id="a_node18"><a xlink:title=" ">
<polygon fill="#e0e0e0" stroke="#999999" points="949.5,-145.5 837.5,-145.5 837.5,-126.5 949.5,-126.5 949.5,-145.5"/>
<text text-anchor="middle" x="893.5" y="-133.5" font-family="Helvetica,sans-Serif" font-size="10.00">etl/circular_buffer.h</text>
</a>
</g>
</g>
<!-- Node13&#45;&gt;Node18 -->
<g id="edge18" class="edge">
<title>Node13&#45;&gt;Node18</title>
<path fill="none" stroke="#63b8ff" d="M737.39,-186.95C773.24,-175.48 823.31,-159.46 856.99,-148.68"/>
<polygon fill="#63b8ff" stroke="#63b8ff" points="858.43,-151.9 866.88,-145.52 856.29,-145.23 858.43,-151.9"/>
</g>
<!-- Node19&#45;&gt;Node15 -->
<g id="edge22" class="edge">
<title>Node19&#45;&gt;Node15</title>
<path fill="none" stroke="#63b8ff" d="M988.4,-188.99C942.28,-180.38 881.19,-167.41 828.5,-151 826.82,-150.48 825.12,-149.91 823.4,-149.3"/>
<polygon fill="#63b8ff" stroke="#63b8ff" points="824.29,-145.9 813.7,-145.6 821.79,-152.44 824.29,-145.9"/>
</g>
<!-- Node19&#45;&gt;Node18 -->
<g id="edge33" class="edge">
<title>Node19&#45;&gt;Node18</title>
<path fill="none" stroke="#63b8ff" d="M1023.07,-186.95C993.83,-175.68 953.19,-160.01 925.26,-149.25"/>
<polygon fill="#63b8ff" stroke="#63b8ff" points="926.18,-145.85 915.59,-145.52 923.66,-152.38 926.18,-145.85"/>
</g>
<!-- Node20 -->
<g id="node20" class="node">
<title>Node20</title>
<g id="a_node20"><a xlink:title=" ">
<polygon fill="#e0e0e0" stroke="#999999" points="1031.5,-145.5 967.5,-145.5 967.5,-126.5 1031.5,-126.5 1031.5,-145.5"/>
<text text-anchor="middle" x="999.5" y="-133.5" font-family="Helvetica,sans-Serif" font-size="10.00">algorithm</text>
</a>
</g>
</g>
<!-- Node19&#45;&gt;Node20 -->
<g id="edge20" class="edge">
<title>Node19&#45;&gt;Node20</title>
<path fill="none" stroke="#63b8ff" d="M1046.18,-186.8C1036.92,-176.92 1024.55,-163.72 1014.87,-153.39"/>
<polygon fill="#63b8ff" stroke="#63b8ff" points="1017.18,-150.75 1007.79,-145.84 1012.08,-155.53 1017.18,-150.75"/>
</g>
<!-- Node21 -->
<g id="node21" class="node">
<title>Node21</title>
<g id="a_node21"><a xlink:title=" ">
<polygon fill="#e0e0e0" stroke="#999999" points="1115.5,-79.5 1073.5,-79.5 1073.5,-60.5 1115.5,-60.5 1115.5,-79.5"/>
<text text-anchor="middle" x="1094.5" y="-67.5" font-family="Helvetica,sans-Serif" font-size="10.00">array</text>
</a>
</g>
</g>
<!-- Node19&#45;&gt;Node21 -->
<g id="edge21" class="edge">
<title>Node19&#45;&gt;Node21</title>
<path fill="none" stroke="#63b8ff" d="M1062.54,-186.75C1066.04,-170.69 1072.15,-143.83 1078.5,-121 1081.45,-110.41 1085.17,-98.7 1088.28,-89.28"/>
<polygon fill="#63b8ff" stroke="#63b8ff" points="1091.6,-90.38 1091.46,-79.79 1084.96,-88.16 1091.6,-90.38"/>
</g>
<!-- Node22 -->
<g id="node22" class="node">
<title>Node22</title>
<g id="a_node22"><a xlink:title=" ">
<polygon fill="#e0e0e0" stroke="#999999" points="1137.5,-145.5 1087.5,-145.5 1087.5,-126.5 1137.5,-126.5 1137.5,-145.5"/>
<text text-anchor="middle" x="1112.5" y="-133.5" font-family="Helvetica,sans-Serif" font-size="10.00">cstring</text>
</a>
</g>
</g>
<!-- Node19&#45;&gt;Node22 -->
<g id="edge23" class="edge">
<title>Node19&#45;&gt;Node22</title>
<path fill="none" stroke="#63b8ff" d="M1071.26,-186.8C1079.36,-177.01 1090.16,-163.98 1098.67,-153.7"/>
<polygon fill="#63b8ff" stroke="#63b8ff" points="1101.49,-155.78 1105.18,-145.84 1096.1,-151.31 1101.49,-155.78"/>
</g>
<!-- Node23 -->
<g id="node23" class="node">
<title>Node23</title>
<g id="a_node23"><a xlink:title=" ">
<polygon fill="#e0e0e0" stroke="#999999" points="1203.5,-145.5 1155.5,-145.5 1155.5,-126.5 1203.5,-126.5 1203.5,-145.5"/>
<text text-anchor="middle" x="1179.5" y="-133.5" font-family="Helvetica,sans-Serif" font-size="10.00">mutex</text>
</a>
</g>
</g>
<!-- Node19&#45;&gt;Node23 -->
<g id="edge24" class="edge">
<title>Node19&#45;&gt;Node23</title>
<path fill="none" stroke="#63b8ff" d="M1085.83,-186.95C1106.32,-176.03 1134.56,-160.97 1154.66,-150.25"/>
<polygon fill="#63b8ff" stroke="#63b8ff" points="1156.35,-153.31 1163.53,-145.52 1153.06,-147.14 1156.35,-153.31"/>
</g>
<!-- Node24 -->
<g id="node24" class="node">
<title>Node24</title>
<g id="a_node24"><a xlink:title=" ">
<polygon fill="#e0e0e0" stroke="#999999" points="1239,-79.5 1170,-79.5 1170,-60.5 1239,-60.5 1239,-79.5"/>
<text text-anchor="middle" x="1204.5" y="-67.5" font-family="Helvetica,sans-Serif" font-size="10.00">type_traits</text>
</a>
</g>
</g>
<!-- Node19&#45;&gt;Node24 -->
<g id="edge25" class="edge">
<title>Node19&#45;&gt;Node24</title>
<path fill="none" stroke="#63b8ff" d="M1130.84,-195.8C1161.13,-189.64 1193.71,-176.9 1212.5,-151 1225.46,-133.13 1219.35,-106.8 1212.79,-89.29"/>
<polygon fill="#63b8ff" stroke="#63b8ff" points="1215.87,-87.58 1208.81,-79.68 1209.4,-90.26 1215.87,-87.58"/>
</g>
<!-- Node25 -->
<g id="node25" class="node">
<title>Node25</title>
<g id="a_node25"><a xlink:href="serialize__type__info_8hpp.html" target="_top" xlink:title="DataSeializerで変換する型に関する情報">
<polygon fill="white" stroke="#666666" points="1401.5,-151 1259.5,-151 1259.5,-121 1401.5,-121 1401.5,-151"/>
<text text-anchor="start" x="1267.5" y="-139" font-family="Helvetica,sans-Serif" font-size="10.00">alps_cmn/communication</text>
<text text-anchor="middle" x="1330.5" y="-128" font-family="Helvetica,sans-Serif" font-size="10.00">/serialize_type_info.hpp</text>
</a>
</g>
</g>
<!-- Node19&#45;&gt;Node25 -->
<g id="edge26" class="edge">
<title>Node19&#45;&gt;Node25</title>
<path fill="none" stroke="#63b8ff" d="M1118.97,-186.95C1160.98,-177.03 1217.4,-163.71 1261.41,-153.32"/>
<polygon fill="#63b8ff" stroke="#63b8ff" points="1262.24,-156.72 1271.17,-151.01 1260.63,-149.9 1262.24,-156.72"/>
</g>
<!-- Node25&#45;&gt;Node5 -->
<g id="edge27" class="edge">
<title>Node25&#45;&gt;Node5</title>
<path fill="none" stroke="#63b8ff" d="M1316.4,-120.76C1294.08,-98.29 1252.7,-56.93 1248.5,-55 1243.31,-52.61 905.83,-23.42 792.3,-13.66"/>
<polygon fill="#63b8ff" stroke="#63b8ff" points="792.3,-10.14 782.03,-12.78 791.7,-17.12 792.3,-10.14"/>
</g>
<!-- Node25&#45;&gt;Node6 -->
<g id="edge32" class="edge">
<title>Node25&#45;&gt;Node6</title>
<path fill="none" stroke="#63b8ff" d="M1326.21,-120.97C1319.76,-102.46 1305.65,-70.43 1281.5,-55 1226.84,-20.07 1035.09,-12.53 945.84,-10.92"/>
<polygon fill="#63b8ff" stroke="#63b8ff" points="945.79,-7.42 935.74,-10.76 945.68,-14.42 945.79,-7.42"/>
</g>
<!-- Node25&#45;&gt;Node21 -->
<g id="edge28" class="edge">
<title>Node25&#45;&gt;Node21</title>
<path fill="none" stroke="#63b8ff" d="M1278.71,-120.95C1231.88,-108.25 1164.47,-89.98 1125.52,-79.41"/>
<polygon fill="#63b8ff" stroke="#63b8ff" points="1126.36,-76.01 1115.79,-76.77 1124.52,-82.77 1126.36,-76.01"/>
</g>
<!-- Node25&#45;&gt;Node24 -->
<g id="edge30" class="edge">
<title>Node25&#45;&gt;Node24</title>
<path fill="none" stroke="#63b8ff" d="M1302.85,-120.95C1281.24,-109.98 1251.42,-94.83 1230.3,-84.11"/>
<polygon fill="#63b8ff" stroke="#63b8ff" points="1231.77,-80.93 1221.27,-79.52 1228.6,-87.17 1231.77,-80.93"/>
</g>
<!-- Node26 -->
<g id="node26" class="node">
<title>Node26</title>
<g id="a_node26"><a xlink:title=" ">
<polygon fill="#e0e0e0" stroke="#999999" points="1375,-79.5 1334,-79.5 1334,-60.5 1375,-60.5 1375,-79.5"/>
<text text-anchor="middle" x="1354.5" y="-67.5" font-family="Helvetica,sans-Serif" font-size="10.00">tuple</text>
</a>
</g>
</g>
<!-- Node25&#45;&gt;Node26 -->
<g id="edge29" class="edge">
<title>Node25&#45;&gt;Node26</title>
<path fill="none" stroke="#63b8ff" d="M1335.83,-120.8C1339.31,-111.5 1343.9,-99.27 1347.65,-89.26"/>
<polygon fill="#63b8ff" stroke="#63b8ff" points="1350.95,-90.44 1351.18,-79.84 1344.39,-87.98 1350.95,-90.44"/>
</g>
<!-- Node27 -->
<g id="node27" class="node">
<title>Node27</title>
<g id="a_node27"><a xlink:title=" ">
<polygon fill="#e0e0e0" stroke="#999999" points="1462,-79.5 1393,-79.5 1393,-60.5 1462,-60.5 1462,-79.5"/>
<text text-anchor="middle" x="1427.5" y="-67.5" font-family="Helvetica,sans-Serif" font-size="10.00">etl/string.h</text>
</a>
</g>
</g>
<!-- Node25&#45;&gt;Node27 -->
<g id="edge31" class="edge">
<title>Node25&#45;&gt;Node27</title>
<path fill="none" stroke="#63b8ff" d="M1352.03,-120.8C1367.98,-110.27 1389.65,-95.97 1405.68,-85.4"/>
<polygon fill="#63b8ff" stroke="#63b8ff" points="1407.96,-88.09 1414.38,-79.66 1404.1,-82.24 1407.96,-88.09"/>
</g>
</g>
</svg>
