<?xml version="1.0" encoding="UTF-8" standalone="no"?>
<!DOCTYPE svg PUBLIC "-//W3C//DTD SVG 1.1//EN"
 "http://www.w3.org/Graphics/SVG/1.1/DTD/svg11.dtd">
<!-- Generated by graphviz version 2.43.0 (0)
 -->
<!-- Title: alps_common_lib/include/alps_cmn/actuator/robomas_motor.hpp Pages: 1 -->
<svg width="1990pt" height="374pt"
 viewBox="0.00 0.00 1989.50 374.00" xmlns="http://www.w3.org/2000/svg" xmlns:xlink="http://www.w3.org/1999/xlink">
<g id="graph0" class="graph" transform="scale(1 1) rotate(0) translate(4 370)">
<title>alps_common_lib/include/alps_cmn/actuator/robomas_motor.hpp</title>
<polygon fill="white" stroke="transparent" points="-4,4 -4,-370 1985.5,-370 1985.5,4 -4,4"/>
<!-- Node1 -->
<g id="node1" class="node">
<title>Node1</title>
<g id="a_node1"><a xlink:title="ロボマスモータのライブラリ">
<polygon fill="#bfbfbf" stroke="black" points="1246.5,-324.5 1246.5,-365.5 1401.5,-365.5 1401.5,-324.5 1246.5,-324.5"/>
<text text-anchor="start" x="1254.5" y="-353.5" font-family="Helvetica,sans-Serif" font-size="10.00">alps_common_lib/include</text>
<text text-anchor="start" x="1254.5" y="-342.5" font-family="Helvetica,sans-Serif" font-size="10.00">/alps_cmn/actuator/robomas</text>
<text text-anchor="middle" x="1324" y="-331.5" font-family="Helvetica,sans-Serif" font-size="10.00">_motor.hpp</text>
</a>
</g>
</g>
<!-- Node2 -->
<g id="node2" class="node">
<title>Node2</title>
<g id="a_node2"><a xlink:title=" ">
<polygon fill="white" stroke="#bfbfbf" points="0,-129 0,-148 42,-148 42,-129 0,-129"/>
<text text-anchor="middle" x="21" y="-136" font-family="Helvetica,sans-Serif" font-size="10.00">array</text>
</a>
</g>
</g>
<!-- Node1&#45;&gt;Node2 -->
<g id="edge1" class="edge">
<title>Node1&#45;&gt;Node2</title>
<path fill="none" stroke="midnightblue" d="M1246.25,-342.22C1065.44,-336.57 603.76,-313.48 231,-221 162.77,-204.07 86.81,-170.73 47.62,-152.37"/>
<polygon fill="midnightblue" stroke="midnightblue" points="49.02,-149.16 38.48,-148.05 46.02,-155.49 49.02,-149.16"/>
</g>
<!-- Node3 -->
<g id="node3" class="node">
<title>Node3</title>
<g id="a_node3"><a xlink:href="i__motor_8hpp.html" target="_top" xlink:title=" ">
<polygon fill="white" stroke="black" points="814.5,-257.5 814.5,-287.5 927.5,-287.5 927.5,-257.5 814.5,-257.5"/>
<text text-anchor="start" x="822.5" y="-275.5" font-family="Helvetica,sans-Serif" font-size="10.00">alps_cmn/actuator/i</text>
<text text-anchor="middle" x="871" y="-264.5" font-family="Helvetica,sans-Serif" font-size="10.00">_motor.hpp</text>
</a>
</g>
</g>
<!-- Node1&#45;&gt;Node3 -->
<g id="edge2" class="edge">
<title>Node1&#45;&gt;Node3</title>
<path fill="none" stroke="midnightblue" d="M1246.24,-333.9C1168.91,-323.55 1046.97,-306.4 942,-288 940.53,-287.74 939.04,-287.48 937.54,-287.21"/>
<polygon fill="midnightblue" stroke="midnightblue" points="938,-283.73 927.53,-285.34 936.72,-290.61 938,-283.73"/>
</g>
<!-- Node4 -->
<g id="node4" class="node">
<title>Node4</title>
<g id="a_node4"><a xlink:href="can__typed__data__transceiver_8hpp.html" target="_top" xlink:title="CAN通信で型付けされたデータの送受信を行うライブラリ">
<polygon fill="white" stroke="black" points="983.5,-257.5 983.5,-287.5 1160.5,-287.5 1160.5,-257.5 983.5,-257.5"/>
<text text-anchor="start" x="991.5" y="-275.5" font-family="Helvetica,sans-Serif" font-size="10.00">alps_cmn/communication</text>
<text text-anchor="middle" x="1072" y="-264.5" font-family="Helvetica,sans-Serif" font-size="10.00">/can_typed_data_transceiver.hpp</text>
</a>
</g>
</g>
<!-- Node1&#45;&gt;Node4 -->
<g id="edge3" class="edge">
<title>Node1&#45;&gt;Node4</title>
<path fill="none" stroke="midnightblue" d="M1254.14,-324.46C1215.93,-313.77 1169.06,-300.65 1132.43,-290.41"/>
<polygon fill="midnightblue" stroke="midnightblue" points="1132.96,-286.92 1122.39,-287.6 1131.08,-293.66 1132.96,-286.92"/>
</g>
<!-- Node10 -->
<g id="node10" class="node">
<title>Node10</title>
<g id="a_node10"><a xlink:title=" ">
<polygon fill="white" stroke="#bfbfbf" points="1176,-62 1176,-81 1260,-81 1260,-62 1176,-62"/>
<text text-anchor="middle" x="1218" y="-69" font-family="Helvetica,sans-Serif" font-size="10.00">etl/delegate.h</text>
</a>
</g>
</g>
<!-- Node1&#45;&gt;Node10 -->
<g id="edge41" class="edge">
<title>Node1&#45;&gt;Node10</title>
<path fill="none" stroke="midnightblue" d="M1332.16,-324.36C1351.45,-276.52 1396.55,-155.44 1373,-123 1349.7,-90.9 1305.45,-78.81 1270.17,-74.44"/>
<polygon fill="midnightblue" stroke="midnightblue" points="1270.33,-70.94 1260.02,-73.36 1269.59,-77.9 1270.33,-70.94"/>
</g>
<!-- Node11 -->
<g id="node11" class="node">
<title>Node11</title>
<g id="a_node11"><a xlink:title=" ">
<polygon fill="white" stroke="#bfbfbf" points="1246,-129 1246,-148 1364,-148 1364,-129 1246,-129"/>
<text text-anchor="middle" x="1305" y="-136" font-family="Helvetica,sans-Serif" font-size="10.00">etl/unordered_map.h</text>
</a>
</g>
</g>
<!-- Node1&#45;&gt;Node11 -->
<g id="edge42" class="edge">
<title>Node1&#45;&gt;Node11</title>
<path fill="none" stroke="midnightblue" d="M1322.18,-324.39C1318.53,-285.07 1310.35,-197.06 1306.75,-158.36"/>
<polygon fill="midnightblue" stroke="midnightblue" points="1310.2,-157.68 1305.79,-148.04 1303.23,-158.33 1310.2,-157.68"/>
</g>
<!-- Node18 -->
<g id="node18" class="node">
<title>Node18</title>
<g id="a_node18"><a xlink:href="logging__macros_8hpp.html" target="_top" xlink:title=" ">
<polygon fill="white" stroke="black" points="731,-190.5 731,-220.5 851,-220.5 851,-190.5 731,-190.5"/>
<text text-anchor="start" x="739" y="-208.5" font-family="Helvetica,sans-Serif" font-size="10.00">alps_cmn/log/logging</text>
<text text-anchor="middle" x="791" y="-197.5" font-family="Helvetica,sans-Serif" font-size="10.00">_macros.hpp</text>
</a>
</g>
</g>
<!-- Node1&#45;&gt;Node18 -->
<g id="edge35" class="edge">
<title>Node1&#45;&gt;Node18</title>
<path fill="none" stroke="midnightblue" d="M1246.29,-342.74C1173.38,-339.01 1062.73,-326.69 975,-288 954.74,-279.07 955.4,-267.68 936,-257 910.64,-243.03 880.69,-231.83 854.62,-223.55"/>
<polygon fill="midnightblue" stroke="midnightblue" points="855.42,-220.14 844.83,-220.53 853.35,-226.82 855.42,-220.14"/>
</g>
<!-- Node28 -->
<g id="node28" class="node">
<title>Node28</title>
<g id="a_node28"><a xlink:href="i__rotary__sensor_8hpp.html" target="_top" xlink:title=" ">
<polygon fill="white" stroke="black" points="1371.5,-257.5 1371.5,-287.5 1510.5,-287.5 1510.5,-257.5 1371.5,-257.5"/>
<text text-anchor="start" x="1379.5" y="-275.5" font-family="Helvetica,sans-Serif" font-size="10.00">alps_cmn/sensor/i_rotary</text>
<text text-anchor="middle" x="1441" y="-264.5" font-family="Helvetica,sans-Serif" font-size="10.00">_sensor.hpp</text>
</a>
</g>
</g>
<!-- Node1&#45;&gt;Node28 -->
<g id="edge36" class="edge">
<title>Node1&#45;&gt;Node28</title>
<path fill="none" stroke="midnightblue" d="M1356.59,-324.36C1372.91,-314.53 1392.59,-302.67 1408.85,-292.87"/>
<polygon fill="midnightblue" stroke="midnightblue" points="1410.72,-295.83 1417.48,-287.67 1407.11,-289.83 1410.72,-295.83"/>
</g>
<!-- Node29 -->
<g id="node29" class="node">
<title>Node29</title>
<g id="a_node29"><a xlink:href="timeout__checker_8hpp.html" target="_top" xlink:title="タイムアウトを検知するクラス">
<polygon fill="white" stroke="black" points="1529,-257.5 1529,-287.5 1659,-287.5 1659,-257.5 1529,-257.5"/>
<text text-anchor="start" x="1537" y="-275.5" font-family="Helvetica,sans-Serif" font-size="10.00">alps_cmn/time/timeout</text>
<text text-anchor="middle" x="1594" y="-264.5" font-family="Helvetica,sans-Serif" font-size="10.00">_checker.hpp</text>
</a>
</g>
</g>
<!-- Node1&#45;&gt;Node29 -->
<g id="edge37" class="edge">
<title>Node1&#45;&gt;Node29</title>
<path fill="none" stroke="midnightblue" d="M1398.85,-324.46C1440.14,-313.67 1490.87,-300.43 1530.26,-290.14"/>
<polygon fill="midnightblue" stroke="midnightblue" points="1531.22,-293.51 1540.01,-287.6 1529.45,-286.74 1531.22,-293.51"/>
</g>
<!-- Node31 -->
<g id="node31" class="node">
<title>Node31</title>
<g id="a_node31"><a xlink:href="algorithm_8hpp.html" target="_top" xlink:title=" ">
<polygon fill="white" stroke="black" points="1677.5,-263 1677.5,-282 1830.5,-282 1830.5,-263 1677.5,-263"/>
<text text-anchor="middle" x="1754" y="-270" font-family="Helvetica,sans-Serif" font-size="10.00">alps_cmn/util/algorithm.hpp</text>
</a>
</g>
</g>
<!-- Node1&#45;&gt;Node31 -->
<g id="edge39" class="edge">
<title>Node1&#45;&gt;Node31</title>
<path fill="none" stroke="midnightblue" d="M1401.55,-331.5C1471.29,-320.24 1576.52,-303.16 1668,-288 1676.27,-286.63 1684.98,-285.17 1693.56,-283.74"/>
<polygon fill="midnightblue" stroke="midnightblue" points="1694.25,-287.17 1703.53,-282.06 1693.09,-280.26 1694.25,-287.17"/>
</g>
<!-- Node32 -->
<g id="node32" class="node">
<title>Node32</title>
<g id="a_node32"><a xlink:href="angle_8hpp.html" target="_top" xlink:title=" ">
<polygon fill="white" stroke="black" points="1848.5,-263 1848.5,-282 1981.5,-282 1981.5,-263 1848.5,-263"/>
<text text-anchor="middle" x="1915" y="-270" font-family="Helvetica,sans-Serif" font-size="10.00">alps_cmn/util/angle.hpp</text>
</a>
</g>
</g>
<!-- Node1&#45;&gt;Node32 -->
<g id="edge40" class="edge">
<title>Node1&#45;&gt;Node32</title>
<path fill="none" stroke="midnightblue" d="M1401.62,-337.6C1502.82,-328.78 1685.18,-311.33 1840,-288 1847.84,-286.82 1856.1,-285.4 1864.17,-283.92"/>
<polygon fill="midnightblue" stroke="midnightblue" points="1865.06,-287.31 1874.23,-282.02 1863.76,-280.43 1865.06,-287.31"/>
</g>
<!-- Node5 -->
<g id="node5" class="node">
<title>Node5</title>
<g id="a_node5"><a xlink:href="can__callback__handler_8hpp.html" target="_top" xlink:title="CANデータフレームをコールバックで処理するためのライブラリ">
<polygon fill="white" stroke="black" points="1088.5,-190.5 1088.5,-220.5 1233.5,-220.5 1233.5,-190.5 1088.5,-190.5"/>
<text text-anchor="start" x="1096.5" y="-208.5" font-family="Helvetica,sans-Serif" font-size="10.00">alps_cmn/communication</text>
<text text-anchor="middle" x="1161" y="-197.5" font-family="Helvetica,sans-Serif" font-size="10.00">/can_callback_handler.hpp</text>
</a>
</g>
</g>
<!-- Node4&#45;&gt;Node5 -->
<g id="edge4" class="edge">
<title>Node4&#45;&gt;Node5</title>
<path fill="none" stroke="midnightblue" d="M1091.31,-257.4C1103.67,-248.37 1119.9,-236.51 1133.59,-226.52"/>
<polygon fill="midnightblue" stroke="midnightblue" points="1135.71,-229.3 1141.73,-220.58 1131.59,-223.65 1135.71,-229.3"/>
</g>
<!-- Node12 -->
<g id="node12" class="node">
<title>Node12</title>
<g id="a_node12"><a xlink:href="cobs_8hpp.html" target="_top" xlink:title="COBS変換ライブラリ">
<polygon fill="white" stroke="black" points="869,-190.5 869,-220.5 1011,-220.5 1011,-190.5 869,-190.5"/>
<text text-anchor="start" x="877" y="-208.5" font-family="Helvetica,sans-Serif" font-size="10.00">alps_cmn/communication</text>
<text text-anchor="middle" x="940" y="-197.5" font-family="Helvetica,sans-Serif" font-size="10.00">/cobs.hpp</text>
</a>
</g>
</g>
<!-- Node4&#45;&gt;Node12 -->
<g id="edge11" class="edge">
<title>Node4&#45;&gt;Node12</title>
<path fill="none" stroke="midnightblue" d="M1043.36,-257.4C1024.16,-247.94 998.67,-235.39 977.81,-225.12"/>
<polygon fill="midnightblue" stroke="midnightblue" points="979.1,-221.85 968.59,-220.58 976.01,-228.13 979.1,-221.85"/>
</g>
<!-- Node4&#45;&gt;Node18 -->
<g id="edge17" class="edge">
<title>Node4&#45;&gt;Node18</title>
<path fill="none" stroke="midnightblue" d="M1011.37,-257.48C967.18,-247.25 907.2,-233.38 860.98,-222.69"/>
<polygon fill="midnightblue" stroke="midnightblue" points="861.57,-219.23 851.04,-220.39 859.99,-226.05 861.57,-219.23"/>
</g>
<!-- Node21 -->
<g id="node21" class="node">
<title>Node21</title>
<g id="a_node21"><a xlink:href="serializer_8hpp.html" target="_top" xlink:title="データとバイト列の変換ライブラリ">
<polygon fill="white" stroke="black" points="240,-196 240,-215 396,-215 396,-196 240,-196"/>
<text text-anchor="middle" x="318" y="-203" font-family="Helvetica,sans-Serif" font-size="10.00">alps_cmn/type/serializer.hpp</text>
</a>
</g>
</g>
<!-- Node4&#45;&gt;Node21 -->
<g id="edge21" class="edge">
<title>Node4&#45;&gt;Node21</title>
<path fill="none" stroke="midnightblue" d="M983.15,-261.71C967.45,-260.07 951.25,-258.44 936,-257 747.51,-239.25 526.32,-222.06 406.33,-213.03"/>
<polygon fill="midnightblue" stroke="midnightblue" points="406.33,-209.52 396.1,-212.26 405.81,-216.5 406.33,-209.52"/>
</g>
<!-- Node6 -->
<g id="node6" class="node">
<title>Node6</title>
<g id="a_node6"><a xlink:href="i__can__io_8hpp.html" target="_top" xlink:title=" ">
<polygon fill="white" stroke="black" points="1048,-123.5 1048,-153.5 1190,-153.5 1190,-123.5 1048,-123.5"/>
<text text-anchor="start" x="1056" y="-141.5" font-family="Helvetica,sans-Serif" font-size="10.00">alps_cmn/communication</text>
<text text-anchor="middle" x="1119" y="-130.5" font-family="Helvetica,sans-Serif" font-size="10.00">/i_can_io.hpp</text>
</a>
</g>
</g>
<!-- Node5&#45;&gt;Node6 -->
<g id="edge5" class="edge">
<title>Node5&#45;&gt;Node6</title>
<path fill="none" stroke="midnightblue" d="M1151.89,-190.4C1146.55,-182.13 1139.68,-171.51 1133.6,-162.1"/>
<polygon fill="midnightblue" stroke="midnightblue" points="1136.46,-160.08 1128.1,-153.58 1130.58,-163.88 1136.46,-160.08"/>
</g>
<!-- Node5&#45;&gt;Node10 -->
<g id="edge9" class="edge">
<title>Node5&#45;&gt;Node10</title>
<path fill="none" stroke="midnightblue" d="M1174.42,-190.1C1182.66,-180.53 1192.78,-167.32 1199,-154 1208.39,-133.89 1213.34,-108.77 1215.81,-91.77"/>
<polygon fill="midnightblue" stroke="midnightblue" points="1219.33,-91.82 1217.14,-81.46 1212.38,-90.93 1219.33,-91.82"/>
</g>
<!-- Node5&#45;&gt;Node11 -->
<g id="edge10" class="edge">
<title>Node5&#45;&gt;Node11</title>
<path fill="none" stroke="midnightblue" d="M1192.25,-190.4C1217.4,-179.04 1252.45,-163.22 1276.77,-152.24"/>
<polygon fill="midnightblue" stroke="midnightblue" points="1278.48,-155.31 1286.15,-148.01 1275.6,-148.93 1278.48,-155.31"/>
</g>
<!-- Node7 -->
<g id="node7" class="node">
<title>Node7</title>
<g id="a_node7"><a xlink:href="can__data__frame_8hpp.html" target="_top" xlink:title="CANフレームを表す構造体">
<polygon fill="white" stroke="black" points="761,-56.5 761,-86.5 903,-86.5 903,-56.5 761,-56.5"/>
<text text-anchor="start" x="769" y="-74.5" font-family="Helvetica,sans-Serif" font-size="10.00">alps_cmn/communication</text>
<text text-anchor="middle" x="832" y="-63.5" font-family="Helvetica,sans-Serif" font-size="10.00">/can_data_frame.hpp</text>
</a>
</g>
</g>
<!-- Node6&#45;&gt;Node7 -->
<g id="edge6" class="edge">
<title>Node6&#45;&gt;Node7</title>
<path fill="none" stroke="midnightblue" d="M1057.08,-123.48C1012.16,-113.3 951.26,-99.51 904.14,-88.84"/>
<polygon fill="midnightblue" stroke="midnightblue" points="904.83,-85.41 894.31,-86.61 903.28,-92.23 904.83,-85.41"/>
</g>
<!-- Node8 -->
<g id="node8" class="node">
<title>Node8</title>
<g id="a_node8"><a xlink:title=" ">
<polygon fill="white" stroke="#bfbfbf" points="805.5,-0.5 805.5,-19.5 858.5,-19.5 858.5,-0.5 805.5,-0.5"/>
<text text-anchor="middle" x="832" y="-7.5" font-family="Helvetica,sans-Serif" font-size="10.00">stdint.h</text>
</a>
</g>
</g>
<!-- Node7&#45;&gt;Node8 -->
<g id="edge7" class="edge">
<title>Node7&#45;&gt;Node8</title>
<path fill="none" stroke="midnightblue" d="M832,-56.4C832,-48.47 832,-38.46 832,-29.86"/>
<polygon fill="midnightblue" stroke="midnightblue" points="835.5,-29.66 832,-19.66 828.5,-29.66 835.5,-29.66"/>
</g>
<!-- Node9 -->
<g id="node9" class="node">
<title>Node9</title>
<g id="a_node9"><a xlink:title=" ">
<polygon fill="white" stroke="#bfbfbf" points="480.5,-0.5 480.5,-19.5 551.5,-19.5 551.5,-0.5 480.5,-0.5"/>
<text text-anchor="middle" x="516" y="-7.5" font-family="Helvetica,sans-Serif" font-size="10.00">etl/vector.h</text>
</a>
</g>
</g>
<!-- Node7&#45;&gt;Node9 -->
<g id="edge8" class="edge">
<title>Node7&#45;&gt;Node9</title>
<path fill="none" stroke="midnightblue" d="M760.69,-57.07C699.77,-45.6 613.93,-29.44 561.79,-19.62"/>
<polygon fill="midnightblue" stroke="midnightblue" points="562.31,-16.16 551.83,-17.75 561.01,-23.04 562.31,-16.16"/>
</g>
<!-- Node13 -->
<g id="node13" class="node">
<title>Node13</title>
<g id="a_node13"><a xlink:title=" ">
<polygon fill="white" stroke="#bfbfbf" points="914,-129 914,-148 966,-148 966,-129 914,-129"/>
<text text-anchor="middle" x="940" y="-136" font-family="Helvetica,sans-Serif" font-size="10.00">cassert</text>
</a>
</g>
</g>
<!-- Node12&#45;&gt;Node13 -->
<g id="edge12" class="edge">
<title>Node12&#45;&gt;Node13</title>
<path fill="none" stroke="midnightblue" d="M940,-190.4C940,-181.06 940,-168.71 940,-158.52"/>
<polygon fill="midnightblue" stroke="midnightblue" points="943.5,-158.19 940,-148.19 936.5,-158.19 943.5,-158.19"/>
</g>
<!-- Node14 -->
<g id="node14" class="node">
<title>Node14</title>
<g id="a_node14"><a xlink:title=" ">
<polygon fill="white" stroke="#bfbfbf" points="778,-129 778,-148 828,-148 828,-129 778,-129"/>
<text text-anchor="middle" x="803" y="-136" font-family="Helvetica,sans-Serif" font-size="10.00">cstdint</text>
</a>
</g>
</g>
<!-- Node12&#45;&gt;Node14 -->
<g id="edge13" class="edge">
<title>Node12&#45;&gt;Node14</title>
<path fill="none" stroke="midnightblue" d="M910.27,-190.4C886.45,-179.09 853.29,-163.36 830.17,-152.39"/>
<polygon fill="midnightblue" stroke="midnightblue" points="831.47,-149.13 820.93,-148.01 828.46,-155.46 831.47,-149.13"/>
</g>
<!-- Node15 -->
<g id="node15" class="node">
<title>Node15</title>
<g id="a_node15"><a xlink:title=" ">
<polygon fill="white" stroke="#bfbfbf" points="984,-129 984,-148 1030,-148 1030,-129 984,-129"/>
<text text-anchor="middle" x="1007" y="-136" font-family="Helvetica,sans-Serif" font-size="10.00">cstdio</text>
</a>
</g>
</g>
<!-- Node12&#45;&gt;Node15 -->
<g id="edge14" class="edge">
<title>Node12&#45;&gt;Node15</title>
<path fill="none" stroke="midnightblue" d="M954.54,-190.4C965.19,-180.06 979.66,-166.02 990.7,-155.31"/>
<polygon fill="midnightblue" stroke="midnightblue" points="993.3,-157.67 998.04,-148.19 988.42,-152.65 993.3,-157.67"/>
</g>
<!-- Node16 -->
<g id="node16" class="node">
<title>Node16</title>
<g id="a_node16"><a xlink:title=" ">
<polygon fill="white" stroke="#bfbfbf" points="846.5,-129 846.5,-148 895.5,-148 895.5,-129 846.5,-129"/>
<text text-anchor="middle" x="871" y="-136" font-family="Helvetica,sans-Serif" font-size="10.00">cstdlib</text>
</a>
</g>
</g>
<!-- Node12&#45;&gt;Node16 -->
<g id="edge15" class="edge">
<title>Node12&#45;&gt;Node16</title>
<path fill="none" stroke="midnightblue" d="M925.03,-190.4C914.06,-180.06 899.16,-166.02 887.78,-155.31"/>
<polygon fill="midnightblue" stroke="midnightblue" points="889.91,-152.5 880.23,-148.19 885.11,-157.6 889.91,-152.5"/>
</g>
<!-- Node17 -->
<g id="node17" class="node">
<title>Node17</title>
<g id="a_node17"><a xlink:title=" ">
<polygon fill="white" stroke="#bfbfbf" points="650,-129 650,-148 760,-148 760,-129 650,-129"/>
<text text-anchor="middle" x="705" y="-136" font-family="Helvetica,sans-Serif" font-size="10.00">etl/circular_buffer.h</text>
</a>
</g>
</g>
<!-- Node12&#45;&gt;Node17 -->
<g id="edge16" class="edge">
<title>Node12&#45;&gt;Node17</title>
<path fill="none" stroke="midnightblue" d="M889.3,-190.48C846.26,-178.57 785.32,-161.72 745.48,-150.7"/>
<polygon fill="midnightblue" stroke="midnightblue" points="746.41,-147.32 735.83,-148.03 744.54,-154.07 746.41,-147.32"/>
</g>
<!-- Node19 -->
<g id="node19" class="node">
<title>Node19</title>
<g id="a_node19"><a xlink:href="logger_8hpp.html" target="_top" xlink:title=" ">
<polygon fill="white" stroke="black" points="496.5,-129 496.5,-148 631.5,-148 631.5,-129 496.5,-129"/>
<text text-anchor="middle" x="564" y="-136" font-family="Helvetica,sans-Serif" font-size="10.00">alps_cmn/log/logger.hpp</text>
</a>
</g>
</g>
<!-- Node18&#45;&gt;Node19 -->
<g id="edge18" class="edge">
<title>Node18&#45;&gt;Node19</title>
<path fill="none" stroke="midnightblue" d="M742.02,-190.48C700.63,-178.62 642.08,-161.86 603.6,-150.84"/>
<polygon fill="midnightblue" stroke="midnightblue" points="604.36,-147.42 593.78,-148.03 602.43,-154.15 604.36,-147.42"/>
</g>
<!-- Node19&#45;&gt;Node10 -->
<g id="edge19" class="edge">
<title>Node19&#45;&gt;Node10</title>
<path fill="none" stroke="midnightblue" d="M605.04,-128.99C616.63,-126.8 629.28,-124.61 641,-123 833.62,-96.5 1064.44,-81.22 1165.86,-75.33"/>
<polygon fill="midnightblue" stroke="midnightblue" points="1166.07,-78.83 1175.85,-74.76 1165.67,-71.84 1166.07,-78.83"/>
</g>
<!-- Node20 -->
<g id="node20" class="node">
<title>Node20</title>
<g id="a_node20"><a xlink:title=" ">
<polygon fill="white" stroke="#bfbfbf" points="418.5,-62 418.5,-81 487.5,-81 487.5,-62 418.5,-62"/>
<text text-anchor="middle" x="453" y="-69" font-family="Helvetica,sans-Serif" font-size="10.00">etl/string.h</text>
</a>
</g>
</g>
<!-- Node19&#45;&gt;Node20 -->
<g id="edge20" class="edge">
<title>Node19&#45;&gt;Node20</title>
<path fill="none" stroke="midnightblue" d="M549.03,-128.73C530.39,-117.82 498.34,-99.05 476.43,-86.22"/>
<polygon fill="midnightblue" stroke="midnightblue" points="478.13,-83.16 467.73,-81.13 474.59,-89.2 478.13,-83.16"/>
</g>
<!-- Node21&#45;&gt;Node2 -->
<g id="edge23" class="edge">
<title>Node21&#45;&gt;Node2</title>
<path fill="none" stroke="midnightblue" d="M254.67,-195.97C201.06,-187.88 122.55,-173.98 56,-154 53.71,-153.31 51.37,-152.53 49.04,-151.69"/>
<polygon fill="midnightblue" stroke="midnightblue" points="50.23,-148.4 39.64,-148.04 47.69,-154.92 50.23,-148.4"/>
</g>
<!-- Node21&#45;&gt;Node9 -->
<g id="edge34" class="edge">
<title>Node21&#45;&gt;Node9</title>
<path fill="none" stroke="midnightblue" d="M315.73,-195.82C312.15,-180.24 306.79,-146.95 319,-123 348.53,-65.08 422.02,-35.27 470.41,-21.41"/>
<polygon fill="midnightblue" stroke="midnightblue" points="471.62,-24.71 480.34,-18.69 469.77,-17.96 471.62,-24.71"/>
</g>
<!-- Node21&#45;&gt;Node14 -->
<g id="edge24" class="edge">
<title>Node21&#45;&gt;Node14</title>
<path fill="none" stroke="midnightblue" d="M396.27,-202.62C487.23,-198.87 641.18,-187.63 769,-154 771.36,-153.38 773.76,-152.62 776.15,-151.79"/>
<polygon fill="midnightblue" stroke="midnightblue" points="777.67,-154.95 785.7,-148.03 775.11,-148.44 777.67,-154.95"/>
</g>
<!-- Node21&#45;&gt;Node17 -->
<g id="edge32" class="edge">
<title>Node21&#45;&gt;Node17</title>
<path fill="none" stroke="midnightblue" d="M379.93,-195.99C444.91,-186.77 549.94,-171.09 640,-154 646.11,-152.84 652.53,-151.53 658.85,-150.18"/>
<polygon fill="midnightblue" stroke="midnightblue" points="659.62,-153.59 668.64,-148.04 658.13,-146.75 659.62,-153.59"/>
</g>
<!-- Node21&#45;&gt;Node20 -->
<g id="edge33" class="edge">
<title>Node21&#45;&gt;Node20</title>
<path fill="none" stroke="midnightblue" d="M317.62,-195.78C317.38,-179.56 319.14,-144.43 337,-123 354.98,-101.42 383.94,-88.8 408.43,-81.57"/>
<polygon fill="midnightblue" stroke="midnightblue" points="409.53,-84.9 418.25,-78.88 407.69,-78.14 409.53,-84.9"/>
</g>
<!-- Node22 -->
<g id="node22" class="node">
<title>Node22</title>
<g id="a_node22"><a xlink:title=" ">
<polygon fill="white" stroke="#bfbfbf" points="346,-129 346,-148 410,-148 410,-129 346,-129"/>
<text text-anchor="middle" x="378" y="-136" font-family="Helvetica,sans-Serif" font-size="10.00">algorithm</text>
</a>
</g>
</g>
<!-- Node21&#45;&gt;Node22 -->
<g id="edge22" class="edge">
<title>Node21&#45;&gt;Node22</title>
<path fill="none" stroke="midnightblue" d="M326.09,-195.73C335.54,-185.5 351.36,-168.36 363.05,-155.69"/>
<polygon fill="midnightblue" stroke="midnightblue" points="365.83,-157.85 370.04,-148.13 360.68,-153.1 365.83,-157.85"/>
</g>
<!-- Node23 -->
<g id="node23" class="node">
<title>Node23</title>
<g id="a_node23"><a xlink:title=" ">
<polygon fill="white" stroke="#bfbfbf" points="428,-129 428,-148 478,-148 478,-129 428,-129"/>
<text text-anchor="middle" x="453" y="-136" font-family="Helvetica,sans-Serif" font-size="10.00">cstring</text>
</a>
</g>
</g>
<!-- Node21&#45;&gt;Node23 -->
<g id="edge25" class="edge">
<title>Node21&#45;&gt;Node23</title>
<path fill="none" stroke="midnightblue" d="M335.93,-195.87C358.92,-184.8 399.03,-165.49 425.8,-152.6"/>
<polygon fill="midnightblue" stroke="midnightblue" points="427.51,-155.66 435,-148.17 424.47,-149.35 427.51,-155.66"/>
</g>
<!-- Node24 -->
<g id="node24" class="node">
<title>Node24</title>
<g id="a_node24"><a xlink:title=" ">
<polygon fill="white" stroke="#bfbfbf" points="55.5,-62 55.5,-81 96.5,-81 96.5,-62 55.5,-62"/>
<text text-anchor="middle" x="76" y="-69" font-family="Helvetica,sans-Serif" font-size="10.00">tuple</text>
</a>
</g>
</g>
<!-- Node21&#45;&gt;Node24 -->
<g id="edge26" class="edge">
<title>Node21&#45;&gt;Node24</title>
<path fill="none" stroke="midnightblue" d="M239.97,-196.67C181.99,-189.19 109.53,-175.77 89,-154 73.29,-137.34 72.13,-109.71 73.47,-91.31"/>
<polygon fill="midnightblue" stroke="midnightblue" points="76.97,-91.53 74.53,-81.22 70.01,-90.8 76.97,-91.53"/>
</g>
<!-- Node25 -->
<g id="node25" class="node">
<title>Node25</title>
<g id="a_node25"><a xlink:title=" ">
<polygon fill="white" stroke="#bfbfbf" points="182.5,-62 182.5,-81 251.5,-81 251.5,-62 182.5,-62"/>
<text text-anchor="middle" x="217" y="-69" font-family="Helvetica,sans-Serif" font-size="10.00">type_traits</text>
</a>
</g>
</g>
<!-- Node21&#45;&gt;Node25 -->
<g id="edge27" class="edge">
<title>Node21&#45;&gt;Node25</title>
<path fill="none" stroke="midnightblue" d="M307.65,-195.89C296.56,-186.35 278.83,-170.17 266,-154 249.85,-133.65 235.05,-107.53 226.03,-90.42"/>
<polygon fill="midnightblue" stroke="midnightblue" points="228.9,-88.34 221.2,-81.06 222.68,-91.55 228.9,-88.34"/>
</g>
<!-- Node26 -->
<g id="node26" class="node">
<title>Node26</title>
<g id="a_node26"><a xlink:href="tuple__traits_8hpp.html" target="_top" xlink:title="タプル関係の型特性">
<polygon fill="white" stroke="black" points="98,-123.5 98,-153.5 214,-153.5 214,-123.5 98,-123.5"/>
<text text-anchor="start" x="106" y="-141.5" font-family="Helvetica,sans-Serif" font-size="10.00">alps_cmn/type/tuple</text>
<text text-anchor="middle" x="156" y="-130.5" font-family="Helvetica,sans-Serif" font-size="10.00">_traits.hpp</text>
</a>
</g>
</g>
<!-- Node21&#45;&gt;Node26 -->
<g id="edge28" class="edge">
<title>Node21&#45;&gt;Node26</title>
<path fill="none" stroke="midnightblue" d="M296.49,-195.87C272.07,-186.07 231.59,-169.83 200.34,-157.29"/>
<polygon fill="midnightblue" stroke="midnightblue" points="201.55,-154 190.96,-153.53 198.94,-160.5 201.55,-154"/>
</g>
<!-- Node26&#45;&gt;Node24 -->
<g id="edge30" class="edge">
<title>Node26&#45;&gt;Node24</title>
<path fill="none" stroke="midnightblue" d="M138.64,-123.4C125.67,-112.86 107.97,-98.48 94.69,-87.69"/>
<polygon fill="midnightblue" stroke="midnightblue" points="96.67,-84.78 86.7,-81.19 92.26,-90.22 96.67,-84.78"/>
</g>
<!-- Node26&#45;&gt;Node25 -->
<g id="edge31" class="edge">
<title>Node26&#45;&gt;Node25</title>
<path fill="none" stroke="midnightblue" d="M169.24,-123.4C178.84,-113.16 191.85,-99.3 201.87,-88.62"/>
<polygon fill="midnightblue" stroke="midnightblue" points="204.55,-90.88 208.84,-81.19 199.45,-86.09 204.55,-90.88"/>
</g>
<!-- Node27 -->
<g id="node27" class="node">
<title>Node27</title>
<g id="a_node27"><a xlink:title=" ">
<polygon fill="white" stroke="#bfbfbf" points="120,-62 120,-81 164,-81 164,-62 120,-62"/>
<text text-anchor="middle" x="142" y="-69" font-family="Helvetica,sans-Serif" font-size="10.00">string</text>
</a>
</g>
</g>
<!-- Node26&#45;&gt;Node27 -->
<g id="edge29" class="edge">
<title>Node26&#45;&gt;Node27</title>
<path fill="none" stroke="midnightblue" d="M152.96,-123.4C150.93,-113.96 148.24,-101.45 146.03,-91.19"/>
<polygon fill="midnightblue" stroke="midnightblue" points="149.4,-90.23 143.87,-81.19 142.56,-91.71 149.4,-90.23"/>
</g>
<!-- Node30 -->
<g id="node30" class="node">
<title>Node30</title>
<g id="a_node30"><a xlink:title=" ">
<polygon fill="white" stroke="#bfbfbf" points="1569,-196 1569,-215 1619,-215 1619,-196 1569,-196"/>
<text text-anchor="middle" x="1594" y="-203" font-family="Helvetica,sans-Serif" font-size="10.00">chrono</text>
</a>
</g>
</g>
<!-- Node29&#45;&gt;Node30 -->
<g id="edge38" class="edge">
<title>Node29&#45;&gt;Node30</title>
<path fill="none" stroke="midnightblue" d="M1594,-257.4C1594,-248.06 1594,-235.71 1594,-225.52"/>
<polygon fill="midnightblue" stroke="midnightblue" points="1597.5,-225.19 1594,-215.19 1590.5,-225.19 1597.5,-225.19"/>
</g>
</g>
</svg>
