<?xml version="1.0" encoding="UTF-8" standalone="no"?>
<!DOCTYPE svg PUBLIC "-//W3C//DTD SVG 1.1//EN"
 "http://www.w3.org/Graphics/SVG/1.1/DTD/svg11.dtd">
<!-- Generated by graphviz version 2.43.0 (0)
 -->
<!-- Title: alps_common_lib/include/alps_cmn/actuator/robomas_motor.hpp Pages: 1 -->
<svg width="1754pt" height="374pt"
 viewBox="0.00 0.00 1754.19 374.00" xmlns="http://www.w3.org/2000/svg" xmlns:xlink="http://www.w3.org/1999/xlink">
<g id="graph0" class="graph" transform="scale(1 1) rotate(0) translate(4 370)">
<title>alps_common_lib/include/alps_cmn/actuator/robomas_motor.hpp</title>
<polygon fill="white" stroke="transparent" points="-4,4 -4,-370 1750.19,-370 1750.19,4 -4,4"/>
<!-- Node1 -->
<g id="node1" class="node">
<title>Node1</title>
<g id="a_node1"><a xlink:title="ロボマスモータのライブラリ">
<polygon fill="#bfbfbf" stroke="black" points="941.19,-324.5 941.19,-365.5 1096.19,-365.5 1096.19,-324.5 941.19,-324.5"/>
<text text-anchor="start" x="949.19" y="-353.5" font-family="Helvetica,sans-Serif" font-size="10.00">alps_common_lib/include</text>
<text text-anchor="start" x="949.19" y="-342.5" font-family="Helvetica,sans-Serif" font-size="10.00">/alps_cmn/actuator/robomas</text>
<text text-anchor="middle" x="1018.69" y="-331.5" font-family="Helvetica,sans-Serif" font-size="10.00">_motor.hpp</text>
</a>
</g>
</g>
<!-- Node2 -->
<g id="node2" class="node">
<title>Node2</title>
<g id="a_node2"><a xlink:title=" ">
<polygon fill="white" stroke="#bfbfbf" points="168.69,-129 168.69,-148 210.69,-148 210.69,-129 168.69,-129"/>
<text text-anchor="middle" x="189.69" y="-136" font-family="Helvetica,sans-Serif" font-size="10.00">array</text>
</a>
</g>
</g>
<!-- Node1&#45;&gt;Node2 -->
<g id="edge1" class="edge">
<title>Node1&#45;&gt;Node2</title>
<path fill="none" stroke="midnightblue" d="M940.98,-342.51C807.78,-337.37 529.7,-315.17 317.69,-221 276.48,-202.7 233.16,-172.44 208.97,-154.4"/>
<polygon fill="midnightblue" stroke="midnightblue" points="210.77,-151.37 200.68,-148.13 206.55,-156.95 210.77,-151.37"/>
</g>
<!-- Node3 -->
<g id="node3" class="node">
<title>Node3</title>
<g id="a_node3"><a xlink:href="i__motor_8hpp.html" target="_top" xlink:title=" ">
<polygon fill="white" stroke="black" points="1005.19,-257.5 1005.19,-287.5 1118.19,-287.5 1118.19,-257.5 1005.19,-257.5"/>
<text text-anchor="start" x="1013.19" y="-275.5" font-family="Helvetica,sans-Serif" font-size="10.00">alps_cmn/actuator/i</text>
<text text-anchor="middle" x="1061.69" y="-264.5" font-family="Helvetica,sans-Serif" font-size="10.00">_motor.hpp</text>
</a>
</g>
</g>
<!-- Node1&#45;&gt;Node3 -->
<g id="edge2" class="edge">
<title>Node1&#45;&gt;Node3</title>
<path fill="none" stroke="midnightblue" d="M1030.66,-324.36C1035.9,-315.77 1042.08,-305.64 1047.55,-296.68"/>
<polygon fill="midnightblue" stroke="midnightblue" points="1050.69,-298.25 1052.91,-287.89 1044.71,-294.61 1050.69,-298.25"/>
</g>
<!-- Node4 -->
<g id="node4" class="node">
<title>Node4</title>
<g id="a_node4"><a xlink:href="can__typed__data__transceiver_8hpp.html" target="_top" xlink:title="CAN通信で型付けされたデータの送受信を行うライブラリ">
<polygon fill="white" stroke="black" points="699.19,-257.5 699.19,-287.5 876.19,-287.5 876.19,-257.5 699.19,-257.5"/>
<text text-anchor="start" x="707.19" y="-275.5" font-family="Helvetica,sans-Serif" font-size="10.00">alps_cmn/communication</text>
<text text-anchor="middle" x="787.69" y="-264.5" font-family="Helvetica,sans-Serif" font-size="10.00">/can_typed_data_transceiver.hpp</text>
</a>
</g>
</g>
<!-- Node1&#45;&gt;Node4 -->
<g id="edge3" class="edge">
<title>Node1&#45;&gt;Node4</title>
<path fill="none" stroke="midnightblue" d="M954.65,-324.46C919.77,-313.81 877.02,-300.76 843.51,-290.54"/>
<polygon fill="midnightblue" stroke="midnightblue" points="844.46,-287.17 833.87,-287.6 842.42,-293.86 844.46,-287.17"/>
</g>
<!-- Node10 -->
<g id="node10" class="node">
<title>Node10</title>
<g id="a_node10"><a xlink:title=" ">
<polygon fill="white" stroke="#bfbfbf" points="40.69,-62 40.69,-81 124.69,-81 124.69,-62 40.69,-62"/>
<text text-anchor="middle" x="82.69" y="-69" font-family="Helvetica,sans-Serif" font-size="10.00">etl/delegate.h</text>
</a>
</g>
</g>
<!-- Node1&#45;&gt;Node10 -->
<g id="edge37" class="edge">
<title>Node1&#45;&gt;Node10</title>
<path fill="none" stroke="midnightblue" d="M941.03,-342.24C825.73,-338.41 602.93,-326.26 417.69,-288 229.11,-249.05 118.84,-309.79 5.69,-154 -2.41,-142.85 -0.86,-135.12 5.69,-123 14.96,-105.83 32.89,-93.56 49.12,-85.41"/>
<polygon fill="midnightblue" stroke="midnightblue" points="50.81,-88.48 58.4,-81.08 47.85,-82.14 50.81,-88.48"/>
</g>
<!-- Node11 -->
<g id="node11" class="node">
<title>Node11</title>
<g id="a_node11"><a xlink:title=" ">
<polygon fill="white" stroke="#bfbfbf" points="1197.69,-129 1197.69,-148 1315.69,-148 1315.69,-129 1197.69,-129"/>
<text text-anchor="middle" x="1256.69" y="-136" font-family="Helvetica,sans-Serif" font-size="10.00">etl/unordered_map.h</text>
</a>
</g>
</g>
<!-- Node1&#45;&gt;Node11 -->
<g id="edge38" class="edge">
<title>Node1&#45;&gt;Node11</title>
<path fill="none" stroke="midnightblue" d="M1005.41,-324.25C994.7,-305.62 983.42,-277.55 996.69,-257 1022.17,-217.51 1152.73,-172.01 1218.59,-151.1"/>
<polygon fill="midnightblue" stroke="midnightblue" points="1219.71,-154.42 1228.2,-148.08 1217.61,-147.74 1219.71,-154.42"/>
</g>
<!-- Node24 -->
<g id="node24" class="node">
<title>Node24</title>
<g id="a_node24"><a xlink:href="logging__macros_8hpp.html" target="_top" xlink:title=" ">
<polygon fill="white" stroke="black" points="326.69,-190.5 326.69,-220.5 446.69,-220.5 446.69,-190.5 326.69,-190.5"/>
<text text-anchor="start" x="334.69" y="-208.5" font-family="Helvetica,sans-Serif" font-size="10.00">alps_cmn/log/logging</text>
<text text-anchor="middle" x="386.69" y="-197.5" font-family="Helvetica,sans-Serif" font-size="10.00">_macros.hpp</text>
</a>
</g>
</g>
<!-- Node1&#45;&gt;Node24 -->
<g id="edge31" class="edge">
<title>Node1&#45;&gt;Node24</title>
<path fill="none" stroke="midnightblue" d="M941.18,-332.92C874.25,-322.84 775.15,-306.72 689.69,-288 602.86,-268.98 503.62,-241.1 443.07,-223.37"/>
<polygon fill="midnightblue" stroke="midnightblue" points="443.91,-219.97 433.32,-220.51 441.93,-226.69 443.91,-219.97"/>
</g>
<!-- Node26 -->
<g id="node26" class="node">
<title>Node26</title>
<g id="a_node26"><a xlink:href="i__rotary__sensor_8hpp.html" target="_top" xlink:title=" ">
<polygon fill="white" stroke="black" points="1136.19,-257.5 1136.19,-287.5 1275.19,-287.5 1275.19,-257.5 1136.19,-257.5"/>
<text text-anchor="start" x="1144.19" y="-275.5" font-family="Helvetica,sans-Serif" font-size="10.00">alps_cmn/sensor/i_rotary</text>
<text text-anchor="middle" x="1205.69" y="-264.5" font-family="Helvetica,sans-Serif" font-size="10.00">_sensor.hpp</text>
</a>
</g>
</g>
<!-- Node1&#45;&gt;Node26 -->
<g id="edge32" class="edge">
<title>Node1&#45;&gt;Node26</title>
<path fill="none" stroke="midnightblue" d="M1070.78,-324.36C1098.4,-313.95 1132.07,-301.25 1158.86,-291.15"/>
<polygon fill="midnightblue" stroke="midnightblue" points="1160.27,-294.36 1168.39,-287.56 1157.8,-287.81 1160.27,-294.36"/>
</g>
<!-- Node27 -->
<g id="node27" class="node">
<title>Node27</title>
<g id="a_node27"><a xlink:href="timeout__checker_8hpp.html" target="_top" xlink:title="タイムアウトを検知するクラス">
<polygon fill="white" stroke="black" points="1293.69,-257.5 1293.69,-287.5 1423.69,-287.5 1423.69,-257.5 1293.69,-257.5"/>
<text text-anchor="start" x="1301.69" y="-275.5" font-family="Helvetica,sans-Serif" font-size="10.00">alps_cmn/time/timeout</text>
<text text-anchor="middle" x="1358.69" y="-264.5" font-family="Helvetica,sans-Serif" font-size="10.00">_checker.hpp</text>
</a>
</g>
</g>
<!-- Node1&#45;&gt;Node27 -->
<g id="edge33" class="edge">
<title>Node1&#45;&gt;Node27</title>
<path fill="none" stroke="midnightblue" d="M1096.26,-327.91C1152.47,-316.26 1228.04,-300.59 1283.65,-289.06"/>
<polygon fill="midnightblue" stroke="midnightblue" points="1284.36,-292.49 1293.44,-287.03 1282.94,-285.63 1284.36,-292.49"/>
</g>
<!-- Node29 -->
<g id="node29" class="node">
<title>Node29</title>
<g id="a_node29"><a xlink:href="algorithm_8hpp.html" target="_top" xlink:title=" ">
<polygon fill="white" stroke="black" points="1442.19,-263 1442.19,-282 1595.19,-282 1595.19,-263 1442.19,-263"/>
<text text-anchor="middle" x="1518.69" y="-270" font-family="Helvetica,sans-Serif" font-size="10.00">alps_cmn/util/algorithm.hpp</text>
</a>
</g>
</g>
<!-- Node1&#45;&gt;Node29 -->
<g id="edge35" class="edge">
<title>Node1&#45;&gt;Node29</title>
<path fill="none" stroke="midnightblue" d="M1096.24,-334.28C1179.51,-323.66 1315.62,-305.78 1432.69,-288 1441.39,-286.68 1450.57,-285.21 1459.57,-283.73"/>
<polygon fill="midnightblue" stroke="midnightblue" points="1460.32,-287.15 1469.61,-282.06 1459.17,-280.25 1460.32,-287.15"/>
</g>
<!-- Node30 -->
<g id="node30" class="node">
<title>Node30</title>
<g id="a_node30"><a xlink:href="angle_8hpp.html" target="_top" xlink:title=" ">
<polygon fill="white" stroke="black" points="1613.19,-263 1613.19,-282 1746.19,-282 1746.19,-263 1613.19,-263"/>
<text text-anchor="middle" x="1679.69" y="-270" font-family="Helvetica,sans-Serif" font-size="10.00">alps_cmn/util/angle.hpp</text>
</a>
</g>
</g>
<!-- Node1&#45;&gt;Node30 -->
<g id="edge36" class="edge">
<title>Node1&#45;&gt;Node30</title>
<path fill="none" stroke="midnightblue" d="M1096.22,-338.96C1208.66,-331.12 1423.37,-314.13 1604.69,-288 1612.71,-286.84 1621.18,-285.41 1629.43,-283.9"/>
<polygon fill="midnightblue" stroke="midnightblue" points="1630.15,-287.33 1639.32,-282.04 1628.85,-280.45 1630.15,-287.33"/>
</g>
<!-- Node5 -->
<g id="node5" class="node">
<title>Node5</title>
<g id="a_node5"><a xlink:href="can__callback__handler_8hpp.html" target="_top" xlink:title="CANデータフレームをコールバックで処理するためのライブラリ">
<polygon fill="white" stroke="black" points="877.19,-190.5 877.19,-220.5 1022.19,-220.5 1022.19,-190.5 877.19,-190.5"/>
<text text-anchor="start" x="885.19" y="-208.5" font-family="Helvetica,sans-Serif" font-size="10.00">alps_cmn/communication</text>
<text text-anchor="middle" x="949.69" y="-197.5" font-family="Helvetica,sans-Serif" font-size="10.00">/can_callback_handler.hpp</text>
</a>
</g>
</g>
<!-- Node4&#45;&gt;Node5 -->
<g id="edge4" class="edge">
<title>Node4&#45;&gt;Node5</title>
<path fill="none" stroke="midnightblue" d="M822.84,-257.4C846.93,-247.73 879.1,-234.82 905.01,-224.43"/>
<polygon fill="midnightblue" stroke="midnightblue" points="906.62,-227.55 914.6,-220.58 904.02,-221.05 906.62,-227.55"/>
</g>
<!-- Node12 -->
<g id="node12" class="node">
<title>Node12</title>
<g id="a_node12"><a xlink:href="cobs_8hpp.html" target="_top" xlink:title="COBS変換ライブラリ">
<polygon fill="white" stroke="black" points="716.69,-190.5 716.69,-220.5 858.69,-220.5 858.69,-190.5 716.69,-190.5"/>
<text text-anchor="start" x="724.69" y="-208.5" font-family="Helvetica,sans-Serif" font-size="10.00">alps_cmn/communication</text>
<text text-anchor="middle" x="787.69" y="-197.5" font-family="Helvetica,sans-Serif" font-size="10.00">/cobs.hpp</text>
</a>
</g>
</g>
<!-- Node4&#45;&gt;Node12 -->
<g id="edge11" class="edge">
<title>Node4&#45;&gt;Node12</title>
<path fill="none" stroke="midnightblue" d="M787.69,-257.4C787.69,-249.64 787.69,-239.81 787.69,-230.86"/>
<polygon fill="midnightblue" stroke="midnightblue" points="791.19,-230.58 787.69,-220.58 784.19,-230.58 791.19,-230.58"/>
</g>
<!-- Node18 -->
<g id="node18" class="node">
<title>Node18</title>
<g id="a_node18"><a xlink:href="serializer_8hpp.html" target="_top" xlink:title="データとバイト列の変換ライブラリ">
<polygon fill="white" stroke="black" points="464.69,-190.5 464.69,-220.5 606.69,-220.5 606.69,-190.5 464.69,-190.5"/>
<text text-anchor="start" x="472.69" y="-208.5" font-family="Helvetica,sans-Serif" font-size="10.00">alps_cmn/communication</text>
<text text-anchor="middle" x="535.69" y="-197.5" font-family="Helvetica,sans-Serif" font-size="10.00">/serializer.hpp</text>
</a>
</g>
</g>
<!-- Node4&#45;&gt;Node18 -->
<g id="edge17" class="edge">
<title>Node4&#45;&gt;Node18</title>
<path fill="none" stroke="midnightblue" d="M733.32,-257.48C694.28,-247.41 641.52,-233.8 600.33,-223.17"/>
<polygon fill="midnightblue" stroke="midnightblue" points="600.95,-219.72 590.39,-220.61 599.2,-226.5 600.95,-219.72"/>
</g>
<!-- Node4&#45;&gt;Node24 -->
<g id="edge27" class="edge">
<title>Node4&#45;&gt;Node24</title>
<path fill="none" stroke="midnightblue" d="M699.04,-259.4C634.45,-250.26 544.64,-236.88 456.73,-221.13"/>
<polygon fill="midnightblue" stroke="midnightblue" points="457.32,-217.68 446.86,-219.35 456.08,-224.57 457.32,-217.68"/>
</g>
<!-- Node6 -->
<g id="node6" class="node">
<title>Node6</title>
<g id="a_node6"><a xlink:href="i__can__io_8hpp.html" target="_top" xlink:title=" ">
<polygon fill="white" stroke="black" points="1037.69,-123.5 1037.69,-153.5 1179.69,-153.5 1179.69,-123.5 1037.69,-123.5"/>
<text text-anchor="start" x="1045.69" y="-141.5" font-family="Helvetica,sans-Serif" font-size="10.00">alps_cmn/communication</text>
<text text-anchor="middle" x="1108.69" y="-130.5" font-family="Helvetica,sans-Serif" font-size="10.00">/i_can_io.hpp</text>
</a>
</g>
</g>
<!-- Node5&#45;&gt;Node6 -->
<g id="edge5" class="edge">
<title>Node5&#45;&gt;Node6</title>
<path fill="none" stroke="midnightblue" d="M984.19,-190.4C1007.83,-180.73 1039.4,-167.82 1064.83,-157.43"/>
<polygon fill="midnightblue" stroke="midnightblue" points="1066.32,-160.6 1074.25,-153.58 1063.67,-154.12 1066.32,-160.6"/>
</g>
<!-- Node5&#45;&gt;Node10 -->
<g id="edge9" class="edge">
<title>Node5&#45;&gt;Node10</title>
<path fill="none" stroke="midnightblue" d="M966.09,-190.32C984.49,-172.76 1009.44,-142.76 990.69,-123 964.26,-95.16 339,-89.27 300.69,-87 244.07,-83.64 179.23,-79.26 135.08,-76.2"/>
<polygon fill="midnightblue" stroke="midnightblue" points="135.09,-72.69 124.87,-75.49 134.61,-79.67 135.09,-72.69"/>
</g>
<!-- Node5&#45;&gt;Node11 -->
<g id="edge10" class="edge">
<title>Node5&#45;&gt;Node11</title>
<path fill="none" stroke="midnightblue" d="M1016.14,-190.49C1064.1,-180.38 1130.4,-166.37 1188.69,-154 1194.51,-152.76 1200.61,-151.47 1206.67,-150.17"/>
<polygon fill="midnightblue" stroke="midnightblue" points="1207.72,-153.53 1216.78,-148.02 1206.27,-146.68 1207.72,-153.53"/>
</g>
<!-- Node7 -->
<g id="node7" class="node">
<title>Node7</title>
<g id="a_node7"><a xlink:href="can__data__frame_8hpp.html" target="_top" xlink:title="CANフレームを表す構造体">
<polygon fill="white" stroke="black" points="819.69,-56.5 819.69,-86.5 961.69,-86.5 961.69,-56.5 819.69,-56.5"/>
<text text-anchor="start" x="827.69" y="-74.5" font-family="Helvetica,sans-Serif" font-size="10.00">alps_cmn/communication</text>
<text text-anchor="middle" x="890.69" y="-63.5" font-family="Helvetica,sans-Serif" font-size="10.00">/can_data_frame.hpp</text>
</a>
</g>
</g>
<!-- Node6&#45;&gt;Node7 -->
<g id="edge6" class="edge">
<title>Node6&#45;&gt;Node7</title>
<path fill="none" stroke="midnightblue" d="M1061.65,-123.48C1028.24,-113.51 983.21,-100.09 947.74,-89.51"/>
<polygon fill="midnightblue" stroke="midnightblue" points="948.59,-86.11 938.01,-86.61 946.59,-92.82 948.59,-86.11"/>
</g>
<!-- Node8 -->
<g id="node8" class="node">
<title>Node8</title>
<g id="a_node8"><a xlink:title=" ">
<polygon fill="white" stroke="#bfbfbf" points="864.19,-0.5 864.19,-19.5 917.19,-19.5 917.19,-0.5 864.19,-0.5"/>
<text text-anchor="middle" x="890.69" y="-7.5" font-family="Helvetica,sans-Serif" font-size="10.00">stdint.h</text>
</a>
</g>
</g>
<!-- Node7&#45;&gt;Node8 -->
<g id="edge7" class="edge">
<title>Node7&#45;&gt;Node8</title>
<path fill="none" stroke="midnightblue" d="M890.69,-56.4C890.69,-48.47 890.69,-38.46 890.69,-29.86"/>
<polygon fill="midnightblue" stroke="midnightblue" points="894.19,-29.66 890.69,-19.66 887.19,-29.66 894.19,-29.66"/>
</g>
<!-- Node9 -->
<g id="node9" class="node">
<title>Node9</title>
<g id="a_node9"><a xlink:title=" ">
<polygon fill="white" stroke="#bfbfbf" points="657.19,-0.5 657.19,-19.5 728.19,-19.5 728.19,-0.5 657.19,-0.5"/>
<text text-anchor="middle" x="692.69" y="-7.5" font-family="Helvetica,sans-Serif" font-size="10.00">etl/vector.h</text>
</a>
</g>
</g>
<!-- Node7&#45;&gt;Node9 -->
<g id="edge8" class="edge">
<title>Node7&#45;&gt;Node9</title>
<path fill="none" stroke="midnightblue" d="M844.01,-56.47C809.56,-46.12 763.23,-32.2 730.95,-22.5"/>
<polygon fill="midnightblue" stroke="midnightblue" points="731.58,-19.03 720.99,-19.51 729.56,-25.74 731.58,-19.03"/>
</g>
<!-- Node13 -->
<g id="node13" class="node">
<title>Node13</title>
<g id="a_node13"><a xlink:title=" ">
<polygon fill="white" stroke="#bfbfbf" points="929.69,-129 929.69,-148 981.69,-148 981.69,-129 929.69,-129"/>
<text text-anchor="middle" x="955.69" y="-136" font-family="Helvetica,sans-Serif" font-size="10.00">cassert</text>
</a>
</g>
</g>
<!-- Node12&#45;&gt;Node13 -->
<g id="edge12" class="edge">
<title>Node12&#45;&gt;Node13</title>
<path fill="none" stroke="midnightblue" d="M825.02,-190.42C851.49,-180.38 887.82,-166.51 919.69,-154 921.32,-153.36 923,-152.69 924.7,-152.02"/>
<polygon fill="midnightblue" stroke="midnightblue" points="926.4,-155.11 934.39,-148.15 923.8,-148.61 926.4,-155.11"/>
</g>
<!-- Node14 -->
<g id="node14" class="node">
<title>Node14</title>
<g id="a_node14"><a xlink:title=" ">
<polygon fill="white" stroke="#bfbfbf" points="729.69,-129 729.69,-148 779.69,-148 779.69,-129 729.69,-129"/>
<text text-anchor="middle" x="754.69" y="-136" font-family="Helvetica,sans-Serif" font-size="10.00">cstdint</text>
</a>
</g>
</g>
<!-- Node12&#45;&gt;Node14 -->
<g id="edge13" class="edge">
<title>Node12&#45;&gt;Node14</title>
<path fill="none" stroke="midnightblue" d="M780.52,-190.4C775.58,-180.66 768.97,-167.65 763.68,-157.21"/>
<polygon fill="midnightblue" stroke="midnightblue" points="766.75,-155.53 759.1,-148.19 760.51,-158.7 766.75,-155.53"/>
</g>
<!-- Node15 -->
<g id="node15" class="node">
<title>Node15</title>
<g id="a_node15"><a xlink:title=" ">
<polygon fill="white" stroke="#bfbfbf" points="797.69,-129 797.69,-148 843.69,-148 843.69,-129 797.69,-129"/>
<text text-anchor="middle" x="820.69" y="-136" font-family="Helvetica,sans-Serif" font-size="10.00">cstdio</text>
</a>
</g>
</g>
<!-- Node12&#45;&gt;Node15 -->
<g id="edge14" class="edge">
<title>Node12&#45;&gt;Node15</title>
<path fill="none" stroke="midnightblue" d="M794.85,-190.4C799.79,-180.66 806.4,-167.65 811.69,-157.21"/>
<polygon fill="midnightblue" stroke="midnightblue" points="814.86,-158.7 816.27,-148.19 808.62,-155.53 814.86,-158.7"/>
</g>
<!-- Node16 -->
<g id="node16" class="node">
<title>Node16</title>
<g id="a_node16"><a xlink:title=" ">
<polygon fill="white" stroke="#bfbfbf" points="862.19,-129 862.19,-148 911.19,-148 911.19,-129 862.19,-129"/>
<text text-anchor="middle" x="886.69" y="-136" font-family="Helvetica,sans-Serif" font-size="10.00">cstdlib</text>
</a>
</g>
</g>
<!-- Node12&#45;&gt;Node16 -->
<g id="edge15" class="edge">
<title>Node12&#45;&gt;Node16</title>
<path fill="none" stroke="midnightblue" d="M809.17,-190.4C825.77,-179.5 848.64,-164.48 865.23,-153.58"/>
<polygon fill="midnightblue" stroke="midnightblue" points="867.29,-156.42 873.73,-148.01 863.45,-150.57 867.29,-156.42"/>
</g>
<!-- Node17 -->
<g id="node17" class="node">
<title>Node17</title>
<g id="a_node17"><a xlink:title=" ">
<polygon fill="white" stroke="#bfbfbf" points="601.69,-129 601.69,-148 711.69,-148 711.69,-129 601.69,-129"/>
<text text-anchor="middle" x="656.69" y="-136" font-family="Helvetica,sans-Serif" font-size="10.00">etl/circular_buffer.h</text>
</a>
</g>
</g>
<!-- Node12&#45;&gt;Node17 -->
<g id="edge16" class="edge">
<title>Node12&#45;&gt;Node17</title>
<path fill="none" stroke="midnightblue" d="M759.26,-190.4C736.58,-179.14 705.06,-163.5 682.96,-152.54"/>
<polygon fill="midnightblue" stroke="midnightblue" points="684.34,-149.32 673.83,-148.01 681.23,-155.59 684.34,-149.32"/>
</g>
<!-- Node18&#45;&gt;Node2 -->
<g id="edge19" class="edge">
<title>Node18&#45;&gt;Node2</title>
<path fill="none" stroke="midnightblue" d="M464.6,-191.51C461.59,-190.99 458.61,-190.49 455.69,-190 351.03,-172.54 321.02,-185.44 219.69,-154 218.01,-153.48 216.32,-152.88 214.63,-152.23"/>
<polygon fill="midnightblue" stroke="midnightblue" points="215.77,-148.91 205.21,-148.09 212.95,-155.32 215.77,-148.91"/>
</g>
<!-- Node18&#45;&gt;Node9 -->
<g id="edge26" class="edge">
<title>Node18&#45;&gt;Node9</title>
<path fill="none" stroke="midnightblue" d="M544.88,-190.29C555.76,-173.74 574.68,-145.74 592.69,-123 620.82,-87.45 656.88,-48.51 677.11,-27.2"/>
<polygon fill="midnightblue" stroke="midnightblue" points="679.91,-29.34 684.28,-19.69 674.84,-24.51 679.91,-29.34"/>
</g>
<!-- Node18&#45;&gt;Node14 -->
<g id="edge20" class="edge">
<title>Node18&#45;&gt;Node14</title>
<path fill="none" stroke="midnightblue" d="M595.05,-190.49C631.65,-181.32 679.34,-168.39 720.69,-154 722.55,-153.35 724.46,-152.65 726.37,-151.92"/>
<polygon fill="midnightblue" stroke="midnightblue" points="727.85,-155.09 735.8,-148.09 725.22,-148.6 727.85,-155.09"/>
</g>
<!-- Node18&#45;&gt;Node17 -->
<g id="edge24" class="edge">
<title>Node18&#45;&gt;Node17</title>
<path fill="none" stroke="midnightblue" d="M561.94,-190.4C582.7,-179.24 611.48,-163.78 631.86,-152.83"/>
<polygon fill="midnightblue" stroke="midnightblue" points="633.7,-155.82 640.85,-148.01 630.38,-149.66 633.7,-155.82"/>
</g>
<!-- Node19 -->
<g id="node19" class="node">
<title>Node19</title>
<g id="a_node19"><a xlink:title=" ">
<polygon fill="white" stroke="#bfbfbf" points="443.69,-129 443.69,-148 507.69,-148 507.69,-129 443.69,-129"/>
<text text-anchor="middle" x="475.69" y="-136" font-family="Helvetica,sans-Serif" font-size="10.00">algorithm</text>
</a>
</g>
</g>
<!-- Node18&#45;&gt;Node19 -->
<g id="edge18" class="edge">
<title>Node18&#45;&gt;Node19</title>
<path fill="none" stroke="midnightblue" d="M522.67,-190.4C513.22,-180.16 500.42,-166.3 490.57,-155.62"/>
<polygon fill="midnightblue" stroke="midnightblue" points="493.07,-153.17 483.71,-148.19 487.92,-157.92 493.07,-153.17"/>
</g>
<!-- Node20 -->
<g id="node20" class="node">
<title>Node20</title>
<g id="a_node20"><a xlink:title=" ">
<polygon fill="white" stroke="#bfbfbf" points="228.69,-129 228.69,-148 278.69,-148 278.69,-129 228.69,-129"/>
<text text-anchor="middle" x="253.69" y="-136" font-family="Helvetica,sans-Serif" font-size="10.00">cstring</text>
</a>
</g>
</g>
<!-- Node18&#45;&gt;Node20 -->
<g id="edge21" class="edge">
<title>Node18&#45;&gt;Node20</title>
<path fill="none" stroke="midnightblue" d="M464.61,-190.79C397.44,-177.7 304.49,-159.24 287.69,-154 285.54,-153.33 283.36,-152.58 281.17,-151.77"/>
<polygon fill="midnightblue" stroke="midnightblue" points="282.37,-148.48 271.78,-148.02 279.77,-154.98 282.37,-148.48"/>
</g>
<!-- Node21 -->
<g id="node21" class="node">
<title>Node21</title>
<g id="a_node21"><a xlink:title=" ">
<polygon fill="white" stroke="#bfbfbf" points="297.19,-129 297.19,-148 338.19,-148 338.19,-129 297.19,-129"/>
<text text-anchor="middle" x="317.69" y="-136" font-family="Helvetica,sans-Serif" font-size="10.00">tuple</text>
</a>
</g>
</g>
<!-- Node18&#45;&gt;Node21 -->
<g id="edge22" class="edge">
<title>Node18&#45;&gt;Node21</title>
<path fill="none" stroke="midnightblue" d="M470.36,-190.5C433.48,-181.74 386.86,-169.23 346.69,-154 345.3,-153.48 343.9,-152.91 342.49,-152.31"/>
<polygon fill="midnightblue" stroke="midnightblue" points="343.92,-149.11 333.38,-148.07 340.97,-155.46 343.92,-149.11"/>
</g>
<!-- Node22 -->
<g id="node22" class="node">
<title>Node22</title>
<g id="a_node22"><a xlink:title=" ">
<polygon fill="white" stroke="#bfbfbf" points="356.19,-129 356.19,-148 425.19,-148 425.19,-129 356.19,-129"/>
<text text-anchor="middle" x="390.69" y="-136" font-family="Helvetica,sans-Serif" font-size="10.00">type_traits</text>
</a>
</g>
</g>
<!-- Node18&#45;&gt;Node22 -->
<g id="edge23" class="edge">
<title>Node18&#45;&gt;Node22</title>
<path fill="none" stroke="midnightblue" d="M504.22,-190.4C478.78,-178.99 443.29,-163.08 418.79,-152.1"/>
<polygon fill="midnightblue" stroke="midnightblue" points="420.22,-148.9 409.66,-148.01 417.36,-155.29 420.22,-148.9"/>
</g>
<!-- Node23 -->
<g id="node23" class="node">
<title>Node23</title>
<g id="a_node23"><a xlink:title=" ">
<polygon fill="white" stroke="#bfbfbf" points="310.19,-62 310.19,-81 379.19,-81 379.19,-62 310.19,-62"/>
<text text-anchor="middle" x="344.69" y="-69" font-family="Helvetica,sans-Serif" font-size="10.00">etl/string.h</text>
</a>
</g>
</g>
<!-- Node18&#45;&gt;Node23 -->
<g id="edge25" class="edge">
<title>Node18&#45;&gt;Node23</title>
<path fill="none" stroke="midnightblue" d="M536.43,-190.43C536.59,-172.42 534.05,-141.37 516.69,-123 483.82,-88.22 428.38,-77 389.35,-73.59"/>
<polygon fill="midnightblue" stroke="midnightblue" points="389.53,-70.09 379.3,-72.85 389.02,-77.07 389.53,-70.09"/>
</g>
<!-- Node25 -->
<g id="node25" class="node">
<title>Node25</title>
<g id="a_node25"><a xlink:href="logger_8hpp.html" target="_top" xlink:title=" ">
<polygon fill="white" stroke="black" points="15.19,-129 15.19,-148 150.19,-148 150.19,-129 15.19,-129"/>
<text text-anchor="middle" x="82.69" y="-136" font-family="Helvetica,sans-Serif" font-size="10.00">alps_cmn/log/logger.hpp</text>
</a>
</g>
</g>
<!-- Node24&#45;&gt;Node25 -->
<g id="edge28" class="edge">
<title>Node24&#45;&gt;Node25</title>
<path fill="none" stroke="midnightblue" d="M326.62,-191.66C269.89,-179.53 185.79,-161.54 132.63,-150.18"/>
<polygon fill="midnightblue" stroke="midnightblue" points="133.26,-146.74 122.75,-148.07 131.8,-153.58 133.26,-146.74"/>
</g>
<!-- Node25&#45;&gt;Node10 -->
<g id="edge29" class="edge">
<title>Node25&#45;&gt;Node10</title>
<path fill="none" stroke="midnightblue" d="M82.69,-128.73C82.69,-119.18 82.69,-103.62 82.69,-91.28"/>
<polygon fill="midnightblue" stroke="midnightblue" points="86.19,-91.13 82.69,-81.13 79.19,-91.13 86.19,-91.13"/>
</g>
<!-- Node25&#45;&gt;Node23 -->
<g id="edge30" class="edge">
<title>Node25&#45;&gt;Node23</title>
<path fill="none" stroke="midnightblue" d="M117.21,-128.94C164.23,-117.27 248.48,-96.37 300.2,-83.54"/>
<polygon fill="midnightblue" stroke="midnightblue" points="301.22,-86.89 310.09,-81.08 299.54,-80.09 301.22,-86.89"/>
</g>
<!-- Node28 -->
<g id="node28" class="node">
<title>Node28</title>
<g id="a_node28"><a xlink:title=" ">
<polygon fill="white" stroke="#bfbfbf" points="1333.69,-196 1333.69,-215 1383.69,-215 1383.69,-196 1333.69,-196"/>
<text text-anchor="middle" x="1358.69" y="-203" font-family="Helvetica,sans-Serif" font-size="10.00">chrono</text>
</a>
</g>
</g>
<!-- Node27&#45;&gt;Node28 -->
<g id="edge34" class="edge">
<title>Node27&#45;&gt;Node28</title>
<path fill="none" stroke="midnightblue" d="M1358.69,-257.4C1358.69,-248.06 1358.69,-235.71 1358.69,-225.52"/>
<polygon fill="midnightblue" stroke="midnightblue" points="1362.19,-225.19 1358.69,-215.19 1355.19,-225.19 1362.19,-225.19"/>
</g>
</g>
</svg>
