<?xml version="1.0" encoding="UTF-8" standalone="no"?>
<!DOCTYPE svg PUBLIC "-//W3C//DTD SVG 1.1//EN"
 "http://www.w3.org/Graphics/SVG/1.1/DTD/svg11.dtd">
<!-- Generated by graphviz version 2.43.0 (0)
 -->
<!-- Title: alps_common_lib/include/alps_cmn/actuator/robomas_motors_can_port.hpp Pages: 1 -->
<svg width="1428pt" height="374pt"
 viewBox="0.00 0.00 1427.50 374.00" xmlns="http://www.w3.org/2000/svg" xmlns:xlink="http://www.w3.org/1999/xlink">
<g id="graph0" class="graph" transform="scale(1 1) rotate(0) translate(4 370)">
<title>alps_common_lib/include/alps_cmn/actuator/robomas_motors_can_port.hpp</title>
<polygon fill="white" stroke="transparent" points="-4,4 -4,-370 1423.5,-370 1423.5,4 -4,4"/>
<!-- Node1 -->
<g id="node1" class="node">
<title>Node1</title>
<g id="a_node1"><a xlink:title=" ">
<polygon fill="#bfbfbf" stroke="black" points="709,-324.5 709,-365.5 864,-365.5 864,-324.5 709,-324.5"/>
<text text-anchor="start" x="717" y="-353.5" font-family="Helvetica,sans-Serif" font-size="10.00">alps_common_lib/include</text>
<text text-anchor="start" x="717" y="-342.5" font-family="Helvetica,sans-Serif" font-size="10.00">/alps_cmn/actuator/robomas</text>
<text text-anchor="middle" x="786.5" y="-331.5" font-family="Helvetica,sans-Serif" font-size="10.00">_motors_can_port.hpp</text>
</a>
</g>
</g>
<!-- Node2 -->
<g id="node2" class="node">
<title>Node2</title>
<g id="a_node2"><a xlink:href="robomas__motor_8hpp.html" target="_top" xlink:title="ロボマスモータのライブラリ">
<polygon fill="white" stroke="black" points="466.5,-257.5 466.5,-287.5 618.5,-287.5 618.5,-257.5 466.5,-257.5"/>
<text text-anchor="start" x="474.5" y="-275.5" font-family="Helvetica,sans-Serif" font-size="10.00">alps_cmn/actuator/robomas</text>
<text text-anchor="middle" x="542.5" y="-264.5" font-family="Helvetica,sans-Serif" font-size="10.00">_motor.hpp</text>
</a>
</g>
</g>
<!-- Node1&#45;&gt;Node2 -->
<g id="edge1" class="edge">
<title>Node1&#45;&gt;Node2</title>
<path fill="none" stroke="midnightblue" d="M718.86,-324.46C681.86,-313.77 636.47,-300.65 601.01,-290.41"/>
<polygon fill="midnightblue" stroke="midnightblue" points="601.87,-287.01 591.29,-287.6 599.92,-293.74 601.87,-287.01"/>
</g>
<!-- Node8 -->
<g id="node8" class="node">
<title>Node8</title>
<g id="a_node8"><a xlink:href="can__typed__data__transceiver_8hpp.html" target="_top" xlink:title="CAN通信で型付けされたデータの送受信を行うライブラリ">
<polygon fill="white" stroke="black" points="698,-257.5 698,-287.5 875,-287.5 875,-257.5 698,-257.5"/>
<text text-anchor="start" x="706" y="-275.5" font-family="Helvetica,sans-Serif" font-size="10.00">alps_cmn/communication</text>
<text text-anchor="middle" x="786.5" y="-264.5" font-family="Helvetica,sans-Serif" font-size="10.00">/can_typed_data_transceiver.hpp</text>
</a>
</g>
</g>
<!-- Node1&#45;&gt;Node8 -->
<g id="edge7" class="edge">
<title>Node1&#45;&gt;Node8</title>
<path fill="none" stroke="midnightblue" d="M786.5,-324.36C786.5,-316.23 786.5,-306.7 786.5,-298.11"/>
<polygon fill="midnightblue" stroke="midnightblue" points="790,-297.89 786.5,-287.89 783,-297.89 790,-297.89"/>
</g>
<!-- Node12 -->
<g id="node12" class="node">
<title>Node12</title>
<g id="a_node12"><a xlink:title=" ">
<polygon fill="white" stroke="#bfbfbf" points="1301.5,-129 1301.5,-148 1419.5,-148 1419.5,-129 1301.5,-129"/>
<text text-anchor="middle" x="1360.5" y="-136" font-family="Helvetica,sans-Serif" font-size="10.00">etl/unordered_map.h</text>
</a>
</g>
</g>
<!-- Node1&#45;&gt;Node12 -->
<g id="edge38" class="edge">
<title>Node1&#45;&gt;Node12</title>
<path fill="none" stroke="midnightblue" d="M864.3,-337.24C965.22,-325.72 1144.12,-295.76 1277.5,-221 1306.87,-204.54 1333.19,-174.95 1347.97,-156.32"/>
<polygon fill="midnightblue" stroke="midnightblue" points="1350.93,-158.21 1354.27,-148.15 1345.39,-153.94 1350.93,-158.21"/>
</g>
<!-- Node3 -->
<g id="node3" class="node">
<title>Node3</title>
<g id="a_node3"><a xlink:href="i__motor_8hpp.html" target="_top" xlink:title=" ">
<polygon fill="white" stroke="black" points="157,-190.5 157,-220.5 270,-220.5 270,-190.5 157,-190.5"/>
<text text-anchor="start" x="165" y="-208.5" font-family="Helvetica,sans-Serif" font-size="10.00">alps_cmn/actuator/i</text>
<text text-anchor="middle" x="213.5" y="-197.5" font-family="Helvetica,sans-Serif" font-size="10.00">_motor.hpp</text>
</a>
</g>
</g>
<!-- Node2&#45;&gt;Node3 -->
<g id="edge2" class="edge">
<title>Node2&#45;&gt;Node3</title>
<path fill="none" stroke="midnightblue" d="M466.44,-257.45C416.32,-248.06 349.01,-235.21 280.17,-221.11"/>
<polygon fill="midnightblue" stroke="midnightblue" points="280.5,-217.6 270,-219.02 279.1,-224.46 280.5,-217.6"/>
</g>
<!-- Node4 -->
<g id="node4" class="node">
<title>Node4</title>
<g id="a_node4"><a xlink:href="can__data__frame_8hpp.html" target="_top" xlink:title="CANフレームを表す構造体">
<polygon fill="white" stroke="black" points="915.5,-56.5 915.5,-86.5 1057.5,-86.5 1057.5,-56.5 915.5,-56.5"/>
<text text-anchor="start" x="923.5" y="-74.5" font-family="Helvetica,sans-Serif" font-size="10.00">alps_cmn/communication</text>
<text text-anchor="middle" x="986.5" y="-63.5" font-family="Helvetica,sans-Serif" font-size="10.00">/can_data_frame.hpp</text>
</a>
</g>
</g>
<!-- Node2&#45;&gt;Node4 -->
<g id="edge3" class="edge">
<title>Node2&#45;&gt;Node4</title>
<path fill="none" stroke="midnightblue" d="M617.34,-257.48C693.22,-240.96 812.01,-208.6 902.5,-154 916.6,-145.49 946.52,-115.08 966.58,-93.92"/>
<polygon fill="midnightblue" stroke="midnightblue" points="969.16,-96.28 973.47,-86.6 964.07,-91.48 969.16,-96.28"/>
</g>
<!-- Node7 -->
<g id="node7" class="node">
<title>Node7</title>
<g id="a_node7"><a xlink:href="i__rotary__sensor_8hpp.html" target="_top" xlink:title=" ">
<polygon fill="white" stroke="black" points="0,-190.5 0,-220.5 139,-220.5 139,-190.5 0,-190.5"/>
<text text-anchor="start" x="8" y="-208.5" font-family="Helvetica,sans-Serif" font-size="10.00">alps_cmn/sensor/i_rotary</text>
<text text-anchor="middle" x="69.5" y="-197.5" font-family="Helvetica,sans-Serif" font-size="10.00">_sensor.hpp</text>
</a>
</g>
</g>
<!-- Node2&#45;&gt;Node7 -->
<g id="edge6" class="edge">
<title>Node2&#45;&gt;Node7</title>
<path fill="none" stroke="midnightblue" d="M466.23,-263.05C388.79,-254.17 265.22,-239.19 149.32,-221.24"/>
<polygon fill="midnightblue" stroke="midnightblue" points="149.63,-217.74 139.21,-219.66 148.55,-224.66 149.63,-217.74"/>
</g>
<!-- Node5 -->
<g id="node5" class="node">
<title>Node5</title>
<g id="a_node5"><a xlink:title=" ">
<polygon fill="white" stroke="#bfbfbf" points="909,-0.5 909,-19.5 962,-19.5 962,-0.5 909,-0.5"/>
<text text-anchor="middle" x="935.5" y="-7.5" font-family="Helvetica,sans-Serif" font-size="10.00">stdint.h</text>
</a>
</g>
</g>
<!-- Node4&#45;&gt;Node5 -->
<g id="edge4" class="edge">
<title>Node4&#45;&gt;Node5</title>
<path fill="none" stroke="midnightblue" d="M974.41,-56.4C966.93,-47.66 957.28,-36.41 949.47,-27.3"/>
<polygon fill="midnightblue" stroke="midnightblue" points="952.09,-24.97 942.92,-19.66 946.77,-29.53 952.09,-24.97"/>
</g>
<!-- Node6 -->
<g id="node6" class="node">
<title>Node6</title>
<g id="a_node6"><a xlink:title=" ">
<polygon fill="white" stroke="#bfbfbf" points="769,-0.5 769,-19.5 840,-19.5 840,-0.5 769,-0.5"/>
<text text-anchor="middle" x="804.5" y="-7.5" font-family="Helvetica,sans-Serif" font-size="10.00">etl/vector.h</text>
</a>
</g>
</g>
<!-- Node4&#45;&gt;Node6 -->
<g id="edge5" class="edge">
<title>Node4&#45;&gt;Node6</title>
<path fill="none" stroke="midnightblue" d="M943.37,-56.4C911.92,-46.12 869.81,-32.35 840.23,-22.68"/>
<polygon fill="midnightblue" stroke="midnightblue" points="841.31,-19.35 830.72,-19.57 839.13,-26.01 841.31,-19.35"/>
</g>
<!-- Node9 -->
<g id="node9" class="node">
<title>Node9</title>
<g id="a_node9"><a xlink:href="can__callback__handler_8hpp.html" target="_top" xlink:title="CANデータフレームをコールバックで処理するためのライブラリ">
<polygon fill="white" stroke="black" points="1123,-190.5 1123,-220.5 1268,-220.5 1268,-190.5 1123,-190.5"/>
<text text-anchor="start" x="1131" y="-208.5" font-family="Helvetica,sans-Serif" font-size="10.00">alps_cmn/communication</text>
<text text-anchor="middle" x="1195.5" y="-197.5" font-family="Helvetica,sans-Serif" font-size="10.00">/can_callback_handler.hpp</text>
</a>
</g>
</g>
<!-- Node8&#45;&gt;Node9 -->
<g id="edge8" class="edge">
<title>Node8&#45;&gt;Node9</title>
<path fill="none" stroke="midnightblue" d="M874.74,-257.48C945.36,-246.25 1043.67,-230.63 1112.79,-219.64"/>
<polygon fill="midnightblue" stroke="midnightblue" points="1113.44,-223.09 1122.77,-218.06 1112.34,-216.17 1113.44,-223.09"/>
</g>
<!-- Node13 -->
<g id="node13" class="node">
<title>Node13</title>
<g id="a_node13"><a xlink:href="cobs_8hpp.html" target="_top" xlink:title="COBS変換ライブラリ">
<polygon fill="white" stroke="black" points="288.5,-190.5 288.5,-220.5 430.5,-220.5 430.5,-190.5 288.5,-190.5"/>
<text text-anchor="start" x="296.5" y="-208.5" font-family="Helvetica,sans-Serif" font-size="10.00">alps_cmn/communication</text>
<text text-anchor="middle" x="359.5" y="-197.5" font-family="Helvetica,sans-Serif" font-size="10.00">/cobs.hpp</text>
</a>
</g>
</g>
<!-- Node8&#45;&gt;Node13 -->
<g id="edge13" class="edge">
<title>Node8&#45;&gt;Node13</title>
<path fill="none" stroke="midnightblue" d="M697.77,-257.99C622.15,-246.48 514.38,-230.08 440.93,-218.9"/>
<polygon fill="midnightblue" stroke="midnightblue" points="441.22,-215.4 430.81,-217.35 440.17,-222.32 441.22,-215.4"/>
</g>
<!-- Node19 -->
<g id="node19" class="node">
<title>Node19</title>
<g id="a_node19"><a xlink:href="data__serializer_8hpp.html" target="_top" xlink:title="データとバイト列の変換ライブラリ">
<polygon fill="white" stroke="black" points="489.5,-190.5 489.5,-220.5 631.5,-220.5 631.5,-190.5 489.5,-190.5"/>
<text text-anchor="start" x="497.5" y="-208.5" font-family="Helvetica,sans-Serif" font-size="10.00">alps_cmn/communication</text>
<text text-anchor="middle" x="560.5" y="-197.5" font-family="Helvetica,sans-Serif" font-size="10.00">/data_serializer.hpp</text>
</a>
</g>
</g>
<!-- Node8&#45;&gt;Node19 -->
<g id="edge19" class="edge">
<title>Node8&#45;&gt;Node19</title>
<path fill="none" stroke="midnightblue" d="M737.74,-257.48C702.96,-247.47 656.02,-233.97 619.18,-223.38"/>
<polygon fill="midnightblue" stroke="midnightblue" points="620.14,-220.01 609.56,-220.61 618.21,-226.74 620.14,-220.01"/>
</g>
<!-- Node28 -->
<g id="node28" class="node">
<title>Node28</title>
<g id="a_node28"><a xlink:href="logging__macros_8hpp.html" target="_top" xlink:title=" ">
<polygon fill="white" stroke="black" points="953.5,-190.5 953.5,-220.5 1073.5,-220.5 1073.5,-190.5 953.5,-190.5"/>
<text text-anchor="start" x="961.5" y="-208.5" font-family="Helvetica,sans-Serif" font-size="10.00">alps_cmn/log/logging</text>
<text text-anchor="middle" x="1013.5" y="-197.5" font-family="Helvetica,sans-Serif" font-size="10.00">_macros.hpp</text>
</a>
</g>
</g>
<!-- Node8&#45;&gt;Node28 -->
<g id="edge34" class="edge">
<title>Node8&#45;&gt;Node28</title>
<path fill="none" stroke="midnightblue" d="M835.48,-257.48C870.41,-247.47 917.56,-233.97 954.56,-223.38"/>
<polygon fill="midnightblue" stroke="midnightblue" points="955.57,-226.73 964.22,-220.61 953.64,-220 955.57,-226.73"/>
</g>
<!-- Node10 -->
<g id="node10" class="node">
<title>Node10</title>
<g id="a_node10"><a xlink:href="i__can__io_8hpp.html" target="_top" xlink:title=" ">
<polygon fill="white" stroke="black" points="1103.5,-123.5 1103.5,-153.5 1245.5,-153.5 1245.5,-123.5 1103.5,-123.5"/>
<text text-anchor="start" x="1111.5" y="-141.5" font-family="Helvetica,sans-Serif" font-size="10.00">alps_cmn/communication</text>
<text text-anchor="middle" x="1174.5" y="-130.5" font-family="Helvetica,sans-Serif" font-size="10.00">/i_can_io.hpp</text>
</a>
</g>
</g>
<!-- Node9&#45;&gt;Node10 -->
<g id="edge9" class="edge">
<title>Node9&#45;&gt;Node10</title>
<path fill="none" stroke="midnightblue" d="M1190.94,-190.4C1188.38,-182.47 1185.12,-172.38 1182.18,-163.27"/>
<polygon fill="midnightblue" stroke="midnightblue" points="1185.45,-162.02 1179.05,-153.58 1178.79,-164.17 1185.45,-162.02"/>
</g>
<!-- Node11 -->
<g id="node11" class="node">
<title>Node11</title>
<g id="a_node11"><a xlink:title=" ">
<polygon fill="white" stroke="#bfbfbf" points="1153.5,-62 1153.5,-81 1237.5,-81 1237.5,-62 1153.5,-62"/>
<text text-anchor="middle" x="1195.5" y="-69" font-family="Helvetica,sans-Serif" font-size="10.00">etl/delegate.h</text>
</a>
</g>
</g>
<!-- Node9&#45;&gt;Node11 -->
<g id="edge11" class="edge">
<title>Node9&#45;&gt;Node11</title>
<path fill="none" stroke="midnightblue" d="M1220.5,-190.39C1233.22,-181.71 1247.45,-169.31 1254.5,-154 1260.26,-141.48 1260.26,-135.52 1254.5,-123 1247.4,-107.58 1233.01,-95.11 1220.21,-86.42"/>
<polygon fill="midnightblue" stroke="midnightblue" points="1222.04,-83.43 1211.72,-81.01 1218.28,-89.34 1222.04,-83.43"/>
</g>
<!-- Node9&#45;&gt;Node12 -->
<g id="edge12" class="edge">
<title>Node9&#45;&gt;Node12</title>
<path fill="none" stroke="midnightblue" d="M1231.3,-190.4C1260.51,-178.89 1301.36,-162.8 1329.26,-151.81"/>
<polygon fill="midnightblue" stroke="midnightblue" points="1330.88,-154.93 1338.91,-148.01 1328.32,-148.42 1330.88,-154.93"/>
</g>
<!-- Node10&#45;&gt;Node4 -->
<g id="edge10" class="edge">
<title>Node10&#45;&gt;Node4</title>
<path fill="none" stroke="midnightblue" d="M1133.71,-123.4C1105.25,-113.56 1067.1,-100.37 1036.77,-89.88"/>
<polygon fill="midnightblue" stroke="midnightblue" points="1037.81,-86.54 1027.21,-86.58 1035.52,-93.15 1037.81,-86.54"/>
</g>
<!-- Node14 -->
<g id="node14" class="node">
<title>Node14</title>
<g id="a_node14"><a xlink:title=" ">
<polygon fill="white" stroke="#bfbfbf" points="129.5,-129 129.5,-148 181.5,-148 181.5,-129 129.5,-129"/>
<text text-anchor="middle" x="155.5" y="-136" font-family="Helvetica,sans-Serif" font-size="10.00">cassert</text>
</a>
</g>
</g>
<!-- Node13&#45;&gt;Node14 -->
<g id="edge14" class="edge">
<title>Node13&#45;&gt;Node14</title>
<path fill="none" stroke="midnightblue" d="M307.66,-190.49C273.99,-181.04 229.31,-167.8 190.5,-154 188.64,-153.34 186.74,-152.63 184.82,-151.9"/>
<polygon fill="midnightblue" stroke="midnightblue" points="185.94,-148.58 175.35,-148.14 183.35,-155.09 185.94,-148.58"/>
</g>
<!-- Node15 -->
<g id="node15" class="node">
<title>Node15</title>
<g id="a_node15"><a xlink:title=" ">
<polygon fill="white" stroke="#bfbfbf" points="391.5,-129 391.5,-148 441.5,-148 441.5,-129 391.5,-129"/>
<text text-anchor="middle" x="416.5" y="-136" font-family="Helvetica,sans-Serif" font-size="10.00">cstdint</text>
</a>
</g>
</g>
<!-- Node13&#45;&gt;Node15 -->
<g id="edge15" class="edge">
<title>Node13&#45;&gt;Node15</title>
<path fill="none" stroke="midnightblue" d="M371.87,-190.4C380.76,-180.26 392.76,-166.57 402.09,-155.94"/>
<polygon fill="midnightblue" stroke="midnightblue" points="404.91,-158.02 408.88,-148.19 399.65,-153.41 404.91,-158.02"/>
</g>
<!-- Node16 -->
<g id="node16" class="node">
<title>Node16</title>
<g id="a_node16"><a xlink:title=" ">
<polygon fill="white" stroke="#bfbfbf" points="199.5,-129 199.5,-148 245.5,-148 245.5,-129 199.5,-129"/>
<text text-anchor="middle" x="222.5" y="-136" font-family="Helvetica,sans-Serif" font-size="10.00">cstdio</text>
</a>
</g>
</g>
<!-- Node13&#45;&gt;Node16 -->
<g id="edge16" class="edge">
<title>Node13&#45;&gt;Node16</title>
<path fill="none" stroke="midnightblue" d="M329.77,-190.4C305.95,-179.09 272.79,-163.36 249.67,-152.39"/>
<polygon fill="midnightblue" stroke="midnightblue" points="250.97,-149.13 240.43,-148.01 247.96,-155.46 250.97,-149.13"/>
</g>
<!-- Node17 -->
<g id="node17" class="node">
<title>Node17</title>
<g id="a_node17"><a xlink:title=" ">
<polygon fill="white" stroke="#bfbfbf" points="62,-129 62,-148 111,-148 111,-129 62,-129"/>
<text text-anchor="middle" x="86.5" y="-136" font-family="Helvetica,sans-Serif" font-size="10.00">cstdlib</text>
</a>
</g>
</g>
<!-- Node13&#45;&gt;Node17 -->
<g id="edge17" class="edge">
<title>Node13&#45;&gt;Node17</title>
<path fill="none" stroke="midnightblue" d="M288.43,-191.07C229.73,-179.68 151.24,-163.7 120.5,-154 118.57,-153.39 116.6,-152.71 114.63,-151.99"/>
<polygon fill="midnightblue" stroke="midnightblue" points="115.54,-148.59 104.96,-148.14 112.96,-155.09 115.54,-148.59"/>
</g>
<!-- Node18 -->
<g id="node18" class="node">
<title>Node18</title>
<g id="a_node18"><a xlink:title=" ">
<polygon fill="white" stroke="#bfbfbf" points="263.5,-129 263.5,-148 373.5,-148 373.5,-129 263.5,-129"/>
<text text-anchor="middle" x="318.5" y="-136" font-family="Helvetica,sans-Serif" font-size="10.00">etl/circular_buffer.h</text>
</a>
</g>
</g>
<!-- Node13&#45;&gt;Node18 -->
<g id="edge18" class="edge">
<title>Node13&#45;&gt;Node18</title>
<path fill="none" stroke="midnightblue" d="M350.6,-190.4C344.4,-180.56 336.08,-167.38 329.47,-156.89"/>
<polygon fill="midnightblue" stroke="midnightblue" points="332.28,-154.79 323.98,-148.19 326.36,-158.52 332.28,-154.79"/>
</g>
<!-- Node19&#45;&gt;Node15 -->
<g id="edge22" class="edge">
<title>Node19&#45;&gt;Node15</title>
<path fill="none" stroke="midnightblue" d="M529.25,-190.4C504.1,-179.04 469.05,-163.22 444.73,-152.24"/>
<polygon fill="midnightblue" stroke="midnightblue" points="445.9,-148.93 435.35,-148.01 443.02,-155.31 445.9,-148.93"/>
</g>
<!-- Node19&#45;&gt;Node18 -->
<g id="edge33" class="edge">
<title>Node19&#45;&gt;Node18</title>
<path fill="none" stroke="midnightblue" d="M508.29,-190.48C463.87,-178.55 400.94,-161.64 359.93,-150.63"/>
<polygon fill="midnightblue" stroke="midnightblue" points="360.82,-147.24 350.25,-148.03 359,-154 360.82,-147.24"/>
</g>
<!-- Node20 -->
<g id="node20" class="node">
<title>Node20</title>
<g id="a_node20"><a xlink:title=" ">
<polygon fill="white" stroke="#bfbfbf" points="829.5,-129 829.5,-148 893.5,-148 893.5,-129 829.5,-129"/>
<text text-anchor="middle" x="861.5" y="-136" font-family="Helvetica,sans-Serif" font-size="10.00">algorithm</text>
</a>
</g>
</g>
<!-- Node19&#45;&gt;Node20 -->
<g id="edge20" class="edge">
<title>Node19&#45;&gt;Node20</title>
<path fill="none" stroke="midnightblue" d="M631.78,-193.58C684.39,-184.82 757.5,-171.16 820.5,-154 823.46,-153.19 826.52,-152.28 829.57,-151.3"/>
<polygon fill="midnightblue" stroke="midnightblue" points="830.77,-154.59 839.13,-148.08 828.54,-147.96 830.77,-154.59"/>
</g>
<!-- Node21 -->
<g id="node21" class="node">
<title>Node21</title>
<g id="a_node21"><a xlink:title=" ">
<polygon fill="white" stroke="#bfbfbf" points="605.5,-62 605.5,-81 647.5,-81 647.5,-62 605.5,-62"/>
<text text-anchor="middle" x="626.5" y="-69" font-family="Helvetica,sans-Serif" font-size="10.00">array</text>
</a>
</g>
</g>
<!-- Node19&#45;&gt;Node21 -->
<g id="edge21" class="edge">
<title>Node19&#45;&gt;Node21</title>
<path fill="none" stroke="midnightblue" d="M546.68,-190.31C532.09,-173.52 512.92,-145.07 526.5,-123 541.42,-98.76 571.96,-85.73 595.38,-79.02"/>
<polygon fill="midnightblue" stroke="midnightblue" points="596.46,-82.35 605.24,-76.43 594.68,-75.58 596.46,-82.35"/>
</g>
<!-- Node22 -->
<g id="node22" class="node">
<title>Node22</title>
<g id="a_node22"><a xlink:title=" ">
<polygon fill="white" stroke="#bfbfbf" points="535.5,-129 535.5,-148 585.5,-148 585.5,-129 535.5,-129"/>
<text text-anchor="middle" x="560.5" y="-136" font-family="Helvetica,sans-Serif" font-size="10.00">cstring</text>
</a>
</g>
</g>
<!-- Node19&#45;&gt;Node22 -->
<g id="edge23" class="edge">
<title>Node19&#45;&gt;Node22</title>
<path fill="none" stroke="midnightblue" d="M560.5,-190.4C560.5,-181.06 560.5,-168.71 560.5,-158.52"/>
<polygon fill="midnightblue" stroke="midnightblue" points="564,-158.19 560.5,-148.19 557,-158.19 564,-158.19"/>
</g>
<!-- Node23 -->
<g id="node23" class="node">
<title>Node23</title>
<g id="a_node23"><a xlink:title=" ">
<polygon fill="white" stroke="#bfbfbf" points="603.5,-129 603.5,-148 651.5,-148 651.5,-129 603.5,-129"/>
<text text-anchor="middle" x="627.5" y="-136" font-family="Helvetica,sans-Serif" font-size="10.00">mutex</text>
</a>
</g>
</g>
<!-- Node19&#45;&gt;Node23 -->
<g id="edge24" class="edge">
<title>Node19&#45;&gt;Node23</title>
<path fill="none" stroke="midnightblue" d="M575.04,-190.4C585.69,-180.06 600.16,-166.02 611.2,-155.31"/>
<polygon fill="midnightblue" stroke="midnightblue" points="613.8,-157.67 618.54,-148.19 608.92,-152.65 613.8,-157.67"/>
</g>
<!-- Node24 -->
<g id="node24" class="node">
<title>Node24</title>
<g id="a_node24"><a xlink:title=" ">
<polygon fill="white" stroke="#bfbfbf" points="463,-62 463,-81 532,-81 532,-62 463,-62"/>
<text text-anchor="middle" x="497.5" y="-69" font-family="Helvetica,sans-Serif" font-size="10.00">type_traits</text>
</a>
</g>
</g>
<!-- Node19&#45;&gt;Node24 -->
<g id="edge25" class="edge">
<title>Node19&#45;&gt;Node24</title>
<path fill="none" stroke="midnightblue" d="M530.81,-190.34C516.76,-181.92 501.36,-169.77 493.5,-154 483.65,-134.24 487.28,-108.33 491.62,-91.09"/>
<polygon fill="midnightblue" stroke="midnightblue" points="495.08,-91.73 494.44,-81.15 488.34,-89.82 495.08,-91.73"/>
</g>
<!-- Node25 -->
<g id="node25" class="node">
<title>Node25</title>
<g id="a_node25"><a xlink:href="serialize__type__info_8hpp.html" target="_top" xlink:title="DataSeializerで変換する型に関する情報">
<polygon fill="white" stroke="black" points="669.5,-123.5 669.5,-153.5 811.5,-153.5 811.5,-123.5 669.5,-123.5"/>
<text text-anchor="start" x="677.5" y="-141.5" font-family="Helvetica,sans-Serif" font-size="10.00">alps_cmn/communication</text>
<text text-anchor="middle" x="740.5" y="-130.5" font-family="Helvetica,sans-Serif" font-size="10.00">/serialize_type_info.hpp</text>
</a>
</g>
</g>
<!-- Node19&#45;&gt;Node25 -->
<g id="edge26" class="edge">
<title>Node19&#45;&gt;Node25</title>
<path fill="none" stroke="midnightblue" d="M599.56,-190.4C626.68,-180.6 663.01,-167.48 692,-157.02"/>
<polygon fill="midnightblue" stroke="midnightblue" points="693.3,-160.26 701.52,-153.58 690.92,-153.68 693.3,-160.26"/>
</g>
<!-- Node25&#45;&gt;Node5 -->
<g id="edge27" class="edge">
<title>Node25&#45;&gt;Node5</title>
<path fill="none" stroke="midnightblue" d="M739.85,-123.32C739.84,-105.2 742.67,-74.02 760.5,-56 779.63,-36.65 853.2,-22.86 898.64,-15.98"/>
<polygon fill="midnightblue" stroke="midnightblue" points="899.32,-19.42 908.71,-14.5 898.31,-12.49 899.32,-19.42"/>
</g>
<!-- Node25&#45;&gt;Node6 -->
<g id="edge32" class="edge">
<title>Node25&#45;&gt;Node6</title>
<path fill="none" stroke="midnightblue" d="M732.69,-123.24C724.47,-106.14 714.29,-77.13 726.5,-56 735.18,-40.98 750.99,-30.52 766.12,-23.5"/>
<polygon fill="midnightblue" stroke="midnightblue" points="767.55,-26.69 775.38,-19.56 764.81,-20.25 767.55,-26.69"/>
</g>
<!-- Node25&#45;&gt;Node21 -->
<g id="edge28" class="edge">
<title>Node25&#45;&gt;Node21</title>
<path fill="none" stroke="midnightblue" d="M715.76,-123.4C696.29,-112.29 669.33,-96.92 650.15,-85.98"/>
<polygon fill="midnightblue" stroke="midnightblue" points="651.84,-82.92 641.42,-81.01 648.37,-89 651.84,-82.92"/>
</g>
<!-- Node25&#45;&gt;Node24 -->
<g id="edge30" class="edge">
<title>Node25&#45;&gt;Node24</title>
<path fill="none" stroke="midnightblue" d="M688.07,-123.48C643.47,-111.55 580.28,-94.64 539.1,-83.63"/>
<polygon fill="midnightblue" stroke="midnightblue" points="539.95,-80.23 529.38,-81.03 538.14,-86.99 539.95,-80.23"/>
</g>
<!-- Node26 -->
<g id="node26" class="node">
<title>Node26</title>
<g id="a_node26"><a xlink:title=" ">
<polygon fill="white" stroke="#bfbfbf" points="769,-62 769,-81 810,-81 810,-62 769,-62"/>
<text text-anchor="middle" x="789.5" y="-69" font-family="Helvetica,sans-Serif" font-size="10.00">tuple</text>
</a>
</g>
</g>
<!-- Node25&#45;&gt;Node26 -->
<g id="edge29" class="edge">
<title>Node25&#45;&gt;Node26</title>
<path fill="none" stroke="midnightblue" d="M751.13,-123.4C758.7,-113.36 768.89,-99.84 776.87,-89.25"/>
<polygon fill="midnightblue" stroke="midnightblue" points="779.72,-91.29 782.95,-81.19 774.13,-87.07 779.72,-91.29"/>
</g>
<!-- Node27 -->
<g id="node27" class="node">
<title>Node27</title>
<g id="a_node27"><a xlink:title=" ">
<polygon fill="white" stroke="#bfbfbf" points="828,-62 828,-81 897,-81 897,-62 828,-62"/>
<text text-anchor="middle" x="862.5" y="-69" font-family="Helvetica,sans-Serif" font-size="10.00">etl/string.h</text>
</a>
</g>
</g>
<!-- Node25&#45;&gt;Node27 -->
<g id="edge31" class="edge">
<title>Node25&#45;&gt;Node27</title>
<path fill="none" stroke="midnightblue" d="M766.97,-123.4C787.9,-112.24 816.93,-96.78 837.47,-85.83"/>
<polygon fill="midnightblue" stroke="midnightblue" points="839.35,-88.8 846.53,-81.01 836.06,-82.62 839.35,-88.8"/>
</g>
<!-- Node29 -->
<g id="node29" class="node">
<title>Node29</title>
<g id="a_node29"><a xlink:href="logger_8hpp.html" target="_top" xlink:title=" ">
<polygon fill="white" stroke="black" points="950,-129 950,-148 1085,-148 1085,-129 950,-129"/>
<text text-anchor="middle" x="1017.5" y="-136" font-family="Helvetica,sans-Serif" font-size="10.00">alps_cmn/log/logger.hpp</text>
</a>
</g>
</g>
<!-- Node28&#45;&gt;Node29 -->
<g id="edge35" class="edge">
<title>Node28&#45;&gt;Node29</title>
<path fill="none" stroke="midnightblue" d="M1014.37,-190.4C1014.95,-180.96 1015.72,-168.45 1016.35,-158.19"/>
<polygon fill="midnightblue" stroke="midnightblue" points="1019.84,-158.39 1016.96,-148.19 1012.86,-157.96 1019.84,-158.39"/>
</g>
<!-- Node29&#45;&gt;Node11 -->
<g id="edge36" class="edge">
<title>Node29&#45;&gt;Node11</title>
<path fill="none" stroke="midnightblue" d="M1041.14,-128.87C1072.21,-117.52 1126.97,-97.52 1162.22,-84.65"/>
<polygon fill="midnightblue" stroke="midnightblue" points="1163.86,-87.78 1172.05,-81.06 1161.45,-81.21 1163.86,-87.78"/>
</g>
<!-- Node29&#45;&gt;Node27 -->
<g id="edge37" class="edge">
<title>Node29&#45;&gt;Node27</title>
<path fill="none" stroke="midnightblue" d="M996.92,-128.87C970.17,-117.65 923.25,-97.98 892.53,-85.09"/>
<polygon fill="midnightblue" stroke="midnightblue" points="893.74,-81.81 883.17,-81.17 891.04,-88.26 893.74,-81.81"/>
</g>
</g>
</svg>
