<?xml version="1.0" encoding="UTF-8" standalone="no"?>
<!DOCTYPE svg PUBLIC "-//W3C//DTD SVG 1.1//EN"
 "http://www.w3.org/Graphics/SVG/1.1/DTD/svg11.dtd">
<!-- Generated by graphviz version 2.43.0 (0)
 -->
<!-- Title: roblab_common_lib/include/serial/sender.hpp Pages: 1 -->
<svg width="1096pt" height="258pt"
 viewBox="0.00 0.00 1095.50 258.00" xmlns="http://www.w3.org/2000/svg" xmlns:xlink="http://www.w3.org/1999/xlink">
<g id="graph0" class="graph" transform="scale(1 1) rotate(0) translate(4 254)">
<title>roblab_common_lib/include/serial/sender.hpp</title>
<!-- Node1 -->
<g id="node1" class="node">
<title>Node1</title>
<g id="a_node1"><a xlink:title="シリアル通信で送るデータを登録">
<polygon fill="#999999" stroke="#666666" points="831.5,-250 680.5,-250 680.5,-220 831.5,-220 831.5,-250"/>
<text text-anchor="start" x="688.5" y="-238" font-family="Helvetica,sans-Serif" font-size="10.00">roblab_common_lib/include</text>
<text text-anchor="middle" x="756" y="-227" font-family="Helvetica,sans-Serif" font-size="10.00">/serial/sender.hpp</text>
</a>
</g>
</g>
<!-- Node2 -->
<g id="node2" class="node">
<title>Node2</title>
<g id="a_node2"><a xlink:href="id__packet__manager_8hpp.html" target="_top" xlink:title="ID付きパケットデータを管理">
<polygon fill="white" stroke="#666666" points="822.5,-184 689.5,-184 689.5,-165 822.5,-165 822.5,-184"/>
<text text-anchor="middle" x="756" y="-172" font-family="Helvetica,sans-Serif" font-size="10.00">id_packet_manager.hpp</text>
</a>
</g>
</g>
<!-- Node1&#45;&gt;Node2 -->
<g id="edge1" class="edge">
<title>Node1&#45;&gt;Node2</title>
<path fill="none" stroke="#63b8ff" d="M750.12,-219.84C749.15,-212.21 748.99,-202.7 749.64,-194.45"/>
<polygon fill="#63b8ff" stroke="#63b8ff" points="753.14,-194.65 751.02,-184.27 746.21,-193.71 753.14,-194.65"/>
</g>
<!-- Node2&#45;&gt;Node1 -->
<g id="edge32" class="edge">
<title>Node2&#45;&gt;Node1</title>
<path fill="none" stroke="#63b8ff" d="M760.98,-184.27C762.42,-191.03 762.98,-200.72 762.66,-209.75"/>
<polygon fill="#63b8ff" stroke="#63b8ff" points="759.16,-209.6 761.88,-219.84 766.14,-210.14 759.16,-209.6"/>
</g>
<!-- Node3 -->
<g id="node3" class="node">
<title>Node3</title>
<g id="a_node3"><a xlink:title=" ">
<polygon fill="#e0e0e0" stroke="#999999" points="44,-19 0,-19 0,0 44,0 44,-19"/>
<text text-anchor="middle" x="22" y="-7" font-family="Helvetica,sans-Serif" font-size="10.00">string</text>
</a>
</g>
</g>
<!-- Node2&#45;&gt;Node3 -->
<g id="edge2" class="edge">
<title>Node2&#45;&gt;Node3</title>
<path fill="none" stroke="#63b8ff" d="M689.35,-170.21C595.08,-164.92 417.57,-152.64 268,-129 158.63,-111.71 96.14,-158.86 25,-74 14.71,-61.72 15.12,-42.95 17.41,-28.99"/>
<polygon fill="#63b8ff" stroke="#63b8ff" points="20.87,-29.55 19.48,-19.05 14.02,-28.13 20.87,-29.55"/>
</g>
<!-- Node4 -->
<g id="node4" class="node">
<title>Node4</title>
<g id="a_node4"><a xlink:title=" ">
<polygon fill="#e0e0e0" stroke="#999999" points="877.5,-129 784.5,-129 784.5,-110 877.5,-110 877.5,-129"/>
<text text-anchor="middle" x="831" y="-117" font-family="Helvetica,sans-Serif" font-size="10.00">unordered_map</text>
</a>
</g>
</g>
<!-- Node2&#45;&gt;Node4 -->
<g id="edge3" class="edge">
<title>Node2&#45;&gt;Node4</title>
<path fill="none" stroke="#63b8ff" d="M768.05,-164.98C779.46,-156.92 796.83,-144.65 810.43,-135.03"/>
<polygon fill="#63b8ff" stroke="#63b8ff" points="812.58,-137.8 818.73,-129.17 808.54,-132.08 812.58,-137.8"/>
</g>
<!-- Node5 -->
<g id="node5" class="node">
<title>Node5</title>
<g id="a_node5"><a xlink:title=" ">
<polygon fill="#e0e0e0" stroke="#999999" points="792,-74 740,-74 740,-55 792,-55 792,-74"/>
<text text-anchor="middle" x="766" y="-62" font-family="Helvetica,sans-Serif" font-size="10.00">cassert</text>
</a>
</g>
</g>
<!-- Node2&#45;&gt;Node5 -->
<g id="edge4" class="edge">
<title>Node2&#45;&gt;Node5</title>
<path fill="none" stroke="#63b8ff" d="M756.82,-164.66C758.44,-147.17 762.08,-107.8 764.26,-84.27"/>
<polygon fill="#63b8ff" stroke="#63b8ff" points="767.76,-84.44 765.2,-74.16 760.79,-83.79 767.76,-84.44"/>
</g>
<!-- Node6 -->
<g id="node6" class="node">
<title>Node6</title>
<g id="a_node6"><a xlink:title=" ">
<polygon fill="#e0e0e0" stroke="#999999" points="954,-129 896,-129 896,-110 954,-110 954,-129"/>
<text text-anchor="middle" x="925" y="-117" font-family="Helvetica,sans-Serif" font-size="10.00">memory</text>
</a>
</g>
</g>
<!-- Node2&#45;&gt;Node6 -->
<g id="edge5" class="edge">
<title>Node2&#45;&gt;Node6</title>
<path fill="none" stroke="#63b8ff" d="M783.15,-164.98C811.53,-156.09 856.23,-142.07 887.86,-132.15"/>
<polygon fill="#63b8ff" stroke="#63b8ff" points="889.14,-135.41 897.63,-129.08 887.05,-128.73 889.14,-135.41"/>
</g>
<!-- Node7 -->
<g id="node7" class="node">
<title>Node7</title>
<g id="a_node7"><a xlink:title=" ">
<polygon fill="#e0e0e0" stroke="#999999" points="1004,-129 972,-129 972,-110 1004,-110 1004,-129"/>
<text text-anchor="middle" x="988" y="-117" font-family="Helvetica,sans-Serif" font-size="10.00">list</text>
</a>
</g>
</g>
<!-- Node2&#45;&gt;Node7 -->
<g id="edge6" class="edge">
<title>Node2&#45;&gt;Node7</title>
<path fill="none" stroke="#63b8ff" d="M803.24,-164.96C843.22,-157.38 902.17,-145.34 961.96,-129.03"/>
<polygon fill="#63b8ff" stroke="#63b8ff" points="963.24,-132.3 971.95,-126.26 961.38,-125.56 963.24,-132.3"/>
</g>
<!-- Node8 -->
<g id="node8" class="node">
<title>Node8</title>
<g id="a_node8"><a xlink:title=" ">
<polygon fill="#e0e0e0" stroke="#999999" points="1087.5,-129 1022.5,-129 1022.5,-110 1087.5,-110 1087.5,-129"/>
<text text-anchor="middle" x="1055" y="-117" font-family="Helvetica,sans-Serif" font-size="10.00">functional</text>
</a>
</g>
</g>
<!-- Node2&#45;&gt;Node8 -->
<g id="edge7" class="edge">
<title>Node2&#45;&gt;Node8</title>
<path fill="none" stroke="#63b8ff" d="M807.76,-164.98C857.59,-156.68 935.32,-143.46 1012.55,-129.04"/>
<polygon fill="#63b8ff" stroke="#63b8ff" points="1013.27,-132.46 1022.46,-127.18 1011.98,-125.58 1013.27,-132.46"/>
</g>
<!-- Node9 -->
<g id="node9" class="node">
<title>Node9</title>
<g id="a_node9"><a xlink:href="cobs_8hpp.html" target="_top" xlink:title="COBS変換ライブラリ">
<polygon fill="white" stroke="#666666" points="728,-129 638,-129 638,-110 728,-110 728,-129"/>
<text text-anchor="middle" x="683" y="-117" font-family="Helvetica,sans-Serif" font-size="10.00">serial/cobs.hpp</text>
</a>
</g>
</g>
<!-- Node2&#45;&gt;Node9 -->
<g id="edge8" class="edge">
<title>Node2&#45;&gt;Node9</title>
<path fill="none" stroke="#63b8ff" d="M744.27,-164.98C733.27,-157 716.58,-144.88 703.4,-135.31"/>
<polygon fill="#63b8ff" stroke="#63b8ff" points="705.09,-132.21 694.94,-129.17 700.98,-137.88 705.09,-132.21"/>
</g>
<!-- Node15 -->
<g id="node15" class="node">
<title>Node15</title>
<g id="a_node15"><a xlink:href="data__serializer_8hpp.html" target="_top" xlink:title="データとバイト列の変換ライブラリ">
<polygon fill="white" stroke="#666666" points="417,-129 277,-129 277,-110 417,-110 417,-129"/>
<text text-anchor="middle" x="347" y="-117" font-family="Helvetica,sans-Serif" font-size="10.00">serial/data_serializer.hpp</text>
</a>
</g>
</g>
<!-- Node2&#45;&gt;Node15 -->
<g id="edge17" class="edge">
<title>Node2&#45;&gt;Node15</title>
<path fill="none" stroke="#63b8ff" d="M690.29,-164.98C617.35,-155.53 499.82,-140.3 422.98,-130.35"/>
<polygon fill="#63b8ff" stroke="#63b8ff" points="423.26,-126.85 412.89,-129.04 422.36,-133.79 423.26,-126.85"/>
</g>
<!-- Node23 -->
<g id="node23" class="node">
<title>Node23</title>
<g id="a_node23"><a xlink:href="i__serial__io_8hpp.html" target="_top" xlink:title="シリアル通信IO抽象クラス">
<polygon fill="white" stroke="#666666" points="619.5,-129 502.5,-129 502.5,-110 619.5,-110 619.5,-129"/>
<text text-anchor="middle" x="561" y="-117" font-family="Helvetica,sans-Serif" font-size="10.00">serial/i_serial_io.hpp</text>
</a>
</g>
</g>
<!-- Node2&#45;&gt;Node23 -->
<g id="edge33" class="edge">
<title>Node2&#45;&gt;Node23</title>
<path fill="none" stroke="#63b8ff" d="M724.67,-164.98C691.51,-155.97 639,-141.7 602.44,-131.76"/>
<polygon fill="#63b8ff" stroke="#63b8ff" points="603.14,-128.33 592.58,-129.08 601.31,-135.08 603.14,-128.33"/>
</g>
<!-- Node9&#45;&gt;Node5 -->
<g id="edge15" class="edge">
<title>Node9&#45;&gt;Node5</title>
<path fill="none" stroke="#63b8ff" d="M696.34,-109.98C709.09,-101.84 728.55,-89.41 743.67,-79.76"/>
<polygon fill="#63b8ff" stroke="#63b8ff" points="745.88,-82.5 752.42,-74.17 742.11,-76.6 745.88,-82.5"/>
</g>
<!-- Node10 -->
<g id="node10" class="node">
<title>Node10</title>
<g id="a_node10"><a xlink:href="byte__ring__buffer_8hpp.html" target="_top" xlink:title="シリアル通信用リングバッファー">
<polygon fill="white" stroke="#666666" points="646,-74 528,-74 528,-55 646,-55 646,-74"/>
<text text-anchor="middle" x="587" y="-62" font-family="Helvetica,sans-Serif" font-size="10.00">byte_ring_buffer.hpp</text>
</a>
</g>
</g>
<!-- Node9&#45;&gt;Node10 -->
<g id="edge9" class="edge">
<title>Node9&#45;&gt;Node10</title>
<path fill="none" stroke="#63b8ff" d="M667.58,-109.98C652.55,-101.69 629.46,-88.94 611.84,-79.22"/>
<polygon fill="#63b8ff" stroke="#63b8ff" points="613.15,-75.94 602.7,-74.17 609.77,-82.07 613.15,-75.94"/>
</g>
<!-- Node13 -->
<g id="node13" class="node">
<title>Node13</title>
<g id="a_node13"><a xlink:title=" ">
<polygon fill="#e0e0e0" stroke="#999999" points="720,-19 674,-19 674,0 720,0 720,-19"/>
<text text-anchor="middle" x="697" y="-7" font-family="Helvetica,sans-Serif" font-size="10.00">cstdio</text>
</a>
</g>
</g>
<!-- Node9&#45;&gt;Node13 -->
<g id="edge14" class="edge">
<title>Node9&#45;&gt;Node13</title>
<path fill="none" stroke="#63b8ff" d="M684.15,-109.66C686.41,-92.17 691.52,-52.8 694.57,-29.27"/>
<polygon fill="#63b8ff" stroke="#63b8ff" points="698.06,-29.53 695.88,-19.16 691.12,-28.63 698.06,-29.53"/>
</g>
<!-- Node14 -->
<g id="node14" class="node">
<title>Node14</title>
<g id="a_node14"><a xlink:title=" ">
<polygon fill="#e0e0e0" stroke="#999999" points="626.5,-19 577.5,-19 577.5,0 626.5,0 626.5,-19"/>
<text text-anchor="middle" x="602" y="-7" font-family="Helvetica,sans-Serif" font-size="10.00">cstdlib</text>
</a>
</g>
</g>
<!-- Node9&#45;&gt;Node14 -->
<g id="edge16" class="edge">
<title>Node9&#45;&gt;Node14</title>
<path fill="none" stroke="#63b8ff" d="M680.5,-109.62C676.57,-96.69 668.02,-72.35 655,-55 646.32,-43.44 634.1,-32.92 623.57,-25.01"/>
<polygon fill="#63b8ff" stroke="#63b8ff" points="625.41,-22.02 615.25,-19.02 621.32,-27.7 625.41,-22.02"/>
</g>
<!-- Node11 -->
<g id="node11" class="node">
<title>Node11</title>
<g id="a_node11"><a xlink:title=" ">
<polygon fill="#e0e0e0" stroke="#999999" points="540,-19 490,-19 490,0 540,0 540,-19"/>
<text text-anchor="middle" x="515" y="-7" font-family="Helvetica,sans-Serif" font-size="10.00">cstdint</text>
</a>
</g>
</g>
<!-- Node10&#45;&gt;Node11 -->
<g id="edge10" class="edge">
<title>Node10&#45;&gt;Node11</title>
<path fill="none" stroke="#63b8ff" d="M575.43,-54.98C564.58,-47 548.12,-34.88 535.12,-25.31"/>
<polygon fill="#63b8ff" stroke="#63b8ff" points="536.91,-22.28 526.78,-19.17 532.76,-27.92 536.91,-22.28"/>
</g>
<!-- Node12 -->
<g id="node12" class="node">
<title>Node12</title>
<g id="a_node12"><a xlink:title=" ">
<polygon fill="#e0e0e0" stroke="#999999" points="437.5,-19 390.5,-19 390.5,0 437.5,0 437.5,-19"/>
<text text-anchor="middle" x="414" y="-7" font-family="Helvetica,sans-Serif" font-size="10.00">vector</text>
</a>
</g>
</g>
<!-- Node10&#45;&gt;Node12 -->
<g id="edge11" class="edge">
<title>Node10&#45;&gt;Node12</title>
<path fill="none" stroke="#63b8ff" d="M559.2,-54.98C528.78,-45.66 480.01,-30.72 447.5,-20.76"/>
<polygon fill="#63b8ff" stroke="#63b8ff" points="448.14,-17.3 437.56,-17.72 446.09,-23.99 448.14,-17.3"/>
</g>
<!-- Node10&#45;&gt;Node13 -->
<g id="edge12" class="edge">
<title>Node10&#45;&gt;Node13</title>
<path fill="none" stroke="#63b8ff" d="M604.67,-54.98C622.29,-46.5 649.58,-33.35 669.93,-23.54"/>
<polygon fill="#63b8ff" stroke="#63b8ff" points="671.52,-26.66 679.01,-19.17 668.48,-20.36 671.52,-26.66"/>
</g>
<!-- Node10&#45;&gt;Node14 -->
<g id="edge13" class="edge">
<title>Node10&#45;&gt;Node14</title>
<path fill="none" stroke="#63b8ff" d="M589.48,-54.75C591.46,-47.72 594.32,-37.62 596.81,-28.84"/>
<polygon fill="#63b8ff" stroke="#63b8ff" points="600.21,-29.66 599.57,-19.09 593.48,-27.76 600.21,-29.66"/>
</g>
<!-- Node15&#45;&gt;Node3 -->
<g id="edge18" class="edge">
<title>Node15&#45;&gt;Node3</title>
<path fill="none" stroke="#63b8ff" d="M276.89,-116.85C197.69,-113.54 75.34,-103.65 41,-74 28.22,-62.96 23.85,-43.71 22.44,-29.29"/>
<polygon fill="#63b8ff" stroke="#63b8ff" points="25.92,-28.79 21.85,-19.01 18.93,-29.19 25.92,-28.79"/>
</g>
<!-- Node15&#45;&gt;Node10 -->
<g id="edge25" class="edge">
<title>Node15&#45;&gt;Node10</title>
<path fill="none" stroke="#63b8ff" d="M385.56,-109.98C427.07,-100.82 493.21,-86.21 538.29,-76.26"/>
<polygon fill="#63b8ff" stroke="#63b8ff" points="539.13,-79.66 548.14,-74.08 537.62,-72.82 539.13,-79.66"/>
</g>
<!-- Node15&#45;&gt;Node11 -->
<g id="edge20" class="edge">
<title>Node15&#45;&gt;Node11</title>
<path fill="none" stroke="#63b8ff" d="M360.46,-109.84C389.34,-91.28 457.46,-47.49 492.83,-24.75"/>
<polygon fill="#63b8ff" stroke="#63b8ff" points="494.95,-27.55 501.47,-19.2 491.17,-21.66 494.95,-27.55"/>
</g>
<!-- Node15&#45;&gt;Node12 -->
<g id="edge19" class="edge">
<title>Node15&#45;&gt;Node12</title>
<path fill="none" stroke="#63b8ff" d="M352.4,-109.99C358.05,-101.04 367.19,-86.56 375,-74 384.69,-58.42 395.61,-40.61 403.43,-27.82"/>
<polygon fill="#63b8ff" stroke="#63b8ff" points="406.5,-29.5 408.73,-19.15 400.53,-25.86 406.5,-29.5"/>
</g>
<!-- Node16 -->
<g id="node16" class="node">
<title>Node16</title>
<g id="a_node16"><a xlink:title=" ">
<polygon fill="#e0e0e0" stroke="#999999" points="242.5,-19 173.5,-19 173.5,0 242.5,0 242.5,-19"/>
<text text-anchor="middle" x="208" y="-7" font-family="Helvetica,sans-Serif" font-size="10.00">type_traits</text>
</a>
</g>
</g>
<!-- Node15&#45;&gt;Node16 -->
<g id="edge21" class="edge">
<title>Node15&#45;&gt;Node16</title>
<path fill="none" stroke="#63b8ff" d="M294.1,-109.92C270.69,-103.61 244.55,-92.72 227,-74 215.57,-61.81 211,-43.02 209.17,-29.04"/>
<polygon fill="#63b8ff" stroke="#63b8ff" points="212.66,-28.7 208.23,-19.08 205.69,-29.36 212.66,-28.7"/>
</g>
<!-- Node17 -->
<g id="node17" class="node">
<title>Node17</title>
<g id="a_node17"><a xlink:title=" ">
<polygon fill="#e0e0e0" stroke="#999999" points="510,-74 460,-74 460,-55 510,-55 510,-74"/>
<text text-anchor="middle" x="485" y="-62" font-family="Helvetica,sans-Serif" font-size="10.00">cstring</text>
</a>
</g>
</g>
<!-- Node15&#45;&gt;Node17 -->
<g id="edge22" class="edge">
<title>Node15&#45;&gt;Node17</title>
<path fill="none" stroke="#63b8ff" d="M369.17,-109.98C391.77,-101.3 427.06,-87.75 452.75,-77.88"/>
<polygon fill="#63b8ff" stroke="#63b8ff" points="454.34,-81.02 462.42,-74.17 451.83,-74.49 454.34,-81.02"/>
</g>
<!-- Node18 -->
<g id="node18" class="node">
<title>Node18</title>
<g id="a_node18"><a xlink:title=" ">
<polygon fill="#e0e0e0" stroke="#999999" points="114,-74 50,-74 50,-55 114,-55 114,-74"/>
<text text-anchor="middle" x="82" y="-62" font-family="Helvetica,sans-Serif" font-size="10.00">algorithm</text>
</a>
</g>
</g>
<!-- Node15&#45;&gt;Node18 -->
<g id="edge23" class="edge">
<title>Node15&#45;&gt;Node18</title>
<path fill="none" stroke="#63b8ff" d="M303.62,-109.99C260.59,-101.53 192.51,-88.07 124.29,-74.25"/>
<polygon fill="#63b8ff" stroke="#63b8ff" points="124.72,-70.77 114.22,-72.21 123.33,-77.63 124.72,-70.77"/>
</g>
<!-- Node19 -->
<g id="node19" class="node">
<title>Node19</title>
<g id="a_node19"><a xlink:title=" ">
<polygon fill="#e0e0e0" stroke="#999999" points="180,-74 132,-74 132,-55 180,-55 180,-74"/>
<text text-anchor="middle" x="156" y="-62" font-family="Helvetica,sans-Serif" font-size="10.00">mutex</text>
</a>
</g>
</g>
<!-- Node15&#45;&gt;Node19 -->
<g id="edge24" class="edge">
<title>Node15&#45;&gt;Node19</title>
<path fill="none" stroke="#63b8ff" d="M316.31,-109.98C281.86,-100.42 226.09,-84.95 190.24,-75"/>
<polygon fill="#63b8ff" stroke="#63b8ff" points="190.82,-71.53 180.25,-72.23 188.95,-78.28 190.82,-71.53"/>
</g>
<!-- Node20 -->
<g id="node20" class="node">
<title>Node20</title>
<g id="a_node20"><a xlink:href="serialize__type__info_8hpp.html" target="_top" xlink:title="DataSeializerで変換する型に関する情報">
<polygon fill="white" stroke="#666666" points="366,-74 236,-74 236,-55 366,-55 366,-74"/>
<text text-anchor="middle" x="301" y="-62" font-family="Helvetica,sans-Serif" font-size="10.00">serialize_type_info.hpp</text>
</a>
</g>
</g>
<!-- Node15&#45;&gt;Node20 -->
<g id="edge26" class="edge">
<title>Node15&#45;&gt;Node20</title>
<path fill="none" stroke="#63b8ff" d="M339.4,-109.75C332.84,-102.18 323.18,-91.05 315.19,-81.84"/>
<polygon fill="#63b8ff" stroke="#63b8ff" points="317.65,-79.35 308.45,-74.09 312.37,-83.94 317.65,-79.35"/>
</g>
<!-- Node20&#45;&gt;Node3 -->
<g id="edge31" class="edge">
<title>Node20&#45;&gt;Node3</title>
<path fill="none" stroke="#63b8ff" d="M256.17,-54.98C199.66,-44.25 103.89,-26.06 54.14,-16.61"/>
<polygon fill="#63b8ff" stroke="#63b8ff" points="54.74,-13.16 44.26,-14.73 53.43,-20.03 54.74,-13.16"/>
</g>
<!-- Node20&#45;&gt;Node12 -->
<g id="edge29" class="edge">
<title>Node20&#45;&gt;Node12</title>
<path fill="none" stroke="#63b8ff" d="M319.16,-54.98C337.25,-46.5 365.28,-33.35 386.19,-23.54"/>
<polygon fill="#63b8ff" stroke="#63b8ff" points="387.95,-26.59 395.51,-19.17 384.97,-20.25 387.95,-26.59"/>
</g>
<!-- Node20&#45;&gt;Node16 -->
<g id="edge27" class="edge">
<title>Node20&#45;&gt;Node16</title>
<path fill="none" stroke="#63b8ff" d="M286.06,-54.98C271.5,-46.69 249.13,-33.94 232.07,-24.22"/>
<polygon fill="#63b8ff" stroke="#63b8ff" points="233.64,-21.08 223.21,-19.17 230.17,-27.16 233.64,-21.08"/>
</g>
<!-- Node21 -->
<g id="node21" class="node">
<title>Node21</title>
<g id="a_node21"><a xlink:title=" ">
<polygon fill="#e0e0e0" stroke="#999999" points="313.5,-19 260.5,-19 260.5,0 313.5,0 313.5,-19"/>
<text text-anchor="middle" x="287" y="-7" font-family="Helvetica,sans-Serif" font-size="10.00">stdint.h</text>
</a>
</g>
</g>
<!-- Node20&#45;&gt;Node21 -->
<g id="edge28" class="edge">
<title>Node20&#45;&gt;Node21</title>
<path fill="none" stroke="#63b8ff" d="M298.69,-54.75C296.83,-47.72 294.16,-37.62 291.85,-28.84"/>
<polygon fill="#63b8ff" stroke="#63b8ff" points="295.21,-27.86 289.27,-19.09 288.44,-29.65 295.21,-27.86"/>
</g>
<!-- Node22 -->
<g id="node22" class="node">
<title>Node22</title>
<g id="a_node22"><a xlink:title=" ">
<polygon fill="#e0e0e0" stroke="#999999" points="372.5,-19 331.5,-19 331.5,0 372.5,0 372.5,-19"/>
<text text-anchor="middle" x="352" y="-7" font-family="Helvetica,sans-Serif" font-size="10.00">tuple</text>
</a>
</g>
</g>
<!-- Node20&#45;&gt;Node22 -->
<g id="edge30" class="edge">
<title>Node20&#45;&gt;Node22</title>
<path fill="none" stroke="#63b8ff" d="M309.42,-54.75C316.77,-47.11 327.63,-35.82 336.54,-26.56"/>
<polygon fill="#63b8ff" stroke="#63b8ff" points="339.32,-28.72 343.74,-19.09 334.28,-23.87 339.32,-28.72"/>
</g>
<!-- Node23&#45;&gt;Node10 -->
<g id="edge34" class="edge">
<title>Node23&#45;&gt;Node10</title>
<path fill="none" stroke="#63b8ff" d="M565.29,-109.75C568.81,-102.57 573.91,-92.18 578.28,-83.27"/>
<polygon fill="#63b8ff" stroke="#63b8ff" points="581.52,-84.61 582.79,-74.09 575.24,-81.53 581.52,-84.61"/>
</g>
</g>
</svg>
