<?xml version="1.0" encoding="UTF-8" standalone="no"?>
<!DOCTYPE svg PUBLIC "-//W3C//DTD SVG 1.1//EN"
 "http://www.w3.org/Graphics/SVG/1.1/DTD/svg11.dtd">
<!-- Generated by graphviz version 2.43.0 (0)
 -->
<!-- Title: roblab_common_lib/include/serial/sender.hpp Pages: 1 -->
<svg width="374pt" height="170pt"
 viewBox="0.00 0.00 373.50 170.00" xmlns="http://www.w3.org/2000/svg" xmlns:xlink="http://www.w3.org/1999/xlink">
<g id="graph0" class="graph" transform="scale(1 1) rotate(0) translate(4 166)">
<title>roblab_common_lib/include/serial/sender.hpp</title>
<!-- Node1 -->
<g id="node1" class="node">
<title>Node1</title>
<g id="a_node1"><a xlink:title="シリアル通信で送るデータを登録">
<polygon fill="#999999" stroke="#666666" points="254,-162 103,-162 103,-132 254,-132 254,-162"/>
<text text-anchor="start" x="111" y="-150" font-family="Helvetica,sans-Serif" font-size="10.00">roblab_common_lib/include</text>
<text text-anchor="middle" x="178.5" y="-139" font-family="Helvetica,sans-Serif" font-size="10.00">/serial/sender.hpp</text>
</a>
</g>
</g>
<!-- Node2 -->
<g id="node2" class="node">
<title>Node2</title>
<g id="a_node2"><a xlink:href="id__packet__manager_8hpp.html" target="_top" xlink:title="ID付きパケットデータを管理">
<polygon fill="white" stroke="#666666" points="261.5,-96 95.5,-96 95.5,-66 261.5,-66 261.5,-96"/>
<text text-anchor="start" x="103.5" y="-84" font-family="Helvetica,sans-Serif" font-size="10.00">roblab_common_lib/include</text>
<text text-anchor="middle" x="178.5" y="-73" font-family="Helvetica,sans-Serif" font-size="10.00">/serial/id_packet_manager.hpp</text>
</a>
</g>
</g>
<!-- Node1&#45;&gt;Node2 -->
<g id="edge1" class="edge">
<title>Node1&#45;&gt;Node2</title>
<path fill="none" stroke="#63b8ff" d="M171.93,-121.83C171.52,-113.17 171.81,-103.7 172.79,-96.16"/>
<polygon fill="#63b8ff" stroke="#63b8ff" points="168.45,-122.13 172.78,-131.8 175.42,-121.54 168.45,-122.13"/>
</g>
<!-- Node2&#45;&gt;Node1 -->
<g id="edge2" class="edge">
<title>Node2&#45;&gt;Node1</title>
<path fill="none" stroke="#63b8ff" d="M185.07,-106.13C185.48,-114.78 185.2,-124.26 184.22,-131.8"/>
<polygon fill="#63b8ff" stroke="#63b8ff" points="188.55,-105.83 184.21,-96.16 181.58,-106.43 188.55,-105.83"/>
</g>
<!-- Node3 -->
<g id="node3" class="node">
<title>Node3</title>
<g id="a_node3"><a xlink:href="pc__uart__connection_8hpp.html" target="_top" xlink:title="パソコンと接続してパケット通信を行うライブラリ">
<polygon fill="white" stroke="#666666" points="165,-30 0,-30 0,0 165,0 165,-30"/>
<text text-anchor="start" x="8" y="-18" font-family="Helvetica,sans-Serif" font-size="10.00">roblab_mbed_lib/include</text>
<text text-anchor="middle" x="82.5" y="-7" font-family="Helvetica,sans-Serif" font-size="10.00">/serial/pc_uart_connection.hpp</text>
</a>
</g>
</g>
<!-- Node2&#45;&gt;Node3 -->
<g id="edge3" class="edge">
<title>Node2&#45;&gt;Node3</title>
<path fill="none" stroke="#63b8ff" d="M148.54,-60.03C134.01,-50.34 116.91,-38.94 103.75,-30.16"/>
<polygon fill="#63b8ff" stroke="#63b8ff" points="146.93,-63.16 157.19,-65.8 150.82,-57.34 146.93,-63.16"/>
</g>
<!-- Node4 -->
<g id="node4" class="node">
<title>Node4</title>
<g id="a_node4"><a xlink:href="mbed__uart__connection_8hpp.html" target="_top" xlink:title="接続された複数のMbedとシリアル通信を行う">
<polygon fill="white" stroke="#666666" points="365.5,-30 183.5,-30 183.5,0 365.5,0 365.5,-30"/>
<text text-anchor="start" x="191.5" y="-18" font-family="Helvetica,sans-Serif" font-size="10.00">roblab_ros_lib/include</text>
<text text-anchor="middle" x="274.5" y="-7" font-family="Helvetica,sans-Serif" font-size="10.00">/serial/mbed_uart_connection.hpp</text>
</a>
</g>
</g>
<!-- Node2&#45;&gt;Node4 -->
<g id="edge4" class="edge">
<title>Node2&#45;&gt;Node4</title>
<path fill="none" stroke="#63b8ff" d="M208.46,-60.03C222.99,-50.34 240.09,-38.94 253.25,-30.16"/>
<polygon fill="#63b8ff" stroke="#63b8ff" points="206.18,-57.34 199.81,-65.8 210.07,-63.16 206.18,-57.34"/>
</g>
</g>
</svg>
