<?xml version="1.0" encoding="UTF-8" standalone="no"?>
<!DOCTYPE svg PUBLIC "-//W3C//DTD SVG 1.1//EN"
 "http://www.w3.org/Graphics/SVG/1.1/DTD/svg11.dtd">
<!-- Generated by graphviz version 2.43.0 (0)
 -->
<!-- Title: alps_core/lib_internal/alps_common_lib/include/alps_cmn/type/serializer.hpp Pages: 1 -->
<svg width="851pt" height="173pt"
 viewBox="0.00 0.00 850.50 173.00" xmlns="http://www.w3.org/2000/svg" xmlns:xlink="http://www.w3.org/1999/xlink">
<g id="graph0" class="graph" transform="scale(1 1) rotate(0) translate(4 169)">
<title>alps_core/lib_internal/alps_common_lib/include/alps_cmn/type/serializer.hpp</title>
<polygon fill="white" stroke="transparent" points="-4,4 -4,-169 846.5,-169 846.5,4 -4,4"/>
<!-- Node1 -->
<g id="node1" class="node">
<title>Node1</title>
<g id="a_node1"><a xlink:title="データとバイト列の変換ライブラリ">
<polygon fill="#bfbfbf" stroke="black" points="294.5,-123.5 294.5,-164.5 453.5,-164.5 453.5,-123.5 294.5,-123.5"/>
<text text-anchor="start" x="302.5" y="-152.5" font-family="Helvetica,sans-Serif" font-size="10.00">alps_core/lib_internal</text>
<text text-anchor="start" x="302.5" y="-141.5" font-family="Helvetica,sans-Serif" font-size="10.00">/alps_common_lib/include</text>
<text text-anchor="middle" x="374" y="-130.5" font-family="Helvetica,sans-Serif" font-size="10.00">/alps_cmn/type/serializer.hpp</text>
</a>
</g>
</g>
<!-- Node2 -->
<g id="node2" class="node">
<title>Node2</title>
<g id="a_node2"><a xlink:title=" ">
<polygon fill="white" stroke="#bfbfbf" points="0,-62 0,-81 64,-81 64,-62 0,-62"/>
<text text-anchor="middle" x="32" y="-69" font-family="Helvetica,sans-Serif" font-size="10.00">algorithm</text>
</a>
</g>
</g>
<!-- Node1&#45;&gt;Node2 -->
<g id="edge1" class="edge">
<title>Node1&#45;&gt;Node2</title>
<path fill="none" stroke="midnightblue" d="M294.34,-131.65C233.23,-122.11 147.06,-106.85 73,-87 70.03,-86.2 66.97,-85.3 63.93,-84.33"/>
<polygon fill="midnightblue" stroke="midnightblue" points="64.95,-80.98 54.36,-81.12 62.72,-87.62 64.95,-80.98"/>
</g>
<!-- Node3 -->
<g id="node3" class="node">
<title>Node3</title>
<g id="a_node3"><a xlink:title=" ">
<polygon fill="white" stroke="#bfbfbf" points="82,-62 82,-81 124,-81 124,-62 82,-62"/>
<text text-anchor="middle" x="103" y="-69" font-family="Helvetica,sans-Serif" font-size="10.00">array</text>
</a>
</g>
</g>
<!-- Node1&#45;&gt;Node3 -->
<g id="edge2" class="edge">
<title>Node1&#45;&gt;Node3</title>
<path fill="none" stroke="midnightblue" d="M294.32,-129.11C246.75,-119.68 185.56,-105.55 133,-87 131.57,-86.49 130.11,-85.94 128.66,-85.35"/>
<polygon fill="midnightblue" stroke="midnightblue" points="129.78,-82.02 119.22,-81.15 126.94,-88.42 129.78,-82.02"/>
</g>
<!-- Node4 -->
<g id="node4" class="node">
<title>Node4</title>
<g id="a_node4"><a xlink:title=" ">
<polygon fill="white" stroke="#bfbfbf" points="142,-62 142,-81 192,-81 192,-62 142,-62"/>
<text text-anchor="middle" x="167" y="-69" font-family="Helvetica,sans-Serif" font-size="10.00">cstdint</text>
</a>
</g>
</g>
<!-- Node1&#45;&gt;Node4 -->
<g id="edge3" class="edge">
<title>Node1&#45;&gt;Node4</title>
<path fill="none" stroke="midnightblue" d="M309.03,-123.49C276.37,-113.3 236.33,-100.22 201,-87 199.35,-86.38 197.66,-85.73 195.96,-85.06"/>
<polygon fill="midnightblue" stroke="midnightblue" points="196.88,-81.65 186.3,-81.09 194.22,-88.12 196.88,-81.65"/>
</g>
<!-- Node5 -->
<g id="node5" class="node">
<title>Node5</title>
<g id="a_node5"><a xlink:title=" ">
<polygon fill="white" stroke="#bfbfbf" points="210,-62 210,-81 260,-81 260,-62 210,-62"/>
<text text-anchor="middle" x="235" y="-69" font-family="Helvetica,sans-Serif" font-size="10.00">cstring</text>
</a>
</g>
</g>
<!-- Node1&#45;&gt;Node5 -->
<g id="edge4" class="edge">
<title>Node1&#45;&gt;Node5</title>
<path fill="none" stroke="midnightblue" d="M335.28,-123.36C311.6,-111.35 281.93,-96.3 261.03,-85.7"/>
<polygon fill="midnightblue" stroke="midnightblue" points="262.6,-82.58 252.1,-81.17 259.44,-88.82 262.6,-82.58"/>
</g>
<!-- Node6 -->
<g id="node6" class="node">
<title>Node6</title>
<g id="a_node6"><a xlink:title=" ">
<polygon fill="white" stroke="#bfbfbf" points="280.5,-0.5 280.5,-19.5 321.5,-19.5 321.5,-0.5 280.5,-0.5"/>
<text text-anchor="middle" x="301" y="-7.5" font-family="Helvetica,sans-Serif" font-size="10.00">tuple</text>
</a>
</g>
</g>
<!-- Node1&#45;&gt;Node6 -->
<g id="edge5" class="edge">
<title>Node1&#45;&gt;Node6</title>
<path fill="none" stroke="midnightblue" d="M340.6,-123.33C327.85,-114.01 314.58,-101.68 307,-87 297.81,-69.21 297.39,-45.9 298.58,-29.82"/>
<polygon fill="midnightblue" stroke="midnightblue" points="302.09,-29.86 299.63,-19.56 295.13,-29.15 302.09,-29.86"/>
</g>
<!-- Node7 -->
<g id="node7" class="node">
<title>Node7</title>
<g id="a_node7"><a xlink:title=" ">
<polygon fill="white" stroke="#bfbfbf" points="453.5,-0.5 453.5,-19.5 522.5,-19.5 522.5,-0.5 453.5,-0.5"/>
<text text-anchor="middle" x="488" y="-7.5" font-family="Helvetica,sans-Serif" font-size="10.00">type_traits</text>
</a>
</g>
</g>
<!-- Node1&#45;&gt;Node7 -->
<g id="edge6" class="edge">
<title>Node1&#45;&gt;Node7</title>
<path fill="none" stroke="midnightblue" d="M453.62,-127.26C475.18,-118.97 496.11,-106.31 509,-87 520.95,-69.11 510.31,-44.54 500.32,-28.24"/>
<polygon fill="midnightblue" stroke="midnightblue" points="503.11,-26.12 494.68,-19.71 497.27,-29.98 503.11,-26.12"/>
</g>
<!-- Node8 -->
<g id="node8" class="node">
<title>Node8</title>
<g id="a_node8"><a xlink:title=" ">
<polygon fill="white" stroke="#bfbfbf" points="450,-62 450,-81 500,-81 500,-62 450,-62"/>
<text text-anchor="middle" x="475" y="-69" font-family="Helvetica,sans-Serif" font-size="10.00">chrono</text>
</a>
</g>
</g>
<!-- Node1&#45;&gt;Node8 -->
<g id="edge7" class="edge">
<title>Node1&#45;&gt;Node8</title>
<path fill="none" stroke="midnightblue" d="M402.13,-123.36C418.57,-111.89 438.96,-97.65 453.99,-87.16"/>
<polygon fill="midnightblue" stroke="midnightblue" points="456.38,-89.77 462.57,-81.17 452.37,-84.03 456.38,-89.77"/>
</g>
<!-- Node9 -->
<g id="node9" class="node">
<title>Node9</title>
<g id="a_node9"><a xlink:href="tuple__traits_8hpp.html" target="_top" xlink:title="タプル関係の型特性">
<polygon fill="white" stroke="black" points="316,-56.5 316,-86.5 432,-86.5 432,-56.5 316,-56.5"/>
<text text-anchor="start" x="324" y="-74.5" font-family="Helvetica,sans-Serif" font-size="10.00">alps_cmn/type/tuple</text>
<text text-anchor="middle" x="374" y="-63.5" font-family="Helvetica,sans-Serif" font-size="10.00">_traits.hpp</text>
</a>
</g>
</g>
<!-- Node1&#45;&gt;Node9 -->
<g id="edge8" class="edge">
<title>Node1&#45;&gt;Node9</title>
<path fill="none" stroke="midnightblue" d="M374,-123.36C374,-115.23 374,-105.7 374,-97.11"/>
<polygon fill="midnightblue" stroke="midnightblue" points="377.5,-96.89 374,-86.89 370.5,-96.89 377.5,-96.89"/>
</g>
<!-- Node11 -->
<g id="node11" class="node">
<title>Node11</title>
<g id="a_node11"><a xlink:title=" ">
<polygon fill="white" stroke="#bfbfbf" points="556,-62 556,-81 666,-81 666,-62 556,-62"/>
<text text-anchor="middle" x="611" y="-69" font-family="Helvetica,sans-Serif" font-size="10.00">etl/circular_buffer.h</text>
</a>
</g>
</g>
<!-- Node1&#45;&gt;Node11 -->
<g id="edge12" class="edge">
<title>Node1&#45;&gt;Node11</title>
<path fill="none" stroke="midnightblue" d="M439.7,-123.46C482.53,-110.72 536.92,-94.54 572.78,-83.87"/>
<polygon fill="midnightblue" stroke="midnightblue" points="573.79,-87.22 582.38,-81.01 571.8,-80.51 573.79,-87.22"/>
</g>
<!-- Node12 -->
<g id="node12" class="node">
<title>Node12</title>
<g id="a_node12"><a xlink:title=" ">
<polygon fill="white" stroke="#bfbfbf" points="684.5,-62 684.5,-81 753.5,-81 753.5,-62 684.5,-62"/>
<text text-anchor="middle" x="719" y="-69" font-family="Helvetica,sans-Serif" font-size="10.00">etl/string.h</text>
</a>
</g>
</g>
<!-- Node1&#45;&gt;Node12 -->
<g id="edge13" class="edge">
<title>Node1&#45;&gt;Node12</title>
<path fill="none" stroke="midnightblue" d="M453.54,-131.2C514.59,-121.42 600.73,-106.05 675,-87 678.37,-86.13 681.87,-85.15 685.34,-84.1"/>
<polygon fill="midnightblue" stroke="midnightblue" points="686.48,-87.41 694.97,-81.07 684.38,-80.74 686.48,-87.41"/>
</g>
<!-- Node13 -->
<g id="node13" class="node">
<title>Node13</title>
<g id="a_node13"><a xlink:title=" ">
<polygon fill="white" stroke="#bfbfbf" points="771.5,-62 771.5,-81 842.5,-81 842.5,-62 771.5,-62"/>
<text text-anchor="middle" x="807" y="-69" font-family="Helvetica,sans-Serif" font-size="10.00">etl/vector.h</text>
</a>
</g>
</g>
<!-- Node1&#45;&gt;Node13 -->
<g id="edge14" class="edge">
<title>Node1&#45;&gt;Node13</title>
<path fill="none" stroke="midnightblue" d="M453.73,-135.66C532.9,-127.4 657.39,-111.8 763,-87 766.47,-86.18 770.06,-85.22 773.62,-84.17"/>
<polygon fill="midnightblue" stroke="midnightblue" points="774.97,-87.42 783.47,-81.1 772.88,-80.74 774.97,-87.42"/>
</g>
<!-- Node9&#45;&gt;Node6 -->
<g id="edge10" class="edge">
<title>Node9&#45;&gt;Node6</title>
<path fill="none" stroke="midnightblue" d="M356.7,-56.4C345.55,-47.31 331.05,-35.49 319.64,-26.19"/>
<polygon fill="midnightblue" stroke="midnightblue" points="321.58,-23.26 311.62,-19.66 317.16,-28.69 321.58,-23.26"/>
</g>
<!-- Node9&#45;&gt;Node7 -->
<g id="edge11" class="edge">
<title>Node9&#45;&gt;Node7</title>
<path fill="none" stroke="midnightblue" d="M401.02,-56.4C419.63,-46.68 444.21,-33.86 462.49,-24.31"/>
<polygon fill="midnightblue" stroke="midnightblue" points="464.17,-27.39 471.41,-19.66 460.93,-21.18 464.17,-27.39"/>
</g>
<!-- Node10 -->
<g id="node10" class="node">
<title>Node10</title>
<g id="a_node10"><a xlink:title=" ">
<polygon fill="white" stroke="#bfbfbf" points="352,-0.5 352,-19.5 396,-19.5 396,-0.5 352,-0.5"/>
<text text-anchor="middle" x="374" y="-7.5" font-family="Helvetica,sans-Serif" font-size="10.00">string</text>
</a>
</g>
</g>
<!-- Node9&#45;&gt;Node10 -->
<g id="edge9" class="edge">
<title>Node9&#45;&gt;Node10</title>
<path fill="none" stroke="midnightblue" d="M374,-56.4C374,-48.47 374,-38.46 374,-29.86"/>
<polygon fill="midnightblue" stroke="midnightblue" points="377.5,-29.66 374,-19.66 370.5,-29.66 377.5,-29.66"/>
</g>
</g>
</svg>
