<?xml version="1.0" encoding="UTF-8" standalone="no"?>
<!DOCTYPE svg PUBLIC "-//W3C//DTD SVG 1.1//EN"
 "http://www.w3.org/Graphics/SVG/1.1/DTD/svg11.dtd">
<!-- Generated by graphviz version 2.43.0 (0)
 -->
<!-- Title: alps_common_lib/include/alps_cmn/communication/serialize_type_info.hpp Pages: 1 -->
<svg width="444pt" height="106pt"
 viewBox="0.00 0.00 444.00 106.00" xmlns="http://www.w3.org/2000/svg" xmlns:xlink="http://www.w3.org/1999/xlink">
<g id="graph0" class="graph" transform="scale(1 1) rotate(0) translate(4 102)">
<title>alps_common_lib/include/alps_cmn/communication/serialize_type_info.hpp</title>
<polygon fill="white" stroke="transparent" points="-4,4 -4,-102 440,-102 440,4 -4,4"/>
<!-- Node1 -->
<g id="node1" class="node">
<title>Node1</title>
<g id="a_node1"><a xlink:title="DataSeializerで変換する型に関する情報">
<polygon fill="#bfbfbf" stroke="black" points="116,-56.5 116,-97.5 261,-97.5 261,-56.5 116,-56.5"/>
<text text-anchor="start" x="124" y="-85.5" font-family="Helvetica,sans-Serif" font-size="10.00">alps_common_lib/include</text>
<text text-anchor="start" x="124" y="-74.5" font-family="Helvetica,sans-Serif" font-size="10.00">/alps_cmn/communication</text>
<text text-anchor="middle" x="188.5" y="-63.5" font-family="Helvetica,sans-Serif" font-size="10.00">/serialize_type_info.hpp</text>
</a>
</g>
</g>
<!-- Node2 -->
<g id="node2" class="node">
<title>Node2</title>
<g id="a_node2"><a xlink:title=" ">
<polygon fill="white" stroke="#bfbfbf" points="0,-0.5 0,-19.5 53,-19.5 53,-0.5 0,-0.5"/>
<text text-anchor="middle" x="26.5" y="-7.5" font-family="Helvetica,sans-Serif" font-size="10.00">stdint.h</text>
</a>
</g>
</g>
<!-- Node1&#45;&gt;Node2 -->
<g id="edge1" class="edge">
<title>Node1&#45;&gt;Node2</title>
<path fill="none" stroke="midnightblue" d="M139.89,-56.5C113.15,-45.77 80.76,-32.77 57.45,-23.42"/>
<polygon fill="midnightblue" stroke="midnightblue" points="58.65,-20.13 48.06,-19.65 56.04,-26.62 58.65,-20.13"/>
</g>
<!-- Node3 -->
<g id="node3" class="node">
<title>Node3</title>
<g id="a_node3"><a xlink:title=" ">
<polygon fill="white" stroke="#bfbfbf" points="71.5,-0.5 71.5,-19.5 113.5,-19.5 113.5,-0.5 71.5,-0.5"/>
<text text-anchor="middle" x="92.5" y="-7.5" font-family="Helvetica,sans-Serif" font-size="10.00">array</text>
</a>
</g>
</g>
<!-- Node1&#45;&gt;Node3 -->
<g id="edge2" class="edge">
<title>Node1&#45;&gt;Node3</title>
<path fill="none" stroke="midnightblue" d="M159.7,-56.5C144.98,-46.53 127.38,-34.61 113.88,-25.48"/>
<polygon fill="midnightblue" stroke="midnightblue" points="115.52,-22.36 105.28,-19.65 111.6,-28.16 115.52,-22.36"/>
</g>
<!-- Node4 -->
<g id="node4" class="node">
<title>Node4</title>
<g id="a_node4"><a xlink:title=" ">
<polygon fill="white" stroke="#bfbfbf" points="132,-0.5 132,-19.5 173,-19.5 173,-0.5 132,-0.5"/>
<text text-anchor="middle" x="152.5" y="-7.5" font-family="Helvetica,sans-Serif" font-size="10.00">tuple</text>
</a>
</g>
</g>
<!-- Node1&#45;&gt;Node4 -->
<g id="edge3" class="edge">
<title>Node1&#45;&gt;Node4</title>
<path fill="none" stroke="midnightblue" d="M177.7,-56.5C172.76,-47.59 166.96,-37.11 162.17,-28.46"/>
<polygon fill="midnightblue" stroke="midnightblue" points="165.2,-26.7 157.29,-19.65 159.08,-30.1 165.2,-26.7"/>
</g>
<!-- Node5 -->
<g id="node5" class="node">
<title>Node5</title>
<g id="a_node5"><a xlink:title=" ">
<polygon fill="white" stroke="#bfbfbf" points="191,-0.5 191,-19.5 260,-19.5 260,-0.5 191,-0.5"/>
<text text-anchor="middle" x="225.5" y="-7.5" font-family="Helvetica,sans-Serif" font-size="10.00">type_traits</text>
</a>
</g>
</g>
<!-- Node1&#45;&gt;Node5 -->
<g id="edge4" class="edge">
<title>Node1&#45;&gt;Node5</title>
<path fill="none" stroke="midnightblue" d="M199.6,-56.5C204.67,-47.59 210.64,-37.11 215.56,-28.46"/>
<polygon fill="midnightblue" stroke="midnightblue" points="218.67,-30.07 220.57,-19.65 212.59,-26.61 218.67,-30.07"/>
</g>
<!-- Node6 -->
<g id="node6" class="node">
<title>Node6</title>
<g id="a_node6"><a xlink:title=" ">
<polygon fill="white" stroke="#bfbfbf" points="278,-0.5 278,-19.5 347,-19.5 347,-0.5 278,-0.5"/>
<text text-anchor="middle" x="312.5" y="-7.5" font-family="Helvetica,sans-Serif" font-size="10.00">etl/string.h</text>
</a>
</g>
</g>
<!-- Node1&#45;&gt;Node6 -->
<g id="edge5" class="edge">
<title>Node1&#45;&gt;Node6</title>
<path fill="none" stroke="midnightblue" d="M225.7,-56.5C245.45,-46.15 269.21,-33.69 286.87,-24.43"/>
<polygon fill="midnightblue" stroke="midnightblue" points="288.76,-27.4 295.99,-19.65 285.51,-21.2 288.76,-27.4"/>
</g>
<!-- Node7 -->
<g id="node7" class="node">
<title>Node7</title>
<g id="a_node7"><a xlink:title=" ">
<polygon fill="white" stroke="#bfbfbf" points="365,-0.5 365,-19.5 436,-19.5 436,-0.5 365,-0.5"/>
<text text-anchor="middle" x="400.5" y="-7.5" font-family="Helvetica,sans-Serif" font-size="10.00">etl/vector.h</text>
</a>
</g>
</g>
<!-- Node1&#45;&gt;Node7 -->
<g id="edge6" class="edge">
<title>Node1&#45;&gt;Node7</title>
<path fill="none" stroke="midnightblue" d="M252.11,-56.5C288.16,-45.44 332.04,-31.99 362.7,-22.59"/>
<polygon fill="midnightblue" stroke="midnightblue" points="364.02,-25.84 372.56,-19.57 361.97,-19.15 364.02,-25.84"/>
</g>
</g>
</svg>
