<?xml version="1.0" encoding="UTF-8" standalone="no"?>
<!DOCTYPE svg PUBLIC "-//W3C//DTD SVG 1.1//EN"
 "http://www.w3.org/Graphics/SVG/1.1/DTD/svg11.dtd">
<!-- Generated by graphviz version 2.43.0 (0)
 -->
<!-- Title: alps_core/lib_internal/alps_common_lib/include/alps_cmn/time/sleep.hpp Pages: 1 -->
<svg width="535pt" height="137pt"
 viewBox="0.00 0.00 534.50 137.00" xmlns="http://www.w3.org/2000/svg" xmlns:xlink="http://www.w3.org/1999/xlink">
<g id="graph0" class="graph" transform="scale(1 1) rotate(0) translate(4 133)">
<title>alps_core/lib_internal/alps_common_lib/include/alps_cmn/time/sleep.hpp</title>
<!-- Node1 -->
<g id="Node000001" class="node">
<title>Node1</title>
<g id="a_Node000001"><a xlink:title="スリープ関数の定義">
<polygon fill="#999999" stroke="#666666" points="339,-129 196,-129 196,-88 339,-88 339,-129"/>
<text text-anchor="start" x="204" y="-117" font-family="Helvetica,sans-Serif" font-size="10.00">alps_core/lib_internal</text>
<text text-anchor="start" x="204" y="-106" font-family="Helvetica,sans-Serif" font-size="10.00">/alps_common_lib/include</text>
<text text-anchor="middle" x="267.5" y="-95" font-family="Helvetica,sans-Serif" font-size="10.00">/alps_cmn/time/sleep.hpp</text>
</a>
</g>
</g>
<!-- Node2 -->
<g id="Node000002" class="node">
<title>Node2</title>
<g id="a_Node000002"><a xlink:href="ssd1306_8hpp.html" target="_top" xlink:title="SSD1306 OLEDディスプレイ">
<polygon fill="white" stroke="#666666" points="169,-46.5 0,-46.5 0,-5.5 169,-5.5 169,-46.5"/>
<text text-anchor="start" x="8" y="-34.5" font-family="Helvetica,sans-Serif" font-size="10.00">alps_core/lib_internal</text>
<text text-anchor="start" x="8" y="-23.5" font-family="Helvetica,sans-Serif" font-size="10.00">/alps_common_lib/include</text>
<text text-anchor="middle" x="84.5" y="-12.5" font-family="Helvetica,sans-Serif" font-size="10.00">/alps_cmn/display/ssd1306.hpp</text>
</a>
</g>
</g>
<!-- Node1&#45;&gt;Node2 -->
<g id="edge1_Node000001_Node000002" class="edge">
<title>Node1&#45;&gt;Node2</title>
<g id="a_edge1_Node000001_Node000002"><a xlink:title=" ">
<path fill="none" stroke="#63b8ff" d="M213.47,-83.73C186.62,-71.92 154.56,-57.82 129.12,-46.63"/>
<polygon fill="#63b8ff" stroke="#63b8ff" points="212.17,-86.98 222.73,-87.81 214.99,-80.58 212.17,-86.98"/>
</a>
</g>
</g>
<!-- Node3 -->
<g id="Node000003" class="node">
<title>Node3</title>
<g id="a_Node000003"><a xlink:href="bno055_8hpp.html" target="_top" xlink:title="BNO055 9軸センサ">
<polygon fill="white" stroke="#666666" points="348,-46.5 187,-46.5 187,-5.5 348,-5.5 348,-46.5"/>
<text text-anchor="start" x="195" y="-34.5" font-family="Helvetica,sans-Serif" font-size="10.00">alps_core/lib_internal</text>
<text text-anchor="start" x="195" y="-23.5" font-family="Helvetica,sans-Serif" font-size="10.00">/alps_common_lib/include</text>
<text text-anchor="middle" x="267.5" y="-12.5" font-family="Helvetica,sans-Serif" font-size="10.00">/alps_cmn/sensor/bno055.hpp</text>
</a>
</g>
</g>
<!-- Node1&#45;&gt;Node3 -->
<g id="edge2_Node000001_Node000003" class="edge">
<title>Node1&#45;&gt;Node3</title>
<g id="a_edge2_Node000001_Node000003"><a xlink:title=" ">
<path fill="none" stroke="#63b8ff" d="M267.5,-77.37C267.5,-67.1 267.5,-55.9 267.5,-46.67"/>
<polygon fill="#63b8ff" stroke="#63b8ff" points="264,-77.6 267.5,-87.6 271,-77.6 264,-77.6"/>
</a>
</g>
</g>
<!-- Node4 -->
<g id="Node000004" class="node">
<title>Node4</title>
<g id="a_Node000004"><a xlink:href="motor__friction__analyzer_8hpp.html" target="_top" xlink:title="モーター軸の摩擦力を計測するクラス">
<polygon fill="white" stroke="#666666" points="526.5,-52 366.5,-52 366.5,0 526.5,0 526.5,-52"/>
<text text-anchor="start" x="374.5" y="-40" font-family="Helvetica,sans-Serif" font-size="10.00">alps_core/lib_internal</text>
<text text-anchor="start" x="374.5" y="-29" font-family="Helvetica,sans-Serif" font-size="10.00">/alps_common_lib/include</text>
<text text-anchor="start" x="374.5" y="-18" font-family="Helvetica,sans-Serif" font-size="10.00">/alps_cmn/tool/motor_friction</text>
<text text-anchor="middle" x="446.5" y="-7" font-family="Helvetica,sans-Serif" font-size="10.00">_analyzer.hpp</text>
</a>
</g>
</g>
<!-- Node1&#45;&gt;Node4 -->
<g id="edge3_Node000001_Node000004" class="edge">
<title>Node1&#45;&gt;Node4</title>
<g id="a_edge3_Node000001_Node000004"><a xlink:title=" ">
<path fill="none" stroke="#63b8ff" d="M320.51,-83.66C342.59,-73.73 368.25,-62.19 390.63,-52.13"/>
<polygon fill="#63b8ff" stroke="#63b8ff" points="318.97,-80.51 311.29,-87.81 321.84,-86.9 318.97,-80.51"/>
</a>
</g>
</g>
</g>
</svg>
