<?xml version="1.0" encoding="UTF-8" standalone="no"?>
<!DOCTYPE svg PUBLIC "-//W3C//DTD SVG 1.1//EN"
 "http://www.w3.org/Graphics/SVG/1.1/DTD/svg11.dtd">
<!-- Generated by graphviz version 2.43.0 (0)
 -->
<!-- Title: alps_core/lib_internal/alps_common_lib/include/alps_cmn/time/sleep.hpp Pages: 1 -->
<svg width="920pt" height="225pt"
 viewBox="0.00 0.00 920.00 225.00" xmlns="http://www.w3.org/2000/svg" xmlns:xlink="http://www.w3.org/1999/xlink">
<g id="graph0" class="graph" transform="scale(1 1) rotate(0) translate(4 221)">
<title>alps_core/lib_internal/alps_common_lib/include/alps_cmn/time/sleep.hpp</title>
<!-- Node1 -->
<g id="Node000001" class="node">
<title>Node1</title>
<g id="a_Node000001"><a xlink:title="スリープ関数の定義">
<polygon fill="#999999" stroke="#666666" points="521.5,-217 378.5,-217 378.5,-176 521.5,-176 521.5,-217"/>
<text text-anchor="start" x="386.5" y="-205" font-family="Helvetica,sans-Serif" font-size="10.00">alps_core/lib_internal</text>
<text text-anchor="start" x="386.5" y="-194" font-family="Helvetica,sans-Serif" font-size="10.00">/alps_common_lib/include</text>
<text text-anchor="middle" x="450" y="-183" font-family="Helvetica,sans-Serif" font-size="10.00">/alps_cmn/time/sleep.hpp</text>
</a>
</g>
</g>
<!-- Node2 -->
<g id="Node000002" class="node">
<title>Node2</title>
<g id="a_Node000002"><a xlink:href="alps__common__lib_2include_2alps__cmn_2display_2ssd1306_8hpp.html" target="_top" xlink:title="SSD1306 OLEDディスプレイ">
<polygon fill="white" stroke="#666666" points="172.5,-134.5 3.5,-134.5 3.5,-93.5 172.5,-93.5 172.5,-134.5"/>
<text text-anchor="start" x="11.5" y="-122.5" font-family="Helvetica,sans-Serif" font-size="10.00">alps_core/lib_internal</text>
<text text-anchor="start" x="11.5" y="-111.5" font-family="Helvetica,sans-Serif" font-size="10.00">/alps_common_lib/include</text>
<text text-anchor="middle" x="88" y="-100.5" font-family="Helvetica,sans-Serif" font-size="10.00">/alps_cmn/display/ssd1306.hpp</text>
</a>
</g>
</g>
<!-- Node1&#45;&gt;Node2 -->
<g id="edge1_Node000001_Node000002" class="edge">
<title>Node1&#45;&gt;Node2</title>
<g id="a_edge1_Node000001_Node000002"><a xlink:title=" ">
<path fill="none" stroke="#63b8ff" d="M368.28,-179.94C314.82,-169.45 243.55,-154.85 181,-140 173.84,-138.3 166.4,-136.45 158.98,-134.54"/>
<polygon fill="#63b8ff" stroke="#63b8ff" points="367.9,-183.44 378.38,-181.92 369.24,-176.57 367.9,-183.44"/>
</a>
</g>
</g>
<!-- Node4 -->
<g id="Node000004" class="node">
<title>Node4</title>
<g id="a_Node000004"><a xlink:href="as5600_8hpp.html" target="_top" xlink:title="AS5600 磁気式ロータリーエンコーダ">
<polygon fill="white" stroke="#666666" points="351.5,-134.5 190.5,-134.5 190.5,-93.5 351.5,-93.5 351.5,-134.5"/>
<text text-anchor="start" x="198.5" y="-122.5" font-family="Helvetica,sans-Serif" font-size="10.00">alps_core/lib_internal</text>
<text text-anchor="start" x="198.5" y="-111.5" font-family="Helvetica,sans-Serif" font-size="10.00">/alps_common_lib/include</text>
<text text-anchor="middle" x="271" y="-100.5" font-family="Helvetica,sans-Serif" font-size="10.00">/alps_cmn/sensor/as5600.hpp</text>
</a>
</g>
</g>
<!-- Node1&#45;&gt;Node4 -->
<g id="edge3_Node000001_Node000004" class="edge">
<title>Node1&#45;&gt;Node4</title>
<g id="a_edge3_Node000001_Node000004"><a xlink:title=" ">
<path fill="none" stroke="#63b8ff" d="M396.81,-171.58C370.61,-159.8 339.42,-145.77 314.65,-134.63"/>
<polygon fill="#63b8ff" stroke="#63b8ff" points="395.66,-174.9 406.21,-175.81 398.53,-168.51 395.66,-174.9"/>
</a>
</g>
</g>
<!-- Node5 -->
<g id="Node000005" class="node">
<title>Node5</title>
<g id="a_Node000005"><a xlink:href="bno055_8hpp.html" target="_top" xlink:title="BNO055 9軸センサ">
<polygon fill="white" stroke="#666666" points="530.5,-134.5 369.5,-134.5 369.5,-93.5 530.5,-93.5 530.5,-134.5"/>
<text text-anchor="start" x="377.5" y="-122.5" font-family="Helvetica,sans-Serif" font-size="10.00">alps_core/lib_internal</text>
<text text-anchor="start" x="377.5" y="-111.5" font-family="Helvetica,sans-Serif" font-size="10.00">/alps_common_lib/include</text>
<text text-anchor="middle" x="450" y="-100.5" font-family="Helvetica,sans-Serif" font-size="10.00">/alps_cmn/sensor/bno055.hpp</text>
</a>
</g>
</g>
<!-- Node1&#45;&gt;Node5 -->
<g id="edge4_Node000001_Node000005" class="edge">
<title>Node1&#45;&gt;Node5</title>
<g id="a_edge4_Node000001_Node000005"><a xlink:title=" ">
<path fill="none" stroke="#63b8ff" d="M450,-165.37C450,-155.1 450,-143.9 450,-134.67"/>
<polygon fill="#63b8ff" stroke="#63b8ff" points="446.5,-165.6 450,-175.6 453.5,-165.6 446.5,-165.6"/>
</a>
</g>
</g>
<!-- Node6 -->
<g id="Node000006" class="node">
<title>Node6</title>
<g id="a_Node000006"><a xlink:href="alps__common__lib_2include_2alps__cmn_2sound_2piezo__buzzer_8hpp.html" target="_top" xlink:title="圧電ブザー 鳴動用ライブラリ">
<polygon fill="white" stroke="#666666" points="733.5,-134.5 548.5,-134.5 548.5,-93.5 733.5,-93.5 733.5,-134.5"/>
<text text-anchor="start" x="556.5" y="-122.5" font-family="Helvetica,sans-Serif" font-size="10.00">alps_core/lib_internal</text>
<text text-anchor="start" x="556.5" y="-111.5" font-family="Helvetica,sans-Serif" font-size="10.00">/alps_common_lib/include</text>
<text text-anchor="middle" x="641" y="-100.5" font-family="Helvetica,sans-Serif" font-size="10.00">/alps_cmn/sound/piezo_buzzer.hpp</text>
</a>
</g>
</g>
<!-- Node1&#45;&gt;Node6 -->
<g id="edge5_Node000001_Node000006" class="edge">
<title>Node1&#45;&gt;Node6</title>
<g id="a_edge5_Node000001_Node000006"><a xlink:title=" ">
<path fill="none" stroke="#63b8ff" d="M506.02,-171.89C534.13,-160.04 567.76,-145.87 594.43,-134.63"/>
<polygon fill="#63b8ff" stroke="#63b8ff" points="504.58,-168.7 496.72,-175.81 507.3,-175.15 504.58,-168.7"/>
</a>
</g>
</g>
<!-- Node8 -->
<g id="Node000008" class="node">
<title>Node8</title>
<g id="a_Node000008"><a xlink:href="motor__friction__analyzer_8hpp.html" target="_top" xlink:title="モーター軸の摩擦力を計測するクラス">
<polygon fill="white" stroke="#666666" points="912,-140 752,-140 752,-88 912,-88 912,-140"/>
<text text-anchor="start" x="760" y="-128" font-family="Helvetica,sans-Serif" font-size="10.00">alps_core/lib_internal</text>
<text text-anchor="start" x="760" y="-117" font-family="Helvetica,sans-Serif" font-size="10.00">/alps_common_lib/include</text>
<text text-anchor="start" x="760" y="-106" font-family="Helvetica,sans-Serif" font-size="10.00">/alps_cmn/tool/motor_friction</text>
<text text-anchor="middle" x="832" y="-95" font-family="Helvetica,sans-Serif" font-size="10.00">_analyzer.hpp</text>
</a>
</g>
</g>
<!-- Node1&#45;&gt;Node8 -->
<g id="edge7_Node000001_Node000008" class="edge">
<title>Node1&#45;&gt;Node8</title>
<g id="a_edge7_Node000001_Node000008"><a xlink:title=" ">
<path fill="none" stroke="#63b8ff" d="M531.72,-181.98C590.71,-171.74 672.13,-156.63 743,-140 745.81,-139.34 748.67,-138.65 751.55,-137.94"/>
<polygon fill="#63b8ff" stroke="#63b8ff" points="530.97,-178.55 521.71,-183.7 532.16,-185.45 530.97,-178.55"/>
</a>
</g>
</g>
<!-- Node3 -->
<g id="Node000003" class="node">
<title>Node3</title>
<g id="a_Node000003"><a xlink:href="alps__mbed__lib_2include_2alps__mbed_2display_2ssd1306_8hpp.html" target="_top" xlink:title="SSD1306 OLEDディスプレイ（mbed）">
<polygon fill="white" stroke="#666666" points="176,-46.5 0,-46.5 0,-5.5 176,-5.5 176,-46.5"/>
<text text-anchor="start" x="8" y="-34.5" font-family="Helvetica,sans-Serif" font-size="10.00">alps_core/lib_internal</text>
<text text-anchor="start" x="8" y="-23.5" font-family="Helvetica,sans-Serif" font-size="10.00">/alps_mbed_lib/include</text>
<text text-anchor="middle" x="88" y="-12.5" font-family="Helvetica,sans-Serif" font-size="10.00">/alps_mbed/display/ssd1306.hpp</text>
</a>
</g>
</g>
<!-- Node2&#45;&gt;Node3 -->
<g id="edge2_Node000002_Node000003" class="edge">
<title>Node2&#45;&gt;Node3</title>
<g id="a_edge2_Node000002_Node000003"><a xlink:title=" ">
<path fill="none" stroke="#63b8ff" d="M88,-83.36C88,-71.26 88,-57.58 88,-46.74"/>
<polygon fill="#63b8ff" stroke="#63b8ff" points="84.5,-83.49 88,-93.49 91.5,-83.49 84.5,-83.49"/>
</a>
</g>
</g>
<!-- Node7 -->
<g id="Node000007" class="node">
<title>Node7</title>
<g id="a_Node000007"><a xlink:href="alps__mbed__lib_2include_2alps__mbed_2sound_2piezo__buzzer_8hpp.html" target="_top" xlink:title="圧電ブザー 鳴動用ライブラリ（mbed）">
<polygon fill="white" stroke="#666666" points="708,-52 574,-52 574,0 708,0 708,-52"/>
<text text-anchor="start" x="582" y="-40" font-family="Helvetica,sans-Serif" font-size="10.00">alps_core/lib_internal</text>
<text text-anchor="start" x="582" y="-29" font-family="Helvetica,sans-Serif" font-size="10.00">/alps_mbed_lib/include</text>
<text text-anchor="start" x="582" y="-18" font-family="Helvetica,sans-Serif" font-size="10.00">/alps_mbed/sound/piezo</text>
<text text-anchor="middle" x="641" y="-7" font-family="Helvetica,sans-Serif" font-size="10.00">_buzzer.hpp</text>
</a>
</g>
</g>
<!-- Node6&#45;&gt;Node7 -->
<g id="edge6_Node000006_Node000007" class="edge">
<title>Node6&#45;&gt;Node7</title>
<g id="a_edge6_Node000006_Node000007"><a xlink:title=" ">
<path fill="none" stroke="#63b8ff" d="M641,-83.44C641,-73.31 641,-62.08 641,-52.32"/>
<polygon fill="#63b8ff" stroke="#63b8ff" points="637.5,-83.49 641,-93.49 644.5,-83.49 637.5,-83.49"/>
</a>
</g>
</g>
</g>
</svg>
