<?xml version="1.0" encoding="UTF-8" standalone="no"?>
<!DOCTYPE svg PUBLIC "-//W3C//DTD SVG 1.1//EN"
 "http://www.w3.org/Graphics/SVG/1.1/DTD/svg11.dtd">
<!-- Generated by graphviz version 2.43.0 (0)
 -->
<!-- Title: alps_core/lib_internal/alps_common_lib/include/alps_cmn/time/sleep.hpp Pages: 1 -->
<svg width="1105pt" height="225pt"
 viewBox="0.00 0.00 1105.00 225.00" xmlns="http://www.w3.org/2000/svg" xmlns:xlink="http://www.w3.org/1999/xlink">
<g id="graph0" class="graph" transform="scale(1 1) rotate(0) translate(4 221)">
<title>alps_core/lib_internal/alps_common_lib/include/alps_cmn/time/sleep.hpp</title>
<!-- Node1 -->
<g id="Node000001" class="node">
<title>Node1</title>
<g id="a_Node000001"><a xlink:title="スリープ関数の定義">
<polygon fill="#999999" stroke="#666666" points="616.5,-217 473.5,-217 473.5,-176 616.5,-176 616.5,-217"/>
<text text-anchor="start" x="481.5" y="-205" font-family="Helvetica,sans-Serif" font-size="10.00">alps_core/lib_internal</text>
<text text-anchor="start" x="481.5" y="-194" font-family="Helvetica,sans-Serif" font-size="10.00">/alps_common_lib/include</text>
<text text-anchor="middle" x="545" y="-183" font-family="Helvetica,sans-Serif" font-size="10.00">/alps_cmn/time/sleep.hpp</text>
</a>
</g>
</g>
<!-- Node2 -->
<g id="Node000002" class="node">
<title>Node2</title>
<g id="a_Node000002"><a xlink:href="alps__common__lib_2include_2alps__cmn_2display_2ssd1306_8hpp.html" target="_top" xlink:title="SSD1306 OLEDディスプレイ">
<polygon fill="white" stroke="#666666" points="172.5,-134.5 3.5,-134.5 3.5,-93.5 172.5,-93.5 172.5,-134.5"/>
<text text-anchor="start" x="11.5" y="-122.5" font-family="Helvetica,sans-Serif" font-size="10.00">alps_core/lib_internal</text>
<text text-anchor="start" x="11.5" y="-111.5" font-family="Helvetica,sans-Serif" font-size="10.00">/alps_common_lib/include</text>
<text text-anchor="middle" x="88" y="-100.5" font-family="Helvetica,sans-Serif" font-size="10.00">/alps_cmn/display/ssd1306.hpp</text>
</a>
</g>
</g>
<!-- Node1&#45;&gt;Node2 -->
<g id="edge1_Node000001_Node000002" class="edge">
<title>Node1&#45;&gt;Node2</title>
<g id="a_edge1_Node000001_Node000002"><a xlink:title=" ">
<path fill="none" stroke="#63b8ff" d="M463.24,-185.68C389.16,-176.16 277.2,-160.2 181,-140 173.31,-138.39 165.31,-136.52 157.37,-134.55"/>
<polygon fill="#63b8ff" stroke="#63b8ff" points="463.07,-189.19 473.44,-186.98 463.96,-182.24 463.07,-189.19"/>
</a>
</g>
</g>
<!-- Node4 -->
<g id="Node000004" class="node">
<title>Node4</title>
<g id="a_Node000004"><a xlink:href="as5048a_8hpp.html" target="_top" xlink:title="AS5048A 磁気式ロータリーエンコーダ (SPI)">
<polygon fill="white" stroke="#666666" points="357.5,-134.5 190.5,-134.5 190.5,-93.5 357.5,-93.5 357.5,-134.5"/>
<text text-anchor="start" x="198.5" y="-122.5" font-family="Helvetica,sans-Serif" font-size="10.00">alps_core/lib_internal</text>
<text text-anchor="start" x="198.5" y="-111.5" font-family="Helvetica,sans-Serif" font-size="10.00">/alps_common_lib/include</text>
<text text-anchor="middle" x="274" y="-100.5" font-family="Helvetica,sans-Serif" font-size="10.00">/alps_cmn/sensor/as5048a.hpp</text>
</a>
</g>
</g>
<!-- Node1&#45;&gt;Node4 -->
<g id="edge3_Node000001_Node000004" class="edge">
<title>Node1&#45;&gt;Node4</title>
<g id="a_edge3_Node000001_Node000004"><a xlink:title=" ">
<path fill="none" stroke="#63b8ff" d="M469.44,-173.05C428.7,-160.95 378.9,-146.16 339.77,-134.54"/>
<polygon fill="#63b8ff" stroke="#63b8ff" points="468.47,-176.42 479.05,-175.91 470.46,-169.71 468.47,-176.42"/>
</a>
</g>
</g>
<!-- Node5 -->
<g id="Node000005" class="node">
<title>Node5</title>
<g id="a_Node000005"><a xlink:href="as5600_8hpp.html" target="_top" xlink:title="AS5600 磁気式ロータリーエンコーダ">
<polygon fill="white" stroke="#666666" points="536.5,-134.5 375.5,-134.5 375.5,-93.5 536.5,-93.5 536.5,-134.5"/>
<text text-anchor="start" x="383.5" y="-122.5" font-family="Helvetica,sans-Serif" font-size="10.00">alps_core/lib_internal</text>
<text text-anchor="start" x="383.5" y="-111.5" font-family="Helvetica,sans-Serif" font-size="10.00">/alps_common_lib/include</text>
<text text-anchor="middle" x="456" y="-100.5" font-family="Helvetica,sans-Serif" font-size="10.00">/alps_cmn/sensor/as5600.hpp</text>
</a>
</g>
</g>
<!-- Node1&#45;&gt;Node5 -->
<g id="edge4_Node000001_Node000005" class="edge">
<title>Node1&#45;&gt;Node5</title>
<g id="a_edge4_Node000001_Node000005"><a xlink:title=" ">
<path fill="none" stroke="#63b8ff" d="M515.58,-168.89C503.23,-157.72 489.13,-144.97 477.75,-134.67"/>
<polygon fill="#63b8ff" stroke="#63b8ff" points="513.24,-171.49 523,-175.6 517.93,-166.3 513.24,-171.49"/>
</a>
</g>
</g>
<!-- Node6 -->
<g id="Node000006" class="node">
<title>Node6</title>
<g id="a_Node000006"><a xlink:href="bno055_8hpp.html" target="_top" xlink:title="BNO055 9軸センサ">
<polygon fill="white" stroke="#666666" points="715.5,-134.5 554.5,-134.5 554.5,-93.5 715.5,-93.5 715.5,-134.5"/>
<text text-anchor="start" x="562.5" y="-122.5" font-family="Helvetica,sans-Serif" font-size="10.00">alps_core/lib_internal</text>
<text text-anchor="start" x="562.5" y="-111.5" font-family="Helvetica,sans-Serif" font-size="10.00">/alps_common_lib/include</text>
<text text-anchor="middle" x="635" y="-100.5" font-family="Helvetica,sans-Serif" font-size="10.00">/alps_cmn/sensor/bno055.hpp</text>
</a>
</g>
</g>
<!-- Node1&#45;&gt;Node6 -->
<g id="edge5_Node000001_Node000006" class="edge">
<title>Node1&#45;&gt;Node6</title>
<g id="a_edge5_Node000001_Node000006"><a xlink:title=" ">
<path fill="none" stroke="#63b8ff" d="M574.75,-168.89C587.24,-157.72 601.5,-144.97 613.01,-134.67"/>
<polygon fill="#63b8ff" stroke="#63b8ff" points="572.37,-166.33 567.25,-175.6 577.03,-171.54 572.37,-166.33"/>
</a>
</g>
</g>
<!-- Node7 -->
<g id="Node000007" class="node">
<title>Node7</title>
<g id="a_Node000007"><a xlink:href="alps__common__lib_2include_2alps__cmn_2sound_2piezo__buzzer_8hpp.html" target="_top" xlink:title="圧電ブザー 鳴動用ライブラリ">
<polygon fill="white" stroke="#666666" points="918.5,-134.5 733.5,-134.5 733.5,-93.5 918.5,-93.5 918.5,-134.5"/>
<text text-anchor="start" x="741.5" y="-122.5" font-family="Helvetica,sans-Serif" font-size="10.00">alps_core/lib_internal</text>
<text text-anchor="start" x="741.5" y="-111.5" font-family="Helvetica,sans-Serif" font-size="10.00">/alps_common_lib/include</text>
<text text-anchor="middle" x="826" y="-100.5" font-family="Helvetica,sans-Serif" font-size="10.00">/alps_cmn/sound/piezo_buzzer.hpp</text>
</a>
</g>
</g>
<!-- Node1&#45;&gt;Node7 -->
<g id="edge6_Node000001_Node000007" class="edge">
<title>Node1&#45;&gt;Node7</title>
<g id="a_edge6_Node000001_Node000007"><a xlink:title=" ">
<path fill="none" stroke="#63b8ff" d="M623.08,-173.13C665.38,-161.02 717.14,-146.19 757.8,-134.54"/>
<polygon fill="#63b8ff" stroke="#63b8ff" points="622.03,-169.79 613.38,-175.91 623.96,-176.52 622.03,-169.79"/>
</a>
</g>
</g>
<!-- Node9 -->
<g id="Node000009" class="node">
<title>Node9</title>
<g id="a_Node000009"><a xlink:href="motor__friction__analyzer_8hpp.html" target="_top" xlink:title="モーター軸の摩擦力を計測するクラス">
<polygon fill="white" stroke="#666666" points="1097,-140 937,-140 937,-88 1097,-88 1097,-140"/>
<text text-anchor="start" x="945" y="-128" font-family="Helvetica,sans-Serif" font-size="10.00">alps_core/lib_internal</text>
<text text-anchor="start" x="945" y="-117" font-family="Helvetica,sans-Serif" font-size="10.00">/alps_common_lib/include</text>
<text text-anchor="start" x="945" y="-106" font-family="Helvetica,sans-Serif" font-size="10.00">/alps_cmn/tool/motor_friction</text>
<text text-anchor="middle" x="1017" y="-95" font-family="Helvetica,sans-Serif" font-size="10.00">_analyzer.hpp</text>
</a>
</g>
</g>
<!-- Node1&#45;&gt;Node9 -->
<g id="edge8_Node000001_Node000009" class="edge">
<title>Node1&#45;&gt;Node9</title>
<g id="a_edge8_Node000001_Node000009"><a xlink:title=" ">
<path fill="none" stroke="#63b8ff" d="M627.02,-186.74C704.94,-177.69 825.15,-161.8 928,-140 930.83,-139.4 933.69,-138.76 936.59,-138.09"/>
<polygon fill="#63b8ff" stroke="#63b8ff" points="626.32,-183.3 616.78,-187.92 627.12,-190.25 626.32,-183.3"/>
</a>
</g>
</g>
<!-- Node3 -->
<g id="Node000003" class="node">
<title>Node3</title>
<g id="a_Node000003"><a xlink:href="alps__mbed__lib_2include_2alps__mbed_2display_2ssd1306_8hpp.html" target="_top" xlink:title="SSD1306 OLEDディスプレイ（mbed）">
<polygon fill="white" stroke="#666666" points="176,-46.5 0,-46.5 0,-5.5 176,-5.5 176,-46.5"/>
<text text-anchor="start" x="8" y="-34.5" font-family="Helvetica,sans-Serif" font-size="10.00">alps_core/lib_internal</text>
<text text-anchor="start" x="8" y="-23.5" font-family="Helvetica,sans-Serif" font-size="10.00">/alps_mbed_lib/include</text>
<text text-anchor="middle" x="88" y="-12.5" font-family="Helvetica,sans-Serif" font-size="10.00">/alps_mbed/display/ssd1306.hpp</text>
</a>
</g>
</g>
<!-- Node2&#45;&gt;Node3 -->
<g id="edge2_Node000002_Node000003" class="edge">
<title>Node2&#45;&gt;Node3</title>
<g id="a_edge2_Node000002_Node000003"><a xlink:title=" ">
<path fill="none" stroke="#63b8ff" d="M88,-83.36C88,-71.26 88,-57.58 88,-46.74"/>
<polygon fill="#63b8ff" stroke="#63b8ff" points="84.5,-83.49 88,-93.49 91.5,-83.49 84.5,-83.49"/>
</a>
</g>
</g>
<!-- Node8 -->
<g id="Node000008" class="node">
<title>Node8</title>
<g id="a_Node000008"><a xlink:href="alps__mbed__lib_2include_2alps__mbed_2sound_2piezo__buzzer_8hpp.html" target="_top" xlink:title="圧電ブザー 鳴動用ライブラリ（mbed）">
<polygon fill="white" stroke="#666666" points="893,-52 759,-52 759,0 893,0 893,-52"/>
<text text-anchor="start" x="767" y="-40" font-family="Helvetica,sans-Serif" font-size="10.00">alps_core/lib_internal</text>
<text text-anchor="start" x="767" y="-29" font-family="Helvetica,sans-Serif" font-size="10.00">/alps_mbed_lib/include</text>
<text text-anchor="start" x="767" y="-18" font-family="Helvetica,sans-Serif" font-size="10.00">/alps_mbed/sound/piezo</text>
<text text-anchor="middle" x="826" y="-7" font-family="Helvetica,sans-Serif" font-size="10.00">_buzzer.hpp</text>
</a>
</g>
</g>
<!-- Node7&#45;&gt;Node8 -->
<g id="edge7_Node000007_Node000008" class="edge">
<title>Node7&#45;&gt;Node8</title>
<g id="a_edge7_Node000007_Node000008"><a xlink:title=" ">
<path fill="none" stroke="#63b8ff" d="M826,-83.44C826,-73.31 826,-62.08 826,-52.32"/>
<polygon fill="#63b8ff" stroke="#63b8ff" points="822.5,-83.49 826,-93.49 829.5,-83.49 822.5,-83.49"/>
</a>
</g>
</g>
</g>
</svg>
