<?xml version="1.0" encoding="UTF-8" standalone="no"?>
<!DOCTYPE svg PUBLIC "-//W3C//DTD SVG 1.1//EN"
 "http://www.w3.org/Graphics/SVG/1.1/DTD/svg11.dtd">
<!-- Generated by graphviz version 2.43.0 (0)
 -->
<!-- Title: alps_core/lib_internal/alps_common_lib/include/alps_cmn/time/sleep.hpp Pages: 1 -->
<svg width="348pt" height="139pt"
 viewBox="0.00 0.00 347.50 139.00" xmlns="http://www.w3.org/2000/svg" xmlns:xlink="http://www.w3.org/1999/xlink">
<g id="graph0" class="graph" transform="scale(1 1) rotate(0) translate(4 135)">
<title>alps_core/lib_internal/alps_common_lib/include/alps_cmn/time/sleep.hpp</title>
<polygon fill="white" stroke="transparent" points="-4,4 -4,-135 343.5,-135 343.5,4 -4,4"/>
<!-- Node1 -->
<g id="node1" class="node">
<title>Node1</title>
<g id="a_node1"><a xlink:title="スリープ関数の定義">
<polygon fill="#bfbfbf" stroke="black" points="98,-89.5 98,-130.5 241,-130.5 241,-89.5 98,-89.5"/>
<text text-anchor="start" x="106" y="-118.5" font-family="Helvetica,sans-Serif" font-size="10.00">alps_core/lib_internal</text>
<text text-anchor="start" x="106" y="-107.5" font-family="Helvetica,sans-Serif" font-size="10.00">/alps_common_lib/include</text>
<text text-anchor="middle" x="169.5" y="-96.5" font-family="Helvetica,sans-Serif" font-size="10.00">/alps_cmn/time/sleep.hpp</text>
</a>
</g>
</g>
<!-- Node2 -->
<g id="node2" class="node">
<title>Node2</title>
<g id="a_node2"><a xlink:href="bno055_8hpp.html" target="_top" xlink:title="BNO055 9軸センサ">
<polygon fill="white" stroke="black" points="0,-6 0,-47 161,-47 161,-6 0,-6"/>
<text text-anchor="start" x="8" y="-35" font-family="Helvetica,sans-Serif" font-size="10.00">alps_core/lib_internal</text>
<text text-anchor="start" x="8" y="-24" font-family="Helvetica,sans-Serif" font-size="10.00">/alps_common_lib/include</text>
<text text-anchor="middle" x="80.5" y="-13" font-family="Helvetica,sans-Serif" font-size="10.00">/alps_cmn/sensor/bno055.hpp</text>
</a>
</g>
</g>
<!-- Node1&#45;&gt;Node2 -->
<g id="edge1" class="edge">
<title>Node1&#45;&gt;Node2</title>
<path fill="none" stroke="midnightblue" d="M140.41,-82.36C127.84,-70.85 113.4,-57.63 101.85,-47.05"/>
<polygon fill="midnightblue" stroke="midnightblue" points="138.22,-85.1 147.96,-89.27 142.94,-79.94 138.22,-85.1"/>
</g>
<!-- Node3 -->
<g id="node3" class="node">
<title>Node3</title>
<g id="a_node3"><a xlink:href="motor__friction__analyzer_8hpp.html" target="_top" xlink:title="モーター軸の摩擦力を計測するクラス">
<polygon fill="white" stroke="black" points="179.5,-0.5 179.5,-52.5 339.5,-52.5 339.5,-0.5 179.5,-0.5"/>
<text text-anchor="start" x="187.5" y="-40.5" font-family="Helvetica,sans-Serif" font-size="10.00">alps_core/lib_internal</text>
<text text-anchor="start" x="187.5" y="-29.5" font-family="Helvetica,sans-Serif" font-size="10.00">/alps_common_lib/include</text>
<text text-anchor="start" x="187.5" y="-18.5" font-family="Helvetica,sans-Serif" font-size="10.00">/alps_cmn/tool/motor_friction</text>
<text text-anchor="middle" x="259.5" y="-7.5" font-family="Helvetica,sans-Serif" font-size="10.00">_analyzer.hpp</text>
</a>
</g>
</g>
<!-- Node1&#45;&gt;Node3 -->
<g id="edge2" class="edge">
<title>Node1&#45;&gt;Node3</title>
<path fill="none" stroke="midnightblue" d="M198.74,-82.52C209.35,-72.92 221.3,-62.09 231.77,-52.61"/>
<polygon fill="midnightblue" stroke="midnightblue" points="196.35,-79.96 191.29,-89.27 201.05,-85.15 196.35,-79.96"/>
</g>
</g>
</svg>
