<?xml version="1.0" encoding="UTF-8" standalone="no"?>
<!DOCTYPE svg PUBLIC "-//W3C//DTD SVG 1.1//EN"
 "http://www.w3.org/Graphics/SVG/1.1/DTD/svg11.dtd">
<!-- Generated by graphviz version 2.43.0 (0)
 -->
<!-- Title: alps_linux_lib/include/alps_lin/communication/socket_can_io.hpp Pages: 1 -->
<svg width="336pt" height="236pt"
 viewBox="0.00 0.00 336.00 236.00" xmlns="http://www.w3.org/2000/svg" xmlns:xlink="http://www.w3.org/1999/xlink">
<g id="graph0" class="graph" transform="scale(1 1) rotate(0) translate(4 232)">
<title>alps_linux_lib/include/alps_lin/communication/socket_can_io.hpp</title>
<!-- Node1 -->
<g id="node1" class="node">
<title>Node1</title>
<g id="a_node1"><a xlink:title=" ">
<polygon fill="#999999" stroke="#666666" points="193,-228 57,-228 57,-187 193,-187 193,-228"/>
<text text-anchor="start" x="65" y="-216" font-family="Helvetica,sans-Serif" font-size="10.00">alps_linux_lib/include</text>
<text text-anchor="start" x="65" y="-205" font-family="Helvetica,sans-Serif" font-size="10.00">/alps_lin/communication</text>
<text text-anchor="middle" x="125" y="-194" font-family="Helvetica,sans-Serif" font-size="10.00">/socket_can_io.hpp</text>
</a>
</g>
</g>
<!-- Node2 -->
<g id="node2" class="node">
<title>Node2</title>
<g id="a_node2"><a xlink:title=" ">
<polygon fill="#e0e0e0" stroke="#999999" points="70,-145.5 0,-145.5 0,-126.5 70,-126.5 70,-145.5"/>
<text text-anchor="middle" x="35" y="-133.5" font-family="Helvetica,sans-Serif" font-size="10.00">linux/can.h</text>
</a>
</g>
</g>
<!-- Node1&#45;&gt;Node2 -->
<g id="edge1" class="edge">
<title>Node1&#45;&gt;Node2</title>
<path fill="none" stroke="#63b8ff" d="M99.45,-186.77C85.13,-175.71 67.55,-162.13 54.37,-151.96"/>
<polygon fill="#63b8ff" stroke="#63b8ff" points="56.48,-149.16 46.42,-145.82 52.2,-154.7 56.48,-149.16"/>
</g>
<!-- Node3 -->
<g id="node3" class="node">
<title>Node3</title>
<g id="a_node3"><a xlink:title=" ">
<polygon fill="#e0e0e0" stroke="#999999" points="162,-145.5 88,-145.5 88,-126.5 162,-126.5 162,-145.5"/>
<text text-anchor="middle" x="125" y="-133.5" font-family="Helvetica,sans-Serif" font-size="10.00">sys/select.h</text>
</a>
</g>
</g>
<!-- Node1&#45;&gt;Node3 -->
<g id="edge2" class="edge">
<title>Node1&#45;&gt;Node3</title>
<path fill="none" stroke="#63b8ff" d="M125,-186.77C125,-177.08 125,-165.46 125,-155.88"/>
<polygon fill="#63b8ff" stroke="#63b8ff" points="128.5,-155.82 125,-145.82 121.5,-155.82 128.5,-155.82"/>
</g>
<!-- Node4 -->
<g id="node4" class="node">
<title>Node4</title>
<g id="a_node4"><a xlink:href="i__can__io_8hpp.html" target="_top" xlink:title=" ">
<polygon fill="white" stroke="#666666" points="322,-151 180,-151 180,-121 322,-121 322,-151"/>
<text text-anchor="start" x="188" y="-139" font-family="Helvetica,sans-Serif" font-size="10.00">alps_cmn/communication</text>
<text text-anchor="middle" x="251" y="-128" font-family="Helvetica,sans-Serif" font-size="10.00">/i_can_io.hpp</text>
</a>
</g>
</g>
<!-- Node1&#45;&gt;Node4 -->
<g id="edge3" class="edge">
<title>Node1&#45;&gt;Node4</title>
<path fill="none" stroke="#63b8ff" d="M160.43,-186.96C177.88,-177.33 198.83,-165.78 216.19,-156.2"/>
<polygon fill="#63b8ff" stroke="#63b8ff" points="218.35,-159.01 225.41,-151.11 214.97,-152.88 218.35,-159.01"/>
</g>
<!-- Node5 -->
<g id="node5" class="node">
<title>Node5</title>
<g id="a_node5"><a xlink:href="can__data__frame_8hpp.html" target="_top" xlink:title="CANフレームを表す構造体">
<polygon fill="white" stroke="#666666" points="322,-85 180,-85 180,-55 322,-55 322,-85"/>
<text text-anchor="start" x="188" y="-73" font-family="Helvetica,sans-Serif" font-size="10.00">alps_cmn/communication</text>
<text text-anchor="middle" x="251" y="-62" font-family="Helvetica,sans-Serif" font-size="10.00">/can_data_frame.hpp</text>
</a>
</g>
</g>
<!-- Node4&#45;&gt;Node5 -->
<g id="edge4" class="edge">
<title>Node4&#45;&gt;Node5</title>
<path fill="none" stroke="#63b8ff" d="M251,-120.8C251,-113.34 251,-103.99 251,-95.41"/>
<polygon fill="#63b8ff" stroke="#63b8ff" points="254.5,-95.16 251,-85.16 247.5,-95.16 254.5,-95.16"/>
</g>
<!-- Node6 -->
<g id="node6" class="node">
<title>Node6</title>
<g id="a_node6"><a xlink:title=" ">
<polygon fill="#e0e0e0" stroke="#999999" points="237.5,-19 184.5,-19 184.5,0 237.5,0 237.5,-19"/>
<text text-anchor="middle" x="211" y="-7" font-family="Helvetica,sans-Serif" font-size="10.00">stdint.h</text>
</a>
</g>
</g>
<!-- Node5&#45;&gt;Node6 -->
<g id="edge5" class="edge">
<title>Node5&#45;&gt;Node6</title>
<path fill="none" stroke="#63b8ff" d="M241.32,-54.84C235.75,-46.69 228.71,-36.4 222.82,-27.78"/>
<polygon fill="#63b8ff" stroke="#63b8ff" points="225.53,-25.55 216.99,-19.27 219.75,-29.5 225.53,-25.55"/>
</g>
<!-- Node7 -->
<g id="node7" class="node">
<title>Node7</title>
<g id="a_node7"><a xlink:title=" ">
<polygon fill="#e0e0e0" stroke="#999999" points="328,-19 256,-19 256,0 328,0 328,-19"/>
<text text-anchor="middle" x="292" y="-7" font-family="Helvetica,sans-Serif" font-size="10.00">etl/vector.h</text>
</a>
</g>
</g>
<!-- Node5&#45;&gt;Node7 -->
<g id="edge6" class="edge">
<title>Node5&#45;&gt;Node7</title>
<path fill="none" stroke="#63b8ff" d="M260.92,-54.84C266.69,-46.61 274,-36.18 280.08,-27.51"/>
<polygon fill="#63b8ff" stroke="#63b8ff" points="282.98,-29.46 285.86,-19.27 277.25,-25.45 282.98,-29.46"/>
</g>
</g>
</svg>
