<?xml version="1.0" encoding="UTF-8" standalone="no"?>
<!DOCTYPE svg PUBLIC "-//W3C//DTD SVG 1.1//EN"
 "http://www.w3.org/Graphics/SVG/1.1/DTD/svg11.dtd">
<!-- Generated by graphviz version 2.43.0 (0)
 -->
<!-- Title: alps_core/lib_internal/alps_linux_lib/include/alps_lin/communication/socket_can_io.hpp Pages: 1 -->
<svg width="540pt" height="251pt"
 viewBox="0.00 0.00 540.00 251.00" xmlns="http://www.w3.org/2000/svg" xmlns:xlink="http://www.w3.org/1999/xlink">
<g id="graph0" class="graph" transform="scale(1 1) rotate(0) translate(4 247)">
<title>alps_core/lib_internal/alps_linux_lib/include/alps_lin/communication/socket_can_io.hpp</title>
<polygon fill="white" stroke="transparent" points="-4,4 -4,-247 536,-247 536,4 -4,4"/>
<!-- Node1 -->
<g id="node1" class="node">
<title>Node1</title>
<g id="a_node1"><a xlink:title=" ">
<polygon fill="#bfbfbf" stroke="black" points="134,-190.5 134,-242.5 270,-242.5 270,-190.5 134,-190.5"/>
<text text-anchor="start" x="142" y="-230.5" font-family="Helvetica,sans-Serif" font-size="10.00">alps_core/lib_internal</text>
<text text-anchor="start" x="142" y="-219.5" font-family="Helvetica,sans-Serif" font-size="10.00">/alps_linux_lib/include</text>
<text text-anchor="start" x="142" y="-208.5" font-family="Helvetica,sans-Serif" font-size="10.00">/alps_lin/communication</text>
<text text-anchor="middle" x="202" y="-197.5" font-family="Helvetica,sans-Serif" font-size="10.00">/socket_can_io.hpp</text>
</a>
</g>
</g>
<!-- Node2 -->
<g id="node2" class="node">
<title>Node2</title>
<g id="a_node2"><a xlink:title=" ">
<polygon fill="white" stroke="#bfbfbf" points="0,-129 0,-148 70,-148 70,-129 0,-129"/>
<text text-anchor="middle" x="35" y="-136" font-family="Helvetica,sans-Serif" font-size="10.00">linux/can.h</text>
</a>
</g>
</g>
<!-- Node1&#45;&gt;Node2 -->
<g id="edge1" class="edge">
<title>Node1&#45;&gt;Node2</title>
<path fill="none" stroke="midnightblue" d="M146.86,-190.4C118.76,-177.62 85.8,-162.62 62.97,-152.23"/>
<polygon fill="midnightblue" stroke="midnightblue" points="64.4,-149.03 53.85,-148.08 61.5,-155.41 64.4,-149.03"/>
</g>
<!-- Node3 -->
<g id="node3" class="node">
<title>Node3</title>
<g id="a_node3"><a xlink:title=" ">
<polygon fill="white" stroke="#bfbfbf" points="88,-129 88,-148 162,-148 162,-129 88,-129"/>
<text text-anchor="middle" x="125" y="-136" font-family="Helvetica,sans-Serif" font-size="10.00">sys/select.h</text>
</a>
</g>
</g>
<!-- Node1&#45;&gt;Node3 -->
<g id="edge2" class="edge">
<title>Node1&#45;&gt;Node3</title>
<path fill="none" stroke="midnightblue" d="M176.36,-190.19C164.76,-178.74 151.4,-165.56 141.22,-155.51"/>
<polygon fill="midnightblue" stroke="midnightblue" points="143.4,-152.74 133.82,-148.21 138.48,-157.72 143.4,-152.74"/>
</g>
<!-- Node4 -->
<g id="node4" class="node">
<title>Node4</title>
<g id="a_node4"><a xlink:title=" ">
<polygon fill="white" stroke="#bfbfbf" points="180,-129 180,-148 224,-148 224,-129 180,-129"/>
<text text-anchor="middle" x="202" y="-136" font-family="Helvetica,sans-Serif" font-size="10.00">string</text>
</a>
</g>
</g>
<!-- Node1&#45;&gt;Node4 -->
<g id="edge3" class="edge">
<title>Node1&#45;&gt;Node4</title>
<path fill="none" stroke="midnightblue" d="M202,-190.19C202,-179.76 202,-167.9 202,-158.27"/>
<polygon fill="midnightblue" stroke="midnightblue" points="205.5,-158.21 202,-148.21 198.5,-158.21 205.5,-158.21"/>
</g>
<!-- Node5 -->
<g id="node5" class="node">
<title>Node5</title>
<g id="a_node5"><a xlink:href="i__can__io_8hpp.html" target="_top" xlink:title=" ">
<polygon fill="white" stroke="black" points="242,-123.5 242,-153.5 384,-153.5 384,-123.5 242,-123.5"/>
<text text-anchor="start" x="250" y="-141.5" font-family="Helvetica,sans-Serif" font-size="10.00">alps_cmn/communication</text>
<text text-anchor="middle" x="313" y="-130.5" font-family="Helvetica,sans-Serif" font-size="10.00">/i_can_io.hpp</text>
</a>
</g>
</g>
<!-- Node1&#45;&gt;Node5 -->
<g id="edge4" class="edge">
<title>Node1&#45;&gt;Node5</title>
<path fill="none" stroke="midnightblue" d="M238.65,-190.4C253.26,-180.4 269.85,-169.05 283.64,-159.6"/>
<polygon fill="midnightblue" stroke="midnightblue" points="285.98,-162.24 292.25,-153.71 282.02,-156.47 285.98,-162.24"/>
</g>
<!-- Node9 -->
<g id="node9" class="node">
<title>Node9</title>
<g id="a_node9"><a xlink:href="timeout__checker_8hpp.html" target="_top" xlink:title="タイムアウトを検知するクラス">
<polygon fill="white" stroke="black" points="402,-123.5 402,-153.5 532,-153.5 532,-123.5 402,-123.5"/>
<text text-anchor="start" x="410" y="-141.5" font-family="Helvetica,sans-Serif" font-size="10.00">alps_cmn/time/timeout</text>
<text text-anchor="middle" x="467" y="-130.5" font-family="Helvetica,sans-Serif" font-size="10.00">_checker.hpp</text>
</a>
</g>
</g>
<!-- Node1&#45;&gt;Node9 -->
<g id="edge8" class="edge">
<title>Node1&#45;&gt;Node9</title>
<path fill="none" stroke="midnightblue" d="M270.24,-195.93C312.89,-183.7 367.25,-168.11 408.02,-156.42"/>
<polygon fill="midnightblue" stroke="midnightblue" points="409.17,-159.73 417.81,-153.61 407.24,-153 409.17,-159.73"/>
</g>
<!-- Node6 -->
<g id="node6" class="node">
<title>Node6</title>
<g id="a_node6"><a xlink:href="can__data__frame_8hpp.html" target="_top" xlink:title="CANフレームを表す構造体">
<polygon fill="white" stroke="black" points="242,-56.5 242,-86.5 384,-86.5 384,-56.5 242,-56.5"/>
<text text-anchor="start" x="250" y="-74.5" font-family="Helvetica,sans-Serif" font-size="10.00">alps_cmn/communication</text>
<text text-anchor="middle" x="313" y="-63.5" font-family="Helvetica,sans-Serif" font-size="10.00">/can_data_frame.hpp</text>
</a>
</g>
</g>
<!-- Node5&#45;&gt;Node6 -->
<g id="edge5" class="edge">
<title>Node5&#45;&gt;Node6</title>
<path fill="none" stroke="midnightblue" d="M313,-123.4C313,-115.64 313,-105.81 313,-96.86"/>
<polygon fill="midnightblue" stroke="midnightblue" points="316.5,-96.58 313,-86.58 309.5,-96.58 316.5,-96.58"/>
</g>
<!-- Node7 -->
<g id="node7" class="node">
<title>Node7</title>
<g id="a_node7"><a xlink:title=" ">
<polygon fill="white" stroke="#bfbfbf" points="246.5,-0.5 246.5,-19.5 299.5,-19.5 299.5,-0.5 246.5,-0.5"/>
<text text-anchor="middle" x="273" y="-7.5" font-family="Helvetica,sans-Serif" font-size="10.00">stdint.h</text>
</a>
</g>
</g>
<!-- Node6&#45;&gt;Node7 -->
<g id="edge6" class="edge">
<title>Node6&#45;&gt;Node7</title>
<path fill="none" stroke="midnightblue" d="M303.52,-56.4C297.83,-47.93 290.55,-37.1 284.52,-28.14"/>
<polygon fill="midnightblue" stroke="midnightblue" points="287.3,-26 278.82,-19.66 281.49,-29.91 287.3,-26"/>
</g>
<!-- Node8 -->
<g id="node8" class="node">
<title>Node8</title>
<g id="a_node8"><a xlink:title=" ">
<polygon fill="white" stroke="#bfbfbf" points="317.5,-0.5 317.5,-19.5 388.5,-19.5 388.5,-0.5 317.5,-0.5"/>
<text text-anchor="middle" x="353" y="-7.5" font-family="Helvetica,sans-Serif" font-size="10.00">etl/vector.h</text>
</a>
</g>
</g>
<!-- Node6&#45;&gt;Node8 -->
<g id="edge7" class="edge">
<title>Node6&#45;&gt;Node8</title>
<path fill="none" stroke="midnightblue" d="M322.48,-56.4C328.17,-47.93 335.45,-37.1 341.48,-28.14"/>
<polygon fill="midnightblue" stroke="midnightblue" points="344.51,-29.91 347.18,-19.66 338.7,-26 344.51,-29.91"/>
</g>
<!-- Node10 -->
<g id="node10" class="node">
<title>Node10</title>
<g id="a_node10"><a xlink:title=" ">
<polygon fill="white" stroke="#bfbfbf" points="442,-62 442,-81 492,-81 492,-62 442,-62"/>
<text text-anchor="middle" x="467" y="-69" font-family="Helvetica,sans-Serif" font-size="10.00">chrono</text>
</a>
</g>
</g>
<!-- Node9&#45;&gt;Node10 -->
<g id="edge9" class="edge">
<title>Node9&#45;&gt;Node10</title>
<path fill="none" stroke="midnightblue" d="M467,-123.4C467,-114.06 467,-101.71 467,-91.52"/>
<polygon fill="midnightblue" stroke="midnightblue" points="470.5,-91.19 467,-81.19 463.5,-91.19 470.5,-91.19"/>
</g>
</g>
</svg>
