<?xml version="1.0" encoding="UTF-8" standalone="no"?>
<!DOCTYPE svg PUBLIC "-//W3C//DTD SVG 1.1//EN"
 "http://www.w3.org/Graphics/SVG/1.1/DTD/svg11.dtd">
<!-- Generated by graphviz version 2.43.0 (0)
 -->
<!-- Title: alps_linux_lib/include/alps_lin/communication/socket_can_io.hpp Pages: 1 -->
<svg width="540pt" height="236pt"
 viewBox="0.00 0.00 540.00 236.00" xmlns="http://www.w3.org/2000/svg" xmlns:xlink="http://www.w3.org/1999/xlink">
<g id="graph0" class="graph" transform="scale(1 1) rotate(0) translate(4 232)">
<title>alps_linux_lib/include/alps_lin/communication/socket_can_io.hpp</title>
<!-- Node1 -->
<g id="node1" class="node">
<title>Node1</title>
<g id="a_node1"><a xlink:title=" ">
<polygon fill="#999999" stroke="#666666" points="270,-228 134,-228 134,-187 270,-187 270,-228"/>
<text text-anchor="start" x="142" y="-216" font-family="Helvetica,sans-Serif" font-size="10.00">alps_linux_lib/include</text>
<text text-anchor="start" x="142" y="-205" font-family="Helvetica,sans-Serif" font-size="10.00">/alps_lin/communication</text>
<text text-anchor="middle" x="202" y="-194" font-family="Helvetica,sans-Serif" font-size="10.00">/socket_can_io.hpp</text>
</a>
</g>
</g>
<!-- Node2 -->
<g id="node2" class="node">
<title>Node2</title>
<g id="a_node2"><a xlink:title=" ">
<polygon fill="#e0e0e0" stroke="#999999" points="70,-145.5 0,-145.5 0,-126.5 70,-126.5 70,-145.5"/>
<text text-anchor="middle" x="35" y="-133.5" font-family="Helvetica,sans-Serif" font-size="10.00">linux/can.h</text>
</a>
</g>
</g>
<!-- Node1&#45;&gt;Node2 -->
<g id="edge1" class="edge">
<title>Node1&#45;&gt;Node2</title>
<path fill="none" stroke="#63b8ff" d="M155.04,-186.96C126.08,-174.9 89.82,-159.81 64.77,-149.39"/>
<polygon fill="#63b8ff" stroke="#63b8ff" points="66.01,-146.11 55.43,-145.5 63.32,-152.58 66.01,-146.11"/>
</g>
<!-- Node3 -->
<g id="node3" class="node">
<title>Node3</title>
<g id="a_node3"><a xlink:title=" ">
<polygon fill="#e0e0e0" stroke="#999999" points="162,-145.5 88,-145.5 88,-126.5 162,-126.5 162,-145.5"/>
<text text-anchor="middle" x="125" y="-133.5" font-family="Helvetica,sans-Serif" font-size="10.00">sys/select.h</text>
</a>
</g>
</g>
<!-- Node1&#45;&gt;Node3 -->
<g id="edge2" class="edge">
<title>Node1&#45;&gt;Node3</title>
<path fill="none" stroke="#63b8ff" d="M180.14,-186.77C168.12,-175.92 153.42,-162.65 142.22,-152.54"/>
<polygon fill="#63b8ff" stroke="#63b8ff" points="144.54,-149.92 134.77,-145.82 139.85,-155.12 144.54,-149.92"/>
</g>
<!-- Node4 -->
<g id="node4" class="node">
<title>Node4</title>
<g id="a_node4"><a xlink:title=" ">
<polygon fill="#e0e0e0" stroke="#999999" points="224,-145.5 180,-145.5 180,-126.5 224,-126.5 224,-145.5"/>
<text text-anchor="middle" x="202" y="-133.5" font-family="Helvetica,sans-Serif" font-size="10.00">string</text>
</a>
</g>
</g>
<!-- Node1&#45;&gt;Node4 -->
<g id="edge3" class="edge">
<title>Node1&#45;&gt;Node4</title>
<path fill="none" stroke="#63b8ff" d="M202,-186.77C202,-177.08 202,-165.46 202,-155.88"/>
<polygon fill="#63b8ff" stroke="#63b8ff" points="205.5,-155.82 202,-145.82 198.5,-155.82 205.5,-155.82"/>
</g>
<!-- Node5 -->
<g id="node5" class="node">
<title>Node5</title>
<g id="a_node5"><a xlink:href="i__can__io_8hpp.html" target="_top" xlink:title=" ">
<polygon fill="white" stroke="#666666" points="384,-151 242,-151 242,-121 384,-121 384,-151"/>
<text text-anchor="start" x="250" y="-139" font-family="Helvetica,sans-Serif" font-size="10.00">alps_cmn/communication</text>
<text text-anchor="middle" x="313" y="-128" font-family="Helvetica,sans-Serif" font-size="10.00">/i_can_io.hpp</text>
</a>
</g>
</g>
<!-- Node1&#45;&gt;Node5 -->
<g id="edge4" class="edge">
<title>Node1&#45;&gt;Node5</title>
<path fill="none" stroke="#63b8ff" d="M233.22,-186.96C248.44,-177.42 266.7,-165.99 281.91,-156.47"/>
<polygon fill="#63b8ff" stroke="#63b8ff" points="283.84,-159.39 290.46,-151.11 280.13,-153.45 283.84,-159.39"/>
</g>
<!-- Node9 -->
<g id="node9" class="node">
<title>Node9</title>
<g id="a_node9"><a xlink:href="timeout__checker_8hpp.html" target="_top" xlink:title="タイムアウトを検知するクラス">
<polygon fill="white" stroke="#666666" points="532,-151 402,-151 402,-121 532,-121 532,-151"/>
<text text-anchor="start" x="410" y="-139" font-family="Helvetica,sans-Serif" font-size="10.00">alps_cmn/time/timeout</text>
<text text-anchor="middle" x="467" y="-128" font-family="Helvetica,sans-Serif" font-size="10.00">_checker.hpp</text>
</a>
</g>
</g>
<!-- Node1&#45;&gt;Node9 -->
<g id="edge8" class="edge">
<title>Node1&#45;&gt;Node9</title>
<path fill="none" stroke="#63b8ff" d="M270.24,-188.6C311.47,-177.79 363.65,-164.11 403.91,-153.55"/>
<polygon fill="#63b8ff" stroke="#63b8ff" points="404.83,-156.92 413.61,-151 403.05,-150.15 404.83,-156.92"/>
</g>
<!-- Node6 -->
<g id="node6" class="node">
<title>Node6</title>
<g id="a_node6"><a xlink:href="can__data__frame_8hpp.html" target="_top" xlink:title="CANフレームを表す構造体">
<polygon fill="white" stroke="#666666" points="384,-85 242,-85 242,-55 384,-55 384,-85"/>
<text text-anchor="start" x="250" y="-73" font-family="Helvetica,sans-Serif" font-size="10.00">alps_cmn/communication</text>
<text text-anchor="middle" x="313" y="-62" font-family="Helvetica,sans-Serif" font-size="10.00">/can_data_frame.hpp</text>
</a>
</g>
</g>
<!-- Node5&#45;&gt;Node6 -->
<g id="edge5" class="edge">
<title>Node5&#45;&gt;Node6</title>
<path fill="none" stroke="#63b8ff" d="M313,-120.8C313,-113.34 313,-103.99 313,-95.41"/>
<polygon fill="#63b8ff" stroke="#63b8ff" points="316.5,-95.16 313,-85.16 309.5,-95.16 316.5,-95.16"/>
</g>
<!-- Node7 -->
<g id="node7" class="node">
<title>Node7</title>
<g id="a_node7"><a xlink:title=" ">
<polygon fill="#e0e0e0" stroke="#999999" points="299.5,-19 246.5,-19 246.5,0 299.5,0 299.5,-19"/>
<text text-anchor="middle" x="273" y="-7" font-family="Helvetica,sans-Serif" font-size="10.00">stdint.h</text>
</a>
</g>
</g>
<!-- Node6&#45;&gt;Node7 -->
<g id="edge6" class="edge">
<title>Node6&#45;&gt;Node7</title>
<path fill="none" stroke="#63b8ff" d="M303.32,-54.84C297.75,-46.69 290.71,-36.4 284.82,-27.78"/>
<polygon fill="#63b8ff" stroke="#63b8ff" points="287.53,-25.55 278.99,-19.27 281.75,-29.5 287.53,-25.55"/>
</g>
<!-- Node8 -->
<g id="node8" class="node">
<title>Node8</title>
<g id="a_node8"><a xlink:title=" ">
<polygon fill="#e0e0e0" stroke="#999999" points="390,-19 318,-19 318,0 390,0 390,-19"/>
<text text-anchor="middle" x="354" y="-7" font-family="Helvetica,sans-Serif" font-size="10.00">etl/vector.h</text>
</a>
</g>
</g>
<!-- Node6&#45;&gt;Node8 -->
<g id="edge7" class="edge">
<title>Node6&#45;&gt;Node8</title>
<path fill="none" stroke="#63b8ff" d="M322.92,-54.84C328.69,-46.61 336,-36.18 342.08,-27.51"/>
<polygon fill="#63b8ff" stroke="#63b8ff" points="344.98,-29.46 347.86,-19.27 339.25,-25.45 344.98,-29.46"/>
</g>
<!-- Node10 -->
<g id="node10" class="node">
<title>Node10</title>
<g id="a_node10"><a xlink:title=" ">
<polygon fill="#e0e0e0" stroke="#999999" points="492,-79.5 442,-79.5 442,-60.5 492,-60.5 492,-79.5"/>
<text text-anchor="middle" x="467" y="-67.5" font-family="Helvetica,sans-Serif" font-size="10.00">chrono</text>
</a>
</g>
</g>
<!-- Node9&#45;&gt;Node10 -->
<g id="edge9" class="edge">
<title>Node9&#45;&gt;Node10</title>
<path fill="none" stroke="#63b8ff" d="M467,-120.8C467,-111.7 467,-99.79 467,-89.9"/>
<polygon fill="#63b8ff" stroke="#63b8ff" points="470.5,-89.84 467,-79.84 463.5,-89.84 470.5,-89.84"/>
</g>
</g>
</svg>
