<?xml version="1.0" encoding="UTF-8" standalone="no"?>
<!DOCTYPE svg PUBLIC "-//W3C//DTD SVG 1.1//EN"
 "http://www.w3.org/Graphics/SVG/1.1/DTD/svg11.dtd">
<!-- Generated by graphviz version 2.43.0 (0)
 -->
<!-- Title: alps_core/lib_internal/alps_common_lib/include/alps_cmn/display/ssd1306.hpp Pages: 1 -->
<svg width="928pt" height="170pt"
 viewBox="0.00 0.00 927.50 170.00" xmlns="http://www.w3.org/2000/svg" xmlns:xlink="http://www.w3.org/1999/xlink">
<g id="graph0" class="graph" transform="scale(1 1) rotate(0) translate(4 166)">
<title>alps_core/lib_internal/alps_common_lib/include/alps_cmn/display/ssd1306.hpp</title>
<!-- Node1 -->
<g id="Node000001" class="node">
<title>Node1</title>
<g id="a_Node000001"><a xlink:title="SSD1306 OLEDディスプレイ">
<polygon fill="#999999" stroke="#666666" points="476.5,-162 307.5,-162 307.5,-121 476.5,-121 476.5,-162"/>
<text text-anchor="start" x="315.5" y="-150" font-family="Helvetica,sans-Serif" font-size="10.00">alps_core/lib_internal</text>
<text text-anchor="start" x="315.5" y="-139" font-family="Helvetica,sans-Serif" font-size="10.00">/alps_common_lib/include</text>
<text text-anchor="middle" x="392" y="-128" font-family="Helvetica,sans-Serif" font-size="10.00">/alps_cmn/display/ssd1306.hpp</text>
</a>
</g>
</g>
<!-- Node2 -->
<g id="Node000002" class="node">
<title>Node2</title>
<g id="a_Node000002"><a xlink:title=" ">
<polygon fill="#e0e0e0" stroke="#999999" points="64,-79.5 0,-79.5 0,-60.5 64,-60.5 64,-79.5"/>
<text text-anchor="middle" x="32" y="-67.5" font-family="Helvetica,sans-Serif" font-size="10.00">algorithm</text>
</a>
</g>
</g>
<!-- Node1&#45;&gt;Node2 -->
<g id="edge1_Node000001_Node000002" class="edge">
<title>Node1&#45;&gt;Node2</title>
<g id="a_edge1_Node000001_Node000002"><a xlink:title=" ">
<path fill="none" stroke="#63b8ff" d="M307.47,-128.39C243.94,-118.6 154.98,-103.45 78,-85 74.65,-84.2 71.19,-83.29 67.73,-82.33"/>
<polygon fill="#63b8ff" stroke="#63b8ff" points="68.7,-78.97 58.12,-79.55 66.75,-85.69 68.7,-78.97"/>
</a>
</g>
</g>
<!-- Node3 -->
<g id="Node000003" class="node">
<title>Node3</title>
<g id="a_Node000003"><a xlink:title=" ">
<polygon fill="#e0e0e0" stroke="#999999" points="165,-19 115,-19 115,0 165,0 165,-19"/>
<text text-anchor="middle" x="140" y="-7" font-family="Helvetica,sans-Serif" font-size="10.00">chrono</text>
</a>
</g>
</g>
<!-- Node1&#45;&gt;Node3 -->
<g id="edge2_Node000001_Node000003" class="edge">
<title>Node1&#45;&gt;Node3</title>
<g id="a_edge2_Node000001_Node000003"><a xlink:title=" ">
<path fill="none" stroke="#63b8ff" d="M307.43,-135.37C233.95,-128.93 135.55,-114.87 111,-85 96.89,-67.83 111.77,-43 124.9,-26.81"/>
<polygon fill="#63b8ff" stroke="#63b8ff" points="127.57,-29.07 131.44,-19.21 122.26,-24.5 127.57,-29.07"/>
</a>
</g>
</g>
<!-- Node4 -->
<g id="Node000004" class="node">
<title>Node4</title>
<g id="a_Node000004"><a xlink:title=" ">
<polygon fill="#e0e0e0" stroke="#999999" points="167.5,-79.5 120.5,-79.5 120.5,-60.5 167.5,-60.5 167.5,-79.5"/>
<text text-anchor="middle" x="144" y="-67.5" font-family="Helvetica,sans-Serif" font-size="10.00">cmath</text>
</a>
</g>
</g>
<!-- Node1&#45;&gt;Node4 -->
<g id="edge3_Node000001_Node000004" class="edge">
<title>Node1&#45;&gt;Node4</title>
<g id="a_edge3_Node000001_Node000004"><a xlink:title=" ">
<path fill="none" stroke="#63b8ff" d="M307.47,-122.12C267.21,-112.51 218.64,-99.7 176,-85 174.57,-84.51 173.11,-83.97 171.64,-83.42"/>
<polygon fill="#63b8ff" stroke="#63b8ff" points="172.66,-80.05 162.07,-79.51 170.01,-86.53 172.66,-80.05"/>
</a>
</g>
</g>
<!-- Node5 -->
<g id="Node000005" class="node">
<title>Node5</title>
<g id="a_Node000005"><a xlink:title=" ">
<polygon fill="#e0e0e0" stroke="#999999" points="533,-19 483,-19 483,0 533,0 533,-19"/>
<text text-anchor="middle" x="508" y="-7" font-family="Helvetica,sans-Serif" font-size="10.00">cstdint</text>
</a>
</g>
</g>
<!-- Node1&#45;&gt;Node5 -->
<g id="edge4_Node000001_Node000005" class="edge">
<title>Node1&#45;&gt;Node5</title>
<g id="a_edge4_Node000001_Node000005"><a xlink:title=" ">
<path fill="none" stroke="#63b8ff" d="M398.95,-120.69C406.22,-102.09 419.09,-74.31 437,-55 448.89,-42.17 465.28,-31.58 479.31,-23.95"/>
<polygon fill="#63b8ff" stroke="#63b8ff" points="481.3,-26.86 488.57,-19.15 478.08,-20.64 481.3,-26.86"/>
</a>
</g>
</g>
<!-- Node6 -->
<g id="Node000006" class="node">
<title>Node6</title>
<g id="a_Node000006"><a xlink:title=" ">
<polygon fill="#e0e0e0" stroke="#999999" points="389.5,-79.5 342.5,-79.5 342.5,-60.5 389.5,-60.5 389.5,-79.5"/>
<text text-anchor="middle" x="366" y="-67.5" font-family="Helvetica,sans-Serif" font-size="10.00">vector</text>
</a>
</g>
</g>
<!-- Node1&#45;&gt;Node6 -->
<g id="edge5_Node000001_Node000006" class="edge">
<title>Node1&#45;&gt;Node6</title>
<g id="a_edge5_Node000001_Node000006"><a xlink:title=" ">
<path fill="none" stroke="#63b8ff" d="M384.62,-120.77C380.91,-110.87 376.46,-98.95 372.83,-89.26"/>
<polygon fill="#63b8ff" stroke="#63b8ff" points="376.08,-87.96 369.3,-79.82 369.53,-90.41 376.08,-87.96"/>
</a>
</g>
</g>
<!-- Node7 -->
<g id="Node000007" class="node">
<title>Node7</title>
<g id="a_Node000007"><a xlink:href="i__i2c__io_8hpp.html" target="_top" xlink:title="I2C通信インタフェース">
<polygon fill="white" stroke="#666666" points="730,-85 588,-85 588,-55 730,-55 730,-85"/>
<text text-anchor="start" x="596" y="-73" font-family="Helvetica,sans-Serif" font-size="10.00">alps_cmn/communication</text>
<text text-anchor="middle" x="659" y="-62" font-family="Helvetica,sans-Serif" font-size="10.00">/i_i2c_io.hpp</text>
</a>
</g>
</g>
<!-- Node1&#45;&gt;Node7 -->
<g id="edge6_Node000001_Node000007" class="edge">
<title>Node1&#45;&gt;Node7</title>
<g id="a_edge6_Node000001_Node000007"><a xlink:title=" ">
<path fill="none" stroke="#63b8ff" d="M467.08,-120.96C507.44,-110.45 556.66,-97.64 595.15,-87.62"/>
<polygon fill="#63b8ff" stroke="#63b8ff" points="596.4,-90.91 605.2,-85 594.64,-84.14 596.4,-90.91"/>
</a>
</g>
</g>
<!-- Node8 -->
<g id="Node000008" class="node">
<title>Node8</title>
<g id="a_Node000008"><a xlink:title=" ">
<polygon fill="#e0e0e0" stroke="#999999" points="740.5,-19 675.5,-19 675.5,0 740.5,0 740.5,-19"/>
<text text-anchor="middle" x="708" y="-7" font-family="Helvetica,sans-Serif" font-size="10.00">etl/span.h</text>
</a>
</g>
</g>
<!-- Node1&#45;&gt;Node8 -->
<g id="edge15_Node000001_Node000008" class="edge">
<title>Node1&#45;&gt;Node8</title>
<g id="a_edge15_Node000001_Node000008"><a xlink:title=" ">
<path fill="none" stroke="#63b8ff" d="M476.67,-139.1C568.35,-135.57 705.95,-123.76 739,-85 753.55,-67.93 737.78,-43.08 723.92,-26.85"/>
<polygon fill="#63b8ff" stroke="#63b8ff" points="726.33,-24.29 717.02,-19.24 721.14,-28.99 726.33,-24.29"/>
</a>
</g>
</g>
<!-- Node9 -->
<g id="Node000009" class="node">
<title>Node9</title>
<g id="a_Node000009"><a xlink:href="font__info_8hpp.html" target="_top" xlink:title="フォント情報構造体">
<polygon fill="white" stroke="#666666" points="570,-85 446,-85 446,-55 570,-55 570,-85"/>
<text text-anchor="start" x="454" y="-73" font-family="Helvetica,sans-Serif" font-size="10.00">alps_cmn/display/font</text>
<text text-anchor="middle" x="508" y="-62" font-family="Helvetica,sans-Serif" font-size="10.00">_info.hpp</text>
</a>
</g>
</g>
<!-- Node1&#45;&gt;Node9 -->
<g id="edge9_Node000001_Node000009" class="edge">
<title>Node1&#45;&gt;Node9</title>
<g id="a_edge9_Node000001_Node000009"><a xlink:title=" ">
<path fill="none" stroke="#63b8ff" d="M424.62,-120.96C440.53,-111.42 459.61,-99.99 475.5,-90.47"/>
<polygon fill="#63b8ff" stroke="#63b8ff" points="477.67,-93.25 484.44,-85.11 474.07,-87.25 477.67,-93.25"/>
</a>
</g>
</g>
<!-- Node10 -->
<g id="Node000010" class="node">
<title>Node10</title>
<g id="a_Node000010"><a xlink:href="sleep_8hpp.html" target="_top" xlink:title="スリープ関数の定義">
<polygon fill="white" stroke="#666666" points="324.5,-79.5 185.5,-79.5 185.5,-60.5 324.5,-60.5 324.5,-79.5"/>
<text text-anchor="middle" x="255" y="-67.5" font-family="Helvetica,sans-Serif" font-size="10.00">alps_cmn/time/sleep.hpp</text>
</a>
</g>
</g>
<!-- Node1&#45;&gt;Node10 -->
<g id="edge11_Node000001_Node000010" class="edge">
<title>Node1&#45;&gt;Node10</title>
<g id="a_edge11_Node000001_Node000010"><a xlink:title=" ">
<path fill="none" stroke="#63b8ff" d="M353.47,-120.96C330.24,-109.17 301.29,-94.48 280.8,-84.09"/>
<polygon fill="#63b8ff" stroke="#63b8ff" points="282.26,-80.91 271.76,-79.5 279.1,-87.15 282.26,-80.91"/>
</a>
</g>
</g>
<!-- Node12 -->
<g id="Node000012" class="node">
<title>Node12</title>
<g id="a_Node000012"><a xlink:href="angle_8hpp.html" target="_top" xlink:title=" ">
<polygon fill="white" stroke="#666666" points="919.5,-79.5 786.5,-79.5 786.5,-60.5 919.5,-60.5 919.5,-79.5"/>
<text text-anchor="middle" x="853" y="-67.5" font-family="Helvetica,sans-Serif" font-size="10.00">alps_cmn/util/angle.hpp</text>
</a>
</g>
</g>
<!-- Node1&#45;&gt;Node12 -->
<g id="edge14_Node000001_Node000012" class="edge">
<title>Node1&#45;&gt;Node12</title>
<g id="a_edge14_Node000001_Node000012"><a xlink:title=" ">
<path fill="none" stroke="#63b8ff" d="M476.62,-128.79C553.69,-117.97 670.61,-101.16 772,-85 779.35,-83.83 787.07,-82.55 794.69,-81.27"/>
<polygon fill="#63b8ff" stroke="#63b8ff" points="795.36,-84.7 804.63,-79.57 794.19,-77.8 795.36,-84.7"/>
</a>
</g>
</g>
<!-- Node7&#45;&gt;Node5 -->
<g id="edge7_Node000007_Node000005" class="edge">
<title>Node7&#45;&gt;Node5</title>
<g id="a_edge7_Node000007_Node000005"><a xlink:title=" ">
<path fill="none" stroke="#63b8ff" d="M622.83,-54.99C597.53,-45.18 564.04,-32.21 539.76,-22.81"/>
<polygon fill="#63b8ff" stroke="#63b8ff" points="540.89,-19.49 530.3,-19.14 538.36,-26.02 540.89,-19.49"/>
</a>
</g>
</g>
<!-- Node7&#45;&gt;Node8 -->
<g id="edge8_Node000007_Node000008" class="edge">
<title>Node7&#45;&gt;Node8</title>
<g id="a_edge8_Node000007_Node000008"><a xlink:title=" ">
<path fill="none" stroke="#63b8ff" d="M670.86,-54.84C677.9,-46.43 686.86,-35.74 694.21,-26.96"/>
<polygon fill="#63b8ff" stroke="#63b8ff" points="696.92,-29.18 700.66,-19.27 691.55,-24.68 696.92,-29.18"/>
</a>
</g>
</g>
<!-- Node9&#45;&gt;Node5 -->
<g id="edge10_Node000009_Node000005" class="edge">
<title>Node9&#45;&gt;Node5</title>
<g id="a_edge10_Node000009_Node000005"><a xlink:title=" ">
<path fill="none" stroke="#63b8ff" d="M508,-54.84C508,-47.21 508,-37.7 508,-29.45"/>
<polygon fill="#63b8ff" stroke="#63b8ff" points="511.5,-29.27 508,-19.27 504.5,-29.27 511.5,-29.27"/>
</a>
</g>
</g>
<!-- Node10&#45;&gt;Node3 -->
<g id="edge12_Node000010_Node000003" class="edge">
<title>Node10&#45;&gt;Node3</title>
<g id="a_edge12_Node000010_Node000003"><a xlink:title=" ">
<path fill="none" stroke="#63b8ff" d="M238.03,-60.37C219.09,-50.73 188.21,-35.03 166.17,-23.81"/>
<polygon fill="#63b8ff" stroke="#63b8ff" points="167.54,-20.58 157.04,-19.17 164.36,-26.82 167.54,-20.58"/>
</a>
</g>
</g>
<!-- Node11 -->
<g id="Node000011" class="node">
<title>Node11</title>
<g id="a_Node000011"><a xlink:title=" ">
<polygon fill="#e0e0e0" stroke="#999999" points="279,-19 231,-19 231,0 279,0 279,-19"/>
<text text-anchor="middle" x="255" y="-7" font-family="Helvetica,sans-Serif" font-size="10.00">thread</text>
</a>
</g>
</g>
<!-- Node10&#45;&gt;Node11 -->
<g id="edge13_Node000010_Node000011" class="edge">
<title>Node10&#45;&gt;Node11</title>
<g id="a_edge13_Node000010_Node000011"><a xlink:title=" ">
<path fill="none" stroke="#63b8ff" d="M255,-60.37C255,-52.25 255,-39.81 255,-29.39"/>
<polygon fill="#63b8ff" stroke="#63b8ff" points="258.5,-29.17 255,-19.17 251.5,-29.17 258.5,-29.17"/>
</a>
</g>
</g>
</g>
</svg>
