<?xml version="1.0" encoding="UTF-8" standalone="no"?>
<!DOCTYPE svg PUBLIC "-//W3C//DTD SVG 1.1//EN"
 "http://www.w3.org/Graphics/SVG/1.1/DTD/svg11.dtd">
<!-- Generated by graphviz version 2.43.0 (0)
 -->
<!-- Title: alps::ros2::type::IsSingleElementStdMsgsType&lt; RosTopicType, typename, typename &gt; Pages: 1 -->
<svg width="202pt" height="164pt"
 viewBox="0.00 0.00 202.00 164.00" xmlns="http://www.w3.org/2000/svg" xmlns:xlink="http://www.w3.org/1999/xlink">
<g id="graph0" class="graph" transform="scale(1 1) rotate(0) translate(4 160)">
<title>alps::ros2::type::IsSingleElementStdMsgsType&lt; RosTopicType, typename, typename &gt;</title>
<!-- Node1 -->
<g id="Node000001" class="node">
<title>Node1</title>
<g id="a_Node000001"><a xlink:title="std_msgs::msg名前空間内のデータを1つだけ持つ型かどうかを判定する型述語 例) std_msgs::msg::Bool, std_msgs::msg::Float32MultiArray">
<polygon fill="#999999" stroke="transparent" points="194,-71 0,-71 0,0 194,0 194,-71"/>
<text text-anchor="start" x="5" y="-58.5" font-family="Helvetica,sans-Serif" font-size="10.00">alps::ros2::type::IsSingle</text>
<text text-anchor="start" x="5" y="-47.5" font-family="Helvetica,sans-Serif" font-size="10.00">ElementStdMsgsType&lt; RosTopicType,</text>
<text text-anchor="start" x="37" y="-36.5" font-family="Helvetica,sans-Serif" font-size="10.00"> typename, typename &gt;</text>
<text text-anchor="start" x="95" y="-21.5" font-family="Helvetica,sans-Serif" font-size="10.00"> </text>
<text text-anchor="start" x="95" y="-6.5" font-family="Helvetica,sans-Serif" font-size="10.00"> </text>
<polygon fill="#666666" stroke="#666666" points="0,-31.5 0,-31.5 194,-31.5 194,-31.5 0,-31.5"/>
<polygon fill="#666666" stroke="#666666" points="0,-16.5 0,-16.5 194,-16.5 194,-16.5 0,-16.5"/>
<polygon fill="none" stroke="#666666" points="0,0 0,-71 194,-71 194,0 0,0"/>
</a>
</g>
</g>
<!-- Node2 -->
<g id="Node000002" class="node">
<title>Node2</title>
<g id="a_Node000002"><a xlink:title=" ">
<polygon fill="white" stroke="transparent" points="138.5,-156 55.5,-156 55.5,-107 138.5,-107 138.5,-156"/>
<text text-anchor="start" x="61" y="-143.5" font-family="Helvetica,sans-Serif" font-size="10.00">std::false_type</text>
<text text-anchor="start" x="95.5" y="-128.5" font-family="Helvetica,sans-Serif" font-size="10.00"> </text>
<text text-anchor="start" x="95.5" y="-113.5" font-family="Helvetica,sans-Serif" font-size="10.00"> </text>
<polygon fill="#666666" stroke="#666666" points="56,-138.5 56,-138.5 139,-138.5 139,-138.5 56,-138.5"/>
<polygon fill="#666666" stroke="#666666" points="56,-123.5 56,-123.5 139,-123.5 139,-123.5 56,-123.5"/>
<polygon fill="none" stroke="#666666" points="55.5,-107 55.5,-156 138.5,-156 138.5,-107 55.5,-107"/>
</a>
</g>
</g>
<!-- Node2&#45;&gt;Node1 -->
<g id="edge1_Node000001_Node000002" class="edge">
<title>Node2&#45;&gt;Node1</title>
<g id="a_edge1_Node000001_Node000002"><a xlink:title=" ">
<path fill="none" stroke="#63b8ff" d="M97,-96.7C97,-88.42 97,-79.55 97,-71.23"/>
<polygon fill="none" stroke="#63b8ff" points="93.5,-96.78 97,-106.78 100.5,-96.78 93.5,-96.78"/>
</a>
</g>
</g>
</g>
</svg>
