<?xml version="1.0" encoding="UTF-8" standalone="no"?>
<!DOCTYPE svg PUBLIC "-//W3C//DTD SVG 1.1//EN"
 "http://www.w3.org/Graphics/SVG/1.1/DTD/svg11.dtd">
<!-- Generated by graphviz version 2.43.0 (0)
 -->
<!-- Title: alps::ros2::type::IsConvertibleStructTypePair&lt; alps::cmn::control::PidCalcInfo, alps_interfaces::msg::PidCalcInfo &gt; Pages: 1 -->
<svg width="178pt" height="193pt"
 viewBox="0.00 0.00 178.00 193.00" xmlns="http://www.w3.org/2000/svg" xmlns:xlink="http://www.w3.org/1999/xlink">
<g id="graph0" class="graph" transform="scale(1 1) rotate(0) translate(4 189)">
<title>alps::ros2::type::IsConvertibleStructTypePair&lt; alps::cmn::control::PidCalcInfo, alps_interfaces::msg::PidCalcInfo &gt;</title>
<polygon fill="white" stroke="transparent" points="-4,4 -4,-189 174,-189 174,4 -4,4"/>
<!-- Node1 -->
<g id="node1" class="node">
<title>Node1</title>
<g id="a_node1"><a xlink:title=" ">
<polygon fill="#bfbfbf" stroke="black" points="0,-0.5 0,-90.5 170,-90.5 170,-0.5 0,-0.5"/>
<text text-anchor="start" x="8" y="-78.5" font-family="Helvetica,sans-Serif" font-size="10.00">alps::ros2::type::IsConvertible</text>
<text text-anchor="start" x="8" y="-67.5" font-family="Helvetica,sans-Serif" font-size="10.00">StructTypePair&lt; alps::cmn</text>
<text text-anchor="start" x="8" y="-56.5" font-family="Helvetica,sans-Serif" font-size="10.00">::control::PidCalcInfo, alps</text>
<text text-anchor="middle" x="85" y="-45.5" font-family="Helvetica,sans-Serif" font-size="10.00">_interfaces::msg::PidCalcInfo &gt;</text>
<polyline fill="none" stroke="black" points="0,-38.5 170,-38.5 "/>
<text text-anchor="middle" x="85" y="-26.5" font-family="Helvetica,sans-Serif" font-size="10.00"> </text>
<polyline fill="none" stroke="black" points="0,-19.5 170,-19.5 "/>
<text text-anchor="middle" x="85" y="-7.5" font-family="Helvetica,sans-Serif" font-size="10.00"> </text>
</a>
</g>
</g>
<!-- Node2 -->
<g id="node2" class="node">
<title>Node2</title>
<g id="a_node2"><a xlink:title=" ">
<polygon fill="white" stroke="#bfbfbf" points="43,-127.5 43,-184.5 127,-184.5 127,-127.5 43,-127.5"/>
<text text-anchor="middle" x="85" y="-172.5" font-family="Helvetica,sans-Serif" font-size="10.00">std::true_type</text>
<polyline fill="none" stroke="#bfbfbf" points="43,-165.5 127,-165.5 "/>
<text text-anchor="middle" x="85" y="-153.5" font-family="Helvetica,sans-Serif" font-size="10.00"> </text>
<polyline fill="none" stroke="#bfbfbf" points="43,-146.5 127,-146.5 "/>
<text text-anchor="middle" x="85" y="-134.5" font-family="Helvetica,sans-Serif" font-size="10.00"> </text>
</a>
</g>
</g>
<!-- Node2&#45;&gt;Node1 -->
<g id="edge1" class="edge">
<title>Node2&#45;&gt;Node1</title>
<path fill="none" stroke="midnightblue" d="M85,-117.21C85,-108.61 85,-99.39 85,-90.55"/>
<polygon fill="none" stroke="midnightblue" points="81.5,-117.34 85,-127.34 88.5,-117.34 81.5,-117.34"/>
</g>
</g>
</svg>
