<?xml version="1.0" encoding="UTF-8" standalone="no"?>
<!DOCTYPE svg PUBLIC "-//W3C//DTD SVG 1.1//EN"
 "http://www.w3.org/Graphics/SVG/1.1/DTD/svg11.dtd">
<!-- Generated by graphviz version 2.43.0 (0)
 -->
<!-- Title: alps::cmn::type::HasSubscriptOperator&lt; T, std::void_t&lt; decltype(std::declval&lt; T &gt;()[0])&gt; &gt; Pages: 1 -->
<svg width="163pt" height="175pt"
 viewBox="0.00 0.00 163.00 175.00" xmlns="http://www.w3.org/2000/svg" xmlns:xlink="http://www.w3.org/1999/xlink">
<g id="graph0" class="graph" transform="scale(1 1) rotate(0) translate(4 171)">
<title>alps::cmn::type::HasSubscriptOperator&lt; T, std::void_t&lt; decltype(std::declval&lt; T &gt;()[0])&gt; &gt;</title>
<!-- Node1 -->
<g id="Node000001" class="node">
<title>Node1</title>
<g id="a_Node000001"><a xlink:title=" ">
<polygon fill="#999999" stroke="transparent" points="155,-82 0,-82 0,0 155,0 155,-82"/>
<text text-anchor="start" x="5.5" y="-70" font-family="Helvetica,sans-Serif" font-size="10.00">alps::cmn::type::HasSubscript</text>
<text text-anchor="start" x="5.5" y="-59" font-family="Helvetica,sans-Serif" font-size="10.00">Operator&lt; T, std::void_t</text>
<text text-anchor="start" x="5.5" y="-48" font-family="Helvetica,sans-Serif" font-size="10.00">&lt; decltype(std::declval&lt; T</text>
<text text-anchor="start" x="50" y="-37" font-family="Helvetica,sans-Serif" font-size="10.00"> &gt;()[0])&gt; &gt;</text>
<text text-anchor="start" x="76" y="-22" font-family="Helvetica,sans-Serif" font-size="10.00"> </text>
<text text-anchor="start" x="76" y="-7" font-family="Helvetica,sans-Serif" font-size="10.00"> </text>
<polygon fill="#666666" stroke="#666666" points="0.5,-32 0.5,-32 155.5,-32 155.5,-32 0.5,-32"/>
<polygon fill="#666666" stroke="#666666" points="0.5,-17 0.5,-17 155.5,-17 155.5,-17 0.5,-17"/>
<polygon fill="none" stroke="#666666" points="0,0 0,-82 155,-82 155,0 0,0"/>
</a>
</g>
</g>
<!-- Node2 -->
<g id="Node000002" class="node">
<title>Node2</title>
<g id="a_Node000002"><a xlink:title=" ">
<polygon fill="white" stroke="transparent" points="116.5,-167 38.5,-167 38.5,-118 116.5,-118 116.5,-167"/>
<text text-anchor="start" x="43.5" y="-154.5" font-family="Helvetica,sans-Serif" font-size="10.00">std::true_type</text>
<text text-anchor="start" x="75.5" y="-139.5" font-family="Helvetica,sans-Serif" font-size="10.00"> </text>
<text text-anchor="start" x="75.5" y="-124.5" font-family="Helvetica,sans-Serif" font-size="10.00"> </text>
<polygon fill="#666666" stroke="#666666" points="38.5,-149.5 38.5,-149.5 116.5,-149.5 116.5,-149.5 38.5,-149.5"/>
<polygon fill="#666666" stroke="#666666" points="38.5,-134.5 38.5,-134.5 116.5,-134.5 116.5,-134.5 38.5,-134.5"/>
<polygon fill="none" stroke="#666666" points="38.5,-118 38.5,-167 116.5,-167 116.5,-118 38.5,-118"/>
</a>
</g>
</g>
<!-- Node2&#45;&gt;Node1 -->
<g id="edge1_Node000001_Node000002" class="edge">
<title>Node2&#45;&gt;Node1</title>
<g id="a_edge1_Node000001_Node000002"><a xlink:title=" ">
<path fill="none" stroke="#63b8ff" d="M77.5,-107.88C77.5,-99.62 77.5,-90.68 77.5,-82.14"/>
<polygon fill="none" stroke="#63b8ff" points="74,-107.92 77.5,-117.92 81,-107.92 74,-107.92"/>
</a>
</g>
</g>
</g>
</svg>
