<?xml version="1.0" encoding="UTF-8" standalone="no"?>
<!DOCTYPE svg PUBLIC "-//W3C//DTD SVG 1.1//EN"
 "http://www.w3.org/Graphics/SVG/1.1/DTD/svg11.dtd">
<!-- Generated by graphviz version 2.43.0 (0)
 -->
<!-- Title: alps::cmn::type::HasPushBack&lt; T, std::void_t&lt; decltype(std::declval&lt; T &gt;().push_back(std::declval&lt; typename T::value_type &gt;()))&gt; &gt; Pages: 1 -->
<svg width="199pt" height="204pt"
 viewBox="0.00 0.00 199.00 204.00" xmlns="http://www.w3.org/2000/svg" xmlns:xlink="http://www.w3.org/1999/xlink">
<g id="graph0" class="graph" transform="scale(1 1) rotate(0) translate(4 200)">
<title>alps::cmn::type::HasPushBack&lt; T, std::void_t&lt; decltype(std::declval&lt; T &gt;().push_back(std::declval&lt; typename T::value_type &gt;()))&gt; &gt;</title>
<polygon fill="white" stroke="transparent" points="-4,4 -4,-200 195,-200 195,4 -4,4"/>
<!-- Node1 -->
<g id="node1" class="node">
<title>Node1</title>
<g id="a_node1"><a xlink:title=" ">
<polygon fill="#bfbfbf" stroke="black" points="0,-0.5 0,-101.5 191,-101.5 191,-0.5 0,-0.5"/>
<text text-anchor="start" x="8" y="-89.5" font-family="Helvetica,sans-Serif" font-size="10.00">alps::cmn::type::HasPush</text>
<text text-anchor="start" x="8" y="-78.5" font-family="Helvetica,sans-Serif" font-size="10.00">Back&lt; T, std::void_t&lt;</text>
<text text-anchor="start" x="8" y="-67.5" font-family="Helvetica,sans-Serif" font-size="10.00"> decltype(std::declval</text>
<text text-anchor="start" x="8" y="-56.5" font-family="Helvetica,sans-Serif" font-size="10.00">&lt; T &gt;().push_back(std::declval</text>
<text text-anchor="middle" x="95.5" y="-45.5" font-family="Helvetica,sans-Serif" font-size="10.00">&lt; typename T::value_type &gt;()))&gt; &gt;</text>
<polyline fill="none" stroke="black" points="0,-38.5 191,-38.5 "/>
<text text-anchor="middle" x="95.5" y="-26.5" font-family="Helvetica,sans-Serif" font-size="10.00"> </text>
<polyline fill="none" stroke="black" points="0,-19.5 191,-19.5 "/>
<text text-anchor="middle" x="95.5" y="-7.5" font-family="Helvetica,sans-Serif" font-size="10.00"> </text>
</a>
</g>
</g>
<!-- Node2 -->
<g id="node2" class="node">
<title>Node2</title>
<g id="a_node2"><a xlink:title=" ">
<polygon fill="white" stroke="#bfbfbf" points="53.5,-138.5 53.5,-195.5 137.5,-195.5 137.5,-138.5 53.5,-138.5"/>
<text text-anchor="middle" x="95.5" y="-183.5" font-family="Helvetica,sans-Serif" font-size="10.00">std::true_type</text>
<polyline fill="none" stroke="#bfbfbf" points="53.5,-176.5 137.5,-176.5 "/>
<text text-anchor="middle" x="95.5" y="-164.5" font-family="Helvetica,sans-Serif" font-size="10.00"> </text>
<polyline fill="none" stroke="#bfbfbf" points="53.5,-157.5 137.5,-157.5 "/>
<text text-anchor="middle" x="95.5" y="-145.5" font-family="Helvetica,sans-Serif" font-size="10.00"> </text>
</a>
</g>
</g>
<!-- Node2&#45;&gt;Node1 -->
<g id="edge1" class="edge">
<title>Node2&#45;&gt;Node1</title>
<path fill="none" stroke="midnightblue" d="M95.5,-128.35C95.5,-119.8 95.5,-110.58 95.5,-101.61"/>
<polygon fill="none" stroke="midnightblue" points="92,-128.4 95.5,-138.4 99,-128.4 92,-128.4"/>
</g>
</g>
</svg>
