<?xml version="1.0" encoding="UTF-8" standalone="no"?>
<!DOCTYPE svg PUBLIC "-//W3C//DTD SVG 1.1//EN"
 "http://www.w3.org/Graphics/SVG/1.1/DTD/svg11.dtd">
<!-- Generated by graphviz version 2.43.0 (0)
 -->
<!-- Title: alps::cmn::type::HasPushBack&lt; T, std::void_t&lt; decltype(std::declval&lt; T &gt;().push_back(std::declval&lt; typename T::value_type &gt;()))&gt; &gt; Pages: 1 -->
<svg width="193pt" height="186pt"
 viewBox="0.00 0.00 193.00 186.00" xmlns="http://www.w3.org/2000/svg" xmlns:xlink="http://www.w3.org/1999/xlink">
<g id="graph0" class="graph" transform="scale(1 1) rotate(0) translate(4 182)">
<title>alps::cmn::type::HasPushBack&lt; T, std::void_t&lt; decltype(std::declval&lt; T &gt;().push_back(std::declval&lt; typename T::value_type &gt;()))&gt; &gt;</title>
<!-- Node1 -->
<g id="Node000001" class="node">
<title>Node1</title>
<g id="a_Node000001"><a xlink:title=" ">
<polygon fill="#999999" stroke="transparent" points="185,-93 0,-93 0,0 185,0 185,-93"/>
<text text-anchor="start" x="5.5" y="-80.5" font-family="Helvetica,sans-Serif" font-size="10.00">alps::cmn::type::HasPush</text>
<text text-anchor="start" x="5.5" y="-69.5" font-family="Helvetica,sans-Serif" font-size="10.00">Back&lt; T, std::void_t&lt;</text>
<text text-anchor="start" x="5.5" y="-58.5" font-family="Helvetica,sans-Serif" font-size="10.00"> decltype(std::declval</text>
<text text-anchor="start" x="5.5" y="-47.5" font-family="Helvetica,sans-Serif" font-size="10.00">&lt; T &gt;().push_back(std::declval</text>
<text text-anchor="start" x="5.5" y="-36.5" font-family="Helvetica,sans-Serif" font-size="10.00">&lt; typename T::value_type &gt;()))&gt; &gt;</text>
<text text-anchor="start" x="91" y="-21.5" font-family="Helvetica,sans-Serif" font-size="10.00"> </text>
<text text-anchor="start" x="91" y="-6.5" font-family="Helvetica,sans-Serif" font-size="10.00"> </text>
<polygon fill="#666666" stroke="#666666" points="0.5,-31.5 0.5,-31.5 185.5,-31.5 185.5,-31.5 0.5,-31.5"/>
<polygon fill="#666666" stroke="#666666" points="0.5,-16.5 0.5,-16.5 185.5,-16.5 185.5,-16.5 0.5,-16.5"/>
<polygon fill="none" stroke="#666666" points="0,0 0,-93 185,-93 185,0 0,0"/>
</a>
</g>
</g>
<!-- Node2 -->
<g id="Node000002" class="node">
<title>Node2</title>
<g id="a_Node000002"><a xlink:title=" ">
<polygon fill="white" stroke="transparent" points="131.5,-178 53.5,-178 53.5,-129 131.5,-129 131.5,-178"/>
<text text-anchor="start" x="58.5" y="-165.5" font-family="Helvetica,sans-Serif" font-size="10.00">std::true_type</text>
<text text-anchor="start" x="90.5" y="-150.5" font-family="Helvetica,sans-Serif" font-size="10.00"> </text>
<text text-anchor="start" x="90.5" y="-135.5" font-family="Helvetica,sans-Serif" font-size="10.00"> </text>
<polygon fill="#666666" stroke="#666666" points="53.5,-160.5 53.5,-160.5 131.5,-160.5 131.5,-160.5 53.5,-160.5"/>
<polygon fill="#666666" stroke="#666666" points="53.5,-145.5 53.5,-145.5 131.5,-145.5 131.5,-145.5 53.5,-145.5"/>
<polygon fill="none" stroke="#666666" points="53.5,-129 53.5,-178 131.5,-178 131.5,-129 53.5,-129"/>
</a>
</g>
</g>
<!-- Node2&#45;&gt;Node1 -->
<g id="edge1_Node000001_Node000002" class="edge">
<title>Node2&#45;&gt;Node1</title>
<g id="a_edge1_Node000001_Node000002"><a xlink:title=" ">
<path fill="none" stroke="#63b8ff" d="M92.5,-118.77C92.5,-110.68 92.5,-101.9 92.5,-93.36"/>
<polygon fill="none" stroke="#63b8ff" points="89,-118.94 92.5,-128.94 96,-118.94 89,-118.94"/>
</a>
</g>
</g>
</g>
</svg>
