<?xml version="1.0" encoding="UTF-8" standalone="no"?>
<!DOCTYPE svg PUBLIC "-//W3C//DTD SVG 1.1//EN"
 "http://www.w3.org/Graphics/SVG/1.1/DTD/svg11.dtd">
<!-- Generated by graphviz version 2.43.0 (0)
 -->
<!-- Title: alps::cmn::type::HasValueType&lt; T, typename &gt; Pages: 1 -->
<svg width="145pt" height="153pt"
 viewBox="0.00 0.00 145.00 153.00" xmlns="http://www.w3.org/2000/svg" xmlns:xlink="http://www.w3.org/1999/xlink">
<g id="graph0" class="graph" transform="scale(1 1) rotate(0) translate(4 149)">
<title>alps::cmn::type::HasValueType&lt; T, typename &gt;</title>
<!-- Node1 -->
<g id="Node000001" class="node">
<title>Node1</title>
<g id="a_Node000001"><a xlink:title="value_type型を持つかどうかを判定する型述語">
<polygon fill="#999999" stroke="transparent" points="137,-60 0,-60 0,0 137,0 137,-60"/>
<text text-anchor="start" x="5.5" y="-48" font-family="Helvetica,sans-Serif" font-size="10.00">alps::cmn::type::HasValue</text>
<text text-anchor="start" x="15.5" y="-37" font-family="Helvetica,sans-Serif" font-size="10.00">Type&lt; T, typename &gt;</text>
<text text-anchor="start" x="67" y="-22" font-family="Helvetica,sans-Serif" font-size="10.00"> </text>
<text text-anchor="start" x="67" y="-7" font-family="Helvetica,sans-Serif" font-size="10.00"> </text>
<polygon fill="#666666" stroke="#666666" points="0.5,-32 0.5,-32 137.5,-32 137.5,-32 0.5,-32"/>
<polygon fill="#666666" stroke="#666666" points="0.5,-17 0.5,-17 137.5,-17 137.5,-17 0.5,-17"/>
<polygon fill="none" stroke="#666666" points="0,0 0,-60 137,-60 137,0 0,0"/>
</a>
</g>
</g>
<!-- Node2 -->
<g id="Node000002" class="node">
<title>Node2</title>
<g id="a_Node000002"><a xlink:title=" ">
<polygon fill="white" stroke="transparent" points="110,-145 27,-145 27,-96 110,-96 110,-145"/>
<text text-anchor="start" x="32.5" y="-132.5" font-family="Helvetica,sans-Serif" font-size="10.00">std::false_type</text>
<text text-anchor="start" x="67" y="-117.5" font-family="Helvetica,sans-Serif" font-size="10.00"> </text>
<text text-anchor="start" x="67" y="-102.5" font-family="Helvetica,sans-Serif" font-size="10.00"> </text>
<polygon fill="#666666" stroke="#666666" points="27.5,-127.5 27.5,-127.5 110.5,-127.5 110.5,-127.5 27.5,-127.5"/>
<polygon fill="#666666" stroke="#666666" points="27.5,-112.5 27.5,-112.5 110.5,-112.5 110.5,-112.5 27.5,-112.5"/>
<polygon fill="none" stroke="#666666" points="27,-96 27,-145 110,-145 110,-96 27,-96"/>
</a>
</g>
</g>
<!-- Node2&#45;&gt;Node1 -->
<g id="edge1_Node000001_Node000002" class="edge">
<title>Node2&#45;&gt;Node1</title>
<g id="a_edge1_Node000001_Node000002"><a xlink:title=" ">
<path fill="none" stroke="#63b8ff" d="M68.5,-85.55C68.5,-77.18 68.5,-68.28 68.5,-60.16"/>
<polygon fill="none" stroke="#63b8ff" points="65,-85.78 68.5,-95.78 72,-85.78 65,-85.78"/>
</a>
</g>
</g>
</g>
</svg>
