<?xml version="1.0" encoding="UTF-8" standalone="no"?>
<!DOCTYPE svg PUBLIC "-//W3C//DTD SVG 1.1//EN"
 "http://www.w3.org/Graphics/SVG/1.1/DTD/svg11.dtd">
<!-- Generated by graphviz version 2.43.0 (0)
 -->
<!-- Title: alps::cmn::util::SerializeTypeInfoBase&lt; is_serializable, is_single &gt; Pages: 1 -->
<svg width="168pt" height="343pt"
 viewBox="0.00 0.00 168.00 343.00" xmlns="http://www.w3.org/2000/svg" xmlns:xlink="http://www.w3.org/1999/xlink">
<g id="graph0" class="graph" transform="scale(1 1) rotate(0) translate(4 339)">
<title>alps::cmn::util::SerializeTypeInfoBase&lt; is_serializable, is_single &gt;</title>
<!-- Node1 -->
<g id="node1" class="node">
<title>Node1</title>
<g id="a_node1"><a xlink:title="バイト列変換に関する型情報の基底">
<polygon fill="#999999" stroke="transparent" points="160,-335 0,-335 0,-234 160,-234 160,-335"/>
<text text-anchor="start" x="5" y="-322.5" font-family="Helvetica,sans-Serif" font-size="10.00">alps::cmn::util::Serialize</text>
<text text-anchor="start" x="5" y="-311.5" font-family="Helvetica,sans-Serif" font-size="10.00">TypeInfoBase&lt; is_serializable,</text>
<text text-anchor="start" x="51" y="-300.5" font-family="Helvetica,sans-Serif" font-size="10.00"> is_single &gt;</text>
<text text-anchor="start" x="76.5" y="-285.5" font-family="Helvetica,sans-Serif" font-size="10.00"> </text>
<text text-anchor="start" x="20.5" y="-270.5" font-family="Helvetica,sans-Serif" font-size="10.00">+</text>
<text text-anchor="start" x="50" y="-270.5" font-family="Helvetica,sans-Serif" font-size="10.00">IsSerializable()</text>
<text text-anchor="start" x="20.5" y="-255.5" font-family="Helvetica,sans-Serif" font-size="10.00">+</text>
<text text-anchor="start" x="50" y="-255.5" font-family="Helvetica,sans-Serif" font-size="10.00">IsSingle()</text>
<text text-anchor="start" x="20.5" y="-240.5" font-family="Helvetica,sans-Serif" font-size="10.00">+</text>
<text text-anchor="start" x="50" y="-240.5" font-family="Helvetica,sans-Serif" font-size="10.00">IsMultiple()</text>
<polygon fill="#666666" stroke="#666666" points="0,-295.5 0,-295.5 160,-295.5 160,-295.5 0,-295.5"/>
<polygon fill="#666666" stroke="#666666" points="0,-280.5 0,-280.5 160,-280.5 160,-280.5 0,-280.5"/>
<polygon fill="none" stroke="#666666" points="0,-234 0,-335 160,-335 160,-234 0,-234"/>
</a>
</g>
</g>
<!-- Node2 -->
<g id="node2" class="node">
<title>Node2</title>
<g id="a_node2"><a xlink:href="structalps_1_1cmn_1_1util_1_1_serialize_type_info_base.html" target="_top" xlink:title=" ">
<polygon fill="white" stroke="transparent" points="156,-187 4,-187 4,-97 156,-97 156,-187"/>
<text text-anchor="start" x="9" y="-175" font-family="Helvetica,sans-Serif" font-size="10.00">alps::cmn::util::Serialize</text>
<text text-anchor="start" x="9" y="-164" font-family="Helvetica,sans-Serif" font-size="10.00">TypeInfoBase&lt; false, false &gt;</text>
<text text-anchor="start" x="76.5" y="-149" font-family="Helvetica,sans-Serif" font-size="10.00"> </text>
<text text-anchor="start" x="22.5" y="-134" font-family="Helvetica,sans-Serif" font-size="10.00">+</text>
<text text-anchor="start" x="50" y="-134" font-family="Helvetica,sans-Serif" font-size="10.00">IsSerializable()</text>
<text text-anchor="start" x="22.5" y="-119" font-family="Helvetica,sans-Serif" font-size="10.00">+</text>
<text text-anchor="start" x="50" y="-119" font-family="Helvetica,sans-Serif" font-size="10.00">IsSingle()</text>
<text text-anchor="start" x="22.5" y="-104" font-family="Helvetica,sans-Serif" font-size="10.00">+</text>
<text text-anchor="start" x="50" y="-104" font-family="Helvetica,sans-Serif" font-size="10.00">IsMultiple()</text>
<polygon fill="#666666" stroke="#666666" points="4,-159 4,-159 156,-159 156,-159 4,-159"/>
<polygon fill="#666666" stroke="#666666" points="4,-144 4,-144 156,-144 156,-144 4,-144"/>
<polygon fill="none" stroke="#666666" points="4,-97 4,-187 156,-187 156,-97 4,-97"/>
</a>
</g>
</g>
<!-- Node1&#45;&gt;Node2 -->
<g id="edge1" class="edge">
<title>Node1&#45;&gt;Node2</title>
<path fill="none" stroke="orange" d="M80,-223.84C80,-211.63 80,-198.97 80,-187.41"/>
<polygon fill="orange" stroke="orange" points="76.5,-223.96 80,-233.96 83.5,-223.96 76.5,-223.96"/>
<text text-anchor="middle" x="120" y="-208" font-family="Helvetica,sans-Serif" font-size="10.00" fill="grey"> &lt; false, false &gt;</text>
</g>
<!-- Node3 -->
<g id="node3" class="node">
<title>Node3</title>
<g id="a_node3"><a xlink:href="structalps_1_1cmn_1_1util_1_1_serialize_type_info.html" target="_top" xlink:title="バイト列変換に関する型情報">
<polygon fill="white" stroke="transparent" points="144,-60 16,-60 16,0 144,0 144,-60"/>
<text text-anchor="start" x="21" y="-48" font-family="Helvetica,sans-Serif" font-size="10.00">alps::cmn::util::Serialize</text>
<text text-anchor="start" x="45" y="-37" font-family="Helvetica,sans-Serif" font-size="10.00">TypeInfo&lt; T &gt;</text>
<text text-anchor="start" x="76.5" y="-22" font-family="Helvetica,sans-Serif" font-size="10.00"> </text>
<text text-anchor="start" x="33" y="-7" font-family="Helvetica,sans-Serif" font-size="10.00">+</text>
<text text-anchor="start" x="59" y="-7" font-family="Helvetica,sans-Serif" font-size="10.00">GetName()</text>
<polygon fill="#666666" stroke="#666666" points="16,-32 16,-32 144,-32 144,-32 16,-32"/>
<polygon fill="#666666" stroke="#666666" points="16,-17 16,-17 144,-17 144,-17 16,-17"/>
<polygon fill="none" stroke="#666666" points="16,0 16,-60 144,-60 144,0 16,0"/>
</a>
</g>
</g>
<!-- Node2&#45;&gt;Node3 -->
<g id="edge2" class="edge">
<title>Node2&#45;&gt;Node3</title>
<path fill="none" stroke="#63b8ff" d="M80,-86.68C80,-77.57 80,-68.44 80,-60.28"/>
<polygon fill="none" stroke="#63b8ff" points="76.5,-86.89 80,-96.89 83.5,-86.89 76.5,-86.89"/>
</g>
</g>
</svg>
