<?xml version="1.0" encoding="UTF-8" standalone="no"?>
<!DOCTYPE svg PUBLIC "-//W3C//DTD SVG 1.1//EN"
 "http://www.w3.org/Graphics/SVG/1.1/DTD/svg11.dtd">
<!-- Generated by graphviz version 2.43.0 (0)
 -->
<!-- Title: alps::ros2::type::IsSingleElementStdMsgsType&lt; RosTopicType, std::void_t&lt; typename RosTopicType::_data_type &gt;, std::enable_if_t&lt; std::is_same_v&lt; typename RosTopicType::_data_type, decltype(std::declval&lt; RosTopicType &gt;().data)&gt; &gt; &gt; Pages: 1 -->
<svg width="263pt" height="208pt"
 viewBox="0.00 0.00 263.00 208.00" xmlns="http://www.w3.org/2000/svg" xmlns:xlink="http://www.w3.org/1999/xlink">
<g id="graph0" class="graph" transform="scale(1 1) rotate(0) translate(4 204)">
<title>alps::ros2::type::IsSingleElementStdMsgsType&lt; RosTopicType, std::void_t&lt; typename RosTopicType::_data_type &gt;, std::enable_if_t&lt; std::is_same_v&lt; typename RosTopicType::_data_type, decltype(std::declval&lt; RosTopicType &gt;().data)&gt; &gt; &gt;</title>
<!-- Node1 -->
<g id="Node000001" class="node">
<title>Node1</title>
<g id="a_Node000001"><a xlink:title=" ">
<polygon fill="#999999" stroke="transparent" points="255,-115 0,-115 0,0 255,0 255,-115"/>
<text text-anchor="start" x="5.5" y="-102.5" font-family="Helvetica,sans-Serif" font-size="10.00">alps::ros2::type::IsSingle</text>
<text text-anchor="start" x="5.5" y="-91.5" font-family="Helvetica,sans-Serif" font-size="10.00">ElementStdMsgsType&lt; RosTopicType,</text>
<text text-anchor="start" x="5.5" y="-80.5" font-family="Helvetica,sans-Serif" font-size="10.00"> std::void_t&lt; typename RosTopicType</text>
<text text-anchor="start" x="5.5" y="-69.5" font-family="Helvetica,sans-Serif" font-size="10.00">::_data_type &gt;, std::enable_if_t</text>
<text text-anchor="start" x="5.5" y="-58.5" font-family="Helvetica,sans-Serif" font-size="10.00">&lt; std::is_same_v&lt; typename RosTopicType</text>
<text text-anchor="start" x="5.5" y="-47.5" font-family="Helvetica,sans-Serif" font-size="10.00">::_data_type, decltype(std::declval&lt; RosTopicType</text>
<text text-anchor="start" x="88.5" y="-36.5" font-family="Helvetica,sans-Serif" font-size="10.00"> &gt;().data)&gt; &gt; &gt;</text>
<text text-anchor="start" x="126" y="-21.5" font-family="Helvetica,sans-Serif" font-size="10.00"> </text>
<text text-anchor="start" x="126" y="-6.5" font-family="Helvetica,sans-Serif" font-size="10.00"> </text>
<polygon fill="#666666" stroke="#666666" points="0.5,-31.5 0.5,-31.5 255.5,-31.5 255.5,-31.5 0.5,-31.5"/>
<polygon fill="#666666" stroke="#666666" points="0.5,-16.5 0.5,-16.5 255.5,-16.5 255.5,-16.5 0.5,-16.5"/>
<polygon fill="none" stroke="#666666" points="0,0 0,-115 255,-115 255,0 0,0"/>
</a>
</g>
</g>
<!-- Node2 -->
<g id="Node000002" class="node">
<title>Node2</title>
<g id="a_Node000002"><a xlink:title=" ">
<polygon fill="white" stroke="transparent" points="166.5,-200 88.5,-200 88.5,-151 166.5,-151 166.5,-200"/>
<text text-anchor="start" x="93.5" y="-187.5" font-family="Helvetica,sans-Serif" font-size="10.00">std::true_type</text>
<text text-anchor="start" x="125.5" y="-172.5" font-family="Helvetica,sans-Serif" font-size="10.00"> </text>
<text text-anchor="start" x="125.5" y="-157.5" font-family="Helvetica,sans-Serif" font-size="10.00"> </text>
<polygon fill="#666666" stroke="#666666" points="88.5,-182.5 88.5,-182.5 166.5,-182.5 166.5,-182.5 88.5,-182.5"/>
<polygon fill="#666666" stroke="#666666" points="88.5,-167.5 88.5,-167.5 166.5,-167.5 166.5,-167.5 88.5,-167.5"/>
<polygon fill="none" stroke="#666666" points="88.5,-151 88.5,-200 166.5,-200 166.5,-151 88.5,-151"/>
</a>
</g>
</g>
<!-- Node2&#45;&gt;Node1 -->
<g id="edge1_Node000001_Node000002" class="edge">
<title>Node2&#45;&gt;Node1</title>
<g id="a_edge1_Node000001_Node000002"><a xlink:title=" ">
<path fill="none" stroke="#63b8ff" d="M127.5,-140.73C127.5,-132.73 127.5,-123.99 127.5,-115.28"/>
<polygon fill="none" stroke="#63b8ff" points="124,-140.75 127.5,-150.75 131,-140.75 124,-140.75"/>
</a>
</g>
</g>
</g>
</svg>
