<?xml version="1.0" encoding="UTF-8" standalone="no"?>
<!DOCTYPE svg PUBLIC "-//W3C//DTD SVG 1.1//EN"
 "http://www.w3.org/Graphics/SVG/1.1/DTD/svg11.dtd">
<!-- Generated by graphviz version 2.43.0 (0)
 -->
<!-- Title: alps::ros2::type::IsSingleElementStdMsgsType&lt; RosTopicType, typename, typename &gt; Pages: 1 -->
<svg width="208pt" height="182pt"
 viewBox="0.00 0.00 208.00 182.00" xmlns="http://www.w3.org/2000/svg" xmlns:xlink="http://www.w3.org/1999/xlink">
<g id="graph0" class="graph" transform="scale(1 1) rotate(0) translate(4 178)">
<title>alps::ros2::type::IsSingleElementStdMsgsType&lt; RosTopicType, typename, typename &gt;</title>
<polygon fill="white" stroke="transparent" points="-4,4 -4,-178 204,-178 204,4 -4,4"/>
<!-- Node1 -->
<g id="node1" class="node">
<title>Node1</title>
<g id="a_node1"><a xlink:title="std_msgs::msg名前空間内のデータを1つだけ持つ型かどうかを判定する型述語 例) std_msgs::msg::Bool, std_msgs::msg::Float32MultiArray">
<polygon fill="#bfbfbf" stroke="black" points="0,-0.5 0,-79.5 200,-79.5 200,-0.5 0,-0.5"/>
<text text-anchor="start" x="8" y="-67.5" font-family="Helvetica,sans-Serif" font-size="10.00">alps::ros2::type::IsSingle</text>
<text text-anchor="start" x="8" y="-56.5" font-family="Helvetica,sans-Serif" font-size="10.00">ElementStdMsgsType&lt; RosTopicType,</text>
<text text-anchor="middle" x="100" y="-45.5" font-family="Helvetica,sans-Serif" font-size="10.00"> typename, typename &gt;</text>
<polyline fill="none" stroke="black" points="0,-38.5 200,-38.5 "/>
<text text-anchor="middle" x="100" y="-26.5" font-family="Helvetica,sans-Serif" font-size="10.00"> </text>
<polyline fill="none" stroke="black" points="0,-19.5 200,-19.5 "/>
<text text-anchor="middle" x="100" y="-7.5" font-family="Helvetica,sans-Serif" font-size="10.00"> </text>
</a>
</g>
</g>
<!-- Node2 -->
<g id="node2" class="node">
<title>Node2</title>
<g id="a_node2"><a xlink:title=" ">
<polygon fill="white" stroke="#bfbfbf" points="55.5,-116.5 55.5,-173.5 144.5,-173.5 144.5,-116.5 55.5,-116.5"/>
<text text-anchor="middle" x="100" y="-161.5" font-family="Helvetica,sans-Serif" font-size="10.00">std::false_type</text>
<polyline fill="none" stroke="#bfbfbf" points="55.5,-154.5 144.5,-154.5 "/>
<text text-anchor="middle" x="100" y="-142.5" font-family="Helvetica,sans-Serif" font-size="10.00"> </text>
<polyline fill="none" stroke="#bfbfbf" points="55.5,-135.5 144.5,-135.5 "/>
<text text-anchor="middle" x="100" y="-123.5" font-family="Helvetica,sans-Serif" font-size="10.00"> </text>
</a>
</g>
</g>
<!-- Node2&#45;&gt;Node1 -->
<g id="edge1" class="edge">
<title>Node2&#45;&gt;Node1</title>
<path fill="none" stroke="midnightblue" d="M100,-106.16C100,-97.47 100,-88.23 100,-79.52"/>
<polygon fill="none" stroke="midnightblue" points="96.5,-106.4 100,-116.4 103.5,-106.4 96.5,-106.4"/>
</g>
</g>
</svg>
