<?xml version="1.0" encoding="UTF-8" standalone="no"?>
<!DOCTYPE svg PUBLIC "-//W3C//DTD SVG 1.1//EN"
 "http://www.w3.org/Graphics/SVG/1.1/DTD/svg11.dtd">
<!-- Generated by graphviz version 2.43.0 (0)
 -->
<!-- Title: alps::cmn::type::HasValueType&lt; T, std::void_t&lt; typename T::value_type &gt; &gt; Pages: 1 -->
<svg width="176pt" height="164pt"
 viewBox="0.00 0.00 176.00 164.00" xmlns="http://www.w3.org/2000/svg" xmlns:xlink="http://www.w3.org/1999/xlink">
<g id="graph0" class="graph" transform="scale(1 1) rotate(0) translate(4 160)">
<title>alps::cmn::type::HasValueType&lt; T, std::void_t&lt; typename T::value_type &gt; &gt;</title>
<!-- Node1 -->
<g id="Node000001" class="node">
<title>Node1</title>
<g id="a_Node000001"><a xlink:title=" ">
<polygon fill="#999999" stroke="transparent" points="168,-71 0,-71 0,0 168,0 168,-71"/>
<text text-anchor="start" x="5" y="-58.5" font-family="Helvetica,sans-Serif" font-size="10.00">alps::cmn::type::HasValue</text>
<text text-anchor="start" x="5" y="-47.5" font-family="Helvetica,sans-Serif" font-size="10.00">Type&lt; T, std::void_t&lt; typename</text>
<text text-anchor="start" x="38.5" y="-36.5" font-family="Helvetica,sans-Serif" font-size="10.00"> T::value_type &gt; &gt;</text>
<text text-anchor="start" x="82" y="-21.5" font-family="Helvetica,sans-Serif" font-size="10.00"> </text>
<text text-anchor="start" x="82" y="-6.5" font-family="Helvetica,sans-Serif" font-size="10.00"> </text>
<polygon fill="#666666" stroke="#666666" points="0,-31.5 0,-31.5 168,-31.5 168,-31.5 0,-31.5"/>
<polygon fill="#666666" stroke="#666666" points="0,-16.5 0,-16.5 168,-16.5 168,-16.5 0,-16.5"/>
<polygon fill="none" stroke="#666666" points="0,0 0,-71 168,-71 168,0 0,0"/>
</a>
</g>
</g>
<!-- Node2 -->
<g id="Node000002" class="node">
<title>Node2</title>
<g id="a_Node000002"><a xlink:title=" ">
<polygon fill="white" stroke="transparent" points="123,-156 45,-156 45,-107 123,-107 123,-156"/>
<text text-anchor="start" x="50" y="-143.5" font-family="Helvetica,sans-Serif" font-size="10.00">std::true_type</text>
<text text-anchor="start" x="82" y="-128.5" font-family="Helvetica,sans-Serif" font-size="10.00"> </text>
<text text-anchor="start" x="82" y="-113.5" font-family="Helvetica,sans-Serif" font-size="10.00"> </text>
<polygon fill="#666666" stroke="#666666" points="45,-138.5 45,-138.5 123,-138.5 123,-138.5 45,-138.5"/>
<polygon fill="#666666" stroke="#666666" points="45,-123.5 45,-123.5 123,-123.5 123,-123.5 45,-123.5"/>
<polygon fill="none" stroke="#666666" points="45,-107 45,-156 123,-156 123,-107 45,-107"/>
</a>
</g>
</g>
<!-- Node2&#45;&gt;Node1 -->
<g id="edge1_Node000001_Node000002" class="edge">
<title>Node2&#45;&gt;Node1</title>
<g id="a_edge1_Node000001_Node000002"><a xlink:title=" ">
<path fill="none" stroke="#63b8ff" d="M84,-96.7C84,-88.42 84,-79.55 84,-71.23"/>
<polygon fill="none" stroke="#63b8ff" points="80.5,-96.78 84,-106.78 87.5,-96.78 80.5,-96.78"/>
</a>
</g>
</g>
</g>
</svg>
