<?xml version="1.0" encoding="UTF-8" standalone="no"?>
<!DOCTYPE svg PUBLIC "-//W3C//DTD SVG 1.1//EN"
 "http://www.w3.org/Graphics/SVG/1.1/DTD/svg11.dtd">
<!-- Generated by graphviz version 2.43.0 (0)
 -->
<!-- Title: alps::ros2::type::IsSingleElementStdMsgsType&lt; RosTopicType, std::void_t&lt; typename RosTopicType::_data_type &gt;, std::enable_if_t&lt; std::is_same_v&lt; typename RosTopicType::_data_type, decltype(std::declval&lt; RosTopicType &gt;().data)&gt; &gt; &gt; Pages: 1 -->
<svg width="269pt" height="226pt"
 viewBox="0.00 0.00 269.00 226.00" xmlns="http://www.w3.org/2000/svg" xmlns:xlink="http://www.w3.org/1999/xlink">
<g id="graph0" class="graph" transform="scale(1 1) rotate(0) translate(4 222)">
<title>alps::ros2::type::IsSingleElementStdMsgsType&lt; RosTopicType, std::void_t&lt; typename RosTopicType::_data_type &gt;, std::enable_if_t&lt; std::is_same_v&lt; typename RosTopicType::_data_type, decltype(std::declval&lt; RosTopicType &gt;().data)&gt; &gt; &gt;</title>
<polygon fill="white" stroke="transparent" points="-4,4 -4,-222 265,-222 265,4 -4,4"/>
<!-- Node1 -->
<g id="node1" class="node">
<title>Node1</title>
<g id="a_node1"><a xlink:title=" ">
<polygon fill="#bfbfbf" stroke="black" points="0,-0.5 0,-123.5 261,-123.5 261,-0.5 0,-0.5"/>
<text text-anchor="start" x="8" y="-111.5" font-family="Helvetica,sans-Serif" font-size="10.00">alps::ros2::type::IsSingle</text>
<text text-anchor="start" x="8" y="-100.5" font-family="Helvetica,sans-Serif" font-size="10.00">ElementStdMsgsType&lt; RosTopicType,</text>
<text text-anchor="start" x="8" y="-89.5" font-family="Helvetica,sans-Serif" font-size="10.00"> std::void_t&lt; typename RosTopicType</text>
<text text-anchor="start" x="8" y="-78.5" font-family="Helvetica,sans-Serif" font-size="10.00">::_data_type &gt;, std::enable_if_t</text>
<text text-anchor="start" x="8" y="-67.5" font-family="Helvetica,sans-Serif" font-size="10.00">&lt; std::is_same_v&lt; typename RosTopicType</text>
<text text-anchor="start" x="8" y="-56.5" font-family="Helvetica,sans-Serif" font-size="10.00">::_data_type, decltype(std::declval&lt; RosTopicType</text>
<text text-anchor="middle" x="130.5" y="-45.5" font-family="Helvetica,sans-Serif" font-size="10.00"> &gt;().data)&gt; &gt; &gt;</text>
<polyline fill="none" stroke="black" points="0,-38.5 261,-38.5 "/>
<text text-anchor="middle" x="130.5" y="-26.5" font-family="Helvetica,sans-Serif" font-size="10.00"> </text>
<polyline fill="none" stroke="black" points="0,-19.5 261,-19.5 "/>
<text text-anchor="middle" x="130.5" y="-7.5" font-family="Helvetica,sans-Serif" font-size="10.00"> </text>
</a>
</g>
</g>
<!-- Node2 -->
<g id="node2" class="node">
<title>Node2</title>
<g id="a_node2"><a xlink:title=" ">
<polygon fill="white" stroke="#bfbfbf" points="88.5,-160.5 88.5,-217.5 172.5,-217.5 172.5,-160.5 88.5,-160.5"/>
<text text-anchor="middle" x="130.5" y="-205.5" font-family="Helvetica,sans-Serif" font-size="10.00">std::true_type</text>
<polyline fill="none" stroke="#bfbfbf" points="88.5,-198.5 172.5,-198.5 "/>
<text text-anchor="middle" x="130.5" y="-186.5" font-family="Helvetica,sans-Serif" font-size="10.00"> </text>
<polyline fill="none" stroke="#bfbfbf" points="88.5,-179.5 172.5,-179.5 "/>
<text text-anchor="middle" x="130.5" y="-167.5" font-family="Helvetica,sans-Serif" font-size="10.00"> </text>
</a>
</g>
</g>
<!-- Node2&#45;&gt;Node1 -->
<g id="edge1" class="edge">
<title>Node2&#45;&gt;Node1</title>
<path fill="none" stroke="midnightblue" d="M130.5,-150.1C130.5,-141.74 130.5,-132.68 130.5,-123.67"/>
<polygon fill="none" stroke="midnightblue" points="127,-150.26 130.5,-160.26 134,-150.26 127,-150.26"/>
</g>
</g>
</svg>
