<?xml version="1.0" encoding="UTF-8" standalone="no"?>
<!DOCTYPE svg PUBLIC "-//W3C//DTD SVG 1.1//EN"
 "http://www.w3.org/Graphics/SVG/1.1/DTD/svg11.dtd">
<!-- Generated by graphviz version 2.43.0 (0)
 -->
<!-- Title: alps::cmn::type::HasClear&lt; T, std::void_t&lt; decltype(std::declval&lt; T &gt;().clear())&gt; &gt; Pages: 1 -->
<svg width="172pt" height="164pt"
 viewBox="0.00 0.00 172.00 164.00" xmlns="http://www.w3.org/2000/svg" xmlns:xlink="http://www.w3.org/1999/xlink">
<g id="graph0" class="graph" transform="scale(1 1) rotate(0) translate(4 160)">
<title>alps::cmn::type::HasClear&lt; T, std::void_t&lt; decltype(std::declval&lt; T &gt;().clear())&gt; &gt;</title>
<!-- Node1 -->
<g id="Node000001" class="node">
<title>Node1</title>
<g id="a_Node000001"><a xlink:title=" ">
<polygon fill="#999999" stroke="transparent" points="164,-71 0,-71 0,0 164,0 164,-71"/>
<text text-anchor="start" x="5" y="-58.5" font-family="Helvetica,sans-Serif" font-size="10.00">alps::cmn::type::HasClear</text>
<text text-anchor="start" x="5" y="-47.5" font-family="Helvetica,sans-Serif" font-size="10.00">&lt; T, std::void_t&lt; decltype</text>
<text text-anchor="start" x="5" y="-36.5" font-family="Helvetica,sans-Serif" font-size="10.00">(std::declval&lt; T &gt;().clear())&gt; &gt;</text>
<text text-anchor="start" x="80" y="-21.5" font-family="Helvetica,sans-Serif" font-size="10.00"> </text>
<text text-anchor="start" x="80" y="-6.5" font-family="Helvetica,sans-Serif" font-size="10.00"> </text>
<polygon fill="#666666" stroke="#666666" points="0,-31.5 0,-31.5 164,-31.5 164,-31.5 0,-31.5"/>
<polygon fill="#666666" stroke="#666666" points="0,-16.5 0,-16.5 164,-16.5 164,-16.5 0,-16.5"/>
<polygon fill="none" stroke="#666666" points="0,0 0,-71 164,-71 164,0 0,0"/>
</a>
</g>
</g>
<!-- Node2 -->
<g id="Node000002" class="node">
<title>Node2</title>
<g id="a_Node000002"><a xlink:title=" ">
<polygon fill="white" stroke="transparent" points="121,-156 43,-156 43,-107 121,-107 121,-156"/>
<text text-anchor="start" x="48" y="-143.5" font-family="Helvetica,sans-Serif" font-size="10.00">std::true_type</text>
<text text-anchor="start" x="80" y="-128.5" font-family="Helvetica,sans-Serif" font-size="10.00"> </text>
<text text-anchor="start" x="80" y="-113.5" font-family="Helvetica,sans-Serif" font-size="10.00"> </text>
<polygon fill="#666666" stroke="#666666" points="43,-138.5 43,-138.5 121,-138.5 121,-138.5 43,-138.5"/>
<polygon fill="#666666" stroke="#666666" points="43,-123.5 43,-123.5 121,-123.5 121,-123.5 43,-123.5"/>
<polygon fill="none" stroke="#666666" points="43,-107 43,-156 121,-156 121,-107 43,-107"/>
</a>
</g>
</g>
<!-- Node2&#45;&gt;Node1 -->
<g id="edge1_Node000001_Node000002" class="edge">
<title>Node2&#45;&gt;Node1</title>
<g id="a_edge1_Node000001_Node000002"><a xlink:title=" ">
<path fill="none" stroke="#63b8ff" d="M82,-96.7C82,-88.42 82,-79.55 82,-71.23"/>
<polygon fill="none" stroke="#63b8ff" points="78.5,-96.78 82,-106.78 85.5,-96.78 78.5,-96.78"/>
</a>
</g>
</g>
</g>
</svg>
