<?xml version="1.0" encoding="UTF-8" standalone="no"?>
<!DOCTYPE svg PUBLIC "-//W3C//DTD SVG 1.1//EN"
 "http://www.w3.org/Graphics/SVG/1.1/DTD/svg11.dtd">
<!-- Generated by graphviz version 2.43.0 (0)
 -->
<!-- Title: alps::cmn::communication::SerializeTypeInfoBase&lt; is_serializable, is_single &gt; Pages: 1 -->
<svg width="164pt" height="369pt"
 viewBox="0.00 0.00 164.00 369.00" xmlns="http://www.w3.org/2000/svg" xmlns:xlink="http://www.w3.org/1999/xlink">
<g id="graph0" class="graph" transform="scale(1 1) rotate(0) translate(4 365)">
<title>alps::cmn::communication::SerializeTypeInfoBase&lt; is_serializable, is_single &gt;</title>
<!-- Node1 -->
<g id="node1" class="node">
<title>Node1</title>
<g id="a_node1"><a xlink:title="バイト列変換に関する型情報の基底">
<polygon fill="#999999" stroke="transparent" points="152,-361 0,-361 0,-260 152,-260 152,-361"/>
<text text-anchor="start" x="5" y="-348.5" font-family="Helvetica,sans-Serif" font-size="10.00">alps::cmn::communication</text>
<text text-anchor="start" x="5" y="-337.5" font-family="Helvetica,sans-Serif" font-size="10.00">::SerializeTypeInfoBase</text>
<text text-anchor="start" x="5" y="-326.5" font-family="Helvetica,sans-Serif" font-size="10.00">&lt; is_serializable, is_single &gt;</text>
<text text-anchor="start" x="72.5" y="-311.5" font-family="Helvetica,sans-Serif" font-size="10.00"> </text>
<text text-anchor="start" x="18.5" y="-296.5" font-family="Helvetica,sans-Serif" font-size="10.00">+</text>
<text text-anchor="start" x="46" y="-296.5" font-family="Helvetica,sans-Serif" font-size="10.00">IsSerializable()</text>
<text text-anchor="start" x="18.5" y="-281.5" font-family="Helvetica,sans-Serif" font-size="10.00">+</text>
<text text-anchor="start" x="46" y="-281.5" font-family="Helvetica,sans-Serif" font-size="10.00">IsSingle()</text>
<text text-anchor="start" x="18.5" y="-266.5" font-family="Helvetica,sans-Serif" font-size="10.00">+</text>
<text text-anchor="start" x="46" y="-266.5" font-family="Helvetica,sans-Serif" font-size="10.00">IsMultiple()</text>
<polygon fill="#666666" stroke="#666666" points="0,-321.5 0,-321.5 152,-321.5 152,-321.5 0,-321.5"/>
<polygon fill="#666666" stroke="#666666" points="0,-306.5 0,-306.5 152,-306.5 152,-306.5 0,-306.5"/>
<polygon fill="none" stroke="#666666" points="0,-260 0,-361 152,-361 152,-260 0,-260"/>
</a>
</g>
</g>
<!-- Node2 -->
<g id="node2" class="node">
<title>Node2</title>
<g id="a_node2"><a xlink:href="structalps_1_1cmn_1_1communication_1_1_serialize_type_info_base.html" target="_top" xlink:title=" ">
<polygon fill="white" stroke="transparent" points="146,-213 6,-213 6,-112 146,-112 146,-213"/>
<text text-anchor="start" x="11" y="-200.5" font-family="Helvetica,sans-Serif" font-size="10.00">alps::cmn::communication</text>
<text text-anchor="start" x="11" y="-189.5" font-family="Helvetica,sans-Serif" font-size="10.00">::SerializeTypeInfoBase</text>
<text text-anchor="start" x="37.5" y="-178.5" font-family="Helvetica,sans-Serif" font-size="10.00">&lt; false, false &gt;</text>
<text text-anchor="start" x="72.5" y="-163.5" font-family="Helvetica,sans-Serif" font-size="10.00"> </text>
<text text-anchor="start" x="21.5" y="-148.5" font-family="Helvetica,sans-Serif" font-size="10.00">+</text>
<text text-anchor="start" x="46" y="-148.5" font-family="Helvetica,sans-Serif" font-size="10.00">IsSerializable()</text>
<text text-anchor="start" x="21.5" y="-133.5" font-family="Helvetica,sans-Serif" font-size="10.00">+</text>
<text text-anchor="start" x="46" y="-133.5" font-family="Helvetica,sans-Serif" font-size="10.00">IsSingle()</text>
<text text-anchor="start" x="21.5" y="-118.5" font-family="Helvetica,sans-Serif" font-size="10.00">+</text>
<text text-anchor="start" x="46" y="-118.5" font-family="Helvetica,sans-Serif" font-size="10.00">IsMultiple()</text>
<polygon fill="#666666" stroke="#666666" points="6,-173.5 6,-173.5 146,-173.5 146,-173.5 6,-173.5"/>
<polygon fill="#666666" stroke="#666666" points="6,-158.5 6,-158.5 146,-158.5 146,-158.5 6,-158.5"/>
<polygon fill="none" stroke="#666666" points="6,-112 6,-213 146,-213 146,-112 6,-112"/>
</a>
</g>
</g>
<!-- Node1&#45;&gt;Node2 -->
<g id="edge1" class="edge">
<title>Node1&#45;&gt;Node2</title>
<path fill="none" stroke="orange" d="M76,-249.62C76,-237.48 76,-224.85 76,-213.11"/>
<polygon fill="orange" stroke="orange" points="72.5,-249.66 76,-259.66 79.5,-249.66 72.5,-249.66"/>
<text text-anchor="middle" x="116" y="-234" font-family="Helvetica,sans-Serif" font-size="10.00" fill="grey"> &lt; false, false &gt;</text>
</g>
<!-- Node3 -->
<g id="node3" class="node">
<title>Node3</title>
<g id="a_node3"><a xlink:href="structalps_1_1cmn_1_1communication_1_1_serialize_type_info.html" target="_top" xlink:title="型のバイト列変換に関する情報">
<polygon fill="white" stroke="transparent" points="146,-75 6,-75 6,0 146,0 146,-75"/>
<text text-anchor="start" x="11" y="-62.5" font-family="Helvetica,sans-Serif" font-size="10.00">alps::cmn::communication</text>
<text text-anchor="start" x="17" y="-51.5" font-family="Helvetica,sans-Serif" font-size="10.00">::SerializeTypeInfo&lt; T &gt;</text>
<text text-anchor="start" x="72.5" y="-36.5" font-family="Helvetica,sans-Serif" font-size="10.00"> </text>
<text text-anchor="start" x="14.5" y="-21.5" font-family="Helvetica,sans-Serif" font-size="10.00">+</text>
<text text-anchor="start" x="32" y="-21.5" font-family="Helvetica,sans-Serif" font-size="10.00">GetName()</text>
<text text-anchor="start" x="14.5" y="-6.5" font-family="Helvetica,sans-Serif" font-size="10.00">+</text>
<text text-anchor="start" x="32" y="-6.5" font-family="Helvetica,sans-Serif" font-size="10.00">RequiredBytesSize()</text>
<polygon fill="#666666" stroke="#666666" points="6,-46.5 6,-46.5 146,-46.5 146,-46.5 6,-46.5"/>
<polygon fill="#666666" stroke="#666666" points="6,-31.5 6,-31.5 146,-31.5 146,-31.5 6,-31.5"/>
<polygon fill="none" stroke="#666666" points="6,0 6,-75 146,-75 146,0 6,0"/>
</a>
</g>
</g>
<!-- Node2&#45;&gt;Node3 -->
<g id="edge2" class="edge">
<title>Node2&#45;&gt;Node3</title>
<path fill="none" stroke="#63b8ff" d="M76,-101.66C76,-92.6 76,-83.49 76,-75.12"/>
<polygon fill="none" stroke="#63b8ff" points="72.5,-101.83 76,-111.83 79.5,-101.83 72.5,-101.83"/>
</g>
</g>
</svg>
