<?xml version="1.0" encoding="UTF-8" standalone="no"?>
<!DOCTYPE svg PUBLIC "-//W3C//DTD SVG 1.1//EN"
 "http://www.w3.org/Graphics/SVG/1.1/DTD/svg11.dtd">
<!-- Generated by graphviz version 2.43.0 (0)
 -->
<!-- Title: alps_core/lib_internal/alps_common_lib/include/alps_cmn/time/timeout_checker.hpp Pages: 1 -->
<svg width="991pt" height="137pt"
 viewBox="0.00 0.00 990.50 137.00" xmlns="http://www.w3.org/2000/svg" xmlns:xlink="http://www.w3.org/1999/xlink">
<g id="graph0" class="graph" transform="scale(1 1) rotate(0) translate(4 133)">
<title>alps_core/lib_internal/alps_common_lib/include/alps_cmn/time/timeout_checker.hpp</title>
<!-- Node1 -->
<g id="Node000001" class="node">
<title>Node1</title>
<g id="a_Node000001"><a xlink:title="タイムアウトを検知するクラス">
<polygon fill="#999999" stroke="#666666" points="595.5,-129 399.5,-129 399.5,-88 595.5,-88 595.5,-129"/>
<text text-anchor="start" x="407.5" y="-117" font-family="Helvetica,sans-Serif" font-size="10.00">alps_core/lib_internal</text>
<text text-anchor="start" x="407.5" y="-106" font-family="Helvetica,sans-Serif" font-size="10.00">/alps_common_lib/include</text>
<text text-anchor="middle" x="497.5" y="-95" font-family="Helvetica,sans-Serif" font-size="10.00">/alps_cmn/time/timeout_checker.hpp</text>
</a>
</g>
</g>
<!-- Node2 -->
<g id="Node000002" class="node">
<title>Node2</title>
<g id="a_Node000002"><a xlink:href="esc__bldc__motor_8hpp.html" target="_top" xlink:title="ESCで動かすブラシレスDCモーター">
<polygon fill="white" stroke="#666666" points="155,-52 0,-52 0,0 155,0 155,-52"/>
<text text-anchor="start" x="8" y="-40" font-family="Helvetica,sans-Serif" font-size="10.00">alps_core/lib_internal</text>
<text text-anchor="start" x="8" y="-29" font-family="Helvetica,sans-Serif" font-size="10.00">/alps_common_lib/include</text>
<text text-anchor="start" x="8" y="-18" font-family="Helvetica,sans-Serif" font-size="10.00">/alps_cmn/actuator/esc_bldc</text>
<text text-anchor="middle" x="77.5" y="-7" font-family="Helvetica,sans-Serif" font-size="10.00">_motor.hpp</text>
</a>
</g>
</g>
<!-- Node1&#45;&gt;Node2 -->
<g id="edge1_Node000001_Node000002" class="edge">
<title>Node1&#45;&gt;Node2</title>
<g id="a_edge1_Node000001_Node000002"><a xlink:title=" ">
<path fill="none" stroke="#63b8ff" d="M389.39,-92.85C323.69,-83.12 238.32,-69.03 163.5,-52 160.77,-51.38 158,-50.72 155.21,-50.04"/>
<polygon fill="#63b8ff" stroke="#63b8ff" points="388.95,-96.32 399.35,-94.31 389.97,-89.39 388.95,-96.32"/>
</a>
</g>
</g>
<!-- Node3 -->
<g id="Node000003" class="node">
<title>Node3</title>
<g id="a_Node000003"><a xlink:href="robomas__motor_8hpp.html" target="_top" xlink:title="ロボマスモータのライブラリ">
<polygon fill="white" stroke="#666666" points="328,-52 173,-52 173,0 328,0 328,-52"/>
<text text-anchor="start" x="181" y="-40" font-family="Helvetica,sans-Serif" font-size="10.00">alps_core/lib_internal</text>
<text text-anchor="start" x="181" y="-29" font-family="Helvetica,sans-Serif" font-size="10.00">/alps_common_lib/include</text>
<text text-anchor="start" x="181" y="-18" font-family="Helvetica,sans-Serif" font-size="10.00">/alps_cmn/actuator/robomas</text>
<text text-anchor="middle" x="250.5" y="-7" font-family="Helvetica,sans-Serif" font-size="10.00">_motor.hpp</text>
</a>
</g>
</g>
<!-- Node1&#45;&gt;Node3 -->
<g id="edge2_Node000001_Node000003" class="edge">
<title>Node1&#45;&gt;Node3</title>
<g id="a_edge2_Node000001_Node000003"><a xlink:title=" ">
<path fill="none" stroke="#63b8ff" d="M427.87,-84.81C396.54,-74.6 359.46,-62.51 327.32,-52.04"/>
<polygon fill="#63b8ff" stroke="#63b8ff" points="426.8,-88.14 437.39,-87.91 428.97,-81.48 426.8,-88.14"/>
</a>
</g>
</g>
<!-- Node4 -->
<g id="Node000004" class="node">
<title>Node4</title>
<g id="a_Node000004"><a xlink:href="one__shot__polling__timer_8hpp.html" target="_top" xlink:title="1回だけ実行するポーリングタイマー">
<polygon fill="white" stroke="#666666" points="489,-52 346,-52 346,0 489,0 489,-52"/>
<text text-anchor="start" x="354" y="-40" font-family="Helvetica,sans-Serif" font-size="10.00">alps_core/lib_internal</text>
<text text-anchor="start" x="354" y="-29" font-family="Helvetica,sans-Serif" font-size="10.00">/alps_common_lib/include</text>
<text text-anchor="start" x="354" y="-18" font-family="Helvetica,sans-Serif" font-size="10.00">/alps_cmn/time/one_shot</text>
<text text-anchor="middle" x="417.5" y="-7" font-family="Helvetica,sans-Serif" font-size="10.00">_polling_timer.hpp</text>
</a>
</g>
</g>
<!-- Node1&#45;&gt;Node4 -->
<g id="edge3_Node000001_Node000004" class="edge">
<title>Node1&#45;&gt;Node4</title>
<g id="a_edge3_Node000001_Node000004"><a xlink:title=" ">
<path fill="none" stroke="#63b8ff" d="M470.42,-80.25C461.38,-71.16 451.37,-61.08 442.5,-52.16"/>
<polygon fill="#63b8ff" stroke="#63b8ff" points="468.19,-82.98 477.72,-87.6 473.16,-78.04 468.19,-82.98"/>
</a>
</g>
</g>
<!-- Node5 -->
<g id="Node000005" class="node">
<title>Node5</title>
<g id="a_Node000005"><a xlink:href="repeating__polling__timer_8hpp.html" target="_top" xlink:title="繰り返し実行するポーリングタイマー">
<polygon fill="white" stroke="#666666" points="650,-52 507,-52 507,0 650,0 650,-52"/>
<text text-anchor="start" x="515" y="-40" font-family="Helvetica,sans-Serif" font-size="10.00">alps_core/lib_internal</text>
<text text-anchor="start" x="515" y="-29" font-family="Helvetica,sans-Serif" font-size="10.00">/alps_common_lib/include</text>
<text text-anchor="start" x="515" y="-18" font-family="Helvetica,sans-Serif" font-size="10.00">/alps_cmn/time/repeating</text>
<text text-anchor="middle" x="578.5" y="-7" font-family="Helvetica,sans-Serif" font-size="10.00">_polling_timer.hpp</text>
</a>
</g>
</g>
<!-- Node1&#45;&gt;Node5 -->
<g id="edge4_Node000001_Node000005" class="edge">
<title>Node1&#45;&gt;Node5</title>
<g id="a_edge4_Node000001_Node000005"><a xlink:title=" ">
<path fill="none" stroke="#63b8ff" d="M524.65,-80.52C533.87,-71.36 544.12,-61.17 553.19,-52.16"/>
<polygon fill="#63b8ff" stroke="#63b8ff" points="522.15,-78.07 517.52,-87.6 527.08,-83.03 522.15,-78.07"/>
</a>
</g>
</g>
<!-- Node6 -->
<g id="Node000006" class="node">
<title>Node6</title>
<g id="a_Node000006"><a xlink:href="motor__friction__analyzer_8hpp.html" target="_top" xlink:title="モーター軸の摩擦力を計測するクラス">
<polygon fill="white" stroke="#666666" points="828.5,-52 668.5,-52 668.5,0 828.5,0 828.5,-52"/>
<text text-anchor="start" x="676.5" y="-40" font-family="Helvetica,sans-Serif" font-size="10.00">alps_core/lib_internal</text>
<text text-anchor="start" x="676.5" y="-29" font-family="Helvetica,sans-Serif" font-size="10.00">/alps_common_lib/include</text>
<text text-anchor="start" x="676.5" y="-18" font-family="Helvetica,sans-Serif" font-size="10.00">/alps_cmn/tool/motor_friction</text>
<text text-anchor="middle" x="748.5" y="-7" font-family="Helvetica,sans-Serif" font-size="10.00">_analyzer.hpp</text>
</a>
</g>
</g>
<!-- Node1&#45;&gt;Node6 -->
<g id="edge5_Node000001_Node000006" class="edge">
<title>Node1&#45;&gt;Node6</title>
<g id="a_edge5_Node000001_Node000006"><a xlink:title=" ">
<path fill="none" stroke="#63b8ff" d="M568.26,-84.81C600.1,-74.6 637.78,-62.51 670.43,-52.04"/>
<polygon fill="#63b8ff" stroke="#63b8ff" points="567.03,-81.52 558.58,-87.91 569.17,-88.19 567.03,-81.52"/>
</a>
</g>
</g>
<!-- Node7 -->
<g id="Node000007" class="node">
<title>Node7</title>
<g id="a_Node000007"><a xlink:href="socket__can__io_8hpp.html" target="_top" xlink:title=" ">
<polygon fill="white" stroke="#666666" points="982.5,-52 846.5,-52 846.5,0 982.5,0 982.5,-52"/>
<text text-anchor="start" x="854.5" y="-40" font-family="Helvetica,sans-Serif" font-size="10.00">alps_core/lib_internal</text>
<text text-anchor="start" x="854.5" y="-29" font-family="Helvetica,sans-Serif" font-size="10.00">/alps_linux_lib/include</text>
<text text-anchor="start" x="854.5" y="-18" font-family="Helvetica,sans-Serif" font-size="10.00">/alps_lin/communication</text>
<text text-anchor="middle" x="914.5" y="-7" font-family="Helvetica,sans-Serif" font-size="10.00">/socket_can_io.hpp</text>
</a>
</g>
</g>
<!-- Node1&#45;&gt;Node7 -->
<g id="edge6_Node000001_Node000007" class="edge">
<title>Node1&#45;&gt;Node7</title>
<g id="a_edge6_Node000001_Node000007"><a xlink:title=" ">
<path fill="none" stroke="#63b8ff" d="M605.93,-94.09C673.13,-84.72 760.93,-70.57 837.5,-52 840.37,-51.3 843.28,-50.55 846.22,-49.76"/>
<polygon fill="#63b8ff" stroke="#63b8ff" points="605.18,-90.66 595.75,-95.49 606.14,-97.59 605.18,-90.66"/>
</a>
</g>
</g>
</g>
</svg>
