<?xml version="1.0" encoding="UTF-8" standalone="no"?>
<!DOCTYPE svg PUBLIC "-//W3C//DTD SVG 1.1//EN"
 "http://www.w3.org/Graphics/SVG/1.1/DTD/svg11.dtd">
<!-- Generated by graphviz version 2.43.0 (0)
 -->
<!-- Title: alps_core/lib_internal/alps_common_lib/include/alps_cmn/time/timeout_checker.hpp Pages: 1 -->
<svg width="1159pt" height="137pt"
 viewBox="0.00 0.00 1158.50 137.00" xmlns="http://www.w3.org/2000/svg" xmlns:xlink="http://www.w3.org/1999/xlink">
<g id="graph0" class="graph" transform="scale(1 1) rotate(0) translate(4 133)">
<title>alps_core/lib_internal/alps_common_lib/include/alps_cmn/time/timeout_checker.hpp</title>
<!-- Node1 -->
<g id="Node000001" class="node">
<title>Node1</title>
<g id="a_Node000001"><a xlink:title="タイムアウトを検知するクラス">
<polygon fill="#999999" stroke="#666666" points="676.5,-129 480.5,-129 480.5,-88 676.5,-88 676.5,-129"/>
<text text-anchor="start" x="488.5" y="-117" font-family="Helvetica,sans-Serif" font-size="10.00">alps_core/lib_internal</text>
<text text-anchor="start" x="488.5" y="-106" font-family="Helvetica,sans-Serif" font-size="10.00">/alps_common_lib/include</text>
<text text-anchor="middle" x="578.5" y="-95" font-family="Helvetica,sans-Serif" font-size="10.00">/alps_cmn/time/timeout_checker.hpp</text>
</a>
</g>
</g>
<!-- Node2 -->
<g id="Node000002" class="node">
<title>Node2</title>
<g id="a_Node000002"><a xlink:href="esc__bldc__motor_8hpp.html" target="_top" xlink:title="ESCで動かすブラシレスDCモーター">
<polygon fill="white" stroke="#666666" points="155,-52 0,-52 0,0 155,0 155,-52"/>
<text text-anchor="start" x="8" y="-40" font-family="Helvetica,sans-Serif" font-size="10.00">alps_core/lib_internal</text>
<text text-anchor="start" x="8" y="-29" font-family="Helvetica,sans-Serif" font-size="10.00">/alps_common_lib/include</text>
<text text-anchor="start" x="8" y="-18" font-family="Helvetica,sans-Serif" font-size="10.00">/alps_cmn/actuator/esc_bldc</text>
<text text-anchor="middle" x="77.5" y="-7" font-family="Helvetica,sans-Serif" font-size="10.00">_motor.hpp</text>
</a>
</g>
</g>
<!-- Node1&#45;&gt;Node2 -->
<g id="edge1_Node000001_Node000002" class="edge">
<title>Node1&#45;&gt;Node2</title>
<g id="a_edge1_Node000001_Node000002"><a xlink:title=" ">
<path fill="none" stroke="#63b8ff" d="M470.02,-97.49C385.84,-88.64 266.53,-73.74 163.5,-52 160.76,-51.42 157.98,-50.8 155.18,-50.15"/>
<polygon fill="#63b8ff" stroke="#63b8ff" points="469.8,-100.99 480.11,-98.54 470.52,-94.03 469.8,-100.99"/>
</a>
</g>
</g>
<!-- Node3 -->
<g id="Node000003" class="node">
<title>Node3</title>
<g id="a_Node000003"><a xlink:href="robomas__motor_8hpp.html" target="_top" xlink:title="ロボマスモータのライブラリ">
<polygon fill="white" stroke="#666666" points="328,-52 173,-52 173,0 328,0 328,-52"/>
<text text-anchor="start" x="181" y="-40" font-family="Helvetica,sans-Serif" font-size="10.00">alps_core/lib_internal</text>
<text text-anchor="start" x="181" y="-29" font-family="Helvetica,sans-Serif" font-size="10.00">/alps_common_lib/include</text>
<text text-anchor="start" x="181" y="-18" font-family="Helvetica,sans-Serif" font-size="10.00">/alps_cmn/actuator/robomas</text>
<text text-anchor="middle" x="250.5" y="-7" font-family="Helvetica,sans-Serif" font-size="10.00">_motor.hpp</text>
</a>
</g>
</g>
<!-- Node1&#45;&gt;Node3 -->
<g id="edge2_Node000001_Node000003" class="edge">
<title>Node1&#45;&gt;Node3</title>
<g id="a_edge2_Node000001_Node000003"><a xlink:title=" ">
<path fill="none" stroke="#63b8ff" d="M477.67,-85.74C434.11,-75.98 382.66,-63.99 336.5,-52 333.79,-51.3 331.04,-50.57 328.26,-49.82"/>
<polygon fill="#63b8ff" stroke="#63b8ff" points="477.18,-89.21 487.7,-87.97 478.7,-82.38 477.18,-89.21"/>
</a>
</g>
</g>
<!-- Node4 -->
<g id="Node000004" class="node">
<title>Node4</title>
<g id="a_Node000004"><a xlink:href="one__shot__polling__timer_8hpp.html" target="_top" xlink:title="1回だけ実行するポーリングタイマー">
<polygon fill="white" stroke="#666666" points="489,-52 346,-52 346,0 489,0 489,-52"/>
<text text-anchor="start" x="354" y="-40" font-family="Helvetica,sans-Serif" font-size="10.00">alps_core/lib_internal</text>
<text text-anchor="start" x="354" y="-29" font-family="Helvetica,sans-Serif" font-size="10.00">/alps_common_lib/include</text>
<text text-anchor="start" x="354" y="-18" font-family="Helvetica,sans-Serif" font-size="10.00">/alps_cmn/time/one_shot</text>
<text text-anchor="middle" x="417.5" y="-7" font-family="Helvetica,sans-Serif" font-size="10.00">_polling_timer.hpp</text>
</a>
</g>
</g>
<!-- Node1&#45;&gt;Node4 -->
<g id="edge3_Node000001_Node000004" class="edge">
<title>Node1&#45;&gt;Node4</title>
<g id="a_edge3_Node000001_Node000004"><a xlink:title=" ">
<path fill="none" stroke="#63b8ff" d="M530.02,-83.26C510.34,-73.42 487.61,-62.06 467.75,-52.13"/>
<polygon fill="#63b8ff" stroke="#63b8ff" points="528.61,-86.47 539.11,-87.81 531.74,-80.2 528.61,-86.47"/>
</a>
</g>
</g>
<!-- Node5 -->
<g id="Node000005" class="node">
<title>Node5</title>
<g id="a_Node000005"><a xlink:href="repeating__polling__timer_8hpp.html" target="_top" xlink:title="繰り返し実行するポーリングタイマー">
<polygon fill="white" stroke="#666666" points="650,-52 507,-52 507,0 650,0 650,-52"/>
<text text-anchor="start" x="515" y="-40" font-family="Helvetica,sans-Serif" font-size="10.00">alps_core/lib_internal</text>
<text text-anchor="start" x="515" y="-29" font-family="Helvetica,sans-Serif" font-size="10.00">/alps_common_lib/include</text>
<text text-anchor="start" x="515" y="-18" font-family="Helvetica,sans-Serif" font-size="10.00">/alps_cmn/time/repeating</text>
<text text-anchor="middle" x="578.5" y="-7" font-family="Helvetica,sans-Serif" font-size="10.00">_polling_timer.hpp</text>
</a>
</g>
</g>
<!-- Node1&#45;&gt;Node5 -->
<g id="edge4_Node000001_Node000005" class="edge">
<title>Node1&#45;&gt;Node5</title>
<g id="a_edge4_Node000001_Node000005"><a xlink:title=" ">
<path fill="none" stroke="#63b8ff" d="M578.5,-77.49C578.5,-69.15 578.5,-60.19 578.5,-52.16"/>
<polygon fill="#63b8ff" stroke="#63b8ff" points="575,-77.6 578.5,-87.6 582,-77.6 575,-77.6"/>
</a>
</g>
</g>
<!-- Node6 -->
<g id="Node000006" class="node">
<title>Node6</title>
<g id="a_Node000006"><a xlink:href="motor__friction__analyzer_8hpp.html" target="_top" xlink:title="モーター軸の摩擦力を計測するクラス">
<polygon fill="white" stroke="#666666" points="828.5,-52 668.5,-52 668.5,0 828.5,0 828.5,-52"/>
<text text-anchor="start" x="676.5" y="-40" font-family="Helvetica,sans-Serif" font-size="10.00">alps_core/lib_internal</text>
<text text-anchor="start" x="676.5" y="-29" font-family="Helvetica,sans-Serif" font-size="10.00">/alps_common_lib/include</text>
<text text-anchor="start" x="676.5" y="-18" font-family="Helvetica,sans-Serif" font-size="10.00">/alps_cmn/tool/motor_friction</text>
<text text-anchor="middle" x="748.5" y="-7" font-family="Helvetica,sans-Serif" font-size="10.00">_analyzer.hpp</text>
</a>
</g>
</g>
<!-- Node1&#45;&gt;Node6 -->
<g id="edge5_Node000001_Node000006" class="edge">
<title>Node1&#45;&gt;Node6</title>
<g id="a_edge5_Node000001_Node000006"><a xlink:title=" ">
<path fill="none" stroke="#63b8ff" d="M629.13,-83.53C650.04,-73.63 674.28,-62.14 695.44,-52.13"/>
<polygon fill="#63b8ff" stroke="#63b8ff" points="627.63,-80.36 620.09,-87.81 630.62,-86.69 627.63,-80.36"/>
</a>
</g>
</g>
<!-- Node7 -->
<g id="Node000007" class="node">
<title>Node7</title>
<g id="a_Node000007"><a xlink:href="socket__can__io_8hpp.html" target="_top" xlink:title=" ">
<polygon fill="white" stroke="#666666" points="982.5,-52 846.5,-52 846.5,0 982.5,0 982.5,-52"/>
<text text-anchor="start" x="854.5" y="-40" font-family="Helvetica,sans-Serif" font-size="10.00">alps_core/lib_internal</text>
<text text-anchor="start" x="854.5" y="-29" font-family="Helvetica,sans-Serif" font-size="10.00">/alps_linux_lib/include</text>
<text text-anchor="start" x="854.5" y="-18" font-family="Helvetica,sans-Serif" font-size="10.00">/alps_lin/communication</text>
<text text-anchor="middle" x="914.5" y="-7" font-family="Helvetica,sans-Serif" font-size="10.00">/socket_can_io.hpp</text>
</a>
</g>
</g>
<!-- Node1&#45;&gt;Node7 -->
<g id="edge6_Node000001_Node000007" class="edge">
<title>Node1&#45;&gt;Node7</title>
<g id="a_edge6_Node000001_Node000007"><a xlink:title=" ">
<path fill="none" stroke="#63b8ff" d="M686.37,-86.97C733.1,-77.41 788.26,-65.23 837.5,-52 840.35,-51.23 843.25,-50.43 846.18,-49.59"/>
<polygon fill="#63b8ff" stroke="#63b8ff" points="685.64,-83.55 676.54,-88.97 687.03,-90.41 685.64,-83.55"/>
</a>
</g>
</g>
<!-- Node8 -->
<g id="Node000008" class="node">
<title>Node8</title>
<g id="a_Node000008"><a xlink:href="odrive__can__func_8hpp.html" target="_top" xlink:title=" ">
<polygon fill="white" stroke="#666666" points="1150.5,-52 1000.5,-52 1000.5,0 1150.5,0 1150.5,-52"/>
<text text-anchor="start" x="1008.5" y="-40" font-family="Helvetica,sans-Serif" font-size="10.00">alps_core/lib_internal</text>
<text text-anchor="start" x="1008.5" y="-29" font-family="Helvetica,sans-Serif" font-size="10.00">/alps_mbed_lib/include</text>
<text text-anchor="start" x="1008.5" y="-18" font-family="Helvetica,sans-Serif" font-size="10.00">/alps_mbed/actuator/odrive</text>
<text text-anchor="middle" x="1075.5" y="-7" font-family="Helvetica,sans-Serif" font-size="10.00">_can_func.hpp</text>
</a>
</g>
</g>
<!-- Node1&#45;&gt;Node8 -->
<g id="edge7_Node000001_Node000008" class="edge">
<title>Node1&#45;&gt;Node8</title>
<g id="a_edge7_Node000001_Node000008"><a xlink:title=" ">
<path fill="none" stroke="#63b8ff" d="M686.91,-97.59C770.68,-88.82 889.2,-73.96 991.5,-52 994.33,-51.39 997.2,-50.74 1000.09,-50.05"/>
<polygon fill="#63b8ff" stroke="#63b8ff" points="686.46,-94.12 676.87,-98.63 687.18,-101.08 686.46,-94.12"/>
</a>
</g>
</g>
</g>
</svg>
