<?xml version="1.0" encoding="UTF-8" standalone="no"?>
<!DOCTYPE svg PUBLIC "-//W3C//DTD SVG 1.1//EN"
 "http://www.w3.org/Graphics/SVG/1.1/DTD/svg11.dtd">
<!-- Generated by graphviz version 2.43.0 (0)
 -->
<!-- Title: alps_common_lib/include/alps_cmn/time/timeout_checker.hpp Pages: 1 -->
<svg width="308pt" height="128pt"
 viewBox="0.00 0.00 307.50 128.00" xmlns="http://www.w3.org/2000/svg" xmlns:xlink="http://www.w3.org/1999/xlink">
<g id="graph0" class="graph" transform="scale(1 1) rotate(0) translate(4 124)">
<title>alps_common_lib/include/alps_cmn/time/timeout_checker.hpp</title>
<polygon fill="white" stroke="transparent" points="-4,4 -4,-124 303.5,-124 303.5,4 -4,4"/>
<!-- Node1 -->
<g id="node1" class="node">
<title>Node1</title>
<g id="a_node1"><a xlink:title="タイムアウトを検知するクラス">
<polygon fill="#bfbfbf" stroke="black" points="79,-78.5 79,-119.5 219,-119.5 219,-78.5 79,-78.5"/>
<text text-anchor="start" x="87" y="-107.5" font-family="Helvetica,sans-Serif" font-size="10.00">alps_common_lib/include</text>
<text text-anchor="start" x="87" y="-96.5" font-family="Helvetica,sans-Serif" font-size="10.00">/alps_cmn/time/timeout</text>
<text text-anchor="middle" x="149" y="-85.5" font-family="Helvetica,sans-Serif" font-size="10.00">_checker.hpp</text>
</a>
</g>
</g>
<!-- Node2 -->
<g id="node2" class="node">
<title>Node2</title>
<g id="a_node2"><a xlink:href="one__shot__polling__timer_8hpp.html" target="_top" xlink:title="1回だけ実行するポーリングタイマー">
<polygon fill="white" stroke="black" points="0,-0.5 0,-41.5 140,-41.5 140,-0.5 0,-0.5"/>
<text text-anchor="start" x="8" y="-29.5" font-family="Helvetica,sans-Serif" font-size="10.00">alps_common_lib/include</text>
<text text-anchor="start" x="8" y="-18.5" font-family="Helvetica,sans-Serif" font-size="10.00">/alps_cmn/time/one_shot</text>
<text text-anchor="middle" x="70" y="-7.5" font-family="Helvetica,sans-Serif" font-size="10.00">_polling_timer.hpp</text>
</a>
</g>
</g>
<!-- Node1&#45;&gt;Node2 -->
<g id="edge1" class="edge">
<title>Node1&#45;&gt;Node2</title>
<path fill="none" stroke="midnightblue" d="M121.45,-71.49C111.19,-61.63 99.76,-50.63 90.28,-41.51"/>
<polygon fill="midnightblue" stroke="midnightblue" points="119.02,-74.02 128.66,-78.43 123.88,-68.97 119.02,-74.02"/>
</g>
<!-- Node3 -->
<g id="node3" class="node">
<title>Node3</title>
<g id="a_node3"><a xlink:href="repeating__polling__timer_8hpp.html" target="_top" xlink:title="繰り返し実行するポーリングタイマー">
<polygon fill="white" stroke="black" points="158.5,-0.5 158.5,-41.5 299.5,-41.5 299.5,-0.5 158.5,-0.5"/>
<text text-anchor="start" x="166.5" y="-29.5" font-family="Helvetica,sans-Serif" font-size="10.00">alps_common_lib/include</text>
<text text-anchor="start" x="166.5" y="-18.5" font-family="Helvetica,sans-Serif" font-size="10.00">/alps_cmn/time/repeating</text>
<text text-anchor="middle" x="229" y="-7.5" font-family="Helvetica,sans-Serif" font-size="10.00">_polling_timer.hpp</text>
</a>
</g>
</g>
<!-- Node1&#45;&gt;Node3 -->
<g id="edge2" class="edge">
<title>Node1&#45;&gt;Node3</title>
<path fill="none" stroke="midnightblue" d="M176.9,-71.49C187.28,-61.63 198.87,-50.63 208.47,-41.51"/>
<polygon fill="midnightblue" stroke="midnightblue" points="174.44,-69 169.6,-78.43 179.26,-74.08 174.44,-69"/>
</g>
</g>
</svg>
