<?xml version="1.0" encoding="UTF-8" standalone="no"?>
<!DOCTYPE svg PUBLIC "-//W3C//DTD SVG 1.1//EN"
 "http://www.w3.org/Graphics/SVG/1.1/DTD/svg11.dtd">
<!-- Generated by graphviz version 2.43.0 (0)
 -->
<!-- Title: alps_common_lib/include/alps_cmn/time/timeout_checker.hpp Pages: 1 -->
<svg width="814pt" height="128pt"
 viewBox="0.00 0.00 813.50 128.00" xmlns="http://www.w3.org/2000/svg" xmlns:xlink="http://www.w3.org/1999/xlink">
<g id="graph0" class="graph" transform="scale(1 1) rotate(0) translate(4 124)">
<title>alps_common_lib/include/alps_cmn/time/timeout_checker.hpp</title>
<polygon fill="white" stroke="transparent" points="-4,4 -4,-124 809.5,-124 809.5,4 -4,4"/>
<!-- Node1 -->
<g id="node1" class="node">
<title>Node1</title>
<g id="a_node1"><a xlink:title="タイムアウトを検知するクラス">
<polygon fill="#bfbfbf" stroke="black" points="332.5,-78.5 332.5,-119.5 472.5,-119.5 472.5,-78.5 332.5,-78.5"/>
<text text-anchor="start" x="340.5" y="-107.5" font-family="Helvetica,sans-Serif" font-size="10.00">alps_common_lib/include</text>
<text text-anchor="start" x="340.5" y="-96.5" font-family="Helvetica,sans-Serif" font-size="10.00">/alps_cmn/time/timeout</text>
<text text-anchor="middle" x="402.5" y="-85.5" font-family="Helvetica,sans-Serif" font-size="10.00">_checker.hpp</text>
</a>
</g>
</g>
<!-- Node2 -->
<g id="node2" class="node">
<title>Node2</title>
<g id="a_node2"><a xlink:href="robomas__motor_8hpp.html" target="_top" xlink:title="ロボマスモータのライブラリ">
<polygon fill="white" stroke="black" points="0,-0.5 0,-41.5 155,-41.5 155,-0.5 0,-0.5"/>
<text text-anchor="start" x="8" y="-29.5" font-family="Helvetica,sans-Serif" font-size="10.00">alps_common_lib/include</text>
<text text-anchor="start" x="8" y="-18.5" font-family="Helvetica,sans-Serif" font-size="10.00">/alps_cmn/actuator/robomas</text>
<text text-anchor="middle" x="77.5" y="-7.5" font-family="Helvetica,sans-Serif" font-size="10.00">_motor.hpp</text>
</a>
</g>
</g>
<!-- Node1&#45;&gt;Node2 -->
<g id="edge1" class="edge">
<title>Node1&#45;&gt;Node2</title>
<path fill="none" stroke="midnightblue" d="M322.39,-79.27C271.4,-67.34 205.69,-51.98 155.18,-40.16"/>
<polygon fill="midnightblue" stroke="midnightblue" points="321.85,-82.73 332.38,-81.6 323.44,-75.92 321.85,-82.73"/>
</g>
<!-- Node3 -->
<g id="node3" class="node">
<title>Node3</title>
<g id="a_node3"><a xlink:href="one__shot__polling__timer_8hpp.html" target="_top" xlink:title="1回だけ実行するポーリングタイマー">
<polygon fill="white" stroke="black" points="173.5,-0.5 173.5,-41.5 313.5,-41.5 313.5,-0.5 173.5,-0.5"/>
<text text-anchor="start" x="181.5" y="-29.5" font-family="Helvetica,sans-Serif" font-size="10.00">alps_common_lib/include</text>
<text text-anchor="start" x="181.5" y="-18.5" font-family="Helvetica,sans-Serif" font-size="10.00">/alps_cmn/time/one_shot</text>
<text text-anchor="middle" x="243.5" y="-7.5" font-family="Helvetica,sans-Serif" font-size="10.00">_polling_timer.hpp</text>
</a>
</g>
</g>
<!-- Node1&#45;&gt;Node3 -->
<g id="edge2" class="edge">
<title>Node1&#45;&gt;Node3</title>
<path fill="none" stroke="midnightblue" d="M352.39,-74.05C330.46,-63.57 305.06,-51.42 284.31,-41.51"/>
<polygon fill="midnightblue" stroke="midnightblue" points="351.02,-77.27 361.55,-78.43 354.04,-70.96 351.02,-77.27"/>
</g>
<!-- Node4 -->
<g id="node4" class="node">
<title>Node4</title>
<g id="a_node4"><a xlink:href="repeating__polling__timer_8hpp.html" target="_top" xlink:title="繰り返し実行するポーリングタイマー">
<polygon fill="white" stroke="black" points="332,-0.5 332,-41.5 473,-41.5 473,-0.5 332,-0.5"/>
<text text-anchor="start" x="340" y="-29.5" font-family="Helvetica,sans-Serif" font-size="10.00">alps_common_lib/include</text>
<text text-anchor="start" x="340" y="-18.5" font-family="Helvetica,sans-Serif" font-size="10.00">/alps_cmn/time/repeating</text>
<text text-anchor="middle" x="402.5" y="-7.5" font-family="Helvetica,sans-Serif" font-size="10.00">_polling_timer.hpp</text>
</a>
</g>
</g>
<!-- Node1&#45;&gt;Node4 -->
<g id="edge3" class="edge">
<title>Node1&#45;&gt;Node4</title>
<path fill="none" stroke="midnightblue" d="M402.5,-68.3C402.5,-59.3 402.5,-49.65 402.5,-41.51"/>
<polygon fill="midnightblue" stroke="midnightblue" points="399,-68.43 402.5,-78.43 406,-68.43 399,-68.43"/>
</g>
<!-- Node5 -->
<g id="node5" class="node">
<title>Node5</title>
<g id="a_node5"><a xlink:href="motor__friction__analyzer_8hpp.html" target="_top" xlink:title="モーター軸の摩擦力を計測するクラス">
<polygon fill="white" stroke="black" points="491.5,-0.5 491.5,-41.5 651.5,-41.5 651.5,-0.5 491.5,-0.5"/>
<text text-anchor="start" x="499.5" y="-29.5" font-family="Helvetica,sans-Serif" font-size="10.00">alps_common_lib/include</text>
<text text-anchor="start" x="499.5" y="-18.5" font-family="Helvetica,sans-Serif" font-size="10.00">/alps_cmn/tool/motor_friction</text>
<text text-anchor="middle" x="571.5" y="-7.5" font-family="Helvetica,sans-Serif" font-size="10.00">_analyzer.hpp</text>
</a>
</g>
</g>
<!-- Node1&#45;&gt;Node5 -->
<g id="edge4" class="edge">
<title>Node1&#45;&gt;Node5</title>
<path fill="none" stroke="midnightblue" d="M455.45,-74.19C478.83,-63.67 505.97,-51.47 528.13,-41.51"/>
<polygon fill="midnightblue" stroke="midnightblue" points="453.71,-71.13 446.02,-78.43 456.58,-77.52 453.71,-71.13"/>
</g>
<!-- Node6 -->
<g id="node6" class="node">
<title>Node6</title>
<g id="a_node6"><a xlink:href="socket__can__io_8hpp.html" target="_top" xlink:title=" ">
<polygon fill="white" stroke="black" points="669.5,-0.5 669.5,-41.5 805.5,-41.5 805.5,-0.5 669.5,-0.5"/>
<text text-anchor="start" x="677.5" y="-29.5" font-family="Helvetica,sans-Serif" font-size="10.00">alps_linux_lib/include</text>
<text text-anchor="start" x="677.5" y="-18.5" font-family="Helvetica,sans-Serif" font-size="10.00">/alps_lin/communication</text>
<text text-anchor="middle" x="737.5" y="-7.5" font-family="Helvetica,sans-Serif" font-size="10.00">/socket_can_io.hpp</text>
</a>
</g>
</g>
<!-- Node1&#45;&gt;Node6 -->
<g id="edge5" class="edge">
<title>Node1&#45;&gt;Node6</title>
<path fill="none" stroke="midnightblue" d="M482.73,-81.46C533.75,-70.72 601.14,-56.14 660.5,-42 663.32,-41.33 666.2,-40.63 669.1,-39.92"/>
<polygon fill="midnightblue" stroke="midnightblue" points="481.82,-78.07 472.76,-83.55 483.26,-84.92 481.82,-78.07"/>
</g>
</g>
</svg>
