<?xml version="1.0" encoding="UTF-8" standalone="no"?>
<!DOCTYPE svg PUBLIC "-//W3C//DTD SVG 1.1//EN"
 "http://www.w3.org/Graphics/SVG/1.1/DTD/svg11.dtd">
<!-- Generated by graphviz version 2.43.0 (0)
 -->
<!-- Title: alps_common_lib/include/alps_cmn/time/timeout_checker.hpp Pages: 1 -->
<svg width="814pt" height="126pt"
 viewBox="0.00 0.00 813.50 126.00" xmlns="http://www.w3.org/2000/svg" xmlns:xlink="http://www.w3.org/1999/xlink">
<g id="graph0" class="graph" transform="scale(1 1) rotate(0) translate(4 122)">
<title>alps_common_lib/include/alps_cmn/time/timeout_checker.hpp</title>
<!-- Node1 -->
<g id="node1" class="node">
<title>Node1</title>
<g id="a_node1"><a xlink:title="タイムアウトを検知するクラス">
<polygon fill="#999999" stroke="#666666" points="472.5,-118 332.5,-118 332.5,-77 472.5,-77 472.5,-118"/>
<text text-anchor="start" x="340.5" y="-106" font-family="Helvetica,sans-Serif" font-size="10.00">alps_common_lib/include</text>
<text text-anchor="start" x="340.5" y="-95" font-family="Helvetica,sans-Serif" font-size="10.00">/alps_cmn/time/timeout</text>
<text text-anchor="middle" x="402.5" y="-84" font-family="Helvetica,sans-Serif" font-size="10.00">_checker.hpp</text>
</a>
</g>
</g>
<!-- Node2 -->
<g id="node2" class="node">
<title>Node2</title>
<g id="a_node2"><a xlink:href="robomas__motor_8hpp.html" target="_top" xlink:title="ロボマスモータのライブラリ">
<polygon fill="white" stroke="#666666" points="155,-41 0,-41 0,0 155,0 155,-41"/>
<text text-anchor="start" x="8" y="-29" font-family="Helvetica,sans-Serif" font-size="10.00">alps_common_lib/include</text>
<text text-anchor="start" x="8" y="-18" font-family="Helvetica,sans-Serif" font-size="10.00">/alps_cmn/actuator/robomas</text>
<text text-anchor="middle" x="77.5" y="-7" font-family="Helvetica,sans-Serif" font-size="10.00">_motor.hpp</text>
</a>
</g>
</g>
<!-- Node1&#45;&gt;Node2 -->
<g id="edge1" class="edge">
<title>Node1&#45;&gt;Node2</title>
<path fill="none" stroke="#63b8ff" d="M322.39,-78.01C271.4,-66.25 205.69,-51.08 155.18,-39.43"/>
<polygon fill="#63b8ff" stroke="#63b8ff" points="321.85,-81.48 332.38,-80.32 323.42,-74.66 321.85,-81.48"/>
</g>
<!-- Node3 -->
<g id="node3" class="node">
<title>Node3</title>
<g id="a_node3"><a xlink:href="one__shot__polling__timer_8hpp.html" target="_top" xlink:title="1回だけ実行するポーリングタイマー">
<polygon fill="white" stroke="#666666" points="313.5,-41 173.5,-41 173.5,0 313.5,0 313.5,-41"/>
<text text-anchor="start" x="181.5" y="-29" font-family="Helvetica,sans-Serif" font-size="10.00">alps_common_lib/include</text>
<text text-anchor="start" x="181.5" y="-18" font-family="Helvetica,sans-Serif" font-size="10.00">/alps_cmn/time/one_shot</text>
<text text-anchor="middle" x="243.5" y="-7" font-family="Helvetica,sans-Serif" font-size="10.00">_polling_timer.hpp</text>
</a>
</g>
</g>
<!-- Node1&#45;&gt;Node3 -->
<g id="edge2" class="edge">
<title>Node1&#45;&gt;Node3</title>
<path fill="none" stroke="#63b8ff" d="M352.09,-72.72C330.45,-62.51 305.47,-50.73 284.93,-41.04"/>
<polygon fill="#63b8ff" stroke="#63b8ff" points="350.6,-75.89 361.14,-76.99 353.59,-69.56 350.6,-75.89"/>
</g>
<!-- Node4 -->
<g id="node4" class="node">
<title>Node4</title>
<g id="a_node4"><a xlink:href="repeating__polling__timer_8hpp.html" target="_top" xlink:title="繰り返し実行するポーリングタイマー">
<polygon fill="white" stroke="#666666" points="473,-41 332,-41 332,0 473,0 473,-41"/>
<text text-anchor="start" x="340" y="-29" font-family="Helvetica,sans-Serif" font-size="10.00">alps_common_lib/include</text>
<text text-anchor="start" x="340" y="-18" font-family="Helvetica,sans-Serif" font-size="10.00">/alps_cmn/time/repeating</text>
<text text-anchor="middle" x="402.5" y="-7" font-family="Helvetica,sans-Serif" font-size="10.00">_polling_timer.hpp</text>
</a>
</g>
</g>
<!-- Node1&#45;&gt;Node4 -->
<g id="edge3" class="edge">
<title>Node1&#45;&gt;Node4</title>
<path fill="none" stroke="#63b8ff" d="M402.5,-66.69C402.5,-58.08 402.5,-48.9 402.5,-41.07"/>
<polygon fill="#63b8ff" stroke="#63b8ff" points="399,-66.79 402.5,-76.79 406,-66.79 399,-66.79"/>
</g>
<!-- Node5 -->
<g id="node5" class="node">
<title>Node5</title>
<g id="a_node5"><a xlink:href="motor__friction__analyzer_8hpp.html" target="_top" xlink:title="モーター軸の摩擦力を計測するクラス">
<polygon fill="white" stroke="#666666" points="651.5,-41 491.5,-41 491.5,0 651.5,0 651.5,-41"/>
<text text-anchor="start" x="499.5" y="-29" font-family="Helvetica,sans-Serif" font-size="10.00">alps_common_lib/include</text>
<text text-anchor="start" x="499.5" y="-18" font-family="Helvetica,sans-Serif" font-size="10.00">/alps_cmn/tool/motor_friction</text>
<text text-anchor="middle" x="571.5" y="-7" font-family="Helvetica,sans-Serif" font-size="10.00">_analyzer.hpp</text>
</a>
</g>
</g>
<!-- Node1&#45;&gt;Node5 -->
<g id="edge4" class="edge">
<title>Node1&#45;&gt;Node5</title>
<path fill="none" stroke="#63b8ff" d="M455.77,-72.86C478.85,-62.62 505.54,-50.77 527.47,-41.04"/>
<polygon fill="#63b8ff" stroke="#63b8ff" points="454.18,-69.73 446.46,-76.99 457.02,-76.13 454.18,-69.73"/>
</g>
<!-- Node6 -->
<g id="node6" class="node">
<title>Node6</title>
<g id="a_node6"><a xlink:href="socket__can__io_8hpp.html" target="_top" xlink:title=" ">
<polygon fill="white" stroke="#666666" points="805.5,-41 669.5,-41 669.5,0 805.5,0 805.5,-41"/>
<text text-anchor="start" x="677.5" y="-29" font-family="Helvetica,sans-Serif" font-size="10.00">alps_linux_lib/include</text>
<text text-anchor="start" x="677.5" y="-18" font-family="Helvetica,sans-Serif" font-size="10.00">/alps_lin/communication</text>
<text text-anchor="middle" x="737.5" y="-7" font-family="Helvetica,sans-Serif" font-size="10.00">/socket_can_io.hpp</text>
</a>
</g>
</g>
<!-- Node1&#45;&gt;Node6 -->
<g id="edge5" class="edge">
<title>Node1&#45;&gt;Node6</title>
<path fill="none" stroke="#63b8ff" d="M482.71,-80.02C533.72,-69.35 601.11,-54.9 660.5,-41 663.32,-40.34 666.19,-39.66 669.1,-38.96"/>
<polygon fill="#63b8ff" stroke="#63b8ff" points="481.81,-76.64 472.73,-82.11 483.24,-83.49 481.81,-76.64"/>
</g>
</g>
</svg>
