<?xml version="1.0" encoding="UTF-8" standalone="no"?>
<!DOCTYPE svg PUBLIC "-//W3C//DTD SVG 1.1//EN"
 "http://www.w3.org/Graphics/SVG/1.1/DTD/svg11.dtd">
<!-- Generated by graphviz version 2.43.0 (0)
 -->
<!-- Title: alps_ros2_lib/include/alps_ros2/type/topic_converter.hpp Pages: 1 -->
<svg width="4893pt" height="307pt"
 viewBox="0.00 0.00 4893.00 307.00" xmlns="http://www.w3.org/2000/svg" xmlns:xlink="http://www.w3.org/1999/xlink">
<g id="graph0" class="graph" transform="scale(1 1) rotate(0) translate(4 303)">
<title>alps_ros2_lib/include/alps_ros2/type/topic_converter.hpp</title>
<polygon fill="white" stroke="transparent" points="-4,4 -4,-303 4889,-303 4889,4 -4,4"/>
<!-- Node1 -->
<g id="node1" class="node">
<title>Node1</title>
<g id="a_node1"><a xlink:title=" ">
<polygon fill="#bfbfbf" stroke="black" points="2716.5,-257.5 2716.5,-298.5 2835.5,-298.5 2835.5,-257.5 2716.5,-257.5"/>
<text text-anchor="start" x="2724.5" y="-286.5" font-family="Helvetica,sans-Serif" font-size="10.00">alps_ros2_lib/include</text>
<text text-anchor="start" x="2724.5" y="-275.5" font-family="Helvetica,sans-Serif" font-size="10.00">/alps_ros2/type/topic</text>
<text text-anchor="middle" x="2776" y="-264.5" font-family="Helvetica,sans-Serif" font-size="10.00">_converter.hpp</text>
</a>
</g>
</g>
<!-- Node2 -->
<g id="node2" class="node">
<title>Node2</title>
<g id="a_node2"><a xlink:title=" ">
<polygon fill="white" stroke="#bfbfbf" points="633,-196 633,-215 689,-215 689,-196 633,-196"/>
<text text-anchor="middle" x="661" y="-203" font-family="Helvetica,sans-Serif" font-size="10.00">optional</text>
</a>
</g>
</g>
<!-- Node1&#45;&gt;Node2 -->
<g id="edge1" class="edge">
<title>Node1&#45;&gt;Node2</title>
<path fill="none" stroke="midnightblue" d="M2716.24,-276.59C2397.16,-274.23 901.13,-261.08 699,-221 695.74,-220.35 692.4,-219.46 689.12,-218.42"/>
<polygon fill="midnightblue" stroke="midnightblue" points="690.17,-215.08 679.57,-215.02 687.82,-221.67 690.17,-215.08"/>
</g>
<!-- Node3 -->
<g id="node3" class="node">
<title>Node3</title>
<g id="a_node3"><a xlink:href="can__typed__data__transceiver_8hpp.html" target="_top" xlink:title="CAN通信で型付けされたデータの送受信を行うライブラリ">
<polygon fill="white" stroke="black" points="707.5,-190.5 707.5,-220.5 884.5,-220.5 884.5,-190.5 707.5,-190.5"/>
<text text-anchor="start" x="715.5" y="-208.5" font-family="Helvetica,sans-Serif" font-size="10.00">alps_cmn/communication</text>
<text text-anchor="middle" x="796" y="-197.5" font-family="Helvetica,sans-Serif" font-size="10.00">/can_typed_data_transceiver.hpp</text>
</a>
</g>
</g>
<!-- Node1&#45;&gt;Node3 -->
<g id="edge2" class="edge">
<title>Node1&#45;&gt;Node3</title>
<path fill="none" stroke="midnightblue" d="M2716.38,-275.4C2498.18,-269.48 1722.44,-247.73 1083,-221 1020.35,-218.38 950.05,-214.84 894.7,-211.91"/>
<polygon fill="midnightblue" stroke="midnightblue" points="894.72,-208.41 884.54,-211.37 894.35,-215.4 894.72,-208.41"/>
</g>
<!-- Node26 -->
<g id="node23" class="node">
<title>Node26</title>
<g id="a_node23"><a xlink:href="tuple__traits_8hpp.html" target="_top" xlink:title="タプル関係の型特性">
<polygon fill="white" stroke="black" points="1300,-56.5 1300,-86.5 1416,-86.5 1416,-56.5 1300,-56.5"/>
<text text-anchor="start" x="1308" y="-74.5" font-family="Helvetica,sans-Serif" font-size="10.00">alps_cmn/type/tuple</text>
<text text-anchor="middle" x="1358" y="-63.5" font-family="Helvetica,sans-Serif" font-size="10.00">_traits.hpp</text>
</a>
</g>
</g>
<!-- Node1&#45;&gt;Node26 -->
<g id="edge31" class="edge">
<title>Node1&#45;&gt;Node26</title>
<path fill="none" stroke="midnightblue" d="M2716.25,-277.28C2425.77,-278.37 1172.69,-279.63 1116,-221 1106.42,-211.09 1108.69,-201.68 1116,-190 1137.69,-155.36 1242.83,-113.17 1307.18,-89.94"/>
<polygon fill="midnightblue" stroke="midnightblue" points="1308.51,-93.18 1316.75,-86.51 1306.16,-86.59 1308.51,-93.18"/>
</g>
<!-- Node28 -->
<g id="node26" class="node">
<title>Node28</title>
<g id="a_node26"><a xlink:title=" ">
<polygon fill="white" stroke="#bfbfbf" points="1125,-196 1125,-215 1257,-215 1257,-196 1125,-196"/>
<text text-anchor="middle" x="1191" y="-203" font-family="Helvetica,sans-Serif" font-size="10.00">std_msgs/msg/bool.hpp</text>
</a>
</g>
</g>
<!-- Node1&#45;&gt;Node28 -->
<g id="edge32" class="edge">
<title>Node1&#45;&gt;Node28</title>
<path fill="none" stroke="midnightblue" d="M2716.48,-276C2473.41,-271.71 1555.33,-253.67 1267,-221 1258.08,-219.99 1248.63,-218.52 1239.55,-216.9"/>
<polygon fill="midnightblue" stroke="midnightblue" points="1239.96,-213.41 1229.49,-215.02 1238.68,-220.29 1239.96,-213.41"/>
</g>
<!-- Node29 -->
<g id="node27" class="node">
<title>Node29</title>
<g id="a_node27"><a xlink:title=" ">
<polygon fill="white" stroke="#bfbfbf" points="1275.5,-196 1275.5,-215 1408.5,-215 1408.5,-196 1275.5,-196"/>
<text text-anchor="middle" x="1342" y="-203" font-family="Helvetica,sans-Serif" font-size="10.00">std_msgs/msg/byte.hpp</text>
</a>
</g>
</g>
<!-- Node1&#45;&gt;Node29 -->
<g id="edge33" class="edge">
<title>Node1&#45;&gt;Node29</title>
<path fill="none" stroke="midnightblue" d="M2716.35,-275.71C2488.8,-270.61 1675.12,-250.67 1418,-221 1409.18,-219.98 1399.84,-218.52 1390.85,-216.92"/>
<polygon fill="midnightblue" stroke="midnightblue" points="1391.36,-213.45 1380.88,-215.06 1390.07,-220.33 1391.36,-213.45"/>
</g>
<!-- Node30 -->
<g id="node28" class="node">
<title>Node30</title>
<g id="a_node28"><a xlink:title=" ">
<polygon fill="white" stroke="#bfbfbf" points="1426.5,-190.5 1426.5,-220.5 1569.5,-220.5 1569.5,-190.5 1426.5,-190.5"/>
<text text-anchor="start" x="1434.5" y="-208.5" font-family="Helvetica,sans-Serif" font-size="10.00">std_msgs/msg/byte_multi</text>
<text text-anchor="middle" x="1498" y="-197.5" font-family="Helvetica,sans-Serif" font-size="10.00">_array.hpp</text>
</a>
</g>
</g>
<!-- Node1&#45;&gt;Node30 -->
<g id="edge34" class="edge">
<title>Node1&#45;&gt;Node30</title>
<path fill="none" stroke="midnightblue" d="M2716.31,-276.95C2542.45,-276.24 2021.38,-269.93 1580,-221"/>
<polygon fill="midnightblue" stroke="midnightblue" points="1580.24,-217.51 1569.92,-219.88 1579.47,-224.47 1580.24,-217.51"/>
</g>
<!-- Node31 -->
<g id="node29" class="node">
<title>Node31</title>
<g id="a_node29"><a xlink:title=" ">
<polygon fill="white" stroke="#bfbfbf" points="1587.5,-196 1587.5,-215 1718.5,-215 1718.5,-196 1587.5,-196"/>
<text text-anchor="middle" x="1653" y="-203" font-family="Helvetica,sans-Serif" font-size="10.00">std_msgs/msg/char.hpp</text>
</a>
</g>
</g>
<!-- Node1&#45;&gt;Node31 -->
<g id="edge35" class="edge">
<title>Node1&#45;&gt;Node31</title>
<path fill="none" stroke="midnightblue" d="M2716.37,-276.68C2555.97,-275.2 2102.12,-266.94 1728,-221 1719.49,-219.95 1710.48,-218.51 1701.79,-216.94"/>
<polygon fill="midnightblue" stroke="midnightblue" points="1702.24,-213.46 1691.76,-215.05 1700.94,-220.34 1702.24,-213.46"/>
</g>
<!-- Node32 -->
<g id="node30" class="node">
<title>Node32</title>
<g id="a_node30"><a xlink:title=" ">
<polygon fill="white" stroke="#bfbfbf" points="1736.5,-196 1736.5,-215 1881.5,-215 1881.5,-196 1736.5,-196"/>
<text text-anchor="middle" x="1809" y="-203" font-family="Helvetica,sans-Serif" font-size="10.00">std_msgs/msg/float32.hpp</text>
</a>
</g>
</g>
<!-- Node1&#45;&gt;Node32 -->
<g id="edge36" class="edge">
<title>Node1&#45;&gt;Node32</title>
<path fill="none" stroke="midnightblue" d="M2716.49,-275.53C2573.67,-271.51 2200.36,-258.02 1891,-221 1881.52,-219.87 1871.47,-218.35 1861.78,-216.73"/>
<polygon fill="midnightblue" stroke="midnightblue" points="1862.3,-213.27 1851.85,-215.01 1861.1,-220.16 1862.3,-213.27"/>
</g>
<!-- Node33 -->
<g id="node31" class="node">
<title>Node33</title>
<g id="a_node31"><a xlink:title=" ">
<polygon fill="white" stroke="#bfbfbf" points="1900,-190.5 1900,-220.5 2024,-220.5 2024,-190.5 1900,-190.5"/>
<text text-anchor="start" x="1908" y="-208.5" font-family="Helvetica,sans-Serif" font-size="10.00">std_msgs/msg/float32</text>
<text text-anchor="middle" x="1962" y="-197.5" font-family="Helvetica,sans-Serif" font-size="10.00">_multi_array.hpp</text>
</a>
</g>
</g>
<!-- Node1&#45;&gt;Node33 -->
<g id="edge37" class="edge">
<title>Node1&#45;&gt;Node33</title>
<path fill="none" stroke="midnightblue" d="M2716.1,-274.99C2591.21,-270.25 2293.79,-256.13 2034.35,-220.92"/>
<polygon fill="midnightblue" stroke="midnightblue" points="2034.74,-217.44 2024.36,-219.55 2033.79,-224.37 2034.74,-217.44"/>
</g>
<!-- Node34 -->
<g id="node32" class="node">
<title>Node34</title>
<g id="a_node32"><a xlink:title=" ">
<polygon fill="white" stroke="#bfbfbf" points="2042.5,-196 2042.5,-215 2187.5,-215 2187.5,-196 2042.5,-196"/>
<text text-anchor="middle" x="2115" y="-203" font-family="Helvetica,sans-Serif" font-size="10.00">std_msgs/msg/float64.hpp</text>
</a>
</g>
</g>
<!-- Node1&#45;&gt;Node34 -->
<g id="edge38" class="edge">
<title>Node1&#45;&gt;Node34</title>
<path fill="none" stroke="midnightblue" d="M2716.22,-272.78C2610.98,-264.99 2385.87,-246.79 2197,-221 2188.15,-219.79 2178.8,-218.32 2169.71,-216.79"/>
<polygon fill="midnightblue" stroke="midnightblue" points="2170.04,-213.29 2159.59,-215.04 2168.84,-220.19 2170.04,-213.29"/>
</g>
<!-- Node35 -->
<g id="node33" class="node">
<title>Node35</title>
<g id="a_node33"><a xlink:title=" ">
<polygon fill="white" stroke="#bfbfbf" points="2206,-190.5 2206,-220.5 2330,-220.5 2330,-190.5 2206,-190.5"/>
<text text-anchor="start" x="2214" y="-208.5" font-family="Helvetica,sans-Serif" font-size="10.00">std_msgs/msg/float64</text>
<text text-anchor="middle" x="2268" y="-197.5" font-family="Helvetica,sans-Serif" font-size="10.00">_multi_array.hpp</text>
</a>
</g>
</g>
<!-- Node1&#45;&gt;Node35 -->
<g id="edge39" class="edge">
<title>Node1&#45;&gt;Node35</title>
<path fill="none" stroke="midnightblue" d="M2716.42,-270.78C2634.09,-261.87 2480.72,-244.15 2340.37,-221.16"/>
<polygon fill="midnightblue" stroke="midnightblue" points="2340.73,-217.67 2330.29,-219.49 2339.59,-224.57 2340.73,-217.67"/>
</g>
<!-- Node36 -->
<g id="node34" class="node">
<title>Node36</title>
<g id="a_node34"><a xlink:title=" ">
<polygon fill="white" stroke="#bfbfbf" points="2348,-196 2348,-215 2484,-215 2484,-196 2348,-196"/>
<text text-anchor="middle" x="2416" y="-203" font-family="Helvetica,sans-Serif" font-size="10.00">std_msgs/msg/int16.hpp</text>
</a>
</g>
</g>
<!-- Node1&#45;&gt;Node36 -->
<g id="edge40" class="edge">
<title>Node1&#45;&gt;Node36</title>
<path fill="none" stroke="midnightblue" d="M2716.15,-265.28C2647.45,-251.83 2535.77,-229.96 2469.75,-217.03"/>
<polygon fill="midnightblue" stroke="midnightblue" points="2470.04,-213.52 2459.55,-215.03 2468.7,-220.39 2470.04,-213.52"/>
</g>
<!-- Node37 -->
<g id="node35" class="node">
<title>Node37</title>
<g id="a_node35"><a xlink:title=" ">
<polygon fill="white" stroke="#bfbfbf" points="2502.5,-190.5 2502.5,-220.5 2617.5,-220.5 2617.5,-190.5 2502.5,-190.5"/>
<text text-anchor="start" x="2510.5" y="-208.5" font-family="Helvetica,sans-Serif" font-size="10.00">std_msgs/msg/int16</text>
<text text-anchor="middle" x="2560" y="-197.5" font-family="Helvetica,sans-Serif" font-size="10.00">_multi_array.hpp</text>
</a>
</g>
</g>
<!-- Node1&#45;&gt;Node37 -->
<g id="edge41" class="edge">
<title>Node1&#45;&gt;Node37</title>
<path fill="none" stroke="midnightblue" d="M2716.41,-257.55C2683.95,-246.96 2644.15,-233.97 2612.82,-223.74"/>
<polygon fill="midnightblue" stroke="midnightblue" points="2613.56,-220.3 2602.97,-220.52 2611.39,-226.95 2613.56,-220.3"/>
</g>
<!-- Node38 -->
<g id="node36" class="node">
<title>Node38</title>
<g id="a_node36"><a xlink:title=" ">
<polygon fill="white" stroke="#bfbfbf" points="2636,-196 2636,-215 2772,-215 2772,-196 2636,-196"/>
<text text-anchor="middle" x="2704" y="-203" font-family="Helvetica,sans-Serif" font-size="10.00">std_msgs/msg/int32.hpp</text>
</a>
</g>
</g>
<!-- Node1&#45;&gt;Node38 -->
<g id="edge42" class="edge">
<title>Node1&#45;&gt;Node38</title>
<path fill="none" stroke="midnightblue" d="M2755.94,-257.36C2744.67,-246.32 2730.78,-232.72 2720.2,-222.37"/>
<polygon fill="midnightblue" stroke="midnightblue" points="2722.45,-219.67 2712.86,-215.17 2717.55,-224.67 2722.45,-219.67"/>
</g>
<!-- Node39 -->
<g id="node37" class="node">
<title>Node39</title>
<g id="a_node37"><a xlink:title=" ">
<polygon fill="white" stroke="#bfbfbf" points="2790.5,-190.5 2790.5,-220.5 2905.5,-220.5 2905.5,-190.5 2790.5,-190.5"/>
<text text-anchor="start" x="2798.5" y="-208.5" font-family="Helvetica,sans-Serif" font-size="10.00">std_msgs/msg/int32</text>
<text text-anchor="middle" x="2848" y="-197.5" font-family="Helvetica,sans-Serif" font-size="10.00">_multi_array.hpp</text>
</a>
</g>
</g>
<!-- Node1&#45;&gt;Node39 -->
<g id="edge43" class="edge">
<title>Node1&#45;&gt;Node39</title>
<path fill="none" stroke="midnightblue" d="M2796.06,-257.36C2805.38,-248.23 2816.49,-237.35 2826.04,-228"/>
<polygon fill="midnightblue" stroke="midnightblue" points="2828.61,-230.39 2833.3,-220.89 2823.71,-225.39 2828.61,-230.39"/>
</g>
<!-- Node40 -->
<g id="node38" class="node">
<title>Node40</title>
<g id="a_node38"><a xlink:title=" ">
<polygon fill="white" stroke="#bfbfbf" points="2924,-196 2924,-215 3060,-215 3060,-196 2924,-196"/>
<text text-anchor="middle" x="2992" y="-203" font-family="Helvetica,sans-Serif" font-size="10.00">std_msgs/msg/int64.hpp</text>
</a>
</g>
</g>
<!-- Node1&#45;&gt;Node40 -->
<g id="edge44" class="edge">
<title>Node1&#45;&gt;Node40</title>
<path fill="none" stroke="midnightblue" d="M2835.59,-257.55C2874.3,-244.92 2923.46,-228.87 2956.23,-218.17"/>
<polygon fill="midnightblue" stroke="midnightblue" points="2957.43,-221.47 2965.85,-215.04 2955.25,-214.81 2957.43,-221.47"/>
</g>
<!-- Node41 -->
<g id="node39" class="node">
<title>Node41</title>
<g id="a_node39"><a xlink:title=" ">
<polygon fill="white" stroke="#bfbfbf" points="3078.5,-190.5 3078.5,-220.5 3193.5,-220.5 3193.5,-190.5 3078.5,-190.5"/>
<text text-anchor="start" x="3086.5" y="-208.5" font-family="Helvetica,sans-Serif" font-size="10.00">std_msgs/msg/int64</text>
<text text-anchor="middle" x="3136" y="-197.5" font-family="Helvetica,sans-Serif" font-size="10.00">_multi_array.hpp</text>
</a>
</g>
</g>
<!-- Node1&#45;&gt;Node41 -->
<g id="edge45" class="edge">
<title>Node1&#45;&gt;Node41</title>
<path fill="none" stroke="midnightblue" d="M2835.57,-266.05C2892.63,-255.47 2981.42,-238.74 3068.25,-221.13"/>
<polygon fill="midnightblue" stroke="midnightblue" points="3069.17,-224.51 3078.28,-219.09 3067.78,-217.65 3069.17,-224.51"/>
</g>
<!-- Node42 -->
<g id="node40" class="node">
<title>Node42</title>
<g id="a_node40"><a xlink:title=" ">
<polygon fill="white" stroke="#bfbfbf" points="3212,-196 3212,-215 3342,-215 3342,-196 3212,-196"/>
<text text-anchor="middle" x="3277" y="-203" font-family="Helvetica,sans-Serif" font-size="10.00">std_msgs/msg/int8.hpp</text>
</a>
</g>
</g>
<!-- Node1&#45;&gt;Node42 -->
<g id="edge46" class="edge">
<title>Node1&#45;&gt;Node42</title>
<path fill="none" stroke="midnightblue" d="M2835.58,-270.39C2918.27,-260.94 3072.39,-242.34 3203,-221 3210.46,-219.78 3218.31,-218.38 3226.01,-216.93"/>
<polygon fill="midnightblue" stroke="midnightblue" points="3226.82,-220.34 3235.98,-215.02 3225.5,-213.46 3226.82,-220.34"/>
</g>
<!-- Node43 -->
<g id="node41" class="node">
<title>Node43</title>
<g id="a_node41"><a xlink:title=" ">
<polygon fill="white" stroke="#bfbfbf" points="3360,-190.5 3360,-220.5 3500,-220.5 3500,-190.5 3360,-190.5"/>
<text text-anchor="start" x="3368" y="-208.5" font-family="Helvetica,sans-Serif" font-size="10.00">std_msgs/msg/int8_multi</text>
<text text-anchor="middle" x="3430" y="-197.5" font-family="Helvetica,sans-Serif" font-size="10.00">_array.hpp</text>
</a>
</g>
</g>
<!-- Node1&#45;&gt;Node43 -->
<g id="edge47" class="edge">
<title>Node1&#45;&gt;Node43</title>
<path fill="none" stroke="midnightblue" d="M2835.8,-272.85C2938.72,-265.34 3156.17,-247.86 3349.76,-221.1"/>
<polygon fill="midnightblue" stroke="midnightblue" points="3350.42,-224.54 3359.84,-219.7 3349.45,-217.61 3350.42,-224.54"/>
</g>
<!-- Node44 -->
<g id="node42" class="node">
<title>Node44</title>
<g id="a_node42"><a xlink:title=" ">
<polygon fill="white" stroke="#bfbfbf" points="3518.5,-196 3518.5,-215 3657.5,-215 3657.5,-196 3518.5,-196"/>
<text text-anchor="middle" x="3588" y="-203" font-family="Helvetica,sans-Serif" font-size="10.00">std_msgs/msg/string.hpp</text>
</a>
</g>
</g>
<!-- Node1&#45;&gt;Node44 -->
<g id="edge48" class="edge">
<title>Node1&#45;&gt;Node44</title>
<path fill="none" stroke="midnightblue" d="M2835.6,-274.58C2960.76,-269.02 3259.98,-253.27 3509,-221 3517.84,-219.85 3527.19,-218.38 3536.25,-216.8"/>
<polygon fill="midnightblue" stroke="midnightblue" points="3537.08,-220.21 3546.31,-215 3535.85,-213.32 3537.08,-220.21"/>
</g>
<!-- Node45 -->
<g id="node43" class="node">
<title>Node45</title>
<g id="a_node43"><a xlink:title=" ">
<polygon fill="white" stroke="#bfbfbf" points="3675.5,-196 3675.5,-215 3822.5,-215 3822.5,-196 3675.5,-196"/>
<text text-anchor="middle" x="3749" y="-203" font-family="Helvetica,sans-Serif" font-size="10.00">std_msgs/msg/u_int16.hpp</text>
</a>
</g>
</g>
<!-- Node1&#45;&gt;Node45 -->
<g id="edge49" class="edge">
<title>Node1&#45;&gt;Node45</title>
<path fill="none" stroke="midnightblue" d="M2835.64,-275.56C2979.24,-271.6 3355.36,-258.23 3667,-221 3676.48,-219.87 3686.53,-218.35 3696.22,-216.73"/>
<polygon fill="midnightblue" stroke="midnightblue" points="3696.9,-220.17 3706.15,-215.01 3695.7,-213.27 3696.9,-220.17"/>
</g>
<!-- Node46 -->
<g id="node44" class="node">
<title>Node46</title>
<g id="a_node44"><a xlink:title=" ">
<polygon fill="white" stroke="#bfbfbf" points="3841,-190.5 3841,-220.5 3967,-220.5 3967,-190.5 3841,-190.5"/>
<text text-anchor="start" x="3849" y="-208.5" font-family="Helvetica,sans-Serif" font-size="10.00">std_msgs/msg/u_int16</text>
<text text-anchor="middle" x="3904" y="-197.5" font-family="Helvetica,sans-Serif" font-size="10.00">_multi_array.hpp</text>
</a>
</g>
</g>
<!-- Node1&#45;&gt;Node46 -->
<g id="edge50" class="edge">
<title>Node1&#45;&gt;Node46</title>
<path fill="none" stroke="midnightblue" d="M2835.52,-276.88C2995.26,-275.89 3446.72,-268.86 3830.67,-221.04"/>
<polygon fill="midnightblue" stroke="midnightblue" points="3831.38,-224.47 3840.87,-219.76 3830.51,-217.53 3831.38,-224.47"/>
</g>
<!-- Node47 -->
<g id="node45" class="node">
<title>Node47</title>
<g id="a_node45"><a xlink:title=" ">
<polygon fill="white" stroke="#bfbfbf" points="3985.5,-196 3985.5,-215 4132.5,-215 4132.5,-196 3985.5,-196"/>
<text text-anchor="middle" x="4059" y="-203" font-family="Helvetica,sans-Serif" font-size="10.00">std_msgs/msg/u_int32.hpp</text>
</a>
</g>
</g>
<!-- Node1&#45;&gt;Node47 -->
<g id="edge51" class="edge">
<title>Node1&#45;&gt;Node47</title>
<path fill="none" stroke="midnightblue" d="M2835.52,-276.88C3010.8,-275.95 3540.14,-269.05 3976,-221 3985.71,-219.93 3996.01,-218.43 4005.92,-216.8"/>
<polygon fill="midnightblue" stroke="midnightblue" points="4006.8,-220.2 4016.07,-215.06 4005.62,-213.3 4006.8,-220.2"/>
</g>
<!-- Node48 -->
<g id="node46" class="node">
<title>Node48</title>
<g id="a_node46"><a xlink:title=" ">
<polygon fill="white" stroke="#bfbfbf" points="4151,-190.5 4151,-220.5 4277,-220.5 4277,-190.5 4151,-190.5"/>
<text text-anchor="start" x="4159" y="-208.5" font-family="Helvetica,sans-Serif" font-size="10.00">std_msgs/msg/u_int32</text>
<text text-anchor="middle" x="4214" y="-197.5" font-family="Helvetica,sans-Serif" font-size="10.00">_multi_array.hpp</text>
</a>
</g>
</g>
<!-- Node1&#45;&gt;Node48 -->
<g id="edge52" class="edge">
<title>Node1&#45;&gt;Node48</title>
<path fill="none" stroke="midnightblue" d="M2835.62,-275.81C3061.22,-271.11 3863.46,-252.61 4140.83,-220.98"/>
<polygon fill="midnightblue" stroke="midnightblue" points="4141.35,-224.44 4150.88,-219.8 4140.54,-217.49 4141.35,-224.44"/>
</g>
<!-- Node49 -->
<g id="node47" class="node">
<title>Node49</title>
<g id="a_node47"><a xlink:title=" ">
<polygon fill="white" stroke="#bfbfbf" points="4295.5,-196 4295.5,-215 4442.5,-215 4442.5,-196 4295.5,-196"/>
<text text-anchor="middle" x="4369" y="-203" font-family="Helvetica,sans-Serif" font-size="10.00">std_msgs/msg/u_int64.hpp</text>
</a>
</g>
</g>
<!-- Node1&#45;&gt;Node49 -->
<g id="edge53" class="edge">
<title>Node1&#45;&gt;Node49</title>
<path fill="none" stroke="midnightblue" d="M2835.55,-275.87C3078.73,-271.11 3997.23,-251.44 4286,-221 4295.93,-219.95 4306.46,-218.43 4316.57,-216.77"/>
<polygon fill="midnightblue" stroke="midnightblue" points="4317.24,-220.21 4326.51,-215.07 4316.06,-213.31 4317.24,-220.21"/>
</g>
<!-- Node50 -->
<g id="node48" class="node">
<title>Node50</title>
<g id="a_node48"><a xlink:title=" ">
<polygon fill="white" stroke="#bfbfbf" points="4461,-190.5 4461,-220.5 4587,-220.5 4587,-190.5 4461,-190.5"/>
<text text-anchor="start" x="4469" y="-208.5" font-family="Helvetica,sans-Serif" font-size="10.00">std_msgs/msg/u_int64</text>
<text text-anchor="middle" x="4524" y="-197.5" font-family="Helvetica,sans-Serif" font-size="10.00">_multi_array.hpp</text>
</a>
</g>
</g>
<!-- Node1&#45;&gt;Node50 -->
<g id="edge54" class="edge">
<title>Node1&#45;&gt;Node50</title>
<path fill="none" stroke="midnightblue" d="M2835.86,-276.33C3093.36,-273.23 4108.78,-258.9 4450.71,-220.98"/>
<polygon fill="midnightblue" stroke="midnightblue" points="4451.34,-224.44 4460.88,-219.83 4450.55,-217.48 4451.34,-224.44"/>
</g>
<!-- Node51 -->
<g id="node49" class="node">
<title>Node51</title>
<g id="a_node49"><a xlink:title=" ">
<polygon fill="white" stroke="#bfbfbf" points="4605.5,-196 4605.5,-215 4746.5,-215 4746.5,-196 4605.5,-196"/>
<text text-anchor="middle" x="4676" y="-203" font-family="Helvetica,sans-Serif" font-size="10.00">std_msgs/msg/u_int8.hpp</text>
</a>
</g>
</g>
<!-- Node1&#45;&gt;Node51 -->
<g id="edge55" class="edge">
<title>Node1&#45;&gt;Node51</title>
<path fill="none" stroke="midnightblue" d="M2835.86,-276.35C3109.49,-273.22 4243.11,-258.2 4596,-221 4605.58,-219.99 4615.75,-218.49 4625.5,-216.83"/>
<polygon fill="midnightblue" stroke="midnightblue" points="4626.24,-220.25 4635.47,-215.05 4625.01,-213.36 4626.24,-220.25"/>
</g>
<!-- Node52 -->
<g id="node50" class="node">
<title>Node52</title>
<g id="a_node50"><a xlink:title=" ">
<polygon fill="white" stroke="#bfbfbf" points="4765,-190.5 4765,-220.5 4885,-220.5 4885,-190.5 4765,-190.5"/>
<text text-anchor="start" x="4773" y="-208.5" font-family="Helvetica,sans-Serif" font-size="10.00">std_msgs/msg/u_int8</text>
<text text-anchor="middle" x="4825" y="-197.5" font-family="Helvetica,sans-Serif" font-size="10.00">_multi_array.hpp</text>
</a>
</g>
</g>
<!-- Node1&#45;&gt;Node52 -->
<g id="edge56" class="edge">
<title>Node1&#45;&gt;Node52</title>
<path fill="none" stroke="midnightblue" d="M2835.78,-276.75C3121.41,-275.34 4349.68,-266.75 4754.89,-220.95"/>
<polygon fill="midnightblue" stroke="midnightblue" points="4755.36,-224.42 4764.89,-219.79 4754.56,-217.47 4755.36,-224.42"/>
</g>
<!-- Node4 -->
<g id="node4" class="node">
<title>Node4</title>
<g id="a_node4"><a xlink:href="can__callback__handler_8hpp.html" target="_top" xlink:title="CANデータフレームをコールバックで処理するためのライブラリ">
<polygon fill="white" stroke="black" points="141.5,-123.5 141.5,-153.5 286.5,-153.5 286.5,-123.5 141.5,-123.5"/>
<text text-anchor="start" x="149.5" y="-141.5" font-family="Helvetica,sans-Serif" font-size="10.00">alps_cmn/communication</text>
<text text-anchor="middle" x="214" y="-130.5" font-family="Helvetica,sans-Serif" font-size="10.00">/can_callback_handler.hpp</text>
</a>
</g>
</g>
<!-- Node3&#45;&gt;Node4 -->
<g id="edge3" class="edge">
<title>Node3&#45;&gt;Node4</title>
<path fill="none" stroke="midnightblue" d="M707.35,-191.21C704.2,-190.79 701.07,-190.39 698,-190 557.34,-172.26 393.12,-156.08 296.66,-147.04"/>
<polygon fill="midnightblue" stroke="midnightblue" points="296.96,-143.55 286.68,-146.1 296.31,-150.52 296.96,-143.55"/>
</g>
<!-- Node11 -->
<g id="node8" class="node">
<title>Node11</title>
<g id="a_node8"><a xlink:href="cobs_8hpp.html" target="_top" xlink:title="COBS変換ライブラリ">
<polygon fill="white" stroke="black" points="610,-123.5 610,-153.5 752,-153.5 752,-123.5 610,-123.5"/>
<text text-anchor="start" x="618" y="-141.5" font-family="Helvetica,sans-Serif" font-size="10.00">alps_cmn/communication</text>
<text text-anchor="middle" x="681" y="-130.5" font-family="Helvetica,sans-Serif" font-size="10.00">/cobs.hpp</text>
</a>
</g>
</g>
<!-- Node3&#45;&gt;Node11 -->
<g id="edge7" class="edge">
<title>Node3&#45;&gt;Node11</title>
<path fill="none" stroke="midnightblue" d="M771.05,-190.4C754.62,-181.11 732.91,-168.84 714.92,-158.67"/>
<polygon fill="midnightblue" stroke="midnightblue" points="716.33,-155.45 705.9,-153.58 712.89,-161.54 716.33,-155.45"/>
</g>
<!-- Node17 -->
<g id="node14" class="node">
<title>Node17</title>
<g id="a_node14"><a xlink:href="logging__macros_8hpp.html" target="_top" xlink:title=" ">
<polygon fill="white" stroke="black" points="393,-123.5 393,-153.5 513,-153.5 513,-123.5 393,-123.5"/>
<text text-anchor="start" x="401" y="-141.5" font-family="Helvetica,sans-Serif" font-size="10.00">alps_cmn/log/logging</text>
<text text-anchor="middle" x="453" y="-130.5" font-family="Helvetica,sans-Serif" font-size="10.00">_macros.hpp</text>
</a>
</g>
</g>
<!-- Node3&#45;&gt;Node17 -->
<g id="edge13" class="edge">
<title>Node3&#45;&gt;Node17</title>
<path fill="none" stroke="midnightblue" d="M722,-190.48C663.1,-179.32 581.24,-163.8 523.33,-152.83"/>
<polygon fill="midnightblue" stroke="midnightblue" points="523.65,-149.33 513.17,-150.9 522.34,-156.2 523.65,-149.33"/>
</g>
<!-- Node20 -->
<g id="node17" class="node">
<title>Node20</title>
<g id="a_node17"><a xlink:href="serializer_8hpp.html" target="_top" xlink:title="データとバイト列の変換ライブラリ">
<polygon fill="white" stroke="black" points="913,-129 913,-148 1069,-148 1069,-129 913,-129"/>
<text text-anchor="middle" x="991" y="-136" font-family="Helvetica,sans-Serif" font-size="10.00">alps_cmn/type/serializer.hpp</text>
</a>
</g>
</g>
<!-- Node3&#45;&gt;Node20 -->
<g id="edge17" class="edge">
<title>Node3&#45;&gt;Node20</title>
<path fill="none" stroke="midnightblue" d="M838.31,-190.4C873.44,-178.69 922.81,-162.23 955.8,-151.23"/>
<polygon fill="midnightblue" stroke="midnightblue" points="957.1,-154.49 965.48,-148.01 954.89,-147.85 957.1,-154.49"/>
</g>
<!-- Node5 -->
<g id="node5" class="node">
<title>Node5</title>
<g id="a_node5"><a xlink:href="i__can__io_8hpp.html" target="_top" xlink:title=" ">
<polygon fill="white" stroke="red" points="0,-56.5 0,-86.5 142,-86.5 142,-56.5 0,-56.5"/>
<text text-anchor="start" x="8" y="-74.5" font-family="Helvetica,sans-Serif" font-size="10.00">alps_cmn/communication</text>
<text text-anchor="middle" x="71" y="-63.5" font-family="Helvetica,sans-Serif" font-size="10.00">/i_can_io.hpp</text>
</a>
</g>
</g>
<!-- Node4&#45;&gt;Node5 -->
<g id="edge4" class="edge">
<title>Node4&#45;&gt;Node5</title>
<path fill="none" stroke="midnightblue" d="M182.97,-123.4C161.98,-113.86 134.06,-101.16 111.35,-90.84"/>
<polygon fill="midnightblue" stroke="midnightblue" points="112.52,-87.53 101.97,-86.58 109.62,-93.9 112.52,-87.53"/>
</g>
<!-- Node9 -->
<g id="node6" class="node">
<title>Node9</title>
<g id="a_node6"><a xlink:title=" ">
<polygon fill="white" stroke="#bfbfbf" points="278,-0.5 278,-19.5 362,-19.5 362,-0.5 278,-0.5"/>
<text text-anchor="middle" x="320" y="-7.5" font-family="Helvetica,sans-Serif" font-size="10.00">etl/delegate.h</text>
</a>
</g>
</g>
<!-- Node4&#45;&gt;Node9 -->
<g id="edge5" class="edge">
<title>Node4&#45;&gt;Node9</title>
<path fill="none" stroke="midnightblue" d="M202.7,-123.32C190.39,-106.04 174.3,-76.6 189,-56 206.86,-30.99 239.53,-19.73 267.78,-14.73"/>
<polygon fill="midnightblue" stroke="midnightblue" points="268.61,-18.15 277.95,-13.16 267.54,-11.23 268.61,-18.15"/>
</g>
<!-- Node10 -->
<g id="node7" class="node">
<title>Node10</title>
<g id="a_node7"><a xlink:title=" ">
<polygon fill="white" stroke="#bfbfbf" points="198,-62 198,-81 316,-81 316,-62 198,-62"/>
<text text-anchor="middle" x="257" y="-69" font-family="Helvetica,sans-Serif" font-size="10.00">etl/unordered_map.h</text>
</a>
</g>
</g>
<!-- Node4&#45;&gt;Node10 -->
<g id="edge6" class="edge">
<title>Node4&#45;&gt;Node10</title>
<path fill="none" stroke="midnightblue" d="M223.33,-123.4C229.9,-113.46 238.74,-100.11 245.71,-89.57"/>
<polygon fill="midnightblue" stroke="midnightblue" points="248.65,-91.47 251.25,-81.19 242.81,-87.6 248.65,-91.47"/>
</g>
<!-- Node12 -->
<g id="node9" class="node">
<title>Node12</title>
<g id="a_node9"><a xlink:title=" ">
<polygon fill="white" stroke="#bfbfbf" points="488,-62 488,-81 540,-81 540,-62 488,-62"/>
<text text-anchor="middle" x="514" y="-69" font-family="Helvetica,sans-Serif" font-size="10.00">cassert</text>
</a>
</g>
</g>
<!-- Node11&#45;&gt;Node12 -->
<g id="edge8" class="edge">
<title>Node11&#45;&gt;Node12</title>
<path fill="none" stroke="midnightblue" d="M643.34,-123.41C616.88,-113.42 580.68,-99.62 549,-87 547.36,-86.35 545.68,-85.67 543.99,-84.99"/>
<polygon fill="midnightblue" stroke="midnightblue" points="544.9,-81.58 534.32,-81.03 542.25,-88.06 544.9,-81.58"/>
</g>
<!-- Node13 -->
<g id="node10" class="node">
<title>Node13</title>
<g id="a_node10"><a xlink:title=" ">
<polygon fill="white" stroke="#bfbfbf" points="690,-62 690,-81 740,-81 740,-62 690,-62"/>
<text text-anchor="middle" x="715" y="-69" font-family="Helvetica,sans-Serif" font-size="10.00">cstdint</text>
</a>
</g>
</g>
<!-- Node11&#45;&gt;Node13 -->
<g id="edge9" class="edge">
<title>Node11&#45;&gt;Node13</title>
<path fill="none" stroke="midnightblue" d="M688.38,-123.4C693.47,-113.66 700.28,-100.65 705.73,-90.21"/>
<polygon fill="midnightblue" stroke="midnightblue" points="708.92,-91.68 710.45,-81.19 702.72,-88.43 708.92,-91.68"/>
</g>
<!-- Node14 -->
<g id="node11" class="node">
<title>Node14</title>
<g id="a_node11"><a xlink:title=" ">
<polygon fill="white" stroke="#bfbfbf" points="558,-62 558,-81 604,-81 604,-62 558,-62"/>
<text text-anchor="middle" x="581" y="-69" font-family="Helvetica,sans-Serif" font-size="10.00">cstdio</text>
</a>
</g>
</g>
<!-- Node11&#45;&gt;Node14 -->
<g id="edge10" class="edge">
<title>Node11&#45;&gt;Node14</title>
<path fill="none" stroke="midnightblue" d="M659.3,-123.4C642.53,-112.5 619.43,-97.48 602.67,-86.58"/>
<polygon fill="midnightblue" stroke="midnightblue" points="604.38,-83.52 594.09,-81.01 600.56,-89.39 604.38,-83.52"/>
</g>
<!-- Node15 -->
<g id="node12" class="node">
<title>Node15</title>
<g id="a_node12"><a xlink:title=" ">
<polygon fill="white" stroke="#bfbfbf" points="622.5,-62 622.5,-81 671.5,-81 671.5,-62 622.5,-62"/>
<text text-anchor="middle" x="647" y="-69" font-family="Helvetica,sans-Serif" font-size="10.00">cstdlib</text>
</a>
</g>
</g>
<!-- Node11&#45;&gt;Node15 -->
<g id="edge11" class="edge">
<title>Node11&#45;&gt;Node15</title>
<path fill="none" stroke="midnightblue" d="M673.62,-123.4C668.53,-113.66 661.72,-100.65 656.27,-90.21"/>
<polygon fill="midnightblue" stroke="midnightblue" points="659.28,-88.43 651.55,-81.19 653.08,-91.68 659.28,-88.43"/>
</g>
<!-- Node16 -->
<g id="node13" class="node">
<title>Node16</title>
<g id="a_node13"><a xlink:title=" ">
<polygon fill="white" stroke="#bfbfbf" points="758,-62 758,-81 868,-81 868,-62 758,-62"/>
<text text-anchor="middle" x="813" y="-69" font-family="Helvetica,sans-Serif" font-size="10.00">etl/circular_buffer.h</text>
</a>
</g>
</g>
<!-- Node11&#45;&gt;Node16 -->
<g id="edge12" class="edge">
<title>Node11&#45;&gt;Node16</title>
<path fill="none" stroke="midnightblue" d="M709.64,-123.4C732.5,-112.14 764.26,-96.5 786.52,-85.54"/>
<polygon fill="midnightblue" stroke="midnightblue" points="788.3,-88.56 795.72,-81.01 785.21,-82.28 788.3,-88.56"/>
</g>
<!-- Node18 -->
<g id="node15" class="node">
<title>Node18</title>
<g id="a_node15"><a xlink:href="logger_8hpp.html" target="_top" xlink:title=" ">
<polygon fill="white" stroke="black" points="334.5,-62 334.5,-81 469.5,-81 469.5,-62 334.5,-62"/>
<text text-anchor="middle" x="402" y="-69" font-family="Helvetica,sans-Serif" font-size="10.00">alps_cmn/log/logger.hpp</text>
</a>
</g>
</g>
<!-- Node17&#45;&gt;Node18 -->
<g id="edge14" class="edge">
<title>Node17&#45;&gt;Node18</title>
<path fill="none" stroke="midnightblue" d="M441.93,-123.4C434.06,-113.36 423.45,-99.84 415.15,-89.25"/>
<polygon fill="midnightblue" stroke="midnightblue" points="417.75,-86.9 408.82,-81.19 412.24,-91.22 417.75,-86.9"/>
</g>
<!-- Node18&#45;&gt;Node9 -->
<g id="edge15" class="edge">
<title>Node18&#45;&gt;Node9</title>
<path fill="none" stroke="midnightblue" d="M390.25,-61.98C377.22,-52.52 355.96,-37.1 340.24,-25.69"/>
<polygon fill="midnightblue" stroke="midnightblue" points="341.88,-22.55 331.73,-19.51 337.77,-28.21 341.88,-22.55"/>
</g>
<!-- Node19 -->
<g id="node16" class="node">
<title>Node19</title>
<g id="a_node16"><a xlink:title=" ">
<polygon fill="white" stroke="#bfbfbf" points="448.5,-0.5 448.5,-19.5 517.5,-19.5 517.5,-0.5 448.5,-0.5"/>
<text text-anchor="middle" x="483" y="-7.5" font-family="Helvetica,sans-Serif" font-size="10.00">etl/string.h</text>
</a>
</g>
</g>
<!-- Node18&#45;&gt;Node19 -->
<g id="edge16" class="edge">
<title>Node18&#45;&gt;Node19</title>
<path fill="none" stroke="midnightblue" d="M413.61,-61.98C426.48,-52.52 447.47,-37.1 463.01,-25.69"/>
<polygon fill="midnightblue" stroke="midnightblue" points="465.43,-28.25 471.42,-19.51 461.28,-22.61 465.43,-28.25"/>
</g>
<!-- Node20&#45;&gt;Node13 -->
<g id="edge20" class="edge">
<title>Node20&#45;&gt;Node13</title>
<path fill="none" stroke="midnightblue" d="M934.45,-128.95C884.88,-120.69 811.24,-106.55 749,-87 746.86,-86.33 744.67,-85.57 742.49,-84.76"/>
<polygon fill="midnightblue" stroke="midnightblue" points="743.69,-81.47 733.1,-81 741.08,-87.97 743.69,-81.47"/>
</g>
<!-- Node20&#45;&gt;Node16 -->
<g id="edge28" class="edge">
<title>Node20&#45;&gt;Node16</title>
<path fill="none" stroke="midnightblue" d="M967.36,-128.87C936.29,-117.52 881.53,-97.52 846.28,-84.65"/>
<polygon fill="midnightblue" stroke="midnightblue" points="847.05,-81.21 836.45,-81.06 844.64,-87.78 847.05,-81.21"/>
</g>
<!-- Node20&#45;&gt;Node19 -->
<g id="edge29" class="edge">
<title>Node20&#45;&gt;Node19</title>
<path fill="none" stroke="midnightblue" d="M977.27,-128.95C961.84,-119.21 936.17,-102.61 915,-87 897.46,-74.06 897.08,-64.47 877,-56 814.91,-29.82 617.41,-17.37 527.88,-12.95"/>
<polygon fill="midnightblue" stroke="midnightblue" points="527.93,-9.45 517.77,-12.47 527.59,-16.44 527.93,-9.45"/>
</g>
<!-- Node21 -->
<g id="node18" class="node">
<title>Node21</title>
<g id="a_node18"><a xlink:title=" ">
<polygon fill="white" stroke="#bfbfbf" points="924,-62 924,-81 988,-81 988,-62 924,-62"/>
<text text-anchor="middle" x="956" y="-69" font-family="Helvetica,sans-Serif" font-size="10.00">algorithm</text>
</a>
</g>
</g>
<!-- Node20&#45;&gt;Node21 -->
<g id="edge18" class="edge">
<title>Node20&#45;&gt;Node21</title>
<path fill="none" stroke="midnightblue" d="M986.28,-128.73C980.98,-118.89 972.24,-102.66 965.51,-90.16"/>
<polygon fill="midnightblue" stroke="midnightblue" points="968.47,-88.27 960.65,-81.13 962.3,-91.59 968.47,-88.27"/>
</g>
<!-- Node22 -->
<g id="node19" class="node">
<title>Node22</title>
<g id="a_node19"><a xlink:title=" ">
<polygon fill="white" stroke="#bfbfbf" points="1006,-62 1006,-81 1048,-81 1048,-62 1006,-62"/>
<text text-anchor="middle" x="1027" y="-69" font-family="Helvetica,sans-Serif" font-size="10.00">array</text>
</a>
</g>
</g>
<!-- Node20&#45;&gt;Node22 -->
<g id="edge19" class="edge">
<title>Node20&#45;&gt;Node22</title>
<path fill="none" stroke="midnightblue" d="M995.86,-128.73C1001.31,-118.89 1010.3,-102.66 1017.22,-90.16"/>
<polygon fill="midnightblue" stroke="midnightblue" points="1020.44,-91.57 1022.22,-81.13 1014.31,-88.18 1020.44,-91.57"/>
</g>
<!-- Node23 -->
<g id="node20" class="node">
<title>Node23</title>
<g id="a_node20"><a xlink:title=" ">
<polygon fill="white" stroke="#bfbfbf" points="1066,-62 1066,-81 1116,-81 1116,-62 1066,-62"/>
<text text-anchor="middle" x="1091" y="-69" font-family="Helvetica,sans-Serif" font-size="10.00">cstring</text>
</a>
</g>
</g>
<!-- Node20&#45;&gt;Node23 -->
<g id="edge21" class="edge">
<title>Node20&#45;&gt;Node23</title>
<path fill="none" stroke="midnightblue" d="M1004.49,-128.73C1021.05,-117.96 1049.38,-99.55 1069.09,-86.74"/>
<polygon fill="midnightblue" stroke="midnightblue" points="1071.25,-89.51 1077.73,-81.13 1067.44,-83.64 1071.25,-89.51"/>
</g>
<!-- Node24 -->
<g id="node21" class="node">
<title>Node24</title>
<g id="a_node21"><a xlink:title=" ">
<polygon fill="white" stroke="#bfbfbf" points="1139.5,-0.5 1139.5,-19.5 1180.5,-19.5 1180.5,-0.5 1139.5,-0.5"/>
<text text-anchor="middle" x="1160" y="-7.5" font-family="Helvetica,sans-Serif" font-size="10.00">tuple</text>
</a>
</g>
</g>
<!-- Node20&#45;&gt;Node24 -->
<g id="edge22" class="edge">
<title>Node20&#45;&gt;Node24</title>
<path fill="none" stroke="midnightblue" d="M1038.92,-128.93C1066.9,-121.8 1101.26,-109.11 1125,-87 1141.57,-71.57 1150.94,-46.76 1155.73,-29.71"/>
<polygon fill="midnightblue" stroke="midnightblue" points="1159.18,-30.35 1158.25,-19.8 1152.39,-28.63 1159.18,-30.35"/>
</g>
<!-- Node25 -->
<g id="node22" class="node">
<title>Node25</title>
<g id="a_node22"><a xlink:title=" ">
<polygon fill="white" stroke="#bfbfbf" points="1215.5,-0.5 1215.5,-19.5 1284.5,-19.5 1284.5,-0.5 1215.5,-0.5"/>
<text text-anchor="middle" x="1250" y="-7.5" font-family="Helvetica,sans-Serif" font-size="10.00">type_traits</text>
</a>
</g>
</g>
<!-- Node20&#45;&gt;Node25 -->
<g id="edge23" class="edge">
<title>Node20&#45;&gt;Node25</title>
<path fill="none" stroke="midnightblue" d="M1029.77,-128.98C1062.66,-120.86 1110.5,-106.91 1149,-87 1181.26,-70.32 1214.02,-43.44 1233.16,-26.52"/>
<polygon fill="midnightblue" stroke="midnightblue" points="1235.61,-29.02 1240.71,-19.73 1230.93,-23.82 1235.61,-29.02"/>
</g>
<!-- Node20&#45;&gt;Node26 -->
<g id="edge24" class="edge">
<title>Node20&#45;&gt;Node26</title>
<path fill="none" stroke="midnightblue" d="M1043.5,-128.96C1112.27,-117.73 1230.24,-98.29 1289.85,-87.15"/>
<polygon fill="midnightblue" stroke="midnightblue" points="1290.76,-90.54 1299.93,-85.24 1289.45,-83.67 1290.76,-90.54"/>
</g>
<!-- Node8 -->
<g id="node25" class="node">
<title>Node8</title>
<g id="a_node25"><a xlink:title=" ">
<polygon fill="white" stroke="#bfbfbf" points="1210.5,-62 1210.5,-81 1281.5,-81 1281.5,-62 1210.5,-62"/>
<text text-anchor="middle" x="1246" y="-69" font-family="Helvetica,sans-Serif" font-size="10.00">etl/vector.h</text>
</a>
</g>
</g>
<!-- Node20&#45;&gt;Node8 -->
<g id="edge30" class="edge">
<title>Node20&#45;&gt;Node8</title>
<path fill="none" stroke="midnightblue" d="M1027.78,-128.92C1068.89,-119.21 1137.41,-102.71 1196,-87 1199.77,-85.99 1203.69,-84.91 1207.61,-83.8"/>
<polygon fill="midnightblue" stroke="midnightblue" points="1208.58,-87.17 1217.24,-81.06 1206.66,-80.44 1208.58,-87.17"/>
</g>
<!-- Node26&#45;&gt;Node24 -->
<g id="edge26" class="edge">
<title>Node26&#45;&gt;Node24</title>
<path fill="none" stroke="midnightblue" d="M1311.33,-56.47C1273.98,-45.25 1222.69,-29.84 1190.45,-20.15"/>
<polygon fill="midnightblue" stroke="midnightblue" points="1191.28,-16.75 1180.7,-17.22 1189.27,-23.45 1191.28,-16.75"/>
</g>
<!-- Node26&#45;&gt;Node25 -->
<g id="edge27" class="edge">
<title>Node26&#45;&gt;Node25</title>
<path fill="none" stroke="midnightblue" d="M1332.41,-56.4C1314.93,-46.77 1291.91,-34.09 1274.64,-24.58"/>
<polygon fill="midnightblue" stroke="midnightblue" points="1276.16,-21.42 1265.71,-19.66 1272.78,-27.55 1276.16,-21.42"/>
</g>
<!-- Node27 -->
<g id="node24" class="node">
<title>Node27</title>
<g id="a_node24"><a xlink:title=" ">
<polygon fill="white" stroke="#bfbfbf" points="1336,-0.5 1336,-19.5 1380,-19.5 1380,-0.5 1336,-0.5"/>
<text text-anchor="middle" x="1358" y="-7.5" font-family="Helvetica,sans-Serif" font-size="10.00">string</text>
</a>
</g>
</g>
<!-- Node26&#45;&gt;Node27 -->
<g id="edge25" class="edge">
<title>Node26&#45;&gt;Node27</title>
<path fill="none" stroke="midnightblue" d="M1358,-56.4C1358,-48.47 1358,-38.46 1358,-29.86"/>
<polygon fill="midnightblue" stroke="midnightblue" points="1361.5,-29.66 1358,-19.66 1354.5,-29.66 1361.5,-29.66"/>
</g>
</g>
</svg>
