<?xml version="1.0" encoding="UTF-8" standalone="no"?>
<!DOCTYPE svg PUBLIC "-//W3C//DTD SVG 1.1//EN"
 "http://www.w3.org/Graphics/SVG/1.1/DTD/svg11.dtd">
<!-- Generated by graphviz version 2.43.0 (0)
 -->
<!-- Title: alps_core/lib_internal/alps_ros2_lib/include/alps_ros2/type/topic_converter.hpp Pages: 1 -->
<svg width="1721pt" height="374pt"
 viewBox="0.00 0.00 1721.00 374.00" xmlns="http://www.w3.org/2000/svg" xmlns:xlink="http://www.w3.org/1999/xlink">
<g id="graph0" class="graph" transform="scale(1 1) rotate(0) translate(4 370)">
<title>alps_core/lib_internal/alps_ros2_lib/include/alps_ros2/type/topic_converter.hpp</title>
<polygon fill="white" stroke="transparent" points="-4,4 -4,-370 1717,-370 1717,4 -4,4"/>
<!-- Node1 -->
<g id="node1" class="node">
<title>Node1</title>
<g id="a_node1"><a xlink:title=" ">
<polygon fill="#bfbfbf" stroke="black" points="1202,-324.5 1202,-365.5 1392,-365.5 1392,-324.5 1202,-324.5"/>
<text text-anchor="start" x="1210" y="-353.5" font-family="Helvetica,sans-Serif" font-size="10.00">alps_core/lib_internal</text>
<text text-anchor="start" x="1210" y="-342.5" font-family="Helvetica,sans-Serif" font-size="10.00">/alps_ros2_lib/include</text>
<text text-anchor="middle" x="1297" y="-331.5" font-family="Helvetica,sans-Serif" font-size="10.00">/alps_ros2/type/topic_converter.hpp</text>
</a>
</g>
</g>
<!-- Node2 -->
<g id="node2" class="node">
<title>Node2</title>
<g id="a_node2"><a xlink:title=" ">
<polygon fill="white" stroke="#bfbfbf" points="741,-263 741,-282 797,-282 797,-263 741,-263"/>
<text text-anchor="middle" x="769" y="-270" font-family="Helvetica,sans-Serif" font-size="10.00">optional</text>
</a>
</g>
</g>
<!-- Node1&#45;&gt;Node2 -->
<g id="edge1" class="edge">
<title>Node1&#45;&gt;Node2</title>
<path fill="none" stroke="midnightblue" d="M1201.58,-340.45C1101.68,-335.04 940.89,-321.51 806,-288 803.33,-287.34 800.59,-286.53 797.88,-285.64"/>
<polygon fill="midnightblue" stroke="midnightblue" points="798.87,-282.27 788.28,-282.15 796.48,-288.85 798.87,-282.27"/>
</g>
<!-- Node3 -->
<g id="node3" class="node">
<title>Node3</title>
<g id="a_node3"><a xlink:href="can__typed__data__transceiver_8hpp.html" target="_top" xlink:title="CAN通信で型付けされたデータの送受信を行うライブラリ">
<polygon fill="white" stroke="black" points="815.5,-257.5 815.5,-287.5 992.5,-287.5 992.5,-257.5 815.5,-257.5"/>
<text text-anchor="start" x="823.5" y="-275.5" font-family="Helvetica,sans-Serif" font-size="10.00">alps_cmn/communication</text>
<text text-anchor="middle" x="904" y="-264.5" font-family="Helvetica,sans-Serif" font-size="10.00">/can_typed_data_transceiver.hpp</text>
</a>
</g>
</g>
<!-- Node1&#45;&gt;Node3 -->
<g id="edge2" class="edge">
<title>Node1&#45;&gt;Node3</title>
<path fill="none" stroke="midnightblue" d="M1201.87,-326.93C1138.06,-315.49 1054.63,-300.52 992.29,-289.34"/>
<polygon fill="midnightblue" stroke="midnightblue" points="992.55,-285.83 982.09,-287.51 991.31,-292.72 992.55,-285.83"/>
</g>
<!-- Node26 -->
<g id="node26" class="node">
<title>Node26</title>
<g id="a_node26"><a xlink:href="tuple__traits_8hpp.html" target="_top" xlink:title="タプル関係の型特性">
<polygon fill="white" stroke="black" points="1247,-123.5 1247,-153.5 1363,-153.5 1363,-123.5 1247,-123.5"/>
<text text-anchor="start" x="1255" y="-141.5" font-family="Helvetica,sans-Serif" font-size="10.00">alps_cmn/type/tuple</text>
<text text-anchor="middle" x="1305" y="-130.5" font-family="Helvetica,sans-Serif" font-size="10.00">_traits.hpp</text>
</a>
</g>
</g>
<!-- Node1&#45;&gt;Node26 -->
<g id="edge41" class="edge">
<title>Node1&#45;&gt;Node26</title>
<path fill="none" stroke="midnightblue" d="M1259.41,-324.38C1245.99,-315.27 1232.37,-303.08 1225,-288 1218.95,-275.62 1220.94,-270.17 1225,-257 1236.58,-219.4 1264.77,-183.06 1284.38,-161"/>
<polygon fill="midnightblue" stroke="midnightblue" points="1287.03,-163.29 1291.17,-153.54 1281.85,-158.58 1287.03,-163.29"/>
</g>
<!-- Node28 -->
<g id="node28" class="node">
<title>Node28</title>
<g id="a_node28"><a xlink:href="always__false_8hpp.html" target="_top" xlink:title=" ">
<polygon fill="white" stroke="black" points="1234.5,-257.5 1234.5,-287.5 1359.5,-287.5 1359.5,-257.5 1234.5,-257.5"/>
<text text-anchor="start" x="1242.5" y="-275.5" font-family="Helvetica,sans-Serif" font-size="10.00">alps_cmn/type/always</text>
<text text-anchor="middle" x="1297" y="-264.5" font-family="Helvetica,sans-Serif" font-size="10.00">_false.hpp</text>
</a>
</g>
</g>
<!-- Node1&#45;&gt;Node28 -->
<g id="edge34" class="edge">
<title>Node1&#45;&gt;Node28</title>
<path fill="none" stroke="midnightblue" d="M1297,-324.36C1297,-316.23 1297,-306.7 1297,-298.11"/>
<polygon fill="midnightblue" stroke="midnightblue" points="1300.5,-297.89 1297,-287.89 1293.5,-297.89 1300.5,-297.89"/>
</g>
<!-- Node29 -->
<g id="node29" class="node">
<title>Node29</title>
<g id="a_node29"><a xlink:href="array__traits_8hpp.html" target="_top" xlink:title="array関係の型特性">
<polygon fill="white" stroke="black" points="1597,-190.5 1597,-220.5 1713,-220.5 1713,-190.5 1597,-190.5"/>
<text text-anchor="start" x="1605" y="-208.5" font-family="Helvetica,sans-Serif" font-size="10.00">alps_cmn/type/array</text>
<text text-anchor="middle" x="1655" y="-197.5" font-family="Helvetica,sans-Serif" font-size="10.00">_traits.hpp</text>
</a>
</g>
</g>
<!-- Node1&#45;&gt;Node29 -->
<g id="edge35" class="edge">
<title>Node1&#45;&gt;Node29</title>
<path fill="none" stroke="midnightblue" d="M1392.19,-325.55C1431.06,-316.49 1475.96,-304.02 1515,-288 1555.85,-271.24 1599.26,-244.38 1626.71,-226.12"/>
<polygon fill="midnightblue" stroke="midnightblue" points="1628.7,-229 1635.05,-220.51 1624.79,-223.19 1628.7,-229"/>
</g>
<!-- Node32 -->
<g id="node32" class="node">
<title>Node32</title>
<g id="a_node32"><a xlink:href="vector__traits_8hpp.html" target="_top" xlink:title="vector関係の型特性">
<polygon fill="white" stroke="black" points="1457,-190.5 1457,-220.5 1579,-220.5 1579,-190.5 1457,-190.5"/>
<text text-anchor="start" x="1465" y="-208.5" font-family="Helvetica,sans-Serif" font-size="10.00">alps_cmn/type/vector</text>
<text text-anchor="middle" x="1518" y="-197.5" font-family="Helvetica,sans-Serif" font-size="10.00">_traits.hpp</text>
</a>
</g>
</g>
<!-- Node1&#45;&gt;Node32 -->
<g id="edge42" class="edge">
<title>Node1&#45;&gt;Node32</title>
<path fill="none" stroke="midnightblue" d="M1392.18,-335.96C1427.83,-328.45 1466.16,-314.33 1493,-288 1508.3,-273 1514.29,-248.9 1516.61,-230.79"/>
<polygon fill="midnightblue" stroke="midnightblue" points="1520.1,-230.97 1517.61,-220.68 1513.14,-230.28 1520.1,-230.97"/>
</g>
<!-- Node33 -->
<g id="node33" class="node">
<title>Node33</title>
<g id="a_node33"><a xlink:href="std__msgs__traits_8hpp.html" target="_top" xlink:title=" ">
<polygon fill="white" stroke="black" points="1378,-257.5 1378,-287.5 1484,-287.5 1484,-257.5 1378,-257.5"/>
<text text-anchor="start" x="1386" y="-275.5" font-family="Helvetica,sans-Serif" font-size="10.00">alps_ros2/type/std</text>
<text text-anchor="middle" x="1431" y="-264.5" font-family="Helvetica,sans-Serif" font-size="10.00">_msgs_traits.hpp</text>
</a>
</g>
</g>
<!-- Node1&#45;&gt;Node33 -->
<g id="edge47" class="edge">
<title>Node1&#45;&gt;Node33</title>
<path fill="none" stroke="midnightblue" d="M1334.33,-324.36C1353.36,-314.35 1376.4,-302.23 1395.21,-292.33"/>
<polygon fill="midnightblue" stroke="midnightblue" points="1396.85,-295.42 1404.07,-287.67 1393.59,-289.23 1396.85,-295.42"/>
</g>
<!-- Node4 -->
<g id="node4" class="node">
<title>Node4</title>
<g id="a_node4"><a xlink:href="can__callback__handler_8hpp.html" target="_top" xlink:title="CANデータフレームをコールバックで処理するためのライブラリ">
<polygon fill="white" stroke="black" points="141.5,-190.5 141.5,-220.5 286.5,-220.5 286.5,-190.5 141.5,-190.5"/>
<text text-anchor="start" x="149.5" y="-208.5" font-family="Helvetica,sans-Serif" font-size="10.00">alps_cmn/communication</text>
<text text-anchor="middle" x="214" y="-197.5" font-family="Helvetica,sans-Serif" font-size="10.00">/can_callback_handler.hpp</text>
</a>
</g>
</g>
<!-- Node3&#45;&gt;Node4 -->
<g id="edge3" class="edge">
<title>Node3&#45;&gt;Node4</title>
<path fill="none" stroke="midnightblue" d="M815.36,-258.13C812.2,-257.74 809.08,-257.36 806,-257 624.74,-235.88 411.29,-219.83 296.7,-211.93"/>
<polygon fill="midnightblue" stroke="midnightblue" points="296.81,-208.43 286.6,-211.24 296.33,-215.42 296.81,-208.43"/>
</g>
<!-- Node11 -->
<g id="node11" class="node">
<title>Node11</title>
<g id="a_node11"><a xlink:href="cobs_8hpp.html" target="_top" xlink:title="COBS変換ライブラリ">
<polygon fill="white" stroke="black" points="475,-190.5 475,-220.5 617,-220.5 617,-190.5 475,-190.5"/>
<text text-anchor="start" x="483" y="-208.5" font-family="Helvetica,sans-Serif" font-size="10.00">alps_cmn/communication</text>
<text text-anchor="middle" x="546" y="-197.5" font-family="Helvetica,sans-Serif" font-size="10.00">/cobs.hpp</text>
</a>
</g>
</g>
<!-- Node3&#45;&gt;Node11 -->
<g id="edge10" class="edge">
<title>Node3&#45;&gt;Node11</title>
<path fill="none" stroke="midnightblue" d="M826.76,-257.48C767.88,-246.79 687.01,-232.1 627.18,-221.24"/>
<polygon fill="midnightblue" stroke="midnightblue" points="627.49,-217.74 617.02,-219.39 626.23,-224.63 627.49,-217.74"/>
</g>
<!-- Node17 -->
<g id="node17" class="node">
<title>Node17</title>
<g id="a_node17"><a xlink:href="logging__macros_8hpp.html" target="_top" xlink:title=" ">
<polygon fill="white" stroke="black" points="740,-190.5 740,-220.5 860,-220.5 860,-190.5 740,-190.5"/>
<text text-anchor="start" x="748" y="-208.5" font-family="Helvetica,sans-Serif" font-size="10.00">alps_cmn/log/logging</text>
<text text-anchor="middle" x="800" y="-197.5" font-family="Helvetica,sans-Serif" font-size="10.00">_macros.hpp</text>
</a>
</g>
</g>
<!-- Node3&#45;&gt;Node17 -->
<g id="edge16" class="edge">
<title>Node3&#45;&gt;Node17</title>
<path fill="none" stroke="midnightblue" d="M881.43,-257.4C866.71,-248.2 847.31,-236.07 831.13,-225.95"/>
<polygon fill="midnightblue" stroke="midnightblue" points="832.86,-222.91 822.52,-220.58 829.15,-228.84 832.86,-222.91"/>
</g>
<!-- Node20 -->
<g id="node20" class="node">
<title>Node20</title>
<g id="a_node20"><a xlink:href="serializer_8hpp.html" target="_top" xlink:title="データとバイト列の変換ライブラリ">
<polygon fill="white" stroke="black" points="930,-196 930,-215 1086,-215 1086,-196 930,-196"/>
<text text-anchor="middle" x="1008" y="-203" font-family="Helvetica,sans-Serif" font-size="10.00">alps_cmn/type/serializer.hpp</text>
</a>
</g>
</g>
<!-- Node3&#45;&gt;Node20 -->
<g id="edge20" class="edge">
<title>Node3&#45;&gt;Node20</title>
<path fill="none" stroke="midnightblue" d="M926.57,-257.4C944.01,-246.5 968.03,-231.48 985.47,-220.58"/>
<polygon fill="midnightblue" stroke="midnightblue" points="987.76,-223.28 994.39,-215.01 984.05,-217.34 987.76,-223.28"/>
</g>
<!-- Node5 -->
<g id="node5" class="node">
<title>Node5</title>
<g id="a_node5"><a xlink:href="i__can__io_8hpp.html" target="_top" xlink:title=" ">
<polygon fill="white" stroke="black" points="0,-123.5 0,-153.5 142,-153.5 142,-123.5 0,-123.5"/>
<text text-anchor="start" x="8" y="-141.5" font-family="Helvetica,sans-Serif" font-size="10.00">alps_cmn/communication</text>
<text text-anchor="middle" x="71" y="-130.5" font-family="Helvetica,sans-Serif" font-size="10.00">/i_can_io.hpp</text>
</a>
</g>
</g>
<!-- Node4&#45;&gt;Node5 -->
<g id="edge4" class="edge">
<title>Node4&#45;&gt;Node5</title>
<path fill="none" stroke="midnightblue" d="M182.97,-190.4C161.98,-180.86 134.06,-168.16 111.35,-157.84"/>
<polygon fill="midnightblue" stroke="midnightblue" points="112.52,-154.53 101.97,-153.58 109.62,-160.9 112.52,-154.53"/>
</g>
<!-- Node9 -->
<g id="node9" class="node">
<title>Node9</title>
<g id="a_node9"><a xlink:title=" ">
<polygon fill="white" stroke="#bfbfbf" points="461,-62 461,-81 545,-81 545,-62 461,-62"/>
<text text-anchor="middle" x="503" y="-69" font-family="Helvetica,sans-Serif" font-size="10.00">etl/delegate.h</text>
</a>
</g>
</g>
<!-- Node4&#45;&gt;Node9 -->
<g id="edge8" class="edge">
<title>Node4&#45;&gt;Node9</title>
<path fill="none" stroke="midnightblue" d="M202.58,-190.5C189.65,-172.86 172.39,-142.49 189,-123 221.99,-84.29 370.11,-75.14 450.58,-73.05"/>
<polygon fill="midnightblue" stroke="midnightblue" points="451.07,-76.54 460.99,-72.81 450.91,-69.54 451.07,-76.54"/>
</g>
<!-- Node10 -->
<g id="node10" class="node">
<title>Node10</title>
<g id="a_node10"><a xlink:title=" ">
<polygon fill="white" stroke="#bfbfbf" points="198,-129 198,-148 316,-148 316,-129 198,-129"/>
<text text-anchor="middle" x="257" y="-136" font-family="Helvetica,sans-Serif" font-size="10.00">etl/unordered_map.h</text>
</a>
</g>
</g>
<!-- Node4&#45;&gt;Node10 -->
<g id="edge9" class="edge">
<title>Node4&#45;&gt;Node10</title>
<path fill="none" stroke="midnightblue" d="M223.33,-190.4C229.9,-180.46 238.74,-167.11 245.71,-156.57"/>
<polygon fill="midnightblue" stroke="midnightblue" points="248.65,-158.47 251.25,-148.19 242.81,-154.6 248.65,-158.47"/>
</g>
<!-- Node6 -->
<g id="node6" class="node">
<title>Node6</title>
<g id="a_node6"><a xlink:href="can__data__frame_8hpp.html" target="_top" xlink:title="CANフレームを表す構造体">
<polygon fill="white" stroke="black" points="101,-56.5 101,-86.5 243,-86.5 243,-56.5 101,-56.5"/>
<text text-anchor="start" x="109" y="-74.5" font-family="Helvetica,sans-Serif" font-size="10.00">alps_cmn/communication</text>
<text text-anchor="middle" x="172" y="-63.5" font-family="Helvetica,sans-Serif" font-size="10.00">/can_data_frame.hpp</text>
</a>
</g>
</g>
<!-- Node5&#45;&gt;Node6 -->
<g id="edge5" class="edge">
<title>Node5&#45;&gt;Node6</title>
<path fill="none" stroke="midnightblue" d="M92.92,-123.4C107.08,-114.28 125.71,-102.29 141.33,-92.24"/>
<polygon fill="midnightblue" stroke="midnightblue" points="143.61,-94.93 150.13,-86.58 139.82,-89.05 143.61,-94.93"/>
</g>
<!-- Node7 -->
<g id="node7" class="node">
<title>Node7</title>
<g id="a_node7"><a xlink:title=" ">
<polygon fill="white" stroke="#bfbfbf" points="145.5,-0.5 145.5,-19.5 198.5,-19.5 198.5,-0.5 145.5,-0.5"/>
<text text-anchor="middle" x="172" y="-7.5" font-family="Helvetica,sans-Serif" font-size="10.00">stdint.h</text>
</a>
</g>
</g>
<!-- Node6&#45;&gt;Node7 -->
<g id="edge6" class="edge">
<title>Node6&#45;&gt;Node7</title>
<path fill="none" stroke="midnightblue" d="M172,-56.4C172,-48.47 172,-38.46 172,-29.86"/>
<polygon fill="midnightblue" stroke="midnightblue" points="175.5,-29.66 172,-19.66 168.5,-29.66 175.5,-29.66"/>
</g>
<!-- Node8 -->
<g id="node8" class="node">
<title>Node8</title>
<g id="a_node8"><a xlink:title=" ">
<polygon fill="white" stroke="#bfbfbf" points="1145.5,-0.5 1145.5,-19.5 1216.5,-19.5 1216.5,-0.5 1145.5,-0.5"/>
<text text-anchor="middle" x="1181" y="-7.5" font-family="Helvetica,sans-Serif" font-size="10.00">etl/vector.h</text>
</a>
</g>
</g>
<!-- Node6&#45;&gt;Node8 -->
<g id="edge7" class="edge">
<title>Node6&#45;&gt;Node8</title>
<path fill="none" stroke="midnightblue" d="M243.35,-66.29C438.16,-54.8 975.22,-23.13 1135.35,-13.69"/>
<polygon fill="midnightblue" stroke="midnightblue" points="1135.57,-17.19 1145.35,-13.1 1135.16,-10.2 1135.57,-17.19"/>
</g>
<!-- Node12 -->
<g id="node12" class="node">
<title>Node12</title>
<g id="a_node12"><a xlink:title=" ">
<polygon fill="white" stroke="#bfbfbf" points="334,-129 334,-148 386,-148 386,-129 334,-129"/>
<text text-anchor="middle" x="360" y="-136" font-family="Helvetica,sans-Serif" font-size="10.00">cassert</text>
</a>
</g>
</g>
<!-- Node11&#45;&gt;Node12 -->
<g id="edge11" class="edge">
<title>Node11&#45;&gt;Node12</title>
<path fill="none" stroke="midnightblue" d="M501.11,-190.4C470.93,-180.69 430.34,-167.21 395,-154 393.15,-153.31 391.26,-152.58 389.35,-151.83"/>
<polygon fill="midnightblue" stroke="midnightblue" points="390.48,-148.51 379.89,-148.02 387.86,-155.01 390.48,-148.51"/>
</g>
<!-- Node13 -->
<g id="node13" class="node">
<title>Node13</title>
<g id="a_node13"><a xlink:title=" ">
<polygon fill="white" stroke="#bfbfbf" points="817,-129 817,-148 867,-148 867,-129 817,-129"/>
<text text-anchor="middle" x="842" y="-136" font-family="Helvetica,sans-Serif" font-size="10.00">cstdint</text>
</a>
</g>
</g>
<!-- Node11&#45;&gt;Node13 -->
<g id="edge12" class="edge">
<title>Node11&#45;&gt;Node13</title>
<path fill="none" stroke="midnightblue" d="M617.05,-194.99C670.33,-186.86 744.65,-173.37 808,-154 810.14,-153.34 812.34,-152.6 814.52,-151.8"/>
<polygon fill="midnightblue" stroke="midnightblue" points="815.92,-155.01 823.91,-148.06 813.33,-148.5 815.92,-155.01"/>
</g>
<!-- Node14 -->
<g id="node14" class="node">
<title>Node14</title>
<g id="a_node14"><a xlink:title=" ">
<polygon fill="white" stroke="#bfbfbf" points="404,-129 404,-148 450,-148 450,-129 404,-129"/>
<text text-anchor="middle" x="427" y="-136" font-family="Helvetica,sans-Serif" font-size="10.00">cstdio</text>
</a>
</g>
</g>
<!-- Node11&#45;&gt;Node14 -->
<g id="edge13" class="edge">
<title>Node11&#45;&gt;Node14</title>
<path fill="none" stroke="midnightblue" d="M520.18,-190.4C499.76,-179.24 471.45,-163.78 451.41,-152.83"/>
<polygon fill="midnightblue" stroke="midnightblue" points="453.03,-149.73 442.57,-148.01 449.67,-155.87 453.03,-149.73"/>
</g>
<!-- Node15 -->
<g id="node15" class="node">
<title>Node15</title>
<g id="a_node15"><a xlink:title=" ">
<polygon fill="white" stroke="#bfbfbf" points="468.5,-129 468.5,-148 517.5,-148 517.5,-129 468.5,-129"/>
<text text-anchor="middle" x="493" y="-136" font-family="Helvetica,sans-Serif" font-size="10.00">cstdlib</text>
</a>
</g>
</g>
<!-- Node11&#45;&gt;Node15 -->
<g id="edge14" class="edge">
<title>Node11&#45;&gt;Node15</title>
<path fill="none" stroke="midnightblue" d="M534.5,-190.4C526.32,-180.36 515.29,-166.84 506.66,-156.25"/>
<polygon fill="midnightblue" stroke="midnightblue" points="509.12,-153.73 500.09,-148.19 503.7,-158.16 509.12,-153.73"/>
</g>
<!-- Node16 -->
<g id="node16" class="node">
<title>Node16</title>
<g id="a_node16"><a xlink:title=" ">
<polygon fill="white" stroke="#bfbfbf" points="689,-129 689,-148 799,-148 799,-129 689,-129"/>
<text text-anchor="middle" x="744" y="-136" font-family="Helvetica,sans-Serif" font-size="10.00">etl/circular_buffer.h</text>
</a>
</g>
</g>
<!-- Node11&#45;&gt;Node16 -->
<g id="edge15" class="edge">
<title>Node11&#45;&gt;Node16</title>
<path fill="none" stroke="midnightblue" d="M588.96,-190.4C624.63,-178.69 674.76,-162.23 708.26,-151.23"/>
<polygon fill="midnightblue" stroke="midnightblue" points="709.68,-154.45 718.09,-148.01 707.49,-147.8 709.68,-154.45"/>
</g>
<!-- Node18 -->
<g id="node18" class="node">
<title>Node18</title>
<g id="a_node18"><a xlink:href="logger_8hpp.html" target="_top" xlink:title=" ">
<polygon fill="white" stroke="black" points="535.5,-129 535.5,-148 670.5,-148 670.5,-129 535.5,-129"/>
<text text-anchor="middle" x="603" y="-136" font-family="Helvetica,sans-Serif" font-size="10.00">alps_cmn/log/logger.hpp</text>
</a>
</g>
</g>
<!-- Node17&#45;&gt;Node18 -->
<g id="edge17" class="edge">
<title>Node17&#45;&gt;Node18</title>
<path fill="none" stroke="midnightblue" d="M757.25,-190.4C721.77,-178.69 671.89,-162.23 638.56,-151.23"/>
<polygon fill="midnightblue" stroke="midnightblue" points="639.38,-147.82 628.78,-148.01 637.18,-154.46 639.38,-147.82"/>
</g>
<!-- Node18&#45;&gt;Node9 -->
<g id="edge18" class="edge">
<title>Node18&#45;&gt;Node9</title>
<path fill="none" stroke="midnightblue" d="M589.51,-128.73C572.95,-117.96 544.62,-99.55 524.91,-86.74"/>
<polygon fill="midnightblue" stroke="midnightblue" points="526.56,-83.64 516.27,-81.13 522.75,-89.51 526.56,-83.64"/>
</g>
<!-- Node19 -->
<g id="node19" class="node">
<title>Node19</title>
<g id="a_node19"><a xlink:title=" ">
<polygon fill="white" stroke="#bfbfbf" points="920.5,-62 920.5,-81 989.5,-81 989.5,-62 920.5,-62"/>
<text text-anchor="middle" x="955" y="-69" font-family="Helvetica,sans-Serif" font-size="10.00">etl/string.h</text>
</a>
</g>
</g>
<!-- Node18&#45;&gt;Node19 -->
<g id="edge19" class="edge">
<title>Node18&#45;&gt;Node19</title>
<path fill="none" stroke="midnightblue" d="M648.19,-128.96C658.63,-126.99 669.7,-124.92 680,-123 761.15,-107.91 855.82,-90.59 910.25,-80.65"/>
<polygon fill="midnightblue" stroke="midnightblue" points="911.05,-84.07 920.26,-78.83 909.8,-77.18 911.05,-84.07"/>
</g>
<!-- Node20&#45;&gt;Node8 -->
<g id="edge33" class="edge">
<title>Node20&#45;&gt;Node8</title>
<path fill="none" stroke="midnightblue" d="M1046.04,-196C1071.08,-188.65 1102.98,-175.69 1124,-154 1158.47,-118.43 1172.9,-59.42 1178.25,-29.55"/>
<polygon fill="midnightblue" stroke="midnightblue" points="1181.71,-30.07 1179.87,-19.63 1174.8,-28.94 1181.71,-30.07"/>
</g>
<!-- Node20&#45;&gt;Node13 -->
<g id="edge23" class="edge">
<title>Node20&#45;&gt;Node13</title>
<path fill="none" stroke="midnightblue" d="M984.53,-195.83C958.05,-185.97 913.76,-169.27 876,-154 874.4,-153.36 872.77,-152.69 871.12,-152.01"/>
<polygon fill="midnightblue" stroke="midnightblue" points="872.3,-148.7 861.72,-148.06 869.59,-155.16 872.3,-148.7"/>
</g>
<!-- Node20&#45;&gt;Node16 -->
<g id="edge31" class="edge">
<title>Node20&#45;&gt;Node16</title>
<path fill="none" stroke="midnightblue" d="M973.22,-195.94C925.83,-184.27 840.94,-163.37 788.83,-150.54"/>
<polygon fill="midnightblue" stroke="midnightblue" points="789.41,-147.08 778.86,-148.08 787.74,-153.87 789.41,-147.08"/>
</g>
<!-- Node20&#45;&gt;Node19 -->
<g id="edge32" class="edge">
<title>Node20&#45;&gt;Node19</title>
<path fill="none" stroke="midnightblue" d="M1000.66,-195.78C992.93,-186.15 980.92,-169.89 974,-154 965.14,-133.65 960.09,-108.57 957.45,-91.65"/>
<polygon fill="midnightblue" stroke="midnightblue" points="960.87,-90.81 956,-81.4 953.94,-91.79 960.87,-90.81"/>
</g>
<!-- Node21 -->
<g id="node21" class="node">
<title>Node21</title>
<g id="a_node21"><a xlink:title=" ">
<polygon fill="white" stroke="#bfbfbf" points="1051,-129 1051,-148 1115,-148 1115,-129 1051,-129"/>
<text text-anchor="middle" x="1083" y="-136" font-family="Helvetica,sans-Serif" font-size="10.00">algorithm</text>
</a>
</g>
</g>
<!-- Node20&#45;&gt;Node21 -->
<g id="edge21" class="edge">
<title>Node20&#45;&gt;Node21</title>
<path fill="none" stroke="midnightblue" d="M1018.11,-195.73C1030.15,-185.31 1050.45,-167.71 1065.15,-154.97"/>
<polygon fill="midnightblue" stroke="midnightblue" points="1067.78,-157.32 1073.05,-148.13 1063.2,-152.03 1067.78,-157.32"/>
</g>
<!-- Node22 -->
<g id="node22" class="node">
<title>Node22</title>
<g id="a_node22"><a xlink:title=" ">
<polygon fill="white" stroke="#bfbfbf" points="885,-129 885,-148 927,-148 927,-129 885,-129"/>
<text text-anchor="middle" x="906" y="-136" font-family="Helvetica,sans-Serif" font-size="10.00">array</text>
</a>
</g>
</g>
<!-- Node20&#45;&gt;Node22 -->
<g id="edge22" class="edge">
<title>Node20&#45;&gt;Node22</title>
<path fill="none" stroke="midnightblue" d="M994.24,-195.73C977.27,-184.92 948.19,-166.38 928.07,-153.57"/>
<polygon fill="midnightblue" stroke="midnightblue" points="929.85,-150.55 919.54,-148.13 926.09,-156.45 929.85,-150.55"/>
</g>
<!-- Node23 -->
<g id="node23" class="node">
<title>Node23</title>
<g id="a_node23"><a xlink:title=" ">
<polygon fill="white" stroke="#bfbfbf" points="983,-129 983,-148 1033,-148 1033,-129 983,-129"/>
<text text-anchor="middle" x="1008" y="-136" font-family="Helvetica,sans-Serif" font-size="10.00">cstring</text>
</a>
</g>
</g>
<!-- Node20&#45;&gt;Node23 -->
<g id="edge24" class="edge">
<title>Node20&#45;&gt;Node23</title>
<path fill="none" stroke="midnightblue" d="M1008,-195.73C1008,-186.18 1008,-170.62 1008,-158.28"/>
<polygon fill="midnightblue" stroke="midnightblue" points="1011.5,-158.13 1008,-148.13 1004.5,-158.13 1011.5,-158.13"/>
</g>
<!-- Node24 -->
<g id="node24" class="node">
<title>Node24</title>
<g id="a_node24"><a xlink:title=" ">
<polygon fill="white" stroke="#bfbfbf" points="1240.5,-62 1240.5,-81 1281.5,-81 1281.5,-62 1240.5,-62"/>
<text text-anchor="middle" x="1261" y="-69" font-family="Helvetica,sans-Serif" font-size="10.00">tuple</text>
</a>
</g>
</g>
<!-- Node20&#45;&gt;Node24 -->
<g id="edge25" class="edge">
<title>Node20&#45;&gt;Node24</title>
<path fill="none" stroke="midnightblue" d="M1079.35,-195.96C1116.17,-189 1160.47,-176.47 1195,-154 1220.09,-137.67 1240.18,-108.69 1251.34,-90.05"/>
<polygon fill="midnightblue" stroke="midnightblue" points="1254.52,-91.55 1256.47,-81.14 1248.45,-88.06 1254.52,-91.55"/>
</g>
<!-- Node25 -->
<g id="node25" class="node">
<title>Node25</title>
<g id="a_node25"><a xlink:title=" ">
<polygon fill="white" stroke="#bfbfbf" points="1413.5,-62 1413.5,-81 1482.5,-81 1482.5,-62 1413.5,-62"/>
<text text-anchor="middle" x="1448" y="-69" font-family="Helvetica,sans-Serif" font-size="10.00">type_traits</text>
</a>
</g>
</g>
<!-- Node20&#45;&gt;Node25 -->
<g id="edge26" class="edge">
<title>Node20&#45;&gt;Node25</title>
<path fill="none" stroke="midnightblue" d="M1086.13,-199.78C1177.87,-193.19 1323.66,-179.11 1372,-154 1400.77,-139.06 1424.44,-108.75 1437.36,-89.6"/>
<polygon fill="midnightblue" stroke="midnightblue" points="1440.3,-91.51 1442.81,-81.21 1434.43,-87.69 1440.3,-91.51"/>
</g>
<!-- Node20&#45;&gt;Node26 -->
<g id="edge27" class="edge">
<title>Node20&#45;&gt;Node26</title>
<path fill="none" stroke="midnightblue" d="M1047.13,-195.94C1095.38,-185.38 1178.18,-167.26 1236.93,-154.4"/>
<polygon fill="midnightblue" stroke="midnightblue" points="1237.85,-157.78 1246.87,-152.22 1236.36,-150.94 1237.85,-157.78"/>
</g>
<!-- Node26&#45;&gt;Node24 -->
<g id="edge29" class="edge">
<title>Node26&#45;&gt;Node24</title>
<path fill="none" stroke="midnightblue" d="M1295.45,-123.4C1288.73,-113.46 1279.69,-100.11 1272.56,-89.57"/>
<polygon fill="midnightblue" stroke="midnightblue" points="1275.39,-87.51 1266.89,-81.19 1269.59,-91.44 1275.39,-87.51"/>
</g>
<!-- Node26&#45;&gt;Node25 -->
<g id="edge30" class="edge">
<title>Node26&#45;&gt;Node25</title>
<path fill="none" stroke="midnightblue" d="M1336.03,-123.4C1361.01,-112.04 1395.82,-96.22 1419.96,-85.24"/>
<polygon fill="midnightblue" stroke="midnightblue" points="1421.63,-88.33 1429.28,-81.01 1418.73,-81.96 1421.63,-88.33"/>
</g>
<!-- Node27 -->
<g id="node27" class="node">
<title>Node27</title>
<g id="a_node27"><a xlink:title=" ">
<polygon fill="white" stroke="#bfbfbf" points="1307,-62 1307,-81 1351,-81 1351,-62 1307,-62"/>
<text text-anchor="middle" x="1329" y="-69" font-family="Helvetica,sans-Serif" font-size="10.00">string</text>
</a>
</g>
</g>
<!-- Node26&#45;&gt;Node27 -->
<g id="edge28" class="edge">
<title>Node26&#45;&gt;Node27</title>
<path fill="none" stroke="midnightblue" d="M1310.21,-123.4C1313.73,-113.86 1318.41,-101.18 1322.22,-90.86"/>
<polygon fill="midnightblue" stroke="midnightblue" points="1325.61,-91.79 1325.79,-81.19 1319.04,-89.36 1325.61,-91.79"/>
</g>
<!-- Node29&#45;&gt;Node25 -->
<g id="edge36" class="edge">
<title>Node29&#45;&gt;Node25</title>
<path fill="none" stroke="midnightblue" d="M1652.32,-190.24C1648.15,-172.03 1638.39,-140.76 1618,-123 1599.21,-106.63 1536.2,-90.77 1492.41,-81.32"/>
<polygon fill="midnightblue" stroke="midnightblue" points="1493.07,-77.88 1482.56,-79.23 1491.62,-84.73 1493.07,-77.88"/>
</g>
<!-- Node30 -->
<g id="node30" class="node">
<title>Node30</title>
<g id="a_node30"><a xlink:href="container__traits_8hpp.html" target="_top" xlink:title="container関係の型特性">
<polygon fill="white" stroke="black" points="1495,-129 1495,-148 1609,-148 1609,-129 1495,-129"/>
<text text-anchor="middle" x="1552" y="-136" font-family="Helvetica,sans-Serif" font-size="10.00">container_traits.hpp</text>
</a>
</g>
</g>
<!-- Node29&#45;&gt;Node30 -->
<g id="edge37" class="edge">
<title>Node29&#45;&gt;Node30</title>
<path fill="none" stroke="midnightblue" d="M1632.65,-190.4C1615.38,-179.5 1591.58,-164.48 1574.32,-153.58"/>
<polygon fill="midnightblue" stroke="midnightblue" points="1575.81,-150.38 1565.48,-148.01 1572.07,-156.3 1575.81,-150.38"/>
</g>
<!-- Node30&#45;&gt;Node25 -->
<g id="edge39" class="edge">
<title>Node30&#45;&gt;Node25</title>
<path fill="none" stroke="midnightblue" d="M1537.97,-128.73C1520.67,-117.92 1491.01,-99.38 1470.51,-86.57"/>
<polygon fill="midnightblue" stroke="midnightblue" points="1472.14,-83.46 1461.8,-81.13 1468.43,-89.4 1472.14,-83.46"/>
</g>
<!-- Node30&#45;&gt;Node27 -->
<g id="edge38" class="edge">
<title>Node30&#45;&gt;Node27</title>
<path fill="none" stroke="midnightblue" d="M1522.39,-128.87C1480.38,-116.62 1403.81,-94.3 1360.69,-81.74"/>
<polygon fill="midnightblue" stroke="midnightblue" points="1361.58,-78.35 1351,-78.91 1359.62,-85.07 1361.58,-78.35"/>
</g>
<!-- Node31 -->
<g id="node31" class="node">
<title>Node31</title>
<g id="a_node31"><a xlink:title=" ">
<polygon fill="white" stroke="#bfbfbf" points="1528.5,-62 1528.5,-81 1575.5,-81 1575.5,-62 1528.5,-62"/>
<text text-anchor="middle" x="1552" y="-69" font-family="Helvetica,sans-Serif" font-size="10.00">vector</text>
</a>
</g>
</g>
<!-- Node30&#45;&gt;Node31 -->
<g id="edge40" class="edge">
<title>Node30&#45;&gt;Node31</title>
<path fill="none" stroke="midnightblue" d="M1552,-128.73C1552,-119.18 1552,-103.62 1552,-91.28"/>
<polygon fill="midnightblue" stroke="midnightblue" points="1555.5,-91.13 1552,-81.13 1548.5,-91.13 1555.5,-91.13"/>
</g>
<!-- Node32&#45;&gt;Node8 -->
<g id="edge45" class="edge">
<title>Node32&#45;&gt;Node8</title>
<path fill="none" stroke="midnightblue" d="M1570.69,-190.45C1588.91,-182.79 1607.4,-171.23 1618,-154 1642.08,-114.86 1622.62,-82.4 1585,-56 1528.2,-16.13 1320.23,-10.96 1226.89,-10.71"/>
<polygon fill="midnightblue" stroke="midnightblue" points="1226.62,-7.21 1216.62,-10.7 1226.62,-14.21 1226.62,-7.21"/>
</g>
<!-- Node32&#45;&gt;Node19 -->
<g id="edge46" class="edge">
<title>Node32&#45;&gt;Node19</title>
<path fill="none" stroke="midnightblue" d="M1456.73,-195.29C1399.76,-186.3 1312.68,-171.44 1238,-154 1190.98,-143.02 1059.27,-103.87 993.45,-84.1"/>
<polygon fill="midnightblue" stroke="midnightblue" points="994.06,-80.63 983.47,-81.1 992.04,-87.33 994.06,-80.63"/>
</g>
<!-- Node32&#45;&gt;Node25 -->
<g id="edge43" class="edge">
<title>Node32&#45;&gt;Node25</title>
<path fill="none" stroke="midnightblue" d="M1508.25,-190.21C1501.64,-180.26 1492.87,-166.57 1486,-154 1474.45,-132.88 1463.02,-107.63 1455.76,-90.89"/>
<polygon fill="midnightblue" stroke="midnightblue" points="1458.79,-89.06 1451.64,-81.25 1452.35,-91.82 1458.79,-89.06"/>
</g>
<!-- Node32&#45;&gt;Node30 -->
<g id="edge44" class="edge">
<title>Node32&#45;&gt;Node30</title>
<path fill="none" stroke="midnightblue" d="M1525.38,-190.4C1530.47,-180.66 1537.28,-167.65 1542.73,-157.21"/>
<polygon fill="midnightblue" stroke="midnightblue" points="1545.92,-158.68 1547.45,-148.19 1539.72,-155.43 1545.92,-158.68"/>
</g>
<!-- Node33&#45;&gt;Node25 -->
<g id="edge48" class="edge">
<title>Node33&#45;&gt;Node25</title>
<path fill="none" stroke="midnightblue" d="M1432.22,-257.19C1435.23,-221.99 1442.99,-131.17 1446.38,-91.51"/>
<polygon fill="midnightblue" stroke="midnightblue" points="1449.88,-91.62 1447.24,-81.36 1442.9,-91.03 1449.88,-91.62"/>
</g>
</g>
</svg>
