<?xml version="1.0" encoding="UTF-8" standalone="no"?>
<!DOCTYPE svg PUBLIC "-//W3C//DTD SVG 1.1//EN"
 "http://www.w3.org/Graphics/SVG/1.1/DTD/svg11.dtd">
<!-- Generated by graphviz version 2.43.0 (0)
 -->
<!-- Title: alps_core/lib_internal/alps_ros2_lib/include/alps_ros2/type/topic_converter.hpp Pages: 1 -->
<svg width="1790pt" height="368pt"
 viewBox="0.00 0.00 1790.00 368.00" xmlns="http://www.w3.org/2000/svg" xmlns:xlink="http://www.w3.org/1999/xlink">
<g id="graph0" class="graph" transform="scale(1 1) rotate(0) translate(4 364)">
<title>alps_core/lib_internal/alps_ros2_lib/include/alps_ros2/type/topic_converter.hpp</title>
<!-- Node1 -->
<g id="Node000001" class="node">
<title>Node1</title>
<g id="a_Node000001"><a xlink:title=" ">
<polygon fill="#999999" stroke="#666666" points="1461,-360 1271,-360 1271,-319 1461,-319 1461,-360"/>
<text text-anchor="start" x="1279" y="-348" font-family="Helvetica,sans-Serif" font-size="10.00">alps_core/lib_internal</text>
<text text-anchor="start" x="1279" y="-337" font-family="Helvetica,sans-Serif" font-size="10.00">/alps_ros2_lib/include</text>
<text text-anchor="middle" x="1366" y="-326" font-family="Helvetica,sans-Serif" font-size="10.00">/alps_ros2/type/topic_converter.hpp</text>
</a>
</g>
</g>
<!-- Node2 -->
<g id="Node000002" class="node">
<title>Node2</title>
<g id="a_Node000002"><a xlink:title=" ">
<polygon fill="#e0e0e0" stroke="#999999" points="845,-277.5 789,-277.5 789,-258.5 845,-258.5 845,-277.5"/>
<text text-anchor="middle" x="817" y="-265.5" font-family="Helvetica,sans-Serif" font-size="10.00">optional</text>
</a>
</g>
</g>
<!-- Node1&#45;&gt;Node2 -->
<g id="edge1_Node000001_Node000002" class="edge">
<title>Node1&#45;&gt;Node2</title>
<g id="a_edge1_Node000001_Node000002"><a xlink:title=" ">
<path fill="none" stroke="#63b8ff" d="M1270.88,-335.39C1167.14,-330.34 996.82,-317.17 854,-283 851.49,-282.4 848.91,-281.67 846.35,-280.87"/>
<polygon fill="#63b8ff" stroke="#63b8ff" points="847.27,-277.48 836.68,-277.5 844.97,-284.1 847.27,-277.48"/>
</a>
</g>
</g>
<!-- Node3 -->
<g id="Node000003" class="node">
<title>Node3</title>
<g id="a_Node000003"><a xlink:href="can__typed__data__transceiver_8hpp.html" target="_top" xlink:title="CAN通信で型付けされたデータの送受信を行うライブラリ">
<polygon fill="white" stroke="#666666" points="1040.5,-283 863.5,-283 863.5,-253 1040.5,-253 1040.5,-283"/>
<text text-anchor="start" x="871.5" y="-271" font-family="Helvetica,sans-Serif" font-size="10.00">alps_cmn/communication</text>
<text text-anchor="middle" x="952" y="-260" font-family="Helvetica,sans-Serif" font-size="10.00">/can_typed_data_transceiver.hpp</text>
</a>
</g>
</g>
<!-- Node1&#45;&gt;Node3 -->
<g id="edge2_Node000001_Node000003" class="edge">
<title>Node1&#45;&gt;Node3</title>
<g id="a_edge2_Node000001_Node000003"><a xlink:title=" ">
<path fill="none" stroke="#63b8ff" d="M1270.76,-322.51C1203.2,-311.17 1112.95,-296.02 1045.73,-284.73"/>
<polygon fill="#63b8ff" stroke="#63b8ff" points="1046,-281.23 1035.56,-283.03 1044.85,-288.14 1046,-281.23"/>
</a>
</g>
</g>
<!-- Node27 -->
<g id="Node000027" class="node">
<title>Node27</title>
<g id="a_Node000027"><a xlink:href="tuple__traits_8hpp.html" target="_top" xlink:title="タプル関係の型特性">
<polygon fill="white" stroke="#666666" points="1432,-151 1316,-151 1316,-121 1432,-121 1432,-151"/>
<text text-anchor="start" x="1324" y="-139" font-family="Helvetica,sans-Serif" font-size="10.00">alps_cmn/type/tuple</text>
<text text-anchor="middle" x="1374" y="-128" font-family="Helvetica,sans-Serif" font-size="10.00">_traits.hpp</text>
</a>
</g>
</g>
<!-- Node1&#45;&gt;Node27 -->
<g id="edge42_Node000001_Node000027" class="edge">
<title>Node1&#45;&gt;Node27</title>
<g id="a_edge42_Node000001_Node000027"><a xlink:title=" ">
<path fill="none" stroke="#63b8ff" d="M1328.03,-318.87C1314.74,-309.88 1301.31,-297.87 1294,-283 1288.12,-271.04 1290.04,-265.73 1294,-253 1305.53,-215.97 1333.46,-180.32 1353.05,-158.54"/>
<polygon fill="#63b8ff" stroke="#63b8ff" points="1355.65,-160.89 1359.85,-151.16 1350.5,-156.15 1355.65,-160.89"/>
</a>
</g>
</g>
<!-- Node29 -->
<g id="Node000029" class="node">
<title>Node29</title>
<g id="a_Node000029"><a xlink:href="always__false_8hpp.html" target="_top" xlink:title=" ">
<polygon fill="white" stroke="#666666" points="1428.5,-283 1303.5,-283 1303.5,-253 1428.5,-253 1428.5,-283"/>
<text text-anchor="start" x="1311.5" y="-271" font-family="Helvetica,sans-Serif" font-size="10.00">alps_cmn/type/always</text>
<text text-anchor="middle" x="1366" y="-260" font-family="Helvetica,sans-Serif" font-size="10.00">_false.hpp</text>
</a>
</g>
</g>
<!-- Node1&#45;&gt;Node29 -->
<g id="edge35_Node000001_Node000029" class="edge">
<title>Node1&#45;&gt;Node29</title>
<g id="a_edge35_Node000001_Node000029"><a xlink:title=" ">
<path fill="none" stroke="#63b8ff" d="M1366,-318.77C1366,-310.85 1366,-301.63 1366,-293.3"/>
<polygon fill="#63b8ff" stroke="#63b8ff" points="1369.5,-293.04 1366,-283.04 1362.5,-293.04 1369.5,-293.04"/>
</a>
</g>
</g>
<!-- Node30 -->
<g id="Node000030" class="node">
<title>Node30</title>
<g id="a_Node000030"><a xlink:href="array__traits_8hpp.html" target="_top" xlink:title="array関係の型特性">
<polygon fill="white" stroke="#666666" points="1782,-217 1666,-217 1666,-187 1782,-187 1782,-217"/>
<text text-anchor="start" x="1674" y="-205" font-family="Helvetica,sans-Serif" font-size="10.00">alps_cmn/type/array</text>
<text text-anchor="middle" x="1724" y="-194" font-family="Helvetica,sans-Serif" font-size="10.00">_traits.hpp</text>
</a>
</g>
</g>
<!-- Node1&#45;&gt;Node30 -->
<g id="edge36_Node000001_Node000030" class="edge">
<title>Node1&#45;&gt;Node30</title>
<g id="a_edge36_Node000001_Node000030"><a xlink:title=" ">
<path fill="none" stroke="#63b8ff" d="M1461.13,-320.15C1499.99,-311.16 1544.9,-298.81 1584,-283 1624.51,-266.62 1667.68,-240.47 1695.19,-222.55"/>
<polygon fill="#63b8ff" stroke="#63b8ff" points="1697.12,-225.47 1703.55,-217.05 1693.28,-219.63 1697.12,-225.47"/>
</a>
</g>
</g>
<!-- Node33 -->
<g id="Node000033" class="node">
<title>Node33</title>
<g id="a_Node000033"><a xlink:href="vector__traits_8hpp.html" target="_top" xlink:title="vector関係の型特性">
<polygon fill="white" stroke="#666666" points="1648,-217 1526,-217 1526,-187 1648,-187 1648,-217"/>
<text text-anchor="start" x="1534" y="-205" font-family="Helvetica,sans-Serif" font-size="10.00">alps_cmn/type/vector</text>
<text text-anchor="middle" x="1587" y="-194" font-family="Helvetica,sans-Serif" font-size="10.00">_traits.hpp</text>
</a>
</g>
</g>
<!-- Node1&#45;&gt;Node33 -->
<g id="edge43_Node000001_Node000033" class="edge">
<title>Node1&#45;&gt;Node33</title>
<g id="a_edge43_Node000001_Node000033"><a xlink:title=" ">
<path fill="none" stroke="#63b8ff" d="M1461.1,-330.65C1496.74,-323.22 1535.07,-309.21 1562,-283 1576.94,-268.46 1582.99,-245.14 1585.42,-227.42"/>
<polygon fill="#63b8ff" stroke="#63b8ff" points="1588.92,-227.55 1586.51,-217.24 1581.96,-226.81 1588.92,-227.55"/>
</a>
</g>
</g>
<!-- Node34 -->
<g id="Node000034" class="node">
<title>Node34</title>
<g id="a_Node000034"><a xlink:href="std__msgs__traits_8hpp.html" target="_top" xlink:title=" ">
<polygon fill="white" stroke="#666666" points="1553,-283 1447,-283 1447,-253 1553,-253 1553,-283"/>
<text text-anchor="start" x="1455" y="-271" font-family="Helvetica,sans-Serif" font-size="10.00">alps_ros2/type/std</text>
<text text-anchor="middle" x="1500" y="-260" font-family="Helvetica,sans-Serif" font-size="10.00">_msgs_traits.hpp</text>
</a>
</g>
</g>
<!-- Node1&#45;&gt;Node34 -->
<g id="edge48_Node000001_Node000034" class="edge">
<title>Node1&#45;&gt;Node34</title>
<g id="a_edge48_Node000001_Node000034"><a xlink:title=" ">
<path fill="none" stroke="#63b8ff" d="M1403.68,-318.96C1422.49,-309.2 1445.14,-297.46 1463.74,-287.81"/>
<polygon fill="#63b8ff" stroke="#63b8ff" points="1465.52,-290.82 1472.79,-283.11 1462.3,-284.61 1465.52,-290.82"/>
</a>
</g>
</g>
<!-- Node4 -->
<g id="Node000004" class="node">
<title>Node4</title>
<g id="a_Node000004"><a xlink:href="can__callback__handler_8hpp.html" target="_top" xlink:title="CANデータフレームをコールバックで処理するためのライブラリ">
<polygon fill="white" stroke="#666666" points="286.5,-217 141.5,-217 141.5,-187 286.5,-187 286.5,-217"/>
<text text-anchor="start" x="149.5" y="-205" font-family="Helvetica,sans-Serif" font-size="10.00">alps_cmn/communication</text>
<text text-anchor="middle" x="214" y="-194" font-family="Helvetica,sans-Serif" font-size="10.00">/can_callback_handler.hpp</text>
</a>
</g>
</g>
<!-- Node3&#45;&gt;Node4 -->
<g id="edge3_Node000003_Node000004" class="edge">
<title>Node3&#45;&gt;Node4</title>
<g id="a_edge3_Node000003_Node000004"><a xlink:title=" ">
<path fill="none" stroke="#63b8ff" d="M863.36,-254.08C860.2,-253.7 857.07,-253.34 854,-253 654.4,-230.97 418.72,-215.18 296.63,-207.76"/>
<polygon fill="#63b8ff" stroke="#63b8ff" points="296.8,-204.27 286.61,-207.16 296.38,-211.25 296.8,-204.27"/>
</a>
</g>
</g>
<!-- Node11 -->
<g id="Node000011" class="node">
<title>Node11</title>
<g id="a_Node000011"><a xlink:href="cobs_8hpp.html" target="_top" xlink:title="COBS変換ライブラリ">
<polygon fill="white" stroke="#666666" points="613,-217 471,-217 471,-187 613,-187 613,-217"/>
<text text-anchor="start" x="479" y="-205" font-family="Helvetica,sans-Serif" font-size="10.00">alps_cmn/communication</text>
<text text-anchor="middle" x="542" y="-194" font-family="Helvetica,sans-Serif" font-size="10.00">/cobs.hpp</text>
</a>
</g>
</g>
<!-- Node3&#45;&gt;Node11 -->
<g id="edge10_Node000003_Node000011" class="edge">
<title>Node3&#45;&gt;Node11</title>
<g id="a_edge10_Node000003_Node000011"><a xlink:title=" ">
<path fill="none" stroke="#63b8ff" d="M863.29,-253.15C791.92,-242.01 692.46,-226.49 623.17,-215.67"/>
<polygon fill="#63b8ff" stroke="#63b8ff" points="623.6,-212.19 613.18,-214.11 622.52,-219.11 623.6,-212.19"/>
</a>
</g>
</g>
<!-- Node17 -->
<g id="Node000017" class="node">
<title>Node17</title>
<g id="a_Node000017"><a xlink:href="logging__macros_8hpp.html" target="_top" xlink:title=" ">
<polygon fill="white" stroke="#666666" points="898,-217 778,-217 778,-187 898,-187 898,-217"/>
<text text-anchor="start" x="786" y="-205" font-family="Helvetica,sans-Serif" font-size="10.00">alps_cmn/log/logging</text>
<text text-anchor="middle" x="838" y="-194" font-family="Helvetica,sans-Serif" font-size="10.00">_macros.hpp</text>
</a>
</g>
</g>
<!-- Node3&#45;&gt;Node17 -->
<g id="edge16_Node000003_Node000017" class="edge">
<title>Node3&#45;&gt;Node17</title>
<g id="a_edge16_Node000003_Node000017"><a xlink:title=" ">
<path fill="none" stroke="#63b8ff" d="M926.98,-252.95C910.8,-243.87 889.52,-231.93 871.84,-222"/>
<polygon fill="#63b8ff" stroke="#63b8ff" points="873.39,-218.86 862.96,-217.01 869.97,-224.96 873.39,-218.86"/>
</a>
</g>
</g>
<!-- Node20 -->
<g id="Node000020" class="node">
<title>Node20</title>
<g id="a_Node000020"><a xlink:href="serializer_8hpp.html" target="_top" xlink:title="データとバイト列の変換ライブラリ">
<polygon fill="white" stroke="#666666" points="1143,-211.5 987,-211.5 987,-192.5 1143,-192.5 1143,-211.5"/>
<text text-anchor="middle" x="1065" y="-199.5" font-family="Helvetica,sans-Serif" font-size="10.00">alps_cmn/type/serializer.hpp</text>
</a>
</g>
</g>
<!-- Node3&#45;&gt;Node20 -->
<g id="edge20_Node000003_Node000020" class="edge">
<title>Node3&#45;&gt;Node20</title>
<g id="a_edge20_Node000003_Node000020"><a xlink:title=" ">
<path fill="none" stroke="#63b8ff" d="M976.8,-252.95C995.92,-242.13 1022.2,-227.24 1041.09,-216.54"/>
<polygon fill="#63b8ff" stroke="#63b8ff" points="1042.99,-219.49 1049.96,-211.52 1039.54,-213.4 1042.99,-219.49"/>
</a>
</g>
</g>
<!-- Node5 -->
<g id="Node000005" class="node">
<title>Node5</title>
<g id="a_Node000005"><a xlink:href="i__can__io_8hpp.html" target="_top" xlink:title=" ">
<polygon fill="white" stroke="#666666" points="142,-151 0,-151 0,-121 142,-121 142,-151"/>
<text text-anchor="start" x="8" y="-139" font-family="Helvetica,sans-Serif" font-size="10.00">alps_cmn/communication</text>
<text text-anchor="middle" x="71" y="-128" font-family="Helvetica,sans-Serif" font-size="10.00">/i_can_io.hpp</text>
</a>
</g>
</g>
<!-- Node4&#45;&gt;Node5 -->
<g id="edge4_Node000004_Node000005" class="edge">
<title>Node4&#45;&gt;Node5</title>
<g id="a_edge4_Node000004_Node000005"><a xlink:title=" ">
<path fill="none" stroke="#63b8ff" d="M182.62,-186.95C161.76,-177.62 134.16,-165.27 111.62,-155.18"/>
<polygon fill="#63b8ff" stroke="#63b8ff" points="112.87,-151.9 102.31,-151.01 110.01,-158.29 112.87,-151.9"/>
</a>
</g>
</g>
<!-- Node9 -->
<g id="Node000009" class="node">
<title>Node9</title>
<g id="a_Node000009"><a xlink:title=" ">
<polygon fill="#e0e0e0" stroke="#999999" points="642,-79.5 558,-79.5 558,-60.5 642,-60.5 642,-79.5"/>
<text text-anchor="middle" x="600" y="-67.5" font-family="Helvetica,sans-Serif" font-size="10.00">etl/delegate.h</text>
</a>
</g>
</g>
<!-- Node4&#45;&gt;Node9 -->
<g id="edge8_Node000004_Node000009" class="edge">
<title>Node4&#45;&gt;Node9</title>
<g id="a_edge8_Node000004_Node000009"><a xlink:title=" ">
<path fill="none" stroke="#63b8ff" d="M202.33,-186.86C189.4,-169.41 172.41,-139.74 189,-121 212.44,-94.54 442.5,-79.22 547.83,-73.55"/>
<polygon fill="#63b8ff" stroke="#63b8ff" points="548.12,-77.04 557.92,-73.01 547.75,-70.05 548.12,-77.04"/>
</a>
</g>
</g>
<!-- Node10 -->
<g id="Node000010" class="node">
<title>Node10</title>
<g id="a_Node000010"><a xlink:title=" ">
<polygon fill="#e0e0e0" stroke="#999999" points="316,-145.5 198,-145.5 198,-126.5 316,-126.5 316,-145.5"/>
<text text-anchor="middle" x="257" y="-133.5" font-family="Helvetica,sans-Serif" font-size="10.00">etl/unordered_map.h</text>
</a>
</g>
</g>
<!-- Node4&#45;&gt;Node10 -->
<g id="edge9_Node000004_Node000010" class="edge">
<title>Node4&#45;&gt;Node10</title>
<g id="a_edge9_Node000004_Node000010"><a xlink:title=" ">
<path fill="none" stroke="#63b8ff" d="M223.54,-186.8C229.98,-177.21 238.52,-164.5 245.36,-154.32"/>
<polygon fill="#63b8ff" stroke="#63b8ff" points="248.39,-156.1 251.06,-145.84 242.58,-152.19 248.39,-156.1"/>
</a>
</g>
</g>
<!-- Node6 -->
<g id="Node000006" class="node">
<title>Node6</title>
<g id="a_Node000006"><a xlink:href="can__data__frame_8hpp.html" target="_top" xlink:title="CANフレームを表す構造体">
<polygon fill="white" stroke="#666666" points="275,-85 133,-85 133,-55 275,-55 275,-85"/>
<text text-anchor="start" x="141" y="-73" font-family="Helvetica,sans-Serif" font-size="10.00">alps_cmn/communication</text>
<text text-anchor="middle" x="204" y="-62" font-family="Helvetica,sans-Serif" font-size="10.00">/can_data_frame.hpp</text>
</a>
</g>
</g>
<!-- Node5&#45;&gt;Node6 -->
<g id="edge5_Node000005_Node000006" class="edge">
<title>Node5&#45;&gt;Node6</title>
<g id="a_edge5_Node000005_Node000006"><a xlink:title=" ">
<path fill="none" stroke="#63b8ff" d="M100.19,-120.95C119.42,-111.7 144.8,-99.49 165.66,-89.45"/>
<polygon fill="#63b8ff" stroke="#63b8ff" points="167.39,-92.5 174.88,-85.01 164.35,-86.19 167.39,-92.5"/>
</a>
</g>
</g>
<!-- Node7 -->
<g id="Node000007" class="node">
<title>Node7</title>
<g id="a_Node000007"><a xlink:title=" ">
<polygon fill="#e0e0e0" stroke="#999999" points="230.5,-19 177.5,-19 177.5,0 230.5,0 230.5,-19"/>
<text text-anchor="middle" x="204" y="-7" font-family="Helvetica,sans-Serif" font-size="10.00">stdint.h</text>
</a>
</g>
</g>
<!-- Node6&#45;&gt;Node7 -->
<g id="edge6_Node000006_Node000007" class="edge">
<title>Node6&#45;&gt;Node7</title>
<g id="a_edge6_Node000006_Node000007"><a xlink:title=" ">
<path fill="none" stroke="#63b8ff" d="M204,-54.84C204,-47.21 204,-37.7 204,-29.45"/>
<polygon fill="#63b8ff" stroke="#63b8ff" points="207.5,-29.27 204,-19.27 200.5,-29.27 207.5,-29.27"/>
</a>
</g>
</g>
<!-- Node8 -->
<g id="Node000008" class="node">
<title>Node8</title>
<g id="a_Node000008"><a xlink:title=" ">
<polygon fill="#e0e0e0" stroke="#999999" points="1247.5,-19 1176.5,-19 1176.5,0 1247.5,0 1247.5,-19"/>
<text text-anchor="middle" x="1212" y="-7" font-family="Helvetica,sans-Serif" font-size="10.00">etl/vector.h</text>
</a>
</g>
</g>
<!-- Node6&#45;&gt;Node8 -->
<g id="edge7_Node000006_Node000008" class="edge">
<title>Node6&#45;&gt;Node8</title>
<g id="a_edge7_Node000006_Node000008"><a xlink:title=" ">
<path fill="none" stroke="#63b8ff" d="M275.28,-64.86C469.9,-53.57 1006.42,-22.43 1166.4,-13.15"/>
<polygon fill="#63b8ff" stroke="#63b8ff" points="1166.6,-16.64 1176.38,-12.57 1166.2,-9.65 1166.6,-16.64"/>
</a>
</g>
</g>
<!-- Node12 -->
<g id="Node000012" class="node">
<title>Node12</title>
<g id="a_Node000012"><a xlink:title=" ">
<polygon fill="#e0e0e0" stroke="#999999" points="386,-145.5 334,-145.5 334,-126.5 386,-126.5 386,-145.5"/>
<text text-anchor="middle" x="360" y="-133.5" font-family="Helvetica,sans-Serif" font-size="10.00">cassert</text>
</a>
</g>
</g>
<!-- Node11&#45;&gt;Node12 -->
<g id="edge11_Node000011_Node000012" class="edge">
<title>Node11&#45;&gt;Node12</title>
<g id="a_edge11_Node000011_Node000012"><a xlink:title=" ">
<path fill="none" stroke="#63b8ff" d="M498.69,-186.94C469.3,-177.23 429.64,-163.81 395,-151 393.58,-150.48 392.13,-149.93 390.67,-149.37"/>
<polygon fill="#63b8ff" stroke="#63b8ff" points="391.62,-145.99 381.03,-145.62 389.08,-152.51 391.62,-145.99"/>
</a>
</g>
</g>
<!-- Node13 -->
<g id="Node000013" class="node">
<title>Node13</title>
<g id="a_Node000013"><a xlink:title=" ">
<polygon fill="#e0e0e0" stroke="#999999" points="868,-145.5 818,-145.5 818,-126.5 868,-126.5 868,-145.5"/>
<text text-anchor="middle" x="843" y="-133.5" font-family="Helvetica,sans-Serif" font-size="10.00">cstdint</text>
</a>
</g>
</g>
<!-- Node11&#45;&gt;Node13 -->
<g id="edge12_Node000011_Node000013" class="edge">
<title>Node11&#45;&gt;Node13</title>
<g id="a_edge12_Node000011_Node000013"><a xlink:title=" ">
<path fill="none" stroke="#63b8ff" d="M613.17,-191.48C667.25,-183.32 743.14,-169.87 808,-151 809.93,-150.44 811.91,-149.81 813.88,-149.14"/>
<polygon fill="#63b8ff" stroke="#63b8ff" points="815.45,-152.29 823.61,-145.53 813.02,-145.72 815.45,-152.29"/>
</a>
</g>
</g>
<!-- Node14 -->
<g id="Node000014" class="node">
<title>Node14</title>
<g id="a_Node000014"><a xlink:title=" ">
<polygon fill="#e0e0e0" stroke="#999999" points="450,-145.5 404,-145.5 404,-126.5 450,-126.5 450,-145.5"/>
<text text-anchor="middle" x="427" y="-133.5" font-family="Helvetica,sans-Serif" font-size="10.00">cstdio</text>
</a>
</g>
</g>
<!-- Node11&#45;&gt;Node14 -->
<g id="edge13_Node000011_Node000014" class="edge">
<title>Node11&#45;&gt;Node14</title>
<g id="a_edge13_Node000011_Node000014"><a xlink:title=" ">
<path fill="none" stroke="#63b8ff" d="M516.76,-186.95C497.22,-176.08 470.32,-161.11 451.07,-150.4"/>
<polygon fill="#63b8ff" stroke="#63b8ff" points="452.74,-147.32 442.3,-145.52 449.34,-153.44 452.74,-147.32"/>
</a>
</g>
</g>
<!-- Node15 -->
<g id="Node000015" class="node">
<title>Node15</title>
<g id="a_Node000015"><a xlink:title=" ">
<polygon fill="#e0e0e0" stroke="#999999" points="517.5,-145.5 468.5,-145.5 468.5,-126.5 517.5,-126.5 517.5,-145.5"/>
<text text-anchor="middle" x="493" y="-133.5" font-family="Helvetica,sans-Serif" font-size="10.00">cstdlib</text>
</a>
</g>
</g>
<!-- Node11&#45;&gt;Node15 -->
<g id="edge14_Node000011_Node000015" class="edge">
<title>Node11&#45;&gt;Node15</title>
<g id="a_edge14_Node000011_Node000015"><a xlink:title=" ">
<path fill="none" stroke="#63b8ff" d="M531.13,-186.8C523.71,-177.11 513.86,-164.24 506.02,-154.01"/>
<polygon fill="#63b8ff" stroke="#63b8ff" points="508.63,-151.66 499.77,-145.84 503.07,-155.91 508.63,-151.66"/>
</a>
</g>
</g>
<!-- Node16 -->
<g id="Node000016" class="node">
<title>Node16</title>
<g id="a_Node000016"><a xlink:title=" ">
<polygon fill="#e0e0e0" stroke="#999999" points="646,-145.5 536,-145.5 536,-126.5 646,-126.5 646,-145.5"/>
<text text-anchor="middle" x="591" y="-133.5" font-family="Helvetica,sans-Serif" font-size="10.00">etl/circular_buffer.h</text>
</a>
</g>
</g>
<!-- Node11&#45;&gt;Node16 -->
<g id="edge15_Node000011_Node000016" class="edge">
<title>Node11&#45;&gt;Node16</title>
<g id="a_edge15_Node000011_Node000016"><a xlink:title=" ">
<path fill="none" stroke="#63b8ff" d="M552.87,-186.8C560.29,-177.11 570.14,-164.24 577.98,-154.01"/>
<polygon fill="#63b8ff" stroke="#63b8ff" points="580.93,-155.91 584.23,-145.84 575.37,-151.66 580.93,-155.91"/>
</a>
</g>
</g>
<!-- Node18 -->
<g id="Node000018" class="node">
<title>Node18</title>
<g id="a_Node000018"><a xlink:href="logger_8hpp.html" target="_top" xlink:title=" ">
<polygon fill="white" stroke="#666666" points="799.5,-145.5 664.5,-145.5 664.5,-126.5 799.5,-126.5 799.5,-145.5"/>
<text text-anchor="middle" x="732" y="-133.5" font-family="Helvetica,sans-Serif" font-size="10.00">alps_cmn/log/logger.hpp</text>
</a>
</g>
</g>
<!-- Node17&#45;&gt;Node18 -->
<g id="edge17_Node000017_Node000018" class="edge">
<title>Node17&#45;&gt;Node18</title>
<g id="a_edge17_Node000017_Node000018"><a xlink:title=" ">
<path fill="none" stroke="#63b8ff" d="M814.74,-186.95C796.89,-176.18 772.38,-161.38 754.67,-150.69"/>
<polygon fill="#63b8ff" stroke="#63b8ff" points="756.48,-147.69 746.11,-145.52 752.86,-153.68 756.48,-147.69"/>
</a>
</g>
</g>
<!-- Node18&#45;&gt;Node9 -->
<g id="edge18_Node000018_Node000009" class="edge">
<title>Node18&#45;&gt;Node9</title>
<g id="a_edge18_Node000018_Node000009"><a xlink:title=" ">
<path fill="none" stroke="#63b8ff" d="M714.2,-126.37C691.86,-115.54 653.32,-96.85 627.26,-84.22"/>
<polygon fill="#63b8ff" stroke="#63b8ff" points="628.47,-80.91 617.94,-79.7 625.41,-87.21 628.47,-80.91"/>
</a>
</g>
</g>
<!-- Node19 -->
<g id="Node000019" class="node">
<title>Node19</title>
<g id="a_Node000019"><a xlink:title=" ">
<polygon fill="#e0e0e0" stroke="#999999" points="1126.5,-79.5 1057.5,-79.5 1057.5,-60.5 1126.5,-60.5 1126.5,-79.5"/>
<text text-anchor="middle" x="1092" y="-67.5" font-family="Helvetica,sans-Serif" font-size="10.00">etl/string.h</text>
</a>
</g>
</g>
<!-- Node18&#45;&gt;Node19 -->
<g id="edge19_Node000018_Node000019" class="edge">
<title>Node18&#45;&gt;Node19</title>
<g id="a_edge19_Node000018_Node000019"><a xlink:title=" ">
<path fill="none" stroke="#63b8ff" d="M778.82,-126.45C788.78,-124.64 799.24,-122.75 809,-121 893.14,-105.92 991.42,-88.63 1047.22,-78.84"/>
<polygon fill="#63b8ff" stroke="#63b8ff" points="1047.89,-82.28 1057.14,-77.1 1046.68,-75.38 1047.89,-82.28"/>
</a>
</g>
</g>
<!-- Node20&#45;&gt;Node8 -->
<g id="edge34_Node000020_Node000008" class="edge">
<title>Node20&#45;&gt;Node8</title>
<g id="a_edge34_Node000020_Node000008"><a xlink:title=" ">
<path fill="none" stroke="#63b8ff" d="M1120.99,-192.45C1146.8,-185.59 1175.52,-173.22 1193,-151 1220.94,-115.47 1218.57,-58.62 1215,-29.32"/>
<polygon fill="#63b8ff" stroke="#63b8ff" points="1218.44,-28.64 1213.58,-19.22 1211.51,-29.61 1218.44,-28.64"/>
</a>
</g>
</g>
<!-- Node20&#45;&gt;Node13 -->
<g id="edge23_Node000020_Node000013" class="edge">
<title>Node20&#45;&gt;Node13</title>
<g id="a_edge23_Node000020_Node000013"><a xlink:title=" ">
<path fill="none" stroke="#63b8ff" d="M1027.12,-192.46C988.84,-183.48 928.2,-168.27 877,-151 875.38,-150.45 873.72,-149.87 872.06,-149.26"/>
<polygon fill="#63b8ff" stroke="#63b8ff" points="873.2,-145.94 862.61,-145.59 870.66,-152.47 873.2,-145.94"/>
</a>
</g>
</g>
<!-- Node20&#45;&gt;Node16 -->
<g id="edge32_Node000020_Node000016" class="edge">
<title>Node20&#45;&gt;Node16</title>
<g id="a_edge32_Node000020_Node000016"><a xlink:title=" ">
<path fill="none" stroke="#63b8ff" d="M986.85,-193.68C904.11,-185.41 769.88,-170.53 655,-151 649.18,-150.01 643.09,-148.85 637.08,-147.62"/>
<polygon fill="#63b8ff" stroke="#63b8ff" points="637.61,-144.16 627.1,-145.52 636.16,-151.01 637.61,-144.16"/>
</a>
</g>
</g>
<!-- Node20&#45;&gt;Node19 -->
<g id="edge33_Node000020_Node000019" class="edge">
<title>Node20&#45;&gt;Node19</title>
<g id="a_edge33_Node000020_Node000019"><a xlink:title=" ">
<path fill="none" stroke="#63b8ff" d="M1066.77,-192.47C1071.08,-171.73 1082.19,-118.24 1088.12,-89.66"/>
<polygon fill="#63b8ff" stroke="#63b8ff" points="1091.58,-90.23 1090.19,-79.73 1084.73,-88.81 1091.58,-90.23"/>
</a>
</g>
</g>
<!-- Node21 -->
<g id="Node000021" class="node">
<title>Node21</title>
<g id="a_Node000021"><a xlink:title=" ">
<polygon fill="#e0e0e0" stroke="#999999" points="1184,-145.5 1120,-145.5 1120,-126.5 1184,-126.5 1184,-145.5"/>
<text text-anchor="middle" x="1152" y="-133.5" font-family="Helvetica,sans-Serif" font-size="10.00">algorithm</text>
</a>
</g>
</g>
<!-- Node20&#45;&gt;Node21 -->
<g id="edge21_Node000020_Node000021" class="edge">
<title>Node20&#45;&gt;Node21</title>
<g id="a_edge21_Node000020_Node000021"><a xlink:title=" ">
<path fill="none" stroke="#63b8ff" d="M1076.73,-192.37C1090.87,-181.97 1114.86,-164.32 1131.95,-151.75"/>
<polygon fill="#63b8ff" stroke="#63b8ff" points="1134.19,-154.44 1140.17,-145.7 1130.05,-148.81 1134.19,-154.44"/>
</a>
</g>
</g>
<!-- Node22 -->
<g id="Node000022" class="node">
<title>Node22</title>
<g id="a_Node000022"><a xlink:title=" ">
<polygon fill="#e0e0e0" stroke="#999999" points="928,-145.5 886,-145.5 886,-126.5 928,-126.5 928,-145.5"/>
<text text-anchor="middle" x="907" y="-133.5" font-family="Helvetica,sans-Serif" font-size="10.00">array</text>
</a>
</g>
</g>
<!-- Node20&#45;&gt;Node22 -->
<g id="edge22_Node000020_Node000022" class="edge">
<title>Node20&#45;&gt;Node22</title>
<g id="a_edge22_Node000020_Node000022"><a xlink:title=" ">
<path fill="none" stroke="#63b8ff" d="M1041.69,-192.41C1015.9,-182.79 973.19,-166.49 937,-151 936.14,-150.63 935.28,-150.26 934.4,-149.88"/>
<polygon fill="#63b8ff" stroke="#63b8ff" points="935.55,-146.55 925,-145.63 932.67,-152.93 935.55,-146.55"/>
</a>
</g>
</g>
<!-- Node23 -->
<g id="Node000023" class="node">
<title>Node23</title>
<g id="a_Node000023"><a xlink:title=" ">
<polygon fill="#e0e0e0" stroke="#999999" points="996,-145.5 946,-145.5 946,-126.5 996,-126.5 996,-145.5"/>
<text text-anchor="middle" x="971" y="-133.5" font-family="Helvetica,sans-Serif" font-size="10.00">cstring</text>
</a>
</g>
</g>
<!-- Node20&#45;&gt;Node23 -->
<g id="edge24_Node000020_Node000023" class="edge">
<title>Node20&#45;&gt;Node23</title>
<g id="a_edge24_Node000020_Node000023"><a xlink:title=" ">
<path fill="none" stroke="#63b8ff" d="M1052.32,-192.37C1036.91,-181.87 1010.65,-164 992.15,-151.4"/>
<polygon fill="#63b8ff" stroke="#63b8ff" points="994.01,-148.43 983.78,-145.7 990.07,-154.22 994.01,-148.43"/>
</a>
</g>
</g>
<!-- Node24 -->
<g id="Node000024" class="node">
<title>Node24</title>
<g id="a_Node000024"><a xlink:title=" ">
<polygon fill="#e0e0e0" stroke="#999999" points="1331.5,-79.5 1290.5,-79.5 1290.5,-60.5 1331.5,-60.5 1331.5,-79.5"/>
<text text-anchor="middle" x="1311" y="-67.5" font-family="Helvetica,sans-Serif" font-size="10.00">tuple</text>
</a>
</g>
</g>
<!-- Node20&#45;&gt;Node24 -->
<g id="edge25_Node000020_Node000024" class="edge">
<title>Node20&#45;&gt;Node24</title>
<g id="a_edge25_Node000020_Node000024"><a xlink:title=" ">
<path fill="none" stroke="#63b8ff" d="M1111.34,-192.46C1144.81,-184.94 1190.23,-171.87 1226,-151 1254.88,-134.15 1281.84,-105.79 1297.36,-87.75"/>
<polygon fill="#63b8ff" stroke="#63b8ff" points="1300.27,-89.73 1304.02,-79.82 1294.91,-85.23 1300.27,-89.73"/>
</a>
</g>
</g>
<!-- Node25 -->
<g id="Node000025" class="node">
<title>Node25</title>
<g id="a_Node000025"><a xlink:title=" ">
<polygon fill="#e0e0e0" stroke="#999999" points="1551.5,-79.5 1482.5,-79.5 1482.5,-60.5 1551.5,-60.5 1551.5,-79.5"/>
<text text-anchor="middle" x="1517" y="-67.5" font-family="Helvetica,sans-Serif" font-size="10.00">type_traits</text>
</a>
</g>
</g>
<!-- Node20&#45;&gt;Node25 -->
<g id="edge26_Node000020_Node000025" class="edge">
<title>Node20&#45;&gt;Node25</title>
<g id="a_edge26_Node000020_Node000025"><a xlink:title=" ">
<path fill="none" stroke="#63b8ff" d="M1143.17,-196.72C1237.72,-190.5 1390.48,-176.77 1441,-151 1469.47,-136.48 1493.11,-106.91 1506.12,-88.08"/>
<polygon fill="#63b8ff" stroke="#63b8ff" points="1509.15,-89.84 1511.78,-79.57 1503.33,-85.96 1509.15,-89.84"/>
</a>
</g>
</g>
<!-- Node26 -->
<g id="Node000026" class="node">
<title>Node26</title>
<g id="a_Node000026"><a xlink:title=" ">
<polygon fill="#e0e0e0" stroke="#999999" points="1064,-145.5 1014,-145.5 1014,-126.5 1064,-126.5 1064,-145.5"/>
<text text-anchor="middle" x="1039" y="-133.5" font-family="Helvetica,sans-Serif" font-size="10.00">chrono</text>
</a>
</g>
</g>
<!-- Node20&#45;&gt;Node26 -->
<g id="edge27_Node000020_Node000026" class="edge">
<title>Node20&#45;&gt;Node26</title>
<g id="a_edge27_Node000020_Node000026"><a xlink:title=" ">
<path fill="none" stroke="#63b8ff" d="M1061.49,-192.37C1057.68,-182.97 1051.46,-167.67 1046.53,-155.53"/>
<polygon fill="#63b8ff" stroke="#63b8ff" points="1049.62,-153.85 1042.62,-145.91 1043.14,-156.49 1049.62,-153.85"/>
</a>
</g>
</g>
<!-- Node20&#45;&gt;Node27 -->
<g id="edge28_Node000020_Node000027" class="edge">
<title>Node20&#45;&gt;Node27</title>
<g id="a_edge28_Node000020_Node000027"><a xlink:title=" ">
<path fill="none" stroke="#63b8ff" d="M1106.35,-192.44C1157.37,-181.87 1244.83,-163.75 1305.83,-151.12"/>
<polygon fill="#63b8ff" stroke="#63b8ff" points="1306.68,-154.52 1315.76,-149.06 1305.26,-147.66 1306.68,-154.52"/>
</a>
</g>
</g>
<!-- Node27&#45;&gt;Node24 -->
<g id="edge30_Node000027_Node000024" class="edge">
<title>Node27&#45;&gt;Node24</title>
<g id="a_edge30_Node000027_Node000024"><a xlink:title=" ">
<path fill="none" stroke="#63b8ff" d="M1360.02,-120.8C1350.2,-110.82 1337.04,-97.46 1326.83,-87.09"/>
<polygon fill="#63b8ff" stroke="#63b8ff" points="1329.22,-84.52 1319.71,-79.84 1324.23,-89.43 1329.22,-84.52"/>
</a>
</g>
</g>
<!-- Node27&#45;&gt;Node25 -->
<g id="edge31_Node000027_Node000025" class="edge">
<title>Node27&#45;&gt;Node25</title>
<g id="a_edge31_Node000027_Node000025"><a xlink:title=" ">
<path fill="none" stroke="#63b8ff" d="M1405.38,-120.95C1430.24,-109.83 1464.66,-94.42 1488.68,-83.67"/>
<polygon fill="#63b8ff" stroke="#63b8ff" points="1490.27,-86.8 1497.97,-79.52 1487.41,-80.41 1490.27,-86.8"/>
</a>
</g>
</g>
<!-- Node28 -->
<g id="Node000028" class="node">
<title>Node28</title>
<g id="a_Node000028"><a xlink:title=" ">
<polygon fill="#e0e0e0" stroke="#999999" points="1420,-79.5 1376,-79.5 1376,-60.5 1420,-60.5 1420,-79.5"/>
<text text-anchor="middle" x="1398" y="-67.5" font-family="Helvetica,sans-Serif" font-size="10.00">string</text>
</a>
</g>
</g>
<!-- Node27&#45;&gt;Node28 -->
<g id="edge29_Node000027_Node000028" class="edge">
<title>Node27&#45;&gt;Node28</title>
<g id="a_edge29_Node000027_Node000028"><a xlink:title=" ">
<path fill="none" stroke="#63b8ff" d="M1379.33,-120.8C1382.81,-111.5 1387.4,-99.27 1391.15,-89.26"/>
<polygon fill="#63b8ff" stroke="#63b8ff" points="1394.45,-90.44 1394.68,-79.84 1387.89,-87.98 1394.45,-90.44"/>
</a>
</g>
</g>
<!-- Node30&#45;&gt;Node25 -->
<g id="edge37_Node000030_Node000025" class="edge">
<title>Node30&#45;&gt;Node25</title>
<g id="a_edge37_Node000030_Node000025"><a xlink:title=" ">
<path fill="none" stroke="#63b8ff" d="M1721.25,-186.99C1717.01,-169.1 1707.16,-138.39 1687,-121 1668.15,-104.73 1605.15,-89.05 1561.39,-79.71"/>
<polygon fill="#63b8ff" stroke="#63b8ff" points="1562.04,-76.27 1551.54,-77.65 1560.61,-83.12 1562.04,-76.27"/>
</a>
</g>
</g>
<!-- Node31 -->
<g id="Node000031" class="node">
<title>Node31</title>
<g id="a_Node000031"><a xlink:href="container__traits_8hpp.html" target="_top" xlink:title="container関係の型特性">
<polygon fill="white" stroke="#666666" points="1678,-145.5 1564,-145.5 1564,-126.5 1678,-126.5 1678,-145.5"/>
<text text-anchor="middle" x="1621" y="-133.5" font-family="Helvetica,sans-Serif" font-size="10.00">container_traits.hpp</text>
</a>
</g>
</g>
<!-- Node30&#45;&gt;Node31 -->
<g id="edge38_Node000030_Node000031" class="edge">
<title>Node30&#45;&gt;Node31</title>
<g id="a_edge38_Node000030_Node000031"><a xlink:title=" ">
<path fill="none" stroke="#63b8ff" d="M1701.4,-186.95C1684.21,-176.27 1660.67,-161.65 1643.51,-150.98"/>
<polygon fill="#63b8ff" stroke="#63b8ff" points="1645.05,-147.82 1634.71,-145.52 1641.35,-153.77 1645.05,-147.82"/>
</a>
</g>
</g>
<!-- Node31&#45;&gt;Node25 -->
<g id="edge40_Node000031_Node000025" class="edge">
<title>Node31&#45;&gt;Node25</title>
<g id="a_edge40_Node000031_Node000025"><a xlink:title=" ">
<path fill="none" stroke="#63b8ff" d="M1606.97,-126.37C1589.76,-115.78 1560.34,-97.67 1539.85,-85.06"/>
<polygon fill="#63b8ff" stroke="#63b8ff" points="1541.49,-81.96 1531.14,-79.7 1537.82,-87.92 1541.49,-81.96"/>
</a>
</g>
</g>
<!-- Node31&#45;&gt;Node28 -->
<g id="edge39_Node000031_Node000028" class="edge">
<title>Node31&#45;&gt;Node28</title>
<g id="a_edge39_Node000031_Node000028"><a xlink:title=" ">
<path fill="none" stroke="#63b8ff" d="M1590.93,-126.37C1548.88,-114.3 1472.88,-92.49 1429.88,-80.15"/>
<polygon fill="#63b8ff" stroke="#63b8ff" points="1430.79,-76.77 1420.21,-77.38 1428.86,-83.5 1430.79,-76.77"/>
</a>
</g>
</g>
<!-- Node32 -->
<g id="Node000032" class="node">
<title>Node32</title>
<g id="a_Node000032"><a xlink:title=" ">
<polygon fill="#e0e0e0" stroke="#999999" points="1644.5,-79.5 1597.5,-79.5 1597.5,-60.5 1644.5,-60.5 1644.5,-79.5"/>
<text text-anchor="middle" x="1621" y="-67.5" font-family="Helvetica,sans-Serif" font-size="10.00">vector</text>
</a>
</g>
</g>
<!-- Node31&#45;&gt;Node32 -->
<g id="edge41_Node000031_Node000032" class="edge">
<title>Node31&#45;&gt;Node32</title>
<g id="a_edge41_Node000031_Node000032"><a xlink:title=" ">
<path fill="none" stroke="#63b8ff" d="M1621,-126.37C1621,-117.16 1621,-102.29 1621,-90.27"/>
<polygon fill="#63b8ff" stroke="#63b8ff" points="1624.5,-89.91 1621,-79.91 1617.5,-89.91 1624.5,-89.91"/>
</a>
</g>
</g>
<!-- Node33&#45;&gt;Node8 -->
<g id="edge46_Node000033_Node000008" class="edge">
<title>Node33&#45;&gt;Node8</title>
<g id="a_edge46_Node000033_Node000008"><a xlink:title=" ">
<path fill="none" stroke="#63b8ff" d="M1640.2,-186.99C1658.25,-179.42 1676.49,-168.01 1687,-151 1710.72,-112.62 1691.14,-80.61 1654,-55 1590.69,-11.34 1357.75,-8.7 1257.92,-9.66"/>
<polygon fill="#63b8ff" stroke="#63b8ff" points="1257.79,-6.16 1247.83,-9.78 1257.87,-13.16 1257.79,-6.16"/>
</a>
</g>
</g>
<!-- Node33&#45;&gt;Node19 -->
<g id="edge47_Node000033_Node000019" class="edge">
<title>Node33&#45;&gt;Node19</title>
<g id="a_edge47_Node000033_Node000019"><a xlink:title=" ">
<path fill="none" stroke="#63b8ff" d="M1525.95,-193.32C1468.75,-185.37 1381.2,-171.25 1307,-151 1238.67,-132.35 1161.52,-101.01 1120.78,-83.6"/>
<polygon fill="#63b8ff" stroke="#63b8ff" points="1122.04,-80.34 1111.47,-79.6 1119.27,-86.77 1122.04,-80.34"/>
</a>
</g>
</g>
<!-- Node33&#45;&gt;Node25 -->
<g id="edge44_Node000033_Node000025" class="edge">
<title>Node33&#45;&gt;Node25</title>
<g id="a_edge44_Node000033_Node000025"><a xlink:title=" ">
<path fill="none" stroke="#63b8ff" d="M1577.27,-186.85C1570.66,-177 1561.9,-163.44 1555,-151 1543.5,-130.26 1532.06,-105.48 1524.79,-89.05"/>
<polygon fill="#63b8ff" stroke="#63b8ff" points="1527.86,-87.34 1520.65,-79.58 1521.45,-90.15 1527.86,-87.34"/>
</a>
</g>
</g>
<!-- Node33&#45;&gt;Node31 -->
<g id="edge45_Node000033_Node000031" class="edge">
<title>Node33&#45;&gt;Node31</title>
<g id="a_edge45_Node000033_Node000031"><a xlink:title=" ">
<path fill="none" stroke="#63b8ff" d="M1594.55,-186.8C1599.53,-177.41 1606.12,-165.02 1611.47,-154.95"/>
<polygon fill="#63b8ff" stroke="#63b8ff" points="1614.7,-156.32 1616.3,-145.84 1608.52,-153.03 1614.7,-156.32"/>
</a>
</g>
</g>
<!-- Node34&#45;&gt;Node25 -->
<g id="edge49_Node000034_Node000025" class="edge">
<title>Node34&#45;&gt;Node25</title>
<g id="a_edge49_Node000034_Node000025"><a xlink:title=" ">
<path fill="none" stroke="#63b8ff" d="M1501.22,-252.9C1504.23,-218.23 1511.99,-128.79 1515.38,-89.72"/>
<polygon fill="#63b8ff" stroke="#63b8ff" points="1518.87,-89.99 1516.24,-79.73 1511.89,-89.39 1518.87,-89.99"/>
</a>
</g>
</g>
</g>
</svg>
