<?xml version="1.0" encoding="UTF-8" standalone="no"?>
<!DOCTYPE svg PUBLIC "-//W3C//DTD SVG 1.1//EN"
 "http://www.w3.org/Graphics/SVG/1.1/DTD/svg11.dtd">
<!-- Generated by graphviz version 2.43.0 (0)
 -->
<!-- Title: alps_common_lib/include/alps_cmn/type/tuple_traits.hpp Pages: 1 -->
<svg width="813pt" height="373pt"
 viewBox="0.00 0.00 812.50 373.00" xmlns="http://www.w3.org/2000/svg" xmlns:xlink="http://www.w3.org/1999/xlink">
<g id="graph0" class="graph" transform="scale(1 1) rotate(0) translate(4 369)">
<title>alps_common_lib/include/alps_cmn/type/tuple_traits.hpp</title>
<polygon fill="white" stroke="transparent" points="-4,4 -4,-369 808.5,-369 808.5,4 -4,4"/>
<!-- Node1 -->
<g id="node1" class="node">
<title>Node1</title>
<g id="a_node1"><a xlink:title="タプル関係の型特性">
<polygon fill="#bfbfbf" stroke="black" points="146.5,-334.5 146.5,-364.5 316.5,-364.5 316.5,-334.5 146.5,-334.5"/>
<text text-anchor="start" x="154.5" y="-352.5" font-family="Helvetica,sans-Serif" font-size="10.00">alps_common_lib/include</text>
<text text-anchor="middle" x="231.5" y="-341.5" font-family="Helvetica,sans-Serif" font-size="10.00">/alps_cmn/type/tuple_traits.hpp</text>
</a>
</g>
</g>
<!-- Node2 -->
<g id="node2" class="node">
<title>Node2</title>
<g id="a_node2"><a xlink:href="serializer_8hpp.html" target="_top" xlink:title="データとバイト列の変換ライブラリ">
<polygon fill="white" stroke="black" points="376,-262 376,-292 535,-292 535,-262 376,-262"/>
<text text-anchor="start" x="384" y="-280" font-family="Helvetica,sans-Serif" font-size="10.00">alps_common_lib/include</text>
<text text-anchor="middle" x="455.5" y="-269" font-family="Helvetica,sans-Serif" font-size="10.00">/alps_cmn/type/serializer.hpp</text>
</a>
</g>
</g>
<!-- Node1&#45;&gt;Node2 -->
<g id="edge1" class="edge">
<title>Node1&#45;&gt;Node2</title>
<path fill="none" stroke="midnightblue" d="M285.96,-331.36C324.21,-319.32 374.76,-303.41 410.68,-292.11"/>
<polygon fill="midnightblue" stroke="midnightblue" points="284.51,-328.15 276.02,-334.49 286.61,-334.82 284.51,-328.15"/>
</g>
<!-- Node8 -->
<g id="node8" class="node">
<title>Node8</title>
<g id="a_node8"><a xlink:href="topic__converter_8hpp.html" target="_top" xlink:title=" ">
<polygon fill="white" stroke="black" points="53,-89.5 53,-130.5 172,-130.5 172,-89.5 53,-89.5"/>
<text text-anchor="start" x="61" y="-118.5" font-family="Helvetica,sans-Serif" font-size="10.00">alps_ros2_lib/include</text>
<text text-anchor="start" x="61" y="-107.5" font-family="Helvetica,sans-Serif" font-size="10.00">/alps_ros2/type/topic</text>
<text text-anchor="middle" x="112.5" y="-96.5" font-family="Helvetica,sans-Serif" font-size="10.00">_converter.hpp</text>
</a>
</g>
</g>
<!-- Node1&#45;&gt;Node8 -->
<g id="edge16" class="edge">
<title>Node1&#45;&gt;Node8</title>
<path fill="none" stroke="midnightblue" d="M195.1,-329.03C159.78,-307.71 108.78,-269.81 89.5,-220 77.91,-190.06 91.02,-153.12 101.67,-130.84"/>
<polygon fill="midnightblue" stroke="midnightblue" points="193.76,-332.3 204.15,-334.34 197.3,-326.27 193.76,-332.3"/>
</g>
<!-- Node12 -->
<g id="node12" class="node">
<title>Node12</title>
<g id="a_node12"><a xlink:href="param__converter_8hpp.html" target="_top" xlink:title="ROS2パラメータと値の変換ライブラリ">
<polygon fill="white" stroke="black" points="169,-256.5 169,-297.5 294,-297.5 294,-256.5 169,-256.5"/>
<text text-anchor="start" x="177" y="-285.5" font-family="Helvetica,sans-Serif" font-size="10.00">alps_ros2_lib/include</text>
<text text-anchor="start" x="177" y="-274.5" font-family="Helvetica,sans-Serif" font-size="10.00">/alps_ros2/type/param</text>
<text text-anchor="middle" x="231.5" y="-263.5" font-family="Helvetica,sans-Serif" font-size="10.00">_converter.hpp</text>
</a>
</g>
</g>
<!-- Node1&#45;&gt;Node12 -->
<g id="edge12" class="edge">
<title>Node1&#45;&gt;Node12</title>
<path fill="none" stroke="midnightblue" d="M231.5,-323.98C231.5,-315.35 231.5,-305.76 231.5,-297.59"/>
<polygon fill="midnightblue" stroke="midnightblue" points="228,-324.23 231.5,-334.23 235,-324.23 228,-324.23"/>
</g>
<!-- Node3 -->
<g id="node3" class="node">
<title>Node3</title>
<g id="a_node3"><a xlink:href="can__typed__data__transceiver_8hpp.html" target="_top" xlink:title="CAN通信で型付けされたデータの送受信を行うライブラリ">
<polygon fill="white" stroke="black" points="256,-173 256,-214 433,-214 433,-173 256,-173"/>
<text text-anchor="start" x="264" y="-202" font-family="Helvetica,sans-Serif" font-size="10.00">alps_common_lib/include</text>
<text text-anchor="start" x="264" y="-191" font-family="Helvetica,sans-Serif" font-size="10.00">/alps_cmn/communication</text>
<text text-anchor="middle" x="344.5" y="-180" font-family="Helvetica,sans-Serif" font-size="10.00">/can_typed_data_transceiver.hpp</text>
</a>
</g>
</g>
<!-- Node2&#45;&gt;Node3 -->
<g id="edge2" class="edge">
<title>Node2&#45;&gt;Node3</title>
<path fill="none" stroke="midnightblue" d="M428.34,-256.06C410.96,-243.3 388.51,-226.81 371.22,-214.12"/>
<polygon fill="midnightblue" stroke="midnightblue" points="426.29,-258.89 436.42,-261.99 430.43,-253.25 426.29,-258.89"/>
</g>
<!-- Node10 -->
<g id="node10" class="node">
<title>Node10</title>
<g id="a_node10"><a xlink:href="uart__packet__transceiver_8hpp.html" target="_top" xlink:title=" ">
<polygon fill="white" stroke="black" points="489,-173 489,-214 646,-214 646,-173 489,-173"/>
<text text-anchor="start" x="497" y="-202" font-family="Helvetica,sans-Serif" font-size="10.00">alps_common_lib/include</text>
<text text-anchor="start" x="497" y="-191" font-family="Helvetica,sans-Serif" font-size="10.00">/alps_cmn/communication</text>
<text text-anchor="middle" x="567.5" y="-180" font-family="Helvetica,sans-Serif" font-size="10.00">/uart_packet_transceiver.hpp</text>
</a>
</g>
</g>
<!-- Node2&#45;&gt;Node10 -->
<g id="edge10" class="edge">
<title>Node2&#45;&gt;Node10</title>
<path fill="none" stroke="midnightblue" d="M482.91,-256.06C500.44,-243.3 523.09,-226.81 540.54,-214.12"/>
<polygon fill="midnightblue" stroke="midnightblue" points="480.78,-253.28 474.75,-261.99 484.9,-258.94 480.78,-253.28"/>
</g>
<!-- Node11 -->
<g id="node11" class="node">
<title>Node11</title>
<g id="a_node11"><a xlink:href="custom__type__serialize__rule_8hpp.html" target="_top" xlink:title="カスタム型のシリアライズ規則を定義する">
<polygon fill="white" stroke="black" points="664.5,-173 664.5,-214 804.5,-214 804.5,-173 664.5,-173"/>
<text text-anchor="start" x="672.5" y="-202" font-family="Helvetica,sans-Serif" font-size="10.00">alps_common_lib/include</text>
<text text-anchor="start" x="672.5" y="-191" font-family="Helvetica,sans-Serif" font-size="10.00">/alps_cmn/type/custom</text>
<text text-anchor="middle" x="734.5" y="-180" font-family="Helvetica,sans-Serif" font-size="10.00">_type_serialize_rule.hpp</text>
</a>
</g>
</g>
<!-- Node2&#45;&gt;Node11 -->
<g id="edge11" class="edge">
<title>Node2&#45;&gt;Node11</title>
<path fill="none" stroke="midnightblue" d="M517.65,-259.27C557.23,-248.45 609.51,-233.86 655.5,-220 661.71,-218.13 668.18,-216.13 674.62,-214.1"/>
<polygon fill="midnightblue" stroke="midnightblue" points="516.61,-255.93 507.88,-261.94 518.45,-262.68 516.61,-255.93"/>
</g>
<!-- Node4 -->
<g id="node4" class="node">
<title>Node4</title>
<g id="a_node4"><a xlink:href="robomas__motor_8hpp.html" target="_top" xlink:title="ロボマスモータのライブラリ">
<polygon fill="white" stroke="black" points="413,-89.5 413,-130.5 568,-130.5 568,-89.5 413,-89.5"/>
<text text-anchor="start" x="421" y="-118.5" font-family="Helvetica,sans-Serif" font-size="10.00">alps_common_lib/include</text>
<text text-anchor="start" x="421" y="-107.5" font-family="Helvetica,sans-Serif" font-size="10.00">/alps_cmn/actuator/robomas</text>
<text text-anchor="middle" x="490.5" y="-96.5" font-family="Helvetica,sans-Serif" font-size="10.00">_motor.hpp</text>
</a>
</g>
</g>
<!-- Node3&#45;&gt;Node4 -->
<g id="edge3" class="edge">
<title>Node3&#45;&gt;Node4</title>
<path fill="none" stroke="midnightblue" d="M388.41,-167.99C409.9,-155.99 435.42,-141.75 455.56,-130.5"/>
<polygon fill="midnightblue" stroke="midnightblue" points="386.5,-165.05 379.47,-172.98 389.91,-171.16 386.5,-165.05"/>
</g>
<!-- Node5 -->
<g id="node5" class="node">
<title>Node5</title>
<g id="a_node5"><a xlink:href="can__param_8hpp.html" target="_top" xlink:title=" ">
<polygon fill="white" stroke="black" points="250,-89.5 250,-130.5 395,-130.5 395,-89.5 250,-89.5"/>
<text text-anchor="start" x="258" y="-118.5" font-family="Helvetica,sans-Serif" font-size="10.00">alps_common_lib/include</text>
<text text-anchor="start" x="258" y="-107.5" font-family="Helvetica,sans-Serif" font-size="10.00">/alps_cmn/communication</text>
<text text-anchor="middle" x="322.5" y="-96.5" font-family="Helvetica,sans-Serif" font-size="10.00">/can_param.hpp</text>
</a>
</g>
</g>
<!-- Node3&#45;&gt;Node5 -->
<g id="edge4" class="edge">
<title>Node3&#45;&gt;Node5</title>
<path fill="none" stroke="midnightblue" d="M336.51,-162.9C333.6,-152.13 330.39,-140.23 327.78,-130.55"/>
<polygon fill="midnightblue" stroke="midnightblue" points="333.19,-164.03 339.17,-172.77 339.95,-162.2 333.19,-164.03"/>
</g>
<!-- Node7 -->
<g id="node7" class="node">
<title>Node7</title>
<g id="a_node7"><a xlink:href="can__topic__bridge_8hpp.html" target="_top" xlink:title=" ">
<polygon fill="white" stroke="black" points="149,-6 149,-47 294,-47 294,-6 149,-6"/>
<text text-anchor="start" x="157" y="-35" font-family="Helvetica,sans-Serif" font-size="10.00">alps_ros2_lib/include</text>
<text text-anchor="start" x="157" y="-24" font-family="Helvetica,sans-Serif" font-size="10.00">/alps_ros2/communication</text>
<text text-anchor="middle" x="221.5" y="-13" font-family="Helvetica,sans-Serif" font-size="10.00">/can_topic_bridge.hpp</text>
</a>
</g>
</g>
<!-- Node3&#45;&gt;Node7 -->
<g id="edge6" class="edge">
<title>Node3&#45;&gt;Node7</title>
<path fill="none" stroke="midnightblue" d="M284.7,-168.03C268.44,-158.69 252.35,-146.47 241.5,-131 223.95,-105.98 220.79,-69.56 220.71,-47.26"/>
<polygon fill="midnightblue" stroke="midnightblue" points="283.25,-171.23 293.71,-172.93 286.59,-165.08 283.25,-171.23"/>
</g>
<!-- Node3&#45;&gt;Node8 -->
<g id="edge7" class="edge">
<title>Node3&#45;&gt;Node8</title>
<path fill="none" stroke="midnightblue" d="M279.26,-169.58C244.21,-157.27 201.46,-142.25 168.02,-130.5"/>
<polygon fill="midnightblue" stroke="midnightblue" points="278.34,-172.97 288.93,-172.98 280.66,-166.36 278.34,-172.97"/>
</g>
<!-- Node6 -->
<g id="node6" class="node">
<title>Node6</title>
<g id="a_node6"><a xlink:href="can__param__bridge_8hpp.html" target="_top" xlink:title=" ">
<polygon fill="white" stroke="black" points="442,-6 442,-47 587,-47 587,-6 442,-6"/>
<text text-anchor="start" x="450" y="-35" font-family="Helvetica,sans-Serif" font-size="10.00">alps_ros2_lib/include</text>
<text text-anchor="start" x="450" y="-24" font-family="Helvetica,sans-Serif" font-size="10.00">/alps_ros2/communication</text>
<text text-anchor="middle" x="514.5" y="-13" font-family="Helvetica,sans-Serif" font-size="10.00">/can_param_bridge.hpp</text>
</a>
</g>
</g>
<!-- Node5&#45;&gt;Node6 -->
<g id="edge5" class="edge">
<title>Node5&#45;&gt;Node6</title>
<path fill="none" stroke="midnightblue" d="M377.98,-85.45C406.7,-73.26 441.35,-58.55 468.55,-47"/>
<polygon fill="midnightblue" stroke="midnightblue" points="376.33,-82.35 368.49,-89.48 379.06,-88.79 376.33,-82.35"/>
</g>
<!-- Node8&#45;&gt;Node7 -->
<g id="edge8" class="edge">
<title>Node8&#45;&gt;Node7</title>
<path fill="none" stroke="midnightblue" d="M146.98,-83.22C162.59,-71.55 180.74,-57.97 195.23,-47.14"/>
<polygon fill="midnightblue" stroke="midnightblue" points="144.52,-80.69 138.61,-89.48 148.71,-86.29 144.52,-80.69"/>
</g>
<!-- Node9 -->
<g id="node9" class="node">
<title>Node9</title>
<g id="a_node9"><a xlink:href="custom__type__topic__conversion__rule_8hpp.html" target="_top" xlink:title=" ">
<polygon fill="white" stroke="black" points="0,-0.5 0,-52.5 131,-52.5 131,-0.5 0,-0.5"/>
<text text-anchor="start" x="8" y="-40.5" font-family="Helvetica,sans-Serif" font-size="10.00">alps_ros2_lib/include</text>
<text text-anchor="start" x="8" y="-29.5" font-family="Helvetica,sans-Serif" font-size="10.00">/alps_ros2/type/custom</text>
<text text-anchor="start" x="8" y="-18.5" font-family="Helvetica,sans-Serif" font-size="10.00">_type_topic_conversion</text>
<text text-anchor="middle" x="65.5" y="-7.5" font-family="Helvetica,sans-Serif" font-size="10.00">_rule.hpp</text>
</a>
</g>
</g>
<!-- Node8&#45;&gt;Node9 -->
<g id="edge9" class="edge">
<title>Node8&#45;&gt;Node9</title>
<path fill="none" stroke="midnightblue" d="M96.09,-80.55C90.85,-71.45 85.08,-61.45 79.98,-52.61"/>
<polygon fill="midnightblue" stroke="midnightblue" points="93.09,-82.36 101.12,-89.27 99.16,-78.86 93.09,-82.36"/>
</g>
<!-- Node13 -->
<g id="node13" class="node">
<title>Node13</title>
<g id="a_node13"><a xlink:href="custom__type__param__conversion__rule_8hpp.html" target="_top" xlink:title=" ">
<polygon fill="white" stroke="black" points="99,-167.5 99,-219.5 238,-219.5 238,-167.5 99,-167.5"/>
<text text-anchor="start" x="107" y="-207.5" font-family="Helvetica,sans-Serif" font-size="10.00">alps_ros2_lib/include</text>
<text text-anchor="start" x="107" y="-196.5" font-family="Helvetica,sans-Serif" font-size="10.00">/alps_ros2/type/custom</text>
<text text-anchor="start" x="107" y="-185.5" font-family="Helvetica,sans-Serif" font-size="10.00">_type_param_conversion</text>
<text text-anchor="middle" x="168.5" y="-174.5" font-family="Helvetica,sans-Serif" font-size="10.00">_rule.hpp</text>
</a>
</g>
</g>
<!-- Node12&#45;&gt;Node13 -->
<g id="edge13" class="edge">
<title>Node12&#45;&gt;Node13</title>
<path fill="none" stroke="midnightblue" d="M209.95,-248.12C202.8,-238.87 194.89,-228.63 187.91,-219.61"/>
<polygon fill="midnightblue" stroke="midnightblue" points="207.36,-250.5 216.25,-256.27 212.9,-246.22 207.36,-250.5"/>
</g>
<!-- Node14 -->
<g id="node14" class="node">
<title>Node14</title>
<g id="a_node14"><a xlink:href="typed__param_8hpp.html" target="_top" xlink:title="ROS2 Parameterを色んな型で扱うためのライブラリ">
<polygon fill="white" stroke="black" points="586,-89.5 586,-130.5 705,-130.5 705,-89.5 586,-89.5"/>
<text text-anchor="start" x="594" y="-118.5" font-family="Helvetica,sans-Serif" font-size="10.00">alps_ros2_lib/include</text>
<text text-anchor="start" x="594" y="-107.5" font-family="Helvetica,sans-Serif" font-size="10.00">/alps_ros2/util/typed</text>
<text text-anchor="middle" x="645.5" y="-96.5" font-family="Helvetica,sans-Serif" font-size="10.00">_param.hpp</text>
</a>
</g>
</g>
<!-- Node12&#45;&gt;Node14 -->
<g id="edge14" class="edge">
<title>Node12&#45;&gt;Node14</title>
<path fill="none" stroke="midnightblue" d="M304.25,-269.13C347.5,-262.16 401.7,-248.16 442.5,-220 466.35,-203.54 457.22,-184.26 480.5,-167 489.4,-160.4 542.15,-143.02 585.65,-129.35"/>
<polygon fill="midnightblue" stroke="midnightblue" points="303.72,-265.67 294.36,-270.63 304.77,-272.59 303.72,-265.67"/>
</g>
<!-- Node14&#45;&gt;Node6 -->
<g id="edge15" class="edge">
<title>Node14&#45;&gt;Node6</title>
<path fill="none" stroke="midnightblue" d="M605.62,-84.19C586.52,-72.3 563.96,-58.27 546.08,-47.14"/>
<polygon fill="midnightblue" stroke="midnightblue" points="603.78,-87.17 614.12,-89.48 607.48,-81.22 603.78,-87.17"/>
</g>
</g>
</svg>
