<?xml version="1.0" encoding="UTF-8" standalone="no"?>
<!DOCTYPE svg PUBLIC "-//W3C//DTD SVG 1.1//EN"
 "http://www.w3.org/Graphics/SVG/1.1/DTD/svg11.dtd">
<!-- Generated by graphviz version 2.43.0 (0)
 -->
<!-- Title: alps_core/lib_internal/alps_common_lib/include/alps_cmn/type/tuple_traits.hpp Pages: 1 -->
<svg width="877pt" height="390pt"
 viewBox="0.00 0.00 876.50 390.00" xmlns="http://www.w3.org/2000/svg" xmlns:xlink="http://www.w3.org/1999/xlink">
<g id="graph0" class="graph" transform="scale(1 1) rotate(0) translate(4 386)">
<title>alps_core/lib_internal/alps_common_lib/include/alps_cmn/type/tuple_traits.hpp</title>
<!-- Node1 -->
<g id="Node000001" class="node">
<title>Node1</title>
<g id="a_Node000001"><a xlink:title="タプル関係の型特性">
<polygon fill="#999999" stroke="#666666" points="394,-382 224,-382 224,-341 394,-341 394,-382"/>
<text text-anchor="start" x="232" y="-370" font-family="Helvetica,sans-Serif" font-size="10.00">alps_core/lib_internal</text>
<text text-anchor="start" x="232" y="-359" font-family="Helvetica,sans-Serif" font-size="10.00">/alps_common_lib/include</text>
<text text-anchor="middle" x="309" y="-348" font-family="Helvetica,sans-Serif" font-size="10.00">/alps_cmn/type/tuple_traits.hpp</text>
</a>
</g>
</g>
<!-- Node2 -->
<g id="Node000002" class="node">
<title>Node2</title>
<g id="a_Node000002"><a xlink:href="serializer_8hpp.html" target="_top" xlink:title="データとバイト列の変換ライブラリ">
<polygon fill="white" stroke="#666666" points="639.5,-305 480.5,-305 480.5,-264 639.5,-264 639.5,-305"/>
<text text-anchor="start" x="488.5" y="-293" font-family="Helvetica,sans-Serif" font-size="10.00">alps_core/lib_internal</text>
<text text-anchor="start" x="488.5" y="-282" font-family="Helvetica,sans-Serif" font-size="10.00">/alps_common_lib/include</text>
<text text-anchor="middle" x="560" y="-271" font-family="Helvetica,sans-Serif" font-size="10.00">/alps_cmn/type/serializer.hpp</text>
</a>
</g>
</g>
<!-- Node1&#45;&gt;Node2 -->
<g id="edge1_Node000001_Node000002" class="edge">
<title>Node1&#45;&gt;Node2</title>
<g id="a_edge1_Node000001_Node000002"><a xlink:title=" ">
<path fill="none" stroke="#63b8ff" d="M384.03,-338.08C419.21,-327.57 460.73,-315.16 494.6,-305.04"/>
<polygon fill="#63b8ff" stroke="#63b8ff" points="382.87,-334.77 374.29,-340.99 384.88,-341.48 382.87,-334.77"/>
</a>
</g>
</g>
<!-- Node8 -->
<g id="Node000008" class="node">
<title>Node8</title>
<g id="a_Node000008"><a xlink:href="topic__converter_8hpp.html" target="_top" xlink:title=" ">
<polygon fill="white" stroke="#666666" points="215,-134.5 25,-134.5 25,-93.5 215,-93.5 215,-134.5"/>
<text text-anchor="start" x="33" y="-122.5" font-family="Helvetica,sans-Serif" font-size="10.00">alps_core/lib_internal</text>
<text text-anchor="start" x="33" y="-111.5" font-family="Helvetica,sans-Serif" font-size="10.00">/alps_ros2_lib/include</text>
<text text-anchor="middle" x="120" y="-100.5" font-family="Helvetica,sans-Serif" font-size="10.00">/alps_ros2/type/topic_converter.hpp</text>
</a>
</g>
</g>
<!-- Node1&#45;&gt;Node8 -->
<g id="edge16_Node000001_Node000008" class="edge">
<title>Node1&#45;&gt;Node8</title>
<g id="a_edge16_Node000001_Node000008"><a xlink:title=" ">
<path fill="none" stroke="#63b8ff" d="M233.27,-337.29C182.74,-317.29 120.53,-282.81 92,-228 76.23,-197.7 93.48,-158.16 107.03,-134.78"/>
<polygon fill="#63b8ff" stroke="#63b8ff" points="232.29,-340.67 242.88,-340.98 234.8,-334.13 232.29,-340.67"/>
</a>
</g>
</g>
<!-- Node12 -->
<g id="Node000012" class="node">
<title>Node12</title>
<g id="a_Node000012"><a xlink:href="param__converter_8hpp.html" target="_top" xlink:title="ROS2パラメータと値の変換ライブラリ">
<polygon fill="white" stroke="#666666" points="407.5,-305 210.5,-305 210.5,-264 407.5,-264 407.5,-305"/>
<text text-anchor="start" x="218.5" y="-293" font-family="Helvetica,sans-Serif" font-size="10.00">alps_core/lib_internal</text>
<text text-anchor="start" x="218.5" y="-282" font-family="Helvetica,sans-Serif" font-size="10.00">/alps_ros2_lib/include</text>
<text text-anchor="middle" x="309" y="-271" font-family="Helvetica,sans-Serif" font-size="10.00">/alps_ros2/type/param_converter.hpp</text>
</a>
</g>
</g>
<!-- Node1&#45;&gt;Node12 -->
<g id="edge12_Node000001_Node000012" class="edge">
<title>Node1&#45;&gt;Node12</title>
<g id="a_edge12_Node000001_Node000012"><a xlink:title=" ">
<path fill="none" stroke="#63b8ff" d="M309,-330.69C309,-322.08 309,-312.9 309,-305.07"/>
<polygon fill="#63b8ff" stroke="#63b8ff" points="305.5,-330.79 309,-340.79 312.5,-330.79 305.5,-330.79"/>
</a>
</g>
</g>
<!-- Node3 -->
<g id="Node000003" class="node">
<title>Node3</title>
<g id="a_Node000003"><a xlink:href="can__typed__data__transceiver_8hpp.html" target="_top" xlink:title="CAN通信で型付けされたデータの送受信を行うライブラリ">
<polygon fill="white" stroke="#666666" points="480.5,-228 303.5,-228 303.5,-176 480.5,-176 480.5,-228"/>
<text text-anchor="start" x="311.5" y="-216" font-family="Helvetica,sans-Serif" font-size="10.00">alps_core/lib_internal</text>
<text text-anchor="start" x="311.5" y="-205" font-family="Helvetica,sans-Serif" font-size="10.00">/alps_common_lib/include</text>
<text text-anchor="start" x="311.5" y="-194" font-family="Helvetica,sans-Serif" font-size="10.00">/alps_cmn/communication</text>
<text text-anchor="middle" x="392" y="-183" font-family="Helvetica,sans-Serif" font-size="10.00">/can_typed_data_transceiver.hpp</text>
</a>
</g>
</g>
<!-- Node2&#45;&gt;Node3 -->
<g id="edge2_Node000002_Node000003" class="edge">
<title>Node2&#45;&gt;Node3</title>
<g id="a_edge2_Node000002_Node000003"><a xlink:title=" ">
<path fill="none" stroke="#63b8ff" d="M509.69,-259.39C489.09,-249.52 465.25,-238.1 444.44,-228.13"/>
<polygon fill="#63b8ff" stroke="#63b8ff" points="508.37,-262.64 518.9,-263.81 511.4,-256.33 508.37,-262.64"/>
</a>
</g>
</g>
<!-- Node10 -->
<g id="Node000010" class="node">
<title>Node10</title>
<g id="a_Node000010"><a xlink:href="uart__packet__transceiver_8hpp.html" target="_top" xlink:title=" ">
<polygon fill="white" stroke="#666666" points="693.5,-228 536.5,-228 536.5,-176 693.5,-176 693.5,-228"/>
<text text-anchor="start" x="544.5" y="-216" font-family="Helvetica,sans-Serif" font-size="10.00">alps_core/lib_internal</text>
<text text-anchor="start" x="544.5" y="-205" font-family="Helvetica,sans-Serif" font-size="10.00">/alps_common_lib/include</text>
<text text-anchor="start" x="544.5" y="-194" font-family="Helvetica,sans-Serif" font-size="10.00">/alps_cmn/communication</text>
<text text-anchor="middle" x="615" y="-183" font-family="Helvetica,sans-Serif" font-size="10.00">/uart_packet_transceiver.hpp</text>
</a>
</g>
</g>
<!-- Node2&#45;&gt;Node10 -->
<g id="edge10_Node000002_Node000010" class="edge">
<title>Node2&#45;&gt;Node10</title>
<g id="a_edge10_Node000002_Node000010"><a xlink:title=" ">
<path fill="none" stroke="#63b8ff" d="M579.37,-255.15C585.38,-246.35 591.96,-236.72 597.81,-228.16"/>
<polygon fill="#63b8ff" stroke="#63b8ff" points="576.35,-253.37 573.6,-263.6 582.13,-257.32 576.35,-253.37"/>
</a>
</g>
</g>
<!-- Node11 -->
<g id="Node000011" class="node">
<title>Node11</title>
<g id="a_Node000011"><a xlink:href="custom__type__serialize__rule_8hpp.html" target="_top" xlink:title="カスタム型のシリアライズ規則を定義する">
<polygon fill="white" stroke="#666666" points="868.5,-228 711.5,-228 711.5,-176 868.5,-176 868.5,-228"/>
<text text-anchor="start" x="719.5" y="-216" font-family="Helvetica,sans-Serif" font-size="10.00">alps_core/lib_internal</text>
<text text-anchor="start" x="719.5" y="-205" font-family="Helvetica,sans-Serif" font-size="10.00">/alps_common_lib/include</text>
<text text-anchor="start" x="719.5" y="-194" font-family="Helvetica,sans-Serif" font-size="10.00">/alps_cmn/type/custom_type</text>
<text text-anchor="middle" x="790" y="-183" font-family="Helvetica,sans-Serif" font-size="10.00">_serialize_rule.hpp</text>
</a>
</g>
</g>
<!-- Node2&#45;&gt;Node11 -->
<g id="edge11_Node000002_Node000011" class="edge">
<title>Node2&#45;&gt;Node11</title>
<g id="a_edge11_Node000002_Node000011"><a xlink:title=" ">
<path fill="none" stroke="#63b8ff" d="M625.6,-260.54C654.61,-250.39 688.8,-238.42 718.46,-228.04"/>
<polygon fill="#63b8ff" stroke="#63b8ff" points="624.25,-257.3 615.97,-263.91 626.57,-263.91 624.25,-257.3"/>
</a>
</g>
</g>
<!-- Node4 -->
<g id="Node000004" class="node">
<title>Node4</title>
<g id="a_Node000004"><a xlink:href="robomas__motor_8hpp.html" target="_top" xlink:title="ロボマスモータのライブラリ">
<polygon fill="white" stroke="#666666" points="613.5,-140 458.5,-140 458.5,-88 613.5,-88 613.5,-140"/>
<text text-anchor="start" x="466.5" y="-128" font-family="Helvetica,sans-Serif" font-size="10.00">alps_core/lib_internal</text>
<text text-anchor="start" x="466.5" y="-117" font-family="Helvetica,sans-Serif" font-size="10.00">/alps_common_lib/include</text>
<text text-anchor="start" x="466.5" y="-106" font-family="Helvetica,sans-Serif" font-size="10.00">/alps_cmn/actuator/robomas</text>
<text text-anchor="middle" x="536" y="-95" font-family="Helvetica,sans-Serif" font-size="10.00">_motor.hpp</text>
</a>
</g>
</g>
<!-- Node3&#45;&gt;Node4 -->
<g id="edge3_Node000003_Node000004" class="edge">
<title>Node3&#45;&gt;Node4</title>
<g id="a_edge3_Node000003_Node000004"><a xlink:title=" ">
<path fill="none" stroke="#63b8ff" d="M443.05,-170.51C459.61,-160.62 477.8,-149.76 493.66,-140.29"/>
<polygon fill="#63b8ff" stroke="#63b8ff" points="440.83,-167.76 434.04,-175.89 444.42,-173.77 440.83,-167.76"/>
</a>
</g>
</g>
<!-- Node5 -->
<g id="Node000005" class="node">
<title>Node5</title>
<g id="a_Node000005"><a xlink:href="can__param_8hpp.html" target="_top" xlink:title=" ">
<polygon fill="white" stroke="#666666" points="440.5,-140 295.5,-140 295.5,-88 440.5,-88 440.5,-140"/>
<text text-anchor="start" x="303.5" y="-128" font-family="Helvetica,sans-Serif" font-size="10.00">alps_core/lib_internal</text>
<text text-anchor="start" x="303.5" y="-117" font-family="Helvetica,sans-Serif" font-size="10.00">/alps_common_lib/include</text>
<text text-anchor="start" x="303.5" y="-106" font-family="Helvetica,sans-Serif" font-size="10.00">/alps_cmn/communication</text>
<text text-anchor="middle" x="368" y="-95" font-family="Helvetica,sans-Serif" font-size="10.00">/can_param.hpp</text>
</a>
</g>
</g>
<!-- Node3&#45;&gt;Node5 -->
<g id="edge4_Node000003_Node000005" class="edge">
<title>Node3&#45;&gt;Node5</title>
<g id="a_edge4_Node000003_Node000005"><a xlink:title=" ">
<path fill="none" stroke="#63b8ff" d="M382.19,-165.84C379.79,-157.23 377.26,-148.19 375.02,-140.16"/>
<polygon fill="#63b8ff" stroke="#63b8ff" points="378.87,-166.97 384.93,-175.66 385.61,-165.09 378.87,-166.97"/>
</a>
</g>
</g>
<!-- Node7 -->
<g id="Node000007" class="node">
<title>Node7</title>
<g id="a_Node000007"><a xlink:href="can__topic__bridge_8hpp.html" target="_top" xlink:title=" ">
<polygon fill="white" stroke="#666666" points="339.5,-52 194.5,-52 194.5,0 339.5,0 339.5,-52"/>
<text text-anchor="start" x="202.5" y="-40" font-family="Helvetica,sans-Serif" font-size="10.00">alps_core/lib_internal</text>
<text text-anchor="start" x="202.5" y="-29" font-family="Helvetica,sans-Serif" font-size="10.00">/alps_ros2_lib/include</text>
<text text-anchor="start" x="202.5" y="-18" font-family="Helvetica,sans-Serif" font-size="10.00">/alps_ros2/communication</text>
<text text-anchor="middle" x="267" y="-7" font-family="Helvetica,sans-Serif" font-size="10.00">/can_topic_bridge.hpp</text>
</a>
</g>
</g>
<!-- Node3&#45;&gt;Node7 -->
<g id="edge6_Node000003_Node000007" class="edge">
<title>Node3&#45;&gt;Node7</title>
<g id="a_edge6_Node000003_Node000007"><a xlink:title=" ">
<path fill="none" stroke="#63b8ff" d="M319.79,-170.45C307.23,-162.22 295.49,-152.15 287,-140 268.86,-114.03 265.54,-76.73 265.62,-52.19"/>
<polygon fill="#63b8ff" stroke="#63b8ff" points="318.24,-173.6 328.6,-175.85 321.91,-167.63 318.24,-173.6"/>
</a>
</g>
</g>
<!-- Node3&#45;&gt;Node8 -->
<g id="edge7_Node000003_Node000008" class="edge">
<title>Node3&#45;&gt;Node8</title>
<g id="a_edge7_Node000003_Node000008"><a xlink:title=" ">
<path fill="none" stroke="#63b8ff" d="M302.92,-172.84C263.28,-160.3 217.58,-145.85 181.77,-134.53"/>
<polygon fill="#63b8ff" stroke="#63b8ff" points="302.01,-176.22 312.6,-175.89 304.12,-169.54 302.01,-176.22"/>
</a>
</g>
</g>
<!-- Node6 -->
<g id="Node000006" class="node">
<title>Node6</title>
<g id="a_Node000006"><a xlink:href="can__param__bridge_8hpp.html" target="_top" xlink:title=" ">
<polygon fill="white" stroke="#666666" points="646.5,-52 501.5,-52 501.5,0 646.5,0 646.5,-52"/>
<text text-anchor="start" x="509.5" y="-40" font-family="Helvetica,sans-Serif" font-size="10.00">alps_core/lib_internal</text>
<text text-anchor="start" x="509.5" y="-29" font-family="Helvetica,sans-Serif" font-size="10.00">/alps_ros2_lib/include</text>
<text text-anchor="start" x="509.5" y="-18" font-family="Helvetica,sans-Serif" font-size="10.00">/alps_ros2/communication</text>
<text text-anchor="middle" x="574" y="-7" font-family="Helvetica,sans-Serif" font-size="10.00">/can_param_bridge.hpp</text>
</a>
</g>
</g>
<!-- Node5&#45;&gt;Node6 -->
<g id="edge5_Node000005_Node000006" class="edge">
<title>Node5&#45;&gt;Node6</title>
<g id="a_edge5_Node000005_Node000006"><a xlink:title=" ">
<path fill="none" stroke="#63b8ff" d="M437.47,-84C462.22,-73.66 489.88,-62.12 513.79,-52.14"/>
<polygon fill="#63b8ff" stroke="#63b8ff" points="436.02,-80.81 428.14,-87.89 438.71,-87.27 436.02,-80.81"/>
</a>
</g>
</g>
<!-- Node8&#45;&gt;Node7 -->
<g id="edge8_Node000008_Node000007" class="edge">
<title>Node8&#45;&gt;Node7</title>
<g id="a_edge8_Node000008_Node000007"><a xlink:title=" ">
<path fill="none" stroke="#63b8ff" d="M162,-88.43C181.42,-77.07 204.46,-63.59 224,-52.16"/>
<polygon fill="#63b8ff" stroke="#63b8ff" points="160.22,-85.41 153.36,-93.49 163.76,-91.46 160.22,-85.41"/>
</a>
</g>
</g>
<!-- Node9 -->
<g id="Node000009" class="node">
<title>Node9</title>
<g id="a_Node000009"><a xlink:href="custom__type__topic__conversion__rule_8hpp.html" target="_top" xlink:title=" ">
<polygon fill="white" stroke="#666666" points="176,-52 0,-52 0,0 176,0 176,-52"/>
<text text-anchor="start" x="8" y="-40" font-family="Helvetica,sans-Serif" font-size="10.00">alps_core/lib_internal</text>
<text text-anchor="start" x="8" y="-29" font-family="Helvetica,sans-Serif" font-size="10.00">/alps_ros2_lib/include</text>
<text text-anchor="start" x="8" y="-18" font-family="Helvetica,sans-Serif" font-size="10.00">/alps_ros2/type/custom</text>
<text text-anchor="middle" x="88" y="-7" font-family="Helvetica,sans-Serif" font-size="10.00">_type_topic_conversion_rule.hpp</text>
</a>
</g>
</g>
<!-- Node8&#45;&gt;Node9 -->
<g id="edge9_Node000008_Node000009" class="edge">
<title>Node8&#45;&gt;Node9</title>
<g id="a_edge9_Node000008_Node000009"><a xlink:title=" ">
<path fill="none" stroke="#63b8ff" d="M109.24,-84.08C105.41,-73.79 101.13,-62.28 97.42,-52.32"/>
<polygon fill="#63b8ff" stroke="#63b8ff" points="105.97,-85.33 112.74,-93.49 112.53,-82.89 105.97,-85.33"/>
</a>
</g>
</g>
<!-- Node13 -->
<g id="Node000013" class="node">
<title>Node13</title>
<g id="a_Node000013"><a xlink:href="custom__type__param__conversion__rule_8hpp.html" target="_top" xlink:title=" ">
<polygon fill="white" stroke="#666666" points="285,-228 101,-228 101,-176 285,-176 285,-228"/>
<text text-anchor="start" x="109" y="-216" font-family="Helvetica,sans-Serif" font-size="10.00">alps_core/lib_internal</text>
<text text-anchor="start" x="109" y="-205" font-family="Helvetica,sans-Serif" font-size="10.00">/alps_ros2_lib/include</text>
<text text-anchor="start" x="109" y="-194" font-family="Helvetica,sans-Serif" font-size="10.00">/alps_ros2/type/custom</text>
<text text-anchor="middle" x="193" y="-183" font-family="Helvetica,sans-Serif" font-size="10.00">_type_param_conversion_rule.hpp</text>
</a>
</g>
</g>
<!-- Node12&#45;&gt;Node13 -->
<g id="edge13_Node000012_Node000013" class="edge">
<title>Node12&#45;&gt;Node13</title>
<g id="a_edge13_Node000012_Node000013"><a xlink:title=" ">
<path fill="none" stroke="#63b8ff" d="M272.36,-258.08C258.66,-248.57 243.11,-237.77 229.42,-228.28"/>
<polygon fill="#63b8ff" stroke="#63b8ff" points="270.41,-260.98 280.62,-263.81 274.4,-255.23 270.41,-260.98"/>
</a>
</g>
</g>
<!-- Node14 -->
<g id="Node000014" class="node">
<title>Node14</title>
<g id="a_Node000014"><a xlink:href="typed__param_8hpp.html" target="_top" xlink:title="ROS2 Parameterを色んな型で扱うためのライブラリ">
<polygon fill="white" stroke="#666666" points="804.5,-134.5 631.5,-134.5 631.5,-93.5 804.5,-93.5 804.5,-134.5"/>
<text text-anchor="start" x="639.5" y="-122.5" font-family="Helvetica,sans-Serif" font-size="10.00">alps_core/lib_internal</text>
<text text-anchor="start" x="639.5" y="-111.5" font-family="Helvetica,sans-Serif" font-size="10.00">/alps_ros2_lib/include</text>
<text text-anchor="middle" x="718" y="-100.5" font-family="Helvetica,sans-Serif" font-size="10.00">/alps_ros2/util/typed_param.hpp</text>
</a>
</g>
</g>
<!-- Node12&#45;&gt;Node14 -->
<g id="edge14_Node000012_Node000014" class="edge">
<title>Node12&#45;&gt;Node14</title>
<g id="a_edge14_Node000012_Node000014"><a xlink:title=" ">
<path fill="none" stroke="#63b8ff" d="M417.41,-262.57C442.71,-254.46 468.51,-243.3 490,-228 513.32,-211.4 504.79,-192.75 528,-176 538.36,-168.52 599.86,-149.41 650.12,-134.56"/>
<polygon fill="#63b8ff" stroke="#63b8ff" points="416.28,-259.25 407.75,-265.53 418.34,-265.95 416.28,-259.25"/>
</a>
</g>
</g>
<!-- Node14&#45;&gt;Node6 -->
<g id="edge15_Node000014_Node000006" class="edge">
<title>Node14&#45;&gt;Node6</title>
<g id="a_edge15_Node000014_Node000006"><a xlink:title=" ">
<path fill="none" stroke="#63b8ff" d="M676.6,-88.28C657.63,-76.95 635.18,-63.54 616.12,-52.16"/>
<polygon fill="#63b8ff" stroke="#63b8ff" points="674.94,-91.36 685.32,-93.49 678.53,-85.35 674.94,-91.36"/>
</a>
</g>
</g>
</g>
</svg>
