<?xml version="1.0" encoding="UTF-8" standalone="no"?>
<!DOCTYPE svg PUBLIC "-//W3C//DTD SVG 1.1//EN"
 "http://www.w3.org/Graphics/SVG/1.1/DTD/svg11.dtd">
<!-- Generated by graphviz version 2.43.0 (0)
 -->
<!-- Title: alps_ros2_lib/include/alps_ros2/util/typed_param.hpp Pages: 1 -->
<svg width="512pt" height="240pt"
 viewBox="0.00 0.00 511.50 240.00" xmlns="http://www.w3.org/2000/svg" xmlns:xlink="http://www.w3.org/1999/xlink">
<g id="graph0" class="graph" transform="scale(1 1) rotate(0) translate(4 236)">
<title>alps_ros2_lib/include/alps_ros2/util/typed_param.hpp</title>
<polygon fill="white" stroke="transparent" points="-4,4 -4,-236 507.5,-236 507.5,4 -4,4"/>
<!-- Node1 -->
<g id="node1" class="node">
<title>Node1</title>
<g id="a_node1"><a xlink:title="ROS2 Parameterを色んな型で扱うためのライブラリ">
<polygon fill="#bfbfbf" stroke="black" points="116.5,-190.5 116.5,-231.5 235.5,-231.5 235.5,-190.5 116.5,-190.5"/>
<text text-anchor="start" x="124.5" y="-219.5" font-family="Helvetica,sans-Serif" font-size="10.00">alps_ros2_lib/include</text>
<text text-anchor="start" x="124.5" y="-208.5" font-family="Helvetica,sans-Serif" font-size="10.00">/alps_ros2/util/typed</text>
<text text-anchor="middle" x="176" y="-197.5" font-family="Helvetica,sans-Serif" font-size="10.00">_param.hpp</text>
</a>
</g>
</g>
<!-- Node2 -->
<g id="node2" class="node">
<title>Node2</title>
<g id="a_node2"><a xlink:title=" ">
<polygon fill="white" stroke="#bfbfbf" points="63.5,-129 63.5,-148 162.5,-148 162.5,-129 63.5,-129"/>
<text text-anchor="middle" x="113" y="-136" font-family="Helvetica,sans-Serif" font-size="10.00">rclcpp/rclcpp.hpp</text>
</a>
</g>
</g>
<!-- Node1&#45;&gt;Node2 -->
<g id="edge1" class="edge">
<title>Node1&#45;&gt;Node2</title>
<path fill="none" stroke="midnightblue" d="M158.45,-190.36C148.68,-179.43 136.67,-165.99 127.45,-155.67"/>
<polygon fill="midnightblue" stroke="midnightblue" points="130.02,-153.3 120.75,-148.17 124.8,-157.96 130.02,-153.3"/>
</g>
<!-- Node3 -->
<g id="node3" class="node">
<title>Node3</title>
<g id="a_node3"><a xlink:href="param__converter_8hpp.html" target="_top" xlink:title="ROS2パラメータと値の変換ライブラリ">
<polygon fill="white" stroke="black" points="181,-123.5 181,-153.5 297,-153.5 297,-123.5 181,-123.5"/>
<text text-anchor="start" x="189" y="-141.5" font-family="Helvetica,sans-Serif" font-size="10.00">alps_ros2/util/param</text>
<text text-anchor="middle" x="239" y="-130.5" font-family="Helvetica,sans-Serif" font-size="10.00">_converter.hpp</text>
</a>
</g>
</g>
<!-- Node1&#45;&gt;Node3 -->
<g id="edge2" class="edge">
<title>Node1&#45;&gt;Node3</title>
<path fill="none" stroke="midnightblue" d="M193.55,-190.36C201.55,-181.41 211.05,-170.78 219.29,-161.56"/>
<polygon fill="midnightblue" stroke="midnightblue" points="222.09,-163.68 226.14,-153.89 216.87,-159.02 222.09,-163.68"/>
</g>
<!-- Node4 -->
<g id="node4" class="node">
<title>Node4</title>
<g id="a_node4"><a xlink:href="param__map_8hpp.html" target="_top" xlink:title=" ">
<polygon fill="white" stroke="black" points="26,-56.5 26,-86.5 142,-86.5 142,-56.5 26,-56.5"/>
<text text-anchor="start" x="34" y="-74.5" font-family="Helvetica,sans-Serif" font-size="10.00">alps_ros2/util/param</text>
<text text-anchor="middle" x="84" y="-63.5" font-family="Helvetica,sans-Serif" font-size="10.00">_map.hpp</text>
</a>
</g>
</g>
<!-- Node3&#45;&gt;Node4 -->
<g id="edge3" class="edge">
<title>Node3&#45;&gt;Node4</title>
<path fill="none" stroke="midnightblue" d="M205.37,-123.4C182.42,-113.77 151.81,-100.94 127.08,-90.56"/>
<polygon fill="midnightblue" stroke="midnightblue" points="128.14,-87.22 117.57,-86.58 125.44,-93.67 128.14,-87.22"/>
</g>
<!-- Node8 -->
<g id="node8" class="node">
<title>Node8</title>
<g id="a_node8"><a xlink:title=" ">
<polygon fill="white" stroke="#bfbfbf" points="160.5,-62 160.5,-81 229.5,-81 229.5,-62 160.5,-62"/>
<text text-anchor="middle" x="195" y="-69" font-family="Helvetica,sans-Serif" font-size="10.00">etl/string.h</text>
</a>
</g>
</g>
<!-- Node3&#45;&gt;Node8 -->
<g id="edge7" class="edge">
<title>Node3&#45;&gt;Node8</title>
<path fill="none" stroke="midnightblue" d="M229.45,-123.4C222.73,-113.46 213.69,-100.11 206.56,-89.57"/>
<polygon fill="midnightblue" stroke="midnightblue" points="209.39,-87.51 200.89,-81.19 203.59,-91.44 209.39,-87.51"/>
</g>
<!-- Node9 -->
<g id="node9" class="node">
<title>Node9</title>
<g id="a_node9"><a xlink:title=" ">
<polygon fill="white" stroke="#bfbfbf" points="247.5,-62 247.5,-81 318.5,-81 318.5,-62 247.5,-62"/>
<text text-anchor="middle" x="283" y="-69" font-family="Helvetica,sans-Serif" font-size="10.00">etl/vector.h</text>
</a>
</g>
</g>
<!-- Node3&#45;&gt;Node9 -->
<g id="edge8" class="edge">
<title>Node3&#45;&gt;Node9</title>
<path fill="none" stroke="midnightblue" d="M248.55,-123.4C255.27,-113.46 264.31,-100.11 271.44,-89.57"/>
<polygon fill="midnightblue" stroke="midnightblue" points="274.41,-91.44 277.11,-81.19 268.61,-87.51 274.41,-91.44"/>
</g>
<!-- Node10 -->
<g id="node10" class="node">
<title>Node10</title>
<g id="a_node10"><a xlink:title=" ">
<polygon fill="white" stroke="#bfbfbf" points="336.5,-62 336.5,-81 503.5,-81 503.5,-62 336.5,-62"/>
<text text-anchor="middle" x="420" y="-69" font-family="Helvetica,sans-Serif" font-size="10.00">magic_enum/magic_enum.hpp</text>
</a>
</g>
</g>
<!-- Node3&#45;&gt;Node10 -->
<g id="edge9" class="edge">
<title>Node3&#45;&gt;Node10</title>
<path fill="none" stroke="midnightblue" d="M278.27,-123.4C310.59,-111.79 355.91,-95.51 386.53,-84.52"/>
<polygon fill="midnightblue" stroke="midnightblue" points="388.08,-87.68 396.31,-81.01 385.72,-81.09 388.08,-87.68"/>
</g>
<!-- Node5 -->
<g id="node5" class="node">
<title>Node5</title>
<g id="a_node5"><a xlink:title=" ">
<polygon fill="white" stroke="#bfbfbf" points="0,-0.5 0,-19.5 38,-19.5 38,-0.5 0,-0.5"/>
<text text-anchor="middle" x="19" y="-7.5" font-family="Helvetica,sans-Serif" font-size="10.00">map</text>
</a>
</g>
</g>
<!-- Node4&#45;&gt;Node5 -->
<g id="edge4" class="edge">
<title>Node4&#45;&gt;Node5</title>
<path fill="none" stroke="midnightblue" d="M68.6,-56.4C58.76,-47.4 46.01,-35.72 35.89,-26.47"/>
<polygon fill="midnightblue" stroke="midnightblue" points="38.2,-23.83 28.46,-19.66 33.47,-28.99 38.2,-23.83"/>
</g>
<!-- Node6 -->
<g id="node6" class="node">
<title>Node6</title>
<g id="a_node6"><a xlink:title=" ">
<polygon fill="white" stroke="#bfbfbf" points="56,-0.5 56,-19.5 112,-19.5 112,-0.5 56,-0.5"/>
<text text-anchor="middle" x="84" y="-7.5" font-family="Helvetica,sans-Serif" font-size="10.00">optional</text>
</a>
</g>
</g>
<!-- Node4&#45;&gt;Node6 -->
<g id="edge5" class="edge">
<title>Node4&#45;&gt;Node6</title>
<path fill="none" stroke="midnightblue" d="M84,-56.4C84,-48.47 84,-38.46 84,-29.86"/>
<polygon fill="midnightblue" stroke="midnightblue" points="87.5,-29.66 84,-19.66 80.5,-29.66 87.5,-29.66"/>
</g>
<!-- Node7 -->
<g id="node7" class="node">
<title>Node7</title>
<g id="a_node7"><a xlink:title=" ">
<polygon fill="white" stroke="#bfbfbf" points="130,-0.5 130,-19.5 250,-19.5 250,-0.5 130,-0.5"/>
<text text-anchor="middle" x="190" y="-7.5" font-family="Helvetica,sans-Serif" font-size="10.00">rclcpp/parameter.hpp</text>
</a>
</g>
</g>
<!-- Node4&#45;&gt;Node7 -->
<g id="edge6" class="edge">
<title>Node4&#45;&gt;Node7</title>
<path fill="none" stroke="midnightblue" d="M109.12,-56.4C126.27,-46.77 148.86,-34.09 165.81,-24.58"/>
<polygon fill="midnightblue" stroke="midnightblue" points="167.57,-27.6 174.58,-19.66 164.14,-21.5 167.57,-27.6"/>
</g>
</g>
</svg>
