<?xml version="1.0" encoding="UTF-8" standalone="no"?>
<!DOCTYPE svg PUBLIC "-//W3C//DTD SVG 1.1//EN"
 "http://www.w3.org/Graphics/SVG/1.1/DTD/svg11.dtd">
<!-- Generated by graphviz version 2.43.0 (0)
 -->
<!-- Title: alps_core/lib_internal/alps_ros2_lib/include/alps_ros2/util/typed_param.hpp Pages: 1 -->
<svg width="811pt" height="236pt"
 viewBox="0.00 0.00 811.00 236.00" xmlns="http://www.w3.org/2000/svg" xmlns:xlink="http://www.w3.org/1999/xlink">
<g id="graph0" class="graph" transform="scale(1 1) rotate(0) translate(4 232)">
<title>alps_core/lib_internal/alps_ros2_lib/include/alps_ros2/util/typed_param.hpp</title>
<!-- Node1 -->
<g id="Node000001" class="node">
<title>Node1</title>
<g id="a_Node000001"><a xlink:title="ROS2 Parameterを色んな型で扱うためのライブラリ">
<polygon fill="#999999" stroke="#666666" points="352.5,-228 179.5,-228 179.5,-187 352.5,-187 352.5,-228"/>
<text text-anchor="start" x="187.5" y="-216" font-family="Helvetica,sans-Serif" font-size="10.00">alps_core/lib_internal</text>
<text text-anchor="start" x="187.5" y="-205" font-family="Helvetica,sans-Serif" font-size="10.00">/alps_ros2_lib/include</text>
<text text-anchor="middle" x="266" y="-194" font-family="Helvetica,sans-Serif" font-size="10.00">/alps_ros2/util/typed_param.hpp</text>
</a>
</g>
</g>
<!-- Node2 -->
<g id="Node000002" class="node">
<title>Node2</title>
<g id="a_Node000002"><a xlink:title=" ">
<polygon fill="#e0e0e0" stroke="#999999" points="152.5,-145.5 87.5,-145.5 87.5,-126.5 152.5,-126.5 152.5,-145.5"/>
<text text-anchor="middle" x="120" y="-133.5" font-family="Helvetica,sans-Serif" font-size="10.00">functional</text>
</a>
</g>
</g>
<!-- Node1&#45;&gt;Node2 -->
<g id="edge1_Node000001_Node000002" class="edge">
<title>Node1&#45;&gt;Node2</title>
<g id="a_edge1_Node000001_Node000002"><a xlink:title=" ">
<path fill="none" stroke="#63b8ff" d="M224.94,-186.96C199.96,-175.06 168.77,-160.21 146.91,-149.81"/>
<polygon fill="#63b8ff" stroke="#63b8ff" points="148.4,-146.64 137.86,-145.5 145.39,-152.96 148.4,-146.64"/>
</a>
</g>
</g>
<!-- Node3 -->
<g id="Node000003" class="node">
<title>Node3</title>
<g id="a_Node000003"><a xlink:title=" ">
<polygon fill="#e0e0e0" stroke="#999999" points="269.5,-145.5 170.5,-145.5 170.5,-126.5 269.5,-126.5 269.5,-145.5"/>
<text text-anchor="middle" x="220" y="-133.5" font-family="Helvetica,sans-Serif" font-size="10.00">rclcpp/rclcpp.hpp</text>
</a>
</g>
</g>
<!-- Node1&#45;&gt;Node3 -->
<g id="edge2_Node000001_Node000003" class="edge">
<title>Node1&#45;&gt;Node3</title>
<g id="a_edge2_Node000001_Node000003"><a xlink:title=" ">
<path fill="none" stroke="#63b8ff" d="M252.94,-186.77C246.18,-176.55 237.99,-164.19 231.48,-154.34"/>
<polygon fill="#63b8ff" stroke="#63b8ff" points="234.28,-152.23 225.84,-145.82 228.44,-156.09 234.28,-152.23"/>
</a>
</g>
</g>
<!-- Node4 -->
<g id="Node000004" class="node">
<title>Node4</title>
<g id="a_Node000004"><a xlink:title=" ">
<polygon fill="#e0e0e0" stroke="#999999" points="336,-145.5 288,-145.5 288,-126.5 336,-126.5 336,-145.5"/>
<text text-anchor="middle" x="312" y="-133.5" font-family="Helvetica,sans-Serif" font-size="10.00">thread</text>
</a>
</g>
</g>
<!-- Node1&#45;&gt;Node4 -->
<g id="edge3_Node000001_Node000004" class="edge">
<title>Node1&#45;&gt;Node4</title>
<g id="a_edge3_Node000001_Node000004"><a xlink:title=" ">
<path fill="none" stroke="#63b8ff" d="M279.06,-186.77C285.82,-176.55 294.01,-164.19 300.52,-154.34"/>
<polygon fill="#63b8ff" stroke="#63b8ff" points="303.56,-156.09 306.16,-145.82 297.72,-152.23 303.56,-156.09"/>
</a>
</g>
</g>
<!-- Node5 -->
<g id="Node000005" class="node">
<title>Node5</title>
<g id="a_Node000005"><a xlink:href="param__converter_8hpp.html" target="_top" xlink:title="ROS2パラメータと値の変換ライブラリ">
<polygon fill="white" stroke="#666666" points="476,-151 354,-151 354,-121 476,-121 476,-151"/>
<text text-anchor="start" x="362" y="-139" font-family="Helvetica,sans-Serif" font-size="10.00">alps_ros2/type/param</text>
<text text-anchor="middle" x="415" y="-128" font-family="Helvetica,sans-Serif" font-size="10.00">_converter.hpp</text>
</a>
</g>
</g>
<!-- Node1&#45;&gt;Node5 -->
<g id="edge4_Node000001_Node000005" class="edge">
<title>Node1&#45;&gt;Node5</title>
<g id="a_edge4_Node000001_Node000005"><a xlink:title=" ">
<path fill="none" stroke="#63b8ff" d="M307.9,-186.96C329.1,-177.07 354.69,-165.13 375.53,-155.41"/>
<polygon fill="#63b8ff" stroke="#63b8ff" points="377.16,-158.51 384.74,-151.11 374.2,-152.17 377.16,-158.51"/>
</a>
</g>
</g>
<!-- Node6 -->
<g id="Node000006" class="node">
<title>Node6</title>
<g id="a_Node000006"><a xlink:href="tuple__traits_8hpp.html" target="_top" xlink:title="タプル関係の型特性">
<polygon fill="white" stroke="#666666" points="179,-85 63,-85 63,-55 179,-55 179,-85"/>
<text text-anchor="start" x="71" y="-73" font-family="Helvetica,sans-Serif" font-size="10.00">alps_cmn/type/tuple</text>
<text text-anchor="middle" x="121" y="-62" font-family="Helvetica,sans-Serif" font-size="10.00">_traits.hpp</text>
</a>
</g>
</g>
<!-- Node5&#45;&gt;Node6 -->
<g id="edge5_Node000005_Node000006" class="edge">
<title>Node5&#45;&gt;Node6</title>
<g id="a_edge5_Node000005_Node000006"><a xlink:title=" ">
<path fill="none" stroke="#63b8ff" d="M353.73,-121.66C305.71,-111.21 238.93,-96.67 189.21,-85.85"/>
<polygon fill="#63b8ff" stroke="#63b8ff" points="189.71,-82.38 179.19,-83.67 188.22,-89.21 189.71,-82.38"/>
</a>
</g>
</g>
<!-- Node10 -->
<g id="Node000010" class="node">
<title>Node10</title>
<g id="a_Node000010"><a xlink:href="param__map_8hpp.html" target="_top" xlink:title=" ">
<polygon fill="white" stroke="#666666" points="318,-85 202,-85 202,-55 318,-55 318,-85"/>
<text text-anchor="start" x="210" y="-73" font-family="Helvetica,sans-Serif" font-size="10.00">alps_ros2/util/param</text>
<text text-anchor="middle" x="260" y="-62" font-family="Helvetica,sans-Serif" font-size="10.00">_map.hpp</text>
</a>
</g>
</g>
<!-- Node5&#45;&gt;Node10 -->
<g id="edge9_Node000005_Node000010" class="edge">
<title>Node5&#45;&gt;Node10</title>
<g id="a_edge9_Node000005_Node000010"><a xlink:title=" ">
<path fill="none" stroke="#63b8ff" d="M380.98,-120.95C358.17,-111.53 327.92,-99.04 303.38,-88.91"/>
<polygon fill="#63b8ff" stroke="#63b8ff" points="304.51,-85.59 293.94,-85.01 301.84,-92.06 304.51,-85.59"/>
</a>
</g>
</g>
<!-- Node14 -->
<g id="Node000014" class="node">
<title>Node14</title>
<g id="a_Node000014"><a xlink:title=" ">
<polygon fill="#e0e0e0" stroke="#999999" points="405.5,-79.5 336.5,-79.5 336.5,-60.5 405.5,-60.5 405.5,-79.5"/>
<text text-anchor="middle" x="371" y="-67.5" font-family="Helvetica,sans-Serif" font-size="10.00">etl/string.h</text>
</a>
</g>
</g>
<!-- Node5&#45;&gt;Node14 -->
<g id="edge13_Node000005_Node000014" class="edge">
<title>Node5&#45;&gt;Node14</title>
<g id="a_edge13_Node000005_Node000014"><a xlink:title=" ">
<path fill="none" stroke="#63b8ff" d="M405.23,-120.8C398.64,-111.21 389.91,-98.5 382.91,-88.32"/>
<polygon fill="#63b8ff" stroke="#63b8ff" points="385.63,-86.1 377.08,-79.84 379.86,-90.07 385.63,-86.1"/>
</a>
</g>
</g>
<!-- Node15 -->
<g id="Node000015" class="node">
<title>Node15</title>
<g id="a_Node000015"><a xlink:title=" ">
<polygon fill="#e0e0e0" stroke="#999999" points="494.5,-79.5 423.5,-79.5 423.5,-60.5 494.5,-60.5 494.5,-79.5"/>
<text text-anchor="middle" x="459" y="-67.5" font-family="Helvetica,sans-Serif" font-size="10.00">etl/vector.h</text>
</a>
</g>
</g>
<!-- Node5&#45;&gt;Node15 -->
<g id="edge14_Node000005_Node000015" class="edge">
<title>Node5&#45;&gt;Node15</title>
<g id="a_edge14_Node000005_Node000015"><a xlink:title=" ">
<path fill="none" stroke="#63b8ff" d="M424.77,-120.8C431.36,-111.21 440.09,-98.5 447.09,-88.32"/>
<polygon fill="#63b8ff" stroke="#63b8ff" points="450.14,-90.07 452.92,-79.84 444.37,-86.1 450.14,-90.07"/>
</a>
</g>
</g>
<!-- Node16 -->
<g id="Node000016" class="node">
<title>Node16</title>
<g id="a_Node000016"><a xlink:title=" ">
<polygon fill="#e0e0e0" stroke="#999999" points="679.5,-79.5 512.5,-79.5 512.5,-60.5 679.5,-60.5 679.5,-79.5"/>
<text text-anchor="middle" x="596" y="-67.5" font-family="Helvetica,sans-Serif" font-size="10.00">magic_enum/magic_enum.hpp</text>
</a>
</g>
</g>
<!-- Node5&#45;&gt;Node16 -->
<g id="edge15_Node000005_Node000016" class="edge">
<title>Node5&#45;&gt;Node16</title>
<g id="a_edge15_Node000005_Node000016"><a xlink:title=" ">
<path fill="none" stroke="#63b8ff" d="M454.72,-120.95C486.88,-109.58 531.7,-93.74 562.17,-82.96"/>
<polygon fill="#63b8ff" stroke="#63b8ff" points="563.65,-86.15 571.91,-79.52 561.32,-79.55 563.65,-86.15"/>
</a>
</g>
</g>
<!-- Node17 -->
<g id="Node000017" class="node">
<title>Node17</title>
<g id="a_Node000017"><a xlink:title=" ">
<polygon fill="#e0e0e0" stroke="#999999" points="803,-79.5 697,-79.5 697,-60.5 803,-60.5 803,-79.5"/>
<text text-anchor="middle" x="750" y="-67.5" font-family="Helvetica,sans-Serif" font-size="10.00">rclcpp/logging.hpp</text>
</a>
</g>
</g>
<!-- Node5&#45;&gt;Node17 -->
<g id="edge16_Node000005_Node000017" class="edge">
<title>Node5&#45;&gt;Node17</title>
<g id="a_edge16_Node000005_Node000017"><a xlink:title=" ">
<path fill="none" stroke="#63b8ff" d="M476.1,-124.66C531.72,-115.06 616.06,-100.02 689,-85 693.8,-84.01 698.81,-82.94 703.79,-81.84"/>
<polygon fill="#63b8ff" stroke="#63b8ff" points="704.94,-85.17 713.93,-79.56 703.41,-78.34 704.94,-85.17"/>
</a>
</g>
</g>
<!-- Node7 -->
<g id="Node000007" class="node">
<title>Node7</title>
<g id="a_Node000007"><a xlink:title=" ">
<polygon fill="#e0e0e0" stroke="#999999" points="44,-19 0,-19 0,0 44,0 44,-19"/>
<text text-anchor="middle" x="22" y="-7" font-family="Helvetica,sans-Serif" font-size="10.00">string</text>
</a>
</g>
</g>
<!-- Node6&#45;&gt;Node7 -->
<g id="edge6_Node000006_Node000007" class="edge">
<title>Node6&#45;&gt;Node7</title>
<g id="a_edge6_Node000006_Node000007"><a xlink:title=" ">
<path fill="none" stroke="#63b8ff" d="M97.29,-54.99C81.65,-45.75 61.26,-33.7 45.64,-24.47"/>
<polygon fill="#63b8ff" stroke="#63b8ff" points="47.01,-21.21 36.62,-19.14 43.45,-27.24 47.01,-21.21"/>
</a>
</g>
</g>
<!-- Node8 -->
<g id="Node000008" class="node">
<title>Node8</title>
<g id="a_Node000008"><a xlink:title=" ">
<polygon fill="#e0e0e0" stroke="#999999" points="103.5,-19 62.5,-19 62.5,0 103.5,0 103.5,-19"/>
<text text-anchor="middle" x="83" y="-7" font-family="Helvetica,sans-Serif" font-size="10.00">tuple</text>
</a>
</g>
</g>
<!-- Node6&#45;&gt;Node8 -->
<g id="edge7_Node000006_Node000008" class="edge">
<title>Node6&#45;&gt;Node8</title>
<g id="a_edge7_Node000006_Node000008"><a xlink:title=" ">
<path fill="none" stroke="#63b8ff" d="M111.8,-54.84C106.51,-46.69 99.82,-36.4 94.22,-27.78"/>
<polygon fill="#63b8ff" stroke="#63b8ff" points="97.08,-25.75 88.69,-19.27 91.21,-29.56 97.08,-25.75"/>
</a>
</g>
</g>
<!-- Node9 -->
<g id="Node000009" class="node">
<title>Node9</title>
<g id="a_Node000009"><a xlink:title=" ">
<polygon fill="#e0e0e0" stroke="#999999" points="190.5,-19 121.5,-19 121.5,0 190.5,0 190.5,-19"/>
<text text-anchor="middle" x="156" y="-7" font-family="Helvetica,sans-Serif" font-size="10.00">type_traits</text>
</a>
</g>
</g>
<!-- Node6&#45;&gt;Node9 -->
<g id="edge8_Node000006_Node000009" class="edge">
<title>Node6&#45;&gt;Node9</title>
<g id="a_edge8_Node000006_Node000009"><a xlink:title=" ">
<path fill="none" stroke="#63b8ff" d="M129.47,-54.84C134.29,-46.78 140.37,-36.62 145.5,-28.06"/>
<polygon fill="#63b8ff" stroke="#63b8ff" points="148.62,-29.64 150.76,-19.27 142.62,-26.05 148.62,-29.64"/>
</a>
</g>
</g>
<!-- Node11 -->
<g id="Node000011" class="node">
<title>Node11</title>
<g id="a_Node000011"><a xlink:title=" ">
<polygon fill="#e0e0e0" stroke="#999999" points="247,-19 209,-19 209,0 247,0 247,-19"/>
<text text-anchor="middle" x="228" y="-7" font-family="Helvetica,sans-Serif" font-size="10.00">map</text>
</a>
</g>
</g>
<!-- Node10&#45;&gt;Node11 -->
<g id="edge10_Node000010_Node000011" class="edge">
<title>Node10&#45;&gt;Node11</title>
<g id="a_edge10_Node000010_Node000011"><a xlink:title=" ">
<path fill="none" stroke="#63b8ff" d="M252.25,-54.84C247.85,-46.78 242.29,-36.62 237.6,-28.06"/>
<polygon fill="#63b8ff" stroke="#63b8ff" points="240.66,-26.36 232.8,-19.27 234.52,-29.72 240.66,-26.36"/>
</a>
</g>
</g>
<!-- Node12 -->
<g id="Node000012" class="node">
<title>Node12</title>
<g id="a_Node000012"><a xlink:title=" ">
<polygon fill="#e0e0e0" stroke="#999999" points="321,-19 265,-19 265,0 321,0 321,-19"/>
<text text-anchor="middle" x="293" y="-7" font-family="Helvetica,sans-Serif" font-size="10.00">optional</text>
</a>
</g>
</g>
<!-- Node10&#45;&gt;Node12 -->
<g id="edge11_Node000010_Node000012" class="edge">
<title>Node10&#45;&gt;Node12</title>
<g id="a_edge11_Node000010_Node000012"><a xlink:title=" ">
<path fill="none" stroke="#63b8ff" d="M267.99,-54.84C272.53,-46.78 278.27,-36.62 283.1,-28.06"/>
<polygon fill="#63b8ff" stroke="#63b8ff" points="286.19,-29.7 288.06,-19.27 280.09,-26.26 286.19,-29.7"/>
</a>
</g>
</g>
<!-- Node13 -->
<g id="Node000013" class="node">
<title>Node13</title>
<g id="a_Node000013"><a xlink:title=" ">
<polygon fill="#e0e0e0" stroke="#999999" points="459,-19 339,-19 339,0 459,0 459,-19"/>
<text text-anchor="middle" x="399" y="-7" font-family="Helvetica,sans-Serif" font-size="10.00">rclcpp/parameter.hpp</text>
</a>
</g>
</g>
<!-- Node10&#45;&gt;Node13 -->
<g id="edge12_Node000010_Node000013" class="edge">
<title>Node10&#45;&gt;Node13</title>
<g id="a_edge12_Node000010_Node000013"><a xlink:title=" ">
<path fill="none" stroke="#63b8ff" d="M293.29,-54.99C316.38,-45.27 346.87,-32.44 369.16,-23.06"/>
<polygon fill="#63b8ff" stroke="#63b8ff" points="370.61,-26.24 378.47,-19.14 367.9,-19.79 370.61,-26.24"/>
</a>
</g>
</g>
</g>
</svg>
