<?xml version="1.0" encoding="UTF-8" standalone="no"?>
<!DOCTYPE svg PUBLIC "-//W3C//DTD SVG 1.1//EN"
 "http://www.w3.org/Graphics/SVG/1.1/DTD/svg11.dtd">
<!-- Generated by graphviz version 2.43.0 (0)
 -->
<!-- Title: alps_common_lib/include/alps_cmn/communication/uart_packet_transceiver.hpp Pages: 1 -->
<svg width="986pt" height="240pt"
 viewBox="0.00 0.00 985.50 240.00" xmlns="http://www.w3.org/2000/svg" xmlns:xlink="http://www.w3.org/1999/xlink">
<g id="graph0" class="graph" transform="scale(1 1) rotate(0) translate(4 236)">
<title>alps_common_lib/include/alps_cmn/communication/uart_packet_transceiver.hpp</title>
<polygon fill="white" stroke="transparent" points="-4,4 -4,-236 981.5,-236 981.5,4 -4,4"/>
<!-- Node1 -->
<g id="node1" class="node">
<title>Node1</title>
<g id="a_node1"><a xlink:title=" ">
<polygon fill="#bfbfbf" stroke="black" points="476.5,-190.5 476.5,-231.5 633.5,-231.5 633.5,-190.5 476.5,-190.5"/>
<text text-anchor="start" x="484.5" y="-219.5" font-family="Helvetica,sans-Serif" font-size="10.00">alps_common_lib/include</text>
<text text-anchor="start" x="484.5" y="-208.5" font-family="Helvetica,sans-Serif" font-size="10.00">/alps_cmn/communication</text>
<text text-anchor="middle" x="555" y="-197.5" font-family="Helvetica,sans-Serif" font-size="10.00">/uart_packet_transceiver.hpp</text>
</a>
</g>
</g>
<!-- Node2 -->
<g id="node2" class="node">
<title>Node2</title>
<g id="a_node2"><a xlink:href="cobs_8hpp.html" target="_top" xlink:title="COBS変換ライブラリ">
<polygon fill="white" stroke="black" points="132,-123.5 132,-153.5 274,-153.5 274,-123.5 132,-123.5"/>
<text text-anchor="start" x="140" y="-141.5" font-family="Helvetica,sans-Serif" font-size="10.00">alps_cmn/communication</text>
<text text-anchor="middle" x="203" y="-130.5" font-family="Helvetica,sans-Serif" font-size="10.00">/cobs.hpp</text>
</a>
</g>
</g>
<!-- Node1&#45;&gt;Node2 -->
<g id="edge1" class="edge">
<title>Node1&#45;&gt;Node2</title>
<path fill="none" stroke="midnightblue" d="M476.44,-194.27C418.79,-182.72 340.76,-167.09 282.82,-155.49"/>
<polygon fill="midnightblue" stroke="midnightblue" points="283.46,-152.05 272.97,-153.51 282.09,-158.91 283.46,-152.05"/>
</g>
<!-- Node8 -->
<g id="node8" class="node">
<title>Node8</title>
<g id="a_node8"><a xlink:href="i__uart__io_8hpp.html" target="_top" xlink:title=" ">
<polygon fill="white" stroke="black" points="309,-123.5 309,-153.5 451,-153.5 451,-123.5 309,-123.5"/>
<text text-anchor="start" x="317" y="-141.5" font-family="Helvetica,sans-Serif" font-size="10.00">alps_cmn/communication</text>
<text text-anchor="middle" x="380" y="-130.5" font-family="Helvetica,sans-Serif" font-size="10.00">/i_uart_io.hpp</text>
</a>
</g>
</g>
<!-- Node1&#45;&gt;Node8 -->
<g id="edge7" class="edge">
<title>Node1&#45;&gt;Node8</title>
<path fill="none" stroke="midnightblue" d="M506.25,-190.36C480.63,-180.04 449.45,-167.48 424.48,-157.42"/>
<polygon fill="midnightblue" stroke="midnightblue" points="425.48,-154.05 414.9,-153.56 422.87,-160.54 425.48,-154.05"/>
</g>
<!-- Node9 -->
<g id="node9" class="node">
<title>Node9</title>
<g id="a_node9"><a xlink:href="serializer_8hpp.html" target="_top" xlink:title="データとバイト列の変換ライブラリ">
<polygon fill="white" stroke="black" points="477,-129 477,-148 633,-148 633,-129 477,-129"/>
<text text-anchor="middle" x="555" y="-136" font-family="Helvetica,sans-Serif" font-size="10.00">alps_cmn/type/serializer.hpp</text>
</a>
</g>
</g>
<!-- Node1&#45;&gt;Node9 -->
<g id="edge9" class="edge">
<title>Node1&#45;&gt;Node9</title>
<path fill="none" stroke="midnightblue" d="M555,-190.36C555,-180.3 555,-168.1 555,-158.18"/>
<polygon fill="midnightblue" stroke="midnightblue" points="558.5,-158.17 555,-148.17 551.5,-158.17 558.5,-158.17"/>
</g>
<!-- Node19 -->
<g id="node19" class="node">
<title>Node19</title>
<g id="a_node19"><a xlink:title=" ">
<polygon fill="white" stroke="#bfbfbf" points="651,-129 651,-148 735,-148 735,-129 651,-129"/>
<text text-anchor="middle" x="693" y="-136" font-family="Helvetica,sans-Serif" font-size="10.00">etl/delegate.h</text>
</a>
</g>
</g>
<!-- Node1&#45;&gt;Node19 -->
<g id="edge23" class="edge">
<title>Node1&#45;&gt;Node19</title>
<path fill="none" stroke="midnightblue" d="M593.44,-190.36C616.85,-178.4 646.14,-163.44 666.87,-152.85"/>
<polygon fill="midnightblue" stroke="midnightblue" points="668.71,-155.84 676.02,-148.17 665.52,-149.61 668.71,-155.84"/>
</g>
<!-- Node20 -->
<g id="node20" class="node">
<title>Node20</title>
<g id="a_node20"><a xlink:title=" ">
<polygon fill="white" stroke="#bfbfbf" points="753,-129 753,-148 871,-148 871,-129 753,-129"/>
<text text-anchor="middle" x="812" y="-136" font-family="Helvetica,sans-Serif" font-size="10.00">etl/unordered_map.h</text>
</a>
</g>
</g>
<!-- Node1&#45;&gt;Node20 -->
<g id="edge24" class="edge">
<title>Node1&#45;&gt;Node20</title>
<path fill="none" stroke="midnightblue" d="M626.25,-190.46C672.88,-177.66 732.17,-161.4 771.05,-150.73"/>
<polygon fill="midnightblue" stroke="midnightblue" points="772.25,-154.03 780.97,-148.01 770.4,-147.28 772.25,-154.03"/>
</g>
<!-- Node3 -->
<g id="node3" class="node">
<title>Node3</title>
<g id="a_node3"><a xlink:title=" ">
<polygon fill="white" stroke="#bfbfbf" points="0,-62 0,-81 52,-81 52,-62 0,-62"/>
<text text-anchor="middle" x="26" y="-69" font-family="Helvetica,sans-Serif" font-size="10.00">cassert</text>
</a>
</g>
</g>
<!-- Node2&#45;&gt;Node3 -->
<g id="edge2" class="edge">
<title>Node2&#45;&gt;Node3</title>
<path fill="none" stroke="midnightblue" d="M161.78,-123.47C133.33,-113.63 94.7,-99.96 61,-87 59.35,-86.37 57.67,-85.71 55.97,-85.03"/>
<polygon fill="midnightblue" stroke="midnightblue" points="56.87,-81.62 46.29,-81.11 54.24,-88.11 56.87,-81.62"/>
</g>
<!-- Node4 -->
<g id="node4" class="node">
<title>Node4</title>
<g id="a_node4"><a xlink:title=" ">
<polygon fill="white" stroke="#bfbfbf" points="330,-62 330,-81 380,-81 380,-62 330,-62"/>
<text text-anchor="middle" x="355" y="-69" font-family="Helvetica,sans-Serif" font-size="10.00">cstdint</text>
</a>
</g>
</g>
<!-- Node2&#45;&gt;Node4 -->
<g id="edge3" class="edge">
<title>Node2&#45;&gt;Node4</title>
<path fill="none" stroke="midnightblue" d="M235.98,-123.4C262.77,-111.94 300.19,-95.94 325.88,-84.95"/>
<polygon fill="midnightblue" stroke="midnightblue" points="327.29,-88.16 335.11,-81.01 324.54,-81.72 327.29,-88.16"/>
</g>
<!-- Node5 -->
<g id="node5" class="node">
<title>Node5</title>
<g id="a_node5"><a xlink:title=" ">
<polygon fill="white" stroke="#bfbfbf" points="70,-62 70,-81 116,-81 116,-62 70,-62"/>
<text text-anchor="middle" x="93" y="-69" font-family="Helvetica,sans-Serif" font-size="10.00">cstdio</text>
</a>
</g>
</g>
<!-- Node2&#45;&gt;Node5 -->
<g id="edge4" class="edge">
<title>Node2&#45;&gt;Node5</title>
<path fill="none" stroke="midnightblue" d="M179.13,-123.4C160.43,-112.34 134.56,-97.06 116.07,-86.13"/>
<polygon fill="midnightblue" stroke="midnightblue" points="117.79,-83.08 107.4,-81.01 114.23,-89.11 117.79,-83.08"/>
</g>
<!-- Node6 -->
<g id="node6" class="node">
<title>Node6</title>
<g id="a_node6"><a xlink:title=" ">
<polygon fill="white" stroke="#bfbfbf" points="134.5,-62 134.5,-81 183.5,-81 183.5,-62 134.5,-62"/>
<text text-anchor="middle" x="159" y="-69" font-family="Helvetica,sans-Serif" font-size="10.00">cstdlib</text>
</a>
</g>
</g>
<!-- Node2&#45;&gt;Node6 -->
<g id="edge5" class="edge">
<title>Node2&#45;&gt;Node6</title>
<path fill="none" stroke="midnightblue" d="M193.45,-123.4C186.73,-113.46 177.69,-100.11 170.56,-89.57"/>
<polygon fill="midnightblue" stroke="midnightblue" points="173.39,-87.51 164.89,-81.19 167.59,-91.44 173.39,-87.51"/>
</g>
<!-- Node7 -->
<g id="node7" class="node">
<title>Node7</title>
<g id="a_node7"><a xlink:title=" ">
<polygon fill="white" stroke="#bfbfbf" points="202,-62 202,-81 312,-81 312,-62 202,-62"/>
<text text-anchor="middle" x="257" y="-69" font-family="Helvetica,sans-Serif" font-size="10.00">etl/circular_buffer.h</text>
</a>
</g>
</g>
<!-- Node2&#45;&gt;Node7 -->
<g id="edge6" class="edge">
<title>Node2&#45;&gt;Node7</title>
<path fill="none" stroke="midnightblue" d="M214.72,-123.4C223.14,-113.26 234.51,-99.57 243.34,-88.94"/>
<polygon fill="midnightblue" stroke="midnightblue" points="246.08,-91.12 249.78,-81.19 240.69,-86.65 246.08,-91.12"/>
</g>
<!-- Node8&#45;&gt;Node7 -->
<g id="edge8" class="edge">
<title>Node8&#45;&gt;Node7</title>
<path fill="none" stroke="midnightblue" d="M353.31,-123.4C332.11,-112.19 302.68,-96.64 281.95,-85.69"/>
<polygon fill="midnightblue" stroke="midnightblue" points="283.57,-82.58 273.1,-81.01 280.3,-88.77 283.57,-82.58"/>
</g>
<!-- Node9&#45;&gt;Node4 -->
<g id="edge12" class="edge">
<title>Node9&#45;&gt;Node4</title>
<path fill="none" stroke="midnightblue" d="M523.15,-128.91C489.48,-119.58 435,-103.75 389,-87 387.34,-86.4 385.65,-85.75 383.94,-85.09"/>
<polygon fill="midnightblue" stroke="midnightblue" points="384.86,-81.68 374.27,-81.15 382.21,-88.16 384.86,-81.68"/>
</g>
<!-- Node9&#45;&gt;Node7 -->
<g id="edge20" class="edge">
<title>Node9&#45;&gt;Node7</title>
<path fill="none" stroke="midnightblue" d="M514.81,-128.96C468.17,-119.01 388.97,-102.03 321,-87 315.65,-85.82 310.04,-84.56 304.48,-83.31"/>
<polygon fill="midnightblue" stroke="midnightblue" points="305.07,-79.86 294.55,-81.08 303.54,-86.69 305.07,-79.86"/>
</g>
<!-- Node10 -->
<g id="node10" class="node">
<title>Node10</title>
<g id="a_node10"><a xlink:title=" ">
<polygon fill="white" stroke="#bfbfbf" points="488,-62 488,-81 552,-81 552,-62 488,-62"/>
<text text-anchor="middle" x="520" y="-69" font-family="Helvetica,sans-Serif" font-size="10.00">algorithm</text>
</a>
</g>
</g>
<!-- Node9&#45;&gt;Node10 -->
<g id="edge10" class="edge">
<title>Node9&#45;&gt;Node10</title>
<path fill="none" stroke="midnightblue" d="M550.28,-128.73C544.98,-118.89 536.24,-102.66 529.51,-90.16"/>
<polygon fill="midnightblue" stroke="midnightblue" points="532.47,-88.27 524.65,-81.13 526.3,-91.59 532.47,-88.27"/>
</g>
<!-- Node11 -->
<g id="node11" class="node">
<title>Node11</title>
<g id="a_node11"><a xlink:title=" ">
<polygon fill="white" stroke="#bfbfbf" points="570,-62 570,-81 612,-81 612,-62 570,-62"/>
<text text-anchor="middle" x="591" y="-69" font-family="Helvetica,sans-Serif" font-size="10.00">array</text>
</a>
</g>
</g>
<!-- Node9&#45;&gt;Node11 -->
<g id="edge11" class="edge">
<title>Node9&#45;&gt;Node11</title>
<path fill="none" stroke="midnightblue" d="M559.86,-128.73C565.31,-118.89 574.3,-102.66 581.22,-90.16"/>
<polygon fill="midnightblue" stroke="midnightblue" points="584.44,-91.57 586.22,-81.13 578.31,-88.18 584.44,-91.57"/>
</g>
<!-- Node12 -->
<g id="node12" class="node">
<title>Node12</title>
<g id="a_node12"><a xlink:title=" ">
<polygon fill="white" stroke="#bfbfbf" points="630,-62 630,-81 680,-81 680,-62 630,-62"/>
<text text-anchor="middle" x="655" y="-69" font-family="Helvetica,sans-Serif" font-size="10.00">cstring</text>
</a>
</g>
</g>
<!-- Node9&#45;&gt;Node12 -->
<g id="edge13" class="edge">
<title>Node9&#45;&gt;Node12</title>
<path fill="none" stroke="midnightblue" d="M568.49,-128.73C585.05,-117.96 613.38,-99.55 633.09,-86.74"/>
<polygon fill="midnightblue" stroke="midnightblue" points="635.25,-89.51 641.73,-81.13 631.44,-83.64 635.25,-89.51"/>
</g>
<!-- Node13 -->
<g id="node13" class="node">
<title>Node13</title>
<g id="a_node13"><a xlink:title=" ">
<polygon fill="white" stroke="#bfbfbf" points="700.5,-0.5 700.5,-19.5 741.5,-19.5 741.5,-0.5 700.5,-0.5"/>
<text text-anchor="middle" x="721" y="-7.5" font-family="Helvetica,sans-Serif" font-size="10.00">tuple</text>
</a>
</g>
</g>
<!-- Node9&#45;&gt;Node13 -->
<g id="edge14" class="edge">
<title>Node9&#45;&gt;Node13</title>
<path fill="none" stroke="midnightblue" d="M604.16,-128.97C632.05,-121.89 665.89,-109.24 689,-87 705.08,-71.53 713.44,-46.72 717.52,-29.69"/>
<polygon fill="midnightblue" stroke="midnightblue" points="720.97,-30.3 719.62,-19.79 714.12,-28.84 720.97,-30.3"/>
</g>
<!-- Node14 -->
<g id="node14" class="node">
<title>Node14</title>
<g id="a_node14"><a xlink:title=" ">
<polygon fill="white" stroke="#bfbfbf" points="839.5,-0.5 839.5,-19.5 908.5,-19.5 908.5,-0.5 839.5,-0.5"/>
<text text-anchor="middle" x="874" y="-7.5" font-family="Helvetica,sans-Serif" font-size="10.00">type_traits</text>
</a>
</g>
</g>
<!-- Node9&#45;&gt;Node14 -->
<g id="edge15" class="edge">
<title>Node9&#45;&gt;Node14</title>
<path fill="none" stroke="midnightblue" d="M606.06,-128.97C617.86,-127 630.37,-124.93 642,-123 690.66,-114.95 826.01,-121.76 861,-87 875.88,-72.22 877.41,-47.06 876.37,-29.77"/>
<polygon fill="midnightblue" stroke="midnightblue" points="879.84,-29.35 875.42,-19.73 872.87,-30.01 879.84,-29.35"/>
</g>
<!-- Node15 -->
<g id="node15" class="node">
<title>Node15</title>
<g id="a_node15"><a xlink:href="tuple__traits_8hpp.html" target="_top" xlink:title="タプル関係の型特性">
<polygon fill="white" stroke="black" points="736,-56.5 736,-86.5 852,-86.5 852,-56.5 736,-56.5"/>
<text text-anchor="start" x="744" y="-74.5" font-family="Helvetica,sans-Serif" font-size="10.00">alps_cmn/type/tuple</text>
<text text-anchor="middle" x="794" y="-63.5" font-family="Helvetica,sans-Serif" font-size="10.00">_traits.hpp</text>
</a>
</g>
</g>
<!-- Node9&#45;&gt;Node15 -->
<g id="edge16" class="edge">
<title>Node9&#45;&gt;Node15</title>
<path fill="none" stroke="midnightblue" d="M586.74,-128.87C623.84,-118.78 686.11,-101.84 732.72,-89.16"/>
<polygon fill="midnightblue" stroke="midnightblue" points="733.69,-92.53 742.42,-86.53 731.85,-85.78 733.69,-92.53"/>
</g>
<!-- Node17 -->
<g id="node17" class="node">
<title>Node17</title>
<g id="a_node17"><a xlink:title=" ">
<polygon fill="white" stroke="#bfbfbf" points="908.5,-62 908.5,-81 977.5,-81 977.5,-62 908.5,-62"/>
<text text-anchor="middle" x="943" y="-69" font-family="Helvetica,sans-Serif" font-size="10.00">etl/string.h</text>
</a>
</g>
</g>
<!-- Node9&#45;&gt;Node17 -->
<g id="edge21" class="edge">
<title>Node9&#45;&gt;Node17</title>
<path fill="none" stroke="midnightblue" d="M605.11,-128.94C617.18,-126.94 630.05,-124.85 642,-123 753.81,-105.7 783.46,-111.12 894,-87 898.19,-86.09 902.55,-85 906.86,-83.84"/>
<polygon fill="midnightblue" stroke="midnightblue" points="908.07,-87.13 916.74,-81.04 906.16,-80.4 908.07,-87.13"/>
</g>
<!-- Node18 -->
<g id="node18" class="node">
<title>Node18</title>
<g id="a_node18"><a xlink:title=" ">
<polygon fill="white" stroke="#bfbfbf" points="398.5,-62 398.5,-81 469.5,-81 469.5,-62 398.5,-62"/>
<text text-anchor="middle" x="434" y="-69" font-family="Helvetica,sans-Serif" font-size="10.00">etl/vector.h</text>
</a>
</g>
</g>
<!-- Node9&#45;&gt;Node18 -->
<g id="edge22" class="edge">
<title>Node9&#45;&gt;Node18</title>
<path fill="none" stroke="midnightblue" d="M538.68,-128.73C518.18,-117.72 482.8,-98.71 458.91,-85.88"/>
<polygon fill="midnightblue" stroke="midnightblue" points="460.53,-82.78 450.06,-81.13 457.21,-88.94 460.53,-82.78"/>
</g>
<!-- Node15&#45;&gt;Node13 -->
<g id="edge18" class="edge">
<title>Node15&#45;&gt;Node13</title>
<path fill="none" stroke="midnightblue" d="M776.7,-56.4C765.55,-47.31 751.05,-35.49 739.64,-26.19"/>
<polygon fill="midnightblue" stroke="midnightblue" points="741.58,-23.26 731.62,-19.66 737.16,-28.69 741.58,-23.26"/>
</g>
<!-- Node15&#45;&gt;Node14 -->
<g id="edge19" class="edge">
<title>Node15&#45;&gt;Node14</title>
<path fill="none" stroke="midnightblue" d="M812.96,-56.4C825.42,-47.13 841.7,-35.03 854.31,-25.65"/>
<polygon fill="midnightblue" stroke="midnightblue" points="856.42,-28.43 862.36,-19.66 852.25,-22.82 856.42,-28.43"/>
</g>
<!-- Node16 -->
<g id="node16" class="node">
<title>Node16</title>
<g id="a_node16"><a xlink:title=" ">
<polygon fill="white" stroke="#bfbfbf" points="772,-0.5 772,-19.5 816,-19.5 816,-0.5 772,-0.5"/>
<text text-anchor="middle" x="794" y="-7.5" font-family="Helvetica,sans-Serif" font-size="10.00">string</text>
</a>
</g>
</g>
<!-- Node15&#45;&gt;Node16 -->
<g id="edge17" class="edge">
<title>Node15&#45;&gt;Node16</title>
<path fill="none" stroke="midnightblue" d="M794,-56.4C794,-48.47 794,-38.46 794,-29.86"/>
<polygon fill="midnightblue" stroke="midnightblue" points="797.5,-29.66 794,-19.66 790.5,-29.66 797.5,-29.66"/>
</g>
</g>
</svg>
