<?xml version="1.0" encoding="UTF-8" standalone="no"?>
<!DOCTYPE svg PUBLIC "-//W3C//DTD SVG 1.1//EN"
 "http://www.w3.org/Graphics/SVG/1.1/DTD/svg11.dtd">
<!-- Generated by graphviz version 2.43.0 (0)
 -->
<!-- Title: alps_common_lib/include/alps_cmn/communication/uart_packet_transceiver.hpp Pages: 1 -->
<svg width="924pt" height="170pt"
 viewBox="0.00 0.00 924.00 170.00" xmlns="http://www.w3.org/2000/svg" xmlns:xlink="http://www.w3.org/1999/xlink">
<g id="graph0" class="graph" transform="scale(1 1) rotate(0) translate(4 166)">
<title>alps_common_lib/include/alps_cmn/communication/uart_packet_transceiver.hpp</title>
<!-- Node1 -->
<g id="node1" class="node">
<title>Node1</title>
<g id="a_node1"><a xlink:title=" ">
<polygon fill="#999999" stroke="#666666" points="565,-162 407,-162 407,-121 565,-121 565,-162"/>
<text text-anchor="start" x="415" y="-150" font-family="Helvetica,sans-Serif" font-size="10.00">alps_common_lib/include</text>
<text text-anchor="start" x="415" y="-139" font-family="Helvetica,sans-Serif" font-size="10.00">/alps_cmn/communication</text>
<text text-anchor="middle" x="486" y="-128" font-family="Helvetica,sans-Serif" font-size="10.00">/uart_packet_transceiver.hpp</text>
</a>
</g>
</g>
<!-- Node2 -->
<g id="node2" class="node">
<title>Node2</title>
<g id="a_node2"><a xlink:href="cobs_8hpp.html" target="_top" xlink:title="COBS変換ライブラリ">
<polygon fill="white" stroke="#666666" points="234,-85 92,-85 92,-55 234,-55 234,-85"/>
<text text-anchor="start" x="100" y="-73" font-family="Helvetica,sans-Serif" font-size="10.00">alps_cmn/communication</text>
<text text-anchor="middle" x="163" y="-62" font-family="Helvetica,sans-Serif" font-size="10.00">/cobs.hpp</text>
</a>
</g>
</g>
<!-- Node1&#45;&gt;Node2 -->
<g id="edge1" class="edge">
<title>Node1&#45;&gt;Node2</title>
<path fill="none" stroke="#63b8ff" d="M406.99,-123.5C355.51,-112.42 288.75,-98.06 238.08,-87.15"/>
<polygon fill="#63b8ff" stroke="#63b8ff" points="238.68,-83.7 228.17,-85.02 237.21,-90.55 238.68,-83.7"/>
</g>
<!-- Node8 -->
<g id="node8" class="node">
<title>Node8</title>
<g id="a_node8"><a xlink:href="i__uart__io_8hpp.html" target="_top" xlink:title=" ">
<polygon fill="white" stroke="#666666" points="397,-85 255,-85 255,-55 397,-55 397,-85"/>
<text text-anchor="start" x="263" y="-73" font-family="Helvetica,sans-Serif" font-size="10.00">alps_cmn/communication</text>
<text text-anchor="middle" x="326" y="-62" font-family="Helvetica,sans-Serif" font-size="10.00">/i_uart_io.hpp</text>
</a>
</g>
</g>
<!-- Node1&#45;&gt;Node8 -->
<g id="edge7" class="edge">
<title>Node1&#45;&gt;Node8</title>
<path fill="none" stroke="#63b8ff" d="M441.01,-120.96C417.96,-110.94 390.08,-98.83 367.54,-89.04"/>
<polygon fill="#63b8ff" stroke="#63b8ff" points="368.81,-85.78 358.24,-85 366.02,-92.2 368.81,-85.78"/>
</g>
<!-- Node9 -->
<g id="node9" class="node">
<title>Node9</title>
<g id="a_node9"><a xlink:href="serializer_8hpp.html" target="_top" xlink:title="データとバイト列の変換ライブラリ">
<polygon fill="white" stroke="#666666" points="557,-85 415,-85 415,-55 557,-55 557,-85"/>
<text text-anchor="start" x="423" y="-73" font-family="Helvetica,sans-Serif" font-size="10.00">alps_cmn/communication</text>
<text text-anchor="middle" x="486" y="-62" font-family="Helvetica,sans-Serif" font-size="10.00">/serializer.hpp</text>
</a>
</g>
</g>
<!-- Node1&#45;&gt;Node9 -->
<g id="edge9" class="edge">
<title>Node1&#45;&gt;Node9</title>
<path fill="none" stroke="#63b8ff" d="M486,-120.77C486,-112.85 486,-103.63 486,-95.3"/>
<polygon fill="#63b8ff" stroke="#63b8ff" points="489.5,-95.04 486,-85.04 482.5,-95.04 489.5,-95.04"/>
</g>
<!-- Node17 -->
<g id="node17" class="node">
<title>Node17</title>
<g id="a_node17"><a xlink:title=" ">
<polygon fill="#e0e0e0" stroke="#999999" points="659,-79.5 575,-79.5 575,-60.5 659,-60.5 659,-79.5"/>
<text text-anchor="middle" x="617" y="-67.5" font-family="Helvetica,sans-Serif" font-size="10.00">etl/delegate.h</text>
</a>
</g>
</g>
<!-- Node1&#45;&gt;Node17 -->
<g id="edge19" class="edge">
<title>Node1&#45;&gt;Node17</title>
<path fill="none" stroke="#63b8ff" d="M522.84,-120.96C544.95,-109.22 572.49,-94.61 592.06,-84.23"/>
<polygon fill="#63b8ff" stroke="#63b8ff" points="593.78,-87.28 600.97,-79.5 590.5,-81.1 593.78,-87.28"/>
</g>
<!-- Node18 -->
<g id="node18" class="node">
<title>Node18</title>
<g id="a_node18"><a xlink:title=" ">
<polygon fill="#e0e0e0" stroke="#999999" points="795,-79.5 677,-79.5 677,-60.5 795,-60.5 795,-79.5"/>
<text text-anchor="middle" x="736" y="-67.5" font-family="Helvetica,sans-Serif" font-size="10.00">etl/unordered_map.h</text>
</a>
</g>
</g>
<!-- Node1&#45;&gt;Node18 -->
<g id="edge20" class="edge">
<title>Node1&#45;&gt;Node18</title>
<path fill="none" stroke="#63b8ff" d="M556.3,-120.96C601.19,-108.48 657.79,-92.74 695.35,-82.3"/>
<polygon fill="#63b8ff" stroke="#63b8ff" points="696.71,-85.55 705.41,-79.5 694.84,-78.81 696.71,-85.55"/>
</g>
<!-- Node3 -->
<g id="node3" class="node">
<title>Node3</title>
<g id="a_node3"><a xlink:title=" ">
<polygon fill="#e0e0e0" stroke="#999999" points="52,-19 0,-19 0,0 52,0 52,-19"/>
<text text-anchor="middle" x="26" y="-7" font-family="Helvetica,sans-Serif" font-size="10.00">cassert</text>
</a>
</g>
</g>
<!-- Node2&#45;&gt;Node3 -->
<g id="edge2" class="edge">
<title>Node2&#45;&gt;Node3</title>
<path fill="none" stroke="#63b8ff" d="M130.19,-54.99C107.53,-45.31 77.65,-32.56 55.7,-23.18"/>
<polygon fill="#63b8ff" stroke="#63b8ff" points="56.8,-19.85 46.23,-19.14 54.05,-26.29 56.8,-19.85"/>
</g>
<!-- Node4 -->
<g id="node4" class="node">
<title>Node4</title>
<g id="a_node4"><a xlink:title=" ">
<polygon fill="#e0e0e0" stroke="#999999" points="252,-19 202,-19 202,0 252,0 252,-19"/>
<text text-anchor="middle" x="227" y="-7" font-family="Helvetica,sans-Serif" font-size="10.00">cstdint</text>
</a>
</g>
</g>
<!-- Node2&#45;&gt;Node4 -->
<g id="edge3" class="edge">
<title>Node2&#45;&gt;Node4</title>
<path fill="none" stroke="#63b8ff" d="M178.49,-54.84C187.97,-46.17 200.11,-35.08 209.88,-26.15"/>
<polygon fill="#63b8ff" stroke="#63b8ff" points="212.39,-28.6 217.41,-19.27 207.67,-23.43 212.39,-28.6"/>
</g>
<!-- Node5 -->
<g id="node5" class="node">
<title>Node5</title>
<g id="a_node5"><a xlink:title=" ">
<polygon fill="#e0e0e0" stroke="#999999" points="116,-19 70,-19 70,0 116,0 116,-19"/>
<text text-anchor="middle" x="93" y="-7" font-family="Helvetica,sans-Serif" font-size="10.00">cstdio</text>
</a>
</g>
</g>
<!-- Node2&#45;&gt;Node5 -->
<g id="edge4" class="edge">
<title>Node2&#45;&gt;Node5</title>
<path fill="none" stroke="#63b8ff" d="M146.05,-54.84C135.58,-46.09 122.14,-34.85 111.41,-25.88"/>
<polygon fill="#63b8ff" stroke="#63b8ff" points="113.41,-22.99 103.49,-19.27 108.92,-28.36 113.41,-22.99"/>
</g>
<!-- Node6 -->
<g id="node6" class="node">
<title>Node6</title>
<g id="a_node6"><a xlink:title=" ">
<polygon fill="#e0e0e0" stroke="#999999" points="183.5,-19 134.5,-19 134.5,0 183.5,0 183.5,-19"/>
<text text-anchor="middle" x="159" y="-7" font-family="Helvetica,sans-Serif" font-size="10.00">cstdlib</text>
</a>
</g>
</g>
<!-- Node2&#45;&gt;Node6 -->
<g id="edge5" class="edge">
<title>Node2&#45;&gt;Node6</title>
<path fill="none" stroke="#63b8ff" d="M162.03,-54.84C161.51,-47.21 160.86,-37.7 160.3,-29.45"/>
<polygon fill="#63b8ff" stroke="#63b8ff" points="163.77,-29 159.6,-19.27 156.79,-29.48 163.77,-29"/>
</g>
<!-- Node7 -->
<g id="node7" class="node">
<title>Node7</title>
<g id="a_node7"><a xlink:title=" ">
<polygon fill="#e0e0e0" stroke="#999999" points="382,-19 270,-19 270,0 382,0 382,-19"/>
<text text-anchor="middle" x="326" y="-7" font-family="Helvetica,sans-Serif" font-size="10.00">etl/circular_buffer.h</text>
</a>
</g>
</g>
<!-- Node2&#45;&gt;Node7 -->
<g id="edge6" class="edge">
<title>Node2&#45;&gt;Node7</title>
<path fill="none" stroke="#63b8ff" d="M202.04,-54.99C229.6,-45.1 266.15,-31.98 292.41,-22.56"/>
<polygon fill="#63b8ff" stroke="#63b8ff" points="293.7,-25.81 301.93,-19.14 291.33,-19.22 293.7,-25.81"/>
</g>
<!-- Node8&#45;&gt;Node7 -->
<g id="edge8" class="edge">
<title>Node8&#45;&gt;Node7</title>
<path fill="none" stroke="#63b8ff" d="M326,-54.84C326,-47.21 326,-37.7 326,-29.45"/>
<polygon fill="#63b8ff" stroke="#63b8ff" points="329.5,-29.27 326,-19.27 322.5,-29.27 329.5,-29.27"/>
</g>
<!-- Node9&#45;&gt;Node4 -->
<g id="edge12" class="edge">
<title>Node9&#45;&gt;Node4</title>
<path fill="none" stroke="#63b8ff" d="M420.42,-54.9C377.85,-45.64 320.93,-33.05 262.08,-19.21"/>
<polygon fill="#63b8ff" stroke="#63b8ff" points="262.77,-15.78 252.23,-16.89 261.16,-22.59 262.77,-15.78"/>
</g>
<!-- Node9&#45;&gt;Node7 -->
<g id="edge16" class="edge">
<title>Node9&#45;&gt;Node7</title>
<path fill="none" stroke="#63b8ff" d="M447.68,-54.99C420.74,-45.14 385.07,-32.1 359.31,-22.68"/>
<polygon fill="#63b8ff" stroke="#63b8ff" points="360.22,-19.29 349.63,-19.14 357.82,-25.86 360.22,-19.29"/>
</g>
<!-- Node10 -->
<g id="node10" class="node">
<title>Node10</title>
<g id="a_node10"><a xlink:title=" ">
<polygon fill="#e0e0e0" stroke="#999999" points="916,-19 852,-19 852,0 916,0 916,-19"/>
<text text-anchor="middle" x="884" y="-7" font-family="Helvetica,sans-Serif" font-size="10.00">algorithm</text>
</a>
</g>
</g>
<!-- Node9&#45;&gt;Node10 -->
<g id="edge10" class="edge">
<title>Node9&#45;&gt;Node10</title>
<path fill="none" stroke="#63b8ff" d="M557.07,-56.39C560.09,-55.91 563.07,-55.45 566,-55 685.49,-36.79 718.83,-39.46 841.64,-19.12"/>
<polygon fill="#63b8ff" stroke="#63b8ff" points="842.53,-22.51 851.81,-17.41 841.37,-15.61 842.53,-22.51"/>
</g>
<!-- Node11 -->
<g id="node11" class="node">
<title>Node11</title>
<g id="a_node11"><a xlink:title=" ">
<polygon fill="#e0e0e0" stroke="#999999" points="442,-19 400,-19 400,0 442,0 442,-19"/>
<text text-anchor="middle" x="421" y="-7" font-family="Helvetica,sans-Serif" font-size="10.00">array</text>
</a>
</g>
</g>
<!-- Node9&#45;&gt;Node11 -->
<g id="edge11" class="edge">
<title>Node9&#45;&gt;Node11</title>
<path fill="none" stroke="#63b8ff" d="M470.27,-54.84C460.64,-46.17 448.31,-35.08 438.39,-26.15"/>
<polygon fill="#63b8ff" stroke="#63b8ff" points="440.51,-23.35 430.74,-19.27 435.83,-28.56 440.51,-23.35"/>
</g>
<!-- Node12 -->
<g id="node12" class="node">
<title>Node12</title>
<g id="a_node12"><a xlink:title=" ">
<polygon fill="#e0e0e0" stroke="#999999" points="510,-19 460,-19 460,0 510,0 510,-19"/>
<text text-anchor="middle" x="485" y="-7" font-family="Helvetica,sans-Serif" font-size="10.00">cstring</text>
</a>
</g>
</g>
<!-- Node9&#45;&gt;Node12 -->
<g id="edge13" class="edge">
<title>Node9&#45;&gt;Node12</title>
<path fill="none" stroke="#63b8ff" d="M485.76,-54.84C485.63,-47.21 485.47,-37.7 485.32,-29.45"/>
<polygon fill="#63b8ff" stroke="#63b8ff" points="488.82,-29.2 485.15,-19.27 481.82,-29.32 488.82,-29.2"/>
</g>
<!-- Node13 -->
<g id="node13" class="node">
<title>Node13</title>
<g id="a_node13"><a xlink:title=" ">
<polygon fill="#e0e0e0" stroke="#999999" points="569.5,-19 528.5,-19 528.5,0 569.5,0 569.5,-19"/>
<text text-anchor="middle" x="549" y="-7" font-family="Helvetica,sans-Serif" font-size="10.00">tuple</text>
</a>
</g>
</g>
<!-- Node9&#45;&gt;Node13 -->
<g id="edge14" class="edge">
<title>Node9&#45;&gt;Node13</title>
<path fill="none" stroke="#63b8ff" d="M501.25,-54.84C510.58,-46.17 522.53,-35.08 532.15,-26.15"/>
<polygon fill="#63b8ff" stroke="#63b8ff" points="534.61,-28.64 539.56,-19.27 529.85,-23.51 534.61,-28.64"/>
</g>
<!-- Node14 -->
<g id="node14" class="node">
<title>Node14</title>
<g id="a_node14"><a xlink:title=" ">
<polygon fill="#e0e0e0" stroke="#999999" points="656.5,-19 587.5,-19 587.5,0 656.5,0 656.5,-19"/>
<text text-anchor="middle" x="622" y="-7" font-family="Helvetica,sans-Serif" font-size="10.00">type_traits</text>
</a>
</g>
</g>
<!-- Node9&#45;&gt;Node14 -->
<g id="edge15" class="edge">
<title>Node9&#45;&gt;Node14</title>
<path fill="none" stroke="#63b8ff" d="M518.58,-54.99C541.06,-45.31 570.72,-32.56 592.51,-23.18"/>
<polygon fill="#63b8ff" stroke="#63b8ff" points="594.11,-26.31 601.92,-19.14 591.35,-19.88 594.11,-26.31"/>
</g>
<!-- Node15 -->
<g id="node15" class="node">
<title>Node15</title>
<g id="a_node15"><a xlink:title=" ">
<polygon fill="#e0e0e0" stroke="#999999" points="743.5,-19 674.5,-19 674.5,0 743.5,0 743.5,-19"/>
<text text-anchor="middle" x="709" y="-7" font-family="Helvetica,sans-Serif" font-size="10.00">etl/string.h</text>
</a>
</g>
</g>
<!-- Node9&#45;&gt;Node15 -->
<g id="edge17" class="edge">
<title>Node9&#45;&gt;Node15</title>
<path fill="none" stroke="#63b8ff" d="M539.41,-54.99C578.4,-44.76 630.53,-31.09 666.65,-21.61"/>
<polygon fill="#63b8ff" stroke="#63b8ff" points="667.61,-24.98 676.39,-19.05 665.83,-18.21 667.61,-24.98"/>
</g>
<!-- Node16 -->
<g id="node16" class="node">
<title>Node16</title>
<g id="a_node16"><a xlink:title=" ">
<polygon fill="#e0e0e0" stroke="#999999" points="834,-19 762,-19 762,0 834,0 834,-19"/>
<text text-anchor="middle" x="798" y="-7" font-family="Helvetica,sans-Serif" font-size="10.00">etl/vector.h</text>
</a>
</g>
</g>
<!-- Node9&#45;&gt;Node16 -->
<g id="edge18" class="edge">
<title>Node9&#45;&gt;Node16</title>
<path fill="none" stroke="#63b8ff" d="M557.12,-55.71C608.5,-46.11 679.85,-32.75 751.54,-19.27"/>
<polygon fill="#63b8ff" stroke="#63b8ff" points="752.47,-22.66 761.65,-17.37 751.18,-15.78 752.47,-22.66"/>
</g>
</g>
</svg>
