<?xml version="1.0" encoding="UTF-8" standalone="no"?>
<!DOCTYPE svg PUBLIC "-//W3C//DTD SVG 1.1//EN"
 "http://www.w3.org/Graphics/SVG/1.1/DTD/svg11.dtd">
<!-- Generated by graphviz version 2.43.0 (0)
 -->
<!-- Title: alps_core/lib_internal/alps_common_lib/include/alps_cmn/communication/uart_packet_transceiver.hpp Pages: 1 -->
<svg width="1072pt" height="247pt"
 viewBox="0.00 0.00 1071.50 247.00" xmlns="http://www.w3.org/2000/svg" xmlns:xlink="http://www.w3.org/1999/xlink">
<g id="graph0" class="graph" transform="scale(1 1) rotate(0) translate(4 243)">
<title>alps_core/lib_internal/alps_common_lib/include/alps_cmn/communication/uart_packet_transceiver.hpp</title>
<!-- Node1 -->
<g id="Node000001" class="node">
<title>Node1</title>
<g id="a_Node000001"><a xlink:title=" ">
<polygon fill="#999999" stroke="#666666" points="667.5,-239 510.5,-239 510.5,-187 667.5,-187 667.5,-239"/>
<text text-anchor="start" x="518.5" y="-227" font-family="Helvetica,sans-Serif" font-size="10.00">alps_core/lib_internal</text>
<text text-anchor="start" x="518.5" y="-216" font-family="Helvetica,sans-Serif" font-size="10.00">/alps_common_lib/include</text>
<text text-anchor="start" x="518.5" y="-205" font-family="Helvetica,sans-Serif" font-size="10.00">/alps_cmn/communication</text>
<text text-anchor="middle" x="589" y="-194" font-family="Helvetica,sans-Serif" font-size="10.00">/uart_packet_transceiver.hpp</text>
</a>
</g>
</g>
<!-- Node2 -->
<g id="Node000002" class="node">
<title>Node2</title>
<g id="a_Node000002"><a xlink:href="cobs_8hpp.html" target="_top" xlink:title="COBS変換ライブラリ">
<polygon fill="white" stroke="#666666" points="264,-151 122,-151 122,-121 264,-121 264,-151"/>
<text text-anchor="start" x="130" y="-139" font-family="Helvetica,sans-Serif" font-size="10.00">alps_cmn/communication</text>
<text text-anchor="middle" x="193" y="-128" font-family="Helvetica,sans-Serif" font-size="10.00">/cobs.hpp</text>
</a>
</g>
</g>
<!-- Node1&#45;&gt;Node2 -->
<g id="edge1_Node000001_Node000002" class="edge">
<title>Node1&#45;&gt;Node2</title>
<g id="a_edge1_Node000001_Node000002"><a xlink:title=" ">
<path fill="none" stroke="#63b8ff" d="M510.29,-197.09C441.92,-184.14 343.31,-165.47 274.22,-152.38"/>
<polygon fill="#63b8ff" stroke="#63b8ff" points="274.72,-148.92 264.25,-150.49 273.42,-155.79 274.72,-148.92"/>
</a>
</g>
</g>
<!-- Node8 -->
<g id="Node000008" class="node">
<title>Node8</title>
<g id="a_Node000008"><a xlink:href="i__uart__io_8hpp.html" target="_top" xlink:title=" ">
<polygon fill="white" stroke="#666666" points="476,-151 334,-151 334,-121 476,-121 476,-151"/>
<text text-anchor="start" x="342" y="-139" font-family="Helvetica,sans-Serif" font-size="10.00">alps_cmn/communication</text>
<text text-anchor="middle" x="405" y="-128" font-family="Helvetica,sans-Serif" font-size="10.00">/i_uart_io.hpp</text>
</a>
</g>
</g>
<!-- Node1&#45;&gt;Node8 -->
<g id="edge7_Node000001_Node000008" class="edge">
<title>Node1&#45;&gt;Node8</title>
<g id="a_edge7_Node000001_Node000008"><a xlink:title=" ">
<path fill="none" stroke="#63b8ff" d="M527.47,-186.92C501.67,-176.4 472.27,-164.42 448.73,-154.83"/>
<polygon fill="#63b8ff" stroke="#63b8ff" points="449.95,-151.54 439.37,-151.01 447.31,-158.02 449.95,-151.54"/>
</a>
</g>
</g>
<!-- Node9 -->
<g id="Node000009" class="node">
<title>Node9</title>
<g id="a_Node000009"><a xlink:href="serializer_8hpp.html" target="_top" xlink:title="データとバイト列の変換ライブラリ">
<polygon fill="white" stroke="#666666" points="667,-145.5 511,-145.5 511,-126.5 667,-126.5 667,-145.5"/>
<text text-anchor="middle" x="589" y="-133.5" font-family="Helvetica,sans-Serif" font-size="10.00">alps_cmn/type/serializer.hpp</text>
</a>
</g>
</g>
<!-- Node1&#45;&gt;Node9 -->
<g id="edge9_Node000001_Node000009" class="edge">
<title>Node1&#45;&gt;Node9</title>
<g id="a_edge9_Node000001_Node000009"><a xlink:title=" ">
<path fill="none" stroke="#63b8ff" d="M589,-186.61C589,-176.58 589,-165.25 589,-155.96"/>
<polygon fill="#63b8ff" stroke="#63b8ff" points="592.5,-155.85 589,-145.85 585.5,-155.85 592.5,-155.85"/>
</a>
</g>
</g>
<!-- Node20 -->
<g id="Node000020" class="node">
<title>Node20</title>
<g id="a_Node000020"><a xlink:title=" ">
<polygon fill="#e0e0e0" stroke="#999999" points="769,-145.5 685,-145.5 685,-126.5 769,-126.5 769,-145.5"/>
<text text-anchor="middle" x="727" y="-133.5" font-family="Helvetica,sans-Serif" font-size="10.00">etl/delegate.h</text>
</a>
</g>
</g>
<!-- Node1&#45;&gt;Node20 -->
<g id="edge24_Node000001_Node000020" class="edge">
<title>Node1&#45;&gt;Node20</title>
<g id="a_edge24_Node000001_Node000020"><a xlink:title=" ">
<path fill="none" stroke="#63b8ff" d="M635.34,-186.82C657.74,-174.64 683.73,-160.52 702.3,-150.42"/>
<polygon fill="#63b8ff" stroke="#63b8ff" points="704.16,-153.39 711.28,-145.54 700.82,-147.24 704.16,-153.39"/>
</a>
</g>
</g>
<!-- Node21 -->
<g id="Node000021" class="node">
<title>Node21</title>
<g id="a_Node000021"><a xlink:title=" ">
<polygon fill="#e0e0e0" stroke="#999999" points="905,-145.5 787,-145.5 787,-126.5 905,-126.5 905,-145.5"/>
<text text-anchor="middle" x="846" y="-133.5" font-family="Helvetica,sans-Serif" font-size="10.00">etl/unordered_map.h</text>
</a>
</g>
</g>
<!-- Node1&#45;&gt;Node21 -->
<g id="edge25_Node000001_Node000021" class="edge">
<title>Node1&#45;&gt;Node21</title>
<g id="a_edge25_Node000001_Node000021"><a xlink:title=" ">
<path fill="none" stroke="#63b8ff" d="M667.5,-189.09C713.65,-175.62 769.99,-159.18 806.87,-148.42"/>
<polygon fill="#63b8ff" stroke="#63b8ff" points="808.11,-151.7 816.73,-145.54 806.15,-144.98 808.11,-151.7"/>
</a>
</g>
</g>
<!-- Node3 -->
<g id="Node000003" class="node">
<title>Node3</title>
<g id="a_Node000003"><a xlink:title=" ">
<polygon fill="#e0e0e0" stroke="#999999" points="52,-79.5 0,-79.5 0,-60.5 52,-60.5 52,-79.5"/>
<text text-anchor="middle" x="26" y="-67.5" font-family="Helvetica,sans-Serif" font-size="10.00">cassert</text>
</a>
</g>
</g>
<!-- Node2&#45;&gt;Node3 -->
<g id="edge2_Node000002_Node000003" class="edge">
<title>Node2&#45;&gt;Node3</title>
<g id="a_edge2_Node000002_Node000003"><a xlink:title=" ">
<path fill="none" stroke="#63b8ff" d="M155.38,-120.96C128.93,-111.04 92.74,-97.36 61,-85 59.59,-84.45 58.15,-83.89 56.69,-83.31"/>
<polygon fill="#63b8ff" stroke="#63b8ff" points="57.66,-79.93 47.07,-79.5 55.08,-86.44 57.66,-79.93"/>
</a>
</g>
</g>
<!-- Node4 -->
<g id="Node000004" class="node">
<title>Node4</title>
<g id="a_Node000004"><a xlink:title=" ">
<polygon fill="#e0e0e0" stroke="#999999" points="252,-79.5 202,-79.5 202,-60.5 252,-60.5 252,-79.5"/>
<text text-anchor="middle" x="227" y="-67.5" font-family="Helvetica,sans-Serif" font-size="10.00">cstdint</text>
</a>
</g>
</g>
<!-- Node2&#45;&gt;Node4 -->
<g id="edge3_Node000002_Node000004" class="edge">
<title>Node2&#45;&gt;Node4</title>
<g id="a_edge3_Node000002_Node000004"><a xlink:title=" ">
<path fill="none" stroke="#63b8ff" d="M200.55,-120.8C205.53,-111.41 212.12,-99.02 217.47,-88.95"/>
<polygon fill="#63b8ff" stroke="#63b8ff" points="220.7,-90.32 222.3,-79.84 214.52,-87.03 220.7,-90.32"/>
</a>
</g>
</g>
<!-- Node5 -->
<g id="Node000005" class="node">
<title>Node5</title>
<g id="a_Node000005"><a xlink:title=" ">
<polygon fill="#e0e0e0" stroke="#999999" points="116,-79.5 70,-79.5 70,-60.5 116,-60.5 116,-79.5"/>
<text text-anchor="middle" x="93" y="-67.5" font-family="Helvetica,sans-Serif" font-size="10.00">cstdio</text>
</a>
</g>
</g>
<!-- Node2&#45;&gt;Node5 -->
<g id="edge4_Node000002_Node000005" class="edge">
<title>Node2&#45;&gt;Node5</title>
<g id="a_edge4_Node000002_Node000005"><a xlink:title=" ">
<path fill="none" stroke="#63b8ff" d="M170.81,-120.8C154.2,-110.17 131.6,-95.7 115.03,-85.1"/>
<polygon fill="#63b8ff" stroke="#63b8ff" points="116.84,-82.1 106.53,-79.66 113.06,-88 116.84,-82.1"/>
</a>
</g>
</g>
<!-- Node6 -->
<g id="Node000006" class="node">
<title>Node6</title>
<g id="a_Node000006"><a xlink:title=" ">
<polygon fill="#e0e0e0" stroke="#999999" points="183.5,-79.5 134.5,-79.5 134.5,-60.5 183.5,-60.5 183.5,-79.5"/>
<text text-anchor="middle" x="159" y="-67.5" font-family="Helvetica,sans-Serif" font-size="10.00">cstdlib</text>
</a>
</g>
</g>
<!-- Node2&#45;&gt;Node6 -->
<g id="edge5_Node000002_Node000006" class="edge">
<title>Node2&#45;&gt;Node6</title>
<g id="a_edge5_Node000002_Node000006"><a xlink:title=" ">
<path fill="none" stroke="#63b8ff" d="M185.45,-120.8C180.47,-111.41 173.88,-99.02 168.53,-88.95"/>
<polygon fill="#63b8ff" stroke="#63b8ff" points="171.48,-87.03 163.7,-79.84 165.3,-90.32 171.48,-87.03"/>
</a>
</g>
</g>
<!-- Node7 -->
<g id="Node000007" class="node">
<title>Node7</title>
<g id="a_Node000007"><a xlink:title=" ">
<polygon fill="#e0e0e0" stroke="#999999" points="380,-79.5 270,-79.5 270,-60.5 380,-60.5 380,-79.5"/>
<text text-anchor="middle" x="325" y="-67.5" font-family="Helvetica,sans-Serif" font-size="10.00">etl/circular_buffer.h</text>
</a>
</g>
</g>
<!-- Node2&#45;&gt;Node7 -->
<g id="edge6_Node000002_Node000007" class="edge">
<title>Node2&#45;&gt;Node7</title>
<g id="a_edge6_Node000002_Node000007"><a xlink:title=" ">
<path fill="none" stroke="#63b8ff" d="M221.97,-120.95C244.71,-109.93 276.12,-94.7 298.27,-83.96"/>
<polygon fill="#63b8ff" stroke="#63b8ff" points="299.96,-87.03 307.43,-79.52 296.91,-80.73 299.96,-87.03"/>
</a>
</g>
</g>
<!-- Node8&#45;&gt;Node7 -->
<g id="edge8_Node000008_Node000007" class="edge">
<title>Node8&#45;&gt;Node7</title>
<g id="a_edge8_Node000008_Node000007"><a xlink:title=" ">
<path fill="none" stroke="#63b8ff" d="M387.25,-120.8C374.41,-110.53 357.08,-96.67 343.97,-86.18"/>
<polygon fill="#63b8ff" stroke="#63b8ff" points="346.05,-83.36 336.06,-79.84 341.68,-88.82 346.05,-83.36"/>
</a>
</g>
</g>
<!-- Node9&#45;&gt;Node4 -->
<g id="edge12_Node000009_Node000004" class="edge">
<title>Node9&#45;&gt;Node4</title>
<g id="a_edge12_Node000009_Node000004"><a xlink:title=" ">
<path fill="none" stroke="#63b8ff" d="M527.87,-126.49C440.1,-114.14 286.15,-91.99 261,-85 259.06,-84.46 257.09,-83.84 255.11,-83.17"/>
<polygon fill="#63b8ff" stroke="#63b8ff" points="256.02,-79.77 245.42,-79.52 253.55,-86.33 256.02,-79.77"/>
</a>
</g>
</g>
<!-- Node9&#45;&gt;Node7 -->
<g id="edge21_Node000009_Node000007" class="edge">
<title>Node9&#45;&gt;Node7</title>
<g id="a_edge21_Node000009_Node000007"><a xlink:title=" ">
<path fill="none" stroke="#63b8ff" d="M553.67,-126.44C506.25,-114.94 421.99,-94.51 370.06,-81.92"/>
<polygon fill="#63b8ff" stroke="#63b8ff" points="370.66,-78.47 360.12,-79.51 369.01,-85.27 370.66,-78.47"/>
</a>
</g>
</g>
<!-- Node10 -->
<g id="Node000010" class="node">
<title>Node10</title>
<g id="a_Node000010"><a xlink:title=" ">
<polygon fill="#e0e0e0" stroke="#999999" points="707,-79.5 643,-79.5 643,-60.5 707,-60.5 707,-79.5"/>
<text text-anchor="middle" x="675" y="-67.5" font-family="Helvetica,sans-Serif" font-size="10.00">algorithm</text>
</a>
</g>
</g>
<!-- Node9&#45;&gt;Node10 -->
<g id="edge10_Node000009_Node000010" class="edge">
<title>Node9&#45;&gt;Node10</title>
<g id="a_edge10_Node000009_Node000010"><a xlink:title=" ">
<path fill="none" stroke="#63b8ff" d="M600.6,-126.37C614.58,-115.97 638.29,-98.32 655.18,-85.75"/>
<polygon fill="#63b8ff" stroke="#63b8ff" points="657.38,-88.48 663.31,-79.7 653.2,-82.86 657.38,-88.48"/>
</a>
</g>
</g>
<!-- Node11 -->
<g id="Node000011" class="node">
<title>Node11</title>
<g id="a_Node000011"><a xlink:title=" ">
<polygon fill="#e0e0e0" stroke="#999999" points="767,-79.5 725,-79.5 725,-60.5 767,-60.5 767,-79.5"/>
<text text-anchor="middle" x="746" y="-67.5" font-family="Helvetica,sans-Serif" font-size="10.00">array</text>
</a>
</g>
</g>
<!-- Node9&#45;&gt;Node11 -->
<g id="edge11_Node000009_Node000011" class="edge">
<title>Node9&#45;&gt;Node11</title>
<g id="a_edge11_Node000009_Node000011"><a xlink:title=" ">
<path fill="none" stroke="#63b8ff" d="M612.12,-126.39C637.7,-116.74 680.08,-100.44 716,-85 716.85,-84.63 717.72,-84.26 718.6,-83.87"/>
<polygon fill="#63b8ff" stroke="#63b8ff" points="720.33,-86.93 728,-79.62 717.44,-80.55 720.33,-86.93"/>
</a>
</g>
</g>
<!-- Node12 -->
<g id="Node000012" class="node">
<title>Node12</title>
<g id="a_Node000012"><a xlink:title=" ">
<polygon fill="#e0e0e0" stroke="#999999" points="835,-79.5 785,-79.5 785,-60.5 835,-60.5 835,-79.5"/>
<text text-anchor="middle" x="810" y="-67.5" font-family="Helvetica,sans-Serif" font-size="10.00">cstring</text>
</a>
</g>
</g>
<!-- Node9&#45;&gt;Node12 -->
<g id="edge13_Node000009_Node000012" class="edge">
<title>Node9&#45;&gt;Node12</title>
<g id="a_edge13_Node000009_Node000012"><a xlink:title=" ">
<path fill="none" stroke="#63b8ff" d="M626.68,-126.44C664.75,-117.44 725.06,-102.22 776,-85 777.62,-84.45 779.28,-83.87 780.94,-83.25"/>
<polygon fill="#63b8ff" stroke="#63b8ff" points="782.34,-86.47 790.39,-79.58 779.8,-79.94 782.34,-86.47"/>
</a>
</g>
</g>
<!-- Node13 -->
<g id="Node000013" class="node">
<title>Node13</title>
<g id="a_Node000013"><a xlink:title=" ">
<polygon fill="#e0e0e0" stroke="#999999" points="896.5,-19 855.5,-19 855.5,0 896.5,0 896.5,-19"/>
<text text-anchor="middle" x="876" y="-7" font-family="Helvetica,sans-Serif" font-size="10.00">tuple</text>
</a>
</g>
</g>
<!-- Node9&#45;&gt;Node13 -->
<g id="edge14_Node000009_Node000013" class="edge">
<title>Node9&#45;&gt;Node13</title>
<g id="a_edge14_Node000009_Node000013"><a xlink:title=" ">
<path fill="none" stroke="#63b8ff" d="M638.6,-126.5C710.5,-114 836.02,-91.45 844,-85 861.16,-71.14 869.3,-46.34 873.04,-29.18"/>
<polygon fill="#63b8ff" stroke="#63b8ff" points="876.5,-29.68 874.9,-19.2 869.62,-28.39 876.5,-29.68"/>
</a>
</g>
</g>
<!-- Node14 -->
<g id="Node000014" class="node">
<title>Node14</title>
<g id="a_Node000014"><a xlink:title=" ">
<polygon fill="#e0e0e0" stroke="#999999" points="1063.5,-19 994.5,-19 994.5,0 1063.5,0 1063.5,-19"/>
<text text-anchor="middle" x="1029" y="-7" font-family="Helvetica,sans-Serif" font-size="10.00">type_traits</text>
</a>
</g>
</g>
<!-- Node9&#45;&gt;Node14 -->
<g id="edge15_Node000009_Node000014" class="edge">
<title>Node9&#45;&gt;Node14</title>
<g id="a_edge15_Node000009_Node000014"><a xlink:title=" ">
<path fill="none" stroke="#63b8ff" d="M639.08,-126.47C651.15,-124.54 664.02,-122.6 676,-121 751.31,-110.96 960.5,-136.89 1016,-85 1030.88,-71.09 1032.5,-46.66 1031.46,-29.59"/>
<polygon fill="#63b8ff" stroke="#63b8ff" points="1034.9,-28.77 1030.45,-19.16 1027.93,-29.45 1034.9,-28.77"/>
</a>
</g>
</g>
<!-- Node15 -->
<g id="Node000015" class="node">
<title>Node15</title>
<g id="a_Node000015"><a xlink:title=" ">
<polygon fill="#e0e0e0" stroke="#999999" points="448,-79.5 398,-79.5 398,-60.5 448,-60.5 448,-79.5"/>
<text text-anchor="middle" x="423" y="-67.5" font-family="Helvetica,sans-Serif" font-size="10.00">chrono</text>
</a>
</g>
</g>
<!-- Node9&#45;&gt;Node15 -->
<g id="edge16_Node000009_Node000015" class="edge">
<title>Node9&#45;&gt;Node15</title>
<g id="a_edge16_Node000009_Node000015"><a xlink:title=" ">
<path fill="none" stroke="#63b8ff" d="M565.55,-126.35C539.1,-116.54 494.83,-99.95 457,-85 455.63,-84.46 454.22,-83.9 452.81,-83.33"/>
<polygon fill="#63b8ff" stroke="#63b8ff" points="454.04,-80.05 443.46,-79.53 451.41,-86.54 454.04,-80.05"/>
</a>
</g>
</g>
<!-- Node16 -->
<g id="Node000016" class="node">
<title>Node16</title>
<g id="a_Node000016"><a xlink:href="tuple__traits_8hpp.html" target="_top" xlink:title="タプル関係の型特性">
<polygon fill="white" stroke="#666666" points="1007,-85 891,-85 891,-55 1007,-55 1007,-85"/>
<text text-anchor="start" x="899" y="-73" font-family="Helvetica,sans-Serif" font-size="10.00">alps_cmn/type/tuple</text>
<text text-anchor="middle" x="949" y="-62" font-family="Helvetica,sans-Serif" font-size="10.00">_traits.hpp</text>
</a>
</g>
</g>
<!-- Node9&#45;&gt;Node16 -->
<g id="edge17_Node000009_Node000016" class="edge">
<title>Node9&#45;&gt;Node16</title>
<g id="a_edge17_Node000009_Node000016"><a xlink:title=" ">
<path fill="none" stroke="#63b8ff" d="M640.04,-126.46C697.65,-116.74 794.15,-100.25 877,-85 878.27,-84.77 879.55,-84.53 880.84,-84.29"/>
<polygon fill="#63b8ff" stroke="#63b8ff" points="881.68,-87.69 890.86,-82.41 880.39,-80.81 881.68,-87.69"/>
</a>
</g>
</g>
<!-- Node18 -->
<g id="Node000018" class="node">
<title>Node18</title>
<g id="a_Node000018"><a xlink:title=" ">
<polygon fill="#e0e0e0" stroke="#999999" points="535.5,-79.5 466.5,-79.5 466.5,-60.5 535.5,-60.5 535.5,-79.5"/>
<text text-anchor="middle" x="501" y="-67.5" font-family="Helvetica,sans-Serif" font-size="10.00">etl/string.h</text>
</a>
</g>
</g>
<!-- Node9&#45;&gt;Node18 -->
<g id="edge22_Node000009_Node000018" class="edge">
<title>Node9&#45;&gt;Node18</title>
<g id="a_edge22_Node000009_Node000018"><a xlink:title=" ">
<path fill="none" stroke="#63b8ff" d="M577.13,-126.37C562.83,-115.97 538.57,-98.32 521.28,-85.75"/>
<polygon fill="#63b8ff" stroke="#63b8ff" points="523.11,-82.75 512.96,-79.7 518.99,-88.41 523.11,-82.75"/>
</a>
</g>
</g>
<!-- Node19 -->
<g id="Node000019" class="node">
<title>Node19</title>
<g id="a_Node000019"><a xlink:title=" ">
<polygon fill="#e0e0e0" stroke="#999999" points="624.5,-79.5 553.5,-79.5 553.5,-60.5 624.5,-60.5 624.5,-79.5"/>
<text text-anchor="middle" x="589" y="-67.5" font-family="Helvetica,sans-Serif" font-size="10.00">etl/vector.h</text>
</a>
</g>
</g>
<!-- Node9&#45;&gt;Node19 -->
<g id="edge23_Node000009_Node000019" class="edge">
<title>Node9&#45;&gt;Node19</title>
<g id="a_edge23_Node000009_Node000019"><a xlink:title=" ">
<path fill="none" stroke="#63b8ff" d="M589,-126.37C589,-117.16 589,-102.29 589,-90.27"/>
<polygon fill="#63b8ff" stroke="#63b8ff" points="592.5,-89.91 589,-79.91 585.5,-89.91 592.5,-89.91"/>
</a>
</g>
</g>
<!-- Node16&#45;&gt;Node13 -->
<g id="edge19_Node000016_Node000013" class="edge">
<title>Node16&#45;&gt;Node13</title>
<g id="a_edge19_Node000016_Node000013"><a xlink:title=" ">
<path fill="none" stroke="#63b8ff" d="M931.33,-54.84C920.3,-46 906.11,-34.63 894.87,-25.62"/>
<polygon fill="#63b8ff" stroke="#63b8ff" points="896.93,-22.79 886.94,-19.27 892.55,-28.25 896.93,-22.79"/>
</a>
</g>
</g>
<!-- Node16&#45;&gt;Node14 -->
<g id="edge20_Node000016_Node000014" class="edge">
<title>Node16&#45;&gt;Node14</title>
<g id="a_edge20_Node000016_Node000014"><a xlink:title=" ">
<path fill="none" stroke="#63b8ff" d="M968.37,-54.84C980.57,-45.91 996.31,-34.41 1008.69,-25.35"/>
<polygon fill="#63b8ff" stroke="#63b8ff" points="1011.01,-27.99 1017.01,-19.27 1006.87,-22.34 1011.01,-27.99"/>
</a>
</g>
</g>
<!-- Node17 -->
<g id="Node000017" class="node">
<title>Node17</title>
<g id="a_Node000017"><a xlink:title=" ">
<polygon fill="#e0e0e0" stroke="#999999" points="971,-19 927,-19 927,0 971,0 971,-19"/>
<text text-anchor="middle" x="949" y="-7" font-family="Helvetica,sans-Serif" font-size="10.00">string</text>
</a>
</g>
</g>
<!-- Node16&#45;&gt;Node17 -->
<g id="edge18_Node000016_Node000017" class="edge">
<title>Node16&#45;&gt;Node17</title>
<g id="a_edge18_Node000016_Node000017"><a xlink:title=" ">
<path fill="none" stroke="#63b8ff" d="M949,-54.84C949,-47.21 949,-37.7 949,-29.45"/>
<polygon fill="#63b8ff" stroke="#63b8ff" points="952.5,-29.27 949,-19.27 945.5,-29.27 952.5,-29.27"/>
</a>
</g>
</g>
</g>
</svg>
