<?xml version="1.0" encoding="UTF-8" standalone="no"?>
<!DOCTYPE svg PUBLIC "-//W3C//DTD SVG 1.1//EN"
 "http://www.w3.org/Graphics/SVG/1.1/DTD/svg11.dtd">
<!-- Generated by graphviz version 2.43.0 (0)
 -->
<!-- Title: alps_mbed_lib/include/alps_mbed/communication/uart_io.hpp Pages: 1 -->
<svg width="323pt" height="236pt"
 viewBox="0.00 0.00 323.00 236.00" xmlns="http://www.w3.org/2000/svg" xmlns:xlink="http://www.w3.org/1999/xlink">
<g id="graph0" class="graph" transform="scale(1 1) rotate(0) translate(4 232)">
<title>alps_mbed_lib/include/alps_mbed/communication/uart_io.hpp</title>
<!-- Node1 -->
<g id="node1" class="node">
<title>Node1</title>
<g id="a_node1"><a xlink:title="mbedのUart通信IOライブラリ">
<polygon fill="#999999" stroke="#666666" points="218.5,-228 66.5,-228 66.5,-187 218.5,-187 218.5,-228"/>
<text text-anchor="start" x="74.5" y="-216" font-family="Helvetica,sans-Serif" font-size="10.00">alps_mbed_lib/include</text>
<text text-anchor="start" x="74.5" y="-205" font-family="Helvetica,sans-Serif" font-size="10.00">/alps_mbed/communication</text>
<text text-anchor="middle" x="142.5" y="-194" font-family="Helvetica,sans-Serif" font-size="10.00">/uart_io.hpp</text>
</a>
</g>
</g>
<!-- Node2 -->
<g id="node2" class="node">
<title>Node2</title>
<g id="a_node2"><a xlink:title=" ">
<polygon fill="#e0e0e0" stroke="#999999" points="53,-145.5 0,-145.5 0,-126.5 53,-126.5 53,-145.5"/>
<text text-anchor="middle" x="26.5" y="-133.5" font-family="Helvetica,sans-Serif" font-size="10.00">mbed.h</text>
</a>
</g>
</g>
<!-- Node1&#45;&gt;Node2 -->
<g id="edge1" class="edge">
<title>Node1&#45;&gt;Node2</title>
<path fill="none" stroke="#63b8ff" d="M109.88,-186.96C90.65,-175.44 66.8,-161.14 49.53,-150.8"/>
<polygon fill="#63b8ff" stroke="#63b8ff" points="51.07,-147.64 40.69,-145.5 47.47,-153.65 51.07,-147.64"/>
</g>
<!-- Node3 -->
<g id="node3" class="node">
<title>Node3</title>
<g id="a_node3"><a xlink:href="i__uart__io_8hpp.html" target="_top" xlink:title=" ">
<polygon fill="white" stroke="#666666" points="213.5,-151 71.5,-151 71.5,-121 213.5,-121 213.5,-151"/>
<text text-anchor="start" x="79.5" y="-139" font-family="Helvetica,sans-Serif" font-size="10.00">alps_cmn/communication</text>
<text text-anchor="middle" x="142.5" y="-128" font-family="Helvetica,sans-Serif" font-size="10.00">/i_uart_io.hpp</text>
</a>
</g>
</g>
<!-- Node1&#45;&gt;Node3 -->
<g id="edge2" class="edge">
<title>Node1&#45;&gt;Node3</title>
<path fill="none" stroke="#63b8ff" d="M142.5,-186.77C142.5,-178.85 142.5,-169.63 142.5,-161.3"/>
<polygon fill="#63b8ff" stroke="#63b8ff" points="146,-161.04 142.5,-151.04 139,-161.04 146,-161.04"/>
</g>
<!-- Node4 -->
<g id="node4" class="node">
<title>Node4</title>
<g id="a_node4"><a xlink:href="byte__ring__buffer_8hpp.html" target="_top" xlink:title="シリアル通信用リングバッファー">
<polygon fill="white" stroke="#666666" points="248,-85 135,-85 135,-55 248,-55 248,-85"/>
<text text-anchor="start" x="143" y="-73" font-family="Helvetica,sans-Serif" font-size="10.00">alps_cmn/type/byte</text>
<text text-anchor="middle" x="191.5" y="-62" font-family="Helvetica,sans-Serif" font-size="10.00">_ring_buffer.hpp</text>
</a>
</g>
</g>
<!-- Node1&#45;&gt;Node4 -->
<g id="edge8" class="edge">
<title>Node1&#45;&gt;Node4</title>
<path fill="none" stroke="#63b8ff" d="M185.84,-187C200.18,-178.19 214.51,-166.28 222.5,-151 232.29,-132.29 221.73,-109.77 210.36,-93.4"/>
<polygon fill="#63b8ff" stroke="#63b8ff" points="212.87,-90.92 204.08,-85 207.27,-95.11 212.87,-90.92"/>
</g>
<!-- Node3&#45;&gt;Node4 -->
<g id="edge3" class="edge">
<title>Node3&#45;&gt;Node4</title>
<path fill="none" stroke="#63b8ff" d="M153.37,-120.8C159.59,-112.68 167.52,-102.31 174.54,-93.15"/>
<polygon fill="#63b8ff" stroke="#63b8ff" points="177.36,-95.23 180.66,-85.16 171.8,-90.98 177.36,-95.23"/>
</g>
<!-- Node5 -->
<g id="node5" class="node">
<title>Node5</title>
<g id="a_node5"><a xlink:title=" ">
<polygon fill="#e0e0e0" stroke="#999999" points="117.5,-19 67.5,-19 67.5,0 117.5,0 117.5,-19"/>
<text text-anchor="middle" x="92.5" y="-7" font-family="Helvetica,sans-Serif" font-size="10.00">cstdint</text>
</a>
</g>
</g>
<!-- Node4&#45;&gt;Node5 -->
<g id="edge4" class="edge">
<title>Node4&#45;&gt;Node5</title>
<path fill="none" stroke="#63b8ff" d="M167.79,-54.99C152.15,-45.75 131.76,-33.7 116.14,-24.47"/>
<polygon fill="#63b8ff" stroke="#63b8ff" points="117.51,-21.21 107.12,-19.14 113.95,-27.24 117.51,-21.21"/>
</g>
<!-- Node6 -->
<g id="node6" class="node">
<title>Node6</title>
<g id="a_node6"><a xlink:title=" ">
<polygon fill="#e0e0e0" stroke="#999999" points="183,-19 136,-19 136,0 183,0 183,-19"/>
<text text-anchor="middle" x="159.5" y="-7" font-family="Helvetica,sans-Serif" font-size="10.00">vector</text>
</a>
</g>
</g>
<!-- Node4&#45;&gt;Node6 -->
<g id="edge5" class="edge">
<title>Node4&#45;&gt;Node6</title>
<path fill="none" stroke="#63b8ff" d="M183.75,-54.84C179.35,-46.78 173.79,-36.62 169.1,-28.06"/>
<polygon fill="#63b8ff" stroke="#63b8ff" points="172.16,-26.36 164.3,-19.27 166.02,-29.72 172.16,-26.36"/>
</g>
<!-- Node7 -->
<g id="node7" class="node">
<title>Node7</title>
<g id="a_node7"><a xlink:title=" ">
<polygon fill="#e0e0e0" stroke="#999999" points="247.5,-19 201.5,-19 201.5,0 247.5,0 247.5,-19"/>
<text text-anchor="middle" x="224.5" y="-7" font-family="Helvetica,sans-Serif" font-size="10.00">cstdio</text>
</a>
</g>
</g>
<!-- Node4&#45;&gt;Node7 -->
<g id="edge6" class="edge">
<title>Node4&#45;&gt;Node7</title>
<path fill="none" stroke="#63b8ff" d="M199.49,-54.84C204.03,-46.78 209.77,-36.62 214.6,-28.06"/>
<polygon fill="#63b8ff" stroke="#63b8ff" points="217.69,-29.7 219.56,-19.27 211.59,-26.26 217.69,-29.7"/>
</g>
<!-- Node8 -->
<g id="node8" class="node">
<title>Node8</title>
<g id="a_node8"><a xlink:title=" ">
<polygon fill="#e0e0e0" stroke="#999999" points="315,-19 266,-19 266,0 315,0 315,-19"/>
<text text-anchor="middle" x="290.5" y="-7" font-family="Helvetica,sans-Serif" font-size="10.00">cstdlib</text>
</a>
</g>
</g>
<!-- Node4&#45;&gt;Node8 -->
<g id="edge7" class="edge">
<title>Node4&#45;&gt;Node8</title>
<path fill="none" stroke="#63b8ff" d="M215.21,-54.99C230.85,-45.75 251.24,-33.7 266.86,-24.47"/>
<polygon fill="#63b8ff" stroke="#63b8ff" points="269.05,-27.24 275.88,-19.14 265.49,-21.21 269.05,-27.24"/>
</g>
</g>
</svg>
