<?xml version="1.0" encoding="UTF-8" standalone="no"?>
<!DOCTYPE svg PUBLIC "-//W3C//DTD SVG 1.1//EN"
 "http://www.w3.org/Graphics/SVG/1.1/DTD/svg11.dtd">
<!-- Generated by graphviz version 2.43.0 (0)
 -->
<!-- Title: alps_core/lib_internal/alps_common_lib/include/alps_cmn/type/vector_traits.hpp Pages: 1 -->
<svg width="356pt" height="159pt"
 viewBox="0.00 0.00 356.00 159.00" xmlns="http://www.w3.org/2000/svg" xmlns:xlink="http://www.w3.org/1999/xlink">
<g id="graph0" class="graph" transform="scale(1 1) rotate(0) translate(4 155)">
<title>alps_core/lib_internal/alps_common_lib/include/alps_cmn/type/vector_traits.hpp</title>
<!-- Node1 -->
<g id="Node000001" class="node">
<title>Node1</title>
<g id="a_Node000001"><a xlink:title="vector関係の型特性">
<polygon fill="#999999" stroke="#666666" points="257.5,-151 81.5,-151 81.5,-110 257.5,-110 257.5,-151"/>
<text text-anchor="start" x="89.5" y="-139" font-family="Helvetica,sans-Serif" font-size="10.00">alps_core/lib_internal</text>
<text text-anchor="start" x="89.5" y="-128" font-family="Helvetica,sans-Serif" font-size="10.00">/alps_common_lib/include</text>
<text text-anchor="middle" x="169.5" y="-117" font-family="Helvetica,sans-Serif" font-size="10.00">/alps_cmn/type/vector_traits.hpp</text>
</a>
</g>
</g>
<!-- Node2 -->
<g id="Node000002" class="node">
<title>Node2</title>
<g id="a_Node000002"><a xlink:title=" ">
<polygon fill="#e0e0e0" stroke="#999999" points="69,-19 0,-19 0,0 69,0 69,-19"/>
<text text-anchor="middle" x="34.5" y="-7" font-family="Helvetica,sans-Serif" font-size="10.00">type_traits</text>
</a>
</g>
</g>
<!-- Node1&#45;&gt;Node2 -->
<g id="edge1_Node000001_Node000002" class="edge">
<title>Node1&#45;&gt;Node2</title>
<g id="a_edge1_Node000001_Node000002"><a xlink:title=" ">
<path fill="none" stroke="#63b8ff" d="M98.69,-109.9C79.98,-101.59 61.42,-90.01 48.5,-74 38.42,-61.51 35.22,-43.3 34.36,-29.59"/>
<polygon fill="#63b8ff" stroke="#63b8ff" points="37.86,-29.25 34.1,-19.34 30.86,-29.43 37.86,-29.25"/>
</a>
</g>
</g>
<!-- Node3 -->
<g id="Node000003" class="node">
<title>Node3</title>
<g id="a_Node000003"><a xlink:href="container__traits_8hpp.html" target="_top" xlink:title="container関係の型特性">
<polygon fill="white" stroke="#666666" points="171.5,-74 57.5,-74 57.5,-55 171.5,-55 171.5,-74"/>
<text text-anchor="middle" x="114.5" y="-62" font-family="Helvetica,sans-Serif" font-size="10.00">container_traits.hpp</text>
</a>
</g>
</g>
<!-- Node1&#45;&gt;Node3 -->
<g id="edge2_Node000001_Node000003" class="edge">
<title>Node1&#45;&gt;Node3</title>
<g id="a_edge2_Node000001_Node000003"><a xlink:title=" ">
<path fill="none" stroke="#63b8ff" d="M152.7,-109.95C145.02,-101.02 136.03,-90.55 128.7,-82.02"/>
<polygon fill="#63b8ff" stroke="#63b8ff" points="131.2,-79.56 122.03,-74.26 125.89,-84.13 131.2,-79.56"/>
</a>
</g>
</g>
<!-- Node6 -->
<g id="Node000006" class="node">
<title>Node6</title>
<g id="a_Node000006"><a xlink:title=" ">
<polygon fill="#e0e0e0" stroke="#999999" points="261,-74 190,-74 190,-55 261,-55 261,-74"/>
<text text-anchor="middle" x="225.5" y="-62" font-family="Helvetica,sans-Serif" font-size="10.00">etl/vector.h</text>
</a>
</g>
</g>
<!-- Node1&#45;&gt;Node6 -->
<g id="edge6_Node000001_Node000006" class="edge">
<title>Node1&#45;&gt;Node6</title>
<g id="a_edge6_Node000001_Node000006"><a xlink:title=" ">
<path fill="none" stroke="#63b8ff" d="M186.61,-109.95C194.42,-101.02 203.58,-90.55 211.05,-82.02"/>
<polygon fill="#63b8ff" stroke="#63b8ff" points="213.88,-84.09 217.83,-74.26 208.62,-79.48 213.88,-84.09"/>
</a>
</g>
</g>
<!-- Node7 -->
<g id="Node000007" class="node">
<title>Node7</title>
<g id="a_Node000007"><a xlink:title=" ">
<polygon fill="#e0e0e0" stroke="#999999" points="348,-74 279,-74 279,-55 348,-55 348,-74"/>
<text text-anchor="middle" x="313.5" y="-62" font-family="Helvetica,sans-Serif" font-size="10.00">etl/string.h</text>
</a>
</g>
</g>
<!-- Node1&#45;&gt;Node7 -->
<g id="edge7_Node000001_Node000007" class="edge">
<title>Node1&#45;&gt;Node7</title>
<g id="a_edge7_Node000001_Node000007"><a xlink:title=" ">
<path fill="none" stroke="#63b8ff" d="M213.49,-109.95C236.66,-99.65 264.42,-87.31 284.8,-78.25"/>
<polygon fill="#63b8ff" stroke="#63b8ff" points="286.45,-81.35 294.17,-74.09 283.61,-74.95 286.45,-81.35"/>
</a>
</g>
</g>
<!-- Node3&#45;&gt;Node2 -->
<g id="edge4_Node000003_Node000002" class="edge">
<title>Node3&#45;&gt;Node2</title>
<g id="a_edge4_Node000003_Node000002"><a xlink:title=" ">
<path fill="none" stroke="#63b8ff" d="M101.65,-54.98C89.36,-46.84 70.59,-34.41 56.02,-24.76"/>
<polygon fill="#63b8ff" stroke="#63b8ff" points="57.86,-21.78 47.59,-19.17 53.99,-27.61 57.86,-21.78"/>
</a>
</g>
</g>
<!-- Node4 -->
<g id="Node000004" class="node">
<title>Node4</title>
<g id="a_Node000004"><a xlink:title=" ">
<polygon fill="#e0e0e0" stroke="#999999" points="133.5,-19 89.5,-19 89.5,0 133.5,0 133.5,-19"/>
<text text-anchor="middle" x="111.5" y="-7" font-family="Helvetica,sans-Serif" font-size="10.00">string</text>
</a>
</g>
</g>
<!-- Node3&#45;&gt;Node4 -->
<g id="edge3_Node000003_Node000004" class="edge">
<title>Node3&#45;&gt;Node4</title>
<g id="a_edge3_Node000003_Node000004"><a xlink:title=" ">
<path fill="none" stroke="#63b8ff" d="M114,-54.75C113.61,-47.8 113.05,-37.85 112.55,-29.13"/>
<polygon fill="#63b8ff" stroke="#63b8ff" points="116.05,-28.88 111.99,-19.09 109.06,-29.27 116.05,-28.88"/>
</a>
</g>
</g>
<!-- Node5 -->
<g id="Node000005" class="node">
<title>Node5</title>
<g id="a_Node000005"><a xlink:title=" ">
<polygon fill="#e0e0e0" stroke="#999999" points="199,-19 152,-19 152,0 199,0 199,-19"/>
<text text-anchor="middle" x="175.5" y="-7" font-family="Helvetica,sans-Serif" font-size="10.00">vector</text>
</a>
</g>
</g>
<!-- Node3&#45;&gt;Node5 -->
<g id="edge5_Node000003_Node000005" class="edge">
<title>Node3&#45;&gt;Node5</title>
<g id="a_edge5_Node000003_Node000005"><a xlink:title=" ">
<path fill="none" stroke="#63b8ff" d="M124.3,-54.98C133.32,-47.15 146.91,-35.34 157.82,-25.86"/>
<polygon fill="#63b8ff" stroke="#63b8ff" points="160.27,-28.37 165.52,-19.17 155.68,-23.09 160.27,-28.37"/>
</a>
</g>
</g>
</g>
</svg>
