<?xml version="1.0" encoding="UTF-8" standalone="no"?>
<!DOCTYPE svg PUBLIC "-//W3C//DTD SVG 1.1//EN"
 "http://www.w3.org/Graphics/SVG/1.1/DTD/svg11.dtd">
<!-- Generated by graphviz version 2.43.0 (0)
 -->
<!-- Title: alps_common_lib/include/alps_cmn/sensor/vl53l0x.hpp Pages: 1 -->
<svg width="218pt" height="159pt"
 viewBox="0.00 0.00 218.00 159.00" xmlns="http://www.w3.org/2000/svg" xmlns:xlink="http://www.w3.org/1999/xlink">
<g id="graph0" class="graph" transform="scale(1 1) rotate(0) translate(4 155)">
<title>alps_common_lib/include/alps_cmn/sensor/vl53l0x.hpp</title>
<!-- Node1 -->
<g id="node1" class="node">
<title>Node1</title>
<g id="a_node1"><a xlink:title="VL53L0X 距離センサ">
<polygon fill="#999999" stroke="#666666" points="162.5,-151 1.5,-151 1.5,-121 162.5,-121 162.5,-151"/>
<text text-anchor="start" x="9.5" y="-139" font-family="Helvetica,sans-Serif" font-size="10.00">alps_common_lib/include</text>
<text text-anchor="middle" x="82" y="-128" font-family="Helvetica,sans-Serif" font-size="10.00">/alps_cmn/sensor/vl53l0x.hpp</text>
</a>
</g>
</g>
<!-- Node2 -->
<g id="node2" class="node">
<title>Node2</title>
<g id="a_node2"><a xlink:title=" ">
<polygon fill="#e0e0e0" stroke="#999999" points="50,-79.5 0,-79.5 0,-60.5 50,-60.5 50,-79.5"/>
<text text-anchor="middle" x="25" y="-67.5" font-family="Helvetica,sans-Serif" font-size="10.00">chrono</text>
</a>
</g>
</g>
<!-- Node1&#45;&gt;Node2 -->
<g id="edge1" class="edge">
<title>Node1&#45;&gt;Node2</title>
<path fill="none" stroke="#63b8ff" d="M69.35,-120.8C60.55,-110.92 48.8,-97.72 39.6,-87.39"/>
<polygon fill="#63b8ff" stroke="#63b8ff" points="42.14,-84.98 32.88,-79.84 36.91,-89.64 42.14,-84.98"/>
</g>
<!-- Node3 -->
<g id="node3" class="node">
<title>Node3</title>
<g id="a_node3"><a xlink:href="i__i2c__io_8hpp.html" target="_top" xlink:title="I2C通信インタフェース">
<polygon fill="white" stroke="#666666" points="210,-85 68,-85 68,-55 210,-55 210,-85"/>
<text text-anchor="start" x="76" y="-73" font-family="Helvetica,sans-Serif" font-size="10.00">alps_cmn/communication</text>
<text text-anchor="middle" x="139" y="-62" font-family="Helvetica,sans-Serif" font-size="10.00">/i_i2c_io.hpp</text>
</a>
</g>
</g>
<!-- Node1&#45;&gt;Node3 -->
<g id="edge2" class="edge">
<title>Node1&#45;&gt;Node3</title>
<path fill="none" stroke="#63b8ff" d="M94.65,-120.8C101.96,-112.59 111.3,-102.1 119.52,-92.87"/>
<polygon fill="#63b8ff" stroke="#63b8ff" points="122.35,-94.96 126.39,-85.16 117.12,-90.3 122.35,-94.96"/>
</g>
<!-- Node4 -->
<g id="node4" class="node">
<title>Node4</title>
<g id="a_node4"><a xlink:title=" ">
<polygon fill="#e0e0e0" stroke="#999999" points="126,-19 76,-19 76,0 126,0 126,-19"/>
<text text-anchor="middle" x="101" y="-7" font-family="Helvetica,sans-Serif" font-size="10.00">cstdint</text>
</a>
</g>
</g>
<!-- Node3&#45;&gt;Node4 -->
<g id="edge3" class="edge">
<title>Node3&#45;&gt;Node4</title>
<path fill="none" stroke="#63b8ff" d="M129.8,-54.84C124.51,-46.69 117.82,-36.4 112.22,-27.78"/>
<polygon fill="#63b8ff" stroke="#63b8ff" points="115.08,-25.75 106.69,-19.27 109.21,-29.56 115.08,-25.75"/>
</g>
<!-- Node5 -->
<g id="node5" class="node">
<title>Node5</title>
<g id="a_node5"><a xlink:title=" ">
<polygon fill="#e0e0e0" stroke="#999999" points="209.5,-19 144.5,-19 144.5,0 209.5,0 209.5,-19"/>
<text text-anchor="middle" x="177" y="-7" font-family="Helvetica,sans-Serif" font-size="10.00">etl/span.h</text>
</a>
</g>
</g>
<!-- Node3&#45;&gt;Node5 -->
<g id="edge4" class="edge">
<title>Node3&#45;&gt;Node5</title>
<path fill="none" stroke="#63b8ff" d="M148.2,-54.84C153.49,-46.69 160.18,-36.4 165.78,-27.78"/>
<polygon fill="#63b8ff" stroke="#63b8ff" points="168.79,-29.56 171.31,-19.27 162.92,-25.75 168.79,-29.56"/>
</g>
</g>
</svg>
